g KK-Door_1
v -2.9448 -2.159633 1.343679
v -2.944798 -2.159632 2.648508
v -0.9128335 -2.159632 2.648506
v -0.9128335 -2.159632 1.343679
v 0 -2.159632 2.648505
v -3.051758E-07 -2.159632 1.343679
v -2.9448 -2.159633 1.343679
v -0.9128329 -2.12233 1.324255
v -2.944801 -2.122331 1.324254
v -0.9128335 -2.159632 1.343679
v -3.051758E-07 -2.122331 1.324254
v -3.051758E-07 -2.159632 1.343679
vt 0.01454793 0.9994801
vt 0.4568726 0.9987603
vt 0.4557521 0.3099421
vt 0.01342907 0.3106603
vt 0.4552507 0.0005
vt 0.01292611 0.001218662
vt 0.01454793 0.9994801
vt 0.001003566 0.3106804
vt 0.002121975 0.9995
vt 0.01342907 0.3106603
vt 0.0005 0.001238908
vt 0.01292611 0.001218662
vn 1.126408E-07 -1 5.262347E-07
vn 1.126408E-07 -1 5.262347E-07
vn 0 -1 4.385291E-07
vn 0 -1 4.38529E-07
vn 0 -1 3.508234E-07
vn 0 -1 3.508234E-07
vn 3.704285E-07 -0.4618775 -0.8869437
vn 3.704285E-07 -0.4618775 -0.8869438
vn 3.704285E-07 -0.4618775 -0.8869437
vn 3.704284E-07 -0.4618775 -0.8869437
vn -7.474209E-07 -0.4618691 -0.8869481
vn -7.474209E-07 -0.4618691 -0.8869481
g KK-Door_1_0
f 3/3/3 2/2/2 1/1/1
f 4/4/4 3/3/3 1/1/1
f 3/3/3 4/4/4 5/5/5
f 4/4/4 6/6/6 5/5/5
g KK-Door_1_1
f 9/9/9 8/8/8 7/7/7
f 8/8/8 10/10/10 7/7/7
f 8/8/8 11/11/11 10/10/10
f 11/11/11 12/12/12 10/10/10
