g KK-MaritimeFlag_2
v 0.6254846 3.520049 2.354524
v 0.3613934 3.443545 2.367313
v 0.6254773 3.520074 2.364622
v 0.36138 3.443595 2.357215
v 0.2728418 3.415946 2.356148
v 0.2719867 3.415651 2.366232
v 0.09866577 3.361601 2.362847
v 0.09911621 3.361666 2.35276
v -0.07469971 3.306092 2.358641
v -0.07377868 3.306173 2.348567
v -0.1628792 3.277231 2.346276
v -0.162953 3.277481 2.356373
v -0.422444 3.185317 2.348114
v -0.4223674 3.185055 2.338018
v -0.6102092 3.82446 2.342518
v -0.3334105 3.85771 2.36066
v -0.6102791 3.824698 2.352616
v -0.3333388 3.857469 2.350562
v -0.2412971 3.873183 2.350932
v -0.2404579 3.873543 2.361031
v -0.06394409 3.91672 2.360965
v -0.06435547 3.916512 2.350869
v 0.1061932 3.983215 2.360315
v 0.1053509 3.982867 2.350219
v 0.190907 4.023868 2.350099
v 0.1909259 4.023809 2.360198
v 0.4376257 4.159513 2.362445
v 0.4376263 4.159506 2.352347
v 0.4376263 4.159506 2.352347
v 0.4850702 3.998019 2.372926
v 0.4376257 4.159513 2.362445
v 0.4850714 3.99801 2.362828
v 0.53172 3.839218 2.376992
v 0.5317224 3.839209 2.366893
v 0.5782886 3.680704 2.373754
v 0.5782916 3.680687 2.363655
v 0.6254773 3.520074 2.364622
v 0.6254846 3.520049 2.354524
v -0.4223674 3.185055 2.338018
v -0.4696873 3.346131 2.344232
v -0.422444 3.185317 2.348114
v -0.4696077 3.34586 2.334133
v -0.5162709 3.504701 2.344762
v -0.5161931 3.504433 2.334663
v -0.5628944 3.663407 2.348592
v -0.5628188 3.663149 2.338493
v -0.6102791 3.824698 2.352616
v -0.6102092 3.82446 2.342518
v 0.190907 4.023868 2.350099
v 0.4850714 3.99801 2.362828
v 0.4376263 4.159506 2.352347
v 0.2335315 3.878779 2.361253
v 0.1053509 3.982867 2.350219
v 0.5317224 3.839209 2.366893
v 0.1471082 3.841533 2.360373
v -0.06435547 3.916512 2.350869
v 0.2755823 3.735641 2.366422
v 0.5782916 3.680687 2.363655
v 0.3179401 3.591454 2.364688
v 0.6254846 3.520049 2.354524
v 0.36138 3.443595 2.357215
v 0.1883783 3.701856 2.364927
v 0.2300195 3.560909 2.363052
v 0.2728418 3.415946 2.356148
v -0.02370667 3.778546 2.357998
v 0.05720032 3.503952 2.358245
v 0.09911621 3.361666 2.35276
v -0.07377868 3.306173 2.348567
v 0.01653381 3.641975 2.360667
v -0.1166724 3.45137 2.351713
v -0.1628792 3.277231 2.346276
v -0.1995927 3.732028 2.354039
v -0.2412971 3.873183 2.350932
v -0.158343 3.592414 2.354116
v -0.2063954 3.425363 2.347893
v -0.2907957 3.712657 2.351451
v -0.3333388 3.857469 2.350562
v -0.2487813 3.569639 2.350152
v -0.4696077 3.34586 2.334133
v -0.4223674 3.185055 2.338018
v -0.5161931 3.504433 2.334663
v -0.5628188 3.663149 2.338493
v -0.6102092 3.82446 2.342518
v 0.4850702 3.998019 2.372926
v 0.1909259 4.023809 2.360198
v 0.4376257 4.159513 2.362445
v 0.2335492 3.878717 2.37135
v 0.53172 3.839218 2.376992
v 0.1061932 3.983215 2.360315
v 0.2756012 3.735573 2.376519
v 0.5782886 3.680704 2.373754
v 0.1475299 3.841703 2.370471
v -0.06394409 3.91672 2.360965
v 0.3179596 3.591391 2.374785
v 0.1883765 3.701862 2.375022
v -0.02351135 3.77869 2.368097
v 0.3613934 3.443545 2.367313
v 0.6254773 3.520074 2.364622
v 0.2295941 3.560757 2.37314
v 0.2719867 3.415651 2.366232
v 0.01651367 3.642042 2.370762
v 0.05696289 3.503951 2.368333
v 0.09866577 3.361601 2.362847
v -0.07469971 3.306092 2.358641
v -0.1171527 3.451406 2.36179
v -0.162953 3.277481 2.356373
v -0.1991985 3.732293 2.364147
v -0.2404579 3.873543 2.361031
v -0.1583873 3.592567 2.364211
v -0.2064708 3.425612 2.35799
v -0.422444 3.185317 2.348114
v -0.4696873 3.346131 2.344232
v -0.2488542 3.569893 2.360249
v -0.5162709 3.504701 2.344762
v -0.2908708 3.71291 2.361548
v -0.3334105 3.85771 2.36066
v -0.5628944 3.663407 2.348592
v -0.6102791 3.824698 2.352616
vt 0.1736471 0.1773135
vt 0.2038119 0.173494
vt 0.1735588 0.1762019
vt 0.2038883 0.1746097
vt 0.214157 0.174131
vt 0.2142036 0.1730063
vt 0.2344536 0.1726225
vt 0.2344272 0.1737519
vt 0.2548804 0.1729957
vt 0.2547687 0.174126
vt 0.2652776 0.1746249
vt 0.2653221 0.1734903
vt 0.2961867 0.176226
vt 0.2961221 0.1773593
vt 0.3014963 0.1001437
vt 0.2683044 0.1022155
vt 0.3014977 0.1013273
vt 0.2682944 0.1009825
vt 0.2564588 0.1011427
vt 0.2563622 0.102436
vt 0.2323965 0.1028126
vt 0.2324354 0.1014933
vt 0.20832 0.1030888
vt 0.2084183 0.1017998
vt 0.1964303 0.1019633
vt 0.1964425 0.1031906
vt 0.1631251 0.1035758
vt 0.1631206 0.1023978
vt 0.1620227 0.1037382
vt 0.1669662 0.1217917
vt 0.1631251 0.1035758
vt 0.1658628 0.1219474
vt 0.1698397 0.1398194
vt 0.1687321 0.1399703
vt 0.1719364 0.1578564
vt 0.170838 0.1580122
vt 0.1735588 0.1762019
vt 0.1724609 0.1763624
vt 0.2973204 0.1762837
vt 0.2970697 0.1573863
vt 0.2961867 0.176226
vt 0.2982049 0.1574623
vt 0.2980234 0.1387469
vt 0.2991548 0.1388639
vt 0.2993968 0.1201151
vt 0.3005213 0.1202765
vt 0.3014977 0.1013273
vt 0.3026176 0.101508
vt 0.1964303 0.1019633
vt 0.1665853 0.08407574
vt 0.1631206 0.1023978
vt 0.1987329 0.08363175
vt 0.2084183 0.1017998
vt 0.1689676 0.0659436
vt 0.2100778 0.08331499
vt 0.2324354 0.1014933
vt 0.2002448 0.06611179
vt 0.1707051 0.04782224
vt 0.2013584 0.04894966
vt 0.1721191 0.02943684
vt 0.2022885 0.03176342
vt 0.2111411 0.06590863
vt 0.2118968 0.0489657
vt 0.2125219 0.03204438
vt 0.2325174 0.08278189
vt 0.2326141 0.04872357
vt 0.2326375 0.03205954
vt 0.2527423 0.03120612
vt 0.2325716 0.06547851
vt 0.2533412 0.04823001
vt 0.2631226 0.03047522
vt 0.2549699 0.08266413
vt 0.2564588 0.1011427
vt 0.2540162 0.0652323
vt 0.2639598 0.04780035
vt 0.2662461 0.08261292
vt 0.2682944 0.1009825
vt 0.2649214 0.06504559
vt 0.2947261 0.04537632
vt 0.293503 0.02679438
vt 0.296218 0.06361078
vt 0.2983121 0.08182412
vt 0.3014963 0.1001437
vt 0.1669662 0.1217917
vt 0.1964425 0.1031906
vt 0.1631251 0.1035758
vt 0.1991635 0.1215165
vt 0.1698397 0.1398194
vt 0.20832 0.1030888
vt 0.2010807 0.1390496
vt 0.1719364 0.1578564
vt 0.2104826 0.1215654
vt 0.2323965 0.1028126
vt 0.2025596 0.1562425
vt 0.2120138 0.139003
vt 0.233019 0.1215411
vt 0.2038119 0.173494
vt 0.1735588 0.1762019
vt 0.2131932 0.156
vt 0.2142036 0.1730063
vt 0.2335591 0.1389354
vt 0.2340373 0.1557626
vt 0.2344536 0.1726225
vt 0.2548804 0.1729957
vt 0.2550052 0.1557693
vt 0.2653221 0.1734903
vt 0.2555274 0.1209916
vt 0.2563622 0.102436
vt 0.2551562 0.1385435
vt 0.2657168 0.1558912
vt 0.2961867 0.176226
vt 0.2970697 0.1573863
vt 0.2661705 0.1383951
vt 0.2980234 0.1387469
vt 0.266915 0.1206605
vt 0.2683044 0.1022155
vt 0.2993968 0.1201151
vt 0.3014977 0.1013273
vn 0.2781913 -0.9605249 -0.001230652
vn 0.2881057 -0.9575952 -0.002548909
vn 0.2781914 -0.9605249 -0.001230652
vn 0.288115 -0.9575924 -0.002550152
vn 0.2979675 -0.9545755 -0.0009715508
vn 0.2979643 -0.9545768 -0.0006837175
vn 0.3014941 -0.9534336 0.008112983
vn 0.3013886 -0.9534684 0.007938036
vn 0.3065583 -0.951668 0.01871089
vn 0.3064289 -0.9517173 0.0183211
vn 0.321206 -0.9466839 0.02482621
vn 0.3207417 -0.9468428 0.02476856
vn 0.3338461 -0.942258 0.026397
vn 0.3338461 -0.9422579 0.026397
vn -0.1176558 0.9927552 -0.0243764
vn -0.1430672 0.9894303 -0.02365098
vn -0.1176558 0.9927552 -0.0243764
vn -0.1426578 0.9894891 -0.02366282
vn -0.2009734 0.9794302 -0.01805845
vn -0.2049761 0.9786112 -0.01746476
vn -0.3033012 0.9528638 -0.007681987
vn -0.2998372 0.9539574 -0.007944164
vn -0.4002699 0.9163961 0.001485662
vn -0.3964772 0.918044 0.001010462
vn -0.4571345 0.8893881 0.004101536
vn -0.45721 0.8893493 0.004097263
vn -0.4818834 0.8762312 0.002687679
vn -0.4818834 0.8762312 0.002687679
vn 0.9594541 0.2818647 -0.0001173664
vn 0.9594557 0.2818593 -9.025199E-05
vn 0.9594541 0.2818647 -0.0001173664
vn 0.9594557 0.2818596 -9.168313E-05
vn 0.9594553 0.2818609 -8.492818E-05
vn 0.9594552 0.2818609 -8.488827E-05
vn 0.9594526 0.2818699 -0.000100186
vn 0.9594526 0.28187 -9.993073E-05
vn 0.9594519 0.2818723 -9.488384E-05
vn 0.9594519 0.2818722 -9.488384E-05
vn -0.9594543 -0.2818641 9.34848E-06
vn -0.9594542 -0.2818645 2.311471E-05
vn -0.9594543 -0.2818641 9.34848E-06
vn -0.9594542 -0.2818645 2.28035E-05
vn -0.9594549 -0.2818625 3.917279E-05
vn -0.9594548 -0.2818626 3.904109E-05
vn -0.9594538 -0.281866 2.531907E-05
vn -0.9594539 -0.2818656 2.632849E-05
vn -0.9594522 -0.2818713 1.000486E-05
vn -0.9594522 -0.2818713 1.000486E-05
vn 0.03605914 -0.06146404 -0.9974577
vn 0.02783079 -0.04429945 -0.9986305
vn 0.03795621 -0.05924072 -0.9975218
vn 0.02756852 -0.04405125 -0.9986488
vn 0.02995424 -0.05962545 -0.9977713
vn 0.005162395 -0.007032206 -0.999962
vn 0.02733774 -0.0406796 -0.9987983
vn 0.02233601 -0.04277482 -0.998835
vn 0.01123533 -0.005546454 -0.9999216
vn -0.01405176 0.03043979 -0.9994377
vn -0.00436081 0.0316758 -0.9994887
vn -0.02202942 0.04727966 -0.9986387
vn -0.01136988 0.04805071 -0.9987802
vn 0.02034352 -0.001816084 -0.9997914
vn 0.009768078 0.03306578 -0.9994054
vn 0.004125797 0.04725257 -0.9988745
vn 0.02525737 -0.02568042 -0.9993511
vn 0.01938247 0.03228854 -0.9992906
vn 0.01441378 0.04070935 -0.9990671
vn 0.02329688 0.02987085 -0.9992823
vn 0.02625154 0.007261942 -0.999629
vn 0.02803321 0.02823747 -0.9992082
vn 0.03384898 0.01408876 -0.9993277
vn 0.02508527 -0.006563467 -0.9996637
vn 0.01834952 -0.01931955 -0.999645
vn 0.03221054 0.01652216 -0.9993445
vn 0.03797863 0.01979672 -0.9990824
vn 0.03298639 0.01397854 -0.999358
vn 0.02725001 0.007219593 -0.9996026
vn 0.04087147 0.02359439 -0.9988858
vn 0.04459306 0.01399492 -0.9989072
vn 0.04058107 0.004587847 -0.9991658
vn 0.04736399 0.02711134 -0.9985097
vn 0.04028643 0.02521425 -0.99887
vn 0.03514089 0.02055902 -0.9991709
vn -0.02784792 0.04429405 0.9986303
vn -0.03607518 0.06146271 0.9974572
vn -0.03797254 0.05923095 0.9975218
vn -0.02758012 0.04404576 0.9986488
vn -0.005173269 0.00703232 0.999962
vn -0.02996533 0.0596564 0.9977691
vn -0.01124514 0.005536652 0.9999214
vn 0.01405341 -0.03043519 0.9994379
vn -0.02733382 0.04069788 0.9987975
vn -0.02232953 0.04283724 0.9988325
vn 0.004346757 -0.03168138 0.9994886
vn -0.02035241 0.001822847 0.9997912
vn -0.02524547 0.02571348 0.9993505
vn 0.01135185 -0.04804853 0.9987805
vn 0.02203923 -0.04727615 0.9986387
vn -0.009806208 -0.03306335 0.9994051
vn -0.004187386 -0.04723936 0.9988748
vn -0.02625509 -0.00725727 0.9996289
vn -0.01941829 -0.03227573 0.9992903
vn -0.01446879 -0.04067456 0.9990677
vn -0.02334339 -0.02982529 0.9992825
vn -0.02805907 -0.02822391 0.9992078
vn -0.03386456 -0.01407907 0.9993273
vn -0.02506135 0.006599 0.9996641
vn -0.01832019 0.01940751 0.9996438
vn -0.03220649 -0.01652306 0.9993446
vn -0.0379886 -0.0197893 0.9990822
vn -0.04057644 -0.004593632 0.9991659
vn -0.04458721 -0.01399755 0.9989074
vn -0.04086103 -0.02358737 0.9988864
vn -0.04735608 -0.02711166 0.9985101
vn -0.03296126 -0.01395484 0.9993592
vn -0.02722668 -0.007190919 0.9996035
vn -0.04028089 -0.02521524 0.9988702
vn -0.03513784 -0.02055941 0.999171
g KK-MaritimeFlag_2_0
f 3/3/3 2/2/2 1/1/1
f 2/2/2 4/4/4 1/1/1
f 4/4/4 2/2/2 5/5/5
f 2/2/2 6/6/6 5/5/5
f 6/6/6 7/7/7 5/5/5
f 7/7/7 8/8/8 5/5/5
f 8/8/8 7/7/7 9/9/9
f 10/10/10 8/8/8 9/9/9
f 10/10/10 9/9/9 11/11/11
f 9/9/9 12/12/12 11/11/11
f 11/11/11 12/12/12 13/13/13
f 14/14/14 11/11/11 13/13/13
f 17/17/17 16/16/16 15/15/15
f 16/16/16 18/18/18 15/15/15
f 18/18/18 16/16/16 19/19/19
f 16/16/16 20/20/20 19/19/19
f 20/20/20 21/21/21 19/19/19
f 21/21/21 22/22/22 19/19/19
f 22/22/22 21/21/21 23/23/23
f 24/24/24 22/22/22 23/23/23
f 24/24/24 23/23/23 25/25/25
f 23/23/23 26/26/26 25/25/25
f 25/25/25 26/26/26 27/27/27
f 28/28/28 25/25/25 27/27/27
f 31/31/31 30/30/30 29/29/29
f 30/30/30 32/32/32 29/29/29
f 30/30/30 33/33/33 32/32/32
f 33/33/33 34/34/34 32/32/32
f 33/33/33 35/35/35 34/34/34
f 35/35/35 36/36/36 34/34/34
f 36/36/36 35/35/35 37/37/37
f 38/38/38 36/36/36 37/37/37
f 41/41/41 40/40/40 39/39/39
f 40/40/40 42/42/42 39/39/39
f 40/40/40 43/43/43 42/42/42
f 43/43/43 44/44/44 42/42/42
f 43/43/43 45/45/45 44/44/44
f 45/45/45 46/46/46 44/44/44
f 46/46/46 45/45/45 47/47/47
f 48/48/48 46/46/46 47/47/47
f 51/51/51 50/50/50 49/49/49
f 50/50/50 52/52/52 49/49/49
f 49/49/49 52/52/52 53/53/53
f 52/52/52 50/50/50 54/54/54
f 52/52/52 55/55/55 53/53/53
f 53/53/53 55/55/55 56/56/56
f 57/57/57 52/52/52 54/54/54
f 55/55/55 52/52/52 57/57/57
f 57/57/57 54/54/54 58/58/58
f 59/59/59 57/57/57 58/58/58
f 59/59/59 58/58/58 60/60/60
f 61/61/61 59/59/59 60/60/60
f 62/62/62 55/55/55 57/57/57
f 62/62/62 57/57/57 59/59/59
f 63/63/63 59/59/59 61/61/61
f 63/63/63 62/62/62 59/59/59
f 64/64/64 63/63/63 61/61/61
f 55/55/55 65/65/65 56/56/56
f 65/65/65 55/55/55 62/62/62
f 66/66/66 63/63/63 64/64/64
f 67/67/67 66/66/66 64/64/64
f 67/67/67 68/68/68 66/66/66
f 69/69/69 62/62/62 63/63/63
f 66/66/66 69/69/69 63/63/63
f 69/69/69 65/65/65 62/62/62
f 68/68/68 70/70/70 66/66/66
f 69/69/69 66/66/66 70/70/70
f 68/68/68 71/71/71 70/70/70
f 56/56/56 65/65/65 72/72/72
f 73/73/73 56/56/56 72/72/72
f 65/65/65 69/69/69 74/74/74
f 74/74/74 69/69/69 70/70/70
f 72/72/72 65/65/65 74/74/74
f 71/71/71 75/75/75 70/70/70
f 70/70/70 75/75/75 74/74/74
f 73/73/73 72/72/72 76/76/76
f 77/77/77 73/73/73 76/76/76
f 74/74/74 78/78/78 72/72/72
f 75/75/75 78/78/78 74/74/74
f 78/78/78 76/76/76 72/72/72
f 79/79/79 75/75/75 71/71/71
f 78/78/78 75/75/75 79/79/79
f 80/80/80 79/79/79 71/71/71
f 81/81/81 78/78/78 79/79/79
f 76/76/76 78/78/78 81/81/81
f 82/82/82 76/76/76 81/81/81
f 77/77/77 76/76/76 82/82/82
f 83/83/83 77/77/77 82/82/82
f 86/86/86 85/85/85 84/84/84
f 85/85/85 87/87/87 84/84/84
f 84/84/84 87/87/87 88/88/88
f 85/85/85 89/89/89 87/87/87
f 87/87/87 90/90/90 88/88/88
f 88/88/88 90/90/90 91/91/91
f 89/89/89 92/92/92 87/87/87
f 87/87/87 92/92/92 90/90/90
f 89/89/89 93/93/93 92/92/92
f 90/90/90 94/94/94 91/91/91
f 92/92/92 95/95/95 90/90/90
f 90/90/90 95/95/95 94/94/94
f 93/93/93 96/96/96 92/92/92
f 92/92/92 96/96/96 95/95/95
f 91/91/91 94/94/94 97/97/97
f 98/98/98 91/91/91 97/97/97
f 97/97/97 94/94/94 99/99/99
f 95/95/95 99/99/99 94/94/94
f 100/100/100 97/97/97 99/99/99
f 95/95/95 101/101/101 99/99/99
f 96/96/96 101/101/101 95/95/95
f 100/100/100 99/99/99 102/102/102
f 101/101/101 102/102/102 99/99/99
f 103/103/103 100/100/100 102/102/102
f 103/103/103 102/102/102 104/104/104
f 102/102/102 105/105/105 104/104/104
f 102/102/102 101/101/101 105/105/105
f 104/104/104 105/105/105 106/106/106
f 107/107/107 96/96/96 93/93/93
f 108/108/108 107/107/107 93/93/93
f 101/101/101 96/96/96 109/109/109
f 101/101/101 109/109/109 105/105/105
f 96/96/96 107/107/107 109/109/109
f 105/105/105 110/110/110 106/106/106
f 110/110/110 105/105/105 109/109/109
f 106/106/106 110/110/110 111/111/111
f 110/110/110 112/112/112 111/111/111
f 113/113/113 110/110/110 109/109/109
f 110/110/110 113/113/113 112/112/112
f 113/113/113 109/109/109 107/107/107
f 113/113/113 114/114/114 112/112/112
f 115/115/115 107/107/107 108/108/108
f 115/115/115 113/113/113 107/107/107
f 113/113/113 115/115/115 114/114/114
f 116/116/116 115/115/115 108/108/108
f 115/115/115 117/117/117 114/114/114
f 117/117/117 115/115/115 116/116/116
f 118/118/118 117/117/117 116/116/116
