g KK-Nail_12
v -5.766824 3.219474 3.084178
v -5.75385 3.228811 3.159133
v -5.779136 3.210609 3.087947
v -5.75385 3.228812 3.083225
v -5.79013 3.202698 3.095434
v -5.740874 3.238148 3.084178
v -5.799881 3.195678 3.105459
v -5.728563 3.24701 3.087947
v -5.808476 3.189493 3.116828
v -5.717572 3.254921 3.095434
v -5.814899 3.184871 3.129647
v -5.707819 3.26194 3.105459
v -5.818129 3.182546 3.144004
v -5.699224 3.26813 3.11683
v -5.818947 3.181958 3.159134
v -5.692801 3.272751 3.129646
v -5.818129 3.182545 3.174263
v -5.689571 3.275075 3.144004
v -5.8149 3.18487 3.18862
v -5.688752 3.275664 3.159134
v -5.808476 3.189493 3.201437
v -5.689571 3.275077 3.174261
v -5.799881 3.19568 3.212809
v -5.692801 3.272752 3.188619
v -5.790128 3.202699 3.222833
v -5.699224 3.268128 3.201436
v -5.779137 3.210611 3.230322
v -5.707819 3.26194 3.212809
v -5.766824 3.219474 3.234088
v -5.717571 3.254921 3.222833
v -5.75385 3.228811 3.235041
v -5.728562 3.247013 3.230322
v -5.740874 3.238149 3.234088
v -5.736514 3.194126 3.068287
v -5.749095 3.219295 3.070428
v -5.763927 3.20862 3.072159
v -5.751673 3.183214 3.070118
v -5.721354 3.205037 3.070117
v -5.7782 3.198348 3.077199
v -5.73426 3.229972 3.072159
v -5.766279 3.172702 3.075341
v -5.706749 3.215551 3.075341
v -5.791347 3.188884 3.085402
v -5.71999 3.240244 3.077199
v -5.779774 3.162989 3.08369
v -5.693254 3.225262 3.083689
v -5.802885 3.180579 3.096409
v -5.706841 3.249708 3.085402
v -5.791603 3.154474 3.094895
v -5.681424 3.233775 3.094896
v -5.812324 3.173783 3.109864
v -5.695304 3.258013 3.096409
v -5.801213 3.147557 3.108688
v -5.671815 3.240693 3.108688
v -5.81936 3.168723 3.125194
v -5.685863 3.264805 3.109864
v -5.808373 3.142404 3.124425
v -5.664656 3.245847 3.124425
v -5.823682 3.165611 3.141838
v -5.678828 3.269868 3.125194
v -5.812854 3.13918 3.141456
v -5.660176 3.249069 3.141456
v -5.825165 3.164545 3.159134
v -5.674506 3.272981 3.141838
v -5.814421 3.138051 3.159133
v -5.658605 3.250201 3.159134
v -5.823683 3.165611 3.176431
v -5.673022 3.274049 3.159134
v -5.812853 3.13918 3.176811
v -5.660176 3.249069 3.176811
v -5.819359 3.168723 3.193072
v -5.674506 3.27298 3.176431
v -5.808374 3.142404 3.193841
v -5.664655 3.245846 3.193841
v -5.812324 3.173783 3.208403
v -5.678828 3.269868 3.193073
v -5.801213 3.147557 3.209578
v -5.671814 3.24069 3.209578
v -5.802885 3.180579 3.221857
v -5.685863 3.264806 3.208405
v -5.791603 3.154474 3.223372
v -5.681425 3.233775 3.223372
v -5.791347 3.188884 3.232865
v -5.695304 3.258013 3.221857
v -5.779773 3.162988 3.234578
v -5.693254 3.225262 3.234578
v -5.778199 3.198347 3.241069
v -5.706841 3.249708 3.232866
v -5.766278 3.172702 3.242926
v -5.706748 3.215551 3.242926
v -5.763927 3.20862 3.246109
v -5.719989 3.240244 3.241069
v -5.751673 3.183214 3.24815
v -5.721353 3.205037 3.248151
v -5.749094 3.219295 3.247838
v -5.734262 3.229971 3.24611
v -5.736514 3.194125 3.24998
v -5.791347 3.188884 3.085402
v -5.79013 3.202698 3.095434
v -5.799881 3.195678 3.105459
v -5.7782 3.198348 3.077199
v -5.802885 3.180579 3.096409
v -5.779136 3.210609 3.087947
v -5.808476 3.189493 3.116828
v -5.763927 3.20862 3.072159
v -5.812324 3.173783 3.109864
v -5.766824 3.219474 3.084178
v -5.814899 3.184871 3.129647
v -5.749095 3.219295 3.070428
v -5.81936 3.168723 3.125194
v -5.75385 3.228812 3.083225
v -5.818129 3.182546 3.144004
v -5.73426 3.229972 3.072159
v -5.823682 3.165611 3.141838
v -5.740874 3.238148 3.084178
v -5.818947 3.181958 3.159134
v -5.71999 3.240244 3.077199
v -5.825165 3.164545 3.159134
v -5.728563 3.24701 3.087947
v -5.818129 3.182545 3.174263
v -5.706841 3.249708 3.085402
v -5.823683 3.165611 3.176431
v -5.717572 3.254921 3.095434
v -5.8149 3.18487 3.18862
v -5.695304 3.258013 3.096409
v -5.819359 3.168723 3.193072
v -5.707819 3.26194 3.105459
v -5.808476 3.189493 3.201437
v -5.685863 3.264805 3.109864
v -5.812324 3.173783 3.208403
v -5.699224 3.26813 3.11683
v -5.799881 3.19568 3.212809
v -5.678828 3.269868 3.125194
v -5.802885 3.180579 3.221857
v -5.692801 3.272751 3.129646
v -5.790128 3.202699 3.222833
v -5.674506 3.272981 3.141838
v -5.791347 3.188884 3.232865
v -5.689571 3.275075 3.144004
v -5.779137 3.210611 3.230322
v -5.673022 3.274049 3.159134
v -5.778199 3.198347 3.241069
v -5.688752 3.275664 3.159134
v -5.766824 3.219474 3.234088
v -5.674506 3.27298 3.176431
v -5.763927 3.20862 3.246109
v -5.689571 3.275077 3.174261
v -5.75385 3.228811 3.235041
v -5.678828 3.269868 3.193073
v -5.749094 3.219295 3.247838
v -5.692801 3.272752 3.188619
v -5.740874 3.238149 3.234088
v -5.685863 3.264806 3.208405
v -5.734262 3.229971 3.24611
v -5.699224 3.268128 3.201436
v -5.728562 3.247013 3.230322
v -5.695304 3.258013 3.221857
v -5.719989 3.240244 3.241069
v -5.707819 3.26194 3.212809
v -5.717571 3.254921 3.222833
v -5.706841 3.249708 3.232866
vt 0.5483525 0.4455444
vt 0.5468834 0.4525952
vt 0.5497844 0.4459005
vt 0.5468404 0.4454607
vt 0.5510682 0.4466003
vt 0.5453344 0.4455776
vt 0.5522058 0.4475479
vt 0.5439245 0.4459643
vt 0.553194 0.4486291
vt 0.5426751 0.4466784
vt 0.5539247 0.4498368
vt 0.5415732 0.447625
vt 0.5543022 0.4511781
vt 0.5406215 0.4486993
vt 0.5544075 0.4525954
vt 0.5399277 0.4498918
vt 0.5543022 0.4540123
vt 0.5395777 0.4512073
vt 0.5539249 0.455354
vt 0.5394955 0.4525952
vt 0.553194 0.4565615
vt 0.5395777 0.4539831
vt 0.5522057 0.4576426
vt 0.5399274 0.4552987
vt 0.5510681 0.4585901
vt 0.5406215 0.4564913
vt 0.5497844 0.4592903
vt 0.5415732 0.4575653
vt 0.5483525 0.4596459
vt 0.5426751 0.4585119
vt 0.5468404 0.4597299
vt 0.5439243 0.4592265
vt 0.5453344 0.4596128
vt 0.5475662 0.440688
vt 0.5469999 0.4438563
vt 0.5488113 0.4440171
vt 0.5499726 0.4410133
vt 0.5451313 0.4408343
vt 0.5505537 0.4445215
vt 0.5451971 0.4440454
vt 0.5522574 0.4417922
vt 0.5427642 0.441448
vt 0.5521498 0.4453491
vt 0.5434781 0.4445688
vt 0.5543222 0.4429816
vt 0.5405655 0.4425047
vt 0.5535369 0.4464562
vt 0.5419111 0.4454033
vt 0.5560837 0.4445199
vt 0.5386271 0.4439591
vt 0.5546601 0.4477948
vt 0.5405558 0.4465055
vt 0.5574779 0.4463367
vt 0.5370169 0.4457559
vt 0.5554839 0.4493049
vt 0.539458 0.4478267
vt 0.5584719 0.4483506
vt 0.5357875 0.4478378
vt 0.5559871 0.4509241
vt 0.5386494 0.4493177
vt 0.5590471 0.4504668
vt 0.534988 0.4501384
vt 0.5561718 0.4525954
vt 0.5381628 0.4509296
vt 0.5592107 0.4525954
vt 0.5346608 0.4525952
vt 0.5559868 0.4542667
vt 0.5380241 0.4525952
vt 0.5590471 0.4547241
vt 0.534988 0.4550519
vt 0.5554838 0.4558858
vt 0.5381628 0.4542612
vt 0.5584715 0.4568401
vt 0.5357871 0.4573527
vt 0.55466 0.4573959
vt 0.5386494 0.4558729
vt 0.5574777 0.458854
vt 0.5370166 0.4594345
vt 0.5535369 0.4587344
vt 0.539458 0.4573641
vt 0.5560834 0.4606707
vt 0.5386271 0.4612314
vt 0.5521498 0.4598415
vt 0.5405558 0.4586852
vt 0.5543222 0.4622093
vt 0.5405655 0.4626859
vt 0.5505534 0.4606691
vt 0.5419111 0.4597871
vt 0.5522568 0.4633985
vt 0.5427642 0.4637426
vt 0.5488113 0.4611736
vt 0.543478 0.4606218
vt 0.5499725 0.4641769
vt 0.5451311 0.4643562
vt 0.5469996 0.4613343
vt 0.5451974 0.4611454
vt 0.5475662 0.4645026
vt 0.5521498 0.4453491
vt 0.5510682 0.4466003
vt 0.5522058 0.4475479
vt 0.5505537 0.4445215
vt 0.5535369 0.4464562
vt 0.5497844 0.4459005
vt 0.553194 0.4486291
vt 0.5488113 0.4440171
vt 0.5546601 0.4477948
vt 0.5483525 0.4455444
vt 0.5539247 0.4498368
vt 0.5469999 0.4438563
vt 0.5554839 0.4493049
vt 0.5468404 0.4454607
vt 0.5543022 0.4511781
vt 0.5451971 0.4440454
vt 0.5559871 0.4509241
vt 0.5453344 0.4455776
vt 0.5544075 0.4525954
vt 0.5434781 0.4445688
vt 0.5561718 0.4525954
vt 0.5439245 0.4459643
vt 0.5543022 0.4540123
vt 0.5419111 0.4454033
vt 0.5559868 0.4542667
vt 0.5426751 0.4466784
vt 0.5539249 0.455354
vt 0.5405558 0.4465055
vt 0.5554838 0.4558858
vt 0.5415732 0.447625
vt 0.553194 0.4565615
vt 0.539458 0.4478267
vt 0.55466 0.4573959
vt 0.5406215 0.4486993
vt 0.5522057 0.4576426
vt 0.5386494 0.4493177
vt 0.5535369 0.4587344
vt 0.5399277 0.4498918
vt 0.5510681 0.4585901
vt 0.5381628 0.4509296
vt 0.5521498 0.4598415
vt 0.5395777 0.4512073
vt 0.5497844 0.4592903
vt 0.5380241 0.4525952
vt 0.5505534 0.4606691
vt 0.5394955 0.4525952
vt 0.5483525 0.4596459
vt 0.5381628 0.4542612
vt 0.5488113 0.4611736
vt 0.5395777 0.4539831
vt 0.5468404 0.4597299
vt 0.5386494 0.4558729
vt 0.5469996 0.4613343
vt 0.5399274 0.4552987
vt 0.5453344 0.4596128
vt 0.539458 0.4573641
vt 0.5451974 0.4611454
vt 0.5406215 0.4564913
vt 0.5439243 0.4592265
vt 0.5405558 0.4586852
vt 0.543478 0.4606218
vt 0.5415732 0.4575653
vt 0.5426751 0.4585119
vt 0.5419111 0.4597871
vn -0.5842572 0.8115685 3.047372E-05
vn -0.5842572 0.8115685 3.047372E-05
vn -0.5842572 0.8115685 3.047373E-05
vn -0.584024 0.8117365 1.893099E-05
vn -0.5841258 0.8116632 -4.041925E-05
vn -0.5842157 0.8115984 -3.146325E-05
vn -0.5842196 0.8115957 4.071017E-05
vn -0.5841862 0.8116197 -1.553245E-05
vn -0.5841532 0.8116434 -4.571057E-05
vn -0.5841665 0.8116337 1.434272E-06
vn -0.5841374 0.8116548 -7.675357E-05
vn -0.5842361 0.8115837 -8.916713E-05
vn -0.5841807 0.8116237 5.895425E-05
vn -0.5841578 0.8116402 6.445706E-05
vn -0.5841605 0.8116382 -7.066126E-05
vn -0.5841514 0.8116447 8.426796E-05
vn -0.5841605 0.8116382 0.0001034117
vn -0.5841687 0.8116322 -2.689045E-05
vn -0.584184 0.8116212 -4.813161E-05
vn -0.5841687 0.8116322 -9.491761E-05
vn -0.5841556 0.8116418 4.109609E-05
vn -0.5841818 0.8116228 -1.046428E-05
vn -0.5841953 0.8116131 -3.672384E-05
vn -0.5842028 0.8116077 5.585067E-05
vn -0.5841356 0.8116561 4.086839E-05
vn -0.5841877 0.8116186 2.620962E-05
vn -0.5842117 0.8116013 -2.48293E-05
vn -0.5841793 0.8116246 1.520789E-05
vn -0.584206 0.8116054 -2.176449E-05
vn -0.5841141 0.8116716 -4.110253E-05
vn -0.5841276 0.8116618 -1.169131E-06
vn -0.5842323 0.8115864 2.260022E-05
vn -0.5841419 0.8116516 -1.174225E-06
vn -0.05304148 0.05710623 -0.9969581
vn -0.03541094 0.06593874 -0.9971951
vn -0.2041703 -0.01972206 -0.9787368
vn -0.2203215 -0.0280532 -0.9750239
vn 0.1176207 0.1414757 -0.9829293
vn -0.3634616 -0.1006412 -0.9261571
vn 0.134162 0.1495191 -0.9796144
vn -0.3782949 -0.1080303 -0.9193597
vn 0.2803527 0.2218562 -0.9339069
vn -0.5140434 -0.1743234 -0.8398635
vn 0.2949726 0.2292208 -0.9276039
vn -0.5267189 -0.1803834 -0.83068
vn 0.4325182 0.2998568 -0.8503022
vn -0.6521698 -0.2413473 -0.7186279
vn 0.4445093 0.3061393 -0.8418375
vn -0.6619002 -0.2461667 -0.7080185
vn 0.5725672 0.3722135 -0.7304956
vn -0.7672889 -0.2996111 -0.5670105
vn 0.5820198 0.3770028 -0.7205012
vn -0.7730739 -0.3026304 -0.5574691
vn 0.6923673 0.4316063 -0.5782245
vn -0.8523765 -0.3430617 -0.3946681
vn 0.6982625 0.434438 -0.5689403
vn -0.8552744 -0.3444916 -0.3870804
vn 0.7818537 0.4755404 -0.403195
vn -0.9068289 -0.3686049 -0.2044301
vn 0.7846663 0.4769676 -0.3959806
vn -0.9076625 -0.3689561 -0.2000504
vn 0.8373212 0.5051171 -0.2091651
vn -0.926288 -0.3768164 9.338238E-06
vn 0.8380355 0.505536 -0.2052557
vn -0.9262879 -0.3768164 6.981619E-06
vn 0.8563992 0.5163143 1.663698E-05
vn -0.9068168 -0.3686273 0.2044436
vn 0.8563992 0.5163143 1.517056E-05
vn -0.9076515 -0.3689795 0.2000573
vn 0.83732 0.5051157 0.2091728
vn -0.8523792 -0.3430584 0.3946653
vn 0.8380331 0.5055341 0.2052701
vn -0.8552761 -0.3444897 0.3870783
vn 0.7818626 0.4755324 0.4031869
vn -0.7672952 -0.2996024 0.5670065
vn 0.7846748 0.4769605 0.3959723
vn -0.7730809 -0.3026205 0.5574645
vn 0.6923836 0.4315814 0.5782235
vn -0.6521897 -0.2413447 0.7186106
vn 0.6982737 0.4344116 0.5689468
vn -0.6619147 -0.2461632 0.7080061
vn 0.5725851 0.3721997 0.7304887
vn -0.5140544 -0.1743158 0.8398585
vn 0.5820382 0.3769867 0.7204947
vn -0.5267305 -0.1803745 0.8306745
vn 0.4325423 0.299844 0.8502945
vn -0.3634707 -0.1006711 0.9261503
vn 0.4445362 0.3061308 0.8418263
vn -0.3783008 -0.1080535 0.9193546
vn 0.2803988 0.221847 0.9338953
vn -0.2041295 -0.01973516 0.978745
vn 0.2950154 0.2292085 0.9275934
vn -0.2202945 -0.02807582 0.9750292
vn 0.1176061 0.1414513 0.9829345
vn -0.0354119 0.06592074 0.9971963
vn 0.1341545 0.149497 0.9796189
vn -0.05302507 0.05709584 0.9969597
vn -0.7370947 0.4390596 -0.5137296
vn -0.7308887 0.4413772 -0.520565
vn -0.80007 0.409625 -0.4382869
vn -0.6429026 0.4857707 -0.5922019
vn -0.804108 0.4072891 -0.4330427
vn -0.6341969 0.4909304 -0.597312
vn -0.8585119 0.3688671 -0.3562225
vn -0.5394975 0.5554331 -0.6328005
vn -0.8620021 0.3659054 -0.3508072
vn -0.5326813 0.560909 -0.6337443
vn -0.9120408 0.3305693 -0.2427049
vn -0.4498806 0.6197411 -0.6430617
vn -0.9139089 0.3295225 -0.2370351
vn -0.4442416 0.6232536 -0.6435871
vn -0.9400367 0.3222321 -0.111792
vn -0.3506229 0.6737024 -0.6505296
vn -0.9402602 0.3224354 -0.1092988
vn -0.343952 0.6768037 -0.6508715
vn -0.9450026 0.3270631 -6.673105E-06
vn -0.2316018 0.7400385 -0.6314299
vn -0.9450026 0.3270631 -5.905581E-06
vn -0.2259553 0.7436767 -0.6291972
vn -0.9400302 0.3222493 0.111798
vn -0.1323824 0.8141622 -0.5653449
vn -0.9402529 0.3224522 0.1093122
vn -0.1300774 0.8163508 -0.5627179
vn -0.9120372 0.3305669 0.2427216
vn -0.06162236 0.8715988 -0.4863313
vn -0.9139052 0.3295206 0.2370515
vn -0.06020929 0.8725502 -0.4847999
vn -0.858529 0.3688431 0.356206
vn 0.0179875 0.9153699 -0.4022119
vn -0.8620166 0.3658835 0.3507943
vn 0.01936675 0.9159726 -0.400773
vn -0.8000575 0.4096229 0.4383114
vn 0.09301159 0.956121 -0.2778157
vn -0.8041041 0.4072816 0.4330568
vn 0.0935168 0.9564686 -0.2764457
vn -0.7308988 0.441341 0.5205814
vn 0.1184347 0.984506 -0.1293109
vn -0.7370983 0.4390301 0.5137495
vn 0.1184198 0.9845552 -0.1289489
vn -0.6342195 0.4908873 0.5973234
vn 0.1155143 0.9933057 -3.983947E-06
vn -0.6429337 0.4857219 0.5922081
vn 0.1155144 0.9933057 -3.120219E-06
vn -0.5326419 0.5609462 0.6337443
vn 0.1185435 0.9844899 0.1293334
vn -0.5394579 0.5554654 0.632806
vn 0.118528 0.9845413 0.1289559
vn -0.4442753 0.6232722 0.6435459
vn 0.09305036 0.9561123 0.2778325
vn -0.4498986 0.6197698 0.6430215
vn 0.0935621 0.9564631 0.2764495
vn -0.3439984 0.6767727 0.6508793
vn 0.01792996 0.9153821 0.4021864
vn -0.350685 0.6736681 0.6505316
vn 0.01931908 0.915989 0.400738
vn -0.225906 0.7436668 0.6292266
vn -0.06164699 0.8716157 0.486298
vn -0.2315601 0.7400236 0.6314626
vn -0.06023748 0.8725659 0.4847682
vn -0.1300289 0.8163641 0.5627097
vn -0.1323345 0.8141726 0.565341
g KK-Nail_12_0
f 3/3/3 2/2/2 1/1/1
f 1/1/1 2/2/2 4/4/4
f 5/5/5 2/2/2 3/3/3
f 4/4/4 2/2/2 6/6/6
f 7/7/7 2/2/2 5/5/5
f 6/6/6 2/2/2 8/8/8
f 9/9/9 2/2/2 7/7/7
f 8/8/8 2/2/2 10/10/10
f 11/11/11 2/2/2 9/9/9
f 10/10/10 2/2/2 12/12/12
f 13/13/13 2/2/2 11/11/11
f 12/12/12 2/2/2 14/14/14
f 15/15/15 2/2/2 13/13/13
f 14/14/14 2/2/2 16/16/16
f 17/17/17 2/2/2 15/15/15
f 16/16/16 2/2/2 18/18/18
f 19/19/19 2/2/2 17/17/17
f 18/18/18 2/2/2 20/20/20
f 21/21/21 2/2/2 19/19/19
f 20/20/20 2/2/2 22/22/22
f 23/23/23 2/2/2 21/21/21
f 22/22/22 2/2/2 24/24/24
f 25/25/25 2/2/2 23/23/23
f 24/24/24 2/2/2 26/26/26
f 27/27/27 2/2/2 25/25/25
f 26/26/26 2/2/2 28/28/28
f 29/29/29 2/2/2 27/27/27
f 28/28/28 2/2/2 30/30/30
f 31/31/31 2/2/2 29/29/29
f 30/30/30 2/2/2 32/32/32
f 33/33/33 2/2/2 31/31/31
f 32/32/32 2/2/2 33/33/33
f 36/36/36 35/35/35 34/34/34
f 37/37/37 36/36/36 34/34/34
f 34/34/34 35/35/35 38/38/38
f 39/39/39 36/36/36 37/37/37
f 35/35/35 40/40/40 38/38/38
f 41/41/41 39/39/39 37/37/37
f 38/38/38 40/40/40 42/42/42
f 43/43/43 39/39/39 41/41/41
f 40/40/40 44/44/44 42/42/42
f 45/45/45 43/43/43 41/41/41
f 42/42/42 44/44/44 46/46/46
f 47/47/47 43/43/43 45/45/45
f 44/44/44 48/48/48 46/46/46
f 49/49/49 47/47/47 45/45/45
f 46/46/46 48/48/48 50/50/50
f 51/51/51 47/47/47 49/49/49
f 48/48/48 52/52/52 50/50/50
f 53/53/53 51/51/51 49/49/49
f 50/50/50 52/52/52 54/54/54
f 55/55/55 51/51/51 53/53/53
f 52/52/52 56/56/56 54/54/54
f 57/57/57 55/55/55 53/53/53
f 54/54/54 56/56/56 58/58/58
f 59/59/59 55/55/55 57/57/57
f 56/56/56 60/60/60 58/58/58
f 61/61/61 59/59/59 57/57/57
f 58/58/58 60/60/60 62/62/62
f 63/63/63 59/59/59 61/61/61
f 60/60/60 64/64/64 62/62/62
f 65/65/65 63/63/63 61/61/61
f 62/62/62 64/64/64 66/66/66
f 67/67/67 63/63/63 65/65/65
f 64/64/64 68/68/68 66/66/66
f 69/69/69 67/67/67 65/65/65
f 66/66/66 68/68/68 70/70/70
f 71/71/71 67/67/67 69/69/69
f 68/68/68 72/72/72 70/70/70
f 73/73/73 71/71/71 69/69/69
f 70/70/70 72/72/72 74/74/74
f 75/75/75 71/71/71 73/73/73
f 72/72/72 76/76/76 74/74/74
f 77/77/77 75/75/75 73/73/73
f 74/74/74 76/76/76 78/78/78
f 79/79/79 75/75/75 77/77/77
f 76/76/76 80/80/80 78/78/78
f 81/81/81 79/79/79 77/77/77
f 78/78/78 80/80/80 82/82/82
f 83/83/83 79/79/79 81/81/81
f 80/80/80 84/84/84 82/82/82
f 85/85/85 83/83/83 81/81/81
f 82/82/82 84/84/84 86/86/86
f 87/87/87 83/83/83 85/85/85
f 84/84/84 88/88/88 86/86/86
f 89/89/89 87/87/87 85/85/85
f 86/86/86 88/88/88 90/90/90
f 91/91/91 87/87/87 89/89/89
f 88/88/88 92/92/92 90/90/90
f 93/93/93 91/91/91 89/89/89
f 90/90/90 92/92/92 94/94/94
f 95/95/95 91/91/91 93/93/93
f 92/92/92 96/96/96 94/94/94
f 97/97/97 95/95/95 93/93/93
f 94/94/94 96/96/96 97/97/97
f 96/96/96 95/95/95 97/97/97
f 100/100/100 99/99/99 98/98/98
f 98/98/98 99/99/99 101/101/101
f 102/102/102 100/100/100 98/98/98
f 99/99/99 103/103/103 101/101/101
f 104/104/104 100/100/100 102/102/102
f 101/101/101 103/103/103 105/105/105
f 106/106/106 104/104/104 102/102/102
f 103/103/103 107/107/107 105/105/105
f 108/108/108 104/104/104 106/106/106
f 105/105/105 107/107/107 109/109/109
f 110/110/110 108/108/108 106/106/106
f 107/107/107 111/111/111 109/109/109
f 112/112/112 108/108/108 110/110/110
f 109/109/109 111/111/111 113/113/113
f 114/114/114 112/112/112 110/110/110
f 111/111/111 115/115/115 113/113/113
f 116/116/116 112/112/112 114/114/114
f 113/113/113 115/115/115 117/117/117
f 118/118/118 116/116/116 114/114/114
f 115/115/115 119/119/119 117/117/117
f 120/120/120 116/116/116 118/118/118
f 117/117/117 119/119/119 121/121/121
f 122/122/122 120/120/120 118/118/118
f 119/119/119 123/123/123 121/121/121
f 124/124/124 120/120/120 122/122/122
f 121/121/121 123/123/123 125/125/125
f 126/126/126 124/124/124 122/122/122
f 123/123/123 127/127/127 125/125/125
f 128/128/128 124/124/124 126/126/126
f 125/125/125 127/127/127 129/129/129
f 130/130/130 128/128/128 126/126/126
f 127/127/127 131/131/131 129/129/129
f 132/132/132 128/128/128 130/130/130
f 129/129/129 131/131/131 133/133/133
f 134/134/134 132/132/132 130/130/130
f 131/131/131 135/135/135 133/133/133
f 136/136/136 132/132/132 134/134/134
f 133/133/133 135/135/135 137/137/137
f 138/138/138 136/136/136 134/134/134
f 135/135/135 139/139/139 137/137/137
f 140/140/140 136/136/136 138/138/138
f 137/137/137 139/139/139 141/141/141
f 142/142/142 140/140/140 138/138/138
f 139/139/139 143/143/143 141/141/141
f 144/144/144 140/140/140 142/142/142
f 141/141/141 143/143/143 145/145/145
f 146/146/146 144/144/144 142/142/142
f 143/143/143 147/147/147 145/145/145
f 148/148/148 144/144/144 146/146/146
f 145/145/145 147/147/147 149/149/149
f 150/150/150 148/148/148 146/146/146
f 147/147/147 151/151/151 149/149/149
f 152/152/152 148/148/148 150/150/150
f 149/149/149 151/151/151 153/153/153
f 154/154/154 152/152/152 150/150/150
f 151/151/151 155/155/155 153/153/153
f 156/156/156 152/152/152 154/154/154
f 153/153/153 155/155/155 157/157/157
f 158/158/158 156/156/156 154/154/154
f 155/155/155 159/159/159 157/157/157
f 160/160/160 156/156/156 158/158/158
f 157/157/157 159/159/159 161/161/161
f 161/161/161 160/160/160 158/158/158
f 159/159/159 160/160/160 161/161/161
