g KK-SignLetter_10
v -11.25086 23.47285 31.31906
v -11.2621 23.47058 31.31906
v -11.46967 23.48921 31.31906
v -11.48682 23.49505 31.31906
v -11.24769 23.47592 31.31906
v -11.49543 23.5039 31.31906
v -11.24505 23.48707 31.31906
v -11.50079 23.52121 31.31906
v -11.28825 24.25126 31.31906
v -11.54327 24.21114 31.31906
v -11.13784 24.52399 31.31906
v -11.21121 24.53671 31.31906
v -11.28825 24.25126 31.31906
v -11.03986 24.53167 31.31906
v -10.99961 24.26758 31.31906
v -10.12817 23.62471 31.31906
v -10.40069 23.84494 31.31906
v -10.14361 23.84899 31.31906
v -10.66 23.58626 31.31906
v -10.47801 23.86622 31.31906
v -10.70892 23.59334 31.31906
v -10.54473 23.91055 31.31906
v -10.74565 23.61693 31.31906
v -10.77245 23.65847 31.31906
v -10.59344 23.97245 31.31906
v -10.99961 24.26758 31.31906
v -10.77236 24.3426 31.31906
v -10.92073 24.55911 31.31906
v -11.03986 24.53167 31.31906
v -10.92073 24.55911 31.31906
v -10.84969 24.61203 31.31906
v -10.65129 24.4772 31.31906
v -10.7731 24.70066 31.31906
v -10.57644 24.59018 31.31906
v -10.74149 24.7758 31.31906
v -10.51366 24.70465 31.31906
v -10.7406 24.84508 31.31906
v -10.4827 24.83548 31.31906
v -10.75019 24.8977 31.31906
v -10.49723 24.96147 31.31906
v -10.77492 24.95031 31.31906
v -10.5513 25.07651 31.31906
v -10.80769 24.98866 31.31906
v -10.63589 25.16962 31.31906
v -10.86624 25.03169 31.31906
v -10.72435 25.23411 31.31906
v -10.94409 25.06425 31.31906
v -10.8454 25.28475 31.31906
v -10.94409 25.06425 31.31906
v -11.04101 25.0916 31.31906
v -10.97684 25.31472 31.31906
v -11.04101 25.0916 31.31906
v -11.12783 25.10152 31.31906
v -11.10277 25.32864 31.31906
v -11.60801 25.26236 31.31906
v -11.21121 24.53671 31.31906
v -11.54327 24.21114 31.31906
v -11.26866 25.09647 31.31906
v -11.59538 25.31767 31.31906
v -11.56119 25.3518 31.31906
v -11.50636 25.36421 31.31906
v -11.56119 25.3518 31.31906
v -11.10277 25.32864 31.31906
v -11.26866 25.09647 31.31906
v -11.12783 25.10152 31.31906
v -10.08408 23.58643 31.20338
v -10.12817 23.62471 31.31906
v -10.14361 23.84899 31.31906
v -10.10505 23.89096 31.20338
v -10.10505 23.89096 31.20338
v -10.14361 23.84899 31.31906
v -10.40069 23.84494 31.31906
v -10.39542 23.88639 31.20338
v -10.47801 23.86622 31.31906
v -10.46065 23.90434 31.20338
v -10.54473 23.91055 31.31906
v -10.51633 23.94132 31.20338
v -10.59344 23.97245 31.31906
v -10.55816 23.99449 31.20338
v -10.77236 24.3426 31.31906
v -10.72304 24.3356 31.20338
v -10.72304 24.3356 31.20338
v -10.77236 24.3426 31.31906
v -10.65129 24.4772 31.31906
v -10.6185 24.45181 31.20338
v -10.57644 24.59018 31.31906
v -10.54102 24.56878 31.20338
v -10.51366 24.70465 31.31906
v -10.47471 24.68968 31.20338
v -10.4827 24.83548 31.31906
v -10.44078 24.83302 31.20338
v -10.49723 24.96147 31.31906
v -10.45692 24.97294 31.20338
v -10.5513 25.07651 31.31906
v -10.51651 25.09972 31.20338
v -10.63589 25.16962 31.31906
v -10.60812 25.20055 31.20338
v -10.72435 25.23411 31.31906
v -10.70391 25.27039 31.20338
v -10.8454 25.28475 31.31906
v -10.83273 25.32428 31.20338
v -10.97684 25.31472 31.31906
v -10.96995 25.35557 31.20338
v -11.10277 25.32864 31.31906
v -11.09869 25.3698 31.20338
v -11.50636 25.36421 31.31906
v -11.50917 25.40597 31.20338
v -11.56119 25.3518 31.31906
v -11.58196 25.3895 31.20338
v -11.59538 25.31767 31.31906
v -11.63304 25.33851 31.20338
v -11.60801 25.26236 31.31906
v -11.64965 25.26576 31.20338
v -11.54327 24.21114 31.31906
v -11.58455 24.2086 31.20338
v -11.50079 23.52121 31.31906
v -11.54176 23.51372 31.20338
v -11.49543 23.5039 31.31906
v -11.532 23.48219 31.20338
v -11.48682 23.49505 31.31906
v -11.50955 23.4591 31.20338
v -11.46967 23.48921 31.31906
v -11.47831 23.44846 31.20338
v -11.2621 23.47058 31.31906
v -11.25979 23.42885 31.20338
v -11.25086 23.47285 31.31906
v -11.2308 23.43473 31.20338
v -11.24769 23.47592 31.31906
v -11.21025 23.4546 31.20338
v -11.24505 23.48707 31.31906
v -11.20342 23.48339 31.20338
v -11.28825 24.25126 31.31906
v -11.24463 24.21231 31.20338
v -11.24463 24.21231 31.20338
v -11.28825 24.25126 31.31906
v -10.99961 24.26758 31.31906
v -11.02771 24.22457 31.20338
v -11.02771 24.22457 31.20338
v -10.99961 24.26758 31.31906
v -10.77245 23.65847 31.31906
v -10.80963 23.63982 31.20338
v -10.80963 23.63982 31.20338
v -10.77245 23.65847 31.31906
v -10.74565 23.61693 31.31906
v -10.77555 23.58698 31.20338
v -10.70892 23.59334 31.31906
v -10.72372 23.55369 31.20338
v -10.66 23.58626 31.31906
v -10.66148 23.54469 31.20338
v -10.12817 23.62471 31.31906
v -10.08408 23.58643 31.20338
v -11.17327 24.57211 31.20338
v -11.21121 24.53671 31.31906
v -11.26866 25.09647 31.31906
v -11.22301 25.05673 31.20338
v -11.22301 25.05673 31.20338
v -11.26866 25.09647 31.31906
v -11.12783 25.10152 31.31906
v -11.12945 25.06008 31.20338
v -11.04101 25.0916 31.31906
v -11.04903 25.05089 31.20338
v -10.94409 25.06425 31.31906
v -10.95774 25.02514 31.20338
v -10.86624 25.03169 31.31906
v -10.88675 24.99544 31.20338
v -10.80769 24.98866 31.31906
v -10.83603 24.95816 31.20338
v -10.77492 24.95031 31.31906
v -10.80998 24.92768 31.20338
v -10.75019 24.8977 31.31906
v -10.78991 24.88499 31.20338
v -10.7406 24.84508 31.31906
v -10.782 24.84161 31.20338
v -10.74149 24.7758 31.31906
v -10.78274 24.7844 31.20338
v -10.7731 24.70066 31.31906
v -10.80867 24.72274 31.20338
v -10.84969 24.61203 31.31906
v -10.87802 24.64249 31.20338
v -10.87802 24.64249 31.20338
v -10.84969 24.61203 31.31906
v -10.92073 24.55911 31.31906
v -10.93847 24.59746 31.20338
v -11.03986 24.53167 31.31906
v -11.04615 24.57266 31.20338
v -11.13784 24.52399 31.31906
v -11.13589 24.56563 31.20338
v -11.21121 24.53671 31.31906
v -11.17327 24.57211 31.20338
vt 0.3849245 0.03666151
vt 0.3836788 0.03659928
vt 0.36353 0.04454365
vt 0.3618768 0.04571694
vt 0.3853678 0.03708726
vt 0.3611629 0.04699548
vt 0.3862206 0.03830266
vt 0.3608254 0.04916792
vt 0.4172397 0.1384446
vt 0.3762085 0.13714
vt 0.4433523 0.1864599
vt 0.4325067 0.1879726
vt 0.4172397 0.1384446
vt 0.4572919 0.1878157
vt 0.4693306 0.1431601
vt 0.6103877 0.06605495
vt 0.5828034 0.09471622
vt 0.611581 0.08703236
vt 0.5514532 0.05712707
vt 0.5718667 0.0980688
vt 0.5452012 0.05753694
vt 0.5609307 0.1041774
vt 0.5399904 0.0596014
vt 0.5352749 0.06390914
vt 0.5515705 0.1119983
vt 0.4693306 0.1431601
vt 0.5076968 0.1659193
vt 0.4731523 0.1964912
vt 0.4572919 0.1878157
vt 0.4731523 0.1964912
vt 0.4808173 0.2068524
vt 0.5162668 0.1971236
vt 0.4865421 0.2236943
vt 0.5206343 0.2177868
vt 0.4863178 0.2361633
vt 0.5230543 0.2369872
vt 0.4835245 0.2463508
vt 0.5212224 0.2559764
vt 0.4801158 0.2535731
vt 0.514251 0.2723935
vt 0.4750057 0.2606038
vt 0.5031291 0.2862131
vt 0.4697332 0.2657258
vt 0.4888601 0.2964953
vt 0.4608546 0.2710479
vt 0.4747861 0.3030278
vt 0.4501328 0.2746699
vt 0.4569627 0.3066095
vt 0.4501328 0.2746699
vt 0.4374799 0.2759672
vt 0.4382668 0.3068013
vt 0.4374799 0.2759672
vt 0.4267989 0.2747408
vt 0.4207825 0.3045663
vt 0.3636098 0.2777355
vt 0.4325067 0.1879726
vt 0.3762085 0.13714
vt 0.4093618 0.2653582
vt 0.3649441 0.2848816
vt 0.3681605 0.2902967
vt 0.3736643 0.2942793
vt 0.3681605 0.2902967
vt 0.4207825 0.3045663
vt 0.4093618 0.2653582
vt 0.4267989 0.2747408
vt 0.6225207 0.05477848
vt 0.6103877 0.06605495
vt 0.611581 0.08703236
vt 0.6274349 0.09483904
vt 0.6274349 0.09483904
vt 0.611581 0.08703236
vt 0.5828034 0.09471622
vt 0.5888092 0.1114671
vt 0.5718667 0.0980688
vt 0.5797637 0.1148881
vt 0.5609307 0.1041774
vt 0.5715782 0.1194145
vt 0.5515705 0.1119983
vt 0.5644013 0.125608
vt 0.5076968 0.1659193
vt 0.5294018 0.1698527
vt 0.5294018 0.1698527
vt 0.5076968 0.1659193
vt 0.5162668 0.1971236
vt 0.5352355 0.1931189
vt 0.5206343 0.2177868
vt 0.5395393 0.2148425
vt 0.5230543 0.2369872
vt 0.5418468 0.2371452
vt 0.5212224 0.2559764
vt 0.538909 0.2606499
vt 0.514251 0.2723935
vt 0.5302902 0.2816231
vt 0.5031291 0.2862131
vt 0.5162067 0.299562
vt 0.4888601 0.2964953
vt 0.4982328 0.3128604
vt 0.4747861 0.3030278
vt 0.4803774 0.320429
vt 0.4569627 0.3066095
vt 0.4587657 0.3245866
vt 0.4382668 0.3068013
vt 0.4369777 0.3244202
vt 0.4207825 0.3045663
vt 0.4178604 0.3210896
vt 0.3736643 0.2942793
vt 0.3660221 0.3083267
vt 0.3681605 0.2902967
vt 0.3564045 0.3012902
vt 0.3649441 0.2848816
vt 0.3501707 0.2915172
vt 0.3636098 0.2777355
vt 0.347672 0.2799852
vt 0.3762085 0.13714
vt 0.3590808 0.137757
vt 0.3608254 0.04916792
vt 0.3451828 0.04471038
vt 0.3611629 0.04699548
vt 0.3467582 0.03999297
vt 0.3618768 0.04571694
vt 0.3492256 0.03576837
vt 0.36353 0.04454365
vt 0.3526948 0.03193771
vt 0.3836788 0.03659928
vt 0.3850532 0.02
vt 0.3849245 0.03666151
vt 0.3897878 0.02103856
vt 0.3853678 0.03708726
vt 0.3938976 0.02313012
vt 0.3862206 0.03830266
vt 0.3974183 0.02625747
vt 0.4172397 0.1384446
vt 0.4300674 0.1208952
vt 0.4300674 0.1208952
vt 0.4172397 0.1384446
vt 0.4693306 0.1431601
vt 0.4615093 0.121749
vt 0.4615093 0.121749
vt 0.4693306 0.1431601
vt 0.5352749 0.06390914
vt 0.5238551 0.05022846
vt 0.5238551 0.05022846
vt 0.5352749 0.06390914
vt 0.5399904 0.0596014
vt 0.5318916 0.0446785
vt 0.5452012 0.05753694
vt 0.5407169 0.04111145
vt 0.5514532 0.05712707
vt 0.5504985 0.03963941
vt 0.6103877 0.06605495
vt 0.6225207 0.05477848
vt 0.4421598 0.2022909
vt 0.4325067 0.1879726
vt 0.4093618 0.2653582
vt 0.4240686 0.2580106
vt 0.4240686 0.2580106
vt 0.4093618 0.2653582
vt 0.4267989 0.2747408
vt 0.4310461 0.2619682
vt 0.4374799 0.2759672
vt 0.4378115 0.2628258
vt 0.4501328 0.2746699
vt 0.4467008 0.2610416
vt 0.4608546 0.2710479
vt 0.4540525 0.2578492
vt 0.4697332 0.2657258
vt 0.4595915 0.2536137
vt 0.4750057 0.2606038
vt 0.4627399 0.2501571
vt 0.4801158 0.2535731
vt 0.4658256 0.2454021
vt 0.4835245 0.2463508
vt 0.468064 0.2404565
vt 0.4863178 0.2361633
vt 0.470154 0.2338365
vt 0.4865421 0.2236943
vt 0.4703625 0.226058
vt 0.4808173 0.2068524
vt 0.4667548 0.2144248
vt 0.4667548 0.2144248
vt 0.4808173 0.2068524
vt 0.4731523 0.1964912
vt 0.4627391 0.2077162
vt 0.4572919 0.1878157
vt 0.4532153 0.2024478
vt 0.4433523 0.1864599
vt 0.4450876 0.2013013
vt 0.4325067 0.1879726
vt 0.4421598 0.2022909
vn -9.981688E-07 -1.029958E-05 1
vn 1.947197E-06 2.021674E-05 1
vn 1.947197E-06 2.021674E-05 1
vn -1.086133E-06 -1.121095E-05 1
vn -2.818576E-07 -3.536488E-06 1
vn -1.395967E-07 -2.148011E-06 1
vn 1.671516E-07 1.058116E-06 1
vn 1.359981E-07 8.08191E-07 1
vn 0 0 1
vn 0 0 1
vn 3.353738E-07 -1.907513E-07 1
vn 3.353738E-07 -1.907513E-07 1
vn 0 0 1
vn 0 0 1
vn 0 0 1
vn -1.151192E-07 1.173641E-07 1
vn 0 0 1
vn -1.151192E-07 1.173641E-07 1
vn 3.955731E-07 -3.756432E-07 1
vn 3.925367E-07 -2.057341E-07 1
vn 3.103794E-07 0 1
vn 0 3.155227E-07 1
vn 0 3.016001E-07 1
vn -2.196544E-07 2.451561E-07 1
vn -1.889869E-07 0 1
vn -1.578988E-07 0 1
vn -1.578988E-07 0 1
vn 0 0 1
vn 0 0 1
vn -1.517053E-07 -1.497272E-07 1
vn -1.517053E-07 -1.497272E-07 1
vn -1.517053E-07 -1.497272E-07 1
vn 1.102866E-07 -3.666536E-07 1
vn 1.102866E-07 -3.666536E-07 1
vn 1.481745E-07 0 1
vn 1.481745E-07 0 1
vn 0 0 1
vn 0 0 1
vn -1.790686E-07 4.5636E-07 1
vn -1.790685E-07 4.5636E-07 1
vn -2.381875E-07 0 1
vn -2.381875E-07 0 1
vn 2.284211E-07 -6.666216E-07 1
vn 2.284211E-07 -6.666216E-07 1
vn -4.642527E-07 4.295976E-07 1
vn -4.642528E-07 4.295977E-07 1
vn 2.93973E-07 0 1
vn 2.939729E-07 0 1
vn 0 0 1
vn 0 0 1
vn 0 0 1
vn -2.262235E-07 0 1
vn -2.262235E-07 0 1
vn -2.262235E-07 0 1
vn 0 0 1
vn 0 0 1
vn 0 0 1
vn 0 0 1
vn -2.254658E-07 -3.330168E-07 1
vn -2.254658E-07 -3.330168E-07 1
vn 0 -1.786566E-07 1
vn -2.628114E-07 -3.758033E-07 1
vn 0 -1.786566E-07 1
vn 0 -1.786566E-07 1
vn 0 -1.786566E-07 1
vn 0.9394112 0.06468552 0.3366338
vn 0.9394112 0.06468552 0.3366338
vn 0.9394112 0.06468551 0.3366337
vn 0.9394112 0.06468551 0.3366337
vn -0.01482529 0.9415169 0.3366394
vn -0.01482529 0.9415169 0.3366394
vn 0.1185743 0.9330392 0.3396735
vn 0.1185742 0.9330392 0.3396735
vn 0.3898059 0.8556603 0.3404365
vn 0.3898058 0.8556603 0.3404365
vn 0.6376775 0.6909916 0.3404379
vn 0.637678 0.690991 0.3404379
vn 0.7980537 0.4986007 0.3383898
vn 0.798054 0.4986002 0.3383898
vn 0.8477777 0.4098156 0.3366364
vn 0.8477777 0.4098157 0.3366364
vn 0.7000659 -0.6297506 0.3366331
vn 0.7000659 -0.6297506 0.3366331
vn 0.7443351 -0.5762763 0.3374477
vn 0.7443351 -0.5762763 0.3374476
vn 0.8059373 -0.4867916 0.3368963
vn 0.8059372 -0.4867917 0.3368963
vn 0.8780099 -0.3375409 0.3393592
vn 0.87801 -0.3375408 0.3393592
vn 0.9383742 -0.05522248 0.3411809
vn 0.9383742 -0.05522222 0.3411809
vn 0.9043391 0.2572191 0.3406012
vn 0.9043388 0.2572199 0.3406012
vn 0.7822541 0.5220113 0.3399749
vn 0.7822542 0.5220111 0.3399748
vn 0.6287209 0.7002444 0.3381832
vn 0.6287207 0.7002445 0.3381832
vn 0.461865 0.8197386 0.3386878
vn 0.4618645 0.8197388 0.3386878
vn 0.2873111 0.8963139 0.337748
vn 0.2873108 0.896314 0.337748
vn 0.1566201 0.9283406 0.3371258
vn 0.1566199 0.9283406 0.3371258
vn 0.09306062 0.9370177 0.3366563
vn 0.09306061 0.9370177 0.3366563
vn -0.06325017 0.9382008 0.3402628
vn -0.06325014 0.9382008 0.3402628
vn -0.4521921 0.8209172 0.3487364
vn -0.4521906 0.8209181 0.3487364
vn -0.820052 0.4537617 0.3487334
vn -0.8200516 0.4537625 0.3487334
vn -0.9374114 0.0765416 0.3397075
vn -0.9374113 0.07654214 0.3397076
vn -0.9398546 -0.05787864 0.3366356
vn -0.9398546 -0.05787864 0.3366355
vn -0.9255278 -0.1692141 0.3387697
vn -0.9255279 -0.1692133 0.3387698
vn -0.8070558 -0.4791507 0.3450733
vn -0.8070573 -0.4791481 0.3450732
vn -0.5015759 -0.7933121 0.345076
vn -0.5015765 -0.7933118 0.345076
vn -0.1950875 -0.9204193 0.3387758
vn -0.1950877 -0.9204193 0.3387759
vn 0.05195359 -0.9390649 0.339791
vn 0.05195295 -0.9390649 0.3397909
vn 0.4364442 -0.8292695 0.3490395
vn 0.4364417 -0.8292708 0.3490396
vn 0.8143955 -0.463605 0.3490423
vn 0.8143935 -0.4636084 0.3490423
vn 0.936838 -0.08294173 0.3397869
vn 0.9368379 -0.08294298 0.3397869
vn 0.9401334 0.05315538 0.3366358
vn 0.9401334 0.05315537 0.3366358
vn 0.05315543 -0.9401345 0.3366325
vn 0.05315543 -0.9401345 0.3366325
vn 0.05315543 -0.9401345 0.3366325
vn 0.05315543 -0.9401345 0.3366325
vn -0.8822786 -0.3290303 0.3366354
vn -0.8822786 -0.3290303 0.3366354
vn -0.8411372 -0.4218851 0.3383799
vn -0.8411381 -0.4218837 0.33838
vn -0.8411381 -0.4218837 0.33838
vn -0.8411372 -0.4218851 0.3383799
vn -0.663406 -0.6647334 0.3435433
vn -0.6634067 -0.6647328 0.3435433
vn -0.3284395 -0.8798327 0.3435434
vn -0.3284392 -0.8798327 0.3435434
vn -0.03365248 -0.9404076 0.3383801
vn -0.0336524 -0.9404076 0.3383801
vn 0.06790219 -0.9391834 0.3366361
vn 0.06790219 -0.9391834 0.3366361
vn 0.936713 0.0961508 0.3366359
vn 0.936713 0.09615081 0.3366359
vn 0.936713 0.0961508 0.3366359
vn 0.936713 0.09615081 0.3366359
vn 0.03372623 -0.9410321 0.3366322
vn 0.03372623 -0.9410321 0.3366322
vn -0.03669346 -0.9406211 0.3374691
vn -0.03669345 -0.9406211 0.337469
vn -0.1818193 -0.923561 0.3376042
vn -0.1818191 -0.9235612 0.3376042
vn -0.3100383 -0.8889224 0.3371843
vn -0.3100382 -0.8889224 0.3371843
vn -0.4634275 -0.8188296 0.3387522
vn -0.4634272 -0.8188298 0.3387523
vn -0.6404785 -0.6892954 0.3386137
vn -0.6404785 -0.6892954 0.3386137
vn -0.7902704 -0.5102257 0.3393264
vn -0.7902696 -0.5102269 0.3393264
vn -0.8959305 -0.2868513 0.3391532
vn -0.8959303 -0.2868518 0.3391531
vn -0.9378383 -0.07869736 0.3380326
vn -0.9378383 -0.07869776 0.3380326
vn -0.9198409 0.1917358 0.3422426
vn -0.9198411 0.1917357 0.3422426
vn -0.7989618 0.4957978 0.3403597
vn -0.798962 0.4957973 0.3403598
vn -0.6408657 0.6890326 0.3384157
vn -0.6408658 0.6890326 0.3384158
vn -0.6408658 0.6890326 0.3384158
vn -0.6408657 0.6890326 0.3384157
vn -0.3943854 0.8524827 0.343123
vn -0.3943858 0.8524826 0.343123
vn -0.1428005 0.9304454 0.3374601
vn -0.1428004 0.9304454 0.3374601
vn 0.04392782 0.9397671 0.3389812
vn 0.04392757 0.9397671 0.3389812
vn 0.16083 0.9277973 0.3366391
vn 0.16083 0.9277973 0.3366391
g KK-SignLetter_10_0
f 3/3/3 2/2/2 1/1/1
f 4/4/4 3/3/3 1/1/1
f 4/4/4 1/1/1 5/5/5
f 6/6/6 4/4/4 5/5/5
f 6/6/6 5/5/5 7/7/7
f 8/8/8 6/6/6 7/7/7
f 8/8/8 7/7/7 9/9/9
f 10/10/10 8/8/8 9/9/9
f 9/9/9 11/11/11 10/10/10
f 11/11/11 12/12/12 10/10/10
f 14/14/14 11/11/11 13/13/13
f 15/15/15 14/14/14 13/13/13
f 18/18/18 17/17/17 16/16/16
f 17/17/17 19/19/19 16/16/16
f 17/17/17 20/20/20 19/19/19
f 20/20/20 21/21/21 19/19/19
f 20/20/20 22/22/22 21/21/21
f 22/22/22 23/23/23 21/21/21
f 23/23/23 22/22/22 24/24/24
f 22/22/22 25/25/25 24/24/24
f 24/24/24 25/25/25 26/26/26
f 25/25/25 27/27/27 26/26/26
f 27/27/27 28/28/28 26/26/26
f 28/28/28 29/29/29 26/26/26
f 31/31/31 30/30/30 27/27/27
f 32/32/32 31/31/31 27/27/27
f 33/33/33 31/31/31 32/32/32
f 34/34/34 33/33/33 32/32/32
f 35/35/35 33/33/33 34/34/34
f 36/36/36 35/35/35 34/34/34
f 37/37/37 35/35/35 36/36/36
f 38/38/38 37/37/37 36/36/36
f 39/39/39 37/37/37 38/38/38
f 40/40/40 39/39/39 38/38/38
f 41/41/41 39/39/39 40/40/40
f 42/42/42 41/41/41 40/40/40
f 43/43/43 41/41/41 42/42/42
f 44/44/44 43/43/43 42/42/42
f 45/45/45 43/43/43 44/44/44
f 46/46/46 45/45/45 44/44/44
f 47/47/47 45/45/45 46/46/46
f 48/48/48 47/47/47 46/46/46
f 50/50/50 49/49/49 48/48/48
f 51/51/51 50/50/50 48/48/48
f 53/53/53 52/52/52 51/51/51
f 54/54/54 53/53/53 51/51/51
f 57/57/57 56/56/56 55/55/55
f 56/56/56 58/58/58 55/55/55
f 55/55/55 58/58/58 59/59/59
f 59/59/59 58/58/58 60/60/60
f 62/62/62 58/58/58 61/61/61
f 61/61/61 64/64/64 63/63/63
f 64/64/64 65/65/65 63/63/63
f 68/68/68 67/67/67 66/66/66
f 69/69/69 68/68/68 66/66/66
f 72/72/72 71/71/71 70/70/70
f 73/73/73 72/72/72 70/70/70
f 74/74/74 72/72/72 73/73/73
f 75/75/75 74/74/74 73/73/73
f 76/76/76 74/74/74 75/75/75
f 77/77/77 76/76/76 75/75/75
f 78/78/78 76/76/76 77/77/77
f 79/79/79 78/78/78 77/77/77
f 80/80/80 78/78/78 79/79/79
f 81/81/81 80/80/80 79/79/79
f 84/84/84 83/83/83 82/82/82
f 85/85/85 84/84/84 82/82/82
f 86/86/86 84/84/84 85/85/85
f 87/87/87 86/86/86 85/85/85
f 88/88/88 86/86/86 87/87/87
f 89/89/89 88/88/88 87/87/87
f 90/90/90 88/88/88 89/89/89
f 91/91/91 90/90/90 89/89/89
f 92/92/92 90/90/90 91/91/91
f 93/93/93 92/92/92 91/91/91
f 94/94/94 92/92/92 93/93/93
f 95/95/95 94/94/94 93/93/93
f 96/96/96 94/94/94 95/95/95
f 97/97/97 96/96/96 95/95/95
f 98/98/98 96/96/96 97/97/97
f 99/99/99 98/98/98 97/97/97
f 100/100/100 98/98/98 99/99/99
f 101/101/101 100/100/100 99/99/99
f 102/102/102 100/100/100 101/101/101
f 103/103/103 102/102/102 101/101/101
f 104/104/104 102/102/102 103/103/103
f 105/105/105 104/104/104 103/103/103
f 106/106/106 104/104/104 105/105/105
f 107/107/107 106/106/106 105/105/105
f 108/108/108 106/106/106 107/107/107
f 109/109/109 108/108/108 107/107/107
f 110/110/110 108/108/108 109/109/109
f 111/111/111 110/110/110 109/109/109
f 112/112/112 110/110/110 111/111/111
f 113/113/113 112/112/112 111/111/111
f 114/114/114 112/112/112 113/113/113
f 115/115/115 114/114/114 113/113/113
f 116/116/116 114/114/114 115/115/115
f 117/117/117 116/116/116 115/115/115
f 118/118/118 116/116/116 117/117/117
f 119/119/119 118/118/118 117/117/117
f 120/120/120 118/118/118 119/119/119
f 121/121/121 120/120/120 119/119/119
f 122/122/122 120/120/120 121/121/121
f 123/123/123 122/122/122 121/121/121
f 124/124/124 122/122/122 123/123/123
f 125/125/125 124/124/124 123/123/123
f 126/126/126 124/124/124 125/125/125
f 127/127/127 126/126/126 125/125/125
f 128/128/128 126/126/126 127/127/127
f 129/129/129 128/128/128 127/127/127
f 130/130/130 128/128/128 129/129/129
f 131/131/131 130/130/130 129/129/129
f 132/132/132 130/130/130 131/131/131
f 133/133/133 132/132/132 131/131/131
f 136/136/136 135/135/135 134/134/134
f 137/137/137 136/136/136 134/134/134
f 140/140/140 139/139/139 138/138/138
f 141/141/141 140/140/140 138/138/138
f 144/144/144 143/143/143 142/142/142
f 145/145/145 144/144/144 142/142/142
f 146/146/146 144/144/144 145/145/145
f 147/147/147 146/146/146 145/145/145
f 148/148/148 146/146/146 147/147/147
f 149/149/149 148/148/148 147/147/147
f 150/150/150 148/148/148 149/149/149
f 151/151/151 150/150/150 149/149/149
f 154/154/154 153/153/153 152/152/152
f 155/155/155 154/154/154 152/152/152
f 158/158/158 157/157/157 156/156/156
f 159/159/159 158/158/158 156/156/156
f 160/160/160 158/158/158 159/159/159
f 161/161/161 160/160/160 159/159/159
f 162/162/162 160/160/160 161/161/161
f 163/163/163 162/162/162 161/161/161
f 164/164/164 162/162/162 163/163/163
f 165/165/165 164/164/164 163/163/163
f 166/166/166 164/164/164 165/165/165
f 167/167/167 166/166/166 165/165/165
f 168/168/168 166/166/166 167/167/167
f 169/169/169 168/168/168 167/167/167
f 170/170/170 168/168/168 169/169/169
f 171/171/171 170/170/170 169/169/169
f 172/172/172 170/170/170 171/171/171
f 173/173/173 172/172/172 171/171/171
f 174/174/174 172/172/172 173/173/173
f 175/175/175 174/174/174 173/173/173
f 176/176/176 174/174/174 175/175/175
f 177/177/177 176/176/176 175/175/175
f 178/178/178 176/176/176 177/177/177
f 179/179/179 178/178/178 177/177/177
f 182/182/182 181/181/181 180/180/180
f 183/183/183 182/182/182 180/180/180
f 184/184/184 182/182/182 183/183/183
f 185/185/185 184/184/184 183/183/183
f 186/186/186 184/184/184 185/185/185
f 187/187/187 186/186/186 185/185/185
f 188/188/188 186/186/186 187/187/187
f 189/189/189 188/188/188 187/187/187
