g KK-SignLetter_7
v -7.885921 27.72736 31.43958
v -7.884222 27.71927 31.43965
v -7.891515 27.61286 31.43941
v -7.895705 27.5987 31.43925
v -7.887097 27.72863 31.43954
v -7.902048 27.59148 31.43901
v -7.895044 27.73091 31.43923
v -7.915552 27.58551 31.43849
v -8.225205 27.73225 31.42649
v -8.229829 27.52287 31.4264
v -8.26828 27.50537 31.42492
v -8.724217 27.73427 31.40725
v -8.667542 27.37961 31.40957
v -8.297774 27.46955 31.4238
v -8.708637 27.39093 31.40798
v -8.634173 27.34594 31.41087
v -8.307579 27.42843 31.42344
v -8.623199 27.30473 31.41131
v -9.097186 27.3925 31.393
v -9.095791 27.73578 31.39291
v -9.105071 27.7333 31.39256
v -9.106445 27.39505 31.39264
v -9.107435 27.73096 31.39247
v -9.108791 27.39742 31.39255
v -9.109984 27.72169 31.39237
v -9.111264 27.40671 31.39245
v -8.313129 26.06258 31.42376
v -8.628269 26.057 31.41161
v -8.625861 26.04807 31.41171
v -8.315744 26.05296 31.42367
v -8.623803 26.04602 31.41179
v -8.318392 26.05028 31.42356
v -8.614856 26.0437 31.41213
v -8.32798 26.04757 31.42319
v -8.684667 27.34261 31.29316
v -8.634173 27.34594 31.41087
v -8.666809 27.3246 31.29386
v -8.667542 27.37961 31.40957
v -8.709845 27.34955 31.29219
v -8.708637 27.39093 31.40798
v -9.098392 27.35113 31.2772
v -9.097186 27.3925 31.393
v -9.123571 27.35806 31.27623
v -9.106445 27.39505 31.39264
v -9.141428 27.37607 31.27553
v -9.108791 27.39742 31.39255
v -9.148151 27.40133 31.27526
v -9.111264 27.40671 31.39245
v -9.146827 27.72731 31.27518
v -9.109984 27.72169 31.39237
v -9.139897 27.75251 31.27544
v -9.107435 27.73096 31.39247
v -9.121896 27.77038 31.27613
v -9.105071 27.7333 31.39256
v -9.096662 27.77711 31.2771
v -9.095791 27.73578 31.39291
v -8.719591 27.77558 31.29165
v -8.724217 27.73427 31.40725
v -8.220579 27.77356 31.31089
v -8.225205 27.73225 31.42649
v -7.884687 27.7722 31.32385
v -7.895044 27.73091 31.43923
v -7.860197 27.76516 31.32479
v -7.887097 27.72863 31.43954
v -7.843382 27.74706 31.32545
v -7.885921 27.72736 31.43958
v -7.838145 27.72211 31.32566
v -7.884222 27.71927 31.43965
v -7.846141 27.60545 31.3254
v -7.891515 27.61286 31.43941
v -7.854205 27.57818 31.3251
v -7.895705 27.5987 31.43925
v -7.872571 27.55729 31.3244
v -7.902048 27.59148 31.43901
v -7.898562 27.5458 31.3234
v -7.915552 27.58551 31.43849
v -8.212613 27.4832 31.31132
v -8.229829 27.52287 31.4264
v -8.238009 27.47164 31.31034
v -8.26828 27.50537 31.42492
v -8.255341 27.45059 31.30968
v -8.297774 27.46955 31.4238
v -8.261817 27.42344 31.30944
v -8.307579 27.42843 31.42344
v -8.267369 26.05692 31.30977
v -8.313129 26.06258 31.42376
v -8.274268 26.03155 31.30951
v -8.315744 26.05296 31.42367
v -8.292237 26.01339 31.30882
v -8.318392 26.05028 31.42356
v -8.317532 26.00625 31.30785
v -8.32798 26.04757 31.42319
v -8.615401 26.00223 31.29637
v -8.614856 26.0437 31.41213
v -8.640512 26.00875 31.29539
v -8.623803 26.04602 31.41179
v -8.6584 26.02649 31.2947
v -8.625861 26.04807 31.41171
v -8.665156 26.05155 31.29443
v -8.628269 26.057 31.41161
v -8.660086 27.29935 31.29413
v -8.623199 27.30473 31.41131
v -8.666809 27.3246 31.29386
v -8.634173 27.34594 31.41087
vt 0.7712731 0.6247181
vt 0.7717194 0.6239775
vt 0.7743878 0.6140445
vt 0.7744547 0.6124591
vt 0.7710213 0.6248465
vt 0.7740806 0.6114103
vt 0.7700776 0.6250062
vt 0.7730025 0.6100392
vt 0.7310006 0.6169099
vt 0.7391046 0.5852963
vt 0.7341602 0.580469
vt 0.6601072 0.6085884
vt 0.6653469 0.5531061
vt 0.7295602 0.5739403
vt 0.6590339 0.5562479
vt 0.6713889 0.5475827
vt 0.7278095 0.5667595
vt 0.6746513 0.5409508
vt 0.6083734 0.5736523
vt 0.6116803 0.6050314
vt 0.6106732 0.6046454
vt 0.6074387 0.5742786
vt 0.6102178 0.6043341
vt 0.607054 0.5746871
vt 0.6096199 0.6030051
vt 0.6067461 0.5761399
vt 0.7368812 0.3659245
vt 0.7032753 0.3615892
vt 0.7039338 0.3605569
vt 0.7364184 0.3646887
vt 0.7043403 0.3601669
vt 0.7360175 0.3641238
vt 0.7058838 0.3598613
vt 0.7344256 0.3634026
vt 0.6530849 0.5380658
vt 0.6713889 0.5475827
vt 0.6556314 0.535518
vt 0.6653469 0.5531061
vt 0.6499289 0.5400681
vt 0.6590339 0.5562479
vt 0.5972822 0.5596395
vt 0.6083734 0.5736523
vt 0.5939882 0.5623432
vt 0.6074387 0.5742786
vt 0.5915135 0.5657434
vt 0.607054 0.5746871
vt 0.5897421 0.5697095
vt 0.6067461 0.5761399
vt 0.595251 0.6125144
vt 0.6096199 0.6030051
vt 0.5976721 0.6158747
vt 0.6102178 0.6043341
vt 0.600748 0.618408
vt 0.6106732 0.6046454
vt 0.604354 0.6202856
vt 0.6116803 0.6050314
vt 0.6583143 0.6261692
vt 0.6601072 0.6085884
vt 0.7286085 0.6341997
vt 0.7310006 0.6169099
vt 0.7751958 0.6393015
vt 0.7700776 0.6250062
vt 0.7785603 0.6378368
vt 0.7710213 0.6248465
vt 0.7814077 0.6356415
vt 0.7712731 0.6247181
vt 0.7837483 0.6327747
vt 0.7717194 0.6239775
vt 0.78986 0.6145139
vt 0.7743878 0.6140445
vt 0.7896059 0.6102969
vt 0.7744547 0.6124591
vt 0.7886267 0.60637
vt 0.7740806 0.6114103
vt 0.7868952 0.6026134
vt 0.7730025 0.6100392
vt 0.7524574 0.5725126
vt 0.7391046 0.5852963
vt 0.7498228 0.5694762
vt 0.7341602 0.580469
vt 0.7479318 0.5659879
vt 0.7295602 0.5739403
vt 0.7467479 0.5620344
vt 0.7278095 0.5667595
vt 0.7554583 0.3573718
vt 0.7368812 0.3659245
vt 0.7532422 0.3528928
vt 0.7364184 0.3646887
vt 0.75007 0.3491426
vt 0.7360175 0.3641238
vt 0.7460479 0.3460326
vt 0.7344256 0.3634026
vt 0.6985663 0.3411321
vt 0.7058838 0.3598613
vt 0.6941112 0.3430754
vt 0.7043403 0.3601669
vt 0.6904699 0.3459997
vt 0.7039338 0.3605569
vt 0.6874646 0.3497096
vt 0.7032753 0.3615892
vt 0.657511 0.5322326
vt 0.6746513 0.5409508
vt 0.6556314 0.535518
vt 0.6713889 0.5475827
vn -0.03853076 0.0003957795 0.9992573
vn -0.038526 0.0003951584 0.9992575
vn -0.03852599 0.0003951584 0.9992575
vn -0.03853093 0.000395801 0.9992573
vn -0.0385382 0.0003963056 0.999257
vn -0.03853927 0.0003963753 0.999257
vn -0.03854145 0.0003964042 0.9992569
vn -0.03854141 0.0003963668 0.9992569
vn -0.03854132 0.0003963059 0.9992569
vn -0.03854182 0.0003963379 0.9992569
vn -0.03854143 0.0003962214 0.9992569
vn -0.03854132 0.0003962308 0.9992569
vn -0.03854169 0.0003960441 0.9992569
vn -0.03854103 0.0003956103 0.9992569
vn -0.03854223 0.0003961389 0.9992569
vn -0.03854107 0.000395622 0.9992569
vn -0.03854118 0.0003958378 0.9992569
vn -0.03854118 0.0003959489 0.9992569
vn -0.03854075 0.0003962383 0.9992569
vn -0.03854075 0.0003962383 0.9992569
vn -0.03854165 0.0003963348 0.9992569
vn -0.03854164 0.0003963348 0.9992569
vn -0.03854303 0.0003962933 0.9992568
vn -0.03854303 0.0003962934 0.9992568
vn -0.03852291 0.0003959847 0.9992576
vn -0.03852291 0.0003959847 0.9992576
vn -0.03854124 0.0003999061 0.9992569
vn -0.03854124 0.0004000229 0.9992569
vn -0.03854128 0.0003961617 0.9992569
vn -0.03854128 0.0003964289 0.9992569
vn -0.03854128 0.0003801261 0.9992569
vn -0.03854128 0.0003800337 0.9992569
vn -0.03854179 0.0004070653 0.9992569
vn -0.03854179 0.0004070653 0.9992569
vn -0.4863453 -0.8095369 0.3288134
vn -0.8262595 -0.4665962 0.3155681
vn -0.8262603 -0.4665948 0.3155681
vn -0.4863455 -0.8095368 0.3288134
vn -0.140814 -0.931833 0.3344528
vn -0.1408148 -0.931833 0.3344528
vn -0.1408139 -0.931833 0.3344529
vn -0.1408144 -0.931833 0.3344529
vn -0.4863503 -0.8095335 0.3288144
vn -0.4863493 -0.8095341 0.3288144
vn -0.8262597 -0.4665963 0.3155673
vn -0.8262586 -0.4665982 0.3155673
vn -0.9453571 -0.1201297 0.3030987
vn -0.9453571 -0.1201298 0.3030986
vn -0.944348 0.1279618 0.3030391
vn -0.944348 0.127962 0.3030391
vn -0.8224375 0.4734522 0.3153403
vn -0.8224382 0.4734512 0.3153403
vn -0.4797599 0.8136141 0.3284244
vn -0.4797602 0.8136139 0.3284244
vn -0.133239 0.9331064 0.3340055
vn -0.1332389 0.9331065 0.3340055
vn -0.009147726 0.9417602 0.3361604
vn -0.009147727 0.9417604 0.3361604
vn -0.009147902 0.9417604 0.3361601
vn -0.009147902 0.9417604 0.3361601
vn 0.119794 0.9313 0.3439908
vn 0.1197935 0.9313 0.3439907
vn 0.4767837 0.7991082 0.3662012
vn 0.4767787 0.7991112 0.366201
vn 0.8183963 0.4314955 0.3795249
vn 0.8183942 0.4314995 0.3795247
vn 0.9245746 0.06525449 0.3753714
vn 0.9245746 0.06525382 0.3753714
vn 0.9123695 -0.1665756 0.3739445
vn 0.9123694 -0.1665763 0.3739445
vn 0.8081836 -0.4538031 0.3753693
vn 0.8081827 -0.4538046 0.3753692
vn 0.5415702 -0.7571822 0.365208
vn 0.54157 -0.7571824 0.365208
vn 0.270392 -0.8970821 0.3494736
vn 0.2703916 -0.8970823 0.3494736
vn 0.2752815 -0.8954479 0.3498473
vn 0.2752815 -0.8954479 0.3498473
vn 0.5575911 -0.7448046 0.366549
vn 0.5575909 -0.7448047 0.366549
vn 0.8265954 -0.4180509 0.3767938
vn 0.8265951 -0.4180514 0.3767938
vn 0.9205059 -0.1117074 0.3744201
vn 0.9205059 -0.1117075 0.3744201
vn 0.91841 -0.1263043 0.374927
vn 0.9184098 -0.1263059 0.374927
vn 0.7985412 -0.4684537 0.3779987
vn 0.7985398 -0.4684561 0.3779987
vn 0.4624991 -0.8079245 0.3651749
vn 0.4625001 -0.8079239 0.3651749
vn 0.1220236 -0.9308113 0.3445296
vn 0.1220232 -0.9308113 0.3445297
vn -0.1258709 -0.93374 0.3350914
vn -0.1258708 -0.93374 0.3350914
vn -0.4768548 -0.8149201 0.3294156
vn -0.4768557 -0.8149197 0.3294156
vn -0.8234231 -0.4713532 0.3159124
vn -0.8234221 -0.4713549 0.3159124
vn -0.9451547 -0.1215386 0.3031681
vn -0.9451546 -0.1215398 0.3031682
vn -0.9453577 -0.1201227 0.3030997
vn -0.9453576 -0.1201229 0.3030997
vn -0.8262603 -0.4665948 0.3155681
vn -0.8262595 -0.4665962 0.3155681
g KK-SignLetter_7_0
f 3/3/3 2/2/2 1/1/1
f 4/4/4 3/3/3 1/1/1
f 4/4/4 1/1/1 5/5/5
f 6/6/6 4/4/4 5/5/5
f 6/6/6 5/5/5 7/7/7
f 8/8/8 6/6/6 7/7/7
f 7/7/7 9/9/9 8/8/8
f 9/9/9 10/10/10 8/8/8
f 10/10/10 9/9/9 11/11/11
f 9/9/9 12/12/12 11/11/11
f 12/12/12 13/13/13 11/11/11
f 14/14/14 11/11/11 13/13/13
f 13/13/13 12/12/12 15/15/15
f 16/16/16 14/14/14 13/13/13
f 17/17/17 14/14/14 16/16/16
f 18/18/18 17/17/17 16/16/16
f 19/19/19 15/15/15 12/12/12
f 20/20/20 19/19/19 12/12/12
f 19/19/19 20/20/20 21/21/21
f 22/22/22 19/19/19 21/21/21
f 22/22/22 21/21/21 23/23/23
f 24/24/24 22/22/22 23/23/23
f 24/24/24 23/23/23 25/25/25
f 26/26/26 24/24/24 25/25/25
f 27/27/27 17/17/17 18/18/18
f 28/28/28 27/27/27 18/18/18
f 27/27/27 28/28/28 29/29/29
f 30/30/30 27/27/27 29/29/29
f 30/30/30 29/29/29 31/31/31
f 32/32/32 30/30/30 31/31/31
f 32/32/32 31/31/31 33/33/33
f 34/34/34 32/32/32 33/33/33
f 37/37/37 36/36/36 35/35/35
f 36/36/36 38/38/38 35/35/35
f 35/35/35 38/38/38 39/39/39
f 38/38/38 40/40/40 39/39/39
f 39/39/39 40/40/40 41/41/41
f 40/40/40 42/42/42 41/41/41
f 41/41/41 42/42/42 43/43/43
f 42/42/42 44/44/44 43/43/43
f 43/43/43 44/44/44 45/45/45
f 44/44/44 46/46/46 45/45/45
f 45/45/45 46/46/46 47/47/47
f 46/46/46 48/48/48 47/47/47
f 47/47/47 48/48/48 49/49/49
f 48/48/48 50/50/50 49/49/49
f 49/49/49 50/50/50 51/51/51
f 50/50/50 52/52/52 51/51/51
f 51/51/51 52/52/52 53/53/53
f 52/52/52 54/54/54 53/53/53
f 53/53/53 54/54/54 55/55/55
f 54/54/54 56/56/56 55/55/55
f 55/55/55 56/56/56 57/57/57
f 56/56/56 58/58/58 57/57/57
f 57/57/57 58/58/58 59/59/59
f 58/58/58 60/60/60 59/59/59
f 59/59/59 60/60/60 61/61/61
f 60/60/60 62/62/62 61/61/61
f 61/61/61 62/62/62 63/63/63
f 62/62/62 64/64/64 63/63/63
f 63/63/63 64/64/64 65/65/65
f 64/64/64 66/66/66 65/65/65
f 65/65/65 66/66/66 67/67/67
f 66/66/66 68/68/68 67/67/67
f 67/67/67 68/68/68 69/69/69
f 68/68/68 70/70/70 69/69/69
f 69/69/69 70/70/70 71/71/71
f 70/70/70 72/72/72 71/71/71
f 71/71/71 72/72/72 73/73/73
f 72/72/72 74/74/74 73/73/73
f 73/73/73 74/74/74 75/75/75
f 74/74/74 76/76/76 75/75/75
f 75/75/75 76/76/76 77/77/77
f 76/76/76 78/78/78 77/77/77
f 77/77/77 78/78/78 79/79/79
f 78/78/78 80/80/80 79/79/79
f 79/79/79 80/80/80 81/81/81
f 80/80/80 82/82/82 81/81/81
f 81/81/81 82/82/82 83/83/83
f 82/82/82 84/84/84 83/83/83
f 83/83/83 84/84/84 85/85/85
f 84/84/84 86/86/86 85/85/85
f 85/85/85 86/86/86 87/87/87
f 86/86/86 88/88/88 87/87/87
f 87/87/87 88/88/88 89/89/89
f 88/88/88 90/90/90 89/89/89
f 89/89/89 90/90/90 91/91/91
f 90/90/90 92/92/92 91/91/91
f 91/91/91 92/92/92 93/93/93
f 92/92/92 94/94/94 93/93/93
f 93/93/93 94/94/94 95/95/95
f 94/94/94 96/96/96 95/95/95
f 95/95/95 96/96/96 97/97/97
f 96/96/96 98/98/98 97/97/97
f 97/97/97 98/98/98 99/99/99
f 98/98/98 100/100/100 99/99/99
f 99/99/99 100/100/100 101/101/101
f 100/100/100 102/102/102 101/101/101
f 101/101/101 102/102/102 103/103/103
f 102/102/102 104/104/104 103/103/103
