g KK-Window_3
v -3.330873 3.632532 -4.218362
v -3.330872 -2.478902 -4.218363
v -2.9448 -2.478902 -4.218362
v -2.944804 3.632532 -4.21836
v -0.9323288 3.632534 -4.21836
v -0.9323279 -2.478902 -4.21836
vt 0.0005005515 0.795591
vt 0.9991255 0.795591
vt 0.9991255 0.732505
vt 0.0005003677 0.7325054
vt 0.0005 0.4036611
vt 0.9991255 0.4036611
vn 3.161864E-06 2.996126E-07 -1
vn 3.161864E-06 2.996126E-07 -1
vn 1.732574E-06 2.496767E-07 -1
vn 1.732574E-06 2.496768E-07 -1
vn 3.032842E-07 1.99741E-07 -1
vn 3.032842E-07 1.99741E-07 -1
g KK-Window_3_0
f 3/3/3 2/2/2 1/1/1
f 4/4/4 3/3/3 1/1/1
f 3/3/3 4/4/4 5/5/5
f 6/6/6 3/3/3 5/5/5
