g CB-Floor
v 0.05379496 -12.00841 0.003047676
v 1.120502 -3.824618 0.003047676
v 1.120502 -12.0097 0.003047676
v 0.05379497 -3.823458 0.003047676
v 1.092652 -3.728896 0.003047676
v 0.05379497 -3.727848 0.003047676
v 1.053136 -3.708006 0.003047676
v 0.07226373 -3.708006 0.003047676
v 0.05497082 -3.689003 0.003047676
v 0.03775144 -3.708006 0.003047676
v -1.024991 -3.708006 0.003047676
v -1.064823 -3.726704 0.003047676
v -1.093187 -3.822197 0.003047676
v -1.093187 -12.00728 0.003047676
v -1.057859 -3.708006 0.003047676
v -1.099419 -3.726669 0.003047676
v -1.128661 -3.822158 0.003047676
v -1.128661 -12.00725 0.003047676
v 1.153493 -12.00974 0.003047676
v 1.153493 -3.824654 0.003047676
v 1.124782 -3.728928 0.003047676
v 1.083472 -3.708006 0.003047676
vt 0.1974125 -0.4011329
vt 0.4887784 1.364343
vt 0.4887787 -0.4014845
vt 0.1974123 1.36466
vt 0.4811702 1.390491
vt 0.1974115 1.390776
vt 0.4703762 1.396197
vt 0.2024558 1.396197
vt 0.1977323 1.401387
vt 0.1930291 1.396195
vt -0.09725362 1.396194
vt -0.1081333 1.391087
vt -0.1158806 1.365004
vt -0.1158804 -0.4008235
vt -0.1062315 1.396194
vt -0.1175831 1.391096
vt -0.1255701 1.365014
vt -0.1255699 -0.4008139
vt 0.49779 -0.4014954
vt 0.4977897 1.364334
vt 0.4899462 1.390482
vt 0.4786624 1.396197
vn 0 0 1
vn 0 0 1
vn 0 0 1
vn 0 0 1
vn 0 0 1
vn 0 0 1
vn 0 0 1
vn 0 0 1
vn 0 0 1
vn 0 0 1
vn 0 0 1
vn 0 0 1
vn 0 0 1
vn 0 0 1
vn 0 0 1
vn 0 0 1
vn 0 0 1
vn 0 0 1
vn 0 0 1
vn 0 0 1
vn 0 0 1
vn 0 0 1
g CB-Floor_0
f 3/3/3 2/2/2 1/1/1
f 2/2/2 4/4/4 1/1/1
f 2/2/2 5/5/5 4/4/4
f 5/5/5 6/6/6 4/4/4
f 5/5/5 7/7/7 6/6/6
f 7/7/7 8/8/8 6/6/6
f 8/8/8 9/9/9 6/6/6
f 9/9/9 10/10/10 6/6/6
f 10/10/10 11/11/11 6/6/6
f 11/11/11 12/12/12 6/6/6
f 6/6/6 12/12/12 4/4/4
f 12/12/12 13/13/13 4/4/4
f 4/4/4 13/13/13 1/1/1
f 13/13/13 14/14/14 1/1/1
g CB-Floor_1
f 12/12/12 11/11/11 15/15/15
f 16/16/16 12/12/12 15/15/15
f 13/13/13 12/12/12 16/16/16
f 17/17/17 13/13/13 16/16/16
f 13/13/13 17/17/17 18/18/18
f 14/14/14 13/13/13 18/18/18
f 2/2/2 3/3/3 19/19/19
f 20/20/20 2/2/2 19/19/19
f 20/20/20 21/21/21 2/2/2
f 21/21/21 5/5/5 2/2/2
f 21/21/21 22/22/22 5/5/5
f 22/22/22 7/7/7 5/5/5
