g CB-Letter_6
v -0.09706451 -4.365297 5.359418
v -0.08002701 -4.366078 5.361096
v 0.1060968 -4.365278 5.325897
v 0.1242987 -4.364323 5.317688
v -0.1076929 -4.364183 5.351096
v 0.1353647 -4.362998 5.304038
v -0.1133229 -4.362629 5.334919
v 0.1401282 -4.361245 5.283638
v 0.1424419 -4.34852 5.126836
v -0.1192967 -4.351339 5.198553
v 0.1143298 -4.342605 5.046836
v -0.1407008 -4.345271 5.13642
v 0.04906982 -4.334735 4.943644
v -0.1859946 -4.338077 5.079767
v -0.043022 -4.324853 4.836904
v -0.2478891 -4.329846 5.033101
v -0.1527271 -4.315264 4.773047
v -0.2998529 -4.303938 4.768617
v -0.3167396 -4.322678 5.020659
v -0.4707581 -4.286907 4.805802
v -0.3916858 -4.316955 5.050767
v -0.6070599 -4.270274 4.868251
v -0.4667422 -4.312402 5.114323
v -0.6896088 -4.260725 4.943469
v -0.7406055 -4.25817 5.043145
v -0.5138739 -4.313848 5.217201
v -0.7650732 -4.264393 5.186371
v -0.7646344 -4.282852 5.41357
v -0.521427 -4.326335 5.386041
v -0.73591 -4.310891 5.683052
v -0.5030532 -4.345566 5.589503
v -0.4624618 -4.363948 5.744802
v -0.6757458 -4.33988 5.888813
v -0.575434 -4.366571 5.99195
v -0.3828407 -4.379402 5.810602
v -0.4415649 -4.390568 6.039223
v -0.3020441 -4.407429 6.05178
v -0.2818601 -4.390305 5.816875
v -0.1539247 -4.416931 6.031901
v -0.1983888 -4.394629 5.789591
v -0.002333221 -4.417788 5.97659
v -0.1529886 -4.392405 5.727762
v 0.1065027 -4.411762 5.901158
v 0.1514359 -4.403015 5.803877
v 0.1671512 -4.392617 5.680606
v -0.1295529 -4.386506 5.639724
v 0.1584674 -4.382351 5.550505
v -0.1111748 -4.380053 5.549339
v -0.101225 -4.378879 5.529579
v 0.1545422 -4.380928 5.531573
v -0.0855307 -4.378521 5.517533
v 0.1451141 -4.380313 5.521031
v -0.06332184 -4.378898 5.512812
v 0.1290617 -4.380264 5.51608
v -0.1428747 -4.315196 5.644834
v -0.1111748 -4.380053 5.549339
v -0.1184908 -4.310699 5.548102
v -0.1295529 -4.386506 5.639724
v -0.1599674 -4.321135 5.725543
v -0.1529886 -4.392405 5.727762
v -0.2025916 -4.321481 5.783607
v -0.1983888 -4.394629 5.789591
v -0.2811896 -4.315315 5.809225
v -0.2818601 -4.390305 5.816875
v -0.3768567 -4.304705 5.803215
v -0.3828407 -4.379402 5.810602
v -0.451739 -4.291618 5.741244
v -0.4624618 -4.363948 5.744802
v -0.4913849 -4.274751 5.58944
v -0.5030532 -4.345566 5.589503
v -0.4979451 -4.25308 5.37972
v -0.521427 -4.326335 5.386041
v -0.5009702 -4.236352 5.221166
v -0.5138739 -4.313848 5.217201
v -0.4552645 -4.231036 5.122441
v -0.4667422 -4.312402 5.114323
v -0.3834048 -4.232467 5.061858
v -0.3916858 -4.316955 5.050767
v -0.3133594 -4.237056 5.033677
v -0.3167396 -4.322678 5.020659
v -0.2504689 -4.244958 5.044917
v -0.2478891 -4.329846 5.033101
v -0.1918026 -4.255758 5.088932
v -0.1859946 -4.338077 5.079767
v -0.1483487 -4.265926 5.142947
v -0.1407008 -4.345271 5.13642
v -0.127786 -4.274265 5.202047
v -0.1192967 -4.351339 5.198553
v -0.1214512 -4.289131 5.338265
v -0.1133229 -4.362629 5.334919
v -0.1144851 -4.291929 5.358091
v -0.1076929 -4.364183 5.351096
v -0.09976358 -4.294685 5.369492
v -0.09706451 -4.365297 5.359418
v -0.07897429 -4.297105 5.371338
v -0.08002701 -4.366078 5.361096
v 0.1086111 -4.292718 5.336206
v 0.1060968 -4.365278 5.325897
v 0.1298132 -4.289826 5.326863
v 0.1242987 -4.364323 5.317688
v 0.1436336 -4.287111 5.309926
v 0.1353647 -4.362998 5.304038
v 0.1491151 -4.284753 5.28648
v 0.1401282 -4.361245 5.283638
v 0.1513958 -4.272311 5.127012
v 0.1424419 -4.34852 5.126836
v 0.1222579 -4.268988 5.044534
v 0.1143298 -4.342605 5.046836
v 0.06426741 -4.267971 4.953481
v 0.04906982 -4.334735 4.943644
v -0.03599764 -4.244735 4.831008
v -0.043022 -4.324853 4.836904
v -0.1482113 -4.226111 4.764142
v -0.1527271 -4.315264 4.773047
v -0.2984597 -4.210061 4.759118
v -0.2998529 -4.303938 4.768617
v -0.4707748 -4.195719 4.797142
v -0.4707581 -4.286907 4.805802
v -0.6086416 -4.18761 4.861544
v -0.6070599 -4.270274 4.868251
v -0.6928003 -4.186663 4.939552
v -0.6896088 -4.260725 4.943469
v -0.7445565 -4.189649 5.042044
v -0.7406055 -4.25817 5.043145
v -0.7688931 -4.201463 5.187185
v -0.7650732 -4.264393 5.186371
v -0.7610859 -4.221305 5.408075
v -0.7646344 -4.282852 5.41357
v -0.7392416 -4.256593 5.685602
v -0.73591 -4.310891 5.683052
v -0.6790285 -4.280354 5.893948
v -0.6757458 -4.33988 5.888813
v -0.5769781 -4.30004 6.000539
v -0.575434 -4.366571 5.99195
v -0.440978 -4.318513 6.049666
v -0.4415649 -4.390568 6.039223
v -0.3000092 -4.33442 6.062596
v -0.3020441 -4.407429 6.05178
v -0.1508184 -4.3483 6.041818
v -0.1539247 -4.416931 6.031901
v 0.001741592 -4.352869 5.985278
v -0.002333221 -4.417788 5.97659
v 0.1138084 -4.335438 5.909139
v 0.1065027 -4.411762 5.901158
v 0.1605335 -4.323003 5.808389
v 0.1514359 -4.403015 5.803877
v 0.1765074 -4.311981 5.682699
v 0.1671512 -4.392617 5.680606
v 0.1673806 -4.302601 5.553094
v 0.1584674 -4.382351 5.550505
v 0.1622342 -4.301894 5.527992
v 0.1545422 -4.380928 5.531573
v 0.1500262 -4.302108 5.5144
v 0.1451141 -4.380313 5.521031
v 0.1301642 -4.303688 5.508399
v 0.1290617 -4.380264 5.51608
v -0.06354874 -4.312703 5.506135
v -0.06332184 -4.378898 5.512812
v -0.08845031 -4.310568 5.511287
v -0.0855307 -4.378521 5.517533
v -0.1061609 -4.31006 5.524857
v -0.101225 -4.378879 5.529579
v -0.1184908 -4.310699 5.548102
v -0.1111748 -4.380053 5.549339
vt 0.7104892 0.14386
vt 0.7137199 0.1421867
vt 0.7502361 0.1164772
vt 0.7535486 0.1134062
vt 0.7085887 0.1443101
vt 0.7552246 0.1107075
vt 0.7070161 0.1433299
vt 0.755285 0.1077483
vt 0.7415194 0.07555111
vt 0.6912936 0.1158647
vt 0.7294827 0.06168088
vt 0.6804044 0.1031171
vt 0.7077639 0.04464726
vt 0.6649225 0.09277971
vt 0.680437 0.02823796
vt 0.6459976 0.08562857
vt 0.6535221 0.02103333
vt 0.6211186 0.0259437
vt 0.627301 0.08556859
vt 0.5832787 0.03897312
vt 0.6084484 0.0944671
vt 0.5532566 0.05551325
vt 0.5903652 0.1113965
vt 0.5353317 0.07303117
vt 0.5240481 0.09561288
vt 0.5784154 0.1366595
vt 0.5181 0.1287097
vt 0.5174978 0.1823875
vt 0.5755584 0.1769004
vt 0.524293 0.2463721
vt 0.579803 0.2248653
vt 0.5906057 0.2621235
vt 0.5392843 0.2944701
vt 0.5619416 0.318602
vt 0.6104376 0.279444
vt 0.5918087 0.3317631
vt 0.6233812 0.338032
vt 0.6355516 0.2840113
vt 0.6576115 0.338316
vt 0.6573326 0.2796094
vt 0.6939066 0.3326463
vt 0.6722505 0.266922
vt 0.7211202 0.3218146
vt 0.7365243 0.3045399
vt 0.7484571 0.2795949
vt 0.6846502 0.2485594
vt 0.7553161 0.2514304
vt 0.6959817 0.2309695
vt 0.699028 0.2287163
vt 0.755123 0.2488549
vt 0.7029495 0.2281393
vt 0.7535921 0.2472481
vt 0.7081231 0.2291381
vt 0.7504578 0.2455269
vt 0.6695778 0.2372049
vt 0.6959817 0.2309695
vt 0.6862893 0.218503
vt 0.6846502 0.2485594
vt 0.6605933 0.2546549
vt 0.6722505 0.266922
vt 0.649955 0.2639216
vt 0.6573326 0.2796094
vt 0.6345988 0.2668803
vt 0.6355516 0.2840113
vt 0.6167946 0.2636406
vt 0.6104376 0.279444
vt 0.6038112 0.2520889
vt 0.5906057 0.2621235
vt 0.5956783 0.220553
vt 0.579803 0.2248653
vt 0.5931291 0.1741099
vt 0.5755584 0.1769004
vt 0.5961046 0.1407564
vt 0.5784154 0.1366595
vt 0.6057616 0.1225626
vt 0.5903652 0.1113965
vt 0.6188245 0.111049
vt 0.6084484 0.0944671
vt 0.6308182 0.1055236
vt 0.627301 0.08556859
vt 0.6416546 0.105107
vt 0.6459976 0.08562857
vt 0.6552007 0.1094334
vt 0.6649225 0.09277971
vt 0.6671936 0.1168403
vt 0.6804044 0.1031171
vt 0.6761369 0.1267848
vt 0.6912936 0.1158647
vt 0.6956246 0.1550874
vt 0.7070161 0.1433299
vt 0.7036356 0.1598786
vt 0.7085887 0.1443101
vt 0.7124138 0.1600388
vt 0.7104892 0.14386
vt 0.7209696 0.1566398
vt 0.7137199 0.1421867
vt 0.7617192 0.1291325
vt 0.7502361 0.1164772
vt 0.7683913 0.1223262
vt 0.7535486 0.1134062
vt 0.7723412 0.1137899
vt 0.7552246 0.1107075
vt 0.7723937 0.103853
vt 0.755285 0.1077483
vt 0.7565258 0.06579061
vt 0.7415194 0.07555111
vt 0.7412733 0.04868936
vt 0.7294827 0.06168088
vt 0.7192784 0.03282242
vt 0.7077639 0.04464726
vt 0.6863077 0.01037494
vt 0.680437 0.02823796
vt 0.6533872 0.0005
vt 0.6535221 0.02103333
vt 0.6146787 0.004675776
vt 0.6211186 0.0259437
vt 0.5730098 0.02002471
vt 0.5832787 0.03897312
vt 0.5405879 0.04089234
vt 0.5532566 0.05551325
vt 0.5210477 0.06334337
vt 0.5353317 0.07303117
vt 0.508917 0.09028493
vt 0.5240481 0.09561288
vt 0.5033937 0.1266163
vt 0.5181 0.1287097
vt 0.5031408 0.1805354
vt 0.5174978 0.1823875
vt 0.5115614 0.2480066
vt 0.524293 0.2463721
vt 0.5267857 0.3000389
vt 0.5392843 0.2944701
vt 0.5514463 0.3297475
vt 0.5619416 0.318602
vt 0.5847831 0.3472048
vt 0.5918087 0.3317631
vt 0.6202579 0.3549997
vt 0.6233812 0.338032
vt 0.6583118 0.354633
vt 0.6576115 0.338316
vt 0.6984727 0.3473735
vt 0.6939066 0.3326463
vt 0.7318521 0.3356041
vt 0.7211202 0.3218146
vt 0.7526852 0.314302
vt 0.7365243 0.3045399
vt 0.7670249 0.2846444
vt 0.7484571 0.2795949
vt 0.773661 0.2511202
vt 0.7553161 0.2514304
vt 0.7715473 0.2412454
vt 0.755123 0.2488549
vt 0.7665173 0.2345191
vt 0.7535921 0.2472481
vt 0.7590233 0.2297791
vt 0.7504578 0.2455269
vt 0.7121576 0.2141029
vt 0.7081231 0.2291381
vt 0.7029645 0.2123466
vt 0.7029495 0.2281393
vt 0.6944074 0.2135843
vt 0.699028 0.2287163
vt 0.6862893 0.218503
vt 0.6959817 0.2309695
vn -0.01792732 -0.9928529 -0.1179905
vn -0.02899065 -0.9839168 -0.1762589
vn -0.02899066 -0.9839168 -0.1762589
vn -0.0176527 -0.9930287 -0.116543
vn -0.0139258 -0.9952149 -0.09671167
vn -0.013639 -0.9953667 -0.09517907
vn -0.01197871 -0.9962531 -0.08565083
vn -0.01183186 -0.9963349 -0.08471619
vn -0.01282759 -0.9966947 -0.08021906
vn -0.01265597 -0.9966851 -0.0803654
vn -0.01375504 -0.9971762 -0.07382776
vn -0.02105103 -0.9967952 -0.07717504
vn -0.02311469 -0.9970347 -0.07340034
vn -0.04003872 -0.9960898 -0.07875367
vn -0.042768 -0.9959595 -0.07896615
vn -0.0648766 -0.9946215 -0.08074158
vn -0.06468834 -0.994635 -0.08072617
vn -0.09465191 -0.9921001 -0.08233079
vn -0.09806032 -0.991761 -0.08242752
vn -0.1337351 -0.9880062 -0.07719371
vn -0.1379568 -0.9872494 -0.07941389
vn -0.1556917 -0.9848867 -0.07588349
vn -0.1675452 -0.9827193 -0.07868429
vn -0.1674861 -0.9832312 -0.07214395
vn -0.1775506 -0.9813028 -0.07430078
vn -0.1804802 -0.9802274 -0.08112404
vn -0.1805572 -0.9802157 -0.08109312
vn -0.1824105 -0.9799716 -0.0798879
vn -0.1824968 -0.9799557 -0.07988564
vn -0.1762442 -0.9810597 -0.08037251
vn -0.177273 -0.980882 -0.0802793
vn -0.1634542 -0.9832275 -0.08091016
vn -0.1630533 -0.9832934 -0.08091807
vn -0.1512091 -0.9850132 -0.08297446
vn -0.1317554 -0.9879841 -0.08079582
vn -0.1277225 -0.9883807 -0.08240584
vn -0.09290487 -0.992565 -0.07863405
vn -0.08984558 -0.9928511 -0.07857746
vn -0.05878292 -0.995113 -0.07933959
vn -0.05407703 -0.9953564 -0.07963218
vn -0.02516358 -0.9957958 -0.08807607
vn -0.02157316 -0.996309 -0.08308406
vn -0.01090867 -0.9954361 -0.09480496
vn -0.01169514 -0.9961647 -0.08671357
vn -0.01085792 -0.996918 -0.07769694
vn -0.0108327 -0.9969202 -0.07767175
vn -0.008565403 -0.9973344 -0.07246257
vn -0.008654322 -0.9972952 -0.0729894
vn -0.007730336 -0.9980154 -0.06249382
vn -0.007696799 -0.9981189 -0.06082149
vn -0.007426708 -0.9992155 -0.03890065
vn -0.007441286 -0.999288 -0.03698973
vn -0.007925944 -0.999554 0.02879314
vn -0.007925944 -0.999554 0.02879314
vn -0.9629082 -0.1335669 -0.2344519
vn -0.9314651 -0.118063 -0.3441423
vn -0.9299729 -0.1173884 -0.3483824
vn -0.9629849 -0.1336634 -0.2340813
vn -0.8998617 -0.11632 -0.420379
vn -0.896769 -0.1156167 -0.4271277
vn -0.5798662 -0.0996205 -0.808598
vn -0.5865421 -0.09963816 -0.8037666
vn -0.1258956 -0.1001325 -0.9869772
vn -0.1409742 -0.09981845 -0.9849684
vn 0.3666175 -0.1214295 -0.9224133
vn 0.3330432 -0.1198914 -0.9352583
vn 0.8327117 -0.1495592 -0.5331259
vn 0.8129252 -0.1479187 -0.5632698
vn 0.9647015 -0.2007913 -0.1703939
vn 0.9638953 -0.1965831 -0.1796133
vn 0.9706345 -0.2370867 -0.04072536
vn 0.970149 -0.237603 -0.04853348
vn 0.9552821 -0.2051879 0.2129177
vn 0.9575601 -0.207187 0.20038
vn 0.7822672 -0.1699844 0.5993024
vn 0.7832627 -0.1700064 0.5979944
vn 0.5042688 -0.1611698 0.8483734
vn 0.4986244 -0.1610038 0.8517344
vn 0.0998869 -0.154119 0.9829903
vn 0.07588914 -0.1534899 0.9852318
vn -0.3963641 -0.1387679 0.9075456
vn -0.4214086 -0.138067 0.8962992
vn -0.6950025 -0.1276661 0.7075825
vn -0.7058318 -0.1273937 0.6968302
vn -0.8697936 -0.12278 0.4778956
vn -0.8791984 -0.1223711 0.460473
vn -0.9762008 -0.1155586 0.1835158
vn -0.9788004 -0.1152494 0.1693149
vn -0.979026 -0.1159031 0.1675547
vn -0.9763957 -0.1162957 0.1820074
vn -0.8262535 -0.1307407 0.5479161
vn -0.8071733 -0.1316511 0.575447
vn -0.3974106 -0.1442988 0.9062244
vn -0.3696965 -0.1449136 0.9177825
vn 0.03753427 -0.1466338 0.9884785
vn 0.04205931 -0.1466556 0.9882931
vn 0.3064159 -0.144728 0.9408311
vn 0.3006062 -0.144832 0.9426875
vn 0.6252797 -0.1407468 0.7676038
vn 0.6070235 -0.1412125 0.7820368
vn 0.9010918 -0.1303605 0.4135696
vn 0.8918756 -0.1308893 0.4329273
vn 0.9870749 -0.1199748 0.1062516
vn 0.9861123 -0.1201847 0.1146218
vn 0.9783372 -0.115134 -0.1720478
vn 0.9800236 -0.1153273 -0.162029
vn 0.8916665 -0.1103334 -0.4390413
vn 0.8933138 -0.1103504 -0.4356755
vn 0.8023969 -0.1038921 -0.5876781
vn 0.7934906 -0.1025588 -0.5998786
vn 0.6232197 -0.1049997 -0.7749659
vn 0.6383064 -0.1043057 -0.7626828
vn 0.2498367 -0.1079137 -0.9622559
vn 0.2747896 -0.1083675 -0.9553781
vn -0.1057305 -0.09774228 -0.9895795
vn -0.09531645 -0.09804787 -0.9906065
vn -0.3272742 -0.08899082 -0.9407296
vn -0.3200375 -0.08934594 -0.9431825
vn -0.5576769 -0.07783144 -0.8264011
vn -0.5519751 -0.07812946 -0.8301923
vn -0.7942469 -0.06649639 -0.6039456
vn -0.7934206 -0.06653393 -0.6050265
vn -0.9456968 -0.0602099 -0.3194249
vn -0.9474717 -0.0601736 -0.3141278
vn -0.9962656 -0.03140264 -0.08042894
vn -0.9968482 -0.02936535 -0.07369814
vn -0.9987071 0.001007347 0.05082597
vn -0.9982198 0.001683135 0.05961881
vn -0.9835995 -0.03300336 0.1773213
vn -0.981713 -0.0371479 0.1867072
vn -0.8738481 -0.08973502 0.4778464
vn -0.8595675 -0.09142189 0.5027781
vn -0.5634639 -0.1180691 0.8176603
vn -0.5382277 -0.1199348 0.8342221
vn -0.2369725 -0.1367999 0.9618367
vn -0.2224181 -0.1375418 0.9652008
vn 0.002654014 -0.146012 0.9892793
vn 0.01321045 -0.1462797 0.9891551
vn 0.2287481 -0.1488087 0.9620448
vn 0.2339756 -0.1487991 0.9607884
vn 0.4616966 -0.1457106 0.8749884
vn 0.4574974 -0.1458245 0.8771724
vn 0.7759875 -0.1387817 0.6152911
vn 0.7595815 -0.139494 0.6352774
vn 0.9586733 -0.1238847 0.2561212
vn 0.9551241 -0.1242963 0.2688651
vn 0.9932652 -0.1147371 0.0161154
vn 0.9930944 -0.1150088 0.02316192
vn 0.9841571 -0.1070743 -0.1413149
vn 0.9843327 -0.1071497 -0.140029
vn 0.886088 -0.1063648 -0.4511481
vn 0.89053 -0.1063713 -0.4423137
vn 0.5438381 -0.1046937 -0.832634
vn 0.5383976 -0.1046591 -0.8361665
vn 0.1620742 -0.1007227 -0.9816247
vn 0.1573032 -0.1007382 -0.9823988
vn -0.0979455 -0.1000296 -0.9901518
vn -0.09668384 -0.100038 -0.990275
vn -0.4247882 -0.1008003 -0.8996634
vn -0.4176268 -0.1008129 -0.9030086
vn -0.7610186 -0.1004407 -0.6409074
vn -0.7653342 -0.1004386 -0.6357481
vn -0.9299729 -0.1173884 -0.3483824
vn -0.9314651 -0.118063 -0.3441423
g CB-Letter_6_0
f 3/3/3 2/2/2 1/1/1
f 4/4/4 3/3/3 1/1/1
f 4/4/4 1/1/1 5/5/5
f 6/6/6 4/4/4 5/5/5
f 6/6/6 5/5/5 7/7/7
f 8/8/8 6/6/6 7/7/7
f 9/9/9 8/8/8 7/7/7
f 10/10/10 9/9/9 7/7/7
f 11/11/11 9/9/9 10/10/10
f 12/12/12 11/11/11 10/10/10
f 13/13/13 11/11/11 12/12/12
f 13/13/13 12/12/12 14/14/14
f 15/15/15 13/13/13 14/14/14
f 15/15/15 14/14/14 16/16/16
f 17/17/17 15/15/15 16/16/16
f 18/18/18 17/17/17 16/16/16
f 19/19/19 18/18/18 16/16/16
f 20/20/20 18/18/18 19/19/19
f 21/21/21 20/20/20 19/19/19
f 22/22/22 20/20/20 21/21/21
f 22/22/22 21/21/21 23/23/23
f 24/24/24 22/22/22 23/23/23
f 25/25/25 24/24/24 23/23/23
f 25/25/25 23/23/23 26/26/26
f 27/27/27 25/25/25 26/26/26
f 28/28/28 27/27/27 26/26/26
f 29/29/29 28/28/28 26/26/26
f 30/30/30 28/28/28 29/29/29
f 31/31/31 30/30/30 29/29/29
f 30/30/30 31/31/31 32/32/32
f 33/33/33 30/30/30 32/32/32
f 34/34/34 33/33/33 32/32/32
f 35/35/35 34/34/34 32/32/32
f 36/36/36 34/34/34 35/35/35
f 37/37/37 36/36/36 35/35/35
f 38/38/38 37/37/37 35/35/35
f 39/39/39 37/37/37 38/38/38
f 40/40/40 39/39/39 38/38/38
f 41/41/41 39/39/39 40/40/40
f 42/42/42 41/41/41 40/40/40
f 43/43/43 41/41/41 42/42/42
f 44/44/44 43/43/43 42/42/42
f 45/45/45 44/44/44 42/42/42
f 46/46/46 45/45/45 42/42/42
f 47/47/47 45/45/45 46/46/46
f 48/48/48 47/47/47 46/46/46
f 47/47/47 48/48/48 49/49/49
f 50/50/50 47/47/47 49/49/49
f 50/50/50 49/49/49 51/51/51
f 52/52/52 50/50/50 51/51/51
f 52/52/52 51/51/51 53/53/53
f 54/54/54 52/52/52 53/53/53
f 57/57/57 56/56/56 55/55/55
f 56/56/56 58/58/58 55/55/55
f 55/55/55 58/58/58 59/59/59
f 58/58/58 60/60/60 59/59/59
f 59/59/59 60/60/60 61/61/61
f 60/60/60 62/62/62 61/61/61
f 61/61/61 62/62/62 63/63/63
f 62/62/62 64/64/64 63/63/63
f 63/63/63 64/64/64 65/65/65
f 64/64/64 66/66/66 65/65/65
f 65/65/65 66/66/66 67/67/67
f 66/66/66 68/68/68 67/67/67
f 67/67/67 68/68/68 69/69/69
f 68/68/68 70/70/70 69/69/69
f 69/69/69 70/70/70 71/71/71
f 70/70/70 72/72/72 71/71/71
f 71/71/71 72/72/72 73/73/73
f 72/72/72 74/74/74 73/73/73
f 73/73/73 74/74/74 75/75/75
f 74/74/74 76/76/76 75/75/75
f 75/75/75 76/76/76 77/77/77
f 76/76/76 78/78/78 77/77/77
f 77/77/77 78/78/78 79/79/79
f 78/78/78 80/80/80 79/79/79
f 79/79/79 80/80/80 81/81/81
f 80/80/80 82/82/82 81/81/81
f 81/81/81 82/82/82 83/83/83
f 82/82/82 84/84/84 83/83/83
f 83/83/83 84/84/84 85/85/85
f 84/84/84 86/86/86 85/85/85
f 85/85/85 86/86/86 87/87/87
f 86/86/86 88/88/88 87/87/87
f 87/87/87 88/88/88 89/89/89
f 88/88/88 90/90/90 89/89/89
f 89/89/89 90/90/90 91/91/91
f 90/90/90 92/92/92 91/91/91
f 91/91/91 92/92/92 93/93/93
f 92/92/92 94/94/94 93/93/93
f 93/93/93 94/94/94 95/95/95
f 94/94/94 96/96/96 95/95/95
f 95/95/95 96/96/96 97/97/97
f 96/96/96 98/98/98 97/97/97
f 97/97/97 98/98/98 99/99/99
f 98/98/98 100/100/100 99/99/99
f 99/99/99 100/100/100 101/101/101
f 100/100/100 102/102/102 101/101/101
f 101/101/101 102/102/102 103/103/103
f 102/102/102 104/104/104 103/103/103
f 103/103/103 104/104/104 105/105/105
f 104/104/104 106/106/106 105/105/105
f 105/105/105 106/106/106 107/107/107
f 106/106/106 108/108/108 107/107/107
f 107/107/107 108/108/108 109/109/109
f 108/108/108 110/110/110 109/109/109
f 109/109/109 110/110/110 111/111/111
f 110/110/110 112/112/112 111/111/111
f 111/111/111 112/112/112 113/113/113
f 112/112/112 114/114/114 113/113/113
f 113/113/113 114/114/114 115/115/115
f 114/114/114 116/116/116 115/115/115
f 115/115/115 116/116/116 117/117/117
f 116/116/116 118/118/118 117/117/117
f 117/117/117 118/118/118 119/119/119
f 118/118/118 120/120/120 119/119/119
f 119/119/119 120/120/120 121/121/121
f 120/120/120 122/122/122 121/121/121
f 121/121/121 122/122/122 123/123/123
f 122/122/122 124/124/124 123/123/123
f 123/123/123 124/124/124 125/125/125
f 124/124/124 126/126/126 125/125/125
f 125/125/125 126/126/126 127/127/127
f 126/126/126 128/128/128 127/127/127
f 127/127/127 128/128/128 129/129/129
f 128/128/128 130/130/130 129/129/129
f 129/129/129 130/130/130 131/131/131
f 130/130/130 132/132/132 131/131/131
f 131/131/131 132/132/132 133/133/133
f 132/132/132 134/134/134 133/133/133
f 133/133/133 134/134/134 135/135/135
f 134/134/134 136/136/136 135/135/135
f 135/135/135 136/136/136 137/137/137
f 136/136/136 138/138/138 137/137/137
f 137/137/137 138/138/138 139/139/139
f 138/138/138 140/140/140 139/139/139
f 139/139/139 140/140/140 141/141/141
f 140/140/140 142/142/142 141/141/141
f 141/141/141 142/142/142 143/143/143
f 142/142/142 144/144/144 143/143/143
f 143/143/143 144/144/144 145/145/145
f 144/144/144 146/146/146 145/145/145
f 145/145/145 146/146/146 147/147/147
f 146/146/146 148/148/148 147/147/147
f 147/147/147 148/148/148 149/149/149
f 148/148/148 150/150/150 149/149/149
f 149/149/149 150/150/150 151/151/151
f 150/150/150 152/152/152 151/151/151
f 151/151/151 152/152/152 153/153/153
f 152/152/152 154/154/154 153/153/153
f 153/153/153 154/154/154 155/155/155
f 154/154/154 156/156/156 155/155/155
f 155/155/155 156/156/156 157/157/157
f 156/156/156 158/158/158 157/157/157
f 157/157/157 158/158/158 159/159/159
f 158/158/158 160/160/160 159/159/159
f 159/159/159 160/160/160 161/161/161
f 160/160/160 162/162/162 161/161/161
f 161/161/161 162/162/162 163/163/163
f 162/162/162 164/164/164 163/163/163
