g CB-Letter_0
v -0.9300073 -4.391405 6.895927
v -0.8648803 -4.40875 6.901815
v -0.8013745 -4.423259 6.890042
v -0.7603543 -4.430586 6.861928
v -0.9723904 -4.378338 6.876098
v -0.9877136 -4.370841 6.830894
v -0.7387051 -4.431357 6.805506
v -0.7320404 -4.419817 6.619765
v -0.9899411 -4.358524 6.662886
v -0.7487063 -4.410513 6.537681
v -1.025037 -4.34359 6.595534
v -0.7727124 -4.400432 6.468958
v -0.8573892 -4.37252 6.354823
v -0.8053311 -4.388632 6.406511
v -0.9429559 -4.347572 6.316272
v -1.109069 -4.31453 6.552269
v -1.088853 -4.302262 6.282313
v -1.21987 -4.274652 6.520388
v -1.277559 -4.235186 6.255445
v -1.33184 -4.232758 6.522112
v -1.459195 -4.161654 6.256451
v -1.410888 -4.20513 6.587302
v -1.587996 -4.105848 6.302977
v -1.662055 -4.076601 6.410413
v -1.706935 -4.064428 6.571052
v -1.439948 -4.203723 6.745832
v -1.727323 -4.066301 6.755781
v -1.729493 -4.07741 6.934711
v -1.44289 -4.217792 6.968229
v -1.717345 -4.096448 7.118036
v -1.426065 -4.240428 7.191974
v -1.39345 -4.265256 7.353197
v -1.686524 -4.12606 7.314079
v -1.631564 -4.166122 7.490442
v -1.54783 -4.215197 7.615503
v -1.330184 -4.295967 7.427488
v -1.408815 -4.281824 7.686288
v -1.240897 -4.330991 7.444039
v -1.218789 -4.358045 7.719361
v -1.085389 -4.382248 7.419216
v -1.026686 -4.421099 7.718505
v -0.8877774 -4.457757 7.689306
v -0.8128717 -4.471097 7.615008
v -0.7713888 -4.472193 7.493657
v -1.044133 -4.391728 7.371356
v -0.758251 -4.466214 7.366033
v -1.017396 -4.392793 7.27121
v -0.7655389 -4.458696 7.281398
v -0.9956604 -4.397533 7.247892
v -0.9427249 -4.411646 7.236571
v -0.7974536 -4.449132 7.248139
v -1.23445 -4.207967 7.436707
v -1.085389 -4.382248 7.419216
v -1.083757 -4.253308 7.412326
v -1.240897 -4.330991 7.444039
v -1.320091 -4.180732 7.421182
v -1.330184 -4.295967 7.427488
v -1.381052 -4.158585 7.350457
v -1.39345 -4.265256 7.353197
v -1.401842 -4.145181 7.199897
v -1.426065 -4.240428 7.191974
v -1.428389 -4.128064 7.007635
v -1.44289 -4.217792 6.968229
v -1.427574 -4.103326 6.747162
v -1.439948 -4.203723 6.745832
v -1.398366 -4.097444 6.592201
v -1.410888 -4.20513 6.587302
v -1.322949 -4.114767 6.530996
v -1.33184 -4.232758 6.522112
v -1.214801 -4.147919 6.529882
v -1.21987 -4.274652 6.520388
v -1.106328 -4.184307 6.561436
v -1.109069 -4.31453 6.552269
v -1.025733 -4.213132 6.6031
v -1.025037 -4.34359 6.595534
v -0.9929237 -4.229283 6.666238
v -0.9899411 -4.358524 6.662886
v -0.990611 -4.245992 6.833475
v -0.9877136 -4.370841 6.830894
v -0.9738584 -4.255898 6.883033
v -0.9723904 -4.378338 6.876098
v -0.927581 -4.272223 6.904681
v -0.9300073 -4.391405 6.895927
v -0.8603407 -4.288234 6.910933
v -0.8648803 -4.40875 6.901815
v -0.7938939 -4.294181 6.899314
v -0.8013745 -4.423259 6.890042
v -0.7488264 -4.296331 6.868911
v -0.7603543 -4.430586 6.861928
v -0.7253894 -4.293713 6.808439
v -0.7387051 -4.431357 6.805506
v -0.7183464 -4.278687 6.620029
v -0.7320404 -4.419817 6.619765
v -0.7346615 -4.269009 6.539475
v -0.7487063 -4.410513 6.537681
v -0.7592911 -4.258738 6.468254
v -0.7727124 -4.400432 6.468958
v -0.7935205 -4.252626 6.40205
v -0.8053311 -4.388632 6.406511
v -0.8505831 -4.24211 6.347367
v -0.8573892 -4.37252 6.354823
v -0.9348888 -4.212999 6.308814
v -0.9429559 -4.347572 6.316272
v -1.081249 -4.164504 6.275994
v -1.088853 -4.302262 6.282313
v -1.269875 -4.103227 6.248779
v -1.277559 -4.235186 6.255445
v -1.453493 -4.047637 6.249743
v -1.459195 -4.161654 6.256451
v -1.585411 -4.011737 6.298427
v -1.587996 -4.105848 6.302977
v -1.660951 -3.989554 6.408518
v -1.662055 -4.076601 6.410413
v -1.706119 -3.98346 6.570669
v -1.706935 -4.064428 6.571052
v -1.717802 -3.997398 6.815494
v -1.727323 -4.066301 6.755781
v -1.724814 -4.015887 6.996275
v -1.729493 -4.07741 6.934711
v -1.717345 -4.096448 7.118036
v -1.710241 -4.029473 7.117446
v -1.68584 -4.056584 7.315845
v -1.686524 -4.12606 7.314079
v -1.630655 -4.087922 7.493524
v -1.631564 -4.166122 7.490442
v -1.545768 -4.120116 7.621259
v -1.54783 -4.215197 7.615503
v -1.404572 -4.167225 7.694546
v -1.408815 -4.281824 7.686288
v -1.213152 -4.227643 7.729129
v -1.218789 -4.358045 7.719361
v -1.020275 -4.286624 7.728614
v -1.026686 -4.421099 7.718505
v -0.8799845 -4.32801 7.698622
v -0.8877774 -4.457757 7.689306
v -0.8002238 -4.332448 7.621243
v -0.8128717 -4.471097 7.615008
v -0.7576265 -4.330854 7.496794
v -0.7713888 -4.472193 7.493657
v -0.7444786 -4.32601 7.367155
v -0.758251 -4.466214 7.366033
v -0.7523611 -4.320972 7.278375
v -0.7655389 -4.458696 7.281398
v -0.7889828 -4.31544 7.240633
v -0.7974536 -4.449132 7.248139
v -0.9384008 -4.289739 7.229427
v -0.9427249 -4.411646 7.236571
v -0.994559 -4.273087 7.241414
v -0.9956604 -4.397533 7.247892
v -1.019336 -4.26668 7.268119
v -1.017396 -4.392793 7.27121
v -1.046009 -4.262924 7.36836
v -1.044133 -4.391728 7.371356
v -1.083757 -4.253308 7.412326
v -1.085389 -4.382248 7.419216
vt 0.2783865 0.1272598
vt 0.2874558 0.1144673
vt 0.2937983 0.1007606
vt 0.2961472 0.09154739
vt 0.2701761 0.1333692
vt 0.2615185 0.1318686
vt 0.2936731 0.08311437
vt 0.266927 0.05541615
vt 0.2296769 0.1082302
vt 0.2540485 0.04625347
vt 0.2104044 0.100462
vt 0.2422955 0.03940548
vt 0.2146508 0.03047276
vt 0.2292898 0.0336074
vt 0.1953067 0.03156451
vt 0.1844401 0.0991661
vt 0.1613834 0.0382769
vt 0.1532524 0.1022653
vt 0.1168072 0.04832476
vt 0.1233562 0.1132017
vt 0.07469247 0.05996531
vt 0.1027124 0.1350717
vt 0.04648273 0.07452131
vt 0.0313126 0.09874486
vt 0.02213765 0.1352733
vt 0.09374045 0.1752422
vt 0.01805522 0.1778662
vt 0.01819252 0.2194346
vt 0.09313826 0.2287348
vt 0.0222909 0.2623889
vt 0.09764165 0.2822298
vt 0.1077337 0.3219147
vt 0.02988716 0.3083341
vt 0.04319973 0.3500137
vt 0.06317022 0.3794844
vt 0.1254068 0.3434376
vt 0.09456198 0.3998928
vt 0.1494433 0.3541277
vt 0.1371614 0.4187547
vt 0.1907455 0.3601333
vt 0.1794316 0.4333388
vt 0.2085769 0.4389786
vt 0.2265644 0.4340412
vt 0.2455916 0.4195307
vt 0.2076182 0.3556137
vt 0.261228 0.4009678
vt 0.2286467 0.3440351
vt 0.2667378 0.3876798
vt 0.2341735 0.3442515
vt 0.2439641 0.352015
vt 0.2646258 0.3796559
vt 0.1511923 0.3254386
vt 0.1907455 0.3601333
vt 0.1857895 0.3293481
vt 0.1494433 0.3541277
vt 0.1368845 0.3189286
vt 0.1254068 0.3434376
vt 0.1276443 0.3069731
vt 0.1077337 0.3219147
vt 0.1197356 0.2778549
vt 0.09764165 0.2822298
vt 0.1151051 0.2355512
vt 0.09313826 0.2287348
vt 0.1166277 0.177745
vt 0.09374045 0.1752422
vt 0.1237052 0.1487173
vt 0.1027124 0.1350717
vt 0.1338656 0.138549
vt 0.1233562 0.1132017
vt 0.1533682 0.131729
vt 0.1532524 0.1022653
vt 0.1781975 0.1290005
vt 0.1844401 0.0991661
vt 0.1988397 0.1298083
vt 0.2104044 0.100462
vt 0.2141785 0.1356493
vt 0.2296769 0.1082302
vt 0.2523931 0.1580765
vt 0.2615185 0.1318686
vt 0.2731476 0.1602157
vt 0.2701761 0.1333692
vt 0.2917675 0.1508962
vt 0.2783865 0.1272598
vt 0.30837 0.1333064
vt 0.2874558 0.1144673
vt 0.3210682 0.1131466
vt 0.2937983 0.1007606
vt 0.3262334 0.09268396
vt 0.2961472 0.09154739
vt 0.321338 0.06951299
vt 0.2936731 0.08311437
vt 0.2890646 0.03002104
vt 0.266927 0.05541615
vt 0.2704793 0.01644882
vt 0.2540485 0.04625347
vt 0.2518743 0.006933375
vt 0.2422955 0.03940548
vt 0.2317835 0.001768153
vt 0.2292898 0.0336074
vt 0.209798 0.0005000138
vt 0.2146508 0.03047276
vt 0.1842785 0.001592554
vt 0.1953067 0.03156451
vt 0.1462243 0.009020858
vt 0.1613834 0.0382769
vt 0.0997589 0.02192578
vt 0.1168072 0.04832476
vt 0.05658527 0.04008714
vt 0.07469247 0.05996531
vt 0.02794261 0.06292684
vt 0.04648273 0.07452131
vt 0.01149744 0.09270234
vt 0.0313126 0.09874486
vt 0.003059998 0.1324553
vt 0.02213765 0.1352733
vt 0.0005 0.190662
vt 0.01805522 0.1778662
vt 0.003317817 0.2336583
vt 0.01819252 0.2194346
vt 0.0222909 0.2623889
vt 0.00670113 0.2623064
vt 0.01311642 0.3098679
vt 0.02988716 0.3083341
vt 0.02521151 0.3543175
vt 0.04319973 0.3500137
vt 0.04333219 0.3894199
vt 0.06317022 0.3794844
vt 0.07407629 0.4177008
vt 0.09456198 0.3998928
vt 0.1176298 0.4430376
vt 0.1371614 0.4187547
vt 0.1647937 0.4618935
vt 0.1794316 0.4333388
vt 0.2050012 0.4681565
vt 0.2085769 0.4389786
vt 0.2379602 0.4637723
vt 0.2265644 0.4340412
vt 0.2697763 0.4428434
vt 0.2455916 0.4195307
vt 0.2919307 0.4115929
vt 0.261228 0.4009678
vt 0.2967732 0.3823186
vt 0.2667378 0.3876798
vt 0.289337 0.3621031
vt 0.2646258 0.3796559
vt 0.260256 0.3288839
vt 0.2439641 0.352015
vt 0.2424953 0.3172888
vt 0.2341735 0.3442515
vt 0.2267709 0.3160531
vt 0.2286467 0.3440351
vt 0.1992583 0.3254933
vt 0.2076182 0.3556137
vt 0.1857895 0.3293481
vt 0.1907455 0.3601333
vn -0.2442664 -0.9635013 -0.1095404
vn -0.2439594 -0.9607799 -0.1318547
vn -0.2442658 -0.9634948 -0.1095989
vn -0.2434757 -0.9661481 -0.08530761
vn -0.2434729 -0.9661555 -0.08523253
vn -0.242487 -0.9673768 -0.07336296
vn -0.2423878 -0.9674587 -0.07260682
vn -0.2410984 -0.9683553 -0.06449449
vn -0.2446988 -0.9671921 -0.06827889
vn -0.2449902 -0.9672872 -0.06584325
vn -0.2596151 -0.9634355 -0.06627247
vn -0.2469689 -0.9670373 -0.06201127
vn -0.2591622 -0.9639349 -0.06053443
vn -0.2454167 -0.9678777 -0.0546191
vn -0.2836069 -0.9566473 -0.06628002
vn -0.2882606 -0.955268 -0.06609547
vn -0.313187 -0.9473802 -0.06621568
vn -0.3211091 -0.944703 -0.06652294
vn -0.3532599 -0.9330916 -0.06743498
vn -0.3722682 -0.9258613 -0.06478577
vn -0.3905243 -0.9183609 -0.06406254
vn -0.4159525 -0.9074262 -0.05967627
vn -0.413792 -0.9086854 -0.05538065
vn -0.4266964 -0.9027719 -0.05415725
vn -0.4282937 -0.9017166 -0.05892197
vn -0.4301412 -0.900735 -0.06045765
vn -0.432544 -0.899647 -0.05950704
vn -0.4321787 -0.899674 -0.06171243
vn -0.4320419 -0.8997433 -0.061659
vn -0.4292277 -0.9010895 -0.06165405
vn -0.4277578 -0.9017783 -0.06179903
vn -0.4128598 -0.9083596 -0.06655498
vn -0.4233464 -0.9035189 -0.06656938
vn -0.4195637 -0.9046658 -0.07447134
vn -0.4062982 -0.9111576 -0.06865554
vn -0.3795325 -0.9230725 -0.06238712
vn -0.3776325 -0.9238631 -0.06221399
vn -0.3396151 -0.9385015 -0.06226093
vn -0.3353545 -0.9400098 -0.06260161
vn -0.2846304 -0.9562458 -0.06767152
vn -0.2905022 -0.9544265 -0.06840096
vn -0.2604977 -0.9622835 -0.07843094
vn -0.2570744 -0.9634438 -0.07542357
vn -0.2569056 -0.9641702 -0.06614697
vn -0.2565603 -0.9642682 -0.06605822
vn -0.2518807 -0.9657367 -0.06251977
vn -0.2517608 -0.9657913 -0.06215934
vn -0.2508956 -0.9668069 -0.04833172
vn -0.2507094 -0.9665999 -0.05319195
vn -0.2518616 -0.9675564 -0.02001139
vn -0.2518616 -0.9675564 -0.02001139
vn 0.01714609 -0.06076344 -0.998005
vn -0.5372836 -0.03836358 -0.8425286
vn -0.4596564 -0.04160002 -0.887122
vn -0.04030506 -0.05773865 -0.9975178
vn 0.5162687 -0.09213605 -0.8514562
vn 0.4159448 -0.08609265 -0.9053054
vn 0.8952056 -0.1446573 -0.4215225
vn 0.8695769 -0.1370522 -0.4743972
vn 0.9729952 -0.172563 -0.1533049
vn 0.9730575 -0.1725855 -0.1528838
vn 0.9843003 -0.1606748 -0.0730512
vn 0.986954 -0.153354 -0.04903219
vn 0.9870929 -0.1309021 0.09226322
vn 0.9875063 -0.1313944 0.08698811
vn 0.854723 -0.1221677 0.5045033
vn 0.8342291 -0.121231 0.5379264
vn 0.3581455 -0.09738582 0.928573
vn 0.2609499 -0.09238146 0.9609219
vn -0.1328946 -0.06902267 0.9887239
vn -0.1835414 -0.06652334 0.9807585
vn -0.3715037 -0.05735832 0.926658
vn -0.4016417 -0.0560826 0.9140781
vn -0.6818933 -0.0457767 0.7300178
vn -0.7432965 -0.04268581 0.6675988
vn -0.9652972 -0.02869409 0.2595728
vn -0.9745504 -0.02799637 0.2224133
vn -0.987918 -0.02622924 0.1527417
vn -0.9842176 -0.02663075 0.1749472
vn -0.7906297 -0.04404891 0.6107081
vn -0.7205575 -0.04790984 0.6917382
vn -0.3019128 -0.06352238 0.9512169
vn -0.2535025 -0.06561808 0.9651066
vn 0.01741701 -0.07590126 0.9969632
vn 0.04618067 -0.07690255 0.9959686
vn 0.3620512 -0.08750801 0.9280416
vn 0.3868397 -0.08817242 0.9179218
vn 0.7787533 -0.09911194 0.6194515
vn 0.7857725 -0.099232 0.6105036
vn 0.9768563 -0.09867496 0.1897761
vn 0.9751397 -0.0987074 0.1983922
vn 0.9906691 -0.09598806 -0.09675258
vn 0.9918022 -0.09613131 -0.08418574
vn 0.9562551 -0.09186892 -0.2777342
vn 0.9582918 -0.09211695 -0.2705385
vn 0.9086097 -0.08925699 -0.407997
vn 0.9122278 -0.08931721 -0.3998286
vn 0.7873422 -0.08530023 -0.6105867
vn 0.8026716 -0.08595278 -0.5901954
vn 0.5288147 -0.07772458 -0.8451709
vn 0.5690872 -0.07863142 -0.818509
vn 0.2833031 -0.06664262 -0.9567121
vn 0.3140429 -0.06867456 -0.9469217
vn 0.1568597 -0.05742298 -0.9859502
vn 0.1706455 -0.058532 -0.9835925
vn 0.03802565 -0.05383746 -0.9978254
vn 0.06439626 -0.05414448 -0.9964545
vn -0.2149105 -0.04418662 -0.9756337
vn -0.1570688 -0.04706231 -0.9864656
vn -0.6427707 -0.01904564 -0.7658218
vn -0.5789934 -0.02349442 -0.8149936
vn -0.9094721 0.002303108 -0.4157585
vn -0.9006875 0.001627364 -0.4344644
vn -0.9837472 0.05172099 -0.1719486
vn -0.983678 0.05151585 -0.1724057
vn -0.9929054 0.1145784 -0.03179126
vn -0.9930855 0.1039787 -0.05449393
vn -0.9957117 0.06876211 0.06188628
vn -0.9947228 0.1015295 0.01477875
vn -0.9912646 0.05155599 0.1213936
vn -0.9917897 0.05096561 0.1172844
vn -0.9758433 0.03010368 0.2163881
vn -0.9729334 0.02529219 0.2296976
vn -0.9090952 -0.006027825 0.4165447
vn -0.8947797 -0.007719585 0.4464411
vn -0.6963792 -0.02817421 0.7171207
vn -0.637215 -0.03315393 0.7699726
vn -0.3584173 -0.05347496 0.9320287
vn -0.3077975 -0.05702312 0.9497415
vn -0.122687 -0.06847058 0.9900807
vn -0.0915916 -0.07020239 0.993319
vn 0.06655927 -0.07768849 0.9947534
vn 0.09913596 -0.0789639 0.9919358
vn 0.4345694 -0.09129824 0.8959988
vn 0.4863128 -0.0925286 0.8688719
vn 0.8394646 -0.09961909 0.5342053
vn 0.8444636 -0.09972439 0.5262475
vn 0.9727956 -0.09960879 0.2091575
vn 0.9721392 -0.09962572 0.2121793
vn 0.9951906 -0.09795437 -0.0007015354
vn 0.9951714 -0.0980051 0.0053787
vn 0.8955837 -0.09545588 -0.4345317
vn 0.913597 -0.09626886 -0.3950603
vn 0.3895958 -0.07612354 -0.9178346
vn 0.4553016 -0.07845884 -0.8868735
vn -0.09639175 -0.05453742 -0.9938483
vn -0.06009743 -0.05597404 -0.9966218
vn -0.535671 -0.03902677 -0.8435244
vn -0.4730186 -0.04156372 -0.8800715
vn -0.8834298 -0.02495576 -0.4678985
vn -0.8714876 -0.0253587 -0.4897614
vn -0.879612 -0.02382726 -0.4750946
vn -0.8898813 -0.02357856 -0.4555825
vn -0.4596564 -0.04160002 -0.887122
vn -0.5372836 -0.03836358 -0.8425286
g CB-Letter_0_0
f 3/3/3 2/2/2 1/1/1
f 4/4/4 3/3/3 1/1/1
f 5/5/5 4/4/4 1/1/1
f 4/4/4 5/5/5 6/6/6
f 7/7/7 4/4/4 6/6/6
f 8/8/8 7/7/7 6/6/6
f 9/9/9 8/8/8 6/6/6
f 10/10/10 8/8/8 9/9/9
f 10/10/10 9/9/9 11/11/11
f 12/12/12 10/10/10 11/11/11
f 12/12/12 11/11/11 13/13/13
f 14/14/14 12/12/12 13/13/13
f 15/15/15 13/13/13 11/11/11
f 16/16/16 15/15/15 11/11/11
f 17/17/17 15/15/15 16/16/16
f 18/18/18 17/17/17 16/16/16
f 19/19/19 17/17/17 18/18/18
f 20/20/20 19/19/19 18/18/18
f 21/21/21 19/19/19 20/20/20
f 21/21/21 20/20/20 22/22/22
f 23/23/23 21/21/21 22/22/22
f 24/24/24 23/23/23 22/22/22
f 25/25/25 24/24/24 22/22/22
f 26/26/26 25/25/25 22/22/22
f 27/27/27 25/25/25 26/26/26
f 28/28/28 27/27/27 26/26/26
f 29/29/29 28/28/28 26/26/26
f 30/30/30 28/28/28 29/29/29
f 31/31/31 30/30/30 29/29/29
f 30/30/30 31/31/31 32/32/32
f 33/33/33 30/30/30 32/32/32
f 34/34/34 33/33/33 32/32/32
f 35/35/35 34/34/34 32/32/32
f 35/35/35 32/32/32 36/36/36
f 37/37/37 35/35/35 36/36/36
f 37/37/37 36/36/36 38/38/38
f 39/39/39 37/37/37 38/38/38
f 39/39/39 38/38/38 40/40/40
f 41/41/41 39/39/39 40/40/40
f 42/42/42 41/41/41 40/40/40
f 43/43/43 42/42/42 40/40/40
f 44/44/44 43/43/43 40/40/40
f 45/45/45 44/44/44 40/40/40
f 46/46/46 44/44/44 45/45/45
f 47/47/47 46/46/46 45/45/45
f 48/48/48 46/46/46 47/47/47
f 49/49/49 48/48/48 47/47/47
f 48/48/48 49/49/49 50/50/50
f 51/51/51 48/48/48 50/50/50
f 54/54/54 53/53/53 52/52/52
f 53/53/53 55/55/55 52/52/52
f 52/52/52 55/55/55 56/56/56
f 55/55/55 57/57/57 56/56/56
f 56/56/56 57/57/57 58/58/58
f 57/57/57 59/59/59 58/58/58
f 58/58/58 59/59/59 60/60/60
f 59/59/59 61/61/61 60/60/60
f 60/60/60 61/61/61 62/62/62
f 61/61/61 63/63/63 62/62/62
f 62/62/62 63/63/63 64/64/64
f 63/63/63 65/65/65 64/64/64
f 64/64/64 65/65/65 66/66/66
f 65/65/65 67/67/67 66/66/66
f 66/66/66 67/67/67 68/68/68
f 67/67/67 69/69/69 68/68/68
f 68/68/68 69/69/69 70/70/70
f 69/69/69 71/71/71 70/70/70
f 70/70/70 71/71/71 72/72/72
f 71/71/71 73/73/73 72/72/72
f 72/72/72 73/73/73 74/74/74
f 73/73/73 75/75/75 74/74/74
f 74/74/74 75/75/75 76/76/76
f 75/75/75 77/77/77 76/76/76
f 76/76/76 77/77/77 78/78/78
f 77/77/77 79/79/79 78/78/78
f 78/78/78 79/79/79 80/80/80
f 79/79/79 81/81/81 80/80/80
f 80/80/80 81/81/81 82/82/82
f 81/81/81 83/83/83 82/82/82
f 82/82/82 83/83/83 84/84/84
f 83/83/83 85/85/85 84/84/84
f 84/84/84 85/85/85 86/86/86
f 85/85/85 87/87/87 86/86/86
f 86/86/86 87/87/87 88/88/88
f 87/87/87 89/89/89 88/88/88
f 88/88/88 89/89/89 90/90/90
f 89/89/89 91/91/91 90/90/90
f 90/90/90 91/91/91 92/92/92
f 91/91/91 93/93/93 92/92/92
f 92/92/92 93/93/93 94/94/94
f 93/93/93 95/95/95 94/94/94
f 94/94/94 95/95/95 96/96/96
f 95/95/95 97/97/97 96/96/96
f 96/96/96 97/97/97 98/98/98
f 97/97/97 99/99/99 98/98/98
f 98/98/98 99/99/99 100/100/100
f 99/99/99 101/101/101 100/100/100
f 100/100/100 101/101/101 102/102/102
f 101/101/101 103/103/103 102/102/102
f 102/102/102 103/103/103 104/104/104
f 103/103/103 105/105/105 104/104/104
f 104/104/104 105/105/105 106/106/106
f 105/105/105 107/107/107 106/106/106
f 106/106/106 107/107/107 108/108/108
f 107/107/107 109/109/109 108/108/108
f 108/108/108 109/109/109 110/110/110
f 109/109/109 111/111/111 110/110/110
f 110/110/110 111/111/111 112/112/112
f 111/111/111 113/113/113 112/112/112
f 112/112/112 113/113/113 114/114/114
f 113/113/113 115/115/115 114/114/114
f 114/114/114 115/115/115 116/116/116
f 115/115/115 117/117/117 116/116/116
f 116/116/116 117/117/117 118/118/118
f 117/117/117 119/119/119 118/118/118
f 119/119/119 120/120/120 118/118/118
f 120/120/120 121/121/121 118/118/118
f 121/121/121 120/120/120 122/122/122
f 120/120/120 123/123/123 122/122/122
f 122/122/122 123/123/123 124/124/124
f 123/123/123 125/125/125 124/124/124
f 124/124/124 125/125/125 126/126/126
f 125/125/125 127/127/127 126/126/126
f 126/126/126 127/127/127 128/128/128
f 127/127/127 129/129/129 128/128/128
f 128/128/128 129/129/129 130/130/130
f 129/129/129 131/131/131 130/130/130
f 130/130/130 131/131/131 132/132/132
f 131/131/131 133/133/133 132/132/132
f 132/132/132 133/133/133 134/134/134
f 133/133/133 135/135/135 134/134/134
f 134/134/134 135/135/135 136/136/136
f 135/135/135 137/137/137 136/136/136
f 136/136/136 137/137/137 138/138/138
f 137/137/137 139/139/139 138/138/138
f 138/138/138 139/139/139 140/140/140
f 139/139/139 141/141/141 140/140/140
f 140/140/140 141/141/141 142/142/142
f 141/141/141 143/143/143 142/142/142
f 142/142/142 143/143/143 144/144/144
f 143/143/143 145/145/145 144/144/144
f 144/144/144 145/145/145 146/146/146
f 145/145/145 147/147/147 146/146/146
f 146/146/146 147/147/147 148/148/148
f 147/147/147 149/149/149 148/148/148
f 148/148/148 149/149/149 150/150/150
f 149/149/149 151/151/151 150/150/150
f 150/150/150 151/151/151 152/152/152
f 151/151/151 153/153/153 152/152/152
f 152/152/152 153/153/153 154/154/154
f 153/153/153 155/155/155 154/154/154
