g CB-Letter_2
v 0.6662704 -4.455278 7.549816
v 0.4215913 -4.486187 7.536559
v 0.656335 -4.457093 7.552278
v 0.4063916 -4.487261 7.531878
v 0.6707376 -4.454125 7.544656
v 0.3966582 -4.487415 7.522676
v 0.671866 -4.453087 7.534123
v 0.3908145 -4.486692 7.507211
v 0.593653 -4.43609 7.173919
v 0.3183609 -4.45507 7.044492
v 0.5807248 -4.425947 7.025625
v 0.3151028 -4.439891 6.853853
v 0.609665 -4.413215 6.919857
v 0.3572345 -4.425274 6.711958
v 0.6665958 -4.398667 6.84998
v 0.4294705 -4.410137 6.60514
v 0.5138818 -4.394803 6.531432
v 0.7301567 -4.384913 6.815801
v 0.6071091 -4.378561 6.486358
v 0.7110771 -4.36071 6.474031
v 0.8181978 -4.342803 6.506099
v 0.7982344 -4.372013 6.817262
v 0.9375451 -4.321778 6.575701
v 1.058387 -4.300438 6.697229
v 0.8686791 -4.360384 6.857006
v 1.147154 -4.290414 6.890331
v 0.9225283 -4.354743 6.939353
v 0.9507491 -4.358793 7.073291
v 1.182891 -4.29368 7.066694
v 0.9780217 -4.37981 7.417076
v 1.186906 -4.324847 7.467933
v 0.9832097 -4.379832 7.433579
v 1.184166 -4.326577 7.478702
v 0.9929464 -4.378242 7.444623
v 1.179054 -4.328544 7.483272
v 1.008446 -4.374793 7.451546
v 1.169123 -4.331714 7.484377
v 0.7943186 -4.326901 6.82393
v 0.7301567 -4.384913 6.815801
v 0.7293631 -4.34037 6.822364
v 0.7982344 -4.372013 6.817262
v 0.8612164 -4.309849 6.862968
v 0.8686791 -4.360384 6.857006
v 0.9125647 -4.300252 6.943227
v 0.9225283 -4.354743 6.939353
v 0.9320014 -4.301305 7.072412
v 0.9507491 -4.358793 7.073291
v 0.9653612 -4.314298 7.420023
v 0.9780217 -4.37981 7.417076
v 0.9712543 -4.313726 7.439279
v 0.9832097 -4.379832 7.433579
v 0.9832903 -4.311018 7.453224
v 0.9929464 -4.378242 7.444623
v 1.001192 -4.306227 7.461416
v 1.008446 -4.374793 7.451546
v 1.163063 -4.260447 7.495039
v 1.169123 -4.331714 7.484377
v 1.176906 -4.25626 7.493452
v 1.179054 -4.328544 7.483272
v 1.185901 -4.253108 7.485303
v 1.184166 -4.326577 7.478702
v 1.189557 -4.251144 7.470763
v 1.186906 -4.324847 7.467933
v 1.185254 -4.227899 7.06737
v 1.182891 -4.29368 7.066694
v 1.149299 -4.22658 6.889335
v 1.147154 -4.290414 6.890331
v 1.059953 -4.239433 6.694251
v 1.058387 -4.300438 6.697229
v 0.9380252 -4.266933 6.571538
v 0.9375451 -4.321778 6.575701
v 0.8178305 -4.29761 6.501964
v 0.8181978 -4.342803 6.506099
v 0.7093778 -4.316069 6.469417
v 0.7110771 -4.36071 6.474031
v 0.6032499 -4.327844 6.481365
v 0.6071091 -4.378561 6.486358
v 0.5083414 -4.340984 6.526996
v 0.5138818 -4.394803 6.531432
v 0.4228353 -4.355535 6.601814
v 0.4294705 -4.410137 6.60514
v 0.3498957 -4.371326 6.710242
v 0.3572345 -4.425274 6.711958
v 0.3074287 -4.386616 6.8541
v 0.3151028 -4.439891 6.853853
v 0.3096615 -4.396817 6.992256
v 0.3183609 -4.45507 7.044492
v 0.3806167 -4.417119 7.510924
v 0.3908145 -4.486692 7.507211
v 0.3873752 -4.417395 7.529177
v 0.3966582 -4.487415 7.522676
v 0.399999 -4.416742 7.541293
v 0.4063916 -4.487261 7.531878
v 0.418121 -4.415185 7.546953
v 0.4215913 -4.486187 7.536559
v 0.6542792 -4.391797 7.561959
v 0.656335 -4.457093 7.552278
v 0.6678321 -4.39022 7.55845
v 0.6662704 -4.455278 7.549816
v 0.6754543 -4.388959 7.54946
v 0.6707376 -4.454125 7.544656
v 0.6769332 -4.388045 7.535189
v 0.671866 -4.453087 7.534123
v 0.6135798 -4.372853 7.17463
v 0.593653 -4.43609 7.173919
v 0.5854583 -4.370346 7.027514
v 0.5807248 -4.425947 7.025625
v 0.6134442 -4.360005 6.924105
v 0.609665 -4.413215 6.919857
v 0.6683813 -4.349126 6.855884
v 0.6665958 -4.398667 6.84998
v 0.7293631 -4.34037 6.822364
v 0.7301567 -4.384913 6.815801
vt 0.4825574 0.9770792
vt 0.4242263 0.9704177
vt 0.4799187 0.9777178
vt 0.420753 0.9695234
vt 0.4828372 0.97614
vt 0.4186229 0.9686362
vt 0.4825469 0.9746655
vt 0.4172463 0.9672275
vt 0.4714382 0.8932607
vt 0.408158 0.8578802
vt 0.4702947 0.8577407
vt 0.4093985 0.813598
vt 0.4778497 0.8321225
vt 0.4194465 0.7811409
vt 0.4915016 0.8147994
vt 0.435733 0.756543
vt 0.4547977 0.7394138
vt 0.5067506 0.8057718
vt 0.4760357 0.7287521
vt 0.4998962 0.7248242
vt 0.525319 0.7307464
vt 0.523169 0.8039855
vt 0.5545686 0.7451681
vt 0.5849295 0.7717534
vt 0.5408478 0.8123813
vt 0.6088103 0.8156046
vt 0.554669 0.8314249
vt 0.5627434 0.8625559
vt 0.6196079 0.8564076
vt 0.5727554 0.9422365
vt 0.6251264 0.9446822
vt 0.5738178 0.9436715
vt 0.6249006 0.9469985
vt 0.5759284 0.9446656
vt 0.6233262 0.9483588
vt 0.5795618 0.9455702
vt 0.6194991 0.9496371
vt 0.5224354 0.8139492
vt 0.5067506 0.8057718
vt 0.5109119 0.8148935
vt 0.523169 0.8039855
vt 0.5340683 0.8216293
vt 0.5408478 0.8123813
vt 0.5432294 0.8371614
vt 0.554669 0.8314249
vt 0.5486326 0.8645607
vt 0.5627434 0.8625559
vt 0.5587294 0.9478959
vt 0.5727554 0.9422365
vt 0.5634449 0.95498
vt 0.5738178 0.9436715
vt 0.5703828 0.95948
vt 0.5759284 0.9446656
vt 0.5788278 0.9618695
vt 0.5795618 0.9455702
vt 0.6234316 0.9660003
vt 0.6194991 0.9496371
vt 0.6309071 0.9641591
vt 0.6233262 0.9483588
vt 0.6368767 0.9598322
vt 0.6249006 0.9469985
vt 0.6402516 0.9526371
vt 0.6251264 0.9446822
vt 0.6349216 0.8536102
vt 0.6196079 0.8564076
vt 0.6227789 0.810096
vt 0.6088103 0.8156046
vt 0.5965098 0.7636323
vt 0.5849295 0.7717534
vt 0.5628546 0.7353649
vt 0.5545686 0.7451681
vt 0.5300334 0.7211748
vt 0.525319 0.7307464
vt 0.5014008 0.7145318
vt 0.4998962 0.7248242
vt 0.4737866 0.7172077
vt 0.4760357 0.7287521
vt 0.4489057 0.7282176
vt 0.4547977 0.7394138
vt 0.4268261 0.7472058
vt 0.435733 0.756543
vt 0.408438 0.7747563
vt 0.4194465 0.7811409
vt 0.3971695 0.8105865
vt 0.4093985 0.813598
vt 0.3950965 0.8448122
vt 0.408158 0.8578802
vt 0.4018964 0.9716963
vt 0.4172463 0.9672275
vt 0.4064735 0.9793168
vt 0.4186229 0.9686362
vt 0.4132584 0.9842477
vt 0.420753 0.9695234
vt 0.4214778 0.9870205
vt 0.4242263 0.9704177
vt 0.4818039 0.9929135
vt 0.4799187 0.9777178
vt 0.4891749 0.991361
vt 0.4825574 0.9770792
vt 0.4947775 0.9873226
vt 0.4828372 0.97614
vt 0.4976393 0.9805824
vt 0.4825469 0.9746655
vt 0.4871303 0.8925424
vt 0.4714382 0.8932607
vt 0.4833544 0.8587812
vt 0.4702947 0.8577407
vt 0.4893534 0.8368457
vt 0.4778497 0.8321225
vt 0.4999898 0.8224962
vt 0.4915016 0.8147994
vt 0.5109119 0.8148935
vt 0.5067506 0.8057718
vn 0.1296392 -0.9835095 -0.1261059
vn 0.1334292 -0.970859 -0.1990716
vn 0.1334292 -0.970859 -0.1990716
vn 0.1294702 -0.9839091 -0.1231275
vn 0.1277322 -0.9868153 -0.09939843
vn 0.1274979 -0.9871308 -0.09652469
vn 0.1220153 -0.9888527 -0.08533742
vn 0.120188 -0.9892217 -0.08363782
vn 0.1122474 -0.990494 -0.07951222
vn 0.1081719 -0.9909663 -0.07927659
vn 0.1054586 -0.9912885 -0.07890127
vn 0.1063273 -0.9912055 -0.07877896
vn 0.1130082 -0.9904839 -0.07855516
vn 0.1148345 -0.9902757 -0.07852987
vn 0.1291543 -0.9885415 -0.07813355
vn 0.1291826 -0.9885379 -0.07813253
vn 0.1376612 -0.9876822 -0.07438615
vn 0.1684939 -0.9826349 -0.07770727
vn 0.1482877 -0.9861415 -0.07440128
vn 0.1723038 -0.9818587 -0.07915159
vn 0.1962024 -0.9773659 -0.07912362
vn 0.2169836 -0.9730924 -0.07751979
vn 0.2179826 -0.9728751 -0.07744399
vn 0.241024 -0.9675472 -0.07589395
vn 0.2407721 -0.9676088 -0.07590763
vn 0.2577242 -0.9632112 -0.07617416
vn 0.2567349 -0.963486 -0.07603956
vn 0.2660108 -0.9608353 -0.07767806
vn 0.2663177 -0.9607435 -0.07776047
vn 0.2706335 -0.9592477 -0.08124912
vn 0.2713016 -0.9589494 -0.08253088
vn 0.2740054 -0.9574605 -0.09050204
vn 0.2744641 -0.9571018 -0.09287304
vn 0.2776217 -0.9543809 -0.1099248
vn 0.2780381 -0.9539715 -0.1123977
vn 0.286638 -0.9435618 -0.1659208
vn 0.2866379 -0.9435618 -0.1659208
vn -0.2603969 -0.1639243 0.9514842
vn 0.2789041 -0.1357363 0.9506778
vn 0.239487 -0.137879 0.9610594
vn -0.2167683 -0.1616877 0.9627401
vn -0.6746418 -0.184368 0.7147495
vn -0.6508659 -0.1832699 0.73674
vn -0.9063286 -0.2234735 0.3586479
vn -0.9037979 -0.2223176 0.3656834
vn -0.9607635 -0.2487926 0.1226197
vn -0.9614486 -0.2487279 0.1172654
vn -0.957372 -0.2225498 0.1841483
vn -0.957164 -0.2221799 0.1856694
vn -0.8446 -0.1957943 0.4983126
vn -0.8524065 -0.1960144 0.484749
vn -0.5432643 -0.1828702 0.8194037
vn -0.5739067 -0.1844604 0.7978756
vn -0.2523306 -0.1644885 0.953558
vn -0.2775232 -0.1659388 0.9462796
vn 0.01770485 -0.1459397 0.989135
vn -0.02279869 -0.1491634 0.9885496
vn 0.4720252 -0.109058 0.8748134
vn 0.4007733 -0.1160091 0.9088028
vn 0.8747751 -0.0638523 0.4803033
vn 0.8477323 -0.06736977 0.5261286
vn 0.9932451 -0.04005487 0.1089023
vn 0.9919062 -0.04044668 0.1203582
vn 0.9936085 -0.03522866 -0.107244
vn 0.9939365 -0.03524586 -0.104154
vn 0.9509308 -0.037595 -0.3071111
vn 0.950204 -0.03765353 -0.3093456
vn 0.8291247 -0.04822448 -0.55698
vn 0.8199733 -0.04894961 -0.570305
vn 0.6279656 -0.0633444 -0.775659
vn 0.6119501 -0.06461713 -0.7882523
vn 0.4185524 -0.07850021 -0.9047937
vn 0.4012021 -0.07965091 -0.9125199
vn 0.1134907 -0.09698179 -0.9887944
vn 0.08701184 -0.09829281 -0.9913463
vn -0.2539201 -0.1133418 -0.9605615
vn -0.2731462 -0.1141413 -0.9551769
vn -0.5266981 -0.1233281 -0.8410585
vn -0.5403987 -0.1237797 -0.8322547
vn -0.7277429 -0.1295136 -0.6735106
vn -0.737743 -0.1297957 -0.6624866
vn -0.8862662 -0.1351671 -0.4430147
vn -0.8930863 -0.1354478 -0.4290116
vn -0.9782202 -0.1411073 -0.1522299
vn -0.9800209 -0.1413644 -0.1399105
vn -0.9906778 -0.1304855 0.0391262
vn -0.9886913 -0.1052472 0.1068288
vn -0.962465 -0.1242066 0.2413172
vn -0.9614955 -0.1252132 0.2446385
vn -0.8226134 -0.1597842 0.5456887
vn -0.8229502 -0.1597809 0.5451817
vn -0.4869468 -0.1587417 0.8588853
vn -0.4970503 -0.1588647 0.8530551
vn -0.1610137 -0.150803 0.9753631
vn -0.1716731 -0.1510209 0.9735097
vn 0.1144857 -0.1418349 0.9832477
vn 0.09796542 -0.1425831 0.9849228
vn 0.5484943 -0.1228715 0.8270772
vn 0.5176495 -0.1247276 0.8464527
vn 0.9221836 -0.0944917 0.3750317
vn 0.9114807 -0.09557955 0.4000846
vn 0.9894361 -0.1347343 -0.053505
vn 0.9902244 -0.1318586 -0.04548407
vn 0.9665051 -0.1913828 -0.1709983
vn 0.96659 -0.1915447 -0.1703366
vn 0.9875129 -0.1460698 0.05900878
vn 0.9876653 -0.149343 0.0470522
vn 0.887126 -0.09868427 0.4508535
vn 0.8972488 -0.09792479 0.430529
vn 0.6413453 -0.1137987 0.7587661
vn 0.6605686 -0.1126999 0.7422587
vn 0.239487 -0.137879 0.9610594
vn 0.2789041 -0.1357363 0.9506778
g CB-Letter_2_0
f 3/3/3 2/2/2 1/1/1
f 2/2/2 4/4/4 1/1/1
f 1/1/1 4/4/4 5/5/5
f 4/4/4 6/6/6 5/5/5
f 7/7/7 5/5/5 6/6/6
f 8/8/8 7/7/7 6/6/6
f 9/9/9 7/7/7 8/8/8
f 10/10/10 9/9/9 8/8/8
f 11/11/11 9/9/9 10/10/10
f 12/12/12 11/11/11 10/10/10
f 13/13/13 11/11/11 12/12/12
f 14/14/14 13/13/13 12/12/12
f 15/15/15 13/13/13 14/14/14
f 16/16/16 15/15/15 14/14/14
f 15/15/15 16/16/16 17/17/17
f 18/18/18 15/15/15 17/17/17
f 19/19/19 18/18/18 17/17/17
f 20/20/20 18/18/18 19/19/19
f 21/21/21 18/18/18 20/20/20
f 22/22/22 18/18/18 21/21/21
f 23/23/23 22/22/22 21/21/21
f 22/22/22 23/23/23 24/24/24
f 25/25/25 22/22/22 24/24/24
f 25/25/25 24/24/24 26/26/26
f 27/27/27 25/25/25 26/26/26
f 28/28/28 27/27/27 26/26/26
f 29/29/29 28/28/28 26/26/26
f 30/30/30 28/28/28 29/29/29
f 31/31/31 30/30/30 29/29/29
f 32/32/32 30/30/30 31/31/31
f 33/33/33 32/32/32 31/31/31
f 34/34/34 32/32/32 33/33/33
f 35/35/35 34/34/34 33/33/33
f 36/36/36 34/34/34 35/35/35
f 37/37/37 36/36/36 35/35/35
f 40/40/40 39/39/39 38/38/38
f 39/39/39 41/41/41 38/38/38
f 38/38/38 41/41/41 42/42/42
f 41/41/41 43/43/43 42/42/42
f 42/42/42 43/43/43 44/44/44
f 43/43/43 45/45/45 44/44/44
f 44/44/44 45/45/45 46/46/46
f 45/45/45 47/47/47 46/46/46
f 46/46/46 47/47/47 48/48/48
f 47/47/47 49/49/49 48/48/48
f 48/48/48 49/49/49 50/50/50
f 49/49/49 51/51/51 50/50/50
f 50/50/50 51/51/51 52/52/52
f 51/51/51 53/53/53 52/52/52
f 52/52/52 53/53/53 54/54/54
f 53/53/53 55/55/55 54/54/54
f 54/54/54 55/55/55 56/56/56
f 55/55/55 57/57/57 56/56/56
f 56/56/56 57/57/57 58/58/58
f 57/57/57 59/59/59 58/58/58
f 58/58/58 59/59/59 60/60/60
f 59/59/59 61/61/61 60/60/60
f 60/60/60 61/61/61 62/62/62
f 61/61/61 63/63/63 62/62/62
f 62/62/62 63/63/63 64/64/64
f 63/63/63 65/65/65 64/64/64
f 64/64/64 65/65/65 66/66/66
f 65/65/65 67/67/67 66/66/66
f 66/66/66 67/67/67 68/68/68
f 67/67/67 69/69/69 68/68/68
f 68/68/68 69/69/69 70/70/70
f 69/69/69 71/71/71 70/70/70
f 70/70/70 71/71/71 72/72/72
f 71/71/71 73/73/73 72/72/72
f 72/72/72 73/73/73 74/74/74
f 73/73/73 75/75/75 74/74/74
f 74/74/74 75/75/75 76/76/76
f 75/75/75 77/77/77 76/76/76
f 76/76/76 77/77/77 78/78/78
f 77/77/77 79/79/79 78/78/78
f 78/78/78 79/79/79 80/80/80
f 79/79/79 81/81/81 80/80/80
f 80/80/80 81/81/81 82/82/82
f 81/81/81 83/83/83 82/82/82
f 82/82/82 83/83/83 84/84/84
f 83/83/83 85/85/85 84/84/84
f 84/84/84 85/85/85 86/86/86
f 85/85/85 87/87/87 86/86/86
f 86/86/86 87/87/87 88/88/88
f 87/87/87 89/89/89 88/88/88
f 88/88/88 89/89/89 90/90/90
f 89/89/89 91/91/91 90/90/90
f 90/90/90 91/91/91 92/92/92
f 91/91/91 93/93/93 92/92/92
f 92/92/92 93/93/93 94/94/94
f 93/93/93 95/95/95 94/94/94
f 94/94/94 95/95/95 96/96/96
f 95/95/95 97/97/97 96/96/96
f 96/96/96 97/97/97 98/98/98
f 97/97/97 99/99/99 98/98/98
f 98/98/98 99/99/99 100/100/100
f 99/99/99 101/101/101 100/100/100
f 100/100/100 101/101/101 102/102/102
f 101/101/101 103/103/103 102/102/102
f 102/102/102 103/103/103 104/104/104
f 103/103/103 105/105/105 104/104/104
f 104/104/104 105/105/105 106/106/106
f 105/105/105 107/107/107 106/106/106
f 106/106/106 107/107/107 108/108/108
f 107/107/107 109/109/109 108/108/108
f 108/108/108 109/109/109 110/110/110
f 109/109/109 111/111/111 110/110/110
f 110/110/110 111/111/111 112/112/112
f 111/111/111 113/113/113 112/112/112
