g CB-Letter_3
v 1.700112 -4.009632 6.405265
v 1.710685 -4.036877 6.403757
v 1.703448 -4.007319 6.401257
v 1.703448 -4.007319 6.401257
v 1.710685 -4.036877 6.403757
v 1.708275 -4.00621 6.401215
v 1.708275 -4.00621 6.401215
v 1.710685 -4.036877 6.403757
v 1.711943 -4.004365 6.405401
v 1.351773 -4.154559 6.359628
v 1.500472 -4.108037 6.344559
v 1.49443 -4.10993 6.343539
v 1.345005 -4.156672 6.362257
v 1.503016 -4.107371 6.346702
v 1.342041 -4.157783 6.365812
v 1.505246 -4.107105 6.352645
v 1.340553 -4.158772 6.37309
v 1.544215 -4.124156 6.736505
v 1.356058 -4.182846 6.734051
v 1.554317 -4.122023 6.75353
v 1.375405 -4.212816 7.185248
v 1.661692 -4.111898 7.121103
v 1.57705 -4.114388 6.757219
v 1.564041 -4.174128 7.461264
v 1.724187 -4.079745 7.021474
v 1.559439 -4.176383 7.469564
v 1.590861 -4.108465 6.744074
v 1.710685 -4.036877 6.403757
v 1.55355 -4.17878 7.474061
v 1.544311 -4.182134 7.476213
v 1.932562 -3.993756 7.082331
v 1.788617 -4.0599 7.106455
v 1.278305 -4.263028 7.48095
v 1.290433 -4.237195 7.194256
v 1.282994 -4.239381 7.196977
v 1.272711 -4.264377 7.479462
v 1.881185 -4.043637 7.418342
v 1.279361 -4.240653 7.200969
v 1.270751 -4.264729 7.477444
v 1.269349 -4.264644 7.471728
v 1.277249 -4.241821 7.208749
v 1.945137 -3.988801 7.095274
v 1.965904 -3.978541 7.09149
v 2.150789 -3.905494 7.386337
v 2.14924 -3.906936 7.393907
v 1.8853 -4.042314 7.425409
v 2.146271 -3.908871 7.397714
v 1.890025 -4.04041 7.428666
v 2.139824 -3.912631 7.400395
v 1.897843 -4.036902 7.429681
v 2.14572 -3.884207 7.073912
v 1.97306 -3.973788 7.074952
v 1.94016 -3.931964 6.332377
v 2.133408 -3.832588 6.31723
v 1.941499 -3.930798 6.325508
v 2.1319 -3.832976 6.311622
v 1.944046 -3.92935 6.322391
v 2.130083 -3.833818 6.309726
v 1.950128 -3.926288 6.320175
v 2.124997 -3.836479 6.308464
v 1.711943 -4.004365 6.405401
v 1.710685 -4.036877 6.403757
v 1.932562 -3.993756 7.082331
v 1.932719 -3.947483 7.080151
v 1.945137 -3.988801 7.095274
v 1.942418 -3.943495 7.090136
v 1.942418 -3.943495 7.090136
v 1.945137 -3.988801 7.095274
v 1.965904 -3.978541 7.09149
v 1.958159 -3.936178 7.087322
v 1.958159 -3.936178 7.087322
v 1.965904 -3.978541 7.09149
v 1.97306 -3.973788 7.074952
v 1.963815 -3.933028 7.074519
v 1.94016 -3.931964 6.332377
v 1.932864 -3.899302 6.332558
v 1.941499 -3.930798 6.325508
v 1.934541 -3.897968 6.324043
v 1.944046 -3.92935 6.322391
v 1.938444 -3.895872 6.319277
v 1.950128 -3.926288 6.320175
v 1.945968 -3.892261 6.316546
v 2.124997 -3.836479 6.308464
v 2.12177 -3.805324 6.305085
v 2.130083 -3.833818 6.309726
v 2.12829 -3.802117 6.306726
v 2.1319 -3.832976 6.311622
v 2.131545 -3.800784 6.310149
v 2.133408 -3.832588 6.31723
v 2.133467 -3.800533 6.317339
v 2.14572 -3.884207 7.073912
v 2.1443 -3.846581 6.984377
v 2.150789 -3.905494 7.386337
v 2.1508 -3.861481 7.387879
v 2.14924 -3.906936 7.393907
v 2.148871 -3.862782 7.397372
v 2.146271 -3.908871 7.397714
v 2.144394 -3.865086 7.403197
v 2.139824 -3.912631 7.400395
v 2.136276 -3.868949 7.406686
v 1.897843 -4.036902 7.429681
v 1.892857 -3.981538 7.437928
v 1.890025 -4.04041 7.428666
v 1.882831 -3.986061 7.436616
v 1.8853 -4.042314 7.425409
v 1.875579 -3.989149 7.431551
v 1.881185 -4.043637 7.418342
v 1.870273 -3.991163 7.422264
v 1.788617 -4.0599 7.106455
v 1.780389 -4.018392 7.109884
v 1.724187 -4.079745 7.021474
v 1.721578 -4.041741 7.030449
v 1.721578 -4.041741 7.030449
v 1.724187 -4.079745 7.021474
v 1.661692 -4.111898 7.121103
v 1.662974 -4.072659 7.124021
v 1.564041 -4.174128 7.461264
v 1.565513 -4.138625 7.46378
v 1.559439 -4.176383 7.469564
v 1.560289 -4.140746 7.473309
v 1.55355 -4.17878 7.474061
v 1.553058 -4.143237 7.478912
v 1.544311 -4.182134 7.476213
v 1.542567 -4.146523 7.481437
v 1.278305 -4.263028 7.48095
v 1.276158 -4.226506 7.486366
v 1.272711 -4.264377 7.479462
v 1.268784 -4.228562 7.48435
v 1.270751 -4.264729 7.477444
v 1.265092 -4.229418 7.480478
v 1.269349 -4.264644 7.471728
v 1.263275 -4.229494 7.472895
v 1.277249 -4.241821 7.208749
v 1.271934 -4.210881 7.208743
v 1.279361 -4.240653 7.200969
v 1.274423 -4.20959 7.199594
v 1.282994 -4.239381 7.196977
v 1.279285 -4.207827 7.194214
v 1.290433 -4.237195 7.194256
v 1.287989 -4.20506 7.190992
v 1.375405 -4.212816 7.185248
v 1.369465 -4.180453 7.182191
v 1.369465 -4.180453 7.182191
v 1.375405 -4.212816 7.185248
v 1.356058 -4.182846 6.734051
v 1.349532 -4.15377 6.691854
v 1.349532 -4.15377 6.691854
v 1.356058 -4.182846 6.734051
v 1.340553 -4.158772 6.37309
v 1.336436 -4.135572 6.373284
v 1.342041 -4.157783 6.365812
v 1.338154 -4.134488 6.364908
v 1.345005 -4.156672 6.362257
v 1.342045 -4.133018 6.360219
v 1.351773 -4.154559 6.359628
v 1.349807 -4.130522 6.357183
v 1.49443 -4.10993 6.343539
v 1.493054 -4.087213 6.341155
v 1.500472 -4.108037 6.344559
v 1.500172 -4.0852 6.34238
v 1.503016 -4.107371 6.346702
v 1.503843 -4.084334 6.345494
v 1.505246 -4.107105 6.352645
v 1.506461 -4.084045 6.352502
v 1.544215 -4.124156 6.736505
v 1.545426 -4.099028 6.736057
v 1.554317 -4.122023 6.75353
v 1.554431 -4.097425 6.751278
v 1.554431 -4.097425 6.751278
v 1.554317 -4.122023 6.75353
v 1.57705 -4.114388 6.757219
v 1.574485 -4.090797 6.754544
v 1.574485 -4.090797 6.754544
v 1.57705 -4.114388 6.757219
v 1.590861 -4.108465 6.744074
v 1.586644 -4.084467 6.742733
v 1.710685 -4.036877 6.403757
v 1.700112 -4.009632 6.405265
vt 0.608842 0.3774553
vt 0.6138653 0.3809696
vt 0.6118569 0.374989
vt 0.6118569 0.374989
vt 0.6138653 0.3809696
vt 0.6156756 0.3748699
vt 0.6156756 0.3748699
vt 0.6138653 0.3809696
vt 0.6193372 0.3767938
vt 0.515267 0.3922049
vt 0.550565 0.3805231
vt 0.5490905 0.3808027
vt 0.5138992 0.3930557
vt 0.551209 0.380567
vt 0.5133719 0.3934992
vt 0.5518184 0.3807414
vt 0.5131176 0.3943668
vt 0.5783611 0.4683571
vt 0.5327479 0.4774901
vt 0.5823477 0.4716829
vt 0.5576363 0.5831658
vt 0.6238373 0.5522888
vt 0.5890343 0.4703396
vt 0.6178489 0.6365698
vt 0.6341934 0.5251438
vt 0.6176564 0.6376582
vt 0.5927982 0.4656955
vt 0.6138653 0.3809696
vt 0.6169478 0.6383703
vt 0.6155617 0.6390332
vt 0.6867288 0.5351266
vt 0.6501204 0.5448218
vt 0.555997 0.6578153
vt 0.538276 0.5924383
vt 0.5378529 0.5931901
vt 0.5553658 0.6580211
vt 0.6744357 0.6166704
vt 0.5377815 0.5940615
vt 0.5549363 0.6576363
vt 0.5542637 0.656577
vt 0.5379209 0.5959392
vt 0.6914892 0.5392421
vt 0.6988587 0.5382023
vt 0.7448899 0.6087219
vt 0.7442059 0.6095331
vt 0.6743619 0.6168616
vt 0.7430038 0.6098018
vt 0.6747643 0.6168745
vt 0.7408226 0.6101679
vt 0.6762295 0.6170608
vt 0.7486607 0.5353171
vt 0.7027133 0.533543
vt 0.709296 0.3567849
vt 0.7608234 0.3565453
vt 0.7095076 0.3564142
vt 0.7602472 0.3562936
vt 0.7098026 0.3563893
vt 0.7594342 0.3560369
vt 0.7110701 0.3560413
vt 0.7578319 0.3557895
vt 0.6193372 0.3767938
vt 0.6138653 0.3809696
vt 0.6867288 0.5351266
vt 0.6948449 0.5287451
vt 0.6914892 0.5392421
vt 0.6953261 0.5294575
vt 0.6953261 0.5294575
vt 0.6914892 0.5392421
vt 0.6988587 0.5382023
vt 0.6958979 0.5298629
vt 0.6958979 0.5298629
vt 0.6988587 0.5382023
vt 0.7027133 0.533543
vt 0.6960384 0.529165
vt 0.709296 0.3567849
vt 0.7023984 0.3536866
vt 0.7095076 0.3564142
vt 0.7048663 0.3503976
vt 0.7098026 0.3563893
vt 0.7081394 0.3487373
vt 0.7110701 0.3560413
vt 0.7124351 0.3481208
vt 0.7578319 0.3557895
vt 0.7609663 0.349122
vt 0.7594342 0.3560369
vt 0.7641008 0.3500369
vt 0.7602472 0.3562936
vt 0.7663771 0.3516953
vt 0.7608234 0.3565453
vt 0.7680371 0.3547128
vt 0.7486607 0.5353171
vt 0.7577525 0.5140643
vt 0.7448899 0.6087219
vt 0.7544628 0.6110685
vt 0.7442059 0.6095331
vt 0.7527272 0.6150285
vt 0.7430038 0.6098018
vt 0.7498468 0.6175277
vt 0.7408226 0.6101679
vt 0.7460546 0.6191388
vt 0.6762295 0.6170608
vt 0.6802093 0.62959
vt 0.6747643 0.6168745
vt 0.6743458 0.6296866
vt 0.6743619 0.6168616
vt 0.6692433 0.6281349
vt 0.6744357 0.6166704
vt 0.6650424 0.6244686
vt 0.6501204 0.5448218
vt 0.6411313 0.5502434
vt 0.6341934 0.5251438
vt 0.6356766 0.5280015
vt 0.6356766 0.5280015
vt 0.6341934 0.5251438
vt 0.6238373 0.5522888
vt 0.633026 0.5526079
vt 0.6178489 0.6365698
vt 0.62634 0.6375039
vt 0.6176564 0.6376582
vt 0.6254265 0.6408256
vt 0.6169478 0.6383703
vt 0.6236561 0.6434648
vt 0.6155617 0.6390332
vt 0.6207192 0.6457236
vt 0.555997 0.6578153
vt 0.5560499 0.6663833
vt 0.5553658 0.6580211
vt 0.5517796 0.6657863
vt 0.5549363 0.6576363
vt 0.5487855 0.6634724
vt 0.5542637 0.656577
vt 0.5466163 0.6597009
vt 0.5379209 0.5959392
vt 0.5310346 0.5966364
vt 0.5377815 0.5940615
vt 0.5308678 0.592679
vt 0.5378529 0.5931901
vt 0.5318559 0.5892668
vt 0.538276 0.5924383
vt 0.5345992 0.5863943
vt 0.5576363 0.5831658
vt 0.5524561 0.5795268
vt 0.5524561 0.5795268
vt 0.5576363 0.5831658
vt 0.5327479 0.4774901
vt 0.5240781 0.4685011
vt 0.5240781 0.4685011
vt 0.5327479 0.4774901
vt 0.5131176 0.3943668
vt 0.5078384 0.3938222
vt 0.5133719 0.3934992
vt 0.5088973 0.3905674
vt 0.5138992 0.3930557
vt 0.5108683 0.3884476
vt 0.515267 0.3922049
vt 0.5138996 0.3866857
vt 0.5490905 0.3808027
vt 0.5491461 0.37546
vt 0.550565 0.3805231
vt 0.5519628 0.3752461
vt 0.551209 0.380567
vt 0.5541319 0.3758638
vt 0.5518184 0.3807414
vt 0.5562313 0.3777913
vt 0.5783611 0.4683571
vt 0.5829123 0.4651232
vt 0.5823477 0.4716829
vt 0.5845525 0.4665334
vt 0.5845525 0.4665334
vt 0.5823477 0.4716829
vt 0.5890343 0.4703396
vt 0.5874403 0.4651661
vt 0.5874403 0.4651661
vt 0.5890343 0.4703396
vt 0.5927982 0.4656955
vt 0.5884712 0.462184
vt 0.6138653 0.3809696
vt 0.608842 0.3774553
vn -0.7985728 -0.2455129 -0.5495497
vn -0.02224679 -0.3235994 -0.9459326
vn -0.3224268 -0.1578639 -0.933338
vn -0.3224268 -0.1578639 -0.933338
vn -0.02224679 -0.3235994 -0.9459326
vn 0.4615175 -0.03718022 -0.8863516
vn 0.4615175 -0.03718022 -0.8863516
vn -0.02224679 -0.3235994 -0.9459326
vn 0.886634 -0.009730649 -0.4623696
vn 0.2987635 -0.9543254 0.001884895
vn 0.2933431 -0.9548346 -0.04733685
vn 0.2987635 -0.9543254 0.001884895
vn 0.2932832 -0.9548275 -0.04784579
vn 0.2913846 -0.9544778 -0.06377326
vn 0.29133 -0.9544643 -0.06422372
vn 0.2926413 -0.9535431 -0.07153124
vn 0.2927843 -0.9534816 -0.0717648
vn 0.2964438 -0.9528877 -0.06423471
vn 0.3016187 -0.9506891 -0.07222527
vn 0.3122291 -0.9476082 -0.06746528
vn 0.300216 -0.9510469 -0.07334886
vn 0.3224501 -0.9435725 -0.07547671
vn 0.3414559 -0.9370971 -0.07250507
vn 0.3146959 -0.9455976 -0.082532
vn 0.3761269 -0.9235762 -0.07440118
vn 0.3181017 -0.9442499 -0.08487388
vn 0.352671 -0.9328651 -0.07338703
vn 0.3735062 -0.9247294 -0.07327097
vn 0.3205121 -0.9432835 -0.08653461
vn 0.3074724 -0.9481656 -0.08026632
vn 0.4045674 -0.911569 -0.07326169
vn 0.4026647 -0.9123864 -0.07356796
vn 0.2698076 -0.9601839 -0.07246168
vn 0.2721686 -0.9595591 -0.071907
vn 0.2540114 -0.9642036 -0.0760896
vn 0.2539485 -0.96422 -0.0760911
vn 0.440271 -0.8948941 -0.07297835
vn 0.2531239 -0.9644353 -0.07611147
vn 0.2531107 -0.9644387 -0.07611188
vn 0.2524767 -0.9646033 -0.07613192
vn 0.2524766 -0.9646033 -0.07613192
vn 0.4277589 -0.9013893 -0.06722972
vn 0.4533861 -0.888985 -0.06439582
vn 0.4496377 -0.8902519 -0.0726463
vn 0.4454652 -0.8904337 -0.09321361
vn 0.4455313 -0.8904541 -0.092701
vn 0.4412566 -0.8888384 -0.1235272
vn 0.4413435 -0.8888748 -0.1229536
vn 0.4248787 -0.8787322 -0.2175036
vn 0.4248787 -0.8787322 -0.2175036
vn 0.4568196 -0.8869442 -0.06816141
vn 0.4570379 -0.8868417 -0.06803048
vn 0.4541404 -0.8884963 -0.06580862
vn 0.4540162 -0.8885847 -0.06547067
vn 0.4530634 -0.8897252 -0.05587941
vn 0.4531148 -0.8897388 -0.05524298
vn 0.4546619 -0.889985 -0.03477328
vn 0.454712 -0.8899873 -0.0340541
vn 0.45818 -0.8883881 0.02894467
vn 0.45818 -0.8883881 0.02894466
vn 0.886634 -0.009730649 -0.4623696
vn -0.02224679 -0.3235994 -0.9459326
vn 0.8683601 -0.02698595 -0.4951995
vn 0.848435 -0.02836126 -0.5285392
vn 0.7235858 -0.03483326 -0.689355
vn 0.7235858 -0.03483326 -0.689355
vn -0.1207961 -0.1190388 -0.985514
vn -0.1207961 -0.1190388 -0.985514
vn -0.1207961 -0.1190388 -0.985514
vn -0.1207961 -0.1190388 -0.9855142
vn -0.876054 -0.2032762 -0.4372735
vn -0.876054 -0.2032762 -0.4372734
vn -0.949202 -0.217075 -0.2278025
vn -0.9564967 -0.2182788 -0.1935676
vn -0.9720085 -0.2175348 -0.08875903
vn -0.9708193 -0.2171197 -0.1018277
vn -0.8792412 -0.2055653 -0.4297416
vn -0.8493204 -0.201851 -0.4877613
vn -0.5614867 -0.1692817 -0.8099855
vn -0.4743327 -0.1599518 -0.8656927
vn -0.1773375 -0.1259677 -0.9760551
vn -0.1170997 -0.1198578 -0.9858609
vn 0.1015562 -0.09632239 -0.9901557
vn 0.1664473 -0.08888645 -0.9820359
vn 0.4791803 -0.05578095 -0.8759422
vn 0.5631681 -0.04616391 -0.8250519
vn 0.8628647 -0.01361396 -0.5052514
vn 0.8827131 -0.01174585 -0.4697655
vn 0.9903123 -0.001255407 -0.1388524
vn 0.9901848 -0.00125383 -0.139759
vn 0.999869 -0.000297745 -0.01618573
vn 0.9998658 -0.001309786 -0.01633238
vn 0.9951949 -0.00395599 0.09783428
vn 0.9960985 -0.003634812 0.08817346
vn 0.9000679 -0.02670601 0.4349304
vn 0.9209703 -0.02288543 0.3889601
vn 0.593789 -0.07489178 0.8011279
vn 0.6639476 -0.06477372 0.7449684
vn 0.2802936 -0.115497 0.9529406
vn 0.3336106 -0.1083648 0.9364619
vn 0.03451471 -0.1436345 0.9890288
vn 0.08844315 -0.1380916 0.9864627
vn -0.3339863 -0.1794865 0.9253311
vn -0.246228 -0.1720804 0.9538134
vn -0.7056238 -0.2072662 0.6775957
vn -0.6616458 -0.2043441 0.7214349
vn -0.891085 -0.2137297 0.4003588
vn -0.8839501 -0.2136254 0.4159285
vn -0.8557109 -0.2097774 0.4730248
vn -0.8694224 -0.2107424 0.4468695
vn -0.7580135 -0.2001577 0.6207675
vn -0.7580135 -0.2001577 0.6207676
vn 0.8548926 -0.06457005 0.5147713
vn 0.8548926 -0.06457005 0.5147713
vn 0.9229976 -0.05968594 0.3801487
vn 0.9112214 -0.06075798 0.4074112
vn 0.9232081 -0.06346805 0.3790235
vn 0.9308099 -0.06205826 0.3601966
vn 0.7534764 -0.08647209 0.6517636
vn 0.7840632 -0.08328459 0.615068
vn 0.4292734 -0.1162793 0.8956581
vn 0.4837192 -0.1116985 0.8680663
vn 0.1492303 -0.1365786 0.9793245
vn 0.1809698 -0.1341876 0.9742913
vn -0.09990261 -0.1514325 0.9834062
vn -0.05870665 -0.1494909 0.9870187
vn -0.4974003 -0.170592 0.850583
vn -0.4448809 -0.1688144 0.8795354
vn -0.8613163 -0.1789159 0.4755241
vn -0.8496522 -0.1788264 0.4960972
vn -0.9801013 -0.1727607 0.09775005
vn -0.9805463 -0.172692 0.09330736
vn -0.9733717 -0.1671572 -0.156863
vn -0.9713211 -0.1668276 -0.1694219
vn -0.8632954 -0.1584759 -0.4791726
vn -0.8403007 -0.156618 -0.5190043
vn -0.5508785 -0.1367774 -0.8233011
vn -0.496489 -0.1334543 -0.857723
vn -0.2106409 -0.1147539 -0.9708048
vn -0.1757731 -0.1129235 -0.9779326
vn -0.07462485 -0.1068831 -0.9914671
vn -0.07462485 -0.1068831 -0.9914671
vn -0.9837009 -0.1772285 0.03037422
vn -0.9837009 -0.1772285 0.03037422
vn -0.983744 -0.1769865 0.03039191
vn -0.9839062 -0.1760709 0.03045877
vn -0.9839062 -0.1760709 0.03045877
vn -0.983744 -0.1769865 0.03039191
vn -0.9807489 -0.1738348 -0.08895572
vn -0.9796907 -0.173509 -0.1005024
vn -0.8867266 -0.1647784 -0.4319306
vn -0.8654759 -0.1628853 -0.4737297
vn -0.5765283 -0.1414283 -0.8047442
vn -0.5199422 -0.1377048 -0.8430288
vn -0.2228354 -0.116855 -0.967827
vn -0.1851241 -0.1147473 -0.9759929
vn 0.0377952 -0.1015437 -0.9941129
vn 0.07754224 -0.09902882 -0.9920587
vn 0.4092729 -0.08128449 -0.9087841
vn 0.4654415 -0.07792546 -0.8816416
vn 0.8115913 -0.05961417 -0.5811761
vn 0.8286881 -0.05891699 -0.556601
vn 0.9723393 -0.0518767 -0.2277395
vn 0.9725326 -0.05187533 -0.2269128
vn 0.9503517 -0.05199812 -0.3068027
vn 0.9480277 -0.0519825 -0.3139131
vn 0.8617734 -0.05036709 -0.5047868
vn 0.8617736 -0.0503671 -0.5047867
vn 0.1890425 -0.09035648 -0.977803
vn 0.1890425 -0.09035648 -0.977803
vn 0.1890424 -0.09035647 -0.977803
vn 0.1890425 -0.09035647 -0.977803
vn -0.6454843 -0.1551123 -0.7478571
vn -0.6454844 -0.1551124 -0.7478571
vn -0.7760527 -0.2054097 -0.5962794
vn -0.8115208 -0.2199317 -0.5413539
vn -0.02224679 -0.3235994 -0.9459326
vn -0.7985728 -0.2455129 -0.5495497
g CB-Letter_3_0
f 3/3/3 2/2/2 1/1/1
f 6/6/6 5/5/5 4/4/4
f 9/9/9 8/8/8 7/7/7
f 12/12/12 11/11/11 10/10/10
f 11/11/11 13/13/13 10/10/10
f 11/11/11 14/14/14 13/13/13
f 14/14/14 15/15/15 13/13/13
f 14/14/14 16/16/16 15/15/15
f 16/16/16 17/17/17 15/15/15
f 16/16/16 18/18/18 17/17/17
f 18/18/18 19/19/19 17/17/17
f 20/20/20 19/19/19 18/18/18
f 21/21/21 19/19/19 20/20/20
f 22/22/22 21/21/21 20/20/20
f 20/20/20 23/23/23 22/22/22
f 24/24/24 21/21/21 22/22/22
f 22/22/22 23/23/23 25/25/25
f 24/24/24 26/26/26 21/21/21
f 23/23/23 27/27/27 25/25/25
f 28/28/28 25/25/25 27/27/27
f 26/26/26 29/29/29 21/21/21
f 29/29/29 30/30/30 21/21/21
f 25/25/25 28/28/28 31/31/31
f 32/32/32 25/25/25 31/31/31
f 21/21/21 30/30/30 33/33/33
f 34/34/34 21/21/21 33/33/33
f 35/35/35 34/34/34 33/33/33
f 36/36/36 35/35/35 33/33/33
f 37/37/37 32/32/32 31/31/31
f 38/38/38 35/35/35 36/36/36
f 39/39/39 38/38/38 36/36/36
f 38/38/38 39/39/39 40/40/40
f 41/41/41 38/38/38 40/40/40
f 42/42/42 37/37/37 31/31/31
f 37/37/37 42/42/42 43/43/43
f 44/44/44 37/37/37 43/43/43
f 37/37/37 44/44/44 45/45/45
f 46/46/46 37/37/37 45/45/45
f 46/46/46 45/45/45 47/47/47
f 48/48/48 46/46/46 47/47/47
f 48/48/48 47/47/47 49/49/49
f 50/50/50 48/48/48 49/49/49
f 51/51/51 44/44/44 43/43/43
f 52/52/52 51/51/51 43/43/43
f 51/51/51 52/52/52 53/53/53
f 54/54/54 51/51/51 53/53/53
f 54/54/54 53/53/53 55/55/55
f 56/56/56 54/54/54 55/55/55
f 56/56/56 55/55/55 57/57/57
f 58/58/58 56/56/56 57/57/57
f 58/58/58 57/57/57 59/59/59
f 60/60/60 58/58/58 59/59/59
f 63/63/63 62/62/62 61/61/61
f 64/64/64 63/63/63 61/61/61
f 65/65/65 63/63/63 64/64/64
f 66/66/66 65/65/65 64/64/64
f 69/69/69 68/68/68 67/67/67
f 70/70/70 69/69/69 67/67/67
f 73/73/73 72/72/72 71/71/71
f 74/74/74 73/73/73 71/71/71
f 75/75/75 73/73/73 74/74/74
f 76/76/76 75/75/75 74/74/74
f 77/77/77 75/75/75 76/76/76
f 78/78/78 77/77/77 76/76/76
f 79/79/79 77/77/77 78/78/78
f 80/80/80 79/79/79 78/78/78
f 81/81/81 79/79/79 80/80/80
f 82/82/82 81/81/81 80/80/80
f 83/83/83 81/81/81 82/82/82
f 84/84/84 83/83/83 82/82/82
f 85/85/85 83/83/83 84/84/84
f 86/86/86 85/85/85 84/84/84
f 87/87/87 85/85/85 86/86/86
f 88/88/88 87/87/87 86/86/86
f 89/89/89 87/87/87 88/88/88
f 90/90/90 89/89/89 88/88/88
f 91/91/91 89/89/89 90/90/90
f 92/92/92 91/91/91 90/90/90
f 93/93/93 91/91/91 92/92/92
f 94/94/94 93/93/93 92/92/92
f 95/95/95 93/93/93 94/94/94
f 96/96/96 95/95/95 94/94/94
f 97/97/97 95/95/95 96/96/96
f 98/98/98 97/97/97 96/96/96
f 99/99/99 97/97/97 98/98/98
f 100/100/100 99/99/99 98/98/98
f 101/101/101 99/99/99 100/100/100
f 102/102/102 101/101/101 100/100/100
f 103/103/103 101/101/101 102/102/102
f 104/104/104 103/103/103 102/102/102
f 105/105/105 103/103/103 104/104/104
f 106/106/106 105/105/105 104/104/104
f 107/107/107 105/105/105 106/106/106
f 108/108/108 107/107/107 106/106/106
f 109/109/109 107/107/107 108/108/108
f 110/110/110 109/109/109 108/108/108
f 111/111/111 109/109/109 110/110/110
f 112/112/112 111/111/111 110/110/110
f 115/115/115 114/114/114 113/113/113
f 116/116/116 115/115/115 113/113/113
f 117/117/117 115/115/115 116/116/116
f 118/118/118 117/117/117 116/116/116
f 119/119/119 117/117/117 118/118/118
f 120/120/120 119/119/119 118/118/118
f 121/121/121 119/119/119 120/120/120
f 122/122/122 121/121/121 120/120/120
f 123/123/123 121/121/121 122/122/122
f 124/124/124 123/123/123 122/122/122
f 125/125/125 123/123/123 124/124/124
f 126/126/126 125/125/125 124/124/124
f 127/127/127 125/125/125 126/126/126
f 128/128/128 127/127/127 126/126/126
f 129/129/129 127/127/127 128/128/128
f 130/130/130 129/129/129 128/128/128
f 131/131/131 129/129/129 130/130/130
f 132/132/132 131/131/131 130/130/130
f 133/133/133 131/131/131 132/132/132
f 134/134/134 133/133/133 132/132/132
f 135/135/135 133/133/133 134/134/134
f 136/136/136 135/135/135 134/134/134
f 137/137/137 135/135/135 136/136/136
f 138/138/138 137/137/137 136/136/136
f 139/139/139 137/137/137 138/138/138
f 140/140/140 139/139/139 138/138/138
f 141/141/141 139/139/139 140/140/140
f 142/142/142 141/141/141 140/140/140
f 145/145/145 144/144/144 143/143/143
f 146/146/146 145/145/145 143/143/143
f 149/149/149 148/148/148 147/147/147
f 150/150/150 149/149/149 147/147/147
f 151/151/151 149/149/149 150/150/150
f 152/152/152 151/151/151 150/150/150
f 153/153/153 151/151/151 152/152/152
f 154/154/154 153/153/153 152/152/152
f 155/155/155 153/153/153 154/154/154
f 156/156/156 155/155/155 154/154/154
f 157/157/157 155/155/155 156/156/156
f 158/158/158 157/157/157 156/156/156
f 159/159/159 157/157/157 158/158/158
f 160/160/160 159/159/159 158/158/158
f 161/161/161 159/159/159 160/160/160
f 162/162/162 161/161/161 160/160/160
f 163/163/163 161/161/161 162/162/162
f 164/164/164 163/163/163 162/162/162
f 165/165/165 163/163/163 164/164/164
f 166/166/166 165/165/165 164/164/164
f 167/167/167 165/165/165 166/166/166
f 168/168/168 167/167/167 166/166/166
f 171/171/171 170/170/170 169/169/169
f 172/172/172 171/171/171 169/169/169
f 175/175/175 174/174/174 173/173/173
f 176/176/176 175/175/175 173/173/173
f 177/177/177 175/175/175 176/176/176
f 178/178/178 177/177/177 176/176/176
