g ChemistryBeaker_1
v 2.510079E-07 -0.1119233 -0.01337294
v 2.501517E-07 -0.09925181 -0.02074521
v -0.0379817 -0.09169672 -0.02074521
v -0.04283083 -0.1034036 -0.01337294
v 2.513441E-07 -0.1171719 0.004425304
v -0.07018124 -0.07018169 -0.02074522
v -0.04483942 -0.1082527 0.004425302
v 2.526833E-07 -0.1136176 0.2755777
v -0.07914128 -0.07914174 -0.01337294
v -0.09169627 -0.03798215 -0.02074522
v -0.04347922 -0.104969 0.2755777
v 2.526511E-07 -0.1118587 0.2801295
v -0.08285265 -0.08285312 0.004425298
v -0.1034031 -0.04283129 -0.01337295
v -0.09925137 -1.421668E-07 -0.02074523
v -0.0428061 -0.1033439 0.2801295
v 2.524686E-07 -0.1069584 0.2830917
v -0.08033934 -0.0803398 0.2755776
v -0.1082523 -0.04483986 0.004425292
v -0.1119228 -1.403214E-07 -0.01337295
v -0.09169628 0.03798186 -0.02074523
v -0.04093089 -0.09881672 0.2830917
v 2.519921E-07 -0.09847756 0.2820207
v -0.07909559 -0.07909605 0.2801295
v -0.1049685 -0.04347964 0.2755776
v -0.1171715 -1.371921E-07 0.004425284
v -0.1034032 0.042831 -0.01337296
v -0.07018127 0.07018141 -0.02074524
v -0.0376854 -0.09098139 0.2820207
v 2.51587E-07 -0.09114593 0.2773689
v -0.07563063 -0.07563107 0.2830916
v -0.1033435 -0.04280653 0.2801295
v -0.1136171 -9.174728E-08 0.2755776
v -0.1082523 0.04483959 0.004425277
v -0.07914132 0.07914145 -0.01337297
v -0.03798172 0.0916965 -0.02074524
v -0.03487971 -0.08420787 0.2773689
v 2.508334E-07 -0.08336914 0.2541812
v -0.03190367 -0.07702304 0.2541812
v -0.06963375 -0.06963418 0.2820207
v -0.06444953 -0.06444994 0.2773689
v -0.05895051 -0.05895092 0.2541812
v -0.04283086 0.1034034 -0.01337297
v 2.223611E-07 0.09925156 -0.02074524
v -0.08285269 0.08285283 0.004425271
v -0.09881626 -0.0409313 0.2830916
v -0.08420745 -0.0348801 0.2773689
v -0.07702261 -0.03190405 0.2541812
v -0.09098095 -0.0376858 0.2820207
v 2.250855E-07 0.111923 -0.01337297
v 0.03798216 0.09169649 -0.02074524
v -0.1118582 -9.107686E-08 0.2801295
v -0.0911455 -8.993552E-08 0.2773689
v -0.08336873 -9.289494E-08 0.2541812
v -0.09847713 -9.020381E-08 0.2820207
v -0.106958 -9.053754E-08 0.2830916
v -0.1049685 0.04347946 0.2755776
v -0.08420746 0.03487995 0.2773689
v -0.07702263 0.0319039 0.2541812
v -0.1033435 0.04280635 0.2801295
v -0.09098096 0.03768564 0.2820207
v -0.09881626 0.04093112 0.2830916
v -0.08033939 0.0803396 0.2755776
v -0.06444957 0.06444975 0.2773689
v -0.05895054 0.05895073 0.2541812
v -0.07909564 0.07909585 0.2801295
v -0.0696338 0.06963401 0.2820207
v -0.07563067 0.07563088 0.2830916
v -0.04483945 0.1082525 0.004425267
v -0.03487973 0.08420771 0.2773689
v -0.03190369 0.0770229 0.2541812
v -0.04347925 0.1049688 0.2755776
v -0.04280613 0.1033438 0.2801294
v -0.03768542 0.09098125 0.2820207
v -0.04093091 0.09881656 0.2830916
v 2.262027E-07 0.1171717 0.004425265
v 2.279598E-07 0.09114578 0.2773689
v 2.283821E-07 0.08336899 0.2541812
v 2.283045E-07 0.1136174 0.2755776
v 2.278836E-07 0.1118585 0.2801294
v 2.270939E-07 0.09847741 0.2820206
v 2.272357E-07 0.1069583 0.2830916
v 0.03488021 0.08420772 0.2773689
v 0.03190416 0.07702289 0.2541812
v 0.04347972 0.1049688 0.2755776
v 0.0428066 0.1033438 0.2801294
v 0.03768589 0.09098126 0.2820207
v 0.04093138 0.09881655 0.2830916
v 0.06445003 0.06444977 0.2773689
v 0.05895101 0.05895076 0.2541812
v 0.06963424 0.06963403 0.2820207
v 0.07563112 0.0756309 0.2830916
v 0.07909609 0.07909588 0.2801295
v 0.08420793 0.03487995 0.2773689
v 0.07702312 0.0319039 0.2541812
v 0.09098145 0.03768565 0.2820207
v 0.09881675 0.04093114 0.2830916
v 0.09114599 -6.964459E-08 0.2773689
v 0.08336921 -7.521755E-08 0.2541812
v 0.09847761 -6.785091E-08 0.2820207
v 0.08420797 -0.03488007 0.2773689
v 0.07702314 -0.03190403 0.2541812
v 0.08033984 0.08033963 0.2755776
v 0.103344 0.04280636 0.2801295
v 0.1069585 -6.525621E-08 0.2830916
v 0.09098148 -0.03768576 0.2820207
v 0.06445006 -0.06444991 0.2773689
v 0.05895104 -0.05895089 0.2541812
v 0.104969 0.04347948 0.2755776
v 0.08285314 0.08285286 0.004425271
v 0.1118587 -6.385115E-08 0.2801295
v 0.09881678 -0.04093125 0.2830916
v 0.06963428 -0.06963415 0.2820207
v 0.03488023 -0.08420786 0.2773689
v 0.03190418 -0.07702304 0.2541812
v 2.51587E-07 -0.09114593 0.2773689
v 2.508334E-07 -0.08336914 0.2541812
v 2.519921E-07 -0.09847756 0.2820207
v 0.03768592 -0.09098137 0.2820207
v 2.524686E-07 -0.1069584 0.2830917
v 0.04093141 -0.0988167 0.2830917
v 2.526511E-07 -0.1118587 0.2801295
v 0.07563116 -0.07563103 0.2830916
v 0.04280663 -0.1033439 0.2801295
v 2.526833E-07 -0.1136176 0.2755777
v 0.07909612 -0.079096 0.2801295
v 0.04347975 -0.1049689 0.2755777
v 2.513441E-07 -0.1171719 0.004425304
v 0.103344 -0.04280648 0.2801295
v 0.04483993 -0.1082527 0.004425302
v 2.510079E-07 -0.1119233 -0.01337294
v 0.08033987 -0.08033975 0.2755776
v 0.104969 -0.04347959 0.2755776
v 0.04283135 -0.1034036 -0.01337294
v 2.501517E-07 -0.09925181 -0.02074521
v 0.03798221 -0.09169673 -0.02074521
v 0.08285317 -0.08285308 0.004425298
v 0.0791418 -0.07914171 -0.01337294
v 0.07018175 -0.07018166 -0.02074522
v 0.1136176 -6.375706E-08 0.2755776
v 0.1082528 -0.04483981 0.004425292
v 0.1034037 -0.04283123 -0.01337295
v 0.09169679 -0.0379821 -0.02074522
v 0.1171719 -1.083262E-07 0.004425284
v 0.1119233 -1.136147E-07 -0.01337295
v 0.09925187 -1.206508E-07 -0.02074523
v 0.1082528 0.04483961 0.004425277
v 0.1034036 0.04283101 -0.01337296
v 0.09169677 0.03798187 -0.02074523
v 0.07914177 0.07914148 -0.01337297
v 0.07018173 0.07018143 -0.02074524
v 0.0448399 0.1082525 0.004425267
v 0.04283132 0.1034034 -0.01337297
v -0.05895054 0.05895073 0.2541812
v 2.478726E-07 -7.727513E-08 0.2541812
v -0.07702263 0.0319039 0.2541812
v -0.03190369 0.0770229 0.2541812
v -0.08336873 -9.289494E-08 0.2541812
v 2.283821E-07 0.08336899 0.2541812
v -0.07702261 -0.03190405 0.2541812
v 0.03190416 0.07702289 0.2541812
v -0.05895051 -0.05895092 0.2541812
v 0.05895101 0.05895076 0.2541812
v -0.03190367 -0.07702304 0.2541812
v 0.07702312 0.0319039 0.2541812
v 2.508334E-07 -0.08336914 0.2541812
v 0.08336921 -7.521755E-08 0.2541812
v 0.03190418 -0.07702304 0.2541812
v 0.07702314 -0.03190403 0.2541812
v 0.05895104 -0.05895089 0.2541812
vt 0.4889211 0.7404709
vt 0.4889211 0.7435067
vt 0.4973039 0.7435067
vt 0.4973039 0.7404709
vt 0.4889211 0.7366286
vt 0.5056871 0.7435067
vt 0.4973039 0.7366286
vt 0.4889212 0.6804746
vt 0.5056871 0.7404709
vt 0.5140699 0.7435067
vt 0.497304 0.6804746
vt 0.4889212 0.6794642
vt 0.5056871 0.7366286
vt 0.5140699 0.7404709
vt 0.5224525 0.7435067
vt 0.497304 0.6794642
vt 0.4889212 0.6782784
vt 0.5056871 0.6804746
vt 0.5140699 0.7366286
vt 0.5224525 0.7404709
vt 0.5308354 0.7435067
vt 0.497304 0.6782784
vt 0.4889212 0.6765083
vt 0.5056871 0.6794642
vt 0.51407 0.6804746
vt 0.5224525 0.7366286
vt 0.5308354 0.7404709
vt 0.5392185 0.7435067
vt 0.497304 0.6765083
vt 0.4889212 0.6747103
vt 0.5056871 0.6782784
vt 0.51407 0.6794642
vt 0.5224526 0.6804746
vt 0.5308354 0.7366286
vt 0.5392185 0.7404709
vt 0.5476012 0.7435067
vt 0.497304 0.6747103
vt 0.4889212 0.669646
vt 0.497304 0.669646
vt 0.5056871 0.6765083
vt 0.5056871 0.6747103
vt 0.5056871 0.669646
vt 0.5476012 0.7404709
vt 0.5559841 0.7435067
vt 0.5392185 0.7366286
vt 0.51407 0.6782784
vt 0.51407 0.6747103
vt 0.51407 0.669646
vt 0.51407 0.6765083
vt 0.5559841 0.7404709
vt 0.5643671 0.7435067
vt 0.5224526 0.6794642
vt 0.5224526 0.6747103
vt 0.5224526 0.669646
vt 0.5224526 0.6765083
vt 0.5224526 0.6782784
vt 0.5308355 0.6804746
vt 0.5308355 0.6747104
vt 0.5308355 0.669646
vt 0.5308355 0.6794642
vt 0.5308355 0.6765083
vt 0.5308355 0.6782784
vt 0.5392186 0.6804746
vt 0.5392186 0.6747104
vt 0.5392186 0.669646
vt 0.5392186 0.6794642
vt 0.5392186 0.6765083
vt 0.5392186 0.6782784
vt 0.5476012 0.7366286
vt 0.5476012 0.6747104
vt 0.5476012 0.669646
vt 0.5476012 0.6804746
vt 0.5476012 0.6794642
vt 0.5476012 0.6765083
vt 0.5476012 0.6782784
vt 0.5559841 0.7366286
vt 0.5559841 0.6747104
vt 0.5559841 0.669646
vt 0.5559841 0.6804746
vt 0.5559841 0.6794642
vt 0.5559841 0.6765083
vt 0.5559841 0.6782784
vt 0.5643672 0.6747104
vt 0.5643672 0.669646
vt 0.5643672 0.6804746
vt 0.5643672 0.6794642
vt 0.5643672 0.6765083
vt 0.5643672 0.6782784
vt 0.57275 0.6747104
vt 0.57275 0.669646
vt 0.57275 0.6765083
vt 0.57275 0.6782784
vt 0.57275 0.6794642
vt 0.581133 0.6747104
vt 0.581133 0.669646
vt 0.581133 0.6765083
vt 0.581133 0.6782784
vt 0.5895156 0.6747104
vt 0.5895156 0.669646
vt 0.5895156 0.6765083
vt 0.5978987 0.6747103
vt 0.5978987 0.6696458
vt 0.57275 0.6804746
vt 0.581133 0.6794642
vt 0.5895156 0.6782784
vt 0.5978987 0.6765082
vt 0.6062818 0.6747103
vt 0.6062818 0.669646
vt 0.581133 0.6804746
vt 0.5727499 0.7366286
vt 0.5895156 0.6794642
vt 0.5978987 0.6782783
vt 0.6062818 0.6765082
vt 0.6146644 0.6747103
vt 0.6146644 0.669646
vt 0.6230476 0.6747103
vt 0.6230476 0.669646
vt 0.6230476 0.6765083
vt 0.6146644 0.6765082
vt 0.6230476 0.6782783
vt 0.6146644 0.6782783
vt 0.6230476 0.6794642
vt 0.6062818 0.6782783
vt 0.6146644 0.6794642
vt 0.6230476 0.6804745
vt 0.6062818 0.6794642
vt 0.6146644 0.6804745
vt 0.6230475 0.7366285
vt 0.5978987 0.6794642
vt 0.6146644 0.7366285
vt 0.6230475 0.7404709
vt 0.6062818 0.6804745
vt 0.5978987 0.6804745
vt 0.6146644 0.7404709
vt 0.6230475 0.7435066
vt 0.6146644 0.7435066
vt 0.6062818 0.7366285
vt 0.6062818 0.7404709
vt 0.6062818 0.7435066
vt 0.5895156 0.6804746
vt 0.5978986 0.7366285
vt 0.5978986 0.7404709
vt 0.5978986 0.7435066
vt 0.5895156 0.7366286
vt 0.5895156 0.7404709
vt 0.5895156 0.7435067
vt 0.5811329 0.7366286
vt 0.5811329 0.7404709
vt 0.5811329 0.7435067
vt 0.5727499 0.7404709
vt 0.5727499 0.7435067
vt 0.5643671 0.7366286
vt 0.5643671 0.7404709
vt 0.4568832 0.4268814
vt 0.4731881 0.4301216
vt 0.4593642 0.4208884
vt 0.4568842 0.4333677
vt 0.4639498 0.416301
vt 0.4593675 0.4393598
vt 0.4699419 0.4138177
vt 0.4639549 0.4439455
vt 0.4764282 0.4138166
vt 0.4699479 0.4464267
vt 0.4824213 0.4162977
vt 0.4764341 0.4464254
vt 0.4870088 0.4208834
vt 0.4824263 0.4439421
vt 0.489492 0.4268754
vt 0.4870118 0.4393549
vt 0.4894931 0.4333618
vn 0 -0.8030726 -0.5958811
vn 0 -0.5028837 -0.8643541
vn -0.1924454 -0.4646041 -0.864354
vn -0.3073227 -0.7419422 -0.5958813
vn 0 -0.9909863 -0.133963
vn -0.3555927 -0.3555928 -0.8643539
vn -0.3792343 -0.9155519 -0.1339631
vn 0 -0.9825878 0.1857994
vn -0.5678581 -0.5678583 -0.595881
vn -0.4646041 -0.1924455 -0.864354
vn -0.3760201 -0.9077927 0.1857993
vn 0 -0.7818452 0.6234726
vn -0.7007332 -0.7007331 -0.1339629
vn -0.7419425 -0.3073227 -0.5958809
vn -0.5028837 0 -0.8643541
vn -0.2991993 -0.7223303 0.6234729
vn 0 -0.2461031 0.9692436
vn -0.6947951 -0.6947939 0.1857991
vn -0.9155521 -0.379234 -0.1339626
vn -0.8030728 0 -0.5958808
vn -0.4646041 0.192445 -0.8643541
vn -0.09417995 -0.2273691 0.9692438
vn 0 0.3141176 0.9493841
vn -0.5528489 -0.5528476 0.6234723
vn -0.9077932 -0.3760194 0.1857983
vn -0.9909863 0 -0.1339626
vn -0.7419428 0.3073222 -0.595881
vn -0.3555928 0.3555921 -0.8643541
vn 0.1202072 0.2902071 0.9493841
vn 0 0.770316 0.6376623
vn -0.1740214 -0.1740212 0.9692436
vn -0.7223323 -0.2991986 0.6234712
vn -0.9825878 0 0.1857994
vn -0.9155522 0.3792336 -0.1339627
vn -0.5678586 0.5678577 -0.595881
vn -0.1924455 0.464604 -0.864354
vn 0.2947871 0.711679 0.6376625
vn 0 0.9480983 0.3179773
vn 0.3628218 0.8759284 0.3179775
vn 0.2221146 0.2221144 0.9493841
vn 0.5446957 0.5446952 0.6376628
vn 0.6704072 0.6704062 0.3179775
vn -0.3073229 0.7419423 -0.595881
vn 0 0.5028834 -0.8643543
vn -0.7007337 0.7007326 -0.1339629
vn -0.2273705 -0.09417973 0.9692434
vn 0.711679 0.2947867 0.6376628
vn 0.8759288 0.3628211 0.3179772
vn 0.2902066 0.1202072 0.9493842
vn 0 0.8030728 -0.595881
vn 0.1924453 0.4646037 -0.8643543
vn -0.7818457 0 0.623472
vn 0.7703157 0 0.6376627
vn 0.9480984 0 0.317977
vn 0.3141166 0 0.9493845
vn -0.2461046 0 0.9692433
vn -0.9077926 0.3760199 0.1858
vn 0.7116784 -0.2947867 0.6376634
vn 0.8759289 -0.3628208 0.3179774
vn -0.7223303 0.2991993 0.6234731
vn 0.2902055 -0.1202072 0.9493846
vn -0.2273704 0.09417981 0.9692434
vn -0.6947949 0.6947941 0.1857994
vn 0.544695 -0.5446949 0.6376635
vn 0.6704073 -0.670406 0.3179776
vn -0.5528479 0.5528479 0.6234728
vn 0.2221128 -0.2221132 0.9493849
vn -0.1740215 0.1740223 0.9692434
vn -0.3792344 0.9155518 -0.133963
vn 0.2947872 -0.711678 0.6376637
vn 0.3628221 -0.8759283 0.3179776
vn -0.3760203 0.9077927 0.1857983
vn -0.2991993 0.7223313 0.6234718
vn 0.1202068 -0.290204 0.9493851
vn -0.09418013 0.2273712 0.9692433
vn 0 0.9909863 -0.1339628
vn 0 -0.7703146 0.6376641
vn 0 -0.9480982 0.3179777
vn 0 0.982588 0.1857982
vn 0 0.7818458 0.6234718
vn 0 -0.3141144 0.9493852
vn 0 0.2461046 0.9692433
vn -0.2947871 -0.711678 0.6376637
vn -0.3628218 -0.8759284 0.3179777
vn 0.3760202 0.9077927 0.1857993
vn 0.2991989 0.7223308 0.6234728
vn -0.1202065 -0.2902042 0.9493851
vn 0.09418009 0.2273711 0.9692433
vn -0.5446953 -0.5446949 0.6376631
vn -0.670407 -0.6704065 0.3179774
vn -0.2221129 -0.2221133 0.9493849
vn 0.1740224 0.1740219 0.9692433
vn 0.5528488 0.5528474 0.6234725
vn -0.7116789 -0.2947868 0.6376628
vn -0.875929 -0.3628211 0.317977
vn -0.2902065 -0.1202071 0.9493842
vn 0.2273704 0.09417973 0.9692434
vn -0.7703161 0 0.6376622
vn -0.9480984 0 0.3179771
vn -0.3141172 0 0.9493842
vn -0.7116794 0.2947864 0.6376624
vn -0.8759288 0.3628209 0.3179776
vn 0.6947952 0.6947937 0.1857992
vn 0.7223327 0.2991984 0.6234707
vn 0.2461027 0 0.9692438
vn -0.2902057 0.120207 0.9493846
vn -0.5446956 0.5446951 0.6376628
vn -0.6704072 0.6704063 0.3179774
vn 0.9077933 0.3760195 0.1857976
vn 0.7007334 0.700733 -0.133963
vn 0.7818456 0 0.623472
vn 0.2273701 -0.09417972 0.9692435
vn -0.2221142 0.2221143 0.9493843
vn -0.2947873 0.7116789 0.6376625
vn -0.362822 0.8759284 0.3179772
vn 0 0.770316 0.6376623
vn 0 0.9480983 0.3179773
vn 0 0.3141176 0.9493841
vn -0.1202077 0.2902068 0.9493841
vn 0 -0.2461031 0.9692436
vn 0.09418035 -0.2273699 0.9692435
vn 0 -0.7818452 0.6234726
vn 0.1740224 -0.1740213 0.9692434
vn 0.2991996 -0.7223303 0.6234729
vn 0 -0.9825878 0.1857994
vn 0.5528484 -0.5528476 0.6234728
vn 0.3760203 -0.9077924 0.1858
vn 0 -0.9909863 -0.133963
vn 0.7223305 -0.2991989 0.623473
vn 0.3792346 -0.9155518 -0.1339629
vn 0 -0.8030726 -0.5958811
vn 0.6947947 -0.6947941 0.1858
vn 0.907793 -0.3760194 0.1857992
vn 0.307323 -0.7419422 -0.5958811
vn 0 -0.5028837 -0.8643541
vn 0.1924456 -0.4646041 -0.8643539
vn 0.7007334 -0.7007329 -0.1339627
vn 0.5678584 -0.5678582 -0.5958809
vn 0.3555928 -0.3555927 -0.8643539
vn 0.982588 0 0.1857979
vn 0.9155522 -0.3792336 -0.1339625
vn 0.7419428 -0.3073224 -0.5958808
vn 0.4646041 -0.1924453 -0.8643541
vn 0.9909863 0 -0.1339625
vn 0.8030729 0 -0.5958807
vn 0.5028839 0 -0.8643541
vn 0.9155521 0.3792337 -0.1339627
vn 0.7419425 0.3073224 -0.595881
vn 0.4646041 0.1924452 -0.8643541
vn 0.5678583 0.567858 -0.5958811
vn 0.3555927 0.3555924 -0.8643541
vn 0.3792342 0.9155519 -0.1339629
vn 0.3073229 0.7419423 -0.5958812
vn 0 0 1
vn 0 0 1
vn 0 0 1
vn 0 0 1
vn 0 0 1
vn 0 0 1
vn 0 0 1
vn 0 0 1
vn 0 0 1
vn 0 0 1
vn 0 0 1
vn 0 0 1
vn 0 0 1
vn 0 0 1
vn 0 0 1
vn 0 0 1
vn 0 0 1
g ChemistryBeaker_1_0
f 3/3/3 2/2/2 1/1/1
f 4/4/4 3/3/3 1/1/1
f 4/4/4 1/1/1 5/5/5
f 6/6/6 3/3/3 4/4/4
f 7/7/7 4/4/4 5/5/5
f 5/5/5 8/8/8 7/7/7
f 9/9/9 6/6/6 4/4/4
f 9/9/9 4/4/4 7/7/7
f 10/10/10 6/6/6 9/9/9
f 8/8/8 11/11/11 7/7/7
f 8/8/8 12/12/12 11/11/11
f 13/13/13 9/9/9 7/7/7
f 7/7/7 11/11/11 13/13/13
f 14/14/14 10/10/10 9/9/9
f 14/14/14 9/9/9 13/13/13
f 15/15/15 10/10/10 14/14/14
f 12/12/12 16/16/16 11/11/11
f 12/12/12 17/17/17 16/16/16
f 11/11/11 18/18/18 13/13/13
f 11/11/11 16/16/16 18/18/18
f 19/19/19 14/14/14 13/13/13
f 13/13/13 18/18/18 19/19/19
f 20/20/20 15/15/15 14/14/14
f 20/20/20 14/14/14 19/19/19
f 21/21/21 15/15/15 20/20/20
f 17/17/17 22/22/22 16/16/16
f 22/22/22 17/17/17 23/23/23
f 16/16/16 24/24/24 18/18/18
f 16/16/16 22/22/22 24/24/24
f 18/18/18 25/25/25 19/19/19
f 18/18/18 24/24/24 25/25/25
f 26/26/26 20/20/20 19/19/19
f 19/19/19 25/25/25 26/26/26
f 27/27/27 21/21/21 20/20/20
f 27/27/27 20/20/20 26/26/26
f 28/28/28 21/21/21 27/27/27
f 29/29/29 22/22/22 23/23/23
f 29/29/29 23/23/23 30/30/30
f 22/22/22 31/31/31 24/24/24
f 31/31/31 22/22/22 29/29/29
f 24/24/24 32/32/32 25/25/25
f 24/24/24 31/31/31 32/32/32
f 25/25/25 33/33/33 26/26/26
f 25/25/25 32/32/32 33/33/33
f 34/34/34 27/27/27 26/26/26
f 26/26/26 33/33/33 34/34/34
f 35/35/35 28/28/28 27/27/27
f 35/35/35 27/27/27 34/34/34
f 36/36/36 28/28/28 35/35/35
f 37/37/37 29/29/29 30/30/30
f 37/37/37 30/30/30 38/38/38
f 39/39/39 37/37/37 38/38/38
f 40/40/40 31/31/31 29/29/29
f 40/40/40 29/29/29 37/37/37
f 41/41/41 37/37/37 39/39/39
f 41/41/41 40/40/40 37/37/37
f 42/42/42 41/41/41 39/39/39
f 43/43/43 36/36/36 35/35/35
f 44/44/44 36/36/36 43/43/43
f 45/45/45 35/35/35 34/34/34
f 43/43/43 35/35/35 45/45/45
f 46/46/46 31/31/31 40/40/40
f 31/31/31 46/46/46 32/32/32
f 47/47/47 41/41/41 42/42/42
f 48/48/48 47/47/47 42/42/42
f 49/49/49 40/40/40 41/41/41
f 49/49/49 46/46/46 40/40/40
f 47/47/47 49/49/49 41/41/41
f 50/50/50 44/44/44 43/43/43
f 51/51/51 44/44/44 50/50/50
f 32/32/32 46/46/46 52/52/52
f 32/32/32 52/52/52 33/33/33
f 53/53/53 47/47/47 48/48/48
f 54/54/54 53/53/53 48/48/48
f 55/55/55 49/49/49 47/47/47
f 53/53/53 55/55/55 47/47/47
f 56/56/56 46/46/46 49/49/49
f 46/46/46 56/56/56 52/52/52
f 55/55/55 56/56/56 49/49/49
f 33/33/33 52/52/52 57/57/57
f 33/33/33 57/57/57 34/34/34
f 34/34/34 57/57/57 45/45/45
f 58/58/58 53/53/53 54/54/54
f 59/59/59 58/58/58 54/54/54
f 52/52/52 56/56/56 60/60/60
f 52/52/52 60/60/60 57/57/57
f 61/61/61 55/55/55 53/53/53
f 58/58/58 61/61/61 53/53/53
f 62/62/62 56/56/56 55/55/55
f 56/56/56 62/62/62 60/60/60
f 61/61/61 62/62/62 55/55/55
f 57/57/57 63/63/63 45/45/45
f 57/57/57 60/60/60 63/63/63
f 64/64/64 58/58/58 59/59/59
f 65/65/65 64/64/64 59/59/59
f 60/60/60 62/62/62 66/66/66
f 60/60/60 66/66/66 63/63/63
f 67/67/67 61/61/61 58/58/58
f 64/64/64 67/67/67 58/58/58
f 68/68/68 62/62/62 61/61/61
f 62/62/62 68/68/68 66/66/66
f 67/67/67 68/68/68 61/61/61
f 45/45/45 63/63/63 69/69/69
f 69/69/69 43/43/43 45/45/45
f 50/50/50 43/43/43 69/69/69
f 70/70/70 64/64/64 65/65/65
f 71/71/71 70/70/70 65/65/65
f 63/63/63 66/66/66 72/72/72
f 63/63/63 72/72/72 69/69/69
f 66/66/66 68/68/68 73/73/73
f 66/66/66 73/73/73 72/72/72
f 74/74/74 67/67/67 64/64/64
f 70/70/70 74/74/74 64/64/64
f 75/75/75 68/68/68 67/67/67
f 68/68/68 75/75/75 73/73/73
f 74/74/74 75/75/75 67/67/67
f 76/76/76 50/50/50 69/69/69
f 69/69/69 72/72/72 76/76/76
f 77/77/77 70/70/70 71/71/71
f 78/78/78 77/77/77 71/71/71
f 72/72/72 73/73/73 79/79/79
f 72/72/72 79/79/79 76/76/76
f 73/73/73 75/75/75 80/80/80
f 73/73/73 80/80/80 79/79/79
f 81/81/81 74/74/74 70/70/70
f 77/77/77 81/81/81 70/70/70
f 82/82/82 75/75/75 74/74/74
f 75/75/75 82/82/82 80/80/80
f 81/81/81 82/82/82 74/74/74
f 83/83/83 77/77/77 78/78/78
f 84/84/84 83/83/83 78/78/78
f 79/79/79 80/80/80 85/85/85
f 79/79/79 85/85/85 76/76/76
f 80/80/80 82/82/82 86/86/86
f 80/80/80 86/86/86 85/85/85
f 87/87/87 81/81/81 77/77/77
f 83/83/83 87/87/87 77/77/77
f 88/88/88 82/82/82 81/81/81
f 82/82/82 88/88/88 86/86/86
f 87/87/87 88/88/88 81/81/81
f 89/89/89 83/83/83 84/84/84
f 90/90/90 89/89/89 84/84/84
f 91/91/91 87/87/87 83/83/83
f 89/89/89 91/91/91 83/83/83
f 92/92/92 88/88/88 87/87/87
f 91/91/91 92/92/92 87/87/87
f 86/86/86 88/88/88 93/93/93
f 88/88/88 92/92/92 93/93/93
f 94/94/94 89/89/89 90/90/90
f 95/95/95 94/94/94 90/90/90
f 96/96/96 91/91/91 89/89/89
f 94/94/94 96/96/96 89/89/89
f 97/97/97 92/92/92 91/91/91
f 96/96/96 97/97/97 91/91/91
f 98/98/98 94/94/94 95/95/95
f 99/99/99 98/98/98 95/95/95
f 100/100/100 96/96/96 94/94/94
f 98/98/98 100/100/100 94/94/94
f 101/101/101 98/98/98 99/99/99
f 102/102/102 101/101/101 99/99/99
f 86/86/86 93/93/93 103/103/103
f 85/85/85 86/86/86 103/103/103
f 93/93/93 92/92/92 104/104/104
f 92/92/92 97/97/97 104/104/104
f 105/105/105 97/97/97 96/96/96
f 100/100/100 105/105/105 96/96/96
f 106/106/106 100/100/100 98/98/98
f 101/101/101 106/106/106 98/98/98
f 107/107/107 101/101/101 102/102/102
f 108/108/108 107/107/107 102/102/102
f 103/103/103 93/93/93 109/109/109
f 93/93/93 104/104/104 109/109/109
f 85/85/85 103/103/103 110/110/110
f 110/110/110 103/103/103 109/109/109
f 104/104/104 97/97/97 111/111/111
f 97/97/97 105/105/105 111/111/111
f 112/112/112 105/105/105 100/100/100
f 106/106/106 112/112/112 100/100/100
f 113/113/113 106/106/106 101/101/101
f 107/107/107 113/113/113 101/101/101
f 114/114/114 107/107/107 108/108/108
f 115/115/115 114/114/114 108/108/108
f 116/116/116 114/114/114 115/115/115
f 117/117/117 116/116/116 115/115/115
f 116/116/116 118/118/118 114/114/114
f 114/114/114 119/119/119 107/107/107
f 118/118/118 119/119/119 114/114/114
f 119/119/119 113/113/113 107/107/107
f 118/118/118 120/120/120 119/119/119
f 120/120/120 121/121/121 119/119/119
f 119/119/119 121/121/121 113/113/113
f 121/121/121 120/120/120 122/122/122
f 113/113/113 123/123/123 106/106/106
f 121/121/121 123/123/123 113/113/113
f 123/123/123 112/112/112 106/106/106
f 124/124/124 121/121/121 122/122/122
f 123/123/123 121/121/121 124/124/124
f 124/124/124 122/122/122 125/125/125
f 112/112/112 123/123/123 126/126/126
f 126/126/126 123/123/123 124/124/124
f 127/127/127 124/124/124 125/125/125
f 126/126/126 124/124/124 127/127/127
f 127/127/127 125/125/125 128/128/128
f 129/129/129 112/112/112 126/126/126
f 105/105/105 112/112/112 129/129/129
f 111/111/111 105/105/105 129/129/129
f 130/130/130 127/127/127 128/128/128
f 128/128/128 131/131/131 130/130/130
f 132/132/132 126/126/126 127/127/127
f 129/129/129 126/126/126 132/132/132
f 132/132/132 127/127/127 130/130/130
f 111/111/111 129/129/129 133/133/133
f 133/133/133 129/129/129 132/132/132
f 131/131/131 134/134/134 130/130/130
f 131/131/131 135/135/135 134/134/134
f 135/135/135 136/136/136 134/134/134
f 137/137/137 132/132/132 130/130/130
f 130/130/130 134/134/134 137/137/137
f 133/133/133 132/132/132 137/137/137
f 134/134/134 136/136/136 138/138/138
f 134/134/134 138/138/138 137/137/137
f 136/136/136 139/139/139 138/138/138
f 140/140/140 111/111/111 133/133/133
f 104/104/104 111/111/111 140/140/140
f 109/109/109 104/104/104 140/140/140
f 141/141/141 133/133/133 137/137/137
f 137/137/137 138/138/138 141/141/141
f 140/140/140 133/133/133 141/141/141
f 138/138/138 139/139/139 142/142/142
f 138/138/138 142/142/142 141/141/141
f 139/139/139 143/143/143 142/142/142
f 144/144/144 140/140/140 141/141/141
f 109/109/109 140/140/140 144/144/144
f 141/141/141 142/142/142 144/144/144
f 142/142/142 143/143/143 145/145/145
f 142/142/142 145/145/145 144/144/144
f 143/143/143 146/146/146 145/145/145
f 147/147/147 109/109/109 144/144/144
f 144/144/144 145/145/145 147/147/147
f 147/147/147 110/110/110 109/109/109
f 145/145/145 146/146/146 148/148/148
f 145/145/145 148/148/148 147/147/147
f 147/147/147 148/148/148 110/110/110
f 146/146/146 149/149/149 148/148/148
f 148/148/148 149/149/149 150/150/150
f 148/148/148 150/150/150 110/110/110
f 149/149/149 151/151/151 150/150/150
f 110/110/110 150/150/150 152/152/152
f 152/152/152 85/85/85 110/110/110
f 85/85/85 152/152/152 76/76/76
f 150/150/150 151/151/151 153/153/153
f 150/150/150 153/153/153 152/152/152
f 152/152/152 153/153/153 76/76/76
f 151/151/151 51/51/51 153/153/153
f 153/153/153 50/50/50 76/76/76
f 153/153/153 51/51/51 50/50/50
f 156/156/156 155/155/155 154/154/154
f 154/154/154 155/155/155 157/157/157
f 158/158/158 155/155/155 156/156/156
f 157/157/157 155/155/155 159/159/159
f 160/160/160 155/155/155 158/158/158
f 159/159/159 155/155/155 161/161/161
f 162/162/162 155/155/155 160/160/160
f 161/161/161 155/155/155 163/163/163
f 164/164/164 155/155/155 162/162/162
f 163/163/163 155/155/155 165/165/165
f 166/166/166 155/155/155 164/164/164
f 165/165/165 155/155/155 167/167/167
f 168/168/168 155/155/155 166/166/166
f 167/167/167 155/155/155 169/169/169
f 170/170/170 155/155/155 168/168/168
f 169/169/169 155/155/155 170/170/170
