g ChemistryBeaker_0
v -0.07681846 -9.630992E-08 -0.009178557
v -0.0681214 -9.757648E-08 -0.01423853
v -0.06293596 0.02606894 -0.01423854
v -0.07097099 0.02939715 -0.009178562
v -0.0804209 -9.416209E-08 0.003037304
v -0.04816907 0.04816917 -0.01423854
v -0.0742992 0.03077575 0.003037299
v -0.07798137 -6.286116E-08 0.1898172
v -0.05431882 0.05431891 -0.009178567
v -0.02606883 0.0629361 -0.01423854
v -0.02939706 0.07097112 -0.009178569
v 1.52618E-07 0.06812153 -0.01423854
v -0.05686613 0.05686623 0.003037295
v -0.07204537 0.02984223 0.1898172
v 1.54488E-07 0.07681862 -0.00917857
v 0.02606914 0.06293609 -0.01423854
v -0.03077566 0.07429934 0.003037292
v 0.02939737 0.07097112 -0.009178569
v 0.04816939 0.04816918 -0.01423854
v -0.06782277 0.02809317 0.1943006
v -0.07341085 -6.214064E-08 0.1943006
v -0.06759 -6.191159E-08 0.1935655
v -0.05514112 0.05514127 0.1898172
v 1.552547E-07 0.08042105 0.003037291
v 0.05431913 0.05431893 -0.009178567
v 0.06293628 0.02606894 -0.01423854
v -0.06244499 0.02586562 0.1935655
v -0.06255792 -6.161765E-08 0.1910466
v -0.05190928 0.05190942 0.1943006
v -0.02984208 0.07204557 0.1898172
v -0.05779598 0.02393993 0.1910466
v -0.05722031 -6.375866E-08 0.1744578
v -0.05286465 0.02189731 0.1744578
v -0.02809302 0.06782297 0.1943006
v -0.04779333 0.04779346 0.1935655
v -0.04423511 0.04423523 0.1910466
v -0.04046084 0.04046096 0.1744578
v -0.02586547 0.06244519 0.1935655
v -0.02393978 0.05779615 0.1910466
v -0.02189717 0.05286484 0.1744578
v 1.559637E-07 0.07341106 0.1943006
v 1.564607E-07 0.06255811 0.1910466
v 1.567506E-07 0.05722049 0.1744578
v 1.558664E-07 0.06759018 0.1935655
v 1.566973E-07 0.07798157 0.1898172
v 0.02394011 0.05779615 0.1910466
v 0.02189749 0.05286483 0.1744578
v 0.0258658 0.06244519 0.1935655
v 0.02809335 0.06782296 0.1943006
v 0.0298424 0.07204557 0.1898172
v 0.04423542 0.04423524 0.1910466
v 0.04046116 0.04046098 0.1744578
v 0.04779362 0.04779347 0.1935655
v 0.05190959 0.05190944 0.1943006
v 0.05779631 0.02393993 0.1910466
v 0.05286499 0.02189731 0.1744578
v 0.06244533 0.02586563 0.1935655
v 0.0678231 0.02809318 0.1943006
v 0.06255826 -4.769093E-08 0.1910466
v 0.05722065 -5.162574E-08 0.1744578
v 0.06759033 -4.656962E-08 0.1935655
v 0.05779633 -0.02394002 0.1910466
v 0.05286501 -0.0218974 0.1744578
v 0.05514143 0.05514129 0.1898172
v 0.07341119 -4.478874E-08 0.1943006
v 0.06244535 -0.02586571 0.1935655
v 0.04423545 -0.04423534 0.1910466
v 0.04046118 -0.04046108 0.1744578
v 0.07204569 0.02984224 0.1898172
v 0.05686644 0.05686624 0.003037295
v 0.06782312 -0.02809325 0.1943006
v 0.04779365 -0.04779356 0.1935655
v 0.02394013 -0.05779625 0.1910467
v 0.02189751 -0.05286493 0.1744578
v 0.03077597 0.07429935 0.003037292
v 0.07097132 0.02939716 -0.009178562
v 0.06812175 -8.280894E-08 -0.01423853
v 0.07429954 0.03077576 0.003037299
v 0.0768188 -7.79797E-08 -0.009178557
v 0.06293631 -0.0260691 -0.01423853
v 0.08042123 -7.434993E-08 0.003037304
v 0.07097135 -0.02939731 -0.009178553
v 0.04816941 -0.04816934 -0.01423853
v 0.0779817 -4.365001E-08 0.1898172
v 0.07429957 -0.0307759 0.003037309
v 0.05431915 -0.05431909 -0.009178548
v 0.02606918 -0.06293625 -0.01423852
v 0.07204574 -0.02984231 0.1898172
v 0.05686646 -0.0568664 0.003037313
v 0.0293974 -0.07097129 -0.009178546
v 1.716922E-07 -0.0681217 -0.01423852
v 0.05190962 -0.05190953 0.1943006
v 0.05514145 -0.05514137 0.1898172
v 0.03077599 -0.0742995 0.003037316
v 1.722799E-07 -0.07681878 -0.009178545
v -0.02606883 -0.06293625 -0.01423852
v 0.02809336 -0.06782306 0.1943006
v 0.02984242 -0.07204567 0.1898172
v 1.725106E-07 -0.08042122 0.003037317
v -0.02939704 -0.0709713 -0.009178546
v -0.04816905 -0.04816936 -0.01423853
v 0.02586581 -0.06244527 0.1935655
v 1.732824E-07 -0.07341117 0.1943006
v 1.734298E-07 -0.07798168 0.1898172
v -0.03077563 -0.07429951 0.003037316
v -0.0543188 -0.05431911 -0.009178548
v -0.06293594 -0.02606914 -0.01423853
v 1.729554E-07 -0.06759029 0.1935655
v -0.02809301 -0.06782307 0.1943006
v -0.02984206 -0.07204568 0.1898172
v -0.05686611 -0.05686642 0.003037313
v -0.07097098 -0.02939735 -0.009178553
v -0.0681214 -9.757648E-08 -0.01423853
v -0.07681846 -9.630992E-08 -0.009178557
v -0.0742992 -0.03077594 0.003037309
v -0.0804209 -9.416209E-08 0.003037304
v 1.726773E-07 -0.06255821 0.1910467
v 1.7216E-07 -0.0572206 0.1744578
v -0.02586546 -0.06244528 0.1935655
v -0.02393977 -0.05779626 0.1910467
v -0.02189716 -0.05286494 0.1744578
v -0.0551411 -0.0551414 0.1898172
v -0.07204536 -0.02984235 0.1898172
v -0.07798137 -6.286116E-08 0.1898172
v -0.07341085 -6.214064E-08 0.1943006
v -0.05190925 -0.05190955 0.1943006
v -0.06782276 -0.02809329 0.1943006
v -0.04779328 -0.04779358 0.1935655
v -0.04423508 -0.04423536 0.1910466
v -0.04046082 -0.04046109 0.1744578
v -0.06244499 -0.02586573 0.1935655
v -0.06759 -6.191159E-08 0.1935655
v -0.05779597 -0.02394004 0.1910466
v -0.05286465 -0.02189742 0.1744578
v -0.06255792 -6.161765E-08 0.1910466
v -0.05722031 -6.375866E-08 0.1744578
v -0.04046084 0.04046096 0.1744578
v 1.701279E-07 -5.303796E-08 0.1744578
v -0.05286465 0.02189731 0.1744578
v -0.02189717 0.05286484 0.1744578
v -0.05722031 -6.375866E-08 0.1744578
v 1.567506E-07 0.05722049 0.1744578
v -0.05286465 -0.02189742 0.1744578
v 0.02189749 0.05286483 0.1744578
v -0.04046082 -0.04046109 0.1744578
v 0.04046116 0.04046098 0.1744578
v -0.02189716 -0.05286494 0.1744578
v 0.05286499 0.02189731 0.1744578
v 1.7216E-07 -0.0572206 0.1744578
v 0.05722065 -5.162574E-08 0.1744578
v 0.02189751 -0.05286493 0.1744578
v 0.05286501 -0.0218974 0.1744578
v 0.04046118 -0.04046108 0.1744578
vt 0.8935387 0.2850524
vt 0.8914452 0.2850524
vt 0.8914452 0.2907768
vt 0.8935387 0.2907768
vt 0.8961883 0.2850524
vt 0.8914452 0.296501
vt 0.8961883 0.2907768
vt 0.9350518 0.2850524
vt 0.8935387 0.296501
vt 0.8914449 0.3022252
vt 0.8935387 0.3022252
vt 0.8914449 0.3079497
vt 0.8961883 0.296501
vt 0.9350518 0.2907768
vt 0.8935387 0.3079497
vt 0.8914449 0.3136739
vt 0.8961881 0.3022252
vt 0.8935387 0.3136739
vt 0.8914449 0.3193983
vt 0.936384 0.2907768
vt 0.936384 0.2850524
vt 0.9376042 0.2850524
vt 0.9350518 0.296501
vt 0.8961881 0.3079497
vt 0.8935387 0.3193983
vt 0.8914449 0.3251226
vt 0.9376042 0.2907768
vt 0.9387752 0.2850524
vt 0.936384 0.296501
vt 0.9350518 0.3022252
vt 0.9387752 0.2907768
vt 0.9424009 0.2850524
vt 0.9424009 0.2907768
vt 0.9363838 0.3022252
vt 0.9376042 0.296501
vt 0.9387752 0.296501
vt 0.9424009 0.296501
vt 0.9376042 0.3022252
vt 0.9387752 0.3022252
vt 0.9424008 0.3022252
vt 0.9363838 0.3079497
vt 0.9387752 0.3079497
vt 0.9424008 0.3079497
vt 0.9376042 0.3079497
vt 0.9350518 0.3079497
vt 0.9387752 0.3136739
vt 0.9424008 0.3136739
vt 0.9376042 0.3136739
vt 0.9363838 0.3136739
vt 0.9350518 0.3136739
vt 0.9387752 0.3193984
vt 0.9424008 0.3193984
vt 0.9376042 0.3193984
vt 0.9363838 0.3193984
vt 0.9387752 0.3251227
vt 0.9424008 0.3251227
vt 0.9376042 0.3251227
vt 0.9363838 0.3251227
vt 0.9387752 0.3308469
vt 0.9424008 0.3308469
vt 0.9376042 0.3308469
vt 0.9387752 0.3365713
vt 0.9424008 0.3365713
vt 0.9350518 0.3193984
vt 0.9363838 0.3308469
vt 0.9376042 0.3365713
vt 0.9387752 0.3422956
vt 0.9424008 0.3422956
vt 0.9350518 0.3251227
vt 0.8961881 0.3193983
vt 0.9363838 0.3365713
vt 0.9376042 0.3422956
vt 0.9387752 0.3480197
vt 0.9424008 0.3480197
vt 0.8961881 0.3136739
vt 0.8935387 0.3251226
vt 0.8914449 0.3308468
vt 0.8961881 0.3251226
vt 0.8935387 0.3308468
vt 0.8914449 0.3365713
vt 0.8961881 0.3308468
vt 0.8935387 0.3365713
vt 0.8914449 0.3422956
vt 0.9350518 0.3308469
vt 0.8961881 0.3365713
vt 0.8935387 0.3422956
vt 0.8914449 0.3480197
vt 0.9350518 0.3365713
vt 0.8961881 0.3422956
vt 0.8935387 0.3480197
vt 0.8914449 0.353744
vt 0.9363838 0.3422956
vt 0.9350518 0.3422956
vt 0.8961881 0.3480197
vt 0.8935387 0.353744
vt 0.8914449 0.3594684
vt 0.9363838 0.3480197
vt 0.9350518 0.3480197
vt 0.8961881 0.353744
vt 0.8935387 0.3594684
vt 0.8914449 0.3651927
vt 0.9376042 0.3480197
vt 0.9363838 0.353744
vt 0.9350518 0.353744
vt 0.8961881 0.3594684
vt 0.8935386 0.3651927
vt 0.8914449 0.370917
vt 0.9376042 0.353744
vt 0.9363838 0.3594685
vt 0.9350518 0.3594685
vt 0.8961881 0.3651927
vt 0.8935386 0.370917
vt 0.8914449 0.3766414
vt 0.8935385 0.3766414
vt 0.8961881 0.370917
vt 0.8961881 0.3766414
vt 0.9387752 0.353744
vt 0.9424008 0.353744
vt 0.9376042 0.3594685
vt 0.9387752 0.3594685
vt 0.9424008 0.3594685
vt 0.9350517 0.3651927
vt 0.9350517 0.370917
vt 0.9350516 0.3766414
vt 0.9363838 0.3766414
vt 0.9363838 0.3651927
vt 0.9363838 0.370917
vt 0.9376042 0.3651927
vt 0.9387752 0.3651927
vt 0.9424007 0.3651927
vt 0.9376042 0.370917
vt 0.9376042 0.3766414
vt 0.9387752 0.370917
vt 0.9424007 0.370917
vt 0.9387752 0.3766414
vt 0.9424007 0.3766414
vt 0.02450325 0.08161068
vt 0.0133125 0.07938474
vt 0.02279956 0.08572379
vt 0.02450331 0.07715877
vt 0.01965156 0.08887177
vt 0.02279956 0.07304554
vt 0.01553849 0.09057551
vt 0.01965159 0.06989762
vt 0.01108652 0.09057561
vt 0.01553849 0.06819399
vt 0.006973414 0.08887177
vt 0.01108652 0.06819399
vt 0.003825447 0.0857239
vt 0.006973445 0.06989762
vt 0.002121693 0.08161068
vt 0.003825447 0.07304563
vt 0.002121753 0.07715872
vn -0.8030728 0 -0.5958808
vn -0.5028839 0 -0.864354
vn -0.4646043 0.1924451 -0.8643539
vn -0.7419428 0.3073222 -0.5958809
vn -0.9909832 0 -0.133986
vn -0.3555929 0.3555923 -0.864354
vn -0.9155493 0.3792324 -0.1339862
vn -0.9262204 0 0.3769823
vn -0.5678586 0.5678579 -0.595881
vn -0.1924455 0.4646036 -0.8643543
vn -0.3073231 0.7419422 -0.5958811
vn 0 0.5028831 -0.8643544
vn -0.7007315 0.7007305 -0.1339863
vn -0.8557159 0.354449 0.376983
vn 0 0.8030726 -0.5958811
vn 0.1924453 0.4646037 -0.8643543
vn -0.3792333 0.9155489 -0.1339862
vn 0.3073228 0.7419422 -0.5958812
vn 0.3555927 0.3555925 -0.864354
vn -0.338612 0.1402581 0.9304137
vn -0.3665118 0 0.9304134
vn 0.2711104 0 0.9625483
vn -0.6549369 0.6549364 0.3769826
vn 0 0.9909831 -0.1339862
vn 0.5678582 0.5678581 -0.5958812
vn 0.4646042 0.1924452 -0.864354
vn 0.2504725 -0.1037488 0.9625486
vn 0.7370055 0 0.6758868
vn -0.259163 0.259163 0.9304134
vn -0.3544497 0.8557159 0.3769825
vn 0.6809037 -0.282039 0.6758877
vn 0.9519366 0 0.3062952
vn 0.8794749 -0.3642897 0.3062955
vn -0.1402584 0.3386129 0.9304133
vn 0.1917027 -0.1917026 0.9625488
vn 0.5211408 -0.5211403 0.6758882
vn 0.6731213 -0.6731202 0.3062955
vn 0.1037489 -0.2504719 0.9625487
vn 0.2820396 -0.6809033 0.6758878
vn 0.3642907 -0.8794745 0.3062955
vn 0 0.366512 0.9304133
vn 0 -0.7370048 0.6758876
vn 0 -0.9519364 0.3062956
vn 0 -0.2711091 0.9625486
vn 0 0.9262204 0.3769825
vn -0.28204 -0.6809033 0.6758875
vn -0.3642905 -0.8794746 0.3062954
vn -0.1037495 -0.2504719 0.9625486
vn 0.1402577 0.3386126 0.9304135
vn 0.3544492 0.8557159 0.3769827
vn -0.5211418 -0.5211405 0.6758873
vn -0.6731208 -0.6731206 0.3062953
vn -0.1917038 -0.1917028 0.9625486
vn 0.2591623 0.2591631 0.9304136
vn -0.6809036 -0.2820394 0.6758877
vn -0.8794749 -0.3642901 0.3062951
vn -0.2504723 -0.1037488 0.9625486
vn 0.338613 0.1402582 0.9304133
vn -0.737005 0 0.6758873
vn -0.9519366 0 0.306295
vn -0.2711097 0 0.9625485
vn -0.6809048 0.2820392 0.6758866
vn -0.8794751 0.3642896 0.3062952
vn 0.6549364 0.6549367 0.3769829
vn 0.3665119 0 0.9304134
vn -0.2504729 0.1037492 0.9625484
vn -0.5211421 0.5211415 0.6758865
vn -0.673121 0.6731205 0.3062954
vn 0.8557162 0.354449 0.3769823
vn 0.7007312 0.7007307 -0.1339865
vn 0.3386132 -0.1402575 0.9304133
vn -0.1917031 0.1917039 0.9625485
vn -0.2820397 0.6809041 0.6758869
vn -0.3642906 0.8794747 0.3062952
vn 0.3792331 0.915549 -0.1339864
vn 0.7419426 0.3073225 -0.595881
vn 0.502884 0 -0.864354
vn 0.9155492 0.3792327 -0.1339862
vn 0.8030729 0 -0.5958807
vn 0.4646042 -0.1924454 -0.8643539
vn 0.9909832 0 -0.133986
vn 0.7419426 -0.3073226 -0.5958808
vn 0.3555928 -0.3555926 -0.8643539
vn 0.9262205 0 0.3769823
vn 0.9155493 -0.3792324 -0.133986
vn 0.5678584 -0.5678582 -0.5958808
vn 0.1924455 -0.4646037 -0.8643541
vn 0.8557163 -0.3544485 0.3769827
vn 0.7007311 -0.7007309 -0.133986
vn 0.307323 -0.7419424 -0.5958809
vn 0 -0.5028831 -0.8643544
vn 0.2591641 -0.2591625 0.9304132
vn 0.654937 -0.6549363 0.3769827
vn 0.3792334 -0.9155489 -0.1339859
vn 0 -0.8030727 -0.5958812
vn -0.1924452 -0.4646036 -0.8643543
vn 0.1402584 -0.3386128 0.9304134
vn 0.3544496 -0.8557158 0.3769827
vn 0 -0.9909832 -0.133986
vn -0.3073227 -0.7419423 -0.5958812
vn -0.3555923 -0.3555925 -0.8643541
vn -0.103749 0.2504727 0.9625485
vn 0 -0.3665122 0.9304133
vn 0 -0.9262203 0.3769827
vn -0.3792331 -0.915549 -0.1339861
vn -0.5678582 -0.5678582 -0.595881
vn -0.4646039 -0.1924454 -0.8643541
vn 0 0.2711092 0.9625486
vn -0.1402577 -0.3386127 0.9304135
vn -0.3544493 -0.8557159 0.3769828
vn -0.7007309 -0.7007309 -0.1339861
vn -0.7419425 -0.3073227 -0.5958809
vn -0.5028839 0 -0.864354
vn -0.8030728 0 -0.5958808
vn -0.9155492 -0.3792328 -0.133986
vn -0.9909832 0 -0.133986
vn 0 0.7370051 0.6758872
vn 0 0.9519365 0.3062953
vn 0.1037494 0.2504727 0.9625485
vn 0.2820395 0.6809041 0.6758872
vn 0.3642907 0.8794745 0.3062956
vn -0.6549369 -0.6549364 0.3769827
vn -0.8557163 -0.3544488 0.376982
vn -0.9262204 0 0.3769823
vn -0.3665118 0 0.9304134
vn -0.2591635 -0.2591626 0.9304134
vn -0.338614 -0.1402576 0.9304129
vn 0.1917035 0.1917038 0.9625484
vn 0.5211419 0.5211415 0.6758865
vn 0.673121 0.6731206 0.3062954
vn 0.2504728 0.1037494 0.9625484
vn 0.2711104 0 0.9625483
vn 0.6809048 0.2820395 0.6758865
vn 0.8794748 0.3642901 0.3062953
vn 0.7370055 0 0.6758868
vn 0.9519366 0 0.3062952
vn 0 0 1
vn 0 0 1
vn 0 0 1
vn 0 0 1
vn 0 0 1
vn 0 0 1
vn 0 0 1
vn 0 0 1
vn 0 0 1
vn 0 0 1
vn 0 0 1
vn 0 0 1
vn 0 0 1
vn 0 0 1
vn 0 0 1
vn 0 0 1
vn 0 0 1
g ChemistryBeaker_0_0
f 3/3/3 2/2/2 1/1/1
f 4/4/4 3/3/3 1/1/1
f 4/4/4 1/1/1 5/5/5
f 6/6/6 3/3/3 4/4/4
f 7/7/7 4/4/4 5/5/5
f 5/5/5 8/8/8 7/7/7
f 9/9/9 6/6/6 4/4/4
f 9/9/9 4/4/4 7/7/7
f 10/10/10 6/6/6 9/9/9
f 11/11/11 10/10/10 9/9/9
f 12/12/12 10/10/10 11/11/11
f 13/13/13 9/9/9 7/7/7
f 11/11/11 9/9/9 13/13/13
f 8/8/8 14/14/14 7/7/7
f 7/7/7 14/14/14 13/13/13
f 15/15/15 12/12/12 11/11/11
f 16/16/16 12/12/12 15/15/15
f 17/17/17 11/11/11 13/13/13
f 15/15/15 11/11/11 17/17/17
f 18/18/18 16/16/16 15/15/15
f 19/19/19 16/16/16 18/18/18
f 20/20/20 14/14/14 8/8/8
f 21/21/21 20/20/20 8/8/8
f 20/20/20 21/21/21 22/22/22
f 14/14/14 23/23/23 13/13/13
f 13/13/13 23/23/23 17/17/17
f 24/24/24 15/15/15 17/17/17
f 18/18/18 15/15/15 24/24/24
f 25/25/25 19/19/19 18/18/18
f 26/26/26 19/19/19 25/25/25
f 27/27/27 20/20/20 22/22/22
f 27/27/27 22/22/22 28/28/28
f 20/20/20 29/29/29 14/14/14
f 29/29/29 23/23/23 14/14/14
f 29/29/29 20/20/20 27/27/27
f 23/23/23 30/30/30 17/17/17
f 17/17/17 30/30/30 24/24/24
f 31/31/31 27/27/27 28/28/28
f 31/31/31 28/28/28 32/32/32
f 33/33/33 31/31/31 32/32/32
f 29/29/29 34/34/34 23/23/23
f 34/34/34 30/30/30 23/23/23
f 35/35/35 29/29/29 27/27/27
f 35/35/35 27/27/27 31/31/31
f 34/34/34 29/29/29 35/35/35
f 36/36/36 31/31/31 33/33/33
f 36/36/36 35/35/35 31/31/31
f 37/37/37 36/36/36 33/33/33
f 38/38/38 34/34/34 35/35/35
f 38/38/38 35/35/35 36/36/36
f 39/39/39 36/36/36 37/37/37
f 39/39/39 38/38/38 36/36/36
f 40/40/40 39/39/39 37/37/37
f 34/34/34 41/41/41 30/30/30
f 41/41/41 34/34/34 38/38/38
f 42/42/42 39/39/39 40/40/40
f 43/43/43 42/42/42 40/40/40
f 44/44/44 38/38/38 39/39/39
f 44/44/44 41/41/41 38/38/38
f 42/42/42 44/44/44 39/39/39
f 41/41/41 45/45/45 30/30/30
f 30/30/30 45/45/45 24/24/24
f 46/46/46 42/42/42 43/43/43
f 47/47/47 46/46/46 43/43/43
f 48/48/48 44/44/44 42/42/42
f 46/46/46 48/48/48 42/42/42
f 49/49/49 41/41/41 44/44/44
f 41/41/41 49/49/49 45/45/45
f 48/48/48 49/49/49 44/44/44
f 45/45/45 50/50/50 24/24/24
f 49/49/49 50/50/50 45/45/45
f 51/51/51 46/46/46 47/47/47
f 52/52/52 51/51/51 47/47/47
f 53/53/53 48/48/48 46/46/46
f 51/51/51 53/53/53 46/46/46
f 54/54/54 49/49/49 48/48/48
f 49/49/49 54/54/54 50/50/50
f 53/53/53 54/54/54 48/48/48
f 55/55/55 51/51/51 52/52/52
f 56/56/56 55/55/55 52/52/52
f 57/57/57 53/53/53 51/51/51
f 55/55/55 57/57/57 51/51/51
f 58/58/58 54/54/54 53/53/53
f 57/57/57 58/58/58 53/53/53
f 59/59/59 55/55/55 56/56/56
f 60/60/60 59/59/59 56/56/56
f 61/61/61 57/57/57 55/55/55
f 59/59/59 61/61/61 55/55/55
f 62/62/62 59/59/59 60/60/60
f 63/63/63 62/62/62 60/60/60
f 54/54/54 64/64/64 50/50/50
f 54/54/54 58/58/58 64/64/64
f 65/65/65 58/58/58 57/57/57
f 61/61/61 65/65/65 57/57/57
f 66/66/66 61/61/61 59/59/59
f 62/62/62 66/66/66 59/59/59
f 67/67/67 62/62/62 63/63/63
f 68/68/68 67/67/67 63/63/63
f 58/58/58 69/69/69 64/64/64
f 58/58/58 65/65/65 69/69/69
f 50/50/50 64/64/64 70/70/70
f 70/70/70 64/64/64 69/69/69
f 71/71/71 65/65/65 61/61/61
f 66/66/66 71/71/71 61/61/61
f 72/72/72 66/66/66 62/62/62
f 67/67/67 72/72/72 62/62/62
f 73/73/73 67/67/67 68/68/68
f 74/74/74 73/73/73 68/68/68
f 75/75/75 50/50/50 70/70/70
f 50/50/50 75/75/75 24/24/24
f 75/75/75 18/18/18 24/24/24
f 25/25/25 18/18/18 75/75/75
f 70/70/70 25/25/25 75/75/75
f 76/76/76 25/25/25 70/70/70
f 76/76/76 26/26/26 25/25/25
f 77/77/77 26/26/26 76/76/76
f 78/78/78 76/76/76 70/70/70
f 78/78/78 70/70/70 69/69/69
f 79/79/79 77/77/77 76/76/76
f 79/79/79 76/76/76 78/78/78
f 80/80/80 77/77/77 79/79/79
f 78/78/78 69/69/69 81/81/81
f 81/81/81 79/79/79 78/78/78
f 82/82/82 80/80/80 79/79/79
f 82/82/82 79/79/79 81/81/81
f 83/83/83 80/80/80 82/82/82
f 69/69/69 84/84/84 81/81/81
f 65/65/65 84/84/84 69/69/69
f 65/65/65 71/71/71 84/84/84
f 85/85/85 82/82/82 81/81/81
f 81/81/81 84/84/84 85/85/85
f 86/86/86 83/83/83 82/82/82
f 86/86/86 82/82/82 85/85/85
f 87/87/87 83/83/83 86/86/86
f 71/71/71 88/88/88 84/84/84
f 84/84/84 88/88/88 85/85/85
f 89/89/89 86/86/86 85/85/85
f 85/85/85 88/88/88 89/89/89
f 90/90/90 87/87/87 86/86/86
f 90/90/90 86/86/86 89/89/89
f 91/91/91 87/87/87 90/90/90
f 71/71/71 92/92/92 88/88/88
f 92/92/92 71/71/71 66/66/66
f 72/72/72 92/92/92 66/66/66
f 88/88/88 93/93/93 89/89/89
f 92/92/92 93/93/93 88/88/88
f 94/94/94 90/90/90 89/89/89
f 89/89/89 93/93/93 94/94/94
f 95/95/95 91/91/91 90/90/90
f 95/95/95 90/90/90 94/94/94
f 96/96/96 91/91/91 95/95/95
f 97/97/97 92/92/92 72/72/72
f 92/92/92 97/97/97 93/93/93
f 93/93/93 98/98/98 94/94/94
f 97/97/97 98/98/98 93/93/93
f 99/99/99 95/95/95 94/94/94
f 94/94/94 98/98/98 99/99/99
f 100/100/100 96/96/96 95/95/95
f 100/100/100 95/95/95 99/99/99
f 101/101/101 96/96/96 100/100/100
f 102/102/102 97/97/97 72/72/72
f 102/102/102 72/72/72 67/67/67
f 73/73/73 102/102/102 67/67/67
f 97/97/97 103/103/103 98/98/98
f 103/103/103 97/97/97 102/102/102
f 98/98/98 104/104/104 99/99/99
f 103/103/103 104/104/104 98/98/98
f 105/105/105 100/100/100 99/99/99
f 99/99/99 104/104/104 105/105/105
f 106/106/106 101/101/101 100/100/100
f 106/106/106 100/100/100 105/105/105
f 107/107/107 101/101/101 106/106/106
f 108/108/108 102/102/102 73/73/73
f 108/108/108 103/103/103 102/102/102
f 103/103/103 109/109/109 104/104/104
f 109/109/109 103/103/103 108/108/108
f 104/104/104 110/110/110 105/105/105
f 109/109/109 110/110/110 104/104/104
f 111/111/111 106/106/106 105/105/105
f 105/105/105 110/110/110 111/111/111
f 112/112/112 107/107/107 106/106/106
f 112/112/112 106/106/106 111/111/111
f 113/113/113 107/107/107 112/112/112
f 114/114/114 113/113/113 112/112/112
f 114/114/114 112/112/112 115/115/115
f 115/115/115 112/112/112 111/111/111
f 116/116/116 114/114/114 115/115/115
f 117/117/117 108/108/108 73/73/73
f 117/117/117 73/73/73 74/74/74
f 118/118/118 117/117/117 74/74/74
f 119/119/119 109/109/109 108/108/108
f 119/119/119 108/108/108 117/117/117
f 120/120/120 117/117/117 118/118/118
f 120/120/120 119/119/119 117/117/117
f 121/121/121 120/120/120 118/118/118
f 111/111/111 122/122/122 115/115/115
f 110/110/110 122/122/122 111/111/111
f 115/115/115 123/123/123 116/116/116
f 122/122/122 123/123/123 115/115/115
f 123/123/123 124/124/124 116/116/116
f 125/125/125 124/124/124 123/123/123
f 109/109/109 126/126/126 110/110/110
f 126/126/126 109/109/109 119/119/119
f 126/126/126 122/122/122 110/110/110
f 127/127/127 123/123/123 122/122/122
f 127/127/127 125/125/125 123/123/123
f 126/126/126 127/127/127 122/122/122
f 128/128/128 126/126/126 119/119/119
f 128/128/128 119/119/119 120/120/120
f 127/127/127 126/126/126 128/128/128
f 129/129/129 120/120/120 121/121/121
f 129/129/129 128/128/128 120/120/120
f 130/130/130 129/129/129 121/121/121
f 125/125/125 127/127/127 131/131/131
f 131/131/131 127/127/127 128/128/128
f 131/131/131 128/128/128 129/129/129
f 132/132/132 125/125/125 131/131/131
f 133/133/133 129/129/129 130/130/130
f 133/133/133 131/131/131 129/129/129
f 132/132/132 131/131/131 133/133/133
f 134/134/134 133/133/133 130/130/130
f 135/135/135 132/132/132 133/133/133
f 135/135/135 133/133/133 134/134/134
f 136/136/136 135/135/135 134/134/134
f 139/139/139 138/138/138 137/137/137
f 137/137/137 138/138/138 140/140/140
f 141/141/141 138/138/138 139/139/139
f 140/140/140 138/138/138 142/142/142
f 143/143/143 138/138/138 141/141/141
f 142/142/142 138/138/138 144/144/144
f 145/145/145 138/138/138 143/143/143
f 144/144/144 138/138/138 146/146/146
f 147/147/147 138/138/138 145/145/145
f 146/146/146 138/138/138 148/148/148
f 149/149/149 138/138/138 147/147/147
f 148/148/148 138/138/138 150/150/150
f 151/151/151 138/138/138 149/149/149
f 150/150/150 138/138/138 152/152/152
f 153/153/153 138/138/138 151/151/151
f 152/152/152 138/138/138 153/153/153
