g Combined Mesh (root: scene) 3
v -8.904808 -4.736479 40.5057
v -7.809656 -3.917064 39.66113
v -7.999097 -3.9358 40.67358
v -8.737125 -4.750876 39.48901
v -8.576151 -4.745508 38.62337
v -7.637436 -3.916021 38.79757
v -7.496128 -3.937072 37.80275
v -8.388028 -4.74348 37.65263
v -8.712926 -4.771522 39.49336
v -8.880741 -4.757234 40.51004
v -7.974943 -3.956182 40.67835
v -7.785412 -3.937437 39.6655
v -8.55197 -4.766167 38.62775
v -7.613207 -3.936404 38.80195
v -8.363895 -4.764091 37.65752
v -7.471959 -3.957527 37.80704
vt 0.5019531 0.9853516
vt 0.9995117 0.8168945
vt 0.9916992 0.9853516
vt 0.4941406 0.8168945
vt 0.4941406 0.6484375
vt 0.9995117 0.6484375
vt 0.9916992 0.4797363
vt 0.5019531 0.4797363
vt 0.0005002022 0.3374023
vt 0.008331299 0.5058594
vt 0.4980469 0.5058594
vt 0.5058594 0.3374023
vt 0.0005002022 0.1689453
vt 0.5058594 0.1689453
vt 0.008331299 0.0005002022
vt 0.4980469 0.0005002022
vn -0.6494141 0.7519531 -0.1127319
vn -0.6484375 0.7519531 -0.1173706
vn -0.6494141 0.7519531 -0.1127319
vn -0.6484375 0.7519531 -0.1173706
vn -0.6489258 0.7514648 -0.1191406
vn -0.6489258 0.7514648 -0.1191406
vn -0.6503906 0.7509766 -0.116272
vn -0.6503906 0.7509766 -0.116272
vn 0.6489258 -0.7519531 0.1174316
vn 0.6494141 -0.7519531 0.1127319
vn 0.6494141 -0.7519531 0.1127319
vn 0.6489258 -0.7519531 0.1174316
vn 0.6489258 -0.7514648 0.1191406
vn 0.6489258 -0.7514648 0.1192017
vn 0.6503906 -0.7504883 0.116272
vn 0.6503906 -0.7504883 0.116272
g Combined Mesh (root: scene) 3_0
f 3/3/3 2/2/2 1/1/1
f 2/2/2 4/4/4 1/1/1
f 4/4/4 2/2/2 5/5/5
f 2/2/2 6/6/6 5/5/5
f 5/5/5 6/6/6 7/7/7
f 8/8/8 5/5/5 7/7/7
g Combined Mesh (root: scene) 3_1
f 11/11/11 10/10/10 9/9/9
f 12/12/12 11/11/11 9/9/9
f 9/9/9 13/13/13 12/12/12
f 13/13/13 14/14/14 12/12/12
f 13/13/13 15/15/15 14/14/14
f 15/15/15 16/16/16 14/14/14
