g Combined Mesh (root: scene) 9
v -44.37919 -5.709131 63.90546
v -44.81137 -6.092699 63.62712
v -44.57592 -6.498806 63.73528
v -44.10132 -6.224729 64.03053
v -43.73918 -6.240113 64.84451
v -44.03991 -5.682509 64.74171
v -44.26886 -5.91069 64.14024
v -43.93663 -6.504533 64.27159
v 21.78251 -4.570092 31.93646
v 20.95971 -5.347564 32.18479
v 21.33962 -5.992112 31.73996
v 22.22683 -5.393844 31.39321
v 23.82896 -5.459129 31.53831
v 23.39925 -4.575435 32.15422
v 22.24986 -4.932016 31.8822
v 22.75252 -5.873316 31.22694
v -35.55674 -5.266823 27.37685
v -36.17405 -5.959896 26.6828
v -35.81666 -6.693696 26.98522
v -35.13372 -6.198463 27.72929
v -34.89803 -6.226261 29.32171
v -35.37165 -5.21872 28.99695
v -35.47853 -5.631022 27.83901
v -34.96392 -6.704046 28.22873
v 7.280791 -5.617296 1.312167
v 7.930749 -6.099049 1.531942
v 7.592045 -6.629236 1.557291
v 6.881976 -6.289815 1.350652
v 6.092391 -6.404535 0.5022416
v 6.510374 -5.681768 0.4205982
v 7.044864 -5.906054 1.099252
v 6.575748 -6.678225 1.164281
v -35.11816 -5.644188 -16.82605
v -34.61375 -6.145543 -17.26995
v -34.83387 -6.676359 -17.01258
v -35.37471 -6.318118 -16.52139
v -36.52752 -6.338226 -16.35697
v -36.29079 -5.609392 -16.69833
v -35.45277 -5.907642 -16.77124
v -35.73664 -6.683846 -16.40047
vt 0.9755859 0.1135864
vt 0.5498047 0.1444092
vt 0.5483398 0.4650879
vt 0.9599609 0.5117188
vt 0.918457 0.9580078
vt 0.9506836 0.5317383
vt 0.4980469 0.4936523
vt 0.4780273 0.9545898
vt 0.9755859 0.1135864
vt 0.5498047 0.1444092
vt 0.5483398 0.4650879
vt 0.9599609 0.5117188
vt 0.918457 0.9580078
vt 0.9506836 0.5317383
vt 0.4980469 0.4936523
vt 0.4780273 0.9545898
vt 0.9755859 0.1135864
vt 0.5498047 0.1444092
vt 0.5483398 0.4650879
vt 0.9599609 0.5117188
vt 0.918457 0.9580078
vt 0.9506836 0.5317383
vt 0.4980469 0.4936523
vt 0.4780273 0.9545898
vt 0.9755859 0.1135864
vt 0.5498047 0.1444092
vt 0.5483398 0.4650879
vt 0.9599609 0.5117188
vt 0.918457 0.9580078
vt 0.9506836 0.5317383
vt 0.4980469 0.4936523
vt 0.4780273 0.9545898
vt 0.9755859 0.1135864
vt 0.5498047 0.1444092
vt 0.5483398 0.4650879
vt 0.9599609 0.5117188
vt 0.918457 0.9580078
vt 0.9506836 0.5317383
vt 0.4980469 0.4936523
vt 0.4780273 0.9545898
vn 0.5014648 0.06100464 -0.862793
vn 0.5014648 0.06100464 -0.862793
vn 0.5014648 0.06100464 -0.862793
vn 0.5014648 0.06100464 -0.862793
vn 0.8188477 0.3591309 -0.447998
vn 0.8188477 0.3591309 -0.447998
vn 0.8188477 0.3591309 -0.447998
vn 0.8188477 0.3591309 -0.447998
vn -0.5029297 0.2700195 -0.8208008
vn -0.5029297 0.2700195 -0.8208008
vn -0.5029297 0.2700195 -0.8208008
vn -0.5029297 0.2700195 -0.8208008
vn 0.01450348 0.5766602 -0.8168945
vn 0.01450348 0.5766602 -0.8168945
vn 0.01450348 0.5766602 -0.8168945
vn 0.01450348 0.5766602 -0.8168945
vn 0.7148438 0.06100464 -0.6967773
vn 0.7148438 0.06100464 -0.6967773
vn 0.7148438 0.06100464 -0.6967773
vn 0.7148438 0.06100464 -0.6967773
vn 0.9091797 0.3591309 -0.211792
vn 0.9091797 0.3591309 -0.211792
vn 0.9091797 0.3591309 -0.211792
vn 0.9091797 0.3591309 -0.211792
vn -0.1982422 0.1727295 0.9648438
vn -0.1982422 0.1727295 0.9648438
vn -0.1982422 0.1727295 0.9648438
vn -0.1982422 0.1727295 0.9648438
vn -0.6308594 0.4372559 0.6411133
vn -0.6308594 0.4372559 0.6411133
vn -0.6308594 0.4372559 0.6411133
vn -0.6308594 0.4372559 0.6411133
vn 0.6928711 0.06100464 0.7182617
vn 0.6928711 0.06100464 0.7182617
vn 0.6928711 0.06100464 0.7182617
vn 0.6928711 0.06100464 0.7182617
vn 0.2069092 0.3591309 0.9101563
vn 0.2069092 0.3591309 0.9101563
vn 0.2069092 0.3591309 0.9101563
vn 0.2069092 0.3591309 0.9101563
g Combined Mesh (root: scene) 9_0
f 3/3/3 2/2/2 1/1/1
f 4/4/4 3/3/3 1/1/1
f 7/7/7 6/6/6 5/5/5
f 8/8/8 7/7/7 5/5/5
g Combined Mesh (root: scene) 9_1
f 11/11/11 10/10/10 9/9/9
f 12/12/12 11/11/11 9/9/9
f 15/15/15 14/14/14 13/13/13
f 16/16/16 15/15/15 13/13/13
g Combined Mesh (root: scene) 9_2
f 19/19/19 18/18/18 17/17/17
f 20/20/20 19/19/19 17/17/17
f 23/23/23 22/22/22 21/21/21
f 24/24/24 23/23/23 21/21/21
g Combined Mesh (root: scene) 9_3
f 27/27/27 26/26/26 25/25/25
f 28/28/28 27/27/27 25/25/25
f 31/31/31 30/30/30 29/29/29
f 32/32/32 31/31/31 29/29/29
g Combined Mesh (root: scene) 9_4
f 35/35/35 34/34/34 33/33/33
f 36/36/36 35/35/35 33/33/33
f 39/39/39 38/38/38 37/37/37
f 40/40/40 39/39/39 37/37/37
