g ComputerConsoleButtonBoard_1
v -1.032609 -0.7933007 0.9250995
v -1.032609 -0.9414974 0.9250996
v -1.068864 -0.9176675 0.9306793
v -1.068864 -0.8171307 0.9306792
v -1.160071 -0.7933008 0.8479687
v -1.151742 -0.8171307 0.8805276
v -1.151742 -0.9176676 0.8805277
v -1.160071 -0.9414975 0.8479688
v -0.9051474 -0.7933007 1.00223
v -0.9051474 -0.9414974 1.00223
v -0.941402 -0.9196876 1.00781
v -0.941402 -0.8151106 1.00781
v -1.406666 -0.8211713 0.7262663
v -1.323788 -0.8211712 0.7764179
v -1.323788 -0.9136271 0.7764179
v -1.406666 -0.9136271 0.7262663
v -1.160071 -0.7933008 0.8479687
v -1.032609 -0.7933007 0.9250995
v -1.068864 -0.8171307 0.9306792
v -1.151742 -0.8171307 0.8805276
v -1.287533 -0.7933008 0.7708381
v -1.287533 -0.9414975 0.7708382
v -1.323788 -0.9136271 0.7764179
v -1.323788 -0.8211712 0.7764179
v -1.196326 -0.8191509 0.8535486
v -1.196326 -0.9156474 0.8535487
v -1.279204 -0.9156474 0.8033969
v -1.279204 -0.8191509 0.8033968
v -1.287533 -0.7933008 0.7708381
v -1.160071 -0.7933008 0.8479687
v -1.196326 -0.8191509 0.8535486
v -1.279204 -0.8191509 0.8033968
v -1.02428 -0.8151106 0.9576582
v -0.941402 -0.8151106 1.00781
v -0.941402 -0.9196876 1.00781
v -1.02428 -0.9196876 0.9576582
v -1.160071 -0.7933008 0.8479687
v -1.160071 -0.9414975 0.8479688
v -1.196326 -0.9156474 0.8535487
v -1.196326 -0.8191509 0.8535486
v -1.414995 -0.7933009 0.6937073
v -1.287533 -0.7933008 0.7708381
v -1.323788 -0.8211712 0.7764179
v -1.406666 -0.8211713 0.7262663
v -1.032609 -0.7933007 0.9250995
v -0.9051474 -0.7933007 1.00223
v -0.941402 -0.8151106 1.00781
v -1.02428 -0.8151106 0.9576582
v -1.032609 -0.9414974 0.9250996
v -1.02428 -0.9196876 0.9576582
v -0.941402 -0.9196876 1.00781
v -0.9051474 -0.9414974 1.00223
v -1.02428 -0.8151106 0.9576582
v -1.02428 -0.9196876 0.9576582
v -1.032609 -0.9414974 0.9250996
v -1.032609 -0.7933007 0.9250995
v -1.151742 -0.8171307 0.8805276
v -1.068864 -0.8171307 0.9306792
v -1.068864 -0.9176675 0.9306793
v -1.151742 -0.9176676 0.8805277
v -1.414995 -0.9414976 0.6937074
v -1.406666 -0.9136271 0.7262663
v -1.323788 -0.9136271 0.7764179
v -1.287533 -0.9414975 0.7708382
v -1.160071 -0.9414975 0.8479688
v -1.151742 -0.9176676 0.8805277
v -1.068864 -0.9176675 0.9306793
v -1.032609 -0.9414974 0.9250996
v -1.287533 -0.9414975 0.7708382
v -1.279204 -0.9156474 0.8033969
v -1.196326 -0.9156474 0.8535487
v -1.160071 -0.9414975 0.8479688
v -1.414995 -0.7933009 0.6937073
v -1.406666 -0.8211713 0.7262663
v -1.406666 -0.9136271 0.7262663
v -1.414995 -0.9414976 0.6937074
v -1.287533 -0.7933008 0.7708381
v -1.279204 -0.8191509 0.8033968
v -1.279204 -0.9156474 0.8033969
v -1.287533 -0.9414975 0.7708382
v -0.8927555 -0.7690662 0.9896979
v -0.8799028 -0.7750262 0.9974754
v -0.8855043 -0.7750496 1.003109
v -0.8983964 -0.769066 0.995308
v -0.8917308 -0.7779049 1.007125
v -1.017412 -0.769066 0.9232887
v -1.011827 -0.7690661 0.9176446
v -0.9047265 -0.771856 0.999261
v -0.8987968 -0.7847086 1.006073
v -1.154659 -0.769066 0.8402368
v -1.149074 -0.7690662 0.8345932
v -1.022463 -0.7718455 0.9280151
v -0.9118785 -0.7785913 0.9981569
v -0.9051474 -0.7933007 1.00223
v -1.026761 -0.7785555 0.9286388
v -1.032609 -0.7933007 0.9250995
v -1.160177 -0.7785401 0.8479053
v -1.160071 -0.7933008 0.8479687
v -1.158588 -0.771841 0.8456422
v -1.293595 -0.7785494 0.7671703
v -1.287533 -0.7933008 0.7708381
v -1.294714 -0.7718436 0.7632688
v -1.40844 -0.7785795 0.6976744
v -1.414995 -0.7933009 0.6937073
v -1.421553 -0.7846856 0.6897393
v -1.425437 -0.7778928 0.6841649
v -1.412413 -0.7718525 0.692046
v -1.423803 -0.7750421 0.6773704
v -1.291906 -0.769066 0.7571846
v -1.286321 -0.7690662 0.7515405
v -1.410885 -0.7690661 0.6851872
v -1.418235 -0.7750187 0.6717161
v -1.405358 -0.7690662 0.6795088
v -1.423803 -0.7750421 0.6773704
v -1.423569 -0.7893897 0.6684886
v -1.418235 -0.7750187 0.6717161
v -1.429154 -0.7894695 0.6741325
v -1.425437 -0.7778928 0.6841649
v -1.429154 -0.945329 0.6741325
v -1.423569 -0.9454091 0.6684887
v -1.418235 -0.9597798 0.6717164
v -1.423803 -0.9597564 0.6773705
v -1.430832 -0.7924728 0.6809005
v -1.421553 -0.7846856 0.6897393
v -1.430832 -0.9423256 0.6809005
v -1.425437 -0.9569056 0.6841649
v -1.426984 -0.9353786 0.6864526
v -1.421553 -0.9501128 0.6897394
v -1.414995 -0.9414976 0.6937074
v -1.426984 -0.7994199 0.6864525
v -1.414995 -0.7933009 0.6937073
v -1.423803 -0.9597564 0.6773705
v -1.405358 -0.9657325 0.6795089
v -1.418235 -0.9597798 0.6717164
v -1.410885 -0.9657323 0.6851873
v -1.425437 -0.9569056 0.6841649
v -1.286321 -0.9657325 0.7515404
v -1.412413 -0.9629459 0.6920461
v -1.421553 -0.9501128 0.6897394
v -1.291906 -0.9657323 0.7571847
v -1.149074 -0.9657325 0.834593
v -1.40844 -0.956219 0.6976745
v -1.414995 -0.9414976 0.6937074
v -1.287533 -0.9414975 0.7708382
v -1.294714 -0.9629547 0.7632689
v -1.154659 -0.9657323 0.8402368
v -1.011827 -0.9657325 0.9176449
v -1.293595 -0.9562489 0.7671704
v -1.160071 -0.9414975 0.8479688
v -1.158588 -0.9629573 0.8456423
v -1.017412 -0.9657322 0.9232888
v -0.8927555 -0.9657326 0.9896979
v -1.160177 -0.9562582 0.8479053
v -1.032609 -0.9414974 0.9250996
v -0.8983964 -0.9657322 0.9953081
v -0.8799028 -0.9597723 0.9974753
v -0.8855043 -0.9597486 1.003109
v -1.022463 -0.9629527 0.9280152
v -1.026761 -0.9562427 0.9286389
v -0.9051474 -0.9414974 1.00223
v -0.9047265 -0.9629422 0.9992611
v -0.8917308 -0.9568933 1.007125
v -0.9118785 -0.9562069 0.998157
v -0.8987968 -0.9500896 1.006073
v -0.8745791 -0.9453838 1.000697
v -0.8799028 -0.9597723 0.9974753
v -0.8855043 -0.9597486 1.003109
v -0.8801641 -0.9453028 1.006341
v -0.8917308 -0.9568933 1.007125
v -0.8801641 -0.7894953 1.006341
v -0.8745791 -0.7894143 1.000697
v -0.8799028 -0.7750262 0.9974754
v -0.8855043 -0.7750496 1.003109
v -0.8863479 -0.9422925 1.010382
v -0.8987968 -0.9500896 1.006073
v -0.8863479 -0.7925056 1.010382
v -0.8917308 -0.7779049 1.007125
v -0.8933783 -0.7994684 1.009352
v -0.8987968 -0.7847086 1.006073
v -0.9051474 -0.7933007 1.00223
v -0.8933783 -0.9353298 1.009352
v -0.9051474 -0.9414974 1.00223
vt 0.7788208 0.444725
vt 0.7909423 0.444725
vt 0.7889932 0.4417249
vt 0.7807702 0.4417251
vt 0.7788208 0.4310527
vt 0.7807702 0.4338017
vt 0.7889932 0.4338017
vt 0.7909424 0.4310527
vt 0.7788208 0.4583978
vt 0.7909424 0.4583978
vt 0.7891586 0.4553976
vt 0.7806051 0.4553975
vt 0.7811005 0.4064564
vt 0.7811005 0.4143794
vt 0.7886629 0.4143794
vt 0.7886629 0.4064564
vt 0.7780303 0.43184
vt 0.7780303 0.444026
vt 0.7807702 0.4417251
vt 0.7807702 0.4338017
vt 0.7788208 0.41738
vt 0.7909424 0.41738
vt 0.7886629 0.4143794
vt 0.7811005 0.4143794
vt 0.7809352 0.4280524
vt 0.7888281 0.4280524
vt 0.7888281 0.4201292
vt 0.7809352 0.4201292
vt 0.7780754 0.4181672
vt 0.7780754 0.4303531
vt 0.7809352 0.4280524
vt 0.7809352 0.4201292
vt 0.780605 0.4474738
vt 0.7806051 0.4553975
vt 0.7891586 0.4553976
vt 0.7891586 0.4474738
vt 0.7788208 0.4310527
vt 0.7909424 0.4310527
vt 0.7888281 0.4280524
vt 0.7809352 0.4280524
vt 0.7781165 0.4044947
vt 0.7781165 0.4166806
vt 0.7811005 0.4143794
vt 0.7811005 0.4064564
vt 0.7779799 0.4455124
vt 0.7779799 0.4576985
vt 0.7806051 0.4553975
vt 0.780605 0.4474738
vt 0.7917835 0.4455124
vt 0.7891586 0.4474738
vt 0.7891586 0.4553976
vt 0.7917835 0.4576981
vt 0.780605 0.4474738
vt 0.7891586 0.4474738
vt 0.7909423 0.444725
vt 0.7788208 0.444725
vt 0.7807702 0.4338017
vt 0.7807702 0.4417251
vt 0.7889932 0.4417249
vt 0.7889932 0.4338017
vt 0.7916473 0.4044946
vt 0.7886629 0.4064564
vt 0.7886629 0.4143794
vt 0.7916473 0.4166806
vt 0.7917336 0.43184
vt 0.7889932 0.4338017
vt 0.7889932 0.4417249
vt 0.7917336 0.4440259
vt 0.791688 0.4181672
vt 0.7888281 0.4201292
vt 0.7888281 0.4280524
vt 0.7916878 0.4303531
vt 0.7788208 0.4037073
vt 0.7811005 0.4064564
vt 0.7886629 0.4064564
vt 0.7909424 0.4037073
vt 0.7788208 0.41738
vt 0.7809352 0.4201292
vt 0.7888281 0.4201292
vt 0.7909424 0.41738
vt 0.3156156 0.3381366
vt 0.3158271 0.3394906
vt 0.3166063 0.3393018
vt 0.3163763 0.337989
vt 0.3172302 0.3390138
vt 0.3163573 0.3268093
vt 0.3155798 0.3268791
vt 0.3169452 0.3377148
vt 0.317933 0.3385187
vt 0.316348 0.3136178
vt 0.3155738 0.3136863
vt 0.316954 0.3266536
vt 0.3175331 0.3372148
vt 0.3187128 0.3379342
vt 0.3175468 0.3263796
vt 0.3187548 0.3258208
vt 0.317537 0.3135554
vt 0.3187509 0.3135653
vt 0.3169414 0.3135713
vt 0.3175336 0.3007318
vt 0.318745 0.3013121
vt 0.3169388 0.3004883
vt 0.3175186 0.2898404
vt 0.3187064 0.2891333
vt 0.317918 0.2885256
vt 0.3172179 0.2880588
vt 0.3169283 0.2893672
vt 0.3165958 0.287857
vt 0.3163399 0.3004264
vt 0.3155693 0.3004942
vt 0.3163546 0.2891739
vt 0.3157789 0.2877931
vt 0.3155847 0.2891664
vt 0.3366243 0.459154
vt 0.3376102 0.4603661
vt 0.3374332 0.459018
vt 0.3368345 0.4604612
vt 0.3360026 0.4594186
vt 0.3368039 0.4729382
vt 0.3375944 0.4730367
vt 0.3373988 0.4743896
vt 0.3365871 0.4742422
vt 0.336269 0.4607128
vt 0.3353012 0.4599352
vt 0.3362435 0.4726849
vt 0.3359699 0.4739707
vt 0.3356952 0.4721654
vt 0.335282 0.4734499
vt 0.3345568 0.472752
vt 0.3357065 0.4612367
vt 0.3345585 0.4606384
vt 0.2181761 0.6211562
vt 0.2168672 0.6221679
vt 0.2182405 0.6219729
vt 0.216859 0.6213983
vt 0.2179738 0.6205342
vt 0.2055393 0.6221898
vt 0.2166657 0.6208244
vt 0.2175069 0.6198342
vt 0.2056065 0.6214197
vt 0.1923465 0.6221933
vt 0.2161919 0.6202347
vt 0.2168985 0.6190464
vt 0.2047194 0.6190145
vt 0.2055443 0.6208203
vt 0.1924146 0.6214188
vt 0.1791531 0.6221946
vt 0.2053004 0.620226
vt 0.1924658 0.6190156
vt 0.1924606 0.6208254
vt 0.1792225 0.621417
vt 0.1678952 0.6221654
vt 0.1924762 0.6202296
vt 0.1802099 0.6190188
vt 0.168042 0.6214047
vt 0.1665409 0.6219548
vt 0.1667291 0.6211751
vt 0.1793778 0.6208201
vt 0.1796514 0.6202268
vt 0.1680959 0.619068
vt 0.1683165 0.6208355
vt 0.1670172 0.6205512
vt 0.1688161 0.6202474
vt 0.167512 0.6198481
vt 0.7578665 0.002640307
vt 0.7565254 0.002866387
vt 0.7566485 0.003685266
vt 0.7579381 0.003413051
vt 0.7569103 0.004333287
vt 0.7704634 0.003439903
vt 0.7705383 0.002654254
vt 0.7718856 0.002894789
vt 0.7717533 0.003717571
vt 0.7581909 0.004013866
vt 0.7574383 0.00503242
vt 0.7702089 0.00403735
vt 0.7714846 0.004362643
vt 0.7696781 0.004615277
vt 0.7709519 0.005051911
vt 0.7702503 0.00573647
vt 0.7587247 0.004603297
vt 0.7581434 0.00573048
vn 0.1521124 0 0.9883632
vn 0.1521124 0 0.9883632
vn 0.1521124 0 0.9883632
vn 0.1521124 0 0.9883632
vn -0.9688001 0 0.2478434
vn -0.9688001 0 0.2478434
vn -0.9688001 0 0.2478434
vn -0.9688001 0 0.2478434
vn 0.1521161 0 0.9883626
vn 0.1521161 0 0.9883626
vn 0.1521161 0 0.9883626
vn 0.1521161 0 0.9883626
vn -0.5177165 0 0.8555522
vn -0.5177165 0 0.8555522
vn -0.5177165 0 0.8555522
vn -0.5177165 0 0.8555522
vn -0.3682894 0.7028167 0.6086144
vn -0.3682894 0.7028167 0.6086144
vn -0.3682894 0.7028167 0.6086144
vn -0.3682894 0.7028167 0.6086144
vn 0.1521113 0 0.9883633
vn 0.1521113 0 0.9883633
vn 0.1521113 0 0.9883633
vn 0.1521113 0 0.9883633
vn -0.5177181 0 0.8555512
vn -0.5177181 0 0.8555512
vn -0.5177181 0 0.8555512
vn -0.5177181 0 0.8555512
vn -0.382759 0.6733539 0.6325268
vn -0.382759 0.6733539 0.6325268
vn -0.382759 0.6733539 0.6325268
vn -0.382759 0.6733539 0.6325268
vn -0.5177189 0 0.8555508
vn -0.5177189 0 0.8555508
vn -0.5177189 0 0.8555508
vn -0.5177189 0 0.8555508
vn 0.1521206 0 0.9883619
vn 0.1521206 0 0.9883619
vn 0.1521206 0 0.9883619
vn 0.1521206 0 0.9883619
vn -0.395493 0.6453159 0.653569
vn -0.395493 0.6453159 0.653569
vn -0.395493 0.6453159 0.653569
vn -0.395493 0.6453159 0.653569
vn -0.3518306 0.7336012 0.581416
vn -0.3518306 0.7336012 0.581416
vn -0.3518306 0.7336012 0.581416
vn -0.3518306 0.7336012 0.581416
vn -0.3518305 -0.7336015 0.5814157
vn -0.3518305 -0.7336015 0.5814157
vn -0.3518305 -0.7336015 0.5814157
vn -0.3518305 -0.7336015 0.5814157
vn -0.9687988 0 0.2478486
vn -0.9687988 0 0.2478486
vn -0.9687988 0 0.2478486
vn -0.9687988 0 0.2478486
vn -0.5177161 0 0.8555524
vn -0.5177161 0 0.8555524
vn -0.5177161 0 0.8555524
vn -0.5177161 0 0.8555524
vn -0.3954922 -0.6453153 0.6535703
vn -0.3954922 -0.6453153 0.6535703
vn -0.3954922 -0.6453153 0.6535703
vn -0.3954922 -0.6453153 0.6535703
vn -0.3682885 -0.7028168 0.608615
vn -0.3682885 -0.7028168 0.608615
vn -0.3682885 -0.7028168 0.608615
vn -0.3682885 -0.7028168 0.608615
vn -0.3827585 -0.673353 0.6325281
vn -0.3827585 -0.673353 0.6325281
vn -0.3827585 -0.673353 0.6325281
vn -0.3827585 -0.673353 0.6325281
vn -0.9688001 0 0.2478439
vn -0.9688001 0 0.2478439
vn -0.9688001 0 0.2478439
vn -0.9688001 0 0.2478439
vn -0.9687997 0 0.2478451
vn -0.9687997 0 0.2478451
vn -0.9687997 0 0.2478451
vn -0.9687997 0 0.2478451
vn 0.1563653 0.9750705 0.1574397
vn 0.5187628 0.6796349 0.5186344
vn 0.3684808 0.6875755 0.6256692
vn 0.02714171 0.9501116 0.3107271
vn -0.01277258 0.4691027 0.8830512
vn -0.1017442 0.9804945 0.1681626
vn 1.114864E-05 1 -1.963523E-05
vn -0.279593 0.6753528 0.6824416
vn -0.4049318 0.1255627 0.9056845
vn -0.1015981 0.9805554 0.1678955
vn 0 1 -1.804815E-05
vn -0.3671179 0.7050337 0.6067553
vn -0.4891047 0.1965057 0.8498011
vn -0.5177289 0 0.8555447
vn -0.5078897 0.1937475 0.839351
vn -0.5177172 0 0.8555518
vn -0.507884 0.1939526 0.8393071
vn -0.5177168 0 0.855552
vn -0.3669362 0.705447 0.6063846
vn -0.5079112 0.1938375 0.839317
vn -0.5177168 0 0.855552
vn -0.3670969 0.7051945 0.606581
vn -0.5264872 0.1970342 0.8270361
vn -0.5177158 0 0.8555526
vn -0.6178493 0.127982 0.7758111
vn -0.7908187 0.4859577 0.3720898
vn -0.4792962 0.6813825 0.5531664
vn -0.6743905 0.6998284 -0.2354519
vn -0.1016909 0.9805232 0.1680275
vn 0 1 -1.332757E-05
vn -0.2781968 0.9588438 0.05678958
vn -0.4813398 0.7392286 -0.4710128
vn -0.1182675 0.9863036 -0.1149689
vn -0.6743905 0.6998284 -0.2354519
vn -0.6970188 0.2052497 -0.6870497
vn -0.4813398 0.7392286 -0.4710128
vn -0.8721165 0.2180831 -0.4380097
vn -0.7908187 0.4859577 0.3720898
vn -0.8721172 -0.2180824 -0.4380088
vn -0.6970174 -0.2052561 -0.6870493
vn -0.4813443 -0.7392291 -0.4710074
vn -0.6743934 -0.6998256 -0.2354517
vn -0.9665037 0.1326523 0.2197133
vn -0.6178493 0.127982 0.7758111
vn -0.9665033 -0.132655 0.2197135
vn -0.7908177 -0.4859586 0.3720908
vn -0.6868717 -0.02321603 0.7264078
vn -0.6178485 -0.1279832 0.7758114
vn -0.5177165 0 0.8555522
vn -0.6868715 0.02321536 0.7264081
vn -0.5177158 0 0.8555526
vn -0.6743934 -0.6998256 -0.2354517
vn -0.1182836 -0.9863032 -0.1149566
vn -0.4813443 -0.7392291 -0.4710074
vn -0.2782044 -0.9588414 0.05679327
vn -0.7908177 -0.4859586 0.3720908
vn -1.308516E-05 -1 1.001199E-05
vn -0.4792953 -0.6813802 0.55317
vn -0.6178485 -0.1279832 0.7758114
vn -0.1017007 -0.9805196 0.1680423
vn -1.504082E-05 -1 1.631982E-05
vn -0.5264865 -0.1970317 0.8270372
vn -0.5177165 0 0.8555522
vn -0.5177178 0 0.8555514
vn -0.3670971 -0.7051896 0.6065866
vn -0.1016101 -0.980551 0.1679143
vn -1.835157E-05 -1 2.556082E-05
vn -0.5079121 -0.1938364 0.8393169
vn -0.517718 0 0.8555513
vn -0.3669361 -0.7054456 0.6063862
vn -0.1017583 -0.9804895 0.1681837
vn 0.1563337 -0.9750676 0.1574894
vn -0.5078852 -0.193953 0.8393061
vn -0.5177175 1.0219E-05 0.8555517
vn 0.02712732 -0.9501036 0.3107526
vn 0.518744 -0.6796322 0.5186568
vn 0.3684762 -0.6875645 0.625684
vn -0.3671177 -0.7050349 0.6067541
vn -0.5078901 -0.1937476 0.8393506
vn -0.5177246 0 0.8555473
vn -0.2795926 -0.6753536 0.6824408
vn -0.01276745 -0.4691042 0.8830505
vn -0.4891031 -0.1965054 0.8498023
vn -0.4049283 -0.1255634 0.9056858
vn 0.6962187 -0.1927084 0.6914788
vn 0.518744 -0.6796322 0.5186568
vn 0.3684762 -0.6875645 0.625684
vn 0.5908995 -0.2054144 0.7801557
vn -0.01276745 -0.4691042 0.8830505
vn 0.5908968 0.2054172 0.7801569
vn 0.6962199 0.1927097 0.6914773
vn 0.5187628 0.6796349 0.5186344
vn 0.3684808 0.6875755 0.6256692
vn 0.1772559 -0.124246 0.9762906
vn -0.4049283 -0.1255634 0.9056858
vn 0.1772526 0.1242459 0.9762912
vn -0.01277258 0.4691027 0.8830512
vn -0.335056 0.02272811 0.941924
vn -0.4049318 0.1255627 0.9056845
vn -0.5177289 0 0.8555447
vn -0.3350553 -0.02272827 0.9419243
vn -0.5177246 0 0.8555473
g ComputerConsoleButtonBoard_1_0
f 3/3/3 2/2/2 1/1/1
f 4/4/4 3/3/3 1/1/1
f 7/7/7 6/6/6 5/5/5
f 8/8/8 7/7/7 5/5/5
f 11/11/11 10/10/10 9/9/9
f 12/12/12 11/11/11 9/9/9
f 15/15/15 14/14/14 13/13/13
f 16/16/16 15/15/15 13/13/13
f 19/19/19 18/18/18 17/17/17
f 20/20/20 19/19/19 17/17/17
f 23/23/23 22/22/22 21/21/21
f 24/24/24 23/23/23 21/21/21
f 27/27/27 26/26/26 25/25/25
f 28/28/28 27/27/27 25/25/25
f 31/31/31 30/30/30 29/29/29
f 32/32/32 31/31/31 29/29/29
f 35/35/35 34/34/34 33/33/33
f 36/36/36 35/35/35 33/33/33
f 39/39/39 38/38/38 37/37/37
f 40/40/40 39/39/39 37/37/37
f 43/43/43 42/42/42 41/41/41
f 44/44/44 43/43/43 41/41/41
f 47/47/47 46/46/46 45/45/45
f 48/48/48 47/47/47 45/45/45
f 51/51/51 50/50/50 49/49/49
f 52/52/52 51/51/51 49/49/49
f 55/55/55 54/54/54 53/53/53
f 56/56/56 55/55/55 53/53/53
f 59/59/59 58/58/58 57/57/57
f 60/60/60 59/59/59 57/57/57
f 63/63/63 62/62/62 61/61/61
f 64/64/64 63/63/63 61/61/61
f 67/67/67 66/66/66 65/65/65
f 68/68/68 67/67/67 65/65/65
f 71/71/71 70/70/70 69/69/69
f 72/72/72 71/71/71 69/69/69
f 75/75/75 74/74/74 73/73/73
f 76/76/76 75/75/75 73/73/73
f 79/79/79 78/78/78 77/77/77
f 80/80/80 79/79/79 77/77/77
g ComputerConsoleButtonBoard_1_1
f 83/83/83 82/82/82 81/81/81
f 84/84/84 83/83/83 81/81/81
f 83/83/83 84/84/84 85/85/85
f 84/84/84 81/81/81 86/86/86
f 81/81/81 87/87/87 86/86/86
f 84/84/84 88/88/88 85/85/85
f 85/85/85 88/88/88 89/89/89
f 86/86/86 87/87/87 90/90/90
f 87/87/87 91/91/91 90/90/90
f 86/86/86 92/92/92 84/84/84
f 92/92/92 88/88/88 84/84/84
f 88/88/88 93/93/93 89/89/89
f 93/93/93 94/94/94 89/89/89
f 95/95/95 93/93/93 88/88/88
f 93/93/93 95/95/95 94/94/94
f 92/92/92 95/95/95 88/88/88
f 95/95/95 96/96/96 94/94/94
f 95/95/95 97/97/97 96/96/96
f 97/97/97 95/95/95 92/92/92
f 97/97/97 98/98/98 96/96/96
f 99/99/99 92/92/92 86/86/86
f 99/99/99 97/97/97 92/92/92
f 90/90/90 99/99/99 86/86/86
f 97/97/97 100/100/100 98/98/98
f 97/97/97 99/99/99 100/100/100
f 100/100/100 101/101/101 98/98/98
f 99/99/99 90/90/90 102/102/102
f 99/99/99 102/102/102 100/100/100
f 100/100/100 103/103/103 101/101/101
f 100/100/100 102/102/102 103/103/103
f 103/103/103 104/104/104 101/101/101
f 105/105/105 104/104/104 103/103/103
f 105/105/105 103/103/103 106/106/106
f 103/103/103 107/107/107 106/106/106
f 102/102/102 107/107/107 103/103/103
f 106/106/106 107/107/107 108/108/108
f 90/90/90 109/109/109 102/102/102
f 102/102/102 109/109/109 107/107/107
f 90/90/90 91/91/91 109/109/109
f 91/91/91 110/110/110 109/109/109
f 107/107/107 111/111/111 108/108/108
f 109/109/109 111/111/111 107/107/107
f 109/109/109 110/110/110 111/111/111
f 112/112/112 108/108/108 111/111/111
f 110/110/110 113/113/113 111/111/111
f 113/113/113 112/112/112 111/111/111
f 116/116/116 115/115/115 114/114/114
f 115/115/115 117/117/117 114/114/114
f 118/118/118 114/114/114 117/117/117
f 119/119/119 117/117/117 115/115/115
f 120/120/120 119/119/119 115/115/115
f 120/120/120 121/121/121 119/119/119
f 121/121/121 122/122/122 119/119/119
f 123/123/123 118/118/118 117/117/117
f 117/117/117 119/119/119 123/123/123
f 124/124/124 118/118/118 123/123/123
f 125/125/125 119/119/119 122/122/122
f 119/119/119 125/125/125 123/123/123
f 126/126/126 125/125/125 122/122/122
f 127/127/127 125/125/125 126/126/126
f 125/125/125 127/127/127 123/123/123
f 128/128/128 127/127/127 126/126/126
f 128/128/128 129/129/129 127/127/127
f 130/130/130 124/124/124 123/123/123
f 127/127/127 130/130/130 123/123/123
f 130/130/130 127/127/127 129/129/129
f 130/130/130 131/131/131 124/124/124
f 131/131/131 130/130/130 129/129/129
f 134/134/134 133/133/133 132/132/132
f 133/133/133 135/135/135 132/132/132
f 136/136/136 132/132/132 135/135/135
f 133/133/133 137/137/137 135/135/135
f 138/138/138 136/136/136 135/135/135
f 139/139/139 136/136/136 138/138/138
f 137/137/137 140/140/140 135/135/135
f 135/135/135 140/140/140 138/138/138
f 137/137/137 141/141/141 140/140/140
f 142/142/142 139/139/139 138/138/138
f 142/142/142 143/143/143 139/139/139
f 143/143/143 142/142/142 144/144/144
f 140/140/140 145/145/145 138/138/138
f 138/138/138 145/145/145 142/142/142
f 141/141/141 146/146/146 140/140/140
f 140/140/140 146/146/146 145/145/145
f 141/141/141 147/147/147 146/146/146
f 142/142/142 148/148/148 144/144/144
f 145/145/145 148/148/148 142/142/142
f 144/144/144 148/148/148 149/149/149
f 146/146/146 150/150/150 145/145/145
f 145/145/145 150/150/150 148/148/148
f 147/147/147 151/151/151 146/146/146
f 150/150/150 146/146/146 151/151/151
f 147/147/147 152/152/152 151/151/151
f 148/148/148 153/153/153 149/149/149
f 150/150/150 153/153/153 148/148/148
f 149/149/149 153/153/153 154/154/154
f 152/152/152 155/155/155 151/151/151
f 155/155/155 152/152/152 156/156/156
f 157/157/157 155/155/155 156/156/156
f 158/158/158 150/150/150 151/151/151
f 153/153/153 150/150/150 158/158/158
f 158/158/158 151/151/151 155/155/155
f 153/153/153 159/159/159 154/154/154
f 159/159/159 153/153/153 158/158/158
f 154/154/154 159/159/159 160/160/160
f 155/155/155 157/157/157 161/161/161
f 161/161/161 158/158/158 155/155/155
f 159/159/159 158/158/158 161/161/161
f 157/157/157 162/162/162 161/161/161
f 159/159/159 163/163/163 160/160/160
f 163/163/163 159/159/159 161/161/161
f 161/161/161 162/162/162 163/163/163
f 164/164/164 160/160/160 163/163/163
f 162/162/162 164/164/164 163/163/163
f 167/167/167 166/166/166 165/165/165
f 168/168/168 167/167/167 165/165/165
f 167/167/167 168/168/168 169/169/169
f 168/168/168 165/165/165 170/170/170
f 165/165/165 171/171/171 170/170/170
f 170/170/170 171/171/171 172/172/172
f 173/173/173 170/170/170 172/172/172
f 168/168/168 174/174/174 169/169/169
f 168/168/168 170/170/170 174/174/174
f 169/169/169 174/174/174 175/175/175
f 170/170/170 173/173/173 176/176/176
f 170/170/170 176/176/176 174/174/174
f 173/173/173 177/177/177 176/176/176
f 176/176/176 177/177/177 178/178/178
f 174/174/174 176/176/176 178/178/178
f 177/177/177 179/179/179 178/178/178
f 179/179/179 180/180/180 178/178/178
f 174/174/174 181/181/181 175/175/175
f 181/181/181 174/174/174 178/178/178
f 181/181/181 178/178/178 180/180/180
f 181/181/181 182/182/182 175/175/175
f 182/182/182 181/181/181 180/180/180
