g ComputerConsoleButtonBoard_2
v -1.032609 -1.040801 0.9250996
v -1.032609 -1.188997 0.9250996
v -1.068864 -1.165167 0.9306793
v -1.068864 -1.064631 0.9306793
v -1.160071 -1.040801 0.8479688
v -1.151742 -1.064631 0.8805277
v -1.151742 -1.165167 0.8805277
v -1.160071 -1.188997 0.8479688
v -0.9051473 -1.040801 1.00223
v -0.9051473 -1.188997 1.00223
v -0.941402 -1.167188 1.00781
v -0.941402 -1.062611 1.00781
v -1.406666 -1.068671 0.7262663
v -1.323788 -1.068671 0.7764179
v -1.323788 -1.161127 0.7764179
v -1.406666 -1.161127 0.7262663
v -1.160071 -1.040801 0.8479688
v -1.032609 -1.040801 0.9250996
v -1.068864 -1.064631 0.9306793
v -1.151742 -1.064631 0.8805277
v -1.287533 -1.040801 0.7708382
v -1.287533 -1.188998 0.7708382
v -1.323788 -1.161127 0.7764179
v -1.323788 -1.068671 0.7764179
v -1.196326 -1.066651 0.8535487
v -1.196326 -1.163147 0.8535487
v -1.279204 -1.163147 0.8033969
v -1.279204 -1.066651 0.8033969
v -1.287533 -1.040801 0.7708382
v -1.160071 -1.040801 0.8479688
v -1.196326 -1.066651 0.8535487
v -1.279204 -1.066651 0.8033969
v -1.02428 -1.062611 0.9576582
v -0.941402 -1.062611 1.00781
v -0.941402 -1.167188 1.00781
v -1.02428 -1.167188 0.9576582
v -1.160071 -1.040801 0.8479688
v -1.160071 -1.188997 0.8479688
v -1.196326 -1.163147 0.8535487
v -1.196326 -1.066651 0.8535487
v -1.414995 -1.040801 0.6937074
v -1.287533 -1.040801 0.7708382
v -1.323788 -1.068671 0.7764179
v -1.406666 -1.068671 0.7262663
v -1.032609 -1.040801 0.9250996
v -0.9051473 -1.040801 1.00223
v -0.941402 -1.062611 1.00781
v -1.02428 -1.062611 0.9576582
v -1.032609 -1.188997 0.9250996
v -1.02428 -1.167188 0.9576582
v -0.941402 -1.167188 1.00781
v -0.9051473 -1.188997 1.00223
v -1.02428 -1.062611 0.9576582
v -1.02428 -1.167188 0.9576582
v -1.032609 -1.188997 0.9250996
v -1.032609 -1.040801 0.9250996
v -1.151742 -1.064631 0.8805277
v -1.068864 -1.064631 0.9306793
v -1.068864 -1.165167 0.9306793
v -1.151742 -1.165167 0.8805277
v -1.414995 -1.188998 0.6937074
v -1.406666 -1.161127 0.7262663
v -1.323788 -1.161127 0.7764179
v -1.287533 -1.188998 0.7708382
v -1.160071 -1.188997 0.8479688
v -1.151742 -1.165167 0.8805277
v -1.068864 -1.165167 0.9306793
v -1.032609 -1.188997 0.9250996
v -1.287533 -1.188998 0.7708382
v -1.279204 -1.163147 0.8033969
v -1.196326 -1.163147 0.8535487
v -1.160071 -1.188997 0.8479688
v -1.414995 -1.040801 0.6937074
v -1.406666 -1.068671 0.7262663
v -1.406666 -1.161127 0.7262663
v -1.414995 -1.188998 0.6937074
v -1.287533 -1.040801 0.7708382
v -1.279204 -1.066651 0.8033969
v -1.279204 -1.163147 0.8033969
v -1.287533 -1.188998 0.7708382
v -0.8927554 -1.016566 0.9896979
v -0.8799028 -1.022526 0.9974753
v -0.8855042 -1.02255 1.003109
v -0.8983963 -1.016566 0.9953081
v -0.8917308 -1.025405 1.007125
v -1.017412 -1.016566 0.9232888
v -1.011827 -1.016566 0.9176447
v -0.9047264 -1.019356 0.9992611
v -0.8987967 -1.032209 1.006073
v -1.154659 -1.016566 0.8402368
v -1.149074 -1.016566 0.834593
v -1.022463 -1.019345 0.9280152
v -0.9118784 -1.026091 0.998157
v -0.9051473 -1.040801 1.00223
v -1.026761 -1.026055 0.9286389
v -1.032609 -1.040801 0.9250996
v -1.160177 -1.02604 0.8479053
v -1.160071 -1.040801 0.8479688
v -1.158588 -1.019341 0.8456423
v -1.293595 -1.026049 0.7671704
v -1.287533 -1.040801 0.7708382
v -1.294714 -1.019344 0.7632689
v -1.40844 -1.026079 0.6976745
v -1.414995 -1.040801 0.6937074
v -1.421553 -1.032186 0.6897394
v -1.425437 -1.025393 0.6841649
v -1.412413 -1.019352 0.6920461
v -1.423803 -1.022542 0.6773705
v -1.291906 -1.016566 0.7571847
v -1.286321 -1.016566 0.7515404
v -1.410885 -1.016566 0.6851873
v -1.418235 -1.022519 0.6717164
v -1.405358 -1.016566 0.6795089
v -1.423803 -1.022542 0.6773705
v -1.423569 -1.03689 0.6684887
v -1.418235 -1.022519 0.6717164
v -1.429154 -1.036969 0.6741325
v -1.425437 -1.025393 0.6841649
v -1.429154 -1.192829 0.6741325
v -1.423568 -1.192909 0.6684887
v -1.418235 -1.20728 0.6717162
v -1.423803 -1.207256 0.6773705
v -1.430832 -1.039973 0.6809005
v -1.421553 -1.032186 0.6897394
v -1.430832 -1.189826 0.6809005
v -1.425437 -1.204406 0.6841649
v -1.426984 -1.182878 0.6864526
v -1.421553 -1.197613 0.6897394
v -1.414995 -1.188998 0.6937074
v -1.426984 -1.04692 0.6864526
v -1.414995 -1.040801 0.6937074
v -1.423803 -1.207256 0.6773705
v -1.405357 -1.213232 0.6795089
v -1.418235 -1.20728 0.6717162
v -1.410885 -1.213232 0.6851873
v -1.425437 -1.204406 0.6841649
v -1.286322 -1.213233 0.7515406
v -1.412413 -1.210446 0.6920461
v -1.421553 -1.197613 0.6897394
v -1.291906 -1.213232 0.7571847
v -1.149074 -1.213232 0.834593
v -1.40844 -1.203719 0.6976745
v -1.414995 -1.188998 0.6937074
v -1.287533 -1.188998 0.7708382
v -1.294714 -1.210455 0.7632689
v -1.154659 -1.213232 0.8402368
v -1.011826 -1.213233 0.9176449
v -1.293594 -1.203749 0.7671704
v -1.160071 -1.188997 0.8479688
v -1.158588 -1.210457 0.8456423
v -1.017411 -1.213232 0.9232888
v -0.8927554 -1.213233 0.9896979
v -1.160176 -1.203758 0.8479053
v -1.032609 -1.188997 0.9250996
v -0.8983963 -1.213232 0.9953081
v -0.8799028 -1.207273 0.9974753
v -0.8855042 -1.207249 1.003109
v -1.022463 -1.210453 0.9280152
v -1.026761 -1.203743 0.9286389
v -0.9051473 -1.188997 1.00223
v -0.9047264 -1.210442 0.9992611
v -0.8917308 -1.204393 1.007125
v -0.9118784 -1.203707 0.998157
v -0.8987967 -1.19759 1.006073
v -0.874579 -1.192884 1.000697
v -0.8799028 -1.207273 0.9974753
v -0.8855042 -1.207249 1.003109
v -0.8801641 -1.192803 1.006341
v -0.8917308 -1.204393 1.007125
v -0.8801641 -1.036995 1.006341
v -0.874579 -1.036915 1.000697
v -0.8799028 -1.022526 0.9974753
v -0.8855042 -1.02255 1.003109
v -0.8863478 -1.189793 1.010382
v -0.8987967 -1.19759 1.006073
v -0.8863478 -1.040006 1.010382
v -0.8917308 -1.025405 1.007125
v -0.8933782 -1.046968 1.009352
v -0.8987967 -1.032209 1.006073
v -0.9051473 -1.040801 1.00223
v -0.8933782 -1.18283 1.009352
v -0.9051473 -1.188997 1.00223
vt 0.3566055 0.4701496
vt 0.3444856 0.4701498
vt 0.3464345 0.4731497
vt 0.3546568 0.4731494
vt 0.3566055 0.4838208
vt 0.3546568 0.4810725
vt 0.3464345 0.4810726
vt 0.3444856 0.4838208
vt 0.3566055 0.4564783
vt 0.3444856 0.4564783
vt 0.3462695 0.4594783
vt 0.354822 0.4594781
vt 0.3543267 0.5084152
vt 0.3543267 0.5004926
vt 0.3467649 0.5004926
vt 0.3467649 0.5084152
vt 0.3573968 0.4830337
vt 0.3573968 0.4708492
vt 0.3546568 0.4731494
vt 0.3546568 0.4810725
vt 0.3566055 0.4974926
vt 0.3444856 0.4974926
vt 0.3467649 0.5004926
vt 0.3543267 0.5004926
vt 0.3544915 0.4868213
vt 0.3465993 0.4868213
vt 0.3465992 0.4947439
vt 0.3544915 0.4947439
vt 0.3573514 0.4967052
vt 0.3573513 0.4845204
vt 0.3544915 0.4868213
vt 0.3544915 0.4947439
vt 0.354822 0.4674009
vt 0.354822 0.4594781
vt 0.3462695 0.4594783
vt 0.3462695 0.4674012
vt 0.3566055 0.4838208
vt 0.3444856 0.4838208
vt 0.3465993 0.4868213
vt 0.3544915 0.4868213
vt 0.3573104 0.5103764
vt 0.3573104 0.4981917
vt 0.3543267 0.5004926
vt 0.3543267 0.5084152
vt 0.357447 0.4693625
vt 0.357447 0.4571778
vt 0.354822 0.4594781
vt 0.354822 0.4674009
vt 0.3436443 0.4693627
vt 0.3462695 0.4674012
vt 0.3462695 0.4594783
vt 0.3436443 0.4571778
vt 0.354822 0.4674009
vt 0.3462695 0.4674012
vt 0.3444856 0.4701498
vt 0.3566055 0.4701496
vt 0.3546568 0.4810725
vt 0.3546568 0.4731494
vt 0.3464345 0.4731497
vt 0.3464345 0.4810726
vt 0.343781 0.5103766
vt 0.3467649 0.5084152
vt 0.3467649 0.5004926
vt 0.343781 0.4981919
vt 0.3436944 0.4830337
vt 0.3464345 0.4810726
vt 0.3464345 0.4731497
vt 0.3436944 0.4708494
vt 0.34374 0.4967052
vt 0.3465992 0.4947439
vt 0.3465993 0.4868213
vt 0.3437399 0.4845204
vt 0.3566055 0.5111637
vt 0.3543267 0.5084152
vt 0.3467649 0.5084152
vt 0.3444856 0.5111637
vt 0.3566055 0.4974926
vt 0.3544915 0.4947439
vt 0.3465992 0.4947439
vt 0.3444856 0.4974926
vt 0.37798 0.3824569
vt 0.3781917 0.3838104
vt 0.3789704 0.383622
vt 0.3787405 0.3823092
vt 0.3795944 0.3833335
vt 0.3787202 0.3711324
vt 0.3779431 0.3712019
vt 0.3793094 0.382035
vt 0.3802971 0.3828383
vt 0.3787098 0.3579444
vt 0.3779353 0.3580128
vt 0.3793168 0.3709768
vt 0.3798967 0.3815351
vt 0.3810764 0.3822541
vt 0.3799096 0.3707026
vt 0.3811172 0.3701438
vt 0.3798981 0.3578821
vt 0.3811121 0.3578916
vt 0.3793027 0.3578979
vt 0.3798934 0.3450618
vt 0.3811047 0.3456414
vt 0.3792989 0.3448184
vt 0.3798773 0.3341732
vt 0.3810645 0.3334661
vt 0.380276 0.3328588
vt 0.3795761 0.3323919
vt 0.3792866 0.3337
vt 0.3789542 0.3321903
vt 0.3786998 0.3447561
vt 0.3779296 0.3448243
vt 0.3787134 0.333507
vt 0.3781377 0.3321265
vt 0.3779432 0.3334996
vt 0.7354579 0.3434103
vt 0.7344709 0.3421975
vt 0.7346484 0.3435468
vt 0.7352476 0.3421026
vt 0.7360801 0.3431456
vt 0.735276 0.3296188
vt 0.7344853 0.3295203
vt 0.7346808 0.3281664
vt 0.7354928 0.3283143
vt 0.7358128 0.3418507
vt 0.7367815 0.342629
vt 0.7358366 0.329872
vt 0.73611 0.3285857
vt 0.7363852 0.3303917
vt 0.7367989 0.3291066
vt 0.7375246 0.3298044
vt 0.7363757 0.3413259
vt 0.7375247 0.3419249
vt 0.05213998 0.4089706
vt 0.05344836 0.407958
vt 0.0520748 0.4081541
vt 0.05345662 0.4087281
vt 0.05234267 0.4095928
vt 0.06477664 0.407929
vt 0.05365042 0.4093016
vt 0.05281033 0.4102924
vt 0.06470992 0.4086995
vt 0.07796954 0.4079169
vt 0.05412509 0.4098914
vt 0.05341907 0.4110799
vt 0.06559844 0.4111038
vt 0.06477274 0.4092984
vt 0.07790212 0.4086916
vt 0.09116317 0.4079072
vt 0.06501694 0.4098923
vt 0.07785235 0.4110945
vt 0.0778562 0.4092841
vt 0.09109439 0.4086844
vt 0.1024215 0.4079289
vt 0.07784142 0.4098803
vt 0.09010874 0.4110833
vt 0.1022753 0.4086898
vt 0.1037758 0.4081387
vt 0.1035881 0.4089183
vt 0.09093963 0.4092813
vt 0.09066604 0.409875
vt 0.1022232 0.4110262
vt 0.1020011 0.4092589
vt 0.1033009 0.4095426
vt 0.1015019 0.4098471
vt 0.1028064 0.4102459
vt 0.6171829 0.2074001
vt 0.6158417 0.2076266
vt 0.615965 0.2084453
vt 0.6172544 0.2081732
vt 0.616227 0.2090933
vt 0.6297799 0.2081965
vt 0.6298543 0.2074112
vt 0.6312016 0.2076511
vt 0.6310693 0.2084742
vt 0.6175075 0.2087738
vt 0.6167551 0.2097924
vt 0.6295247 0.2087941
vt 0.630801 0.2091193
vt 0.6289944 0.2093722
vt 0.6302683 0.2098085
vt 0.6295667 0.2104931
vt 0.6180413 0.2093626
vt 0.6174607 0.21049
vn 0.1521122 0 0.9883632
vn 0.1521122 0 0.9883632
vn 0.1521122 0 0.9883632
vn 0.1521122 0 0.9883632
vn -0.9688006 0 0.2478416
vn -0.9688006 0 0.2478416
vn -0.9688006 0 0.2478416
vn -0.9688006 0 0.2478416
vn 0.1521197 0 0.9883621
vn 0.1521197 0 0.9883621
vn 0.1521197 0 0.9883621
vn 0.1521197 0 0.9883621
vn -0.5177165 0 0.8555522
vn -0.5177165 0 0.8555522
vn -0.5177165 0 0.8555522
vn -0.5177165 0 0.8555522
vn -0.3682891 0.7028171 0.6086143
vn -0.3682891 0.7028171 0.6086143
vn -0.3682891 0.7028171 0.6086143
vn -0.3682891 0.7028171 0.6086143
vn 0.1521117 0 0.9883633
vn 0.1521117 0 0.9883633
vn 0.1521117 0 0.9883633
vn 0.1521117 0 0.9883633
vn -0.5177183 0 0.8555511
vn -0.5177183 0 0.8555511
vn -0.5177183 0 0.8555511
vn -0.5177183 0 0.8555511
vn -0.3827593 0.6733536 0.6325269
vn -0.3827593 0.6733536 0.6325269
vn -0.3827593 0.6733536 0.6325269
vn -0.3827593 0.6733536 0.6325269
vn -0.5177187 0 0.8555509
vn -0.5177187 0 0.8555509
vn -0.5177187 0 0.8555509
vn -0.5177187 0 0.8555509
vn 0.1521172 0 0.9883625
vn 0.1521172 0 0.9883625
vn 0.1521172 0 0.9883625
vn 0.1521172 0 0.9883625
vn -0.3954922 0.6453152 0.6535704
vn -0.3954922 0.6453152 0.6535704
vn -0.3954922 0.6453152 0.6535704
vn -0.3954922 0.6453152 0.6535704
vn -0.3518308 0.7336016 0.5814152
vn -0.3518308 0.7336016 0.5814152
vn -0.3518308 0.7336016 0.5814152
vn -0.3518308 0.7336016 0.5814152
vn -0.3518308 -0.7336001 0.5814172
vn -0.3518308 -0.7336001 0.5814172
vn -0.3518308 -0.7336001 0.5814172
vn -0.3518308 -0.7336001 0.5814172
vn -0.9687992 0 0.2478469
vn -0.9687992 0 0.2478469
vn -0.9687992 0 0.2478469
vn -0.9687992 0 0.2478469
vn -0.5177163 0 0.8555524
vn -0.5177163 0 0.8555524
vn -0.5177163 0 0.8555524
vn -0.5177163 0 0.8555524
vn -0.3954913 -0.6453165 0.6535698
vn -0.3954913 -0.6453165 0.6535698
vn -0.3954913 -0.6453165 0.6535698
vn -0.3954913 -0.6453165 0.6535698
vn -0.3682889 -0.7028183 0.6086129
vn -0.3682889 -0.7028183 0.6086129
vn -0.3682889 -0.7028183 0.6086129
vn -0.3682889 -0.7028183 0.6086129
vn -0.3827588 -0.6733533 0.6325275
vn -0.3827588 -0.6733533 0.6325275
vn -0.3827588 -0.6733533 0.6325275
vn -0.3827588 -0.6733533 0.6325275
vn -0.9688006 0 0.2478415
vn -0.9688006 0 0.2478415
vn -0.9688006 0 0.2478415
vn -0.9688006 0 0.2478415
vn -0.9688001 0 0.2478436
vn -0.9688001 0 0.2478436
vn -0.9688001 0 0.2478436
vn -0.9688001 0 0.2478436
vn 0.1563716 0.9750696 0.1574391
vn 0.5187671 0.6796346 0.5186306
vn 0.3684857 0.6875763 0.6256654
vn 0.02714587 0.950112 0.3107256
vn -0.01276854 0.4691035 0.8830509
vn -0.1017415 0.9804951 0.1681608
vn 1.598845E-05 1 -2.618024E-05
vn -0.2795917 0.6753527 0.682442
vn -0.4049302 0.1255616 0.9056854
vn -0.1015966 0.980556 0.1678932
vn 1.417469E-05 1 -1.895171E-05
vn -0.3671178 0.7050329 0.6067562
vn -0.4891033 0.1965036 0.8498025
vn -0.5177276 0 0.8555456
vn -0.5078895 0.193747 0.8393512
vn -0.5177155 0 0.8555528
vn -0.507884 0.1939532 0.8393069
vn -0.5177155 0 0.8555529
vn -0.3669378 0.7054495 0.606381
vn -0.5079112 0.1938374 0.8393171
vn -0.5177158 0 0.8555527
vn -0.3670976 0.7051963 0.6065784
vn -0.5264871 0.1970344 0.8270361
vn -0.5177165 0 0.8555522
vn -0.6178498 0.1279821 0.7758108
vn -0.7908191 0.485958 0.3720886
vn -0.4792952 0.6813819 0.553168
vn -0.6743879 0.6998287 -0.2354586
vn -0.1016891 0.9805245 0.1680205
vn 1.170144E-05 1 -1.871113E-05
vn -0.2781935 0.9588452 0.05678265
vn -0.4813284 0.7392318 -0.4710195
vn -0.11826 0.9863027 -0.114985
vn -0.6743879 0.6998287 -0.2354586
vn -0.6970133 0.2052521 -0.6870547
vn -0.4813284 0.7392318 -0.4710195
vn -0.8721147 0.2180838 -0.438013
vn -0.7908191 0.485958 0.3720886
vn -0.8721178 -0.2180804 -0.4380085
vn -0.6970199 -0.2052543 -0.6870472
vn -0.4813482 -0.7392377 -0.4709899
vn -0.6743979 -0.6998242 -0.2354434
vn -0.9665041 0.1326518 0.2197119
vn -0.6178498 0.1279821 0.7758108
vn -0.966504 -0.1326536 0.2197114
vn -0.7908179 -0.4859582 0.3720908
vn -0.6868734 -0.02321822 0.7264061
vn -0.6178494 -0.127987 0.7758102
vn -0.5177155 0 0.8555528
vn -0.6868731 0.02321447 0.7264065
vn -0.5177165 0 0.8555522
vn -0.6743979 -0.6998242 -0.2354434
vn -0.1182847 -0.9863049 -0.1149413
vn -0.4813482 -0.7392377 -0.4709899
vn -0.2782058 -0.9588401 0.05680829
vn -0.7908179 -0.4859582 0.3720908
vn -1.411152E-05 -1 2.815346E-05
vn -0.4792939 -0.6813821 0.5531689
vn -0.6178494 -0.127987 0.7758102
vn -0.1017019 -0.9805177 0.1680527
vn -1.821295E-05 -1 4.113632E-05
vn -0.5264871 -0.1970378 0.8270354
vn -0.5177155 0 0.8555528
vn -0.517719 0 0.8555507
vn -0.3670963 -0.7051906 0.606586
vn -0.1016112 -0.9805487 0.1679265
vn -2.239995E-05 -1 3.959518E-05
vn -0.5079116 -0.1938366 0.839317
vn -0.5177193 0 0.8555505
vn -0.3669358 -0.7054427 0.6063899
vn -0.1017601 -0.980488 0.1681909
vn 0.1563227 -0.9750687 0.1574935
vn -0.5078845 -0.1939514 0.839307
vn -0.5177183 0 0.8555511
vn 0.02712293 -0.9501048 0.3107494
vn 0.5187231 -0.6796455 0.5186602
vn 0.3684697 -0.6875646 0.6256877
vn -0.3671196 -0.7050313 0.6067572
vn -0.5078897 -0.193747 0.839351
vn -0.5177252 0 0.8555471
vn -0.2795943 -0.6753547 0.6824391
vn -0.01276827 -0.4691066 0.8830492
vn -0.4891046 -0.1965032 0.8498018
vn -0.4049284 -0.1255636 0.9056858
vn 0.6962159 -0.1927086 0.6914817
vn 0.5187231 -0.6796455 0.5186602
vn 0.3684697 -0.6875646 0.6256877
vn 0.5908951 -0.2054157 0.7801586
vn -0.01276827 -0.4691066 0.8830492
vn 0.5908997 0.2054215 0.7801536
vn 0.6962258 0.1927112 0.6914709
vn 0.5187671 0.6796346 0.5186306
vn 0.3684857 0.6875763 0.6256654
vn 0.177253 -0.1242451 0.9762913
vn -0.4049284 -0.1255636 0.9056858
vn 0.1772511 0.1242456 0.9762915
vn -0.01276854 0.4691035 0.8830509
vn -0.3350558 0.0227291 0.941924
vn -0.4049302 0.1255616 0.9056854
vn -0.5177276 0 0.8555456
vn -0.3350547 -0.02272825 0.9419245
vn -0.5177252 0 0.8555471
g ComputerConsoleButtonBoard_2_0
f 3/3/3 2/2/2 1/1/1
f 4/4/4 3/3/3 1/1/1
f 7/7/7 6/6/6 5/5/5
f 8/8/8 7/7/7 5/5/5
f 11/11/11 10/10/10 9/9/9
f 12/12/12 11/11/11 9/9/9
f 15/15/15 14/14/14 13/13/13
f 16/16/16 15/15/15 13/13/13
f 19/19/19 18/18/18 17/17/17
f 20/20/20 19/19/19 17/17/17
f 23/23/23 22/22/22 21/21/21
f 24/24/24 23/23/23 21/21/21
f 27/27/27 26/26/26 25/25/25
f 28/28/28 27/27/27 25/25/25
f 31/31/31 30/30/30 29/29/29
f 32/32/32 31/31/31 29/29/29
f 35/35/35 34/34/34 33/33/33
f 36/36/36 35/35/35 33/33/33
f 39/39/39 38/38/38 37/37/37
f 40/40/40 39/39/39 37/37/37
f 43/43/43 42/42/42 41/41/41
f 44/44/44 43/43/43 41/41/41
f 47/47/47 46/46/46 45/45/45
f 48/48/48 47/47/47 45/45/45
f 51/51/51 50/50/50 49/49/49
f 52/52/52 51/51/51 49/49/49
f 55/55/55 54/54/54 53/53/53
f 56/56/56 55/55/55 53/53/53
f 59/59/59 58/58/58 57/57/57
f 60/60/60 59/59/59 57/57/57
f 63/63/63 62/62/62 61/61/61
f 64/64/64 63/63/63 61/61/61
f 67/67/67 66/66/66 65/65/65
f 68/68/68 67/67/67 65/65/65
f 71/71/71 70/70/70 69/69/69
f 72/72/72 71/71/71 69/69/69
f 75/75/75 74/74/74 73/73/73
f 76/76/76 75/75/75 73/73/73
f 79/79/79 78/78/78 77/77/77
f 80/80/80 79/79/79 77/77/77
g ComputerConsoleButtonBoard_2_1
f 83/83/83 82/82/82 81/81/81
f 84/84/84 83/83/83 81/81/81
f 83/83/83 84/84/84 85/85/85
f 84/84/84 81/81/81 86/86/86
f 81/81/81 87/87/87 86/86/86
f 84/84/84 88/88/88 85/85/85
f 85/85/85 88/88/88 89/89/89
f 86/86/86 87/87/87 90/90/90
f 87/87/87 91/91/91 90/90/90
f 86/86/86 92/92/92 84/84/84
f 92/92/92 88/88/88 84/84/84
f 88/88/88 93/93/93 89/89/89
f 93/93/93 94/94/94 89/89/89
f 95/95/95 93/93/93 88/88/88
f 93/93/93 95/95/95 94/94/94
f 92/92/92 95/95/95 88/88/88
f 95/95/95 96/96/96 94/94/94
f 95/95/95 97/97/97 96/96/96
f 97/97/97 95/95/95 92/92/92
f 97/97/97 98/98/98 96/96/96
f 99/99/99 92/92/92 86/86/86
f 99/99/99 97/97/97 92/92/92
f 90/90/90 99/99/99 86/86/86
f 97/97/97 100/100/100 98/98/98
f 97/97/97 99/99/99 100/100/100
f 100/100/100 101/101/101 98/98/98
f 99/99/99 90/90/90 102/102/102
f 99/99/99 102/102/102 100/100/100
f 100/100/100 103/103/103 101/101/101
f 100/100/100 102/102/102 103/103/103
f 103/103/103 104/104/104 101/101/101
f 105/105/105 104/104/104 103/103/103
f 105/105/105 103/103/103 106/106/106
f 103/103/103 107/107/107 106/106/106
f 102/102/102 107/107/107 103/103/103
f 106/106/106 107/107/107 108/108/108
f 90/90/90 109/109/109 102/102/102
f 102/102/102 109/109/109 107/107/107
f 90/90/90 91/91/91 109/109/109
f 91/91/91 110/110/110 109/109/109
f 107/107/107 111/111/111 108/108/108
f 109/109/109 111/111/111 107/107/107
f 109/109/109 110/110/110 111/111/111
f 112/112/112 108/108/108 111/111/111
f 110/110/110 113/113/113 111/111/111
f 113/113/113 112/112/112 111/111/111
f 116/116/116 115/115/115 114/114/114
f 115/115/115 117/117/117 114/114/114
f 118/118/118 114/114/114 117/117/117
f 119/119/119 117/117/117 115/115/115
f 120/120/120 119/119/119 115/115/115
f 120/120/120 121/121/121 119/119/119
f 121/121/121 122/122/122 119/119/119
f 123/123/123 118/118/118 117/117/117
f 117/117/117 119/119/119 123/123/123
f 124/124/124 118/118/118 123/123/123
f 125/125/125 119/119/119 122/122/122
f 119/119/119 125/125/125 123/123/123
f 126/126/126 125/125/125 122/122/122
f 127/127/127 125/125/125 126/126/126
f 125/125/125 127/127/127 123/123/123
f 128/128/128 127/127/127 126/126/126
f 128/128/128 129/129/129 127/127/127
f 130/130/130 124/124/124 123/123/123
f 127/127/127 130/130/130 123/123/123
f 130/130/130 127/127/127 129/129/129
f 130/130/130 131/131/131 124/124/124
f 131/131/131 130/130/130 129/129/129
f 134/134/134 133/133/133 132/132/132
f 133/133/133 135/135/135 132/132/132
f 136/136/136 132/132/132 135/135/135
f 133/133/133 137/137/137 135/135/135
f 138/138/138 136/136/136 135/135/135
f 139/139/139 136/136/136 138/138/138
f 137/137/137 140/140/140 135/135/135
f 135/135/135 140/140/140 138/138/138
f 137/137/137 141/141/141 140/140/140
f 142/142/142 139/139/139 138/138/138
f 142/142/142 143/143/143 139/139/139
f 143/143/143 142/142/142 144/144/144
f 140/140/140 145/145/145 138/138/138
f 138/138/138 145/145/145 142/142/142
f 141/141/141 146/146/146 140/140/140
f 140/140/140 146/146/146 145/145/145
f 141/141/141 147/147/147 146/146/146
f 142/142/142 148/148/148 144/144/144
f 145/145/145 148/148/148 142/142/142
f 144/144/144 148/148/148 149/149/149
f 146/146/146 150/150/150 145/145/145
f 145/145/145 150/150/150 148/148/148
f 147/147/147 151/151/151 146/146/146
f 150/150/150 146/146/146 151/151/151
f 147/147/147 152/152/152 151/151/151
f 148/148/148 153/153/153 149/149/149
f 150/150/150 153/153/153 148/148/148
f 149/149/149 153/153/153 154/154/154
f 152/152/152 155/155/155 151/151/151
f 155/155/155 152/152/152 156/156/156
f 157/157/157 155/155/155 156/156/156
f 158/158/158 150/150/150 151/151/151
f 153/153/153 150/150/150 158/158/158
f 158/158/158 151/151/151 155/155/155
f 153/153/153 159/159/159 154/154/154
f 159/159/159 153/153/153 158/158/158
f 154/154/154 159/159/159 160/160/160
f 155/155/155 157/157/157 161/161/161
f 161/161/161 158/158/158 155/155/155
f 159/159/159 158/158/158 161/161/161
f 157/157/157 162/162/162 161/161/161
f 159/159/159 163/163/163 160/160/160
f 163/163/163 159/159/159 161/161/161
f 161/161/161 162/162/162 163/163/163
f 164/164/164 160/160/160 163/163/163
f 162/162/162 164/164/164 163/163/163
f 167/167/167 166/166/166 165/165/165
f 168/168/168 167/167/167 165/165/165
f 167/167/167 168/168/168 169/169/169
f 168/168/168 165/165/165 170/170/170
f 165/165/165 171/171/171 170/170/170
f 170/170/170 171/171/171 172/172/172
f 173/173/173 170/170/170 172/172/172
f 168/168/168 174/174/174 169/169/169
f 168/168/168 170/170/170 174/174/174
f 169/169/169 174/174/174 175/175/175
f 170/170/170 173/173/173 176/176/176
f 170/170/170 176/176/176 174/174/174
f 173/173/173 177/177/177 176/176/176
f 176/176/176 177/177/177 178/178/178
f 174/174/174 176/176/176 178/178/178
f 177/177/177 179/179/179 178/178/178
f 179/179/179 180/180/180 178/178/178
f 174/174/174 181/181/181 175/175/175
f 181/181/181 174/174/174 178/178/178
f 181/181/181 178/178/178 180/180/180
f 181/181/181 182/182/182 175/175/175
f 182/182/182 181/181/181 180/180/180
