g ComputerStandBase
v 2.84094 -3.193455 0.08204345
v 2.529841 -2.910637 0.08204341
v 2.557301 -2.855281 0.08204339
v 2.868621 -3.137653 0.08204345
v 2.86141 -3.212063 0.07635175
v 2.5573 3.995081E-07 0.08204293
v 2.888849 -3.156746 0.07635174
v 2.876823 -3.226075 0.0627402
v 2.903821 -3.171649 0.06274018
v 2.883389 -3.232044 0.04435125
v 2.910082 -3.178233 0.04435125
v 2.883496 -3.232141 -0.09229774
v 2.910082 -3.178543 -0.09229775
v 2.910082 4.243728E-07 -0.09229827
v 2.910082 4.466358E-07 0.04435073
v 2.903821 4.486863E-07 0.06273967
v 2.888848 4.486432E-07 0.07635123
v 2.86862 4.465161E-07 0.08204293
v 2.86862 3.137654 0.08204242
v 2.5573 2.855282 0.08204247
v 2.910081 3.178234 0.04435021
v 2.910081 3.178544 -0.09229879
v 2.883495 3.232142 -0.0922988
v 2.883388 3.232045 0.0443502
v 2.903821 3.171649 0.06273916
v 2.876822 3.226076 0.06273914
v 2.888848 3.156747 0.07635071
v 2.861409 3.212064 0.0763507
v 2.84094 3.193456 0.08204241
v 2.52984 2.910638 0.08204246
v 2.824538 -3.256311 -0.09229774
v 2.883389 -3.232044 0.04435125
v 2.883496 -3.232141 -0.09229774
v 2.824196 -3.256311 0.04435126
v 2.876823 -3.226075 0.0627402
v -0.432817 -3.256311 0.04435126
v -0.4328694 -3.256311 -0.09229774
v -2.824537 -3.256312 -0.09229774
v 2.816954 -3.250619 0.0627402
v 2.86141 -3.212063 0.07635175
v -0.4317072 -3.25062 0.0627402
v -2.824195 -3.256312 0.04435126
v 2.800562 -3.237008 0.07635175
v 2.84094 -3.193455 0.08204345
v -2.883388 -3.232045 0.04435125
v -2.883495 -3.232142 -0.09229774
v -2.876822 -3.226076 0.0627402
v -2.816953 -3.25062 0.0627402
v -2.861409 -3.212064 0.07635175
v -0.429195 -3.237008 0.07635175
v -0.4259762 -3.218619 0.08204345
v 2.779559 -3.218619 0.08204345
v 2.529841 -2.910637 0.08204341
v 2.46895 -2.9356 0.08204341
v -0.3783744 -2.935601 0.08204341
v -2.468949 -2.935601 0.08204341
v -2.800561 -3.237009 0.07635175
v -2.84094 -3.193456 0.08204345
v -2.779558 -3.21862 0.08204345
v -2.52984 -2.910638 0.08204341
v -2.84094 -3.193456 0.08204345
v -2.5573 -2.855282 0.08204339
v -2.52984 -2.910638 0.08204341
v -2.86862 -3.137654 0.08204345
v -2.861409 -3.212064 0.07635175
v -2.5573 -3.727751E-07 0.08204293
v -2.888848 -3.156747 0.07635174
v -2.876822 -3.226076 0.0627402
v -2.903821 -3.171649 0.06274018
v -2.883388 -3.232045 0.04435125
v -2.910081 -3.178234 0.04435125
v -2.883495 -3.232142 -0.09229774
v -2.910081 -3.178544 -0.09229775
v -2.910082 -4.544474E-07 -0.09229827
v -2.910082 -4.321845E-07 0.04435073
v -2.903821 -4.282432E-07 0.06273967
v -2.888848 -4.237648E-07 0.07635123
v -2.86862 -4.197831E-07 0.08204293
v -2.868621 3.137653 0.08204242
v -2.557301 2.855281 0.08204247
v -2.910082 3.178233 0.04435021
v -2.910082 3.178543 -0.09229879
v -2.883496 3.232141 -0.0922988
v -2.883389 3.232044 0.0443502
v -2.903821 3.171649 0.06273916
v -2.876823 3.226075 0.06273914
v -2.888849 3.156746 0.07635071
v -2.86141 3.212063 0.0763507
v -2.84094 3.193455 0.08204241
v -2.529841 2.910637 0.08204246
v 2.824537 3.256312 -0.0922988
v 2.883495 3.232142 -0.0922988
v 2.883388 3.232045 0.0443502
v 2.824195 3.256312 0.0443502
v 2.876822 3.226076 0.06273914
v -0.432818 3.256311 0.0443502
v -0.4328703 3.256311 -0.0922988
v -2.824538 3.256311 -0.0922988
v 2.816953 3.25062 0.06273914
v 2.861409 3.212064 0.0763507
v -0.4317081 3.25062 0.06273914
v -2.824196 3.256311 0.0443502
v 2.800561 3.237009 0.0763507
v 2.84094 3.193456 0.08204241
v -2.883389 3.232044 0.0443502
v -2.883496 3.232141 -0.0922988
v -2.876823 3.226075 0.06273914
v -2.816954 3.250619 0.06273914
v -2.86141 3.212063 0.0763507
v -0.4291959 3.237008 0.0763507
v -0.4259771 3.218619 0.08204241
v 2.779558 3.21862 0.08204241
v 2.52984 2.910638 0.08204246
v 2.468949 2.935601 0.08204246
v -0.3783753 2.935601 0.08204246
v -2.46895 2.9356 0.08204246
v -2.800562 3.237008 0.0763507
v -2.84094 3.193455 0.08204241
v -2.779559 3.218619 0.08204241
v -2.529841 2.910637 0.08204246
vt 0.4661454 0.9104605
vt 0.4475062 0.8898281
vt 0.4438509 0.8916476
vt 0.4623357 0.9120855
vt 0.4673685 0.9121795
vt 0.2566702 0.8916234
vt 0.4634649 0.9134218
vt 0.4682209 0.9138739
vt 0.4643244 0.914672
vt 0.4686216 0.9154294
vt 0.4647193 0.9158129
vt 0.4689011 0.9246295
vt 0.4648708 0.9247494
vt 0.256671 0.9249716
vt 0.2566708 0.9160216
vt 0.2566708 0.9147432
vt 0.2566707 0.9134125
vt 0.2566707 0.9120318
vt 0.05100754 0.9120955
vt 0.06949136 0.8916571
vt 0.04862452 0.9158229
vt 0.0484736 0.9247594
vt 0.0444431 0.9246395
vt 0.04472232 0.9154395
vt 0.04901952 0.9146817
vt 0.04512283 0.9138841
vt 0.04987851 0.9134315
vt 0.04597545 0.9121903
vt 0.04719847 0.9104706
vt 0.06583613 0.8898379
vt 0.4529965 0.9625056
vt 0.4489549 0.9532424
vt 0.4487242 0.9624008
vt 0.4531304 0.9535624
vt 0.4493828 0.9517459
vt 0.6663651 0.9537382
vt 0.6663698 0.9626867
vt 0.8229685 0.9625044
vt 0.4535792 0.9524105
vt 0.4503336 0.9501376
vt 0.6662922 0.9524725
vt 0.8228316 0.9535668
vt 0.4545625 0.9512156
vt 0.4516846 0.9485335
vt 0.827005 0.953246
vt 0.8272383 0.9623987
vt 0.8265765 0.9517504
vt 0.8223828 0.9524166
vt 0.8256264 0.9501428
vt 0.6661272 0.9512069
vt 0.6659161 0.9499401
vt 0.455839 0.9499975
vt 0.4721619 0.9297606
vt 0.476175 0.9314172
vt 0.662797 0.9313921
vt 0.7997935 0.9314241
vt 0.8213985 0.9512208
vt 0.8242757 0.9485394
vt 0.8201218 0.9500028
vt 0.8038064 0.9297686
vt 0.6122323 0.8211823
vt 0.5899396 0.8399949
vt 0.5935945 0.8418139
vt 0.6084229 0.8195578
vt 0.6134548 0.8194633
vt 0.4027659 0.8400236
vt 0.6095521 0.8182212
vt 0.6143076 0.8177689
vt 0.6104111 0.8169709
vt 0.6147085 0.8162141
vt 0.6108064 0.8158302
vt 0.6149877 0.8070142
vt 0.6109573 0.8068938
vt 0.402766 0.8066762
vt 0.4027659 0.8156261
vt 0.4027659 0.8169044
vt 0.4027659 0.8182347
vt 0.4027659 0.8196156
vt 0.1971066 0.8195572
vt 0.2155902 0.839995
vt 0.1947235 0.8158296
vt 0.1945722 0.8068933
vt 0.190542 0.8070135
vt 0.1908213 0.8162138
vt 0.1951185 0.8169708
vt 0.1912219 0.8177685
vt 0.1959776 0.818221
vt 0.1920746 0.819463
vt 0.1932973 0.8211819
vt 0.2119355 0.841814
vt 0.1955902 0.8491229
vt 0.1913172 0.849228
vt 0.191548 0.8583875
vt 0.1957244 0.8580672
vt 0.1919764 0.8598849
vt 0.408981 0.8578904
vt 0.4089855 0.8489407
vt 0.5655944 0.8491237
vt 0.1961736 0.8592198
vt 0.1929272 0.8614935
vt 0.408908 0.8591558
vt 0.5654578 0.858062
vt 0.1971576 0.8604156
vt 0.1942791 0.8630983
vt 0.5696309 0.8583822
vt 0.5698642 0.8492297
vt 0.5692027 0.8598772
vt 0.5650091 0.8592121
vt 0.5682532 0.8614843
vt 0.4087434 0.8604223
vt 0.408532 0.861689
vt 0.1984339 0.8616344
vt 0.2147587 0.8818728
vt 0.2187726 0.8802162
vt 0.4054132 0.8802382
vt 0.5424206 0.8802041
vt 0.5640267 0.8604065
vt 0.5669031 0.8630871
vt 0.5627504 0.8616236
vt 0.5464337 0.8818592
vn 0.08259501 -0.09370676 0.9921679
vn 0 0 1
vn 0 0 1
vn 0.1391715 -0.01915143 0.9900831
vn 0.280168 -0.3099507 0.9085354
vn 0 0 1
vn 0.4520774 -0.08296238 0.8881122
vn 0.5275505 -0.5695884 0.6302854
vn 0.7832737 -0.1793114 0.5952561
vn 0.6680983 -0.7130146 0.2127317
vn 0.9517546 -0.2383953 0.1932121
vn 0.6814253 -0.731887 0.001049297
vn 0.9735383 -0.2285229 0.0005205663
vn 1 0 0
vn 0.9865696 0 0.1633415
vn 0.8361539 0 0.5484948
vn 0.4847301 0 0.8746638
vn 0.1367132 0 0.9906107
vn 0.1391716 0.01915215 0.990083
vn 0 0 1
vn 0.9517544 0.2383944 0.1932142
vn 0.9735386 0.228522 0.0005210348
vn 0.6814263 0.7318861 0.001049193
vn 0.6680987 0.7130138 0.2127328
vn 0.7832723 0.1793105 0.5952581
vn 0.5275498 0.5695878 0.6302865
vn 0.452077 0.08296275 0.8881123
vn 0.2801679 0.3099514 0.9085351
vn 0.0825953 0.09370787 0.9921678
vn 0 0 1
vn 0.1936012 -0.9810801 0.0004847987
vn 0.6680983 -0.7130146 0.2127317
vn 0.6814253 -0.731887 0.001049297
vn 0.2055058 -0.9616872 0.1814529
vn 0.5275505 -0.5695884 0.6302854
vn 0 -0.9887596 0.1495144
vn 0 -1 0
vn -0.1936013 -0.9810801 0.0004842439
vn 0.1564968 -0.8048384 0.5724893
vn 0.280168 -0.3099507 0.9085354
vn 0 -0.8562769 0.5165171
vn -0.2055063 -0.9616871 0.1814528
vn 0.07170056 -0.4803364 0.8741487
vn 0.08259501 -0.09370676 0.9921679
vn -0.6680988 -0.7130138 0.2127328
vn -0.6814263 -0.731886 0.001049193
vn -0.5275499 -0.5695876 0.6302865
vn -0.1564971 -0.8048391 0.5724882
vn -0.280168 -0.3099509 0.9085353
vn 0 -0.5165162 0.8562774
vn 0 -0.1495175 0.988759
vn 0.01517935 -0.1513316 0.9883665
vn 0 0 1
vn 0 0 1
vn 0 0 1
vn 0 0 1
vn -0.07170071 -0.4803386 0.8741474
vn -0.08259537 -0.09370711 0.9921678
vn -0.01517937 -0.1513295 0.9883668
vn 0 0 1
vn -0.08259537 -0.09370711 0.9921678
vn 0 0 1
vn 0 0 1
vn -0.1391716 -0.01915143 0.9900831
vn -0.280168 -0.3099509 0.9085353
vn 0 0 1
vn -0.4520771 -0.08296141 0.8881124
vn -0.5275499 -0.5695876 0.6302865
vn -0.7832724 -0.1793096 0.5952583
vn -0.6680988 -0.7130138 0.2127328
vn -0.9517544 -0.2383944 0.1932143
vn -0.6814263 -0.731886 0.001049193
vn -0.9735386 -0.228522 0.0005210347
vn -1 0 0
vn -0.9865696 0 0.1633415
vn -0.8361539 0 0.5484948
vn -0.4847301 0 0.8746638
vn -0.1367132 0 0.9906107
vn -0.1391714 0.01915192 0.9900831
vn 0 0 1
vn -0.9517545 0.2383955 0.1932121
vn -0.9735381 0.2285238 0.0005205661
vn -0.681425 0.7318873 0.001049297
vn -0.6680984 0.7130145 0.2127318
vn -0.7832738 0.1793105 0.5952561
vn -0.5275508 0.5695875 0.6302857
vn -0.4520773 0.08296237 0.8881123
vn -0.280168 0.3099504 0.9085355
vn -0.08259494 0.09370742 0.9921678
vn 0 0 1
vn 0.1936013 0.9810801 0.0004849864
vn 0.6814263 0.7318861 0.001049193
vn 0.6680987 0.7130138 0.2127328
vn 0.2055063 0.961687 0.1814531
vn 0.5275498 0.5695878 0.6302865
vn 0 0.9887595 0.1495151
vn 0 1 0
vn -0.1936017 0.98108 0.000485092
vn 0.1564973 0.8048392 0.5724879
vn 0.2801679 0.3099514 0.9085351
vn 0 0.856279 0.5165136
vn -0.2055062 0.961687 0.1814534
vn 0.07170082 0.4803405 0.8741464
vn 0.0825953 0.09370787 0.9921678
vn -0.6680984 0.7130145 0.2127318
vn -0.681425 0.7318873 0.001049297
vn -0.5275508 0.5695875 0.6302857
vn -0.1564969 0.8048391 0.5724881
vn -0.280168 0.3099504 0.9085355
vn 0 0.5165204 0.8562748
vn 0 0.149518 0.988759
vn 0.01517937 0.1513317 0.9883664
vn 0 0 1
vn 0 0 1
vn 0 0 1
vn 0 0 1
vn -0.07170069 0.4803402 0.8741466
vn -0.08259494 0.09370742 0.9921678
vn -0.01517935 0.1513302 0.9883667
vn 0 0 1
g ComputerStandBase_0
f 3/3/3 2/2/2 1/1/1
f 4/4/4 3/3/3 1/1/1
f 1/1/1 5/5/5 4/4/4
f 3/3/3 4/4/4 6/6/6
f 5/5/5 7/7/7 4/4/4
f 5/5/5 8/8/8 7/7/7
f 8/8/8 9/9/9 7/7/7
f 8/8/8 10/10/10 9/9/9
f 10/10/10 11/11/11 9/9/9
f 11/11/11 10/10/10 12/12/12
f 13/13/13 11/11/11 12/12/12
f 11/11/11 13/13/13 14/14/14
f 9/9/9 11/11/11 15/15/15
f 15/15/15 11/11/11 14/14/14
f 7/7/7 9/9/9 16/16/16
f 16/16/16 9/9/9 15/15/15
f 4/4/4 7/7/7 17/17/17
f 17/17/17 7/7/7 16/16/16
f 4/4/4 18/18/18 6/6/6
f 18/18/18 4/4/4 17/17/17
f 18/18/18 19/19/19 6/6/6
f 19/19/19 18/18/18 17/17/17
f 19/19/19 20/20/20 6/6/6
f 21/21/21 15/15/15 14/14/14
f 22/22/22 21/21/21 14/14/14
f 21/21/21 22/22/22 23/23/23
f 24/24/24 21/21/21 23/23/23
f 21/21/21 25/25/25 15/15/15
f 21/21/21 24/24/24 25/25/25
f 25/25/25 16/16/16 15/15/15
f 24/24/24 26/26/26 25/25/25
f 27/27/27 17/17/17 16/16/16
f 25/25/25 27/27/27 16/16/16
f 25/25/25 26/26/26 27/27/27
f 27/27/27 19/19/19 17/17/17
f 26/26/26 28/28/28 27/27/27
f 27/27/27 28/28/28 19/19/19
f 28/28/28 29/29/29 19/19/19
f 20/20/20 19/19/19 29/29/29
f 30/30/30 20/20/20 29/29/29
f 33/33/33 32/32/32 31/31/31
f 32/32/32 34/34/34 31/31/31
f 34/34/34 32/32/32 35/35/35
f 34/34/34 36/36/36 31/31/31
f 36/36/36 37/37/37 31/31/31
f 37/37/37 36/36/36 38/38/38
f 39/39/39 34/34/34 35/35/35
f 39/39/39 35/35/35 40/40/40
f 41/41/41 36/36/36 34/34/34
f 39/39/39 41/41/41 34/34/34
f 36/36/36 42/42/42 38/38/38
f 36/36/36 41/41/41 42/42/42
f 43/43/43 39/39/39 40/40/40
f 43/43/43 40/40/40 44/44/44
f 42/42/42 45/45/45 38/38/38
f 45/45/45 46/46/46 38/38/38
f 45/45/45 42/42/42 47/47/47
f 42/42/42 48/48/48 47/47/47
f 41/41/41 48/48/48 42/42/42
f 47/47/47 48/48/48 49/49/49
f 50/50/50 41/41/41 39/39/39
f 41/41/41 50/50/50 48/48/48
f 43/43/43 50/50/50 39/39/39
f 51/51/51 50/50/50 43/43/43
f 52/52/52 43/43/43 44/44/44
f 52/52/52 51/51/51 43/43/43
f 44/44/44 53/53/53 52/52/52
f 53/53/53 54/54/54 52/52/52
f 51/51/51 52/52/52 54/54/54
f 55/55/55 51/51/51 54/54/54
f 51/51/51 55/55/55 56/56/56
f 48/48/48 57/57/57 49/49/49
f 50/50/50 57/57/57 48/48/48
f 50/50/50 51/51/51 57/57/57
f 49/49/49 57/57/57 58/58/58
f 59/59/59 51/51/51 56/56/56
f 51/51/51 59/59/59 57/57/57
f 57/57/57 59/59/59 58/58/58
f 56/56/56 60/60/60 59/59/59
f 60/60/60 58/58/58 59/59/59
f 63/63/63 62/62/62 61/61/61
f 62/62/62 64/64/64 61/61/61
f 65/65/65 61/61/61 64/64/64
f 64/64/64 62/62/62 66/66/66
f 67/67/67 65/65/65 64/64/64
f 68/68/68 65/65/65 67/67/67
f 69/69/69 68/68/68 67/67/67
f 70/70/70 68/68/68 69/69/69
f 71/71/71 70/70/70 69/69/69
f 70/70/70 71/71/71 72/72/72
f 71/71/71 73/73/73 72/72/72
f 73/73/73 71/71/71 74/74/74
f 71/71/71 69/69/69 75/75/75
f 71/71/71 75/75/75 74/74/74
f 69/69/69 67/67/67 76/76/76
f 69/69/69 76/76/76 75/75/75
f 67/67/67 64/64/64 77/77/77
f 67/67/67 77/77/77 76/76/76
f 78/78/78 64/64/64 66/66/66
f 64/64/64 78/78/78 77/77/77
f 79/79/79 78/78/78 66/66/66
f 78/78/78 79/79/79 77/77/77
f 80/80/80 79/79/79 66/66/66
f 75/75/75 81/81/81 74/74/74
f 81/81/81 82/82/82 74/74/74
f 82/82/82 81/81/81 83/83/83
f 81/81/81 84/84/84 83/83/83
f 85/85/85 81/81/81 75/75/75
f 84/84/84 81/81/81 85/85/85
f 76/76/76 85/85/85 75/75/75
f 86/86/86 84/84/84 85/85/85
f 77/77/77 87/87/87 76/76/76
f 87/87/87 85/85/85 76/76/76
f 86/86/86 85/85/85 87/87/87
f 79/79/79 87/87/87 77/77/77
f 88/88/88 86/86/86 87/87/87
f 88/88/88 87/87/87 79/79/79
f 89/89/89 88/88/88 79/79/79
f 79/79/79 80/80/80 89/89/89
f 80/80/80 90/90/90 89/89/89
f 93/93/93 92/92/92 91/91/91
f 94/94/94 93/93/93 91/91/91
f 93/93/93 94/94/94 95/95/95
f 96/96/96 94/94/94 91/91/91
f 97/97/97 96/96/96 91/91/91
f 96/96/96 97/97/97 98/98/98
f 94/94/94 99/99/99 95/95/95
f 95/95/95 99/99/99 100/100/100
f 96/96/96 101/101/101 94/94/94
f 101/101/101 99/99/99 94/94/94
f 102/102/102 96/96/96 98/98/98
f 101/101/101 96/96/96 102/102/102
f 99/99/99 103/103/103 100/100/100
f 100/100/100 103/103/103 104/104/104
f 105/105/105 102/102/102 98/98/98
f 106/106/106 105/105/105 98/98/98
f 102/102/102 105/105/105 107/107/107
f 108/108/108 102/102/102 107/107/107
f 108/108/108 101/101/101 102/102/102
f 108/108/108 107/107/107 109/109/109
f 101/101/101 110/110/110 99/99/99
f 110/110/110 101/101/101 108/108/108
f 110/110/110 103/103/103 99/99/99
f 110/110/110 111/111/111 103/103/103
f 103/103/103 112/112/112 104/104/104
f 111/111/111 112/112/112 103/103/103
f 113/113/113 104/104/104 112/112/112
f 114/114/114 113/113/113 112/112/112
f 112/112/112 111/111/111 114/114/114
f 111/111/111 115/115/115 114/114/114
f 115/115/115 111/111/111 116/116/116
f 117/117/117 108/108/108 109/109/109
f 117/117/117 110/110/110 108/108/108
f 111/111/111 110/110/110 117/117/117
f 117/117/117 109/109/109 118/118/118
f 111/111/111 119/119/119 116/116/116
f 119/119/119 111/111/111 117/117/117
f 119/119/119 117/117/117 118/118/118
f 120/120/120 116/116/116 119/119/119
f 118/118/118 120/120/120 119/119/119
