g ComputerMonitorScreen
v -1.514828 3.336686 0.6013286
v -1.485046 3.270629 0.4659576
v -1.498533 3.313808 0.5272582
v -1.645552 3.395752 1.195528
v -1.474111 3.214257 0.4116113
v -1.462859 3.15079 0.3651044
v -1.455113 3.084903 0.3298969
v -1.451978 3.008504 0.3156469
v -1.645551 -3.395751 1.195529
v -1.451977 -3.008504 0.3156479
v -1.455112 -3.084903 0.3298979
v -1.462858 -3.15079 0.3651054
v -1.47411 -3.214257 0.4116123
v -1.514827 -3.336686 0.6013296
v -1.485045 -3.270629 0.4659587
v -1.498532 -3.313808 0.5272592
v -2.217738 -3.392423 3.796381
v -2.217739 3.392424 3.79638
v -2.214536 -3.459891 3.781824
v -2.214537 3.459892 3.781823
v -2.207011 3.50789 3.747614
v -2.197811 3.552408 3.708025
v -2.156804 3.626755 3.519399
v -2.187409 3.595117 3.658514
v -2.173934 3.621405 3.597267
v -2.20701 -3.50789 3.747615
v -2.19781 -3.552407 3.708026
v -2.187408 -3.595116 3.658514
v -2.156803 -3.626754 3.5194
v -2.173934 -3.621404 3.597268
vt 0.2052505 0.3585604
vt 0.2138439 0.3626549
vt 0.2099525 0.3599783
vt 0.1675328 0.3548995
vt 0.2172796 0.3661503
vt 0.2202453 0.3700852
vt 0.2224803 0.3741701
vt 0.2233846 0.3789067
vt 0.1675329 0.7759326
vt 0.2233845 0.7519255
vt 0.22248 0.7566618
vt 0.2202452 0.7607462
vt 0.2172796 0.7646816
vt 0.2052505 0.7722719
vt 0.2138436 0.7681772
vt 0.2099523 0.7708538
vt 0.002439078 0.7757266
vt 0.002439143 0.3551056
vt 0.003363091 0.7799086
vt 0.003363154 0.3509234
vt 0.005534563 0.3479478
vt 0.008054709 0.345187
vt 0.02002275 0.3405775
vt 0.0111913 0.3425391
vt 0.01507954 0.3409093
vt 0.00553462 0.7828841
vt 0.008054706 0.7856451
vt 0.0111913 0.7882929
vt 0.02002275 0.7902542
vt 0.01507954 0.7899228
vn -0.9762108 0.01051089 -0.2165687
vn -0.9762118 0.01048891 -0.2165651
vn -0.976646 0 -0.2148549
vn -0.9766519 7.031407E-05 -0.2148277
vn -0.9774677 -0.01414787 -0.2106106
vn -0.9769019 -0.004314526 -0.2136444
vn -0.9766445 0 -0.2148618
vn -0.9766445 0 -0.214862
vn -0.9766519 -7.062744E-05 -0.2148277
vn -0.9766445 0 -0.2148614
vn -0.9766446 0 -0.214861
vn -0.9769017 0.004309356 -0.2136456
vn -0.9774681 0.01414354 -0.2106085
vn -0.976211 -0.01051024 -0.216568
vn -0.976212 -0.01048827 -0.2165644
vn -0.9766461 0 -0.214854
vn -0.9766445 0 -0.2148613
vn -0.9766445 0 -0.2148621
vn -0.9766445 0 -0.2148613
vn -0.9766443 0 -0.2148623
vn -0.9766124 0.002981577 -0.2149861
vn -0.9765763 0.006369989 -0.215077
vn -0.976718 -0.00506391 -0.2144674
vn -0.9767172 -0.005000048 -0.2144723
vn -0.9766457 0 -0.2148561
vn -0.9766124 -0.002983345 -0.2149864
vn -0.9765762 -0.006369081 -0.2150778
vn -0.9767171 0.005002013 -0.2144732
vn -0.9767178 0.005066115 -0.2144682
vn -0.9766449 -1.692845E-05 -0.2148602
g ComputerMonitorScreen_0
f 3/3/3 2/2/2 1/1/1
f 1/1/1 2/2/2 4/4/4
f 2/2/2 5/5/5 4/4/4
f 4/4/4 5/5/5 6/6/6
f 4/4/4 6/6/6 7/7/7
f 4/4/4 7/7/7 8/8/8
f 9/9/9 4/4/4 8/8/8
f 10/10/10 9/9/9 8/8/8
f 11/11/11 9/9/9 10/10/10
f 12/12/12 9/9/9 11/11/11
f 13/13/13 9/9/9 12/12/12
f 14/14/14 9/9/9 13/13/13
f 15/15/15 14/14/14 13/13/13
f 16/16/16 14/14/14 15/15/15
f 9/9/9 17/17/17 4/4/4
f 17/17/17 18/18/18 4/4/4
f 9/9/9 19/19/19 17/17/17
f 18/18/18 20/20/20 4/4/4
f 20/20/20 21/21/21 4/4/4
f 21/21/21 22/22/22 4/4/4
f 4/4/4 22/22/22 23/23/23
f 22/22/22 24/24/24 23/23/23
f 23/23/23 24/24/24 25/25/25
f 9/9/9 26/26/26 19/19/19
f 9/9/9 27/27/27 26/26/26
f 28/28/28 27/27/27 9/9/9
f 29/29/29 28/28/28 9/9/9
f 30/30/30 28/28/28 29/29/29
