g CostumeDisplayGlassMissAppear
v -0.1471945 0.7399961 0.4861739
v -1.139254E-07 0.7544935 0.4861739
v -1.139254E-07 0.754494 3.523304
v -0.1471945 0.7399966 3.523304
v -0.2887326 0.6970611 0.4861739
v -0.2887326 0.6970615 3.523304
v -0.4191748 0.6273381 0.4861739
v -0.4191748 0.6273386 3.523304
v -0.5335084 0.533507 0.4861739
v -0.5335084 0.5335075 3.523304
v -0.6273394 0.4191735 0.4861739
v -0.6273394 0.419174 3.523304
v -0.6970621 0.2887316 0.4861739
v -0.6970621 0.2887321 3.523304
v -0.7399969 0.1471936 0.486174
v -0.7399969 0.1471941 3.523304
v -0.7544942 -9.964056E-07 0.486174
v -0.7544942 -5.015942E-07 3.523304
v -0.7399969 -0.1471956 0.486174
v -0.7399969 -0.1471951 3.523304
v -0.697062 -0.2887336 0.486174
v -0.697062 -0.2887331 3.523304
v -0.6273388 -0.4191757 0.486174
v -0.6273388 -0.4191752 3.523304
v -0.5335078 -0.5335091 0.4861741
v -0.5335078 -0.5335087 3.523304
v -0.4191746 -0.6273401 0.4861741
v -0.4191746 -0.6273396 3.523304
v -0.2887324 -0.6970628 0.4861741
v -0.2887324 -0.6970624 3.523304
v -0.1471943 -0.739998 0.4861741
v -0.1471943 -0.7399975 3.523304
v 1.139256E-07 -0.7544954 0.4861741
v 1.139256E-07 -0.7544948 3.523304
v 0.1471945 -0.7399979 0.4861741
v 0.1471945 -0.7399974 3.523304
v 0.2887326 -0.6970628 0.4861741
v 0.2887326 -0.6970624 3.523304
v 0.4191748 -0.6273401 0.4861741
v 0.4191748 -0.6273396 3.523304
v 0.5335084 -0.5335091 0.4861741
v 0.5335084 -0.5335086 3.523304
v 0.6273394 -0.4191755 0.486174
v 0.6273394 -0.419175 3.523304
v 0.6970621 -0.2887334 0.486174
v 0.6970621 -0.2887329 3.523304
v 0.7399969 -0.1471954 0.486174
v 0.7399969 -0.1471949 3.523304
v 0.7544942 -9.07423E-07 0.486174
v 0.7544942 -4.126117E-07 3.523304
v 0.7399969 0.1471937 0.486174
v 0.7399969 0.1471942 3.523304
v 0.697062 0.2887316 0.4861739
v 0.697062 0.2887321 3.523304
v 0.6273393 0.4191737 0.4861739
v 0.6273393 0.4191742 3.523304
v 0.5335082 0.5335073 0.4861739
v 0.5335082 0.5335078 3.523304
v 0.4191746 0.6273382 0.4861739
v 0.4191746 0.6273387 3.523304
v 0.2887324 0.697061 0.4861739
v 0.2887324 0.6970615 3.523304
v 0.1471943 0.7399961 0.4861739
v 0.1471943 0.7399966 3.523304
v -1.139254E-07 0.7544935 0.4861739
v -1.139254E-07 0.754494 3.523304
vt 0.0315731 0.003634021
vt 0.003627598 0.003634021
vt 0.003627658 0.505741
vt 0.03157316 0.505741
vt 0.05951871 0.003634021
vt 0.05951877 0.505741
vt 0.08746427 0.003634021
vt 0.08746433 0.505741
vt 0.1154098 0.003634021
vt 0.1154099 0.505741
vt 0.1433554 0.003634021
vt 0.1433555 0.505741
vt 0.1713009 0.003634021
vt 0.171301 0.505741
vt 0.1992465 0.003634021
vt 0.1992465 0.505741
vt 0.2271921 0.003634021
vt 0.2271921 0.505741
vt 0.2551377 0.003634021
vt 0.2551377 0.505741
vt 0.2830832 0.003633991
vt 0.2830833 0.505741
vt 0.3110288 0.003633991
vt 0.3110288 0.505741
vt 0.3389743 0.003633991
vt 0.3389744 0.505741
vt 0.3669199 0.003633991
vt 0.3669199 0.505741
vt 0.3948655 0.003633991
vt 0.3948655 0.505741
vt 0.422811 0.003633991
vt 0.422811 0.505741
vt 0.4507565 0.003633991
vt 0.4507566 0.505741
vt 0.4787021 0.003633991
vt 0.4787021 0.505741
vt 0.5066476 0.003633991
vt 0.5066477 0.505741
vt 0.5345932 0.003633991
vt 0.5345933 0.505741
vt 0.5625387 0.003633991
vt 0.5625389 0.505741
vt 0.5904844 0.003633991
vt 0.5904844 0.505741
vt 0.6184299 0.003633991
vt 0.61843 0.505741
vt 0.6463755 0.003633961
vt 0.6463755 0.5057409
vt 0.6743211 0.003633961
vt 0.6743211 0.5057409
vt 0.7022666 0.003633961
vt 0.7022667 0.5057409
vt 0.7302121 0.003633961
vt 0.7302122 0.5057409
vt 0.7581577 0.003633961
vt 0.7581578 0.5057409
vt 0.7861032 0.003633961
vt 0.7861033 0.505741
vt 0.8140488 0.003633961
vt 0.8140489 0.5057409
vt 0.8419943 0.003633961
vt 0.8419944 0.5057409
vt 0.8699399 0.003633961
vt 0.86994 0.5057409
vt 0.8978855 0.003633961
vt 0.8978856 0.5057409
vn -0.1950901 0.9807854 0
vn 0 1 0
vn 0 1 0
vn -0.1950902 0.9807854 0
vn -0.3826835 0.9238795 0
vn -0.3826836 0.9238794 0
vn -0.5555705 0.8314695 0
vn -0.5555705 0.8314695 0
vn -0.7071067 0.7071068 0
vn -0.7071066 0.7071068 0
vn -0.8314697 0.5555702 0
vn -0.8314697 0.5555702 0
vn -0.9238798 0.3826828 0
vn -0.9238798 0.3826828 0
vn -0.9807854 0.1950892 0
vn -0.9807854 0.1950893 0
vn -1 0 0
vn -1 0 0
vn -0.9807854 -0.1950897 0
vn -0.9807854 -0.1950897 0
vn -0.9238793 -0.382684 0
vn -0.9238793 -0.382684 0
vn -0.8314689 -0.5555713 0
vn -0.8314689 -0.5555713 0
vn -0.7071069 -0.7071066 0
vn -0.7071069 -0.7071066 0
vn -0.5555705 -0.8314695 0
vn -0.5555705 -0.8314695 0
vn -0.3826833 -0.9238795 0
vn -0.3826833 -0.9238795 0
vn -0.1950903 -0.9807853 0
vn -0.1950903 -0.9807854 0
vn 0 -1 0
vn 0 -1 0
vn 0.1950903 -0.9807853 0
vn 0.1950903 -0.9807854 0
vn 0.3826832 -0.9238796 0
vn 0.3826832 -0.9238796 0
vn 0.5555699 -0.8314698 0
vn 0.5555699 -0.8314698 0
vn 0.7071066 -0.7071068 0
vn 0.7071066 -0.7071068 0
vn 0.8314699 -0.5555698 0
vn 0.8314699 -0.5555698 0
vn 0.92388 -0.3826823 0
vn 0.92388 -0.3826823 0
vn 0.9807854 -0.1950894 0
vn 0.9807854 -0.1950894 0
vn 1 0 0
vn 1 0 0
vn 0.9807854 0.1950896 0
vn 0.9807854 0.1950896 0
vn 0.9238798 0.3826828 0
vn 0.9238798 0.3826828 0
vn 0.8314699 0.5555699 0
vn 0.8314699 0.5555699 0
vn 0.7071064 0.7071072 0
vn 0.7071063 0.7071072 0
vn 0.5555696 0.83147 0
vn 0.5555696 0.83147 0
vn 0.3826833 0.9238795 0
vn 0.3826833 0.9238795 0
vn 0.1950903 0.9807853 0
vn 0.1950904 0.9807853 0
vn 0 1 0
vn 0 1 0
g CostumeDisplayGlassMissAppear_0
f 3/3/3 2/2/2 1/1/1
f 4/4/4 3/3/3 1/1/1
f 4/4/4 1/1/1 5/5/5
f 6/6/6 4/4/4 5/5/5
f 6/6/6 5/5/5 7/7/7
f 8/8/8 6/6/6 7/7/7
f 8/8/8 7/7/7 9/9/9
f 10/10/10 8/8/8 9/9/9
f 10/10/10 9/9/9 11/11/11
f 12/12/12 10/10/10 11/11/11
f 12/12/12 11/11/11 13/13/13
f 14/14/14 12/12/12 13/13/13
f 14/14/14 13/13/13 15/15/15
f 16/16/16 14/14/14 15/15/15
f 16/16/16 15/15/15 17/17/17
f 18/18/18 16/16/16 17/17/17
f 18/18/18 17/17/17 19/19/19
f 20/20/20 18/18/18 19/19/19
f 20/20/20 19/19/19 21/21/21
f 22/22/22 20/20/20 21/21/21
f 22/22/22 21/21/21 23/23/23
f 24/24/24 22/22/22 23/23/23
f 24/24/24 23/23/23 25/25/25
f 26/26/26 24/24/24 25/25/25
f 26/26/26 25/25/25 27/27/27
f 28/28/28 26/26/26 27/27/27
f 28/28/28 27/27/27 29/29/29
f 30/30/30 28/28/28 29/29/29
f 30/30/30 29/29/29 31/31/31
f 32/32/32 30/30/30 31/31/31
f 32/32/32 31/31/31 33/33/33
f 34/34/34 32/32/32 33/33/33
f 34/34/34 33/33/33 35/35/35
f 36/36/36 34/34/34 35/35/35
f 36/36/36 35/35/35 37/37/37
f 38/38/38 36/36/36 37/37/37
f 38/38/38 37/37/37 39/39/39
f 40/40/40 38/38/38 39/39/39
f 40/40/40 39/39/39 41/41/41
f 42/42/42 40/40/40 41/41/41
f 42/42/42 41/41/41 43/43/43
f 44/44/44 42/42/42 43/43/43
f 44/44/44 43/43/43 45/45/45
f 46/46/46 44/44/44 45/45/45
f 46/46/46 45/45/45 47/47/47
f 48/48/48 46/46/46 47/47/47
f 48/48/48 47/47/47 49/49/49
f 50/50/50 48/48/48 49/49/49
f 50/50/50 49/49/49 51/51/51
f 52/52/52 50/50/50 51/51/51
f 52/52/52 51/51/51 53/53/53
f 54/54/54 52/52/52 53/53/53
f 54/54/54 53/53/53 55/55/55
f 56/56/56 54/54/54 55/55/55
f 56/56/56 55/55/55 57/57/57
f 58/58/58 56/56/56 57/57/57
f 58/58/58 57/57/57 59/59/59
f 60/60/60 58/58/58 59/59/59
f 60/60/60 59/59/59 61/61/61
f 62/62/62 60/60/60 61/61/61
f 62/62/62 61/61/61 63/63/63
f 64/64/64 62/62/62 63/63/63
f 64/64/64 63/63/63 65/65/65
f 66/66/66 64/64/64 65/65/65
