g Cylinder001
v 0 0 0
v 204.3667 353.9735 0
v 70.97578 402.5239 0
v 313.108 262.7288 0
v 384.0838 139.7951 0
v 408.7334 0 0
v 384.0837 -139.7953 0
v 313.1078 -262.729 0
v 204.3665 -353.9737 0
v 70.97562 -402.5239 0
v -70.97598 -402.5238 0
v -204.3668 -353.9735 0
v -313.108 -262.7287 0
v -384.0838 -139.795 0
v -408.7334 6.171703E-05 0
v -384.0838 139.7951 0
v -313.108 262.7288 0
v -204.3667 353.9735 0
v -70.97586 402.5239 0
v 70.97578 402.5239 0
v 204.3667 353.9735 0
v 70.97578 402.5239 1099.329
v 70.97578 402.5239 0
v 204.3667 353.9735 1099.329
v 313.108 262.7288 0
v 313.108 262.7288 1099.329
v 384.0838 139.7951 0
v 384.0838 139.7951 1099.329
v 408.7334 0 0
v 408.7334 0 1099.329
v 384.0837 -139.7953 0
v 384.0837 -139.7953 1099.329
v 313.1078 -262.729 0
v 313.1078 -262.729 1099.329
v 204.3665 -353.9737 0
v 204.3665 -353.9737 1099.329
v 70.97562 -402.5239 0
v 70.97562 -402.5239 1099.329
v -70.97598 -402.5238 0
v -70.97598 -402.5238 1099.329
v -204.3668 -353.9735 0
v -204.3668 -353.9735 1099.329
v -313.108 -262.7287 0
v -313.108 -262.7287 1099.329
v -384.0838 -139.795 0
v -384.0838 -139.795 1099.329
v -408.7334 6.171703E-05 0
v -408.7334 6.171703E-05 1099.329
v -384.0838 139.7951 0
v -384.0838 139.7951 1099.329
v -313.108 262.7288 0
v -313.108 262.7288 1099.329
v -204.3667 353.9735 0
v -204.3667 353.9735 1099.329
v -70.97586 402.5239 0
v -70.97586 402.5239 1099.329
v 70.97578 402.5239 0
v 70.97578 402.5239 1099.329
v 0 0 1099.329
v 70.97578 402.5239 1099.329
v 204.3667 353.9735 1099.329
v 313.108 262.7288 1099.329
v 384.0838 139.7951 1099.329
v 408.7334 0 1099.329
v 384.0837 -139.7953 1099.329
v 313.1078 -262.729 1099.329
v 204.3665 -353.9737 1099.329
v 70.97562 -402.5239 1099.329
v -70.97598 -402.5238 1099.329
v -204.3668 -353.9735 1099.329
v -313.108 -262.7287 1099.329
v -384.0838 -139.795 1099.329
v -408.7334 6.171703E-05 1099.329
v -384.0838 139.7951 1099.329
v -313.108 262.7288 1099.329
v -204.3667 353.9735 1099.329
v -70.97586 402.5239 1099.329
v 70.97578 402.5239 1099.329
vt 0.5 0
vt 0.9165039 0
vt 0.972168 0
vt 0.8613281 0
vt 0.8056641 0
vt 0.75 0
vt 0.6943359 0
vt 0.6386719 0
vt 0.5834961 0
vt 0.527832 0
vt 0.472168 0
vt 0.416748 0
vt 0.361084 0
vt 0.3056641 0
vt 0.25 0
vt 0.194458 0
vt 0.138916 0
vt 0.08331299 0
vt 0.027771 0
vt -0.027771 0
vt 0.9165039 0
vt 0.972168 1
vt 0.972168 0
vt 0.9165039 1
vt 0.8613281 0
vt 0.8613281 1
vt 0.8056641 0
vt 0.8056641 1
vt 0.75 0
vt 0.75 1
vt 0.6943359 0
vt 0.6943359 1
vt 0.6386719 0
vt 0.6386719 1
vt 0.5834961 0
vt 0.5834961 1
vt 0.527832 0
vt 0.527832 1
vt 0.472168 0
vt 0.472168 1
vt 0.416748 0
vt 0.416748 1
vt 0.361084 0
vt 0.361084 1
vt 0.3056641 0
vt 0.3056641 1
vt 0.25 0
vt 0.25 1
vt 0.194458 0
vt 0.194458 1
vt 0.138916 0
vt 0.138916 1
vt 0.08331299 0
vt 0.08331299 1
vt 0.027771 0
vt 0.027771 1
vt -0.027771 0
vt -0.027771 1
vt 0.5 1
vt 0.972168 1
vt 0.9165039 1
vt 0.8613281 1
vt 0.8056641 1
vt 0.75 1
vt 0.6943359 1
vt 0.6386719 1
vt 0.5834961 1
vt 0.527832 1
vt 0.472168 1
vt 0.416748 1
vt 0.361084 1
vt 0.3056641 1
vt 0.25 1
vt 0.194458 1
vt 0.138916 1
vt 0.08331299 1
vt 0.027771 1
vt -0.027771 1
vn 0 0 -1
vn 0 0 -1
vn 0 0 -1
vn 0 0 -1
vn 0 0 -1
vn 0 0 -1
vn 0 0 -1
vn 0 0 -1
vn 0 0 -1
vn 0 0 -1
vn 0 0 -1
vn 0 0 -1
vn 0 0 -1
vn 0 0 -1
vn 0 0 -1
vn 0 0 -1
vn 0 0 -1
vn 0 0 -1
vn 0 0 -1
vn 0 0 -1
vn 0.5 0.8662109 0
vn 0.1737061 0.9848633 0
vn 0.1737061 0.9848633 0
vn 0.5 0.8662109 0
vn 0.7661133 0.6425781 0
vn 0.7661133 0.6425781 0
vn 0.9394531 0.342041 0
vn 0.9394531 0.342041 0
vn 1 -1.192093E-07 0
vn 1 -1.192093E-07 0
vn 0.9394531 -0.342041 0
vn 0.9394531 -0.342041 0
vn 0.7661133 -0.6425781 0
vn 0.7661133 -0.6425781 0
vn 0.5 -0.8662109 0
vn 0.5 -0.8662109 0
vn 0.1737061 -0.9848633 0
vn 0.1737061 -0.9848633 0
vn -0.1737061 -0.9848633 0
vn -0.1737061 -0.9848633 0
vn -0.5 -0.8662109 0
vn -0.5 -0.8662109 0
vn -0.7661133 -0.6425781 0
vn -0.7661133 -0.6425781 0
vn -0.9394531 -0.342041 0
vn -0.9394531 -0.342041 0
vn -1 1.192093E-07 0
vn -1 1.192093E-07 0
vn -0.9394531 0.342041 0
vn -0.9394531 0.342041 0
vn -0.7661133 0.6425781 0
vn -0.7661133 0.6425781 0
vn -0.5 0.8662109 0
vn -0.5 0.8662109 0
vn -0.1737061 0.9848633 0
vn -0.1737061 0.9848633 0
vn 0.1737061 0.9848633 0
vn 0.1737061 0.9848633 0
vn 0 0 1
vn 0 0 1
vn 0 0 1
vn 0 0 1
vn 0 0 1
vn 0 0 1
vn 0 0 1
vn 0 0 1
vn 0 0 1
vn 0 0 1
vn 0 0 1
vn 0 0 1
vn 0 0 1
vn 0 0 1
vn 0 0 1
vn 0 0 1
vn 0 0 1
vn 0 0 1
vn 0 0 1
vn 0 0 1
g Cylinder001_0
f 3/3/3 2/2/2 1/1/1
f 2/2/2 4/4/4 1/1/1
f 4/4/4 5/5/5 1/1/1
f 5/5/5 6/6/6 1/1/1
f 6/6/6 7/7/7 1/1/1
f 7/7/7 8/8/8 1/1/1
f 8/8/8 9/9/9 1/1/1
f 9/9/9 10/10/10 1/1/1
f 10/10/10 11/11/11 1/1/1
f 11/11/11 12/12/12 1/1/1
f 12/12/12 13/13/13 1/1/1
f 13/13/13 14/14/14 1/1/1
f 14/14/14 15/15/15 1/1/1
f 15/15/15 16/16/16 1/1/1
f 16/16/16 17/17/17 1/1/1
f 17/17/17 18/18/18 1/1/1
f 18/18/18 19/19/19 1/1/1
f 19/19/19 20/20/20 1/1/1
f 23/23/23 22/22/22 21/21/21
f 22/22/22 24/24/24 21/21/21
f 21/21/21 24/24/24 25/25/25
f 24/24/24 26/26/26 25/25/25
f 25/25/25 26/26/26 27/27/27
f 26/26/26 28/28/28 27/27/27
f 27/27/27 28/28/28 29/29/29
f 28/28/28 30/30/30 29/29/29
f 29/29/29 30/30/30 31/31/31
f 30/30/30 32/32/32 31/31/31
f 31/31/31 32/32/32 33/33/33
f 32/32/32 34/34/34 33/33/33
f 33/33/33 34/34/34 35/35/35
f 34/34/34 36/36/36 35/35/35
f 35/35/35 36/36/36 37/37/37
f 36/36/36 38/38/38 37/37/37
f 37/37/37 38/38/38 39/39/39
f 38/38/38 40/40/40 39/39/39
f 39/39/39 40/40/40 41/41/41
f 40/40/40 42/42/42 41/41/41
f 41/41/41 42/42/42 43/43/43
f 42/42/42 44/44/44 43/43/43
f 43/43/43 44/44/44 45/45/45
f 44/44/44 46/46/46 45/45/45
f 45/45/45 46/46/46 47/47/47
f 46/46/46 48/48/48 47/47/47
f 47/47/47 48/48/48 49/49/49
f 48/48/48 50/50/50 49/49/49
f 49/49/49 50/50/50 51/51/51
f 50/50/50 52/52/52 51/51/51
f 51/51/51 52/52/52 53/53/53
f 52/52/52 54/54/54 53/53/53
f 53/53/53 54/54/54 55/55/55
f 54/54/54 56/56/56 55/55/55
f 55/55/55 56/56/56 57/57/57
f 56/56/56 58/58/58 57/57/57
f 61/61/61 60/60/60 59/59/59
f 62/62/62 61/61/61 59/59/59
f 63/63/63 62/62/62 59/59/59
f 64/64/64 63/63/63 59/59/59
f 65/65/65 64/64/64 59/59/59
f 66/66/66 65/65/65 59/59/59
f 67/67/67 66/66/66 59/59/59
f 68/68/68 67/67/67 59/59/59
f 69/69/69 68/68/68 59/59/59
f 70/70/70 69/69/69 59/59/59
f 71/71/71 70/70/70 59/59/59
f 72/72/72 71/71/71 59/59/59
f 73/73/73 72/72/72 59/59/59
f 74/74/74 73/73/73 59/59/59
f 75/75/75 74/74/74 59/59/59
f 76/76/76 75/75/75 59/59/59
f 77/77/77 76/76/76 59/59/59
f 78/78/78 77/77/77 59/59/59
