g DoorHandle_1
v 1.260444 1.322053 0.7195881
v 1.278225 1.317899 0.7197357
v 1.28155 1.321221 0.438479
v 1.263769 1.325376 0.4383311
v 1.264313 1.327452 0.4307702
v 1.282094 1.323298 0.4309173
v 1.265621 1.332945 0.4253225
v 1.283402 1.328791 0.4254701
v 1.267341 1.340383 0.4234494
v 1.285122 1.336229 0.4235976
v 1.290096 1.357962 0.4240822
v 1.272315 1.362117 0.4239346
v 1.273989 1.369502 0.4261376
v 1.29177 1.365347 0.4262858
v 1.27517 1.37485 0.4318268
v 1.292952 1.370695 0.4319747
v 1.275542 1.376728 0.4394775
v 1.293324 1.372574 0.4396248
v 1.290264 1.368564 0.721174
v 1.272483 1.372718 0.7210261
v 1.271928 1.370628 0.7285761
v 1.289709 1.366474 0.7287237
v 1.270578 1.365133 0.7339904
v 1.288359 1.360979 0.7341381
v 1.268795 1.357707 0.7358178
v 1.286576 1.353552 0.7359657
v 1.281567 1.332514 0.7353683
v 1.263786 1.336669 0.7352204
v 1.262049 1.329295 0.7329723
v 1.27983 1.325141 0.7331197
v 1.260826 1.323945 0.7272498
v 1.278607 1.319791 0.7273982
v 1.260444 1.322053 0.7195881
v 1.278225 1.317899 0.7197357
v 1.289291 1.335454 0.4253975
v 1.285122 1.336229 0.4235976
v 1.283402 1.328791 0.4254701
v 1.287724 1.328686 0.4271016
v 1.282094 1.323298 0.4309173
v 1.294163 1.356735 0.4258719
v 1.290096 1.357962 0.4240822
v 1.286575 1.323857 0.4318892
v 1.28155 1.321221 0.438479
v 1.295688 1.363464 0.42788
v 1.29177 1.365347 0.4262858
v 1.28608 1.321968 0.4387704
v 1.278225 1.317899 0.7197357
v 1.296729 1.368176 0.4328921
v 1.292952 1.370695 0.4319747
v 1.282775 1.318647 0.719564
v 1.278607 1.319791 0.7273982
v 1.297068 1.369887 0.4398622
v 1.293324 1.372574 0.4396248
v 1.283123 1.320372 0.72655
v 1.27983 1.325141 0.7331197
v 1.293998 1.365888 0.7209468
v 1.290264 1.368564 0.721174
v 1.284203 1.325093 0.7315986
v 1.281567 1.332514 0.7353683
v 1.293493 1.363986 0.7278154
v 1.289709 1.366474 0.7287237
v 1.285787 1.331815 0.733649
v 1.286576 1.353552 0.7359657
v 1.292308 1.35916 0.7325713
v 1.288359 1.360979 0.7341381
v 1.290686 1.352404 0.734233
v 1.294734 1.36136 0.7203303
v 1.294351 1.359914 0.7255535
v 1.293561 1.356702 0.7287182
v 1.292328 1.351565 0.7299826
v 1.287694 1.332063 0.7294289
v 1.28648 1.326911 0.7278574
v 1.285748 1.323711 0.7244347
v 1.285481 1.322388 0.7190806
v 1.297828 1.365335 0.440366
v 1.288736 1.325704 0.4394054
v 1.297569 1.364027 0.4350382
v 1.289113 1.327143 0.4341667
v 1.296867 1.36085 0.431659
v 1.28988 1.330365 0.4309713
v 1.291073 1.335518 0.4296739
v 1.295702 1.355707 0.4301245
vt 0.606153 0.6700543
vt 0.6084719 0.6700543
vt 0.6084979 0.6343297
vt 0.6061788 0.6343298
vt 0.6061783 0.6333315
vt 0.6084975 0.6333314
vt 0.6061757 0.6323351
vt 0.6084948 0.6323349
vt 0.6061717 0.6313367
vt 0.6084908 0.6313367
vt 0.6084783 0.6285045
vt 0.6061592 0.6285046
vt 0.6061552 0.627503
vt 0.6084743 0.627503
vt 0.6061526 0.6265
vt 0.6084716 0.6264999
vt 0.6061522 0.6254985
vt 0.6084713 0.6254985
vt 0.6084979 0.5897357
vt 0.6061788 0.5897357
vt 0.6061783 0.5887383
vt 0.6084974 0.5887383
vt 0.6061757 0.5877438
vt 0.6084948 0.5877438
vt 0.6061716 0.5867465
vt 0.6084908 0.5867465
vt 0.6084785 0.5839988
vt 0.6061594 0.5839988
vt 0.6061553 0.5829952
vt 0.6084744 0.5829952
vt 0.6061527 0.5819883
vt 0.6084718 0.5819885
vt 0.6061522 0.5809848
vt 0.6084713 0.5809848
vt 0.7758755 0.1854263
vt 0.775762 0.1847863
vt 0.7746834 0.1851531
vt 0.775001 0.18568
vt 0.773868 0.1859373
vt 0.778694 0.1854353
vt 0.7788236 0.1848082
vt 0.7743992 0.186294
vt 0.773465 0.1870381
vt 0.7795594 0.1857135
vt 0.7799066 0.1851868
vt 0.7741106 0.1871727
vt 0.7735921 0.2224141
vt 0.7801809 0.1863128
vt 0.780702 0.1859867
vt 0.7742193 0.2222835
vt 0.7739789 0.2234824
vt 0.7804603 0.1871929
vt 0.7810904 0.1870616
vt 0.7744964 0.2231591
vt 0.7747695 0.224281
vt 0.7804467 0.2223376
vt 0.7810904 0.2224727
vt 0.7751158 0.2237589
vt 0.7758455 0.2246625
vt 0.7801602 0.2232087
vt 0.7806873 0.2235647
vt 0.7759768 0.2240399
vt 0.7788025 0.2246996
vt 0.7795622 0.223815
vt 0.7798758 0.2243401
vt 0.7786931 0.2240625
vt 0.7798468 0.2222417
vt 0.7796612 0.2229004
vt 0.7792614 0.2233042
vt 0.7786103 0.2234754
vt 0.7760768 0.2234531
vt 0.7754219 0.2232677
vt 0.7750075 0.2228502
vt 0.7748169 0.2221853
vt 0.7798545 0.1872911
vt 0.7747178 0.1872686
vt 0.7796657 0.1866241
vt 0.7749031 0.1866029
vt 0.7792524 0.1862088
vt 0.775306 0.1861929
vt 0.7759622 0.1860169
vt 0.7785963 0.1860265
vn -0.227355 -0.9737858 -0.007126816
vn -0.1508436 -0.9885365 -0.00647454
vn -0.1507096 -0.9883669 -0.02043065
vn -0.2272719 -0.9735995 -0.02124962
vn -0.191128 -0.8363083 -0.5138661
vn -0.1151924 -0.8511464 -0.5121333
vn -0.1029546 -0.4717971 -0.8756757
vn -0.0271995 -0.4872702 -0.8728275
vn -0.002925078 -0.0468688 -0.9988967
vn 0.07273234 -0.0636863 -0.995316
vn 0.1034085 0.06765682 -0.9923353
vn 0.02824525 0.08548649 -0.9959389
vn 0.1245125 0.5024595 -0.8555881
vn 0.1994399 0.4836802 -0.8522191
vn 0.2028743 0.8511145 -0.4841963
vn 0.2774777 0.8310409 -0.4820552
vn 0.2275012 0.9737336 0.009276404
vn 0.3026002 0.9530662 0.009903065
vn 0.302432 0.9528732 0.02382081
vn 0.2272458 0.9735564 0.02339187
vn 0.1907432 0.8347757 0.5164945
vn 0.2653753 0.8143883 0.5160889
vn 0.10188 0.4672822 0.8782185
vn 0.1767302 0.4478994 0.8764432
vn 0.001424173 0.04285512 0.9990803
vn 0.07676558 0.02443248 0.9967498
vn 0.04541719 -0.1099156 0.9929027
vn -0.02990546 -0.09259241 0.9952549
vn -0.1252411 -0.5057144 0.8535617
vn -0.04965485 -0.5218163 0.8516115
vn -0.2028377 -0.850951 0.4844991
vn -0.12703 -0.8662127 0.4832588
vn -0.227355 -0.9737858 -0.007126816
vn -0.1508436 -0.9885365 -0.00647454
vn 0.6801953 -0.18724 -0.7087141
vn 0.07273234 -0.0636863 -0.995316
vn -0.0271995 -0.4872702 -0.8728275
vn 0.597949 -0.4935655 -0.6315458
vn -0.1151924 -0.8511464 -0.5121333
vn 0.7008867 -0.09747959 -0.7065802
vn 0.1034085 0.06765682 -0.9923353
vn 0.5331782 -0.7635027 -0.3643964
vn -0.1507096 -0.9883669 -0.02043065
vn 0.7599328 0.2075203 -0.615985
vn 0.1994399 0.4836802 -0.8522191
vn 0.5269666 -0.8498443 -0.008421892
vn -0.1508436 -0.9885365 -0.00647454
vn 0.8170387 0.4637002 -0.3426805
vn 0.2774777 0.8310409 -0.4820552
vn 0.5267825 -0.8499998 0.0007144585
vn -0.12703 -0.8662127 0.4832588
vn 0.8487778 0.5286078 0.01224834
vn 0.3026002 0.9530662 0.009903065
vn 0.521706 -0.7762581 0.3539013
vn -0.04965485 -0.5218163 0.8516115
vn 0.848731 0.528392 0.02139288
vn 0.302432 0.9528732 0.02382081
vn 0.5791858 -0.5228038 0.6254759
vn 0.04541719 -0.1099156 0.9929027
vn 0.8101279 0.448602 0.3774242
vn 0.2653753 0.8143883 0.5160889
vn 0.6589779 -0.2256047 0.717531
vn 0.07676558 0.02443248 0.9967498
vn 0.7439072 0.1767834 0.6444764
vn 0.1767302 0.4478994 0.8764432
vn 0.6805835 -0.1338936 0.7203323
vn 0.9819738 -0.1888074 0.008904467
vn 0.982191 -0.184401 0.03601673
vn 0.9780754 -0.1836294 0.09822802
vn 0.9283419 -0.2107085 0.3062406
vn 0.9197636 -0.2462341 0.3056203
vn 0.95455 -0.2816992 0.09736443
vn 0.9595624 -0.2793167 0.03495796
vn 0.9639568 -0.265944 0.00781297
vn 0.9820064 -0.1886594 0.008436739
vn 0.9640015 -0.2657954 0.00733707
vn 0.9842606 -0.1757755 -0.01827581
vn 0.9627761 -0.2696006 -0.01943815
vn 0.9818423 -0.1721102 -0.07977365
vn 0.9597275 -0.2690638 -0.0807947
vn 0.9299873 -0.2248638 -0.290792
vn 0.9378624 -0.190059 -0.2903305
g DoorHandle_1_0
f 3/3/3 2/2/2 1/1/1
f 4/4/4 3/3/3 1/1/1
f 3/3/3 4/4/4 5/5/5
f 6/6/6 3/3/3 5/5/5
f 6/6/6 5/5/5 7/7/7
f 8/8/8 6/6/6 7/7/7
f 8/8/8 7/7/7 9/9/9
f 10/10/10 8/8/8 9/9/9
f 11/11/11 10/10/10 9/9/9
f 12/12/12 11/11/11 9/9/9
f 11/11/11 12/12/12 13/13/13
f 14/14/14 11/11/11 13/13/13
f 14/14/14 13/13/13 15/15/15
f 16/16/16 14/14/14 15/15/15
f 16/16/16 15/15/15 17/17/17
f 18/18/18 16/16/16 17/17/17
f 19/19/19 18/18/18 17/17/17
f 20/20/20 19/19/19 17/17/17
f 20/20/20 21/21/21 19/19/19
f 21/21/21 22/22/22 19/19/19
f 21/21/21 23/23/23 22/22/22
f 23/23/23 24/24/24 22/22/22
f 23/23/23 25/25/25 24/24/24
f 25/25/25 26/26/26 24/24/24
f 27/27/27 26/26/26 25/25/25
f 28/28/28 27/27/27 25/25/25
f 28/28/28 29/29/29 27/27/27
f 29/29/29 30/30/30 27/27/27
f 29/29/29 31/31/31 30/30/30
f 31/31/31 32/32/32 30/30/30
f 31/31/31 33/33/33 32/32/32
f 33/33/33 34/34/34 32/32/32
f 37/37/37 36/36/36 35/35/35
f 38/38/38 37/37/37 35/35/35
f 39/39/39 37/37/37 38/38/38
f 35/35/35 36/36/36 40/40/40
f 36/36/36 41/41/41 40/40/40
f 42/42/42 39/39/39 38/38/38
f 43/43/43 39/39/39 42/42/42
f 40/40/40 41/41/41 44/44/44
f 41/41/41 45/45/45 44/44/44
f 46/46/46 43/43/43 42/42/42
f 47/47/47 43/43/43 46/46/46
f 44/44/44 45/45/45 48/48/48
f 45/45/45 49/49/49 48/48/48
f 50/50/50 47/47/47 46/46/46
f 51/51/51 47/47/47 50/50/50
f 48/48/48 49/49/49 52/52/52
f 49/49/49 53/53/53 52/52/52
f 54/54/54 51/51/51 50/50/50
f 55/55/55 51/51/51 54/54/54
f 52/52/52 53/53/53 56/56/56
f 53/53/53 57/57/57 56/56/56
f 58/58/58 55/55/55 54/54/54
f 59/59/59 55/55/55 58/58/58
f 56/56/56 57/57/57 60/60/60
f 57/57/57 61/61/61 60/60/60
f 62/62/62 59/59/59 58/58/58
f 63/63/63 59/59/59 62/62/62
f 60/60/60 61/61/61 64/64/64
f 61/61/61 65/65/65 64/64/64
f 65/65/65 63/63/63 66/66/66
f 66/66/66 63/63/63 62/62/62
f 64/64/64 65/65/65 66/66/66
f 52/52/52 56/56/56 67/67/67
f 56/56/56 60/60/60 68/68/68
f 67/67/67 56/56/56 68/68/68
f 60/60/60 64/64/64 69/69/69
f 68/68/68 60/60/60 69/69/69
f 64/64/64 66/66/66 70/70/70
f 69/69/69 64/64/64 70/70/70
f 70/70/70 66/66/66 71/71/71
f 66/66/66 62/62/62 71/71/71
f 69/69/69 70/70/70 71/71/71
f 71/71/71 62/62/62 72/72/72
f 72/72/72 69/69/69 71/71/71
f 68/68/68 69/69/69 72/72/72
f 62/62/62 58/58/58 72/72/72
f 73/73/73 68/68/68 72/72/72
f 72/72/72 58/58/58 73/73/73
f 67/67/67 68/68/68 73/73/73
f 58/58/58 54/54/54 73/73/73
f 73/73/73 54/54/54 74/74/74
f 74/74/74 67/67/67 73/73/73
f 54/54/54 50/50/50 74/74/74
f 75/75/75 67/67/67 74/74/74
f 75/75/75 52/52/52 67/67/67
f 48/48/48 52/52/52 75/75/75
f 74/74/74 50/50/50 76/76/76
f 76/76/76 75/75/75 74/74/74
f 50/50/50 46/46/46 76/76/76
f 77/77/77 48/48/48 75/75/75
f 77/77/77 75/75/75 76/76/76
f 44/44/44 48/48/48 77/77/77
f 76/76/76 46/46/46 78/78/78
f 78/78/78 77/77/77 76/76/76
f 46/46/46 42/42/42 78/78/78
f 79/79/79 44/44/44 77/77/77
f 79/79/79 77/77/77 78/78/78
f 40/40/40 44/44/44 79/79/79
f 78/78/78 42/42/42 80/80/80
f 80/80/80 79/79/79 78/78/78
f 42/42/42 38/38/38 80/80/80
f 80/80/80 38/38/38 81/81/81
f 80/80/80 81/81/81 79/79/79
f 38/38/38 35/35/35 81/81/81
f 82/82/82 40/40/40 79/79/79
f 81/81/81 82/82/82 79/79/79
f 35/35/35 40/40/40 82/82/82
f 81/81/81 35/35/35 82/82/82
