g ENV_Spongebob_Coral_Branch_2_LOD2
v 0.6732799 -0.3246289 2.012636
v 0.600961 -0.3686489 1.847658
v 0.7613778 -0.2195147 1.929052
v 0.7237448 -0.653255 2.392414
v 0.7960941 -0.7364434 2.152068
v 0.766355 -0.459695 1.641611
v 0.9210738 -0.8888605 2.508966
v 0.8855858 -0.5476835 2.645844
v 1.099013 -0.5664456 1.936795
v 0.8897712 -0.3338843 1.663742
v 0.91425 -0.2230057 1.757026
v 1.228418 -0.533218 2.543808
v 1.022001 -0.3101686 2.237388
v 0.7613778 -0.2195147 1.929052
v 0.6732799 -0.3246289 2.012636
v 0.8746213 -0.3272103 2.445826
v 0.7237448 -0.653255 2.392414
v 0.4049057 0.01987642 2.433427
v 0.3218113 -0.08543383 2.348687
v 0.302456 0.1377836 2.448864
v 0.6502943 -0.1262473 2.493473
v 0.8072624 -0.26015 3.355663
v 0.5719357 0.1010517 3.045678
v 0.5202113 0.1062017 2.718814
v 0.4984041 0.08068192 3.393432
v 0.6649731 -0.2441432 3.566321
v 0.5412975 0.06647807 3.542416
v 0.5991162 0.05501302 3.634856
v 0.7329675 0.07852366 3.741182
v 0.5412975 0.06647807 3.542416
v 0.4984041 0.08068192 3.393432
v 1.098588 -0.0671576 3.554146
v 0.7338784 0.3550543 3.418655
v 1.088201 -0.04692742 3.148315
v 0.7330251 0.329903 3.016034
v 0.5719357 0.1010517 3.045678
v 0.5202113 0.1062017 2.718814
v 1.036895 0.2001801 2.977655
v 0.4279351 0.2285577 2.249509
v 0.4049057 0.01987642 2.433427
v 0.302456 0.1377836 2.448864
v 0.9610207 0.03596071 2.776699
v 0.8210452 0.2055026 2.411561
v 0.7317625 -0.04144342 2.003194
v 0.5690176 0.1782471 2.12834
v 0.3501887 0.2299733 2.127778
v 0.643682 -0.2242558 2.029346
v 0.4143094 -0.0364687 1.91345
v 0.5722051 0.1109017 1.288061
v 0.1058157 0.08263578 2.180101
v 0.3628641 -0.09424327 1.353482
v 0.8168006 -0.06652267 1.826452
v 0.7295233 -0.1746327 1.914839
v -0.03352318 0.1300624 0.7723667
v 0.02020357 -0.1288264 0.7324429
v -0.1624704 -0.009755437 -0.003185241
v -0.1198066 0.1771381 -0.01953778
v 0.1636065 0.2109021 0.5136168
v 0.2523135 0.02989229 -0.05958094
v 0.2806542 0.03351595 0.4792128
v 0.2806542 0.03351595 0.4792128
v 0.7825387 -0.07496614 1.391952
v 0.4885901 -0.2395685 1.080233
v 0.1933355 -0.1654612 0.4949461
v -0.08055498 -0.17728 -0.01630756
v 0.02020357 -0.1288264 0.7324429
v 0.5798862 -0.3119476 1.629895
v -0.1624704 -0.009755437 -0.003185241
v 0.3628641 -0.09424327 1.353482
v 0.4143094 -0.0364687 1.91345
v 0.7804343 -0.2538098 1.545209
v 0.91425 -0.2230057 1.757026
v 0.8897712 -0.3338843 1.663742
v 0.766355 -0.459695 1.641611
v 0.7613778 -0.2195147 1.929052
v 0.600961 -0.3686489 1.847658
v 0.6601404 -0.2356958 1.915562
v 0.5590019 -0.2568117 1.828703
v 0.1058157 0.08263578 2.180101
v 0.302456 0.1377836 2.448864
v 0.251916 0.2842142 2.477417
v 0.4279351 0.2285577 2.249509
v 0.3501887 0.2299733 2.127778
v -0.00480112 0.3911615 2.444
v 0.1058157 0.08263578 2.180101
v -0.2616629 0.1792412 2.562044
v 0.1444467 0.2934676 2.898864
v 0.302456 0.1377836 2.448864
v -0.2677671 0.5628349 3.040595
v -0.3996901 0.2427861 3.043876
v -0.3615434 0.2670687 3.203971
v -0.02107256 0.2871259 3.241471
v -0.002457119 0.01424597 2.874784
v -0.2153312 0.01581313 3.123501
v -0.3996901 0.2427861 3.043876
v -0.2468406 0.08972997 2.778462
v -0.2616629 0.1792412 2.562044
v 0.06656747 -0.0129897 2.427921
v 0.3218113 -0.08543383 2.348687
v 0.1058157 0.08263578 2.180101
vt 0.3352051 0.5825195
vt 0.3405762 0.6098633
vt 0.3476563 0.59375
vt 0.2717285 0.574707
vt 0.2807617 0.59375
vt 0.3200684 0.6499023
vt 0.2600098 0.5864258
vt 0.2390137 0.5751953
vt 0.2719727 0.6259766
vt 0.3015137 0.6669922
vt 0.2792969 0.6767578
vt 0.2459717 0.5986328
vt 0.237915 0.6225586
vt 0.2359619 0.6826172
vt 0.2076416 0.6743164
vt 0.22229 0.605957
vt 0.2005615 0.59375
vt 0.3505859 0.1398926
vt 0.3381348 0.1437988
vt 0.347168 0.1470947
vt 0.3515625 0.1036987
vt 0.4187012 0.07055664
vt 0.4221191 0.114563
vt 0.387207 0.1331787
vt 0.4489746 0.08349609
vt 0.4279785 0.06652832
vt 0.4509277 0.06414795
vt 0.442627 0.05126953
vt 0.4287109 0.05358887
vt 0.4455566 0.0375061
vt 0.4372559 0.01939392
vt 0.4165039 0.05877686
vt 0.4174805 0.03613281
vt 0.4033203 0.06130981
vt 0.3911133 0.02947998
vt 0.395752 0.002500534
vt 0.3537598 0.005477905
vt 0.390625 0.05328369
vt 0.3041992 0.02973938
vt 0.3217773 0.009620667
vt 0.3132324 0.01029205
vt 0.3789063 0.06628418
vt 0.3415527 0.05984497
vt 0.2854004 0.08813477
vt 0.2966309 0.04898071
vt 0.2919922 0.02363586
vt 0.2919922 0.1149292
vt 0.2546387 0.03329468
vt 0.2042236 0.08813477
vt 0.2749023 0.01213837
vt 0.1951904 0.05499268
vt 0.267334 0.09466553
vt 0.2773438 0.1047363
vt 0.1123047 0.08514404
vt 0.1074219 0.06958008
vt 0.007827759 0.1090088
vt 0.01589966 0.1262207
vt 0.1003418 0.1228027
vt 0.04721069 0.1812744
vt 0.1122437 0.1508789
vt 0.1122437 0.1508789
vt 0.2305908 0.104126
vt 0.2042236 0.1413574
vt 0.1243286 0.1791992
vt 0.06616211 0.2349854
vt 0.15979 0.1975098
vt 0.2573242 0.1297607
vt 0.07269287 0.2529297
vt 0.2359619 0.1638184
vt 0.2893066 0.1529541
vt 0.2481689 0.1120605
vt 0.2614746 0.1068726
vt 0.2592773 0.1119385
vt 0.2597656 0.1168213
vt 0.2727051 0.1080322
vt 0.2687988 0.1207886
vt 0.2788086 0.1158447
vt 0.2731934 0.1280518
vt 0.315918 0.1634521
vt 0.4360352 0.5922852
vt 0.4511719 0.6069336
vt 0.4575195 0.5644531
vt 0.4772949 0.5625
vt 0.4787598 0.6293945
vt 0.512207 0.5839844
vt 0.5039063 0.6635742
vt 0.434082 0.6508789
vt 0.4360352 0.5922852
vt 0.4482422 0.6782227
vt 0.4453125 0.7055664
vt 0.4277344 0.6933594
vt 0.4316406 0.6708984
vt 0.4125977 0.6523438
vt 0.4155273 0.6738281
vt 0.4072266 0.6987305
vt 0.3903809 0.6621094
vt 0.3676758 0.6484375
vt 0.3945313 0.6040039
vt 0.4138184 0.5708008
vt 0.369873 0.5776367
vn -0.7851563 0.5029297 0.3613281
vn -0.9858398 -0.1446533 0.08447266
vn -0.1165161 0.7670898 0.6308594
vn -0.9365234 -0.286377 0.2022705
vn -0.5073242 -0.8183594 -0.2705078
vn 0.06793213 -0.6542969 -0.7529297
vn -0.3771973 -0.8964844 0.2316895
vn -0.3942871 0.06695557 0.9165039
vn 0.8056641 -0.4487305 -0.3867188
vn 0.6738281 -0.08294678 -0.734375
vn 0.847168 0.4707031 -0.2469482
vn 0.9453125 0.2471924 0.2133789
vn 0.5458984 0.8344727 0.07647705
vn -0.1165161 0.7670898 0.6308594
vn -0.7851563 0.5029297 0.3613281
vn -0.2851563 0.9003906 0.3288574
vn -0.9365234 -0.286377 0.2022705
vn -0.7509766 -0.4597168 0.4741211
vn -0.3540039 -0.9082031 0.2225342
vn 0.5668945 -0.2570801 0.7827148
vn 0.1746826 -0.984375 0.02235413
vn -0.1387939 -0.9755859 -0.1696777
vn -0.9912109 0.1297607 -0.02047729
vn -0.8964844 0.296875 0.3293457
vn -0.9951172 0.08990479 -0.04223633
vn -0.5844727 -0.7817383 0.2175293
vn -0.9614258 -0.004966736 0.2746582
vn -0.5439453 -0.005867004 0.8388672
vn -0.04748535 0.03108215 0.9985352
vn -0.9614258 -0.004966736 0.2746582
vn -0.9951172 0.08990479 -0.04223633
vn 0.9545898 -0.1619873 0.25
vn -0.1604004 0.9770508 0.1403809
vn 0.9760742 -0.1860352 -0.1141357
vn -0.2509766 0.9677734 0.003149033
vn -0.9912109 0.1297607 -0.02047729
vn -0.8964844 0.296875 0.3293457
vn 0.8881836 0.4528809 -0.08032227
vn 0.1716309 0.980957 -0.08843994
vn -0.7509766 -0.4597168 0.4741211
vn -0.02893066 0.2719727 0.9619141
vn 0.9072266 -0.2976074 -0.2980957
vn 0.7666016 0.3491211 -0.5385742
vn 0.9873047 0.157959 -0.006477356
vn 0.2009277 0.9667969 -0.1586914
vn 0.07086182 0.894043 -0.4423828
vn 0.2156982 -0.9472656 0.2370605
vn -0.9501953 0.2155762 -0.2254639
vn 0.1802979 0.9799805 0.08636475
vn -0.5942383 -0.2680664 -0.7583008
vn -0.8769531 -0.01660156 0.4807129
vn 0.8984375 0.4057617 0.1677246
vn 0.8232422 -0.246582 0.5112305
vn -0.7607422 0.5512695 0.3425293
vn -0.6166992 -0.7441406 0.2570801
vn -0.972168 -0.1469727 0.1811523
vn -0.8955078 0.432373 0.1062012
vn 0.284668 0.9560547 -0.07019043
vn 0.9941406 0.0496521 -0.09411621
vn 0.8662109 0.1107178 -0.4870605
vn 0.9296875 0.2253418 -0.291748
vn 0.9477539 0.1359863 -0.2878418
vn 0.2902832 -0.8925781 -0.345459
vn 0.5219727 -0.84375 -0.1242065
vn -0.640625 -0.7631836 0.08422852
vn -0.6166992 -0.7441406 0.2570801
vn -0.625 -0.7773438 -0.07189941
vn -0.972168 -0.1469727 0.1811523
vn -0.8769531 -0.01660156 0.4807129
vn -0.9501953 0.2155762 -0.2254639
vn 0.796875 -0.2130127 -0.5654297
vn 0.847168 0.4707031 -0.2469482
vn 0.6738281 -0.08294678 -0.734375
vn 0.06793213 -0.6542969 -0.7529297
vn -0.1165161 0.7670898 0.6308594
vn -0.9858398 -0.1446533 0.08447266
vn -0.1446533 -0.6323242 0.7607422
vn -0.6318359 -0.7524414 0.1850586
vn -0.5942383 -0.2680664 -0.7583008
vn -0.02893066 0.2719727 0.9619141
vn 0.8076172 0.5336914 0.251709
vn 0.1716309 0.980957 -0.08843994
vn 0.07086182 0.894043 -0.4423828
vn -0.2247314 0.8759766 -0.427002
vn -0.5942383 -0.2680664 -0.7583008
vn -0.909668 -0.08520508 -0.4067383
vn 0.8115234 0.4973145 0.3066406
vn 0.5668945 -0.2570801 0.7827148
vn -0.4284668 0.9023438 0.04983521
vn -0.9848633 -0.151123 -0.08654785
vn -0.7646484 -0.01846313 0.644043
vn 0.5058594 0.1831055 0.8432617
vn 0.3395996 -0.9345703 0.1081543
vn -0.2636719 -0.9228516 0.2807617
vn -0.9848633 -0.151123 -0.08654785
vn -0.6826172 -0.7075195 -0.18396
vn -0.909668 -0.08520508 -0.4067383
vn -0.2071533 -0.9716797 0.1137695
vn -0.3540039 -0.9082031 0.2225342
vn -0.5942383 -0.2680664 -0.7583008
g ENV_Spongebob_Coral_Branch_2_LOD2_0
f 3/3/3 2/2/2 1/1/1
f 1/1/1 2/2/2 4/4/4
f 2/2/2 5/5/5 4/4/4
f 2/2/2 6/6/6 5/5/5
f 5/5/5 7/7/7 4/4/4
f 7/7/7 8/8/8 4/4/4
f 9/9/9 5/5/5 6/6/6
f 5/5/5 9/9/9 7/7/7
f 10/10/10 9/9/9 6/6/6
f 10/10/10 11/11/11 9/9/9
f 7/7/7 12/12/12 8/8/8
f 7/7/7 9/9/9 12/12/12
f 13/13/13 9/9/9 11/11/11
f 13/13/13 12/12/12 9/9/9
f 13/13/13 11/11/11 14/14/14
f 13/13/13 14/14/14 15/15/15
f 16/16/16 8/8/8 12/12/12
f 16/16/16 12/12/12 13/13/13
f 15/15/15 16/16/16 13/13/13
f 16/16/16 17/17/17 8/8/8
f 15/15/15 17/17/17 16/16/16
f 20/20/20 19/19/19 18/18/18
f 21/21/21 18/18/18 19/19/19
f 22/22/22 18/18/18 21/21/21
f 22/22/22 23/23/23 18/18/18
f 24/24/24 18/18/18 23/23/23
f 22/22/22 25/25/25 23/23/23
f 22/22/22 26/26/26 25/25/25
f 27/27/27 25/25/25 26/26/26
f 27/27/27 26/26/26 28/28/28
f 29/29/29 28/28/28 26/26/26
f 28/28/28 29/29/29 30/30/30
f 31/31/31 30/30/30 29/29/29
f 32/32/32 26/26/26 22/22/22
f 26/26/26 32/32/32 29/29/29
f 33/33/33 31/31/31 29/29/29
f 29/29/29 32/32/32 33/33/33
f 22/22/22 34/34/34 32/32/32
f 21/21/21 34/34/34 22/22/22
f 35/35/35 31/31/31 33/33/33
f 31/31/31 35/35/35 36/36/36
f 36/36/36 35/35/35 37/37/37
f 33/33/33 32/32/32 38/38/38
f 34/34/34 38/38/38 32/32/32
f 33/33/33 38/38/38 35/35/35
f 39/39/39 37/37/37 35/35/35
f 37/37/37 39/39/39 40/40/40
f 40/40/40 39/39/39 41/41/41
f 42/42/42 38/38/38 34/34/34
f 34/34/34 21/21/21 42/42/42
f 35/35/35 38/38/38 43/43/43
f 35/35/35 43/43/43 39/39/39
f 38/38/38 42/42/42 43/43/43
f 21/21/21 44/44/44 42/42/42
f 42/42/42 44/44/44 43/43/43
f 45/45/45 39/39/39 43/43/43
f 45/45/45 43/43/43 44/44/44
f 39/39/39 45/45/45 46/46/46
f 47/47/47 44/44/44 21/21/21
f 21/21/21 19/19/19 47/47/47
f 48/48/48 46/46/46 45/45/45
f 48/48/48 45/45/45 49/49/49
f 46/46/46 48/48/48 50/50/50
f 48/48/48 49/49/49 51/51/51
f 44/44/44 52/52/52 45/45/45
f 49/49/49 45/45/45 52/52/52
f 44/44/44 47/47/47 53/53/53
f 52/52/52 44/44/44 53/53/53
f 54/54/54 51/51/51 49/49/49
f 54/54/54 55/55/55 51/51/51
f 55/55/55 54/54/54 56/56/56
f 57/57/57 56/56/56 54/54/54
f 57/57/57 54/54/54 58/58/58
f 49/49/49 58/58/58 54/54/54
f 59/59/59 57/57/57 58/58/58
f 49/49/49 60/60/60 58/58/58
f 59/59/59 58/58/58 61/61/61
f 60/60/60 49/49/49 62/62/62
f 49/49/49 52/52/52 62/62/62
f 60/60/60 62/62/62 63/63/63
f 59/59/59 61/61/61 64/64/64
f 64/64/64 61/61/61 63/63/63
f 59/59/59 64/64/64 65/65/65
f 66/66/66 65/65/65 64/64/64
f 63/63/63 66/66/66 64/64/64
f 66/66/66 63/63/63 67/67/67
f 66/66/66 68/68/68 65/65/65
f 67/67/67 69/69/69 66/66/66
f 69/69/69 67/67/67 70/70/70
f 63/63/63 62/62/62 71/71/71
f 67/67/67 63/63/63 71/71/71
f 62/62/62 52/52/52 72/72/72
f 62/62/62 72/72/72 71/71/71
f 73/73/73 71/71/71 72/72/72
f 73/73/73 74/74/74 71/71/71
f 71/71/71 74/74/74 67/67/67
f 75/75/75 72/72/72 52/52/52
f 52/52/52 53/53/53 75/75/75
f 76/76/76 67/67/67 74/74/74
f 53/53/53 77/77/77 75/75/75
f 75/75/75 77/77/77 76/76/76
f 77/77/77 53/53/53 47/47/47
f 67/67/67 76/76/76 78/78/78
f 78/78/78 76/76/76 77/77/77
f 77/77/77 47/47/47 78/78/78
f 78/78/78 70/70/70 67/67/67
f 19/19/19 78/78/78 47/47/47
f 78/78/78 19/19/19 70/70/70
f 70/70/70 19/19/19 79/79/79
f 82/82/82 81/81/81 80/80/80
f 81/81/81 82/82/82 83/83/83
f 84/84/84 81/81/81 83/83/83
f 85/85/85 84/84/84 83/83/83
f 84/84/84 85/85/85 86/86/86
f 81/81/81 84/84/84 87/87/87
f 88/88/88 81/81/81 87/87/87
f 84/84/84 86/86/86 89/89/89
f 84/84/84 89/89/89 87/87/87
f 86/86/86 90/90/90 89/89/89
f 90/90/90 91/91/91 89/89/89
f 89/89/89 92/92/92 87/87/87
f 91/91/91 92/92/92 89/89/89
f 88/88/88 87/87/87 93/93/93
f 93/93/93 87/87/87 92/92/92
f 91/91/91 94/94/94 92/92/92
f 94/94/94 93/93/93 92/92/92
f 95/95/95 94/94/94 91/91/91
f 95/95/95 96/96/96 94/94/94
f 96/96/96 93/93/93 94/94/94
f 97/97/97 96/96/96 95/95/95
f 93/93/93 98/98/98 88/88/88
f 98/98/98 93/93/93 96/96/96
f 98/98/98 96/96/96 97/97/97
f 98/98/98 99/99/99 88/88/88
f 100/100/100 98/98/98 97/97/97
f 100/100/100 99/99/99 98/98/98
