g ENV_Spongebob_Stalagmite_02_Flipped_LOD1
v 0.008144004 0.01066076 2.295567
v 0.009003711 0.02081535 2.310473
v 0.01401222 0.02324516 2.295567
v 0.05437975 -0.001162098 2.085927
v 0.04101397 0.03623037 2.083875
v 0.03206218 0.06875677 1.869572
v 0.07579286 -0.003309533 1.869572
v -0.01632835 0.05052091 2.083892
v -0.05125421 0.05593333 1.869572
v 0.01401222 0.02324516 2.295567
v 0.002932172 0.01309146 2.295567
v 0.009003711 0.02081535 2.310473
v 0.1277023 0.1351095 1.415787
v 0.1645018 0.01780688 1.415787
v -0.04523294 0.02362635 2.085898
v 0.002932172 0.01309146 2.295567
v -0.07579286 0.003308762 1.869572
v -0.04577495 -0.01513103 2.0878
v 0.002932172 0.01309146 2.295567
v 0.2195926 0.1132623 1.060715
v 0.2300804 0.02610766 1.060715
v 0.2842534 0.1133906 0.5750439
v 0.3018537 -0.0009788829 0.5750439
v 0.3402869 -0.007214676 0.2885711
v -0.03499436 -0.03180988 2.088403
v 0.002932172 0.01309146 2.295567
v 0.2012641 0.2003918 0.8167803
v 0.3328235 0.1322505 0.2885602
v 0.4019294 0.01167674 0.0895702
v 0.2242348 0.2123349 0.575044
v 0.130924 0.2807679 0.575044
v 0.2691301 0.2578965 0.2885492
v 0.3901664 0.1859507 0.08957023
v 0.534838 0.2384733 -5.895431E-08
v 0.5557782 0.004871018 -9.422727E-08
v 0.4324732 0.4357703 -2.916329E-08
v 0.3190036 0.3319148 0.08957025
v 0.264268 0.5667253 -9.389638E-09
v 0.1599148 0.3429389 0.2885447
v 0.1992761 0.4273482 0.08957027
v 0.05583166 0.6114014 -2.643723E-09
v 0.04920984 0.4577215 0.08957027
v -0.1611061 0.5629973 -9.952537E-09
v 0.02456733 0.371938 0.2885492
v -0.108348 0.4184112 0.08957026
v -0.3535163 0.4288819 -3.020339E-08
v -0.24941 0.3154014 0.08957025
v -0.4921069 0.2294731 -6.031328E-08
v -0.1126255 0.3399662 0.2885602
v -0.3525023 0.1643743 0.08957022
v -0.5557776 -0.004871018 -9.569825E-08
v 0.01852342 0.3082595 0.575044
v -0.2242591 0.2560375 0.2885711
v -0.0958518 0.2906364 0.575044
v 0.0241397 0.2829862 0.8167803
v -0.4019288 -0.01167697 0.0895702
v -0.5348374 -0.2384735 -1.309713E-07
v 0.1210738 0.2596448 0.8167782
v 0.1110496 0.2381466 1.060715
v 0.02951784 0.2568634 1.060715
v 0.07995324 0.1714606 1.415787
v 0.01090488 0.1261447 1.646578
v -0.05438752 0.2410217 1.060715
v -0.0390023 0.1727334 1.415787
v -0.1278924 0.1930334 1.060715
v -0.09209912 0.1374618 1.415787
v -0.1798069 0.1202047 1.060715
v -0.1947771 0.230604 0.575044
v -0.2967927 0.1496126 0.2887288
v -0.2214502 0.1329204 0.8170167
v -0.3398979 0.02141984 0.2886786
v -0.2025819 0.03363169 1.060778
v -0.3314925 -0.1229076 0.288559
v -0.2730867 -0.08942792 0.5750453
v -0.1917389 -0.05352859 1.060715
v -0.3901664 -0.1859508 0.08957017
v -0.4324732 -0.4357705 -1.607623E-07
v -0.3190036 -0.331915 0.08957015
v -0.264268 -0.5667254 -1.805359E-07
v -0.2666908 -0.2501396 0.2885481
v -0.2130575 -0.1883658 0.575044
v -0.1499392 -0.1279842 1.060715
v -0.08312411 -0.07562612 1.647458
v -0.1992761 -0.4273483 0.08957013
v -0.0558311 -0.6114014 -1.872818E-07
v -0.1565826 -0.3357929 0.2885435
v -0.04920984 -0.4577217 0.08957013
v 0.1611061 -0.5629972 -1.79973E-07
v -0.1197456 -0.2567964 0.575044
v -0.03206163 -0.06875741 1.869572
v 0.108348 -0.4184114 0.08957014
v 0.3535163 -0.4288817 -1.597221E-07
v -0.020192 -0.3650835 0.288548
v -0.001395606 -0.2342141 0.816772
v -0.09833305 -0.2108747 0.8167693
v -0.06179222 -0.1325158 1.415787
v -0.08319315 -0.1784093 1.060715
v 0.2494105 -0.3154014 0.08957016
v 0.4921069 -0.2294731 -1.296122E-07
v 0.1189269 -0.3329416 0.288559
v 0.3525018 -0.1643746 0.08957018
v 0.5557782 0.004871018 -9.422727E-08
v 0.4019294 0.01167674 0.0895702
v 0.3402869 -0.007214676 0.2885711
v 0.1070258 -0.2666737 0.575044
v 0.2344474 -0.2461655 0.2885703
v 0.3044516 -0.1307208 0.2885753
v 0.3018537 -0.0009788829 0.5750439
v 0.2059495 -0.2066477 0.575044
v 0.2427992 -0.08351677 0.8167914
v 0.2300804 0.02610766 1.060715
v 0.0822429 -0.1812879 1.060715
v 0.1557461 -0.133302 1.060715
v 0.20766 -0.06047429 1.060715
v 0.1645018 0.01780688 1.415787
v 0.07579286 -0.003309533 1.869572
v 0.05716222 -0.1337904 1.415787
v 0.05125421 -0.0559339 1.869572
v 0.0373221 -0.03576329 2.087898
v 0.05437975 -0.001162098 2.085927
v 0.008144004 0.01066076 2.295567
v 0.0006072164 -0.0481568 2.088762
v 0.008144004 0.01066076 2.295567
v 0.002932172 0.01309146 2.295567
v 0.008144004 0.01066076 2.295567
v 0.009003711 0.02081535 2.310473
vt 0.6386719 0.3525391
vt 0.6416016 0.3535156
vt 0.6386719 0.3535156
vt 0.6113281 0.361084
vt 0.6142578 0.3659668
vt 0.5922852 0.3874512
vt 0.5854492 0.376709
vt 0.6191406 0.3725586
vt 0.6010742 0.3967285
vt 0.6386719 0.3535156
vt 0.6411133 0.3564453
vt 0.6416016 0.3535156
vt 0.5341797 0.4191895
vt 0.5268555 0.4035645
vt 0.6230469 0.3762207
vt 0.6411133 0.3564453
vt 0.6079102 0.4020996
vt 0.6274414 0.3789063
vt 0.6411133 0.3564453
vt 0.486084 0.4345703
vt 0.4812012 0.4233398
vt 0.4228516 0.4609375
vt 0.4174805 0.4453125
vt 0.3789063 0.4543457
vt 0.6298828 0.380127
vt 0.6411133 0.3564453
vt 0.4616699 0.4611816
vt 0.3820801 0.473877
vt 0.3515625 0.4589844
vt 0.4294434 0.4768066
vt 0.4377441 0.4926758
vt 0.3876953 0.4943848
vt 0.3518066 0.4833984
vt 0.3276367 0.4855957
vt 0.3293457 0.4558105
vt 0.3310547 0.5141602
vt 0.355957 0.5073242
vt 0.3398438 0.5410156
vt 0.3962402 0.5146484
vt 0.3642578 0.5297852
vt 0.354248 0.565918
vt 0.3762207 0.5512695
vt 0.3725586 0.5878906
vt 0.4077148 0.534668
vt 0.392334 0.5712891
vt 0.3937988 0.609375
vt 0.4116211 0.5913086
vt 0.4162598 0.6293945
vt 0.4221191 0.5532227
vt 0.432373 0.6113281
vt 0.439209 0.6489258
vt 0.4475098 0.5083008
vt 0.4379883 0.5698242
vt 0.4587402 0.5224609
vt 0.4772949 0.4855957
vt 0.4545898 0.6289063
vt 0.4628906 0.6669922
vt 0.4689941 0.4736328
vt 0.4978027 0.4545898
vt 0.5043945 0.4638672
vt 0.5385742 0.4262695
vt 0.5698242 0.4118652
vt 0.512207 0.4729004
vt 0.5493164 0.4389648
vt 0.5209961 0.4819336
vt 0.5561523 0.4450684
vt 0.5307617 0.4902344
vt 0.4709473 0.5361328
vt 0.4533691 0.5844727
vt 0.5078125 0.519043
vt 0.4707031 0.5986328
vt 0.5410156 0.4980469
vt 0.4899902 0.612793
vt 0.5136719 0.5708008
vt 0.5517578 0.5048828
vt 0.4765625 0.6455078
vt 0.4873047 0.6821289
vt 0.4985352 0.6586914
vt 0.5136719 0.6933594
vt 0.5107422 0.6245117
vt 0.5302734 0.5800781
vt 0.5629883 0.5112305
vt 0.6010742 0.4350586
vt 0.5214844 0.6674805
vt 0.5415039 0.6987305
vt 0.5317383 0.6333008
vt 0.5449219 0.6728516
vt 0.5703125 0.6992188
vt 0.5473633 0.5869141
vt 0.6191406 0.4084473
vt 0.5703125 0.6738281
vt 0.6000977 0.6962891
vt 0.5541992 0.6381836
vt 0.5751953 0.5551758
vt 0.5605469 0.5507813
vt 0.59375 0.4682617
vt 0.5742188 0.5161133
vt 0.597168 0.671875
vt 0.6303711 0.6899414
vt 0.5771484 0.640625
vt 0.6235352 0.6669922
vt 0.6601563 0.6782227
vt 0.6474609 0.6586914
vt 0.6362305 0.6342773
vt 0.5825195 0.5952148
vt 0.5991211 0.6396484
vt 0.6191406 0.637207
vt 0.6318359 0.5957031
vt 0.5996094 0.5966797
vt 0.6186523 0.5625
vt 0.6347656 0.5288086
vt 0.5976563 0.5234375
vt 0.6098633 0.5258789
vt 0.6225586 0.527832
vt 0.637207 0.4787598
vt 0.6396484 0.4138184
vt 0.6103516 0.473877
vt 0.6313477 0.4123535
vt 0.6396484 0.3835449
vt 0.6450195 0.3842773
vt 0.6416016 0.3566895
vt 0.6342773 0.3823242
vt 0.6416016 0.3566895
vt 0.6411133 0.3564453
vt 0.6416016 0.3566895
vt 0.6416016 0.3535156
vn 0.9990234 0.03320313 -0.03649902
vn 0.1231689 0.243042 0.9624023
vn 0.7958984 0.4448242 0.4104004
vn 0.9863281 -0.09832764 0.1324463
vn 0.6323242 0.7670898 0.1075439
vn 0.409668 0.8989258 0.1547852
vn 0.9604492 0.1912842 0.2026367
vn -0.2159424 0.9692383 0.1176758
vn -0.4733887 0.8613281 0.1856689
vn 0.2548828 0.9072266 0.3347168
vn -0.267334 0.9213867 -0.2817383
vn 0.1705322 0.1524658 0.9736328
vn 0.8491211 0.4946289 0.1865234
vn 0.9516602 -0.007228851 0.3076172
vn -0.925293 0.3469238 0.1540527
vn -0.7910156 0.590332 0.1599121
vn -0.9853516 -0.06982422 0.1540527
vn -0.9482422 -0.2634277 0.1762695
vn -0.9589844 -0.1699219 0.2269287
vn 0.9072266 0.3896484 0.1589355
vn 0.980957 -0.1109619 0.15979
vn 0.949707 0.3046875 0.07086182
vn 0.9941406 -0.06591797 0.08575439
vn 0.9755859 -0.09191895 0.1999512
vn -0.5400391 -0.8203125 0.1876221
vn -0.8164063 -0.5146484 0.2626953
vn 0.7416992 0.6625977 0.1028442
vn 0.9321289 0.2614746 0.2512207
vn 0.769043 -0.119812 0.6279297
vn 0.7338867 0.6743164 0.08123779
vn 0.4294434 0.8896484 0.1557617
vn 0.7290039 0.6137695 0.3034668
vn 0.7431641 0.1583252 0.6503906
vn 0.4575195 0.1640625 0.8740234
vn 0.4804688 -0.01158142 0.8769531
vn 0.3608398 0.3371582 0.8696289
vn 0.609375 0.427002 0.668457
vn 0.1772461 0.4736328 0.862793
vn 0.3879395 0.8642578 0.3200684
vn 0.331543 0.6567383 0.6772461
vn -0.01960754 0.5063477 0.8618164
vn 0.02285767 0.7329102 0.6801758
vn -0.2131348 0.4641113 0.8598633
vn -0.03710938 0.9521484 0.3032227
vn -0.28125 0.6904297 0.6665039
vn -0.3745117 0.3408203 0.8623047
vn -0.5268555 0.5493164 0.6484375
vn -0.4606934 0.1800537 0.8691406
vn -0.4335938 0.8632813 0.2585449
vn -0.7128906 0.3754883 0.5922852
vn -0.5073242 0.01765442 0.8613281
vn 0.03111267 0.9741211 0.2247314
vn -0.71875 0.6606445 0.2164307
vn -0.3745117 0.9194336 0.1207886
vn 0.01499939 0.9931641 0.1141357
vn -0.7744141 0.1116333 0.6225586
vn -0.4689941 -0.1699219 0.8666992
vn 0.4191895 0.9023438 0.1013794
vn 0.4230957 0.8974609 0.1256104
vn 0.02946472 0.9921875 0.1216431
vn 0.3737793 0.9116211 0.1716309
vn -0.0692749 0.96875 0.2381592
vn -0.3710938 0.9213867 0.1137085
vn -0.2392578 0.9536133 0.1816406
vn -0.6870117 0.7192383 0.102417
vn -0.6733398 0.7177734 0.1783447
vn -0.8828125 0.4213867 0.2073975
vn -0.7299805 0.6679688 0.1447754
vn -0.8891602 0.4082031 0.2076416
vn -0.9018555 0.3916016 0.1813965
vn -0.9702148 0.1105957 0.2148438
vn -0.9838867 0.01018524 0.1795654
vn -0.925293 -0.2578125 0.2783203
vn -0.9355469 -0.2958984 0.192749
vn -0.9296875 -0.338623 0.1459961
vn -0.7480469 -0.1677246 0.6420898
vn -0.3618164 -0.3522949 0.8632813
vn -0.6025391 -0.4162598 0.6811523
vn -0.1901855 -0.4628906 0.8657227
vn -0.7158203 -0.6030273 0.3522949
vn -0.7177734 -0.6660156 0.2041016
vn -0.746582 -0.6469727 0.1557617
vn -0.7504883 -0.6425781 0.1555176
vn -0.2739258 -0.6132813 0.7407227
vn 0.03771973 -0.5029297 0.8632813
vn -0.3920898 -0.8334961 0.3896484
vn -0.02622986 -0.722168 0.690918
vn 0.2116699 -0.4633789 0.8603516
vn -0.4819336 -0.8310547 0.2775879
vn -0.4106445 -0.8823242 0.2302246
vn 0.2763672 -0.6816406 0.6777344
vn 0.3703613 -0.3569336 0.8574219
vn 0.02276611 -0.9394531 0.3417969
vn -0.06317139 -0.9868164 0.1495361
vn -0.390625 -0.887207 0.2449951
vn -0.3293457 -0.8950195 0.300293
vn -0.3630371 -0.9160156 0.1696777
vn 0.5332031 -0.5517578 0.6411133
vn 0.4606934 -0.1800537 0.8691406
vn 0.4311523 -0.8554688 0.2868652
vn 0.7011719 -0.3886719 0.5976563
vn 0.4804688 -0.01158142 0.8769531
vn 0.769043 -0.119812 0.6279297
vn 0.9755859 -0.09191895 0.1999512
vn 0.3745117 -0.9077148 0.1903076
vn 0.730957 -0.6420898 0.2310791
vn 0.9082031 -0.3554688 0.2214355
vn 0.9941406 -0.06591797 0.08575439
vn 0.6894531 -0.7045898 0.1672363
vn 0.8779297 -0.4460449 0.1743164
vn 0.980957 -0.1109619 0.15979
vn 0.378418 -0.9121094 0.1567383
vn 0.644043 -0.7514648 0.1420898
vn 0.8852539 -0.4060059 0.227417
vn 0.9516602 -0.007228851 0.3076172
vn 0.9604492 0.1912842 0.2026367
vn 0.2268066 -0.965332 0.1275635
vn 0.5776367 -0.8041992 0.1403809
vn 0.6157227 -0.7709961 0.1623535
vn 0.9863281 -0.09832764 0.1324463
vn 0.8027344 -0.5541992 0.2197266
vn -0.03890991 -0.984375 0.1715088
vn 0.1704102 -0.9472656 0.2719727
vn -0.5229492 -0.6665039 0.53125
vn -0.2609863 -0.809082 0.5263672
vn -0.05386353 0.02389526 0.9980469
g ENV_Spongebob_Stalagmite_02_Flipped_LOD1_0
f 3/3/3 2/2/2 1/1/1
f 4/4/4 3/3/3 1/1/1
f 3/3/3 4/4/4 5/5/5
f 6/6/6 5/5/5 4/4/4
f 4/4/4 7/7/7 6/6/6
f 8/8/8 5/5/5 6/6/6
f 6/6/6 9/9/9 8/8/8
f 10/10/10 5/5/5 8/8/8
f 8/8/8 11/11/11 10/10/10
f 11/11/11 12/12/12 10/10/10
f 7/7/7 13/13/13 6/6/6
f 13/13/13 7/7/7 14/14/14
f 15/15/15 8/8/8 9/9/9
f 16/16/16 8/8/8 15/15/15
f 9/9/9 17/17/17 15/15/15
f 18/18/18 15/15/15 17/17/17
f 19/19/19 15/15/15 18/18/18
f 13/13/13 14/14/14 20/20/20
f 21/21/21 20/20/20 14/14/14
f 22/22/22 20/20/20 21/21/21
f 21/21/21 23/23/23 22/22/22
f 22/22/22 23/23/23 24/24/24
f 25/25/25 18/18/18 17/17/17
f 26/26/26 18/18/18 25/25/25
f 20/20/20 27/27/27 13/13/13
f 20/20/20 22/22/22 27/27/27
f 24/24/24 28/28/28 22/22/22
f 28/28/28 24/24/24 29/29/29
f 30/30/30 27/27/27 22/22/22
f 30/30/30 22/22/22 28/28/28
f 27/27/27 30/30/30 31/31/31
f 28/28/28 32/32/32 30/30/30
f 31/31/31 30/30/30 32/32/32
f 29/29/29 33/33/33 28/28/28
f 32/32/32 28/28/28 33/33/33
f 34/34/34 33/33/33 29/29/29
f 29/29/29 35/35/35 34/34/34
f 33/33/33 34/34/34 36/36/36
f 36/36/36 37/37/37 33/33/33
f 33/33/33 37/37/37 32/32/32
f 37/37/37 36/36/36 38/38/38
f 39/39/39 32/32/32 37/37/37
f 32/32/32 39/39/39 31/31/31
f 38/38/38 40/40/40 37/37/37
f 37/37/37 40/40/40 39/39/39
f 40/40/40 38/38/38 41/41/41
f 41/41/41 42/42/42 40/40/40
f 39/39/39 40/40/40 42/42/42
f 42/42/42 41/41/41 43/43/43
f 42/42/42 44/44/44 39/39/39
f 31/31/31 39/39/39 44/44/44
f 43/43/43 45/45/45 42/42/42
f 44/44/44 42/42/42 45/45/45
f 45/45/45 43/43/43 46/46/46
f 46/46/46 47/47/47 45/45/45
f 47/47/47 46/46/46 48/48/48
f 45/45/45 49/49/49 44/44/44
f 49/49/49 45/45/45 47/47/47
f 48/48/48 50/50/50 47/47/47
f 50/50/50 48/48/48 51/51/51
f 44/44/44 52/52/52 31/31/31
f 52/52/52 44/44/44 49/49/49
f 47/47/47 53/53/53 49/49/49
f 53/53/53 47/47/47 50/50/50
f 49/49/49 54/54/54 52/52/52
f 54/54/54 49/49/49 53/53/53
f 31/31/31 52/52/52 55/55/55
f 54/54/54 55/55/55 52/52/52
f 51/51/51 56/56/56 50/50/50
f 56/56/56 51/51/51 57/57/57
f 55/55/55 58/58/58 31/31/31
f 31/31/31 58/58/58 27/27/27
f 58/58/58 59/59/59 27/27/27
f 13/13/13 27/27/27 59/59/59
f 58/58/58 55/55/55 60/60/60
f 60/60/60 59/59/59 58/58/58
f 59/59/59 61/61/61 13/13/13
f 60/60/60 61/61/61 59/59/59
f 13/13/13 61/61/61 6/6/6
f 6/6/6 61/61/61 62/62/62
f 60/60/60 62/62/62 61/61/61
f 62/62/62 9/9/9 6/6/6
f 63/63/63 60/60/60 55/55/55
f 55/55/55 54/54/54 63/63/63
f 62/62/62 60/60/60 64/64/64
f 63/63/63 64/64/64 60/60/60
f 64/64/64 9/9/9 62/62/62
f 65/65/65 63/63/63 54/54/54
f 64/64/64 63/63/63 65/65/65
f 9/9/9 64/64/64 66/66/66
f 65/65/65 66/66/66 64/64/64
f 9/9/9 66/66/66 67/67/67
f 66/66/66 65/65/65 67/67/67
f 67/67/67 17/17/17 9/9/9
f 54/54/54 68/68/68 65/65/65
f 67/67/67 65/65/65 68/68/68
f 53/53/53 68/68/68 54/54/54
f 68/68/68 53/53/53 69/69/69
f 50/50/50 69/69/69 53/53/53
f 68/68/68 70/70/70 67/67/67
f 69/69/69 70/70/70 68/68/68
f 71/71/71 69/69/69 50/50/50
f 71/71/71 70/70/70 69/69/69
f 50/50/50 56/56/56 71/71/71
f 72/72/72 67/67/67 70/70/70
f 72/72/72 17/17/17 67/67/67
f 70/70/70 71/71/71 72/72/72
f 73/73/73 71/71/71 56/56/56
f 74/74/74 72/72/72 71/71/71
f 71/71/71 73/73/73 74/74/74
f 17/17/17 72/72/72 75/75/75
f 72/72/72 74/74/74 75/75/75
f 56/56/56 76/76/76 73/73/73
f 57/57/57 76/76/76 56/56/56
f 76/76/76 57/57/57 77/77/77
f 77/77/77 78/78/78 76/76/76
f 78/78/78 77/77/77 79/79/79
f 80/80/80 73/73/73 76/76/76
f 76/76/76 78/78/78 80/80/80
f 81/81/81 74/74/74 73/73/73
f 73/73/73 80/80/80 81/81/81
f 82/82/82 75/75/75 74/74/74
f 74/74/74 81/81/81 82/82/82
f 83/83/83 17/17/17 75/75/75
f 75/75/75 82/82/82 83/83/83
f 79/79/79 84/84/84 78/78/78
f 84/84/84 79/79/79 85/85/85
f 86/86/86 80/80/80 78/78/78
f 78/78/78 84/84/84 86/86/86
f 85/85/85 87/87/87 84/84/84
f 86/86/86 84/84/84 87/87/87
f 87/87/87 85/85/85 88/88/88
f 89/89/89 81/81/81 80/80/80
f 80/80/80 86/86/86 89/89/89
f 83/83/83 90/90/90 17/17/17
f 17/17/17 90/90/90 25/25/25
f 88/88/88 91/91/91 87/87/87
f 91/91/91 88/88/88 92/92/92
f 87/87/87 93/93/93 86/86/86
f 89/89/89 86/86/86 93/93/93
f 93/93/93 87/87/87 91/91/91
f 89/89/89 93/93/93 94/94/94
f 81/81/81 89/89/89 95/95/95
f 94/94/94 95/95/95 89/89/89
f 82/82/82 81/81/81 95/95/95
f 96/96/96 83/83/83 82/82/82
f 90/90/90 83/83/83 96/96/96
f 95/95/95 97/97/97 82/82/82
f 97/97/97 95/95/95 94/94/94
f 82/82/82 97/97/97 96/96/96
f 97/97/97 94/94/94 96/96/96
f 92/92/92 98/98/98 91/91/91
f 98/98/98 92/92/92 99/99/99
f 91/91/91 100/100/100 93/93/93
f 100/100/100 91/91/91 98/98/98
f 99/99/99 101/101/101 98/98/98
f 101/101/101 99/99/99 102/102/102
f 102/102/102 103/103/103 101/101/101
f 101/101/101 103/103/103 104/104/104
f 100/100/100 105/105/105 93/93/93
f 94/94/94 93/93/93 105/105/105
f 98/98/98 106/106/106 100/100/100
f 106/106/106 98/98/98 101/101/101
f 105/105/105 100/100/100 106/106/106
f 104/104/104 107/107/107 101/101/101
f 101/101/101 107/107/107 106/106/106
f 107/107/107 104/104/104 108/108/108
f 106/106/106 109/109/109 105/105/105
f 109/109/109 106/106/106 107/107/107
f 108/108/108 110/110/110 107/107/107
f 107/107/107 110/110/110 109/109/109
f 108/108/108 111/111/111 110/110/110
f 105/105/105 112/112/112 94/94/94
f 112/112/112 105/105/105 109/109/109
f 113/113/113 109/109/109 110/110/110
f 109/109/109 113/113/113 112/112/112
f 114/114/114 110/110/110 111/111/111
f 110/110/110 114/114/114 113/113/113
f 114/114/114 111/111/111 115/115/115
f 114/114/114 115/115/115 116/116/116
f 94/94/94 112/112/112 117/117/117
f 113/113/113 117/117/117 112/112/112
f 117/117/117 96/96/96 94/94/94
f 90/90/90 96/96/96 117/117/117
f 114/114/114 118/118/118 113/113/113
f 117/117/117 113/113/113 118/118/118
f 116/116/116 118/118/118 114/114/114
f 118/118/118 90/90/90 117/117/117
f 119/119/119 118/118/118 116/116/116
f 116/116/116 120/120/120 119/119/119
f 121/121/121 119/119/119 120/120/120
f 122/122/122 90/90/90 118/118/118
f 118/118/118 119/119/119 122/122/122
f 123/123/123 122/122/122 119/119/119
f 122/122/122 25/25/25 90/90/90
f 124/124/124 25/25/25 122/122/122
f 122/122/122 125/125/125 124/124/124
f 125/125/125 126/126/126 124/124/124
