g ENV_Spongebob_JellyfishFields_Grass_2_LOD0
v 13.00076 -0.2311759 -0.002332592
v 13.56427 0.1292165 0.2116499
v 13.75114 -0.05363785 -0.003342495
v 12.86495 -0.08874863 0.1448249
v 12.12748 -0.3696305 -0.0007246208
v 12.70364 0.07118027 0.3184211
v 11.98189 -0.2086121 0.1459335
v 11.3992 -0.9329639 -0.0005124473
v 11.24611 -0.7548969 0.1460522
v 11.80896 -0.02618149 0.318991
v 11.63602 0.1473405 0.4908933
v 11.21572 -0.3454343 0.4126069
v 8.964499 3.380988 -0.05185463
v 10.13429 3.267114 0.1258204
v 10.17055 3.062924 -0.0583938
v 8.929685 3.611 0.1303143
v 9.927329 3.493729 0.3370746
v 7.76452 3.16748 -0.04865612
v 8.901796 3.861058 0.3390154
v 7.730867 3.422291 0.1324295
v 7.440073 3.2457 -0.04701076
v 7.478089 3.505568 0.1333609
v 7.697221 3.664125 0.3118325
v 8.094541 4.067658 0.5321722
v -5.924895 -0.7962762 0.2783195
v -6.98695 -1.279763 0.1977175
v -6.960158 -1.2319 0.2622491
v -5.965729 -0.837803 0.1972201
v -5.112906 -0.7052603 0.2483862
v -7.091615 -1.373264 0.107454
v -5.142099 -0.7246295 0.1968126
v -6.011385 -0.8843823 0.1064892
v -7.182165 -1.45726 0.017342
v -4.902637 -0.7090304 0.1055268
v -6.057103 -0.9305887 0.01578898
v -5.107597 -0.7614306 0.01454165
v 0.4880234 4.015274 0.0007279587
v 0.1178499 3.694603 0.0007300186
v 0.2294057 3.811736 0.08741005
v 0.6003842 4.124753 0.08744416
v 0.385961 3.974311 0.2088534
v 1.720984 4.330296 0.08552781
v 1.6048 4.234653 -0.001643562
v 2.577199 4.259613 -0.004238729
v 2.696762 4.347027 0.08339866
v 1.822881 4.456169 0.2076683
v 2.837011 4.464428 0.2061198
v 2.931345 4.523247 0.2736274
v 0.7581167 4.276425 0.208914
v 0.6296567 4.117535 0.2983529
v 1.716905 4.518007 0.2841643
v 1.122548 4.458418 0.3181243
v -4.049736 3.446989 0.2523137
v -4.920576 3.218162 0.3375211
v -4.12594 3.26698 0.3303249
v -5.103289 3.29873 0.2540335
v -4.068153 3.495744 0.1363423
v -5.944388 2.632039 0.4399448
v -5.248266 3.27825 0.1350504
v -4.179904 3.523936 -0.01300747
v -5.348788 3.271484 -0.01456333
v -6.041276 2.729939 0.2885062
v -6.50922 2.583598 0.4084088
v -6.589742 2.674393 0.2776772
v -6.13843 2.705288 0.1345056
v -6.231688 2.676443 -0.0151412
v -6.785031 2.601613 0.1343336
v -6.873917 2.556766 -0.01523109
v 5.046542 -2.220289 -0.001619377
v 5.78161 -2.487617 0.07233351
v 5.589168 -2.470036 -0.01164317
v 5.190432 -2.182215 0.08244674
v 5.970187 -2.452311 0.1911248
v 4.431156 -1.935528 0.09728326
v 4.287702 -1.980858 0.01371761
v 4.604714 -1.867948 0.2148587
v 5.39142 -2.131386 0.2001638
v 5.591146 -2.083862 0.3175135
v 4.714563 -1.841811 0.279401
v -8.320509 -1.102825 0.01869238
v -7.379204 -0.744839 0.107454
v -7.469755 -0.8288351 0.017342
v -8.291767 -1.019133 0.1083947
v -9.000473 -1.572372 0.0199801
v -7.274539 -0.651338 0.1977175
v -8.983145 -1.477337 0.1092446
v -8.263359 -0.9333487 0.1982693
v -7.247748 -0.6034744 0.2622491
v -8.922986 -1.352023 0.1987076
v -8.238824 -0.8573921 0.2766255
v 6.598936 -2.733687 0.3887858
v 5.622331 -2.792337 0.3060998
v 5.80126 -2.73204 0.4373795
v 6.5333 -2.756373 0.3050737
v 5.477272 -2.858135 0.1583708
v 6.715361 -2.783949 0.1559861
v 5.36918 -2.922983 0.009746818
v 6.448641 -2.834927 0.006806355
v 13.00076 -0.2311765 -0.002332592
v 13.75114 -0.05363846 -0.003342495
v 13.56427 0.1292159 0.2116499
v 12.86495 -0.08874924 0.1448249
v 12.12748 -0.3696311 -0.0007246208
v 12.70364 0.07117966 0.3184211
v 11.98189 -0.2086127 0.1459335
v 11.3992 -0.9329646 -0.0005124473
v 11.24611 -0.7548975 0.1460522
v 11.80896 -0.0261821 0.318991
v 11.63602 0.1473399 0.4908933
v 11.21572 -0.3454349 0.4126069
v 8.964499 3.380987 -0.05185463
v 10.17055 3.062923 -0.0583938
v 10.13429 3.267113 0.1258204
v 8.929685 3.610999 0.1303143
v 9.927329 3.493729 0.3370746
v 7.76452 3.167479 -0.04865612
v 8.901796 3.861057 0.3390154
v 7.730867 3.422291 0.1324295
v 7.440073 3.245699 -0.04701076
v 7.478089 3.505568 0.1333609
v 7.697221 3.664124 0.3118325
v 8.094541 4.067658 0.5321722
v -5.924895 -0.7962769 0.2783195
v -6.960158 -1.2319 0.2622491
v -6.98695 -1.279764 0.1977175
v -5.965729 -0.8378036 0.1972201
v -5.112906 -0.7052609 0.2483862
v -7.091615 -1.373265 0.107454
v -5.142099 -0.7246301 0.1968126
v -6.011385 -0.8843829 0.1064892
v -7.182165 -1.457261 0.017342
v -4.902637 -0.709031 0.1055268
v -6.057103 -0.9305893 0.01578898
v -5.107597 -0.7614313 0.01454165
v 0.2294057 3.811735 0.08741005
v 0.1178499 3.694602 0.0007300186
v 0.4880234 4.015273 0.0007279587
v 0.6003842 4.124753 0.08744416
v 0.385961 3.974311 0.2088534
v 1.720984 4.330295 0.08552781
v 1.6048 4.234653 -0.001643562
v 2.577199 4.259612 -0.004238729
v 2.696762 4.347027 0.08339866
v 1.822881 4.456169 0.2076683
v 2.837011 4.464428 0.2061198
v 2.931345 4.523246 0.2736274
v 0.7581167 4.276424 0.208914
v 0.6296567 4.117534 0.2983529
v 1.716905 4.518006 0.2841643
v 1.122548 4.458418 0.3181243
v -4.049736 3.446989 0.2523137
v -4.12594 3.266979 0.3303249
v -4.920576 3.218162 0.3375211
v -5.103289 3.298729 0.2540335
v -4.068153 3.495744 0.1363423
v -5.944388 2.632038 0.4399448
v -5.248266 3.27825 0.1350504
v -4.179904 3.523936 -0.01300747
v -5.348788 3.271483 -0.01456333
v -6.041276 2.729938 0.2885062
v -6.50922 2.583597 0.4084088
v -6.589742 2.674393 0.2776772
v -6.13843 2.705287 0.1345056
v -6.231688 2.676443 -0.0151412
v -6.785031 2.601612 0.1343336
v -6.873917 2.556766 -0.01523109
v 5.046542 -2.22029 -0.001619377
v 5.589168 -2.470037 -0.01164317
v 5.78161 -2.487617 0.07233351
v 5.190432 -2.182216 0.08244674
v 5.970187 -2.452311 0.1911248
v 4.431156 -1.935528 0.09728326
v 4.287702 -1.980858 0.01371761
v 4.604714 -1.867949 0.2148587
v 5.39142 -2.131386 0.2001638
v 5.591146 -2.083863 0.3175135
v 4.714563 -1.841811 0.279401
v -8.320509 -1.102826 0.01869238
v -7.469755 -0.8288357 0.017342
v -7.379204 -0.7448396 0.107454
v -8.291767 -1.019134 0.1083947
v -9.000473 -1.572373 0.0199801
v -7.274539 -0.6513386 0.1977175
v -8.983145 -1.477338 0.1092446
v -8.263359 -0.9333493 0.1982693
v -7.247748 -0.603475 0.2622491
v -8.922986 -1.352024 0.1987076
v -8.238824 -0.8573927 0.2766255
v 6.598936 -2.733687 0.3887858
v 5.80126 -2.73204 0.4373795
v 5.622331 -2.792337 0.3060998
v 6.5333 -2.756374 0.3050737
v 5.477272 -2.858136 0.1583708
v 6.715361 -2.78395 0.1559861
v 5.36918 -2.922984 0.009746818
v 6.448641 -2.834928 0.006806355
vt 0.2491455 0.5405273
vt 0.3476563 0.5898438
vt 0.3496094 0.5405273
vt 0.25 0.5737305
vt 0.1239014 0.5405273
vt 0.25 0.6137695
vt 0.125 0.5737305
vt 0.02598572 0.5400391
vt 0.02684021 0.5717773
vt 0.125 0.6137695
vt 0.125 0.6538086
vt 0.05276489 0.6303711
vt 0.5351563 0.5341797
vt 0.7138672 0.5737305
vt 0.7138672 0.5341797
vt 0.5351563 0.5737305
vt 0.6928711 0.6201172
vt 0.3925781 0.5341797
vt 0.5356445 0.6196289
vt 0.3925781 0.5737305
vt 0.3498535 0.5341797
vt 0.3586426 0.5727539
vt 0.3925781 0.6137695
vt 0.4333496 0.652832
vt 0.3928223 0.7519531
vt 0.2558594 0.7255859
vt 0.2563477 0.75
vt 0.3925781 0.7216797
vt 0.5 0.7412109
vt 0.246582 0.6860352
vt 0.4987793 0.7260742
vt 0.3925781 0.6879883
vt 0.2399902 0.6489258
vt 0.5351563 0.6879883
vt 0.3925781 0.6538086
vt 0.5151367 0.6557617
vt 0.3928223 0.7636719
vt 0.3322754 0.7636719
vt 0.3320313 0.7832031
vt 0.3925781 0.7832031
vt 0.3320313 0.8110352
vt 0.5351563 0.7832031
vt 0.5356445 0.7636719
vt 0.6337891 0.7636719
vt 0.6337891 0.7832031
vt 0.5273438 0.8110352
vt 0.6303711 0.8110352
vt 0.6303711 0.8261719
vt 0.3925781 0.8110352
vt 0.3481445 0.8320313
vt 0.5009766 0.828125
vt 0.4208984 0.8369141
vt 0.9887695 0.9018555
vt 0.8496094 0.9257813
vt 0.9667969 0.9199219
vt 0.8349609 0.9038086
vt 1 0.8745117
vt 0.7138672 0.9462891
vt 0.8276367 0.8745117
vt 1 0.8398438
vt 0.8276367 0.8398438
vt 0.7138672 0.9106445
vt 0.6435547 0.9389648
vt 0.644043 0.9082031
vt 0.7143555 0.8745117
vt 0.7143555 0.8398438
vt 0.6298828 0.871582
vt 0.6298828 0.8364258
vt 0.7143555 0.7636719
vt 0.8242188 0.7832031
vt 0.796875 0.762207
vt 0.7138672 0.7832031
vt 0.8276367 0.8110352
vt 0.6337891 0.7832031
vt 0.6337891 0.7636719
vt 0.6303711 0.8110352
vt 0.7138672 0.8110352
vt 0.7138672 0.8388672
vt 0.6303711 0.8261719
vt 0.125 0.6538086
vt 0.246582 0.6860352
vt 0.2399902 0.6489258
vt 0.125 0.6879883
vt 0.02738953 0.6538086
vt 0.2558594 0.7255859
vt 0.02726746 0.6875
vt 0.125 0.7216797
vt 0.2563477 0.75
vt 0.03317261 0.7211914
vt 0.1251221 0.7514648
vt 0.5 0.7412109
vt 0.3820801 0.7177734
vt 0.3928223 0.7519531
vt 0.4987793 0.7260742
vt 0.378418 0.6811523
vt 0.5351563 0.6879883
vt 0.3781738 0.6469727
vt 0.5151367 0.6557617
vt 0.2491455 0.5405273
vt 0.3496094 0.5405273
vt 0.3476563 0.5898438
vt 0.25 0.5737305
vt 0.1239014 0.5405273
vt 0.25 0.6137695
vt 0.125 0.5737305
vt 0.02598572 0.5400391
vt 0.02684021 0.5717773
vt 0.125 0.6137695
vt 0.125 0.6538086
vt 0.05276489 0.6303711
vt 0.5351563 0.5341797
vt 0.7138672 0.5341797
vt 0.7138672 0.5737305
vt 0.5351563 0.5737305
vt 0.6928711 0.6201172
vt 0.3925781 0.5341797
vt 0.5356445 0.6196289
vt 0.3925781 0.5737305
vt 0.3498535 0.5341797
vt 0.3586426 0.5727539
vt 0.3925781 0.6137695
vt 0.4333496 0.652832
vt 0.3928223 0.7519531
vt 0.2563477 0.75
vt 0.2558594 0.7255859
vt 0.3925781 0.7216797
vt 0.5 0.7412109
vt 0.246582 0.6860352
vt 0.4987793 0.7260742
vt 0.3925781 0.6879883
vt 0.2399902 0.6489258
vt 0.5351563 0.6879883
vt 0.3925781 0.6538086
vt 0.5151367 0.6557617
vt 0.3320313 0.7832031
vt 0.3322754 0.7636719
vt 0.3928223 0.7636719
vt 0.3925781 0.7832031
vt 0.3320313 0.8110352
vt 0.5351563 0.7832031
vt 0.5356445 0.7636719
vt 0.6337891 0.7636719
vt 0.6337891 0.7832031
vt 0.5273438 0.8110352
vt 0.6303711 0.8110352
vt 0.6303711 0.8261719
vt 0.3925781 0.8110352
vt 0.3481445 0.8320313
vt 0.5009766 0.828125
vt 0.4208984 0.8369141
vt 0.9887695 0.9018555
vt 0.9667969 0.9199219
vt 0.8496094 0.9257813
vt 0.8349609 0.9038086
vt 1 0.8745117
vt 0.7138672 0.9462891
vt 0.8276367 0.8745117
vt 1 0.8398438
vt 0.8276367 0.8398438
vt 0.7138672 0.9106445
vt 0.6435547 0.9389648
vt 0.644043 0.9082031
vt 0.7143555 0.8745117
vt 0.7143555 0.8398438
vt 0.6298828 0.871582
vt 0.6298828 0.8364258
vt 0.7143555 0.7636719
vt 0.796875 0.762207
vt 0.8242188 0.7832031
vt 0.7138672 0.7832031
vt 0.8276367 0.8110352
vt 0.6337891 0.7832031
vt 0.6337891 0.7636719
vt 0.6303711 0.8110352
vt 0.7138672 0.8110352
vt 0.7138672 0.8388672
vt 0.6303711 0.8261719
vt 0.125 0.6538086
vt 0.2399902 0.6489258
vt 0.246582 0.6860352
vt 0.125 0.6879883
vt 0.02738953 0.6538086
vt 0.2558594 0.7255859
vt 0.02726746 0.6875
vt 0.125 0.7216797
vt 0.2563477 0.75
vt 0.03317261 0.7211914
vt 0.1251221 0.7514648
vt 0.5 0.7412109
vt 0.3928223 0.7519531
vt 0.3820801 0.7177734
vt 0.4987793 0.7260742
vt 0.378418 0.6811523
vt 0.5351563 0.6879883
vt 0.3781738 0.6469727
vt 0.5151367 0.6557617
vn 0.1300049 -0.6591797 0.7407227
vn 0.1467285 -0.6655273 0.7314453
vn 0.1485596 -0.6660156 0.730957
vn 0.116394 -0.6586914 0.7431641
vn 0.1977539 -0.5629883 0.8027344
vn 0.09698486 -0.6665039 0.7392578
vn 0.2189941 -0.5649414 0.7954102
vn 0.3295898 -0.4345703 0.8383789
vn 0.3442383 -0.4504395 0.8237305
vn 0.2235107 -0.5732422 0.7885742
vn 0.2670898 -0.5307617 0.8041992
vn 0.364502 -0.4660645 0.8061523
vn -0.05014038 -0.6289063 0.7758789
vn -0.1894531 -0.6674805 0.7202148
vn -0.1755371 -0.6513672 0.7382813
vn -0.05361938 -0.6494141 0.7583008
vn -0.2225342 -0.7041016 0.6743164
vn -0.0153656 -0.5830078 0.8125
vn -0.03283691 -0.6435547 0.7646484
vn -0.03796387 -0.5947266 0.8027344
vn -0.1550293 -0.5668945 0.809082
vn -0.1723633 -0.5820313 0.7949219
vn 0.006492615 -0.5947266 0.8037109
vn 0.06726074 -0.5283203 0.8461914
vn 0.2033691 -0.909668 0.3620605
vn 0.3752441 -0.8579102 0.3510742
vn 0.3640137 -0.859375 0.3586426
vn 0.2536621 -0.9042969 0.3439941
vn 0.1221313 -0.9248047 0.3601074
vn 0.3930664 -0.8598633 0.326416
vn 0.1326904 -0.934082 0.331543
vn 0.270752 -0.9072266 0.3217773
vn 0.3964844 -0.8603516 0.3205566
vn 0.1499023 -0.9418945 0.3012695
vn 0.3193359 -0.894043 0.3137207
vn 0.1580811 -0.9428711 0.293457
vn 0.5566406 -0.7817383 0.2807617
vn 0.6420898 -0.7509766 0.1523438
vn 0.6401367 -0.7524414 0.1550293
vn 0.4104004 -0.7929688 0.4504395
vn 0.6313477 -0.7695313 0.0970459
vn 0.06896973 -0.7138672 0.6967773
vn 0.1084595 -0.7211914 0.6845703
vn 0.01673889 -0.7016602 0.7124023
vn 0.01194 -0.7109375 0.703125
vn 0.06002808 -0.7089844 0.7026367
vn 0.008010864 -0.7470703 0.6645508
vn 0.007175446 -0.7587891 0.6513672
vn 0.4423828 -0.8867188 0.1340332
vn 0.5302734 -0.6987305 -0.4797363
vn 0.112854 -0.6748047 0.7290039
vn 0.1625977 -0.7285156 0.6655273
vn 0.1220093 -0.8378906 -0.5322266
vn 0.1185913 -0.5322266 -0.8383789
vn 0.050354 -0.5112305 -0.8579102
vn 0.2514648 -0.8081055 -0.5322266
vn 0.1704102 -0.9609375 -0.2177734
vn 0.2130127 -0.6694336 -0.7114258
vn 0.3681641 -0.8930664 -0.2585449
vn 0.1922607 -0.9594727 -0.2053223
vn 0.4299316 -0.8706055 -0.2385254
vn 0.2927246 -0.8398438 -0.4572754
vn 0.09716797 -0.7978516 -0.5947266
vn 0.1275635 -0.9902344 -0.05801392
vn 0.3483887 -0.9360352 -0.04922485
vn 0.2966309 -0.9550781 0.01339722
vn 0.15979 -0.9755859 0.1501465
vn 0.1690674 -0.9760742 0.1374512
vn -0.2329102 -0.6791992 0.6962891
vn -0.310791 -0.6137695 0.7255859
vn -0.3068848 -0.6518555 0.6933594
vn -0.2607422 -0.6655273 0.6992188
vn -0.3105469 -0.5966797 0.7402344
vn -0.2087402 -0.6884766 0.6943359
vn -0.2064209 -0.6879883 0.6958008
vn -0.2174072 -0.6953125 0.6850586
vn -0.2670898 -0.6523438 0.7089844
vn -0.2868652 -0.612793 0.7363281
vn -0.2247314 -0.7084961 0.6694336
vn 0.3908691 -0.7231445 0.5693359
vn 0.2299805 -0.7724609 0.5917969
vn 0.244751 -0.784668 0.5693359
vn 0.3457031 -0.7353516 0.5825195
vn 0.4633789 -0.6835938 0.5634766
vn 0.2171631 -0.7734375 0.5957031
vn 0.4580078 -0.6831055 0.5688477
vn 0.3366699 -0.7407227 0.581543
vn 0.2142334 -0.7749023 0.5947266
vn 0.4428711 -0.6821289 0.581543
vn 0.2893066 -0.7592773 0.5830078
vn 0.02856445 -0.9428711 0.331543
vn 0.0446167 -0.9492188 0.3112793
vn 0.02856445 -0.9428711 0.331543
vn 0.03936768 -0.9472656 0.3178711
vn 0.06256104 -0.9545898 0.291748
vn 0.05700684 -0.953125 0.2973633
vn 0.06756592 -0.9555664 0.2866211
vn 0.06756592 -0.9555664 0.2866211
vn -0.1300049 0.6591797 -0.7407227
vn -0.1485596 0.6660156 -0.730957
vn -0.1467285 0.6655273 -0.7314453
vn -0.116394 0.6586914 -0.7431641
vn -0.1977539 0.5629883 -0.8027344
vn -0.09698486 0.6665039 -0.7392578
vn -0.2189941 0.5649414 -0.7954102
vn -0.3295898 0.4345703 -0.8383789
vn -0.3442383 0.4504395 -0.8237305
vn -0.2235107 0.5732422 -0.7885742
vn -0.2670898 0.5307617 -0.8041992
vn -0.364502 0.4660645 -0.8061523
vn 0.05014038 0.6289063 -0.7758789
vn 0.1755371 0.6513672 -0.7382813
vn 0.1894531 0.6674805 -0.7202148
vn 0.05361938 0.6494141 -0.7583008
vn 0.2225342 0.7041016 -0.6743164
vn 0.0153656 0.5830078 -0.8125
vn 0.03283691 0.6435547 -0.7646484
vn 0.03796387 0.5947266 -0.8027344
vn 0.1550293 0.5668945 -0.809082
vn 0.1723633 0.5820313 -0.7949219
vn -0.006492615 0.5947266 -0.8037109
vn -0.06726074 0.5283203 -0.8461914
vn -0.2033691 0.909668 -0.3620605
vn -0.3640137 0.859375 -0.3586426
vn -0.3752441 0.8579102 -0.3510742
vn -0.2536621 0.9042969 -0.3439941
vn -0.1221313 0.9248047 -0.3601074
vn -0.3930664 0.8598633 -0.326416
vn -0.1326904 0.934082 -0.331543
vn -0.270752 0.9072266 -0.3217773
vn -0.3964844 0.8603516 -0.3205566
vn -0.1499023 0.9418945 -0.3012695
vn -0.3193359 0.894043 -0.3137207
vn -0.1580811 0.9428711 -0.293457
vn -0.6401367 0.7524414 -0.1550293
vn -0.6420898 0.7509766 -0.1523438
vn -0.5566406 0.7817383 -0.2807617
vn -0.4104004 0.7929688 -0.4504395
vn -0.6313477 0.7695313 -0.0970459
vn -0.06896973 0.7138672 -0.6967773
vn -0.1084595 0.7211914 -0.6845703
vn -0.01673889 0.7016602 -0.7124023
vn -0.01194 0.7109375 -0.703125
vn -0.06002808 0.7089844 -0.7026367
vn -0.008010864 0.7470703 -0.6645508
vn -0.007175446 0.7587891 -0.6513672
vn -0.4423828 0.8867188 -0.1340332
vn -0.5302734 0.6987305 0.4797363
vn -0.112854 0.6748047 -0.7290039
vn -0.1625977 0.7285156 -0.6655273
vn -0.1220093 0.8378906 0.5322266
vn -0.050354 0.5112305 0.8579102
vn -0.1185913 0.5322266 0.8383789
vn -0.2514648 0.8081055 0.5322266
vn -0.1704102 0.9609375 0.2177734
vn -0.2130127 0.6694336 0.7114258
vn -0.3681641 0.8930664 0.2585449
vn -0.1922607 0.9594727 0.2053223
vn -0.4299316 0.8706055 0.2385254
vn -0.2927246 0.8398438 0.4572754
vn -0.09716797 0.7978516 0.5947266
vn -0.1275635 0.9902344 0.05801392
vn -0.3483887 0.9360352 0.04922485
vn -0.2966309 0.9550781 -0.01339722
vn -0.15979 0.9755859 -0.1501465
vn -0.1690674 0.9760742 -0.1374512
vn 0.2329102 0.6791992 -0.6962891
vn 0.3068848 0.6518555 -0.6933594
vn 0.310791 0.6137695 -0.7255859
vn 0.2607422 0.6655273 -0.6992188
vn 0.3105469 0.5966797 -0.7402344
vn 0.2087402 0.6884766 -0.6943359
vn 0.2064209 0.6879883 -0.6958008
vn 0.2174072 0.6953125 -0.6850586
vn 0.2670898 0.6523438 -0.7089844
vn 0.2868652 0.612793 -0.7363281
vn 0.2247314 0.7084961 -0.6694336
vn -0.3908691 0.7231445 -0.5693359
vn -0.244751 0.784668 -0.5693359
vn -0.2299805 0.7724609 -0.5917969
vn -0.3457031 0.7353516 -0.5825195
vn -0.4633789 0.6835938 -0.5634766
vn -0.2171631 0.7734375 -0.5957031
vn -0.4580078 0.6831055 -0.5688477
vn -0.3366699 0.7407227 -0.581543
vn -0.2142334 0.7749023 -0.5947266
vn -0.4428711 0.6821289 -0.581543
vn -0.2893066 0.7592773 -0.5830078
vn -0.02856445 0.9428711 -0.331543
vn -0.02856445 0.9428711 -0.331543
vn -0.0446167 0.9492188 -0.3112793
vn -0.03936768 0.9472656 -0.3178711
vn -0.06256104 0.9545898 -0.291748
vn -0.05700684 0.953125 -0.2973633
vn -0.06756592 0.9555664 -0.2866211
vn -0.06756592 0.9555664 -0.2866211
g ENV_Spongebob_JellyfishFields_Grass_2_LOD0_0
f 3/3/3 2/2/2 1/1/1
f 2/2/2 4/4/4 1/1/1
f 1/1/1 4/4/4 5/5/5
f 4/4/4 2/2/2 6/6/6
f 4/4/4 7/7/7 5/5/5
f 4/4/4 6/6/6 7/7/7
f 5/5/5 7/7/7 8/8/8
f 7/7/7 9/9/9 8/8/8
f 6/6/6 10/10/10 7/7/7
f 7/7/7 10/10/10 9/9/9
f 11/11/11 10/10/10 6/6/6
f 10/10/10 12/12/12 9/9/9
f 11/11/11 12/12/12 10/10/10
f 15/15/15 14/14/14 13/13/13
f 14/14/14 16/16/16 13/13/13
f 16/16/16 14/14/14 17/17/17
f 13/13/13 16/16/16 18/18/18
f 19/19/19 16/16/16 17/17/17
f 16/16/16 20/20/20 18/18/18
f 20/20/20 16/16/16 19/19/19
f 18/18/18 20/20/20 21/21/21
f 20/20/20 22/22/22 21/21/21
f 23/23/23 22/22/22 20/20/20
f 23/23/23 20/20/20 19/19/19
f 24/24/24 23/23/23 19/19/19
f 27/27/27 26/26/26 25/25/25
f 26/26/26 28/28/28 25/25/25
f 25/25/25 28/28/28 29/29/29
f 26/26/26 30/30/30 28/28/28
f 28/28/28 31/31/31 29/29/29
f 30/30/30 32/32/32 28/28/28
f 28/28/28 32/32/32 31/31/31
f 32/32/32 30/30/30 33/33/33
f 32/32/32 34/34/34 31/31/31
f 35/35/35 32/32/32 33/33/33
f 34/34/34 32/32/32 35/35/35
f 36/36/36 34/34/34 35/35/35
f 39/39/39 38/38/38 37/37/37
f 40/40/40 39/39/39 37/37/37
f 39/39/39 40/40/40 41/41/41
f 42/42/42 40/40/40 37/37/37
f 43/43/43 42/42/42 37/37/37
f 42/42/42 43/43/43 44/44/44
f 45/45/45 42/42/42 44/44/44
f 42/42/42 45/45/45 46/46/46
f 40/40/40 42/42/42 46/46/46
f 45/45/45 47/47/47 46/46/46
f 46/46/46 47/47/47 48/48/48
f 40/40/40 49/49/49 41/41/41
f 49/49/49 40/40/40 46/46/46
f 41/41/41 49/49/49 50/50/50
f 49/49/49 46/46/46 51/51/51
f 49/49/49 52/52/52 50/50/50
f 52/52/52 49/49/49 51/51/51
f 55/55/55 54/54/54 53/53/53
f 54/54/54 56/56/56 53/53/53
f 57/57/57 53/53/53 56/56/56
f 54/54/54 58/58/58 56/56/56
f 59/59/59 57/57/57 56/56/56
f 60/60/60 57/57/57 59/59/59
f 61/61/61 60/60/60 59/59/59
f 58/58/58 62/62/62 56/56/56
f 59/59/59 56/56/56 62/62/62
f 58/58/58 63/63/63 62/62/62
f 63/63/63 64/64/64 62/62/62
f 61/61/61 59/59/59 65/65/65
f 65/65/65 59/59/59 62/62/62
f 62/62/62 64/64/64 65/65/65
f 66/66/66 61/61/61 65/65/65
f 64/64/64 67/67/67 65/65/65
f 65/65/65 67/67/67 66/66/66
f 67/67/67 68/68/68 66/66/66
f 71/71/71 70/70/70 69/69/69
f 70/70/70 72/72/72 69/69/69
f 72/72/72 70/70/70 73/73/73
f 72/72/72 74/74/74 69/69/69
f 74/74/74 75/75/75 69/69/69
f 74/74/74 72/72/72 76/76/76
f 77/77/77 72/72/72 73/73/73
f 72/72/72 77/77/77 76/76/76
f 78/78/78 77/77/77 73/73/73
f 76/76/76 77/77/77 78/78/78
f 79/79/79 76/76/76 78/78/78
f 82/82/82 81/81/81 80/80/80
f 81/81/81 83/83/83 80/80/80
f 80/80/80 83/83/83 84/84/84
f 81/81/81 85/85/85 83/83/83
f 83/83/83 86/86/86 84/84/84
f 85/85/85 87/87/87 83/83/83
f 83/83/83 87/87/87 86/86/86
f 87/87/87 85/85/85 88/88/88
f 87/87/87 89/89/89 86/86/86
f 90/90/90 87/87/87 88/88/88
f 90/90/90 89/89/89 87/87/87
f 93/93/93 92/92/92 91/91/91
f 92/92/92 94/94/94 91/91/91
f 92/92/92 95/95/95 94/94/94
f 95/95/95 96/96/96 94/94/94
f 96/96/96 95/95/95 97/97/97
f 98/98/98 96/96/96 97/97/97
f 101/101/101 100/100/100 99/99/99
f 102/102/102 101/101/101 99/99/99
f 102/102/102 99/99/99 103/103/103
f 101/101/101 102/102/102 104/104/104
f 105/105/105 102/102/102 103/103/103
f 104/104/104 102/102/102 105/105/105
f 105/105/105 103/103/103 106/106/106
f 107/107/107 105/105/105 106/106/106
f 108/108/108 104/104/104 105/105/105
f 108/108/108 105/105/105 107/107/107
f 108/108/108 109/109/109 104/104/104
f 110/110/110 108/108/108 107/107/107
f 110/110/110 109/109/109 108/108/108
f 113/113/113 112/112/112 111/111/111
f 114/114/114 113/113/113 111/111/111
f 113/113/113 114/114/114 115/115/115
f 114/114/114 111/111/111 116/116/116
f 114/114/114 117/117/117 115/115/115
f 118/118/118 114/114/114 116/116/116
f 114/114/114 118/118/118 117/117/117
f 118/118/118 116/116/116 119/119/119
f 120/120/120 118/118/118 119/119/119
f 120/120/120 121/121/121 118/118/118
f 118/118/118 121/121/121 117/117/117
f 121/121/121 122/122/122 117/117/117
f 125/125/125 124/124/124 123/123/123
f 126/126/126 125/125/125 123/123/123
f 126/126/126 123/123/123 127/127/127
f 128/128/128 125/125/125 126/126/126
f 129/129/129 126/126/126 127/127/127
f 130/130/130 128/128/128 126/126/126
f 130/130/130 126/126/126 129/129/129
f 128/128/128 130/130/130 131/131/131
f 132/132/132 130/130/130 129/129/129
f 130/130/130 133/133/133 131/131/131
f 130/130/130 132/132/132 133/133/133
f 132/132/132 134/134/134 133/133/133
f 137/137/137 136/136/136 135/135/135
f 138/138/138 137/137/137 135/135/135
f 135/135/135 139/139/139 138/138/138
f 138/138/138 140/140/140 137/137/137
f 140/140/140 141/141/141 137/137/137
f 142/142/142 141/141/141 140/140/140
f 143/143/143 142/142/142 140/140/140
f 140/140/140 144/144/144 143/143/143
f 140/140/140 138/138/138 144/144/144
f 144/144/144 145/145/145 143/143/143
f 145/145/145 144/144/144 146/146/146
f 139/139/139 147/147/147 138/138/138
f 138/138/138 147/147/147 144/144/144
f 139/139/139 148/148/148 147/147/147
f 144/144/144 147/147/147 149/149/149
f 148/148/148 150/150/150 147/147/147
f 147/147/147 150/150/150 149/149/149
f 153/153/153 152/152/152 151/151/151
f 154/154/154 153/153/153 151/151/151
f 151/151/151 155/155/155 154/154/154
f 156/156/156 153/153/153 154/154/154
f 155/155/155 157/157/157 154/154/154
f 155/155/155 158/158/158 157/157/157
f 158/158/158 159/159/159 157/157/157
f 160/160/160 156/156/156 154/154/154
f 154/154/154 157/157/157 160/160/160
f 156/156/156 160/160/160 161/161/161
f 160/160/160 162/162/162 161/161/161
f 157/157/157 159/159/159 163/163/163
f 157/157/157 163/163/163 160/160/160
f 160/160/160 163/163/163 162/162/162
f 159/159/159 164/164/164 163/163/163
f 163/163/163 165/165/165 162/162/162
f 163/163/163 164/164/164 165/165/165
f 164/164/164 166/166/166 165/165/165
f 169/169/169 168/168/168 167/167/167
f 170/170/170 169/169/169 167/167/167
f 169/169/169 170/170/170 171/171/171
f 170/170/170 167/167/167 172/172/172
f 167/167/167 173/173/173 172/172/172
f 172/172/172 174/174/174 170/170/170
f 170/170/170 175/175/175 171/171/171
f 174/174/174 175/175/175 170/170/170
f 175/175/175 176/176/176 171/171/171
f 176/176/176 175/175/175 174/174/174
f 177/177/177 176/176/176 174/174/174
f 180/180/180 179/179/179 178/178/178
f 181/181/181 180/180/180 178/178/178
f 181/181/181 178/178/178 182/182/182
f 183/183/183 180/180/180 181/181/181
f 184/184/184 181/181/181 182/182/182
f 185/185/185 183/183/183 181/181/181
f 185/185/185 181/181/181 184/184/184
f 183/183/183 185/185/185 186/186/186
f 187/187/187 185/185/185 184/184/184
f 185/185/185 188/188/188 186/186/186
f 187/187/187 188/188/188 185/185/185
f 191/191/191 190/190/190 189/189/189
f 192/192/192 191/191/191 189/189/189
f 193/193/193 191/191/191 192/192/192
f 194/194/194 193/193/193 192/192/192
f 193/193/193 194/194/194 195/195/195
f 194/194/194 196/196/196 195/195/195
