g ENV_Spongebob_Stalagmite_03_Flipped_LOD1
v 0.1109613 -0.002526665 2.16314
v 0.1193649 0.0005588302 2.176235
v 0.1236618 -4.460803E-07 2.16314
v 0.1146797 -0.04084378 1.84435
v 0.07632935 -0.05615096 1.846289
v 0.09897622 -0.08022244 1.655276
v 0.004347716 -0.06139965 1.655276
v 0.03908627 -0.03954484 1.847585
v 0.1109613 -0.002526665 2.16314
v 0.02776366 -0.02189379 1.847825
v 0.1109613 -0.002526665 2.16314
v -0.02108491 -3.912511E-07 1.655276
v 0.02752 0.01957324 1.84751
v 0.032518 0.08022168 1.655276
v 0.1109613 0.002525907 2.16314
v 0.1109613 -0.002526665 2.16314
v 0.1193649 0.0005588302 2.176235
v 0.05570411 0.04956145 1.846225
v 0.1109613 0.002525907 2.16314
v 0.09692307 0.0503818 1.844355
v 0.1109613 0.002525907 2.16314
v 0.1236618 -4.460803E-07 2.16314
v 0.1193649 0.0005588302 2.176235
v -0.07137442 -0.04801313 1.460159
v -0.0846192 -0.1169387 1.264362
v -0.07137444 0.04801239 1.460159
v -0.1376376 -3.498237E-07 1.264362
v 0.05177468 -0.1255395 1.459786
v 0.09897622 -0.08022244 1.655276
v 0.112652 -0.152788 1.264362
v 0.05233273 -0.1855296 1.068898
v 0.1479176 -0.2080328 0.8734486
v 0.05607379 -0.2401502 0.6779956
v 0.1478651 -0.2218849 0.6779011
v 0.1596104 -0.2851258 0.4825347
v -0.03037535 -0.2080328 0.8734486
v 0.04150796 -0.3086179 0.4825347
v -0.03576232 -0.2219427 0.6775473
v -0.10595 -0.1607089 0.8734486
v 0.00640256 -0.4436429 0.2529082
v 0.1766836 -0.4177005 0.2526319
v -0.07659505 -0.2851258 0.4825347
v 7.394437E-08 -0.4897114 0.09162105
v 0.2271958 -0.4524342 0.09162106
v 0.322111 -0.6414481 -1.893213E-09
v 1.048361E-07 -0.6942979 -9.873304E-09
v -0.1740004 -0.4248879 0.2525835
v -0.2271956 -0.4524343 0.09162106
v -0.3221108 -0.6414482 -1.893213E-09
v -0.1138299 -0.1699629 0.6767787
v -0.1767177 -0.2182259 0.4825347
v -0.419802 -0.346278 0.09162107
v -0.5951832 -0.4909428 2.083247E-08
v -0.3465573 -0.3341957 0.2518522
v -0.1661659 -0.09202892 0.6761004
v -0.5484983 -0.1874047 0.09162109
v -0.7776443 -0.2656966 5.484372E-08
v -0.4660195 -0.1830959 0.2511413
v -0.243618 -0.1181031 0.4825347
v -0.5936903 -2.416068E-07 0.09162112
v -0.8417168 -2.652234E-07 9.496274E-08
v -0.5083479 -2.527635E-07 0.2508511
v -0.2671102 -2.513209E-07 0.4825347
v -0.5484983 0.1874041 0.09162115
v -0.7776444 0.265696 1.350818E-07
v -0.4660201 0.1830954 0.2511413
v -0.4198026 0.346278 0.09162118
v -0.5951833 0.4909426 1.690931E-07
v -0.2271958 0.4524342 0.09162119
v -0.322111 0.6414477 1.918187E-07
v -0.3465574 0.3341953 0.2518523
v -0.243618 0.1181026 0.4825348
v -0.1845822 -2.680472E-07 0.6758364
v -7.394431E-08 0.489711 0.0916212
v -1.048361E-07 0.694298 1.997988E-07
v -0.1740006 0.4248875 0.2525836
v -0.1767178 0.2182253 0.4825348
v -0.1741806 -0.006339803 0.8734486
v -0.1564478 0.0772045 0.8734486
v -0.1661659 0.09202839 0.6761004
v -0.1138299 0.1699622 0.6767787
v -0.07659514 0.2851253 0.4825348
v 0.006402426 0.443642 0.2529083
v -0.1238585 0.06328629 1.264362
v -0.04248919 0.08872841 1.460073
v -0.03576239 0.221942 0.6775474
v -0.10595 0.1480299 0.8734486
v -0.09092117 0.1312164 1.068694
v -0.02589343 0.1527872 1.264362
v 0.05177465 0.1255388 1.459786
v -0.02519285 0.1714341 1.068741
v 0.04150787 0.3086173 0.4825348
v -0.03037541 0.1953535 0.8734486
v 0.04337924 0.1653755 1.264362
v 0.09897619 0.08022168 1.655276
v 0.05607371 0.2401496 0.6779957
v 0.05233267 0.1855295 1.068898
v 0.1126519 0.152787 1.264362
v 0.1596103 0.2851253 0.4825348
v 0.1298328 0.1713598 1.069164
v 0.1148542 0.03849647 1.843546
v 0.1236618 -4.460803E-07 2.16314
v 0.1713777 0.116938 1.264362
v 0.1478651 0.2218843 0.6779013
v 0.1766835 0.4177005 0.2526321
v 0.1459695 0.03322859 1.655276
v 0.2234933 0.1480297 0.8734486
v 0.2597336 0.2182254 0.4825348
v 0.2271956 0.4524343 0.09162119
v 0.3221108 0.6414478 1.918187E-07
v 0.3431836 0.3302797 0.2519263
v 0.4198025 0.3462778 0.09162118
v 0.5951843 0.4909428 1.690931E-07
v 0.2258332 0.1698835 0.6774144
v 0.27399 0.07720429 0.8734486
v 0.3266332 0.1181026 0.4825348
v 0.2780764 0.09197418 0.6769097
v 0.3501254 -1.581209E-07 0.4825347
v 0.4611999 0.1815629 0.2512185
v 0.5484983 0.1874042 0.09162115
v 0.7776449 0.265696 1.350817E-07
v 0.5032493 -1.000279E-07 0.250926
v 0.5936903 -6.231732E-08 0.09162112
v 0.8417168 -1.103197E-08 9.496274E-08
v 0.5484983 -0.1874045 0.09162109
v 0.7776444 -0.2656963 5.484372E-08
v 0.4612 -0.1815634 0.2512185
v 0.4198026 -0.3462778 0.09162107
v 0.5951833 -0.4909426 2.083247E-08
v 0.2271958 -0.4524342 0.09162106
v 0.322111 -0.6414481 -1.893213E-09
v 0.3431838 -0.3302805 0.2519262
v 0.1766836 -0.4177005 0.2526319
v 0.3266333 -0.118103 0.4825347
v 0.2597336 -0.2182259 0.4825347
v 0.1596104 -0.2851258 0.4825347
v 0.1478651 -0.2218849 0.6779011
v 0.2258332 -0.1698841 0.6774144
v 0.1479176 -0.2080328 0.8734486
v 0.2780764 -0.09197443 0.6769097
v 0.27399 -0.08988376 0.8734486
v 0.2964562 -1.955434E-07 0.6767035
v 0.1954943 -0.131112 1.069476
v 0.112652 -0.152788 1.264362
v 0.09897622 -0.08022244 1.655276
v 0.1459695 -0.03322932 1.655276
v 0.1146797 -0.04084378 1.84435
v 0.2547311 -2.612034E-07 1.069825
v 0.1267968 -0.02290818 1.843532
v 0.1236618 -4.460803E-07 2.16314
v 0.1269564 0.02027398 1.843075
v 0.1236618 -4.460803E-07 2.16314
v 0.1311655 -0.001378773 1.843068
v 0.1236618 -4.460803E-07 2.16314
v 0.1236618 -4.460803E-07 2.16314
vt 0.3696289 0.7211914
vt 0.3745117 0.7211914
vt 0.369873 0.7241211
vt 0.3288574 0.7163086
vt 0.3293457 0.7133789
vt 0.3029785 0.7138672
vt 0.3046875 0.7001953
vt 0.3303223 0.7080078
vt 0.3696289 0.7211914
vt 0.3312988 0.7050781
vt 0.3696289 0.7211914
vt 0.307373 0.6914063
vt 0.3337402 0.699707
vt 0.3146973 0.6791992
vt 0.369873 0.7197266
vt 0.3696289 0.7211914
vt 0.3745117 0.7211914
vt 0.3369141 0.6948242
vt 0.369873 0.7197266
vt 0.3408203 0.6904297
vt 0.369873 0.7197266
vt 0.3735352 0.7167969
vt 0.3745117 0.7211914
vt 0.279541 0.6870117
vt 0.2526855 0.6870117
vt 0.2844238 0.6748047
vt 0.2573242 0.6713867
vt 0.2766113 0.7070313
vt 0.3034668 0.7138672
vt 0.2498779 0.7143555
vt 0.223877 0.7036133
vt 0.1966553 0.7158203
vt 0.1678467 0.7041016
vt 0.1700439 0.7172852
vt 0.1437988 0.7241211
vt 0.1967773 0.6904297
vt 0.1376953 0.7089844
vt 0.166626 0.6894531
vt 0.1983643 0.6777344
vt 0.1021118 0.7202148
vt 0.1135254 0.7387695
vt 0.1330566 0.6914063
vt 0.08166504 0.7304688
vt 0.09985352 0.7548828
vt 0.08300781 0.7788086
vt 0.05728149 0.746582
vt 0.09130859 0.6982422
vt 0.06744385 0.7016602
vt 0.03823853 0.7109375
vt 0.166748 0.6738281
vt 0.1308594 0.671875
vt 0.05752563 0.6713867
vt 0.02450562 0.6748047
vt 0.08288574 0.6723633
vt 0.1687012 0.6572266
vt 0.05319214 0.6416016
vt 0.01750183 0.6396484
vt 0.0791626 0.6455078
vt 0.1314697 0.6513672
vt 0.05593872 0.612793
vt 0.01931763 0.6054688
vt 0.08148193 0.6181641
vt 0.135498 0.6303711
vt 0.0647583 0.5854492
vt 0.03108215 0.5732422
vt 0.0904541 0.5922852
vt 0.08050537 0.559082
vt 0.05093384 0.543457
vt 0.1013184 0.5336914
vt 0.07641602 0.5151367
vt 0.1051636 0.5678711
vt 0.1420898 0.6098633
vt 0.1727295 0.640625
vt 0.125 0.5087891
vt 0.1046143 0.4873047
vt 0.1238403 0.5458984
vt 0.1518555 0.590332
vt 0.2047119 0.6518555
vt 0.2097168 0.6391602
vt 0.1785889 0.6240234
vt 0.1865234 0.6083984
vt 0.1641846 0.5722656
vt 0.1435547 0.5268555
vt 0.2607422 0.6635742
vt 0.2878418 0.6694336
vt 0.1962891 0.59375
vt 0.2159424 0.6269531
vt 0.2421875 0.6420898
vt 0.2697754 0.6489258
vt 0.2961426 0.6582031
vt 0.248291 0.6328125
vt 0.1787109 0.5556641
vt 0.2237549 0.6147461
vt 0.2756348 0.6416016
vt 0.3210449 0.6723633
vt 0.2075195 0.5805664
vt 0.2553711 0.6235352
vt 0.2817383 0.6347656
vt 0.1948242 0.5415039
vt 0.2631836 0.6152344
vt 0.3430176 0.6884766
vt 0.3735352 0.7167969
vt 0.2883301 0.628418
vt 0.2198486 0.5688477
vt 0.1634521 0.5097656
vt 0.328125 0.6660156
vt 0.2536621 0.5839844
vt 0.2122803 0.5292969
vt 0.1514893 0.4863281
vt 0.1335449 0.4604492
vt 0.1865234 0.4921875
vt 0.1781006 0.4663086
vt 0.1627197 0.4360352
vt 0.2331543 0.559082
vt 0.2644043 0.5766602
vt 0.2307129 0.519043
vt 0.2470703 0.550293
vt 0.2498779 0.5117188
vt 0.2119141 0.4777832
vt 0.2050781 0.4506836
vt 0.192627 0.4165039
vt 0.2386475 0.4685059
vt 0.2327881 0.4416504
vt 0.2250977 0.404541
vt 0.2617188 0.4384766
vt 0.2597656 0.4025879
vt 0.2661133 0.4650879
vt 0.2915039 0.4421387
vt 0.2956543 0.409668
vt 0.3200684 0.4516602
vt 0.331543 0.4250488
vt 0.2932129 0.4675293
vt 0.3178711 0.4741211
vt 0.2692871 0.5073242
vt 0.2875977 0.5053711
vt 0.3044434 0.5063477
vt 0.3022461 0.5332031
vt 0.2893066 0.5351563
vt 0.3078613 0.5576172
vt 0.2756348 0.5385742
vt 0.2858887 0.5654297
vt 0.2614746 0.543457
vt 0.3061523 0.5864258
vt 0.3261719 0.6064453
vt 0.3439941 0.65625
vt 0.3359375 0.6606445
vt 0.3525391 0.6811523
vt 0.2880859 0.5952148
vt 0.3500977 0.6826172
vt 0.3735352 0.7167969
vt 0.3452148 0.6865234
vt 0.3735352 0.7167969
vt 0.3476563 0.6845703
vt 0.3735352 0.7167969
vt 0.3735352 0.7167969
vn 0.1422119 -0.9804688 0.1352539
vn 0.2790527 0.05105591 0.9589844
vn 0.489502 -0.8481445 0.2026367
vn 0.5146484 -0.8486328 0.12146
vn -0.0838623 -0.9829102 0.1639404
vn 0.2844238 -0.940918 0.1833496
vn -0.6494141 -0.75 0.1246948
vn -0.5917969 -0.7797852 0.2053223
vn -0.5400391 -0.8144531 0.2131348
vn -0.949707 -0.199707 0.2420654
vn -0.7963867 -0.5537109 0.2425537
vn -0.9018555 0.09509277 0.4216309
vn -0.9140625 0.3244629 0.2431641
vn -0.4353027 0.8740234 0.2164307
vn -0.8242188 0.1817627 0.5366211
vn -0.840332 -0.1109619 0.5302734
vn -0.00109005 0.05889893 0.9980469
vn -0.4494629 0.8706055 0.2001953
vn -0.5874023 0.7788086 0.2193604
vn 0.1315918 0.9775391 0.1641846
vn -0.1245117 0.9545898 0.270752
vn 0.2246094 0.9731445 0.05258179
vn 0.2556152 -0.05004883 0.965332
vn -0.902832 -0.3220215 0.2844238
vn -0.6391602 -0.7485352 0.1759033
vn -0.8393555 0.3305664 0.4316406
vn -0.9741211 -0.1018066 0.2026367
vn -0.1676025 -0.9697266 0.1772461
vn 0.2844238 -0.940918 0.1833496
vn 0.3217773 -0.9296875 0.178833
vn -0.1248169 -0.984375 0.12323
vn 0.390625 -0.90625 0.1602783
vn 0.007663727 -0.9765625 0.2155762
vn 0.362793 -0.9130859 0.1867676
vn 0.388916 -0.8623047 0.3239746
vn -0.3237305 -0.9370117 0.1323242
vn -0.002521515 -0.9145508 0.4042969
vn -0.3920898 -0.894043 0.2172852
vn -0.7231445 -0.6425781 0.2531738
vn -0.04650879 -0.9243164 0.378418
vn 0.2697754 -0.8837891 0.3823242
vn -0.2971191 -0.8125 0.5019531
vn 0.01870728 -0.7207031 0.6928711
vn 0.2484131 -0.6196289 0.7446289
vn 0.1485596 -0.3781738 0.9135742
vn 0.01797485 -0.4082031 0.9125977
vn -0.2834473 -0.840332 0.4624023
vn -0.1650391 -0.722168 0.671875
vn -0.1245728 -0.3776855 0.9174805
vn -0.6928711 -0.6855469 0.2236328
vn -0.5576172 -0.6191406 0.5527344
vn -0.4003906 -0.5708008 0.7167969
vn -0.2406006 -0.2885742 0.9267578
vn -0.5541992 -0.6391602 0.5327148
vn -0.8813477 -0.3852539 0.2731934
vn -0.5551758 -0.3330078 0.762207
vn -0.3120117 -0.163208 0.9360352
vn -0.7285156 -0.3327637 0.5986328
vn -0.6914063 -0.3769531 0.6162109
vn -0.5839844 -0.1165161 0.8032227
vn -0.3405762 -0.02703857 0.9399414
vn -0.8012695 0.01013184 0.5981445
vn -0.762207 -0.02294922 0.6469727
vn -0.5244141 0.2496338 0.8139648
vn -0.3425293 0.1376953 0.9291992
vn -0.7299805 0.411377 0.5458984
vn -0.4050293 0.4855957 0.7749023
vn -0.2661133 0.2741699 0.9243164
vn -0.2393799 0.628418 0.7402344
vn -0.159668 0.3649902 0.9169922
vn -0.5244141 0.7089844 0.4711914
vn -0.7592773 0.2736816 0.5908203
vn -0.9555664 0.01702881 0.2939453
vn -0.00152874 0.7158203 0.6982422
vn -0.01803589 0.40625 0.9135742
vn -0.2371826 0.8798828 0.411377
vn -0.6142578 0.5756836 0.5400391
vn -0.9907227 -0.1124878 0.07794189
vn -0.9135742 0.401123 0.06451416
vn -0.8676758 0.4123535 0.2770996
vn -0.6772461 0.6943359 0.243042
vn -0.3603516 0.7993164 0.4807129
vn 0.07855225 0.9082031 0.4106445
vn -0.8188477 0.4775391 0.3183594
vn -0.6386719 0.7358398 0.2260742
vn -0.3549805 0.8964844 0.265625
vn -0.6894531 0.7231445 0.04705811
vn -0.6416016 0.7626953 0.08258057
vn -0.411377 0.9072266 0.09063721
vn -0.1358643 0.9663086 0.2180176
vn -0.3334961 0.9375 0.09906006
vn 0.02798462 0.9052734 0.4238281
vn -0.3708496 0.9272461 0.04696655
vn -0.004833221 0.9892578 0.1456299
vn 0.3874512 0.887207 0.25
vn 0.00844574 0.972168 0.2335205
vn 0.001070976 0.9926758 0.1192627
vn 0.3376465 0.9282227 0.1546631
vn 0.4067383 0.7978516 0.4448242
vn 0.3500977 0.9272461 0.1337891
vn 0.6645508 0.7397461 0.1052246
vn 0.5249023 0.847168 0.08227539
vn 0.6586914 0.7397461 0.137207
vn 0.3754883 0.8950195 0.2409668
vn 0.2768555 0.8657227 0.4165039
vn 0.9604492 0.2381592 0.1456299
vn 0.722168 0.6816406 0.1177979
vn 0.6782227 0.5771484 0.4553223
vn 0.166748 0.7094727 0.6845703
vn 0.1265869 0.380127 0.9160156
vn 0.5395508 0.7055664 0.4597168
vn 0.4147949 0.5639648 0.7143555
vn 0.2443848 0.2719727 0.9306641
vn 0.6933594 0.6884766 0.2122803
vn 0.9375 0.3469238 0.02183533
vn 0.8383789 0.2871094 0.4638672
vn 0.9121094 0.3718262 0.1733398
vn 0.9150391 -0.04586792 0.401123
vn 0.7714844 0.394043 0.4997559
vn 0.5512695 0.3215332 0.7700195
vn 0.3112793 0.1618652 0.9365234
vn 0.8520508 -0.003417969 0.5229492
vn 0.6123047 -0.1303711 0.7797852
vn 0.3408203 0.02256775 0.9399414
vn 0.5195313 -0.253418 0.815918
vn 0.3422852 -0.1376953 0.9291992
vn 0.7861328 -0.3908691 0.4787598
vn 0.4001465 -0.4863281 0.7768555
vn 0.2744141 -0.2756348 0.9213867
vn 0.2484131 -0.6196289 0.7446289
vn 0.1485596 -0.3781738 0.9135742
vn 0.5756836 -0.7089844 0.4072266
vn 0.2697754 -0.8837891 0.3823242
vn 0.8808594 -0.3322754 0.3376465
vn 0.6918945 -0.6508789 0.3125
vn 0.388916 -0.8623047 0.3239746
vn 0.362793 -0.9130859 0.1867676
vn 0.6850586 -0.7099609 0.1638184
vn 0.390625 -0.90625 0.1602783
vn 0.9106445 -0.380127 0.161377
vn 0.8852539 -0.4533691 0.1060791
vn 0.9853516 -0.04974365 0.1619873
vn 0.6894531 -0.6538086 0.3117676
vn 0.3217773 -0.9296875 0.178833
vn 0.2844238 -0.940918 0.1833496
vn 0.9335938 -0.333252 0.1314697
vn 0.5146484 -0.8486328 0.12146
vn 0.9663086 -0.0357666 0.255127
vn 0.9213867 -0.3835449 0.0635376
vn 0.8525391 -0.5209961 0.04290771
vn 0.909668 0.4082031 0.07550049
vn 0.8120117 0.5820313 0.0463562
vn 0.9956055 0.06274414 0.06689453
vn 0.9858398 -0.1663818 0.02815247
vn 0.9741211 0.2259521 0.02207947
g ENV_Spongebob_Stalagmite_03_Flipped_LOD1_0
f 3/3/3 2/2/2 1/1/1
f 4/4/4 3/3/3 1/1/1
f 1/1/1 5/5/5 4/4/4
f 6/6/6 4/4/4 5/5/5
f 5/5/5 7/7/7 6/6/6
f 7/7/7 5/5/5 8/8/8
f 9/9/9 8/8/8 5/5/5
f 7/7/7 8/8/8 10/10/10
f 11/11/11 10/10/10 8/8/8
f 12/12/12 7/7/7 10/10/10
f 10/10/10 13/13/13 12/12/12
f 14/14/14 12/12/12 13/13/13
f 15/15/15 13/13/13 10/10/10
f 10/10/10 16/16/16 15/15/15
f 16/16/16 17/17/17 15/15/15
f 13/13/13 18/18/18 14/14/14
f 19/19/19 18/18/18 13/13/13
f 18/18/18 20/20/20 14/14/14
f 21/21/21 20/20/20 18/18/18
f 20/20/20 21/21/21 22/22/22
f 21/21/21 23/23/23 22/22/22
f 24/24/24 7/7/7 12/12/12
f 7/7/7 24/24/24 25/25/25
f 12/12/12 26/26/26 24/24/24
f 26/26/26 12/12/12 14/14/14
f 27/27/27 25/25/25 24/24/24
f 24/24/24 26/26/26 27/27/27
f 25/25/25 28/28/28 7/7/7
f 29/29/29 7/7/7 28/28/28
f 28/28/28 30/30/30 29/29/29
f 30/30/30 28/28/28 31/31/31
f 25/25/25 31/31/31 28/28/28
f 31/31/31 32/32/32 30/30/30
f 32/32/32 31/31/31 33/33/33
f 34/34/34 32/32/32 33/33/33
f 35/35/35 34/34/34 33/33/33
f 31/31/31 25/25/25 36/36/36
f 36/36/36 33/33/33 31/31/31
f 33/33/33 37/37/37 35/35/35
f 36/36/36 38/38/38 33/33/33
f 37/37/37 33/33/33 38/38/38
f 39/39/39 36/36/36 25/25/25
f 38/38/38 36/36/36 39/39/39
f 35/35/35 37/37/37 40/40/40
f 40/40/40 41/41/41 35/35/35
f 38/38/38 42/42/42 37/37/37
f 40/40/40 37/37/37 42/42/42
f 41/41/41 40/40/40 43/43/43
f 43/43/43 44/44/44 41/41/41
f 45/45/45 44/44/44 43/43/43
f 43/43/43 46/46/46 45/45/45
f 43/43/43 40/40/40 47/47/47
f 42/42/42 47/47/47 40/40/40
f 46/46/46 43/43/43 48/48/48
f 47/47/47 48/48/48 43/43/43
f 48/48/48 49/49/49 46/46/46
f 42/42/42 38/38/38 50/50/50
f 39/39/39 50/50/50 38/38/38
f 47/47/47 42/42/42 51/51/51
f 50/50/50 51/51/51 42/42/42
f 49/49/49 48/48/48 52/52/52
f 52/52/52 53/53/53 49/49/49
f 48/48/48 47/47/47 54/54/54
f 51/51/51 54/54/54 47/47/47
f 54/54/54 52/52/52 48/48/48
f 39/39/39 55/55/55 50/50/50
f 51/51/51 50/50/50 55/55/55
f 53/53/53 52/52/52 56/56/56
f 56/56/56 57/57/57 53/53/53
f 52/52/52 54/54/54 58/58/58
f 58/58/58 56/56/56 52/52/52
f 54/54/54 51/51/51 59/59/59
f 55/55/55 59/59/59 51/51/51
f 59/59/59 58/58/58 54/54/54
f 57/57/57 56/56/56 60/60/60
f 60/60/60 61/61/61 57/57/57
f 56/56/56 58/58/58 62/62/62
f 62/62/62 60/60/60 56/56/56
f 58/58/58 59/59/59 63/63/63
f 63/63/63 59/59/59 55/55/55
f 63/63/63 62/62/62 58/58/58
f 61/61/61 60/60/60 64/64/64
f 64/64/64 60/60/60 62/62/62
f 64/64/64 65/65/65 61/61/61
f 62/62/62 66/66/66 64/64/64
f 66/66/66 62/62/62 63/63/63
f 65/65/65 64/64/64 67/67/67
f 67/67/67 64/64/64 66/66/66
f 67/67/67 68/68/68 65/65/65
f 68/68/68 67/67/67 69/69/69
f 69/69/69 70/70/70 68/68/68
f 66/66/66 71/71/71 67/67/67
f 69/69/69 67/67/67 71/71/71
f 63/63/63 72/72/72 66/66/66
f 71/71/71 66/66/66 72/72/72
f 55/55/55 73/73/73 63/63/63
f 72/72/72 63/63/63 73/73/73
f 70/70/70 69/69/69 74/74/74
f 74/74/74 75/75/75 70/70/70
f 71/71/71 76/76/76 69/69/69
f 74/74/74 69/69/69 76/76/76
f 72/72/72 77/77/77 71/71/71
f 76/76/76 71/71/71 77/77/77
f 78/78/78 73/73/73 55/55/55
f 73/73/73 78/78/78 79/79/79
f 55/55/55 39/39/39 78/78/78
f 78/78/78 39/39/39 25/25/25
f 25/25/25 27/27/27 78/78/78
f 79/79/79 78/78/78 27/27/27
f 73/73/73 80/80/80 72/72/72
f 77/77/77 72/72/72 80/80/80
f 79/79/79 80/80/80 73/73/73
f 80/80/80 81/81/81 77/77/77
f 81/81/81 80/80/80 79/79/79
f 77/77/77 82/82/82 76/76/76
f 82/82/82 77/77/77 81/81/81
f 76/76/76 83/83/83 74/74/74
f 83/83/83 76/76/76 82/82/82
f 84/84/84 79/79/79 27/27/27
f 84/84/84 27/27/27 26/26/26
f 26/26/26 85/85/85 84/84/84
f 14/14/14 85/85/85 26/26/26
f 81/81/81 86/86/86 82/82/82
f 79/79/79 87/87/87 81/81/81
f 86/86/86 81/81/81 87/87/87
f 84/84/84 88/88/88 79/79/79
f 88/88/88 87/87/87 79/79/79
f 85/85/85 89/89/89 84/84/84
f 88/88/88 84/84/84 89/89/89
f 14/14/14 90/90/90 85/85/85
f 89/89/89 85/85/85 90/90/90
f 87/87/87 88/88/88 91/91/91
f 89/89/89 91/91/91 88/88/88
f 82/82/82 92/92/92 83/83/83
f 92/92/92 82/82/82 86/86/86
f 87/87/87 93/93/93 86/86/86
f 91/91/91 93/93/93 87/87/87
f 91/91/91 89/89/89 94/94/94
f 90/90/90 94/94/94 89/89/89
f 90/90/90 14/14/14 95/95/95
f 95/95/95 14/14/14 20/20/20
f 86/86/86 96/96/96 92/92/92
f 96/96/96 86/86/86 93/93/93
f 93/93/93 91/91/91 97/97/97
f 94/94/94 97/97/97 91/91/91
f 97/97/97 96/96/96 93/93/93
f 94/94/94 90/90/90 98/98/98
f 97/97/97 94/94/94 98/98/98
f 95/95/95 98/98/98 90/90/90
f 83/83/83 92/92/92 99/99/99
f 99/99/99 92/92/92 96/96/96
f 96/96/96 97/97/97 100/100/100
f 98/98/98 100/100/100 97/97/97
f 20/20/20 101/101/101 95/95/95
f 102/102/102 101/101/101 20/20/20
f 95/95/95 103/103/103 98/98/98
f 100/100/100 98/98/98 103/103/103
f 100/100/100 104/104/104 96/96/96
f 96/96/96 104/104/104 99/99/99
f 99/99/99 105/105/105 83/83/83
f 74/74/74 83/83/83 105/105/105
f 106/106/106 95/95/95 101/101/101
f 103/103/103 95/95/95 106/106/106
f 103/103/103 107/107/107 100/100/100
f 104/104/104 100/100/100 107/107/107
f 108/108/108 99/99/99 104/104/104
f 105/105/105 99/99/99 108/108/108
f 105/105/105 109/109/109 74/74/74
f 75/75/75 74/74/74 109/109/109
f 109/109/109 110/110/110 75/75/75
f 109/109/109 105/105/105 111/111/111
f 108/108/108 111/111/111 105/105/105
f 110/110/110 109/109/109 112/112/112
f 111/111/111 112/112/112 109/109/109
f 112/112/112 113/113/113 110/110/110
f 104/104/104 114/114/114 108/108/108
f 104/104/104 107/107/107 114/114/114
f 107/107/107 103/103/103 115/115/115
f 106/106/106 115/115/115 103/103/103
f 111/111/111 108/108/108 116/116/116
f 116/116/116 108/108/108 114/114/114
f 117/117/117 114/114/114 107/107/107
f 107/107/107 115/115/115 117/117/117
f 114/114/114 117/117/117 116/116/116
f 118/118/118 116/116/116 117/117/117
f 116/116/116 119/119/119 111/111/111
f 112/112/112 111/111/111 119/119/119
f 119/119/119 116/116/116 118/118/118
f 113/113/113 112/112/112 120/120/120
f 119/119/119 120/120/120 112/112/112
f 120/120/120 121/121/121 113/113/113
f 120/120/120 119/119/119 122/122/122
f 118/118/118 122/122/122 119/119/119
f 121/121/121 120/120/120 123/123/123
f 122/122/122 123/123/123 120/120/120
f 123/123/123 124/124/124 121/121/121
f 124/124/124 123/123/123 125/125/125
f 125/125/125 123/123/123 122/122/122
f 125/125/125 126/126/126 124/124/124
f 122/122/122 127/127/127 125/125/125
f 127/127/127 122/122/122 118/118/118
f 126/126/126 125/125/125 128/128/128
f 128/128/128 125/125/125 127/127/127
f 128/128/128 129/129/129 126/126/126
f 129/129/129 128/128/128 130/130/130
f 130/130/130 131/131/131 129/129/129
f 130/130/130 128/128/128 132/132/132
f 127/127/127 132/132/132 128/128/128
f 132/132/132 133/133/133 130/130/130
f 132/132/132 127/127/127 134/134/134
f 118/118/118 134/134/134 127/127/127
f 133/133/133 132/132/132 135/135/135
f 134/134/134 135/135/135 132/132/132
f 135/135/135 136/136/136 133/133/133
f 137/137/137 136/136/136 135/135/135
f 135/135/135 138/138/138 137/137/137
f 138/138/138 135/135/135 134/134/134
f 139/139/139 137/137/137 138/138/138
f 140/140/140 134/134/134 118/118/118
f 134/134/134 140/140/140 138/138/138
f 138/138/138 141/141/141 139/139/139
f 141/141/141 138/138/138 140/140/140
f 118/118/118 142/142/142 140/140/140
f 141/141/141 140/140/140 142/142/142
f 117/117/117 142/142/142 118/118/118
f 142/142/142 117/117/117 115/115/115
f 142/142/142 115/115/115 141/141/141
f 139/139/139 141/141/141 143/143/143
f 143/143/143 144/144/144 139/139/139
f 144/144/144 143/143/143 145/145/145
f 146/146/146 145/145/145 143/143/143
f 147/147/147 145/145/145 146/146/146
f 141/141/141 115/115/115 148/148/148
f 148/148/148 143/143/143 141/141/141
f 143/143/143 148/148/148 146/146/146
f 115/115/115 106/106/106 148/148/148
f 146/146/146 148/148/148 106/106/106
f 146/146/146 149/149/149 147/147/147
f 150/150/150 147/147/147 149/149/149
f 146/146/146 106/106/106 151/151/151
f 101/101/101 151/151/151 106/106/106
f 152/152/152 151/151/151 101/101/101
f 153/153/153 149/149/149 146/146/146
f 151/151/151 153/153/153 146/146/146
f 154/154/154 149/149/149 153/153/153
f 155/155/155 153/153/153 151/151/151
