g ENV_Spongebob_Stalagmite_00_Flipped_LOD1
v 0.0179245 -0.004172762 3.129167
v 0.03109069 0.0008725963 3.149516
v 0.03721362 -0.003677676 3.129338
v 0.05310367 -0.05321958 2.840037
v 0.03007337 -0.06826265 2.841572
v 0.04028537 -0.09659778 2.544963
v 0.06880278 -0.02997935 2.838758
v 0.09718221 -0.04056015 2.545084
v 0.07527058 -0.1457792 2.23998
v 0.07472938 -0.001977491 2.838065
v 0.03721362 -0.003677676 3.129338
v 0.2401019 -0.08059058 1.934832
v 0.09767105 0.04026998 2.54513
v 0.2444674 -0.1846639 1.630592
v 0.1517211 -0.2404672 1.629899
v 0.1738786 -0.288312 1.324304
v 0.05360263 0.049694 2.838815
v 0.03721362 -0.003677676 3.129338
v 0.04082784 0.09857329 2.545383
v 0.03009924 0.06497363 2.840043
v 0.01802612 0.004412202 3.129228
v 0.01802612 0.004412202 3.129228
v 0.03109069 0.0008725963 3.149516
v 0.003149538 0.06991415 2.841532
v -0.03986504 0.09742244 2.54507
v 0.01802612 0.004412202 3.129228
v -0.02330313 0.06391083 2.842963
v 0.01802612 0.004412202 3.129228
v -0.04533651 0.04812467 2.84414
v 0.01802612 0.004412202 3.129228
v 0.1642413 0.06023366 2.239361
v 0.2569038 1.760389E-05 1.934623
v 0.3058101 0.09972819 1.630903
v 0.3267392 -3.424454E-07 1.630885
v 0.2446362 0.1846424 1.630627
v 0.305162 -0.09945403 1.630734
v 0.2819645 -0.2207058 1.324312
v 0.354162 -0.1194453 1.324312
v 0.2908271 -0.2575986 1.018274
v 0.1739502 -0.3844401 0.71403
v 0.370044 -0.1394629 1.017486
v 0.3089969 -0.2942742 0.7140375
v 0.1891679 -0.4298526 0.3551248
v 0.3992104 -0.1592602 0.7140376
v 0.4308892 -2.197315E-07 0.7140376
v 0.3605123 -0.339889 0.354023
v 0.2474632 -0.4927955 0.1037628
v 0.397914 -2.605232E-07 1.017164
v 0.3795144 -3.04123E-07 1.324312
v 0.3541621 0.1194445 1.324312
v 0.4819618 -0.1868459 0.3529181
v 0.4572525 -0.3771694 0.1037628
v 0.3700442 0.1394622 1.017486
v 0.2819647 0.2207052 1.324312
v 0.6063827 -0.5265428 -7.950573E-08
v 0.3281719 -0.6879612 -1.038792E-07
v 0.7922772 -0.284963 -4.30282E-08
v 0.5974292 -0.2041227 0.1037629
v 0.8575547 -1.673702E-07 -5.720175E-15
v 0.5252348 -1.759259E-07 0.3524617
v 0.6466528 -1.59271E-07 0.1037629
v 0.7922774 0.2849624 4.302814E-08
v 0.5974296 0.2041222 0.1037629
v 0.606383 0.5265424 7.95057E-08
v 0.4819619 0.1868452 0.3529182
v 0.4572528 0.377169 0.103763
v 0.3281722 0.687961 1.038792E-07
v 0.3992106 0.1592596 0.7140376
v 0.2474635 0.4927953 0.103763
v 1.226643E-07 0.7446437 1.124381E-07
v 0.3605126 0.3398886 0.3540232
v 0.2908272 0.2575981 1.018274
v 8.82521E-08 0.5333979 0.103763
v -0.328172 0.6879611 1.038792E-07
v 0.1891681 0.4298524 0.3551249
v 0.308997 0.2942737 0.7140377
v 0.1739135 0.2883654 1.324312
v 0.1726039 0.3364512 1.019034
v 0.173983 0.3844874 0.7140377
v 0.1516264 0.2402382 1.629852
v 0.04648299 0.3134388 1.324541
v 0.01393337 0.4565491 0.3555562
v 0.01475832 0.4162078 0.7140422
v -0.0806601 0.2877655 1.324195
v -0.1443774 0.3842407 0.7139835
v -0.1717181 0.4372489 0.3550493
v -0.2474633 0.4927954 0.103763
v -0.6063829 0.5265427 7.950572E-08
v -0.4572527 0.3771693 0.103763
v -0.7922773 0.2849627 4.302816E-08
v -0.3492956 0.3439183 0.3539076
v -0.2795512 0.2942738 0.7140377
v -0.2234539 0.2570625 1.017118
v -0.1316522 0.146658 1.93448
v -0.5974293 0.2041225 0.1037629
v -0.8575547 -2.083392E-08 -2.269785E-14
v -0.4722336 0.1884224 0.3527977
v -0.3676958 0.158448 0.7136157
v -0.6466528 -4.452812E-08 0.1037629
v -0.7922773 -0.2849627 -4.30282E-08
v -0.5157931 -9.33217E-08 0.3523447
v -0.5974293 -0.2041226 0.1037629
v -0.6063828 -0.5265425 -7.950573E-08
v -0.4014434 -1.568921E-07 0.7140376
v -0.2588249 0.118488 1.323832
v -0.4572526 -0.3771693 0.1037628
v -0.3281721 -0.687961 -1.038792E-07
v -0.4722335 -0.1884225 0.3527976
v -0.3316042 7.313378E-07 1.015826
v -0.2474634 -0.4927955 0.1037628
v -1.49923E-07 -0.7446437 -1.124381E-07
v -0.3492955 -0.3439183 0.3539074
v -0.3035088 -0.139513 1.016212
v -1.08807E-07 -0.533398 0.1037628
v 0.3281719 -0.6879612 -1.038792E-07
v 0.2474632 -0.4927955 0.1037628
v 0.1891679 -0.4298526 0.3551248
v -0.1717182 -0.437249 0.3550492
v -0.2795512 -0.2942741 0.7140375
v 0.01393322 -0.4565494 0.3555561
v 0.1739502 -0.3844401 0.71403
v -0.144378 -0.3842379 0.7139829
v -0.2240483 -0.2575605 1.017245
v -0.2208737 -0.1002755 1.6294
v 0.01476012 -0.4162651 0.7140521
v -0.08068261 -0.2878817 1.324214
v 0.04648384 -0.3122552 1.324333
v 0.1738786 -0.288312 1.324304
v 0.1517211 -0.2404672 1.629899
v 0.0429962 -0.2600907 1.629435
v 0.07527058 -0.1457792 2.23998
v -0.158058 -0.1841826 1.629163
v -0.07565656 -0.07531916 2.545287
v -0.1075728 -0.0002819114 2.545439
v -0.05271278 -0.1435181 2.239894
v -0.0002454967 -0.104661 2.54495
v 0.04028537 -0.09659778 2.544963
v 0.003418752 -0.07304803 2.843062
v 0.03007337 -0.06826265 2.841572
v 0.0179245 -0.004172762 3.129167
v -0.02281918 -0.06711613 2.844275
v 0.0179245 -0.004172762 3.129167
v -0.04483319 -0.0515337 2.845085
v 0.0179245 -0.004172762 3.129167
v -0.05950281 -0.0286651 2.84546
v 0.0179245 -0.004172762 3.129167
v -0.06475455 -0.001843045 2.845413
v 0.0179245 -0.004172762 3.129167
v 0.01802612 0.004412202 3.129228
v 0.03109069 0.0008725963 3.149516
v -0.05981858 0.02505865 2.844968
v -0.0746547 0.07416096 2.545054
v 0.01802612 0.004412202 3.129228
v -0.1820606 0.0798774 1.934693
v -0.2420822 2.434393E-06 1.629312
vt 0.03326416 0.4797363
vt 0.02886963 0.4785156
vt 0.0329895 0.4785156
vt 0.06866455 0.465332
vt 0.07025146 0.46875
vt 0.1057129 0.4477539
vt 0.06689453 0.4619141
vt 0.09997559 0.4379883
vt 0.1450195 0.4296875
vt 0.06488037 0.4587402
vt 0.0329895 0.4785156
vt 0.1750488 0.3916016
vt 0.09295654 0.4284668
vt 0.2180176 0.3825684
vt 0.2237549 0.3962402
vt 0.2631836 0.3803711
vt 0.06008911 0.4528809
vt 0.0329895 0.4785156
vt 0.08465576 0.420166
vt 0.0574646 0.4501953
vt 0.03010559 0.4746094
vt 0.03010559 0.4746094
vt 0.02886963 0.4785156
vt 0.05471802 0.447998
vt 0.07550049 0.4128418
vt 0.03010559 0.4746094
vt 0.05187988 0.4458008
vt 0.03010559 0.4746094
vt 0.04891968 0.4438477
vt 0.03010559 0.4746094
vt 0.1279297 0.4001465
vt 0.1691895 0.3820801
vt 0.196167 0.3469238
vt 0.2043457 0.3581543
vt 0.1867676 0.3361816
vt 0.2115479 0.3701172
vt 0.2561035 0.3642578
vt 0.248291 0.3491211
vt 0.2956543 0.3483887
vt 0.3439941 0.355957
vt 0.2871094 0.329834
vt 0.3374023 0.3334961
vt 0.3928223 0.3459473
vt 0.3286133 0.310791
vt 0.317627 0.2878418
vt 0.3896484 0.3188477
vt 0.4274902 0.3408203
vt 0.2768555 0.3115234
vt 0.239624 0.3349609
vt 0.2301025 0.3210449
vt 0.3828125 0.2895508
vt 0.4284668 0.307373
vt 0.2651367 0.293457
vt 0.2192383 0.307373
vt 0.4609375 0.3054199
vt 0.4572754 0.3461914
vt 0.4570313 0.265625
vt 0.423584 0.2736816
vt 0.4455566 0.2281494
vt 0.371582 0.260498
vt 0.4125977 0.2420654
vt 0.4265137 0.1933594
vt 0.3967285 0.2121582
vt 0.4013672 0.1618652
vt 0.3557129 0.232666
vt 0.3745117 0.1837158
vt 0.3720703 0.1322021
vt 0.3041992 0.265625
vt 0.3479004 0.1560059
vt 0.3408203 0.1037598
vt 0.3356934 0.206665
vt 0.2521973 0.2763672
vt 0.3193359 0.1281738
vt 0.309082 0.07629395
vt 0.3134766 0.1829834
vt 0.2883301 0.2445068
vt 0.2067871 0.2939453
vt 0.2376709 0.2602539
vt 0.2709961 0.2249756
vt 0.1761475 0.3254395
vt 0.1928711 0.28125
vt 0.2919922 0.1624756
vt 0.2521973 0.2069092
vt 0.1778564 0.2695313
vt 0.2321777 0.1901855
vt 0.2680664 0.1422119
vt 0.2883301 0.1030884
vt 0.276123 0.05090332
vt 0.2578125 0.08001709
vt 0.2420654 0.02980042
vt 0.2412109 0.1221924
vt 0.2106934 0.1751709
vt 0.1866455 0.2185059
vt 0.1158447 0.3352051
vt 0.2270508 0.0614624
vt 0.2055664 0.01489258
vt 0.2124023 0.1054077
vt 0.1876221 0.1624756
vt 0.1954346 0.04934692
vt 0.166748 0.007740021
vt 0.182251 0.09350586
vt 0.1624756 0.04232788
vt 0.1265869 0.007499695
vt 0.163208 0.1525879
vt 0.145874 0.2502441
vt 0.1270752 0.04159546
vt 0.08502197 0.01263428
vt 0.151001 0.08648682
vt 0.1467285 0.1988525
vt 0.09002686 0.04553223
vt 0.04315186 0.02270508
vt 0.1189575 0.08453369
vt 0.1257324 0.1921387
vt 0.05328369 0.05325317
vt 0.002500534 0.04067993
vt 0.02059937 0.06634521
vt 0.03689575 0.09680176
vt 0.08782959 0.08666992
vt 0.1134644 0.1416016
vt 0.06057739 0.09112549
vt 0.04519653 0.1427002
vt 0.08953857 0.1402588
vt 0.1046143 0.1875
vt 0.09857178 0.2792969
vt 0.0668335 0.1408691
vt 0.07720947 0.2285156
vt 0.05923462 0.2261963
vt 0.04141235 0.2249756
vt 0.03903198 0.2670898
vt 0.05422974 0.2687988
vt 0.03582764 0.3530273
vt 0.08435059 0.2749023
vt 0.04962158 0.3999023
vt 0.06036377 0.4040527
vt 0.0534668 0.3562012
vt 0.03857422 0.3972168
vt 0.03305054 0.3962402
vt 0.02894592 0.4370117
vt 0.02528381 0.4365234
vt 0.02891541 0.4741211
vt 0.03250122 0.4375
vt 0.02891541 0.4741211
vt 0.03594971 0.4384766
vt 0.02891541 0.4741211
vt 0.03930664 0.4394531
vt 0.02891541 0.4741211
vt 0.04263306 0.4406738
vt 0.02891541 0.4741211
vt 0.03010559 0.4746094
vt 0.02886963 0.4785156
vt 0.0458374 0.4421387
vt 0.07061768 0.409668
vt 0.03010559 0.4746094
vt 0.1055298 0.3295898
vt 0.1122437 0.2844238
vn 0.4416504 -0.8945313 -0.0690918
vn 0.2727051 -0.002361298 0.9619141
vn 0.7485352 -0.5405273 0.3840332
vn 0.6508789 -0.7485352 0.1279297
vn 0.3205566 -0.9379883 0.1326904
vn 0.4589844 -0.8881836 -0.01792908
vn 0.9145508 -0.3884277 0.1148071
vn 0.9223633 -0.3564453 0.1486816
vn 0.3361816 -0.9204102 0.1989746
vn 0.9682617 0.2255859 0.1063843
vn 0.9775391 -0.1672363 0.1268311
vn 0.8916016 -0.4123535 0.1866455
vn 0.9238281 0.3730469 0.08453369
vn 0.6650391 -0.7177734 0.2053223
vn 0.347168 -0.918457 0.189209
vn 0.3125 -0.934082 0.1723633
vn 0.7739258 0.6230469 0.112854
vn 0.9301758 0.1546631 0.3330078
vn 0.4335938 0.8876953 0.154541
vn 0.3095703 0.9414063 0.1331787
vn 0.5375977 0.8286133 0.1555176
vn 0.7265625 0.6269531 -0.2814941
vn 0.2097168 -0.09112549 0.9736328
vn -0.0793457 0.9848633 0.1544189
vn -0.1610107 0.9785156 0.130249
vn 0.1878662 0.9638672 0.1884766
vn -0.4597168 0.8720703 0.1679688
vn -0.204834 0.9545898 0.2158203
vn -0.7583008 0.628418 0.1739502
vn -0.5551758 0.7939453 0.2490234
vn 0.8208008 0.5214844 0.232666
vn 0.9741211 0.002033234 0.225708
vn 0.9057617 0.3808594 0.1851807
vn 0.9838867 -0.01457977 0.1785889
vn 0.6855469 0.6992188 0.2033691
vn 0.8862305 -0.3933105 0.2453613
vn 0.6386719 -0.7539063 0.1529541
vn 0.8813477 -0.4519043 0.137085
vn 0.6977539 -0.7070313 0.1177368
vn 0.3491211 -0.934082 0.07318115
vn 0.9160156 -0.390625 0.09283447
vn 0.6992188 -0.7109375 0.07202148
vn 0.3195801 -0.9243164 0.2076416
vn 0.9199219 -0.3808594 0.09240723
vn 0.9848633 -0.01267242 0.171875
vn 0.6274414 -0.7348633 0.2583008
vn 0.2116699 -0.7124023 0.6689453
vn 0.9960938 -0.006977081 0.08624268
vn 0.9936523 -0.003948212 0.1141968
vn 0.9155273 0.3989258 0.05444336
vn 0.8583984 -0.4008789 0.3193359
vn 0.4445801 -0.5810547 0.6816406
vn 0.9179688 0.3830566 0.102417
vn 0.6860352 0.7241211 0.07250977
vn 0.3112793 -0.3117676 0.8979492
vn 0.1749268 -0.4060059 0.8969727
vn 0.4106445 -0.1594238 0.8979492
vn 0.609375 -0.3557129 0.7089844
vn 0.4384766 0.02604675 0.8984375
vn 0.9404297 0.01233673 0.3391113
vn 0.6972656 -0.03222656 0.7163086
vn 0.3920898 0.2062988 0.8964844
vn 0.6391602 0.2758789 0.7177734
vn 0.2797852 0.345459 0.8959961
vn 0.8447266 0.4313965 0.3171387
vn 0.4836426 0.53125 0.6958008
vn 0.1333008 0.4221191 0.8964844
vn 0.925293 0.3205566 0.2023926
vn 0.2568359 0.6948242 0.671875
vn -0.02149963 0.4431152 0.8959961
vn 0.5952148 0.7568359 0.2700195
vn 0.7001953 0.7026367 0.1246948
vn 0.04284668 0.7773438 0.6274414
vn -0.1741943 0.4064941 0.8969727
vn 0.2839355 0.9316406 0.2276611
vn 0.7368164 0.6523438 0.1773682
vn 0.3674316 0.9248047 0.09875488
vn 0.3745117 0.9155273 0.1459961
vn 0.3725586 0.9057617 0.2017822
vn 0.3498535 0.9199219 0.1782227
vn 0.01306152 0.9746094 0.2232666
vn -0.01914978 0.9780273 0.2086182
vn -0.01193237 0.9858398 0.1668701
vn -0.4069824 0.8920898 0.1964111
vn -0.3986816 0.9038086 0.1561279
vn -0.3007813 0.9282227 0.2193604
vn -0.2202148 0.7158203 0.6625977
vn -0.3112793 0.310791 0.8979492
vn -0.4458008 0.5771484 0.6845703
vn -0.411377 0.1606445 0.8969727
vn -0.6225586 0.7280273 0.2873535
vn -0.6953125 0.6972656 0.1745605
vn -0.6860352 0.7050781 0.1800537
vn -0.6708984 0.7197266 0.1779785
vn -0.6049805 0.3508301 0.7148438
vn -0.4384766 -0.02604675 0.8984375
vn -0.847168 0.3945313 0.3554688
vn -0.8964844 0.3857422 0.2178955
vn -0.6484375 -0.01663208 0.7607422
vn -0.3901367 -0.2038574 0.8979492
vn -0.9174805 0.008468628 0.3977051
vn -0.6318359 -0.2687988 0.7270508
vn -0.2788086 -0.347168 0.8955078
vn -0.9550781 0.06933594 0.2888184
vn -0.8847656 0.439209 0.1551514
vn -0.4814453 -0.5234375 0.703125
vn -0.1326904 -0.4226074 0.8964844
vn -0.8408203 -0.4140625 0.3491211
vn -0.9619141 -0.01947021 0.2731934
vn -0.2607422 -0.6914063 0.6733398
vn 0.02157593 -0.4414063 0.8969727
vn -0.5859375 -0.7543945 0.2958984
vn -0.8945313 -0.3996582 0.2010498
vn -0.04937744 -0.7705078 0.6352539
vn 0.1749268 -0.4060059 0.8969727
vn 0.2116699 -0.7124023 0.6689453
vn 0.3195801 -0.9243164 0.2076416
vn -0.2585449 -0.9345703 0.2441406
vn -0.6674805 -0.7124023 0.2163086
vn 0.06335449 -0.9731445 0.2218018
vn 0.3491211 -0.934082 0.07318115
vn -0.3723145 -0.9072266 0.1948242
vn -0.7055664 -0.6865234 0.1766357
vn -0.8955078 -0.402832 0.1884766
vn 0.003612518 -0.9941406 0.1096191
vn -0.4104004 -0.8979492 0.1583252
vn -0.05722046 -0.9853516 0.1594238
vn 0.3125 -0.934082 0.1723633
vn 0.347168 -0.918457 0.189209
vn -0.0005207062 -0.9833984 0.180542
vn 0.3361816 -0.9204102 0.1989746
vn -0.6816406 -0.7177734 0.1428223
vn -0.6923828 -0.7109375 0.121582
vn -0.9975586 -0.005214691 0.07025146
vn -0.3786621 -0.9121094 0.1568604
vn -0.09436035 -0.9873047 0.1278076
vn 0.4589844 -0.8881836 -0.01792908
vn -0.07116699 -0.9858398 0.1531982
vn 0.3205566 -0.9379883 0.1326904
vn 0.2275391 -0.9521484 0.204834
vn -0.4460449 -0.8818359 0.152832
vn -0.1618652 -0.9575195 0.2390137
vn -0.7470703 -0.6416016 0.1719971
vn -0.5170898 -0.8154297 0.2597656
vn -0.9145508 -0.3679199 0.1687012
vn -0.7822266 -0.5561523 0.2807617
vn -0.9633789 -0.0289917 0.2668457
vn -0.8364258 -0.09973145 0.5390625
vn -0.8173828 0.1918945 0.543457
vn -0.000562191 0.05670166 0.9985352
vn -0.9365234 0.3012695 0.1793213
vn -0.7626953 0.628418 0.152832
vn -0.8129883 0.5200195 0.2626953
vn -0.9130859 0.3999023 0.08209229
vn -0.9780273 0.00843811 0.208252
g ENV_Spongebob_Stalagmite_00_Flipped_LOD1_0
f 3/3/3 2/2/2 1/1/1
f 4/4/4 3/3/3 1/1/1
f 1/1/1 5/5/5 4/4/4
f 6/6/6 4/4/4 5/5/5
f 3/3/3 4/4/4 7/7/7
f 4/4/4 6/6/6 8/8/8
f 8/8/8 7/7/7 4/4/4
f 8/8/8 6/6/6 9/9/9
f 10/10/10 7/7/7 8/8/8
f 11/11/11 7/7/7 10/10/10
f 9/9/9 12/12/12 8/8/8
f 8/8/8 13/13/13 10/10/10
f 13/13/13 8/8/8 12/12/12
f 12/12/12 9/9/9 14/14/14
f 15/15/15 14/14/14 9/9/9
f 14/14/14 15/15/15 16/16/16
f 17/17/17 10/10/10 13/13/13
f 18/18/18 10/10/10 17/17/17
f 13/13/13 19/19/19 17/17/17
f 20/20/20 17/17/17 19/19/19
f 21/21/21 17/17/17 20/20/20
f 17/17/17 22/22/22 18/18/18
f 22/22/22 23/23/23 18/18/18
f 24/24/24 20/20/20 19/19/19
f 19/19/19 25/25/25 24/24/24
f 26/26/26 20/20/20 24/24/24
f 27/27/27 24/24/24 25/25/25
f 28/28/28 24/24/24 27/27/27
f 29/29/29 27/27/27 25/25/25
f 30/30/30 27/27/27 29/29/29
f 13/13/13 31/31/31 19/19/19
f 13/13/13 32/32/32 31/31/31
f 12/12/12 32/32/32 13/13/13
f 33/33/33 31/31/31 32/32/32
f 34/34/34 32/32/32 12/12/12
f 32/32/32 34/34/34 33/33/33
f 35/35/35 19/19/19 31/31/31
f 31/31/31 33/33/33 35/35/35
f 12/12/12 36/36/36 34/34/34
f 14/14/14 36/36/36 12/12/12
f 36/36/36 14/14/14 37/37/37
f 16/16/16 37/37/37 14/14/14
f 34/34/34 36/36/36 38/38/38
f 37/37/37 38/38/38 36/36/36
f 39/39/39 37/37/37 16/16/16
f 16/16/16 40/40/40 39/39/39
f 41/41/41 38/38/38 37/37/37
f 37/37/37 39/39/39 41/41/41
f 42/42/42 39/39/39 40/40/40
f 42/42/42 40/40/40 43/43/43
f 39/39/39 42/42/42 44/44/44
f 44/44/44 41/41/41 39/39/39
f 41/41/41 44/44/44 45/45/45
f 43/43/43 46/46/46 42/42/42
f 44/44/44 42/42/42 46/46/46
f 46/46/46 43/43/43 47/47/47
f 38/38/38 41/41/41 48/48/48
f 45/45/45 48/48/48 41/41/41
f 38/38/38 49/49/49 34/34/34
f 48/48/48 49/49/49 38/38/38
f 34/34/34 49/49/49 50/50/50
f 50/50/50 49/49/49 48/48/48
f 50/50/50 33/33/33 34/34/34
f 46/46/46 51/51/51 44/44/44
f 45/45/45 44/44/44 51/51/51
f 47/47/47 52/52/52 46/46/46
f 51/51/51 46/46/46 52/52/52
f 48/48/48 53/53/53 50/50/50
f 53/53/53 48/48/48 45/45/45
f 33/33/33 50/50/50 54/54/54
f 54/54/54 50/50/50 53/53/53
f 54/54/54 35/35/35 33/33/33
f 55/55/55 52/52/52 47/47/47
f 47/47/47 56/56/56 55/55/55
f 52/52/52 55/55/55 57/57/57
f 57/57/57 58/58/58 52/52/52
f 52/52/52 58/58/58 51/51/51
f 58/58/58 57/57/57 59/59/59
f 60/60/60 51/51/51 58/58/58
f 51/51/51 60/60/60 45/45/45
f 59/59/59 61/61/61 58/58/58
f 58/58/58 61/61/61 60/60/60
f 61/61/61 59/59/59 62/62/62
f 62/62/62 63/63/63 61/61/61
f 60/60/60 61/61/61 63/63/63
f 63/63/63 62/62/62 64/64/64
f 45/45/45 60/60/60 65/65/65
f 63/63/63 65/65/65 60/60/60
f 64/64/64 66/66/66 63/63/63
f 65/65/65 63/63/63 66/66/66
f 66/66/66 64/64/64 67/67/67
f 65/65/65 68/68/68 45/45/45
f 45/45/45 68/68/68 53/53/53
f 67/67/67 69/69/69 66/66/66
f 69/69/69 67/67/67 70/70/70
f 66/66/66 71/71/71 65/65/65
f 68/68/68 65/65/65 71/71/71
f 71/71/71 66/66/66 69/69/69
f 72/72/72 53/53/53 68/68/68
f 53/53/53 72/72/72 54/54/54
f 70/70/70 73/73/73 69/69/69
f 73/73/73 70/70/70 74/74/74
f 69/69/69 75/75/75 71/71/71
f 75/75/75 69/69/69 73/73/73
f 71/71/71 76/76/76 68/68/68
f 68/68/68 76/76/76 72/72/72
f 76/76/76 71/71/71 75/75/75
f 77/77/77 54/54/54 72/72/72
f 35/35/35 54/54/54 77/77/77
f 78/78/78 72/72/72 76/76/76
f 72/72/72 78/78/78 77/77/77
f 75/75/75 79/79/79 76/76/76
f 76/76/76 79/79/79 78/78/78
f 77/77/77 80/80/80 35/35/35
f 19/19/19 35/35/35 80/80/80
f 80/80/80 77/77/77 81/81/81
f 19/19/19 80/80/80 81/81/81
f 81/81/81 77/77/77 78/78/78
f 81/81/81 25/25/25 19/19/19
f 79/79/79 75/75/75 82/82/82
f 73/73/73 82/82/82 75/75/75
f 83/83/83 78/78/78 79/79/79
f 78/78/78 83/83/83 81/81/81
f 82/82/82 83/83/83 79/79/79
f 84/84/84 81/81/81 83/83/83
f 84/84/84 25/25/25 81/81/81
f 85/85/85 83/83/83 82/82/82
f 83/83/83 85/85/85 84/84/84
f 86/86/86 82/82/82 73/73/73
f 82/82/82 86/86/86 85/85/85
f 73/73/73 87/87/87 86/86/86
f 74/74/74 87/87/87 73/73/73
f 87/87/87 74/74/74 88/88/88
f 88/88/88 89/89/89 87/87/87
f 89/89/89 88/88/88 90/90/90
f 91/91/91 86/86/86 87/87/87
f 87/87/87 89/89/89 91/91/91
f 92/92/92 85/85/85 86/86/86
f 86/86/86 91/91/91 92/92/92
f 93/93/93 84/84/84 85/85/85
f 85/85/85 92/92/92 93/93/93
f 25/25/25 84/84/84 94/94/94
f 84/84/84 93/93/93 94/94/94
f 90/90/90 95/95/95 89/89/89
f 95/95/95 90/90/90 96/96/96
f 97/97/97 91/91/91 89/89/89
f 89/89/89 95/95/95 97/97/97
f 98/98/98 92/92/92 91/91/91
f 98/98/98 93/93/93 92/92/92
f 91/91/91 97/97/97 98/98/98
f 96/96/96 99/99/99 95/95/95
f 99/99/99 96/96/96 100/100/100
f 101/101/101 97/97/97 95/95/95
f 95/95/95 99/99/99 101/101/101
f 100/100/100 102/102/102 99/99/99
f 101/101/101 99/99/99 102/102/102
f 102/102/102 100/100/100 103/103/103
f 97/97/97 101/101/101 104/104/104
f 104/104/104 98/98/98 97/97/97
f 93/93/93 98/98/98 105/105/105
f 105/105/105 94/94/94 93/93/93
f 103/103/103 106/106/106 102/102/102
f 106/106/106 103/103/103 107/107/107
f 102/102/102 108/108/108 101/101/101
f 104/104/104 101/101/101 108/108/108
f 108/108/108 102/102/102 106/106/106
f 98/98/98 104/104/104 109/109/109
f 105/105/105 98/98/98 109/109/109
f 107/107/107 110/110/110 106/106/106
f 110/110/110 107/107/107 111/111/111
f 106/106/106 112/112/112 108/108/108
f 112/112/112 106/106/106 110/110/110
f 104/104/104 108/108/108 113/113/113
f 113/113/113 109/109/109 104/104/104
f 111/111/111 114/114/114 110/110/110
f 114/114/114 111/111/111 115/115/115
f 115/115/115 116/116/116 114/114/114
f 114/114/114 116/116/116 117/117/117
f 110/110/110 118/118/118 112/112/112
f 118/118/118 110/110/110 114/114/114
f 112/112/112 119/119/119 108/108/108
f 113/113/113 108/108/108 119/119/119
f 119/119/119 112/112/112 118/118/118
f 117/117/117 120/120/120 114/114/114
f 114/114/114 120/120/120 118/118/118
f 120/120/120 117/117/117 121/121/121
f 118/118/118 122/122/122 119/119/119
f 122/122/122 118/118/118 120/120/120
f 119/119/119 123/123/123 113/113/113
f 123/123/123 119/119/119 122/122/122
f 113/113/113 124/124/124 109/109/109
f 124/124/124 113/113/113 123/123/123
f 121/121/121 125/125/125 120/120/120
f 120/120/120 125/125/125 122/122/122
f 122/122/122 126/126/126 123/123/123
f 126/126/126 122/122/122 125/125/125
f 127/127/127 125/125/125 121/121/121
f 125/125/125 127/127/127 126/126/126
f 121/121/121 128/128/128 127/127/127
f 127/127/127 128/128/128 129/129/129
f 129/129/129 130/130/130 127/127/127
f 126/126/126 127/127/127 130/130/130
f 130/130/130 129/129/129 131/131/131
f 132/132/132 123/123/123 126/126/126
f 123/123/123 132/132/132 124/124/124
f 124/124/124 132/132/132 133/133/133
f 133/133/133 134/134/134 124/124/124
f 132/132/132 126/126/126 135/135/135
f 130/130/130 135/135/135 126/126/126
f 135/135/135 133/133/133 132/132/132
f 131/131/131 136/136/136 130/130/130
f 135/135/135 130/130/130 136/136/136
f 136/136/136 133/133/133 135/135/135
f 136/136/136 131/131/131 137/137/137
f 138/138/138 136/136/136 137/137/137
f 137/137/137 139/139/139 138/138/138
f 140/140/140 138/138/138 139/139/139
f 136/136/136 138/138/138 141/141/141
f 141/141/141 133/133/133 136/136/136
f 142/142/142 141/141/141 138/138/138
f 133/133/133 141/141/141 143/143/143
f 144/144/144 143/143/143 141/141/141
f 133/133/133 143/143/143 145/145/145
f 146/146/146 145/145/145 143/143/143
f 134/134/134 133/133/133 145/145/145
f 145/145/145 147/147/147 134/134/134
f 148/148/148 147/147/147 145/145/145
f 147/147/147 148/148/148 149/149/149
f 148/148/148 150/150/150 149/149/149
f 149/149/149 151/151/151 147/147/147
f 147/147/147 151/151/151 134/134/134
f 152/152/152 134/134/134 151/151/151
f 151/151/151 29/29/29 152/152/152
f 153/153/153 29/29/29 151/151/151
f 25/25/25 152/152/152 29/29/29
f 94/94/94 152/152/152 25/25/25
f 154/154/154 152/152/152 94/94/94
f 154/154/154 134/134/134 152/152/152
f 105/105/105 154/154/154 94/94/94
f 155/155/155 134/134/134 154/154/154
f 154/154/154 105/105/105 155/155/155
f 134/134/134 155/155/155 124/124/124
f 105/105/105 109/109/109 155/155/155
f 124/124/124 155/155/155 109/109/109
