g ENV_Spongebob_Stalagmite_04_LOD2
v 0.3641023 -0.7410423 0.0005855749
v 0.1948561 -0.4726011 0.2498769
v 0.3776438 -0.5014369 0.07269173
v -0.1663079 -0.0031526 1.206289
v -0.1442042 -0.04682308 1.278673
v -0.1588656 -0.05163416 1.491695
v -0.1663079 -0.0031526 1.206289
v -0.2436771 0.1283076 0.8886006
v -0.2124989 0.08949908 0.8858893
v -0.3067147 -0.05969536 2.058913
v -0.1930892 0.1595649 0.684394
v -0.3965745 0.03696795 1.492032
v -0.4009713 -0.08769438 2.054055
v -0.3821097 -0.09225627 2.376573
v -0.5112547 0.04103085 1.08828
v -0.4585231 0.1867166 0.6980532
v -0.3478087 0.4015125 0.2687407
v -0.1320495 0.2835797 0.4704932
v -0.1873276 0.340907 0.2477137
v -0.3902935 -0.1570214 2.056582
v -0.3821097 -0.09225627 2.376573
v -0.590193 -0.1626866 1.092538
v -0.8549378 0.09023152 0.2676454
v -0.6282731 -0.01421253 0.696039
v -0.2460137 -0.3071538 1.496424
v -0.3214054 -0.1602136 2.05944
v -0.3821097 -0.09225627 2.376573
v -0.5468452 -0.3660707 0.6962721
v -0.8103336 -0.3300042 0.2621647
v -0.2376094 -0.3661693 0.8903832
v -0.1236635 -0.2169649 1.088184
v -0.1208921 -0.3494059 0.6825576
v -0.2517907 -0.6047047 0.4769399
v 0.2194462 -0.3842579 0.4775169
v -0.1347944 -0.1197672 1.493297
v -0.1236635 -0.2169649 1.088184
v -0.1263432 -0.1183227 1.292627
v -0.1442042 -0.04682308 1.278673
v -0.1588656 -0.05163416 1.491695
v -0.3067147 -0.05969536 2.058913
v -0.3821097 -0.09225627 2.376573
v -0.4506835 -0.6147434 0.2577748
v 0.002256454 -0.6124673 0.2526769
v 0.1948561 -0.4726011 0.2498769
v 0.3641023 -0.7410423 0.0005855749
v -0.1967148 -0.8641939 0.0006135544
v -0.8148863 -0.6501085 0.0001067641
v -1.123023 -0.1211221 -9.32707E-05
v -0.936174 0.4052298 0.002792726
v -0.3673124 0.598578 -0.0003199986
v -0.1727087 0.4855339 0.07594312
v -0.1873276 0.340907 0.2477137
v 0.411711 -0.08671631 0.8763564
v 0.3982099 -0.04942547 0.8764246
v 0.4028648 0.0677092 1.025008
v 0.4028648 0.0677092 1.025008
v 0.3982099 -0.04942547 0.8764246
v 0.3966043 0.07259085 1.088405
v -0.1873276 0.340907 0.2477137
v -0.1727087 0.4855339 0.07594312
v -0.007149488 0.4682767 0.248763
v 0.1782781 0.6317104 0.07952952
v 0.2146211 0.8710088 0.0001993355
v -0.3673124 0.598578 -0.0003199986
v 0.7919494 0.6842459 0.002337664
v 0.6736956 0.372831 0.07983398
v 0.9681218 0.3555481 0.0004798296
v 0.3864171 0.523968 0.254567
v 0.01107121 0.380498 0.691775
v -0.1320495 0.2835797 0.4704932
v -0.1873276 0.340907 0.2477137
v -0.1930892 0.1595649 0.684394
v -0.2124989 0.08949908 0.8858893
v 0.4875713 0.3984495 0.4740969
v 0.5432627 0.2777098 0.4697121
v 0.4957081 0.2361915 0.67883
v 0.2520553 0.3427653 1.094031
v 0.4293986 0.2101356 0.8940621
v -0.1129613 0.09030709 1.290353
v -0.1663079 -0.0031526 1.206289
v 0.09031781 0.1159947 1.787275
v 0.3907477 0.1831462 1.088598
v 0.4162853 0.1323751 0.9721071
v 0.4957081 0.2361915 0.67883
v 0.4028648 0.0677092 1.025008
v 0.3966043 0.07259085 1.088405
v 0.1847286 -0.01045337 1.993809
v 0.3982099 -0.04942547 0.8764246
v 0.3647918 -0.2368071 0.4664627
v 0.3938373 -0.1119416 0.6866854
v 0.1839783 0.06015354 1.989326
v 0.1176516 0.02778118 2.192093
v 0.054577 0.0208743 1.988711
v 0.1176516 0.02778118 2.192093
v 0.01300555 -0.01478209 1.78282
v -0.07750122 -0.01213269 1.492597
v -0.1663079 -0.0031526 1.206289
v -0.07333694 -0.08319648 1.492601
v -0.1442042 -0.04682308 1.278673
v -0.1263432 -0.1183227 1.292627
v 0.05700031 -0.05785493 1.991726
v 0.1176516 0.02778118 2.192093
v 0.1034339 -0.1076003 1.782877
v 0.01300555 -0.01478209 1.78282
v 0.054577 0.0208743 1.988711
v 0.1176516 0.02778118 2.192093
v -0.07333694 -0.08319648 1.492601
v -0.08254509 -0.3107394 0.8949646
v -0.1236635 -0.2169649 1.088184
v -0.1263432 -0.1183227 1.292627
v 0.2194462 -0.3842579 0.4775169
v -0.1208921 -0.3494059 0.6825576
v -0.1236635 -0.2169649 1.088184
v 0.1948561 -0.4726011 0.2498769
v 0.5226259 -0.3935708 0.07028257
v 0.3776438 -0.5014369 0.07269173
v 0.3641023 -0.7410423 0.0005855749
v 0.6537499 -0.5259832 -0.00581394
v 0.4799632 -0.3021317 0.2100028
v 0.3938373 -0.1119416 0.6866854
v 0.4799632 -0.3021317 0.2100028
v 0.9135636 -0.4524858 -0.004918078
v 0.6537499 -0.5259832 -0.00581394
v 0.9283775 -0.2495352 0.07695724
v 1.108848 -0.1211632 0.0003624643
v 0.9544815 0.06066104 0.07676221
v 0.9681218 0.3555481 0.0004798296
v 0.6736956 0.372831 0.07983398
v 0.7639244 0.2788971 0.2528169
v 0.5432627 0.2777098 0.4697121
v 0.4814954 0.2062907 1.093165
v 0.4957081 0.2361915 0.67883
v 0.4162853 0.1323751 0.9721071
v 0.4028648 0.0677092 1.025008
v 0.5467966 0.01148628 1.817522
v 0.922074 -0.05237571 0.2520366
v 0.6525593 -0.2634889 0.4736428
v 0.7864193 0.1766726 0.680751
v 0.6334501 0.03487336 1.818882
v 0.5905212 0.01596875 2.00479
v 0.7044173 -0.07723348 1.292144
v 0.4742232 -0.1571699 0.8782709
v 0.3938373 -0.1119416 0.6866854
v 0.5996392 -0.04340102 1.822525
v 0.5905212 0.01596875 2.00479
v 0.411711 -0.08671631 0.8763564
v 0.3938373 -0.1119416 0.6866854
v 0.3982099 -0.04942547 0.8764246
v 0.4028648 0.0677092 1.025008
v 0.5467966 0.01148628 1.817522
v 0.5905212 0.01596875 2.00479
vt 0.9755859 0.6376953
vt 0.9667969 0.6938477
vt 0.9926758 0.6674805
vt 0.8344727 0.9199219
vt 0.840332 0.9301758
vt 0.8662109 0.9438477
vt 0.8344727 0.9199219
vt 0.8022461 0.8828125
vt 0.7998047 0.8881836
vt 0.9428711 0.972168
vt 0.7714844 0.8774414
vt 0.8862305 0.9125977
vt 0.9536133 0.9609375
vt 0.9799805 0.9975586
vt 0.8505859 0.8652344
vt 0.7861328 0.840332
vt 0.7114258 0.8359375
vt 0.7358398 0.8725586
vt 0.7075195 0.8569336
vt 0.9614258 0.9550781
vt 0.9799805 0.9975586
vt 0.8686523 0.8481445
vt 0.7529297 0.753418
vt 0.8110352 0.8081055
vt 0.9443359 0.8720703
vt 0.9697266 0.9506836
vt 0.9887695 0.9912109
vt 0.8613281 0.7724609
vt 0.8027344 0.7167969
vt 0.918457 0.7910156
vt 0.9458008 0.8149414
vt 0.9282227 0.7597656
vt 0.8989258 0.7202148
vt 0.9604492 0.7255859
vt 0.96875 0.8666992
vt 0.9458008 0.8149414
vt 0.9643555 0.8398438
vt 0.9741211 0.8369141
vt 0.9775391 0.8662109
vt 0.980957 0.9472656
vt 0.9887695 0.9912109
vt 0.8671875 0.6933594
vt 0.9331055 0.6865234
vt 0.9667969 0.6938477
vt 0.9755859 0.6376953
vt 0.8999023 0.6416016
vt 0.8154297 0.6606445
vt 0.7431641 0.6938477
vt 0.6933594 0.7480469
vt 0.6674805 0.8237305
vt 0.6772461 0.8515625
vt 0.7075195 0.8569336
vt 0.1723633 0.9819336
vt 0.1744385 0.9873047
vt 0.2005615 0.9936523
vt 0.7895508 0.4541016
vt 0.8154297 0.4645996
vt 0.7851563 0.4458008
vt 0.6694336 0.581543
vt 0.6748047 0.6142578
vt 0.7021484 0.5898438
vt 0.734375 0.6269531
vt 0.7436523 0.6650391
vt 0.6474609 0.637207
vt 0.8305664 0.6474609
vt 0.8261719 0.6005859
vt 0.8681641 0.6132813
vt 0.7695313 0.590332
vt 0.7075195 0.519043
vt 0.6782227 0.5478516
vt 0.6694336 0.581543
vt 0.6645508 0.5131836
vt 0.659668 0.4819336
vt 0.7836914 0.5493164
vt 0.8012695 0.5429688
vt 0.7919922 0.512207
vt 0.7421875 0.4602051
vt 0.7797852 0.4807129
vt 0.6796875 0.425293
vt 0.6616211 0.4328613
vt 0.715332 0.3549805
vt 0.7705078 0.4528809
vt 0.7851563 0.4650879
vt 0.7919922 0.512207
vt 0.7895508 0.4541016
vt 0.7851563 0.4458008
vt 0.7368164 0.3220215
vt 0.8154297 0.4645996
vt 0.8696289 0.503418
vt 0.8374023 0.4841309
vt 0.7270508 0.3261719
vt 0.7236328 0.3010254
vt 0.7070313 0.3237305
vt 0.7236328 0.3010254
vt 0.6938477 0.3508301
vt 0.6772461 0.3920898
vt 0.6616211 0.4328613
vt 0.6679688 0.3879395
vt 0.659668 0.420166
vt 0.6513672 0.4138184
vt 0.7504883 0.3088379
vt 0.7236328 0.3010254
vt 0.7675781 0.3334961
vt 0.7797852 0.3144531
vt 0.7524414 0.3022461
vt 0.7236328 0.3010254
vt 0.8178711 0.3393555
vt 0.8808594 0.4094238
vt 0.8647461 0.3815918
vt 0.8447266 0.3547363
vt 0.894043 0.4855957
vt 0.9072266 0.4279785
vt 0.8647461 0.3815918
vt 0.9238281 0.5058594
vt 0.90625 0.5605469
vt 0.9272461 0.5439453
vt 0.9624023 0.5532227
vt 0.9208984 0.5854492
vt 0.8862305 0.5424805
vt 0.8374023 0.4841309
vt 0.07403564 0.9916992
vt 0.01126862 0.9575195
vt 0.02531433 0.987793
vt 0.03033447 0.9301758
vt 0.008399963 0.90625
vt 0.03710938 0.8818359
vt 0.02244568 0.8369141
vt 0.0668335 0.8173828
vt 0.08111572 0.8481445
vt 0.125 0.8354492
vt 0.2097168 0.8623047
vt 0.1555176 0.840332
vt 0.2009277 0.8447266
vt 0.2122803 0.8427734
vt 0.3066406 0.9072266
vt 0.06359863 0.9047852
vt 0.1027832 0.9570313
vt 0.1384277 0.8833008
vt 0.3005371 0.9204102
vt 0.3232422 0.9277344
vt 0.2235107 0.9257813
vt 0.1688232 0.9707031
vt 0.1463623 0.9892578
vt 0.3000488 0.9321289
vt 0.3232422 0.9277344
vt 0.1723633 0.9819336
vt 0.1463623 0.9892578
vt 0.1744385 0.9873047
vt 0.2005615 0.9936523
vt 0.3032227 0.9433594
vt 0.3232422 0.9277344
vn 0.3234863 -0.4279785 0.84375
vn 0.5400391 -0.6547852 0.5288086
vn 0.4885254 -0.4008789 0.7749023
vn -0.6308594 0.6762695 0.3811035
vn 0.4487305 0.7270508 0.5195313
vn 0.7495117 0.6323242 0.1955566
vn -0.09020996 0.9589844 0.2680664
vn 0.2875977 0.9277344 0.237793
vn -0.7524414 0.6391602 0.1583252
vn 0.559082 0.800293 0.2158203
vn 0.4545898 0.7993164 0.3925781
vn -0.3757324 0.9125977 0.1618652
vn -0.8989258 0.4145508 0.1417236
vn -0.07165527 0.9926758 0.09777832
vn -0.7099609 0.6860352 0.1601563
vn -0.3952637 0.8310547 0.3911133
vn 0.03540039 0.8950195 0.4445801
vn -0.2888184 0.9038086 0.3161621
vn -0.2871094 0.9082031 0.3044434
vn -0.6894531 -0.7138672 0.1213379
vn -0.9589844 -0.2785645 0.05392456
vn -0.909668 -0.3928223 0.1348877
vn -0.7207031 0.2614746 0.6420898
vn -0.8305664 0.3037109 0.467041
vn 0.3811035 -0.9121094 0.1517334
vn 0.378418 -0.8984375 0.2225342
vn -0.09014893 -0.9780273 0.1888428
vn -0.5693359 -0.7041016 0.4248047
vn -0.7207031 -0.4404297 0.5356445
vn 0.4150391 -0.8823242 0.2226563
vn 0.1798096 -0.9599609 0.2141113
vn 0.1262207 -0.8759766 0.465332
vn -0.03622437 -0.9072266 0.4187012
vn 0.4685059 -0.8295898 0.3034668
vn 0.9521484 0.130127 0.2766113
vn 0.1259766 -0.9477539 0.2932129
vn 0.1621094 -0.6591797 0.734375
vn 0.4487305 0.7270508 0.5195313
vn 0.7495117 0.6323242 0.1955566
vn 0.559082 0.800293 0.2158203
vn 0.9355469 0.2502441 0.2496338
vn -0.3237305 -0.8569336 0.4006348
vn 0.2697754 -0.8051758 0.527832
vn 0.6269531 -0.6201172 0.4714355
vn 0.3234863 -0.4279785 0.8442383
vn 0.03588867 -0.7612305 0.6474609
vn -0.5175781 -0.5664063 0.6411133
vn -0.7094727 -0.04129028 0.7036133
vn -0.5092773 0.4956055 0.7036133
vn -0.1078491 0.65625 0.746582
vn -0.2702637 0.5405273 0.796875
vn -0.3220215 0.7514648 0.5761719
vn -0.8452148 -0.3845215 0.3708496
vn 0.2705078 -0.7592773 0.5917969
vn 0.270752 -0.7607422 0.590332
vn 0.270752 -0.7607422 0.590332
vn 0.2705078 -0.7592773 0.5917969
vn 0.9345703 -0.3059082 0.1804199
vn -0.3220215 0.7514648 0.5761719
vn -0.2702637 0.5405273 0.796875
vn -0.3962402 0.8183594 0.416748
vn -0.0539856 0.5844727 0.8095703
vn -0.1795654 0.3608398 0.9150391
vn -0.1078491 0.65625 0.746582
vn 0.1095581 0.2174072 0.9697266
vn 0.4130859 0.4904785 0.7670898
vn 0.2697754 0.1888428 0.9443359
vn 0.2883301 0.8837891 0.3688965
vn -0.5087891 0.8427734 0.175293
vn -0.2888184 0.9038086 0.3161621
vn -0.2871094 0.9082031 0.3044434
vn -0.7089844 0.6943359 0.1213989
vn -0.7524414 0.6391602 0.1583252
vn 0.7094727 0.6503906 0.2712402
vn 0.4658203 0.8525391 0.2366943
vn 0.8359375 0.4587402 0.3015137
vn 0.3046875 0.9111328 0.2780762
vn 0.8774414 0.3952637 0.2714844
vn -0.7783203 0.5551758 0.2932129
vn -0.09020996 0.9589844 0.2680664
vn -0.4133301 0.8793945 0.236084
vn 0.9233398 0.2927246 0.2476807
vn 0.3244629 0.7709961 0.5478516
vn -0.2512207 0.9545898 0.1601563
vn -0.9624023 0.1732178 0.2088623
vn 0.9711914 -0.1274414 0.2006836
vn 0.8803711 -0.420166 0.2192383
vn 0.8056641 -0.5610352 0.1904297
vn 0.6870117 -0.6894531 0.2301025
vn 0.07159424 -0.9453125 0.3183594
vn 0.6308594 0.7324219 0.2563477
vn 0.9287109 0.05178833 0.3671875
vn -0.8666992 0.4743652 0.1550293
vn -0.4138184 0.8911133 0.1854248
vn -0.9682617 0.08349609 0.236084
vn -0.9433594 0.1414795 0.2998047
vn -0.6308594 0.6762695 0.3811035
vn -0.9199219 -0.2490234 0.3032227
vn 0.4487305 0.7270508 0.5195313
vn 0.1621094 -0.6591797 0.734375
vn -0.7285156 -0.6367188 0.2529297
vn 0.5625 -0.7578125 0.3303223
vn 0.07208252 -0.9663086 0.2462158
vn -0.9682617 0.08349609 0.236084
vn -0.8666992 0.4743652 0.1550293
vn -0.9594727 -0.07244873 0.2729492
vn -0.9199219 -0.2490234 0.3032227
vn -0.1621094 -0.9555664 0.2459717
vn 0.1259766 -0.9477539 0.2932129
vn 0.1621094 -0.6591797 0.734375
vn 0.4685059 -0.8295898 0.3034668
vn 0.1262207 -0.8759766 0.465332
vn 0.1798096 -0.9599609 0.2141113
vn 0.5400391 -0.6547852 0.5288086
vn 0.3615723 -0.5053711 0.7832031
vn 0.4885254 -0.4008789 0.7749023
vn 0.3234863 -0.4279785 0.84375
vn 0.2342529 -0.2932129 0.9267578
vn -0.09014893 -0.9223633 0.3762207
vn 0.197998 -0.8994141 0.3891602
vn -0.09014893 -0.9223633 0.3762207
vn 0.3051758 -0.3657227 0.8793945
vn 0.2342529 -0.2932129 0.9267578
vn 0.6152344 -0.4057617 0.6757813
vn 0.4685059 -0.02128601 0.8833008
vn 0.7592773 0.1757813 0.6269531
vn 0.2697754 0.1888428 0.9443359
vn 0.4130859 0.4904785 0.7670898
vn 0.6303711 0.7646484 0.1343994
vn 0.4658203 0.8525391 0.2366943
vn -0.5585938 0.8041992 0.2022705
vn -0.2512207 0.9545898 0.1601563
vn 0.3244629 0.7709961 0.5478516
vn -0.9624023 0.1732178 0.2088623
vn -0.9770508 0.1672363 0.1314697
vn 0.9541016 -0.08825684 0.2858887
vn 0.1802979 -0.9516602 0.2495117
vn 0.8120117 0.5532227 0.1856689
vn 0.777832 0.6098633 0.1516113
vn -0.4333496 0.8925781 0.1247559
vn 0.8208008 -0.5463867 0.1651611
vn -0.3608398 -0.918457 0.1618652
vn 0.197998 -0.8994141 0.3891602
vn -0.4838867 -0.8647461 0.1348877
vn 0.7192383 -0.637207 0.2766113
vn -0.8583984 -0.4863281 0.1635742
vn 0.07159424 -0.9453125 0.3183594
vn 0.8056641 -0.5610352 0.1904297
vn -0.9624023 0.1732178 0.2088623
vn -0.9770508 0.1672363 0.1314697
vn -0.6303711 -0.7397461 0.2359619
g ENV_Spongebob_Stalagmite_04_LOD2_0
f 3/3/3 2/2/2 1/1/1
f 6/6/6 5/5/5 4/4/4
f 8/8/8 6/6/6 7/7/7
f 7/7/7 9/9/9 8/8/8
f 8/8/8 10/10/10 6/6/6
f 8/8/8 9/9/9 11/11/11
f 12/12/12 10/10/10 8/8/8
f 13/13/13 10/10/10 12/12/12
f 14/14/14 10/10/10 13/13/13
f 12/12/12 8/8/8 15/15/15
f 13/13/13 12/12/12 15/15/15
f 11/11/11 16/16/16 8/8/8
f 15/15/15 8/8/8 16/16/16
f 11/11/11 17/17/17 16/16/16
f 17/17/17 11/11/11 18/18/18
f 19/19/19 17/17/17 18/18/18
f 13/13/13 15/15/15 20/20/20
f 20/20/20 21/21/21 13/13/13
f 22/22/22 15/15/15 16/16/16
f 22/22/22 20/20/20 15/15/15
f 23/23/23 16/16/16 17/17/17
f 16/16/16 24/24/24 22/22/22
f 24/24/24 16/16/16 23/23/23
f 25/25/25 20/20/20 22/22/22
f 20/20/20 25/25/25 26/26/26
f 27/27/27 20/20/20 26/26/26
f 28/28/28 22/22/22 24/24/24
f 24/24/24 23/23/23 29/29/29
f 24/24/24 29/29/29 28/28/28
f 25/25/25 22/22/22 30/30/30
f 22/22/22 28/28/28 30/30/30
f 25/25/25 30/30/30 31/31/31
f 30/30/30 32/32/32 31/31/31
f 32/32/32 30/30/30 33/33/33
f 33/33/33 30/30/30 28/28/28
f 33/33/33 34/34/34 32/32/32
f 35/35/35 26/26/26 25/25/25
f 25/25/25 36/36/36 35/35/35
f 37/37/37 35/35/35 36/36/36
f 37/37/37 38/38/38 35/35/35
f 39/39/39 35/35/35 38/38/38
f 40/40/40 35/35/35 39/39/39
f 26/26/26 35/35/35 40/40/40
f 41/41/41 26/26/26 40/40/40
f 33/33/33 28/28/28 42/42/42
f 42/42/42 28/28/28 29/29/29
f 43/43/43 34/34/34 33/33/33
f 43/43/43 33/33/33 42/42/42
f 34/34/34 43/43/43 44/44/44
f 43/43/43 45/45/45 44/44/44
f 45/45/45 43/43/43 46/46/46
f 42/42/42 46/46/46 43/43/43
f 46/46/46 42/42/42 47/47/47
f 42/42/42 29/29/29 47/47/47
f 48/48/48 47/47/47 29/29/29
f 29/29/29 23/23/23 48/48/48
f 48/48/48 23/23/23 49/49/49
f 17/17/17 49/49/49 23/23/23
f 49/49/49 17/17/17 50/50/50
f 51/51/51 50/50/50 17/17/17
f 52/52/52 51/51/51 17/17/17
f 55/55/55 54/54/54 53/53/53
f 58/58/58 57/57/57 56/56/56
f 61/61/61 60/60/60 59/59/59
f 60/60/60 61/61/61 62/62/62
f 62/62/62 63/63/63 60/60/60
f 63/63/63 64/64/64 60/60/60
f 65/65/65 63/63/63 62/62/62
f 66/66/66 65/65/65 62/62/62
f 67/67/67 65/65/65 66/66/66
f 62/62/62 68/68/68 66/66/66
f 61/61/61 68/68/68 62/62/62
f 69/69/69 68/68/68 61/61/61
f 61/61/61 70/70/70 69/69/69
f 61/61/61 71/71/71 70/70/70
f 72/72/72 69/69/69 70/70/70
f 69/69/69 72/72/72 73/73/73
f 68/68/68 74/74/74 66/66/66
f 74/74/74 68/68/68 69/69/69
f 75/75/75 66/66/66 74/74/74
f 76/76/76 75/75/75 74/74/74
f 77/77/77 76/76/76 74/74/74
f 74/74/74 69/69/69 77/77/77
f 78/78/78 76/76/76 77/77/77
f 73/73/73 79/79/79 69/69/69
f 79/79/79 73/73/73 80/80/80
f 81/81/81 77/77/77 69/69/69
f 81/81/81 69/69/69 79/79/79
f 77/77/77 82/82/82 78/78/78
f 82/82/82 83/83/83 78/78/78
f 84/84/84 78/78/78 83/83/83
f 83/83/83 82/82/82 85/85/85
f 86/86/86 85/85/85 82/82/82
f 82/82/82 87/87/87 86/86/86
f 86/86/86 87/87/87 88/88/88
f 87/87/87 89/89/89 88/88/88
f 90/90/90 88/88/88 89/89/89
f 77/77/77 91/91/91 82/82/82
f 91/91/91 77/77/77 81/81/81
f 87/87/87 82/82/82 91/91/91
f 92/92/92 87/87/87 91/91/91
f 93/93/93 91/91/91 81/81/81
f 94/94/94 91/91/91 93/93/93
f 81/81/81 95/95/95 93/93/93
f 95/95/95 81/81/81 79/79/79
f 95/95/95 79/79/79 96/96/96
f 79/79/79 97/97/97 96/96/96
f 95/95/95 96/96/96 98/98/98
f 97/97/97 99/99/99 96/96/96
f 96/96/96 99/99/99 98/98/98
f 100/100/100 98/98/98 99/99/99
f 102/102/102 101/101/101 87/87/87
f 87/87/87 101/101/101 103/103/103
f 87/87/87 103/103/103 89/89/89
f 103/103/103 101/101/101 104/104/104
f 101/101/101 105/105/105 104/104/104
f 101/101/101 106/106/106 105/105/105
f 103/103/103 104/104/104 107/107/107
f 103/103/103 107/107/107 108/108/108
f 107/107/107 109/109/109 108/108/108
f 107/107/107 110/110/110 109/109/109
f 103/103/103 108/108/108 111/111/111
f 103/103/103 111/111/111 89/89/89
f 112/112/112 111/111/111 108/108/108
f 108/108/108 113/113/113 112/112/112
f 111/111/111 114/114/114 89/89/89
f 89/89/89 114/114/114 115/115/115
f 116/116/116 115/115/115 114/114/114
f 115/115/115 116/116/116 117/117/117
f 117/117/117 118/118/118 115/115/115
f 119/119/119 115/115/115 118/118/118
f 89/89/89 115/115/115 119/119/119
f 119/119/119 120/120/120 89/89/89
f 123/123/123 122/122/122 121/121/121
f 121/121/121 122/122/122 124/124/124
f 122/122/122 125/125/125 124/124/124
f 124/124/124 125/125/125 126/126/126
f 125/125/125 127/127/127 126/126/126
f 126/126/126 127/127/127 128/128/128
f 128/128/128 129/129/129 126/126/126
f 129/129/129 128/128/128 130/130/130
f 131/131/131 129/129/129 130/130/130
f 130/130/130 132/132/132 131/131/131
f 132/132/132 133/133/133 131/131/131
f 133/133/133 134/134/134 131/131/131
f 135/135/135 131/131/131 134/134/134
f 126/126/126 136/136/136 124/124/124
f 129/129/129 136/136/136 126/126/126
f 124/124/124 137/137/137 121/121/121
f 136/136/136 137/137/137 124/124/124
f 129/129/129 131/131/131 138/138/138
f 138/138/138 136/136/136 129/129/129
f 135/135/135 139/139/139 131/131/131
f 131/131/131 139/139/139 138/138/138
f 140/140/140 139/139/139 135/135/135
f 136/136/136 138/138/138 141/141/141
f 141/141/141 137/137/137 136/136/136
f 138/138/138 139/139/139 141/141/141
f 142/142/142 121/121/121 137/137/137
f 141/141/141 142/142/142 137/137/137
f 121/121/121 142/142/142 143/143/143
f 141/141/141 139/139/139 144/144/144
f 144/144/144 142/142/142 141/141/141
f 145/145/145 144/144/144 139/139/139
f 144/144/144 146/146/146 142/142/142
f 142/142/142 146/146/146 147/147/147
f 146/146/146 148/148/148 147/147/147
f 146/146/146 144/144/144 149/149/149
f 150/150/150 149/149/149 144/144/144
f 151/151/151 150/150/150 144/144/144
