g ENV_Spongebob_Cliff_03_LOD2
v -5.038678 2.619315 4.007178
v -5.618685 2.481002 5.392746
v -6.392427 4.141045 5.699551
v -3.415481 3.826526 0.06269132
v -2.748549 2.369879 0.06082731
v -5.432831 1.328626 6.389929
v -3.836333 1.509132 10.01085
v -5.618685 2.481002 5.392746
v -2.025361 -0.3440238 13.86728
v -0.03947255 0.8744409 14.10063
v 1.100723 -0.539852 13.95674
v -6.259018 2.42147 12.14747
v -5.37838 0.276364 12.77217
v 0.1679784 -1.784193 11.23736
v -2.446776 1.563149 11.05705
v -3.12854 -0.4540219 12.07583
v 0.286779 0.5667538 10.49908
v 3.176394 -1.545648 9.1822
v 0.1679784 -1.784193 11.23736
v 2.706044 -2.07252 10.02779
v 3.050949 0.4820347 8.557357
v 4.297355 0.1949307 5.846993
v 4.374501 -3.080908 5.945692
v 3.810465 0.3295981 0.09354137
v 4.143605 -3.583415 -0.01638467
v -5.618685 2.481002 5.392746
v -5.846885 1.501459 4.586391
v -5.432831 1.328626 6.389929
v -5.038678 2.619315 4.007178
v -5.904967 0.4307092 2.861813
v -2.748549 2.369879 0.06082731
v -7.553149 0.2969773 5.12844
v -7.414279 0.4146048 5.820663
v -5.432831 1.328626 6.389929
v -5.846885 1.501459 4.586391
v -7.414279 0.4146048 5.820663
v -4.339092 -0.6011387 11.51638
v -3.836333 1.509132 10.01085
v -2.446776 1.563149 11.05705
v -3.12854 -0.4540219 12.07583
v -7.553149 0.2969773 5.12844
v -9.144063 0.5111306 4.664912
v -11.7881 1.022849 0.03629019
v -10.22983 0.3292993 -0.02736911
v -5.904967 0.4307092 2.861813
v -5.747885 0.6103708 -0.02315477
v -2.748549 2.369879 0.06082731
v -10.93459 2.818312 4.142562
v -11.41742 3.737012 0.01782513
v -8.32997 2.027257 9.346541
v -4.339092 -0.6011387 11.51638
v -7.414279 0.4146048 5.820663
v -5.37838 0.276364 12.77217
v -6.259018 2.42147 12.14747
v -3.12854 -0.4540219 12.07583
v -2.025361 -0.3440238 13.86728
v 0.1679784 -1.784193 11.23736
v 1.100723 -0.539852 13.95674
v 5.307765 -2.04227 11.21703
v 2.706044 -2.07252 10.02779
v 3.176394 -1.545648 9.1822
v 5.759138 -3.799028 7.202106
v 7.822599 -1.67814 9.066199
v 4.374501 -3.080908 5.945692
v 6.587749 -5.319173 3.423729
v 4.143605 -3.583415 -0.01638467
v 10.5062 -5.192708 3.926425
v 8.296966 -5.277601 -0.0921167
v 11.817 -3.623507 -0.01720566
v -10.93459 2.818312 4.142562
v -7.940909 5.264555 3.087099
v -7.234023 3.709995 9.264491
v -8.32997 2.027257 9.346541
v -6.259018 2.42147 12.14747
v -5.618685 2.481002 5.392746
v -3.836333 1.509132 10.01085
v -6.392427 4.141045 5.699551
v -4.283247 2.845822 10.57915
v -2.446776 1.563149 11.05705
v -3.595023 2.749924 11.41376
v 0.885493 1.476326 11.65987
v 0.286779 0.5667538 10.49908
v 3.488916 1.772926 10.3852
v 0.885493 1.476326 11.65987
v 0.286779 0.5667538 10.49908
v 3.050949 0.4820347 8.557357
v 5.299912 1.572742 5.984859
v 4.297355 0.1949307 5.846993
v 3.810465 0.3295981 0.09354137
v 5.116286 1.755355 -0.02922569
v 2.937153 0.1780566 12.99283
v 6.176622 1.921261 9.404146
v 7.275958 -0.08172145 10.23607
v 5.307765 -2.04227 11.21703
v 1.100723 -0.539852 13.95674
v -0.03947255 0.8744409 14.10063
v 7.822599 -1.67814 9.066199
v 8.701376 0.7363096 7.552548
v 10.05473 -2.732177 7.341093
v 5.759138 -3.799028 7.202106
v 10.5062 -5.192708 3.926425
v 11.39433 -1.345194 5.256424
v 11.817 -3.623507 -0.01720566
v 11.89562 -1.547697 0.008950992
v 6.176622 1.921261 9.404146
v 8.701376 0.7363096 7.552548
v 7.275958 -0.08172145 10.23607
v 8.584086 1.417273 4.894207
v 11.39433 -1.345194 5.256424
v 9.356853 2.049158 0.04051538
v 11.89562 -1.547697 0.008950992
v 5.299912 1.572742 5.984859
v 5.116286 1.755355 -0.02922569
v 3.488916 1.772926 10.3852
v 2.937153 0.1780566 12.99283
v 0.885493 1.476326 11.65987
v -0.03947255 0.8744409 14.10063
v -3.595023 2.749924 11.41376
v -6.259018 2.42147 12.14747
v -4.283247 2.845822 10.57915
v -7.234023 3.709995 9.264491
v -6.392427 4.141045 5.699551
v -7.940909 5.264555 3.087099
v -6.353766 4.39319 4.282678
v -5.038678 2.619315 4.007178
v -3.415481 3.826526 0.06269132
v -7.535752 5.375275 -0.04541202
v -11.41742 3.737012 0.01782513
v -10.93459 2.818312 4.142562
vt 0.715332 0.447998
vt 0.7045898 0.4240723
vt 0.6723633 0.4294434
vt 0.734375 0.519043
vt 0.7563477 0.5126953
vt 0.5415039 0.3615723
vt 0.5664063 0.3032227
vt 0.5175781 0.3674316
vt 0.6396484 0.2749023
vt 0.6640625 0.2624512
vt 0.6567383 0.2446289
vt 0.6430664 0.338623
vt 0.6279297 0.3151855
vt 0.6196289 0.2319336
vt 0.5717773 0.2768555
vt 0.6132813 0.2866211
vt 0.5834961 0.2307129
vt 0.6142578 0.177124
vt 0.6196289 0.2319336
vt 0.6240234 0.1938477
vt 0.5800781 0.1784668
vt 0.5639648 0.1311035
vt 0.6137695 0.1099243
vt 0.5292969 0.04760742
vt 0.5869141 0.02639771
vt 0.5175781 0.3674316
vt 0.5195313 0.3891602
vt 0.5415039 0.3615723
vt 0.4960938 0.3818359
vt 0.5078125 0.4226074
vt 0.4311523 0.4211426
vt 0.5541992 0.4074707
vt 0.5625 0.3974609
vt 0.5415039 0.3615723
vt 0.5195313 0.3891602
vt 0.5625 0.3974609
vt 0.6074219 0.3054199
vt 0.5664063 0.3032227
vt 0.5717773 0.2768555
vt 0.6132813 0.2866211
vt 0.5541992 0.4074707
vt 0.5668945 0.4316406
vt 0.5576172 0.5166016
vt 0.5341797 0.5014648
vt 0.5078125 0.4226074
vt 0.4770508 0.4567871
vt 0.4311523 0.4211426
vt 0.5966797 0.4619141
vt 0.5966797 0.5258789
vt 0.6225586 0.3769531
vt 0.6074219 0.3054199
vt 0.5625 0.3974609
vt 0.6279297 0.3151855
vt 0.6430664 0.338623
vt 0.6132813 0.2866211
vt 0.6396484 0.2749023
vt 0.6196289 0.2319336
vt 0.6567383 0.2446289
vt 0.6640625 0.1798096
vt 0.6240234 0.1938477
vt 0.6142578 0.177124
vt 0.6396484 0.1161499
vt 0.6850586 0.1374512
vt 0.6137695 0.1099243
vt 0.6381836 0.06237793
vt 0.5869141 0.02639771
vt 0.6811523 0.0602417
vt 0.6518555 0.01156616
vt 0.7104492 0.01251984
vt 0.5966797 0.4619141
vt 0.6567383 0.4790039
vt 0.6464844 0.3798828
vt 0.6225586 0.3769531
vt 0.6430664 0.338623
vt 0.7045898 0.4240723
vt 0.7011719 0.3415527
vt 0.6723633 0.4294434
vt 0.6767578 0.342041
vt 0.7006836 0.3120117
vt 0.6772461 0.3237305
vt 0.7011719 0.2580566
vt 0.7246094 0.2685547
vt 0.7177734 0.21521
vt 0.7011719 0.2580566
vt 0.7246094 0.2685547
vt 0.7519531 0.2200928
vt 0.7729492 0.1641846
vt 0.7895508 0.1811523
vt 0.8642578 0.12146
vt 0.8452148 0.1010742
vt 0.6748047 0.2249756
vt 0.7216797 0.1757813
vt 0.6962891 0.1621094
vt 0.6640625 0.1798096
vt 0.6567383 0.2446289
vt 0.6640625 0.2624512
vt 0.6850586 0.1374512
vt 0.7236328 0.1322021
vt 0.6933594 0.1025391
vt 0.6396484 0.1161499
vt 0.6811523 0.0602417
vt 0.7158203 0.08502197
vt 0.7104492 0.01251984
vt 0.7382813 0.0206604
vt 0.7216797 0.1757813
vt 0.7236328 0.1322021
vt 0.6962891 0.1621094
vt 0.7543945 0.1135254
vt 0.7158203 0.08502197
vt 0.7983398 0.05377197
vt 0.7382813 0.0206604
vt 0.7729492 0.1641846
vt 0.8452148 0.1010742
vt 0.7177734 0.21521
vt 0.6748047 0.2249756
vt 0.7011719 0.2580566
vt 0.6640625 0.2624512
vt 0.6772461 0.3237305
vt 0.6430664 0.338623
vt 0.6767578 0.342041
vt 0.6464844 0.3798828
vt 0.6723633 0.4294434
vt 0.6567383 0.4790039
vt 0.6772461 0.4558105
vt 0.715332 0.447998
vt 0.734375 0.519043
vt 0.6630859 0.5273438
vt 0.5966797 0.5258789
vt 0.5966797 0.4619141
vn 0.8525391 -0.07507324 0.5170898
vn 0.9907227 0.02166748 -0.1345215
vn 0.5688477 0.8208008 -0.052948
vn 0.6953125 0.637207 0.3322754
vn 0.8930664 -0.05328369 0.4472656
vn 0.7504883 -0.4968262 -0.4360352
vn 0.9350586 -0.01864624 -0.3532715
vn 0.9907227 0.02166748 -0.1345215
vn -0.3037109 -0.5073242 0.8061523
vn 0.1763916 0.4611816 0.8696289
vn 0.3283691 -0.3637695 0.871582
vn -0.5073242 0.5786133 0.6386719
vn -0.5717773 -0.5551758 0.6040039
vn -0.5786133 -0.5620117 -0.5913086
vn 0.2038574 0.01940918 -0.9790039
vn -0.1016846 -0.8134766 -0.5722656
vn -0.4833984 0.3261719 -0.8125
vn -0.652832 -0.6176758 -0.4382324
vn -0.4199219 -0.4841309 -0.7675781
vn -0.1066895 -0.9697266 -0.2196045
vn -0.8364258 0.3032227 -0.4567871
vn -0.8540039 0.5068359 -0.1165161
vn -0.8745117 -0.4819336 0.0531311
vn -0.9130859 0.402832 0.0670166
vn -0.8007813 -0.5991211 -0.01638794
vn 0.9907227 0.02166748 -0.1345215
vn 0.8681641 -0.4499512 0.2089844
vn 0.7504883 -0.4968262 -0.4360352
vn 0.8525391 -0.07507324 0.5170898
vn 0.2507324 -0.9663086 0.06170654
vn 0.8930664 -0.05328369 0.4472656
vn -0.05471802 -0.9980469 0.03009033
vn 0.1783447 -0.9487305 -0.2612305
vn 0.7504883 -0.4968262 -0.4360352
vn 0.8681641 -0.4499512 0.2089844
vn 0.1783447 -0.9487305 -0.2612305
vn 0.2406006 -0.8920898 -0.3825684
vn 0.9350586 -0.01864624 -0.3532715
vn 0.2038574 0.01940918 -0.9790039
vn -0.1016846 -0.8134766 -0.5722656
vn -0.05471802 -0.9980469 0.03009033
vn -0.4592285 -0.8608398 0.2194824
vn -0.690918 -0.6943359 0.2016602
vn -0.2169189 -0.9697266 0.1137695
vn 0.2507324 -0.9663086 0.06170654
vn 0.295166 -0.9526367 0.07250977
vn 0.8930664 -0.05328369 0.4472656
vn -0.925293 0.06011963 0.3745117
vn -0.8134766 0.5498047 0.1894531
vn -0.8710938 -0.05734253 0.487793
vn -0.1553955 -0.987793 0.01712036
vn 0.1665039 -0.9785156 -0.119873
vn -0.5717773 -0.5551758 0.6040039
vn -0.5073242 0.5786133 0.6386719
vn -0.2365723 -0.9702148 -0.0508728
vn -0.3037109 -0.5073242 0.8061523
vn -0.284668 -0.9584961 0.005981445
vn 0.3283691 -0.3637695 0.871582
vn 0.4250488 -0.7451172 0.5141602
vn -0.1066895 -0.9697266 -0.2196045
vn -0.652832 -0.6176758 -0.4382324
vn -0.3896484 -0.8408203 0.3762207
vn 0.4963379 -0.402832 0.769043
vn -0.8745117 -0.4819336 0.0531311
vn -0.2044678 -0.9736328 0.1005859
vn -0.8007813 -0.5991211 -0.01638794
vn 0.3708496 -0.9223633 0.1074219
vn 0.07897949 -0.9960938 -0.04248047
vn 0.9492188 -0.3129883 -0.02891541
vn -0.925293 0.06011963 0.3745117
vn 0.1142578 0.9829102 0.1453857
vn -0.2617188 0.8945313 0.3620605
vn -0.8710938 -0.05734253 0.487793
vn -0.5073242 0.5786133 0.6386719
vn 0.9907227 0.02166748 -0.1345215
vn 0.9350586 -0.01864624 -0.3532715
vn 0.5688477 0.8208008 -0.052948
vn 0.4772949 0.8754883 0.07568359
vn 0.2038574 0.01940918 -0.9790039
vn 0.1970215 0.9379883 -0.2849121
vn 0.1014404 0.9926758 -0.06359863
vn -0.4833984 0.3261719 -0.8125
vn -0.1478271 0.9804688 -0.1313477
vn 0.1014404 0.9926758 -0.06359863
vn -0.4833984 0.3261719 -0.8125
vn -0.8364258 0.3032227 -0.4567871
vn -0.5429688 0.8393555 -0.01608276
vn -0.8540039 0.5068359 -0.1165161
vn -0.9130859 0.402832 0.0670166
vn -0.6787109 0.7329102 0.04766846
vn 0.4592285 0.3911133 0.7973633
vn 0.2712402 0.9013672 0.3376465
vn 0.7832031 0.1303711 0.6079102
vn 0.4250488 -0.7451172 0.5141602
vn 0.3283691 -0.3637695 0.871582
vn 0.1763916 0.4611816 0.8696289
vn 0.4963379 -0.402832 0.769043
vn 0.6586914 0.6225586 0.4221191
vn 0.6674805 -0.4294434 0.6083984
vn -0.3896484 -0.8408203 0.3762207
vn 0.3708496 -0.9223633 0.1074219
vn 0.8833008 0.2995605 0.361084
vn 0.9492188 -0.3129883 -0.02891541
vn 0.9848633 0.1711426 0.02322388
vn 0.2712402 0.9013672 0.3376465
vn 0.6586914 0.6225586 0.4221191
vn 0.7832031 0.1303711 0.6079102
vn 0.465332 0.8754883 0.1300049
vn 0.8833008 0.2995605 0.361084
vn 0.3181152 0.9448242 0.07861328
vn 0.9848633 0.1711426 0.02322388
vn -0.5429688 0.8393555 -0.01608276
vn -0.6787109 0.7329102 0.04766846
vn -0.1478271 0.9804688 -0.1313477
vn 0.4592285 0.3911133 0.7973633
vn 0.1014404 0.9926758 -0.06359863
vn 0.1763916 0.4611816 0.8696289
vn 0.1970215 0.9379883 -0.2849121
vn -0.5073242 0.5786133 0.6386719
vn 0.4772949 0.8754883 0.07568359
vn -0.2617188 0.8945313 0.3620605
vn 0.5688477 0.8208008 -0.052948
vn 0.1142578 0.9829102 0.1453857
vn 0.5288086 0.8085938 0.2580566
vn 0.8525391 -0.07507324 0.5170898
vn 0.6953125 0.637207 0.3322754
vn -0.1116333 0.9926758 0.04498291
vn -0.8134766 0.5498047 0.1894531
vn -0.925293 0.06011963 0.3745117
g ENV_Spongebob_Cliff_03_LOD2_0
f 3/3/3 2/2/2 1/1/1
f 1/1/1 5/5/5 4/4/4
f 8/8/8 7/7/7 6/6/6
f 11/11/11 10/10/10 9/9/9
f 9/9/9 10/10/10 12/12/12
f 13/13/13 9/9/9 12/12/12
f 16/16/16 15/15/15 14/14/14
f 17/17/17 14/14/14 15/15/15
f 19/19/19 17/17/17 18/18/18
f 18/18/18 20/20/20 19/19/19
f 17/17/17 21/21/21 18/18/18
f 21/21/21 22/22/22 18/18/18
f 22/22/22 23/23/23 18/18/18
f 24/24/24 23/23/23 22/22/22
f 23/23/23 24/24/24 25/25/25
f 28/28/28 27/27/27 26/26/26
f 26/26/26 27/27/27 29/29/29
f 30/30/30 29/29/29 27/27/27
f 29/29/29 30/30/30 31/31/31
f 30/30/30 27/27/27 32/32/32
f 27/27/27 33/33/33 32/32/32
f 36/36/36 35/35/35 34/34/34
f 37/37/37 36/36/36 34/34/34
f 34/34/34 38/38/38 37/37/37
f 37/37/37 38/38/38 39/39/39
f 37/37/37 39/39/39 40/40/40
f 36/36/36 42/42/42 41/41/41
f 43/43/43 41/41/41 42/42/42
f 44/44/44 41/41/41 43/43/43
f 45/45/45 41/41/41 44/44/44
f 45/45/45 44/44/44 46/46/46
f 45/45/45 46/46/46 47/47/47
f 42/42/42 48/48/48 43/43/43
f 49/49/49 43/43/43 48/48/48
f 48/48/48 42/42/42 50/50/50
f 51/51/51 50/50/50 42/42/42
f 42/42/42 52/52/52 51/51/51
f 50/50/50 51/51/51 53/53/53
f 53/53/53 54/54/54 50/50/50
f 53/53/53 51/51/51 55/55/55
f 53/53/53 55/55/55 56/56/56
f 55/55/55 57/57/57 56/56/56
f 57/57/57 58/58/58 56/56/56
f 58/58/58 57/57/57 59/59/59
f 57/57/57 60/60/60 59/59/59
f 60/60/60 61/61/61 59/59/59
f 61/61/61 62/62/62 59/59/59
f 62/62/62 63/63/63 59/59/59
f 64/64/64 62/62/62 61/61/61
f 62/62/62 64/64/64 65/65/65
f 66/66/66 65/65/65 64/64/64
f 62/62/62 65/65/65 67/67/67
f 65/65/65 66/66/66 68/68/68
f 65/65/65 68/68/68 67/67/67
f 69/69/69 67/67/67 68/68/68
f 72/72/72 71/71/71 70/70/70
f 73/73/73 72/72/72 70/70/70
f 72/72/72 73/73/73 74/74/74
f 77/77/77 76/76/76 75/75/75
f 78/78/78 76/76/76 77/77/77
f 76/76/76 78/78/78 79/79/79
f 80/80/80 79/79/79 78/78/78
f 81/81/81 79/79/79 80/80/80
f 79/79/79 81/81/81 82/82/82
f 85/85/85 84/84/84 83/83/83
f 83/83/83 86/86/86 85/85/85
f 87/87/87 86/86/86 83/83/83
f 86/86/86 87/87/87 88/88/88
f 89/89/89 88/88/88 87/87/87
f 90/90/90 89/89/89 87/87/87
f 93/93/93 92/92/92 91/91/91
f 91/91/91 94/94/94 93/93/93
f 94/94/94 91/91/91 95/95/95
f 96/96/96 95/95/95 91/91/91
f 93/93/93 94/94/94 97/97/97
f 97/97/97 98/98/98 93/93/93
f 98/98/98 97/97/97 99/99/99
f 99/99/99 97/97/97 100/100/100
f 100/100/100 101/101/101 99/99/99
f 102/102/102 98/98/98 99/99/99
f 99/99/99 101/101/101 102/102/102
f 101/101/101 103/103/103 102/102/102
f 102/102/102 103/103/103 104/104/104
f 107/107/107 106/106/106 105/105/105
f 108/108/108 105/105/105 106/106/106
f 106/106/106 109/109/109 108/108/108
f 108/108/108 109/109/109 110/110/110
f 109/109/109 111/111/111 110/110/110
f 108/108/108 110/110/110 112/112/112
f 105/105/105 108/108/108 112/112/112
f 113/113/113 112/112/112 110/110/110
f 114/114/114 105/105/105 112/112/112
f 105/105/105 114/114/114 115/115/115
f 115/115/115 114/114/114 116/116/116
f 115/115/115 116/116/116 117/117/117
f 118/118/118 117/117/117 116/116/116
f 117/117/117 118/118/118 119/119/119
f 120/120/120 119/119/119 118/118/118
f 119/119/119 120/120/120 121/121/121
f 122/122/122 121/121/121 120/120/120
f 123/123/123 121/121/121 122/122/122
f 122/122/122 124/124/124 123/123/123
f 125/125/125 124/124/124 122/122/122
f 126/126/126 124/124/124 125/125/125
f 124/124/124 126/126/126 123/123/123
f 127/127/127 123/123/123 126/126/126
f 123/123/123 127/127/127 128/128/128
f 128/128/128 129/129/129 123/123/123
