g ENV_Spongebob_Cliff_01_LOD2
v 4.325711 2.49719 7.315885
v 3.82176 1.704494 7.443404
v 2.952722 2.1381 3.823747
v -2.342598 1.025715 19.79844
v -2.068533 1.314553 17.98373
v -2.14311 0.1755176 19.91031
v -2.565869 -0.5649783 15.36891
v -2.676133 0.8717851 15.67127
v -2.755186 0.9601086 15.32954
v -2.676133 0.8717851 15.67127
v -2.565869 -0.5649783 15.36891
v -3.353496 -1.526127 15.55038
v -2.342598 1.025715 19.79844
v -2.746079 0.740976 20.13478
v -3.606162 1.618624 19.67928
v 6.683958 -0.1434139 7.256688
v 8.178503 0.6319806 7.489803
v 8.376439 0.5160985 7.337499
v -1.029995 1.660154 3.51928
v 1.370023 4.501234 -0.09962665
v 3.297409 3.222035 3.467862
v 4.325711 2.49719 7.315885
v 6.161765 5.004543 0.02201281
v 6.753731 2.50121 7.239407
v 3.297409 3.222035 3.467862
v 1.370023 4.501234 -0.09962665
v 2.952722 2.1381 3.823747
v 1.633438 1.774413 3.370614
v 2.952722 2.1381 3.823747
v 3.255198 -0.04693653 3.445702
v 1.633438 1.774413 3.370614
v 1.645379 0.5987114 3.315943
v -1.283184 0.7926421 4.136509
v -1.758553 -1.771758 4.575242
v 2.491679 -0.5094188 1.814276
v 3.255198 -0.04693653 3.445702
v 2.952722 2.1381 3.823747
v 3.82176 1.704494 7.443404
v 4.283851 0.4284103 7.304494
v 10.02922 -0.3351041 0.006457745
v 8.715783 1.240767 3.706992
v 10.09364 1.425169 0.01516644
v 6.161765 5.004543 0.02201281
v 6.753731 2.50121 7.239407
v 7.780576 1.939514 7.316337
v 8.376439 0.5160985 7.337499
v 8.178503 0.6319806 7.489803
v -1.283184 0.7926421 4.136509
v -1.720655 0.3737465 5.127752
v -1.029995 1.660154 3.51928
v -3.595386 1.560366 5.234709
v -2.763753 1.807575 7.699419
v -1.817378 0.5097651 7.475398
v 0.2134663 1.853678 12.24666
v -1.893729 2.67944 13.38735
v -1.308204 3.971986 0.08532885
v 1.370023 4.501234 -0.09962665
v -6.93369 2.048051 4.057382
v -7.769278 3.083198 0.05574949
v -8.890117 1.229101 3.459581
v -10.29286 0.5562436 0.07340009
v -6.824578 0.5136599 7.032134
v -4.918128 2.379559 12.66256
v -8.049979 1.75988 11.18438
v -7.799829 -0.1632281 7.486949
v -7.640944 -1.080328 6.449056
v -6.13704 0.8137025 14.71244
v -3.877851 1.09291 15.38022
v -2.755186 0.9601086 15.32954
v -2.676133 0.8717851 15.67127
v -5.523369 1.059736 16.55995
v -3.63792 1.742084 17.49441
v -2.068533 1.314553 17.98373
v -3.606162 1.618624 19.67928
v -5.941269 0.6875966 17.91701
v -2.342598 1.025715 19.79844
v -2.755186 0.9601086 15.32954
v -1.146641 1.037577 14.07756
v -2.565869 -0.5649783 15.36891
v -1.790692 -2.855078 13.30273
v -4.863346 -2.930565 14.99736
v 0.2134663 1.853678 12.24666
v -1.99726 -2.403949 9.345819
v -1.817378 0.5097651 7.475398
v -2.354251 -1.191867 7.037639
v -1.720655 0.3737465 5.127752
v -2.766908 -2.095862 4.957412
v -1.758553 -1.771758 4.575242
v -1.283184 0.7926421 4.136509
v -2.068533 1.314553 17.98373
v -2.259742 -1.405774 19.86216
v -2.14311 0.1755176 19.91031
v -2.676133 0.8717851 15.67127
v -3.353496 -1.526127 15.55038
v -5.941269 0.6875966 17.91701
v -6.306826 -1.041035 17.39149
v -6.446988 -0.9218187 14.54534
v -5.523369 1.059736 16.55995
v -6.13704 0.8137025 14.71244
v -8.11122 -1.259 12.35617
v -8.049979 1.75988 11.18438
v -8.64347 -0.8873628 10.28399
v -7.799829 -0.1632281 7.486949
v -7.640944 -1.080328 6.449056
v -8.890117 1.229101 3.459581
v -6.824578 0.5136599 7.032134
v -8.805136 -1.281507 3.831659
v -10.29286 0.5562436 0.07340009
v -9.879939 -1.45697 0.01429558
v -7.122091 -1.705647 6.739436
v -7.640944 -1.080328 6.449056
v -8.64347 -0.8873628 10.28399
v -7.809777 -1.774457 5.088032
v -8.805136 -1.281507 3.831659
v -9.34964 -3.258894 0.09852614
v -9.879939 -1.45697 0.01429558
v -2.259742 -1.405774 19.86216
v -3.353496 -1.526127 15.55038
v -3.778577 -2.060139 19.44173
v -4.606084 -2.146131 16.13376
v -5.409824 -2.21293 18.3015
v -6.306826 -1.041035 17.39149
v -6.446988 -0.9218187 14.54534
v -4.863346 -2.930565 14.99736
v -2.565869 -0.5649783 15.36891
v -8.11122 -1.259 12.35617
v -6.655546 -3.142307 8.961369
v -8.64347 -0.8873628 10.28399
v -1.790692 -2.855078 13.30273
v -1.99726 -2.403949 9.345819
v -7.122091 -1.705647 6.739436
v -4.78588 -2.353513 7.334114
v -2.354251 -1.191867 7.037639
v -2.766908 -2.095862 4.957412
v -4.945052 -2.668201 4.699258
v -7.809777 -1.774457 5.088032
v -1.758553 -1.771758 4.575242
v -5.185829 -5.250578 0.09670568
v -9.34964 -3.258894 0.09852614
v -0.9883863 -3.639001 0.152214
v 0.9880987 -0.7739782 -0.06282642
v 2.491679 -0.5094188 1.814276
v 9.003969 -1.045018 -0.005662027
v 4.758592 -0.7628348 3.522662
v 3.255198 -0.04693653 3.445702
v 1.645379 0.5987114 3.315943
v 4.283851 0.4284103 7.304494
v 6.683958 -0.1434139 7.256688
v 7.624214 -0.6515774 4.073143
v 10.02922 -0.3351041 0.006457745
v 8.376439 0.5160985 7.337499
v 8.715783 1.240767 3.706992
v 0.2134663 1.853678 12.24666
v -1.146641 1.037577 14.07756
v -1.893729 2.67944 13.38735
v -2.755186 0.9601086 15.32954
v -2.14311 0.1755176 19.91031
v -2.746079 0.740976 20.13478
v -2.342598 1.025715 19.79844
v -2.655673 -0.742129 20.18385
v -2.259742 -1.405774 19.86216
v -3.778577 -2.060139 19.44173
v -3.930195 -1.771988 19.64719
v -5.409824 -2.21293 18.3015
v -5.941269 0.6875966 17.91701
v -3.606162 1.618624 19.67928
v -2.746079 0.740976 20.13478
v -2.655673 -0.742129 20.18385
v -3.930195 -1.771988 19.64719
v -6.306826 -1.041035 17.39149
v -5.409824 -2.21293 18.3015
v 8.178503 0.6319806 7.489803
v 6.753731 2.50121 7.239407
v 7.780576 1.939514 7.316337
v 3.82176 1.704494 7.443404
v 4.325711 2.49719 7.315885
v 4.283851 0.4284103 7.304494
v 6.683958 -0.1434139 7.256688
v -1.283184 0.7926421 4.136509
v -1.029995 1.660154 3.51928
v 1.633438 1.774413 3.370614
v 3.297409 3.222035 3.467862
vt 0.2836914 0.8676758
vt 0.2727051 0.8632813
vt 0.2492676 0.9052734
vt 0.1063232 0.6591797
vt 0.1123047 0.6811523
vt 0.1160278 0.6518555
vt 0.2568359 0.796875
vt 0.2641602 0.8081055
vt 0.2722168 0.800293
vt 0.2641602 0.8081055
vt 0.2568359 0.796875
vt 0.2368164 0.7895508
vt 0.01821899 0.08337402
vt 0.02203369 0.07788086
vt 0.01000214 0.0647583
vt 0.407959 0.4553223
vt 0.3945313 0.4746094
vt 0.3952637 0.4763184
vt 0.1889648 0.9067383
vt 0.2281494 0.9731445
vt 0.2583008 0.9194336
vt 0.2836914 0.8676758
vt 0.296875 0.9804688
vt 0.3151855 0.8710938
vt 0.2583008 0.9194336
vt 0.2281494 0.9731445
vt 0.2492676 0.9052734
vt 0.2285156 0.9067383
vt 0.4162598 0.6669922
vt 0.4289551 0.6298828
vt 0.3972168 0.6586914
vt 0.3955078 0.6411133
vt 0.355957 0.6621094
vt 0.3227539 0.6391602
vt 0.407959 0.6040039
vt 0.4289551 0.6298828
vt 0.4162598 0.6669922
vt 0.4609375 0.684082
vt 0.4726563 0.6699219
vt 0.3942871 0.9633789
vt 0.3544922 0.9169922
vt 0.3728027 0.9711914
vt 0.296875 0.9804688
vt 0.3151855 0.8710938
vt 0.3303223 0.8696289
vt 0.3503418 0.8642578
vt 0.3410645 0.8657227
vt 0.1867676 0.8901367
vt 0.1782227 0.8754883
vt 0.1889648 0.9067383
vt 0.142334 0.8857422
vt 0.1450195 0.8378906
vt 0.1680908 0.8398438
vt 0.1633301 0.7641602
vt 0.1365967 0.7587891
vt 0.1877441 0.96875
vt 0.2281494 0.9731445
vt 0.09558105 0.9189453
vt 0.09692383 0.9785156
vt 0.0690918 0.9311523
vt 0.04663086 0.9765625
vt 0.07977295 0.8647461
vt 0.1008301 0.7763672
vt 0.06707764 0.8027344
vt 0.05908203 0.8574219
vt 0.04754639 0.8769531
vt 0.06854248 0.7490234
vt 0.1021118 0.7285156
vt 0.1238403 0.7236328
vt 0.1206055 0.7167969
vt 0.07336426 0.7138672
vt 0.09637451 0.6938477
vt 0.1123047 0.6811523
vt 0.08898926 0.6665039
vt 0.06134033 0.6977539
vt 0.1063232 0.6591797
vt 0.2722168 0.800293
vt 0.2927246 0.7905273
vt 0.2568359 0.796875
vt 0.2590332 0.7563477
vt 0.2171631 0.7666016
vt 0.314209 0.7734375
vt 0.2768555 0.7128906
vt 0.3225098 0.6992188
vt 0.3017578 0.6806641
vt 0.340332 0.6679688
vt 0.3015137 0.6401367
vt 0.3227539 0.6391602
vt 0.355957 0.6621094
vt 0.2524414 0.840332
vt 0.2180176 0.8491211
vt 0.2363281 0.8603516
vt 0.2641602 0.8081055
vt 0.2368164 0.7895508
vt 0.06134033 0.6977539
vt 0.03692627 0.7070313
vt 0.04187012 0.7480469
vt 0.07336426 0.7138672
vt 0.06854248 0.7490234
vt 0.03283691 0.7861328
vt 0.06707764 0.8027344
vt 0.0362854 0.8173828
vt 0.05908203 0.8574219
vt 0.04754639 0.8769531
vt 0.0690918 0.9311523
vt 0.07977295 0.8647461
vt 0.03735352 0.9155273
vt 0.04663086 0.9765625
vt 0.0206604 0.9702148
vt 0.2220459 0.6494141
vt 0.2124023 0.6411133
vt 0.1829834 0.6889648
vt 0.2202148 0.6191406
vt 0.2054443 0.6010742
vt 0.2172852 0.543457
vt 0.1931152 0.5463867
vt 0.2180176 0.8491211
vt 0.2368164 0.7895508
vt 0.2030029 0.8354492
vt 0.2124023 0.7885742
vt 0.1901855 0.8125
vt 0.175293 0.7944336
vt 0.1851807 0.7558594
vt 0.2171631 0.7666016
vt 0.2568359 0.796875
vt 0.1827393 0.71875
vt 0.2242432 0.684082
vt 0.1829834 0.6889648
vt 0.2590332 0.7563477
vt 0.2768555 0.7128906
vt 0.2220459 0.6494141
vt 0.2558594 0.6689453
vt 0.3017578 0.6806641
vt 0.3015137 0.6401367
vt 0.265625 0.6230469
vt 0.2202148 0.6191406
vt 0.3227539 0.6391602
vt 0.2800293 0.5463867
vt 0.2172852 0.543457
vt 0.3374023 0.5634766
vt 0.3837891 0.5742188
vt 0.407959 0.6040039
vt 0.4916992 0.5493164
vt 0.4533691 0.6181641
vt 0.4289551 0.6298828
vt 0.3955078 0.6411133
vt 0.4726563 0.6699219
vt 0.5 0.6547852
vt 0.4938965 0.609375
vt 0.5078125 0.5449219
vt 0.5224609 0.6489258
vt 0.5068359 0.5991211
vt 0.1633301 0.7641602
vt 0.1506348 0.7392578
vt 0.1365967 0.7587891
vt 0.1238403 0.7236328
vt 0.03057861 0.08599854
vt 0.02203369 0.07788086
vt 0.01821899 0.08337402
vt 0.04309082 0.07885742
vt 0.05227661 0.07995605
vt 0.06231689 0.06057739
vt 0.05801392 0.05932617
vt 0.06451416 0.03182983
vt 0.02095032 0.01985168
vt 0.01000214 0.0647583
vt 0.02203369 0.07788086
vt 0.04309082 0.07885742
vt 0.05801392 0.05932617
vt 0.04745483 0.01000214
vt 0.06451416 0.03182983
vt 0.3945313 0.4746094
vt 0.3725586 0.4494629
vt 0.3776855 0.465332
vt 0.3891602 0.4118652
vt 0.3791504 0.4162598
vt 0.4040527 0.4208984
vt 0.407959 0.4553223
vt 0.1867676 0.8901367
vt 0.1889648 0.9067383
vt 0.2285156 0.9067383
vt 0.2583008 0.9194336
vn -0.498291 0.8300781 0.2497559
vn -0.918457 0.210083 0.3344727
vn -0.8710938 0.2260742 0.4355469
vn 0.8505859 0.427002 0.3071289
vn 0.8432617 0.5336914 -0.06854248
vn 0.9228516 0.06982422 0.3789063
vn 0.8330078 -0.2473145 0.4953613
vn 0.7548828 0.5605469 -0.3405762
vn 0.5532227 0.4260254 0.7158203
vn 0.7548828 0.5605469 -0.3405762
vn 0.8330078 -0.2473145 0.4953613
vn 0.5947266 -0.7915039 -0.1391602
vn 0.8505859 0.427002 0.3071289
vn -0.2736816 -0.05841064 0.9599609
vn -0.118103 0.9262695 0.3574219
vn 0.03034973 -0.9272461 0.3728027
vn 0.0005116463 -0.1135254 0.9936523
vn 0.8320313 -0.5527344 0.04251099
vn -0.05172729 0.7470703 0.6625977
vn -0.3325195 0.8012695 0.4970703
vn -0.4316406 0.7475586 0.5048828
vn -0.498291 0.8300781 0.2497559
vn 0.3354492 0.8442383 0.4179688
vn 0.25 0.8876953 0.3867188
vn -0.4316406 0.7475586 0.5048828
vn -0.3325195 0.8012695 0.4970703
vn -0.8710938 0.2260742 0.4355469
vn 0.2089844 0.06115723 0.9760742
vn -0.8710938 0.2260742 0.4355469
vn -0.503418 -0.7646484 0.4020996
vn 0.2089844 0.06115723 0.9760742
vn 0.4311523 -0.1066284 0.8959961
vn 0.1580811 0.2441406 0.956543
vn 0.6054688 -0.5180664 0.6040039
vn -0.07696533 -0.9858398 0.1486816
vn -0.503418 -0.7646484 0.4020996
vn -0.8710938 0.2260742 0.4355469
vn -0.918457 0.210083 0.3344727
vn -0.4372559 -0.7827148 0.4428711
vn 0.7998047 -0.4753418 0.3664551
vn 0.8989258 0.3596191 0.2509766
vn 0.8745117 0.2895508 0.3896484
vn 0.3354492 0.8442383 0.4179688
vn 0.25 0.8876953 0.3867188
vn 0.5366211 0.7929688 0.2890625
vn 0.8320313 -0.5527344 0.04251099
vn 0.0005116463 -0.1135254 0.9936523
vn 0.1580811 0.2441406 0.956543
vn 0.9716797 0.2041016 0.119751
vn -0.05172729 0.7470703 0.6625977
vn 0.02452087 0.9970703 0.07501221
vn 0.03485107 0.9038086 -0.4267578
vn 0.8876953 0.1190186 -0.4448242
vn 0.9848633 0.1278076 0.116272
vn -0.1152344 0.9907227 0.07202148
vn 0.0138855 0.953125 0.302002
vn -0.3325195 0.8012695 0.4970703
vn -0.1977539 0.8505859 0.4873047
vn -0.3618164 0.909668 0.2032471
vn -0.7109375 0.6230469 0.3261719
vn -0.9829102 0.1689453 0.07446289
vn -0.4909668 0.8388672 0.2358398
vn -0.1556396 0.987793 0.002733231
vn -0.5678711 0.8198242 -0.07287598
vn -0.7167969 0.5390625 -0.442627
vn -0.9301758 -0.2932129 0.2200928
vn -0.6259766 0.4318848 0.6494141
vn -0.2137451 0.8618164 0.4602051
vn 0.5532227 0.4260254 0.7158203
vn 0.7548828 0.5605469 -0.3405762
vn -0.284668 0.9204102 -0.2685547
vn -0.1223145 0.9829102 -0.1365967
vn 0.8432617 0.5336914 -0.06854248
vn -0.118103 0.9262695 0.3574219
vn -0.7548828 0.2641602 0.6000977
vn 0.8505859 0.427002 0.3071289
vn 0.5532227 0.4260254 0.7158203
vn 0.6225586 0.1279297 0.7719727
vn 0.8330078 -0.2473145 0.4953613
vn 0.6313477 -0.7724609 0.06945801
vn -0.3498535 -0.8574219 0.3771973
vn 0.9848633 0.1278076 0.116272
vn 0.6289063 -0.7436523 -0.227417
vn 0.8876953 0.1190186 -0.4448242
vn 0.8178711 -0.5605469 0.1298828
vn 0.9716797 0.2041016 0.119751
vn 0.6074219 -0.7841797 0.1274414
vn 0.6054688 -0.5180664 0.6040039
vn 0.1580811 0.2441406 0.956543
vn 0.8432617 0.5336914 -0.06854248
vn 0.7250977 -0.6733398 0.1442871
vn 0.9228516 0.06982422 0.3789063
vn 0.7548828 0.5605469 -0.3405762
vn 0.5947266 -0.7915039 -0.1391602
vn -0.7548828 0.2641602 0.6000977
vn -0.7475586 -0.06216431 0.6611328
vn -0.9716797 -0.2307129 -0.04882813
vn -0.284668 0.9204102 -0.2685547
vn -0.6259766 0.4318848 0.6494141
vn -0.8540039 -0.1224976 0.5058594
vn -0.5678711 0.8198242 -0.07287598
vn -0.9726563 -0.2258301 -0.05667114
vn -0.7167969 0.5390625 -0.442627
vn -0.9301758 -0.2932129 0.2200928
vn -0.7109375 0.6230469 0.3261719
vn -0.4909668 0.8388672 0.2358398
vn -0.8803711 -0.2368164 0.411377
vn -0.9829102 0.1689453 0.07446289
vn -0.9423828 -0.2739258 0.190918
vn -0.4936523 -0.828125 -0.2663574
vn -0.9301758 -0.2932129 0.2200928
vn -0.9726563 -0.2258301 -0.05667114
vn -0.5527344 -0.6401367 0.5336914
vn -0.8803711 -0.2368164 0.411377
vn -0.8041992 -0.53125 0.2663574
vn -0.9423828 -0.2739258 0.190918
vn 0.7250977 -0.6733398 0.1442871
vn 0.5947266 -0.7915039 -0.1391602
vn 0.3115234 -0.9433594 0.1130371
vn 0.140625 -0.9848633 -0.1013184
vn -0.5131836 -0.8515625 0.1083374
vn -0.7475586 -0.06216431 0.6611328
vn -0.9716797 -0.2307129 -0.04882813
vn -0.3498535 -0.8574219 0.3771973
vn 0.8330078 -0.2473145 0.4953613
vn -0.8540039 -0.1224976 0.5058594
vn -0.300293 -0.9404297 -0.1602783
vn -0.9726563 -0.2258301 -0.05667114
vn 0.6313477 -0.7724609 0.06945801
vn 0.6289063 -0.7436523 -0.227417
vn -0.4936523 -0.828125 -0.2663574
vn 0.005649567 -0.9995117 0.03189087
vn 0.8178711 -0.5605469 0.1298828
vn 0.6074219 -0.7841797 0.1274414
vn -0.1026611 -0.8388672 0.534668
vn -0.5527344 -0.6401367 0.5336914
vn 0.6054688 -0.5180664 0.6040039
vn -0.03018188 -0.9072266 0.420166
vn -0.8041992 -0.53125 0.2663574
vn 0.6586914 -0.7041016 0.2648926
vn 0.2668457 -0.9599609 0.0826416
vn -0.07696533 -0.9858398 0.1486816
vn 0.07647705 -0.9956055 0.05038452
vn -0.1873779 -0.9648438 0.1843262
vn -0.503418 -0.7646484 0.4020996
vn 0.4311523 -0.1066284 0.8959961
vn -0.4372559 -0.7827148 0.4428711
vn 0.03034973 -0.9272461 0.3728027
vn 0.4023438 -0.8959961 0.1884766
vn 0.7998047 -0.4753418 0.3664551
vn 0.8320313 -0.5527344 0.04251099
vn 0.8989258 0.3596191 0.2509766
vn 0.9848633 0.1278076 0.116272
vn 0.6225586 0.1279297 0.7719727
vn -0.1152344 0.9907227 0.07202148
vn 0.5532227 0.4260254 0.7158203
vn 0.9228516 0.06982422 0.3789063
vn -0.2736816 -0.05841064 0.9599609
vn 0.8505859 0.427002 0.3071289
vn -0.2449951 -0.06100464 0.9677734
vn 0.7250977 -0.6733398 0.1442871
vn 0.3115234 -0.9433594 0.1130371
vn -0.4206543 0.0307312 0.9067383
vn -0.5131836 -0.8515625 0.1083374
vn -0.7548828 0.2641602 0.6000977
vn -0.118103 0.9262695 0.3574219
vn -0.2736816 -0.05841064 0.9599609
vn -0.2449951 -0.06100464 0.9677734
vn -0.4206543 0.0307312 0.9067383
vn -0.7475586 -0.06216431 0.6611328
vn -0.5131836 -0.8515625 0.1083374
vn 0.0005116463 -0.1135254 0.9936523
vn 0.25 0.8876953 0.3867188
vn 0.5366211 0.7929688 0.2890625
vn -0.09283447 -0.03796387 0.9951172
vn -0.498291 0.8300781 0.2497559
vn -0.4372559 -0.7827148 0.4428711
vn 0.03034973 -0.9272461 0.3728027
vn 0.1580811 0.2441406 0.956543
vn -0.05172729 0.7470703 0.6625977
vn 0.2089844 0.06115723 0.9760742
vn -0.4316406 0.7475586 0.5048828
g ENV_Spongebob_Cliff_01_LOD2_0
f 3/3/3 2/2/2 1/1/1
f 6/6/6 5/5/5 4/4/4
f 9/9/9 8/8/8 7/7/7
f 12/12/12 11/11/11 10/10/10
f 15/15/15 14/14/14 13/13/13
f 18/18/18 17/17/17 16/16/16
f 21/21/21 20/20/20 19/19/19
f 24/24/24 23/23/23 22/22/22
f 25/25/25 22/22/22 23/23/23
f 23/23/23 26/26/26 25/25/25
f 27/27/27 22/22/22 25/25/25
f 27/27/27 25/25/25 28/28/28
f 31/31/31 30/30/30 29/29/29
f 30/30/30 31/31/31 32/32/32
f 33/33/33 32/32/32 31/31/31
f 32/32/32 33/33/33 34/34/34
f 34/34/34 35/35/35 32/32/32
f 38/38/38 37/37/37 36/36/36
f 39/39/39 38/38/38 36/36/36
f 42/42/42 41/41/41 40/40/40
f 43/43/43 41/41/41 42/42/42
f 44/44/44 41/41/41 43/43/43
f 41/41/41 44/44/44 45/45/45
f 45/45/45 46/46/46 41/41/41
f 45/45/45 47/47/47 46/46/46
f 50/50/50 49/49/49 48/48/48
f 51/51/51 49/49/49 50/50/50
f 51/51/51 52/52/52 49/49/49
f 53/53/53 49/49/49 52/52/52
f 54/54/54 53/53/53 52/52/52
f 54/54/54 52/52/52 55/55/55
f 50/50/50 56/56/56 51/51/51
f 56/56/56 50/50/50 57/57/57
f 51/51/51 56/56/56 58/58/58
f 56/56/56 59/59/59 58/58/58
f 60/60/60 58/58/58 59/59/59
f 59/59/59 61/61/61 60/60/60
f 60/60/60 62/62/62 58/58/58
f 62/62/62 51/51/51 58/58/58
f 52/52/52 51/51/51 62/62/62
f 55/55/55 52/52/52 63/63/63
f 52/52/52 62/62/62 64/64/64
f 63/63/63 52/52/52 64/64/64
f 62/62/62 65/65/65 64/64/64
f 65/65/65 62/62/62 66/66/66
f 67/67/67 63/63/63 64/64/64
f 68/68/68 55/55/55 63/63/63
f 63/63/63 67/67/67 68/68/68
f 69/69/69 55/55/55 68/68/68
f 70/70/70 69/69/69 68/68/68
f 67/67/67 71/71/71 68/68/68
f 68/68/68 72/72/72 70/70/70
f 72/72/72 68/68/68 71/71/71
f 70/70/70 72/72/72 73/73/73
f 74/74/74 72/72/72 71/71/71
f 72/72/72 74/74/74 73/73/73
f 74/74/74 71/71/71 75/75/75
f 76/76/76 73/73/73 74/74/74
f 79/79/79 78/78/78 77/77/77
f 78/78/78 79/79/79 80/80/80
f 81/81/81 80/80/80 79/79/79
f 80/80/80 82/82/82 78/78/78
f 80/80/80 83/83/83 82/82/82
f 84/84/84 82/82/82 83/83/83
f 83/83/83 85/85/85 84/84/84
f 85/85/85 86/86/86 84/84/84
f 86/86/86 85/85/85 87/87/87
f 87/87/87 88/88/88 86/86/86
f 89/89/89 86/86/86 88/88/88
f 92/92/92 91/91/91 90/90/90
f 91/91/91 93/93/93 90/90/90
f 91/91/91 94/94/94 93/93/93
f 97/97/97 96/96/96 95/95/95
f 97/97/97 95/95/95 98/98/98
f 98/98/98 99/99/99 97/97/97
f 99/99/99 100/100/100 97/97/97
f 101/101/101 100/100/100 99/99/99
f 102/102/102 100/100/100 101/101/101
f 101/101/101 103/103/103 102/102/102
f 104/104/104 102/102/102 103/103/103
f 106/106/106 105/105/105 104/104/104
f 107/107/107 104/104/104 105/105/105
f 105/105/105 108/108/108 107/107/107
f 107/107/107 108/108/108 109/109/109
f 112/112/112 111/111/111 110/110/110
f 113/113/113 110/110/110 111/111/111
f 111/111/111 114/114/114 113/113/113
f 113/113/113 114/114/114 115/115/115
f 116/116/116 115/115/115 114/114/114
f 119/119/119 118/118/118 117/117/117
f 118/118/118 119/119/119 120/120/120
f 121/121/121 120/120/120 119/119/119
f 120/120/120 121/121/121 122/122/122
f 123/123/123 120/120/120 122/122/122
f 120/120/120 124/124/124 118/118/118
f 123/123/123 124/124/124 120/120/120
f 118/118/118 124/124/124 125/125/125
f 123/123/123 126/126/126 124/124/124
f 127/127/127 124/124/124 126/126/126
f 128/128/128 127/127/127 126/126/126
f 129/129/129 124/124/124 127/127/127
f 130/130/130 129/129/129 127/127/127
f 131/131/131 127/127/127 128/128/128
f 127/127/127 132/132/132 130/130/130
f 132/132/132 127/127/127 131/131/131
f 130/130/130 132/132/132 133/133/133
f 132/132/132 134/134/134 133/133/133
f 131/131/131 135/135/135 132/132/132
f 134/134/134 132/132/132 135/135/135
f 135/135/135 131/131/131 136/136/136
f 137/137/137 134/134/134 135/135/135
f 138/138/138 135/135/135 136/136/136
f 139/139/139 138/138/138 136/136/136
f 138/138/138 140/140/140 135/135/135
f 140/140/140 137/137/137 135/135/135
f 137/137/137 140/140/140 141/141/141
f 142/142/142 137/137/137 141/141/141
f 141/141/141 143/143/143 142/142/142
f 144/144/144 142/142/142 143/143/143
f 145/145/145 142/142/142 144/144/144
f 145/145/145 146/146/146 142/142/142
f 144/144/144 147/147/147 145/145/145
f 147/147/147 144/144/144 148/148/148
f 149/149/149 144/144/144 143/143/143
f 149/149/149 148/148/148 144/144/144
f 143/143/143 150/150/150 149/149/149
f 148/148/148 149/149/149 151/151/151
f 150/150/150 152/152/152 149/149/149
f 152/152/152 151/151/151 149/149/149
f 155/155/155 154/154/154 153/153/153
f 154/154/154 155/155/155 156/156/156
f 159/159/159 158/158/158 157/157/157
f 160/160/160 157/157/157 158/158/158
f 160/160/160 161/161/161 157/157/157
f 161/161/161 160/160/160 162/162/162
f 163/163/163 162/162/162 160/160/160
f 162/162/162 163/163/163 164/164/164
f 167/167/167 166/166/166 165/165/165
f 167/167/167 165/165/165 168/168/168
f 168/168/168 165/165/165 169/169/169
f 169/169/169 165/165/165 170/170/170
f 171/171/171 169/169/169 170/170/170
f 174/174/174 173/173/173 172/172/172
f 175/175/175 172/172/172 173/173/173
f 173/173/173 176/176/176 175/175/175
f 175/175/175 177/177/177 172/172/172
f 178/178/178 172/172/172 177/177/177
f 181/181/181 180/180/180 179/179/179
f 180/180/180 181/181/181 182/182/182
