g ENV_Spongebob_Stalagmite_03_Flipped_LOD2
v 0.1269564 0.02027398 1.843075
v 0.07632935 -0.05615096 1.846289
v 0.1236618 -4.460803E-07 2.16314
v 0.1478651 -0.2218849 0.6779011
v 0.2547311 -2.612034E-07 1.069825
v 0.09692307 0.0503818 1.844355
v 0.1236618 -4.460803E-07 2.16314
v 0.2780764 0.09197418 0.6769097
v 0.3501254 -1.581209E-07 0.4825347
v 0.1670108 -0.3134362 0.4967636
v 0.5572677 -0.1935188 0.09776471
v 0.2344287 -0.4673475 0.1006806
v 0.60738 -0.4980374 0.0002207823
v 0.3226497 -0.6533926 -6.978407E-05
v 0.8674533 -0.0009662102 0.0004279107
v 0.5550605 0.1920294 0.0973969
v 0.6105601 0.5083574 0.0002952901
v 0.2657703 0.2264906 0.4878636
v 0.2349573 0.4686995 0.1008348
v -0.0001227655 0.7163213 -5.75774E-05
v 0.04026361 0.329416 0.4926476
v -0.2410362 0.4800372 0.1088822
v -0.6116161 0.5085919 2.037293E-05
v -0.5569202 0.1933371 0.09814584
v -0.8559765 0.006136468 0.0004150918
v -0.2542533 0.1317401 0.4927544
v -0.5590976 -0.1938534 0.099237
v -0.7864413 -0.2755614 -6.621339E-05
v -0.3300664 -0.663227 0.0005699182
v 0.1298328 0.1713598 1.069164
v -0.1138299 0.1699622 0.6767787
v 0.05177465 0.1255388 1.459786
v 0.05570411 0.04956145 1.846225
v 0.1236618 -4.460803E-07 2.16314
v -0.2383475 -0.4810363 0.1080428
v -0.1883409 -0.2341859 0.493012
v 0.2344287 -0.4673475 0.1006806
v 0.3226497 -0.6533926 -6.978407E-05
v 0.1670108 -0.3134362 0.4967636
v 0.1478651 -0.2218849 0.6779011
v -0.1661659 -0.09202892 0.6761004
v -0.1564478 0.0772045 0.8734486
v -0.0846192 -0.1169387 1.264362
v 0.07632935 -0.05615096 1.846289
v -0.02108491 -3.912511E-07 1.655276
v 0.1236618 -4.460803E-07 2.16314
vt 0.3452148 0.6865234
vt 0.3525391 0.6811523
vt 0.3735352 0.7167969
vt 0.3022461 0.5332031
vt 0.2880859 0.5952148
vt 0.3408203 0.6904297
vt 0.3735352 0.7167969
vt 0.2470703 0.550293
vt 0.2498779 0.5117188
vt 0.3044434 0.5063477
vt 0.2617188 0.4384766
vt 0.3200684 0.4516602
vt 0.2956543 0.409668
vt 0.331543 0.4250488
vt 0.2250977 0.404541
vt 0.2050781 0.4506836
vt 0.1627197 0.4360352
vt 0.2122803 0.5292969
vt 0.1514893 0.4863281
vt 0.1046143 0.4873047
vt 0.1787109 0.5556641
vt 0.1013184 0.5336914
vt 0.05093384 0.543457
vt 0.0647583 0.5854492
vt 0.01931763 0.6054688
vt 0.1420898 0.6098633
vt 0.05319214 0.6416016
vt 0.01750183 0.6396484
vt 0.03823853 0.7109375
vt 0.2631836 0.6152344
vt 0.1865234 0.6083984
vt 0.2961426 0.6582031
vt 0.3369141 0.6948242
vt 0.369873 0.7241211
vt 0.06744385 0.7016602
vt 0.1308594 0.671875
vt 0.09985352 0.7548828
vt 0.08300781 0.7788086
vt 0.1437988 0.7241211
vt 0.1700439 0.7172852
vt 0.1687012 0.6572266
vt 0.2097168 0.6391602
vt 0.2526855 0.6870117
vt 0.3293457 0.7133789
vt 0.307373 0.6914063
vt 0.369873 0.7241211
vn 0.9267578 0.326416 0.185791
vn -0.3493652 -0.9160156 0.1965332
vn 0.5986328 -0.7963867 0.08746338
vn 0.5092773 -0.8188477 0.2641602
vn 0.9506836 -0.2095947 0.229126
vn 0.1804199 0.9614258 0.2070313
vn 0.5263672 0.8457031 0.08813477
vn 0.8745117 0.2297363 0.4274902
vn 0.902832 -0.0226593 0.4291992
vn 0.4355469 -0.7480469 0.5009766
vn 0.6083984 0.1467285 0.7797852
vn 0.1715088 -0.6782227 0.7143555
vn 0.3007813 -0.2214355 0.9277344
vn 0.09881592 -0.3933105 0.9140625
vn 0.3425293 0.02580261 0.9389648
vn 0.5610352 0.2454834 0.7905273
vn 0.2600098 0.2580566 0.9306641
vn 0.6572266 0.5600586 0.5043945
vn 0.1707764 0.6621094 0.7294922
vn 0.004657745 0.40625 0.9135742
vn 0.007022858 0.8935547 0.4484863
vn -0.3525391 0.7944336 0.4946289
vn -0.3046875 0.2279053 0.9248047
vn -0.5004883 0.2668457 0.8237305
vn -0.3425293 0.02059937 0.9394531
vn -0.7729492 0.3132324 0.5517578
vn -0.5996094 0.08343506 0.7958984
vn -0.291748 -0.22229 0.9301758
vn -0.1483154 -0.3728027 0.9160156
vn 0.2512207 0.949707 0.1877441
vn -0.6791992 0.6645508 0.3110352
vn -0.2064209 0.9765625 0.05950928
vn -0.925293 0.3098145 0.2183838
vn 0.1525879 0.9804688 0.1244507
vn -0.234375 -0.6000977 0.7646484
vn -0.5639648 -0.5727539 0.5947266
vn 0.1715088 -0.6782227 0.7143555
vn 0.09881592 -0.3933105 0.9140625
vn 0.4355469 -0.7480469 0.5009766
vn 0.5092773 -0.8188477 0.2641602
vn -0.8256836 -0.3820801 0.4152832
vn -0.9609375 0.2712402 0.05664063
vn -0.6660156 -0.7250977 0.1738281
vn -0.3493652 -0.9160156 0.1965332
vn -0.940918 0.1981201 0.2746582
vn -0.7958984 -0.5566406 0.2381592
g ENV_Spongebob_Stalagmite_03_Flipped_LOD2_0
f 3/3/3 2/2/2 1/1/1
f 1/1/1 2/2/2 4/4/4
f 4/4/4 5/5/5 1/1/1
f 1/1/1 5/5/5 6/6/6
f 7/7/7 1/1/1 6/6/6
f 5/5/5 4/4/4 8/8/8
f 8/8/8 6/6/6 5/5/5
f 9/9/9 8/8/8 4/4/4
f 4/4/4 10/10/10 9/9/9
f 9/9/9 10/10/10 11/11/11
f 11/11/11 10/10/10 12/12/12
f 13/13/13 11/11/11 12/12/12
f 12/12/12 14/14/14 13/13/13
f 11/11/11 13/13/13 15/15/15
f 15/15/15 16/16/16 11/11/11
f 11/11/11 16/16/16 9/9/9
f 16/16/16 15/15/15 17/17/17
f 16/16/16 18/18/18 9/9/9
f 9/9/9 18/18/18 8/8/8
f 17/17/17 19/19/19 16/16/16
f 18/18/18 16/16/16 19/19/19
f 19/19/19 17/17/17 20/20/20
f 21/21/21 8/8/8 18/18/18
f 19/19/19 21/21/21 18/18/18
f 20/20/20 22/22/22 19/19/19
f 21/21/21 19/19/19 22/22/22
f 22/22/22 20/20/20 23/23/23
f 23/23/23 24/24/24 22/22/22
f 24/24/24 23/23/23 25/25/25
f 22/22/22 24/24/24 26/26/26
f 26/26/26 21/21/21 22/22/22
f 25/25/25 27/27/27 24/24/24
f 24/24/24 27/27/27 26/26/26
f 27/27/27 25/25/25 28/28/28
f 27/27/27 28/28/28 29/29/29
f 21/21/21 30/30/30 8/8/8
f 6/6/6 8/8/8 30/30/30
f 30/30/30 21/21/21 31/31/31
f 21/21/21 26/26/26 31/31/31
f 6/6/6 30/30/30 32/32/32
f 31/31/31 32/32/32 30/30/30
f 32/32/32 33/33/33 6/6/6
f 34/34/34 6/6/6 33/33/33
f 29/29/29 35/35/35 27/27/27
f 27/27/27 36/36/36 26/26/26
f 36/36/36 27/27/27 35/35/35
f 29/29/29 37/37/37 35/35/35
f 37/37/37 29/29/29 38/38/38
f 37/37/37 39/39/39 35/35/35
f 35/35/35 39/39/39 36/36/36
f 40/40/40 36/36/36 39/39/39
f 26/26/26 36/36/36 41/41/41
f 41/41/41 31/31/31 26/26/26
f 36/36/36 40/40/40 41/41/41
f 31/31/31 42/42/42 32/32/32
f 42/42/42 31/31/31 41/41/41
f 43/43/43 41/41/41 40/40/40
f 41/41/41 43/43/43 42/42/42
f 43/43/43 40/40/40 44/44/44
f 42/42/42 45/45/45 32/32/32
f 42/42/42 43/43/43 45/45/45
f 43/43/43 44/44/44 45/45/45
f 32/32/32 45/45/45 33/33/33
f 44/44/44 33/33/33 45/45/45
f 46/46/46 33/33/33 44/44/44
