g ENV_Spongebob_Stalagmite_03_LOD1
v 0.1236618 1.381277E-07 2.16314
v 0.1109613 -0.002526217 2.16314
v 0.1193649 -0.0005591408 2.176235
v 0.09692308 -0.05038206 1.844355
v 0.05570412 -0.04956172 1.846225
v 0.03251801 -0.08022192 1.655276
v 0.02752 -0.01957352 1.84751
v 0.1109613 -0.002526217 2.16314
v 0.0989762 -0.08022192 1.655276
v 0.1148543 -0.03849673 1.843546
v 0.1236618 1.381277E-07 2.16314
v -0.02108491 1.381277E-07 1.655276
v 0.02776366 0.02189351 1.847825
v 0.004347706 0.0613994 1.655276
v 0.1109613 -0.002526217 2.16314
v 0.1109613 0.002526355 2.16314
v 0.1193649 -0.0005591408 2.176235
v 0.03908626 0.03954457 1.847585
v 0.1109613 0.002526355 2.16314
v 0.07632934 0.05615069 1.846289
v 0.1109613 0.002526355 2.16314
v 0.0989762 0.0802222 1.655276
v 0.1146797 0.04084352 1.84435
v 0.1109613 0.002526355 2.16314
v 0.1236618 1.381277E-07 2.16314
v -0.07137443 -0.04801262 1.460159
v -0.07137443 0.0480129 1.460159
v -0.08461922 0.1169385 1.264362
v -0.1376376 1.381277E-07 1.264362
v 0.05177467 0.1255393 1.459786
v 0.0989762 0.0802222 1.655276
v 0.1126519 0.1527878 1.264362
v 0.0523327 0.1855295 1.068898
v 0.1479176 0.2080327 0.8734486
v 0.05607375 0.2401501 0.6779957
v 0.1478651 0.2218848 0.6779012
v 0.1596104 0.2851257 0.4825347
v -0.03037538 0.2080327 0.8734486
v -0.04248917 -0.08872864 1.460073
v -0.1238585 -0.06328651 1.264362
v -0.1564478 -0.07720466 0.8734486
v -0.1741806 0.006339645 0.8734486
v -0.10595 0.1607088 0.8734486
v -0.03576236 0.2219426 0.6775473
v 0.04150791 0.3086178 0.4825347
v 0.05177467 -0.125539 1.459786
v -0.02589341 -0.1527874 1.264362
v 0.006402493 0.4436428 0.2529083
v 0.1766835 0.4177005 0.2526319
v -0.0765951 0.2851257 0.4825347
v -0.1138299 0.1699628 0.6767787
v 0 0.4897114 0.09162112
v 0.2271957 0.4524343 0.09162112
v 0.3221109 0.6414481 9.496276E-08
v 0 0.6942979 9.496276E-08
v -0.1661659 0.0920288 0.6761004
v -0.1767178 0.2182258 0.4825347
v -0.1740005 0.4248879 0.2525836
v -0.2271957 0.4524343 0.09162112
v -0.3221109 0.6414481 9.496276E-08
v -0.3465573 0.3341956 0.2518522
v -0.419802 0.3462779 0.09162112
v -0.5951833 0.4909427 9.496276E-08
v -0.243618 0.118103 0.4825347
v -0.1845822 1.381277E-07 0.6758364
v -0.4660195 0.1830958 0.2511413
v -0.5484983 0.1874046 0.09162112
v -0.7776443 0.2656964 9.496276E-08
v -0.2671102 1.381277E-07 0.4825347
v -0.5083479 1.381277E-07 0.2508511
v -0.5936903 1.381277E-07 0.09162112
v -0.8417168 1.381277E-07 9.496276E-08
v -0.5484983 -0.1874042 0.09162112
v -0.7776443 -0.2656962 9.496276E-08
v -0.4660201 -0.1830955 0.2511413
v -0.4198025 -0.346278 0.09162112
v -0.5951833 -0.4909427 9.496276E-08
v -0.243618 -0.1181027 0.4825347
v -0.3465573 -0.3341954 0.2518522
v -0.2271957 -0.4524343 0.09162112
v -0.3221109 -0.6414477 9.496276E-08
v -0.1661659 -0.09202852 0.6761004
v -0.1767178 -0.2182254 0.4825347
v -0.1740005 -0.4248876 0.2525836
v 0 -0.489711 0.09162112
v 0 -0.694298 9.496276E-08
v -0.1138299 -0.1699623 0.6767787
v -0.0765951 -0.2851253 0.4825347
v 0.006402493 -0.443642 0.2529083
v 0.2271957 -0.4524343 0.09162112
v 0.3221109 -0.6414477 9.496276E-08
v 0.1766835 -0.4177005 0.252632
v 0.4198025 -0.3462778 0.09162112
v 0.5951843 -0.4909427 9.496276E-08
v 0.3431837 -0.3302797 0.2519262
v 0.5484983 -0.1874042 0.09162112
v 0.7776449 -0.2656959 9.496276E-08
v 0.4612 -0.1815629 0.2512185
v 0.5936903 1.381277E-07 0.09162112
v 0.8417168 1.381277E-07 9.496276E-08
v 0.5032493 1.381277E-07 0.250926
v 0.3501254 1.381277E-07 0.4825347
v 0.5484983 0.1874046 0.09162112
v 0.7776443 0.2656964 9.496276E-08
v 0.3266332 -0.1181026 0.4825347
v 0.2597336 -0.2182254 0.4825347
v 0.4612 0.1815634 0.2512185
v 0.4198025 0.3462779 0.09162112
v 0.5951833 0.4909427 9.496276E-08
v 0.2271957 0.4524343 0.09162112
v 0.3221109 0.6414481 9.496276E-08
v 0.3431837 0.3302805 0.2519262
v 0.1766835 0.4177005 0.2526319
v 0.3266332 0.118103 0.4825347
v 0.2597336 0.2182258 0.4825347
v 0.1596104 0.2851257 0.4825347
v 0.1478651 0.2218848 0.6779012
v 0.2258332 0.169884 0.6774144
v 0.1479176 0.2080327 0.8734486
v 0.2780764 0.09197437 0.6769097
v 0.27399 0.08988367 0.8734486
v 0.2964562 1.381277E-07 0.6767035
v 0.2780764 -0.09197424 0.6769097
v 0.1954943 0.1311119 1.069476
v 0.1126519 0.1527878 1.264362
v 0.0989762 0.0802222 1.655276
v 0.1459695 0.03322909 1.655276
v 0.1146797 0.04084352 1.84435
v 0.27399 -0.07720438 0.8734486
v 0.2547311 1.381277E-07 1.069825
v 0.2258332 -0.1698836 0.6774144
v 0.2234933 -0.1480298 0.8734486
v 0.1459695 -0.03322882 1.655276
v 0.1478651 -0.2218844 0.6779012
v 0.1713777 -0.1169382 1.264362
v 0.1267968 0.02290792 1.843532
v 0.1236618 1.381277E-07 2.16314
v 0.1311655 0.001378514 1.843068
v 0.1236618 1.381277E-07 2.16314
v 0.1269564 -0.02027424 1.843075
v 0.1236618 1.381277E-07 2.16314
v 0.1236618 1.381277E-07 2.16314
v 0.1298328 -0.1713599 1.069164
v 0.1126519 -0.1527871 1.264362
v 0.04337927 -0.1653757 1.264362
v 0.0523327 -0.1855296 1.068898
v 0.05607375 -0.2401497 0.6779957
v -0.02519283 -0.1714343 1.068741
v 0.1596104 -0.2851253 0.4825347
v 0.04150791 -0.3086174 0.4825347
v -0.03576236 -0.2219421 0.6775473
v -0.03037538 -0.1953537 0.8734486
v -0.10595 -0.14803 0.8734486
v -0.09092115 -0.1312166 1.068694
vt 0.3735352 0.7167969
vt 0.369873 0.7197266
vt 0.3745117 0.7211914
vt 0.3408203 0.6904297
vt 0.3369141 0.6948242
vt 0.3146973 0.6791992
vt 0.3337402 0.699707
vt 0.369873 0.7197266
vt 0.3210449 0.6723633
vt 0.3430176 0.6884766
vt 0.3735352 0.7167969
vt 0.307373 0.6914063
vt 0.3312988 0.7050781
vt 0.3046875 0.7001953
vt 0.369873 0.7197266
vt 0.3696289 0.7211914
vt 0.3745117 0.7211914
vt 0.3303223 0.7080078
vt 0.3696289 0.7211914
vt 0.3293457 0.7133789
vt 0.3696289 0.7211914
vt 0.3029785 0.7138672
vt 0.3288574 0.7163086
vt 0.3696289 0.7211914
vt 0.369873 0.7241211
vt 0.2844238 0.6748047
vt 0.279541 0.6870117
vt 0.2526855 0.6870117
vt 0.2573242 0.6713867
vt 0.2766113 0.7070313
vt 0.3034668 0.7138672
vt 0.2498779 0.7143555
vt 0.223877 0.7036133
vt 0.1966553 0.7158203
vt 0.1678467 0.7041016
vt 0.1700439 0.7172852
vt 0.1437988 0.7241211
vt 0.1967773 0.6904297
vt 0.2878418 0.6694336
vt 0.2607422 0.6635742
vt 0.2097168 0.6391602
vt 0.2047119 0.6518555
vt 0.1983643 0.6777344
vt 0.166626 0.6894531
vt 0.1376953 0.7089844
vt 0.2961426 0.6582031
vt 0.2697754 0.6489258
vt 0.1021118 0.7202148
vt 0.1135254 0.7387695
vt 0.1330566 0.6914063
vt 0.166748 0.6738281
vt 0.08166504 0.7304688
vt 0.09985352 0.7548828
vt 0.08300781 0.7788086
vt 0.05728149 0.746582
vt 0.1687012 0.6572266
vt 0.1308594 0.671875
vt 0.09130859 0.6982422
vt 0.06744385 0.7016602
vt 0.03823853 0.7109375
vt 0.08288574 0.6723633
vt 0.05752563 0.6713867
vt 0.02450562 0.6748047
vt 0.1314697 0.6513672
vt 0.1727295 0.640625
vt 0.0791626 0.6455078
vt 0.05319214 0.6416016
vt 0.01750183 0.6396484
vt 0.135498 0.6303711
vt 0.08148193 0.6181641
vt 0.05593872 0.612793
vt 0.01931763 0.6054688
vt 0.0647583 0.5854492
vt 0.03108215 0.5732422
vt 0.0904541 0.5922852
vt 0.08050537 0.559082
vt 0.05093384 0.543457
vt 0.1420898 0.6098633
vt 0.1051636 0.5678711
vt 0.1013184 0.5336914
vt 0.07641602 0.5151367
vt 0.1785889 0.6240234
vt 0.1518555 0.590332
vt 0.1238403 0.5458984
vt 0.125 0.5087891
vt 0.1046143 0.4873047
vt 0.1865234 0.6083984
vt 0.1641846 0.5722656
vt 0.1435547 0.5268555
vt 0.1514893 0.4863281
vt 0.1335449 0.4604492
vt 0.1634521 0.5097656
vt 0.1781006 0.4663086
vt 0.1627197 0.4360352
vt 0.1865234 0.4921875
vt 0.2050781 0.4506836
vt 0.192627 0.4165039
vt 0.2119141 0.4777832
vt 0.2327881 0.4416504
vt 0.2250977 0.404541
vt 0.2386475 0.4685059
vt 0.2498779 0.5117188
vt 0.2617188 0.4384766
vt 0.2597656 0.4025879
vt 0.2307129 0.519043
vt 0.2122803 0.5292969
vt 0.2661133 0.4650879
vt 0.2915039 0.4421387
vt 0.2956543 0.409668
vt 0.3200684 0.4516602
vt 0.331543 0.4250488
vt 0.2932129 0.4675293
vt 0.3178711 0.4741211
vt 0.2692871 0.5073242
vt 0.2875977 0.5053711
vt 0.3044434 0.5063477
vt 0.3022461 0.5332031
vt 0.2893066 0.5351563
vt 0.3078613 0.5576172
vt 0.2756348 0.5385742
vt 0.2858887 0.5654297
vt 0.2614746 0.543457
vt 0.2470703 0.550293
vt 0.3061523 0.5864258
vt 0.3261719 0.6064453
vt 0.3439941 0.65625
vt 0.3359375 0.6606445
vt 0.3525391 0.6811523
vt 0.2644043 0.5766602
vt 0.2880859 0.5952148
vt 0.2331543 0.559082
vt 0.2536621 0.5839844
vt 0.328125 0.6660156
vt 0.2198486 0.5688477
vt 0.2883301 0.628418
vt 0.3500977 0.6826172
vt 0.3735352 0.7167969
vt 0.3476563 0.6845703
vt 0.3735352 0.7167969
vt 0.3452148 0.6865234
vt 0.3735352 0.7167969
vt 0.3735352 0.7167969
vt 0.2631836 0.6152344
vt 0.2817383 0.6347656
vt 0.2756348 0.6416016
vt 0.2553711 0.6235352
vt 0.2075195 0.5805664
vt 0.248291 0.6328125
vt 0.1948242 0.5415039
vt 0.1787109 0.5556641
vt 0.1962891 0.59375
vt 0.2237549 0.6147461
vt 0.2159424 0.6269531
vt 0.2421875 0.6420898
vn 0.2164307 -0.96875 0.1213989
vn -0.1627197 -0.9716797 0.171875
vn -3.051758E-05 -2.968311E-05 1
vn 0.4160156 -0.9003906 0.1280518
vn -0.3413086 -0.9208984 0.1888428
vn -0.4455566 -0.8686523 0.2156982
vn -0.8842773 -0.4013672 0.2393799
vn -0.8007813 -0.5473633 0.2425537
vn 0.3061523 -0.9370117 0.168457
vn 0.7387695 -0.6669922 0.09442139
vn 0.5800781 -0.8110352 0.07415771
vn -0.9604492 0.06793213 0.2695313
vn -0.9013672 0.3605957 0.2393799
vn -0.7080078 0.6669922 0.2325439
vn -0.9428711 -0.2089844 0.2595215
vn -0.9526367 0.1481934 0.2663574
vn -4.720688E-05 1.442432E-05 1
vn -0.6767578 0.7036133 0.2158203
vn -0.8320313 0.4973145 0.2462158
vn 0.03579712 0.987793 0.1517334
vn -0.234375 0.9550781 0.1820068
vn 0.3054199 0.9384766 0.1618652
vn 0.7241211 0.6831055 0.09442139
vn 0.1433105 0.9799805 0.1381836
vn 0.5058594 0.8579102 0.09100342
vn -0.8510742 -0.4482422 0.2729492
vn -0.9033203 0.3251953 0.2797852
vn -0.6704102 0.7250977 0.1567383
vn -0.9838867 0.06707764 0.1651611
vn -0.03588867 0.9794922 0.1988525
vn 0.3054199 0.9384766 0.1618652
vn 0.3415527 0.921875 0.1837158
vn 0 0.9882813 0.1533203
vn 0.4143066 0.9008789 0.1281738
vn -1.817942E-05 0.9770508 0.2139893
vn 0.3933105 0.8989258 0.1938477
vn 0.2700195 0.8647461 0.4238281
vn -0.2902832 0.9482422 0.1297607
vn -0.6474609 -0.7192383 0.2526855
vn -0.9262695 -0.3383789 0.1651611
vn -0.902832 -0.420166 0.08935547
vn -0.9941406 0.06781006 0.08428955
vn -0.6337891 0.7651367 0.114624
vn -0.3444824 0.9106445 0.2275391
vn -0.01800537 0.9082031 0.4179688
vn -0.03591919 -0.9794922 0.1988525
vn -0.3608398 -0.9204102 0.1500244
vn 0.03598022 0.8896484 0.4553223
vn 0.2883301 0.8647461 0.4108887
vn -0.2888184 0.8212891 0.4921875
vn -0.6796875 0.6972656 0.2275391
vn 0.01802063 0.7207031 0.6933594
vn 0.234375 0.6220703 0.7470703
vn 0.1256104 0.3859863 0.9140625
vn -0.01797485 0.4082031 0.9125977
vn -0.9003906 0.3466797 0.2629395
vn -0.5561523 0.6235352 0.5498047
vn -0.270752 0.8422852 0.4663086
vn -0.2165527 0.640625 0.7368164
vn -0.144165 0.3708496 0.9174805
vn -0.5400391 0.6479492 0.5371094
vn -0.4128418 0.4938965 0.7651367
vn -0.2519531 0.2790527 0.9267578
vn -0.6904297 0.3635254 0.6254883
vn -0.9677734 -0.06719971 0.2426758
vn -0.71875 0.345459 0.6035156
vn -0.5395508 0.2609863 0.8007813
vn -0.3237305 0.1395264 0.9360352
vn -0.7612305 0.01359558 0.6484375
vn -0.7983398 0 0.6020508
vn -0.5234375 0.02255249 0.8520508
vn -0.3405762 -0.02703857 0.9399414
vn -0.5444336 -0.2220459 0.809082
vn -0.3220215 -0.1791992 0.9296875
vn -0.7172852 -0.3498535 0.6025391
vn -0.4492188 -0.4567871 0.7680664
vn -0.2335205 -0.3017578 0.9243164
vn -0.7211914 -0.3427734 0.6020508
vn -0.5400391 -0.6479492 0.5371094
vn -0.2519531 -0.6264648 0.737793
vn -0.1087646 -0.3828125 0.9174805
vn -0.8681641 -0.411377 0.2783203
vn -0.5561523 -0.6235352 0.5498047
vn -0.2695313 -0.84375 0.4641113
vn -0.01800537 -0.7202148 0.6933594
vn 0.01803589 -0.40625 0.9135742
vn -0.6801758 -0.6894531 0.2493896
vn -0.2878418 -0.8227539 0.4897461
vn 0.03579712 -0.890625 0.4533691
vn 0.2158203 -0.6342773 0.7426758
vn 0.144043 -0.3740234 0.9160156
vn 0.2895508 -0.8637695 0.4125977
vn 0.4279785 -0.4812012 0.7651367
vn 0.2351074 -0.2797852 0.9306641
vn 0.5869141 -0.6757813 0.4458008
vn 0.5375977 -0.2595215 0.8022461
vn 0.3222656 -0.1396484 0.9365234
vn 0.7822266 -0.3786621 0.4943848
vn 0.5097656 -0.02726746 0.8598633
vn 0.3408203 0.02256775 0.9399414
vn 0.8583984 0 0.5131836
vn 0.8881836 0 0.4599609
vn 0.5424805 0.2211914 0.8105469
vn 0.3220215 0.1790771 0.9296875
vn 0.7924805 -0.4230957 0.439209
vn 0.5620117 -0.7070313 0.4289551
vn 0.7841797 0.3742676 0.4953613
vn 0.4465332 0.4558105 0.7700195
vn 0.2333984 0.3100586 0.9213867
vn 0.234375 0.6220703 0.7470703
vn 0.1256104 0.3859863 0.9140625
vn 0.5869141 0.6757813 0.4458008
vn 0.2883301 0.8647461 0.4108887
vn 0.7924805 0.4233398 0.439209
vn 0.5620117 0.7070313 0.4289551
vn 0.2700195 0.8647461 0.4238281
vn 0.3933105 0.8989258 0.1938477
vn 0.7094727 0.6835938 0.1719971
vn 0.4143066 0.9008789 0.1281738
vn 0.9116211 0.378418 0.1618652
vn 0.9355469 0.3374023 0.1044922
vn 0.9936523 0 0.1112061
vn 0.9111328 -0.373291 0.175293
vn 0.6518555 0.7382813 0.173584
vn 0.3415527 0.921875 0.1837158
vn 0.3054199 0.9384766 0.1618652
vn 0.8945313 0.4250488 0.1381836
vn 0.7241211 0.6831055 0.09442139
vn 0.9086914 -0.4040527 0.1062012
vn 0.9804688 -1.758337E-05 0.1954346
vn 0.7094727 -0.6782227 0.1921387
vn 0.722168 -0.6821289 0.116333
vn 0.8466797 -0.5043945 0.168457
vn 0.3942871 -0.8920898 0.2208252
vn 0.6513672 -0.7373047 0.1804199
vn 0.9179688 0.3913574 0.06408691
vn 0.8032227 0.5932617 0.05056763
vn 0.996582 0.04891968 0.06744385
vn 0.9726563 0.2296143 0.03033447
vn 0.9418945 -0.3288574 0.07080078
vn 0.987793 -0.1553955 0.02023315
vn 0.8525391 -0.5214844 0.04043579
vn 0.3413086 -0.9301758 0.1348877
vn 0.3415527 -0.9262695 0.1600342
vn 0 -0.9887695 0.1500244
vn 9.298325E-05 -0.9926758 0.1194458
vn 0 -0.9702148 0.2426758
vn -0.3754883 -0.9204102 0.1079102
vn 0.2714844 -0.8637695 0.4248047
vn -0.01800537 -0.9082031 0.4179688
vn -0.3449707 -0.9038086 0.2526855
vn -0.2890625 -0.9482422 0.1298828
vn -0.6337891 -0.7651367 0.114624
vn -0.6835938 -0.7241211 0.09442139
g ENV_Spongebob_Stalagmite_03_LOD1_0
f 3/3/3 2/2/2 1/1/1
f 2/2/2 4/4/4 1/1/1
f 4/4/4 2/2/2 5/5/5
f 4/4/4 5/5/5 6/6/6
f 5/5/5 7/7/7 6/6/6
f 5/5/5 8/8/8 7/7/7
f 6/6/6 9/9/9 4/4/4
f 10/10/10 4/4/4 9/9/9
f 10/10/10 11/11/11 4/4/4
f 12/12/12 6/6/6 7/7/7
f 7/7/7 13/13/13 12/12/12
f 14/14/14 12/12/12 13/13/13
f 7/7/7 15/15/15 13/13/13
f 16/16/16 13/13/13 15/15/15
f 17/17/17 16/16/16 15/15/15
f 18/18/18 14/14/14 13/13/13
f 13/13/13 19/19/19 18/18/18
f 20/20/20 14/14/14 18/18/18
f 18/18/18 21/21/21 20/20/20
f 14/14/14 20/20/20 22/22/22
f 23/23/23 22/22/22 20/20/20
f 20/20/20 24/24/24 23/23/23
f 17/17/17 25/25/25 24/24/24
f 25/25/25 23/23/23 24/24/24
f 12/12/12 26/26/26 6/6/6
f 14/14/14 27/27/27 12/12/12
f 26/26/26 12/12/12 27/27/27
f 27/27/27 14/14/14 28/28/28
f 26/26/26 27/27/27 29/29/29
f 28/28/28 29/29/29 27/27/27
f 30/30/30 28/28/28 14/14/14
f 14/14/14 31/31/31 30/30/30
f 32/32/32 30/30/30 31/31/31
f 30/30/30 32/32/32 33/33/33
f 33/33/33 28/28/28 30/30/30
f 34/34/34 33/33/33 32/32/32
f 33/33/33 34/34/34 35/35/35
f 34/34/34 36/36/36 35/35/35
f 36/36/36 37/37/37 35/35/35
f 28/28/28 33/33/33 38/38/38
f 35/35/35 38/38/38 33/33/33
f 39/39/39 6/6/6 26/26/26
f 29/29/29 40/40/40 26/26/26
f 39/39/39 26/26/26 40/40/40
f 41/41/41 40/40/40 29/29/29
f 29/29/29 28/28/28 42/42/42
f 42/42/42 41/41/41 29/29/29
f 38/38/38 43/43/43 28/28/28
f 43/43/43 42/42/42 28/28/28
f 44/44/44 38/38/38 35/35/35
f 38/38/38 44/44/44 43/43/43
f 45/45/45 35/35/35 37/37/37
f 35/35/35 45/45/45 44/44/44
f 46/46/46 6/6/6 39/39/39
f 6/6/6 46/46/46 9/9/9
f 47/47/47 39/39/39 40/40/40
f 39/39/39 47/47/47 46/46/46
f 45/45/45 37/37/37 48/48/48
f 49/49/49 48/48/48 37/37/37
f 50/50/50 44/44/44 45/45/45
f 45/45/45 48/48/48 50/50/50
f 51/51/51 43/43/43 44/44/44
f 44/44/44 50/50/50 51/51/51
f 48/48/48 49/49/49 52/52/52
f 53/53/53 52/52/52 49/49/49
f 53/53/53 54/54/54 52/52/52
f 55/55/55 52/52/52 54/54/54
f 56/56/56 43/43/43 51/51/51
f 43/43/43 56/56/56 42/42/42
f 57/57/57 51/51/51 50/50/50
f 51/51/51 57/57/57 56/56/56
f 58/58/58 50/50/50 48/48/48
f 48/48/48 52/52/52 58/58/58
f 50/50/50 58/58/58 57/57/57
f 52/52/52 55/55/55 59/59/59
f 59/59/59 58/58/58 52/52/52
f 60/60/60 59/59/59 55/55/55
f 61/61/61 57/57/57 58/58/58
f 58/58/58 59/59/59 61/61/61
f 59/59/59 60/60/60 62/62/62
f 62/62/62 61/61/61 59/59/59
f 63/63/63 62/62/62 60/60/60
f 57/57/57 61/61/61 64/64/64
f 64/64/64 56/56/56 57/57/57
f 65/65/65 42/42/42 56/56/56
f 42/42/42 65/65/65 41/41/41
f 61/61/61 62/62/62 66/66/66
f 66/66/66 64/64/64 61/61/61
f 62/62/62 63/63/63 67/67/67
f 67/67/67 66/66/66 62/62/62
f 68/68/68 67/67/67 63/63/63
f 64/64/64 69/69/69 56/56/56
f 64/64/64 66/66/66 69/69/69
f 65/65/65 56/56/56 69/69/69
f 66/66/66 67/67/67 70/70/70
f 70/70/70 69/69/69 66/66/66
f 67/67/67 68/68/68 71/71/71
f 71/71/71 70/70/70 67/67/67
f 72/72/72 71/71/71 68/68/68
f 71/71/71 72/72/72 73/73/73
f 71/71/71 73/73/73 70/70/70
f 74/74/74 73/73/73 72/72/72
f 70/70/70 75/75/75 69/69/69
f 75/75/75 70/70/70 73/73/73
f 73/73/73 74/74/74 76/76/76
f 73/73/73 76/76/76 75/75/75
f 77/77/77 76/76/76 74/74/74
f 69/69/69 78/78/78 65/65/65
f 78/78/78 69/69/69 75/75/75
f 79/79/79 75/75/75 76/76/76
f 75/75/75 79/79/79 78/78/78
f 76/76/76 77/77/77 80/80/80
f 76/76/76 80/80/80 79/79/79
f 81/81/81 80/80/80 77/77/77
f 82/82/82 65/65/65 78/78/78
f 82/82/82 41/41/41 65/65/65
f 83/83/83 78/78/78 79/79/79
f 78/78/78 83/83/83 82/82/82
f 84/84/84 79/79/79 80/80/80
f 79/79/79 84/84/84 83/83/83
f 80/80/80 81/81/81 85/85/85
f 80/80/80 85/85/85 84/84/84
f 86/86/86 85/85/85 81/81/81
f 87/87/87 82/82/82 83/83/83
f 82/82/82 87/87/87 41/41/41
f 88/88/88 83/83/83 84/84/84
f 83/83/83 88/88/88 87/87/87
f 89/89/89 84/84/84 85/85/85
f 84/84/84 89/89/89 88/88/88
f 85/85/85 86/86/86 90/90/90
f 91/91/91 90/90/90 86/86/86
f 89/89/89 85/85/85 92/92/92
f 90/90/90 92/92/92 85/85/85
f 90/90/90 91/91/91 93/93/93
f 94/94/94 93/93/93 91/91/91
f 92/92/92 90/90/90 95/95/95
f 93/93/93 95/95/95 90/90/90
f 93/93/93 94/94/94 96/96/96
f 97/97/97 96/96/96 94/94/94
f 95/95/95 93/93/93 98/98/98
f 96/96/96 98/98/98 93/93/93
f 96/96/96 97/97/97 99/99/99
f 100/100/100 99/99/99 97/97/97
f 99/99/99 101/101/101 96/96/96
f 98/98/98 96/96/96 101/101/101
f 101/101/101 102/102/102 98/98/98
f 99/99/99 100/100/100 103/103/103
f 99/99/99 103/103/103 101/101/101
f 104/104/104 103/103/103 100/100/100
f 98/98/98 105/105/105 95/95/95
f 105/105/105 98/98/98 102/102/102
f 95/95/95 106/106/106 92/92/92
f 106/106/106 95/95/95 105/105/105
f 107/107/107 101/101/101 103/103/103
f 101/101/101 107/107/107 102/102/102
f 103/103/103 104/104/104 108/108/108
f 103/103/103 108/108/108 107/107/107
f 109/109/109 108/108/108 104/104/104
f 108/108/108 109/109/109 110/110/110
f 111/111/111 110/110/110 109/109/109
f 108/108/108 110/110/110 112/112/112
f 112/112/112 107/107/107 108/108/108
f 113/113/113 112/112/112 110/110/110
f 107/107/107 112/112/112 114/114/114
f 114/114/114 102/102/102 107/107/107
f 112/112/112 113/113/113 115/115/115
f 115/115/115 114/114/114 112/112/112
f 116/116/116 115/115/115 113/113/113
f 116/116/116 117/117/117 115/115/115
f 118/118/118 115/115/115 117/117/117
f 115/115/115 118/118/118 114/114/114
f 117/117/117 119/119/119 118/118/118
f 120/120/120 114/114/114 118/118/118
f 114/114/114 120/120/120 102/102/102
f 121/121/121 118/118/118 119/119/119
f 118/118/118 121/121/121 120/120/120
f 122/122/122 102/102/102 120/120/120
f 120/120/120 121/121/121 122/122/122
f 122/122/122 123/123/123 102/102/102
f 105/105/105 102/102/102 123/123/123
f 121/121/121 119/119/119 124/124/124
f 125/125/125 124/124/124 119/119/119
f 124/124/124 125/125/125 126/126/126
f 126/126/126 127/127/127 124/124/124
f 126/126/126 128/128/128 127/127/127
f 129/129/129 122/122/122 121/121/121
f 123/123/123 122/122/122 129/129/129
f 124/124/124 130/130/130 121/121/121
f 130/130/130 124/124/124 127/127/127
f 129/129/129 121/121/121 130/130/130
f 123/123/123 131/131/131 105/105/105
f 106/106/106 105/105/105 131/131/131
f 131/131/131 123/123/123 132/132/132
f 129/129/129 132/132/132 123/123/123
f 133/133/133 129/129/129 130/130/130
f 130/130/130 127/127/127 133/133/133
f 131/131/131 134/134/134 106/106/106
f 132/132/132 134/134/134 131/131/131
f 135/135/135 132/132/132 129/129/129
f 129/129/129 133/133/133 135/135/135
f 136/136/136 127/127/127 128/128/128
f 128/128/128 137/137/137 136/136/136
f 136/136/136 138/138/138 127/127/127
f 136/136/136 139/139/139 138/138/138
f 138/138/138 140/140/140 127/127/127
f 133/133/133 127/127/127 140/140/140
f 138/138/138 141/141/141 140/140/140
f 140/140/140 10/10/10 133/133/133
f 140/140/140 142/142/142 10/10/10
f 9/9/9 133/133/133 10/10/10
f 9/9/9 135/135/135 133/133/133
f 132/132/132 135/135/135 143/143/143
f 143/143/143 134/134/134 132/132/132
f 135/135/135 9/9/9 144/144/144
f 144/144/144 143/143/143 135/135/135
f 144/144/144 9/9/9 46/46/46
f 46/46/46 145/145/145 144/144/144
f 145/145/145 46/46/46 47/47/47
f 143/143/143 144/144/144 146/146/146
f 145/145/145 146/146/146 144/144/144
f 134/134/134 143/143/143 147/147/147
f 146/146/146 147/147/147 143/143/143
f 47/47/47 148/148/148 145/145/145
f 146/146/146 145/145/145 148/148/148
f 134/134/134 147/147/147 149/149/149
f 149/149/149 106/106/106 134/134/134
f 149/149/149 92/92/92 106/106/106
f 92/92/92 149/149/149 89/89/89
f 150/150/150 89/89/89 149/149/149
f 150/150/150 149/149/149 147/147/147
f 150/150/150 88/88/88 89/89/89
f 88/88/88 150/150/150 151/151/151
f 147/147/147 151/151/151 150/150/150
f 151/151/151 87/87/87 88/88/88
f 147/147/147 146/146/146 152/152/152
f 151/151/151 147/147/147 152/152/152
f 148/148/148 152/152/152 146/146/146
f 87/87/87 151/151/151 153/153/153
f 152/152/152 153/153/153 151/151/151
f 152/152/152 148/148/148 153/153/153
f 153/153/153 41/41/41 87/87/87
f 154/154/154 153/153/153 148/148/148
f 153/153/153 154/154/154 41/41/41
f 148/148/148 47/47/47 154/154/154
f 154/154/154 40/40/40 41/41/41
f 40/40/40 154/154/154 47/47/47
