g ENV_Spongebob_Coral_Branch_1_LOD2
v -0.4948799 0.1751453 1.053574
v -0.5440118 0.100685 0.9925573
v -0.4972487 0.1015806 0.737581
v 0.371413 -0.3374581 2.972499
v 0.3566762 -0.1945108 3.121491
v 0.4583562 -0.1967121 3.209679
v 0.3305479 -0.1907195 2.942693
v 0.3276862 -0.2797823 2.824025
v 0.6321747 -0.2656448 3.027922
v 0.4357439 -0.1620277 2.774816
v 0.07818864 -0.05098629 3.258466
v 0.4678753 -0.1319198 2.570255
v 0.07160178 -0.2453756 3.028463
v -0.1352719 -0.003510916 3.203088
v -0.08740578 0.09220155 2.963838
v 0.141075 -0.1441197 2.590104
v 0.3418548 -0.220538 2.222285
v 0.4309333 -0.1120451 2.356761
v 0.4865527 -0.1628033 2.237727
v 0.118562 -0.06163352 2.135942
v 0.3283733 -0.2018789 2.100446
v 0.7081348 -0.2682132 2.201797
v 0.7083195 -0.2578495 2.03692
v 0.833182 -0.3228902 1.998907
v 0.8843193 -0.3849824 2.399424
v -0.4637627 0.06249689 1.541284
v -0.386128 0.1485337 1.583392
v -0.2565714 -0.03065048 1.465415
v -0.5127886 0.04692701 1.337185
v -0.3299067 0.06949997 1.136092
v -0.6091688 0.1982151 1.606953
v -0.3422137 -0.07529173 0.7868066
v -0.6633977 0.1309989 1.468305
v -0.735391 0.1650593 1.833398
v -0.8160483 0.1715042 1.918786
v -0.6456641 0.2033941 2.019527
v -0.7642077 0.2255754 1.598935
v -0.7256904 0.2789069 1.770331
v -0.7800931 0.2552302 2.056174
v -0.6633026 0.212324 2.34549
v -0.5462109 0.2224557 2.223571
v -1.023477 0.3620319 2.190969
v -1.015789 0.3036418 1.954658
v -0.7256904 0.2789069 1.770331
v -0.53372 0.01055451 1.00067
v -0.2556363 0.02455863 0.2208115
v -0.1325338 -0.1073143 0.2831284
v -0.02731826 -0.1662172 -0.02453152
v -0.1595155 0.05254401 -0.03124569
v -0.4972487 0.1015806 0.737581
v -0.5440118 0.100685 0.9925573
v -0.6129458 0.0564758 1.11984
v -0.6499054 0.07156976 1.207061
v -0.618425 0.1724304 1.243141
v -0.9778941 0.2404507 1.336858
v -0.9370387 0.1358453 1.273289
v -0.7421283 0.1568841 1.142463
v -0.4948799 0.1751453 1.053574
v -0.6499054 0.07156976 1.207061
v -1.164332 0.208922 1.231875
v -1.005814 0.2402196 1.216439
v -1.301144 0.2204529 1.326928
v -1.281706 0.2956965 1.419282
v -1.522504 0.2590725 1.299998
v -1.164332 0.208922 1.231875
v -1.433883 0.3752368 1.312365
v -1.586987 0.3814104 1.237229
v -1.840351 0.3890316 1.314541
v -1.532169 0.3326347 1.441468
v -1.532169 0.3326347 1.441468
v -1.209377 0.2684787 1.685866
v -1.441463 0.3712826 1.697314
v -1.306619 0.4136232 1.816452
v 1.163805 -0.2909522 1.720971
v 0.9755768 -0.3491 1.669847
v 1.076784 -0.3148462 1.9783
v 0.810524 -0.3054284 1.793826
v 0.8503792 -0.220841 2.06423
v 1.033834 -0.3754015 2.300988
v 1.000933 -0.3836222 2.396713
v 1.000676 -0.2764935 2.344208
v -1.532169 0.3326347 1.441468
v -1.840351 0.3890316 1.314541
v -1.586987 0.3814104 1.237229
v -1.433883 0.3752368 1.312365
v 0.833182 -0.3228902 1.998907
v 0.810524 -0.3054284 1.793826
v 0.7083195 -0.2578495 2.03692
v 0.7253786 -0.140183 2.082506
v 0.5255532 -0.1214528 2.105266
v 0.3283733 -0.2018789 2.100446
v 1.023817 -0.13583 1.754167
v 0.9755768 -0.3491 1.669847
v 1.163805 -0.2909522 1.720971
v 1.076784 -0.3148462 1.9783
v 0.8503792 -0.220841 2.06423
v 1.000676 -0.2764935 2.344208
v 1.033834 -0.3754015 2.300988
v 0.7081348 -0.2682132 2.201797
v 0.8843193 -0.3849824 2.399424
v 1.000933 -0.3836222 2.396713
v 0.4865527 -0.1628033 2.237727
v 0.2647879 0.07840292 2.085482
v 0.4309333 -0.1120451 2.356761
v 0.4678753 -0.1319198 2.570255
v 0.3930258 0.03810862 2.639334
v 0.4357439 -0.1620277 2.774816
v 0.3207163 -0.05547256 2.003864
v -0.1792591 0.09230028 1.448689
v -0.2565714 -0.03065048 1.465415
v -0.3299067 0.06949997 1.136092
v 0.3677811 -0.07671353 2.902353
v 0.6321747 -0.2656448 3.027922
v 0.4583562 -0.1967121 3.209679
v 0.371413 -0.3374581 2.972499
v 0.3566762 -0.1945108 3.121491
v 0.3305479 -0.1907195 2.942693
v 0.2649484 0.06046624 3.110079
v 0.07818864 -0.05098629 3.258466
v -0.1352719 -0.003510916 3.203088
v -0.08740578 0.09220155 2.963838
v 0.141075 -0.1441197 2.590104
v 0.118562 -0.06163352 2.135942
v -0.386128 0.1485337 1.583392
v -0.2492447 0.2008813 1.511754
v -0.3836629 0.2027075 1.333741
v -0.6091688 0.1982151 1.606953
v -0.3580684 0.1982513 1.157596
v -0.7642077 0.2255754 1.598935
v -0.6633977 0.1309989 1.468305
v -0.5127886 0.04692701 1.337185
v -0.7256904 0.2789069 1.770331
v -0.6456641 0.2033941 2.019527
v -0.652212 0.368173 2.216787
v -0.5462109 0.2224557 2.223571
v -0.6633026 0.212324 2.34549
v -0.7800931 0.2552302 2.056174
v -0.8605532 0.3772616 1.929842
v -1.023477 0.3620319 2.190969
v -1.015789 0.3036418 1.954658
v -0.7256904 0.2789069 1.770331
v -0.5127886 0.04692701 1.337185
v -0.618425 0.1724304 1.243141
v -0.4948799 0.1751453 1.053574
v -0.7421283 0.1568841 1.142463
v -1.005814 0.2402196 1.216439
v -0.4972487 0.1015806 0.737581
v -1.122879 0.3139819 1.316062
v -1.433883 0.3752368 1.312365
v -1.281706 0.2956965 1.419282
v -0.9778941 0.2404507 1.336858
v -1.281706 0.2956965 1.419282
v -0.3134469 0.1690377 0.7947838
v -0.01389809 0.06184384 0.3346352
v -0.3422137 -0.07529173 0.7868066
v -0.1325338 -0.1073143 0.2831284
v -0.1965969 0.1240464 0.2450649
v -0.2556363 0.02455863 0.2208115
v -0.1595155 0.05254401 -0.03124569
v 0.0466653 0.1898013 -0.02207551
v -0.01389809 0.06184384 0.3346352
v 0.175731 -0.04245991 -0.01523064
v -0.1325338 -0.1073143 0.2831284
v -0.02731826 -0.1662172 -0.02453152
v -1.441463 0.3712826 1.697314
v -1.532169 0.3326347 1.441468
v -1.433883 0.3752368 1.312365
v -1.293439 0.5033474 1.679748
v -1.281706 0.2956965 1.419282
v -1.306619 0.4136232 1.816452
v -1.209377 0.2684787 1.685866
vt 0.8896484 0.1202393
vt 0.8989258 0.1247559
vt 0.9208984 0.1114502
vt 0.3056641 0.6977539
vt 0.307373 0.6791992
vt 0.2976074 0.6816406
vt 0.3168945 0.6958008
vt 0.317627 0.7114258
vt 0.2810059 0.699707
vt 0.3022461 0.7250977
vt 0.3457031 0.6650391
vt 0.3103027 0.7470703
vt 0.3413086 0.6894531
vt 0.3588867 0.6738281
vt 0.3684082 0.6894531
vt 0.3479004 0.7338867
vt 0.331543 0.7841797
vt 0.3161621 0.7695313
vt 0.3156738 0.7924805
vt 0.3693848 0.7856445
vt 0.3400879 0.7983398
vt 0.2963867 0.8115234
vt 0.307373 0.8256836
vt 0.3081055 0.8442383
vt 0.2678223 0.8271484
vt 0.4411621 0.8452148
vt 0.4362793 0.8359375
vt 0.4135742 0.8574219
vt 0.4487305 0.8764648
vt 0.4211426 0.8842773
vt 0.4628906 0.8378906
vt 0.3959961 0.9160156
vt 0.4660645 0.8598633
vt 0.4868164 0.8237305
vt 0.4987793 0.8188477
vt 0.4812012 0.8017578
vt 0.4816895 0.8491211
vt 0.4951172 0.8354492
vt 0.5048828 0.800293
vt 0.4951172 0.7705078
vt 0.4797363 0.7788086
vt 0.5351563 0.8032227
vt 0.5239258 0.8237305
vt 0.4951172 0.8354492
vt 0.4250488 0.9106445
vt 0.3596191 0.9599609
vt 0.3498535 0.9433594
vt 0.3212891 0.9584961
vt 0.3391113 0.9765625
vt 0.409668 0.9335938
vt 0.4299316 0.9179688
vt 0.442627 0.90625
vt 0.4526367 0.9013672
vt 0.4580078 0.8930664
vt 0.4936523 0.9077148
vt 0.4824219 0.9150391
vt 0.4572754 0.9169922
vt 0.4318848 0.9287109
vt 0.4526367 0.9013672
vt 0.5014648 0.9311523
vt 0.4851074 0.9301758
vt 0.519043 0.9306641
vt 0.5283203 0.918457
vt 0.5371094 0.953125
vt 0.5014648 0.9311523
vt 0.5268555 0.9501953
vt 0.5356445 0.9648438
vt 0.5585938 0.9746094
vt 0.5512695 0.9448242
vt 0.5512695 0.9448242
vt 0.546875 0.9023438
vt 0.5615234 0.9155273
vt 0.5625 0.8979492
vt 0.347168 0.8686523
vt 0.345459 0.8554688
vt 0.3198242 0.8666992
vt 0.3349609 0.8442383
vt 0.2995605 0.8525391
vt 0.2680664 0.8422852
vt 0.2644043 0.8354492
vt 0.2617188 0.8398438
vt 0.9677734 0.2086182
vt 0.9916992 0.1933594
vt 0.972168 0.185791
vt 0.9555664 0.1916504
vt 0.7006836 0.037323
vt 0.6855469 0.02565002
vt 0.703125 0.04620361
vt 0.6943359 0.06057739
vt 0.7177734 0.07043457
vt 0.7412109 0.07080078
vt 0.6699219 0.02476501
vt 0.6748047 0.01771545
vt 0.6635742 0.01402283
vt 0.6611328 0.03933716
vt 0.6787109 0.05621338
vt 0.6606445 0.07806396
vt 0.6547852 0.07519531
vt 0.6850586 0.07348633
vt 0.6650391 0.08709717
vt 0.6591797 0.08862305
vt 0.7119141 0.0894165
vt 0.7451172 0.104187
vt 0.703125 0.100769
vt 0.6850586 0.111145
vt 0.6860352 0.1274414
vt 0.6655273 0.1188354
vt 0.7480469 0.08673096
vt 0.8291016 0.1048584
vt 0.8320313 0.09088135
vt 0.8691406 0.09973145
vt 0.6547852 0.137085
vt 0.6362305 0.1054688
vt 0.628418 0.1193237
vt 0.6235352 0.1081543
vt 0.6259766 0.128418
vt 0.640625 0.1412354
vt 0.6513672 0.1617432
vt 0.6464844 0.1827393
vt 0.6660156 0.1922607
vt 0.684082 0.1850586
vt 0.706543 0.1452637
vt 0.7460938 0.1210938
vt 0.824707 0.1381836
vt 0.8271484 0.1210327
vt 0.8540039 0.1276855
vt 0.8276367 0.1638184
vt 0.871582 0.1120605
vt 0.8422852 0.1829834
vt 0.8525391 0.1662598
vt 0.8647461 0.1434326
vt 0.8232422 0.1898193
vt 0.7919922 0.1890869
vt 0.7753906 0.199707
vt 0.7700195 0.1879883
vt 0.7641602 0.1990967
vt 0.7910156 0.211792
vt 0.8129883 0.2164307
vt 0.7998047 0.2403564
vt 0.8217773 0.2275391
vt 0.8232422 0.1898193
vt 0.8647461 0.1434326
vt 0.8842773 0.145752
vt 0.8896484 0.1202393
vt 0.9008789 0.1420898
vt 0.921875 0.1622314
vt 0.9208984 0.1114502
vt 0.9262695 0.1791992
vt 0.9555664 0.1916504
vt 0.934082 0.1981201
vt 0.9121094 0.1719971
vt 0.934082 0.1981201
vt 0.9086914 0.09204102
vt 0.9536133 0.05023193
vt 0.8959961 0.06640625
vt 0.9404297 0.03219604
vt 0.9677734 0.07348633
vt 0.9707031 0.0791626
vt 0.9960938 0.06945801
vt 0.9936523 0.04528809
vt 0.9536133 0.05023193
vt 0.9824219 0.01976013
vt 0.9404297 0.03219604
vt 0.9633789 0.007827759
vt 0.9448242 0.2297363
vt 0.9677734 0.2086182
vt 0.9555664 0.1916504
vt 0.9331055 0.2243652
vt 0.934082 0.1981201
vt 0.9311523 0.2346191
vt 0.9233398 0.2269287
vn -0.4462891 0.8837891 -0.1414795
vn -0.7836914 0.3742676 -0.4958496
vn -0.8979492 0.2504883 -0.3620605
vn -0.730957 -0.6660156 -0.1489258
vn -0.8876953 0.04290771 0.4584961
vn -0.2230225 0.1806641 0.9580078
vn 0.2327881 -0.5581055 0.7963867
vn -0.07824707 -0.996582 -0.02111816
vn 0.840332 0.3596191 -0.4057617
vn 0.949707 0.1552734 -0.2712402
vn 0.03561401 -0.1564941 0.9868164
vn 0.96875 -0.2329102 -0.08435059
vn -0.302002 -0.9414063 0.1494141
vn -0.8081055 -0.0619812 0.5854492
vn -0.8076172 0.09942627 -0.581543
vn -0.9946289 -0.06481934 0.08135986
vn 0.01605225 -0.9501953 0.3117676
vn 0.9770508 -0.1719971 -0.1268311
vn 0.1844482 0.02561951 0.9824219
vn -0.8457031 -0.04751587 0.53125
vn 0.1560059 -0.8916016 -0.4255371
vn -0.07427979 -0.7250977 0.6845703
vn -0.684082 -0.3713379 -0.6279297
vn 0.7973633 -0.5957031 -0.09436035
vn -0.2868652 -0.815918 0.5019531
vn -0.4658203 -0.8408203 0.276123
vn -0.6328125 0.3962402 0.6655273
vn 0.2954102 -0.8642578 -0.4067383
vn -0.7387695 -0.4963379 0.4560547
vn 0.9970703 0.009086609 -0.07354736
vn 0.8037109 0.2971191 0.515625
vn 0.04586792 -0.996582 0.07037354
vn -0.1574707 -0.9770508 0.1437988
vn 0.5551758 -0.7885742 0.2646484
vn -0.2922363 -0.9438477 0.1529541
vn 0.9731445 0.0814209 -0.2149658
vn -0.8793945 0.0609436 -0.4719238
vn 0.02577209 0.9663086 -0.2565918
vn -0.9619141 0.2705078 0.04312134
vn 0.0508728 -0.07409668 0.9960938
vn 0.8393555 -0.5019531 0.208252
vn 0.7392578 -0.2020264 0.6425781
vn -0.6518555 -0.1395264 -0.7456055
vn -0.2340088 0.9477539 -0.2169189
vn -0.734375 -0.6645508 -0.1385498
vn -0.8745117 -0.3674316 -0.3171387
vn 0.09222412 -0.9829102 0.1588135
vn -0.1663818 -0.980957 0.09802246
vn -0.9443359 0.1572266 -0.2883301
vn -0.8979492 0.2504883 -0.3620605
vn -0.7836914 0.3742676 -0.4958496
vn -0.4628906 -0.8710938 -0.1640625
vn -0.1529541 -0.9311523 0.3305664
vn 0.08789063 0.8217773 0.5625
vn 0.1635742 -0.04846191 0.9853516
vn -0.197876 -0.9331055 0.3005371
vn -0.3911133 -0.154541 -0.9072266
vn -0.4462891 0.8837891 -0.1414795
vn -0.4404297 -0.8637695 -0.2453613
vn -0.1877441 -0.4523926 -0.871582
vn -0.0440979 0.6240234 -0.7802734
vn -0.1445313 -0.9716797 0.1862793
vn 0.9570313 -0.2875977 -0.03863525
vn 0.3317871 -0.5097656 -0.793457
vn -0.1755371 -0.2502441 -0.9521484
vn 0.1503906 0.5820313 -0.7988281
vn 0.1607666 0.4572754 -0.8745117
vn -0.8881836 0.4553223 0.05786133
vn 0.006614685 0.53125 0.847168
vn -0.9541016 -0.1916504 0.2307129
vn 0.597168 -0.7832031 0.171875
vn -0.9755859 0.1400146 0.1691895
vn 0.05422974 0.4645996 0.8837891
vn 0.5932617 -0.1453857 -0.7919922
vn -0.2524414 -0.1660156 -0.953125
vn 0.7246094 0.211792 0.6557617
vn -0.7470703 0.3859863 -0.5410156
vn 0.7119141 0.6650391 -0.2253418
vn 0.730957 -0.5908203 -0.3405762
vn 0.8525391 -0.3208008 0.4121094
vn 0.6118164 0.7885742 0.06628418
vn 0.006614685 0.53125 0.847168
vn -0.8881836 0.4553223 0.05786133
vn 0.1607666 0.4572754 -0.8745117
vn 0.1503906 0.5820313 -0.7988281
vn 0.7973633 -0.5957031 -0.09436035
vn -0.7470703 0.3859863 -0.5410156
vn -0.684082 -0.3713379 -0.6279297
vn 0.02804565 0.9995117 0.01989746
vn -0.02420044 0.2883301 -0.9570313
vn 0.1560059 -0.8916016 -0.4255371
vn -0.01760864 0.9443359 -0.3278809
vn -0.2524414 -0.1660156 -0.953125
vn 0.5932617 -0.1453857 -0.7919922
vn 0.7246094 0.211792 0.6557617
vn 0.7119141 0.6650391 -0.2253418
vn 0.6118164 0.7885742 0.06628418
vn 0.730957 -0.5908203 -0.3405762
vn -0.5610352 -0.3378906 0.7558594
vn -0.2868652 -0.815918 0.5019531
vn 0.8525391 -0.3208008 0.4121094
vn 0.1844482 0.02561951 0.9824219
vn 0.302002 0.953125 -0.008262634
vn 0.9770508 -0.1719971 -0.1268311
vn 0.96875 -0.2329102 -0.08435059
vn -0.09014893 0.9873047 0.1304932
vn 0.949707 0.1552734 -0.2712402
vn 0.7402344 0.04898071 -0.6704102
vn 0.7392578 0.007926941 -0.6733398
vn 0.2954102 -0.8642578 -0.4067383
vn 0.9970703 0.009086609 -0.07354736
vn -0.2509766 0.9526367 0.1727295
vn 0.840332 0.3596191 -0.4057617
vn -0.2230225 0.1806641 0.9580078
vn -0.730957 -0.6660156 -0.1489258
vn -0.8876953 0.04290771 0.4584961
vn 0.2327881 -0.5581055 0.7963867
vn 0.8134766 0.2248535 0.5361328
vn 0.03561401 -0.1564941 0.9868164
vn -0.8081055 -0.0619812 0.5854492
vn -0.8076172 0.09942627 -0.581543
vn -0.9946289 -0.06481934 0.08135986
vn -0.8457031 -0.04751587 0.53125
vn -0.6328125 0.3962402 0.6655273
vn 0.2653809 0.9624023 -0.05648804
vn -0.173584 0.9848633 0.01338959
vn 0.8037109 0.2971191 0.515625
vn 0.5878906 0.8051758 -0.07781982
vn -0.8793945 0.0609436 -0.4719238
vn -0.5825195 0.2661133 -0.7680664
vn -0.9628906 0.1894531 0.1931152
vn 0.02577209 0.9663086 -0.2565918
vn 0.9731445 0.0814209 -0.2149658
vn 0.1933594 0.9682617 0.1571045
vn 0.8393555 -0.5019531 0.208252
vn 0.0508728 -0.07409668 0.9960938
vn -0.9619141 0.2705078 0.04312134
vn 0.01835632 0.7900391 -0.612793
vn 0.7392578 -0.2020264 0.6425781
vn -0.6518555 -0.1395264 -0.7456055
vn -0.2340088 0.9477539 -0.2169189
vn -0.7387695 -0.4963379 0.4560547
vn 0.08789063 0.8217773 0.5625
vn -0.4462891 0.8837891 -0.1414795
vn -0.3911133 -0.154541 -0.9072266
vn -0.0440979 0.6240234 -0.7802734
vn -0.559082 0.7529297 -0.347168
vn 0.2697754 0.949707 0.1585693
vn 0.1503906 0.5820313 -0.7988281
vn 0.5361328 0.7739258 0.3371582
vn 0.1635742 -0.04846191 0.9853516
vn 0.9570313 -0.2875977 -0.03863525
vn 0.3864746 0.9208984 0.04852295
vn 0.9370117 0.05218506 0.345459
vn 0.04586792 -0.996582 0.07037354
vn 0.09222412 -0.9829102 0.1588135
vn -0.6606445 0.6977539 -0.2763672
vn -0.8745117 -0.3674316 -0.3171387
vn -0.9443359 0.1572266 -0.2883301
vn 0.2203369 0.9467773 0.2346191
vn 0.8642578 0.2254639 0.4499512
vn 0.8876953 -0.1494141 0.4350586
vn 0.09222412 -0.9829102 0.1588135
vn -0.1663818 -0.980957 0.09802246
vn -0.9755859 0.1400146 0.1691895
vn -0.9541016 -0.1916504 0.2307129
vn 0.01558685 0.9711914 -0.2373047
vn 0.369873 0.9267578 -0.06689453
vn 0.9570313 -0.2875977 -0.03863525
vn 0.05422974 0.4645996 0.8837891
vn 0.597168 -0.7832031 0.171875
g ENV_Spongebob_Coral_Branch_1_LOD2_0
f 3/3/3 2/2/2 1/1/1
f 6/6/6 5/5/5 4/4/4
f 5/5/5 7/7/7 4/4/4
f 8/8/8 4/4/4 7/7/7
f 4/4/4 8/8/8 9/9/9
f 10/10/10 9/9/9 8/8/8
f 7/7/7 11/11/11 8/8/8
f 12/12/12 10/10/10 8/8/8
f 8/8/8 11/11/11 13/13/13
f 11/11/11 14/14/14 13/13/13
f 14/14/14 15/15/15 13/13/13
f 13/13/13 15/15/15 16/16/16
f 8/8/8 13/13/13 16/16/16
f 8/8/8 17/17/17 12/12/12
f 8/8/8 16/16/16 17/17/17
f 17/17/17 18/18/18 12/12/12
f 19/19/19 18/18/18 17/17/17
f 17/17/17 16/16/16 20/20/20
f 19/19/19 17/17/17 21/21/21
f 21/21/21 17/17/17 20/20/20
f 21/21/21 22/22/22 19/19/19
f 21/21/21 23/23/23 22/22/22
f 23/23/23 24/24/24 22/22/22
f 22/22/22 24/24/24 25/25/25
f 21/21/21 20/20/20 26/26/26
f 20/20/20 27/27/27 26/26/26
f 21/21/21 26/26/26 28/28/28
f 26/26/26 29/29/29 28/28/28
f 28/28/28 29/29/29 30/30/30
f 31/31/31 26/26/26 27/27/27
f 29/29/29 32/32/32 30/30/30
f 31/31/31 33/33/33 26/26/26
f 26/26/26 33/33/33 29/29/29
f 31/31/31 34/34/34 33/33/33
f 35/35/35 33/33/33 34/34/34
f 31/31/31 36/36/36 34/34/34
f 35/35/35 34/34/34 36/36/36
f 33/33/33 35/35/35 37/37/37
f 38/38/38 37/37/37 35/35/35
f 36/36/36 39/39/39 35/35/35
f 40/40/40 39/39/39 36/36/36
f 41/41/41 40/40/40 36/36/36
f 35/35/35 39/39/39 42/42/42
f 43/43/43 35/35/35 42/42/42
f 35/35/35 43/43/43 44/44/44
f 45/45/45 32/32/32 29/29/29
f 32/32/32 45/45/45 46/46/46
f 47/47/47 32/32/32 46/46/46
f 47/47/47 46/46/46 48/48/48
f 48/48/48 46/46/46 49/49/49
f 45/45/45 50/50/50 46/46/46
f 50/50/50 45/45/45 51/51/51
f 45/45/45 29/29/29 52/52/52
f 45/45/45 52/52/52 51/51/51
f 29/29/29 53/53/53 52/52/52
f 53/53/53 29/29/29 54/54/54
f 53/53/53 54/54/54 55/55/55
f 53/53/53 55/55/55 56/56/56
f 57/57/57 51/51/51 52/52/52
f 57/57/57 58/58/58 51/51/51
f 59/59/59 57/57/57 52/52/52
f 57/57/57 59/59/59 60/60/60
f 56/56/56 60/60/60 59/59/59
f 61/61/61 57/57/57 60/60/60
f 56/56/56 62/62/62 60/60/60
f 55/55/55 62/62/62 56/56/56
f 62/62/62 55/55/55 63/63/63
f 63/63/63 64/64/64 62/62/62
f 64/64/64 65/65/65 62/62/62
f 66/66/66 61/61/61 65/65/65
f 64/64/64 66/66/66 65/65/65
f 66/66/66 64/64/64 67/67/67
f 68/68/68 67/67/67 64/64/64
f 69/69/69 68/68/68 64/64/64
f 63/63/63 70/70/70 64/64/64
f 63/63/63 71/71/71 70/70/70
f 70/70/70 71/71/71 72/72/72
f 71/71/71 73/73/73 72/72/72
f 76/76/76 75/75/75 74/74/74
f 75/75/75 76/76/76 77/77/77
f 77/77/77 76/76/76 24/24/24
f 24/24/24 76/76/76 78/78/78
f 79/79/79 24/24/24 78/78/78
f 24/24/24 79/79/79 25/25/25
f 79/79/79 80/80/80 25/25/25
f 81/81/81 80/80/80 79/79/79
f 84/84/84 83/83/83 82/82/82
f 85/85/85 84/84/84 82/82/82
f 88/88/88 87/87/87 86/86/86
f 89/89/89 87/87/87 88/88/88
f 90/90/90 89/89/89 88/88/88
f 88/88/88 91/91/91 90/90/90
f 92/92/92 87/87/87 89/89/89
f 93/93/93 87/87/87 92/92/92
f 92/92/92 94/94/94 93/93/93
f 95/95/95 94/94/94 92/92/92
f 92/92/92 89/89/89 95/95/95
f 89/89/89 96/96/96 95/95/95
f 96/96/96 89/89/89 97/97/97
f 98/98/98 96/96/96 97/97/97
f 89/89/89 99/99/99 97/97/97
f 99/99/99 100/100/100 97/97/97
f 100/100/100 101/101/101 97/97/97
f 99/99/99 89/89/89 102/102/102
f 102/102/102 89/89/89 90/90/90
f 103/103/103 102/102/102 90/90/90
f 103/103/103 104/104/104 102/102/102
f 105/105/105 104/104/104 103/103/103
f 106/106/106 105/105/105 103/103/103
f 105/105/105 106/106/106 107/107/107
f 90/90/90 108/108/108 103/103/103
f 90/90/90 91/91/91 108/108/108
f 91/91/91 109/109/109 108/108/108
f 108/108/108 109/109/109 103/103/103
f 91/91/91 110/110/110 109/109/109
f 110/110/110 111/111/111 109/109/109
f 107/107/107 106/106/106 112/112/112
f 113/113/113 107/107/107 112/112/112
f 114/114/114 113/113/113 112/112/112
f 115/115/115 113/113/113 114/114/114
f 114/114/114 112/112/112 116/116/116
f 116/116/116 112/112/112 117/117/117
f 112/112/112 118/118/118 117/117/117
f 112/112/112 106/106/106 118/118/118
f 119/119/119 117/117/117 118/118/118
f 120/120/120 119/119/119 118/118/118
f 120/120/120 118/118/118 121/121/121
f 106/106/106 121/121/121 118/118/118
f 106/106/106 122/122/122 121/121/121
f 122/122/122 106/106/106 123/123/123
f 106/106/106 103/103/103 123/123/123
f 123/123/123 103/103/103 124/124/124
f 103/103/103 125/125/125 124/124/124
f 126/126/126 124/124/124 125/125/125
f 103/103/103 109/109/109 125/125/125
f 111/111/111 125/125/125 109/109/109
f 127/127/127 124/124/124 126/126/126
f 125/125/125 128/128/128 126/126/126
f 125/125/125 111/111/111 128/128/128
f 129/129/129 127/127/127 126/126/126
f 126/126/126 130/130/130 129/129/129
f 131/131/131 130/130/130 126/126/126
f 132/132/132 127/127/127 129/129/129
f 127/127/127 132/132/132 133/133/133
f 134/134/134 133/133/133 132/132/132
f 133/133/133 134/134/134 135/135/135
f 136/136/136 135/135/135 134/134/134
f 136/136/136 134/134/134 137/137/137
f 132/132/132 137/137/137 134/134/134
f 137/137/137 132/132/132 138/138/138
f 139/139/139 137/137/137 138/138/138
f 138/138/138 140/140/140 139/139/139
f 141/141/141 140/140/140 138/138/138
f 126/126/126 143/143/143 142/142/142
f 126/126/126 128/128/128 143/143/143
f 143/143/143 128/128/128 144/144/144
f 145/145/145 143/143/143 144/144/144
f 145/145/145 146/146/146 143/143/143
f 128/128/128 147/147/147 144/144/144
f 148/148/148 143/143/143 146/146/146
f 149/149/149 148/148/148 146/146/146
f 148/148/148 149/149/149 150/150/150
f 143/143/143 148/148/148 151/151/151
f 152/152/152 151/151/151 148/148/148
f 128/128/128 153/153/153 147/147/147
f 128/128/128 111/111/111 153/153/153
f 154/154/154 153/153/153 111/111/111
f 111/111/111 155/155/155 154/154/154
f 155/155/155 156/156/156 154/154/154
f 147/147/147 153/153/153 157/157/157
f 157/157/157 158/158/158 147/147/147
f 158/158/158 157/157/157 159/159/159
f 160/160/160 159/159/159 157/157/157
f 161/161/161 157/157/157 153/153/153
f 157/157/157 161/161/161 160/160/160
f 162/162/162 160/160/160 161/161/161
f 162/162/162 161/161/161 163/163/163
f 164/164/164 162/162/162 163/163/163
f 167/167/167 166/166/166 165/165/165
f 165/165/165 168/168/168 167/167/167
f 167/167/167 168/168/168 169/169/169
f 165/165/165 170/170/170 168/168/168
f 169/169/169 168/168/168 171/171/171
f 171/171/171 168/168/168 170/170/170
