g ENV_Spongebob_Stalagmite_00_LOD1
v 0.0179245 0.004172287 3.129167
v 0.03721362 0.003677197 3.129338
v 0.03109069 -0.0008730766 3.149516
v 0.05310367 0.05321915 2.840037
v 0.03007338 0.06826221 2.841572
v 0.04028538 0.09659738 2.544963
v 0.06880279 0.02997891 2.838758
v 0.09718222 0.04055975 2.545084
v 0.0752706 0.1457789 2.23998
v 0.07472938 0.001977051 2.838065
v 0.03721362 0.003677197 3.129338
v 0.240102 0.08059025 1.934832
v 0.09767104 -0.04027038 2.54513
v 0.2444674 0.1846636 1.630592
v 0.1517212 0.240467 1.629899
v 0.1738786 0.2883118 1.324304
v 0.05360262 -0.04969444 2.838815
v 0.03721362 0.003677197 3.129338
v 0.04082783 -0.09857368 2.545383
v 0.03009923 -0.06497407 2.840043
v 0.01802612 -0.004412678 3.129228
v 0.01802612 -0.004412678 3.129228
v 0.03109069 -0.0008730766 3.149516
v 0.003149527 -0.06991458 2.841532
v -0.03986505 -0.09742282 2.54507
v 0.01802612 -0.004412678 3.129228
v -0.02330314 -0.06391127 2.842963
v 0.01802612 -0.004412678 3.129228
v -0.04533652 -0.0481251 2.84414
v 0.01802612 -0.004412678 3.129228
v 0.1642413 -0.06023403 2.239361
v 0.2569038 -1.793481E-05 1.934623
v 0.3058101 -0.09972848 1.630903
v 0.3267392 4.685232E-08 1.630885
v 0.2446361 -0.1846427 1.630627
v 0.305162 0.09945374 1.630734
v 0.2819645 0.2207056 1.324312
v 0.354162 0.119445 1.324312
v 0.2908271 0.2575985 1.018274
v 0.1739502 0.3844399 0.7140301
v 0.3700441 0.1394627 1.017486
v 0.3089969 0.294274 0.7140376
v 0.1891679 0.4298525 0.3551249
v 0.3992105 0.15926 0.7140376
v 0.4308892 4.685232E-08 0.7140376
v 0.3605124 0.3398889 0.3540231
v 0.2474633 0.4927955 0.1037629
v 0.397914 4.685232E-08 1.017164
v 0.3795144 4.685233E-08 1.324312
v 0.3541621 -0.1194448 1.324312
v 0.4819618 0.1868457 0.3529181
v 0.4572526 0.3771693 0.1037629
v 0.3700441 -0.1394625 1.017486
v 0.2819646 -0.2207054 1.324312
v 0.6063827 0.5265427 0
v 0.328172 0.6879611 0
v 0.7922773 0.2849629 0
v 0.5974293 0.2041226 0.1037629
v 0.8575547 3.788301E-08 0
v 0.5252348 4.339739E-08 0.3524617
v 0.6466528 4.596135E-08 0.1037629
v 0.7922773 -0.2849625 0
v 0.5974295 -0.2041223 0.1037629
v 0.606383 -0.5265425 0
v 0.4819619 -0.1868454 0.3529181
v 0.4572527 -0.3771691 0.1037629
v 0.3281721 -0.687961 0
v 0.3992105 -0.1592597 0.7140376
v 0.2474634 -0.4927954 0.1037629
v 1.022624E-08 -0.7446437 0
v 0.3605126 -0.3398887 0.3540231
v 0.2908272 -0.2575983 1.018274
v 7.711257E-09 -0.5333979 0.1037629
v -0.3281721 -0.687961 0
v 0.189168 -0.4298525 0.3551249
v 0.308997 -0.2942739 0.7140376
v 0.1739134 -0.2883656 1.324312
v 0.1726039 -0.3364514 1.019034
v 0.1739829 -0.3844875 0.7140376
v 0.1516263 -0.2402385 1.629852
v 0.04648294 -0.313439 1.324541
v 0.0139333 -0.4565492 0.3555562
v 0.01475826 -0.4162079 0.7140421
v -0.08066015 -0.2877657 1.324195
v -0.1443774 -0.3842408 0.7139834
v -0.1717182 -0.4372489 0.3550493
v -0.2474634 -0.4927954 0.1037629
v -0.606383 -0.5265426 0
v -0.4572527 -0.3771692 0.1037629
v -0.7922773 -0.2849626 0
v -0.3492956 -0.3439183 0.3539075
v -0.2795512 -0.2942739 0.7140376
v -0.223454 -0.2570626 1.017118
v -0.1316523 -0.1466583 1.93448
v -0.5974294 -0.2041224 0.1037629
v -0.8575547 1.503211E-07 0
v -0.4722337 -0.1884223 0.3527977
v -0.3676958 -0.1584481 0.7136157
v -0.6466528 1.265022E-07 0.1037629
v -0.7922773 0.2849629 0
v -0.5157931 1.180017E-07 0.3523447
v -0.5974293 0.2041226 0.1037629
v -0.6063827 0.5265427 0
v -0.4014434 1.096917E-07 0.7140376
v -0.2588249 -0.1184881 1.323832
v -0.4572526 0.3771693 0.1037629
v -0.3281721 0.6879611 0
v -0.4722335 0.1884226 0.3527977
v -0.3316042 -8.346524E-07 1.015826
v -0.2474634 0.4927955 0.1037629
v -3.748491E-08 0.7446437 0
v -0.3492954 0.3439183 0.3539075
v -0.3035087 0.1395129 1.016212
v -2.826609E-08 0.533398 0.1037629
v 0.328172 0.6879611 0
v 0.2474633 0.4927955 0.1037629
v 0.1891679 0.4298525 0.3551249
v -0.1717182 0.437249 0.3550493
v -0.2795511 0.294274 0.7140376
v 0.01393329 0.4565493 0.3555562
v 0.1739502 0.3844399 0.7140301
v -0.1443779 0.3842378 0.713983
v -0.2240483 0.2575603 1.017245
v -0.2208736 0.1002752 1.6294
v 0.01476018 0.416265 0.7140522
v -0.08068257 0.2878815 1.324214
v 0.04648389 0.312255 1.324333
v 0.1738786 0.2883118 1.324304
v 0.1517212 0.240467 1.629899
v 0.04299624 0.2600904 1.629435
v 0.0752706 0.1457789 2.23998
v -0.1580579 0.1841823 1.629163
v -0.07565654 0.07531879 2.545287
v -0.1075728 0.0002815433 2.545439
v -0.05271275 0.1435178 2.239894
v -0.0002454809 0.1046606 2.54495
v 0.04028538 0.09659738 2.544963
v 0.003418763 0.0730476 2.843062
v 0.03007338 0.06826221 2.841572
v 0.0179245 0.004172287 3.129167
v -0.02281917 0.06711569 2.844275
v 0.0179245 0.004172287 3.129167
v -0.04483319 0.05153327 2.845085
v 0.0179245 0.004172287 3.129167
v -0.05950281 0.02866468 2.84546
v 0.0179245 0.004172287 3.129167
v -0.06475455 0.001842625 2.845413
v 0.0179245 0.004172287 3.129167
v 0.01802612 -0.004412678 3.129228
v 0.03109069 -0.0008730766 3.149516
v -0.05981858 -0.02505907 2.844968
v -0.07465471 -0.07416133 2.545054
v 0.01802612 -0.004412678 3.129228
v -0.1820607 -0.07987766 1.934693
v -0.2420822 -2.643858E-06 1.629312
vt 0.03326416 0.4797363
vt 0.0329895 0.4785156
vt 0.02886963 0.4785156
vt 0.06866455 0.465332
vt 0.07025146 0.46875
vt 0.1057129 0.4477539
vt 0.06689453 0.4619141
vt 0.09997559 0.4379883
vt 0.1450195 0.4296875
vt 0.06488037 0.4587402
vt 0.0329895 0.4785156
vt 0.1750488 0.3916016
vt 0.09295654 0.4284668
vt 0.2180176 0.3825684
vt 0.2237549 0.3962402
vt 0.2631836 0.3803711
vt 0.06008911 0.4528809
vt 0.0329895 0.4785156
vt 0.08465576 0.420166
vt 0.0574646 0.4501953
vt 0.03010559 0.4746094
vt 0.03010559 0.4746094
vt 0.02886963 0.4785156
vt 0.05471802 0.447998
vt 0.07550049 0.4128418
vt 0.03010559 0.4746094
vt 0.05187988 0.4458008
vt 0.03010559 0.4746094
vt 0.04891968 0.4438477
vt 0.03010559 0.4746094
vt 0.1279297 0.4001465
vt 0.1691895 0.3820801
vt 0.196167 0.3469238
vt 0.2043457 0.3581543
vt 0.1867676 0.3361816
vt 0.2115479 0.3701172
vt 0.2561035 0.3642578
vt 0.248291 0.3491211
vt 0.2956543 0.3483887
vt 0.3439941 0.355957
vt 0.2871094 0.329834
vt 0.3374023 0.3334961
vt 0.3928223 0.3459473
vt 0.3286133 0.310791
vt 0.317627 0.2878418
vt 0.3896484 0.3188477
vt 0.4274902 0.3408203
vt 0.2768555 0.3115234
vt 0.239624 0.3349609
vt 0.2301025 0.3210449
vt 0.3828125 0.2895508
vt 0.4284668 0.307373
vt 0.2651367 0.293457
vt 0.2192383 0.307373
vt 0.4609375 0.3054199
vt 0.4572754 0.3461914
vt 0.4570313 0.265625
vt 0.423584 0.2736816
vt 0.4455566 0.2281494
vt 0.371582 0.260498
vt 0.4125977 0.2420654
vt 0.4265137 0.1933594
vt 0.3967285 0.2121582
vt 0.4013672 0.1618652
vt 0.3557129 0.232666
vt 0.3745117 0.1837158
vt 0.3720703 0.1322021
vt 0.3041992 0.265625
vt 0.3479004 0.1560059
vt 0.3408203 0.1037598
vt 0.3356934 0.206665
vt 0.2521973 0.2763672
vt 0.3193359 0.1281738
vt 0.309082 0.07629395
vt 0.3134766 0.1829834
vt 0.2883301 0.2445068
vt 0.2067871 0.2939453
vt 0.2376709 0.2602539
vt 0.2709961 0.2249756
vt 0.1761475 0.3254395
vt 0.1928711 0.28125
vt 0.2919922 0.1624756
vt 0.2521973 0.2069092
vt 0.1778564 0.2695313
vt 0.2321777 0.1901855
vt 0.2680664 0.1422119
vt 0.2883301 0.1030884
vt 0.276123 0.05090332
vt 0.2578125 0.08001709
vt 0.2420654 0.02980042
vt 0.2412109 0.1221924
vt 0.2106934 0.1751709
vt 0.1866455 0.2185059
vt 0.1158447 0.3352051
vt 0.2270508 0.0614624
vt 0.2055664 0.01489258
vt 0.2124023 0.1054077
vt 0.1876221 0.1624756
vt 0.1954346 0.04934692
vt 0.166748 0.007740021
vt 0.182251 0.09350586
vt 0.1624756 0.04232788
vt 0.1265869 0.007499695
vt 0.163208 0.1525879
vt 0.145874 0.2502441
vt 0.1270752 0.04159546
vt 0.08502197 0.01263428
vt 0.151001 0.08648682
vt 0.1467285 0.1988525
vt 0.09002686 0.04553223
vt 0.04315186 0.02270508
vt 0.1189575 0.08453369
vt 0.1257324 0.1921387
vt 0.05328369 0.05325317
vt 0.002500534 0.04067993
vt 0.02059937 0.06634521
vt 0.03689575 0.09680176
vt 0.08782959 0.08666992
vt 0.1134644 0.1416016
vt 0.06057739 0.09112549
vt 0.04519653 0.1427002
vt 0.08953857 0.1402588
vt 0.1046143 0.1875
vt 0.09857178 0.2792969
vt 0.0668335 0.1408691
vt 0.07720947 0.2285156
vt 0.05923462 0.2261963
vt 0.04141235 0.2249756
vt 0.03903198 0.2670898
vt 0.05422974 0.2687988
vt 0.03582764 0.3530273
vt 0.08435059 0.2749023
vt 0.04962158 0.3999023
vt 0.06036377 0.4040527
vt 0.0534668 0.3562012
vt 0.03857422 0.3972168
vt 0.03305054 0.3962402
vt 0.02894592 0.4370117
vt 0.02528381 0.4365234
vt 0.02891541 0.4741211
vt 0.03250122 0.4375
vt 0.02891541 0.4741211
vt 0.03594971 0.4384766
vt 0.02891541 0.4741211
vt 0.03930664 0.4394531
vt 0.02891541 0.4741211
vt 0.04263306 0.4406738
vt 0.02891541 0.4741211
vt 0.03010559 0.4746094
vt 0.02886963 0.4785156
vt 0.0458374 0.4421387
vt 0.07061768 0.409668
vt 0.03010559 0.4746094
vt 0.1055298 0.3295898
vt 0.1122437 0.2844238
vn 0.5083008 0.8432617 0.175415
vn 0.7973633 0.5849609 0.1481934
vn 0 -2.211332E-05 1
vn 0.7338867 0.6674805 0.1280518
vn 0.4199219 0.8984375 0.1280518
vn 0.3076172 0.9399414 0.1481934
vn 0.9155273 0.3852539 0.1146851
vn 0.8925781 0.4243164 0.1517334
vn 0.3371582 0.9223633 0.1888428
vn 0.9926758 0.05728149 0.1078491
vn 0.9628906 0.2373047 0.1280518
vn 0.8955078 0.3818359 0.229248
vn 0.8779297 -0.4465332 0.171875
vn 0.6557617 0.730957 0.1887207
vn 0.3383789 0.9238281 0.1787109
vn 0.4179688 0.8950195 0.1550293
vn 0.7436523 -0.6586914 0.1146851
vn 0.980957 -0.1466064 0.1280518
vn 0.3078613 -0.9384766 0.1550293
vn 0.4311523 -0.8930664 0.1280518
vn 0.5517578 -0.8193359 0.1550293
vn 0.8227539 -0.5488281 0.1481934
vn -1.621246E-05 -4.780293E-05 1
vn 0.04956055 -0.987793 0.1484375
vn -0.4389648 -0.8867188 0.1448975
vn 0.1868896 -0.9643555 0.1884766
vn -0.3374023 -0.9272461 0.1618652
vn -0.2049561 -0.9545898 0.2158203
vn -0.6674805 -0.7255859 0.1687012
vn -0.5556641 -0.793457 0.2490234
vn 0.8808594 -0.4140625 0.229248
vn 0.9667969 -2.408028E-05 0.2561035
vn 0.8891602 -0.4155273 0.1922607
vn 0.980957 0.02360535 0.1921387
vn 0.6484375 -0.730957 0.2124023
vn 0.8745117 0.4448242 0.1922607
vn 0.7270508 0.6733398 0.1348877
vn 0.9345703 0.3361816 0.117981
vn 0.7041016 0.699707 0.1196899
vn 0.3093262 0.9414063 0.1348877
vn 0.9208984 0.3771973 0.09606934
vn 0.6337891 0.7583008 0.1517334
vn 0.3256836 0.9204102 0.2158203
vn 0.8735352 0.4538574 0.175415
vn 0.9819336 0 0.1904297
vn 0.6289063 0.7324219 0.2612305
vn 0.2832031 0.6977539 0.6577148
vn 0.9970703 0 0.0791626
vn 0.9931641 0 0.117981
vn 0.9345703 -0.3359375 0.117981
vn 0.8579102 0.4086914 0.3110352
vn 0.5097656 0.5351563 0.6733398
vn 0.9208984 -0.3776855 0.09606934
vn 0.7265625 -0.6733398 0.1348877
vn 0.2697754 0.3481445 0.8979492
vn 0.1280518 0.4230957 0.8969727
vn 0.3842773 0.215332 0.8979492
vn 0.6665039 0.2683105 0.6958008
vn 0.4384766 0.02798462 0.8984375
vn 0.9306641 0 0.3659668
vn 0.6616211 -0.02583313 0.7495117
vn 0.409668 -0.1689453 0.8964844
vn 0.644043 -0.3056641 0.7011719
vn 0.3066406 -0.3217773 0.8955078
vn 0.8579102 -0.4091797 0.3110352
vn 0.4777832 -0.5566406 0.6796875
vn 0.1677246 -0.409668 0.8964844
vn 0.8740234 -0.4533691 0.175293
vn 0.248291 -0.706543 0.6625977
vn 0.01982117 -0.4431152 0.8959961
vn 0.628418 -0.7329102 0.2612305
vn 0.7041016 -0.699707 0.1196899
vn -0.01051331 -0.7875977 0.6162109
vn -0.1289063 -0.4230957 0.8969727
vn 0.3254395 -0.9204102 0.2155762
vn 0.6333008 -0.7592773 0.1516113
vn 0.4182129 -0.8950195 0.1550293
vn 0.3833008 -0.9125977 0.1431885
vn 0.3098145 -0.940918 0.1365967
vn 0.3476563 -0.9204102 0.1785889
vn 0.06173706 -0.9853516 0.1585693
vn 0.013237 -0.984375 0.1743164
vn -0.03292847 -0.9892578 0.1433105
vn -0.3010254 -0.9384766 0.1685791
vn -0.3466797 -0.9233398 0.1652832
vn -0.3100586 -0.921875 0.2327881
vn -0.2834473 -0.7001953 0.6552734
vn -0.2687988 -0.3481445 0.8979492
vn -0.5083008 -0.5307617 0.6782227
vn -0.3857422 -0.21521 0.8969727
vn -0.6225586 -0.7280273 0.2875977
vn -0.6630859 -0.71875 0.2089844
vn -0.6865234 -0.7041016 0.1804199
vn -0.6962891 -0.7021484 0.1483154
vn -0.6591797 -0.2653809 0.7036133
vn -0.4384766 -0.02798462 0.8984375
vn -0.847168 -0.402832 0.3464355
vn -0.8818359 -0.4020996 0.2462158
vn -0.6542969 0.02555847 0.7558594
vn -0.4064941 0.1690674 0.8979492
vn -0.9165039 0 0.4003906
vn -0.6376953 0.3015137 0.7089844
vn -0.3083496 0.3210449 0.8955078
vn -0.9624023 0.02075195 0.2712402
vn -0.887207 -0.4394531 0.1414795
vn -0.4753418 0.5527344 0.6845703
vn -0.1685791 0.409668 0.8964844
vn -0.847168 0.4033203 0.3464355
vn -0.9804688 -0.06677246 0.1854248
vn -0.2498779 0.7080078 0.6606445
vn -0.0198822 0.4414063 0.8969727
vn -0.6235352 0.7270508 0.2875977
vn -0.9150391 0.3554688 0.1905518
vn 0.02026367 0.7871094 0.6166992
vn 0.1280518 0.4230957 0.8969727
vn 0.2832031 0.6977539 0.6577148
vn 0.3256836 0.9204102 0.2158203
vn -0.3100586 0.921875 0.2327881
vn -0.6635742 0.71875 0.2089844
vn 0.01327515 0.984375 0.1743164
vn 0.3093262 0.9414063 0.1348877
vn -0.3464355 0.9233398 0.1651611
vn -0.6860352 0.7045898 0.1820068
vn -0.8862305 0.4418945 0.1381836
vn -0.03283691 0.9887695 0.1464844
vn -0.3010254 0.9384766 0.168457
vn 0.06170654 0.9838867 0.168457
vn 0.4179688 0.8950195 0.1550293
vn 0.3383789 0.9238281 0.1787109
vn -0.01212311 0.9858398 0.1685791
vn 0.3371582 0.9223633 0.1888428
vn -0.6606445 0.7358398 0.1483154
vn -0.7080078 0.6894531 0.1517334
vn -0.9863281 0.07171631 0.1481934
vn -0.3786621 0.9130859 0.1517334
vn -0.07037354 0.9887695 0.1315918
vn 0.3076172 0.9399414 0.1481934
vn 0.03848267 0.9882813 0.1481934
vn 0.4199219 0.8984375 0.1280518
vn 0.1405029 0.9677734 0.2088623
vn -0.3464355 0.9262695 0.1484375
vn -0.2445068 0.9389648 0.2426758
vn -0.671875 0.7211914 0.1685791
vn -0.5839844 0.7680664 0.2626953
vn -0.9140625 0.3684082 0.1687012
vn -0.8271484 0.4858398 0.2827148
vn -0.9819336 -0.05465698 0.1820068
vn -0.9487305 0.1408691 0.282959
vn -0.9326172 -0.2231445 0.282959
vn 6.15716E-05 0 1
vn -0.8911133 -0.418457 0.175415
vn -0.7436523 -0.6513672 0.1517334
vn -0.8129883 -0.5195313 0.2626953
vn -0.9287109 -0.3430176 0.1414795
vn -0.9868164 -0.07049561 0.1448975
g ENV_Spongebob_Stalagmite_00_LOD1_0
f 3/3/3 2/2/2 1/1/1
f 2/2/2 4/4/4 1/1/1
f 5/5/5 1/1/1 4/4/4
f 4/4/4 6/6/6 5/5/5
f 4/4/4 2/2/2 7/7/7
f 6/6/6 4/4/4 8/8/8
f 7/7/7 8/8/8 4/4/4
f 6/6/6 8/8/8 9/9/9
f 7/7/7 10/10/10 8/8/8
f 7/7/7 11/11/11 10/10/10
f 12/12/12 9/9/9 8/8/8
f 13/13/13 8/8/8 10/10/10
f 8/8/8 13/13/13 12/12/12
f 9/9/9 12/12/12 14/14/14
f 14/14/14 15/15/15 9/9/9
f 15/15/15 14/14/14 16/16/16
f 10/10/10 17/17/17 13/13/13
f 10/10/10 18/18/18 17/17/17
f 19/19/19 13/13/13 17/17/17
f 17/17/17 20/20/20 19/19/19
f 17/17/17 21/21/21 20/20/20
f 22/22/22 17/17/17 18/18/18
f 23/23/23 22/22/22 18/18/18
f 20/20/20 24/24/24 19/19/19
f 25/25/25 19/19/19 24/24/24
f 20/20/20 26/26/26 24/24/24
f 24/24/24 27/27/27 25/25/25
f 24/24/24 28/28/28 27/27/27
f 27/27/27 29/29/29 25/25/25
f 27/27/27 30/30/30 29/29/29
f 31/31/31 13/13/13 19/19/19
f 32/32/32 13/13/13 31/31/31
f 32/32/32 12/12/12 13/13/13
f 31/31/31 33/33/33 32/32/32
f 32/32/32 34/34/34 12/12/12
f 34/34/34 32/32/32 33/33/33
f 19/19/19 35/35/35 31/31/31
f 33/33/33 31/31/31 35/35/35
f 36/36/36 12/12/12 34/34/34
f 36/36/36 14/14/14 12/12/12
f 14/14/14 36/36/36 37/37/37
f 37/37/37 16/16/16 14/14/14
f 36/36/36 34/34/34 38/38/38
f 38/38/38 37/37/37 36/36/36
f 37/37/37 39/39/39 16/16/16
f 40/40/40 16/16/16 39/39/39
f 38/38/38 41/41/41 37/37/37
f 39/39/39 37/37/37 41/41/41
f 39/39/39 42/42/42 40/40/40
f 40/40/40 42/42/42 43/43/43
f 42/42/42 39/39/39 44/44/44
f 41/41/41 44/44/44 39/39/39
f 44/44/44 41/41/41 45/45/45
f 46/46/46 43/43/43 42/42/42
f 42/42/42 44/44/44 46/46/46
f 43/43/43 46/46/46 47/47/47
f 41/41/41 38/38/38 48/48/48
f 48/48/48 45/45/45 41/41/41
f 49/49/49 38/38/38 34/34/34
f 49/49/49 48/48/48 38/38/38
f 49/49/49 34/34/34 50/50/50
f 49/49/49 50/50/50 48/48/48
f 33/33/33 50/50/50 34/34/34
f 51/51/51 46/46/46 44/44/44
f 44/44/44 45/45/45 51/51/51
f 52/52/52 47/47/47 46/46/46
f 46/46/46 51/51/51 52/52/52
f 53/53/53 48/48/48 50/50/50
f 48/48/48 53/53/53 45/45/45
f 50/50/50 33/33/33 54/54/54
f 50/50/50 54/54/54 53/53/53
f 35/35/35 54/54/54 33/33/33
f 52/52/52 55/55/55 47/47/47
f 56/56/56 47/47/47 55/55/55
f 55/55/55 52/52/52 57/57/57
f 58/58/58 57/57/57 52/52/52
f 58/58/58 52/52/52 51/51/51
f 57/57/57 58/58/58 59/59/59
f 51/51/51 60/60/60 58/58/58
f 60/60/60 51/51/51 45/45/45
f 61/61/61 59/59/59 58/58/58
f 61/61/61 58/58/58 60/60/60
f 59/59/59 61/61/61 62/62/62
f 63/63/63 62/62/62 61/61/61
f 61/61/61 60/60/60 63/63/63
f 62/62/62 63/63/63 64/64/64
f 60/60/60 45/45/45 65/65/65
f 65/65/65 63/63/63 60/60/60
f 66/66/66 64/64/64 63/63/63
f 63/63/63 65/65/65 66/66/66
f 64/64/64 66/66/66 67/67/67
f 68/68/68 65/65/65 45/45/45
f 68/68/68 45/45/45 53/53/53
f 69/69/69 67/67/67 66/66/66
f 67/67/67 69/69/69 70/70/70
f 71/71/71 66/66/66 65/65/65
f 65/65/65 68/68/68 71/71/71
f 66/66/66 71/71/71 69/69/69
f 53/53/53 72/72/72 68/68/68
f 72/72/72 53/53/53 54/54/54
f 73/73/73 70/70/70 69/69/69
f 70/70/70 73/73/73 74/74/74
f 75/75/75 69/69/69 71/71/71
f 69/69/69 75/75/75 73/73/73
f 76/76/76 71/71/71 68/68/68
f 76/76/76 68/68/68 72/72/72
f 71/71/71 76/76/76 75/75/75
f 54/54/54 77/77/77 72/72/72
f 54/54/54 35/35/35 77/77/77
f 72/72/72 78/78/78 76/76/76
f 78/78/78 72/72/72 77/77/77
f 79/79/79 75/75/75 76/76/76
f 79/79/79 76/76/76 78/78/78
f 80/80/80 77/77/77 35/35/35
f 35/35/35 19/19/19 80/80/80
f 77/77/77 80/80/80 81/81/81
f 80/80/80 19/19/19 81/81/81
f 77/77/77 81/81/81 78/78/78
f 25/25/25 81/81/81 19/19/19
f 75/75/75 79/79/79 82/82/82
f 82/82/82 73/73/73 75/75/75
f 78/78/78 83/83/83 79/79/79
f 83/83/83 78/78/78 81/81/81
f 83/83/83 82/82/82 79/79/79
f 81/81/81 84/84/84 83/83/83
f 25/25/25 84/84/84 81/81/81
f 83/83/83 85/85/85 82/82/82
f 85/85/85 83/83/83 84/84/84
f 82/82/82 86/86/86 73/73/73
f 86/86/86 82/82/82 85/85/85
f 87/87/87 73/73/73 86/86/86
f 87/87/87 74/74/74 73/73/73
f 74/74/74 87/87/87 88/88/88
f 89/89/89 88/88/88 87/87/87
f 88/88/88 89/89/89 90/90/90
f 86/86/86 91/91/91 87/87/87
f 89/89/89 87/87/87 91/91/91
f 85/85/85 92/92/92 86/86/86
f 91/91/91 86/86/86 92/92/92
f 84/84/84 93/93/93 85/85/85
f 92/92/92 85/85/85 93/93/93
f 84/84/84 25/25/25 94/94/94
f 93/93/93 84/84/84 94/94/94
f 95/95/95 90/90/90 89/89/89
f 90/90/90 95/95/95 96/96/96
f 91/91/91 97/97/97 89/89/89
f 95/95/95 89/89/89 97/97/97
f 92/92/92 98/98/98 91/91/91
f 93/93/93 98/98/98 92/92/92
f 97/97/97 91/91/91 98/98/98
f 99/99/99 96/96/96 95/95/95
f 96/96/96 99/99/99 100/100/100
f 97/97/97 101/101/101 95/95/95
f 99/99/99 95/95/95 101/101/101
f 102/102/102 100/100/100 99/99/99
f 99/99/99 101/101/101 102/102/102
f 100/100/100 102/102/102 103/103/103
f 101/101/101 97/97/97 104/104/104
f 98/98/98 104/104/104 97/97/97
f 98/98/98 93/93/93 105/105/105
f 94/94/94 105/105/105 93/93/93
f 106/106/106 103/103/103 102/102/102
f 103/103/103 106/106/106 107/107/107
f 108/108/108 102/102/102 101/101/101
f 101/101/101 104/104/104 108/108/108
f 102/102/102 108/108/108 106/106/106
f 104/104/104 98/98/98 109/109/109
f 98/98/98 105/105/105 109/109/109
f 110/110/110 107/107/107 106/106/106
f 107/107/107 110/110/110 111/111/111
f 112/112/112 106/106/106 108/108/108
f 106/106/106 112/112/112 110/110/110
f 108/108/108 104/104/104 113/113/113
f 109/109/109 113/113/113 104/104/104
f 114/114/114 111/111/111 110/110/110
f 111/111/111 114/114/114 115/115/115
f 116/116/116 115/115/115 114/114/114
f 116/116/116 114/114/114 117/117/117
f 118/118/118 110/110/110 112/112/112
f 110/110/110 118/118/118 114/114/114
f 119/119/119 112/112/112 108/108/108
f 108/108/108 113/113/113 119/119/119
f 112/112/112 119/119/119 118/118/118
f 120/120/120 117/117/117 114/114/114
f 120/120/120 114/114/114 118/118/118
f 117/117/117 120/120/120 121/121/121
f 122/122/122 118/118/118 119/119/119
f 118/118/118 122/122/122 120/120/120
f 123/123/123 119/119/119 113/113/113
f 119/119/119 123/123/123 122/122/122
f 124/124/124 113/113/113 109/109/109
f 113/113/113 124/124/124 123/123/123
f 125/125/125 121/121/121 120/120/120
f 125/125/125 120/120/120 122/122/122
f 126/126/126 122/122/122 123/123/123
f 122/122/122 126/126/126 125/125/125
f 125/125/125 127/127/127 121/121/121
f 127/127/127 125/125/125 126/126/126
f 128/128/128 121/121/121 127/127/127
f 128/128/128 127/127/127 129/129/129
f 130/130/130 129/129/129 127/127/127
f 127/127/127 126/126/126 130/130/130
f 129/129/129 130/130/130 131/131/131
f 123/123/123 132/132/132 126/126/126
f 132/132/132 123/123/123 124/124/124
f 132/132/132 124/124/124 133/133/133
f 134/134/134 133/133/133 124/124/124
f 126/126/126 132/132/132 135/135/135
f 135/135/135 130/130/130 126/126/126
f 133/133/133 135/135/135 132/132/132
f 136/136/136 131/131/131 130/130/130
f 130/130/130 135/135/135 136/136/136
f 133/133/133 136/136/136 135/135/135
f 131/131/131 136/136/136 137/137/137
f 136/136/136 138/138/138 137/137/137
f 139/139/139 137/137/137 138/138/138
f 138/138/138 140/140/140 139/139/139
f 138/138/138 136/136/136 141/141/141
f 133/133/133 141/141/141 136/136/136
f 141/141/141 142/142/142 138/138/138
f 141/141/141 133/133/133 143/143/143
f 143/143/143 144/144/144 141/141/141
f 143/143/143 133/133/133 145/145/145
f 145/145/145 146/146/146 143/143/143
f 133/133/133 134/134/134 145/145/145
f 147/147/147 145/145/145 134/134/134
f 147/147/147 148/148/148 145/145/145
f 148/148/148 147/147/147 149/149/149
f 150/150/150 148/148/148 149/149/149
f 151/151/151 149/149/149 147/147/147
f 151/151/151 147/147/147 134/134/134
f 134/134/134 152/152/152 151/151/151
f 29/29/29 151/151/151 152/152/152
f 29/29/29 153/153/153 151/151/151
f 152/152/152 25/25/25 29/29/29
f 152/152/152 94/94/94 25/25/25
f 152/152/152 154/154/154 94/94/94
f 134/134/134 154/154/154 152/152/152
f 154/154/154 105/105/105 94/94/94
f 134/134/134 155/155/155 154/154/154
f 105/105/105 154/154/154 155/155/155
f 155/155/155 134/134/134 124/124/124
f 109/109/109 105/105/105 155/155/155
f 155/155/155 124/124/124 109/109/109
