g GadgetWall-BBSailorCap
v -0.167185 -0.03469924 0.1517419
v -0.08560206 -0.1345801 -0.007812156
v -0.1388604 -0.05740568 0.1649498
v -0.1502122 -0.08278537 -0.03794033
v -0.1780041 0.002040584 0.1466969
v -0.1510536 -0.08725528 -0.04820133
v -0.08358733 -0.1413396 -0.01674131
v -0.1768234 0.0002549985 -0.06021799
v -0.1748911 0.001020235 -0.04944828
v -0.1671851 0.0387804 0.1517418
v -0.1510537 0.0877653 -0.04820137
v -0.1502123 0.08482585 -0.03794036
v -0.1388605 0.06148688 0.1649498
v -0.08358749 0.1418497 -0.01674136
v -0.08560223 0.1366206 -0.007812204
v -0.1038493 0.06148692 0.1812758
v -0.0001946545 0.1418498 0.02214535
v -0.005739746 0.1366207 0.02942827
v -0.07552466 0.03878048 0.1944838
v -0.005739746 0.1366207 0.02942827
v -0.1038493 0.06148692 0.1812758
v 0.05887033 0.08482601 0.05955644
v -0.06470559 0.002040658 0.1995288
v 0.06727155 0.08776546 0.05360534
v -0.0001946545 0.1418498 0.02214535
v 0.09304142 0.00025518 0.06562202
v 0.08354925 0.001020407 0.0710644
v -0.07552462 -0.03469918 0.1944838
v 0.06727168 -0.08725514 0.05360538
v 0.05887042 -0.08278521 0.05955647
v -0.1038492 -0.05740566 0.1812758
v -0.000194521 -0.1413395 0.02214538
v -0.005739613 -0.13458 0.02942831
v -0.1388604 -0.05740568 0.1649498
v -0.08358733 -0.1413396 -0.01674131
v -0.08560206 -0.1345801 -0.007812156
v -0.1510536 -0.08725528 -0.04820133
v -0.08384404 -0.1467451 -0.02015057
v -0.08358733 -0.1413396 -0.01674131
v -0.1537643 -0.09069351 -0.05275492
v -0.1768234 0.0002549985 -0.06021799
v -0.2493773 -0.09622959 0.09421386
v -0.171595 -0.1633018 0.1458497
v -0.1765799 -0.1611853 0.1568167
v -0.2523949 -0.09425065 0.1014097
v -0.2763578 0.01229544 0.06863673
v -0.2785988 0.01405194 0.07433812
v -0.1804715 -8.195639E-08 -0.06520868
v -0.1510537 0.0877653 -0.04820137
v -0.247086 0.1208205 0.08929981
v -0.2497763 0.1223546 0.09579364
v -0.1537645 0.09069335 -0.05275497
v -0.08358749 0.1418497 -0.01674136
v -0.1594529 0.1878927 0.1198105
v -0.1616005 0.1892894 0.1246928
v -0.08384421 0.1467451 -0.02015062
v -0.0001946545 0.1418498 0.02214535
v 0.002581997 0.1467451 0.02015057
v -0.05404567 0.1878928 0.1637712
v -0.05626887 0.1892894 0.1682622
v 0.06727155 0.08776546 0.05360534
v 0.002581997 0.1467451 0.02015057
v -0.0001946545 0.1418498 0.02214535
v 0.07250227 0.09069354 0.05275492
v 0.09304142 0.00025518 0.06562202
v 0.02866733 0.1208207 0.2048332
v -0.05404567 0.1878928 0.1637712
v -0.05626887 0.1892894 0.1682622
v 0.02613627 0.1223548 0.2095366
v 0.05489798 0.01229566 0.2320184
v 0.05148318 0.01405216 0.238446
v 0.09920949 1.066923E-07 0.06520869
v 0.06727168 -0.08725514 0.05360538
v 0.02198528 -0.09622942 0.2191632
v 0.01849962 -0.09425049 0.2259138
v 0.0725024 -0.09069337 0.05275495
v -0.000194521 -0.1413395 0.02214538
v -0.06301908 -0.1633017 0.1830152
v -0.06652422 -0.1611853 0.1902553
v 0.00258214 -0.146745 0.02015062
v -0.08358733 -0.1413396 -0.01674131
v -0.08384404 -0.1467451 -0.02015057
v -0.171595 -0.1633018 0.1458497
v -0.1765799 -0.1611853 0.1568167
v -0.1706986 -0.1548874 0.1503966
v -0.06652422 -0.1611853 0.1902553
v -0.1765799 -0.1611853 0.1568167
v -0.0670784 -0.1548873 0.1852513
v 0.01849962 -0.09425049 0.2259138
v -0.01348526 -0.1351464 0.04568996
v -0.09308039 -0.1351465 0.008574151
v 0.05090854 -0.08352502 0.07571726
v 0.01391674 -0.09102906 0.2195297
v 0.05148318 0.01405216 0.238446
v 0.07550472 9.745359E-08 0.08718667
v 0.04529802 0.01229565 0.2316708
v 0.02613627 0.1223548 0.2095366
v 0.05090841 0.08352521 0.07571724
v 0.02059877 0.1156203 0.2051997
v -0.05626887 0.1892894 0.1682622
v -0.0134854 0.1351465 0.04568991
v -0.05810498 0.1794784 0.1660073
v -0.05810498 0.1794784 0.1660073
v -0.1616005 0.1892894 0.1246928
v -0.05626887 0.1892894 0.1682622
v -0.1585566 0.1794783 0.1243575
v -0.2497763 0.1223546 0.09579364
v -0.09308054 0.1351464 0.008574104
v -0.0134854 0.1351465 0.04568991
v -0.1574744 0.08352502 -0.02145322
v -0.2421804 0.1156201 0.09571632
v -0.2785988 0.01405194 0.07433812
v -0.1820705 -7.83801E-08 -0.03292261
v -0.2699208 0.01229544 0.07576731
v -0.2523949 -0.09425065 0.1014097
v -0.1574742 -0.08352516 -0.02145319
v -0.2444717 -0.09102921 0.1006303
v -0.1765799 -0.1611853 0.1568167
v -0.09308039 -0.1351465 0.008574151
v -0.1706986 -0.1548874 0.1503966
v -0.1452464 -0.0978011 0.1491566
v -0.01348526 -0.1351464 0.04568996
v -0.09308039 -0.1351465 0.008574151
v -0.08764598 -0.09780105 0.176016
v 0.05090854 -0.08352502 0.07571726
v -0.1497488 -0.08642212 0.1675604
v -0.04003057 -0.06044433 0.1955675
v 0.07550472 9.745359E-08 0.08718667
v -0.09885009 -0.08642209 0.1912949
v -0.02223111 6.049871E-08 0.2038676
v 0.05090841 0.08352521 0.07571724
v -0.1110395 -0.06428335 0.2004142
v -0.1488995 -0.06428337 0.1827599
v -0.1324029 -8.940696E-09 0.1968055
v -0.05767221 -0.05341173 0.2104964
v -0.08041014 -0.03972927 0.2146969
v -0.04003064 0.06044443 0.1955675
v -0.0134854 0.1351465 0.04568991
v -0.08663035 0.09780109 0.1738378
v -0.06871079 3.606081E-08 0.2201524
v -0.0419437 5.185604E-08 0.2178307
v -0.0576723 0.05341182 0.2104964
v -0.09885017 0.0864221 0.1912948
v -0.1110395 0.06428336 0.2004142
v -0.08041018 0.03972934 0.2146969
v -0.08663035 0.09780109 0.1738378
v -0.09308054 0.1351464 0.008574104
v -0.0134854 0.1351465 0.04568991
v -0.1442307 0.09780104 0.1469782
v -0.1574744 0.08352502 -0.02145322
v -0.09885017 0.0864221 0.1912948
v -0.1908304 0.06044428 0.1252485
v -0.1820705 -7.83801E-08 -0.03292261
v -0.1497489 0.08642205 0.1675604
v -0.2086299 -6.377697E-08 0.1169484
v -0.1574742 -0.08352516 -0.02145319
v -0.1488996 0.06428332 0.1827598
v -0.1110395 0.06428336 0.2004142
v -0.1324029 -8.940696E-09 0.1968055
v -0.1909267 0.0534117 0.1483588
v -0.1795289 0.03972923 0.1684771
v -0.1908303 -0.06044443 0.1252485
v -0.09308039 -0.1351465 0.008574151
v -0.1452464 -0.0978011 0.1491566
v -0.1912282 -4.708767E-08 0.1630216
v -0.2066552 -5.841255E-08 0.1410245
v -0.1909267 -0.0534118 0.1483589
v -0.1497488 -0.08642212 0.1675604
v -0.1488995 -0.06428337 0.1827599
v -0.1795288 -0.03972933 0.1684771
v -0.167185 -0.03469924 0.1517419
v -0.1291753 -0.0007876509 0.1898839
v -0.1780041 0.002040584 0.1466969
v -0.1388604 -0.05740568 0.1649498
v -0.1671851 0.0387804 0.1517418
v -0.1038492 -0.05740566 0.1812758
v -0.1388605 0.06148688 0.1649498
v -0.07552462 -0.03469918 0.1944838
v -0.1038493 0.06148692 0.1812758
v -0.06470559 0.002040658 0.1995288
v -0.07552466 0.03878048 0.1944838
vt 0.2961909 0.8484005
vt 0.238804 0.8014712
vt 0.2830921 0.8548735
vt 0.2683037 0.7873372
vt 0.311043 0.8450777
vt 0.2665309 0.7839217
vt 0.2360799 0.798539
vt 0.3001914 0.7764228
vt 0.3010123 0.7800127
vt 0.32652 0.8451337
vt 0.3350505 0.7766343
vt 0.3348267 0.7801923
vt 0.3417188 0.8484426
vt 0.3688869 0.7840683
vt 0.3675944 0.7873868
vt 0.3550932 0.8548434
vt 0.3999236 0.7984205
vt 0.3975538 0.8012177
vt 0.7805342 0.05559645
vt 0.8300884 0.002128627
vt 0.774924 0.04175449
vt 0.8421849 0.03322532
vt 0.7829785 0.07095081
vt 0.8456038 0.03222448
vt 0.8330427 3.612684E-05
vt 0.8511825 0.06687634
vt 0.8475724 0.06684904
vt 0.7821177 0.08672457
vt 0.8493438 0.1020174
vt 0.845753 0.1010035
vt 0.7780315 0.101674
vt 0.8401193 0.1354828
vt 0.8367482 0.1335771
vt 0.7709276 0.1145515
vt 0.8239954 0.1653226
vt 0.8211594 0.1625122
vt 0.5552111 0.1402994
vt 0.5893155 0.1369477
vt 0.5882307 0.1348558
vt 0.5555786 0.1424794
vt 0.5215696 0.1429344
vt 0.5596359 0.2055502
vt 0.6009573 0.2039046
vt 0.6011958 0.2083025
vt 0.5594646 0.2084184
vt 0.5184308 0.2045301
vt 0.5178754 0.2067541
vt 0.5216902 0.1451084
vt 0.4879028 0.1415263
vt 0.4773176 0.2049851
vt 0.4765615 0.2074564
vt 0.4877311 0.1436554
vt 0.4548191 0.1353879
vt 0.4375117 0.1942235
vt 0.4368296 0.1960852
vt 0.4542655 0.1374258
vt 0.4234115 0.1240431
vt 0.4220828 0.1257832
vt 0.3993833 0.1787211
vt 0.3988017 0.1804931
vt 0.6395856 0.7792782
vt 0.6060427 0.785482
vt 0.6071472 0.7873634
vt 0.6392535 0.7771655
vt 0.6731874 0.7760627
vt 0.6259725 0.7206326
vt 0.5862877 0.731366
vt 0.5855315 0.7296453
vt 0.625178 0.7187957
vt 0.6663611 0.7118828
vt 0.6656706 0.709291
vt 0.6731761 0.7738761
vt 0.7070227 0.7765845
vt 0.7073404 0.7116568
vt 0.70702 0.7088674
vt 0.7072186 0.7743697
vt 0.7407163 0.7799211
vt 0.7481911 0.7145702
vt 0.7483685 0.7116057
vt 0.741083 0.7777186
vt 0.7737543 0.7854997
vt 0.7748064 0.7834004
vt 0.7893828 0.7170116
vt 0.7900096 0.7126388
vt 0.008430149 0.4406536
vt 0.002580532 0.4015254
vt 0.004956206 0.442305
vt 0.00538857 0.4013458
vt 0 0.3615768
vt 0.05913671 0.3950734
vt 0.06499439 0.4260348
vt 0.05627098 0.3636729
vt 0.002951042 0.3620051
vt 0.00166561 0.321584
vt 0.05709119 0.3321497
vt 0.004799416 0.3226385
vt 0.01332235 0.2829981
vt 0.06258783 0.3011326
vt 0.01634729 0.2846012
vt 0.02871086 0.2457011
vt 0.07396772 0.2717648
vt 0.03130652 0.2483152
vt 0.09802967 0.227772
vt 0.07982884 0.1912694
vt 0.09519108 0.2299792
vt 0.08299092 0.1896692
vt 0.07069059 0.1498432
vt 0.1277031 0.1721452
vt 0.1385345 0.2032105
vt 0.1228411 0.138916
vt 0.07398158 0.1488455
vt 0.07367666 0.106888
vt 0.1233589 0.1049726
vt 0.07662039 0.1064301
vt 0.07638443 0.06381658
vt 0.1284904 0.07129573
vt 0.07922457 0.06367627
vt 0.08214674 0.02021871
vt 0.1369929 0.03836637
vt 0.08545018 0.02155578
vt 0.1598642 0.7125773
vt 0.1216834 0.7696935
vt 0.1562294 0.7679261
vt 0.1361652 0.7169132
vt 0.08713017 0.7650535
vt 0.1575511 0.7033477
vt 0.1143696 0.7161741
vt 0.0570014 0.750861
vt 0.137059 0.7094704
vt 0.09664989 0.7078384
vt 0.03502186 0.7289426
vt 0.1368764 0.7003433
vt 0.1518709 0.6941145
vt 0.1306055 0.6775045
vt 0.1181238 0.7088398
vt 0.1220727 0.7003355
vt 0.08442461 0.693423
vt 0.02000677 0.7038757
vt 0.07742076 0.6746489
vt 0.110056 0.6946926
vt 0.1027748 0.7016234
vt 0.09278908 0.6887108
vt 0.08930891 0.6714276
vt 0.1021232 0.6708152
vt 0.1027705 0.6843489
vt 0.008002709 0.6283032
vt 0.046874 0.5716478
vt 0.01302353 0.5726863
vt 0.03140432 0.6244448
vt 0.08054429 0.5771607
vt 0.01000492 0.6384709
vt 0.05252016 0.6264509
vt 0.1096304 0.5923199
vt 0.03018316 0.6327637
vt 0.06961215 0.6353614
vt 0.1305135 0.6151704
vt 0.03008464 0.642091
vt 0.01523849 0.6480692
vt 0.03552769 0.6655655
vt 0.04865304 0.6338599
vt 0.0445497 0.6424514
vt 0.08117868 0.6503634
vt 0.1445013 0.6410961
vt 0.08667556 0.6700742
vt 0.05613665 0.6484891
vt 0.06345572 0.6415741
vt 0.07285866 0.6550028
vt 0.07570611 0.6727875
vt 0.06317393 0.6730735
vt 0.0629621 0.6592272
vt 0.03542406 3.408857E-05
vt 0.03247857 0.03019861
vt 0.02485848 0.004146411
vt 0.0445926 0.007715087
vt 0.01693172 0.01848056
vt 0.04886238 0.02425524
vt 0.01467163 0.03756193
vt 0.04660241 0.04333661
vt 0.01894065 0.05410231
vt 0.03867547 0.05767022
vt 0.02810983 0.06178277
vn 0.8349236 0.4541272 -0.3109196
vn 0.4434679 0.8437705 -0.3023036
vn 0.4843139 0.7367932 -0.4717794
vn 0.8441636 0.5258443 -0.1042871
vn 0.966882 -0.0001996858 -0.2552236
vn 0.8069633 0.4030763 -0.4316707
vn 0.5006225 0.6382819 -0.5847847
vn 0.9354504 0.003010315 -0.3534452
vn 0.9998949 5.762884E-05 -0.01450196
vn 0.8332731 -0.4501367 -0.3209874
vn 0.8211235 -0.4202862 -0.386155
vn 0.8428233 -0.5336455 -0.06979648
vn 0.4868837 -0.7261576 -0.4854271
vn 0.494487 -0.691941 -0.5260231
vn 0.4279827 -0.8678337 -0.2523795
vn 0.05913715 -0.7262152 -0.6849192
vn 0.08504964 -0.6931312 -0.7157763
vn -0.0817628 -0.8678095 -0.490124
vn -0.2897554 -0.4500928 -0.8446646
vn -0.0817628 -0.8678095 -0.490124
vn 0.05913715 -0.7262152 -0.6849192
vn -0.4883126 -0.5336034 -0.6905203
vn -0.4260221 -0.0002191812 -0.9047127
vn -0.2321547 -0.4193059 -0.8776599
vn 0.08504964 -0.6931312 -0.7157763
vn -0.3306316 0.003023174 -0.943755
vn -0.6315751 5.681441E-05 -0.7753147
vn -0.2986334 0.4541068 -0.8394077
vn -0.1881006 0.4032028 -0.89557
vn -0.4631047 0.5249064 -0.7141479
vn 0.05028179 0.7368304 -0.6742052
vn 0.1261374 0.6382681 -0.7594098
vn -0.05350261 0.843762 -0.5340441
vn 0.4843139 0.7367932 -0.4717794
vn 0.5006225 0.6382819 -0.5847847
vn 0.4434679 0.8437705 -0.3023036
vn 0.8069633 0.4030763 -0.4316707
vn -0.08641862 -0.8722137 -0.4814304
vn 0.5006225 0.6382819 -0.5847847
vn -0.4595345 -0.5329017 -0.7105235
vn 0.9354504 0.003010315 -0.3534452
vn -0.6886759 -0.6082278 -0.3946955
vn -0.2664412 -0.9500927 -0.162274
vn -0.5069129 -0.4342788 0.7446082
vn -0.7987357 -0.1562424 0.5810418
vn -0.8469027 0.0007140282 -0.5317475
vn -0.8147353 0.006478035 0.579797
vn -0.5687388 -0.006521951 -0.8224923
vn 0.8211235 -0.4202862 -0.386155
vn -0.6259633 0.5789605 -0.5224699
vn -0.6729751 0.2733498 0.6873024
vn -0.4092288 0.4976436 -0.7647762
vn 0.494487 -0.691941 -0.5260231
vn -0.1743343 0.9037779 -0.3908876
vn -0.4382749 0.4614803 0.7713307
vn 0.004070536 0.7840061 -0.6207398
vn 0.08504964 -0.6931312 -0.7157763
vn 0.4725696 0.7804781 -0.4093064
vn 0.3896012 0.9094689 -0.1451792
vn -0.2592149 0.423817 0.8678633
vn -0.2321547 -0.4193059 -0.8776599
vn 0.4725696 0.7804781 -0.4093064
vn 0.08504964 -0.6931312 -0.7157763
vn 0.8479689 0.487111 -0.2089775
vn -0.3306316 0.003023174 -0.943755
vn 0.8186635 0.5590481 0.1313589
vn 0.3896012 0.9094689 -0.1451792
vn -0.2592149 0.423817 0.8678633
vn -0.06693866 0.34031 0.9379276
vn 0.9494193 -0.01723517 0.3135379
vn 0.02729478 0.08541086 0.9959719
vn 0.9972723 -0.008038498 -0.07337105
vn -0.1881006 0.4032028 -0.89557
vn 0.7620054 -0.5831347 0.2816052
vn -0.02090963 -0.2718417 0.9621147
vn 0.8418846 -0.5285676 -0.1088425
vn 0.1261374 0.6382681 -0.7594098
vn 0.2818779 -0.9551653 0.09057647
vn -0.1409838 -0.4361328 0.8887697
vn 0.4298842 -0.8611767 -0.2712457
vn 0.5006225 0.6382819 -0.5847847
vn -0.08641862 -0.8722137 -0.4814304
vn -0.2664412 -0.9500927 -0.162274
vn -0.5069129 -0.4342788 0.7446082
vn 0.1851032 0.9284585 0.3220274
vn -0.1409838 -0.4361328 0.8887697
vn -0.5069129 -0.4342788 0.7446082
vn -0.3761823 0.9247223 0.05809876
vn -0.02090963 -0.2718417 0.9621147
vn -0.4284886 0.06433889 0.9012536
vn -0.3594998 0.2033056 0.9107287
vn -0.4187078 0.01143309 0.908049
vn -0.8163357 0.5649358 -0.120182
vn 0.02729478 0.08541086 0.9959719
vn -0.3995503 0.01875348 0.9165194
vn -0.9900026 0.07078598 -0.1220008
vn -0.06693866 0.34031 0.9379276
vn -0.3241553 0.09438837 0.9412832
vn -0.8340778 -0.5489401 0.05458018
vn -0.2592149 0.423817 0.8678633
vn -0.3741773 0.156092 0.9141262
vn -0.4294336 -0.8643784 0.2616045
vn -0.4294336 -0.8643784 0.2616045
vn -0.4382749 0.4614803 0.7713307
vn -0.2592149 0.423817 0.8678633
vn 0.1500091 -0.8333399 0.5320171
vn -0.6729751 0.2733498 0.6873024
vn -0.4491909 0.1262912 0.8844649
vn -0.3741773 0.156092 0.9141262
vn -0.4492687 0.03661032 0.8926463
vn 0.5448474 -0.510602 0.6651518
vn -0.8147353 0.006478035 0.579797
vn -0.5041327 0.01416847 0.86351
vn 0.7184517 0.04396636 0.694186
vn -0.7987357 -0.1562424 0.5810418
vn -0.4098662 0.03784426 0.9113603
vn 0.5516539 0.6167201 0.5615462
vn -0.5069129 -0.4342788 0.7446082
vn -0.3594998 0.2033056 0.9107287
vn 0.1851032 0.9284585 0.3220274
vn -0.4138916 -0.8869365 0.2050301
vn -0.4284886 0.06433889 0.9012536
vn -0.3594998 0.2033056 0.9107287
vn 0.1167859 -0.8825574 0.4554708
vn -0.4187078 0.01143309 0.908049
vn -0.4976791 -0.6685637 0.552574
vn 0.5296524 -0.5480214 0.6474109
vn -0.3995503 0.01875348 0.9165194
vn -0.09929993 -0.6718114 0.7340361
vn 0.6912505 0 0.7226152
vn -0.3241553 0.09438837 0.9412832
vn -0.2853164 -0.3596611 0.8883909
vn -0.4970205 -0.3595133 0.7897599
vn -0.4226181 0 0.9063079
vn 0.2507286 -0.4305939 0.8670202
vn -0.1137749 -0.2223058 0.9683158
vn 0.530039 0.5474734 0.6475582
vn -0.3741773 0.156092 0.9141262
vn 0.1073647 0.8863167 0.4504615
vn -0.0487044 0 0.9988133
vn 0.3765927 0 0.926379
vn 0.2507333 0.4302241 0.8672025
vn -0.08211578 0.6972823 0.7120776
vn -0.2855694 0.3595333 0.8883613
vn -0.1138464 0.2223176 0.9683046
vn 0.1073647 0.8863167 0.4504615
vn -0.4491909 0.1262912 0.8844649
vn -0.3741773 0.156092 0.9141262
vn -0.4144566 0.8861587 0.2072399
vn -0.4492687 0.03661032 0.8926463
vn -0.08211578 0.6972823 0.7120776
vn -0.8363722 0.548058 0.01067919
vn -0.5041327 0.01416847 0.86351
vn -0.4927182 0.6977107 0.5200274
vn -0.9979038 0 -0.06471471
vn -0.4098662 0.03784426 0.9113603
vn -0.4968236 0.3595344 0.7898742
vn -0.2855694 0.3595333 0.8883613
vn -0.4226181 0 0.9063079
vn -0.8252192 0.4303416 0.3658133
vn -0.6685805 0.222255 0.7096498
vn -0.8419892 -0.5394694 0.005193084
vn -0.3594998 0.2033056 0.9107287
vn -0.4138916 -0.8869365 0.2050301
vn -0.7336134 0 0.679567
vn -0.9518186 0 0.3066616
vn -0.8245984 -0.4279882 0.3699508
vn -0.4976791 -0.6685637 0.552574
vn -0.4970205 -0.3595133 0.7897599
vn -0.6684844 -0.2221895 0.7097608
vn 0.8349236 0.4541272 -0.3109196
vn 0.4225308 0.006080035 -0.9063281
vn 0.966882 -0.0001996858 -0.2552236
vn 0.4843139 0.7367932 -0.4717794
vn 0.8332731 -0.4501367 -0.3209874
vn 0.05028179 0.7368304 -0.6742052
vn 0.4868837 -0.7261576 -0.4854271
vn -0.2986334 0.4541068 -0.8394077
vn 0.05913715 -0.7262152 -0.6849192
vn -0.4260221 -0.0002191812 -0.9047127
vn -0.2897554 -0.4500928 -0.8446646
g GadgetWall-BBSailorCap_0
f 3/3/3 2/2/2 1/1/1
f 2/2/2 4/4/4 1/1/1
f 1/1/1 4/4/4 5/5/5
f 4/4/4 2/2/2 6/6/6
f 2/2/2 7/7/7 6/6/6
f 4/4/4 6/6/6 8/8/8
f 4/4/4 9/9/9 5/5/5
f 9/9/9 4/4/4 8/8/8
f 5/5/5 9/9/9 10/10/10
f 9/9/9 8/8/8 11/11/11
f 9/9/9 12/12/12 10/10/10
f 12/12/12 9/9/9 11/11/11
f 10/10/10 12/12/12 13/13/13
f 12/12/12 11/11/11 14/14/14
f 12/12/12 15/15/15 13/13/13
f 15/15/15 12/12/12 14/14/14
f 13/13/13 15/15/15 16/16/16
f 15/15/15 14/14/14 17/17/17
f 15/15/15 18/18/18 16/16/16
f 18/18/18 15/15/15 17/17/17
f 21/21/21 20/20/20 19/19/19
f 20/20/20 22/22/22 19/19/19
f 19/19/19 22/22/22 23/23/23
f 22/22/22 20/20/20 24/24/24
f 20/20/20 25/25/25 24/24/24
f 22/22/22 24/24/24 26/26/26
f 22/22/22 27/27/27 23/23/23
f 27/27/27 22/22/22 26/26/26
f 23/23/23 27/27/27 28/28/28
f 27/27/27 26/26/26 29/29/29
f 27/27/27 30/30/30 28/28/28
f 30/30/30 27/27/27 29/29/29
f 28/28/28 30/30/30 31/31/31
f 30/30/30 29/29/29 32/32/32
f 30/30/30 33/33/33 31/31/31
f 33/33/33 30/30/30 32/32/32
f 31/31/31 33/33/33 34/34/34
f 33/33/33 32/32/32 35/35/35
f 33/33/33 36/36/36 34/34/34
f 36/36/36 33/33/33 35/35/35
f 39/39/39 38/38/38 37/37/37
f 38/38/38 40/40/40 37/37/37
f 37/37/37 40/40/40 41/41/41
f 40/40/40 38/38/38 42/42/42
f 38/38/38 43/43/43 42/42/42
f 43/43/43 44/44/44 42/42/42
f 44/44/44 45/45/45 42/42/42
f 42/42/42 45/45/45 46/46/46
f 40/40/40 42/42/42 46/46/46
f 45/45/45 47/47/47 46/46/46
f 40/40/40 48/48/48 41/41/41
f 48/48/48 40/40/40 46/46/46
f 41/41/41 48/48/48 49/49/49
f 46/46/46 47/47/47 50/50/50
f 48/48/48 46/46/46 50/50/50
f 47/47/47 51/51/51 50/50/50
f 48/48/48 52/52/52 49/49/49
f 52/52/52 48/48/48 50/50/50
f 49/49/49 52/52/52 53/53/53
f 50/50/50 51/51/51 54/54/54
f 52/52/52 50/50/50 54/54/54
f 51/51/51 55/55/55 54/54/54
f 52/52/52 56/56/56 53/53/53
f 56/56/56 52/52/52 54/54/54
f 53/53/53 56/56/56 57/57/57
f 56/56/56 58/58/58 57/57/57
f 58/58/58 56/56/56 59/59/59
f 56/56/56 54/54/54 59/59/59
f 54/54/54 55/55/55 59/59/59
f 55/55/55 60/60/60 59/59/59
f 63/63/63 62/62/62 61/61/61
f 62/62/62 64/64/64 61/61/61
f 61/61/61 64/64/64 65/65/65
f 64/64/64 62/62/62 66/66/66
f 62/62/62 67/67/67 66/66/66
f 67/67/67 68/68/68 66/66/66
f 68/68/68 69/69/69 66/66/66
f 66/66/66 69/69/69 70/70/70
f 64/64/64 66/66/66 70/70/70
f 69/69/69 71/71/71 70/70/70
f 64/64/64 72/72/72 65/65/65
f 72/72/72 64/64/64 70/70/70
f 65/65/65 72/72/72 73/73/73
f 70/70/70 71/71/71 74/74/74
f 72/72/72 70/70/70 74/74/74
f 71/71/71 75/75/75 74/74/74
f 72/72/72 76/76/76 73/73/73
f 76/76/76 72/72/72 74/74/74
f 73/73/73 76/76/76 77/77/77
f 74/74/74 75/75/75 78/78/78
f 76/76/76 74/74/74 78/78/78
f 75/75/75 79/79/79 78/78/78
f 76/76/76 80/80/80 77/77/77
f 80/80/80 76/76/76 78/78/78
f 77/77/77 80/80/80 81/81/81
f 80/80/80 82/82/82 81/81/81
f 82/82/82 80/80/80 83/83/83
f 80/80/80 78/78/78 83/83/83
f 78/78/78 79/79/79 83/83/83
f 79/79/79 84/84/84 83/83/83
f 87/87/87 86/86/86 85/85/85
f 86/86/86 88/88/88 85/85/85
f 86/86/86 89/89/89 88/88/88
f 88/88/88 90/90/90 85/85/85
f 90/90/90 91/91/91 85/85/85
f 92/92/92 90/90/90 88/88/88
f 89/89/89 93/93/93 88/88/88
f 93/93/93 92/92/92 88/88/88
f 89/89/89 94/94/94 93/93/93
f 95/95/95 92/92/92 93/93/93
f 94/94/94 96/96/96 93/93/93
f 96/96/96 95/95/95 93/93/93
f 94/94/94 97/97/97 96/96/96
f 98/98/98 95/95/95 96/96/96
f 97/97/97 99/99/99 96/96/96
f 99/99/99 98/98/98 96/96/96
f 97/97/97 100/100/100 99/99/99
f 101/101/101 98/98/98 99/99/99
f 100/100/100 102/102/102 99/99/99
f 102/102/102 101/101/101 99/99/99
f 105/105/105 104/104/104 103/103/103
f 104/104/104 106/106/106 103/103/103
f 104/104/104 107/107/107 106/106/106
f 106/106/106 108/108/108 103/103/103
f 108/108/108 109/109/109 103/103/103
f 110/110/110 108/108/108 106/106/106
f 107/107/107 111/111/111 106/106/106
f 111/111/111 110/110/110 106/106/106
f 107/107/107 112/112/112 111/111/111
f 113/113/113 110/110/110 111/111/111
f 112/112/112 114/114/114 111/111/111
f 114/114/114 113/113/113 111/111/111
f 112/112/112 115/115/115 114/114/114
f 116/116/116 113/113/113 114/114/114
f 115/115/115 117/117/117 114/114/114
f 117/117/117 116/116/116 114/114/114
f 115/115/115 118/118/118 117/117/117
f 119/119/119 116/116/116 117/117/117
f 118/118/118 120/120/120 117/117/117
f 120/120/120 119/119/119 117/117/117
f 123/123/123 122/122/122 121/121/121
f 122/122/122 124/124/124 121/121/121
f 122/122/122 125/125/125 124/124/124
f 126/126/126 121/121/121 124/124/124
f 125/125/125 127/127/127 124/124/124
f 125/125/125 128/128/128 127/127/127
f 129/129/129 126/126/126 124/124/124
f 129/129/129 124/124/124 127/127/127
f 128/128/128 130/130/130 127/127/127
f 128/128/128 131/131/131 130/130/130
f 126/126/126 129/129/129 132/132/132
f 133/133/133 126/126/126 132/132/132
f 133/133/133 132/132/132 134/134/134
f 135/135/135 129/129/129 127/127/127
f 135/135/135 127/127/127 130/130/130
f 132/132/132 129/129/129 136/136/136
f 132/132/132 136/136/136 134/134/134
f 129/129/129 135/135/135 136/136/136
f 131/131/131 137/137/137 130/130/130
f 131/131/131 138/138/138 137/137/137
f 138/138/138 139/139/139 137/137/137
f 136/136/136 140/140/140 134/134/134
f 136/136/136 135/135/135 140/140/140
f 141/141/141 135/135/135 130/130/130
f 141/141/141 130/130/130 137/137/137
f 135/135/135 141/141/141 140/140/140
f 142/142/142 137/137/137 139/139/139
f 142/142/142 141/141/141 137/137/137
f 143/143/143 142/142/142 139/139/139
f 142/142/142 143/143/143 144/144/144
f 140/140/140 145/145/145 134/134/134
f 140/140/140 141/141/141 145/145/145
f 145/145/145 144/144/144 134/134/134
f 141/141/141 142/142/142 145/145/145
f 145/145/145 142/142/142 144/144/144
f 148/148/148 147/147/147 146/146/146
f 147/147/147 149/149/149 146/146/146
f 147/147/147 150/150/150 149/149/149
f 151/151/151 146/146/146 149/149/149
f 150/150/150 152/152/152 149/149/149
f 150/150/150 153/153/153 152/152/152
f 154/154/154 151/151/151 149/149/149
f 154/154/154 149/149/149 152/152/152
f 153/153/153 155/155/155 152/152/152
f 153/153/153 156/156/156 155/155/155
f 151/151/151 154/154/154 157/157/157
f 158/158/158 151/151/151 157/157/157
f 158/158/158 157/157/157 159/159/159
f 160/160/160 154/154/154 152/152/152
f 160/160/160 152/152/152 155/155/155
f 157/157/157 154/154/154 161/161/161
f 157/157/157 161/161/161 159/159/159
f 154/154/154 160/160/160 161/161/161
f 156/156/156 162/162/162 155/155/155
f 156/156/156 163/163/163 162/162/162
f 163/163/163 164/164/164 162/162/162
f 161/161/161 165/165/165 159/159/159
f 161/161/161 160/160/160 165/165/165
f 166/166/166 160/160/160 155/155/155
f 166/166/166 155/155/155 162/162/162
f 160/160/160 166/166/166 165/165/165
f 167/167/167 162/162/162 164/164/164
f 167/167/167 166/166/166 162/162/162
f 168/168/168 167/167/167 164/164/164
f 167/167/167 168/168/168 169/169/169
f 165/165/165 170/170/170 159/159/159
f 165/165/165 166/166/166 170/170/170
f 170/170/170 169/169/169 159/159/159
f 166/166/166 167/167/167 170/170/170
f 170/170/170 167/167/167 169/169/169
f 173/173/173 172/172/172 171/171/171
f 171/171/171 172/172/172 174/174/174
f 175/175/175 172/172/172 173/173/173
f 174/174/174 172/172/172 176/176/176
f 177/177/177 172/172/172 175/175/175
f 176/176/176 172/172/172 178/178/178
f 179/179/179 172/172/172 177/177/177
f 178/178/178 172/172/172 180/180/180
f 181/181/181 172/172/172 179/179/179
f 180/180/180 172/172/172 181/181/181
