g GadgetWall-MMStarMask
v -0.0657319 -0.02650735 -0.5272431
v -0.06193336 0.001717595 -0.4860137
v -0.05260069 -0.03190993 -0.4839138
v -0.08715466 -0.0001068161 -0.5248616
v -0.0666415 -0.0006887513 -0.5575144
v -0.06596807 0.02578416 -0.5277647
v -0.05242793 0.03292991 -0.4839808
v -0.05697685 0.06328972 -0.5229571
v -0.04010025 0.07785836 -0.4845771
v -0.05528725 0.06674322 -0.5487979
v -0.03776394 0.05694849 -0.4664012
v -0.06334697 0.03927523 -0.5589989
v -0.04498663 0.1071176 -0.5315266
v -0.04441081 0.1092821 -0.5213549
v -0.01887899 0.06209778 -0.4625489
v -0.01952357 0.0813204 -0.4801395
v -0.02380579 0.1255661 -0.5166647
v -0.02525064 -0.001314722 -0.3797532
v -0.01042091 -5.960464E-10 -0.3691417
v -0.05242793 0.03292991 -0.4839808
v -0.05260069 -0.03190993 -0.4839138
v -0.03388153 -0.05988198 -0.4651779
v -0.04326276 0.104213 -0.5116283
v -0.02571196 0.1342043 -0.5269255
v -0.02512756 0.1295816 -0.5321568
v -0.02720075 0.09019556 -0.5498835
v -0.04579464 0.0850526 -0.5521972
v -0.03036622 0.1087269 -0.5928701
v -0.05064272 0.09892952 -0.5915893
v -0.03349876 0.1174222 -0.6213397
v -0.05222839 0.09979331 -0.6045257
v -0.03415832 0.1180447 -0.6255102
v -0.05587278 0.08809464 -0.5907711
v -0.0573209 0.08424769 -0.5982145
v -0.05274692 0.09759975 -0.6086797
v -0.03509936 0.1182327 -0.6307111
v -0.0568321 0.08193593 -0.603261
v -0.05309279 0.09613661 -0.6114504
v -0.0365434 0.1185211 -0.6386921
v -0.06169782 0.02675482 -0.5711128
v -0.05541068 0.08002508 -0.6091068
v -0.05403703 0.09511997 -0.6163239
v -0.03545287 0.1055831 -0.6368777
v -0.05794778 0.01743679 -0.5870044
v -0.05321342 0.07868464 -0.6156812
v -0.04911128 0.07736517 -0.6220385
v -0.03377822 0.07451133 -0.6285127
v -0.03252691 0.01247476 -0.607783
v -0.04615783 0.01207673 -0.6060112
v -0.0324297 -6.109476E-09 -0.6038396
v -0.05135549 0.01315178 -0.6019918
v -0.05088777 -6.556511E-09 -0.6000501
v -0.04549346 -6.258488E-09 -0.6034517
v -0.04615632 -0.01200504 -0.6059957
v -0.03252548 -0.01229116 -0.607725
v -0.03418547 -0.08320769 -0.6311146
v -0.05960752 -0.0005483394 -0.5775278
v -0.0485829 -0.08707915 -0.6242913
v -0.03504136 -0.1007013 -0.6361931
v -0.0365434 -0.1185211 -0.638692
v -0.0506546 -0.09973247 -0.6184227
v -0.03484791 -0.1181825 -0.6293215
v -0.05333911 -0.08578738 -0.6155633
v -0.04944546 -0.1031814 -0.6146234
v -0.03374656 -0.1179625 -0.6232346
v -0.05136257 -0.01334827 -0.6020195
v -0.05818952 -0.01827941 -0.5862357
v -0.06200604 -0.02818887 -0.5696692
v -0.0550724 -0.08633809 -0.608842
v -0.04717166 -0.1072558 -0.6085575
v -0.0317838 -0.1124744 -0.6069318
v -0.06329154 -0.04111417 -0.5574496
v -0.05608707 -0.08788269 -0.6028227
v -0.05580524 -0.08925687 -0.5972208
v -0.04680883 -0.1055091 -0.5994372
v -0.03094391 -0.1093141 -0.5992757
v -0.0269716 -0.0910864 -0.5528182
v -0.05467843 -0.06789041 -0.548098
v -0.0401993 -0.08690356 -0.5525795
v -0.02525875 -0.1104722 -0.5401323
v -0.04064673 -0.1125506 -0.5367006
v -0.02512548 -0.1295652 -0.5321754
v -0.05684819 -0.06398474 -0.5226104
v -0.04146991 -0.1143133 -0.5218147
v -0.02571196 -0.1342043 -0.5269255
v -0.03598819 -0.08026002 -0.4818519
v -0.03888802 -0.1101347 -0.5059321
v -0.02372883 -0.1252173 -0.5162504
v -0.02171926 -0.1106699 -0.5022179
v -0.01956012 -0.08191805 -0.4805577
v -0.01906735 -0.0603037 -0.4605373
v -0.01042091 -5.960464E-10 -0.3691417
v -0.02525064 -0.001314722 -0.3797532
vt 0.9326493 0.1832949
vt 0.943499 0.1689773
vt 0.9311674 0.1668799
vt 0.9428517 0.182817
vt 0.9425728 0.1946187
vt 0.9527914 0.1836727
vt 0.9550363 0.1671119
vt 0.9668625 0.1810114
vt 0.9715852 0.1654037
vt 0.969303 0.1909541
vt 0.9639095 0.1590621
vt 0.9580646 0.1954261
vt 0.9836755 0.1808615
vt 0.9835976 0.1772273
vt 0.9685419 0.1536067
vt 0.9759158 0.1592243
vt 0.9914662 0.1723032
vt 0.9429665 0.1344724
vt 0.9432333 0.128096
vt 0.9550363 0.1671119
vt 0.9311674 0.1668799
vt 0.9206202 0.1575204
vt 0.9814178 0.1740792
vt 0.9945455 0.1760378
vt 0.9939455 0.1784714
vt 0.9857289 0.1908995
vt 0.9778821 0.1912348
vt 0.9888477 0.2080868
vt 0.9806169 0.2079236
vt 0.9891624 0.2192746
vt 0.9804998 0.2124894
vt 0.989007 0.2207959
vt 0.976455 0.2073947
vt 0.9748248 0.2099999
vt 0.979668 0.2139377
vt 0.9886655 0.222637
vt 0.9739798 0.2118224
vt 0.9791077 0.214906
vt 0.9880798 0.2256542
vt 0.9532516 0.200113
vt 0.9733177 0.213998
vt 0.9785745 0.2166022
vt 0.9831327 0.2260061
vt 0.9496777 0.2065054
vt 0.9728757 0.2165626
vt 0.9724433 0.2193395
vt 0.9711591 0.2253297
vt 0.9473762 0.2206471
vt 0.9476996 0.215438
vt 0.9427087 0.2202141
vt 0.9481435 0.2129208
vt 0.9427563 0.2125552
vt 0.9427413 0.2151816
vt 0.9378181 0.2153761
vt 0.9381113 0.2205656
vt 0.911032 0.225487
vt 0.9425869 0.2028328
vt 0.9096503 0.2197782
vt 0.9042162 0.2257923
vt 0.8975863 0.2253147
vt 0.9053458 0.217407
vt 0.8970116 0.221873
vt 0.9102435 0.2162991
vt 0.9040309 0.2161264
vt 0.8966191 0.2196685
vt 0.9372985 0.2128821
vt 0.9355706 0.20613
vt 0.9318057 0.1994314
vt 0.9101059 0.2138276
vt 0.902344 0.2141034
vt 0.8967092 0.2132621
vt 0.9268403 0.1946746
vt 0.9095542 0.2116647
vt 0.9089647 0.2097041
vt 0.902616 0.2109398
vt 0.8970131 0.210253
vt 0.9000243 0.1919297
vt 0.9157574 0.1904922
vt 0.9057357 0.1911979
vt 0.8952916 0.1852331
vt 0.8994029 0.1816128
vt 0.8916575 0.1785226
vt 0.9185545 0.1806399
vt 0.9001468 0.1765036
vt 0.8909683 0.1760378
vt 0.9129485 0.1633243
vt 0.9023932 0.1713599
vt 0.8940801 0.1718417
vt 0.8991438 0.1661809
vt 0.9095843 0.1584905
vt 0.9182304 0.1524545
vt 0.9432333 0.128096
vt 0.9429665 0.1344724
vn -0.9295815 -0.3082343 0.2021629
vn -0.9153821 0.004537476 0.4025606
vn -0.9026238 -0.261602 0.341811
vn -0.9221682 0.3865211 0.01439653
vn -0.9786848 -0.002391404 -0.2053541
vn -0.9346111 0.2980005 0.1941588
vn -0.9014488 0.2755482 0.3338609
vn -0.981245 0.1707885 0.08938398
vn -0.7812771 0.3155896 0.538525
vn -0.9247468 0.3500708 0.1493117
vn -0.8192908 0.2836914 0.4982789
vn -0.9993052 0.03612403 -0.009170696
vn -0.8702292 0.4794133 -0.1134189
vn -0.8691451 0.4629592 0.1739412
vn 0.3930543 0.5419724 0.742815
vn 0.1963154 0.5711095 0.7970535
vn -0.2867175 0.6782798 0.6765571
vn -0.736958 0.389877 0.5521675
vn -0.2129674 0.8350016 0.5073631
vn -0.8957617 0.251189 0.3667631
vn -0.8988115 -0.2421189 0.365399
vn -0.407046 -0.5364714 0.7392644
vn -0.7980733 0.4156893 0.4362127
vn -0.7735441 0.6206163 0.1283157
vn -0.6117181 0.5318922 -0.5855694
vn 0.6065818 0.695982 -0.3842752
vn -0.7373273 0.6753384 -0.01632537
vn 0.06495545 0.8739051 0.4817373
vn -0.7498965 0.5998054 0.2790858
vn -0.3163539 0.9100046 0.2679772
vn -0.8628519 0.4983136 0.08467698
vn -0.5601577 0.8027697 0.2044116
vn -0.9189305 0.3465356 0.1883604
vn -0.980014 0.19861 -0.01125292
vn -0.9283804 0.3715383 -0.008308075
vn -0.6611187 0.7230229 0.2003993
vn -0.9892523 0.07611594 -0.1248451
vn -0.9540464 0.2974587 0.03624592
vn -0.924009 0.2476461 -0.2913398
vn -0.9885563 0.03911465 -0.1456929
vn -0.9781272 0.01260541 -0.207625
vn -0.9755778 0.1762951 -0.1310261
vn -0.6674142 -0.165728 -0.7260113
vn -0.9822463 -0.04660307 -0.181715
vn -0.9258238 -0.01982189 -0.3774354
vn -0.8099513 -0.1043639 -0.5771371
vn -0.287461 -0.3076266 -0.9070458
vn 0.2016834 -0.2879722 -0.9361601
vn -0.4867365 -0.2051004 -0.8491297
vn 0.3310972 -0.002024049 -0.9435945
vn -0.9211215 -0.09536624 -0.3774131
vn -0.9451182 0.0004106565 -0.3267281
vn -0.4253552 -0.0002149044 -0.9050265
vn -0.4883757 0.2051196 -0.8481835
vn 0.203386 0.2877241 -0.9358681
vn -0.3907699 0.2850499 -0.8752403
vn -0.9659795 -0.0001014434 -0.2586187
vn -0.8076417 0.07206106 -0.5852538
vn -0.5723695 0.1853519 -0.7987727
vn -0.918998 -0.3397999 -0.1999467
vn -0.9389407 -0.2724784 -0.2101091
vn -0.6345744 -0.748085 0.194124
vn -0.9460663 -0.03106707 -0.3224799
vn -0.8618383 -0.5070474 -0.01172409
vn -0.4586969 -0.8624716 0.2138687
vn -0.9241161 0.09449671 -0.3702431
vn -0.9831408 0.04714447 -0.1766675
vn -0.9915006 -0.03985466 -0.1238475
vn -0.9863652 -0.07477054 -0.1466045
vn -0.6749181 -0.7200177 0.1614316
vn -0.1455718 -0.9121886 0.3830416
vn -0.9994054 -0.03165073 0.01367908
vn -0.9736669 -0.223095 -0.04691884
vn -0.9477744 -0.3073742 0.08511711
vn -0.5760627 -0.7730178 0.2656977
vn 0.02795027 -0.8989369 0.4371857
vn 0.6074553 -0.6897973 -0.3939261
vn -0.922608 -0.3671747 0.1182256
vn -0.1376424 -0.9582539 -0.2506074
vn -0.161058 -0.2855226 -0.9447419
vn -0.7807908 -0.5446439 -0.3061514
vn -0.6093647 -0.5329762 -0.5870358
vn -0.9809048 -0.1720404 0.09070661
vn -0.8316946 -0.5429291 0.1162411
vn -0.7681283 -0.6244486 0.1415727
vn -0.4944648 -0.4949094 0.7145413
vn -0.6410567 -0.558688 0.5262262
vn -0.2800167 -0.6788898 0.6787484
vn 0.01580103 -0.6604381 0.7507142
vn 0.1950673 -0.5714614 0.7971076
vn 0.3915201 -0.5422422 0.7434282
vn -0.2868004 -0.7713831 0.5680789
vn -0.4851101 -0.5765087 0.6574998
g GadgetWall-MMStarMask_0
f 3/3/3 2/2/2 1/1/1
f 2/2/2 4/4/4 1/1/1
f 4/4/4 5/5/5 1/1/1
f 5/5/5 4/4/4 6/6/6
f 4/4/4 2/2/2 6/6/6
f 2/2/2 7/7/7 6/6/6
f 8/8/8 6/6/6 7/7/7
f 9/9/9 8/8/8 7/7/7
f 8/8/8 10/10/10 6/6/6
f 11/11/11 9/9/9 7/7/7
f 5/5/5 6/6/6 12/12/12
f 10/10/10 12/12/12 6/6/6
f 10/10/10 8/8/8 13/13/13
f 14/14/14 8/8/8 9/9/9
f 8/8/8 14/14/14 13/13/13
f 11/11/11 15/15/15 9/9/9
f 15/15/15 16/16/16 9/9/9
f 9/9/9 16/16/16 17/17/17
f 15/15/15 11/11/11 18/18/18
f 19/19/19 15/15/15 18/18/18
f 18/18/18 11/11/11 20/20/20
f 2/2/2 18/18/18 20/20/20
f 21/21/21 18/18/18 2/2/2
f 22/22/22 18/18/18 21/21/21
f 23/23/23 9/9/9 17/17/17
f 23/23/23 14/14/14 9/9/9
f 23/23/23 17/17/17 24/24/24
f 14/14/14 23/23/23 24/24/24
f 24/24/24 25/25/25 14/14/14
f 25/25/25 13/13/13 14/14/14
f 13/13/13 25/25/25 26/26/26
f 27/27/27 13/13/13 26/26/26
f 27/27/27 26/26/26 28/28/28
f 27/27/27 10/10/10 13/13/13
f 29/29/29 27/27/27 28/28/28
f 27/27/27 29/29/29 10/10/10
f 28/28/28 30/30/30 29/29/29
f 30/30/30 31/31/31 29/29/29
f 30/30/30 32/32/32 31/31/31
f 29/29/29 33/33/33 10/10/10
f 29/29/29 31/31/31 33/33/33
f 10/10/10 33/33/33 34/34/34
f 31/31/31 34/34/34 33/33/33
f 12/12/12 10/10/10 34/34/34
f 32/32/32 35/35/35 31/31/31
f 31/31/31 35/35/35 34/34/34
f 32/32/32 36/36/36 35/35/35
f 34/34/34 37/37/37 12/12/12
f 35/35/35 37/37/37 34/34/34
f 36/36/36 38/38/38 35/35/35
f 35/35/35 38/38/38 37/37/37
f 36/36/36 39/39/39 38/38/38
f 37/37/37 40/40/40 12/12/12
f 40/40/40 5/5/5 12/12/12
f 38/38/38 41/41/41 37/37/37
f 40/40/40 37/37/37 41/41/41
f 39/39/39 42/42/42 38/38/38
f 38/38/38 42/42/42 41/41/41
f 39/39/39 43/43/43 42/42/42
f 44/44/44 40/40/40 41/41/41
f 5/5/5 40/40/40 44/44/44
f 42/42/42 45/45/45 41/41/41
f 41/41/41 45/45/45 44/44/44
f 43/43/43 46/46/46 42/42/42
f 45/45/45 42/42/42 46/46/46
f 43/43/43 47/47/47 46/46/46
f 47/47/47 48/48/48 46/46/46
f 48/48/48 49/49/49 46/46/46
f 45/45/45 46/46/46 49/49/49
f 48/48/48 50/50/50 49/49/49
f 45/45/45 51/51/51 44/44/44
f 51/51/51 45/45/45 49/49/49
f 51/51/51 52/52/52 44/44/44
f 52/52/52 51/51/51 49/49/49
f 50/50/50 53/53/53 49/49/49
f 53/53/53 52/52/52 49/49/49
f 53/53/53 50/50/50 54/54/54
f 52/52/52 53/53/53 54/54/54
f 50/50/50 55/55/55 54/54/54
f 55/55/55 56/56/56 54/54/54
f 52/52/52 57/57/57 44/44/44
f 57/57/57 5/5/5 44/44/44
f 56/56/56 58/58/58 54/54/54
f 56/56/56 59/59/59 58/58/58
f 58/58/58 59/59/59 60/60/60
f 61/61/61 58/58/58 60/60/60
f 60/60/60 62/62/62 61/61/61
f 54/54/54 58/58/58 63/63/63
f 63/63/63 58/58/58 61/61/61
f 62/62/62 64/64/64 61/61/61
f 61/61/61 64/64/64 63/63/63
f 62/62/62 65/65/65 64/64/64
f 66/66/66 52/52/52 54/54/54
f 66/66/66 54/54/54 63/63/63
f 52/52/52 66/66/66 67/67/67
f 57/57/57 52/52/52 67/67/67
f 66/66/66 63/63/63 67/67/67
f 5/5/5 57/57/57 68/68/68
f 57/57/57 67/67/67 68/68/68
f 63/63/63 69/69/69 67/67/67
f 64/64/64 69/69/69 63/63/63
f 67/67/67 69/69/69 68/68/68
f 65/65/65 70/70/70 64/64/64
f 64/64/64 70/70/70 69/69/69
f 71/71/71 70/70/70 65/65/65
f 5/5/5 68/68/68 72/72/72
f 1/1/1 5/5/5 72/72/72
f 69/69/69 73/73/73 68/68/68
f 70/70/70 73/73/73 69/69/69
f 73/73/73 74/74/74 68/68/68
f 74/74/74 72/72/72 68/68/68
f 74/74/74 73/73/73 70/70/70
f 70/70/70 71/71/71 75/75/75
f 75/75/75 74/74/74 70/70/70
f 71/71/71 76/76/76 75/75/75
f 76/76/76 77/77/77 75/75/75
f 74/74/74 78/78/78 72/72/72
f 1/1/1 72/72/72 78/78/78
f 74/74/74 75/75/75 78/78/78
f 77/77/77 79/79/79 75/75/75
f 75/75/75 79/79/79 78/78/78
f 77/77/77 80/80/80 79/79/79
f 80/80/80 81/81/81 79/79/79
f 79/79/79 81/81/81 78/78/78
f 80/80/80 82/82/82 81/81/81
f 83/83/83 1/1/1 78/78/78
f 83/83/83 78/78/78 81/81/81
f 1/1/1 83/83/83 21/21/21
f 21/21/21 83/83/83 22/22/22
f 84/84/84 81/81/81 82/82/82
f 84/84/84 83/83/83 81/81/81
f 85/85/85 84/84/84 82/82/82
f 86/86/86 83/83/83 84/84/84
f 83/83/83 86/86/86 22/22/22
f 84/84/84 85/85/85 87/87/87
f 87/87/87 86/86/86 84/84/84
f 85/85/85 88/88/88 87/87/87
f 89/89/89 87/87/87 88/88/88
f 87/87/87 89/89/89 90/90/90
f 86/86/86 87/87/87 90/90/90
f 86/86/86 90/90/90 91/91/91
f 22/22/22 86/86/86 91/91/91
f 22/22/22 91/91/91 92/92/92
f 93/93/93 22/22/22 92/92/92
