g Gauge_3
v 0.3454421 1.445333 -0.6558935
v 0.3609195 1.433202 -0.5993493
v 0.3454138 1.432566 -0.5974075
v 0.32991 1.4328 -0.599452
v 0.3753699 1.434664 -0.605145
v 0.3154652 1.433888 -0.6053434
v 0.3877802 1.436854 -0.6143993
v 0.303064 1.435757 -0.6146798
v 0.3973046 1.439622 -0.6264806
v 0.2935513 1.438278 -0.6268243
v 0.4032947 1.442778 -0.6405658
v 0.2875748 1.44128 -0.640949
v 0.4053427 1.446109 -0.6556951
v 0.2855414 1.444557 -0.6560919
v 0.4033093 1.449387 -0.6708379
v 0.2875895 1.447888 -0.6712211
v 0.3973329 1.452388 -0.6849627
v 0.2935795 1.451045 -0.6853064
v 0.3878201 1.454909 -0.6971071
v 0.303104 1.453812 -0.6973876
v 0.3754189 1.456778 -0.7064435
v 0.3155142 1.456002 -0.7066419
v 0.3609741 1.457866 -0.7123351
v 0.3299646 1.457465 -0.7124377
v 0.3454703 1.458101 -0.7143796
v 0.3794145 1.440286 -0.5965727
v 0.3629643 1.43862 -0.5899749
v 0.3609195 1.433202 -0.5993493
v 0.3753699 1.434664 -0.605145
v 0.3454138 1.432566 -0.5974075
v 0.3935421 1.442779 -0.6071076
v 0.3453128 1.437897 -0.5877643
v 0.3877802 1.436854 -0.6143993
v 0.32991 1.4328 -0.599452
v 0.4043846 1.445929 -0.6208609
v 0.3276635 1.438163 -0.5900918
v 0.3973046 1.439622 -0.6264806
v 0.3154652 1.433888 -0.6053434
v 0.4112037 1.449523 -0.6368952
v 0.3112197 1.439402 -0.5967985
v 0.4032947 1.442778 -0.6405658
v 0.303064 1.435757 -0.6146798
v 0.4135351 1.453314 -0.6541182
v 0.2971024 1.441529 -0.6074269
v 0.4053427 1.446109 -0.6556951
v 0.2935513 1.438278 -0.6268243
v 0.4112204 1.457046 -0.6713566
v 0.2862732 1.444399 -0.6212521
v 0.4033093 1.449387 -0.6708379
v 0.2875748 1.44128 -0.640949
v 0.4044168 1.460462 -0.687436
v 0.2794697 1.447816 -0.6373315
v 0.3973329 1.452388 -0.6849627
v 0.2855414 1.444557 -0.6560919
v 0.3935876 1.463333 -0.7012611
v 0.2771549 1.451548 -0.6545698
v 0.3878201 1.454909 -0.6971071
v 0.2875895 1.447888 -0.6712211
v 0.3794702 1.465459 -0.7118896
v 0.2794863 1.455339 -0.6717928
v 0.3754189 1.456778 -0.7064435
v 0.2935795 1.451045 -0.6853064
v 0.3630265 1.466699 -0.7185962
v 0.2863055 1.458933 -0.6878273
v 0.3609741 1.457866 -0.7123351
v 0.303104 1.453812 -0.6973876
v 0.3453772 1.466965 -0.7209237
v 0.2971479 1.462083 -0.7015806
v 0.3454703 1.458101 -0.7143796
v 0.3155142 1.456002 -0.7066419
v 0.3277256 1.466241 -0.7187131
v 0.3112755 1.464576 -0.7121153
v 0.3299646 1.457465 -0.7124377
v 0.3672901 1.435227 -0.5741584
v 0.3695967 1.420156 -0.5693122
v 0.3454866 1.418919 -0.5663453
v 0.3453048 1.434325 -0.5714051
v 0.3877798 1.437301 -0.5823763
v 0.3213802 1.419012 -0.5695834
v 0.3920671 1.422639 -0.5782822
v 0.3233224 1.434657 -0.5743039
v 0.4053774 1.440406 -0.5954987
v 0.2989223 1.420472 -0.5787967
v 0.4113811 1.426174 -0.5926386
v 0.3028407 1.436201 -0.5826576
v 0.418884 1.444331 -0.6126313
v 0.2796324 1.423477 -0.5932974
v 0.4261955 1.430561 -0.6114134
v 0.2852558 1.43885 -0.5958965
v 0.427379 1.448808 -0.6326063
v 0.2648348 1.427446 -0.6121787
v 0.4354979 1.435521 -0.6333251
v 0.2717659 1.442425 -0.6131185
v 0.4302835 1.453531 -0.6540628
v 0.2555377 1.432107 -0.6341533
v 0.4386854 1.440648 -0.6568727
v 0.2632903 1.446682 -0.6331498
v 0.4273997 1.45818 -0.6755384
v 0.2523748 1.437142 -0.657724
v 0.4355252 1.445625 -0.6804563
v 0.2604065 1.451331 -0.6546254
v 0.4189241 1.462436 -0.6955696
v 0.2555615 1.44221 -0.6812847
v 0.4262326 1.450112 -0.7024683
v 0.2633111 1.456054 -0.6760818
v 0.4054342 1.466012 -0.7127915
v 0.2648806 1.446964 -0.7032294
v 0.4114409 1.453803 -0.721409
v 0.271806 1.460531 -0.696057
v 0.3878493 1.468661 -0.7260305
v 0.2796972 1.45108 -0.7220631
v 0.392158 1.456447 -0.7359869
v 0.2853124 1.464455 -0.7131894
v 0.3673676 1.470204 -0.7343842
v 0.2990018 1.454278 -0.7365021
v 0.369698 1.457864 -0.7452097
v 0.3029102 1.467561 -0.7263119
v 0.3453851 1.470537 -0.737283
v 0.3214816 1.45672 -0.7454807
v 0.3455917 1.457957 -0.7484478
v 0.3233998 1.469635 -0.7345298
v 0.3935876 1.463333 -0.7012611
v 0.3794702 1.465459 -0.7118896
v 0.3878493 1.468661 -0.7260305
v 0.4054342 1.466012 -0.7127915
v 0.3673676 1.470204 -0.7343842
v 0.4044168 1.460462 -0.687436
v 0.3630265 1.466699 -0.7185962
v 0.4189241 1.462436 -0.6955696
v 0.3453851 1.470537 -0.737283
v 0.4112204 1.457046 -0.6713566
v 0.3453772 1.466965 -0.7209237
v 0.4273997 1.45818 -0.6755384
v 0.3233998 1.469635 -0.7345298
v 0.4135351 1.453314 -0.6541182
v 0.3277256 1.466241 -0.7187131
v 0.4302835 1.453531 -0.6540628
v 0.3029102 1.467561 -0.7263119
v 0.4112037 1.449523 -0.6368952
v 0.3112755 1.464576 -0.7121153
v 0.427379 1.448808 -0.6326063
v 0.2853124 1.464455 -0.7131894
v 0.4043846 1.445929 -0.6208609
v 0.2971479 1.462083 -0.7015806
v 0.418884 1.444331 -0.6126313
v 0.271806 1.460531 -0.696057
v 0.3935421 1.442779 -0.6071076
v 0.2863055 1.458933 -0.6878273
v 0.4053774 1.440406 -0.5954987
v 0.2633111 1.456054 -0.6760818
v 0.3794145 1.440286 -0.5965727
v 0.2794863 1.455339 -0.6717928
v 0.3877798 1.437301 -0.5823763
v 0.2604065 1.451331 -0.6546254
v 0.3629643 1.43862 -0.5899749
v 0.2771549 1.451548 -0.6545698
v 0.3672901 1.435227 -0.5741584
v 0.2632903 1.446682 -0.6331498
v 0.3453128 1.437897 -0.5877643
v 0.2794697 1.447816 -0.6373315
v 0.3453048 1.434325 -0.5714051
v 0.2717659 1.442425 -0.6131185
v 0.3276635 1.438163 -0.5900918
v 0.2862732 1.444399 -0.6212521
v 0.3233224 1.434657 -0.5743039
v 0.2852558 1.43885 -0.5958965
v 0.3112197 1.439402 -0.5967985
v 0.2971024 1.441529 -0.6074269
v 0.3028407 1.436201 -0.5826576
vt 0.2197412 0.01439486
vt 0.2242418 0.0086138
vt 0.2225836 0.00765954
vt 0.2207457 0.007149957
vt 0.2255967 0.009971842
vt 0.2188414 0.007136325
vt 0.2265535 0.01164174
vt 0.2169979 0.007618763
vt 0.2270422 0.01350936
vt 0.2153379 0.008563856
vt 0.2270252 0.0154443
vt 0.2139757 0.009905128
vt 0.2265083 0.01730783
vt 0.2130069 0.0115474
vt 0.2255046 0.01895565
vt 0.2125167 0.01338559
vt 0.2241129 0.02028401
vt 0.2125111 0.01528277
vt 0.2224304 0.02120208
vt 0.2129886 0.01711215
vt 0.2205745 0.02165074
vt 0.2139149 0.01875418
vt 0.218673 0.02160417
vt 0.2152315 0.02010257
vt 0.2168548 0.02106781
vt 0.2267027 0.009132793
vt 0.2250898 0.007517908
vt 0.2242418 0.0086138
vt 0.2255967 0.009971842
vt 0.2225836 0.00765954
vt 0.227845 0.01111864
vt 0.2231213 0.006371589
vt 0.2265535 0.01164174
vt 0.2207457 0.007149957
vt 0.2284292 0.01334252
vt 0.2209281 0.00578347
vt 0.2270422 0.01350936
vt 0.2188414 0.007136325
vt 0.228405 0.01564589
vt 0.2186646 0.005770562
vt 0.2270252 0.0154443
vt 0.2169979 0.007618763
vt 0.2277733 0.01785807
vt 0.2164739 0.006345049
vt 0.2265083 0.01730783
vt 0.2153379 0.008563856
vt 0.2265904 0.01982317
vt 0.2145023 0.007469291
vt 0.2255046 0.01895565
vt 0.2139757 0.009905128
vt 0.2249342 0.02140138
vt 0.2128863 0.009064993
vt 0.2241129 0.02028401
vt 0.2130069 0.0115474
vt 0.2229316 0.02248882
vt 0.2117535 0.01102479
vt 0.2224304 0.02120208
vt 0.2125167 0.01338559
vt 0.2207247 0.02301759
vt 0.2111619 0.01320137
vt 0.2205745 0.02165074
vt 0.2125111 0.01528277
vt 0.2184656 0.02296004
vt 0.2111571 0.01545058
vt 0.218673 0.02160417
vt 0.2129886 0.01711215
vt 0.216301 0.02233247
vt 0.211726 0.01761823
vt 0.2168548 0.02106781
vt 0.2139149 0.01875418
vt 0.2143821 0.0211677
vt 0.2128232 0.01956536
vt 0.2152315 0.02010257
vt 0.2263907 0.005821713
vt 0.227599 0.004184873
vt 0.2246871 0.002508945
vt 0.2239299 0.004419396
vt 0.2284111 0.007824575
vt 0.22146 0.001627913
vt 0.2299926 0.006566301
vt 0.2212082 0.003681322
vt 0.2298476 0.01029757
vt 0.2181451 0.001597511
vt 0.2317014 0.009497125
vt 0.2183949 0.003649956
vt 0.230588 0.01307627
vt 0.2149062 0.002399404
vt 0.2325981 0.01279204
vt 0.2156672 0.004369331
vt 0.23055 0.015961
vt 0.2119054 0.004043724
vt 0.2325981 0.016255
vt 0.2132138 0.0057778
vt 0.2297785 0.01873584
vt 0.2094828 0.00648101
vt 0.231622 0.01957718
vt 0.2111872 0.00775943
vt 0.2282783 0.02118097
vt 0.2078015 0.009428601
vt 0.2298295 0.02247881
vt 0.2097687 0.01020407
vt 0.2262009 0.02314076
vt 0.2069553 0.01268527
vt 0.2273663 0.02480571
vt 0.209057 0.01292197
vt 0.2236986 0.02448625
vt 0.2069713 0.01602868
vt 0.224398 0.02641396
vt 0.2090659 0.01571864
vt 0.2209468 0.02513337
vt 0.2078333 0.01923312
vt 0.2211244 0.02719824
vt 0.2097815 0.01840492
vt 0.2181364 0.02504663
vt 0.2094539 0.02208299
vt 0.2177705 0.02710824
vt 0.2111359 0.02082303
vt 0.2154578 0.02424027
vt 0.2117333 0.02444126
vt 0.2145712 0.02615989
vt 0.2130765 0.02280128
vt 0.2229316 0.02248882
vt 0.2207247 0.02301759
vt 0.2209468 0.02513337
vt 0.2236986 0.02448625
vt 0.2181364 0.02504663
vt 0.2249342 0.02140138
vt 0.2184656 0.02296004
vt 0.2262009 0.02314076
vt 0.2154578 0.02424027
vt 0.2265904 0.01982317
vt 0.216301 0.02233247
vt 0.2282783 0.02118097
vt 0.2130765 0.02280128
vt 0.2277733 0.01785807
vt 0.2143821 0.0211677
vt 0.2297785 0.01873584
vt 0.2111359 0.02082303
vt 0.228405 0.01564589
vt 0.2128232 0.01956536
vt 0.23055 0.015961
vt 0.2097815 0.01840492
vt 0.2284292 0.01334252
vt 0.211726 0.01761823
vt 0.230588 0.01307627
vt 0.2090659 0.01571864
vt 0.227845 0.01111864
vt 0.2111571 0.01545058
vt 0.2298476 0.01029757
vt 0.209057 0.01292197
vt 0.2267027 0.009132793
vt 0.2111619 0.01320137
vt 0.2284111 0.007824575
vt 0.2097687 0.01020407
vt 0.2250898 0.007517908
vt 0.2117535 0.01102479
vt 0.2263907 0.005821713
vt 0.2111872 0.00775943
vt 0.2231213 0.006371589
vt 0.2128863 0.009064993
vt 0.2239299 0.004419396
vt 0.2132138 0.0057778
vt 0.2209281 0.00578347
vt 0.2145023 0.007469291
vt 0.2212082 0.003681322
vt 0.2156672 0.004369331
vt 0.2186646 0.005770562
vt 0.2164739 0.006345049
vt 0.2183949 0.003649956
vn -0.01335971 0.9769058 0.2132528
vn -0.01336851 0.9769052 0.2132545
vn -0.01335781 0.9769055 0.2132542
vn -0.01336072 0.9769052 0.2132549
vn -0.01335761 0.9769053 0.2132547
vn -0.01336261 0.9769052 0.2132551
vn -0.01334819 0.9769061 0.2132516
vn -0.01335419 0.9769045 0.2132589
vn -0.01335978 0.9769059 0.2132517
vn -0.01335381 0.9769049 0.2132569
vn -0.01336018 0.9769049 0.2132566
vn -0.01336419 0.9769068 0.2132475
vn -0.01335831 0.976906 0.2132512
vn -0.01336433 0.976907 0.2132471
vn -0.01335817 0.9769064 0.21325
vn -0.01336417 0.9769053 0.2132544
vn -0.01335781 0.9769058 0.2132527
vn -0.01336784 0.9769046 0.2132571
vn -0.0133612 0.9769058 0.2132525
vn -0.01336231 0.9769059 0.2132514
vn -0.01335561 0.976906 0.2132516
vn -0.01335565 0.9769065 0.2132492
vn -0.01335923 0.9769065 0.2132494
vn -0.01335545 0.9769062 0.2132503
vn -0.01336533 0.9769061 0.2132505
vn -0.3392745 0.8520358 -0.3986575
vn -0.1803035 0.8681021 -0.4624817
vn -0.1802754 0.8681041 -0.462489
vn -0.3392307 0.8520417 -0.398682
vn -0.009734471 0.8750864 -0.4838688
vn -0.4758089 0.8279806 -0.2967391
vn -0.009734234 0.8750864 -0.4838688
vn -0.4757679 0.8279898 -0.296779
vn 0.1607739 0.8725222 -0.4613639
vn -0.5806196 0.7975573 -0.1636561
vn 0.1608024 0.872521 -0.4613564
vn -0.5805941 0.797567 -0.1636991
vn 0.3196718 0.8605791 -0.3965014
vn -0.6465475 0.7628266 -0.00847974
vn 0.3197152 0.8605744 -0.3964768
vn -0.6465399 0.7628328 -0.008507443
vn 0.4561209 0.8400613 -0.2936849
vn -0.669091 0.7261481 0.1581957
vn 0.4561619 0.8400531 -0.2936446
vn -0.669091 0.7261481 0.1581959
vn 0.560807 0.8123569 -0.1599118
vn -0.6467152 0.6900195 0.3250118
vn 0.5608326 0.8123478 -0.1598685
vn -0.6467077 0.6900135 0.3250395
vn 0.6266063 0.7793241 -0.004296322
vn -0.5809386 0.6569095 0.480604
vn 0.6266139 0.7793181 -0.004268421
vn -0.5809131 0.6569003 0.4806474
vn 0.6489998 0.7432187 0.1625583
vn -0.4762554 0.6290851 0.6143556
vn 0.6489998 0.743219 0.1625572
vn -0.4762143 0.6290768 0.614396
vn 0.6264473 0.7065059 0.3292616
vn -0.339812 0.6084495 0.717159
vn 0.6264549 0.7065119 0.3292343
vn -0.3397681 0.6084446 0.7171839
vn 0.5605028 0.6716891 0.484428
vn -0.180906 0.5964127 0.7820261
vn 0.5605278 0.6716987 0.4843856
vn -0.1808771 0.5964115 0.7820339
vn 0.4556771 0.6411549 0.6174776
vn -0.01035919 0.5938129 0.8045365
vn 0.4557185 0.6411642 0.6174375
vn -0.01035905 0.5938129 0.8045365
vn 0.3191392 0.6169842 0.7193612
vn 0.1602144 0.6008346 0.7831533
vn 0.3191828 0.6169902 0.7193369
vn 0.1601856 0.6008326 0.7831607
vn 0.2112488 0.3280557 0.9207352
vn 0.2113169 0.3280627 0.9207171
vn -0.01102845 0.3117119 0.9501127
vn -0.01105929 0.3117104 0.9501127
vn 0.4172424 0.3551632 0.8365212
vn -0.2346151 0.3076249 0.9221293
vn 0.4172874 0.3551707 0.8364957
vn -0.2348155 0.3076271 0.9220778
vn 0.5936072 0.3911009 0.7033282
vn -0.4417924 0.3184883 0.8386803
vn 0.5934367 0.391058 0.7034958
vn -0.4416609 0.3184752 0.8387545
vn 0.7284871 0.4331549 0.5307385
vn -0.6199156 0.3454653 0.704527
vn 0.7283916 0.4331168 0.5309007
vn -0.6198291 0.3454469 0.7046122
vn 0.8136512 0.4786617 0.3299312
vn -0.7579201 0.3833679 0.5278126
vn 0.8136549 0.4786646 0.329918
vn -0.7579553 0.3833807 0.5277528
vn 0.8436402 0.5248085 0.1133457
vn -0.8449764 0.4267964 0.3222726
vn 0.8436387 0.5247584 0.1135886
vn -0.8449547 0.42678 0.3223513
vn 0.8163176 0.56826 -0.1034704
vn -0.8752646 0.4728722 0.1015082
vn 0.8162135 0.5683371 -0.103868
vn -0.8752637 0.4728262 0.1017293
vn 0.7328627 0.6065888 -0.3081597
vn -0.8466049 0.5185574 -0.1198272
vn 0.7328389 0.6065963 -0.3082014
vn -0.8466935 0.5184892 -0.1194953
vn 0.5985329 0.6370224 -0.4857578
vn -0.7606559 0.5608255 -0.3269211
vn 0.5985739 0.6370158 -0.485716
vn -0.760629 0.5608349 -0.3269675
vn 0.4218023 0.6575466 -0.6242716
vn -0.6228873 0.5968459 -0.5057533
vn 0.4219399 0.6575362 -0.6241898
vn -0.6227587 0.5968715 -0.5058815
vn 0.2142467 0.6667114 -0.7138587
vn -0.4440434 0.6258423 -0.6412074
vn 0.2140058 0.6667145 -0.713928
vn -0.4440612 0.6258399 -0.6411973
vn -0.01004448 0.6637817 -0.7478589
vn -0.2353619 0.6491111 -0.7233667
vn -0.009858205 0.6637891 -0.7478548
vn -0.2355227 0.6490964 -0.7233277
vn -0.01335848 0.9769052 0.213255
vn -0.01336258 0.9769068 0.2132473
vn -0.01336258 0.9769068 0.2132473
vn -0.01335848 0.9769052 0.213255
vn -0.01336148 0.9769075 0.2132447
vn -0.0133586 0.9769058 0.2132527
vn -0.01336148 0.9769075 0.2132447
vn -0.0133586 0.9769058 0.2132528
vn -0.01336113 0.9769068 0.2132477
vn -0.01336526 0.9769062 0.21325
vn -0.01336113 0.9769068 0.2132477
vn -0.01336526 0.9769062 0.2132501
vn -0.01336436 0.9769059 0.2132519
vn -0.01336236 0.976905 0.2132559
vn -0.01336436 0.9769059 0.2132519
vn -0.01336236 0.976905 0.2132559
vn -0.0133682 0.976906 0.2132509
vn -0.01336199 0.9769056 0.2132535
vn -0.0133682 0.976906 0.2132509
vn -0.01336199 0.9769056 0.2132535
vn -0.0133669 0.9769062 0.2132497
vn -0.01336278 0.9769062 0.21325
vn -0.0133669 0.9769062 0.2132497
vn -0.01336278 0.9769062 0.21325
vn -0.01336553 0.9769065 0.2132491
vn -0.01335849 0.9769059 0.213252
vn -0.01336553 0.9769065 0.2132491
vn -0.01335849 0.9769059 0.213252
vn -0.01336049 0.9769059 0.2132515
vn -0.01335983 0.9769057 0.2132528
vn -0.01336049 0.9769059 0.2132515
vn -0.01335983 0.9769057 0.2132528
vn -0.01335954 0.9769051 0.2132554
vn -0.01336438 0.9769066 0.2132486
vn -0.01335954 0.9769051 0.2132553
vn -0.01336438 0.9769066 0.2132486
vn -0.013361 0.9769057 0.213253
vn -0.0133612 0.9769065 0.2132491
vn -0.013361 0.9769057 0.2132531
vn -0.0133612 0.9769065 0.2132491
vn -0.01335853 0.9769061 0.213251
vn -0.01335882 0.9769059 0.2132519
vn -0.01335853 0.9769061 0.213251
vn -0.01335882 0.9769059 0.2132519
vn -0.01336129 0.9769059 0.2132521
vn -0.01336265 0.9769058 0.2132522
vn -0.01336129 0.9769059 0.2132521
vn -0.01336265 0.9769058 0.2132522
g Gauge_3_0
f 3/3/3 2/2/2 1/1/1
f 4/4/4 3/3/3 1/1/1
f 2/2/2 5/5/5 1/1/1
f 6/6/6 4/4/4 1/1/1
f 5/5/5 7/7/7 1/1/1
f 8/8/8 6/6/6 1/1/1
f 7/7/7 9/9/9 1/1/1
f 10/10/10 8/8/8 1/1/1
f 9/9/9 11/11/11 1/1/1
f 12/12/12 10/10/10 1/1/1
f 11/11/11 13/13/13 1/1/1
f 14/14/14 12/12/12 1/1/1
f 13/13/13 15/15/15 1/1/1
f 16/16/16 14/14/14 1/1/1
f 15/15/15 17/17/17 1/1/1
f 18/18/18 16/16/16 1/1/1
f 17/17/17 19/19/19 1/1/1
f 20/20/20 18/18/18 1/1/1
f 19/19/19 21/21/21 1/1/1
f 22/22/22 20/20/20 1/1/1
f 21/21/21 23/23/23 1/1/1
f 24/24/24 22/22/22 1/1/1
f 23/23/23 25/25/25 1/1/1
f 25/25/25 24/24/24 1/1/1
f 28/28/28 27/27/27 26/26/26
f 29/29/29 28/28/28 26/26/26
f 28/28/28 30/30/30 27/27/27
f 29/29/29 26/26/26 31/31/31
f 30/30/30 32/32/32 27/27/27
f 33/33/33 29/29/29 31/31/31
f 30/30/30 34/34/34 32/32/32
f 33/33/33 31/31/31 35/35/35
f 34/34/34 36/36/36 32/32/32
f 37/37/37 33/33/33 35/35/35
f 34/34/34 38/38/38 36/36/36
f 37/37/37 35/35/35 39/39/39
f 38/38/38 40/40/40 36/36/36
f 41/41/41 37/37/37 39/39/39
f 38/38/38 42/42/42 40/40/40
f 41/41/41 39/39/39 43/43/43
f 42/42/42 44/44/44 40/40/40
f 45/45/45 41/41/41 43/43/43
f 42/42/42 46/46/46 44/44/44
f 45/45/45 43/43/43 47/47/47
f 46/46/46 48/48/48 44/44/44
f 49/49/49 45/45/45 47/47/47
f 46/46/46 50/50/50 48/48/48
f 49/49/49 47/47/47 51/51/51
f 50/50/50 52/52/52 48/48/48
f 53/53/53 49/49/49 51/51/51
f 50/50/50 54/54/54 52/52/52
f 53/53/53 51/51/51 55/55/55
f 54/54/54 56/56/56 52/52/52
f 57/57/57 53/53/53 55/55/55
f 54/54/54 58/58/58 56/56/56
f 57/57/57 55/55/55 59/59/59
f 58/58/58 60/60/60 56/56/56
f 61/61/61 57/57/57 59/59/59
f 58/58/58 62/62/62 60/60/60
f 61/61/61 59/59/59 63/63/63
f 62/62/62 64/64/64 60/60/60
f 65/65/65 61/61/61 63/63/63
f 62/62/62 66/66/66 64/64/64
f 65/65/65 63/63/63 67/67/67
f 66/66/66 68/68/68 64/64/64
f 69/69/69 65/65/65 67/67/67
f 66/66/66 70/70/70 68/68/68
f 69/69/69 67/67/67 71/71/71
f 70/70/70 72/72/72 68/68/68
f 73/73/73 69/69/69 71/71/71
f 73/73/73 71/71/71 72/72/72
f 70/70/70 73/73/73 72/72/72
f 76/76/76 75/75/75 74/74/74
f 77/77/77 76/76/76 74/74/74
f 74/74/74 75/75/75 78/78/78
f 79/79/79 76/76/76 77/77/77
f 75/75/75 80/80/80 78/78/78
f 81/81/81 79/79/79 77/77/77
f 78/78/78 80/80/80 82/82/82
f 83/83/83 79/79/79 81/81/81
f 80/80/80 84/84/84 82/82/82
f 85/85/85 83/83/83 81/81/81
f 82/82/82 84/84/84 86/86/86
f 87/87/87 83/83/83 85/85/85
f 84/84/84 88/88/88 86/86/86
f 89/89/89 87/87/87 85/85/85
f 86/86/86 88/88/88 90/90/90
f 91/91/91 87/87/87 89/89/89
f 88/88/88 92/92/92 90/90/90
f 93/93/93 91/91/91 89/89/89
f 90/90/90 92/92/92 94/94/94
f 95/95/95 91/91/91 93/93/93
f 92/92/92 96/96/96 94/94/94
f 97/97/97 95/95/95 93/93/93
f 94/94/94 96/96/96 98/98/98
f 99/99/99 95/95/95 97/97/97
f 96/96/96 100/100/100 98/98/98
f 101/101/101 99/99/99 97/97/97
f 98/98/98 100/100/100 102/102/102
f 103/103/103 99/99/99 101/101/101
f 100/100/100 104/104/104 102/102/102
f 105/105/105 103/103/103 101/101/101
f 102/102/102 104/104/104 106/106/106
f 107/107/107 103/103/103 105/105/105
f 104/104/104 108/108/108 106/106/106
f 109/109/109 107/107/107 105/105/105
f 106/106/106 108/108/108 110/110/110
f 111/111/111 107/107/107 109/109/109
f 108/108/108 112/112/112 110/110/110
f 113/113/113 111/111/111 109/109/109
f 110/110/110 112/112/112 114/114/114
f 115/115/115 111/111/111 113/113/113
f 112/112/112 116/116/116 114/114/114
f 117/117/117 115/115/115 113/113/113
f 114/114/114 116/116/116 118/118/118
f 119/119/119 115/115/115 117/117/117
f 116/116/116 120/120/120 118/118/118
f 121/121/121 119/119/119 117/117/117
f 118/118/118 120/120/120 121/121/121
f 120/120/120 119/119/119 121/121/121
f 124/124/124 123/123/123 122/122/122
f 125/125/125 124/124/124 122/122/122
f 124/124/124 126/126/126 123/123/123
f 125/125/125 122/122/122 127/127/127
f 126/126/126 128/128/128 123/123/123
f 129/129/129 125/125/125 127/127/127
f 126/126/126 130/130/130 128/128/128
f 129/129/129 127/127/127 131/131/131
f 130/130/130 132/132/132 128/128/128
f 133/133/133 129/129/129 131/131/131
f 130/130/130 134/134/134 132/132/132
f 133/133/133 131/131/131 135/135/135
f 134/134/134 136/136/136 132/132/132
f 137/137/137 133/133/133 135/135/135
f 134/134/134 138/138/138 136/136/136
f 137/137/137 135/135/135 139/139/139
f 138/138/138 140/140/140 136/136/136
f 141/141/141 137/137/137 139/139/139
f 138/138/138 142/142/142 140/140/140
f 141/141/141 139/139/139 143/143/143
f 142/142/142 144/144/144 140/140/140
f 145/145/145 141/141/141 143/143/143
f 142/142/142 146/146/146 144/144/144
f 145/145/145 143/143/143 147/147/147
f 146/146/146 148/148/148 144/144/144
f 149/149/149 145/145/145 147/147/147
f 146/146/146 150/150/150 148/148/148
f 149/149/149 147/147/147 151/151/151
f 150/150/150 152/152/152 148/148/148
f 153/153/153 149/149/149 151/151/151
f 150/150/150 154/154/154 152/152/152
f 153/153/153 151/151/151 155/155/155
f 154/154/154 156/156/156 152/152/152
f 157/157/157 153/153/153 155/155/155
f 154/154/154 158/158/158 156/156/156
f 157/157/157 155/155/155 159/159/159
f 158/158/158 160/160/160 156/156/156
f 161/161/161 157/157/157 159/159/159
f 158/158/158 162/162/162 160/160/160
f 161/161/161 159/159/159 163/163/163
f 162/162/162 164/164/164 160/160/160
f 165/165/165 161/161/161 163/163/163
f 162/162/162 166/166/166 164/164/164
f 165/165/165 163/163/163 167/167/167
f 166/166/166 168/168/168 164/164/164
f 169/169/169 165/165/165 167/167/167
f 169/169/169 167/167/167 168/168/168
f 166/166/166 169/169/169 168/168/168
