g Headlight_0
v -0.142256 2.982129 1.179655
v -0.1443718 3.010787 1.150512
v -0.1879217 2.976757 1.145895
v -0.1465724 3.029535 1.122111
v -0.1887123 2.953203 1.169677
v -0.1411576 2.944209 1.197492
v -0.187267 2.99194 1.120775
v -0.1480458 3.037838 1.096207
v -0.1893453 2.921642 1.184046
v -0.1409138 2.898222 1.211797
v -0.2015667 2.8211 1.094971
v -0.1864533 2.998706 1.097563
v -0.1899775 2.883644 1.195272
v -0.1496842 3.036137 1.069081
v -0.1904852 2.843489 1.201084
v -0.1409838 2.848651 1.219272
v -0.1857582 2.997355 1.074574
v -0.1519653 3.027997 1.040142
v -0.1907917 2.802493 1.202343
v -0.1403773 2.79789 1.220463
v -0.1854942 2.990474 1.052055
v -0.1538639 3.014983 1.012385
v -0.1909352 2.762266 1.198112
v -0.140465 2.748662 1.21494
v -0.1851151 2.979549 1.02962
v -0.1910104 2.725407 1.186515
v -0.1851136 2.95433 1.009928
v -0.155757 2.985324 0.9891269
v -0.1415715 2.703967 1.200665
v -0.1575371 2.944178 0.9732817
v -0.1910977 2.694067 1.172029
v -0.1432016 2.666055 1.182437
v -0.1910059 2.669606 1.148969
v -0.1455867 2.636226 1.154099
v -0.1908232 2.652003 1.125108
v -0.1477961 2.614752 1.126323
v -0.1906064 2.643572 1.101882
v -0.1500997 2.604354 1.099767
v -0.1526052 2.604282 1.072807
v -0.1855477 2.919887 0.9970072
v -0.1903262 2.64381 1.078994
v -0.1859834 2.881017 0.988512
v -0.1900055 2.650943 1.056786
v -0.1591112 2.896273 0.9623758
v -0.1551125 2.612684 1.045707
v -0.1866158 2.839619 0.9835635
v -0.1600859 2.844609 0.9560155
v -0.1896771 2.663177 1.035113
v -0.1570455 2.62751 1.018957
v -0.1872979 2.797451 0.9849809
v -0.1605825 2.791623 0.9578038
v -0.1889982 2.685275 1.0142
v -0.1584923 2.653909 0.9939649
v -0.1879158 2.756257 0.9908218
v -0.1605625 2.740224 0.965113
v -0.1597654 2.693116 0.9767315
v -0.1884939 2.717985 1.000055
v -0.1234892 3.035031 1.095949
v -0.1193757 3.026358 1.121283
v -0.1278842 3.033731 1.069127
v -0.1149643 3.007836 1.148814
v -0.1325725 3.025339 1.040488
v -0.1373488 3.012289 1.010976
v -0.1172008 3.035949 1.095922
v -0.1217105 3.034629 1.0689
v -0.1264812 3.026176 1.04024
v -0.1129586 3.02725 1.121527
v -0.1313946 3.012935 1.010423
v -0.1229209 3.030813 1.03931
v -0.1181187 3.039414 1.06842
v -0.1279461 3.017084 1.008422
v -0.1134917 3.040776 1.096194
v -0.132296 2.986946 0.9827273
v -0.1090836 3.031897 1.122729
v -0.1355024 2.984111 0.9865075
v -0.1353145 2.945037 0.9663106
v -0.108402 3.008662 1.149375
v -0.104315 3.012854 1.151684
v -0.1412701 2.983809 0.987915
v -0.1384679 2.943602 0.9706233
v -0.1375144 2.896928 0.955533
v -0.1442017 2.943663 0.9721422
v -0.1407094 2.896307 0.9599324
v -0.1390888 2.844917 0.9491177
v -0.1464731 2.896459 0.961408
v -0.1423318 2.844762 0.953497
v -0.1393643 2.791667 0.9506903
v -0.1481448 2.84484 0.9549262
v -0.1426265 2.791874 0.9550972
v -0.1386008 2.739928 0.9580268
v -0.148507 2.791826 0.9565493
v -0.1418827 2.740669 0.9624
v -0.1369696 2.692236 0.9697082
v -0.1478454 2.740591 0.9638805
v -0.1402899 2.693931 0.9739006
v -0.134105 2.651665 0.9876843
v -0.1463439 2.694037 0.9753789
v -0.1375313 2.654893 0.9911898
v -0.1297013 2.6251 1.013459
v -0.1437141 2.655437 0.992466
v -0.133249 2.629356 1.015905
v -0.1248434 2.609874 1.040826
v -0.1395665 2.630121 1.016916
v -0.1284482 2.614495 1.042589
v -0.1197326 2.601047 1.069056
v -0.1348709 2.61534 1.043386
v -0.1234349 2.605841 1.070036
v -0.114487 2.60108 1.097893
v -0.1299464 2.606753 1.070625
v -0.1183696 2.605896 1.097743
v -0.1093151 2.611741 1.126627
v -0.1249988 2.606848 1.097904
v -0.1134331 2.616303 1.12507
v -0.1040287 2.633893 1.156655
v -0.1201884 2.617206 1.124691
v -0.1083575 2.637914 1.153818
v -0.09896842 2.664433 1.185783
v -0.1152211 2.63869 1.152963
v -0.1034097 2.667728 1.182365
v -0.09506561 2.702969 1.208014
v -0.1103473 2.66834 1.181244
v -0.09961215 2.705245 1.204083
v -0.09262474 2.748406 1.221911
v -0.10657 2.705619 1.202933
v -0.09724376 2.749522 1.217584
v -0.09164459 2.797998 1.22751
v -0.1042218 2.749624 1.216318
v -0.09628028 2.798173 1.223023
v -0.09188762 2.849041 1.226085
v -0.1032529 2.798112 1.221725
v -0.09649921 2.848541 1.221622
v -0.09316097 2.898817 1.218674
v -0.1034471 2.848428 1.220342
v -0.09771351 2.897592 1.214375
v -0.09552864 2.945068 1.204787
v -0.1046173 2.897393 1.213133
v -0.09997894 2.942798 1.200845
v -0.09926601 2.983589 1.182517
v -0.1068074 2.942379 1.199733
v -0.1035712 2.980211 1.179173
v -0.1103001 2.979548 1.17822
vt 0.7511434 0.5743781
vt 0.7530213 0.5724867
vt 0.7500862 0.5710781
vt 0.7541845 0.5706086
vt 0.7486256 0.5723312
vt 0.7487495 0.5757284
vt 0.7510736 0.5697286
vt 0.7547221 0.5689307
vt 0.7467573 0.5730998
vt 0.7457273 0.5767339
vt 0.7406096 0.5674936
vt 0.7515768 0.5684589
vt 0.7444559 0.5737363
vt 0.754739 0.5671299
vt 0.741984 0.5740744
vt 0.7424417 0.577262
vt 0.7516243 0.5671309
vt 0.7542791 0.5651444
vt 0.7394527 0.5741331
vt 0.7390655 0.5773692
vt 0.7513239 0.5657516
vt 0.7534426 0.5632188
vt 0.7369857 0.5738684
vt 0.7357986 0.5769475
vt 0.7507652 0.564303
vt 0.7347521 0.5732117
vt 0.7492812 0.5628708
vt 0.7516249 0.5613825
vt 0.732845 0.5759653
vt 0.7489621 0.5599226
vt 0.7328894 0.5724188
vt 0.7304186 0.5746263
vt 0.7313882 0.571195
vt 0.7284484 0.5727834
vt 0.7302884 0.5699347
vt 0.7271208 0.5709207
vt 0.7297095 0.5686994
vt 0.7264872 0.5691854
vt 0.7264144 0.5674195
vt 0.7471177 0.5617815
vt 0.7296022 0.567426
vt 0.7445818 0.5610135
vt 0.7298914 0.5661035
vt 0.7457362 0.5588842
vt 0.7268479 0.5655636
vt 0.7418326 0.5605847
vt 0.7421907 0.5583072
vt 0.7305071 0.5647223
vt 0.72773 0.5636721
vt 0.7390071 0.5606926
vt 0.7385318 0.5584359
vt 0.7317623 0.563255
vt 0.7293507 0.5617806
vt 0.7362673 0.5612364
vt 0.7350147 0.5591377
vt 0.7318706 0.5602684
vt 0.7337883 0.5620976
vt 0.7559218 0.5693056
vt 0.7553993 0.5714111
vt 0.755851 0.5671436
vt 0.7541435 0.5736625
vt 0.7552149 0.5648984
vt 0.7539922 0.5627251
vt 0.7561039 0.5694011
vt 0.7560539 0.5671843
vt 0.7554235 0.5648831
vt 0.755569 0.5715569
vt 0.7541673 0.5626491
vt 0.7557401 0.5648454
vt 0.756373 0.5671983
vt 0.7544575 0.5625377
vt 0.7564211 0.5694561
vt 0.7523338 0.5604466
vt 0.7558814 0.5716638
vt 0.7521113 0.5606594
vt 0.7494563 0.5587814
vt 0.7542903 0.5738563
vt 0.7545727 0.5740466
vt 0.7519832 0.5608189
vt 0.7493128 0.5590602
vt 0.7460357 0.5576549
vt 0.7492185 0.5592985
vt 0.7459618 0.5579618
vt 0.742287 0.5570349
vt 0.7459095 0.5582385
vt 0.7422654 0.5573639
vt 0.7384356 0.5571642
vt 0.7422496 0.557673
vt 0.7384626 0.5574861
vt 0.734716 0.5578772
vt 0.7384843 0.5577886
vt 0.7348006 0.5581858
vt 0.731341 0.5591043
vt 0.7348661 0.5584754
vt 0.7315035 0.5593796
vt 0.7285244 0.5608134
vt 0.7316226 0.5596295
vt 0.7287832 0.5610218
vt 0.726596 0.5628887
vt 0.7289582 0.5612025
vt 0.7268984 0.5630121
vt 0.7253896 0.5650576
vt 0.7270947 0.5631157
vt 0.7257041 0.5651289
vt 0.7247478 0.5673531
vt 0.7259149 0.5651689
vt 0.7250724 0.5673688
vt 0.7247552 0.5696885
vt 0.7252841 0.5673442
vt 0.7250764 0.569639
vt 0.7254312 0.5720458
vt 0.7252683 0.5695453
vt 0.725741 0.5719125
vt 0.7269225 0.574523
vt 0.725913 0.5717511
vt 0.7271992 0.5742952
vt 0.7291789 0.576793
vt 0.7273468 0.5740699
vt 0.7294073 0.5765119
vt 0.7320035 0.5785529
vt 0.7295243 0.5762473
vt 0.7321705 0.5782277
vt 0.7353066 0.5797464
vt 0.7322587 0.577929
vt 0.7353982 0.5793866
vt 0.7389288 0.58031
vt 0.7354451 0.5790606
vt 0.7389497 0.5799326
vt 0.7426702 0.5802345
vt 0.7389601 0.5795888
vt 0.7426301 0.5798584
vt 0.7463045 0.5795478
vt 0.7426063 0.5795124
vt 0.7461997 0.5791897
vt 0.7496191 0.5782376
vt 0.7461403 0.5788586
vt 0.7494467 0.5779238
vt 0.752396 0.5764149
vt 0.7493542 0.5776416
vt 0.7521636 0.5761479
vt 0.7520456 0.57591
vn 0.2528303 -0.5632017 -0.7866898
vn 0.312348 -0.7275428 -0.6108358
vn 0.8795733 -0.3789178 -0.2877013
vn 0.3957448 -0.8165195 -0.4203355
vn 0.8343763 -0.3137751 -0.453168
vn 0.2477893 -0.3497381 -0.9034842
vn 0.909664 -0.3851888 -0.1553739
vn 0.4674605 -0.8737061 -0.1346042
vn 0.7961042 -0.2153941 -0.5655295
vn 0.2249386 -0.2207293 -0.9490422
vn 0.9995611 -0.009377513 0.02809946
vn 0.949816 -0.3127589 -0.00559509
vn 0.7773711 -0.1399862 -0.6132683
vn 0.5104321 -0.8529288 0.1094143
vn 0.7654191 -0.06199516 -0.640539
vn 0.2125713 -0.08422408 -0.973509
vn 0.9641988 -0.256565 0.06704579
vn 0.5458525 -0.798382 0.2542268
vn 0.7588795 0.01832086 -0.6509733
vn 0.2092727 0.04503591 -0.9768197
vn 0.9584683 -0.2612619 0.114372
vn 0.5823262 -0.6621809 0.4716063
vn 0.8505903 0.1015446 -0.5159308
vn 0.219812 0.2043977 -0.953889
vn 0.9301026 -0.2725847 0.2461847
vn 0.9009067 0.1494129 -0.4074835
vn 0.9244272 -0.1815962 0.3353464
vn 0.5983134 -0.4337125 0.6737318
vn 0.2472474 0.3538117 -0.9020455
vn 0.5888938 -0.2643276 0.7637637
vn 0.8693672 0.2631581 -0.4182685
vn 0.2469422 0.5505291 -0.7974569
vn 0.870441 0.363648 -0.3318018
vn 0.2990896 0.6973392 -0.6513552
vn 0.8964097 0.3861642 -0.2175477
vn 0.360576 0.7973018 -0.4840402
vn 0.9198151 0.3869142 -0.0650973
vn 0.4397409 0.8739787 -0.2068558
vn 0.5019209 0.8613895 0.07799794
vn 0.9361677 -0.1042327 0.3357462
vn 0.9543223 0.2922467 0.06213485
vn 0.9535888 -0.06047428 0.2949766
vn 0.9694931 0.2182944 0.1114934
vn 0.5863785 -0.1586859 0.7943419
vn 0.5467212 0.7878644 0.2834885
vn 0.9394442 -0.03041668 0.3413495
vn 0.5830805 -0.04659391 0.8110772
vn 0.9570291 0.2163074 0.1931487
vn 0.5761474 0.6693144 0.4691188
vn 0.9396687 0.01652632 0.3416867
vn 0.581533 0.07046299 0.8104655
vn 0.9227686 0.187321 0.3367625
vn 0.5905058 0.4779488 0.6502829
vn 0.9530431 0.04099948 0.3000467
vn 0.5809207 0.164743 0.7971141
vn 0.583505 0.2845427 0.7606295
vn 0.9346353 0.09329481 0.3431516
vn -0.06152889 -0.9866168 -0.1510017
vn -0.06858222 -0.884989 -0.4605335
vn -0.05209724 -0.9842898 0.1686996
vn -0.06597008 -0.7709736 -0.6334412
vn -0.06739587 -0.9346815 0.3490388
vn -0.01770847 -0.7836659 0.6209301
vn 0.5143964 -0.8313518 -0.2103581
vn 0.5206676 -0.8516539 0.05992347
vn 0.5119462 -0.8297795 0.2222092
vn 0.4861736 -0.7392341 -0.4660132
vn 0.5277941 -0.7073188 0.4702483
vn 0.7984719 -0.596072 0.0845042
vn 0.7976531 -0.6021491 -0.0341453
vn 0.8005167 -0.540855 0.2581646
vn 0.7803009 -0.5875575 -0.2142583
vn 0.8273388 -0.3502266 0.4391489
vn 0.7546501 -0.528769 -0.388467
vn 0.5759583 -0.4460057 0.6850919
vn 0.8212007 -0.2096322 0.5307389
vn 0.4781154 -0.6374966 -0.6041554
vn 0.7436817 -0.4555669 -0.4892815
vn 0.08093169 -0.4997017 0.8624085
vn 0.5651419 -0.2680151 0.7802452
vn 0.8109683 -0.1285353 0.5707968
vn 0.1226624 -0.2970476 0.9469512
vn 0.5515825 -0.1628262 0.8180736
vn 0.8036456 -0.04141653 0.5936652
vn 0.1297931 -0.1773814 0.9755458
vn 0.5459767 -0.04834016 0.8364046
vn 0.803799 0.05338735 0.5925006
vn 0.140182 -0.05036852 0.9888438
vn 0.5434074 0.07404567 0.8361971
vn 0.8034744 0.1304114 0.58088
vn 0.1470128 0.0855938 0.9854242
vn 0.540532 0.1707714 0.8238096
vn 0.806031 0.2277692 0.5462922
vn 0.1364498 0.1911725 0.9720261
vn 0.5446194 0.2902408 0.7868609
vn 0.811901 0.3891756 0.4351539
vn 0.122443 0.3220628 0.9387669
vn 0.5534492 0.4928904 0.6713814
vn 0.8098453 0.5271942 0.2573261
vn 0.08259573 0.5524004 0.8294768
vn 0.5431759 0.7030762 0.4589592
vn 0.8030279 0.5867909 0.1040321
vn 0.01728609 0.788833 0.6143644
vn 0.5250677 0.8115008 0.2564571
vn 0.7853004 0.6169866 -0.05129091
vn -0.01537762 0.9172345 0.3980508
vn 0.5116062 0.8584377 0.03665674
vn 0.7576586 0.6030365 -0.2496003
vn -0.03784561 0.9876952 0.1517426
vn 0.4888865 0.8339016 -0.256121
vn 0.7395504 0.5228405 -0.423914
vn -0.05928494 0.9791835 -0.1941266
vn 0.4758403 0.7198329 -0.5053876
vn 0.7396449 0.4325088 -0.5156175
vn -0.05709142 0.8621243 -0.5034702
vn 0.4805752 0.6061754 -0.6337184
vn 0.7207251 0.3520647 -0.5971649
vn -0.03849008 0.739113 -0.6724808
vn 0.4770876 0.4806376 -0.7357818
vn 0.7006757 0.2380407 -0.6725995
vn -0.02528407 0.5925542 -0.8051338
vn 0.4573712 0.318838 -0.830153
vn 0.6940041 0.1206782 -0.7097852
vn 0.06435015 0.3814391 -0.9221514
vn 0.4533507 0.160469 -0.8767684
vn 0.6957925 0.02437465 -0.7178292
vn 0.05658356 0.1930154 -0.9795629
vn 0.453987 0.03249566 -0.8904156
vn 0.6973833 -0.05215979 -0.7147977
vn 0.05809417 0.03936771 -0.9975346
vn 0.4536432 -0.07024933 -0.8884103
vn 0.699016 -0.1295621 -0.7032712
vn 0.05289618 -0.08450978 -0.9950177
vn 0.4550371 -0.1741036 -0.8732864
vn 0.7088178 -0.2342388 -0.6653643
vn 0.05557478 -0.2087695 -0.9763846
vn 0.4640464 -0.31549 -0.827724
vn 0.7318551 -0.3595933 -0.5788616
vn 0.06312796 -0.3756303 -0.9246171
vn 0.4838883 -0.4942783 -0.722178
vn -0.03885351 -0.6070724 -0.7936961
g Headlight_0_0
f 3/3/3 2/2/2 1/1/1
f 4/4/4 2/2/2 3/3/3
f 5/5/5 3/3/3 1/1/1
f 5/5/5 1/1/1 6/6/6
f 7/7/7 4/4/4 3/3/3
f 8/8/8 4/4/4 7/7/7
f 9/9/9 5/5/5 6/6/6
f 9/9/9 6/6/6 10/10/10
f 5/5/5 11/11/11 3/3/3
f 11/11/11 7/7/7 3/3/3
f 11/11/11 5/5/5 9/9/9
f 11/11/11 12/12/12 7/7/7
f 12/12/12 8/8/8 7/7/7
f 11/11/11 9/9/9 13/13/13
f 13/13/13 9/9/9 10/10/10
f 14/14/14 8/8/8 12/12/12
f 15/15/15 13/13/13 10/10/10
f 11/11/11 13/13/13 15/15/15
f 16/16/16 15/15/15 10/10/10
f 17/17/17 14/14/14 12/12/12
f 11/11/11 17/17/17 12/12/12
f 18/18/18 14/14/14 17/17/17
f 15/15/15 16/16/16 19/19/19
f 11/11/11 15/15/15 19/19/19
f 16/16/16 20/20/20 19/19/19
f 21/21/21 18/18/18 17/17/17
f 11/11/11 21/21/21 17/17/17
f 22/22/22 18/18/18 21/21/21
f 19/19/19 20/20/20 23/23/23
f 11/11/11 19/19/19 23/23/23
f 20/20/20 24/24/24 23/23/23
f 25/25/25 22/22/22 21/21/21
f 11/11/11 25/25/25 21/21/21
f 11/11/11 23/23/23 26/26/26
f 23/23/23 24/24/24 26/26/26
f 11/11/11 27/27/27 25/25/25
f 28/28/28 22/22/22 25/25/25
f 27/27/27 28/28/28 25/25/25
f 24/24/24 29/29/29 26/26/26
f 28/28/28 27/27/27 30/30/30
f 26/26/26 29/29/29 31/31/31
f 11/11/11 26/26/26 31/31/31
f 29/29/29 32/32/32 31/31/31
f 31/31/31 32/32/32 33/33/33
f 11/11/11 31/31/31 33/33/33
f 32/32/32 34/34/34 33/33/33
f 33/33/33 34/34/34 35/35/35
f 11/11/11 33/33/33 35/35/35
f 34/34/34 36/36/36 35/35/35
f 35/35/35 36/36/36 37/37/37
f 11/11/11 35/35/35 37/37/37
f 36/36/36 38/38/38 37/37/37
f 38/38/38 39/39/39 37/37/37
f 27/27/27 40/40/40 30/30/30
f 11/11/11 40/40/40 27/27/27
f 41/41/41 11/11/11 37/37/37
f 39/39/39 41/41/41 37/37/37
f 11/11/11 42/42/42 40/40/40
f 40/40/40 42/42/42 30/30/30
f 11/11/11 41/41/41 43/43/43
f 41/41/41 39/39/39 43/43/43
f 42/42/42 44/44/44 30/30/30
f 39/39/39 45/45/45 43/43/43
f 42/42/42 46/46/46 44/44/44
f 11/11/11 46/46/46 42/42/42
f 46/46/46 47/47/47 44/44/44
f 43/43/43 45/45/45 48/48/48
f 11/11/11 43/43/43 48/48/48
f 45/45/45 49/49/49 48/48/48
f 46/46/46 50/50/50 47/47/47
f 11/11/11 50/50/50 46/46/46
f 50/50/50 51/51/51 47/47/47
f 48/48/48 49/49/49 52/52/52
f 11/11/11 48/48/48 52/52/52
f 49/49/49 53/53/53 52/52/52
f 50/50/50 54/54/54 51/51/51
f 50/50/50 11/11/11 54/54/54
f 54/54/54 55/55/55 51/51/51
f 56/56/56 55/55/55 54/54/54
f 11/11/11 52/52/52 57/57/57
f 52/52/52 53/53/53 57/57/57
f 11/11/11 57/57/57 54/54/54
f 57/57/57 56/56/56 54/54/54
f 53/53/53 56/56/56 57/57/57
g Headlight_0_1
f 8/8/8 58/58/58 4/4/4
f 58/58/58 8/8/8 14/14/14
f 58/58/58 59/59/59 4/4/4
f 4/4/4 59/59/59 2/2/2
f 60/60/60 58/58/58 14/14/14
f 60/60/60 14/14/14 18/18/18
f 59/59/59 61/61/61 2/2/2
f 2/2/2 61/61/61 1/1/1
f 62/62/62 60/60/60 18/18/18
f 62/62/62 18/18/18 22/22/22
f 63/63/63 62/62/62 22/22/22
f 63/63/63 22/22/22 28/28/28
f 58/58/58 64/64/64 59/59/59
f 60/60/60 65/65/65 58/58/58
f 65/65/65 64/64/64 58/58/58
f 62/62/62 66/66/66 60/60/60
f 66/66/66 65/65/65 60/60/60
f 59/59/59 67/67/67 61/61/61
f 64/64/64 67/67/67 59/59/59
f 63/63/63 68/68/68 62/62/62
f 68/68/68 66/66/66 62/62/62
f 65/65/65 66/66/66 69/69/69
f 70/70/70 65/65/65 69/69/69
f 64/64/64 65/65/65 70/70/70
f 69/69/69 66/66/66 71/71/71
f 66/66/66 68/68/68 71/71/71
f 72/72/72 64/64/64 70/70/70
f 67/67/67 64/64/64 72/72/72
f 71/71/71 68/68/68 73/73/73
f 74/74/74 67/67/67 72/72/72
f 68/68/68 75/75/75 73/73/73
f 75/75/75 68/68/68 63/63/63
f 73/73/73 75/75/75 76/76/76
f 77/77/77 67/67/67 74/74/74
f 78/78/78 77/77/77 74/74/74
f 67/67/67 77/77/77 61/61/61
f 79/79/79 75/75/75 63/63/63
f 79/79/79 63/63/63 28/28/28
f 75/75/75 80/80/80 76/76/76
f 80/80/80 75/75/75 79/79/79
f 76/76/76 80/80/80 81/81/81
f 79/79/79 28/28/28 82/82/82
f 82/82/82 80/80/80 79/79/79
f 28/28/28 30/30/30 82/82/82
f 80/80/80 83/83/83 81/81/81
f 83/83/83 80/80/80 82/82/82
f 81/81/81 83/83/83 84/84/84
f 85/85/85 82/82/82 30/30/30
f 85/85/85 83/83/83 82/82/82
f 44/44/44 85/85/85 30/30/30
f 83/83/83 86/86/86 84/84/84
f 86/86/86 83/83/83 85/85/85
f 84/84/84 86/86/86 87/87/87
f 88/88/88 85/85/85 44/44/44
f 88/88/88 86/86/86 85/85/85
f 47/47/47 88/88/88 44/44/44
f 88/88/88 47/47/47 51/51/51
f 86/86/86 89/89/89 87/87/87
f 89/89/89 86/86/86 88/88/88
f 87/87/87 89/89/89 90/90/90
f 91/91/91 88/88/88 51/51/51
f 91/91/91 89/89/89 88/88/88
f 91/91/91 51/51/51 55/55/55
f 89/89/89 92/92/92 90/90/90
f 92/92/92 89/89/89 91/91/91
f 90/90/90 92/92/92 93/93/93
f 94/94/94 91/91/91 55/55/55
f 94/94/94 92/92/92 91/91/91
f 94/94/94 55/55/55 56/56/56
f 92/92/92 95/95/95 93/93/93
f 95/95/95 92/92/92 94/94/94
f 93/93/93 95/95/95 96/96/96
f 97/97/97 94/94/94 56/56/56
f 97/97/97 95/95/95 94/94/94
f 97/97/97 56/56/56 53/53/53
f 95/95/95 98/98/98 96/96/96
f 98/98/98 95/95/95 97/97/97
f 96/96/96 98/98/98 99/99/99
f 100/100/100 97/97/97 53/53/53
f 100/100/100 98/98/98 97/97/97
f 98/98/98 101/101/101 99/99/99
f 101/101/101 98/98/98 100/100/100
f 99/99/99 101/101/101 102/102/102
f 103/103/103 100/100/100 53/53/53
f 103/103/103 101/101/101 100/100/100
f 49/49/49 103/103/103 53/53/53
f 101/101/101 104/104/104 102/102/102
f 104/104/104 101/101/101 103/103/103
f 102/102/102 104/104/104 105/105/105
f 106/106/106 103/103/103 49/49/49
f 106/106/106 104/104/104 103/103/103
f 45/45/45 106/106/106 49/49/49
f 106/106/106 45/45/45 39/39/39
f 104/104/104 107/107/107 105/105/105
f 107/107/107 104/104/104 106/106/106
f 105/105/105 107/107/107 108/108/108
f 109/109/109 106/106/106 39/39/39
f 109/109/109 107/107/107 106/106/106
f 109/109/109 39/39/39 38/38/38
f 107/107/107 110/110/110 108/108/108
f 110/110/110 107/107/107 109/109/109
f 108/108/108 110/110/110 111/111/111
f 112/112/112 109/109/109 38/38/38
f 112/112/112 110/110/110 109/109/109
f 112/112/112 38/38/38 36/36/36
f 110/110/110 113/113/113 111/111/111
f 113/113/113 110/110/110 112/112/112
f 111/111/111 113/113/113 114/114/114
f 115/115/115 112/112/112 36/36/36
f 115/115/115 113/113/113 112/112/112
f 113/113/113 116/116/116 114/114/114
f 116/116/116 113/113/113 115/115/115
f 114/114/114 116/116/116 117/117/117
f 118/118/118 115/115/115 36/36/36
f 118/118/118 116/116/116 115/115/115
f 34/34/34 118/118/118 36/36/36
f 116/116/116 119/119/119 117/117/117
f 119/119/119 116/116/116 118/118/118
f 117/117/117 119/119/119 120/120/120
f 118/118/118 34/34/34 121/121/121
f 121/121/121 119/119/119 118/118/118
f 34/34/34 32/32/32 121/121/121
f 121/121/121 32/32/32 29/29/29
f 119/119/119 122/122/122 120/120/120
f 122/122/122 119/119/119 121/121/121
f 120/120/120 122/122/122 123/123/123
f 124/124/124 121/121/121 29/29/29
f 124/124/124 122/122/122 121/121/121
f 122/122/122 125/125/125 123/123/123
f 125/125/125 122/122/122 124/124/124
f 123/123/123 125/125/125 126/126/126
f 127/127/127 124/124/124 29/29/29
f 127/127/127 125/125/125 124/124/124
f 24/24/24 127/127/127 29/29/29
f 125/125/125 128/128/128 126/126/126
f 128/128/128 125/125/125 127/127/127
f 126/126/126 128/128/128 129/129/129
f 130/130/130 127/127/127 24/24/24
f 130/130/130 128/128/128 127/127/127
f 20/20/20 130/130/130 24/24/24
f 128/128/128 131/131/131 129/129/129
f 131/131/131 128/128/128 130/130/130
f 129/129/129 131/131/131 132/132/132
f 133/133/133 130/130/130 20/20/20
f 133/133/133 131/131/131 130/130/130
f 16/16/16 133/133/133 20/20/20
f 133/133/133 16/16/16 10/10/10
f 131/131/131 134/134/134 132/132/132
f 134/134/134 131/131/131 133/133/133
f 132/132/132 134/134/134 135/135/135
f 136/136/136 133/133/133 10/10/10
f 136/136/136 134/134/134 133/133/133
f 136/136/136 10/10/10 6/6/6
f 134/134/134 137/137/137 135/135/135
f 137/137/137 134/134/134 136/136/136
f 135/135/135 137/137/137 138/138/138
f 139/139/139 136/136/136 6/6/6
f 139/139/139 137/137/137 136/136/136
f 139/139/139 6/6/6 1/1/1
f 137/137/137 140/140/140 138/138/138
f 140/140/140 137/137/137 139/139/139
f 138/138/138 140/140/140 78/78/78
f 140/140/140 77/77/77 78/78/78
f 141/141/141 139/139/139 1/1/1
f 141/141/141 140/140/140 139/139/139
f 77/77/77 140/140/140 141/141/141
f 61/61/61 141/141/141 1/1/1
f 61/61/61 77/77/77 141/141/141
