g HullRear_1
v 0.1286852 1.382633 2.002077
v 0.1299595 1.394548 2.000175
v 0.248953 1.414675 2.001678
v 0.2487944 1.403924 2.003575
v 0.134013 1.247425 1.96641
v 0.3069667 1.453747 2.010825
v 0.3157665 1.446334 2.013736
v 0.3482375 1.509306 2.024089
v 0.3608069 1.506422 2.028126
v 0.3541107 1.517327 2.024827
v 0.3633052 1.51772 2.026081
v 0.5717422 1.519148 2.023852
v 0.5703833 1.507873 2.025885
v 0.7637753 1.519005 2.02143
v 0.7634845 1.507724 2.02345
v 0.9429767 1.517881 2.018921
v 0.9422253 1.506585 2.020948
v 1.107868 1.516051 2.016411
v 0.9300594 1.273765 1.963175
v 1.07615 1.282574 1.963553
v 1.106171 1.504737 2.018452
v 1.25595 1.513731 2.013985
v 1.253671 1.502387 2.016036
v 1.267134 1.512134 2.012163
v 1.265612 1.500495 2.010454
v 1.216333 1.291709 1.959135
v 1.203611 1.290828 1.964024
v 1.161001 1.076797 1.906366
v 1.147576 1.073806 1.910727
v 1.101516 0.8837805 1.859107
v 1.042617 1.051673 1.906524
v 1.086213 0.8754514 1.86214
v 1.035916 0.7250883 1.820479
v 1.016806 0.7081632 1.821382
v 0.9729127 0.626986 1.796913
v 1.00741 0.8316982 1.852233
v 0.9746363 0.6423479 1.805532
v 0.8886785 0.5519908 1.779359
v 0.9161848 1.028469 1.90232
v 0.901807 0.7864586 1.842289
v 0.8882825 0.5653116 1.787438
v 0.7764011 0.502404 1.768461
v 0.7746149 0.5149778 1.776327
v 0.6126665 0.4690538 1.762226
v 0.772351 0.7529636 1.835563
v 0.594402 0.7282377 1.831621
v 0.6092864 0.4812186 1.76998
v 0.1338031 0.4290368 1.757961
v 0.1338381 0.4411105 1.765764
v 0.1339914 0.6987604 1.829894
v 0.7673016 1.018459 1.901679
v 0.7859834 1.061716 1.912208
v 0.737735 0.9813516 1.892814
v 0.7925076 1.108173 1.923686
v 0.699299 0.9529207 1.886218
v 0.6546122 0.9351048 1.88234
v 0.6067209 0.9291176 1.881445
v 0.5588878 0.9353676 1.883589
v 0.5143734 0.9534284 1.888627
v 0.4762111 0.9820692 1.89622
v 0.7864294 1.154664 1.935327
v 0.1340189 0.9729132 1.898101
v 0.4470014 1.019338 1.905851
v 0.4287352 1.062696 1.916863
v 0.4226569 1.109188 1.928505
v 0.4291811 1.155644 1.939984
v 0.4478631 1.1989 1.950517
v 0.4774296 1.236008 1.959387
v 0.5158657 1.264439 1.96599
v 0.5605523 1.282255 1.969875
v 0.6084438 1.288242 1.97077
v 0.6562765 1.281992 1.968622
v 0.7007912 1.263932 1.963575
v 0.7667071 1.265461 1.963138
v 0.7389535 1.235291 1.955976
v 0.7674001 1.198995 1.946593
vt 0.1463414 0.7476278
vt 0.1461944 0.7460958
vt 0.131278 0.7434349
vt 0.1312548 0.7448322
vt 0.1457207 0.7652513
vt 0.1238602 0.7383692
vt 0.1226649 0.7393091
vt 0.118387 0.7311618
vt 0.1167212 0.7315428
vt 0.1176178 0.7301325
vt 0.1164221 0.7300884
vt 0.0899072 0.7302682
vt 0.09010214 0.7317232
vt 0.0654681 0.7305928
vt 0.06552777 0.7320509
vt 0.0426528 0.73105
vt 0.042776 0.7325088
vt 0.02166943 0.7316745
vt 0.0446476 0.7629964
vt 0.02605801 0.7620965
vt 0.02193084 0.7331328
vt 0.003227646 0.732669
vt 0.003634419 0.7340798
vt 0.001795352 0.7329262
vt 0.002010572 0.7344191
vt 0.008105154 0.7612876
vt 0.009847936 0.7612125
vt 0.01541914 0.7894177
vt 0.0172466 0.7896016
vt 0.02334169 0.8145882
vt 0.03063909 0.7922959
vt 0.02541163 0.8154482
vt 0.03198597 0.8350909
vt 0.03453903 0.8370082
vt 0.03998732 0.8475906
vt 0.03551242 0.8209826
vt 0.0398877 0.8453738
vt 0.05062235 0.8573294
vt 0.0467436 0.7950993
vt 0.04892036 0.8266704
vt 0.05074595 0.8553599
vt 0.06486472 0.8637959
vt 0.06512904 0.8619162
vt 0.08568238 0.868082
vt 0.06532266 0.8308739
vt 0.08791164 0.8339099
vt 0.08612856 0.8662518
vt 0.1463358 0.872985
vt 0.1463414 0.8711547
vt 0.1462095 0.8372986
vt 0.06565673 0.7961667
vt 0.06323233 0.790536
vt 0.06945296 0.800976
vt 0.06234716 0.7844636
vt 0.07436499 0.8046382
vt 0.08006117 0.8069088
vt 0.0861536 0.8076268
vt 0.0922277 0.8067432
vt 0.09786919 0.8043181
vt 0.1026975 0.8005157
vt 0.0630634 0.7783647
vt 0.145977 0.8012858
vt 0.1063763 0.7955924
vt 0.1086564 0.7898841
vt 0.1093825 0.7837801
vt 0.1085015 0.7776974
vt 0.1060751 0.7720509
vt 0.1022684 0.7672257
vt 0.09734096 0.7635506
vt 0.09163444 0.7612861
vt 0.08553859 0.7605788
vt 0.07946158 0.7614732
vt 0.07382134 0.7639105
vt 0.06543651 0.7638146
vt 0.06900286 0.767724
vt 0.06542975 0.7725248
vn 0.0228612 -0.1975034 0.9800356
vn -0.04141195 0.1677029 0.9849674
vn -0.1139135 0.1584806 0.9807689
vn 0.002207689 -0.185785 0.982588
vn 0.0130216 -0.2421235 0.9701581
vn -0.2770436 0.06701235 0.9585177
vn 0.006152932 -0.2358256 0.9717759
vn -0.2980513 0.02046605 0.9543304
vn -0.02041853 -0.1157934 0.9930634
vn -0.2160284 0.1588245 0.9633828
vn -0.0009770211 0.175646 0.9844529
vn 0.01105511 0.1760926 0.9843115
vn 0.01202724 -0.2146763 0.9766113
vn 0.01373845 0.1758646 0.9843186
vn 0.01219062 -0.2209442 0.9752103
vn 0.01595804 0.175522 0.9843462
vn 0.0122652 -0.2222635 0.9749095
vn 0.0179979 0.1748806 0.9844251
vn 0.0120478 -0.2414129 0.9703476
vn 0.01204802 -0.2414132 0.9703476
vn 0.01238974 -0.2211225 0.9751673
vn 0.04077527 0.159018 0.9864333
vn 0.04326738 -0.2277927 0.9727479
vn 0.2998919 -0.03539837 0.9533162
vn 0.3597794 -0.2905677 0.8866393
vn 0.3597063 -0.3055428 0.8816206
vn 0.0458055 -0.2490197 0.9674146
vn 0.3556193 -0.3160427 0.8795748
vn 0.05278884 -0.2519098 0.9663099
vn 0.3574466 -0.3399009 0.8698846
vn 0.01204745 -0.2414131 0.9703476
vn 0.06846727 -0.2597719 0.9632397
vn 0.3897306 -0.3928773 0.8329211
vn 0.1188084 -0.2887152 0.9500148
vn 0.3416348 -0.4884866 0.8029113
vn 0.01204598 -0.2414118 0.970348
vn 0.03811108 -0.2626042 0.9641507
vn 0.1983883 -0.5040327 0.8405909
vn 0.01204793 -0.241413 0.9703476
vn 0.01204782 -0.2414126 0.9703478
vn 0.02391436 -0.2589651 0.9655906
vn 0.1028069 -0.517004 0.8497869
vn 0.01720979 -0.2576376 0.9660884
vn 0.04713736 -0.5322924 0.8452473
vn 0.01204779 -0.241413 0.9703476
vn 0.01192798 -0.2414347 0.9703437
vn 0.01378982 -0.2578621 0.9660833
vn 0.03751758 -0.5361143 0.8433113
vn 0.01321677 -0.2579985 0.966055
vn 0.01179968 -0.2414532 0.9703407
vn 0.01204799 -0.2414128 0.9703476
vn 0.01204858 -0.2414128 0.9703478
vn 0.01204688 -0.2414128 0.9703478
vn 0.01204807 -0.2414129 0.9703476
vn 0.01204828 -0.2414124 0.9703479
vn 0.01205015 -0.241414 0.9703475
vn 0.01199947 -0.241411 0.9703488
vn 0.01186844 -0.2414254 0.9703467
vn 0.01182763 -0.2414466 0.970342
vn 0.01181667 -0.241463 0.970338
vn 0.01204693 -0.2414111 0.9703482
vn 0.0117903 -0.2414386 0.9703445
vn 0.01179547 -0.2414937 0.9703307
vn 0.01178709 -0.241472 0.9703362
vn 0.01179267 -0.2414382 0.9703445
vn 0.01181359 -0.241396 0.9703547
vn 0.01181922 -0.2413708 0.970361
vn 0.01182047 -0.2413726 0.9703605
vn 0.01189739 -0.2415545 0.9703143
vn 0.01201829 -0.2414547 0.9703377
vn 0.01204765 -0.2414129 0.9703476
vn 0.01204864 -0.2414142 0.9703473
vn 0.01204859 -0.2414148 0.9703472
vn 0.01204764 -0.2414135 0.9703475
vn 0.012047 -0.2414157 0.970347
vn 0.01204736 -0.2414121 0.9703479
g HullRear_1_0
f 3/3/3 2/2/2 1/1/1
f 4/4/4 3/3/3 1/1/1
f 1/1/1 5/5/5 4/4/4
f 6/6/6 3/3/3 4/4/4
f 7/7/7 6/6/6 4/4/4
f 4/4/4 5/5/5 7/7/7
f 6/6/6 7/7/7 8/8/8
f 7/7/7 9/9/9 8/8/8
f 10/10/10 8/8/8 9/9/9
f 11/11/11 10/10/10 9/9/9
f 11/11/11 9/9/9 12/12/12
f 9/9/9 13/13/13 12/12/12
f 13/13/13 9/9/9 7/7/7
f 14/14/14 12/12/12 13/13/13
f 15/15/15 14/14/14 13/13/13
f 14/14/14 15/15/15 16/16/16
f 15/15/15 17/17/17 16/16/16
f 18/18/18 16/16/16 17/17/17
f 17/17/17 15/15/15 19/19/19
f 17/17/17 19/19/19 20/20/20
f 21/21/21 18/18/18 17/17/17
f 21/21/21 17/17/17 20/20/20
f 18/18/18 21/21/21 22/22/22
f 21/21/21 23/23/23 22/22/22
f 24/24/24 22/22/22 23/23/23
f 25/25/25 24/24/24 23/23/23
f 25/25/25 23/23/23 26/26/26
f 23/23/23 21/21/21 27/27/27
f 23/23/23 27/27/27 26/26/26
f 21/21/21 20/20/20 27/27/27
f 28/28/28 26/26/26 27/27/27
f 29/29/29 28/28/28 27/27/27
f 27/27/27 20/20/20 29/29/29
f 30/30/30 28/28/28 29/29/29
f 20/20/20 31/31/31 29/29/29
f 20/20/20 19/19/19 31/31/31
f 32/32/32 30/30/30 29/29/29
f 29/29/29 31/31/31 32/32/32
f 30/30/30 32/32/32 33/33/33
f 32/32/32 34/34/34 33/33/33
f 35/35/35 33/33/33 34/34/34
f 31/31/31 36/36/36 32/32/32
f 32/32/32 36/36/36 34/34/34
f 37/37/37 35/35/35 34/34/34
f 36/36/36 37/37/37 34/34/34
f 38/38/38 35/35/35 37/37/37
f 31/31/31 39/39/39 36/36/36
f 19/19/19 39/39/39 31/31/31
f 36/36/36 40/40/40 37/37/37
f 39/39/39 40/40/40 36/36/36
f 41/41/41 38/38/38 37/37/37
f 40/40/40 41/41/41 37/37/37
f 42/42/42 38/38/38 41/41/41
f 43/43/43 42/42/42 41/41/41
f 42/42/42 43/43/43 44/44/44
f 40/40/40 45/45/45 41/41/41
f 45/45/45 43/43/43 41/41/41
f 45/45/45 46/46/46 43/43/43
f 43/43/43 47/47/47 44/44/44
f 46/46/46 47/47/47 43/43/43
f 48/48/48 44/44/44 47/47/47
f 49/49/49 48/48/48 47/47/47
f 49/49/49 47/47/47 50/50/50
f 47/47/47 46/46/46 50/50/50
f 39/39/39 51/51/51 40/40/40
f 51/51/51 45/45/45 40/40/40
f 39/39/39 52/52/52 51/51/51
f 51/51/51 53/53/53 45/45/45
f 54/54/54 52/52/52 39/39/39
f 53/53/53 55/55/55 45/45/45
f 45/45/45 55/55/55 46/46/46
f 19/19/19 54/54/54 39/39/39
f 46/46/46 55/55/55 56/56/56
f 46/46/46 56/56/56 57/57/57
f 57/57/57 58/58/58 46/46/46
f 46/46/46 58/58/58 50/50/50
f 58/58/58 59/59/59 50/50/50
f 59/59/59 60/60/60 50/50/50
f 61/61/61 54/54/54 19/19/19
f 50/50/50 60/60/60 62/62/62
f 63/63/63 62/62/62 60/60/60
f 64/64/64 62/62/62 63/63/63
f 65/65/65 62/62/62 64/64/64
f 65/65/65 5/5/5 62/62/62
f 66/66/66 5/5/5 65/65/65
f 67/67/67 5/5/5 66/66/66
f 68/68/68 5/5/5 67/67/67
f 69/69/69 5/5/5 68/68/68
f 5/5/5 69/69/69 7/7/7
f 69/69/69 70/70/70 7/7/7
f 70/70/70 71/71/71 7/7/7
f 7/7/7 71/71/71 13/13/13
f 71/71/71 72/72/72 13/13/13
f 13/13/13 72/72/72 15/15/15
f 72/72/72 73/73/73 15/15/15
f 15/15/15 73/73/73 74/74/74
f 75/75/75 74/74/74 73/73/73
f 15/15/15 74/74/74 19/19/19
f 76/76/76 74/74/74 75/75/75
f 74/74/74 76/76/76 19/19/19
f 76/76/76 61/61/61 19/19/19
