g HullRear_0
v -0.1286846 1.382633 2.002077
v -0.2489524 1.414675 2.001678
v -0.1299589 1.394548 2.000175
v -0.2487938 1.403924 2.003575
v -0.1340124 1.247425 1.96641
v -0.3069661 1.453747 2.010825
v -0.3157659 1.446334 2.013736
v -0.3482369 1.509306 2.024089
v -0.3608063 1.506422 2.028126
v -0.3541101 1.517327 2.024827
v -0.3633046 1.51772 2.026081
v -0.5717416 1.519148 2.023852
v -0.5703827 1.507873 2.025885
v -0.7637747 1.519005 2.021431
v -0.7634839 1.507724 2.023451
v -0.9429761 1.517881 2.018921
v -0.9422247 1.506585 2.020948
v -1.107867 1.516051 2.016411
v -0.9300588 1.273765 1.963176
v -1.076149 1.282574 1.963553
v -1.106171 1.504737 2.018453
v -1.255949 1.513731 2.013985
v -1.25367 1.502387 2.016037
v -1.267133 1.512134 2.012163
v -1.265611 1.500495 2.010454
v -1.216333 1.291709 1.959135
v -1.203611 1.290828 1.964024
v -1.161001 1.076797 1.906366
v -1.147576 1.073806 1.910727
v -1.101515 0.8837805 1.859108
v -1.042616 1.051673 1.906524
v -1.086213 0.8754514 1.862141
v -1.035916 0.7250883 1.820479
v -1.016805 0.7081632 1.821383
v -0.9729121 0.626986 1.796913
v -1.00741 0.8316982 1.852233
v -0.9746357 0.6423479 1.805532
v -0.8886779 0.5519908 1.779359
v -0.9161842 1.028469 1.902321
v -0.9018064 0.7864586 1.842289
v -0.8882819 0.5653116 1.787438
v -0.7764006 0.502404 1.768461
v -0.7746144 0.5149778 1.776327
v -0.6126661 0.4690538 1.762226
v -0.7723504 0.7529636 1.835563
v -0.5944014 0.7282377 1.831621
v -0.6092859 0.4812186 1.76998
v -0.1338026 0.4290368 1.757961
v -0.1338376 0.4411105 1.765764
v -0.1339908 0.6987604 1.829894
v -0.767301 1.018459 1.901679
v -0.7859828 1.061716 1.912209
v -0.7377344 0.9813516 1.892814
v -0.7925071 1.108173 1.923686
v -0.6992984 0.9529207 1.886218
v -0.6546116 0.9351048 1.88234
v -0.6067203 0.9291176 1.881445
v -0.5588872 0.9353676 1.883589
v -0.5143728 0.9534284 1.888627
v -0.4762105 0.9820692 1.89622
v -0.7864288 1.154664 1.935328
v -0.1340183 0.9729132 1.898101
v -0.4470008 1.019338 1.905851
v -0.4287346 1.062696 1.916863
v -0.4226563 1.109188 1.928506
v -0.4291805 1.155644 1.939984
v -0.4478625 1.1989 1.950517
v -0.477429 1.236008 1.959387
v -0.5158651 1.264439 1.965991
v -0.5605517 1.282255 1.969876
v -0.6084432 1.288242 1.970771
v -0.6562759 1.281992 1.968622
v -0.7007906 1.263932 1.963576
v -0.7667065 1.265461 1.963138
v -0.7389529 1.235291 1.955976
v -0.7673995 1.198995 1.946593
vt 0.7459841 0.8172345
vt 0.730921 0.8214273
vt 0.745837 0.8187665
vt 0.7308978 0.82003
vt 0.7453634 0.7996116
vt 0.7235035 0.8264927
vt 0.7223082 0.8255529
vt 0.7180306 0.8336998
vt 0.7163649 0.8333189
vt 0.7172616 0.8347292
vt 0.7160658 0.8347732
vt 0.689552 0.8345935
vt 0.6897469 0.8331386
vt 0.6651133 0.8342693
vt 0.6651731 0.8328112
vt 0.6422983 0.8338121
vt 0.6424215 0.8323535
vt 0.6213156 0.8331876
vt 0.6442931 0.8018665
vt 0.6257041 0.8027664
vt 0.621577 0.8317293
vt 0.6028743 0.8321932
vt 0.6032811 0.8307825
vt 0.601442 0.8319361
vt 0.6016572 0.8304431
vt 0.6077517 0.8035752
vt 0.6094944 0.8036503
vt 0.6150655 0.7754459
vt 0.6168928 0.7752621
vt 0.6229877 0.7502761
vt 0.6302849 0.7725677
vt 0.6250576 0.7494161
vt 0.6316317 0.7297738
vt 0.6341846 0.7278566
vt 0.6396328 0.7172742
vt 0.6351581 0.7438818
vt 0.6395333 0.7194911
vt 0.6502677 0.7075357
vt 0.646389 0.7697645
vt 0.6485658 0.7381941
vt 0.6503911 0.7095053
vt 0.6645098 0.7010694
vt 0.6647741 0.7029491
vt 0.6853274 0.6967834
vt 0.6649677 0.7339907
vt 0.6875562 0.7309549
vt 0.6857736 0.6986136
vt 0.7459784 0.6918813
vt 0.7459841 0.6937116
vt 0.7458522 0.7275665
vt 0.6653018 0.768697
vt 0.6628774 0.7743276
vt 0.6690978 0.7638879
vt 0.6619923 0.7803998
vt 0.6740099 0.7602257
vt 0.6797058 0.7579551
vt 0.6857982 0.7572373
vt 0.6918721 0.7581208
vt 0.6975133 0.760546
vt 0.7023415 0.7643481
vt 0.6627085 0.7864987
vt 0.7456197 0.7635781
vt 0.7060202 0.7692714
vt 0.7083003 0.7749795
vt 0.7090263 0.7810833
vt 0.7081454 0.7871658
vt 0.7057191 0.7928122
vt 0.7019124 0.7976373
vt 0.6969851 0.8013123
vt 0.6912788 0.8035766
vt 0.6851832 0.804284
vt 0.6791063 0.8033897
vt 0.6734663 0.8009524
vt 0.6650816 0.8010483
vt 0.6686478 0.797139
vt 0.6650749 0.7923382
vn -0.02286128 -0.1975037 0.9800356
vn 0.1139136 0.158479 0.9807692
vn 0.04141193 0.1677023 0.9849675
vn -0.002207674 -0.1857855 0.9825879
vn -0.0129802 -0.2421005 0.9701643
vn 0.2770434 0.06701207 0.9585177
vn -0.006149232 -0.2358291 0.9717751
vn 0.2980507 0.02046718 0.9543306
vn 0.02043064 -0.115803 0.9930621
vn 0.2160275 0.1588239 0.9633832
vn 0.0009770965 0.175653 0.9844517
vn -0.01105444 0.1760852 0.9843128
vn -0.01204713 -0.2146789 0.9766103
vn -0.01373717 0.175851 0.984321
vn -0.01217221 -0.2209504 0.9752091
vn -0.01595739 0.1755179 0.9843469
vn -0.01227539 -0.2222661 0.9749087
vn -0.01799791 0.17488 0.9844252
vn -0.01204732 -0.2414133 0.9703475
vn -0.01204775 -0.2414127 0.9703478
vn -0.0124019 -0.2211228 0.9751671
vn -0.04077417 0.1590092 0.9864348
vn -0.04327947 -0.2278108 0.9727432
vn -0.2998895 -0.03540949 0.9533166
vn -0.3597787 -0.2905773 0.8866364
vn -0.3597633 -0.3054704 0.8816225
vn -0.04580033 -0.249046 0.9674082
vn -0.35562 -0.3160428 0.8795745
vn -0.05278993 -0.2519052 0.966311
vn -0.3574576 -0.3399415 0.8698642
vn -0.01204717 -0.2414132 0.9703476
vn -0.06846273 -0.2597859 0.9632363
vn -0.3897319 -0.392881 0.8329187
vn -0.118799 -0.2887298 0.9500115
vn -0.341635 -0.4884819 0.802914
vn -0.01204554 -0.2414134 0.9703476
vn -0.03810682 -0.2626098 0.9641494
vn -0.1983883 -0.5040339 0.8405902
vn -0.01204763 -0.2414134 0.9703475
vn -0.01204775 -0.241413 0.9703476
vn -0.02391437 -0.2589638 0.965591
vn -0.1026622 -0.5170349 0.8497854
vn -0.01721015 -0.2576418 0.9660872
vn -0.04713727 -0.532297 0.8452443
vn -0.01204766 -0.241413 0.9703476
vn -0.01192769 -0.2414347 0.9703437
vn -0.01378968 -0.2578638 0.9660829
vn -0.03751769 -0.5361102 0.8433139
vn -0.01320373 -0.2579972 0.9660555
vn -0.01179948 -0.2414532 0.9703407
vn -0.01204761 -0.241414 0.9703475
vn -0.01204785 -0.241413 0.9703476
vn -0.01204687 -0.2414124 0.9703479
vn -0.01204759 -0.2414116 0.970348
vn -0.01204827 -0.2414123 0.9703479
vn -0.01204961 -0.2414136 0.9703475
vn -0.01199833 -0.2414119 0.9703485
vn -0.01186794 -0.2414256 0.9703467
vn -0.01182727 -0.2414461 0.9703422
vn -0.01181649 -0.2414677 0.9703369
vn -0.01204691 -0.2414121 0.9703479
vn -0.0117903 -0.2414389 0.9703444
vn -0.01179544 -0.2415039 0.9703282
vn -0.0117871 -0.2414681 0.9703372
vn -0.01179247 -0.2414354 0.9703452
vn -0.01181309 -0.241396 0.9703547
vn -0.01181875 -0.2413758 0.9703597
vn -0.01182015 -0.2413673 0.9703618
vn -0.01189726 -0.2415494 0.9703156
vn -0.01201671 -0.2414518 0.9703383
vn -0.01204645 -0.241411 0.9703482
vn -0.01204797 -0.2414131 0.9703476
vn -0.01204859 -0.2414151 0.9703471
vn -0.01204744 -0.2414143 0.9703473
vn -0.01204701 -0.2414159 0.9703469
vn -0.01204728 -0.2414142 0.9703475
g HullRear_0_0
f 3/3/3 2/2/2 1/1/1
f 2/2/2 4/4/4 1/1/1
f 5/5/5 1/1/1 4/4/4
f 2/2/2 6/6/6 4/4/4
f 6/6/6 7/7/7 4/4/4
f 5/5/5 4/4/4 7/7/7
f 7/7/7 6/6/6 8/8/8
f 9/9/9 7/7/7 8/8/8
f 8/8/8 10/10/10 9/9/9
f 10/10/10 11/11/11 9/9/9
f 9/9/9 11/11/11 12/12/12
f 13/13/13 9/9/9 12/12/12
f 9/9/9 13/13/13 7/7/7
f 12/12/12 14/14/14 13/13/13
f 14/14/14 15/15/15 13/13/13
f 15/15/15 14/14/14 16/16/16
f 17/17/17 15/15/15 16/16/16
f 16/16/16 18/18/18 17/17/17
f 15/15/15 17/17/17 19/19/19
f 19/19/19 17/17/17 20/20/20
f 18/18/18 21/21/21 17/17/17
f 17/17/17 21/21/21 20/20/20
f 21/21/21 18/18/18 22/22/22
f 23/23/23 21/21/21 22/22/22
f 22/22/22 24/24/24 23/23/23
f 24/24/24 25/25/25 23/23/23
f 23/23/23 25/25/25 26/26/26
f 21/21/21 23/23/23 27/27/27
f 27/27/27 23/23/23 26/26/26
f 20/20/20 21/21/21 27/27/27
f 26/26/26 28/28/28 27/27/27
f 28/28/28 29/29/29 27/27/27
f 20/20/20 27/27/27 29/29/29
f 28/28/28 30/30/30 29/29/29
f 31/31/31 20/20/20 29/29/29
f 19/19/19 20/20/20 31/31/31
f 30/30/30 32/32/32 29/29/29
f 31/31/31 29/29/29 32/32/32
f 32/32/32 30/30/30 33/33/33
f 34/34/34 32/32/32 33/33/33
f 33/33/33 35/35/35 34/34/34
f 36/36/36 31/31/31 32/32/32
f 36/36/36 32/32/32 34/34/34
f 35/35/35 37/37/37 34/34/34
f 37/37/37 36/36/36 34/34/34
f 35/35/35 38/38/38 37/37/37
f 39/39/39 31/31/31 36/36/36
f 39/39/39 19/19/19 31/31/31
f 40/40/40 36/36/36 37/37/37
f 40/40/40 39/39/39 36/36/36
f 38/38/38 41/41/41 37/37/37
f 41/41/41 40/40/40 37/37/37
f 38/38/38 42/42/42 41/41/41
f 42/42/42 43/43/43 41/41/41
f 43/43/43 42/42/42 44/44/44
f 45/45/45 40/40/40 41/41/41
f 43/43/43 45/45/45 41/41/41
f 46/46/46 45/45/45 43/43/43
f 47/47/47 43/43/43 44/44/44
f 47/47/47 46/46/46 43/43/43
f 44/44/44 48/48/48 47/47/47
f 48/48/48 49/49/49 47/47/47
f 47/47/47 49/49/49 50/50/50
f 46/46/46 47/47/47 50/50/50
f 51/51/51 39/39/39 40/40/40
f 45/45/45 51/51/51 40/40/40
f 52/52/52 39/39/39 51/51/51
f 53/53/53 51/51/51 45/45/45
f 52/52/52 54/54/54 39/39/39
f 55/55/55 53/53/53 45/45/45
f 55/55/55 45/45/45 46/46/46
f 54/54/54 19/19/19 39/39/39
f 55/55/55 46/46/46 56/56/56
f 56/56/56 46/46/46 57/57/57
f 58/58/58 57/57/57 46/46/46
f 58/58/58 46/46/46 50/50/50
f 59/59/59 58/58/58 50/50/50
f 60/60/60 59/59/59 50/50/50
f 54/54/54 61/61/61 19/19/19
f 60/60/60 50/50/50 62/62/62
f 62/62/62 63/63/63 60/60/60
f 62/62/62 64/64/64 63/63/63
f 62/62/62 65/65/65 64/64/64
f 5/5/5 65/65/65 62/62/62
f 5/5/5 66/66/66 65/65/65
f 5/5/5 67/67/67 66/66/66
f 5/5/5 68/68/68 67/67/67
f 5/5/5 69/69/69 68/68/68
f 69/69/69 5/5/5 7/7/7
f 70/70/70 69/69/69 7/7/7
f 71/71/71 70/70/70 7/7/7
f 71/71/71 7/7/7 13/13/13
f 72/72/72 71/71/71 13/13/13
f 72/72/72 13/13/13 15/15/15
f 73/73/73 72/72/72 15/15/15
f 73/73/73 15/15/15 74/74/74
f 74/74/74 75/75/75 73/73/73
f 74/74/74 15/15/15 19/19/19
f 74/74/74 76/76/76 75/75/75
f 76/76/76 74/74/74 19/19/19
f 61/61/61 76/76/76 19/19/19
