g InvisWall_04
v 1.298143 -9.217997 0.8010339
v -0.267406 -9.217997 5.396102
v 1.298143 10.782 0.801034
v -0.2674059 10.78201 5.396102
v -0.267406 -9.217997 5.396102
v -3.934511 -9.217997 -0.398399
v -0.2674059 10.78201 5.396102
v -3.934512 10.782 -0.3983992
v -3.934511 -9.217997 -0.398399
v 0.07999992 -9.217997 -0.9749998
v -3.934512 10.782 -0.3983992
v 0.07999992 10.782 -0.9749998
v 0.07999992 -9.217997 -0.9749998
v 1.298143 -9.217997 0.8010339
v 0.07999992 10.782 -0.9749998
v 1.298143 10.782 0.801034
v 1.298143 10.782 0.801034
v -0.2674059 10.78201 5.396102
v 0.07999992 10.782 -0.9749998
v -3.934512 10.782 -0.3983992
v 0.07999992 -9.217997 -0.9749998
v -3.934511 -9.217997 -0.398399
v 1.298143 -9.217997 0.8010339
v -0.267406 -9.217997 5.396102
vt -0.3395856 -9.217997
vt -5.194027 -9.217997
vt -0.3395857 10.782
vt -5.194027 10.78201
vt 4.416707 -9.217997
vt -2.440691 -9.217997
vt 4.416707 10.78201
vt -2.440692 10.782
vt 3.837905 -9.217997
vt -0.2178032 -9.217997
vt 3.837906 10.782
vt -0.2178032 10.782
vt 0.7587993 -9.217997
vt -1.394842 -9.217997
vt 0.7587993 10.782
vt -1.394842 10.782
vt -1.298139 0.801037
vt 0.2674102 5.396105
vt -0.07999557 -0.9749968
vt 3.934516 -0.3983962
vt 0.07999992 -0.9749998
vt -3.934511 -0.398399
vt 1.298143 0.8010339
vt -0.267406 5.396102
vn 0.94657 -1.92224E-09 0.3224984
vn 0.94657 -3.782119E-09 0.3224984
vn 0.94657 -3.782119E-09 0.3224984
vn 0.94657 -5.641997E-09 0.3224984
vn -0.845 5.036592E-09 0.5347663
vn -0.845 -9.802456E-09 0.5347663
vn -0.845 -9.802456E-09 0.5347663
vn -0.8449999 -2.46415E-08 0.5347663
vn -0.1421702 -1.540926E-08 -0.9898422
vn -0.1421702 -7.704631E-09 -0.9898422
vn -0.1421702 -7.704631E-09 -0.9898422
vn -0.1421701 0 -0.9898422
vn 0.8246657 0 -0.5656205
vn 0.8246657 1.68568E-09 -0.5656205
vn 0.8246657 1.68568E-09 -0.5656205
vn 0.8246657 3.371361E-09 -0.5656205
vn 4.043385E-07 1 -2.773271E-07
vn 3.00216E-07 1 -2.830047E-07
vn 3.00216E-07 1 -2.830047E-07
vn 1.960936E-07 1 -2.886823E-07
vn 0 -1 0
vn 0 -1 0
vn 0 -1 0
vn 0 -1 0
g InvisWall_04_0
f 3/3/3 2/2/2 1/1/1
f 3/3/3 4/4/4 2/2/2
f 7/7/7 6/6/6 5/5/5
f 7/7/7 8/8/8 6/6/6
f 11/11/11 10/10/10 9/9/9
f 11/11/11 12/12/12 10/10/10
f 15/15/15 14/14/14 13/13/13
f 15/15/15 16/16/16 14/14/14
f 19/19/19 18/18/18 17/17/17
f 19/19/19 20/20/20 18/18/18
f 23/23/23 22/22/22 21/21/21
f 23/23/23 24/24/24 22/22/22
