g InvisWall_03
v 1.298143 -9.217997 0.8010339
v 1.323465 -9.217997 4.035283
v 1.298143 10.782 0.801034
v 1.323465 10.78201 4.035283
v 1.323465 -9.217997 4.035283
v -2.343639 -9.217997 -1.759217
v 1.323465 10.78201 4.035283
v -2.343639 10.782 -1.759218
v -2.343639 -9.217997 -1.759217
v 0.07999992 -9.217997 -0.9749998
v -2.343639 10.782 -1.759218
v 0.07999992 10.782 -0.9749998
v 0.07999992 -9.217997 -0.9749998
v 1.298143 -9.217997 0.8010339
v 0.07999992 10.782 -0.9749998
v 1.298143 10.782 0.801034
v 1.298143 10.782 0.801034
v 1.323465 10.78201 4.035283
v 0.07999992 10.782 -0.9749998
v -2.343639 10.782 -1.759218
v 0.07999992 -9.217997 -0.9749998
v -2.343639 -9.217997 -1.759217
v 1.298143 -9.217997 0.8010339
v 1.323465 -9.217997 4.035283
vt -0.8111727 -9.217997
vt -4.045521 -9.217997
vt -0.8111728 10.782
vt -4.045521 10.78201
vt 4.117559 -9.217997
vt -2.739838 -9.217997
vt 4.117559 10.78201
vt -2.739839 10.782
vt 2.771401 -9.217997
vt 0.2240444 -9.217997
vt 2.771401 10.782
vt 0.2240444 10.782
vt 0.7587993 -9.217997
vt -1.394842 -9.217997
vt 0.7587993 10.782
vt -1.394842 10.782
vt -1.298134 0.8010405
vt -1.323456 4.035289
vt -0.07999054 -0.9749933
vt 2.343649 -1.759212
vt 0.07999992 -0.9749998
vt -2.343639 -1.759217
vt 1.298143 0.8010339
vt 1.323465 4.035283
vn 0.9999694 4.666493E-11 -0.007829077
vn 0.9999694 2.333247E-11 -0.007829077
vn 0.9999694 2.333247E-11 -0.007829077
vn 0.9999694 0 -0.007829077
vn -0.845 0 0.5347663
vn -0.845 1.115609E-08 0.5347663
vn -0.845 1.115609E-08 0.5347663
vn -0.845 2.231219E-08 0.5347663
vn 0.3078554 -3.969689E-08 -0.9514332
vn 0.3078556 -1.984844E-08 -0.9514331
vn 0.3078556 -1.984844E-08 -0.9514331
vn 0.3078557 0 -0.9514331
vn 0.8246657 0 -0.5656205
vn 0.8246657 1.68568E-09 -0.5656205
vn 0.8246657 1.68568E-09 -0.5656205
vn 0.8246657 3.371361E-09 -0.5656205
vn 8.697519E-07 1 -5.965442E-07
vn 7.157665E-07 1 -5.583277E-07
vn 7.157665E-07 1 -5.583277E-07
vn 5.617812E-07 1 -5.201111E-07
vn 0 -1 0
vn 0 -1 0
vn 0 -1 0
vn 0 -1 0
g InvisWall_03_0
f 3/3/3 2/2/2 1/1/1
f 3/3/3 4/4/4 2/2/2
f 7/7/7 6/6/6 5/5/5
f 7/7/7 8/8/8 6/6/6
f 11/11/11 10/10/10 9/9/9
f 11/11/11 12/12/12 10/10/10
f 15/15/15 14/14/14 13/13/13
f 15/15/15 16/16/16 14/14/14
f 19/19/19 18/18/18 17/17/17
f 19/19/19 20/20/20 18/18/18
f 23/23/23 22/22/22 21/21/21
f 23/23/23 24/24/24 22/22/22
