g InvisWall_01
v 0.9301119 -9.142364 0.009310722
v -0.06988811 -9.142364 0.009310722
v 0.9301119 10.85764 0.009310722
v -0.06988811 10.85764 0.009310722
v -0.06988811 -9.142364 0.009310722
v 1.960556 -9.142364 -6.411389
v -0.06988811 10.85764 0.009310722
v 1.960556 10.85764 -6.411389
v 1.960556 -9.142364 -6.411389
v 2.703744 -9.142365 -5.408555
v 1.960556 10.85764 -6.411389
v 2.703744 10.85763 -5.408556
v 2.703744 -9.142365 -5.408555
v 0.9301119 -9.142364 0.009310722
v 2.703744 10.85763 -5.408556
v 0.9301119 10.85764 0.009310722
v 0.9301119 10.85764 0.009310722
v -0.06988811 10.85764 0.009310722
v 2.703744 10.85763 -5.408556
v 1.960556 10.85764 -6.411389
v 2.703744 -9.142365 -5.408555
v 1.960556 -9.142364 -6.411389
v 0.9301119 -9.142364 0.009310722
v -0.06988811 -9.142364 0.009310722
vt 0.9301119 -9.142364
vt -0.06988811 -9.142364
vt 0.9301119 10.85764
vt -0.06988811 10.85764
vt 0.02994986 -9.142364
vt -6.704149 -9.142364
vt 0.02994986 10.85764
vt -6.70415 10.85764
vt 3.983733 -9.142364
vt 2.735533 -9.142365
vt 3.983733 10.85764
vt 2.735533 10.85763
vt 5.981321 -9.142365
vt 0.280528 -9.142364
vt 5.981321 10.85763
vt 0.280528 10.85764
vt -0.9301119 0.009314544
vt 0.06988811 0.009314544
vt -2.703744 -5.408552
vt -1.960556 -6.411386
vt 2.703753 -5.408554
vt 1.960566 -6.411387
vt 0.9301215 0.00931227
vt -0.06987847 0.00931227
vn 0 0 1
vn 0 0 1
vn 0 0 1
vn 0 0 1
vn -0.9534609 0 -0.3015169
vn -0.9534609 -3.594361E-09 -0.3015168
vn -0.9534609 -3.594361E-09 -0.3015168
vn -0.9534609 -7.188721E-09 -0.3015168
vn 0.8034238 -1.419562E-08 -0.5954075
vn 0.8034238 -1.419562E-08 -0.5954075
vn 0.8034238 -1.419562E-08 -0.5954075
vn 0.8034238 -1.419562E-08 -0.5954075
vn 0.9503706 7.417684E-09 0.3111202
vn 0.9503706 3.708842E-09 0.3111202
vn 0.9503706 3.708842E-09 0.3111202
vn 0.9503706 0 0.3111202
vn 0 1 -3.520479E-07
vn 5.199507E-07 1 -8.586343E-08
vn 5.199507E-07 1 -8.586343E-08
vn 1.039901E-06 1 1.803211E-07
vn -1.054797E-06 -1 -1.692821E-07
vn -5.273986E-07 -1 -8.464105E-08
vn -5.273986E-07 -1 -8.464105E-08
vn 0 -1 0
g InvisWall_01_0
f 3/3/3 2/2/2 1/1/1
f 3/3/3 4/4/4 2/2/2
f 7/7/7 6/6/6 5/5/5
f 7/7/7 8/8/8 6/6/6
f 11/11/11 10/10/10 9/9/9
f 11/11/11 12/12/12 10/10/10
f 15/15/15 14/14/14 13/13/13
f 15/15/15 16/16/16 14/14/14
f 19/19/19 18/18/18 17/17/17
f 19/19/19 20/20/20 18/18/18
f 23/23/23 22/22/22 21/21/21
f 23/23/23 24/24/24 22/22/22
