g InvisWall_00
v 0.581557 -5.060009 2.209757
v -1.403645 -5.060009 1.033707
v 0.581557 14.93999 2.209756
v -1.403645 14.93999 1.033706
v -10.66107 -5.06001 -10.04605
v -10.12315 -5.060009 -10.1487
v -10.66107 14.93999 -10.04605
v -10.12315 14.93999 -10.1487
v -1.334512 -5.060009 -1.918922
v -0.01787186 -5.060009 -1.331509
v -1.334512 14.93999 -1.918923
v -0.01787186 14.93999 -1.33151
v -0.01787186 -5.060009 -1.331509
v 0.581557 -5.060009 2.209757
v -0.01787186 14.93999 -1.33151
v 0.581557 14.93999 2.209756
v 0.581557 14.93999 2.209756
v -1.403645 14.93999 1.033706
v -0.01787186 14.93999 -1.33151
v -1.334512 14.93999 -1.918923
v -0.01787186 -5.060009 -1.331509
v -1.334512 -5.060009 -1.918922
v 0.581557 -5.060009 2.209757
v -1.403645 -5.060009 1.033707
v -4.142354 -5.060009 0.2547447
v -4.427195 -5.060009 -0.2423294
v -1.403645 14.93999 1.033706
v -1.403645 -5.060009 1.033707
v -4.142354 14.93999 0.2547458
v -4.142354 -5.060009 0.2547447
v -1.334512 -5.060009 -1.918922
v -1.334512 14.93999 -1.918923
v -4.427195 -5.060009 -0.2423294
v -4.427195 14.93999 -0.2423302
v -4.427195 14.93999 -0.2423302
v -4.142354 14.93999 0.2547458
v -5.902771 -5.060009 -2.311443
v -5.732256 -5.060009 -2.668781
v -4.142354 14.93999 0.2547458
v -4.142354 -5.060009 0.2547447
v -5.902771 14.93999 -2.311442
v -5.902771 -5.060009 -2.311443
v -4.427195 -5.060009 -0.2423294
v -4.427195 14.93999 -0.2423302
v -5.732256 -5.060009 -2.668781
v -5.732256 14.93999 -2.668782
v -4.427195 14.93999 -0.2423302
v -4.142354 14.93999 0.2547458
v -5.732256 14.93999 -2.668782
v -5.902771 14.93999 -2.311442
v -7.595705 -5.060009 -2.741195
v -7.943926 -5.060009 -3.546509
v -5.902771 14.93999 -2.311442
v -5.902771 -5.060009 -2.311443
v -7.595705 14.93999 -2.741194
v -7.595705 -5.060009 -2.741195
v -5.732256 -5.060009 -2.668781
v -5.732256 14.93999 -2.668782
v -7.943926 -5.060009 -3.546509
v -7.943926 14.93999 -3.54651
v -5.732256 14.93999 -2.668782
v -5.902771 14.93999 -2.311442
v -7.943926 14.93999 -3.54651
v -7.595705 14.93999 -2.741194
v -9.733987 -5.060009 -5.361834
v -9.196066 -5.060009 -5.464481
v -7.595705 14.93999 -2.741194
v -7.595705 -5.060009 -2.741195
v -9.733987 14.93999 -5.361832
v -9.733987 -5.060009 -5.361834
v -7.943926 -5.060009 -3.546509
v -7.943926 14.93999 -3.54651
v -9.196066 -5.060009 -5.464481
v -9.196066 14.93999 -5.464482
v -7.943926 14.93999 -3.54651
v -7.595705 14.93999 -2.741194
v -9.196066 14.93999 -5.464482
v -9.733987 14.93999 -5.361832
v -10.66107 -5.06001 -10.04605
v -10.12315 -5.060009 -10.1487
v -9.733987 14.93999 -5.361832
v -9.733987 -5.060009 -5.361834
v -10.66107 14.93999 -10.04605
v -10.66107 -5.06001 -10.04605
v -9.196066 -5.060009 -5.464481
v -9.196066 14.93999 -5.464482
v -10.12315 -5.060009 -10.1487
v -10.12315 14.93999 -10.1487
v -9.196066 14.93999 -5.464482
v -9.733987 14.93999 -5.361832
v -10.12315 14.93999 -10.1487
v -10.66107 14.93999 -10.04605
vt 1.626629 -5.060009
vt -0.6807769 -5.060009
vt 1.626629 14.93999
vt -0.6807773 14.93999
vt 8.589067 -5.060011
vt 8.04144 -5.06001
vt 8.589067 14.93999
vt 8.04144 14.93999
vt 2.000558 -5.060009
vt 0.558825 -5.060009
vt 2.000558 14.93999
vt 0.5588254 14.93999
vt 1.315817 -5.060009
vt -2.275824 -5.060009
vt 1.315818 14.93999
vt -2.275823 14.93999
vt -0.581557 2.209756
vt 1.403645 1.033706
vt 0.01787186 -1.33151
vt 1.334512 -1.918923
vt -0.01786987 -1.33151
vt -1.334509 -1.918923
vt 0.581559 2.209757
vt -1.403643 1.033707
vt -4.142354 0.2547455
vt -4.427195 -0.2423286
vt -1.0673 14.93999
vt -1.0673 -5.060009
vt -3.914634 14.93999
vt -3.914634 -5.060009
vt 0.2586682 -5.060009
vt 0.2586678 14.93999
vt 3.776573 -5.060009
vt 3.776572 14.93999
vt 4.427195 -0.2423302
vt 4.142354 0.2547458
vt -5.902771 -2.311443
vt -5.732256 -2.668781
vt -2.133226 14.93999
vt -2.133226 -5.060009
vt -5.245201 14.93999
vt -5.245202 -5.060009
vt 2.310495 -5.060009
vt 2.310496 14.93999
vt 5.065645 -5.060009
vt 5.065646 14.93999
vt -4.427195 -0.2423302
vt -4.142354 0.2547458
vt -5.732256 -2.668782
vt -5.902771 -2.311442
vt -7.595706 -2.741189
vt -7.943927 -3.546503
vt -6.29003 14.93999
vt -6.290031 -5.060009
vt -8.036659 14.93999
vt -8.036659 -5.060009
vt 6.312458 -5.060009
vt 6.312459 14.93999
vt 8.691931 -5.060009
vt 8.691931 14.93999
vt 5.732243 -2.668816
vt 5.902758 -2.311476
vt 7.943913 -3.546543
vt 7.595692 -2.741228
vt -9.733994 -5.361827
vt -9.196074 -5.464475
vt -6.925878 14.93999
vt -6.925879 -5.060009
vt -10.30818 14.93999
vt -10.30818 -5.060009
vt 7.312325 -5.060009
vt 7.312326 14.93999
vt 9.602843 -5.060009
vt 9.602844 14.93999
vt 7.943732 -3.546629
vt 7.595511 -2.741314
vt 9.195871 -5.464601
vt 9.733792 -5.361951
vt -10.66107 -10.04605
vt -10.12315 -10.1487
vt -7.149657 14.93999
vt -7.149659 -5.060009
vt -11.92474 14.93999
vt -11.92474 -5.06001
vt 7.145916 -5.060009
vt 7.145917 14.93999
vt 11.921 -5.060009
vt 11.921 14.93999
vt 9.196065 -5.464479
vt 9.733986 -5.361829
vt 10.12315 -10.1487
vt 10.66107 -10.04605
vn -0.509685 4.102521E-08 0.8603611
vn -0.509685 3.846114E-08 0.8603611
vn -0.509685 3.846114E-08 0.8603611
vn -0.509685 3.589706E-08 0.8603612
vn -0.187441 4.683857E-08 -0.9822759
vn -0.1874427 1.24345E-14 -0.9822756
vn -0.1874427 1.24345E-14 -0.9822756
vn -0.1874444 -4.683854E-08 -0.9822752
vn 0.4074352 -3.810309E-08 -0.9132341
vn 0.4074352 -3.810309E-08 -0.9132341
vn 0.4074352 -3.810309E-08 -0.9132341
vn 0.4074352 -3.810309E-08 -0.9132341
vn 0.9859746 -6.963425E-09 -0.1668956
vn 0.9859746 -7.460812E-09 -0.1668956
vn 0.9859746 -7.460812E-09 -0.1668956
vn 0.9859746 -7.9582E-09 -0.1668956
vn 0 1 0
vn 0 1 0
vn 0 1 0
vn 0 1 0
vn -3.917465E-07 -1 6.631079E-08
vn -1.48692E-07 -1 -4.648778E-08
vn -1.48692E-07 -1 -4.648778E-08
vn 9.436254E-08 -1 -1.592863E-07
vn 8.163391E-08 -1 -1.13919E-07
vn 1.17638E-07 -1 -6.741062E-08
vn -0.2735754 4.013154E-08 0.9618506
vn -0.2735757 -5.733071E-09 0.9618505
vn -0.2735757 -5.733071E-09 0.9618505
vn -0.273576 -5.159768E-08 0.9618504
vn -0.4765885 -3.668002E-08 -0.8791265
vn -0.4765885 -3.668002E-08 -0.8791265
vn -0.4765885 -3.668002E-08 -0.8791265
vn -0.4765885 -3.668002E-08 -0.8791265
vn 0 1 0
vn 0 1 0
vn 5.605252E-07 -1 -3.997353E-07
vn 1.12105E-06 -1 -7.994706E-07
vn -0.8246171 -3.034604E-08 0.5656912
vn -0.8246171 -2.866015E-08 0.5656912
vn -0.8246171 -2.866015E-08 0.5656912
vn -0.8246171 -2.697426E-08 0.5656912
vn 0.8806967 -1.941058E-08 -0.4736806
vn 0.8806967 -2.099872E-08 -0.4736806
vn 0.8806967 -2.099872E-08 -0.4736806
vn 0.8806967 -2.258685E-08 -0.4736806
vn 0 -1 0
vn -1.30695E-06 0 7.107587E-07
vn -1.30695E-06 0 7.107587E-07
vn -2.613901E-06 1 1.421517E-06
vn 2.929043E-07 -1 -9.525052E-07
vn 2.836659E-07 -1 -7.147723E-07
vn -0.2460467 -4.621782E-08 0.969258
vn -0.2460467 -4.621782E-08 0.969258
vn -0.2460467 -4.621782E-08 0.969258
vn -0.2460467 -4.621783E-08 0.969258
vn 0.3688748 -4.432102E-08 -0.9294791
vn 0.3688748 -4.432102E-08 -0.9294791
vn 0.3688748 -4.432102E-08 -0.9294791
vn 0.3688748 -4.432102E-08 -0.9294791
vn -8.905114E-07 1 2.243883E-06
vn -1.09933E-06 1 2.58899E-06
vn -1.09933E-06 1 2.58899E-06
vn -1.308149E-06 1 2.934098E-06
vn 1.16604E-06 -1 -8.871385E-07
vn 7.882464E-07 -1 -5.146032E-07
vn -0.774808 -3.014548E-08 0.6321965
vn -0.774808 -3.768185E-08 0.6321965
vn -0.774808 -3.768185E-08 0.6321965
vn -0.7748081 -4.521821E-08 0.6321965
vn 0.8373532 -2.606689E-08 -0.5466623
vn 0.8373531 -1.955017E-08 -0.5466623
vn 0.8373531 -1.955017E-08 -0.5466623
vn 0.8373531 -1.303345E-08 -0.5466624
vn -1.299968E-05 1 7.989553E-06
vn -6.469794E-06 1 4.152217E-06
vn -6.469794E-06 1 4.152217E-06
vn 6.008776E-08 1 3.148813E-07
vn 1.328073E-06 -1 -8.355059E-09
vn 1.745806E-06 -1 -1.419293E-07
vn -0.9809719 -1.388667E-08 0.1941497
vn -0.9809719 -1.157222E-08 0.1941497
vn -0.9809719 -1.157222E-08 0.1941497
vn -0.9809719 -9.25778E-09 0.1941497
vn 0.9809719 -4.628891E-09 -0.1941497
vn 0.9809719 -6.943335E-09 -0.1941497
vn 0.9809719 -6.943335E-09 -0.1941497
vn 0.9809719 -9.257779E-09 -0.1941497
vn -3.743708E-08 1 -1.961836E-07
vn -3.743708E-08 1 -1.961836E-07
vn -3.743708E-08 1 -1.961836E-07
vn -3.743708E-08 1 -1.961836E-07
g InvisWall_00_0
f 3/3/3 2/2/2 1/1/1
f 3/3/3 4/4/4 2/2/2
f 7/7/7 6/6/6 5/5/5
f 7/7/7 8/8/8 6/6/6
f 11/11/11 10/10/10 9/9/9
f 11/11/11 12/12/12 10/10/10
f 15/15/15 14/14/14 13/13/13
f 15/15/15 16/16/16 14/14/14
f 19/19/19 18/18/18 17/17/17
f 19/19/19 20/20/20 18/18/18
f 23/23/23 22/22/22 21/21/21
f 23/23/23 24/24/24 22/22/22
f 25/25/25 22/22/22 24/24/24
f 25/25/25 26/26/26 22/22/22
f 29/29/29 28/28/28 27/27/27
f 29/29/29 30/30/30 28/28/28
f 33/33/33 32/32/32 31/31/31
f 33/33/33 34/34/34 32/32/32
f 35/35/35 18/18/18 20/20/20
f 35/35/35 36/36/36 18/18/18
f 37/37/37 26/26/26 25/25/25
f 37/37/37 38/38/38 26/26/26
f 41/41/41 40/40/40 39/39/39
f 41/41/41 42/42/42 40/40/40
f 45/45/45 44/44/44 43/43/43
f 45/45/45 46/46/46 44/44/44
f 49/49/49 48/48/48 47/47/47
f 49/49/49 50/50/50 48/48/48
f 51/51/51 38/38/38 37/37/37
f 51/51/51 52/52/52 38/38/38
f 55/55/55 54/54/54 53/53/53
f 55/55/55 56/56/56 54/54/54
f 59/59/59 58/58/58 57/57/57
f 59/59/59 60/60/60 58/58/58
f 63/63/63 62/62/62 61/61/61
f 63/63/63 64/64/64 62/62/62
f 65/65/65 52/52/52 51/51/51
f 65/65/65 66/66/66 52/52/52
f 69/69/69 68/68/68 67/67/67
f 69/69/69 70/70/70 68/68/68
f 73/73/73 72/72/72 71/71/71
f 73/73/73 74/74/74 72/72/72
f 77/77/77 76/76/76 75/75/75
f 77/77/77 78/78/78 76/76/76
f 79/79/79 66/66/66 65/65/65
f 79/79/79 80/80/80 66/66/66
f 83/83/83 82/82/82 81/81/81
f 83/83/83 84/84/84 82/82/82
f 87/87/87 86/86/86 85/85/85
f 87/87/87 88/88/88 86/86/86
f 91/91/91 90/90/90 89/89/89
f 91/91/91 92/92/92 90/90/90
