g InvisWall_06
v 1.347197 -9.217997 0.5924522
v 0.4878655 -9.217997 2.32371
v 1.347197 10.782 0.5924522
v 0.4878654 10.782 2.32371
v 0.4878655 -9.217997 2.32371
v -1.495438 -9.217998 1.296261
v 0.4878654 10.782 2.32371
v -1.495439 10.78201 1.296261
v -2.231405 -9.217995 -5.475583
v -2.109291 -9.217996 -4.753921
v -2.231403 10.782 -5.475583
v -2.10929 10.782 -4.753921
v -0.1202699 -9.217997 -0.972263
v 1.347197 -9.217997 0.5924522
v -0.1202696 10.782 -0.972263
v 1.347197 10.782 0.5924522
v 1.347197 10.782 0.5924522
v 0.4878654 10.782 2.32371
v -0.1202696 10.782 -0.972263
v -1.495439 10.78201 1.296261
v -0.1202699 -9.217997 -0.972263
v -1.495438 -9.217998 1.296261
v 1.347197 -9.217997 0.5924522
v 0.4878655 -9.217997 2.32371
v -3.282203 -9.217997 0.210295
v -1.127682 -9.217997 -1.396016
v -1.495439 10.78201 1.296261
v -1.495438 -9.217998 1.296261
v -3.282204 10.78201 0.210295
v -3.282203 -9.217997 0.210295
v -0.1202699 -9.217997 -0.972263
v -0.1202696 10.782 -0.972263
v -1.127682 -9.217997 -1.396016
v -1.127682 10.782 -1.396016
v -1.127682 10.782 -1.396016
v -3.282204 10.78201 0.210295
v -2.945016 -9.217997 -1.21676
v -1.030725 -9.217996 -2.658442
v -3.282204 10.78201 0.210295
v -3.282203 -9.217997 0.210295
v -2.945017 10.78201 -1.21676
v -2.945016 -9.217997 -1.21676
v -1.127682 -9.217997 -1.396016
v -1.127682 10.782 -1.396016
v -1.030725 -9.217996 -2.658442
v -1.030725 10.78201 -2.658442
v -1.030725 10.78201 -2.658442
v -2.945017 10.78201 -1.21676
v -3.595276 -9.217997 -1.640036
v -1.680985 -9.217996 -3.081718
v -2.945017 10.78201 -1.21676
v -2.945016 -9.217997 -1.21676
v -3.595277 10.78201 -1.640036
v -3.595276 -9.217997 -1.640036
v -1.030725 -9.217996 -2.658442
v -1.030725 10.78201 -2.658442
v -1.680985 -9.217996 -3.081718
v -1.680984 10.78201 -3.081718
v -1.680984 10.78201 -3.081718
v -3.595277 10.78201 -1.640036
v -4.041004 -9.217996 -4.188395
v -2.310053 -9.217996 -3.999123
v -3.595277 10.78201 -1.640036
v -3.595276 -9.217997 -1.640036
v -4.041003 10.782 -4.188395
v -4.041004 -9.217996 -4.188395
v -1.680985 -9.217996 -3.081718
v -1.680984 10.78201 -3.081718
v -2.310053 -9.217996 -3.999123
v -2.310052 10.782 -3.999123
v -2.310052 10.782 -3.999123
v -4.041003 10.782 -4.188395
v -2.231405 -9.217995 -5.475583
v -2.109291 -9.217996 -4.753921
v -4.041003 10.782 -4.188395
v -4.041004 -9.217996 -4.188395
v -2.231403 10.782 -5.475583
v -2.231405 -9.217995 -5.475583
v -2.310053 -9.217996 -3.999123
v -2.310052 10.782 -3.999123
v -2.109291 -9.217996 -4.753921
v -2.10929 10.782 -4.753921
v -4.041003 10.782 -4.188395
v -2.10929 10.782 -4.753921
v -2.231403 10.782 -5.475583
vt 0.06829535 -9.217997
vt -1.864502 -9.217997
vt 0.0682954 10.782
vt -1.864502 10.782
vt 1.502069 -9.217997
vt -0.7315703 -9.217998
vt 1.502069 10.782
vt -0.7315713 10.78201
vt 5.771126 -9.217995
vt 5.039205 -9.217996
vt 5.771125 10.782
vt 5.039205 10.782
vt 0.7914523 -9.217997
vt -1.353727 -9.217997
vt 0.7914521 10.782
vt -1.353727 10.782
vt -1.347193 0.5924561
vt -0.4878612 2.323714
vt 0.1202737 -0.9722591
vt 1.495443 1.296265
vt -0.1202724 -0.9722607
vt -1.49544 1.296264
vt 1.347195 0.5924546
vt 0.487863 2.323713
vt -3.282201 0.2103
vt -1.12768 -1.396011
vt -0.6046699 10.78201
vt -0.604669 -9.217998
vt -2.695568 10.78201
vt -2.695567 -9.217997
vt 0.4878368 -9.217997
vt 0.4878365 10.782
vt 1.580744 -9.217997
vt 1.580744 10.782
vt 1.127693 -1.396013
vt 3.282216 0.2102973
vt -2.945016 -1.21676
vt -1.030725 -2.658442
vt 0.9594039 10.78201
vt 0.9594036 -9.217997
vt -0.506946 10.78201
vt -0.5069461 -9.217997
vt 1.305562 -9.217997
vt 1.305562 10.782
vt 2.571707 -9.217996
vt 2.571707 10.78201
vt 1.030737 -2.658451
vt 2.945028 -1.216769
vt -3.595279 -1.640032
vt -1.680987 -3.081714
vt -3.131966 10.78201
vt -3.131966 -9.217997
vt -3.907853 10.78201
vt -3.907853 -9.217997
vt 2.314118 -9.217996
vt 2.314118 10.78201
vt 3.090005 -9.217996
vt 3.090004 10.78201
vt 1.680984 -3.081718
vt 3.595277 -1.640036
vt -4.041006 -4.188391
vt -2.310055 -3.99912
vt -2.234946 10.78201
vt -2.234946 -9.217997
vt -4.821992 10.782
vt -4.821992 -9.217996
vt 3.492229 -9.217996
vt 3.492229 10.78201
vt 4.604596 -9.217996
vt 4.604595 10.782
vt 2.310047 -3.999116
vt 4.040997 -4.188387
vt -2.231406 -5.475577
vt -2.109292 -4.753915
vt 0.8651974 10.782
vt 0.8651986 -9.217996
vt -1.355502 10.782
vt -1.3555 -9.217995
vt 3.270966 -9.217996
vt 3.270966 10.782
vt 4.052007 -9.217996
vt 4.052007 10.782
vt 4.041003 -4.188395
vt 2.10929 -4.753921
vt 2.231403 -5.475583
vn 0.8957267 -5.338947E-09 0.4446051
vn 0.8957267 6.673684E-10 0.4446051
vn 0.8957267 6.673684E-10 0.4446051
vn 0.8957267 6.673684E-09 0.4446052
vn -0.4599889 -3.427184E-09 0.8879247
vn -0.4599888 -1.405145E-08 0.8879247
vn -0.4599888 -1.405145E-08 0.8879247
vn -0.4599887 -2.467571E-08 0.8879247
vn 0.9859838 -9.403075E-08 -0.1668407
vn 0.985984 -7.052307E-08 -0.1668401
vn 0.985984 -7.052307E-08 -0.1668401
vn 0.9859841 -4.701538E-08 -0.1668395
vn 0.7294101 -1.222769E-08 -0.6840767
vn 0.7294102 -8.287656E-09 -0.6840767
vn 0.7294102 -8.287656E-09 -0.6840767
vn 0.7294102 -4.347623E-09 -0.6840767
vn 3.840829E-07 1 -3.602118E-07
vn 5.407453E-07 1 -3.891174E-07
vn 5.407453E-07 1 -3.891174E-07
vn 6.974076E-07 1 -4.180229E-07
vn 2.722682E-07 -1 -2.553465E-07
vn 3.273822E-07 -1 -3.274491E-08
vn 3.273822E-07 -1 -3.274491E-08
vn 3.824962E-07 -1 1.898567E-07
vn -1.016617E-07 -1 -2.718239E-07
vn 0 -1 0
vn -0.5193779 -2.78616E-08 0.8545447
vn -0.5193779 -2.940947E-08 0.8545446
vn -0.5193779 -2.940947E-08 0.8545446
vn -0.5193779 -3.095733E-08 0.8545446
vn 0.3877297 -6.499826E-09 -0.9217731
vn 0.3877297 -5.560962E-09 -0.9217731
vn 0.3877297 -5.560962E-09 -0.9217731
vn 0.3877296 -4.622098E-09 -0.9217731
vn 6.174564E-07 1 -2.698833E-07
vn 1.987889E-07 1 -3.27072E-07
vn -3.754087E-08 -1 -3.80598E-07
vn -7.508174E-08 -1 -7.61196E-07
vn -0.9732023 -5.800738E-08 -0.2299504
vn -0.9732023 -5.220664E-08 -0.2299503
vn -0.9732023 -5.220664E-08 -0.2299503
vn -0.9732024 -4.64059E-08 -0.2299503
vn 0.9970637 -1.188593E-08 0.07657655
vn 0.9970637 -1.188593E-08 0.07657655
vn 0.9970637 -1.188593E-08 0.07657655
vn 0.9970637 -1.188592E-08 0.07657655
vn 5.334722E-07 1 4.186865E-07
vn 0 1 0
vn 2.30965E-07 -1 -3.548216E-07
vn 2.309651E-07 -1 -3.548214E-07
vn -0.5455378 -2.601327E-08 0.8380862
vn -0.5455376 -1.625829E-08 0.8380864
vn -0.5455376 -1.625829E-08 0.8380864
vn -0.5455374 -6.503313E-09 0.8380865
vn 0.5455383 -6.503323E-09 -0.8380859
vn 0.5455383 -8.129153E-09 -0.8380859
vn 0.5455383 -8.129153E-09 -0.8380859
vn 0.5455383 -9.754984E-09 -0.8380859
vn 0 1 0
vn 0 1 0
vn 9.558308E-08 -1 -2.038336E-07
vn 0 -1 0
vn -0.985046 -1.174266E-08 0.1722916
vn -0.9850459 2.935666E-08 0.1722919
vn -0.9850459 2.935666E-08 0.1722919
vn -0.9850459 7.045598E-08 0.1722922
vn 0.824733 -1.474737E-08 -0.5655224
vn 0.824733 -2.212106E-08 -0.5655223
vn 0.824733 -2.212106E-08 -0.5655223
vn 0.8247331 -2.949476E-08 -0.5655222
vn -2.372791E-07 1 -5.335245E-07
vn 4.171823E-08 1 -3.815276E-07
vn -1.483177E-06 -1 -7.249253E-07
vn -3.036572E-06 -1 -8.076714E-07
vn -0.5796321 4.145852E-08 -0.8148783
vn -0.5796322 4.836828E-08 -0.8148782
vn -0.5796322 4.836828E-08 -0.8148782
vn -0.5796322 5.527804E-08 -0.8148782
vn 0.9663997 -3.456115E-08 0.2570442
vn 0.9663997 -4.032134E-08 0.2570443
vn 0.9663997 -4.032134E-08 0.2570443
vn 0.9663996 -4.608152E-08 0.2570445
vn -1.843098E-07 1 -6.295613E-07
vn -1.843098E-07 1 -6.295613E-07
vn -3.686196E-07 1 -1.259123E-06
g InvisWall_06_0
f 3/3/3 2/2/2 1/1/1
f 3/3/3 4/4/4 2/2/2
f 7/7/7 6/6/6 5/5/5
f 7/7/7 8/8/8 6/6/6
f 11/11/11 10/10/10 9/9/9
f 11/11/11 12/12/12 10/10/10
f 15/15/15 14/14/14 13/13/13
f 15/15/15 16/16/16 14/14/14
f 19/19/19 18/18/18 17/17/17
f 19/19/19 20/20/20 18/18/18
f 23/23/23 22/22/22 21/21/21
f 23/23/23 24/24/24 22/22/22
f 25/25/25 21/21/21 22/22/22
f 25/25/25 26/26/26 21/21/21
f 29/29/29 28/28/28 27/27/27
f 29/29/29 30/30/30 28/28/28
f 33/33/33 32/32/32 31/31/31
f 33/33/33 34/34/34 32/32/32
f 35/35/35 20/20/20 19/19/19
f 35/35/35 36/36/36 20/20/20
f 37/37/37 26/26/26 25/25/25
f 37/37/37 38/38/38 26/26/26
f 41/41/41 40/40/40 39/39/39
f 41/41/41 42/42/42 40/40/40
f 45/45/45 44/44/44 43/43/43
f 45/45/45 46/46/46 44/44/44
f 47/47/47 36/36/36 35/35/35
f 47/47/47 48/48/48 36/36/36
f 49/49/49 38/38/38 37/37/37
f 49/49/49 50/50/50 38/38/38
f 53/53/53 52/52/52 51/51/51
f 53/53/53 54/54/54 52/52/52
f 57/57/57 56/56/56 55/55/55
f 57/57/57 58/58/58 56/56/56
f 59/59/59 48/48/48 47/47/47
f 59/59/59 60/60/60 48/48/48
f 61/61/61 50/50/50 49/49/49
f 61/61/61 62/62/62 50/50/50
f 65/65/65 64/64/64 63/63/63
f 65/65/65 66/66/66 64/64/64
f 69/69/69 68/68/68 67/67/67
f 69/69/69 70/70/70 68/68/68
f 71/71/71 60/60/60 59/59/59
f 71/71/71 72/72/72 60/60/60
f 73/73/73 62/62/62 61/61/61
f 73/73/73 74/74/74 62/62/62
f 77/77/77 76/76/76 75/75/75
f 77/77/77 78/78/78 76/76/76
f 81/81/81 80/80/80 79/79/79
f 81/81/81 82/82/82 80/80/80
f 84/84/84 83/83/83 71/71/71
f 84/84/84 85/85/85 83/83/83
