g InvisWall_05
v 0.5320703 -9.217997 -0.04867109
v -0.9662917 -9.217997 1.723029
v 0.5320704 10.782 -0.0486712
v -0.9662922 10.78201 1.72303
v -14.20354 -9.217996 -21.09734
v -12.37523 -9.217996 -21.99559
v -14.20354 10.78201 -21.09734
v -12.37523 10.782 -21.99559
v -1.594039 -9.217996 -0.4555103
v 0.1224771 -9.217997 -1.018556
v -1.594039 10.78201 -0.4555118
v 0.1224772 10.782 -1.018556
v 0.1224771 -9.217997 -1.018556
v 0.5320703 -9.217997 -0.04867109
v 0.1224772 10.782 -1.018556
v 0.5320704 10.782 -0.0486712
v 0.5320704 10.782 -0.0486712
v -0.9662922 10.78201 1.72303
v 0.1224772 10.782 -1.018556
v -1.594039 10.78201 -0.4555118
v 0.1224771 -9.217997 -1.018556
v -1.594039 -9.217996 -0.4555103
v 0.5320703 -9.217997 -0.04867109
v -0.9662917 -9.217997 1.723029
v -5.175333 -9.217997 0.2685661
v -4.121304 -9.217996 -2.331369
v -0.9662922 10.78201 1.72303
v -0.9662917 -9.217997 1.723029
v -5.175334 10.78201 0.2685664
v -5.175333 -9.217997 0.2685661
v -1.594039 -9.217996 -0.4555103
v -1.594039 10.78201 -0.4555118
v -4.121304 -9.217996 -2.331369
v -4.121303 10.78201 -2.33137
v -4.121303 10.78201 -2.33137
v -5.175334 10.78201 0.2685664
v -8.163658 -9.217997 -0.3983344
v -7.109627 -9.217996 -2.998271
v -5.175334 10.78201 0.2685664
v -5.175333 -9.217997 0.2685661
v -8.163659 10.78201 -0.3983341
v -8.163658 -9.217997 -0.3983344
v -4.121304 -9.217996 -2.331369
v -4.121303 10.78201 -2.33137
v -7.109627 -9.217996 -2.998271
v -7.109628 10.78201 -2.998271
v -7.109628 10.78201 -2.998271
v -8.163659 10.78201 -0.3983341
v -9.631323 -9.217997 -4.500041
v -7.803014 -9.217996 -5.398296
v -8.163659 10.78201 -0.3983341
v -8.163658 -9.217997 -0.3983344
v -9.631324 10.78201 -4.500041
v -9.631323 -9.217997 -4.500041
v -7.109627 -9.217996 -2.998271
v -7.109628 10.78201 -2.998271
v -7.803014 -9.217996 -5.398296
v -7.803015 10.78201 -5.398295
v -7.803015 10.78201 -5.398295
v -9.631324 10.78201 -4.500041
v -13.18032 -9.217997 -7.137753
v -12.80272 -9.217994 -7.308664
v -9.631324 10.78201 -4.500041
v -9.631323 -9.217997 -4.500041
v -13.18033 10.78201 -7.137754
v -13.18032 -9.217997 -7.137753
v -7.803014 -9.217996 -5.398296
v -7.803015 10.78201 -5.398295
v -12.80272 -9.217994 -7.308664
v -12.80273 10.78201 -7.308663
v -12.80273 10.78201 -7.308663
v -13.18033 10.78201 -7.137754
v -13.04044 -9.217997 -10.17359
v -11.21213 -9.217996 -11.07185
v -13.18033 10.78201 -7.137754
v -13.18032 -9.217997 -7.137753
v -13.04044 10.78201 -10.17359
v -13.04044 -9.217997 -10.17359
v -12.80272 -9.217994 -7.308664
v -12.80273 10.78201 -7.308663
v -11.21213 -9.217996 -11.07185
v -11.21213 10.782 -11.07185
v -11.21213 10.782 -11.07185
v -13.04044 10.78201 -10.17359
v -14.78248 -9.217997 -11.33002
v -12.95417 -9.217996 -12.22827
v -13.04044 10.78201 -10.17359
v -13.04044 -9.217997 -10.17359
v -14.78248 10.78201 -11.33002
v -14.78248 -9.217997 -11.33002
v -11.21213 -9.217996 -11.07185
v -11.21213 10.782 -11.07185
v -12.95417 -9.217996 -12.22827
v -12.95417 10.782 -12.22827
v -12.95417 10.782 -12.22827
v -14.78248 10.78201 -11.33002
v -14.03306 -9.217997 -13.20354
v -12.20475 -9.217996 -14.1018
v -14.78248 10.78201 -11.33002
v -14.78248 -9.217997 -11.33002
v -14.03306 10.78201 -13.20354
v -14.03306 -9.217997 -13.20354
v -12.95417 -9.217996 -12.22827
v -12.95417 10.782 -12.22827
v -12.20475 -9.217996 -14.1018
v -12.20475 10.782 -14.10179
v -12.20475 10.782 -14.10179
v -14.03306 10.78201 -13.20354
v -15.06903 -9.217997 -16.43412
v -13.24072 -9.217996 -17.33238
v -14.03306 10.78201 -13.20354
v -14.03306 -9.217997 -13.20354
v -15.06903 10.78201 -16.43412
v -15.06903 -9.217997 -16.43412
v -12.20475 -9.217996 -14.1018
v -12.20475 10.782 -14.10179
v -13.24072 -9.217996 -17.33238
v -13.24072 10.782 -17.33237
v -13.24072 10.782 -17.33237
v -15.06903 10.78201 -16.43412
v -14.20354 -9.217996 -21.09734
v -12.37523 -9.217996 -21.99559
v -15.06903 10.78201 -16.43412
v -15.06903 -9.217997 -16.43412
v -14.20354 10.78201 -21.09734
v -14.20354 -9.217996 -21.09734
v -13.24072 -9.217996 -17.33238
v -13.24072 10.782 -17.33237
v -12.37523 -9.217996 -21.99559
v -12.37523 10.782 -21.99559
v -12.37523 10.782 -21.99559
v -14.20354 10.78201 -21.09734
vt 0.3807467 -9.217997
vt -1.939601 -9.217997
vt 0.3807468 10.782
vt -1.939601 10.78201
vt 3.445001 -9.217995
vt 1.40795 -9.217995
vt 3.445003 10.78201
vt 1.407953 10.782
vt 1.372665 -9.217996
vt -0.4338371 -9.217997
vt 1.372664 10.78201
vt -0.4338372 10.782
vt 0.8906657 -9.217997
vt -0.1621606 -9.217997
vt 0.8906658 10.782
vt -0.1621606 10.782
vt -0.5320742 -0.04866219
vt 0.9662884 1.723039
vt -0.122481 -1.018547
vt 1.594035 -0.4555028
vt 0.1224816 -1.018558
vt -1.594035 -0.4555122
vt 0.5320747 -0.04867299
vt -0.9662872 1.723027
vt -5.175334 0.2685705
vt -4.121305 -2.331365
vt -0.3505479 10.78201
vt -0.3505475 -9.217997
vt -4.803805 10.78201
vt -4.803804 -9.217997
vt 1.551466 -9.217996
vt 1.551467 10.78201
vt 4.698832 -9.217996
vt 4.698832 10.78201
vt 4.121303 -2.33137
vt 5.175334 0.2685664
vt -8.163659 -0.3983313
vt -7.109628 -2.998268
vt -4.992583 10.78201
vt -4.992582 -9.217997
vt -8.05442 10.78201
vt -8.054419 -9.217997
vt 4.530153 -9.217996
vt 4.530153 10.78201
vt 7.591989 -9.217996
vt 7.591989 10.78201
vt 7.109628 -2.998271
vt 8.163659 -0.3983341
vt -9.631328 -4.50004
vt -7.803019 -5.398294
vt -3.125385 10.78201
vt -3.125385 -9.217997
vt -7.481765 10.78201
vt -7.481764 -9.217997
vt 4.853792 -9.217996
vt 4.853792 10.78201
vt 7.351973 -9.217996
vt 7.351973 10.78201
vt 7.803015 -5.398295
vt 9.631324 -4.500041
vt -13.18033 -7.13775
vt -12.80273 -7.30866
vt -10.41446 10.78201
vt -10.41446 -9.217997
vt -14.83633 10.78201
vt -14.83633 -9.217997
vt 9.215847 -9.217996
vt 9.215848 10.78201
vt 14.5681 -9.217994
vt 14.5681 10.78201
vt 12.80273 -7.308663
vt 13.18033 -7.137754
vt -13.04051 -10.1736
vt -11.2122 -11.07185
vt -6.52352 10.78201
vt -6.52352 -9.217996
vt -9.562579 10.78201
vt -9.56258 -9.217996
vt 1.747615 -9.217994
vt 1.747614 10.78201
vt 5.833143 -9.217996
vt 5.833141 10.782
vt 11.21213 -11.07184
vt 13.04044 -10.17359
vt -14.78248 -11.33002
vt -12.95417 -12.22827
vt -16.49115 10.78201
vt -16.49115 -9.217997
vt -18.58209 10.78201
vt -18.58209 -9.217997
vt 15.46471 -9.217996
vt 15.46471 10.782
vt 17.55565 -9.217996
vt 17.55565 10.782
vt 12.95417 -12.22827
vt 14.78248 -11.33002
vt -14.03306 -13.20354
vt -12.20476 -14.1018
vt -5.029483 10.78201
vt -5.029483 -9.217995
vt -7.04733 10.78201
vt -7.047331 -9.217995
vt 6.54252 -9.217997
vt 6.542518 10.782
vt 8.560368 -9.217997
vt 8.560366 10.782
vt 12.20476 -14.1018
vt 14.03307 -13.20354
vt -15.06903 -16.43412
vt -13.24072 -17.33237
vt -16.85803 10.78201
vt -16.85803 -9.217996
vt -20.25065 10.78201
vt -20.25065 -9.217996
vt 17.15509 -9.217996
vt 17.15508 10.782
vt 20.54771 -9.217996
vt 20.5477 10.782
vt 13.24072 -17.33237
vt 15.06903 -16.43412
vt -14.20354 -21.09733
vt -12.37523 -21.99559
vt -13.40834 10.78201
vt -13.40834 -9.217994
vt -18.15119 10.78201
vt -18.15119 -9.217993
vt 14.62515 -9.217997
vt 14.62514 10.782
vt 19.368 -9.217997
vt 19.368 10.782
vt 12.37524 -21.99559
vt 14.20355 -21.09734
vn 0.7635497 -1.183267E-09 0.645749
vn 0.7635497 2.595552E-11 0.645749
vn 0.7635497 2.595552E-11 0.645749
vn 0.7635497 1.235179E-09 0.645749
vn -0.4409591 -4.205313E-08 -0.8975272
vn -0.4409583 5.405514E-08 -0.8975276
vn -0.4409583 5.405514E-08 -0.8975276
vn -0.4409574 1.501634E-07 -0.8975281
vn -0.3116774 -6.937863E-08 -0.950188
vn -0.311677 -3.676639E-08 -0.9501881
vn -0.311677 -3.676639E-08 -0.9501881
vn -0.3116767 -4.154151E-09 -0.9501882
vn 0.9212202 -6.780224E-09 -0.3890415
vn 0.9212202 -7.150067E-09 -0.3890415
vn 0.9212202 -7.150067E-09 -0.3890415
vn 0.9212202 -7.51991E-09 -0.3890415
vn -3.509413E-07 1 -8.350797E-07
vn 3.321383E-07 1 -5.638074E-07
vn 3.321383E-07 1 -5.638074E-07
vn 1.015218E-06 1 -2.925351E-07
vn -4.879885E-07 -1 2.06083E-07
vn -4.370315E-07 -1 -6.021396E-08
vn -4.370315E-07 -1 -6.021396E-08
vn -3.860746E-07 -1 -3.265109E-07
vn 1.88642E-07 -1 -3.840644E-07
vn 2.092855E-07 -1 -2.819613E-07
vn -0.3266067 -3.692824E-08 0.9451603
vn -0.3266067 -3.188462E-08 0.9451603
vn -0.3266067 -3.188462E-08 0.9451603
vn -0.3266067 -2.684101E-08 0.9451604
vn 0.5960092 -5.862996E-08 -0.8029776
vn 0.5960091 -5.077833E-08 -0.8029777
vn 0.5960091 -5.077833E-08 -0.8029777
vn 0.5960091 -4.292669E-08 -0.8029777
vn 0 1 0
vn 0 1 0
vn 7.506814E-08 -1 -3.363737E-07
vn 7.506821E-08 -1 -3.363736E-07
vn -0.2178106 -2.492942E-08 0.9759911
vn -0.2178106 -2.347508E-08 0.9759911
vn -0.2178106 -2.347508E-08 0.9759911
vn -0.2178106 -2.202074E-08 0.9759911
vn 0.2178111 -4.009718E-08 -0.975991
vn 0.2178108 -3.220862E-09 -0.975991
vn 0.2178108 -3.220862E-09 -0.975991
vn 0.2178106 3.365546E-08 -0.9759911
vn 0 1 0
vn 0 1 0
vn 4.686905E-07 -1 -1.519676E-07
vn 4.567796E-07 -1 -1.319674E-07
vn -0.9415404 -4.941432E-08 0.3369001
vn -0.9415404 -4.715523E-08 0.3369001
vn -0.9415404 -4.715523E-08 0.3369001
vn -0.9415404 -4.489614E-08 0.3369001
vn 0.9607092 5.242766E-08 -0.2775569
vn 0.9607092 5.242766E-08 -0.2775569
vn 0.9607092 5.242766E-08 -0.2775569
vn 0.9607092 5.242766E-08 -0.2775569
vn 0 1 0
vn 0 1 0
vn 1.787755E-06 -1 -4.978355E-06
vn 3.261481E-06 -1 -9.534189E-06
vn -0.5965151 -2.844405E-08 0.8026019
vn -0.5965151 -3.309832E-08 0.8026018
vn -0.5965151 -3.309832E-08 0.8026018
vn -0.5965151 -3.775259E-08 0.8026018
vn 0.3569278 3.929109E-08 -0.934132
vn 0.3569278 5.042681E-08 -0.934132
vn 0.3569278 5.042681E-08 -0.934132
vn 0.3569278 6.156253E-08 -0.934132
vn 0 1 0
vn 0 1 0
vn 4.355437E-06 -1 6.372469E-07
vn 9.726014E-07 -1 9.179357E-07
vn -0.9989402 -9.636375E-08 -0.0460284
vn -0.9989402 -9.581505E-08 -0.04602839
vn -0.9989402 -9.581505E-08 -0.04602839
vn -0.9989402 -9.526634E-08 -0.04602839
vn 0.921101 2.535713E-08 0.3893236
vn 0.921101 1.607492E-08 0.3893237
vn 0.921101 1.607492E-08 0.3893237
vn 0.921101 6.792721E-09 0.3893237
vn 1.959291E-07 1 -1.443912E-07
vn 5.336972E-07 1 2.459129E-08
vn 2.99762E-07 -1 -4.51561E-07
vn 2.99762E-07 -1 -4.51561E-07
vn -0.5530663 -5.27445E-08 0.8331373
vn -0.5530661 -3.288094E-08 0.8331374
vn -0.5530661 -3.288094E-08 0.8331374
vn -0.5530659 -1.301738E-08 0.8331375
vn 0.5530659 1.058264E-07 -0.8331375
vn 0.553066 9.264029E-08 -0.8331374
vn 0.553066 9.264029E-08 -0.8331374
vn 0.5530661 7.945417E-08 -0.8331373
vn 2.997623E-07 1 -4.51561E-07
vn 2.997623E-07 1 -4.515611E-07
vn 6.491995E-07 -1 2.596839E-07
vn 6.491995E-07 -1 2.596839E-07
vn -0.9284746 -1.062558E-07 -0.3713959
vn -0.9284747 -9.7401E-08 -0.3713958
vn -0.9284747 -9.7401E-08 -0.3713958
vn -0.9284747 -8.854624E-08 -0.3713957
vn 0.9284747 -3.541906E-08 0.3713957
vn 0.9284747 -4.427383E-08 0.3713958
vn 0.9284747 -4.427383E-08 0.3713958
vn 0.9284746 -5.312861E-08 0.3713959
vn 6.491983E-07 1 2.596836E-07
vn 6.491983E-07 1 2.596836E-07
vn 4.506208E-07 -1 -1.44503E-07
vn 4.506208E-07 -1 -1.44503E-07
vn -0.9522372 -9.081241E-08 0.3053594
vn -0.9522372 -1.135155E-07 0.3053592
vn -0.9522372 -1.135155E-07 0.3053592
vn -0.9522373 -1.362186E-07 0.3053591
vn 0.9522373 4.368196E-08 -0.305359
vn 0.9522373 5.09623E-08 -0.3053591
vn 0.9522373 5.09623E-08 -0.3053591
vn 0.9522373 5.824264E-08 -0.3053592
vn 7.385774E-07 1 -8.924273E-08
vn 1.026534E-06 1 -3.398247E-08
vn 2.316969E-07 -1 -5.925234E-08
vn 0 -1 0
vn -0.9832091 -1.406492E-07 -0.1824826
vn -0.9832091 -1.172076E-07 -0.1824825
vn -0.9832091 -1.172076E-07 -0.1824825
vn -0.9832091 -9.376612E-08 -0.1824824
vn 0.9832091 -3.480579E-08 0.1824826
vn 0.9832091 -1.136424E-08 0.1824825
vn 0.9832091 -1.136424E-08 0.1824825
vn 0.9832091 1.207731E-08 0.1824824
vn 1.721853E-06 1 3.19574E-07
vn 2.406362E-06 1 6.511283E-07
g InvisWall_05_0
f 3/3/3 2/2/2 1/1/1
f 3/3/3 4/4/4 2/2/2
f 7/7/7 6/6/6 5/5/5
f 7/7/7 8/8/8 6/6/6
f 11/11/11 10/10/10 9/9/9
f 11/11/11 12/12/12 10/10/10
f 15/15/15 14/14/14 13/13/13
f 15/15/15 16/16/16 14/14/14
f 19/19/19 18/18/18 17/17/17
f 19/19/19 20/20/20 18/18/18
f 23/23/23 22/22/22 21/21/21
f 23/23/23 24/24/24 22/22/22
f 25/25/25 22/22/22 24/24/24
f 25/25/25 26/26/26 22/22/22
f 29/29/29 28/28/28 27/27/27
f 29/29/29 30/30/30 28/28/28
f 33/33/33 32/32/32 31/31/31
f 33/33/33 34/34/34 32/32/32
f 35/35/35 18/18/18 20/20/20
f 35/35/35 36/36/36 18/18/18
f 37/37/37 26/26/26 25/25/25
f 37/37/37 38/38/38 26/26/26
f 41/41/41 40/40/40 39/39/39
f 41/41/41 42/42/42 40/40/40
f 45/45/45 44/44/44 43/43/43
f 45/45/45 46/46/46 44/44/44
f 47/47/47 36/36/36 35/35/35
f 47/47/47 48/48/48 36/36/36
f 49/49/49 38/38/38 37/37/37
f 49/49/49 50/50/50 38/38/38
f 53/53/53 52/52/52 51/51/51
f 53/53/53 54/54/54 52/52/52
f 57/57/57 56/56/56 55/55/55
f 57/57/57 58/58/58 56/56/56
f 59/59/59 48/48/48 47/47/47
f 59/59/59 60/60/60 48/48/48
f 61/61/61 50/50/50 49/49/49
f 61/61/61 62/62/62 50/50/50
f 65/65/65 64/64/64 63/63/63
f 65/65/65 66/66/66 64/64/64
f 69/69/69 68/68/68 67/67/67
f 69/69/69 70/70/70 68/68/68
f 71/71/71 60/60/60 59/59/59
f 71/71/71 72/72/72 60/60/60
f 73/73/73 62/62/62 61/61/61
f 73/73/73 74/74/74 62/62/62
f 77/77/77 76/76/76 75/75/75
f 77/77/77 78/78/78 76/76/76
f 81/81/81 80/80/80 79/79/79
f 81/81/81 82/82/82 80/80/80
f 83/83/83 72/72/72 71/71/71
f 83/83/83 84/84/84 72/72/72
f 85/85/85 74/74/74 73/73/73
f 85/85/85 86/86/86 74/74/74
f 89/89/89 88/88/88 87/87/87
f 89/89/89 90/90/90 88/88/88
f 93/93/93 92/92/92 91/91/91
f 93/93/93 94/94/94 92/92/92
f 95/95/95 84/84/84 83/83/83
f 95/95/95 96/96/96 84/84/84
f 97/97/97 86/86/86 85/85/85
f 97/97/97 98/98/98 86/86/86
f 101/101/101 100/100/100 99/99/99
f 101/101/101 102/102/102 100/100/100
f 105/105/105 104/104/104 103/103/103
f 105/105/105 106/106/106 104/104/104
f 107/107/107 96/96/96 95/95/95
f 107/107/107 108/108/108 96/96/96
f 109/109/109 98/98/98 97/97/97
f 109/109/109 110/110/110 98/98/98
f 113/113/113 112/112/112 111/111/111
f 113/113/113 114/114/114 112/112/112
f 117/117/117 116/116/116 115/115/115
f 117/117/117 118/118/118 116/116/116
f 119/119/119 108/108/108 107/107/107
f 119/119/119 120/120/120 108/108/108
f 121/121/121 110/110/110 109/109/109
f 121/121/121 122/122/122 110/110/110
f 125/125/125 124/124/124 123/123/123
f 125/125/125 126/126/126 124/124/124
f 129/129/129 128/128/128 127/127/127
f 129/129/129 130/130/130 128/128/128
f 131/131/131 120/120/120 119/119/119
f 131/131/131 132/132/132 120/120/120
