g KK-DumpsterInner
v -4.457436 6.311293 1.622972
v -5.689078 6.311293 1.790668
v -5.705822 6.311294 0.5422267
v -4.593132 6.311293 0.4135045
v -5.689078 8.972342 1.790667
v -4.4358 8.972342 1.622086
v -4.571496 8.972342 0.4132831
v -5.693793 8.972342 0.5420688
v -4.41288 8.951491 1.619332
v -4.565848 8.091855 0.4114022
v -4.548577 8.951466 0.4112261
v -4.430151 8.091855 1.620038
v -4.548158 7.211367 0.4112218
v -4.412462 7.211367 1.619315
v -4.569795 6.332173 0.4114424
v -4.434098 6.332173 1.6202
v -5.712416 6.332173 1.793566
v -5.728935 7.211367 0.5444065
v -5.728935 6.332174 0.5444065
v -5.712416 7.211367 1.793566
v -5.728934 8.091854 0.5444065
v -5.712416 8.091854 1.793566
v -5.728935 8.951463 0.5444065
v -5.712416 8.951463 1.793566
v -4.593132 6.311293 0.4135045
v -4.569795 6.332173 0.4114424
v -4.434098 6.332173 1.6202
v -4.457436 6.311293 1.622972
v -5.693793 8.972342 0.5420688
v -5.728935 8.951463 0.5444065
v -5.712416 8.951463 1.793566
v -5.689078 8.972342 1.790667
v -4.548577 8.951466 0.4112261
v -4.571496 8.972342 0.4132831
v -4.4358 8.972342 1.622086
v -4.41288 8.951491 1.619332
v -5.728935 6.332174 0.5444065
v -5.705822 6.311294 0.5422267
v -5.689078 6.311293 1.790668
v -5.712416 6.332173 1.793566
v -5.705822 6.311294 0.5422267
v -4.569795 6.332173 0.4114424
v -4.593132 6.311293 0.4135045
v -5.728935 6.332174 0.5444065
v -5.728935 7.211367 0.5444065
v -4.548158 7.211367 0.4112218
v -4.565848 8.091855 0.4114022
v -5.728934 8.091854 0.5444065
v -5.728935 8.951463 0.5444065
v -4.548577 8.951466 0.4112261
v -5.693793 8.972342 0.5420688
v -4.571496 8.972342 0.4132831
vt 0.5176641 0.0005
vt 0.3978544 0.0005
vt 0.3978544 0.1256162
vt 0.5176641 0.1256162
vt 0.1244365 0.0005
vt 0.003635988 0.0005
vt 0.003635988 0.1256162
vt 0.1244365 0.1256162
vt 0.7870405 0.0005
vt 0.6996763 0.1256162
vt 0.7870405 0.1256162
vt 0.6996763 0.0005
vt 0.6102114 0.1256162
vt 0.6102114 0.0005
vt 0.5208552 0.1256162
vt 0.5208552 0.0005
vt 0.3946798 0.0005
vt 0.305185 0.1256162
vt 0.3946798 0.1256162
vt 0.305185 0.0005
vt 0.2155633 0.1256162
vt 0.2155633 0.0005
vt 0.1280703 0.1256162
vt 0.1280703 0.0005
vt 0.5176641 0.1256162
vt 0.5208552 0.1256162
vt 0.5208552 0.0005
vt 0.5176641 0.0005
vt 0.1244365 0.1256162
vt 0.1280703 0.1256162
vt 0.1280703 0.0005
vt 0.1244365 0.0005
vt 0.0005 0.1256162
vt 0.003635988 0.1256162
vt 0.003635988 0.0005
vt 0.0005 0.0005
vt 0.3946798 0.1256162
vt 0.3978544 0.1256162
vt 0.3978544 0.0005
vt 0.3946798 0.0005
vt 0.5864813 0.1736079
vt 0.7025585 0.1757272
vt 0.7001811 0.1736076
vt 0.5841252 0.1757274
vt 0.584124 0.2649724
vt 0.7047418 0.2649724
vt 0.702953 0.3543495
vt 0.5841213 0.3543493
vt 0.5841201 0.4416067
vt 0.7046956 0.4416071
vt 0.5876912 0.4437265
vt 0.7023605 0.4437262
vn 2.015331E-07 1 0
vn 2.015331E-07 1 0
vn 2.015331E-07 1 0
vn 2.015331E-07 1 0
vn -2.453496E-07 -1 -4.206335E-07
vn -2.453496E-07 -1 -4.206335E-07
vn -2.453496E-07 -1 -4.206335E-07
vn -2.453496E-07 -1 -4.206335E-07
vn -0.9935546 0.02001916 0.1115735
vn -0.9937537 1.128196E-07 0.1115961
vn -0.9935546 0.02001916 0.1115735
vn -0.9937537 1.054614E-07 0.1115961
vn -0.9937513 0.00225343 0.1115932
vn -0.9937513 0.002247912 0.1115932
vn -0.9934555 0.0245182 0.1115572
vn -0.9934555 0.0245182 0.1115572
vn 0.9999126 0 -0.01322264
vn 0.9999126 -1.288989E-07 -0.01322261
vn 0.9999126 0 -0.01322264
vn 0.9999126 -1.288989E-07 -0.01322261
vn 0.9999126 -1.08904E-07 -0.01322256
vn 0.9999126 -1.08904E-07 -0.01322256
vn 0.9999126 0 -0.01322255
vn 0.9999126 0 -0.01322255
vn -0.6606606 0.7470142 0.07414483
vn -0.6606606 0.7470142 0.07414483
vn -0.6606606 0.7470142 0.07414483
vn -0.6606606 0.7470142 0.07414483
vn 0.5808262 -0.8140126 -0.004937983
vn 0.5808262 -0.8140126 -0.004937983
vn 0.5808262 -0.8140126 -0.004937983
vn 0.5808262 -0.8140126 -0.004937983
vn -0.6669704 -0.7413097 0.07490175
vn -0.6669705 -0.7413097 0.07490175
vn -0.6669705 -0.7413097 0.07490175
vn -0.6669705 -0.7413097 0.07490174
vn 0.6679998 0.7441084 -0.008896243
vn 0.6679998 0.7441084 -0.008896243
vn 0.6679998 0.7441084 -0.008896244
vn 0.6679998 0.7441084 -0.008896243
vn 0.1144301 -0.003416701 0.9934255
vn 0.113458 -0.001940108 0.9935409
vn 0.1144301 -0.003416701 0.9934255
vn 0.1134645 -0.001950094 0.9935401
vn 0.1129286 -0.0001170828 0.9936031
vn 0.1129285 -0.000115416 0.9936031
vn 0.1128522 0 0.9936118
vn 0.1128522 0 0.9936118
vn 0.1129031 -0.007494571 0.9935777
vn 0.1129134 -0.009205298 0.9935622
vn 0.1129985 -0.02639949 0.9932445
vn 0.1129985 -0.02639949 0.9932445
g KK-DumpsterInner_0
f 3/3/3 2/2/2 1/1/1
f 4/4/4 3/3/3 1/1/1
f 7/7/7 6/6/6 5/5/5
f 8/8/8 7/7/7 5/5/5
f 11/11/11 10/10/10 9/9/9
f 10/10/10 12/12/12 9/9/9
f 10/10/10 13/13/13 12/12/12
f 13/13/13 14/14/14 12/12/12
f 14/14/14 13/13/13 15/15/15
f 16/16/16 14/14/14 15/15/15
f 19/19/19 18/18/18 17/17/17
f 18/18/18 20/20/20 17/17/17
f 18/18/18 21/21/21 20/20/20
f 21/21/21 22/22/22 20/20/20
f 22/22/22 21/21/21 23/23/23
f 24/24/24 22/22/22 23/23/23
f 27/27/27 26/26/26 25/25/25
f 28/28/28 27/27/27 25/25/25
f 31/31/31 30/30/30 29/29/29
f 32/32/32 31/31/31 29/29/29
f 35/35/35 34/34/34 33/33/33
f 36/36/36 35/35/35 33/33/33
f 39/39/39 38/38/38 37/37/37
f 40/40/40 39/39/39 37/37/37
f 43/43/43 42/42/42 41/41/41
f 42/42/42 44/44/44 41/41/41
f 44/44/44 42/42/42 45/45/45
f 42/42/42 46/46/46 45/45/45
f 45/45/45 46/46/46 47/47/47
f 48/48/48 45/45/45 47/47/47
f 49/49/49 48/48/48 47/47/47
f 50/50/50 49/49/49 47/47/47
f 51/51/51 49/49/49 50/50/50
f 52/52/52 51/51/51 50/50/50
