g KK-DumpsterLidFace_1
v -4.187074 9.024405 1.808479
v -4.019259 10.04108 1.822767
v -4.925057 10.20939 2.623819
v -5.114588 9.196545 2.642564
v -4.34803 8.158797 1.813834
v -5.286792 8.332993 2.643597
v -4.536105 7.18856 1.815909
v -5.428041 7.338081 2.622474
vt 0.0005 0.3374805
vt 0.008329528 0.5059709
vt 0.4981413 0.5059709
vt 0.5059709 0.3374805
vt 0.0005 0.1689903
vt 0.5059709 0.1689903
vt 0.008329528 0.0005
vt 0.4981413 0.0005
vn -0.6487085 0.1174125 -0.7519252
vn -0.6496351 0.1127323 -0.7518415
vn -0.6496351 0.1127323 -0.7518415
vn -0.6487073 0.1174184 -0.7519253
vn -0.6490833 0.1191615 -0.7513264
vn -0.6490733 0.1191835 -0.7513316
vn -0.6503904 0.1162694 -0.7506489
vn -0.6503904 0.1162694 -0.7506489
g KK-DumpsterLidFace_1_0
f 3/3/3 2/2/2 1/1/1
f 4/4/4 3/3/3 1/1/1
f 1/1/1 5/5/5 4/4/4
f 5/5/5 6/6/6 4/4/4
f 5/5/5 7/7/7 6/6/6
f 7/7/7 8/8/8 6/6/6
