g KK-DoorFrame
v -0.9128134 -2.32231 2.648504
v -2.977224 -2.4035 2.648505
v -0.9325247 -2.403499 2.664868
v -2.944799 -2.32231 2.648506
v -0.9128335 -2.159632 2.648506
v -2.944798 -2.159632 2.648508
v -0.9323279 -2.322311 2.989138
v -0.9323279 -2.4035 2.972773
v -2.976871 -2.403499 2.972776
v -2.944801 -2.322311 2.989136
v -0.9323279 -2.222248 3.038707
v -2.944803 -2.222248 3.038704
v -3.037576 -2.322311 2.989135
v -3.045271 -2.403499 2.969913
v -3.130354 -2.322311 2.989135
v -3.130271 -2.403499 2.964418
v -3.268557 -2.222248 3.038705
v -3.21527 -2.403498 2.971443
v -3.223132 -2.322311 2.989135
v -3.315909 -2.322311 2.989135
v -3.355298 -2.405208 2.997294
v -3.21527 -2.403498 2.971443
v -3.355297 -2.405208 2.688973
v -3.355298 -2.405208 2.997294
v -3.215268 -2.4035 2.685355
v -3.130271 -2.403499 2.964418
v -3.355297 -2.405208 2.648504
v -3.130269 -2.4035 2.684372
v -3.045268 -2.4035 2.685141
v -3.045271 -2.403499 2.969913
v -2.977135 -2.403499 2.685127
v -2.976871 -2.403499 2.972776
v -0.9323279 -2.4035 2.972773
v -0.9323282 -2.403499 2.683293
v -2.977224 -2.4035 2.648505
v -0.9325247 -2.403499 2.664868
v -3.045268 -2.4035 2.648505
v -3.130269 -2.4035 2.648505
v -3.215268 -2.4035 2.648505
v -3.215269 -2.4035 1.324254
v -3.355299 -2.405208 1.324257
v -3.355298 -2.405207 1.220703E-06
v -3.04527 -2.4035 1.324254
v -2.96127 -2.4035 1.324254
v -2.977225 -2.4035 1.831055E-06
v -3.13027 -2.4035 1.324255
v -3.21527 -2.4035 1.220703E-06
v -3.355298 -2.405207 -0.02384277
v -3.045269 -2.4035 1.220703E-06
v -3.130269 -2.4035 3.051758E-06
v -3.21527 -2.4035 -0.02246765
v -3.130269 -2.4035 -0.02179016
v -3.21527 -2.4035 -0.3209863
v -3.355299 -2.405208 -0.3411176
v -3.13027 -2.403499 -0.3113318
v -3.04527 -2.4035 -0.02249695
v -3.045271 -2.403499 -0.3214026
v -2.9772 -2.4035 -0.0223645
v -2.976871 -2.403499 -0.3242651
v -0.9323276 -2.403499 -0.03478638
v -0.9325247 -2.403498 -0.0163623
v -0.9323282 -2.4035 -0.3242639
v -2.944799 -2.32231 2.648506
v -2.96127 -2.4035 1.324254
v -2.977224 -2.4035 2.648505
v -2.944799 -2.322311 1.324255
v -2.944798 -2.159632 2.648508
v -2.9448 -2.159633 1.343679
v -2.944801 -2.32231 2.441406E-06
v -2.977225 -2.4035 1.831055E-06
v -2.944799 -2.159632 2.441406E-06
v -2.944801 -2.159632 1.304828
v -2.944802 -2.159435 1.324252
v -2.944801 -2.122331 1.324254
v -2.977225 -2.4035 1.831055E-06
v -0.9128122 -2.32231 3.051758E-06
v -0.9325247 -2.403498 -0.0163623
v -2.944801 -2.32231 2.441406E-06
v -0.9128323 -2.159632 1.220703E-06
v -2.944799 -2.159632 2.441406E-06
v -0.9323279 -2.322311 -0.3406287
v -2.976871 -2.403499 -0.3242651
v -0.9323282 -2.4035 -0.3242639
v -2.944801 -2.322311 -0.3406287
v -0.9323288 -2.222247 -0.3901965
v -2.944802 -2.222248 -0.3901965
v -3.037578 -2.322311 -0.3406274
v -3.045271 -2.403499 -0.3214026
v -3.130355 -2.322311 -0.3406281
v -3.13027 -2.403499 -0.3113318
v -3.268558 -2.222248 -0.3901953
v -3.21527 -2.4035 -0.3209863
v -3.223132 -2.322311 -0.3406274
v -3.315908 -2.322311 -0.3457758
v -3.355299 -2.405208 -0.3411176
vt 0.5231928 0.7533434
vt 0.5265674 0.8576728
vt 0.5273644 0.7543514
vt 0.5224913 0.8559704
vt 0.5149711 0.753285
vt 0.5142725 0.8559116
vt 0.547033 0.7540729
vt 0.5428823 0.7541868
vt 0.5428874 0.8574794
vt 0.5469645 0.855728
vt 0.5526609 0.754016
vt 0.5525339 0.8555524
vt 0.5470697 0.8604317
vt 0.5428884 0.8609864
vt 0.5472229 0.8651097
vt 0.5428228 0.8653433
vt 0.5533251 0.8717065
vt 0.5432016 0.8697044
vt 0.5475163 0.8697542
vt 0.5479669 0.8743858
vt 0.5442787 0.8768356
vt 0.5432016 0.8697044
vt 0.5288258 0.8768193
vt 0.5442787 0.8768356
vt 0.5286539 0.8697304
vt 0.5428228 0.8653433
vt 0.5267687 0.8768613
vt 0.5285931 0.8653924
vt 0.5285156 0.8610451
vt 0.5428884 0.8609864
vt 0.5284034 0.8575693
vt 0.5428874 0.8574794
vt 0.5428823 0.7541868
vt 0.5282931 0.7542818
vt 0.5265674 0.8576728
vt 0.5273644 0.7543514
vt 0.5266566 0.8611794
vt 0.5267425 0.865487
vt 0.5267613 0.8697845
vt 0.459855 0.869851
vt 0.4598751 0.8769193
vt 0.3930402 0.8769695
vt 0.4597606 0.861285
vt 0.4597187 0.8570386
vt 0.3928463 0.8580371
vt 0.4598105 0.8655691
vt 0.3929563 0.86991
vt 0.3919392 0.8770136
vt 0.3928598 0.8614031
vt 0.3928813 0.865653
vt 0.3918018 0.8699647
vt 0.3917266 0.8657434
vt 0.376698 0.8704281
vt 0.3761081 0.8775947
vt 0.3769967 0.8659814
vt 0.3917041 0.8615122
vt 0.3766212 0.8615901
vt 0.3917185 0.8581029
vt 0.3764932 0.8581507
vt 0.3910892 0.754837
vt 0.3920137 0.7548102
vt 0.3764574 0.754905
vt 0.4962979 0.01075777
vt 0.4293949 0.01478663
vt 0.4962921 0.01517391
vt 0.4294048 0.01060186
vt 0.4963172 0.00254021
vt 0.4304051 0.002386629
vt 0.3625097 0.01044595
vt 0.3624949 0.01486226
vt 0.3625289 0.002228225
vt 0.4284425 0.002381916
vt 0.4294237 0.002374265
vt 0.4294284 0.0005000266
vt 0.3928463 0.8580371
vt 0.396164 0.7537869
vt 0.3920137 0.7548102
vt 0.3969035 0.8564139
vt 0.4043783 0.7537366
vt 0.4051161 0.8563629
vt 0.3722548 0.7549767
vt 0.3764932 0.8581507
vt 0.3764574 0.754905
vt 0.3723387 0.8566322
vt 0.3666085 0.7550147
vt 0.3667587 0.8566855
vt 0.3724307 0.861342
vt 0.3766212 0.8615901
vt 0.372514 0.8660346
vt 0.3769967 0.8659814
vt 0.3667705 0.8729843
vt 0.376698 0.8704281
vt 0.372442 0.8707156
vt 0.3721963 0.8754013
vt 0.3761081 0.8775947
vn 0.001837846 -0.04674276 -0.9989053
vn 0.003992583 -0.1015271 -0.9948248
vn 0.003992583 -0.101527 -0.9948248
vn 0.002214119 -0.05630952 -0.9984109
vn -9.011204E-07 7.503737E-06 -1
vn -9.011204E-07 7.503737E-06 -1
vn -5.331311E-07 -0.3234815 0.9462345
vn 0 -0.1975674 0.9802893
vn -0.0107421 -0.2052449 0.9786517
vn -0.003349551 -0.3257796 0.9454399
vn -1.137728E-06 -0.4438919 0.8960803
vn -1.289032E-06 -0.4438944 0.8960791
vn -0.01169363 -0.3408766 0.9400353
vn -0.02402005 -0.2366035 0.9713093
vn 0.00211984 -0.3514762 0.9361944
vn 0.004116968 -0.2554372 0.9668169
vn 1.479134E-06 -0.4439037 0.8960745
vn 0.07205173 -0.1718933 0.982477
vn 0.03883396 -0.3060528 0.9512222
vn 0.07123021 -0.2169461 0.9735813
vn 0.1105907 -0.07881334 0.9907362
vn 0.006599354 -0.9999783 2.475672E-06
vn 0.0121981 -0.9999256 1.808656E-06
vn 0.01220165 -0.9999256 1.602822E-06
vn 0.006099817 -0.9999814 2.8317E-06
vn 0 -1 2.970535E-06
vn 0.01219548 -0.9999256 9.755496E-07
vn 9.245667E-07 -1 3.589125E-06
vn 1.023651E-06 -1 3.885448E-06
vn 1.517173E-06 -1 2.552006E-06
vn 8.692971E-07 -1 2.919353E-06
vn 9.987677E-07 -1 1.313602E-06
vn -1.492539E-07 -1 0
vn 0 -1 1.381257E-06
vn 4.818226E-07 -1 3.000386E-06
vn 3.259665E-07 -1 2.770296E-06
vn 0 -1 2.599717E-06
vn 1.123288E-06 -1 2.029466E-06
vn 0.006099198 -0.9999814 1.479392E-06
vn 0.006098415 -0.9999814 0
vn 0.0121957 -0.9999256 0
vn 0.01219273 -0.9999257 0
vn 0 -1 0
vn 0 -1 0
vn 1.758626E-07 -1 7.432755E-06
vn 4.487949E-07 -1 0
vn 0.006096478 -0.9999814 0
vn 0.01219272 -0.9999257 4.802534E-07
vn 1.12198E-06 -1 0
vn 1.121966E-06 -1 1.296262E-07
vn 0.006096934 -0.9999814 -1.54177E-07
vn 1.794261E-06 -1 -7.741478E-07
vn 0.006590387 -0.9999783 -1.890598E-07
vn 0.01219484 -0.9999256 9.745057E-07
vn 1.793011E-06 -1 -1.556353E-06
vn 1.871333E-06 -1 -7.721533E-07
vn 1.964413E-06 -1 -1.538371E-06
vn 6.655654E-07 -1 5.12866E-06
vn 1.048586E-06 -1 -1.012212E-06
vn 2.252476E-07 -1 1.088195E-05
vn 5.311202E-07 -1 2.244756E-05
vn 0 -1 -5.16084E-07
vn 0.9893219 -0.1457177 0.002914807
vn 0.9575312 -0.2883298 -4.940286E-07
vn 0.9575151 -0.2883255 0.005768103
vn 0.9893261 -0.1457181 -1.177082E-06
vn 1 0 -6.964623E-07
vn 1 6.975448E-06 -2.945269E-05
vn 0.9893219 -0.1457176 -0.002915486
vn 0.9575154 -0.2883244 -0.005768928
vn 1 1.88981E-06 2.321549E-07
vn 1 7.966841E-06 7.342353E-06
vn 1 -2.467232E-05 -6.308674E-05
vn 1 -2.467232E-05 -6.308672E-05
vn 0.003993167 -0.1015499 0.9948225
vn 0.001838674 -0.04675404 0.9989047
vn 0.003993166 -0.1015498 0.9948225
vn 0.002214913 -0.05632305 0.9984101
vn 1.501866E-07 5.62785E-06 1
vn 1.501866E-07 5.62785E-06 1
vn 1.763424E-07 -0.3234874 -0.9462324
vn -0.01074373 -0.2052744 -0.9786456
vn 2.652355E-07 -0.1975842 -0.9802859
vn -0.003350838 -0.32579 -0.9454362
vn 0 -0.4438881 -0.8960822
vn -2.442131E-06 -0.4438898 -0.8960813
vn -0.01746977 -0.3464178 -0.9379176
vn -0.03711791 -0.2495604 -0.9676476
vn -0.00055499 -0.3658854 -0.9306598
vn -0.001142809 -0.2850992 -0.9584973
vn 0.02015688 -0.4364342 -0.8995103
vn 0.07791139 -0.2308338 -0.9698688
vn 0.05072552 -0.3315261 -0.9420813
vn 0.08710208 -0.2643485 -0.9604859
vn 0.1076597 -0.1658524 -0.9802563
g KK-DoorFrame_0
f 3/3/3 2/2/2 1/1/1
f 2/2/2 4/4/4 1/1/1
f 5/5/5 1/1/1 4/4/4
f 6/6/6 5/5/5 4/4/4
f 9/9/9 8/8/8 7/7/7
f 10/10/10 9/9/9 7/7/7
f 7/7/7 11/11/11 10/10/10
f 11/11/11 12/12/12 10/10/10
f 10/10/10 13/13/13 9/9/9
f 10/10/10 12/12/12 13/13/13
f 13/13/13 14/14/14 9/9/9
f 13/13/13 12/12/12 15/15/15
f 14/14/14 13/13/13 15/15/15
f 16/16/16 14/14/14 15/15/15
f 12/12/12 17/17/17 15/15/15
f 18/18/18 16/16/16 15/15/15
f 17/17/17 19/19/19 15/15/15
f 19/19/19 18/18/18 15/15/15
f 20/20/20 19/19/19 17/17/17
f 21/21/21 18/18/18 19/19/19
f 20/20/20 21/21/21 19/19/19
f 24/24/24 23/23/23 22/22/22
f 23/23/23 25/25/25 22/22/22
f 22/22/22 25/25/25 26/26/26
f 25/25/25 23/23/23 27/27/27
f 25/25/25 28/28/28 26/26/26
f 26/26/26 28/28/28 29/29/29
f 30/30/30 26/26/26 29/29/29
f 30/30/30 29/29/29 31/31/31
f 32/32/32 30/30/30 31/31/31
f 33/33/33 32/32/32 31/31/31
f 34/34/34 33/33/33 31/31/31
f 34/34/34 31/31/31 35/35/35
f 31/31/31 29/29/29 35/35/35
f 36/36/36 34/34/34 35/35/35
f 29/29/29 28/28/28 37/37/37
f 29/29/29 37/37/37 35/35/35
f 28/28/28 25/25/25 38/38/38
f 28/28/28 38/38/38 37/37/37
f 39/39/39 25/25/25 27/27/27
f 25/25/25 39/39/39 38/38/38
f 40/40/40 39/39/39 27/27/27
f 39/39/39 40/40/40 38/38/38
f 41/41/41 40/40/40 27/27/27
f 41/41/41 42/42/42 40/40/40
f 37/37/37 43/43/43 35/35/35
f 43/43/43 44/44/44 35/35/35
f 45/45/45 44/44/44 43/43/43
f 38/38/38 46/46/46 37/37/37
f 46/46/46 43/43/43 37/37/37
f 40/40/40 46/46/46 38/38/38
f 42/42/42 47/47/47 40/40/40
f 42/42/42 48/48/48 47/47/47
f 49/49/49 43/43/43 46/46/46
f 49/49/49 45/45/45 43/43/43
f 50/50/50 46/46/46 40/40/40
f 47/47/47 50/50/50 40/40/40
f 50/50/50 49/49/49 46/46/46
f 48/48/48 51/51/51 47/47/47
f 50/50/50 47/47/47 51/51/51
f 49/49/49 50/50/50 52/52/52
f 52/52/52 50/50/50 51/51/51
f 51/51/51 48/48/48 53/53/53
f 48/48/48 54/54/54 53/53/53
f 53/53/53 55/55/55 51/51/51
f 55/55/55 52/52/52 51/51/51
f 56/56/56 49/49/49 52/52/52
f 56/56/56 52/52/52 55/55/55
f 45/45/45 49/49/49 56/56/56
f 57/57/57 56/56/56 55/55/55
f 58/58/58 56/56/56 57/57/57
f 58/58/58 45/45/45 56/56/56
f 59/59/59 58/58/58 57/57/57
f 45/45/45 58/58/58 60/60/60
f 60/60/60 58/58/58 59/59/59
f 61/61/61 45/45/45 60/60/60
f 62/62/62 60/60/60 59/59/59
f 65/65/65 64/64/64 63/63/63
f 64/64/64 66/66/66 63/63/63
f 67/67/67 63/63/63 66/66/66
f 68/68/68 67/67/67 66/66/66
f 69/69/69 66/66/66 64/64/64
f 70/70/70 69/69/69 64/64/64
f 66/66/66 69/69/69 71/71/71
f 72/72/72 66/66/66 71/71/71
f 73/73/73 68/68/68 66/66/66
f 73/73/73 66/66/66 72/72/72
f 74/74/74 68/68/68 73/73/73
f 74/74/74 73/73/73 72/72/72
f 77/77/77 76/76/76 75/75/75
f 76/76/76 78/78/78 75/75/75
f 78/78/78 76/76/76 79/79/79
f 80/80/80 78/78/78 79/79/79
f 83/83/83 82/82/82 81/81/81
f 82/82/82 84/84/84 81/81/81
f 85/85/85 81/81/81 84/84/84
f 86/86/86 85/85/85 84/84/84
f 84/84/84 82/82/82 87/87/87
f 86/86/86 84/84/84 87/87/87
f 82/82/82 88/88/88 87/87/87
f 86/86/86 87/87/87 89/89/89
f 89/89/89 87/87/87 88/88/88
f 90/90/90 89/89/89 88/88/88
f 86/86/86 89/89/89 91/91/91
f 90/90/90 92/92/92 89/89/89
f 89/89/89 93/93/93 91/91/91
f 92/92/92 93/93/93 89/89/89
f 93/93/93 94/94/94 91/91/91
f 92/92/92 95/95/95 93/93/93
f 95/95/95 94/94/94 93/93/93
