g KK-DumpsterOuter
v -4.3473 9.051612 0.2657368
v -4.347699 9.030731 0.2462515
v -4.324258 9.030735 0.265586
v -5.777575 9.030732 0.2549033
v -5.777575 9.051612 0.2750995
v -5.801015 9.030732 0.2752529
v -4.368936 6.252906 0.24638
v -4.368936 6.232519 0.265873
v -4.345497 6.253437 0.265725
v -5.777576 6.252906 0.2549033
v -5.801016 6.25339 0.2752529
v -5.777576 6.232535 0.2750935
v -4.369652 6.235775 1.592888
v -5.777576 6.232015 1.287339
v -5.777576 6.232027 1.781385
v -4.368936 6.232038 1.155893
v -5.777576 6.244239 0.7711209
v -4.368936 6.244254 0.7011363
v -5.777576 6.232535 0.2750935
v -4.368936 6.232519 0.265873
v -5.777575 9.03545 1.287339
v -4.3473 9.050958 1.592026
v -5.777575 9.050938 1.781396
v -4.3473 9.035428 1.155262
v -5.777575 9.051597 0.7711211
v -4.3473 9.051627 0.7007559
v -5.777575 9.051612 0.2750995
v -4.3473 9.051612 0.2657368
v -5.777575 9.030732 0.2549033
v -4.364987 8.11863 0.2463561
v -4.347699 9.030731 0.2462515
v -5.777575 8.118279 0.2549033
v -5.777575 7.184946 0.2549033
v -4.347297 7.184593 0.2462492
v -4.368936 6.252906 0.24638
v -5.777576 6.252906 0.2549033
v -4.324256 9.014573 1.153944
v -4.341548 8.118278 1.590049
v -4.32426 9.030029 1.589354
v -4.34155 8.107496 1.155094
v -4.323864 7.184945 1.589338
v -4.34155 8.122352 0.7006543
v -4.324257 9.030735 0.7003499
v -4.324258 9.030735 0.265586
v -4.341548 8.118279 0.2656992
v -4.32386 7.193092 0.700343
v -4.323857 7.184945 0.2655834
v -4.32386 7.179554 1.154578
v -4.345497 6.252906 1.590208
v -4.345497 6.252906 1.155209
v -4.345496 6.26512 0.7012127
v -4.345497 6.253437 0.265725
v -5.801015 8.118279 1.784381
v -5.801015 9.014568 1.288687
v -5.801015 9.03009 1.784381
v -5.801015 8.107497 1.288074
v -5.801016 7.184946 1.784381
v -5.801015 8.122352 0.7715597
v -5.801015 9.030742 0.7709476
v -5.801015 8.118279 0.2752529
v -5.801015 9.030732 0.2752529
v -5.801015 7.193092 0.7715598
v -5.801016 7.184946 0.2752529
v -5.801015 7.179554 1.288075
v -5.801016 6.265121 0.7710972
v -5.801016 6.25339 0.2752529
v -5.801016 6.252902 1.288537
v -5.801016 6.252907 1.784381
v -4.369652 6.235775 1.592888
v -4.345497 6.252906 1.590208
v -4.345497 6.252906 1.155209
v -4.368936 6.232038 1.155893
v -4.345496 6.26512 0.7012127
v -4.368936 6.244254 0.7011363
v -4.345497 6.253437 0.265725
v -4.368936 6.232519 0.265873
v -5.777576 6.232015 1.287339
v -5.801016 6.252907 1.784381
v -5.777576 6.232027 1.781385
v -5.801016 6.252902 1.288537
v -5.777576 6.244239 0.7711209
v -5.801016 6.265121 0.7710972
v -5.777576 6.232535 0.2750935
v -5.801016 6.25339 0.2752529
v -5.777575 9.050938 1.781396
v -5.801015 9.03009 1.784381
v -5.801015 9.014568 1.288687
v -5.777575 9.03545 1.287339
v -5.801015 9.030742 0.7709476
v -5.777575 9.051597 0.7711211
v -5.801015 9.030732 0.2752529
v -5.777575 9.051612 0.2750995
v -5.777575 9.030732 0.2549033
v -5.801015 9.030732 0.2752529
v -5.801015 8.118279 0.2752529
v -5.777575 8.118279 0.2549033
v -5.801016 7.184946 0.2752529
v -5.777575 7.184946 0.2549033
v -5.801016 6.25339 0.2752529
v -5.777576 6.252906 0.2549033
v -4.347699 9.030731 0.2462515
v -4.3473 9.051612 0.2657368
v -5.777575 9.051612 0.2750995
v -5.777575 9.030732 0.2549033
v -4.364987 8.11863 0.2463561
v -4.324258 9.030735 0.265586
v -4.347699 9.030731 0.2462515
v -4.341548 8.118279 0.2656992
v -4.347297 7.184593 0.2462492
v -4.323857 7.184945 0.2655834
v -4.368936 6.252906 0.24638
v -4.345497 6.253437 0.265725
v -5.777576 6.252906 0.2549033
v -5.777576 6.232535 0.2750935
v -4.368936 6.232519 0.265873
v -4.368936 6.252906 0.24638
v -4.32426 9.030029 1.589354
v -4.3473 9.050958 1.592026
v -4.3473 9.035428 1.155262
v -4.324256 9.014573 1.153944
v -4.3473 9.051627 0.7007559
v -4.324257 9.030735 0.7003499
v -4.3473 9.051612 0.2657368
v -4.324258 9.030735 0.265586
vt 0.4332295 0.4801914
vt 0.4305526 0.4797648
vt 0.430444 0.4823916
vt 0.4278849 0.3348948
vt 0.4306886 0.33446
vt 0.4282262 0.3318775
vt 0.1490618 0.4827996
vt 0.1464048 0.4832776
vt 0.1491461 0.4856199
vt 0.1460171 0.3400168
vt 0.1456227 0.3370391
vt 0.1432307 0.3397376
vt 0.1468021 0.6203693
vt 0.003740171 0.5893967
vt 0.003731717 0.6395866
vt 0.1467693 0.5759892
vt 0.003724086 0.536947
vt 0.1469789 0.5297887
vt 0.003666649 0.4865447
vt 0.1464972 0.4855528
vt 0.5811275 0.5772503
vt 0.4370224 0.6164468
vt 0.5824606 0.6274221
vt 0.4349123 0.5720946
vt 0.5793256 0.5248227
vt 0.4340235 0.5259568
vt 0.5776139 0.4744522
vt 0.4325137 0.4818482
vt 0.4278849 0.3348948
vt 0.3380835 0.4805652
vt 0.4305526 0.4797648
vt 0.3353935 0.3366511
vt 0.24064 0.3380642
vt 0.2434507 0.4830773
vt 0.1490618 0.4827996
vt 0.1460171 0.3400168
vt 0.4311426 0.5723507
vt 0.3403389 0.6196338
vt 0.4336634 0.6165404
vt 0.3385322 0.5754632
vt 0.2447386 0.6197808
vt 0.3392141 0.5291662
vt 0.4312193 0.5263078
vt 0.430444 0.4823916
vt 0.3381585 0.4844728
vt 0.244885 0.5294581
vt 0.2437018 0.4855914
vt 0.2439693 0.5756046
vt 0.1498515 0.6200198
vt 0.1497896 0.5758285
vt 0.1504511 0.5297428
vt 0.1491461 0.4856199
vt 0.6757088 0.6272048
vt 0.5844827 0.5770366
vt 0.5840449 0.6273986
vt 0.6766462 0.5767807
vt 0.770326 0.627086
vt 0.674852 0.5243053
vt 0.5825006 0.5244502
vt 0.675139 0.4738817
vt 0.5818008 0.4740941
vt 0.7693397 0.5241815
vt 0.7701158 0.4737561
vt 0.7708201 0.5766604
vt 0.8636366 0.5240933
vt 0.8647969 0.4737144
vt 0.8649414 0.576667
vt 0.8649728 0.627046
vt 0.1468021 0.6203693
vt 0.1498515 0.6200198
vt 0.1497896 0.5758285
vt 0.1467693 0.5759892
vt 0.1504511 0.5297428
vt 0.1469789 0.5297887
vt 0.1491461 0.4856199
vt 0.1464972 0.4855528
vt 0.003740171 0.5893967
vt 0.0005396169 0.6398842
vt 0.003731717 0.6395866
vt 0.0005573462 0.5894988
vt 0.003724086 0.536947
vt 0.0005424956 0.5369405
vt 0.003666649 0.4865447
vt 0.0005 0.4865843
vt 0.5824606 0.6274221
vt 0.5840449 0.6273986
vt 0.5844827 0.5770366
vt 0.5811275 0.5772503
vt 0.5825006 0.5244502
vt 0.5793256 0.5248227
vt 0.5818008 0.4740941
vt 0.5776139 0.4744522
vt 0.4278849 0.3348948
vt 0.4282262 0.3318775
vt 0.335344 0.3334955
vt 0.3353935 0.3366511
vt 0.2405066 0.334917
vt 0.24064 0.3380642
vt 0.1456227 0.3370391
vt 0.1460171 0.3400168
vt 0.4305526 0.4797648
vt 0.4332295 0.4801914
vt 0.4306886 0.33446
vt 0.4278849 0.3348948
vt 0.3380835 0.4805652
vt 0.430444 0.4823916
vt 0.4305526 0.4797648
vt 0.3381585 0.4844728
vt 0.2434507 0.4830773
vt 0.2437018 0.4855914
vt 0.1490618 0.4827996
vt 0.1491461 0.4856199
vt 0.1460171 0.3400168
vt 0.1432307 0.3397376
vt 0.1464048 0.4832776
vt 0.1490618 0.4827996
vt 0.4336634 0.6165404
vt 0.4370224 0.6164468
vt 0.4349123 0.5720946
vt 0.4311426 0.5723507
vt 0.4340235 0.5259568
vt 0.4312193 0.5263078
vt 0.4325137 0.4818482
vt 0.430444 0.4823916
vn 0.519325 0.577724 -0.6297114
vn 0.519325 0.577724 -0.6297114
vn 0.5193251 0.577724 -0.6297114
vn -0.5293992 0.5898209 -0.6097934
vn -0.5293991 0.5898208 -0.6097934
vn -0.5293992 0.5898209 -0.6097934
vn 0.5221106 -0.5893987 -0.6164492
vn 0.5221106 -0.5893987 -0.6164492
vn 0.5221106 -0.5893987 -0.6164492
vn -0.5337377 -0.5952767 -0.6006412
vn -0.5337377 -0.5952767 -0.6006412
vn -0.5337377 -0.5952767 -0.6006412
vn 0.001796182 -0.9999903 0.004026796
vn 0.0001115709 -0.9999529 -0.009704259
vn 0.001796182 -0.9999903 0.004026796
vn -0.0001015438 -0.9999346 -0.01144119
vn -0.0005784791 -0.9999995 -0.0007955921
vn -0.0004997093 -0.9999996 0.0007947551
vn 0.0007073276 -0.9996831 0.02516117
vn 0.0007073276 -0.9996831 0.02516117
vn -0.0008733721 0.9999977 -0.001953281
vn -0.003742303 0.9994382 -0.03330462
vn -0.003742304 0.9994382 -0.03330462
vn -0.0005160171 0.999998 0.001951324
vn 0.001208764 0.9998518 0.01717509
vn 0.001134787 0.9998692 0.01613305
vn -1.04947E-05 1 4.916687E-07
vn -1.04947E-05 1 4.916687E-07
vn -0.006050576 0 -0.9999818
vn -0.006050563 0 -0.9999818
vn -0.006050576 0 -0.9999818
vn -0.006050562 0 -0.9999818
vn -0.006050553 0 -0.9999818
vn -0.006050554 0 -0.9999818
vn -0.006050556 0 -0.9999818
vn -0.006050556 0 -0.9999818
vn 0.999819 -0.01902874 -3.916155E-05
vn 1 -0.000303485 0.0001181866
vn 0.9998192 -0.01900926 0.0005739467
vn 1 0.0003458724 4.436013E-05
vn 0.9999981 -0.00197046 -0.0001042137
vn 1 -0.0002545824 -6.281792E-05
vn 0.9998191 -0.01901845 -0.0002762629
vn 0.9998197 -0.01898939 9.006787E-05
vn 1 0.0001144309 -8.663879E-05
vn 0.9999983 -0.001812117 5.514317E-05
vn 0.9999971 -0.002389434 0.0001403974
vn 0.9999971 -0.002422676 -7.250845E-05
vn 0.9997291 -0.02327353 0.0001477698
vn 0.9997285 -0.02329975 -0.0002527534
vn 0.9997286 -0.02329629 -6.442063E-05
vn 0.9997291 -0.02326607 0.0005324939
vn -1 2.074124E-07 -1.593249E-07
vn -1 2.309677E-07 0
vn -1 2.09807E-07 -2.362904E-07
vn -1 1.969341E-07 0
vn -1 1.846724E-07 -1.935526E-07
vn -1 1.776571E-07 0
vn -1 2.306142E-07 1.151591E-07
vn -1 1.65979E-07 1.529593E-07
vn -1 2.095273E-07 0
vn -1 1.738005E-07 0
vn -1 1.644535E-07 0
vn -1 1.852327E-07 0
vn -1 2.259866E-07 0
vn -1 2.051637E-07 0
vn -1 2.051411E-07 0
vn -1 1.641118E-07 -3.084827E-07
vn 0.6241045 -0.7813314 0.003859671
vn 0.6241045 -0.7813314 0.003859671
vn 0.6450418 -0.7641016 -0.008344945
vn 0.644277 -0.7647515 -0.007893339
vn 0.6650787 -0.7467733 -3.361306E-05
vn 0.6650796 -0.7467724 2.869668E-05
vn 0.6652482 -0.7463524 0.02007188
vn 0.6652482 -0.7463525 0.02007188
vn -0.6653214 -0.7465029 -0.008988879
vn -0.6652102 -0.7466562 1.296676E-05
vn -0.6652102 -0.7466562 1.296676E-05
vn -0.6653183 -0.7465097 -0.008648403
vn -0.6652086 -0.7466576 -1.061974E-05
vn -0.6652084 -0.7466577 6.45706E-06
vn -0.6648324 -0.7467843 0.01764408
vn -0.6648323 -0.7467843 0.01764408
vn -0.6658978 0.7456771 -0.02336271
vn -0.6658978 0.7456771 -0.02336271
vn -0.6653704 0.7465131 -0.0006524518
vn -0.6653306 0.7465486 0.0006224174
vn -0.6647332 0.746989 0.01171371
vn -0.6647346 0.7469888 0.01164154
vn -0.6649379 0.7468986 4.826505E-06
vn -0.664938 0.7468986 4.826505E-06
vn -0.6555737 1.649871E-07 -0.7551312
vn -0.6555737 1.649871E-07 -0.7551312
vn -0.6555734 1.230233E-07 -0.7551314
vn -0.6555734 1.230232E-07 -0.7551314
vn -0.6555737 0 -0.7551312
vn -0.6555737 0 -0.7551312
vn -0.6555744 0 -0.7551307
vn -0.6555744 0 -0.7551307
vn -0.004565509 0.6888508 -0.7248887
vn -0.004565509 0.6888508 -0.7248887
vn -0.004565509 0.6888508 -0.7248887
vn -0.00456551 0.6888508 -0.7248887
vn 0.6363811 -9.117742E-05 -0.7713748
vn 0.6363019 -0.01215083 -0.7713445
vn 0.6363019 -0.01215083 -0.7713445
vn 0.6363815 8.790258E-05 -0.7713744
vn 0.6365043 -0.001487508 -0.7712718
vn 0.6365029 -0.001259425 -0.7712732
vn 0.636524 -0.01489814 -0.771113
vn 0.636524 -0.01489814 -0.771113
vn -0.004516649 -0.697574 -0.7164986
vn -0.004516648 -0.6975739 -0.7164986
vn -0.004516648 -0.6975739 -0.7164986
vn -0.004516648 -0.6975739 -0.7164986
vn 0.6702121 0.7417017 -0.02634927
vn 0.6702121 0.7417017 -0.02634927
vn 0.6711519 0.7413195 -0.0006835398
vn 0.671191 0.7412841 0.0007390339
vn 0.6716717 0.7407314 0.01319529
vn 0.6716716 0.7407318 0.01317689
vn 0.671563 0.7409474 -1.369351E-05
vn 0.671563 0.7409474 -1.369351E-05
g KK-DumpsterOuter_0
f 3/3/3 2/2/2 1/1/1
f 6/6/6 5/5/5 4/4/4
f 9/9/9 8/8/8 7/7/7
f 12/12/12 11/11/11 10/10/10
f 15/15/15 14/14/14 13/13/13
f 14/14/14 16/16/16 13/13/13
f 14/14/14 17/17/17 16/16/16
f 17/17/17 18/18/18 16/16/16
f 18/18/18 17/17/17 19/19/19
f 20/20/20 18/18/18 19/19/19
f 23/23/23 22/22/22 21/21/21
f 22/22/22 24/24/24 21/21/21
f 21/21/21 24/24/24 25/25/25
f 24/24/24 26/26/26 25/25/25
f 27/27/27 25/25/25 26/26/26
f 28/28/28 27/27/27 26/26/26
f 31/31/31 30/30/30 29/29/29
f 30/30/30 32/32/32 29/29/29
f 32/32/32 30/30/30 33/33/33
f 30/30/30 34/34/34 33/33/33
f 33/33/33 34/34/34 35/35/35
f 36/36/36 33/33/33 35/35/35
f 39/39/39 38/38/38 37/37/37
f 38/38/38 40/40/40 37/37/37
f 40/40/40 38/38/38 41/41/41
f 37/37/37 40/40/40 42/42/42
f 43/43/43 37/37/37 42/42/42
f 43/43/43 42/42/42 44/44/44
f 42/42/42 45/45/45 44/44/44
f 42/42/42 46/46/46 45/45/45
f 46/46/46 42/42/42 40/40/40
f 46/46/46 47/47/47 45/45/45
f 48/48/48 40/40/40 41/41/41
f 48/48/48 46/46/46 40/40/40
f 48/48/48 41/41/41 49/49/49
f 50/50/50 48/48/48 49/49/49
f 50/50/50 51/51/51 48/48/48
f 51/51/51 46/46/46 48/48/48
f 47/47/47 46/46/46 51/51/51
f 52/52/52 47/47/47 51/51/51
f 55/55/55 54/54/54 53/53/53
f 54/54/54 56/56/56 53/53/53
f 53/53/53 56/56/56 57/57/57
f 58/58/58 56/56/56 54/54/54
f 59/59/59 58/58/58 54/54/54
f 60/60/60 58/58/58 59/59/59
f 61/61/61 60/60/60 59/59/59
f 62/62/62 58/58/58 60/60/60
f 58/58/58 62/62/62 56/56/56
f 63/63/63 62/62/62 60/60/60
f 56/56/56 64/64/64 57/57/57
f 62/62/62 64/64/64 56/56/56
f 65/65/65 62/62/62 63/63/63
f 64/64/64 62/62/62 65/65/65
f 66/66/66 65/65/65 63/63/63
f 67/67/67 64/64/64 65/65/65
f 57/57/57 64/64/64 67/67/67
f 68/68/68 57/57/57 67/67/67
f 71/71/71 70/70/70 69/69/69
f 72/72/72 71/71/71 69/69/69
f 73/73/73 71/71/71 72/72/72
f 74/74/74 73/73/73 72/72/72
f 75/75/75 73/73/73 74/74/74
f 76/76/76 75/75/75 74/74/74
f 79/79/79 78/78/78 77/77/77
f 78/78/78 80/80/80 77/77/77
f 77/77/77 80/80/80 81/81/81
f 80/80/80 82/82/82 81/81/81
f 81/81/81 82/82/82 83/83/83
f 82/82/82 84/84/84 83/83/83
f 87/87/87 86/86/86 85/85/85
f 88/88/88 87/87/87 85/85/85
f 89/89/89 87/87/87 88/88/88
f 90/90/90 89/89/89 88/88/88
f 91/91/91 89/89/89 90/90/90
f 92/92/92 91/91/91 90/90/90
f 95/95/95 94/94/94 93/93/93
f 96/96/96 95/95/95 93/93/93
f 97/97/97 95/95/95 96/96/96
f 98/98/98 97/97/97 96/96/96
f 99/99/99 97/97/97 98/98/98
f 100/100/100 99/99/99 98/98/98
f 103/103/103 102/102/102 101/101/101
f 104/104/104 103/103/103 101/101/101
f 107/107/107 106/106/106 105/105/105
f 106/106/106 108/108/108 105/105/105
f 105/105/105 108/108/108 109/109/109
f 108/108/108 110/110/110 109/109/109
f 109/109/109 110/110/110 111/111/111
f 110/110/110 112/112/112 111/111/111
f 115/115/115 114/114/114 113/113/113
f 116/116/116 115/115/115 113/113/113
f 119/119/119 118/118/118 117/117/117
f 120/120/120 119/119/119 117/117/117
f 121/121/121 119/119/119 120/120/120
f 122/122/122 121/121/121 120/120/120
f 123/123/123 121/121/121 122/122/122
f 124/124/124 123/123/123 122/122/122
