g KK-Floor_pt2
v 12.38659 1.912927 0.0124118
v 12.56569 0.1929181 0.0124118
v 12.51498 0.1996808 0.0124118
v 12.43673 1.913721 0.0124118
v 12.00428 3.587903 0.0124118
v 12.05274 3.596085 0.0124118
v 11.37661 5.18719 0.0124118
v 11.4223 5.202426 0.0124118
v 10.51759 6.675067 0.0124118
v 10.55948 6.696865 0.0124118
v 9.446402 8.018292 0.0124118
v 9.483573 8.046016 0.0124118
v 8.186981 9.186863 0.0124118
v 8.218597 9.21974 0.0124118
v 6.767461 10.15467 0.0124118
v 6.792817 10.19182 0.0124118
v 12.38658 -1.513595 0.0124118
v 12.51498 0.1996808 0.0124118
v 12.43673 -1.527915 0.0124118
v 12.05273 -3.210275 0.0124118
v 12.00428 -3.188568 0.0124118
v 11.42229 -4.816615 0.0124118
v 11.3766 -4.787854 0.0124118
v 5.219551 10.90011 0.0124118
v 6.792817 10.19182 0.0124118
v 6.767461 10.15467 0.0124118
v 5.23808 10.94054 0.0124118
v 3.577828 11.40651 0.0124118
v 3.589116 11.44918 0.0124118
v 1.878967 11.66258 0.0124118
v 1.882761 11.70637 0.0124118
v 3.589116 11.44918 0.0124118
v 3.577828 11.40651 0.0124118
v 0.1609161 11.66258 0.0124118
v 1.882761 11.70637 0.0124118
v 1.878967 11.66258 0.0124118
v 0.1571331 11.70637 0.0124118
v -1.537945 11.40651 0.0124118
v -1.549221 11.44918 0.0124118
v -3.179667 10.90011 0.0124118
v -3.198185 10.94054 0.0124118
v -4.727576 10.15467 0.0124118
v -4.752921 10.19182 0.0124118
v -3.198185 10.94054 0.0124118
v -3.179667 10.90011 0.0124118
v -6.147095 9.186863 0.0124118
v -4.752921 10.19182 0.0124118
v -4.727576 10.15467 0.0124118
v -6.178701 9.21974 0.0124118
v -7.406515 8.018294 0.0124118
v -7.443676 8.046016 0.0124118
v -8.4777 6.675069 0.0124118
v -8.519586 6.696867 0.0124118
v -9.336731 5.187193 0.0124118
v -8.519586 6.696867 0.0124118
v -8.4777 6.675069 0.0124118
v -9.382401 5.20243 0.0124118
v -9.964404 3.587907 0.0124118
v -10.01284 3.596089 0.0124118
v -10.34671 1.912933 0.0124118
v -10.01284 3.596089 0.0124118
v -10.39683 1.913727 0.0124118
v -10.4751 0.1996881 0.0124118
v -10.52579 0.1929253 0.0124118
v -10.34671 -1.513557 0.0124118
v -10.39683 -1.527876 0.0124118
v -9.964409 -3.188531 0.0124118
v -10.01285 -3.210239 0.0124118
v -9.336736 -4.787819 0.0124118
v -9.382407 -4.816581 0.0124118
v -8.477709 -6.275694 0.0124118
v -8.519594 -6.311018 0.0124118
v -7.406525 -7.61892 0.0124118
v -7.443685 -7.660169 0.0124118
v -6.147106 -8.787492 0.0124118
v -6.178712 -8.833895 0.0124118
v -4.727588 -9.755305 0.0124118
v -6.178712 -8.833895 0.0124118
v -6.147106 -8.787492 0.0124118
v -4.752933 -9.805977 0.0124118
v -3.179681 -10.50074 0.0124118
v -3.198199 -10.5547 0.0124118
v -1.537961 -11.00715 0.0124118
v -3.198199 -10.5547 0.0124118
v -3.179681 -10.50074 0.0124118
v -1.549237 -11.06334 0.0124118
v -1.510185 -11.09035 0.0124118
v -1.500041 -11.01583 0.0124118
v 11.3766 -4.787854 0.0124118
v 11.42229 -4.816615 0.0124118
v 10.55947 -6.311049 0.0124118
v 10.51757 -6.275725 0.0124118
v 9.483557 -7.660197 0.0124118
v 9.446384 -7.618948 0.0124118
v 8.21858 -8.833919 0.0124118
v 8.186963 -8.787515 0.0124118
v 6.792798 -9.805996 0.0124118
v 6.767441 -9.755323 0.0124118
v 5.23806 -10.55471 0.0124118
v 5.219531 -10.50075 0.0124118
v 3.589097 -11.06335 0.0124118
v 3.577809 -11.00716 0.0124118
v 3.55311 -11.09035 0.0124118
v 3.543614 -11.01342 0.0124118
v 3.55311 -11.09035 0.0124118
v 3.589097 -11.06335 0.0124118
v 3.589089 -16.86239 0.0124118
v 3.553102 -17.00829 0.0124118
v 3.589089 -17.04174 0.0124118
v 3.409921 -17.04174 0.0124118
v 1.882735 -17.04174 0.0124118
v 1.882735 -17.01519 0.0124118
v 0.1571076 -17.04174 0.0124118
v 0.1571078 -17.01519 0.0124118
v -1.510193 -17.00829 0.0124118
v -1.370078 -17.04174 0.0124118
v -1.549245 -17.04174 0.0124118
v -1.549245 -16.86239 0.0124118
v -1.549237 -11.06334 0.0124118
v -1.510185 -11.09035 0.0124118
v 3.577809 -11.00716 0.0124118
v 3.543614 -11.01342 0.0124118
v 3.113804 -8.980939 0.0124118
v 3.543614 -11.01342 0.0124118
v 1.878948 -11.26322 0.0124118
v 1.723126 -9.190549 0.0124118
v 0.160899 -11.26321 0.0124118
v 0.3167399 -9.190545 0.0124118
v -1.500041 -11.01583 0.0124118
v -1.073938 -8.980933 0.0124118
v 4.457709 -8.566403 0.0124118
v 3.577809 -11.00716 0.0124118
v 5.219531 -10.50075 0.0124118
v 5.724821 -7.956197 0.0124118
v 6.767441 -9.755323 0.0124118
v 6.886833 -7.163954 0.0124118
v 8.186963 -8.787515 0.0124118
v 7.917789 -6.207371 0.0124118
v 9.446384 -7.618948 0.0124118
v 8.79466 -5.107815 0.0124118
v 10.51757 -6.275725 0.0124118
v 9.497855 -3.889851 0.0124118
v 11.3766 -4.787854 0.0124118
v 10.01167 -2.580685 0.0124118
v 12.00428 -3.188568 0.0124118
v 10.32462 -1.209561 0.0124118
v 12.38658 -1.513595 0.0124118
v 10.42972 0.1929181 0.0124118
v 12.38658 -1.513595 0.0124118
v 12.51498 0.1996808 0.0124118
v 10.32463 1.595373 0.0124118
v 12.51498 0.1996808 0.0124118
v 12.38659 1.912927 0.0124118
v 10.01167 2.966499 0.0124118
v 12.00428 3.587903 0.0124118
v 9.497865 4.275667 0.0124118
v 11.37661 5.18719 0.0124118
v 8.794671 5.493635 0.0124118
v 10.51759 6.675067 0.0124118
v 7.917802 6.593193 0.0124118
v 10.51759 6.675067 0.0124118
v 9.446402 8.018292 0.0124118
v 6.886848 7.549778 0.0124118
v 9.446402 8.018292 0.0124118
v 8.186981 9.186863 0.0124118
v 5.724836 8.342024 0.0124118
v 6.767461 10.15467 0.0124118
v 4.457726 8.952231 0.0124118
v 5.219551 10.90011 0.0124118
v 3.11382 9.366772 0.0124118
v 3.577828 11.40651 0.0124118
v 1.723141 9.576384 0.0124118
v 1.878967 11.66258 0.0124118
v 0.316754 9.576383 0.0124118
v 0.1609161 11.66258 0.0124118
v -1.073925 9.366772 0.0124118
v -1.537945 11.40651 0.0124118
v -2.41783 8.952231 0.0124118
v -3.179667 10.90011 0.0124118
v -3.68494 8.342024 0.0124118
v -4.727576 10.15467 0.0124118
v -4.846951 7.549778 0.0124118
v -6.147095 9.186863 0.0124118
v -5.877905 6.593193 0.0124118
v -7.406515 8.018294 0.0124118
v -6.754772 5.493636 0.0124118
v -8.4777 6.675069 0.0124118
v -7.457966 4.27567 0.0124118
v -9.336731 5.187193 0.0124118
v -7.971776 2.966502 0.0124118
v -9.964404 3.587907 0.0124118
v -8.284728 1.595377 0.0124118
v -10.34671 1.912933 0.0124118
v -8.389828 0.192924 0.0124118
v -10.34671 1.912933 0.0124118
v -10.4751 0.1996881 0.0124118
v -8.284729 -1.20953 0.0124118
v -10.34671 -1.513557 0.0124118
v -7.97178 -2.580655 0.0124118
v -9.964409 -3.188531 0.0124118
v -7.457971 -3.889823 0.0124118
v -9.336736 -4.787819 0.0124118
v -6.754779 -5.10779 0.0124118
v -8.477709 -6.275694 0.0124118
v -5.877913 -6.207348 0.0124118
v -7.406525 -7.61892 0.0124118
v -4.84696 -7.163935 0.0124118
v -6.147106 -8.787492 0.0124118
v -3.68495 -7.956182 0.0124118
v -4.727588 -9.755305 0.0124118
v -2.417841 -8.566391 0.0124118
v -3.179681 -10.50074 0.0124118
v -1.537961 -11.00715 0.0124118
v 0.160899 -11.26321 0.0124118
v 0.1571159 -11.32053 0.0124118
v 1.878948 -11.26322 0.0124118
v 1.882743 -11.32054 0.0124118
v 0.1571159 -11.32053 0.0124118
v 1.882743 -11.32054 0.0124118
vt 2.93064 1.434547
vt 3.005077 1.052684
vt 2.959242 1.052686
vt 2.975963 1.441376
vt 2.845443 1.807879
vt 2.889242 1.821387
vt 2.705555 2.164343
vt 2.746852 2.184228
vt 2.514103 2.495977
vt 2.551975 2.521795
vt 2.275361 2.795372
vt 2.308961 2.826546
vt 1.994662 3.05584
vt 2.023242 3.091674
vt 1.678278 3.271564
vt 1.701198 3.311256
vt 2.930611 0.670821
vt 2.959242 1.052686
vt 2.975934 0.6639879
vt 2.889184 0.2839841
vt 2.845386 0.2974957
vt 2.746768 -0.07884601
vt 2.705472 -0.0589577
vt 1.333277 3.437723
vt 1.701198 3.311256
vt 1.678278 3.271564
vt 1.350025 3.480389
vt 0.9673632 3.550607
vt 0.9775648 3.595292
vt 0.5887126 3.607694
vt 0.5921404 3.6534
vt 0.9775648 3.595292
vt 0.9673632 3.550607
vt 0.2057826 3.607707
vt 0.5921404 3.6534
vt 0.5887126 3.607694
vt 0.20236 3.653413
vt -0.172872 3.550649
vt -0.1830685 3.595334
vt -0.5387937 3.437791
vt -0.5555363 3.480458
vt -0.8838076 3.271657
vt -0.9067223 3.311352
vt -0.5555363 3.480458
vt -0.5387937 3.437791
vt -1.200207 3.055957
vt -0.9067223 3.311352
vt -0.8838076 3.271657
vt -1.228782 3.091793
vt -1.480924 2.795509
vt -1.51452 2.826685
vt -1.719687 2.49613
vt -1.757555 2.521951
vt -1.911164 2.164511
vt -1.757555 2.521951
vt -1.719687 2.49613
vt -1.952458 2.184399
vt -2.051077 1.808057
vt -2.094874 1.821568
vt -2.136301 1.434731
vt -2.094874 1.821568
vt -2.181622 1.441564
vt -2.164931 1.052873
vt -2.210765 1.052875
vt -2.136329 0.6710137
vt -2.181651 0.6641842
vt -2.051133 0.2976817
vt -2.094931 0.2841734
vt -1.911247 -0.05878279
vt -1.952542 -0.07866797
vt -1.719795 -0.3904168
vt -1.757665 -0.4162347
vt -1.481055 -0.6898121
vt -1.514655 -0.720986
vt -1.200368 -0.9502811
vt -1.228946 -0.9861147
vt -0.8840217 -1.166004
vt -1.228946 -0.9861147
vt -1.200368 -0.9502811
vt -0.9069402 -1.205697
vt -0.5391428 -1.332163
vt -0.5558916 -1.374828
vt -0.1736062 -1.445044
vt -0.5558916 -1.374828
vt -0.5391428 -1.332163
vt -0.1838158 -1.489728
vt -0.1433645 -1.49583
vt -0.1365648 -1.450631
vt 2.705472 -0.0589577
vt 2.746768 -0.07884601
vt 2.551864 -0.416398
vt 2.513994 -0.3905772
vt 2.308826 -0.7211311
vt 2.275227 -0.6899547
vt 2.023077 -0.9862378
vt 1.9945 -0.950402
vt 1.700979 -1.205797
vt 1.678064 -1.166103
vt 1.349669 -1.374905
vt 1.332927 -1.332238
vt 0.976818 -1.489785
vt 0.9666294 -1.445099
vt 0.9363296 -1.495883
vt 0.9293287 -1.450717
vt 0.9363296 -1.495883
vt 0.976818 -1.489785
vt 0.9764633 -2.799661
vt 0.93599 -2.799843
vt 0.9764524 -2.840173
vt 0.9359795 -2.840171
vt 0.5909963 -2.840157
vt 0.5910028 -2.801388
vt 0.2012157 -2.840126
vt 0.2012223 -2.801357
vt -0.1437044 -2.799783
vt -0.1437149 -2.840112
vt -0.1841817 -2.84011
vt -0.1841707 -2.799599
vt -0.1838158 -1.489728
vt -0.1433645 -1.49583
vt 0.9666294 -1.445099
vt 0.9293287 -1.450717
vt 0.8695705 -1.01941
vt 0.9293287 -1.450717
vt 0.5878032 -1.502157
vt 0.5553039 -1.066744
vt 0.2048736 -1.502131
vt 0.2376332 -1.066723
vt -0.1365648 -1.450631
vt -0.07634601 -1.019365
vt 1.173444 -0.9257833
vt 0.9666294 -1.445099
vt 1.332927 -1.332238
vt 1.459762 -0.7879604
vt 1.678064 -1.166103
vt 1.722271 -0.6090197
vt 1.9945 -0.950402
vt 1.955157 -0.3929578
vt 2.275227 -0.6899547
vt 2.153233 -0.1446003
vt 2.513994 -0.3905772
vt 2.312079 0.1305046
vt 2.705472 -0.0589577
vt 2.428149 0.4262111
vt 2.845386 0.2974957
vt 2.49885 0.7359142
vt 2.930611 0.670821
vt 2.522602 1.052702
vt 2.930611 0.670821
vt 2.959242 1.052686
vt 2.498874 1.369486
vt 2.959242 1.052686
vt 2.93064 1.434547
vt 2.428196 1.679195
vt 2.845443 1.807879
vt 2.312149 1.97491
vt 2.705555 2.164343
vt 2.153323 2.250027
vt 2.514103 2.495977
vt 1.955267 2.498399
vt 2.514103 2.495977
vt 2.275361 2.795372
vt 1.722406 2.714478
vt 2.275361 2.795372
vt 1.994662 3.05584
vt 1.45994 2.893438
vt 1.678278 3.271564
vt 1.173734 3.031281
vt 1.333277 3.437723
vt 0.8701792 3.124927
vt 0.9673632 3.550607
vt 0.5560583 3.172285
vt 0.5887126 3.607694
vt 0.2383873 3.172296
vt 0.2057826 3.607707
vt -0.07573696 3.124961
vt -0.172872 3.550649
vt -0.3792982 3.031337
vt -0.5387937 3.437791
vt -0.6655148 2.893516
vt -0.8838076 3.271657
vt -0.9279932 2.714575
vt -1.200207 3.055957
vt -1.16087 2.498513
vt -1.480924 2.795509
vt -1.358944 2.250154
vt -1.719687 2.49613
vt -1.517789 1.975049
vt -1.911164 2.164511
vt -1.633858 1.679342
vt -2.051077 1.808057
vt -1.704558 1.369639
vt -2.136301 1.434731
vt -1.728309 1.052857
vt -2.136301 1.434731
vt -2.164931 1.052873
vt -1.704582 0.7360741
vt -2.136329 0.6710137
vt -1.633905 0.4263654
vt -2.051133 0.2976817
vt -1.517858 0.1306497
vt -1.911247 -0.05878279
vt -1.359033 -0.1444673
vt -1.719795 -0.3904168
vt -1.16098 -0.3928396
vt -1.481055 -0.6898121
vt -0.9281269 -0.6089194
vt -1.200368 -0.9502811
vt -0.6656924 -0.787879
vt -0.8840217 -1.166004
vt -0.3795878 -0.9257208
vt -0.5391428 -1.332163
vt -0.1736062 -1.445044
vt 0.2048736 -1.502131
vt 0.2014347 -1.547837
vt 0.5878032 -1.502157
vt 0.5912148 -1.547863
vt 0.2014347 -1.547837
vt 0.5912148 -1.547863
vn 0 0 1
vn 0 0 1
vn 0 0 1
vn 0 0 1
vn 0 0 1
vn 0 0 1
vn 0 0 1
vn 0 0 1
vn 0 0 1
vn 0 0 1
vn 0 0 1
vn 0 0 1
vn 0 0 1
vn 0 0 1
vn 0 0 1
vn 0 0 1
vn 0 0 1
vn 0 0 1
vn 0 0 1
vn 0 0 1
vn 0 0 1
vn 0 0 1
vn 0 0 1
vn 0 0 1
vn 0 0 1
vn 0 0 1
vn 0 0 1
vn 0 0 1
vn 0 0 1
vn 0 0 1
vn 0 0 1
vn 0 0 1
vn 0 0 1
vn 0 0 1
vn 0 0 1
vn 0 0 1
vn 0 0 1
vn 0 0 1
vn 0 0 1
vn 0 0 1
vn 0 0 1
vn 0 0 1
vn 0 0 1
vn 0 0 1
vn 0 0 1
vn 0 0 1
vn 0 0 1
vn 0 0 1
vn 0 0 1
vn 0 0 1
vn 0 0 1
vn 0 0 1
vn 0 0 1
vn 0 0 1
vn 0 0 1
vn 0 0 1
vn 0 0 1
vn 0 0 1
vn 0 0 1
vn 0 0 1
vn 0 0 1
vn 0 0 1
vn 0 0 1
vn 0 0 1
vn 0 0 1
vn 0 0 1
vn 0 0 1
vn 0 0 1
vn 0 0 1
vn 0 0 1
vn 0 0 1
vn 0 0 1
vn 0 0 1
vn 0 0 1
vn 0 0 1
vn 0 0 1
vn 0 0 1
vn 0 0 1
vn 0 0 1
vn 0 0 1
vn 0 0 1
vn 0 0 1
vn 0 0 1
vn 0 0 1
vn 0 0 1
vn 0 0 1
vn 0 0 1
vn 0 0 1
vn 0 0 1
vn 0 0 1
vn 0 0 1
vn 0 0 1
vn 0 0 1
vn 0 0 1
vn 0 0 1
vn 0 0 1
vn 0 0 1
vn 0 0 1
vn 0 0 1
vn 0 0 1
vn 0 0 1
vn 0 0 1
vn 0 0 1
vn 0 0 1
vn 0 0 1
vn 0 0 1
vn 0 0 1
vn 0 0 1
vn 0 0 1
vn 0 0 1
vn 0 0 1
vn 0 0 1
vn 0 0 1
vn 0 0 1
vn 0 0 1
vn 0 0 1
vn 0 0 1
vn 0 0 1
vn 0 0 1
vn 0 0 1
vn 0 0 1
vn 0 0 1
vn 0 0 1
vn 0 0 1
vn 0 0 1
vn 0 0 1
vn 0 0 1
vn 0 0 1
vn 0 0 1
vn 0 0 1
vn 0 0 1
vn 0 0 1
vn 0 0 1
vn 0 0 1
vn 0 0 1
vn 0 0 1
vn 0 0 1
vn 0 0 1
vn 0 0 1
vn 0 0 1
vn 0 0 1
vn 0 0 1
vn 0 0 1
vn 0 0 1
vn 0 0 1
vn 0 0 1
vn 0 0 1
vn 0 0 1
vn 0 0 1
vn 0 0 1
vn 0 0 1
vn 0 0 1
vn 0 0 1
vn 0 0 1
vn 0 0 1
vn 0 0 1
vn 0 0 1
vn 0 0 1
vn 0 0 1
vn 0 0 1
vn 0 0 1
vn 0 0 1
vn 0 0 1
vn 0 0 1
vn 0 0 1
vn 0 0 1
vn 0 0 1
vn 0 0 1
vn 0 0 1
vn 0 0 1
vn 0 0 1
vn 0 0 1
vn 0 0 1
vn 0 0 1
vn 0 0 1
vn 0 0 1
vn 0 0 1
vn 0 0 1
vn 0 0 1
vn 0 0 1
vn 0 0 1
vn 0 0 1
vn 0 0 1
vn 0 0 1
vn 0 0 1
vn 0 0 1
vn 0 0 1
vn 0 0 1
vn 0 0 1
vn 0 0 1
vn 0 0 1
vn 0 0 1
vn 0 0 1
vn 0 0 1
vn 0 0 1
vn 0 0 1
vn 0 0 1
vn 0 0 1
vn 0 0 1
vn 0 0 1
vn 0 0 1
vn 0 0 1
vn 0 0 1
vn 0 0 1
vn 0 0 1
vn 0 0 1
vn 0 0 1
vn 0 0 1
vn 0 0 1
vn 0 0 1
vn 0 0 1
vn 0 0 1
vn 0 0 1
vn 0 0 1
vn 0 0 1
vn 0 0 1
vn 0 0 1
vn 0 0 1
vn 0 0 1
g KK-Floor_pt2_0
f 3/3/3 2/2/2 1/1/1
f 2/2/2 4/4/4 1/1/1
f 1/1/1 4/4/4 5/5/5
f 4/4/4 6/6/6 5/5/5
f 5/5/5 6/6/6 7/7/7
f 6/6/6 8/8/8 7/7/7
f 7/7/7 8/8/8 9/9/9
f 8/8/8 10/10/10 9/9/9
f 9/9/9 10/10/10 11/11/11
f 10/10/10 12/12/12 11/11/11
f 11/11/11 12/12/12 13/13/13
f 12/12/12 14/14/14 13/13/13
f 13/13/13 14/14/14 15/15/15
f 14/14/14 16/16/16 15/15/15
f 18/18/18 17/17/17 2/2/2
f 17/17/17 19/19/19 2/2/2
f 20/20/20 19/19/19 17/17/17
f 21/21/21 20/20/20 17/17/17
f 22/22/22 20/20/20 21/21/21
f 23/23/23 22/22/22 21/21/21
f 26/26/26 25/25/25 24/24/24
f 25/25/25 27/27/27 24/24/24
f 24/24/24 27/27/27 28/28/28
f 27/27/27 29/29/29 28/28/28
f 32/32/32 31/31/31 30/30/30
f 33/33/33 32/32/32 30/30/30
f 36/36/36 35/35/35 34/34/34
f 35/35/35 37/37/37 34/34/34
f 34/34/34 37/37/37 38/38/38
f 37/37/37 39/39/39 38/38/38
f 38/38/38 39/39/39 40/40/40
f 39/39/39 41/41/41 40/40/40
f 44/44/44 43/43/43 42/42/42
f 45/45/45 44/44/44 42/42/42
f 48/48/48 47/47/47 46/46/46
f 47/47/47 49/49/49 46/46/46
f 46/46/46 49/49/49 50/50/50
f 49/49/49 51/51/51 50/50/50
f 50/50/50 51/51/51 52/52/52
f 51/51/51 53/53/53 52/52/52
f 56/56/56 55/55/55 54/54/54
f 55/55/55 57/57/57 54/54/54
f 54/54/54 57/57/57 58/58/58
f 57/57/57 59/59/59 58/58/58
f 58/58/58 61/61/61 60/60/60
f 61/61/61 62/62/62 60/60/60
f 60/60/60 62/62/62 63/63/63
f 62/62/62 64/64/64 63/63/63
f 63/63/63 64/64/64 65/65/65
f 64/64/64 66/66/66 65/65/65
f 65/65/65 66/66/66 67/67/67
f 66/66/66 68/68/68 67/67/67
f 67/67/67 68/68/68 69/69/69
f 68/68/68 70/70/70 69/69/69
f 69/69/69 70/70/70 71/71/71
f 70/70/70 72/72/72 71/71/71
f 71/71/71 72/72/72 73/73/73
f 72/72/72 74/74/74 73/73/73
f 73/73/73 74/74/74 75/75/75
f 74/74/74 76/76/76 75/75/75
f 79/79/79 78/78/78 77/77/77
f 78/78/78 80/80/80 77/77/77
f 77/77/77 80/80/80 81/81/81
f 80/80/80 82/82/82 81/81/81
f 85/85/85 84/84/84 83/83/83
f 84/84/84 86/86/86 83/83/83
f 86/86/86 87/87/87 83/83/83
f 87/87/87 88/88/88 83/83/83
f 91/91/91 90/90/90 89/89/89
f 92/92/92 91/91/91 89/89/89
f 93/93/93 91/91/91 92/92/92
f 94/94/94 93/93/93 92/92/92
f 95/95/95 93/93/93 94/94/94
f 96/96/96 95/95/95 94/94/94
f 97/97/97 95/95/95 96/96/96
f 98/98/98 97/97/97 96/96/96
f 99/99/99 97/97/97 98/98/98
f 100/100/100 99/99/99 98/98/98
f 101/101/101 99/99/99 100/100/100
f 102/102/102 101/101/101 100/100/100
f 101/101/101 102/102/102 103/103/103
f 102/102/102 104/104/104 103/103/103
f 107/107/107 106/106/106 105/105/105
f 108/108/108 107/107/107 105/105/105
f 107/107/107 108/108/108 109/109/109
f 108/108/108 110/110/110 109/109/109
f 110/110/110 108/108/108 111/111/111
f 108/108/108 112/112/112 111/111/111
f 111/111/111 112/112/112 113/113/113
f 112/112/112 114/114/114 113/113/113
f 114/114/114 115/115/115 113/113/113
f 115/115/115 116/116/116 113/113/113
f 116/116/116 115/115/115 117/117/117
f 115/115/115 118/118/118 117/117/117
f 118/118/118 115/115/115 119/119/119
f 115/115/115 120/120/120 119/119/119
g KK-Floor_pt2_1
f 123/123/123 122/122/122 121/121/121
f 125/125/125 124/124/124 123/123/123
f 126/126/126 125/125/125 123/123/123
f 127/127/127 125/125/125 126/126/126
f 128/128/128 127/127/127 126/126/126
f 129/129/129 127/127/127 128/128/128
f 130/130/130 129/129/129 128/128/128
f 123/123/123 132/132/132 131/131/131
f 132/132/132 133/133/133 131/131/131
f 131/131/131 133/133/133 134/134/134
f 133/133/133 135/135/135 134/134/134
f 134/134/134 135/135/135 136/136/136
f 135/135/135 137/137/137 136/136/136
f 136/136/136 137/137/137 138/138/138
f 137/137/137 139/139/139 138/138/138
f 138/138/138 139/139/139 140/140/140
f 139/139/139 141/141/141 140/140/140
f 140/140/140 141/141/141 142/142/142
f 141/141/141 143/143/143 142/142/142
f 142/142/142 143/143/143 144/144/144
f 143/143/143 145/145/145 144/144/144
f 144/144/144 145/145/145 146/146/146
f 145/145/145 147/147/147 146/146/146
f 146/146/146 149/149/149 148/148/148
f 149/149/149 150/150/150 148/148/148
f 148/148/148 152/152/152 151/151/151
f 152/152/152 153/153/153 151/151/151
f 151/151/151 153/153/153 154/154/154
f 153/153/153 155/155/155 154/154/154
f 154/154/154 155/155/155 156/156/156
f 155/155/155 157/157/157 156/156/156
f 156/156/156 157/157/157 158/158/158
f 157/157/157 159/159/159 158/158/158
f 158/158/158 161/161/161 160/160/160
f 161/161/161 162/162/162 160/160/160
f 160/160/160 164/164/164 163/163/163
f 164/164/164 165/165/165 163/163/163
f 163/163/163 165/165/165 166/166/166
f 165/165/165 167/167/167 166/166/166
f 166/166/166 167/167/167 168/168/168
f 167/167/167 169/169/169 168/168/168
f 168/168/168 169/169/169 170/170/170
f 169/169/169 171/171/171 170/170/170
f 170/170/170 171/171/171 172/172/172
f 171/171/171 173/173/173 172/172/172
f 172/172/172 173/173/173 174/174/174
f 173/173/173 175/175/175 174/174/174
f 174/174/174 175/175/175 176/176/176
f 175/175/175 177/177/177 176/176/176
f 176/176/176 177/177/177 178/178/178
f 177/177/177 179/179/179 178/178/178
f 178/178/178 179/179/179 180/180/180
f 179/179/179 181/181/181 180/180/180
f 180/180/180 181/181/181 182/182/182
f 181/181/181 183/183/183 182/182/182
f 182/182/182 183/183/183 184/184/184
f 183/183/183 185/185/185 184/184/184
f 184/184/184 185/185/185 186/186/186
f 185/185/185 187/187/187 186/186/186
f 186/186/186 187/187/187 188/188/188
f 187/187/187 189/189/189 188/188/188
f 188/188/188 189/189/189 190/190/190
f 189/189/189 191/191/191 190/190/190
f 190/190/190 191/191/191 192/192/192
f 191/191/191 193/193/193 192/192/192
f 192/192/192 195/195/195 194/194/194
f 195/195/195 196/196/196 194/194/194
f 194/194/194 196/196/196 197/197/197
f 196/196/196 198/198/198 197/197/197
f 197/197/197 198/198/198 199/199/199
f 198/198/198 200/200/200 199/199/199
f 199/199/199 200/200/200 201/201/201
f 200/200/200 202/202/202 201/201/201
f 201/201/201 202/202/202 203/203/203
f 202/202/202 204/204/204 203/203/203
f 203/203/203 204/204/204 205/205/205
f 204/204/204 206/206/206 205/205/205
f 205/205/205 206/206/206 207/207/207
f 206/206/206 208/208/208 207/207/207
f 207/207/207 208/208/208 209/209/209
f 208/208/208 210/210/210 209/209/209
f 209/209/209 210/210/210 211/211/211
f 210/210/210 212/212/212 211/211/211
f 211/211/211 212/212/212 130/130/130
f 212/212/212 213/213/213 130/130/130
f 83/83/83 88/88/88 130/130/130
f 214/214/214 88/88/88 87/87/87
f 215/215/215 214/214/214 87/87/87
f 214/214/214 215/215/215 216/216/216
f 215/215/215 217/217/217 216/216/216
f 217/217/217 103/103/103 216/216/216
f 103/103/103 104/104/104 216/216/216
f 120/120/120 115/115/115 218/218/218
f 115/115/115 114/114/114 218/218/218
f 114/114/114 112/112/112 218/218/218
f 112/112/112 219/219/219 218/218/218
f 112/112/112 108/108/108 219/219/219
f 108/108/108 105/105/105 219/219/219
