g KK-MaritimeFlag_1
v -0.9885585 3.052582 2.364554
v -1.259528 3.012167 2.377344
v -0.9885612 3.052608 2.374653
v -1.259534 3.012218 2.367245
v -1.350724 2.996669 2.366178
v -1.351611 2.996488 2.376262
v -1.530114 2.96612 2.372877
v -1.529661 2.966125 2.36279
v -1.708914 2.934299 2.368672
v -1.708001 2.934254 2.358597
v -1.799965 2.917485 2.356306
v -1.799994 2.917744 2.366403
v -2.069196 2.861032 2.358145
v -2.069165 2.860761 2.348048
v -2.141374 3.526197 2.352548
v -1.865519 3.521598 2.370691
v -2.141401 3.526444 2.362646
v -1.865492 3.521348 2.360592
v -1.772954 3.524478 2.360962
v -1.772073 3.524723 2.371062
v -1.592343 3.543774 2.370996
v -1.59278 3.543624 2.3609
v -1.414786 3.58703 2.370345
v -1.415666 3.5868 2.36025
v -1.325064 3.616117 2.36013
v -1.325057 3.616056 2.370228
v -1.060773 3.718082 2.372476
v -1.060772 3.718076 2.362378
v -1.060772 3.718076 2.362378
v -1.042535 3.550011 2.382957
v -1.060773 3.718082 2.372476
v -1.042535 3.550003 2.372858
v -1.024602 3.384747 2.387023
v -1.0246 3.384736 2.376924
v -1.006701 3.219777 2.383784
v -1.0067 3.219761 2.373685
v -0.9885612 3.052608 2.374653
v -0.9885585 3.052582 2.364554
v -2.069165 2.860761 2.348048
v -2.087356 3.028392 2.354262
v -2.069196 2.861032 2.358145
v -2.087325 3.02811 2.344164
v -2.105264 3.193419 2.354793
v -2.105234 3.193139 2.344694
v -2.123186 3.358586 2.358622
v -2.123158 3.35832 2.348523
v -2.141401 3.526444 2.362646
v -2.141374 3.526197 2.352548
v -1.325064 3.616117 2.36013
v -1.042535 3.550003 2.372858
v -1.060772 3.718076 2.362378
v -1.308679 3.465122 2.371283
v -1.415666 3.5868 2.36025
v -1.0246 3.384736 2.376924
v -1.399476 3.439677 2.370403
v -1.59278 3.543624 2.3609
v -1.292514 3.316155 2.376453
v -1.0067 3.219761 2.373685
v -1.276231 3.166099 2.374719
v -0.9885585 3.052582 2.364554
v -1.259534 3.012218 2.367245
v -1.383472 3.29428 2.374958
v -1.367326 3.147565 2.373083
v -1.350724 2.996669 2.366178
v -1.577085 3.400027 2.368028
v -1.545844 3.114218 2.368275
v -1.529661 2.966125 2.36279
v -1.708001 2.934254 2.358597
v -1.561546 3.257877 2.370697
v -1.724627 3.085395 2.361743
v -1.799965 2.917485 2.356306
v -1.756782 3.377543 2.36407
v -1.772954 3.524478 2.360962
v -1.740788 3.232211 2.364147
v -1.816694 3.071648 2.357924
v -1.849138 3.370641 2.361482
v -1.865492 3.521348 2.360592
v -1.832987 3.221797 2.360183
v -2.087325 3.02811 2.344164
v -2.069165 2.860761 2.348048
v -2.105234 3.193139 2.344694
v -2.123158 3.35832 2.348523
v -2.141374 3.526197 2.352548
v -1.042535 3.550011 2.382957
v -1.325057 3.616056 2.370228
v -1.060773 3.718082 2.372476
v -1.308672 3.465058 2.381381
v -1.024602 3.384747 2.387023
v -1.414786 3.58703 2.370345
v -1.292508 3.316085 2.386549
v -1.006701 3.219777 2.383784
v -1.399034 3.439793 2.380502
v -1.592343 3.543774 2.370996
v -1.276225 3.166033 2.384816
v -1.383474 3.294287 2.385053
v -1.57687 3.400141 2.378127
v -1.259528 3.012167 2.377344
v -0.9885612 3.052608 2.374653
v -1.367768 3.147471 2.38317
v -1.351611 2.996488 2.376262
v -1.561554 3.257947 2.380792
v -1.546075 3.114251 2.378363
v -1.530114 2.96612 2.372877
v -1.708914 2.934299 2.368672
v -1.725093 3.085497 2.371821
v -1.799994 2.917744 2.366403
v -1.756353 3.377754 2.374178
v -1.772073 3.524723 2.371062
v -1.740804 3.232374 2.374242
v -1.816723 3.07191 2.36802
v -2.069196 2.861032 2.358145
v -2.087356 3.028392 2.354262
v -1.833015 3.222061 2.370279
v -2.105264 3.193419 2.354793
v -1.849167 3.370901 2.371579
v -1.865519 3.521598 2.370691
v -2.123186 3.358586 2.358622
v -2.141401 3.526444 2.362646
vt 0.01467372 0.3224483
vt 0.04461982 0.319048
vt 0.01460011 0.3213415
vt 0.04468005 0.3201592
vt 0.05488126 0.3198399
vt 0.05494585 0.3187203
vt 0.07508349 0.318684
vt 0.07503714 0.319811
vt 0.0954534 0.3194368
vt 0.09532191 0.3205667
vt 0.1058307 0.32126
vt 0.1058938 0.3201211
vt 0.1368726 0.3233742
vt 0.1367904 0.3245136
vt 0.1396838 0.2461963
vt 0.1065589 0.2481944
vt 0.1396804 0.2473894
vt 0.1065532 0.2469525
vt 0.09475822 0.2470939
vt 0.09465875 0.2483877
vt 0.07084309 0.248711
vt 0.07088465 0.2473894
vt 0.04671469 0.2489482
vt 0.04681508 0.2476615
vt 0.03483958 0.247806
vt 0.03484957 0.2490252
vt 0.001585831 0.2493298
vt 0.001584184 0.2481611
vt 0.0005 0.2495351
vt 0.00614022 0.2673067
vt 0.001585831 0.2493298
vt 0.005052082 0.2675039
vt 0.009677991 0.2851652
vt 0.008583969 0.2853546
vt 0.01238979 0.3030864
vt 0.01130374 0.3032772
vt 0.01460011 0.3213415
vt 0.01351455 0.3215362
vt 0.1380152 0.3233995
vt 0.1372165 0.3043092
vt 0.1368726 0.3233742
vt 0.1383622 0.3043507
vt 0.1375652 0.2854064
vt 0.1387096 0.2854855
vt 0.1382801 0.2665036
vt 0.1394197 0.2666241
vt 0.1396804 0.2473894
vt 0.1408167 0.2475278
vt 0.03483958 0.247806
vt 0.005872521 0.2301123
vt 0.001584184 0.2481611
vt 0.03792689 0.2296273
vt 0.04681508 0.2476615
vt 0.008998667 0.2121832
vt 0.0492452 0.2292733
vt 0.07088465 0.2473894
vt 0.04010788 0.2121906
vt 0.01141209 0.194215
vt 0.04182153 0.1950908
vt 0.01346516 0.1759547
vt 0.04331069 0.177975
vt 0.05095852 0.211906
vt 0.05229116 0.1949975
vt 0.05344282 0.1781219
vt 0.07160666 0.2286498
vt 0.0728783 0.1945227
vt 0.07336549 0.1778028
vt 0.09341185 0.1765171
vt 0.07229179 0.2112982
vt 0.09354936 0.1936739
vt 0.1038155 0.1755848
vt 0.09401259 0.2283687
vt 0.09475822 0.2470939
vt 0.09370298 0.2107818
vt 0.1041619 0.1930903
vt 0.1052626 0.2282874
vt 0.1065532 0.2469525
vt 0.1045891 0.2105158
vt 0.1351339 0.1903104
vt 0.1344431 0.1714135
vt 0.1359258 0.2089235
vt 0.1372935 0.2274717
vt 0.1396838 0.2461963
vt 0.00614022 0.2673067
vt 0.03484957 0.2490252
vt 0.001585831 0.2493298
vt 0.03828387 0.2672011
vt 0.009677991 0.2851652
vt 0.04671469 0.2489482
vt 0.04081328 0.284665
vt 0.01238979 0.3030864
vt 0.04958457 0.267326
vt 0.07084309 0.248711
vt 0.04284783 0.3018253
vt 0.05171729 0.2847314
vt 0.07205277 0.2674601
vt 0.04461982 0.319048
vt 0.01460011 0.3213415
vt 0.05343788 0.3017229
vt 0.05494585 0.3187203
vt 0.07318407 0.2848782
vt 0.07419088 0.3017738
vt 0.07508349 0.318684
vt 0.0954534 0.3194368
vt 0.0951047 0.3021044
vt 0.1058938 0.3201211
vt 0.09451472 0.2671544
vt 0.09465875 0.2483877
vt 0.09475067 0.2848426
vt 0.1057897 0.3024006
vt 0.1368726 0.3233742
vt 0.1372165 0.3043092
vt 0.1057319 0.2847934
vt 0.1375652 0.2854064
vt 0.1058682 0.2668917
vt 0.1065589 0.2481944
vt 0.1382801 0.2665036
vt 0.1396804 0.2473894
vn 0.147461 -0.9890671 -0.001228307
vn 0.1577424 -0.9874769 -0.002584549
vn 0.147461 -0.9890671 -0.001228307
vn 0.15775 -0.9874757 -0.002585556
vn 0.1679848 -0.985789 -0.001047231
vn 0.1679818 -0.9857898 -0.0007595776
vn 0.1716509 -0.9851245 0.008099355
vn 0.1715425 -0.9851449 0.007924545
vn 0.1769357 -0.9840443 0.01872501
vn 0.1768022 -0.9840754 0.01834515
vn 0.192179 -0.9810472 0.02477152
vn 0.1916778 -0.9811467 0.02471322
vn 0.2053219 -0.9783412 0.02629982
vn 0.2053219 -0.9783412 0.02629982
vn 0.01827909 0.9995321 -0.02452421
vn -0.007857178 0.9996861 -0.02379071
vn 0.01827909 0.9995321 -0.02452421
vn -0.007392048 0.9996893 -0.02380391
vn -0.0675054 0.9975544 -0.01811965
vn -0.07164285 0.9972765 -0.01751661
vn -0.1733416 0.9848323 -0.007603697
vn -0.1697347 0.9854584 -0.007869681
vn -0.2744583 0.9615978 0.001543594
vn -0.2705019 0.9627188 0.001076869
vn -0.3340284 0.9425542 0.004059279
vn -0.334094 0.942531 0.004055656
vn -0.3600538 0.9329278 0.002612431
vn -0.3600538 0.9329278 0.002612431
vn 0.9941645 0.1078747 3.379384E-06
vn 0.994164 0.1078791 1.314043E-05
vn 0.9941645 0.1078747 3.379384E-06
vn 0.994164 0.1078788 1.262676E-05
vn 0.9941643 0.1078773 3.124503E-05
vn 0.9941643 0.1078773 3.122961E-05
vn 0.9941644 0.1078759 2.310274E-05
vn 0.9941644 0.1078761 2.225084E-05
vn 0.9941639 0.1078807 5.251386E-06
vn 0.9941639 0.1078806 5.251386E-06
vn -0.994164 -0.1078787 -2.493743E-05
vn -0.9941638 -0.1078813 -9.376542E-06
vn -0.994164 -0.1078787 -2.493743E-05
vn -0.9941638 -0.1078812 -9.731969E-06
vn -0.9941639 -0.10788 6.800657E-06
vn -0.9941639 -0.1078802 6.751338E-06
vn -0.9941642 -0.1078786 4.401707E-06
vn -0.9941642 -0.1078784 4.605965E-06
vn -0.9941639 -0.1078806 1.287129E-06
vn -0.9941639 -0.1078806 1.287129E-06
vn 0.02773576 -0.06617612 -0.9974225
vn 0.02203525 -0.04856177 -0.9985771
vn 0.02987145 -0.06439276 -0.9974775
vn 0.02145705 -0.04778116 -0.9986273
vn 0.02190187 -0.06353176 -0.9977394
vn 0.004433649 -0.008365742 -0.9999552
vn 0.02172238 -0.04441877 -0.9987769
vn 0.01654303 -0.045931 -0.9988075
vn 0.01041484 -0.007371304 -0.9999186
vn -0.009740041 0.03165587 -0.9994513
vn -4.944284E-05 0.03166827 -0.9994985
vn -0.01557297 0.04995761 -0.9986299
vn -0.004505276 0.04882916 -0.9987969
vn 0.02006613 -0.00527328 -0.9997848
vn 0.01428655 0.03062482 -0.9994288
vn 0.0107228 0.04532535 -0.9989147
vn 0.02168687 -0.02938992 -0.9993327
vn 0.02382401 0.0282413 -0.9993172
vn 0.02012277 0.03705791 -0.9991105
vn 0.02747171 0.02492215 -0.9993118
vn 0.0272258 0.002619179 -0.9996259
vn 0.03191578 0.0227697 -0.9992311
vn 0.03594834 0.007571685 -0.9993249
vn 0.02418234 -0.01070632 -0.9996502
vn 0.01568978 -0.02233091 -0.9996275
vn 0.03447629 0.01062681 -0.9993491
vn 0.04071379 0.01283081 -0.9990884
vn 0.03495591 0.007989257 -0.9993569
vn 0.02797152 0.001975473 -0.9996068
vn 0.0441434 0.01605479 -0.9988961
vn 0.04638198 0.005673003 -0.9989077
vn 0.04122848 -0.002568869 -0.9991465
vn 0.05111996 0.01812361 -0.998528
vn 0.04392609 0.01770955 -0.9988778
vn 0.03797268 0.01395676 -0.9991813
vn -0.02205237 0.04855944 0.9985769
vn -0.02775262 0.06617924 0.9974217
vn -0.02988851 0.06438677 0.9974774
vn -0.02146929 0.04777835 0.9986272
vn -0.004444291 0.008367622 0.9999552
vn -0.02191085 0.06356671 0.9977371
vn -0.01042513 0.007362613 0.9999186
vn 0.009741669 -0.03165186 0.9994515
vn -0.02171663 0.04443725 0.9987761
vn -0.01652835 0.0459919 0.998805
vn 3.471619E-05 -0.03167148 0.9994984
vn -0.02007414 0.005279883 0.9997845
vn -0.02167098 0.02941975 0.9993321
vn 0.004486864 -0.04882339 0.9987973
vn 0.01558245 -0.04995643 0.9986298
vn -0.01432443 -0.03061558 0.9994286
vn -0.01078294 -0.04529879 0.9989153
vn -0.02722895 -0.002615049 0.9996258
vn -0.02385772 -0.02822168 0.9993169
vn -0.02017232 -0.03701284 0.9991111
vn -0.02751162 -0.02487126 0.999312
vn -0.03194027 -0.02275061 0.9992307
vn -0.03596315 -0.007558143 0.9993246
vn -0.02415362 0.01073516 0.9996506
vn -0.01564923 0.02241035 0.9996264
vn -0.03447304 -0.01062757 0.9993491
vn -0.04072457 -0.01282036 0.9990882
vn -0.04122558 0.002567144 0.9991466
vn -0.04637697 -0.005674839 0.9989079
vn -0.04413332 -0.01604994 0.9988967
vn -0.05111166 -0.01812635 0.9985285
vn -0.03492802 -0.007972205 0.999358
vn -0.02794416 -0.001952027 0.9996076
vn -0.04392037 -0.01771196 0.9988779
vn -0.03796997 -0.01395778 0.9991813
g KK-MaritimeFlag_1_0
f 3/3/3 2/2/2 1/1/1
f 2/2/2 4/4/4 1/1/1
f 4/4/4 2/2/2 5/5/5
f 2/2/2 6/6/6 5/5/5
f 6/6/6 7/7/7 5/5/5
f 7/7/7 8/8/8 5/5/5
f 8/8/8 7/7/7 9/9/9
f 10/10/10 8/8/8 9/9/9
f 10/10/10 9/9/9 11/11/11
f 9/9/9 12/12/12 11/11/11
f 11/11/11 12/12/12 13/13/13
f 14/14/14 11/11/11 13/13/13
f 17/17/17 16/16/16 15/15/15
f 16/16/16 18/18/18 15/15/15
f 18/18/18 16/16/16 19/19/19
f 16/16/16 20/20/20 19/19/19
f 20/20/20 21/21/21 19/19/19
f 21/21/21 22/22/22 19/19/19
f 22/22/22 21/21/21 23/23/23
f 24/24/24 22/22/22 23/23/23
f 24/24/24 23/23/23 25/25/25
f 23/23/23 26/26/26 25/25/25
f 25/25/25 26/26/26 27/27/27
f 28/28/28 25/25/25 27/27/27
f 31/31/31 30/30/30 29/29/29
f 30/30/30 32/32/32 29/29/29
f 30/30/30 33/33/33 32/32/32
f 33/33/33 34/34/34 32/32/32
f 33/33/33 35/35/35 34/34/34
f 35/35/35 36/36/36 34/34/34
f 36/36/36 35/35/35 37/37/37
f 38/38/38 36/36/36 37/37/37
f 41/41/41 40/40/40 39/39/39
f 40/40/40 42/42/42 39/39/39
f 40/40/40 43/43/43 42/42/42
f 43/43/43 44/44/44 42/42/42
f 43/43/43 45/45/45 44/44/44
f 45/45/45 46/46/46 44/44/44
f 46/46/46 45/45/45 47/47/47
f 48/48/48 46/46/46 47/47/47
f 51/51/51 50/50/50 49/49/49
f 50/50/50 52/52/52 49/49/49
f 49/49/49 52/52/52 53/53/53
f 52/52/52 50/50/50 54/54/54
f 52/52/52 55/55/55 53/53/53
f 53/53/53 55/55/55 56/56/56
f 57/57/57 52/52/52 54/54/54
f 55/55/55 52/52/52 57/57/57
f 57/57/57 54/54/54 58/58/58
f 59/59/59 57/57/57 58/58/58
f 59/59/59 58/58/58 60/60/60
f 61/61/61 59/59/59 60/60/60
f 62/62/62 55/55/55 57/57/57
f 62/62/62 57/57/57 59/59/59
f 63/63/63 59/59/59 61/61/61
f 63/63/63 62/62/62 59/59/59
f 64/64/64 63/63/63 61/61/61
f 55/55/55 65/65/65 56/56/56
f 65/65/65 55/55/55 62/62/62
f 66/66/66 63/63/63 64/64/64
f 67/67/67 66/66/66 64/64/64
f 67/67/67 68/68/68 66/66/66
f 69/69/69 62/62/62 63/63/63
f 66/66/66 69/69/69 63/63/63
f 69/69/69 65/65/65 62/62/62
f 68/68/68 70/70/70 66/66/66
f 69/69/69 66/66/66 70/70/70
f 68/68/68 71/71/71 70/70/70
f 56/56/56 65/65/65 72/72/72
f 73/73/73 56/56/56 72/72/72
f 65/65/65 69/69/69 74/74/74
f 74/74/74 69/69/69 70/70/70
f 72/72/72 65/65/65 74/74/74
f 71/71/71 75/75/75 70/70/70
f 70/70/70 75/75/75 74/74/74
f 73/73/73 72/72/72 76/76/76
f 77/77/77 73/73/73 76/76/76
f 74/74/74 78/78/78 72/72/72
f 75/75/75 78/78/78 74/74/74
f 78/78/78 76/76/76 72/72/72
f 79/79/79 75/75/75 71/71/71
f 78/78/78 75/75/75 79/79/79
f 80/80/80 79/79/79 71/71/71
f 81/81/81 78/78/78 79/79/79
f 76/76/76 78/78/78 81/81/81
f 82/82/82 76/76/76 81/81/81
f 77/77/77 76/76/76 82/82/82
f 83/83/83 77/77/77 82/82/82
f 86/86/86 85/85/85 84/84/84
f 85/85/85 87/87/87 84/84/84
f 84/84/84 87/87/87 88/88/88
f 85/85/85 89/89/89 87/87/87
f 87/87/87 90/90/90 88/88/88
f 88/88/88 90/90/90 91/91/91
f 89/89/89 92/92/92 87/87/87
f 87/87/87 92/92/92 90/90/90
f 89/89/89 93/93/93 92/92/92
f 90/90/90 94/94/94 91/91/91
f 92/92/92 95/95/95 90/90/90
f 90/90/90 95/95/95 94/94/94
f 93/93/93 96/96/96 92/92/92
f 92/92/92 96/96/96 95/95/95
f 91/91/91 94/94/94 97/97/97
f 98/98/98 91/91/91 97/97/97
f 97/97/97 94/94/94 99/99/99
f 95/95/95 99/99/99 94/94/94
f 100/100/100 97/97/97 99/99/99
f 95/95/95 101/101/101 99/99/99
f 96/96/96 101/101/101 95/95/95
f 100/100/100 99/99/99 102/102/102
f 101/101/101 102/102/102 99/99/99
f 103/103/103 100/100/100 102/102/102
f 103/103/103 102/102/102 104/104/104
f 102/102/102 105/105/105 104/104/104
f 102/102/102 101/101/101 105/105/105
f 104/104/104 105/105/105 106/106/106
f 107/107/107 96/96/96 93/93/93
f 108/108/108 107/107/107 93/93/93
f 101/101/101 96/96/96 109/109/109
f 101/101/101 109/109/109 105/105/105
f 96/96/96 107/107/107 109/109/109
f 105/105/105 110/110/110 106/106/106
f 110/110/110 105/105/105 109/109/109
f 106/106/106 110/110/110 111/111/111
f 110/110/110 112/112/112 111/111/111
f 113/113/113 110/110/110 109/109/109
f 110/110/110 113/113/113 112/112/112
f 113/113/113 109/109/109 107/107/107
f 113/113/113 114/114/114 112/112/112
f 115/115/115 107/107/107 108/108/108
f 115/115/115 113/113/113 107/107/107
f 113/113/113 115/115/115 114/114/114
f 116/116/116 115/115/115 108/108/108
f 115/115/115 117/117/117 114/114/114
f 117/117/117 115/115/115 116/116/116
f 118/118/118 117/117/117 116/116/116
