g KK-MaritimeFlag_3
v 1.553673 3.892919 2.35019
v 1.308336 3.770978 2.337401
v 1.308326 3.771002 2.3475
v 1.553649 3.892963 2.340092
v 1.637326 3.932402 2.339025
v 1.638158 3.932761 2.34911
v 1.801916 4.01002 2.345724
v 1.801543 4.009765 2.335637
v 1.966747 4.086257 2.341519
v 1.966026 4.085698 2.331444
v 2.051036 4.12458 2.329153
v 2.050911 4.124809 2.33925
v 2.304122 4.232372 2.330992
v 2.304257 4.232133 2.320895
v 1.759044 4.657488 2.343538
v 1.982624 4.819136 2.325395
v 1.982503 4.819355 2.335493
v 1.759167 4.657266 2.33344
v 1.681492 4.606874 2.333809
v 1.68063 4.60657 2.343908
v 1.522344 4.51933 2.343843
v 1.522786 4.519456 2.333747
v 1.35198 4.453181 2.343192
v 1.352839 4.453496 2.333097
v 1.261759 4.425682 2.332976
v 1.261791 4.425628 2.343075
v 0.9866809 4.35804 2.345323
v 0.9866803 4.358032 2.335225
v 1.067913 4.209779 2.355804
v 0.9866803 4.358032 2.335225
v 0.9866809 4.35804 2.345323
v 1.067916 4.20977 2.345705
v 1.147791 4.063993 2.35987
v 1.147798 4.063985 2.349771
v 1.227526 3.918466 2.356631
v 1.227533 3.918454 2.346532
v 1.308326 3.771002 2.3475
v 1.308336 3.770978 2.337401
v 2.223231 4.380006 2.327109
v 2.304257 4.232133 2.320895
v 2.304122 4.232372 2.330992
v 2.223366 4.379759 2.317011
v 2.143467 4.525581 2.32764
v 2.1436 4.525335 2.317541
v 2.063636 4.671281 2.331469
v 2.063765 4.671046 2.32137
v 1.982503 4.819355 2.335493
v 1.982624 4.819136 2.325395
v 1.067916 4.20977 2.345705
v 1.261759 4.425682 2.332976
v 0.9866803 4.358032 2.335225
v 1.334743 4.292483 2.344131
v 1.147798 4.063985 2.349771
v 1.352839 4.453496 2.333097
v 1.406744 4.161076 2.3493
v 1.227533 3.918454 2.346532
v 1.423761 4.323585 2.34325
v 1.522786 4.519456 2.333747
v 1.479271 4.028707 2.347566
v 1.308336 3.770978 2.337401
v 1.553649 3.892963 2.340092
v 1.493849 4.195196 2.347805
v 1.564576 4.065642 2.34593
v 1.637326 3.932402 2.339025
v 1.5921 4.392718 2.340875
v 1.730055 4.140468 2.341122
v 1.801543 4.009765 2.335637
v 1.966026 4.085698 2.331444
v 1.660714 4.267259 2.343544
v 1.893157 4.219155 2.334591
v 2.051036 4.12458 2.329153
v 1.752324 4.477127 2.336917
v 1.681492 4.606874 2.333809
v 1.822383 4.348796 2.336994
v 1.976525 4.260571 2.33077
v 1.832011 4.524323 2.334329
v 1.759167 4.657266 2.33344
v 1.903952 4.393024 2.33303
v 2.223366 4.379759 2.317011
v 2.304257 4.232133 2.320895
v 2.1436 4.525335 2.317541
v 2.063765 4.671046 2.32137
v 1.982624 4.819136 2.325395
v 1.067913 4.209779 2.355804
v 0.9866809 4.35804 2.345323
v 1.261791 4.425628 2.343075
v 1.334776 4.292428 2.354228
v 1.147791 4.063993 2.35987
v 1.35198 4.453181 2.343192
v 1.406778 4.161014 2.359396
v 1.227526 3.918466 2.356631
v 1.423335 4.323427 2.353349
v 1.522344 4.51933 2.343843
v 1.479303 4.028648 2.357663
v 1.493849 4.195201 2.3579
v 1.591857 4.392691 2.350974
v 1.553673 3.892919 2.35019
v 1.308326 3.771002 2.3475
v 1.564998 4.065819 2.356017
v 1.638158 3.932761 2.34911
v 1.660678 4.267322 2.353639
v 1.730225 4.140626 2.35121
v 1.801916 4.01002 2.345724
v 1.966747 4.086257 2.341519
v 1.89348 4.219503 2.344668
v 2.050911 4.124809 2.33925
v 1.751851 4.477054 2.347025
v 1.68063 4.60657 2.343908
v 1.822306 4.348939 2.347089
v 1.976398 4.260802 2.340867
v 2.304122 4.232372 2.330992
v 2.223231 4.380006 2.327109
v 1.903824 4.393257 2.343126
v 2.143467 4.525581 2.32764
v 1.831884 4.524554 2.344426
v 1.759044 4.657488 2.343538
v 2.063636 4.671281 2.331469
v 1.982503 4.819355 2.335493
vt 0.09575178 0.4702694
vt 0.1274926 0.474174
vt 0.1274224 0.4729828
vt 0.09578168 0.4714471
vt 0.08534854 0.4709635
vt 0.08525098 0.4697823
vt 0.06458849 0.4693975
vt 0.06462288 0.4705688
vt 0.04386034 0.4699289
vt 0.04394339 0.4711083
vt 0.03340784 0.4717348
vt 0.03344996 0.470545
vt 0.001669027 0.4737333
vt 0.001598478 0.4749439
vt 0.03538143 0.399102
vt 0.002903346 0.3981376
vt 0.002949081 0.3991713
vt 0.03538073 0.3977059
vt 0.04687759 0.3976046
vt 0.04695942 0.3994164
vt 0.06895385 0.3997666
vt 0.06892518 0.3974512
vt 0.0911813 0.3995473
vt 0.09108915 0.3977588
vt 0.1028863 0.3979406
vt 0.1028707 0.3992909
vt 0.1356857 0.4002381
vt 0.1362012 0.398712
vt 0.1331356 0.4158432
vt 0.1367763 0.4004175
vt 0.1356857 0.4002381
vt 0.1343045 0.4160145
vt 0.1310305 0.4345477
vt 0.1321926 0.4347911
vt 0.1292844 0.4535192
vt 0.1304463 0.4537859
vt 0.1274224 0.4729828
vt 0.1285752 0.473258
vt 0.002201542 0.4541239
vt 0.0005 0.4737799
vt 0.001669027 0.4737333
vt 0.001018072 0.4542142
vt 0.002873763 0.4349641
vt 0.001684983 0.4351009
vt 0.003305262 0.4160127
vt 0.002113689 0.41614
vt 0.002949081 0.3991713
vt 0.001086629 0.3993261
vt 0.1329836 0.381395
vt 0.1028863 0.3979406
vt 0.1362012 0.398712
vt 0.1004049 0.3802751
vt 0.1310291 0.3634069
vt 0.09108915 0.3977588
vt 0.09885081 0.3628335
vt 0.1294569 0.3446836
vt 0.08933554 0.3800385
vt 0.06892518 0.3974512
vt 0.09753693 0.3452769
vt 0.1276697 0.3252521
vt 0.09598153 0.3272716
vt 0.08810914 0.3626852
vt 0.08700452 0.3453484
vt 0.08571333 0.3276305
vt 0.06799961 0.3796692
vt 0.0661987 0.345294
vt 0.06523622 0.3278541
vt 0.04481884 0.3272107
vt 0.0671069 0.3624186
vt 0.04545474 0.3449898
vt 0.03447936 0.3265761
vt 0.0467587 0.3798108
vt 0.04687759 0.3976046
vt 0.04617608 0.3623923
vt 0.0349046 0.3446698
vt 0.03586487 0.3798761
vt 0.03538073 0.3977059
vt 0.03550453 0.3623228
vt 0.003056791 0.3430839
vt 0.00274648 0.3235453
vt 0.003588707 0.3619831
vt 0.003809998 0.3802833
vt 0.002903346 0.3981376
vt 0.1331356 0.4158432
vt 0.1356857 0.4002381
vt 0.1028707 0.3992909
vt 0.1004827 0.4170522
vt 0.1310305 0.4345477
vt 0.0911813 0.3995473
vt 0.09879231 0.4346106
vt 0.1292844 0.4535192
vt 0.08932672 0.4172887
vt 0.06895385 0.3997666
vt 0.09732965 0.4522465
vt 0.0879154 0.4346753
vt 0.06784026 0.417549
vt 0.09575178 0.4702694
vt 0.1274224 0.4729828
vt 0.08662296 0.4520493
vt 0.08525098 0.4697823
vt 0.0667631 0.4348077
vt 0.06568724 0.4519534
vt 0.06458849 0.4693975
vt 0.04386034 0.4699289
vt 0.04475085 0.4521241
vt 0.03344996 0.470545
vt 0.04650871 0.4172252
vt 0.04695942 0.3994164
vt 0.04568132 0.4346758
vt 0.03411513 0.4524041
vt 0.001669027 0.4737333
vt 0.002201542 0.4541239
vt 0.03486928 0.434661
vt 0.002873763 0.4349641
vt 0.03543363 0.417001
vt 0.03538143 0.399102
vt 0.003305262 0.4160127
vt 0.002949081 0.3991713
vn 0.4357934 -0.900043 -0.002609897
vn 0.4451381 -0.8954611 -0.001229791
vn 0.4451381 -0.8954611 -0.001229791
vn 0.4357854 -0.9000468 -0.002611071
vn 0.426429 -0.9045203 -0.001101583
vn 0.4264325 -0.904519 -0.0008141572
vn 0.4230508 -0.90607 0.00807316
vn 0.4231511 -0.9060247 0.007897544
vn 0.4180978 -0.9082084 0.01875074
vn 0.4182252 -0.9081577 0.01836993
vn 0.4038792 -0.9144752 0.02483223
vn 0.404348 -0.9142696 0.02477321
vn 0.3915536 -0.9197772 0.02637638
vn 0.3915535 -0.9197772 0.02637637
vn -0.5656973 0.8242646 -0.02396727
vn -0.587043 0.8091772 -0.0247524
vn -0.587043 0.8091773 -0.02475241
vn -0.5660828 0.8239995 -0.02398146
vn -0.5155639 0.8566581 -0.01818572
vn -0.5120136 0.8587976 -0.01757568
vn -0.4215002 0.906796 -0.007653242
vn -0.4248023 0.9052515 -0.007915458
vn -0.3252712 0.9456195 0.001497458
vn -0.3291765 0.9442678 0.001023198
vn -0.2655288 0.9640946 0.004027845
vn -0.2654701 0.9641107 0.004024613
vn -0.2386774 0.9710956 0.00255385
vn -0.2386774 0.9710956 0.00255385
vn -0.8769897 -0.4805091 0.0001161679
vn -0.8769976 -0.4804948 0.0003005136
vn -0.8769976 -0.4804948 0.0003005136
vn -0.8769901 -0.4805084 0.0001258336
vn -0.8769879 -0.4805126 -9.444973E-05
vn -0.8769879 -0.4805126 -9.438407E-05
vn -0.8769886 -0.4805112 2.037367E-06
vn -0.8769884 -0.4805117 8.654563E-06
vn -0.8769835 -0.4805202 0.0001412017
vn -0.8769835 -0.4805202 0.0001412017
vn 0.8769807 0.4805256 5.887103E-05
vn 0.8769785 0.4805295 0.0002077954
vn 0.8769785 0.4805295 0.0002077954
vn 0.8769807 0.4805257 6.224099E-05
vn 0.8769851 0.4805174 -9.459818E-05
vn 0.876985 0.4805177 -9.419821E-05
vn 0.8769864 0.4805149 -3.099892E-05
vn 0.8769866 0.4805149 -3.53865E-05
vn 0.8769858 0.4805163 3.570366E-05
vn 0.8769858 0.4805163 3.570365E-05
vn 0.009724339 -0.05243348 -0.9985771
vn 0.01512994 -0.07014203 -0.9974223
vn 0.01235905 -0.06990079 -0.9974774
vn 0.009750059 -0.05146275 -0.9986273
vn 0.001152589 -0.009396875 -0.9999552
vn 0.01839966 -0.064635 -0.9977393
vn -0.004323271 -0.01200478 -0.9999186
vn -0.01013007 0.03153263 -0.9994513
vn 0.007607522 -0.04885776 -0.9987767
vn 0.01272165 -0.04713299 -0.9988075
vn -0.01808501 0.02599617 -0.9994985
vn -0.01582129 0.04987761 -0.99863
vn -0.02425217 0.04261753 -0.9987971
vn -0.01343853 -0.01580816 -0.9997848
vn -0.02924293 0.016936 -0.9994288
vn -0.03473286 0.03102918 -0.9989148
vn -0.0009637278 -0.03651201 -0.9993327
vn -0.03569869 0.009523366 -0.9993172
vn -0.03770957 0.01887087 -0.9991105
vn -0.03679073 0.004714998 -0.9993118
vn -0.02382506 -0.01343329 -0.9996259
vn -0.03920303 0.0004057278 -0.9992312
vn -0.03381079 -0.01436497 -0.999325
vn -0.01370289 -0.022619 -0.9996502
vn -8.564426E-05 -0.0272914 -0.9996275
vn -0.03435328 -0.01101709 -0.9993491
vn -0.04072901 -0.01277967 -0.9990885
vn -0.03323762 -0.01345412 -0.9993569
vn -0.0240681 -0.01438845 -0.9996068
vn -0.0453874 -0.01209857 -0.9988962
vn -0.04128111 -0.02189407 -0.9989077
vn -0.03233746 -0.02570422 -0.9991465
vn -0.05229256 -0.01439467 -0.998528
vn -0.04615614 -0.01061704 -0.9988778
vn -0.03912655 -0.01028725 -0.9991813
vn -0.009708071 0.05244144 0.9985769
vn -0.01234072 0.06990574 0.9974772
vn -0.01511764 0.07015314 0.9974217
vn -0.009738307 0.05146705 0.9986272
vn -0.001144386 0.009404736 0.9999552
vn -0.0184125 0.06466673 0.9977371
vn 0.00433588 0.01200389 0.9999186
vn 0.0101265 -0.03153155 0.9994515
vn -0.007623037 0.04886826 0.9987761
vn -0.01276789 0.04717442 0.998805
vn 0.01809709 -0.02599184 0.9994984
vn 0.01344 0.01581889 0.9997845
vn 0.0009332298 0.03652797 0.9993321
vn 0.024262 -0.04260565 0.9987973
vn 0.01581288 -0.04988506 0.9986298
vn 0.02926765 -0.01690697 0.9994286
vn 0.03476687 -0.03097532 0.9989153
vn 0.02382487 0.01343946 0.9996258
vn 0.03571605 -0.009487564 0.9993169
vn 0.03772538 -0.01880532 0.9991111
vn 0.03679394 -0.004648755 0.999312
vn 0.03921212 -0.000376346 0.9992309
vn 0.03381607 0.01438429 0.9993246
vn 0.01366149 0.0226273 0.9996506
vn 5.38538E-06 0.02733445 0.9996264
vn 0.03435081 0.01101393 0.9993492
vn 0.0407321 0.0127941 0.9990882
vn 0.03233727 0.0256988 0.9991466
vn 0.04127865 0.02188923 0.9989079
vn 0.04537622 0.01209629 0.9988967
vn 0.05228789 0.01438796 0.9985284
vn 0.03320361 0.01345257 0.9993581
vn 0.02402961 0.0143933 0.9996076
vn 0.04615273 0.01061215 0.9988781
vn 0.03912333 0.01028652 0.9991814
g KK-MaritimeFlag_3_0
f 3/3/3 2/2/2 1/1/1
f 2/2/2 4/4/4 1/1/1
f 1/1/1 4/4/4 5/5/5
f 6/6/6 1/1/1 5/5/5
f 7/7/7 6/6/6 5/5/5
f 8/8/8 7/7/7 5/5/5
f 7/7/7 8/8/8 9/9/9
f 8/8/8 10/10/10 9/9/9
f 9/9/9 10/10/10 11/11/11
f 12/12/12 9/9/9 11/11/11
f 13/13/13 12/12/12 11/11/11
f 14/14/14 13/13/13 11/11/11
f 17/17/17 16/16/16 15/15/15
f 16/16/16 18/18/18 15/15/15
f 15/15/15 18/18/18 19/19/19
f 20/20/20 15/15/15 19/19/19
f 21/21/21 20/20/20 19/19/19
f 22/22/22 21/21/21 19/19/19
f 21/21/21 22/22/22 23/23/23
f 22/22/22 24/24/24 23/23/23
f 23/23/23 24/24/24 25/25/25
f 26/26/26 23/23/23 25/25/25
f 27/27/27 26/26/26 25/25/25
f 28/28/28 27/27/27 25/25/25
f 31/31/31 30/30/30 29/29/29
f 30/30/30 32/32/32 29/29/29
f 29/29/29 32/32/32 33/33/33
f 32/32/32 34/34/34 33/33/33
f 33/33/33 34/34/34 35/35/35
f 34/34/34 36/36/36 35/35/35
f 37/37/37 35/35/35 36/36/36
f 38/38/38 37/37/37 36/36/36
f 41/41/41 40/40/40 39/39/39
f 40/40/40 42/42/42 39/39/39
f 39/39/39 42/42/42 43/43/43
f 42/42/42 44/44/44 43/43/43
f 43/43/43 44/44/44 45/45/45
f 44/44/44 46/46/46 45/45/45
f 47/47/47 45/45/45 46/46/46
f 48/48/48 47/47/47 46/46/46
f 51/51/51 50/50/50 49/49/49
f 50/50/50 52/52/52 49/49/49
f 53/53/53 49/49/49 52/52/52
f 50/50/50 54/54/54 52/52/52
f 55/55/55 53/53/53 52/52/52
f 56/56/56 53/53/53 55/55/55
f 54/54/54 57/57/57 52/52/52
f 55/55/55 52/52/52 57/57/57
f 54/54/54 58/58/58 57/57/57
f 59/59/59 56/56/56 55/55/55
f 60/60/60 56/56/56 59/59/59
f 61/61/61 60/60/60 59/59/59
f 62/62/62 55/55/55 57/57/57
f 59/59/59 55/55/55 62/62/62
f 61/61/61 59/59/59 63/63/63
f 63/63/63 59/59/59 62/62/62
f 64/64/64 61/61/61 63/63/63
f 58/58/58 65/65/65 57/57/57
f 62/62/62 57/57/57 65/65/65
f 64/64/64 63/63/63 66/66/66
f 67/67/67 64/64/64 66/66/66
f 68/68/68 67/67/67 66/66/66
f 63/63/63 62/62/62 69/69/69
f 66/66/66 63/63/63 69/69/69
f 69/69/69 62/62/62 65/65/65
f 70/70/70 68/68/68 66/66/66
f 66/66/66 69/69/69 70/70/70
f 71/71/71 68/68/68 70/70/70
f 65/65/65 58/58/58 72/72/72
f 58/58/58 73/73/73 72/72/72
f 69/69/69 65/65/65 74/74/74
f 69/69/69 74/74/74 70/70/70
f 65/65/65 72/72/72 74/74/74
f 75/75/75 71/71/71 70/70/70
f 75/75/75 70/70/70 74/74/74
f 72/72/72 73/73/73 76/76/76
f 73/73/73 77/77/77 76/76/76
f 78/78/78 74/74/74 72/72/72
f 78/78/78 75/75/75 74/74/74
f 76/76/76 78/78/78 72/72/72
f 71/71/71 75/75/75 79/79/79
f 75/75/75 78/78/78 79/79/79
f 80/80/80 71/71/71 79/79/79
f 78/78/78 81/81/81 79/79/79
f 78/78/78 76/76/76 81/81/81
f 76/76/76 82/82/82 81/81/81
f 76/76/76 77/77/77 82/82/82
f 77/77/77 83/83/83 82/82/82
f 86/86/86 85/85/85 84/84/84
f 87/87/87 86/86/86 84/84/84
f 87/87/87 84/84/84 88/88/88
f 89/89/89 86/86/86 87/87/87
f 90/90/90 87/87/87 88/88/88
f 90/90/90 88/88/88 91/91/91
f 92/92/92 89/89/89 87/87/87
f 92/92/92 87/87/87 90/90/90
f 93/93/93 89/89/89 92/92/92
f 94/94/94 90/90/90 91/91/91
f 95/95/95 92/92/92 90/90/90
f 95/95/95 90/90/90 94/94/94
f 96/96/96 93/93/93 92/92/92
f 96/96/96 92/92/92 95/95/95
f 97/97/97 94/94/94 91/91/91
f 98/98/98 97/97/97 91/91/91
f 94/94/94 97/97/97 99/99/99
f 99/99/99 95/95/95 94/94/94
f 97/97/97 100/100/100 99/99/99
f 101/101/101 95/95/95 99/99/99
f 101/101/101 96/96/96 95/95/95
f 99/99/99 100/100/100 102/102/102
f 102/102/102 101/101/101 99/99/99
f 100/100/100 103/103/103 102/102/102
f 103/103/103 104/104/104 102/102/102
f 104/104/104 105/105/105 102/102/102
f 102/102/102 105/105/105 101/101/101
f 104/104/104 106/106/106 105/105/105
f 93/93/93 96/96/96 107/107/107
f 108/108/108 93/93/93 107/107/107
f 101/101/101 109/109/109 96/96/96
f 105/105/105 109/109/109 101/101/101
f 109/109/109 107/107/107 96/96/96
f 106/106/106 110/110/110 105/105/105
f 109/109/109 105/105/105 110/110/110
f 106/106/106 111/111/111 110/110/110
f 111/111/111 112/112/112 110/110/110
f 113/113/113 109/109/109 110/110/110
f 110/110/110 112/112/112 113/113/113
f 107/107/107 109/109/109 113/113/113
f 112/112/112 114/114/114 113/113/113
f 108/108/108 107/107/107 115/115/115
f 115/115/115 107/107/107 113/113/113
f 113/113/113 114/114/114 115/115/115
f 116/116/116 108/108/108 115/115/115
f 114/114/114 117/117/117 115/115/115
f 116/116/116 115/115/115 117/117/117
f 118/118/118 116/116/116 117/117/117
