g KK-Nail_11
v -5.532275 3.338581 -0.2222595
v -5.517542 3.34271 -0.1473047
v -5.546257 3.334667 -0.218493
v -5.517543 3.34271 -0.2232123
v -5.558737 3.33117 -0.211004
v -5.502809 3.346836 -0.2222601
v -5.569811 3.32807 -0.2009796
v -5.488826 3.350755 -0.2184918
v -5.579572 3.325334 -0.1896088
v -5.476346 3.354249 -0.2110028
v -5.586865 3.323289 -0.176792
v -5.465271 3.357352 -0.2009796
v -5.590534 3.322262 -0.1624335
v -5.45551 3.360086 -0.1896088
v -5.591462 3.322001 -0.1473053
v -5.448218 3.36213 -0.1767914
v -5.590534 3.322262 -0.1321759
v -5.444549 3.363156 -0.1624335
v -5.586866 3.323289 -0.117818
v -5.443621 3.363417 -0.1473053
v -5.579573 3.325334 -0.1050018
v -5.44455 3.363157 -0.1321759
v -5.569812 3.32807 -0.09362976
v -5.448218 3.36213 -0.1178186
v -5.558739 3.33117 -0.08360595
v -5.455511 3.360086 -0.1050018
v -5.546258 3.334666 -0.07611694
v -5.465272 3.357352 -0.09362976
v -5.532275 3.338581 -0.07234924
v -5.476346 3.354249 -0.08360595
v -5.517543 3.34271 -0.0713971
v -5.488827 3.350755 -0.07611694
v -5.50281 3.346837 -0.07234924
v -5.50988 3.303322 -0.2381518
v -5.51544 3.331904 -0.2360101
v -5.532284 3.327187 -0.2342804
v -5.527095 3.298501 -0.2363214
v -5.492666 3.308145 -0.2363214
v -5.548489 3.322645 -0.2292401
v -5.498596 3.336624 -0.2342804
v -5.54368 3.293855 -0.2310968
v -5.476081 3.312791 -0.2310968
v -5.56342 3.318464 -0.221037
v -5.48239 3.341162 -0.2292401
v -5.559003 3.289563 -0.2227496
v -5.460756 3.317083 -0.2227496
v -5.576522 3.314795 -0.2100287
v -5.467459 3.345344 -0.221037
v -5.572436 3.285798 -0.2115436
v -5.447323 3.320847 -0.2115436
v -5.587241 3.311792 -0.1965753
v -5.454358 3.349016 -0.2100287
v -5.58335 3.282742 -0.197749
v -5.436412 3.323903 -0.197749
v -5.595229 3.309553 -0.1812433
v -5.443639 3.352017 -0.1965753
v -5.591479 3.280464 -0.1820135
v -5.42828 3.32618 -0.1820123
v -5.600138 3.308177 -0.1646027
v -5.43565 3.354256 -0.1812433
v -5.596565 3.279039 -0.1649823
v -5.423194 3.327605 -0.1649823
v -5.601822 3.307707 -0.1473053
v -5.43074 3.355631 -0.1646014
v -5.598348 3.278541 -0.1473041
v -5.421411 3.328105 -0.1473053
v -5.600138 3.308178 -0.1300079
v -5.429059 3.356103 -0.1473053
v -5.596565 3.27904 -0.1296271
v -5.423195 3.327604 -0.1296271
v -5.59523 3.309553 -0.1133661
v -5.430741 3.355631 -0.1300079
v -5.59148 3.280463 -0.1125964
v -5.42828 3.326181 -0.112597
v -5.587242 3.311791 -0.09803405
v -5.43565 3.354256 -0.1133661
v -5.583351 3.282742 -0.09686035
v -5.436412 3.323905 -0.09686035
v -5.576523 3.314795 -0.08458008
v -5.443639 3.352017 -0.09803405
v -5.572436 3.285799 -0.08306579
v -5.447325 3.320846 -0.08306579
v -5.56342 3.318464 -0.0735736
v -5.454359 3.349015 -0.0845813
v -5.559002 3.289561 -0.07186096
v -5.460756 3.317083 -0.07186096
v -5.548489 3.322645 -0.06537049
v -5.467459 3.345345 -0.0735736
v -5.54368 3.293853 -0.06351196
v -5.476081 3.312791 -0.06351196
v -5.532284 3.327187 -0.06032898
v -5.48239 3.341162 -0.06537049
v -5.527095 3.298501 -0.05828796
v -5.492666 3.308145 -0.05828796
v -5.51544 3.331904 -0.05859924
v -5.498596 3.336624 -0.06032898
v -5.50988 3.303322 -0.05645813
v -5.56342 3.318464 -0.221037
v -5.558737 3.33117 -0.211004
v -5.569811 3.32807 -0.2009796
v -5.548489 3.322645 -0.2292401
v -5.576522 3.314795 -0.2100287
v -5.546257 3.334667 -0.218493
v -5.579572 3.325334 -0.1896088
v -5.532284 3.327187 -0.2342804
v -5.587241 3.311792 -0.1965753
v -5.532275 3.338581 -0.2222595
v -5.586865 3.323289 -0.176792
v -5.51544 3.331904 -0.2360101
v -5.595229 3.309553 -0.1812433
v -5.517543 3.34271 -0.2232123
v -5.590534 3.322262 -0.1624335
v -5.498596 3.336624 -0.2342804
v -5.600138 3.308177 -0.1646027
v -5.502809 3.346836 -0.2222601
v -5.591462 3.322001 -0.1473053
v -5.48239 3.341162 -0.2292401
v -5.601822 3.307707 -0.1473053
v -5.488826 3.350755 -0.2184918
v -5.590534 3.322262 -0.1321759
v -5.467459 3.345344 -0.221037
v -5.600138 3.308178 -0.1300079
v -5.476346 3.354249 -0.2110028
v -5.586866 3.323289 -0.117818
v -5.454358 3.349016 -0.2100287
v -5.59523 3.309553 -0.1133661
v -5.465271 3.357352 -0.2009796
v -5.579573 3.325334 -0.1050018
v -5.443639 3.352017 -0.1965753
v -5.587242 3.311791 -0.09803405
v -5.45551 3.360086 -0.1896088
v -5.569812 3.32807 -0.09362976
v -5.43565 3.354256 -0.1812433
v -5.576523 3.314795 -0.08458008
v -5.448218 3.36213 -0.1767914
v -5.558739 3.33117 -0.08360595
v -5.43074 3.355631 -0.1646014
v -5.56342 3.318464 -0.0735736
v -5.444549 3.363156 -0.1624335
v -5.546258 3.334666 -0.07611694
v -5.429059 3.356103 -0.1473053
v -5.548489 3.322645 -0.06537049
v -5.443621 3.363417 -0.1473053
v -5.532275 3.338581 -0.07234924
v -5.430741 3.355631 -0.1300079
v -5.532284 3.327187 -0.06032898
v -5.44455 3.363157 -0.1321759
v -5.517543 3.34271 -0.0713971
v -5.43565 3.354256 -0.1133661
v -5.51544 3.331904 -0.05859924
v -5.448218 3.36213 -0.1178186
v -5.50281 3.346837 -0.07234924
v -5.443639 3.352017 -0.09803405
v -5.498596 3.336624 -0.06032898
v -5.455511 3.360086 -0.1050018
v -5.488827 3.350755 -0.07611694
v -5.454359 3.349015 -0.0845813
v -5.48239 3.341162 -0.06537049
v -5.465272 3.357352 -0.09362976
v -5.476346 3.354249 -0.08360595
v -5.467459 3.345345 -0.0735736
vt 0.8948134 0.5186192
vt 0.8878833 0.5171883
vt 0.8944501 0.5199563
vt 0.8949163 0.5172006
vt 0.8937575 0.5211535
vt 0.8948263 0.51578
vt 0.8928263 0.5222149
vt 0.8944716 0.5144395
vt 0.8917661 0.5231374
vt 0.8937892 0.5132379
vt 0.890584 0.5238203
vt 0.8928682 0.5121655
vt 0.8892711 0.5241765
vt 0.8918086 0.5112308
vt 0.8878833 0.524278
vt 0.8906173 0.5105423
vt 0.8864955 0.5241765
vt 0.8892899 0.51019
vt 0.8851829 0.5238203
vt 0.8878833 0.5101057
vt 0.884001 0.5231374
vt 0.8864768 0.51019
vt 0.8829404 0.5222149
vt 0.8851497 0.5105423
vt 0.8820093 0.5211535
vt 0.8839582 0.5112309
vt 0.8813166 0.5199563
vt 0.8828986 0.5121656
vt 0.8809534 0.5186192
vt 0.8819773 0.5132381
vt 0.8808503 0.5172008
vt 0.8812951 0.5144395
vt 0.8809407 0.51578
vt 0.8998366 0.517673
vt 0.89652 0.5173088
vt 0.8963369 0.519013
vt 0.8995139 0.5200096
vt 0.8996939 0.5153079
vt 0.8958263 0.520647
vt 0.8963668 0.5156024
vt 0.8987434 0.522231
vt 0.8990898 0.513003
vt 0.8950074 0.5221428
vt 0.8958871 0.5139589
vt 0.8975633 0.5242441
vt 0.8980454 0.5108535
vt 0.8939195 0.5234441
vt 0.8950958 0.5124425
vt 0.8960302 0.5259683
vt 0.8966016 0.508947
vt 0.8926061 0.5245013
vt 0.8940272 0.5111119
vt 0.8942104 0.5273409
vt 0.8948047 0.50735
vt 0.8911231 0.5252804
vt 0.8927212 0.5100174
vt 0.892183 0.5283241
vt 0.8927088 0.5061208
vt 0.88953 0.5257578
vt 0.8912235 0.5091999
vt 0.8900423 0.5288935
vt 0.8903797 0.5053158
vt 0.8878833 0.5259349
vt 0.8895864 0.5087016
vt 0.8878833 0.5290507
vt 0.8878833 0.5049852
vt 0.8862366 0.5257578
vt 0.8878833 0.5085564
vt 0.8857244 0.5288935
vt 0.8853871 0.5053158
vt 0.8846437 0.5252804
vt 0.88618 0.5087016
vt 0.8835839 0.5283242
vt 0.8830578 0.506121
vt 0.8831606 0.5245013
vt 0.8845431 0.5091999
vt 0.8815563 0.5273409
vt 0.8809623 0.5073501
vt 0.8818471 0.5234441
vt 0.8830457 0.5100176
vt 0.8797365 0.5259682
vt 0.8791652 0.5089471
vt 0.8807595 0.5221428
vt 0.8817396 0.5111119
vt 0.8782033 0.5242441
vt 0.8777215 0.5108534
vt 0.8799405 0.520647
vt 0.8806711 0.5124425
vt 0.8770232 0.522231
vt 0.8766771 0.513003
vt 0.8794298 0.519013
vt 0.8798797 0.5139589
vt 0.8762528 0.5200096
vt 0.8760728 0.5153079
vt 0.8792468 0.517309
vt 0.8794001 0.5156025
vt 0.8759301 0.517673
vt 0.8950074 0.5221428
vt 0.8937575 0.5211535
vt 0.8928263 0.5222149
vt 0.8958263 0.520647
vt 0.8939195 0.5234441
vt 0.8944501 0.5199563
vt 0.8917661 0.5231374
vt 0.8963369 0.519013
vt 0.8926061 0.5245013
vt 0.8948134 0.5186192
vt 0.890584 0.5238203
vt 0.89652 0.5173088
vt 0.8911231 0.5252804
vt 0.8949163 0.5172006
vt 0.8892711 0.5241765
vt 0.8963668 0.5156024
vt 0.88953 0.5257578
vt 0.8948263 0.51578
vt 0.8878833 0.524278
vt 0.8958871 0.5139589
vt 0.8878833 0.5259349
vt 0.8944716 0.5144395
vt 0.8864955 0.5241765
vt 0.8950958 0.5124425
vt 0.8862366 0.5257578
vt 0.8937892 0.5132379
vt 0.8851829 0.5238203
vt 0.8940272 0.5111119
vt 0.8846437 0.5252804
vt 0.8928682 0.5121655
vt 0.884001 0.5231374
vt 0.8927212 0.5100174
vt 0.8831606 0.5245013
vt 0.8918086 0.5112308
vt 0.8829404 0.5222149
vt 0.8912235 0.5091999
vt 0.8818471 0.5234441
vt 0.8906173 0.5105423
vt 0.8820093 0.5211535
vt 0.8895864 0.5087016
vt 0.8807595 0.5221428
vt 0.8892899 0.51019
vt 0.8813166 0.5199563
vt 0.8878833 0.5085564
vt 0.8799405 0.520647
vt 0.8878833 0.5101057
vt 0.8809534 0.5186192
vt 0.88618 0.5087016
vt 0.8794298 0.519013
vt 0.8864768 0.51019
vt 0.8808503 0.5172008
vt 0.8845431 0.5091999
vt 0.8792468 0.517309
vt 0.8851497 0.5105423
vt 0.8809407 0.51578
vt 0.8830457 0.5100176
vt 0.8794001 0.5156025
vt 0.8839582 0.5112309
vt 0.8812951 0.5144395
vt 0.8817396 0.5111119
vt 0.8798797 0.5139589
vt 0.8828986 0.5121656
vt 0.8819773 0.5132381
vt 0.8806711 0.5124425
vn -0.2695492 0.9629866 -7.033659E-05
vn -0.2695493 0.9629866 -7.033659E-05
vn -0.2695492 0.9629866 -7.033659E-05
vn -0.2696497 0.9629585 8.749676E-06
vn -0.2698159 0.9629118 4.563558E-05
vn -0.2698359 0.9629064 -3.071504E-05
vn -0.2696334 0.962963 -8.159123E-05
vn -0.2696408 0.962961 5.411485E-05
vn -0.2698101 0.9629135 0.0001039941
vn -0.2697768 0.9629229 -4.073945E-05
vn -0.2697809 0.9629217 5.775064E-05
vn -0.2697387 0.9629335 -6.466799E-07
vn -0.269759 0.9629279 2.095954E-06
vn -0.2697882 0.9629197 -7.89801E-05
vn -0.2697579 0.9629282 -3.803128E-06
vn -0.2696956 0.9629456 0.0001556527
vn -0.2697579 0.9629282 -3.504398E-05
vn -0.26974 0.9629332 -7.507659E-05
vn -0.2697486 0.9629308 1.304458E-05
vn -0.26974 0.9629332 -1.350353E-05
vn -0.2697733 0.9629239 -4.958595E-05
vn -0.2697384 0.9629337 -2.170524E-05
vn -0.2698086 0.962914 -0.0001054143
vn -0.2697573 0.9629284 2.634781E-05
vn -0.2696729 0.962952 3.710819E-05
vn -0.2697402 0.9629331 -7.903458E-07
vn -0.2697285 0.9629364 -1.705917E-06
vn -0.269752 0.9629298 1.162939E-05
vn -0.2696111 0.9629692 4.938701E-05
vn -0.269677 0.9629508 -4.069482E-05
vn -0.2698489 0.9629027 -1.011108E-06
vn -0.269766 0.9629259 -1.960705E-06
vn -0.2697706 0.9629246 -1.009282E-06
vn -0.02458502 0.06886647 -0.997323
vn -0.0144669 0.070839 -0.9973828
vn -0.2061818 0.03233092 -0.9779795
vn -0.2153681 0.0304248 -0.9760588
vn 0.1680319 0.1052789 -0.9801437
vn -0.3861577 -0.003930738 -0.9224244
vn 0.1775202 0.1070099 -0.9782819
vn -0.394457 -0.005544327 -0.9188977
vn 0.3499125 0.139545 -0.9263307
vn -0.5531716 -0.03526381 -0.8323206
vn 0.3581835 0.1411613 -0.9229181
vn -0.5600999 -0.03650723 -0.8276202
vn 0.518189 0.1735968 -0.8374631
vn -0.7036935 -0.06323619 -0.707684
vn 0.5248456 0.174999 -0.8330141
vn -0.7088457 -0.06423602 -0.7024325
vn 0.670172 0.2046145 -0.7134441
vn -0.8272504 -0.08836262 -0.5548413
vn 0.6753071 0.2056196 -0.7082944
vn -0.8302249 -0.08900501 -0.5502769
vn 0.7963166 0.228124 -0.5602136
vn -0.9170877 -0.1069902 -0.3840614
vn 0.7994374 0.2286665 -0.555528
vn -0.918548 -0.1072739 -0.3804761
vn 0.888481 0.2449448 -0.3880766
vn -0.9731743 -0.1167248 -0.1982599
vn 0.8899327 0.245229 -0.384555
vn -0.9735929 -0.1167804 -0.1961611
vn 0.9453362 0.2572918 -0.2003508
vn -0.9928538 -0.1193365 -6.114044E-06
vn 0.9456955 0.2573853 -0.1985271
vn -0.9928538 -0.1193365 -3.159729E-06
vn 0.9649593 0.2623996 3.478699E-05
vn -0.9731785 -0.1167351 0.1982335
vn 0.9649593 0.2623996 3.380283E-05
vn -0.973596 -0.1167904 0.19614
vn 0.9453379 0.2572916 0.2003429
vn -0.9170996 -0.1070069 0.3840286
vn 0.9456964 0.2573849 0.1985226
vn -0.9185589 -0.1072904 0.3804448
vn 0.8884917 0.2449512 0.3880482
vn -0.8272484 -0.08838214 0.5548412
vn 0.8899423 0.2452351 0.3845289
vn -0.8302248 -0.08902463 0.550274
vn 0.7962955 0.2281266 0.5602426
vn -0.7036414 -0.06325606 0.707734
vn 0.7994179 0.2286695 0.5555549
vn -0.7087942 -0.06425565 0.7024828
vn 0.6701531 0.2046135 0.7134621
vn -0.5531551 -0.0352651 0.8323316
vn 0.6752918 0.2056194 0.7083091
vn -0.5600691 -0.03650844 0.8276411
vn 0.5182062 0.1736163 0.8374484
vn -0.3861981 -0.003909532 0.9224076
vn 0.5248612 0.1750168 0.8330005
vn -0.3945013 -0.005524298 0.9188788
vn 0.3499323 0.1395822 0.9263176
vn -0.2061869 0.03233998 0.9779781
vn 0.3582055 0.1411988 0.922904
vn -0.2153779 0.03043513 0.9760563
vn 0.1680246 0.10529 0.9801437
vn -0.01446967 0.07082883 0.9973835
vn 0.1775139 0.1070234 0.9782816
vn -0.02458379 0.06885689 0.9973236
vn -0.5605025 0.6306846 -0.5367253
vn -0.5574266 0.6308759 -0.5396955
vn -0.6392395 0.6193928 -0.4557689
vn -0.4465545 0.6497518 -0.6151518
vn -0.6412721 0.6189148 -0.4535574
vn -0.4417177 0.650897 -0.6174289
vn -0.7135251 0.5947721 -0.3703082
vn -0.3170596 0.6880361 -0.6527476
vn -0.7153508 0.5939723 -0.3680628
vn -0.3128254 0.6896383 -0.6530998
vn -0.7809821 0.5715386 -0.2518146
vn -0.2044201 0.7232757 -0.6596096
vn -0.7818851 0.5713296 -0.2494758
vn -0.2008663 0.7241361 -0.6597573
vn -0.8122972 0.5715523 -0.1161948
vn -0.08664649 0.7441867 -0.6623281
vn -0.8123649 0.5716629 -0.1151727
vn -0.08230793 0.74468 -0.662327
vn -0.8159944 0.5780599 -1.936061E-05
vn 0.05262907 0.7698131 -0.6360959
vn -0.8159944 0.5780599 -1.996837E-05
vn 0.05687552 0.7708498 -0.6344728
vn -0.8122941 0.5715644 0.1161562
vn 0.1728403 0.8073908 -0.5641333
vn -0.8123623 0.5716754 0.1151293
vn 0.1750434 0.8083566 -0.562067
vn -0.7809677 0.5715591 0.2518124
vn 0.2587185 0.8372529 -0.481739
vn -0.7818687 0.5713506 0.2494793
vn 0.2602307 0.8376301 -0.4802665
vn -0.713518 0.5947903 0.3702926
vn 0.3463923 0.85085 -0.3950527
vn -0.7153405 0.5939913 0.3680518
vn 0.3479052 0.8509431 -0.3935196
vn -0.6392415 0.6193986 0.4557583
vn 0.4275166 0.8625336 -0.2706759
vn -0.6412762 0.6189213 0.453543
vn 0.4281639 0.8626961 -0.2691304
vn -0.5574025 0.630851 0.5397494
vn 0.4596712 0.8791813 -0.12547
vn -0.5604761 0.6306608 0.5367805
vn 0.4596769 0.8792592 -0.1249018
vn -0.4417389 0.6508516 0.6174616
vn 0.4600541 0.8878908 3.4759E-06
vn -0.446565 0.6497083 0.6151902
vn 0.4600541 0.8878908 5.470744E-06
vn -0.3128344 0.6896194 0.6531155
vn 0.4597124 0.8791597 0.1254706
vn -0.3170722 0.6880161 0.6527627
vn 0.4597181 0.8792378 0.1249006
vn -0.2008646 0.7241181 0.6597776
vn 0.4275059 0.8625376 0.2706796
vn -0.2044184 0.7232577 0.6596296
vn 0.4281563 0.8627003 0.2691289
vn -0.08229903 0.744652 0.6623595
vn 0.346366 0.8508558 0.3950633
vn -0.08664125 0.7441586 0.6623603
vn 0.3478809 0.8509496 0.3935274
vn 0.05690609 0.7708093 0.6345193
vn 0.2587553 0.8372406 0.4817405
vn 0.05266779 0.7697744 0.6361395
vn 0.2602653 0.8376179 0.480269
vn 0.1750821 0.8083282 0.5620958
vn 0.1728829 0.8073642 0.5641584
g KK-Nail_11_0
f 3/3/3 2/2/2 1/1/1
f 1/1/1 2/2/2 4/4/4
f 5/5/5 2/2/2 3/3/3
f 4/4/4 2/2/2 6/6/6
f 7/7/7 2/2/2 5/5/5
f 6/6/6 2/2/2 8/8/8
f 9/9/9 2/2/2 7/7/7
f 8/8/8 2/2/2 10/10/10
f 11/11/11 2/2/2 9/9/9
f 10/10/10 2/2/2 12/12/12
f 13/13/13 2/2/2 11/11/11
f 12/12/12 2/2/2 14/14/14
f 15/15/15 2/2/2 13/13/13
f 14/14/14 2/2/2 16/16/16
f 17/17/17 2/2/2 15/15/15
f 16/16/16 2/2/2 18/18/18
f 19/19/19 2/2/2 17/17/17
f 18/18/18 2/2/2 20/20/20
f 21/21/21 2/2/2 19/19/19
f 20/20/20 2/2/2 22/22/22
f 23/23/23 2/2/2 21/21/21
f 22/22/22 2/2/2 24/24/24
f 25/25/25 2/2/2 23/23/23
f 24/24/24 2/2/2 26/26/26
f 27/27/27 2/2/2 25/25/25
f 26/26/26 2/2/2 28/28/28
f 29/29/29 2/2/2 27/27/27
f 28/28/28 2/2/2 30/30/30
f 31/31/31 2/2/2 29/29/29
f 30/30/30 2/2/2 32/32/32
f 33/33/33 2/2/2 31/31/31
f 32/32/32 2/2/2 33/33/33
f 36/36/36 35/35/35 34/34/34
f 37/37/37 36/36/36 34/34/34
f 34/34/34 35/35/35 38/38/38
f 39/39/39 36/36/36 37/37/37
f 35/35/35 40/40/40 38/38/38
f 41/41/41 39/39/39 37/37/37
f 38/38/38 40/40/40 42/42/42
f 43/43/43 39/39/39 41/41/41
f 40/40/40 44/44/44 42/42/42
f 45/45/45 43/43/43 41/41/41
f 42/42/42 44/44/44 46/46/46
f 47/47/47 43/43/43 45/45/45
f 44/44/44 48/48/48 46/46/46
f 49/49/49 47/47/47 45/45/45
f 46/46/46 48/48/48 50/50/50
f 51/51/51 47/47/47 49/49/49
f 48/48/48 52/52/52 50/50/50
f 53/53/53 51/51/51 49/49/49
f 50/50/50 52/52/52 54/54/54
f 55/55/55 51/51/51 53/53/53
f 52/52/52 56/56/56 54/54/54
f 57/57/57 55/55/55 53/53/53
f 54/54/54 56/56/56 58/58/58
f 59/59/59 55/55/55 57/57/57
f 56/56/56 60/60/60 58/58/58
f 61/61/61 59/59/59 57/57/57
f 58/58/58 60/60/60 62/62/62
f 63/63/63 59/59/59 61/61/61
f 60/60/60 64/64/64 62/62/62
f 65/65/65 63/63/63 61/61/61
f 62/62/62 64/64/64 66/66/66
f 67/67/67 63/63/63 65/65/65
f 64/64/64 68/68/68 66/66/66
f 69/69/69 67/67/67 65/65/65
f 66/66/66 68/68/68 70/70/70
f 71/71/71 67/67/67 69/69/69
f 68/68/68 72/72/72 70/70/70
f 73/73/73 71/71/71 69/69/69
f 70/70/70 72/72/72 74/74/74
f 75/75/75 71/71/71 73/73/73
f 72/72/72 76/76/76 74/74/74
f 77/77/77 75/75/75 73/73/73
f 74/74/74 76/76/76 78/78/78
f 79/79/79 75/75/75 77/77/77
f 76/76/76 80/80/80 78/78/78
f 81/81/81 79/79/79 77/77/77
f 78/78/78 80/80/80 82/82/82
f 83/83/83 79/79/79 81/81/81
f 80/80/80 84/84/84 82/82/82
f 85/85/85 83/83/83 81/81/81
f 82/82/82 84/84/84 86/86/86
f 87/87/87 83/83/83 85/85/85
f 84/84/84 88/88/88 86/86/86
f 89/89/89 87/87/87 85/85/85
f 86/86/86 88/88/88 90/90/90
f 91/91/91 87/87/87 89/89/89
f 88/88/88 92/92/92 90/90/90
f 93/93/93 91/91/91 89/89/89
f 90/90/90 92/92/92 94/94/94
f 95/95/95 91/91/91 93/93/93
f 92/92/92 96/96/96 94/94/94
f 97/97/97 95/95/95 93/93/93
f 94/94/94 96/96/96 97/97/97
f 96/96/96 95/95/95 97/97/97
f 100/100/100 99/99/99 98/98/98
f 98/98/98 99/99/99 101/101/101
f 102/102/102 100/100/100 98/98/98
f 99/99/99 103/103/103 101/101/101
f 104/104/104 100/100/100 102/102/102
f 101/101/101 103/103/103 105/105/105
f 106/106/106 104/104/104 102/102/102
f 103/103/103 107/107/107 105/105/105
f 108/108/108 104/104/104 106/106/106
f 105/105/105 107/107/107 109/109/109
f 110/110/110 108/108/108 106/106/106
f 107/107/107 111/111/111 109/109/109
f 112/112/112 108/108/108 110/110/110
f 109/109/109 111/111/111 113/113/113
f 114/114/114 112/112/112 110/110/110
f 111/111/111 115/115/115 113/113/113
f 116/116/116 112/112/112 114/114/114
f 113/113/113 115/115/115 117/117/117
f 118/118/118 116/116/116 114/114/114
f 115/115/115 119/119/119 117/117/117
f 120/120/120 116/116/116 118/118/118
f 117/117/117 119/119/119 121/121/121
f 122/122/122 120/120/120 118/118/118
f 119/119/119 123/123/123 121/121/121
f 124/124/124 120/120/120 122/122/122
f 121/121/121 123/123/123 125/125/125
f 126/126/126 124/124/124 122/122/122
f 123/123/123 127/127/127 125/125/125
f 128/128/128 124/124/124 126/126/126
f 125/125/125 127/127/127 129/129/129
f 130/130/130 128/128/128 126/126/126
f 127/127/127 131/131/131 129/129/129
f 132/132/132 128/128/128 130/130/130
f 129/129/129 131/131/131 133/133/133
f 134/134/134 132/132/132 130/130/130
f 131/131/131 135/135/135 133/133/133
f 136/136/136 132/132/132 134/134/134
f 133/133/133 135/135/135 137/137/137
f 138/138/138 136/136/136 134/134/134
f 135/135/135 139/139/139 137/137/137
f 140/140/140 136/136/136 138/138/138
f 137/137/137 139/139/139 141/141/141
f 142/142/142 140/140/140 138/138/138
f 139/139/139 143/143/143 141/141/141
f 144/144/144 140/140/140 142/142/142
f 141/141/141 143/143/143 145/145/145
f 146/146/146 144/144/144 142/142/142
f 143/143/143 147/147/147 145/145/145
f 148/148/148 144/144/144 146/146/146
f 145/145/145 147/147/147 149/149/149
f 150/150/150 148/148/148 146/146/146
f 147/147/147 151/151/151 149/149/149
f 152/152/152 148/148/148 150/150/150
f 149/149/149 151/151/151 153/153/153
f 154/154/154 152/152/152 150/150/150
f 151/151/151 155/155/155 153/153/153
f 156/156/156 152/152/152 154/154/154
f 153/153/153 155/155/155 157/157/157
f 158/158/158 156/156/156 154/154/154
f 155/155/155 159/159/159 157/157/157
f 160/160/160 156/156/156 158/158/158
f 157/157/157 159/159/159 161/161/161
f 161/161/161 160/160/160 158/158/158
f 159/159/159 160/160/160 161/161/161
