g KK-Nail_15
v -6.493034 2.62118 2.725925
v -6.481989 2.633586 2.800879
v -6.503519 2.609405 2.729692
v -6.48199 2.633586 2.724972
v -6.512876 2.598897 2.737181
v -6.470943 2.645993 2.725925
v -6.521178 2.589571 2.747204
v -6.460462 2.657765 2.729692
v -6.528496 2.581351 2.758576
v -6.451104 2.668276 2.737181
v -6.533965 2.57521 2.771393
v -6.442802 2.677602 2.747204
v -6.536714 2.572122 2.785751
v -6.435483 2.68582 2.758576
v -6.53741 2.57134 2.80088
v -6.430017 2.691961 2.771393
v -6.536715 2.572121 2.816008
v -6.427266 2.695051 2.785751
v -6.533965 2.57521 2.830366
v -6.426569 2.695834 2.800879
v -6.528496 2.581351 2.843182
v -6.427266 2.695051 2.816008
v -6.521178 2.589571 2.854556
v -6.430017 2.691962 2.830367
v -6.512876 2.598896 2.864578
v -6.435483 2.68582 2.843183
v -6.503519 2.609405 2.872066
v -6.442801 2.6776 2.854554
v -6.493035 2.621179 2.875835
v -6.451104 2.668276 2.864577
v -6.481989 2.633587 2.876788
v -6.460462 2.657765 2.872066
v -6.470943 2.645993 2.875835
v -6.458957 2.604056 2.710032
v -6.475671 2.625485 2.712173
v -6.488301 2.611301 2.713904
v -6.471865 2.589561 2.711864
v -6.446052 2.618554 2.711862
v -6.50045 2.597655 2.718945
v -6.463043 2.639669 2.713904
v -6.4843 2.575594 2.717087
v -6.433619 2.632518 2.717087
v -6.511644 2.585082 2.727149
v -6.450893 2.653315 2.718945
v -6.495788 2.562692 2.725435
v -6.422128 2.645422 2.725435
v -6.521467 2.57405 2.738155
v -6.4397 2.665887 2.727149
v -6.505859 2.551378 2.736641
v -6.412057 2.656735 2.736641
v -6.529502 2.565023 2.751609
v -6.429877 2.676921 2.738156
v -6.51404 2.54219 2.750435
v -6.403876 2.665923 2.750436
v -6.535492 2.558295 2.766942
v -6.42184 2.685947 2.751609
v -6.520136 2.535344 2.766172
v -6.397781 2.672768 2.766172
v -6.539172 2.554163 2.783583
v -6.415852 2.692674 2.766941
v -6.52395 2.53106 2.783202
v -6.393967 2.677053 2.783201
v -6.540436 2.552745 2.800879
v -6.412171 2.696807 2.783583
v -6.525286 2.529559 2.800879
v -6.392631 2.678552 2.800879
v -6.539172 2.554163 2.818176
v -6.410908 2.698225 2.800879
v -6.52395 2.53106 2.818558
v -6.393967 2.677052 2.818555
v -6.535492 2.558295 2.834817
v -6.412172 2.696807 2.818176
v -6.520136 2.535343 2.835588
v -6.397781 2.672769 2.835587
v -6.529502 2.565023 2.850149
v -6.415851 2.692674 2.834819
v -6.514039 2.54219 2.851323
v -6.403876 2.665923 2.851323
v -6.521467 2.57405 2.863603
v -6.421839 2.685947 2.850149
v -6.505859 2.551378 2.865118
v -6.412057 2.656734 2.865118
v -6.511644 2.585082 2.874611
v -6.429877 2.67692 2.863603
v -6.495788 2.562692 2.876324
v -6.422128 2.645423 2.876323
v -6.50045 2.597654 2.882814
v -6.4397 2.665887 2.87461
v -6.484299 2.575595 2.884673
v -6.433619 2.632518 2.884673
v -6.488301 2.611301 2.887855
v -6.450893 2.653315 2.882814
v -6.471865 2.589561 2.889896
v -6.446052 2.618553 2.889896
v -6.475671 2.625485 2.889585
v -6.463044 2.639668 2.887855
v -6.458959 2.604056 2.891726
v -6.511644 2.585082 2.727149
v -6.512876 2.598897 2.737181
v -6.521178 2.589571 2.747204
v -6.50045 2.597655 2.718945
v -6.521467 2.57405 2.738155
v -6.503519 2.609405 2.729692
v -6.528496 2.581351 2.758576
v -6.488301 2.611301 2.713904
v -6.529502 2.565023 2.751609
v -6.493034 2.62118 2.725925
v -6.533965 2.57521 2.771393
v -6.475671 2.625485 2.712173
v -6.535492 2.558295 2.766942
v -6.48199 2.633586 2.724972
v -6.536714 2.572122 2.785751
v -6.463043 2.639669 2.713904
v -6.539172 2.554163 2.783583
v -6.470943 2.645993 2.725925
v -6.53741 2.57134 2.80088
v -6.450893 2.653315 2.718945
v -6.540436 2.552745 2.800879
v -6.460462 2.657765 2.729692
v -6.536715 2.572121 2.816008
v -6.4397 2.665887 2.727149
v -6.539172 2.554163 2.818176
v -6.451104 2.668276 2.737181
v -6.533965 2.57521 2.830366
v -6.429877 2.676921 2.738156
v -6.535492 2.558295 2.834817
v -6.442802 2.677602 2.747204
v -6.528496 2.581351 2.843182
v -6.42184 2.685947 2.751609
v -6.529502 2.565023 2.850149
v -6.435483 2.68582 2.758576
v -6.521178 2.589571 2.854556
v -6.415852 2.692674 2.766941
v -6.521467 2.57405 2.863603
v -6.430017 2.691961 2.771393
v -6.512876 2.598896 2.864578
v -6.412171 2.696807 2.783583
v -6.511644 2.585082 2.874611
v -6.427266 2.695051 2.785751
v -6.503519 2.609405 2.872066
v -6.410908 2.698225 2.800879
v -6.50045 2.597654 2.882814
v -6.426569 2.695834 2.800879
v -6.493035 2.621179 2.875835
v -6.412172 2.696807 2.818176
v -6.488301 2.611301 2.887855
v -6.427266 2.695051 2.816008
v -6.481989 2.633587 2.876788
v -6.415851 2.692674 2.834819
v -6.475671 2.625485 2.889585
v -6.430017 2.691962 2.830367
v -6.470943 2.645993 2.875835
v -6.421839 2.685947 2.850149
v -6.463044 2.639668 2.887855
v -6.435483 2.68582 2.843183
v -6.460462 2.657765 2.872066
v -6.429877 2.67692 2.863603
v -6.450893 2.653315 2.882814
v -6.442801 2.6776 2.854554
v -6.451104 2.668276 2.864577
v -6.4397 2.665887 2.87461
vt 0.7365363 0.3959523
vt 0.7349963 0.4030842
vt 0.7380444 0.3963128
vt 0.7349436 0.3958708
vt 0.739393 0.3970245
vt 0.7333592 0.3959962
vt 0.7405857 0.3979859
vt 0.7318795 0.3963968
vt 0.7416204 0.399081
vt 0.7305758 0.397131
vt 0.7423835 0.4003022
vt 0.7294363 0.3980973
vt 0.7427744 0.4016564
vt 0.7284463 0.3991752
vt 0.7428818 0.4030844
vt 0.7277228 0.4003694
vt 0.7427742 0.4045125
vt 0.7273514 0.4016911
vt 0.7423832 0.4058666
vt 0.7272702 0.4030844
vt 0.7416202 0.4070873
vt 0.7273514 0.4044773
vt 0.7405853 0.4081821
vt 0.7277231 0.405799
vt 0.7393926 0.409144
vt 0.7284465 0.4069932
vt 0.7380441 0.4098555
vt 0.7294366 0.4080712
vt 0.7365361 0.4102161
vt 0.730576 0.4090374
vt 0.7349436 0.4102972
vt 0.7318797 0.4097713
vt 0.7333595 0.4101717
vt 0.7357129 0.3912287
vt 0.7351142 0.3942701
vt 0.7370154 0.3944293
vt 0.7381783 0.3915519
vt 0.7332202 0.3913801
vt 0.7388424 0.3949414
vt 0.7332239 0.3944707
vt 0.7405187 0.3923304
vt 0.7308007 0.3920005
vt 0.7405131 0.3957828
vt 0.7314265 0.3950143
vt 0.7426328 0.3935207
vt 0.7285574 0.3930666
vt 0.7419603 0.396906
vt 0.7297967 0.3958748
vt 0.7444344 0.3950595
vt 0.7265878 0.3945299
vt 0.7431267 0.3982598
vt 0.7283946 0.3970064
vt 0.7458562 0.3968718
vt 0.7249604 0.3963267
vt 0.7439793 0.3997817
vt 0.7272604 0.3983456
vt 0.7468677 0.3988757
vt 0.7237268 0.3983944
vt 0.744498 0.4014087
vt 0.7264359 0.3998418
vt 0.7474532 0.4009755
vt 0.7229304 0.4006653
vt 0.7446883 0.4030844
vt 0.7259411 0.4014387
vt 0.7476214 0.4030848
vt 0.7226062 0.4030848
vt 0.7444978 0.4047604
vt 0.725808 0.4030844
vt 0.7474528 0.4051936
vt 0.7229307 0.405503
vt 0.7439789 0.406387
vt 0.7259414 0.4047298
vt 0.7468669 0.4072938
vt 0.7237276 0.4077743
vt 0.7431262 0.4079085
vt 0.7264363 0.406327
vt 0.7458554 0.409297
vt 0.7249612 0.409842
vt 0.7419596 0.4092625
vt 0.7272607 0.4078232
vt 0.7444333 0.4111095
vt 0.7265888 0.4116383
vt 0.7405125 0.4103856
vt 0.7283952 0.4091619
vt 0.7426318 0.4126473
vt 0.7285582 0.4131013
vt 0.738842 0.411227
vt 0.7297971 0.4102933
vt 0.7405177 0.4138372
vt 0.7308012 0.414167
vt 0.7370151 0.4117387
vt 0.7314268 0.4111538
vt 0.7381775 0.4146155
vt 0.7332205 0.4147874
vt 0.7351139 0.4118975
vt 0.7332241 0.4116974
vt 0.7357128 0.4149387
vt 0.7405131 0.3957828
vt 0.739393 0.3970245
vt 0.7405857 0.3979859
vt 0.7388424 0.3949414
vt 0.7419603 0.396906
vt 0.7380444 0.3963128
vt 0.7416204 0.399081
vt 0.7370154 0.3944293
vt 0.7431267 0.3982598
vt 0.7365363 0.3959523
vt 0.7423835 0.4003022
vt 0.7351142 0.3942701
vt 0.7439793 0.3997817
vt 0.7349436 0.3958708
vt 0.7427744 0.4016564
vt 0.7332239 0.3944707
vt 0.744498 0.4014087
vt 0.7333592 0.3959962
vt 0.7428818 0.4030844
vt 0.7314265 0.3950143
vt 0.7446883 0.4030844
vt 0.7318795 0.3963968
vt 0.7427742 0.4045125
vt 0.7297967 0.3958748
vt 0.7444978 0.4047604
vt 0.7305758 0.397131
vt 0.7423832 0.4058666
vt 0.7283946 0.3970064
vt 0.7439789 0.406387
vt 0.7294363 0.3980973
vt 0.7416202 0.4070873
vt 0.7272604 0.3983456
vt 0.7431262 0.4079085
vt 0.7284463 0.3991752
vt 0.7405853 0.4081821
vt 0.7264359 0.3998418
vt 0.7419596 0.4092625
vt 0.7277228 0.4003694
vt 0.7393926 0.409144
vt 0.7259411 0.4014387
vt 0.7405125 0.4103856
vt 0.7273514 0.4016911
vt 0.7380441 0.4098555
vt 0.725808 0.4030844
vt 0.738842 0.411227
vt 0.7272702 0.4030844
vt 0.7365361 0.4102161
vt 0.7259414 0.4047298
vt 0.7370151 0.4117387
vt 0.7273514 0.4044773
vt 0.7349436 0.4102972
vt 0.7264363 0.406327
vt 0.7351139 0.4118975
vt 0.7277231 0.405799
vt 0.7333595 0.4101717
vt 0.7272607 0.4078232
vt 0.7332241 0.4116974
vt 0.7284465 0.4069932
vt 0.7318797 0.4097713
vt 0.7283952 0.4091619
vt 0.7314268 0.4111538
vt 0.7294366 0.4080712
vt 0.730576 0.4090374
vt 0.7297971 0.4102933
vn -0.7468621 0.664979 -1.236843E-05
vn -0.7468621 0.664979 -1.236843E-05
vn -0.7468621 0.664979 -1.236843E-05
vn -0.7468517 0.6649907 2.996851E-06
vn -0.7468378 0.6650063 -2.901421E-05
vn -0.7468682 0.664972 -2.472271E-06
vn -0.7468898 0.6649479 2.806008E-05
vn -0.7468792 0.6649598 -9.983247E-06
vn -0.7468875 0.6649504 2.427894E-05
vn -0.7468936 0.6649436 -2.588664E-05
vn -0.7468614 0.6649798 -4.060333E-05
vn -0.7468415 0.6650021 6.024402E-05
vn -0.7468668 0.6649737 -1.918275E-05
vn -0.746894 0.6649432 -7.028881E-05
vn -0.7468708 0.6649693 1.25551E-05
vn -0.7468743 0.6649653 8.096065E-06
vn -0.7468707 0.6649693 1.096812E-05
vn -0.7468767 0.6649625 -1.192189E-05
vn -0.7468758 0.6649637 -3.00175E-05
vn -0.7468768 0.6649624 1.192237E-05
vn -0.7468523 0.66499 6.340898E-05
vn -0.746864 0.6649768 -9.192069E-05
vn -0.7468876 0.6649504 -2.427742E-05
vn -0.7469226 0.6649109 0.000141543
vn -0.7468668 0.6649737 9.889984E-06
vn -0.7468697 0.6649704 1.005975E-05
vn -0.7468686 0.6649716 7.895006E-06
vn -0.746851 0.6649914 -2.080133E-05
vn -0.746864 0.6649768 1.107526E-05
vn -0.7468792 0.6649598 9.982929E-06
vn -0.7469043 0.6649316 -2.344553E-06
vn -0.7468682 0.6649721 2.481775E-06
vn -0.7468536 0.6649883 -2.344327E-06
vn -0.06720351 0.04575521 -0.9966896
vn -0.0502735 0.05899669 -0.9969914
vn -0.1938732 -0.05447229 -0.9795131
vn -0.2094793 -0.06696443 -0.9755175
vn 0.07858416 0.1585595 -0.9842172
vn -0.3303224 -0.1621128 -0.9298422
vn 0.09451543 0.1707193 -0.9807761
vn -0.3449893 -0.1734673 -0.9224378
vn 0.2184723 0.2668862 -0.9386382
vn -0.461671 -0.2622171 -0.8474091
vn 0.2326028 0.2780318 -0.9319841
vn -0.4745706 -0.2718512 -0.8371855
vn 0.3501681 0.3724689 -0.8594471
vn -0.5844309 -0.3549878 -0.729674
vn 0.3618785 0.3820521 -0.8503413
vn -0.5945993 -0.3628025 -0.7175137
vn 0.4734624 0.4721596 -0.7435716
vn -0.6883182 -0.4362448 -0.5795761
vn 0.4829493 0.4797015 -0.7325615
vn -0.6945176 -0.4412202 -0.5683047
vn 0.581795 0.556784 -0.5928795
vn -0.7665128 -0.497815 -0.4057567
vn 0.5878859 0.5614219 -0.582405
vn -0.7697099 -0.5002598 -0.3965939
vn 0.6643531 0.6208872 -0.4160936
vn -0.8177969 -0.5354107 -0.2110532
vn 0.6673054 0.6232476 -0.4077571
vn -0.8187459 -0.5360487 -0.2056865
vn 0.7158135 0.6637785 -0.2168161
vn -0.8364931 -0.5479774 4.502959E-06
vn 0.7165628 0.6644561 -0.2122167
vn -0.8364931 -0.5479774 5.265765E-06
vn 0.733457 0.6797358 2.59624E-05
vn -0.8177979 -0.5354118 0.211047
vn 0.733457 0.6797358 2.730952E-05
vn -0.8187458 -0.5360495 0.2056851
vn 0.7158318 0.6637726 0.2167741
vn -0.7665038 -0.497807 0.4057831
vn 0.7165771 0.6644471 0.2121965
vn -0.7697017 -0.5002517 0.3966203
vn 0.6643828 0.6208811 0.4160555
vn -0.6883118 -0.4362534 0.5795773
vn 0.6673345 0.6232412 0.4077195
vn -0.6945074 -0.4412251 0.5683132
vn 0.5818017 0.5567612 0.5928944
vn -0.584446 -0.3550133 0.7296495
vn 0.5878948 0.5614001 0.582417
vn -0.5946156 -0.3628296 0.7174866
vn 0.4734727 0.4721479 0.7435725
vn -0.461659 -0.2622347 0.8474101
vn 0.4829592 0.4796891 0.7325632
vn -0.4745624 -0.2718687 0.8371845
vn 0.3501888 0.3724658 0.8594399
vn -0.330321 -0.1621089 0.9298435
vn 0.3618932 0.3820447 0.8503383
vn -0.3449799 -0.1734656 0.9224417
vn 0.2184748 0.2668574 0.9386458
vn -0.1938618 -0.05442771 0.9795178
vn 0.2326113 0.2780096 0.9319885
vn -0.2094769 -0.06692652 0.9755205
vn 0.07858417 0.1585103 0.984225
vn -0.05025319 0.05899553 0.9969926
vn 0.09450834 0.1706666 0.9807859
vn -0.06718294 0.04576465 0.9966905
vn -0.8140917 0.2928272 -0.5015046
vn -0.8071558 0.2970621 -0.5101506
vn -0.8661808 0.255021 -0.4297615
vn -0.7353523 0.3531763 -0.57838
vn -0.8706489 0.2511461 -0.4229611
vn -0.7265684 0.3611296 -0.5845373
vn -0.913712 0.2064273 -0.3500261
vn -0.6529651 0.4375359 -0.6182224
vn -0.9174238 0.2018266 -0.342928
vn -0.6468499 0.4450707 -0.6192715
vn -0.9575927 0.1604986 -0.2392832
vn -0.583123 0.514841 -0.6284158
vn -0.9597543 0.1586981 -0.2317033
vn -0.5781798 0.5196417 -0.6290315
vn -0.9828995 0.1474809 -0.1102627
vn -0.502229 0.5847644 -0.6370375
vn -0.9832396 0.1476934 -0.1068955
vn -0.4966478 0.5890171 -0.6374949
vn -0.9884992 0.1512259 -5.270494E-06
vn -0.4056092 0.6713588 -0.6202892
vn -0.9884992 0.1512259 -6.084486E-06
vn -0.401766 0.6753173 -0.6184905
vn -0.982901 0.1474721 0.1102617
vn -0.3298264 0.7623094 -0.5568653
vn -0.9832405 0.1476841 0.106899
vn -0.3288288 0.7638613 -0.5553265
vn -0.9575891 0.1604968 0.2392988
vn -0.2767094 0.832323 -0.4802817
vn -0.9597519 0.1586952 0.2317156
vn -0.2764443 0.8326159 -0.4799263
vn -0.9137144 0.2064196 0.3500242
vn -0.2115079 0.8924108 -0.3985817
vn -0.9174246 0.2018208 0.3429292
vn -0.2115004 0.8924166 -0.3985728
vn -0.8661844 0.2550281 0.4297503
vn -0.1499863 0.9493296 -0.276184
vn -0.8706533 0.2511498 0.4229498
vn -0.1500921 0.9492088 -0.2765412
vn -0.8071612 0.2970867 0.5101277
vn -0.1327359 0.982751 -0.1287704
vn -0.8140908 0.2928548 0.50149
vn -0.1326997 0.9826903 -0.1292693
vn -0.7265748 0.3611221 0.584534
vn -0.1376889 0.9904756 7.726517E-06
vn -0.7353616 0.3531727 0.5783704
vn -0.1376889 0.9904756 8.490606E-06
vn -0.6468354 0.4450417 0.6193076
vn -0.1326961 0.982758 0.128758
vn -0.6529523 0.4375076 0.618256
vn -0.1326604 0.9826985 0.1292477
vn -0.5781564 0.5196157 0.6290746
vn -0.149946 0.9493334 0.2761927
vn -0.5830997 0.5148138 0.6284596
vn -0.1500513 0.9492132 0.2765482
vn -0.4966333 0.5890099 0.6375129
vn -0.2115243 0.8923904 0.3986188
vn -0.5022179 0.5847521 0.6370574
vn -0.211521 0.8923929 0.3986148
vn -0.4017679 0.6753371 0.6184678
vn -0.2767548 0.8323226 0.4802561
vn -0.4056116 0.671376 0.6202688
vn -0.2764888 0.8326165 0.4798997
vn -0.3288572 0.7638894 0.555271
vn -0.3298565 0.7623343 0.5568134
g KK-Nail_15_0
f 3/3/3 2/2/2 1/1/1
f 1/1/1 2/2/2 4/4/4
f 5/5/5 2/2/2 3/3/3
f 4/4/4 2/2/2 6/6/6
f 7/7/7 2/2/2 5/5/5
f 6/6/6 2/2/2 8/8/8
f 9/9/9 2/2/2 7/7/7
f 8/8/8 2/2/2 10/10/10
f 11/11/11 2/2/2 9/9/9
f 10/10/10 2/2/2 12/12/12
f 13/13/13 2/2/2 11/11/11
f 12/12/12 2/2/2 14/14/14
f 15/15/15 2/2/2 13/13/13
f 14/14/14 2/2/2 16/16/16
f 17/17/17 2/2/2 15/15/15
f 16/16/16 2/2/2 18/18/18
f 19/19/19 2/2/2 17/17/17
f 18/18/18 2/2/2 20/20/20
f 21/21/21 2/2/2 19/19/19
f 20/20/20 2/2/2 22/22/22
f 23/23/23 2/2/2 21/21/21
f 22/22/22 2/2/2 24/24/24
f 25/25/25 2/2/2 23/23/23
f 24/24/24 2/2/2 26/26/26
f 27/27/27 2/2/2 25/25/25
f 26/26/26 2/2/2 28/28/28
f 29/29/29 2/2/2 27/27/27
f 28/28/28 2/2/2 30/30/30
f 31/31/31 2/2/2 29/29/29
f 30/30/30 2/2/2 32/32/32
f 33/33/33 2/2/2 31/31/31
f 32/32/32 2/2/2 33/33/33
f 36/36/36 35/35/35 34/34/34
f 37/37/37 36/36/36 34/34/34
f 34/34/34 35/35/35 38/38/38
f 39/39/39 36/36/36 37/37/37
f 35/35/35 40/40/40 38/38/38
f 41/41/41 39/39/39 37/37/37
f 38/38/38 40/40/40 42/42/42
f 43/43/43 39/39/39 41/41/41
f 40/40/40 44/44/44 42/42/42
f 45/45/45 43/43/43 41/41/41
f 42/42/42 44/44/44 46/46/46
f 47/47/47 43/43/43 45/45/45
f 44/44/44 48/48/48 46/46/46
f 49/49/49 47/47/47 45/45/45
f 46/46/46 48/48/48 50/50/50
f 51/51/51 47/47/47 49/49/49
f 48/48/48 52/52/52 50/50/50
f 53/53/53 51/51/51 49/49/49
f 50/50/50 52/52/52 54/54/54
f 55/55/55 51/51/51 53/53/53
f 52/52/52 56/56/56 54/54/54
f 57/57/57 55/55/55 53/53/53
f 54/54/54 56/56/56 58/58/58
f 59/59/59 55/55/55 57/57/57
f 56/56/56 60/60/60 58/58/58
f 61/61/61 59/59/59 57/57/57
f 58/58/58 60/60/60 62/62/62
f 63/63/63 59/59/59 61/61/61
f 60/60/60 64/64/64 62/62/62
f 65/65/65 63/63/63 61/61/61
f 62/62/62 64/64/64 66/66/66
f 67/67/67 63/63/63 65/65/65
f 64/64/64 68/68/68 66/66/66
f 69/69/69 67/67/67 65/65/65
f 66/66/66 68/68/68 70/70/70
f 71/71/71 67/67/67 69/69/69
f 68/68/68 72/72/72 70/70/70
f 73/73/73 71/71/71 69/69/69
f 70/70/70 72/72/72 74/74/74
f 75/75/75 71/71/71 73/73/73
f 72/72/72 76/76/76 74/74/74
f 77/77/77 75/75/75 73/73/73
f 74/74/74 76/76/76 78/78/78
f 79/79/79 75/75/75 77/77/77
f 76/76/76 80/80/80 78/78/78
f 81/81/81 79/79/79 77/77/77
f 78/78/78 80/80/80 82/82/82
f 83/83/83 79/79/79 81/81/81
f 80/80/80 84/84/84 82/82/82
f 85/85/85 83/83/83 81/81/81
f 82/82/82 84/84/84 86/86/86
f 87/87/87 83/83/83 85/85/85
f 84/84/84 88/88/88 86/86/86
f 89/89/89 87/87/87 85/85/85
f 86/86/86 88/88/88 90/90/90
f 91/91/91 87/87/87 89/89/89
f 88/88/88 92/92/92 90/90/90
f 93/93/93 91/91/91 89/89/89
f 90/90/90 92/92/92 94/94/94
f 95/95/95 91/91/91 93/93/93
f 92/92/92 96/96/96 94/94/94
f 97/97/97 95/95/95 93/93/93
f 94/94/94 96/96/96 97/97/97
f 96/96/96 95/95/95 97/97/97
f 100/100/100 99/99/99 98/98/98
f 98/98/98 99/99/99 101/101/101
f 102/102/102 100/100/100 98/98/98
f 99/99/99 103/103/103 101/101/101
f 104/104/104 100/100/100 102/102/102
f 101/101/101 103/103/103 105/105/105
f 106/106/106 104/104/104 102/102/102
f 103/103/103 107/107/107 105/105/105
f 108/108/108 104/104/104 106/106/106
f 105/105/105 107/107/107 109/109/109
f 110/110/110 108/108/108 106/106/106
f 107/107/107 111/111/111 109/109/109
f 112/112/112 108/108/108 110/110/110
f 109/109/109 111/111/111 113/113/113
f 114/114/114 112/112/112 110/110/110
f 111/111/111 115/115/115 113/113/113
f 116/116/116 112/112/112 114/114/114
f 113/113/113 115/115/115 117/117/117
f 118/118/118 116/116/116 114/114/114
f 115/115/115 119/119/119 117/117/117
f 120/120/120 116/116/116 118/118/118
f 117/117/117 119/119/119 121/121/121
f 122/122/122 120/120/120 118/118/118
f 119/119/119 123/123/123 121/121/121
f 124/124/124 120/120/120 122/122/122
f 121/121/121 123/123/123 125/125/125
f 126/126/126 124/124/124 122/122/122
f 123/123/123 127/127/127 125/125/125
f 128/128/128 124/124/124 126/126/126
f 125/125/125 127/127/127 129/129/129
f 130/130/130 128/128/128 126/126/126
f 127/127/127 131/131/131 129/129/129
f 132/132/132 128/128/128 130/130/130
f 129/129/129 131/131/131 133/133/133
f 134/134/134 132/132/132 130/130/130
f 131/131/131 135/135/135 133/133/133
f 136/136/136 132/132/132 134/134/134
f 133/133/133 135/135/135 137/137/137
f 138/138/138 136/136/136 134/134/134
f 135/135/135 139/139/139 137/137/137
f 140/140/140 136/136/136 138/138/138
f 137/137/137 139/139/139 141/141/141
f 142/142/142 140/140/140 138/138/138
f 139/139/139 143/143/143 141/141/141
f 144/144/144 140/140/140 142/142/142
f 141/141/141 143/143/143 145/145/145
f 146/146/146 144/144/144 142/142/142
f 143/143/143 147/147/147 145/145/145
f 148/148/148 144/144/144 146/146/146
f 145/145/145 147/147/147 149/149/149
f 150/150/150 148/148/148 146/146/146
f 147/147/147 151/151/151 149/149/149
f 152/152/152 148/148/148 150/150/150
f 149/149/149 151/151/151 153/153/153
f 154/154/154 152/152/152 150/150/150
f 151/151/151 155/155/155 153/153/153
f 156/156/156 152/152/152 154/154/154
f 153/153/153 155/155/155 157/157/157
f 158/158/158 156/156/156 154/154/154
f 155/155/155 159/159/159 157/157/157
f 160/160/160 156/156/156 158/158/158
f 157/157/157 159/159/159 161/161/161
f 161/161/161 160/160/160 158/158/158
f 159/159/159 160/160/160 161/161/161
