g KK-Nail_3
v -5.538901 -2.152175 2.930733
v -5.55254 -2.177752 2.914227
v -5.546852 -2.14912 2.914996
v -5.544727 -2.180754 2.929559
v -5.528227 -2.156275 2.944526
v -5.534244 -2.184782 2.943014
v -5.515091 -2.161323 2.955732
v -5.521431 -2.189705 2.954021
v -5.500105 -2.16708 2.964081
v -5.50683 -2.195315 2.962224
v -5.483884 -2.173312 2.969306
v -5.49098 -2.201404 2.967264
v -5.467049 -2.17978 2.971136
v -5.474507 -2.207733 2.968995
v -5.450213 -2.186249 2.969306
v -5.458034 -2.214062 2.967265
v -5.433993 -2.19248 2.964081
v -5.442183 -2.220151 2.962224
v -5.419007 -2.198238 2.955734
v -5.427582 -2.225761 2.954021
v -5.405869 -2.203285 2.944528
v -5.414769 -2.230684 2.943013
v -5.395198 -2.207385 2.930733
v -5.404286 -2.234712 2.929559
v -5.387247 -2.21044 2.914998
v -5.396472 -2.237713 2.914227
v -5.382272 -2.212351 2.897966
v -5.391672 -2.239558 2.897585
v -5.380528 -2.213021 2.880289
v -5.390026 -2.240191 2.880291
v -5.382272 -2.212351 2.862611
v -5.391672 -2.239558 2.862993
v -5.387245 -2.21044 2.845582
v -5.396473 -2.237713 2.846351
v -5.395198 -2.207385 2.829845
v -5.404286 -2.234712 2.831019
v -5.405869 -2.203285 2.81605
v -5.414769 -2.230684 2.817566
v -5.419007 -2.198238 2.804844
v -5.427583 -2.225761 2.806558
v -5.433993 -2.19248 2.796497
v -5.442183 -2.220151 2.798353
v -5.450213 -2.186249 2.791273
v -5.458034 -2.214062 2.793313
v -5.467049 -2.17978 2.789441
v -5.474507 -2.207733 2.791583
v -5.483883 -2.173312 2.791272
v -5.49098 -2.201404 2.793313
v -5.500105 -2.16708 2.796497
v -5.506828 -2.195314 2.798353
v -5.515091 -2.161323 2.804845
v -5.52143 -2.189705 2.806557
v -5.528229 -2.156275 2.81605
v -5.534244 -2.184782 2.817563
v -5.538901 -2.152175 2.829844
v -5.544726 -2.180754 2.831018
v -5.546852 -2.14912 2.845579
v -5.552539 -2.177753 2.846351
v -5.546852 -2.14912 2.914996
v -5.55254 -2.177752 2.914227
v -5.557341 -2.175908 2.897585
v -5.551826 -2.147208 2.897966
v -5.558988 -2.175275 2.880289
v -5.55357 -2.146539 2.880291
v -5.557341 -2.175909 2.862993
v -5.551825 -2.147208 2.86261
v -5.552539 -2.177753 2.846351
v -5.546852 -2.14912 2.845579
v -5.491735 -2.212764 2.955245
v -5.477326 -2.2183 2.880289
v -5.505409 -2.207511 2.951476
v -5.477326 -2.2183 2.956196
v -5.517615 -2.202821 2.943987
v -5.462917 -2.223836 2.955244
v -5.528445 -2.19866 2.933964
v -5.449243 -2.229089 2.951477
v -5.537992 -2.194993 2.922592
v -5.437037 -2.233779 2.943987
v -5.545124 -2.192252 2.909776
v -5.426207 -2.23794 2.933964
v -5.548712 -2.190874 2.895417
v -5.41666 -2.241608 2.922593
v -5.549618 -2.190525 2.880289
v -5.409528 -2.244348 2.909776
v -5.548713 -2.190874 2.865161
v -5.405939 -2.245727 2.895417
v -5.545122 -2.192252 2.850801
v -5.405032 -2.246075 2.880289
v -5.537991 -2.194993 2.837985
v -5.405939 -2.245727 2.86516
v -5.528445 -2.19866 2.826614
v -5.409528 -2.244348 2.850801
v -5.517615 -2.202821 2.816591
v -5.416659 -2.241608 2.837986
v -5.505409 -2.207511 2.8091
v -5.426208 -2.23794 2.826614
v -5.491735 -2.212765 2.805333
v -5.437036 -2.233779 2.816591
v -5.477326 -2.2183 2.804382
v -5.449243 -2.229089 2.809101
v -5.462917 -2.223836 2.805335
v -5.521431 -2.189705 2.954021
v -5.517615 -2.202821 2.943987
v -5.528445 -2.19866 2.933964
v -5.50683 -2.195315 2.962224
v -5.534244 -2.184782 2.943014
v -5.505409 -2.207511 2.951476
v -5.537992 -2.194993 2.922592
v -5.49098 -2.201404 2.967264
v -5.544727 -2.180754 2.929559
v -5.491735 -2.212764 2.955245
v -5.545124 -2.192252 2.909776
v -5.474507 -2.207733 2.968995
v -5.55254 -2.177752 2.914227
v -5.477326 -2.2183 2.956196
v -5.548712 -2.190874 2.895417
v -5.458034 -2.214062 2.967265
v -5.557341 -2.175908 2.897585
v -5.462917 -2.223836 2.955244
v -5.549618 -2.190525 2.880289
v -5.442183 -2.220151 2.962224
v -5.558988 -2.175275 2.880289
v -5.449243 -2.229089 2.951477
v -5.548713 -2.190874 2.865161
v -5.427582 -2.225761 2.954021
v -5.557341 -2.175909 2.862993
v -5.437037 -2.233779 2.943987
v -5.545122 -2.192252 2.850801
v -5.414769 -2.230684 2.943013
v -5.552539 -2.177753 2.846351
v -5.426207 -2.23794 2.933964
v -5.537991 -2.194993 2.837985
v -5.404286 -2.234712 2.929559
v -5.544726 -2.180754 2.831018
v -5.41666 -2.241608 2.922593
v -5.528445 -2.19866 2.826614
v -5.396472 -2.237713 2.914227
v -5.534244 -2.184782 2.817563
v -5.409528 -2.244348 2.909776
v -5.517615 -2.202821 2.816591
v -5.391672 -2.239558 2.897585
v -5.52143 -2.189705 2.806557
v -5.405939 -2.245727 2.895417
v -5.505409 -2.207511 2.8091
v -5.390026 -2.240191 2.880291
v -5.506828 -2.195314 2.798353
v -5.405032 -2.246075 2.880289
v -5.491735 -2.212765 2.805333
v -5.391672 -2.239558 2.862993
v -5.49098 -2.201404 2.793313
v -5.405939 -2.245727 2.86516
v -5.477326 -2.2183 2.804382
v -5.396473 -2.237713 2.846351
v -5.474507 -2.207733 2.791583
v -5.409528 -2.244348 2.850801
v -5.462917 -2.223836 2.805335
v -5.404286 -2.234712 2.831019
v -5.458034 -2.214062 2.793313
v -5.416659 -2.241608 2.837986
v -5.449243 -2.229089 2.809101
v -5.414769 -2.230684 2.817566
v -5.442183 -2.220151 2.798353
v -5.426208 -2.23794 2.826614
v -5.437036 -2.233779 2.816591
v -5.427583 -2.225761 2.806558
vt 0.8769148 0.5826785
vt 0.8789845 0.5796129
vt 0.8759301 0.5806437
vt 0.879777 0.5811104
vt 0.8782941 0.5845092
vt 0.8808548 0.5824374
vt 0.880032 0.5860558
vt 0.8821827 0.5835361
vt 0.8820668 0.5872489
vt 0.883709 0.5843607
vt 0.8843171 0.5880287
vt 0.8853779 0.5848691
vt 0.8866861 0.5883532
vt 0.8871164 0.5850434
vt 0.8890834 0.5882043
vt 0.8888533 0.584876
vt 0.8914159 0.5875887
vt 0.8905193 0.5843789
vt 0.8935852 0.5865289
vt 0.8920494 0.5835682
vt 0.8955032 0.5850688
vt 0.8933861 0.582483
vt 0.897104 0.5832601
vt 0.8944814 0.5811667
vt 0.898331 0.5811593
vt 0.8952963 0.5796676
vt 0.8991326 0.5788313
vt 0.8957905 0.5780355
vt 0.8994617 0.5763413
vt 0.8959328 0.5763422
vt 0.8991315 0.5738512
vt 0.8957898 0.5746486
vt 0.8983293 0.5715243
vt 0.8952951 0.5730168
vt 0.8971013 0.5694243
vt 0.8944797 0.5715182
vt 0.8955001 0.5676166
vt 0.8933845 0.5702024
vt 0.8935818 0.566158
vt 0.8920476 0.5691175
vt 0.8914132 0.565099
vt 0.8905181 0.5683077
vt 0.8890819 0.5644844
vt 0.8888524 0.5678111
vt 0.8866861 0.5643364
vt 0.8871164 0.5676441
vt 0.8843188 0.5646605
vt 0.8853785 0.5678174
vt 0.8820695 0.5654386
vt 0.8837104 0.5683259
vt 0.8800353 0.5666307
vt 0.8821842 0.56915
vt 0.8782972 0.5681759
vt 0.8808564 0.5702478
vt 0.8769176 0.5700054
vt 0.8797786 0.5715742
vt 0.8759322 0.5720392
vt 0.8789857 0.5730716
vt 0.9112136 0.3990613
vt 0.913994 0.3981229
vt 0.9135541 0.3966589
vt 0.9106956 0.3971103
vt 0.9133917 0.3951454
vt 0.9105517 0.3951452
vt 0.9135545 0.3936319
vt 0.9106964 0.3931791
vt 0.9139952 0.3921685
vt 0.9112154 0.3912287
vt 0.8857909 0.5833336
vt 0.8872398 0.5763432
vt 0.8844259 0.5829762
vt 0.8872399 0.5834273
vt 0.883205 0.582278
vt 0.8886877 0.5833275
vt 0.8821205 0.5813372
vt 0.8900486 0.5829627
vt 0.8811765 0.5802659
vt 0.8912596 0.5822644
vt 0.8804795 0.5790747
vt 0.89234 0.5813283
vt 0.8801213 0.5777484
vt 0.8932823 0.5802594
vt 0.880022 0.5763423
vt 0.8939748 0.5790672
vt 0.8801218 0.5749361
vt 0.8943245 0.5777426
vt 0.8804805 0.5736102
vt 0.8944084 0.5763423
vt 0.8811775 0.5724193
vt 0.8943244 0.5749416
vt 0.8821216 0.5713484
vt 0.8939741 0.5736179
vt 0.8832062 0.5704079
vt 0.8932814 0.5724256
vt 0.8844267 0.5697104
vt 0.8923388 0.571357
vt 0.8857912 0.5693531
vt 0.8912587 0.5704212
vt 0.8872398 0.569259
vt 0.8900473 0.5697235
vt 0.8886873 0.5693594
vt 0.8821827 0.5835361
vt 0.883205 0.582278
vt 0.8821205 0.5813372
vt 0.883709 0.5843607
vt 0.8808548 0.5824374
vt 0.8844259 0.5829762
vt 0.8811765 0.5802659
vt 0.8853779 0.5848691
vt 0.879777 0.5811104
vt 0.8857909 0.5833336
vt 0.8804795 0.5790747
vt 0.8871164 0.5850434
vt 0.8789845 0.5796129
vt 0.8872399 0.5834273
vt 0.8801213 0.5777484
vt 0.8888533 0.584876
vt 0.8785014 0.5780045
vt 0.8886877 0.5833275
vt 0.880022 0.5763423
vt 0.8905193 0.5843789
vt 0.8783228 0.5763418
vt 0.8900486 0.5829627
vt 0.8801218 0.5749361
vt 0.8920494 0.5835682
vt 0.8785017 0.5746793
vt 0.8912596 0.5822644
vt 0.8804805 0.5736102
vt 0.8933861 0.582483
vt 0.8789857 0.5730716
vt 0.89234 0.5813283
vt 0.8811775 0.5724193
vt 0.8944814 0.5811667
vt 0.8797786 0.5715742
vt 0.8932823 0.5802594
vt 0.8821216 0.5713484
vt 0.8952963 0.5796676
vt 0.8808564 0.5702478
vt 0.8939748 0.5790672
vt 0.8832062 0.5704079
vt 0.8957905 0.5780355
vt 0.8821842 0.56915
vt 0.8943245 0.5777426
vt 0.8844267 0.5697104
vt 0.8959328 0.5763422
vt 0.8837104 0.5683259
vt 0.8944084 0.5763423
vt 0.8857912 0.5693531
vt 0.8957898 0.5746486
vt 0.8853785 0.5678174
vt 0.8943244 0.5749416
vt 0.8872398 0.569259
vt 0.8952951 0.5730168
vt 0.8871164 0.5676441
vt 0.8939741 0.5736179
vt 0.8886873 0.5693594
vt 0.8944797 0.5715182
vt 0.8888524 0.5678111
vt 0.8932814 0.5724256
vt 0.8900473 0.5697235
vt 0.8933845 0.5702024
vt 0.8905181 0.5683077
vt 0.8923388 0.571357
vt 0.8912587 0.5704212
vt 0.8920476 0.5691175
vn -0.8217801 0.1449576 0.5510578
vn -0.9069344 0.1687146 0.3860122
vn -0.9088485 0.1692233 0.3812585
vn -0.8178805 0.1438332 0.5571208
vn -0.7024645 0.1120171 0.7028483
vn -0.6957635 0.1102375 0.7097612
vn -0.5563657 0.07432264 0.8276069
vn -0.5474269 0.07207933 0.8337436
vn -0.3940478 0.0323295 0.9185212
vn -0.3833804 0.02948364 0.9231198
vn -0.2190335 -0.01550215 0.9755941
vn -0.2072267 -0.01881162 0.9781121
vn -0.0326829 -0.06659494 0.9972447
vn -0.01972318 -0.07005897 0.9973478
vn 0.1560426 -0.1159258 0.980924
vn 0.1681733 -0.1190144 0.9785466
vn 0.3346376 -0.1624932 0.9282315
vn 0.3452627 -0.1653426 0.9238265
vn 0.500219 -0.208084 0.8405248
vn 0.5088207 -0.2105276 0.8347333
vn 0.6504072 -0.2497619 0.717349
vn 0.6570608 -0.251551 0.7106286
vn 0.7758722 -0.2823095 0.5642018
vn 0.7799241 -0.2833081 0.5580813
vn 0.867934 -0.3058256 0.3913583
vn 0.8698368 -0.3063379 0.3867052
vn 0.9247592 -0.3223678 0.202236
vn 0.925235 -0.3225274 0.1997902
vn 0.9443486 -0.3289464 4.383035E-06
vn 0.9443486 -0.3289464 9.929059E-06
vn 0.9247539 -0.3223814 -0.2022389
vn 0.92523 -0.3225408 -0.1997917
vn 0.8679297 -0.3058479 -0.3913504
vn 0.8698292 -0.3063593 -0.3867054
vn 0.7758704 -0.2823332 -0.5641925
vn 0.7799205 -0.2833313 -0.5580748
vn 0.6503897 -0.2497912 -0.7173547
vn 0.6570439 -0.2515797 -0.7106342
vn 0.50024 -0.2081014 -0.8405081
vn 0.5088375 -0.210547 -0.8347181
vn 0.3346384 -0.1624606 -0.9282368
vn 0.3452738 -0.165315 -0.9238274
vn 0.1560445 -0.1158963 -0.9809272
vn 0.1681683 -0.1189804 -0.9785516
vn -0.03267385 -0.06657923 -0.997246
vn -0.01970742 -0.0700459 -0.997349
vn -0.2190046 -0.01547599 -0.975601
vn -0.2072066 -0.01878419 -0.9781169
vn -0.3940296 0.03233559 -0.9185287
vn -0.3833517 0.02949051 -0.9231315
vn -0.5563563 0.07429377 -0.827616
vn -0.5474218 0.07205281 -0.8337492
vn -0.7024718 0.1119853 -0.7028462
vn -0.6957659 0.1102041 -0.709764
vn -0.8217947 0.1449292 -0.5510436
vn -0.8178952 0.143805 -0.5571064
vn -0.9088528 0.1692 -0.3812585
vn -0.9069409 0.1686914 -0.3860072
vn -0.9088485 0.1692233 0.3812585
vn -0.9069344 0.1687146 0.3860122
vn -0.9627973 0.1823541 0.1994195
vn -0.9633425 0.182464 0.1966676
vn -0.9824874 0.1863293 -1.300385E-05
vn -0.9824874 0.1863293 -7.402712E-06
vn -0.9627984 0.1823568 -0.1994122
vn -0.9633411 0.1824667 -0.1966717
vn -0.9069409 0.1686914 -0.3860072
vn -0.9088528 0.1692 -0.3812585
vn -0.3586209 -0.9334834 8.568105E-06
vn -0.358621 -0.9334834 8.568106E-06
vn -0.358621 -0.9334834 8.568106E-06
vn -0.3586221 -0.9334828 -1.154808E-06
vn -0.3586372 -0.933477 1.206378E-06
vn -0.3586537 -0.9334707 5.835898E-06
vn -0.358655 -0.9334701 -1.171069E-05
vn -0.3586582 -0.9334689 7.825867E-06
vn -0.3586208 -0.9334834 2.566962E-05
vn -0.3586147 -0.9334856 -2.368638E-05
vn -0.3586475 -0.9334731 -1.848881E-05
vn -0.358641 -0.9334756 4.965147E-06
vn -0.3586378 -0.9334768 7.407773E-06
vn -0.3586462 -0.9334736 1.347656E-05
vn -0.3586458 -0.9334738 -3.595454E-05
vn -0.358633 -0.9334787 -2.126924E-05
vn -0.3586458 -0.9334738 5.984162E-05
vn -0.3586375 -0.9334769 3.227953E-06
vn -0.3586229 -0.9334825 -6.411098E-05
vn -0.3586375 -0.9334769 -3.227826E-06
vn -0.3586548 -0.9334702 1.990221E-05
vn -0.358633 -0.9334787 2.126843E-05
vn -0.3586322 -0.933479 -1.735781E-05
vn -0.3586445 -0.9334742 -9.332389E-06
vn -0.3586661 -0.9334659 1.978014E-05
vn -0.358622 -0.9334828 2.778365E-05
vn -0.3586372 -0.933477 -1.195994E-06
vn -0.3586756 -0.9334623 -3.082271E-05
vn -0.3586498 -0.9334721 4.547247E-06
vn -0.358639 -0.9334763 -4.237426E-06
vn -0.3586431 -0.9334748 3.031853E-06
vn -0.3586445 -0.9334742 -6.717747E-06
vn -0.3586003 -0.9334912 3.032143E-06
vn -0.6136088 -0.584845 0.5305098
vn -0.6095273 -0.5854232 0.5345616
vn -0.6885145 -0.5680131 0.4508981
vn -0.5041375 -0.6120377 0.6093071
vn -0.6911949 -0.5671564 0.4478652
vn -0.4978925 -0.6140498 0.6124098
vn -0.758857 -0.5385103 0.3662551
vn -0.3804431 -0.6596411 0.6481795
vn -0.761245 -0.5372353 0.3631589
vn -0.3751009 -0.662182 0.648702
vn -0.8228371 -0.5107827 0.2490791
vn -0.2726807 -0.7035254 0.6562752
vn -0.8240408 -0.5104063 0.24585
vn -0.26821 -0.7050125 0.6565217
vn -0.8534122 -0.5084326 0.1148212
vn -0.1583042 -0.7339106 0.6605414
vn -0.8535155 -0.5085759 0.1134105
vn -0.1528724 -0.7349922 0.6606183
vn -0.8574943 -0.5144933 1.318949E-05
vn -0.02229116 -0.7709563 0.6364977
vn -0.8574943 -0.5144934 1.333318E-05
vn -0.01713494 -0.7726938 0.6345477
vn -0.8534032 -0.5084434 -0.1148403
vn 0.09446661 -0.8188877 0.5661263
vn -0.8535067 -0.508586 -0.1134305
vn 0.09703885 -0.8202981 0.563644
vn -0.8228118 -0.5108126 -0.249101
vn 0.1779479 -0.8565323 0.4844448
vn -0.8240161 -0.5104358 -0.2458716
vn 0.179689 -0.8571356 0.4827322
vn -0.7588543 -0.5385334 -0.3662266
vn 0.2651126 -0.8781514 0.3982029
vn -0.7612417 -0.537259 -0.3631305
vn 0.2668669 -0.8784178 0.3964393
vn -0.6885136 -0.5680229 -0.4508869
vn 0.3463317 -0.8973705 0.2734601
vn -0.6911963 -0.5671661 -0.4478508
vn 0.3470648 -0.8976257 0.2716871
vn -0.6095408 -0.5854037 -0.5345677
vn 0.3775322 -0.9172595 0.1269034
vn -0.6136172 -0.5848278 -0.5305188
vn 0.3775306 -0.9173491 0.1262588
vn -0.4979039 -0.6140212 -0.6124293
vn 0.3770851 -0.9261786 6.278719E-06
vn -0.5041475 -0.6120093 -0.6093274
vn 0.3770851 -0.9261786 1.003139E-06
vn -0.3750881 -0.6621694 -0.6487224
vn 0.3775408 -0.9172547 -0.1269123
vn -0.3804295 -0.6596282 -0.6482006
vn 0.3775392 -0.9173448 -0.1262646
vn -0.2681826 -0.7050208 -0.656524
vn 0.3463595 -0.8973584 -0.2734649
vn -0.2726556 -0.7035322 -0.6562783
vn 0.3470899 -0.8976129 -0.2716976
vn -0.1528825 -0.7350075 -0.6605988
vn 0.2651446 -0.8781359 -0.3982157
vn -0.1583123 -0.7339259 -0.6605225
vn 0.2669024 -0.8784029 -0.3964485
vn -0.01715863 -0.7727101 -0.634527
vn 0.1779861 -0.8565085 -0.4844731
vn -0.02231609 -0.7709734 -0.6364763
vn 0.1797226 -0.8571105 -0.4827644
vn 0.09707407 -0.8202912 -0.5636479
vn 0.09449287 -0.8188775 -0.5661366
g KK-Nail_3_0
f 3/3/3 2/2/2 1/1/1
f 2/2/2 4/4/4 1/1/1
f 1/1/1 4/4/4 5/5/5
f 4/4/4 6/6/6 5/5/5
f 5/5/5 6/6/6 7/7/7
f 6/6/6 8/8/8 7/7/7
f 7/7/7 8/8/8 9/9/9
f 8/8/8 10/10/10 9/9/9
f 9/9/9 10/10/10 11/11/11
f 10/10/10 12/12/12 11/11/11
f 11/11/11 12/12/12 13/13/13
f 12/12/12 14/14/14 13/13/13
f 13/13/13 14/14/14 15/15/15
f 14/14/14 16/16/16 15/15/15
f 15/15/15 16/16/16 17/17/17
f 16/16/16 18/18/18 17/17/17
f 17/17/17 18/18/18 19/19/19
f 18/18/18 20/20/20 19/19/19
f 19/19/19 20/20/20 21/21/21
f 20/20/20 22/22/22 21/21/21
f 21/21/21 22/22/22 23/23/23
f 22/22/22 24/24/24 23/23/23
f 23/23/23 24/24/24 25/25/25
f 24/24/24 26/26/26 25/25/25
f 25/25/25 26/26/26 27/27/27
f 26/26/26 28/28/28 27/27/27
f 27/27/27 28/28/28 29/29/29
f 28/28/28 30/30/30 29/29/29
f 29/29/29 30/30/30 31/31/31
f 30/30/30 32/32/32 31/31/31
f 31/31/31 32/32/32 33/33/33
f 32/32/32 34/34/34 33/33/33
f 33/33/33 34/34/34 35/35/35
f 34/34/34 36/36/36 35/35/35
f 35/35/35 36/36/36 37/37/37
f 36/36/36 38/38/38 37/37/37
f 37/37/37 38/38/38 39/39/39
f 38/38/38 40/40/40 39/39/39
f 39/39/39 40/40/40 41/41/41
f 40/40/40 42/42/42 41/41/41
f 41/41/41 42/42/42 43/43/43
f 42/42/42 44/44/44 43/43/43
f 43/43/43 44/44/44 45/45/45
f 44/44/44 46/46/46 45/45/45
f 45/45/45 46/46/46 47/47/47
f 46/46/46 48/48/48 47/47/47
f 47/47/47 48/48/48 49/49/49
f 48/48/48 50/50/50 49/49/49
f 49/49/49 50/50/50 51/51/51
f 50/50/50 52/52/52 51/51/51
f 51/51/51 52/52/52 53/53/53
f 52/52/52 54/54/54 53/53/53
f 53/53/53 54/54/54 55/55/55
f 54/54/54 56/56/56 55/55/55
f 55/55/55 56/56/56 57/57/57
f 56/56/56 58/58/58 57/57/57
f 61/61/61 60/60/60 59/59/59
f 62/62/62 61/61/61 59/59/59
f 63/63/63 61/61/61 62/62/62
f 64/64/64 63/63/63 62/62/62
f 65/65/65 63/63/63 64/64/64
f 66/66/66 65/65/65 64/64/64
f 67/67/67 65/65/65 66/66/66
f 68/68/68 67/67/67 66/66/66
f 71/71/71 70/70/70 69/69/69
f 69/69/69 70/70/70 72/72/72
f 73/73/73 70/70/70 71/71/71
f 72/72/72 70/70/70 74/74/74
f 75/75/75 70/70/70 73/73/73
f 74/74/74 70/70/70 76/76/76
f 77/77/77 70/70/70 75/75/75
f 76/76/76 70/70/70 78/78/78
f 79/79/79 70/70/70 77/77/77
f 78/78/78 70/70/70 80/80/80
f 81/81/81 70/70/70 79/79/79
f 80/80/80 70/70/70 82/82/82
f 83/83/83 70/70/70 81/81/81
f 82/82/82 70/70/70 84/84/84
f 85/85/85 70/70/70 83/83/83
f 84/84/84 70/70/70 86/86/86
f 87/87/87 70/70/70 85/85/85
f 86/86/86 70/70/70 88/88/88
f 89/89/89 70/70/70 87/87/87
f 88/88/88 70/70/70 90/90/90
f 91/91/91 70/70/70 89/89/89
f 90/90/90 70/70/70 92/92/92
f 93/93/93 70/70/70 91/91/91
f 92/92/92 70/70/70 94/94/94
f 95/95/95 70/70/70 93/93/93
f 94/94/94 70/70/70 96/96/96
f 97/97/97 70/70/70 95/95/95
f 96/96/96 70/70/70 98/98/98
f 99/99/99 70/70/70 97/97/97
f 98/98/98 70/70/70 100/100/100
f 101/101/101 70/70/70 99/99/99
f 100/100/100 70/70/70 101/101/101
f 104/104/104 103/103/103 102/102/102
f 102/102/102 103/103/103 105/105/105
f 106/106/106 104/104/104 102/102/102
f 103/103/103 107/107/107 105/105/105
f 108/108/108 104/104/104 106/106/106
f 105/105/105 107/107/107 109/109/109
f 110/110/110 108/108/108 106/106/106
f 107/107/107 111/111/111 109/109/109
f 112/112/112 108/108/108 110/110/110
f 109/109/109 111/111/111 113/113/113
f 114/114/114 112/112/112 110/110/110
f 111/111/111 115/115/115 113/113/113
f 116/116/116 112/112/112 114/114/114
f 113/113/113 115/115/115 117/117/117
f 118/118/118 116/116/116 114/114/114
f 115/115/115 119/119/119 117/117/117
f 120/120/120 116/116/116 118/118/118
f 117/117/117 119/119/119 121/121/121
f 122/122/122 120/120/120 118/118/118
f 119/119/119 123/123/123 121/121/121
f 124/124/124 120/120/120 122/122/122
f 121/121/121 123/123/123 125/125/125
f 126/126/126 124/124/124 122/122/122
f 123/123/123 127/127/127 125/125/125
f 128/128/128 124/124/124 126/126/126
f 125/125/125 127/127/127 129/129/129
f 130/130/130 128/128/128 126/126/126
f 127/127/127 131/131/131 129/129/129
f 132/132/132 128/128/128 130/130/130
f 129/129/129 131/131/131 133/133/133
f 134/134/134 132/132/132 130/130/130
f 131/131/131 135/135/135 133/133/133
f 136/136/136 132/132/132 134/134/134
f 133/133/133 135/135/135 137/137/137
f 138/138/138 136/136/136 134/134/134
f 135/135/135 139/139/139 137/137/137
f 140/140/140 136/136/136 138/138/138
f 137/137/137 139/139/139 141/141/141
f 142/142/142 140/140/140 138/138/138
f 139/139/139 143/143/143 141/141/141
f 144/144/144 140/140/140 142/142/142
f 141/141/141 143/143/143 145/145/145
f 146/146/146 144/144/144 142/142/142
f 143/143/143 147/147/147 145/145/145
f 148/148/148 144/144/144 146/146/146
f 145/145/145 147/147/147 149/149/149
f 150/150/150 148/148/148 146/146/146
f 147/147/147 151/151/151 149/149/149
f 152/152/152 148/148/148 150/150/150
f 149/149/149 151/151/151 153/153/153
f 154/154/154 152/152/152 150/150/150
f 151/151/151 155/155/155 153/153/153
f 156/156/156 152/152/152 154/154/154
f 153/153/153 155/155/155 157/157/157
f 158/158/158 156/156/156 154/154/154
f 155/155/155 159/159/159 157/157/157
f 160/160/160 156/156/156 158/158/158
f 157/157/157 159/159/159 161/161/161
f 162/162/162 160/160/160 158/158/158
f 159/159/159 163/163/163 161/161/161
f 164/164/164 160/160/160 162/162/162
f 161/161/161 163/163/163 165/165/165
f 165/165/165 164/164/164 162/162/162
f 163/163/163 164/164/164 165/165/165
