g KK-Nail_8
v -4.622268 3.596194 0.04762268
v -4.607144 3.596699 0.1225781
v -4.63662 3.595714 0.05138916
v -4.607145 3.596699 0.04666992
v -4.64943 3.595288 0.05887817
v -4.660799 3.594907 0.0689032
v -4.670818 3.594572 0.08027435
v -4.678305 3.594322 0.09309143
v -4.682071 3.594197 0.1074496
v -4.683023 3.594166 0.1225775
v -4.682071 3.594196 0.137706
v -4.678305 3.594322 0.1520648
v -4.670818 3.594571 0.1648813
v -4.6608 3.594908 0.1762533
v -4.649431 3.595288 0.1862762
v -4.636619 3.595714 0.1937653
v -4.622268 3.596195 0.1975323
v -4.607144 3.596699 0.1225781
v -4.607145 3.596699 0.1984866
v -4.592021 3.597203 0.1975323
v -4.577668 3.597683 0.1937662
v -4.564856 3.59811 0.1862769
v -4.55349 3.598491 0.1762533
v -4.54347 3.598826 0.1648816
v -4.535984 3.599075 0.1520654
v -4.532218 3.599201 0.1377066
v -4.531265 3.599232 0.1225787
v -4.532218 3.599201 0.1074496
v -4.535985 3.599076 0.09309143
v -4.54347 3.598826 0.08027496
v -4.553491 3.598491 0.0689032
v -4.564857 3.598111 0.05887878
v -4.577669 3.597683 0.05139038
v -4.592021 3.597204 0.04762268
v -4.606207 3.556268 0.03173157
v -4.606887 3.585609 0.03387329
v -4.624177 3.585031 0.03560242
v -4.623877 3.55568 0.0335614
v -4.588536 3.556861 0.03356262
v -4.640812 3.584475 0.04064209
v -4.589597 3.586184 0.03560242
v -4.640901 3.55511 0.03878479
v -4.571512 3.557427 0.0387854
v -4.656139 3.583963 0.04884521
v -4.572961 3.586741 0.04064331
v -4.656632 3.554585 0.04713379
v -4.555782 3.557955 0.0471344
v -4.669587 3.583514 0.05985412
v -4.557636 3.587254 0.04884582
v -4.670421 3.554124 0.05833862
v -4.541992 3.558412 0.05833923
v -4.68059 3.583145 0.07330749
v -4.544187 3.587703 0.05985412
v -4.681622 3.553751 0.07213318
v -4.530792 3.558787 0.0721344
v -4.688789 3.582873 0.08863983
v -4.533183 3.58807 0.07330749
v -4.689967 3.55347 0.08786926
v -4.522447 3.559065 0.08786987
v -4.693829 3.582704 0.1052808
v -4.524984 3.588344 0.08863892
v -4.695189 3.553296 0.1048999
v -4.517225 3.55924 0.1049002
v -4.695559 3.582647 0.1225781
v -4.519946 3.588514 0.1052814
v -4.697019 3.553235 0.1225778
v -4.515396 3.559303 0.1225781
v -4.693829 3.582704 0.1398746
v -4.518217 3.58857 0.1225781
v -4.695189 3.553295 0.1402548
v -4.517225 3.55924 0.1402548
v -4.688789 3.582873 0.1565158
v -4.519945 3.588512 0.1398755
v -4.689967 3.553469 0.1572858
v -4.522447 3.559066 0.1572852
v -4.680591 3.583146 0.1718475
v -4.524985 3.588346 0.1565161
v -4.681622 3.553751 0.1730215
v -4.530791 3.558788 0.1730231
v -4.669587 3.583513 0.1853018
v -4.533184 3.588071 0.1718478
v -4.670421 3.554124 0.1868161
v -4.541993 3.558412 0.1868176
v -4.656138 3.583963 0.1963089
v -4.544188 3.587702 0.1853033
v -4.656632 3.554585 0.1980222
v -4.555782 3.557953 0.1980222
v -4.640812 3.584475 0.2045126
v -4.557636 3.587252 0.1963101
v -4.640902 3.55511 0.2063702
v -4.571512 3.557427 0.2063715
v -4.624177 3.585031 0.2095538
v -4.572961 3.586741 0.2045129
v -4.623877 3.55568 0.2115945
v -4.588536 3.556859 0.2115951
v -4.606887 3.585608 0.2112839
v -4.589598 3.586185 0.2095538
v -4.606207 3.556269 0.2134256
v -4.656139 3.583963 0.04884521
v -4.64943 3.595288 0.05887817
v -4.660799 3.594907 0.0689032
v -4.640812 3.584475 0.04064209
v -4.669587 3.583514 0.05985412
v -4.63662 3.595714 0.05138916
v -4.670818 3.594572 0.08027435
v -4.624177 3.585031 0.03560242
v -4.68059 3.583145 0.07330749
v -4.622268 3.596194 0.04762268
v -4.678305 3.594322 0.09309143
v -4.606887 3.585609 0.03387329
v -4.688789 3.582873 0.08863983
v -4.607145 3.596699 0.04666992
v -4.682071 3.594197 0.1074496
v -4.589597 3.586184 0.03560242
v -4.693829 3.582704 0.1052808
v -4.592021 3.597204 0.04762268
v -4.683023 3.594166 0.1225775
v -4.572961 3.586741 0.04064331
v -4.695559 3.582647 0.1225781
v -4.577669 3.597683 0.05139038
v -4.682071 3.594196 0.137706
v -4.557636 3.587254 0.04884582
v -4.693829 3.582704 0.1398746
v -4.564857 3.598111 0.05887878
v -4.678305 3.594322 0.1520648
v -4.544187 3.587703 0.05985412
v -4.688789 3.582873 0.1565158
v -4.553491 3.598491 0.0689032
v -4.670818 3.594571 0.1648813
v -4.533183 3.58807 0.07330749
v -4.680591 3.583146 0.1718475
v -4.54347 3.598826 0.08027496
v -4.6608 3.594908 0.1762533
v -4.524984 3.588344 0.08863892
v -4.669587 3.583513 0.1853018
v -4.535985 3.599076 0.09309143
v -4.649431 3.595288 0.1862762
v -4.519946 3.588514 0.1052814
v -4.656138 3.583963 0.1963089
v -4.532218 3.599201 0.1074496
v -4.636619 3.595714 0.1937653
v -4.518217 3.58857 0.1225781
v -4.640812 3.584475 0.2045126
v -4.531265 3.599232 0.1225787
v -4.622268 3.596195 0.1975323
v -4.519945 3.588512 0.1398755
v -4.624177 3.585031 0.2095538
v -4.532218 3.599201 0.1377066
v -4.607145 3.596699 0.1984866
v -4.524985 3.588346 0.1565161
v -4.606887 3.585608 0.2112839
v -4.535984 3.599075 0.1520654
v -4.592021 3.597203 0.1975323
v -4.533184 3.588071 0.1718478
v -4.589598 3.586185 0.2095538
v -4.54347 3.598826 0.1648816
v -4.577668 3.597683 0.1937662
v -4.544188 3.587702 0.1853033
v -4.572961 3.586741 0.2045129
v -4.55349 3.598491 0.1762533
v -4.564856 3.59811 0.1862769
v -4.557636 3.587252 0.1963101
vt 0.1082823 0.421037
vt 0.1068231 0.427909
vt 0.1095853 0.4214143
vt 0.1068926 0.4209132
vt 0.1107467 0.4221104
vt 0.111775 0.4230371
vt 0.1126675 0.4240872
vt 0.1133308 0.4252532
vt 0.1136623 0.4265488
vt 0.1137469 0.427909
vt 0.1136623 0.4292695
vt 0.1133308 0.4305652
vt 0.1126675 0.431731
vt 0.111775 0.4327809
vt 0.110747 0.4337074
vt 0.1095853 0.4344034
vt 0.1082823 0.4347805
vt 0.1068231 0.427909
vt 0.1068926 0.4349048
vt 0.1054929 0.4348386
vt 0.1041623 0.4345073
vt 0.1029599 0.4338438
vt 0.10188 0.4329333
vt 0.1009361 0.4318749
vt 0.1002149 0.4306864
vt 0.09985498 0.4293386
vt 0.09976823 0.427909
vt 0.09985498 0.4264794
vt 0.1002149 0.4251317
vt 0.1009361 0.4239432
vt 0.10188 0.4228848
vt 0.10296 0.4219744
vt 0.1041621 0.4213107
vt 0.1054929 0.4209795
vt 0.1071259 0.4159584
vt 0.1069553 0.4193133
vt 0.1086243 0.4195222
vt 0.1094368 0.4162799
vt 0.1047846 0.4160962
vt 0.1102163 0.4200488
vt 0.1052724 0.4194345
vt 0.1116363 0.4170423
vt 0.1024986 0.4166914
vt 0.1116677 0.4208723
vt 0.1036383 0.4198825
vt 0.1136342 0.4182124
vt 0.10036 0.4177252
vt 0.1129277 0.421954
vt 0.102117 0.4206476
vt 0.1153506 0.4197351
vt 0.09845498 0.4191606
vt 0.1139506 0.4232512
vt 0.1007691 0.4217008
vt 0.116725 0.4215481
vt 0.09685348 0.4209573
vt 0.1147056 0.4247074
vt 0.09964865 0.4230106
vt 0.1177144 0.4235774
vt 0.09561712 0.4230568
vt 0.1151621 0.4262758
vt 0.09880094 0.424518
vt 0.1182864 0.4257295
vt 0.09480575 0.4253965
vt 0.1153268 0.427909
vt 0.0982888 0.4261754
vt 0.1184405 0.427909
vt 0.09447273 0.427909
vt 0.1151621 0.4295424
vt 0.09813621 0.427909
vt 0.1182864 0.4300884
vt 0.09480575 0.4304217
vt 0.1147056 0.4311109
vt 0.09828868 0.4296427
vt 0.1177144 0.4322405
vt 0.09561748 0.4327612
vt 0.1139506 0.4325669
vt 0.098801 0.4312997
vt 0.116725 0.4342694
vt 0.09685384 0.434861
vt 0.1129277 0.433864
vt 0.09964865 0.4328073
vt 0.1153506 0.4360826
vt 0.09845522 0.4366576
vt 0.1116677 0.4349452
vt 0.1007693 0.434117
vt 0.1136342 0.4376059
vt 0.10036 0.4380929
vt 0.1102163 0.4357689
vt 0.102117 0.4351704
vt 0.1116365 0.4387756
vt 0.1024988 0.4391268
vt 0.1086243 0.4362961
vt 0.1036384 0.4359355
vt 0.1094368 0.4395384
vt 0.1047846 0.4397219
vt 0.1069554 0.4365049
vt 0.1052727 0.4363833
vt 0.1071259 0.43986
vt 0.1116677 0.4208723
vt 0.1107467 0.4221104
vt 0.111775 0.4230371
vt 0.1102163 0.4200488
vt 0.1129277 0.421954
vt 0.1095853 0.4214143
vt 0.1126675 0.4240872
vt 0.1086243 0.4195222
vt 0.1139506 0.4232512
vt 0.1082823 0.421037
vt 0.1133308 0.4252532
vt 0.1069553 0.4193133
vt 0.1147056 0.4247074
vt 0.1068926 0.4209132
vt 0.1136623 0.4265488
vt 0.1052724 0.4194345
vt 0.1151621 0.4262758
vt 0.1054929 0.4209795
vt 0.1137469 0.427909
vt 0.1036383 0.4198825
vt 0.1153268 0.427909
vt 0.1041621 0.4213107
vt 0.1136623 0.4292695
vt 0.102117 0.4206476
vt 0.1151621 0.4295424
vt 0.10296 0.4219744
vt 0.1133308 0.4305652
vt 0.1007691 0.4217008
vt 0.1147056 0.4311109
vt 0.10188 0.4228848
vt 0.1126675 0.431731
vt 0.09964865 0.4230106
vt 0.1139506 0.4325669
vt 0.1009361 0.4239432
vt 0.111775 0.4327809
vt 0.09880094 0.424518
vt 0.1129277 0.433864
vt 0.1002149 0.4251317
vt 0.110747 0.4337074
vt 0.0982888 0.4261754
vt 0.1116677 0.4349452
vt 0.09985498 0.4264794
vt 0.1095853 0.4344034
vt 0.09813621 0.427909
vt 0.1102163 0.4357689
vt 0.09976823 0.427909
vt 0.1082823 0.4347805
vt 0.09828868 0.4296427
vt 0.1086243 0.4362961
vt 0.09985498 0.4293386
vt 0.1068926 0.4349048
vt 0.098801 0.4312997
vt 0.1069554 0.4365049
vt 0.1002149 0.4306864
vt 0.1054929 0.4348386
vt 0.09964865 0.4328073
vt 0.1052727 0.4363833
vt 0.1009361 0.4318749
vt 0.1041623 0.4345073
vt 0.1007693 0.434117
vt 0.1036384 0.4359355
vt 0.10188 0.4329333
vt 0.1029599 0.4338438
vt 0.102117 0.4351704
vn -0.03340672 0.9994418 5.792353E-06
vn -0.03340672 0.9994418 5.792353E-06
vn -0.03340672 0.9994418 5.792353E-06
vn -0.03335673 0.9994435 4.269273E-06
vn -0.03330512 0.9994453 -3.631916E-05
vn -0.03343679 0.9994408 5.118488E-05
vn -0.03340423 0.9994419 1.859826E-05
vn -0.03337337 0.9994429 -2.789064E-05
vn -0.03336774 0.9994431 -4.150724E-05
vn -0.03336704 0.9994431 -4.495985E-05
vn -0.03336704 0.9994431 8.52802E-05
vn -0.0333836 0.9994426 3.185459E-06
vn -0.03335725 0.9994435 6.685021E-05
vn -0.03347886 0.9994394 -0.0001163912
vn -0.033369 0.9994431 -6.452709E-06
vn -0.03326787 0.9994465 6.075788E-05
vn -0.03348736 0.9994391 -3.022003E-05
vn -0.03335889 0.9994435 -4.269597E-06
vn -0.03335889 0.9994435 -4.269596E-06
vn -0.03331644 0.9994448 -4.269221E-06
vn -0.03336234 0.9994434 5.002616E-06
vn -0.03333259 0.9994443 -7.333178E-06
vn -0.03346973 0.9994397 8.381761E-05
vn -0.03337496 0.9994429 -1.102084E-05
vn -0.03334369 0.9994439 -5.81324E-05
vn -0.03336785 0.9994431 2.386111E-07
vn -0.03336701 0.9994431 -3.961009E-06
vn -0.033367 0.9994431 4.495428E-05
vn -0.03336743 0.9994431 4.284524E-05
vn -0.03338997 0.9994424 -1.15921E-05
vn -0.03337421 0.9994429 1.215187E-05
vn -0.03341292 0.9994416 -2.658728E-05
vn -0.03340987 0.9994417 -2.456293E-05
vn -0.03332472 0.9994445 1.073608E-05
vn -0.003029307 0.07167781 -0.9974232
vn -0.001724214 0.07170803 -0.9974241
vn -0.1985378 0.0659679 -0.9778707
vn -0.1996219 0.0659296 -0.9776525
vn 0.1937975 0.07507476 -0.9781648
vn -0.3832674 0.06050673 -0.9216534
vn 0.1951219 0.07508962 -0.9779003
vn -0.3843372 0.06048179 -0.9212095
vn 0.3788665 0.07822017 -0.9221398
vn -0.5537218 0.05769312 -0.8307006
vn 0.3799377 0.07824509 -0.9216968
vn -0.5546958 0.05768444 -0.8300513
vn 0.549548 0.08334142 -0.831295
vn -0.7067757 0.05534424 -0.7052695
vn 0.5503115 0.08337007 -0.8307868
vn -0.7074265 0.05532922 -0.7046179
vn 0.7026954 0.08808781 -0.7060169
vn -0.8321322 0.05127674 -0.5522017
vn 0.7033464 0.08810291 -0.7053663
vn -0.8324496 0.05126264 -0.5517244
vn 0.8283457 0.08982427 -0.5529692
vn -0.923005 0.04801805 -0.3817801
vn 0.8287988 0.08982512 -0.5522898
vn -0.9231874 0.04801381 -0.3813395
vn 0.9195855 0.09079304 -0.3822554
vn -0.9792412 0.04784804 -0.19697
vn 0.9197686 0.09079736 -0.3818134
vn -0.9793146 0.04785071 -0.1966044
vn 0.9759414 0.09326971 -0.1970763
vn -0.9988206 0.04855247 1.714964E-05
vn 0.9759666 0.09327183 -0.1969504
vn -0.9988206 0.04855248 1.793293E-05
vn 0.9954862 0.09490577 -9.669905E-07
vn -0.9792393 0.04783018 0.1969837
vn 0.9954862 0.09490577 -4.392389E-06
vn -0.9793127 0.04783283 0.1966185
vn 0.9759399 0.09326357 0.197087
vn -0.9230142 0.04799843 0.3817604
vn 0.9759626 0.0932655 0.1969738
vn -0.9231988 0.04799415 0.3813144
vn 0.9195883 0.09080876 0.3822449
vn -0.8321387 0.05125408 0.5521941
vn 0.9197692 0.09081289 0.3818084
vn -0.8324552 0.05124002 0.5517181
vn 0.8283557 0.08986291 0.5529478
vn -0.706763 0.05534545 0.7052822
vn 0.8288152 0.08986378 0.5522589
vn -0.7074169 0.05533015 0.7046275
vn 0.702682 0.08810788 0.7060277
vn -0.5537166 0.05772854 0.8307017
vn 0.7033365 0.08812319 0.7053736
vn -0.5546907 0.05771973 0.8300522
vn 0.549542 0.08335028 0.8312981
vn -0.383299 0.06052878 0.9216388
vn 0.5503055 0.08337887 0.8307899
vn -0.3843687 0.0605041 0.9211948
vn 0.3788829 0.07824656 0.9221308
vn -0.1986039 0.06596497 0.9778575
vn 0.3799523 0.07827131 0.9216886
vn -0.1996866 0.06592675 0.9776394
vn 0.193814 0.07510747 0.978159
vn -0.00174712 0.07171964 0.9974233
vn 0.1951362 0.07512236 0.977895
vn -0.003052153 0.07168923 0.9974223
vn -0.4061676 0.728843 -0.5511948
vn -0.405774 0.7287877 -0.5515578
vn -0.4923334 0.7339935 -0.4678263
vn -0.2845958 0.7246064 -0.6276551
vn -0.4925724 0.7339866 -0.4675855
vn -0.2839871 0.7246238 -0.6279106
vn -0.5749882 0.723971 -0.3811225
vn -0.1452376 0.73627 -0.660918
vn -0.5751811 0.7239295 -0.3809104
vn -0.1447174 0.7363504 -0.6609424
vn -0.650125 0.7141428 -0.2594946
vn -0.02516952 0.7474582 -0.6638318
vn -0.6502282 0.7141399 -0.259244
vn -0.02470094 0.7474717 -0.6638342
vn -0.6826213 0.7208535 -0.1199934
vn 0.09555276 0.7432498 -0.6621552
vn -0.6826279 0.7208716 -0.1198468
vn 0.09616429 0.7431909 -0.6621326
vn -0.6851122 0.7284376 4.905413E-06
vn 0.2361513 0.7395314 -0.630338
vn -0.6851122 0.7284376 7.842514E-06
vn 0.2367468 0.7395486 -0.6300943
vn -0.6826203 0.7208523 0.120006
vn 0.3585882 0.7508169 -0.5546967
vn -0.682627 0.7208706 0.1198581
vn 0.3589027 0.7508798 -0.5544081
vn -0.6501302 0.7141418 0.2594844
vn 0.4457207 0.7611353 -0.4711751
vn -0.6502344 0.7141388 0.2592317
vn 0.445951 0.761142 -0.4709463
vn -0.575001 0.723965 0.3811148
vn 0.5301287 0.7558298 -0.3842978
vn -0.5751979 0.7239228 0.3808979
vn 0.5303792 0.7557909 -0.3840286
vn -0.4923473 0.7339488 0.4678817
vn 0.607098 0.7502307 -0.2618892
vn -0.4925868 0.733942 0.4676403
vn 0.6072016 0.7502337 -0.2616401
vn -0.4057623 0.7287514 0.5516143
vn 0.6397572 0.7589782 -0.1210899
vn -0.4061542 0.7288062 0.5512534
vn 0.6397594 0.7589852 -0.1210345
vn -0.2840166 0.7246258 0.6278948
vn 0.6418607 0.7668213 2.427203E-05
vn -0.2846255 0.7246082 0.6276393
vn 0.6418607 0.7668213 2.467297E-05
vn -0.1447654 0.7363586 0.6609228
vn 0.6397675 0.7589701 0.121087
vn -0.1452834 0.7362786 0.6608984
vn 0.6397696 0.7589774 0.1210293
vn -0.02469521 0.7474834 0.6638213
vn 0.607096 0.7502433 0.2618574
vn -0.02516368 0.7474699 0.663819
vn 0.6071949 0.7502462 0.26162
vn 0.09615403 0.7432144 0.6621078
vn 0.5301299 0.7558259 0.3843039
vn 0.09553564 0.7432739 0.6621305
vn 0.5303794 0.7557873 0.3840356
vn 0.2367594 0.7395627 0.6300731
vn 0.4457063 0.7611207 0.4712125
vn 0.2361658 0.7395457 0.6303157
vn 0.445943 0.7611275 0.4709773
vn 0.3589126 0.7508677 0.5544181
vn 0.3585969 0.7508045 0.554708
g KK-Nail_8_0
f 3/3/3 2/2/2 1/1/1
f 1/1/1 2/2/2 4/4/4
f 5/5/5 2/2/2 3/3/3
f 6/6/6 2/2/2 5/5/5
f 7/7/7 2/2/2 6/6/6
f 8/8/8 2/2/2 7/7/7
f 9/9/9 2/2/2 8/8/8
f 10/10/10 2/2/2 9/9/9
f 11/11/11 2/2/2 10/10/10
f 12/12/12 2/2/2 11/11/11
f 13/13/13 2/2/2 12/12/12
f 14/14/14 2/2/2 13/13/13
f 15/15/15 2/2/2 14/14/14
f 16/16/16 2/2/2 15/15/15
f 17/17/17 2/2/2 16/16/16
f 19/19/19 18/18/18 17/17/17
f 20/20/20 18/18/18 19/19/19
f 21/21/21 18/18/18 20/20/20
f 22/22/22 18/18/18 21/21/21
f 23/23/23 18/18/18 22/22/22
f 24/24/24 18/18/18 23/23/23
f 25/25/25 18/18/18 24/24/24
f 26/26/26 18/18/18 25/25/25
f 27/27/27 18/18/18 26/26/26
f 28/28/28 18/18/18 27/27/27
f 29/29/29 18/18/18 28/28/28
f 30/30/30 18/18/18 29/29/29
f 31/31/31 18/18/18 30/30/30
f 32/32/32 18/18/18 31/31/31
f 33/33/33 18/18/18 32/32/32
f 34/34/34 18/18/18 33/33/33
f 4/4/4 18/18/18 34/34/34
f 37/37/37 36/36/36 35/35/35
f 38/38/38 37/37/37 35/35/35
f 35/35/35 36/36/36 39/39/39
f 40/40/40 37/37/37 38/38/38
f 36/36/36 41/41/41 39/39/39
f 42/42/42 40/40/40 38/38/38
f 39/39/39 41/41/41 43/43/43
f 44/44/44 40/40/40 42/42/42
f 41/41/41 45/45/45 43/43/43
f 46/46/46 44/44/44 42/42/42
f 43/43/43 45/45/45 47/47/47
f 48/48/48 44/44/44 46/46/46
f 45/45/45 49/49/49 47/47/47
f 50/50/50 48/48/48 46/46/46
f 47/47/47 49/49/49 51/51/51
f 52/52/52 48/48/48 50/50/50
f 49/49/49 53/53/53 51/51/51
f 54/54/54 52/52/52 50/50/50
f 51/51/51 53/53/53 55/55/55
f 56/56/56 52/52/52 54/54/54
f 53/53/53 57/57/57 55/55/55
f 58/58/58 56/56/56 54/54/54
f 55/55/55 57/57/57 59/59/59
f 60/60/60 56/56/56 58/58/58
f 57/57/57 61/61/61 59/59/59
f 62/62/62 60/60/60 58/58/58
f 59/59/59 61/61/61 63/63/63
f 64/64/64 60/60/60 62/62/62
f 61/61/61 65/65/65 63/63/63
f 66/66/66 64/64/64 62/62/62
f 63/63/63 65/65/65 67/67/67
f 68/68/68 64/64/64 66/66/66
f 65/65/65 69/69/69 67/67/67
f 70/70/70 68/68/68 66/66/66
f 67/67/67 69/69/69 71/71/71
f 72/72/72 68/68/68 70/70/70
f 69/69/69 73/73/73 71/71/71
f 74/74/74 72/72/72 70/70/70
f 71/71/71 73/73/73 75/75/75
f 76/76/76 72/72/72 74/74/74
f 73/73/73 77/77/77 75/75/75
f 78/78/78 76/76/76 74/74/74
f 75/75/75 77/77/77 79/79/79
f 80/80/80 76/76/76 78/78/78
f 77/77/77 81/81/81 79/79/79
f 82/82/82 80/80/80 78/78/78
f 79/79/79 81/81/81 83/83/83
f 84/84/84 80/80/80 82/82/82
f 81/81/81 85/85/85 83/83/83
f 86/86/86 84/84/84 82/82/82
f 83/83/83 85/85/85 87/87/87
f 88/88/88 84/84/84 86/86/86
f 85/85/85 89/89/89 87/87/87
f 90/90/90 88/88/88 86/86/86
f 87/87/87 89/89/89 91/91/91
f 92/92/92 88/88/88 90/90/90
f 89/89/89 93/93/93 91/91/91
f 94/94/94 92/92/92 90/90/90
f 91/91/91 93/93/93 95/95/95
f 96/96/96 92/92/92 94/94/94
f 93/93/93 97/97/97 95/95/95
f 98/98/98 96/96/96 94/94/94
f 95/95/95 97/97/97 98/98/98
f 97/97/97 96/96/96 98/98/98
f 101/101/101 100/100/100 99/99/99
f 99/99/99 100/100/100 102/102/102
f 103/103/103 101/101/101 99/99/99
f 100/100/100 104/104/104 102/102/102
f 105/105/105 101/101/101 103/103/103
f 102/102/102 104/104/104 106/106/106
f 107/107/107 105/105/105 103/103/103
f 104/104/104 108/108/108 106/106/106
f 109/109/109 105/105/105 107/107/107
f 106/106/106 108/108/108 110/110/110
f 111/111/111 109/109/109 107/107/107
f 108/108/108 112/112/112 110/110/110
f 113/113/113 109/109/109 111/111/111
f 110/110/110 112/112/112 114/114/114
f 115/115/115 113/113/113 111/111/111
f 112/112/112 116/116/116 114/114/114
f 117/117/117 113/113/113 115/115/115
f 114/114/114 116/116/116 118/118/118
f 119/119/119 117/117/117 115/115/115
f 116/116/116 120/120/120 118/118/118
f 121/121/121 117/117/117 119/119/119
f 118/118/118 120/120/120 122/122/122
f 123/123/123 121/121/121 119/119/119
f 120/120/120 124/124/124 122/122/122
f 125/125/125 121/121/121 123/123/123
f 122/122/122 124/124/124 126/126/126
f 127/127/127 125/125/125 123/123/123
f 124/124/124 128/128/128 126/126/126
f 129/129/129 125/125/125 127/127/127
f 126/126/126 128/128/128 130/130/130
f 131/131/131 129/129/129 127/127/127
f 128/128/128 132/132/132 130/130/130
f 133/133/133 129/129/129 131/131/131
f 130/130/130 132/132/132 134/134/134
f 135/135/135 133/133/133 131/131/131
f 132/132/132 136/136/136 134/134/134
f 137/137/137 133/133/133 135/135/135
f 134/134/134 136/136/136 138/138/138
f 139/139/139 137/137/137 135/135/135
f 136/136/136 140/140/140 138/138/138
f 141/141/141 137/137/137 139/139/139
f 138/138/138 140/140/140 142/142/142
f 143/143/143 141/141/141 139/139/139
f 140/140/140 144/144/144 142/142/142
f 145/145/145 141/141/141 143/143/143
f 142/142/142 144/144/144 146/146/146
f 147/147/147 145/145/145 143/143/143
f 144/144/144 148/148/148 146/146/146
f 149/149/149 145/145/145 147/147/147
f 146/146/146 148/148/148 150/150/150
f 151/151/151 149/149/149 147/147/147
f 148/148/148 152/152/152 150/150/150
f 153/153/153 149/149/149 151/151/151
f 150/150/150 152/152/152 154/154/154
f 155/155/155 153/153/153 151/151/151
f 152/152/152 156/156/156 154/154/154
f 157/157/157 153/153/153 155/155/155
f 154/154/154 156/156/156 158/158/158
f 159/159/159 157/157/157 155/155/155
f 156/156/156 160/160/160 158/158/158
f 161/161/161 157/157/157 159/159/159
f 158/158/158 160/160/160 162/162/162
f 162/162/162 161/161/161 159/159/159
f 160/160/160 161/161/161 162/162/162
