g KK-Nail_1
v -4.721844 -2.417569 2.955245
v -4.706803 -2.419532 2.880289
v -4.736117 -2.415706 2.951477
v -4.706802 -2.419533 2.956198
v -4.748859 -2.414043 2.943988
v -4.691764 -2.421496 2.955246
v -4.760164 -2.412567 2.933965
v -4.677489 -2.423359 2.951477
v -4.770129 -2.411266 2.922593
v -4.664748 -2.425022 2.943987
v -4.777574 -2.410295 2.909775
v -4.653442 -2.426498 2.933964
v -4.781318 -2.409806 2.895418
v -4.643478 -2.427799 2.922593
v -4.782267 -2.409682 2.88029
v -4.636033 -2.42877 2.909776
v -4.781318 -2.409806 2.86516
v -4.632289 -2.429259 2.895419
v -4.777574 -2.410295 2.850804
v -4.63134 -2.429384 2.88029
v -4.770128 -2.411266 2.837985
v -4.632289 -2.429259 2.865161
v -4.760164 -2.412568 2.826614
v -4.636032 -2.42877 2.850803
v -4.748858 -2.414043 2.816591
v -4.643479 -2.427799 2.837986
v -4.736117 -2.415706 2.809102
v -4.653443 -2.426498 2.826614
v -4.721843 -2.417569 2.805334
v -4.664749 -2.425022 2.816591
v -4.706803 -2.419533 2.804382
v -4.677489 -2.423359 2.809102
v -4.691763 -2.421496 2.805335
v -4.703159 -2.379323 2.971137
v -4.705804 -2.408502 2.968996
v -4.722999 -2.406257 2.967265
v -4.720734 -2.37703 2.969305
v -4.685585 -2.381617 2.969306
v -4.739543 -2.404098 2.962224
v -4.688609 -2.410746 2.967266
v -4.737663 -2.37482 2.964082
v -4.668654 -2.383828 2.964083
v -4.754785 -2.402108 2.954021
v -4.672064 -2.412906 2.962224
v -4.753307 -2.372777 2.955734
v -4.653011 -2.38587 2.955734
v -4.76816 -2.400362 2.943014
v -4.656822 -2.414896 2.954021
v -4.767021 -2.370988 2.944528
v -4.639297 -2.38766 2.944529
v -4.779103 -2.398934 2.92956
v -4.643446 -2.416641 2.943014
v -4.77816 -2.369534 2.930733
v -4.628157 -2.389114 2.930733
v -4.787258 -2.39787 2.914228
v -4.632504 -2.41807 2.929559
v -4.78646 -2.36845 2.914998
v -4.619857 -2.390197 2.914998
v -4.792269 -2.397215 2.897587
v -4.624349 -2.419134 2.914227
v -4.791653 -2.367772 2.897966
v -4.614664 -2.390875 2.897968
v -4.793989 -2.396991 2.880291
v -4.619338 -2.419788 2.897585
v -4.793474 -2.367535 2.880289
v -4.612844 -2.391113 2.88029
v -4.792269 -2.397215 2.862993
v -4.617619 -2.420013 2.880291
v -4.791653 -2.367772 2.862612
v -4.614663 -2.390875 2.862611
v -4.787258 -2.39787 2.846351
v -4.619338 -2.419788 2.862993
v -4.78646 -2.36845 2.84558
v -4.619857 -2.390197 2.845582
v -4.779103 -2.398934 2.83102
v -4.62435 -2.419134 2.846352
v -4.77816 -2.369533 2.829845
v -4.628156 -2.389114 2.829845
v -4.76816 -2.400362 2.817564
v -4.632504 -2.41807 2.831019
v -4.767021 -2.370988 2.816051
v -4.639297 -2.38766 2.81605
v -4.754785 -2.402108 2.806558
v -4.643446 -2.416641 2.817565
v -4.753308 -2.372777 2.804846
v -4.653011 -2.38587 2.804847
v -4.739543 -2.404098 2.798354
v -4.656822 -2.414896 2.806557
v -4.737664 -2.37482 2.796497
v -4.668655 -2.383828 2.796497
v -4.722999 -2.406257 2.793314
v -4.672064 -2.412906 2.798354
v -4.720732 -2.37703 2.791273
v -4.685585 -2.381617 2.791273
v -4.705804 -2.408502 2.791585
v -4.688608 -2.410746 2.793313
v -4.703159 -2.379324 2.789442
v -4.754785 -2.402108 2.954021
v -4.748859 -2.414043 2.943988
v -4.760164 -2.412567 2.933965
v -4.739543 -2.404098 2.962224
v -4.76816 -2.400362 2.943014
v -4.736117 -2.415706 2.951477
v -4.770129 -2.411266 2.922593
v -4.722999 -2.406257 2.967265
v -4.779103 -2.398934 2.92956
v -4.721844 -2.417569 2.955245
v -4.777574 -2.410295 2.909775
v -4.705804 -2.408502 2.968996
v -4.787258 -2.39787 2.914228
v -4.706802 -2.419533 2.956198
v -4.781318 -2.409806 2.895418
v -4.688609 -2.410746 2.967266
v -4.792269 -2.397215 2.897587
v -4.691764 -2.421496 2.955246
v -4.782267 -2.409682 2.88029
v -4.672064 -2.412906 2.962224
v -4.793989 -2.396991 2.880291
v -4.677489 -2.423359 2.951477
v -4.781318 -2.409806 2.86516
v -4.656822 -2.414896 2.954021
v -4.792269 -2.397215 2.862993
v -4.664748 -2.425022 2.943987
v -4.777574 -2.410295 2.850804
v -4.643446 -2.416641 2.943014
v -4.787258 -2.39787 2.846351
v -4.653442 -2.426498 2.933964
v -4.770128 -2.411266 2.837985
v -4.632504 -2.41807 2.929559
v -4.779103 -2.398934 2.83102
v -4.643478 -2.427799 2.922593
v -4.760164 -2.412568 2.826614
v -4.624349 -2.419134 2.914227
v -4.76816 -2.400362 2.817564
v -4.636033 -2.42877 2.909776
v -4.748858 -2.414043 2.816591
v -4.619338 -2.419788 2.897585
v -4.754785 -2.402108 2.806558
v -4.632289 -2.429259 2.895419
v -4.736117 -2.415706 2.809102
v -4.617619 -2.420013 2.880291
v -4.739543 -2.404098 2.798354
v -4.63134 -2.429384 2.88029
v -4.721843 -2.417569 2.805334
v -4.619338 -2.419788 2.862993
v -4.722999 -2.406257 2.793314
v -4.632289 -2.429259 2.865161
v -4.706803 -2.419533 2.804382
v -4.62435 -2.419134 2.846352
v -4.705804 -2.408502 2.791585
v -4.636032 -2.42877 2.850803
v -4.691763 -2.421496 2.805335
v -4.632504 -2.41807 2.831019
v -4.688608 -2.410746 2.793313
v -4.643479 -2.427799 2.837986
v -4.677489 -2.423359 2.809102
v -4.643446 -2.416641 2.817565
v -4.672064 -2.412906 2.798354
v -4.653443 -2.426498 2.826614
v -4.664749 -2.425022 2.816591
v -4.656822 -2.414896 2.806557
vt 0.8860853 0.6128383
vt 0.8874832 0.6059596
vt 0.884779 0.6124626
vt 0.8874832 0.6129623
vt 0.8836188 0.6117624
vt 0.8888904 0.6128975
vt 0.8825913 0.610832
vt 0.8902258 0.6125693
vt 0.8816986 0.6097802
vt 0.8914316 0.6119022
vt 0.8810396 0.6086173
vt 0.8925196 0.6109878
vt 0.8806995 0.6073251
vt 0.893475 0.609928
vt 0.880618 0.6059602
vt 0.8941842 0.6087302
vt 0.8806992 0.6045952
vt 0.8945476 0.6073866
vt 0.8810394 0.603303
vt 0.8946366 0.6059601
vt 0.8816982 0.60214
vt 0.8945476 0.6045333
vt 0.8825911 0.601088
vt 0.8941846 0.6031896
vt 0.8836184 0.6001565
vt 0.8934754 0.6019917
vt 0.8847786 0.5994565
vt 0.8925199 0.6009321
vt 0.8860853 0.5990806
vt 0.891432 0.600017
vt 0.8874832 0.5989572
vt 0.8902261 0.5993497
vt 0.8888904 0.5990217
vt 0.8871036 0.6179064
vt 0.8873888 0.6145645
vt 0.8857129 0.6143523
vt 0.8847924 0.6175569
vt 0.8894553 0.6177949
vt 0.8841172 0.613821
vt 0.8890792 0.614445
vt 0.882605 0.6167679
vt 0.8917595 0.6172224
vt 0.8826659 0.6129923
vt 0.890721 0.6139989
vt 0.8806292 0.6155786
vt 0.8939229 0.6162032
vt 0.8814083 0.6119059
vt 0.892249 0.6132331
vt 0.8789415 0.6140471
vt 0.8958551 0.6147739
vt 0.8803884 0.6106061
vt 0.8936034 0.612178
vt 0.877598 0.6122381
vt 0.8974842 0.6129755
vt 0.8796381 0.6091458
vt 0.8947273 0.6108713
vt 0.8766359 0.6102265
vt 0.8987455 0.6108629
vt 0.8791792 0.607584
vt 0.8955731 0.6093602
vt 0.8760805 0.6081027
vt 0.8995765 0.6085005
vt 0.8790185 0.6059602
vt 0.8960917 0.6076962
vt 0.8759301 0.6059608
vt 0.8999187 0.6059608
vt 0.879179 0.6043363
vt 0.8962452 0.6059602
vt 0.87608 0.6038179
vt 0.8995771 0.6034199
vt 0.8796377 0.6027743
vt 0.8960921 0.6042239
vt 0.8766348 0.6016947
vt 0.8987463 0.6010577
vt 0.8803875 0.6013144
vt 0.8955736 0.6025597
vt 0.8775963 0.5996823
vt 0.8974854 0.5989447
vt 0.8814077 0.6000138
vt 0.8947276 0.6010482
vt 0.8789399 0.5978727
vt 0.8958563 0.5971457
vt 0.8826653 0.5989271
vt 0.893604 0.5997414
vt 0.8806276 0.5963408
vt 0.8939241 0.5957159
vt 0.8841165 0.5980981
vt 0.8922495 0.5986865
vt 0.8826036 0.595151
vt 0.8917602 0.5946965
vt 0.8857125 0.5975667
vt 0.8907214 0.59792
vt 0.8847921 0.5943614
vt 0.8894553 0.5941234
vt 0.8873886 0.5973549
vt 0.8890796 0.5974739
vt 0.8871036 0.594012
vt 0.8826659 0.6129923
vt 0.8836188 0.6117624
vt 0.8825913 0.610832
vt 0.8841172 0.613821
vt 0.8814083 0.6119059
vt 0.884779 0.6124626
vt 0.8816986 0.6097802
vt 0.8857129 0.6143523
vt 0.8803884 0.6106061
vt 0.8860853 0.6128383
vt 0.8810396 0.6086173
vt 0.8873888 0.6145645
vt 0.8796381 0.6091458
vt 0.8874832 0.6129623
vt 0.8806995 0.6073251
vt 0.8890792 0.614445
vt 0.8791792 0.607584
vt 0.8888904 0.6128975
vt 0.880618 0.6059602
vt 0.890721 0.6139989
vt 0.8790185 0.6059602
vt 0.8902258 0.6125693
vt 0.8806992 0.6045952
vt 0.892249 0.6132331
vt 0.879179 0.6043363
vt 0.8914316 0.6119022
vt 0.8810394 0.603303
vt 0.8936034 0.612178
vt 0.8796377 0.6027743
vt 0.8925196 0.6109878
vt 0.8816982 0.60214
vt 0.8947273 0.6108713
vt 0.8803875 0.6013144
vt 0.893475 0.609928
vt 0.8825911 0.601088
vt 0.8955731 0.6093602
vt 0.8814077 0.6000138
vt 0.8941842 0.6087302
vt 0.8836184 0.6001565
vt 0.8960917 0.6076962
vt 0.8826653 0.5989271
vt 0.8945476 0.6073866
vt 0.8847786 0.5994565
vt 0.8962452 0.6059602
vt 0.8841165 0.5980981
vt 0.8946366 0.6059601
vt 0.8860853 0.5990806
vt 0.8960921 0.6042239
vt 0.8857125 0.5975667
vt 0.8945476 0.6045333
vt 0.8874832 0.5989572
vt 0.8955736 0.6025597
vt 0.8873886 0.5973549
vt 0.8941846 0.6031896
vt 0.8888904 0.5990217
vt 0.8947276 0.6010482
vt 0.8890796 0.5974739
vt 0.8934754 0.6019917
vt 0.8902261 0.5993497
vt 0.893604 0.5997414
vt 0.8907214 0.59792
vt 0.8925199 0.6009321
vt 0.891432 0.600017
vt 0.8922495 0.5986865
vn -0.1294087 -0.9915913 2.321525E-06
vn -0.1294087 -0.9915913 2.321525E-06
vn -0.1294087 -0.9915913 2.321525E-06
vn -0.1294444 -0.9915867 -4.67777E-06
vn -0.1294306 -0.9915884 -6.885683E-06
vn -0.1294033 -0.991592 -1.306758E-05
vn -0.1294385 -0.9915875 -1.213498E-05
vn -0.1294207 -0.9915898 -5.776244E-06
vn -0.1294421 -0.991587 -1.585206E-05
vn -0.1294519 -0.9915857 1.513703E-05
vn -0.1294272 -0.9915889 6.84565E-06
vn -0.1294373 -0.9915876 4.607831E-07
vn -0.1294333 -0.9915881 -8.022542E-06
vn -0.1294393 -0.9915873 3.462452E-06
vn -0.129429 -0.9915887 1.355501E-05
vn -0.1294425 -0.9915869 1.110474E-05
vn -0.129429 -0.9915887 -1.355392E-05
vn -0.1294453 -0.9915866 2.541056E-05
vn -0.1294333 -0.9915881 8.022534E-06
vn -0.1294453 -0.9915866 -2.018937E-05
vn -0.1294252 -0.9915892 -1.180788E-05
vn -0.129445 -0.9915866 -1.867999E-05
vn -0.1294513 -0.9915859 2.793688E-05
vn -0.1294358 -0.9915878 3.71942E-06
vn -0.1294125 -0.9915909 -1.127501E-05
vn -0.1294381 -0.9915875 2.277894E-07
vn -0.12945 -0.991586 1.386577E-05
vn -0.1294385 -0.9915875 -2.122493E-07
vn -0.129404 -0.9915919 -5.377329E-06
vn -0.1294466 -0.9915863 -5.624463E-06
vn -0.1294656 -0.9915839 7.193559E-06
vn -0.1294056 -0.9915918 1.154192E-05
vn -0.1294269 -0.991589 7.192558E-06
vn -0.01182854 -0.07106502 0.9974016
vn -0.006801354 -0.07152189 0.9974158
vn -0.2025316 -0.05259886 0.9778621
vn -0.2070393 -0.05213529 0.9769425
vn 0.184325 -0.0877537 0.9789401
vn -0.3861646 -0.03476546 0.9217745
vn 0.1890846 -0.08812936 0.977998
vn -0.3902655 -0.03439348 0.9200597
vn 0.3689675 -0.1033678 0.9236764
vn -0.5558925 -0.0204986 0.8310015
vn 0.3730682 -0.1037406 0.9219859
vn -0.5593477 -0.02023455 0.8286861
vn 0.5393825 -0.1199899 0.833468
vn -0.7084188 -0.007862563 0.7057485
vn 0.5426201 -0.1203304 0.8313146
vn -0.7109447 -0.00763324 0.7032065
vn 0.6925995 -0.1351312 0.7085518
vn -0.8333559 0.004632906 0.5527174
vn 0.6951258 -0.1353611 0.7060295
vn -0.8347724 0.004791667 0.5505742
vn 0.8187988 -0.1454567 0.5553476
vn -0.9239573 0.01400342 0.3822392
vn 0.8203554 -0.1455655 0.553017
vn -0.924665 0.0140675 0.3805215
vn 0.9105646 -0.1526509 0.3841483
vn -0.9801953 0.01795297 0.1972176
vn 0.9112728 -0.1527155 0.3824393
vn -0.9804103 0.01795954 0.1961457
vn 0.9671919 -0.1589796 0.198155
vn -0.999828 0.01854477 6.220379E-06
vn 0.9673556 -0.1590045 0.1973339
vn -0.999828 0.01854477 8.405087E-07
vn 0.986796 -0.1619676 1.050301E-05
vn -0.9801964 0.01795686 -0.1972119
vn 0.986796 -0.1619676 1.422508E-05
vn -0.9804104 0.01796328 -0.1961449
vn 0.9671898 -0.1589856 -0.1981606
vn -0.9239573 0.01400508 -0.3822388
vn 0.9673535 -0.1590105 -0.1973395
vn -0.9246644 0.01406932 -0.3805231
vn 0.9105642 -0.1526629 -0.3841444
vn -0.8333566 0.004621225 -0.5527164
vn 0.9112704 -0.1527273 -0.3824404
vn -0.8347694 0.004779601 -0.5505788
vn 0.8188081 -0.1454714 -0.5553299
vn -0.7084191 -0.007856635 -0.7057483
vn 0.8203634 -0.14558 -0.5530013
vn -0.7109466 -0.007627826 -0.7032046
vn 0.6925834 -0.135127 -0.7085683
vn -0.5558866 -0.02047838 -0.8310059
vn 0.6951084 -0.1353574 -0.7060472
vn -0.5593452 -0.02021393 -0.8286884
vn 0.5393777 -0.1199439 -0.8334778
vn -0.386162 -0.03474521 -0.9217764
vn 0.5426083 -0.1202846 -0.831329
vn -0.3902655 -0.03437311 -0.9200605
vn 0.3689924 -0.1033039 -0.9236736
vn -0.2025013 -0.05260532 -0.9778681
vn 0.3730941 -0.1036766 -0.9219826
vn -0.207007 -0.05214075 -0.976949
vn 0.1843114 -0.08772761 -0.978945
vn -0.006790871 -0.07154113 -0.9974145
vn 0.1890762 -0.08810191 -0.9780021
vn -0.0118136 -0.07108514 -0.9974003
vn -0.4713582 -0.6928464 0.545697
vn -0.4698972 -0.692762 0.5470625
vn -0.5550299 -0.6909767 0.4631338
vn -0.3521129 -0.6983744 0.623129
vn -0.5559869 -0.6908703 0.4621437
vn -0.3497498 -0.6986368 0.6241648
vn -0.6346659 -0.6747086 0.3767858
vn -0.2157864 -0.7211485 0.6583167
vn -0.6355256 -0.674449 0.3758004
vn -0.213669 -0.7216601 0.6584467
vn -0.7069883 -0.6591432 0.2563158
vn -0.09777633 -0.7422833 0.6629142
vn -0.707406 -0.6590973 0.2552794
vn -0.09597098 -0.742487 0.66295
vn -0.7391487 -0.6630507 0.1184187
vn 0.02278986 -0.7482392 0.6630375
vn -0.7391748 -0.6631072 0.1179383
vn 0.02500966 -0.7482117 0.6629885
vn -0.7421731 -0.6702082 1.315557E-06
vn 0.1640381 -0.7562235 0.6334174
vn -0.7421731 -0.6702082 3.55061E-06
vn 0.1662695 -0.7564758 0.6325336
vn -0.7391487 -0.6630526 -0.1184082
vn 0.2866328 -0.777951 0.5591369
vn -0.7391749 -0.6631093 -0.1179257
vn 0.2878426 -0.7783021 0.5580255
vn -0.7069762 -0.659152 -0.2563265
vn 0.3740574 -0.7959681 0.4759368
vn -0.707395 -0.659106 -0.2552873
vn 0.3749003 -0.7960644 0.4751118
vn -0.6346613 -0.6747109 -0.3767893
vn 0.4604665 -0.7979121 0.3889821
vn -0.6355267 -0.6744494 -0.3757974
vn 0.4613048 -0.7978538 0.3881073
vn -0.555029 -0.6909906 -0.4631143
vn 0.5397106 -0.7988459 0.2656268
vn -0.5559834 -0.6908841 -0.4621272
vn 0.540075 -0.7988874 0.2647598
vn -0.4698808 -0.6927819 -0.5470513
vn 0.5724792 -0.8106458 0.1229668
vn -0.471343 -0.6928666 -0.5456845
vn 0.5724876 -0.8106853 0.122668
vn -0.3497445 -0.6986507 -0.6241523
vn 0.5739235 -0.8189089 3.141796E-07
vn -0.3521112 -0.6983878 -0.6231149
vn 0.5739236 -0.8189089 -2.472234E-06
vn -0.2136358 -0.7216583 -0.6584596
vn 0.5724682 -0.8106534 -0.1229685
vn -0.2157629 -0.7211451 -0.6583283
vn 0.5724767 -0.810694 -0.122661
vn -0.09594781 -0.7424794 -0.6629618
vn 0.5397067 -0.7988492 -0.2656253
vn -0.09775287 -0.7422754 -0.6629267
vn 0.540072 -0.7988908 -0.2647559
vn 0.02497669 -0.748226 -0.6629735
vn 0.4604643 -0.7979157 -0.3889771
vn 0.02276041 -0.7482532 -0.6630227
vn 0.461306 -0.7978572 -0.3880988
vn 0.1662424 -0.7564824 -0.632533
vn 0.3740701 -0.7959641 -0.4759333
vn 0.1640134 -0.756231 -0.6334149
vn 0.3749087 -0.7960601 -0.4751122
vn 0.2878552 -0.7782864 -0.558041
vn 0.2866476 -0.777936 -0.55915
g KK-Nail_1_0
f 3/3/3 2/2/2 1/1/1
f 1/1/1 2/2/2 4/4/4
f 5/5/5 2/2/2 3/3/3
f 4/4/4 2/2/2 6/6/6
f 7/7/7 2/2/2 5/5/5
f 6/6/6 2/2/2 8/8/8
f 9/9/9 2/2/2 7/7/7
f 8/8/8 2/2/2 10/10/10
f 11/11/11 2/2/2 9/9/9
f 10/10/10 2/2/2 12/12/12
f 13/13/13 2/2/2 11/11/11
f 12/12/12 2/2/2 14/14/14
f 15/15/15 2/2/2 13/13/13
f 14/14/14 2/2/2 16/16/16
f 17/17/17 2/2/2 15/15/15
f 16/16/16 2/2/2 18/18/18
f 19/19/19 2/2/2 17/17/17
f 18/18/18 2/2/2 20/20/20
f 21/21/21 2/2/2 19/19/19
f 20/20/20 2/2/2 22/22/22
f 23/23/23 2/2/2 21/21/21
f 22/22/22 2/2/2 24/24/24
f 25/25/25 2/2/2 23/23/23
f 24/24/24 2/2/2 26/26/26
f 27/27/27 2/2/2 25/25/25
f 26/26/26 2/2/2 28/28/28
f 29/29/29 2/2/2 27/27/27
f 28/28/28 2/2/2 30/30/30
f 31/31/31 2/2/2 29/29/29
f 30/30/30 2/2/2 32/32/32
f 33/33/33 2/2/2 31/31/31
f 32/32/32 2/2/2 33/33/33
f 36/36/36 35/35/35 34/34/34
f 37/37/37 36/36/36 34/34/34
f 34/34/34 35/35/35 38/38/38
f 39/39/39 36/36/36 37/37/37
f 35/35/35 40/40/40 38/38/38
f 41/41/41 39/39/39 37/37/37
f 38/38/38 40/40/40 42/42/42
f 43/43/43 39/39/39 41/41/41
f 40/40/40 44/44/44 42/42/42
f 45/45/45 43/43/43 41/41/41
f 42/42/42 44/44/44 46/46/46
f 47/47/47 43/43/43 45/45/45
f 44/44/44 48/48/48 46/46/46
f 49/49/49 47/47/47 45/45/45
f 46/46/46 48/48/48 50/50/50
f 51/51/51 47/47/47 49/49/49
f 48/48/48 52/52/52 50/50/50
f 53/53/53 51/51/51 49/49/49
f 50/50/50 52/52/52 54/54/54
f 55/55/55 51/51/51 53/53/53
f 52/52/52 56/56/56 54/54/54
f 57/57/57 55/55/55 53/53/53
f 54/54/54 56/56/56 58/58/58
f 59/59/59 55/55/55 57/57/57
f 56/56/56 60/60/60 58/58/58
f 61/61/61 59/59/59 57/57/57
f 58/58/58 60/60/60 62/62/62
f 63/63/63 59/59/59 61/61/61
f 60/60/60 64/64/64 62/62/62
f 65/65/65 63/63/63 61/61/61
f 62/62/62 64/64/64 66/66/66
f 67/67/67 63/63/63 65/65/65
f 64/64/64 68/68/68 66/66/66
f 69/69/69 67/67/67 65/65/65
f 66/66/66 68/68/68 70/70/70
f 71/71/71 67/67/67 69/69/69
f 68/68/68 72/72/72 70/70/70
f 73/73/73 71/71/71 69/69/69
f 70/70/70 72/72/72 74/74/74
f 75/75/75 71/71/71 73/73/73
f 72/72/72 76/76/76 74/74/74
f 77/77/77 75/75/75 73/73/73
f 74/74/74 76/76/76 78/78/78
f 79/79/79 75/75/75 77/77/77
f 76/76/76 80/80/80 78/78/78
f 81/81/81 79/79/79 77/77/77
f 78/78/78 80/80/80 82/82/82
f 83/83/83 79/79/79 81/81/81
f 80/80/80 84/84/84 82/82/82
f 85/85/85 83/83/83 81/81/81
f 82/82/82 84/84/84 86/86/86
f 87/87/87 83/83/83 85/85/85
f 84/84/84 88/88/88 86/86/86
f 89/89/89 87/87/87 85/85/85
f 86/86/86 88/88/88 90/90/90
f 91/91/91 87/87/87 89/89/89
f 88/88/88 92/92/92 90/90/90
f 93/93/93 91/91/91 89/89/89
f 90/90/90 92/92/92 94/94/94
f 95/95/95 91/91/91 93/93/93
f 92/92/92 96/96/96 94/94/94
f 97/97/97 95/95/95 93/93/93
f 94/94/94 96/96/96 97/97/97
f 96/96/96 95/95/95 97/97/97
f 100/100/100 99/99/99 98/98/98
f 98/98/98 99/99/99 101/101/101
f 102/102/102 100/100/100 98/98/98
f 99/99/99 103/103/103 101/101/101
f 104/104/104 100/100/100 102/102/102
f 101/101/101 103/103/103 105/105/105
f 106/106/106 104/104/104 102/102/102
f 103/103/103 107/107/107 105/105/105
f 108/108/108 104/104/104 106/106/106
f 105/105/105 107/107/107 109/109/109
f 110/110/110 108/108/108 106/106/106
f 107/107/107 111/111/111 109/109/109
f 112/112/112 108/108/108 110/110/110
f 109/109/109 111/111/111 113/113/113
f 114/114/114 112/112/112 110/110/110
f 111/111/111 115/115/115 113/113/113
f 116/116/116 112/112/112 114/114/114
f 113/113/113 115/115/115 117/117/117
f 118/118/118 116/116/116 114/114/114
f 115/115/115 119/119/119 117/117/117
f 120/120/120 116/116/116 118/118/118
f 117/117/117 119/119/119 121/121/121
f 122/122/122 120/120/120 118/118/118
f 119/119/119 123/123/123 121/121/121
f 124/124/124 120/120/120 122/122/122
f 121/121/121 123/123/123 125/125/125
f 126/126/126 124/124/124 122/122/122
f 123/123/123 127/127/127 125/125/125
f 128/128/128 124/124/124 126/126/126
f 125/125/125 127/127/127 129/129/129
f 130/130/130 128/128/128 126/126/126
f 127/127/127 131/131/131 129/129/129
f 132/132/132 128/128/128 130/130/130
f 129/129/129 131/131/131 133/133/133
f 134/134/134 132/132/132 130/130/130
f 131/131/131 135/135/135 133/133/133
f 136/136/136 132/132/132 134/134/134
f 133/133/133 135/135/135 137/137/137
f 138/138/138 136/136/136 134/134/134
f 135/135/135 139/139/139 137/137/137
f 140/140/140 136/136/136 138/138/138
f 137/137/137 139/139/139 141/141/141
f 142/142/142 140/140/140 138/138/138
f 139/139/139 143/143/143 141/141/141
f 144/144/144 140/140/140 142/142/142
f 141/141/141 143/143/143 145/145/145
f 146/146/146 144/144/144 142/142/142
f 143/143/143 147/147/147 145/145/145
f 148/148/148 144/144/144 146/146/146
f 145/145/145 147/147/147 149/149/149
f 150/150/150 148/148/148 146/146/146
f 147/147/147 151/151/151 149/149/149
f 152/152/152 148/148/148 150/150/150
f 149/149/149 151/151/151 153/153/153
f 154/154/154 152/152/152 150/150/150
f 151/151/151 155/155/155 153/153/153
f 156/156/156 152/152/152 154/154/154
f 153/153/153 155/155/155 157/157/157
f 158/158/158 156/156/156 154/154/154
f 155/155/155 159/159/159 157/157/157
f 160/160/160 156/156/156 158/158/158
f 157/157/157 159/159/159 161/161/161
f 161/161/161 160/160/160 158/158/158
f 159/159/159 160/160/160 161/161/161
