g KK-Nail_7
v -6.492486 -1.437441 -0.09369629
v -6.481184 -1.449511 -0.1686517
v -6.503211 -1.425986 -0.09746399
v -6.481184 -1.449511 -0.09274353
v -6.512786 -1.415761 -0.1049518
v -6.469884 -1.461581 -0.0936969
v -6.521279 -1.406688 -0.1149762
v -6.459157 -1.473035 -0.09746399
v -6.528768 -1.398691 -0.1263483
v -6.449584 -1.483261 -0.104953
v -6.534362 -1.392717 -0.1391644
v -6.441089 -1.492333 -0.1149762
v -6.537176 -1.389711 -0.1535235
v -6.433601 -1.50033 -0.1263483
v -6.537888 -1.38895 -0.1686517
v -6.428008 -1.506305 -0.1391638
v -6.537175 -1.389711 -0.1837799
v -6.425194 -1.509311 -0.1535235
v -6.534362 -1.392717 -0.198139
v -6.424482 -1.510071 -0.1686517
v -6.528768 -1.398692 -0.2109552
v -6.425194 -1.509311 -0.1837799
v -6.52128 -1.406688 -0.2223273
v -6.428007 -1.506305 -0.198139
v -6.512785 -1.415761 -0.2323505
v -6.433602 -1.50033 -0.2109552
v -6.503211 -1.425986 -0.2398395
v -6.441089 -1.492333 -0.2223273
v -6.492486 -1.437441 -0.2436066
v -6.449584 -1.483261 -0.2323505
v -6.481185 -1.449511 -0.2445599
v -6.459157 -1.473036 -0.2398395
v -6.469883 -1.461581 -0.2436066
v -6.458777 -1.419297 -0.07780457
v -6.475037 -1.441222 -0.0799469
v -6.487959 -1.427423 -0.08167663
v -6.471982 -1.405194 -0.07963501
v -6.445572 -1.433401 -0.07963501
v -6.500389 -1.414146 -0.08671692
v -6.462117 -1.455022 -0.08167663
v -6.484704 -1.391607 -0.08485778
v -6.432851 -1.446988 -0.08485901
v -6.511843 -1.401913 -0.09491943
v -6.449686 -1.468298 -0.08671692
v -6.49646 -1.379053 -0.0932074
v -6.421097 -1.459543 -0.0932074
v -6.521893 -1.39118 -0.1059265
v -6.438232 -1.48053 -0.09492004
v -6.506764 -1.368047 -0.1044122
v -6.410791 -1.470548 -0.1044122
v -6.530115 -1.382398 -0.1193817
v -6.428184 -1.491264 -0.1059265
v -6.515135 -1.359108 -0.1182074
v -6.402421 -1.479487 -0.1182074
v -6.536243 -1.375854 -0.1347137
v -6.419959 -1.500046 -0.1193811
v -6.52137 -1.352447 -0.1339429
v -6.396183 -1.486148 -0.1339435
v -6.540009 -1.371832 -0.1513544
v -6.413834 -1.50659 -0.1347137
v -6.525272 -1.348279 -0.1509747
v -6.392282 -1.490315 -0.1509735
v -6.5413 -1.370452 -0.1686517
v -6.410068 -1.510612 -0.151355
v -6.52664 -1.346818 -0.1686517
v -6.390914 -1.491776 -0.1686517
v -6.540008 -1.371833 -0.1859491
v -6.408775 -1.511992 -0.1686517
v -6.525273 -1.348279 -0.1863299
v -6.392282 -1.490316 -0.1863299
v -6.536242 -1.375854 -0.2025897
v -6.410067 -1.510612 -0.1859491
v -6.52137 -1.352447 -0.2033588
v -6.396184 -1.486148 -0.2033588
v -6.530115 -1.382398 -0.2179217
v -6.413832 -1.50659 -0.2025897
v -6.515133 -1.359107 -0.2190955
v -6.40242 -1.479487 -0.2190948
v -6.521894 -1.391181 -0.2313757
v -6.419961 -1.500046 -0.2179211
v -6.506763 -1.368047 -0.23289
v -6.410791 -1.470548 -0.23289
v -6.511843 -1.401914 -0.2423834
v -6.428183 -1.491264 -0.2313745
v -6.496459 -1.379053 -0.2440961
v -6.421095 -1.459542 -0.2440961
v -6.500389 -1.414146 -0.2505865
v -6.438233 -1.48053 -0.242384
v -6.484704 -1.391607 -0.2524444
v -6.432851 -1.446988 -0.2524444
v -6.487959 -1.427423 -0.2556262
v -6.449685 -1.468298 -0.2505865
v -6.471982 -1.405194 -0.2576672
v -6.445572 -1.433401 -0.2576678
v -6.475037 -1.441222 -0.2573566
v -6.462117 -1.455022 -0.2556268
v -6.458776 -1.419297 -0.2594977
v -6.511843 -1.401913 -0.09491943
v -6.512786 -1.415761 -0.1049518
v -6.521279 -1.406688 -0.1149762
v -6.500389 -1.414146 -0.08671692
v -6.521893 -1.39118 -0.1059265
v -6.503211 -1.425986 -0.09746399
v -6.528768 -1.398691 -0.1263483
v -6.487959 -1.427423 -0.08167663
v -6.530115 -1.382398 -0.1193817
v -6.492486 -1.437441 -0.09369629
v -6.534362 -1.392717 -0.1391644
v -6.475037 -1.441222 -0.0799469
v -6.536243 -1.375854 -0.1347137
v -6.481184 -1.449511 -0.09274353
v -6.537176 -1.389711 -0.1535235
v -6.462117 -1.455022 -0.08167663
v -6.540009 -1.371832 -0.1513544
v -6.469884 -1.461581 -0.0936969
v -6.537888 -1.38895 -0.1686517
v -6.449686 -1.468298 -0.08671692
v -6.5413 -1.370452 -0.1686517
v -6.459157 -1.473035 -0.09746399
v -6.537175 -1.389711 -0.1837799
v -6.438232 -1.48053 -0.09492004
v -6.540008 -1.371833 -0.1859491
v -6.449584 -1.483261 -0.104953
v -6.534362 -1.392717 -0.198139
v -6.428184 -1.491264 -0.1059265
v -6.536242 -1.375854 -0.2025897
v -6.441089 -1.492333 -0.1149762
v -6.528768 -1.398692 -0.2109552
v -6.419959 -1.500046 -0.1193811
v -6.530115 -1.382398 -0.2179217
v -6.433601 -1.50033 -0.1263483
v -6.52128 -1.406688 -0.2223273
v -6.413834 -1.50659 -0.1347137
v -6.521894 -1.391181 -0.2313757
v -6.428008 -1.506305 -0.1391638
v -6.512785 -1.415761 -0.2323505
v -6.410068 -1.510612 -0.151355
v -6.511843 -1.401914 -0.2423834
v -6.425194 -1.509311 -0.1535235
v -6.503211 -1.425986 -0.2398395
v -6.408775 -1.511992 -0.1686517
v -6.500389 -1.414146 -0.2505865
v -6.424482 -1.510071 -0.1686517
v -6.492486 -1.437441 -0.2436066
v -6.410067 -1.510612 -0.1859491
v -6.487959 -1.427423 -0.2556262
v -6.425194 -1.509311 -0.1837799
v -6.481185 -1.449511 -0.2445599
v -6.413832 -1.50659 -0.2025897
v -6.475037 -1.441222 -0.2573566
v -6.428007 -1.506305 -0.198139
v -6.469883 -1.461581 -0.2436066
v -6.419961 -1.500046 -0.2179211
v -6.462117 -1.455022 -0.2556268
v -6.433602 -1.50033 -0.2109552
v -6.459157 -1.473036 -0.2398395
v -6.428183 -1.491264 -0.2313745
v -6.449685 -1.468298 -0.2505865
v -6.441089 -1.492333 -0.2223273
v -6.449584 -1.483261 -0.2323505
v -6.438233 -1.48053 -0.242384
vt 0.9809628 0.01948287
vt 0.9824941 0.01236037
vt 0.9794641 0.01912299
vt 0.9825459 0.01956473
vt 0.9781232 0.01841305
vt 0.9841204 0.0194404
vt 0.9769373 0.01745247
vt 0.9855922 0.0190423
vt 0.975908 0.01635936
vt 0.9868904 0.01831206
vt 0.9751487 0.01514012
vt 0.9880293 0.01734968
vt 0.9747592 0.01378705
vt 0.9890058 0.01626273
vt 0.9746521 0.01236037
vt 0.9897339 0.0150724
vt 0.9747592 0.01093309
vt 0.9900882 0.01374992
vt 0.9751487 0.009580196
vt 0.9901709 0.01236053
vt 0.975908 0.008361307
vt 0.9900882 0.01097116
vt 0.9769373 0.007267618
vt 0.9897342 0.009648636
vt 0.9781232 0.006307887
vt 0.9890059 0.008458468
vt 0.9794641 0.005597266
vt 0.9880294 0.007371133
vt 0.9809629 0.005237516
vt 0.9868906 0.006408567
vt 0.9825459 0.005155762
vt 0.9855924 0.005678219
vt 0.9841205 0.005280117
vt 0.9817737 0.02422007
vt 0.9823747 0.0211653
vt 0.9804845 0.02100596
vt 0.9793168 0.0238958
vt 0.9842579 0.02407102
vt 0.9786681 0.02049522
vt 0.9842537 0.02096681
vt 0.9769845 0.02311719
vt 0.9866698 0.02345357
vt 0.9770065 0.01965557
vt 0.9860413 0.02042698
vt 0.9748772 0.02192673
vt 0.9889069 0.02239206
vt 0.9755666 0.01853399
vt 0.9876633 0.01957164
vt 0.9730815 0.02038909
vt 0.9908729 0.02093403
vt 0.9744052 0.01718179
vt 0.9890584 0.01844894
vt 0.9716637 0.01857648
vt 0.9924997 0.01913904
vt 0.9735561 0.01566165
vt 0.9901813 0.01710923
vt 0.9706548 0.01657224
vt 0.9937372 0.01706991
vt 0.9730389 0.01403586
vt 0.9910125 0.01561707
vt 0.9700705 0.01447074
vt 0.9945363 0.01479052
vt 0.9728491 0.01236037
vt 0.991497 0.01401469
vt 0.9699029 0.01236037
vt 0.9948619 0.01236074
vt 0.9730389 0.0106847
vt 0.9916341 0.01236053
vt 0.9700706 0.01024945
vt 0.9945365 0.009930965
vt 0.9735559 0.009058985
vt 0.9914972 0.01070596
vt 0.9706548 0.00814825
vt 0.9937376 0.007651427
vt 0.9744052 0.007538398
vt 0.9910128 0.009103618
vt 0.9716635 0.006144347
vt 0.9925004 0.005582483
vt 0.9755666 0.006186397
vt 0.9901815 0.007612197
vt 0.9730814 0.004331413
vt 0.9908736 0.003787033
vt 0.9770065 0.005064922
vt 0.9890589 0.006271982
vt 0.9748769 0.002793668
vt 0.9889077 0.002328623
vt 0.978668 0.004225197
vt 0.9876636 0.005149261
vt 0.9769843 0.001603173
vt 0.9866706 0.001266995
vt 0.9804846 0.003714496
vt 0.9860417 0.004293608
vt 0.9793167 0.0008242149
vt 0.9842583 0.0006493206
vt 0.9823747 0.003554741
vt 0.984254 0.00375377
vt 0.9817737 0.0005
vt 0.9770065 0.01965557
vt 0.9781232 0.01841305
vt 0.9769373 0.01745247
vt 0.9786681 0.02049522
vt 0.9755666 0.01853399
vt 0.9794641 0.01912299
vt 0.975908 0.01635936
vt 0.9804845 0.02100596
vt 0.9744052 0.01718179
vt 0.9809628 0.01948287
vt 0.9751487 0.01514012
vt 0.9823747 0.0211653
vt 0.9735561 0.01566165
vt 0.9825459 0.01956473
vt 0.9747592 0.01378705
vt 0.9842537 0.02096681
vt 0.9730389 0.01403586
vt 0.9841204 0.0194404
vt 0.9746521 0.01236037
vt 0.9860413 0.02042698
vt 0.9728491 0.01236037
vt 0.9855922 0.0190423
vt 0.9747592 0.01093309
vt 0.9876633 0.01957164
vt 0.9730389 0.0106847
vt 0.9868904 0.01831206
vt 0.9751487 0.009580196
vt 0.9890584 0.01844894
vt 0.9735559 0.009058985
vt 0.9880293 0.01734968
vt 0.975908 0.008361307
vt 0.9901813 0.01710923
vt 0.9744052 0.007538398
vt 0.9890058 0.01626273
vt 0.9769373 0.007267618
vt 0.9910125 0.01561707
vt 0.9755666 0.006186397
vt 0.9897339 0.0150724
vt 0.9781232 0.006307887
vt 0.991497 0.01401469
vt 0.9770065 0.005064922
vt 0.9900882 0.01374992
vt 0.9794641 0.005597266
vt 0.9916341 0.01236053
vt 0.978668 0.004225197
vt 0.9901709 0.01236053
vt 0.9809629 0.005237516
vt 0.9914972 0.01070596
vt 0.9804846 0.003714496
vt 0.9900882 0.01097116
vt 0.9825459 0.005155762
vt 0.9910128 0.009103618
vt 0.9823747 0.003554741
vt 0.9897342 0.009648636
vt 0.9841205 0.005280117
vt 0.9901815 0.007612197
vt 0.984254 0.00375377
vt 0.9890059 0.008458468
vt 0.9855924 0.005678219
vt 0.9890589 0.006271982
vt 0.9860417 0.004293608
vt 0.9880294 0.007371133
vt 0.9868906 0.006408567
vt 0.9876636 0.005149261
vn -0.7299642 -0.6834853 1.886482E-06
vn -0.7299643 -0.6834853 1.886482E-06
vn -0.7299642 -0.6834853 1.886482E-06
vn -0.7299803 -0.683468 -4.217148E-06
vn -0.7299483 -0.6835024 1.251274E-05
vn -0.7299299 -0.683522 -2.055921E-05
vn -0.7300024 -0.6834446 -4.492531E-05
vn -0.7300107 -0.6834357 3.303284E-05
vn -0.7299404 -0.6835108 5.417258E-05
vn -0.7299405 -0.6835107 -4.148664E-05
vn -0.7299706 -0.6834785 -1.861547E-05
vn -0.7299723 -0.6834767 9.231858E-06
vn -0.7299687 -0.6834806 -1.091404E-05
vn -0.7299819 -0.6834664 3.2477E-05
vn -0.7299687 -0.6834806 -1.219324E-05
vn -0.7299793 -0.6834692 2.288629E-05
vn -0.7299687 -0.6834806 -4.670711E-05
vn -0.7299754 -0.6834734 -9.153987E-06
vn -0.7299831 -0.6834651 6.689073E-05
vn -0.7299754 -0.6834735 9.15399E-06
vn -0.729965 -0.6834844 -2.829824E-06
vn -0.7299849 -0.6834633 -6.61498E-05
vn -0.7299685 -0.6834809 5.394758E-06
vn -0.7299577 -0.6834923 3.884731E-05
vn -0.7299621 -0.6834876 -4.881903E-06
vn -0.7299781 -0.6834706 -1.021962E-05
vn -0.7299501 -0.6835005 -1.757507E-05
vn -0.7299751 -0.6834737 -5.489923E-06
vn -0.7299828 -0.6834656 4.061879E-06
vn -0.7299777 -0.6834708 -8.23896E-06
vn -0.7299886 -0.6834593 5.964712E-06
vn -0.729956 -0.6834942 6.169753E-06
vn -0.7299566 -0.6834936 5.962726E-06
vn -0.06576975 -0.04720568 0.9967175
vn -0.04852628 -0.06002286 0.9970168
vn -0.1954651 0.05036969 0.9794164
vn -0.2113578 0.06247181 0.9754102
vn 0.08332333 -0.156834 0.9841038
vn -0.3349536 0.1550838 0.9293842
vn 0.09955109 -0.1686037 0.9806439
vn -0.3498239 0.1660429 0.9219832
vn 0.2263226 -0.2620588 0.9381382
vn -0.4688935 0.2522347 0.846473
vn 0.2407171 -0.2728475 0.9314556
vn -0.4819371 0.2615025 0.8362734
vn 0.3608497 -0.3645486 0.858424
vn -0.59383 0.3420642 0.7282568
vn 0.3727657 -0.3738161 0.8492982
vn -0.6040719 0.3495537 0.7161769
vn 0.4865319 -0.4611293 0.7420557
vn -0.6993386 0.4206048 0.5779422
vn 0.4961486 -0.4683954 0.7310556
vn -0.7055634 0.4253607 0.566788
vn 0.5965835 -0.5428196 0.5911303
vn -0.7785384 0.4800004 0.4043236
vn 0.6027372 -0.5472711 0.5806911
vn -0.7817332 0.4823289 0.3952872
vn 0.6802433 -0.6045231 0.4145128
vn -0.8303071 0.5161346 0.2102262
vn 0.6832219 -0.6067848 0.4062265
vn -0.8312532 0.5167388 0.2049366
vn 0.732361 -0.6457844 0.2158933
vn -0.849155 0.5281437 -6.518429E-06
vn 0.7331163 -0.6464334 0.2113398
vn -0.849155 0.5281437 -6.703378E-06
vn 0.750245 -0.6611599 1.94347E-05
vn -0.8303245 0.5160975 -0.2102487
vn 0.750245 -0.6611599 2.01365E-05
vn -0.8312698 0.5167017 -0.2049629
vn 0.7323706 -0.6457746 -0.2158901
vn -0.7785416 0.4799847 -0.4043359
vn 0.7331252 -0.6464239 -0.2113372
vn -0.7817401 0.4823121 -0.3952941
vn 0.6802361 -0.6045016 -0.4145562
vn -0.6993206 0.4206225 -0.577951
vn 0.6832148 -0.6067617 -0.4062731
vn -0.7055486 0.425379 -0.5667926
vn 0.5965593 -0.5428268 -0.5911481
vn -0.5938193 0.3420871 -0.7282548
vn 0.6027103 -0.5472735 -0.5807168
vn -0.6040552 0.3495741 -0.716181
vn 0.4865433 -0.4611706 -0.7420224
vn -0.4688939 0.2522562 -0.8464664
vn 0.4961595 -0.4684381 -0.7310208
vn -0.4819371 0.2615236 -0.8362667
vn 0.3608712 -0.3645701 -0.8584058
vn -0.3349274 0.1550948 -0.9293919
vn 0.3727875 -0.3738407 -0.8492777
vn -0.349802 0.1660556 -0.9219892
vn 0.2263195 -0.2620424 -0.9381435
vn -0.1954416 0.0503917 -0.9794199
vn 0.240714 -0.272832 -0.9314609
vn -0.211332 0.06249151 -0.9754146
vn 0.08332817 -0.1568074 -0.9841076
vn -0.04851622 -0.05998945 -0.9970193
vn 0.09955477 -0.1685788 -0.9806477
vn -0.06575862 -0.047173 -0.9967199
vn -0.8067548 -0.3105068 0.5027248
vn -0.7998368 -0.3145161 0.5112149
vn -0.8601011 -0.2735941 0.430549
vn -0.7261485 -0.3693708 0.579891
vn -0.8645552 -0.2698999 0.4239084
vn -0.7172789 -0.3770267 0.5859709
vn -0.9089046 -0.2258209 0.3505674
vn -0.6412235 -0.4522448 0.619925
vn -0.9126316 -0.2214021 0.3436347
vn -0.634938 -0.4596054 0.6209804
vn -0.9539161 -0.1807057 0.2395613
vn -0.5689711 -0.5282913 0.6302222
vn -0.9560612 -0.1789967 0.2321793
vn -0.5638852 -0.5329884 0.6308382
vn -0.9795516 -0.1682168 0.1103715
vn -0.4858099 -0.5966043 0.6387895
vn -0.9798781 -0.1684289 0.1071011
vn -0.4800215 -0.6007894 0.6392429
vn -0.9850844 -0.1720723 -3.619566E-05
vn -0.3863228 -0.6811998 0.6218694
vn -0.9850844 -0.1720723 -3.548359E-05
vn -0.3822004 -0.6852252 0.6199915
vn -0.979552 -0.1682008 -0.1103924
vn -0.3075686 -0.7706037 0.5581859
vn -0.9798781 -0.1684141 -0.1071242
vn -0.3064027 -0.7723104 0.5564658
vn -0.9539259 -0.1806796 -0.2395417
vn -0.2522008 -0.8394736 0.4813303
vn -0.9560707 -0.1789702 -0.2321607
vn -0.2517854 -0.8399071 0.4807912
vn -0.9089191 -0.2257992 -0.3505435
vn -0.1850029 -0.8979307 0.3993675
vn -0.9126456 -0.2213801 -0.3436115
vn -0.1848132 -0.8980684 0.3991458
vn -0.8600925 -0.2736006 -0.4305622
vn -0.1215384 -0.9532522 0.2766562
vn -0.864553 -0.2699006 -0.4239126
vn -0.1215702 -0.9532181 0.27676
vn -0.7998307 -0.3145358 -0.5112122
vn -0.1032579 -0.9862589 0.1289625
vn -0.8067414 -0.3105289 -0.5027325
vn -0.1032327 -0.986214 0.1293251
vn -0.7172833 -0.3770405 -0.5859566
vn -0.1080517 -0.9941453 1.234431E-06
vn -0.7261579 -0.3693837 -0.579871
vn -0.1080517 -0.9941453 1.999781E-06
vn -0.6349384 -0.4595936 -0.6209887
vn -0.1032713 -0.9862561 -0.1289734
vn -0.6412203 -0.4522381 -0.6199333
vn -0.1032465 -0.9862118 -0.1293309
vn -0.5638921 -0.5329762 -0.6308423
vn -0.1215407 -0.9532508 -0.27666
vn -0.5689771 -0.5282787 -0.6302274
vn -0.1215733 -0.9532157 -0.2767666
vn -0.480019 -0.6007894 -0.6392447
vn -0.1849686 -0.8979275 -0.3993903
vn -0.4858089 -0.5966038 -0.6387908
vn -0.1847817 -0.8980633 -0.3991718
vn -0.3822089 -0.6852228 -0.6199887
vn -0.2521551 -0.8394764 -0.4813494
vn -0.38633 -0.6811979 -0.621867
vn -0.251743 -0.8399062 -0.4808152
vn -0.3063892 -0.7723239 -0.5564543
vn -0.3075591 -0.7706128 -0.5581785
g KK-Nail_7_0
f 3/3/3 2/2/2 1/1/1
f 1/1/1 2/2/2 4/4/4
f 5/5/5 2/2/2 3/3/3
f 4/4/4 2/2/2 6/6/6
f 7/7/7 2/2/2 5/5/5
f 6/6/6 2/2/2 8/8/8
f 9/9/9 2/2/2 7/7/7
f 8/8/8 2/2/2 10/10/10
f 11/11/11 2/2/2 9/9/9
f 10/10/10 2/2/2 12/12/12
f 13/13/13 2/2/2 11/11/11
f 12/12/12 2/2/2 14/14/14
f 15/15/15 2/2/2 13/13/13
f 14/14/14 2/2/2 16/16/16
f 17/17/17 2/2/2 15/15/15
f 16/16/16 2/2/2 18/18/18
f 19/19/19 2/2/2 17/17/17
f 18/18/18 2/2/2 20/20/20
f 21/21/21 2/2/2 19/19/19
f 20/20/20 2/2/2 22/22/22
f 23/23/23 2/2/2 21/21/21
f 22/22/22 2/2/2 24/24/24
f 25/25/25 2/2/2 23/23/23
f 24/24/24 2/2/2 26/26/26
f 27/27/27 2/2/2 25/25/25
f 26/26/26 2/2/2 28/28/28
f 29/29/29 2/2/2 27/27/27
f 28/28/28 2/2/2 30/30/30
f 31/31/31 2/2/2 29/29/29
f 30/30/30 2/2/2 32/32/32
f 33/33/33 2/2/2 31/31/31
f 32/32/32 2/2/2 33/33/33
f 36/36/36 35/35/35 34/34/34
f 37/37/37 36/36/36 34/34/34
f 34/34/34 35/35/35 38/38/38
f 39/39/39 36/36/36 37/37/37
f 35/35/35 40/40/40 38/38/38
f 41/41/41 39/39/39 37/37/37
f 38/38/38 40/40/40 42/42/42
f 43/43/43 39/39/39 41/41/41
f 40/40/40 44/44/44 42/42/42
f 45/45/45 43/43/43 41/41/41
f 42/42/42 44/44/44 46/46/46
f 47/47/47 43/43/43 45/45/45
f 44/44/44 48/48/48 46/46/46
f 49/49/49 47/47/47 45/45/45
f 46/46/46 48/48/48 50/50/50
f 51/51/51 47/47/47 49/49/49
f 48/48/48 52/52/52 50/50/50
f 53/53/53 51/51/51 49/49/49
f 50/50/50 52/52/52 54/54/54
f 55/55/55 51/51/51 53/53/53
f 52/52/52 56/56/56 54/54/54
f 57/57/57 55/55/55 53/53/53
f 54/54/54 56/56/56 58/58/58
f 59/59/59 55/55/55 57/57/57
f 56/56/56 60/60/60 58/58/58
f 61/61/61 59/59/59 57/57/57
f 58/58/58 60/60/60 62/62/62
f 63/63/63 59/59/59 61/61/61
f 60/60/60 64/64/64 62/62/62
f 65/65/65 63/63/63 61/61/61
f 62/62/62 64/64/64 66/66/66
f 67/67/67 63/63/63 65/65/65
f 64/64/64 68/68/68 66/66/66
f 69/69/69 67/67/67 65/65/65
f 66/66/66 68/68/68 70/70/70
f 71/71/71 67/67/67 69/69/69
f 68/68/68 72/72/72 70/70/70
f 73/73/73 71/71/71 69/69/69
f 70/70/70 72/72/72 74/74/74
f 75/75/75 71/71/71 73/73/73
f 72/72/72 76/76/76 74/74/74
f 77/77/77 75/75/75 73/73/73
f 74/74/74 76/76/76 78/78/78
f 79/79/79 75/75/75 77/77/77
f 76/76/76 80/80/80 78/78/78
f 81/81/81 79/79/79 77/77/77
f 78/78/78 80/80/80 82/82/82
f 83/83/83 79/79/79 81/81/81
f 80/80/80 84/84/84 82/82/82
f 85/85/85 83/83/83 81/81/81
f 82/82/82 84/84/84 86/86/86
f 87/87/87 83/83/83 85/85/85
f 84/84/84 88/88/88 86/86/86
f 89/89/89 87/87/87 85/85/85
f 86/86/86 88/88/88 90/90/90
f 91/91/91 87/87/87 89/89/89
f 88/88/88 92/92/92 90/90/90
f 93/93/93 91/91/91 89/89/89
f 90/90/90 92/92/92 94/94/94
f 95/95/95 91/91/91 93/93/93
f 92/92/92 96/96/96 94/94/94
f 97/97/97 95/95/95 93/93/93
f 94/94/94 96/96/96 97/97/97
f 96/96/96 95/95/95 97/97/97
f 100/100/100 99/99/99 98/98/98
f 98/98/98 99/99/99 101/101/101
f 102/102/102 100/100/100 98/98/98
f 99/99/99 103/103/103 101/101/101
f 104/104/104 100/100/100 102/102/102
f 101/101/101 103/103/103 105/105/105
f 106/106/106 104/104/104 102/102/102
f 103/103/103 107/107/107 105/105/105
f 108/108/108 104/104/104 106/106/106
f 105/105/105 107/107/107 109/109/109
f 110/110/110 108/108/108 106/106/106
f 107/107/107 111/111/111 109/109/109
f 112/112/112 108/108/108 110/110/110
f 109/109/109 111/111/111 113/113/113
f 114/114/114 112/112/112 110/110/110
f 111/111/111 115/115/115 113/113/113
f 116/116/116 112/112/112 114/114/114
f 113/113/113 115/115/115 117/117/117
f 118/118/118 116/116/116 114/114/114
f 115/115/115 119/119/119 117/117/117
f 120/120/120 116/116/116 118/118/118
f 117/117/117 119/119/119 121/121/121
f 122/122/122 120/120/120 118/118/118
f 119/119/119 123/123/123 121/121/121
f 124/124/124 120/120/120 122/122/122
f 121/121/121 123/123/123 125/125/125
f 126/126/126 124/124/124 122/122/122
f 123/123/123 127/127/127 125/125/125
f 128/128/128 124/124/124 126/126/126
f 125/125/125 127/127/127 129/129/129
f 130/130/130 128/128/128 126/126/126
f 127/127/127 131/131/131 129/129/129
f 132/132/132 128/128/128 130/130/130
f 129/129/129 131/131/131 133/133/133
f 134/134/134 132/132/132 130/130/130
f 131/131/131 135/135/135 133/133/133
f 136/136/136 132/132/132 134/134/134
f 133/133/133 135/135/135 137/137/137
f 138/138/138 136/136/136 134/134/134
f 135/135/135 139/139/139 137/137/137
f 140/140/140 136/136/136 138/138/138
f 137/137/137 139/139/139 141/141/141
f 142/142/142 140/140/140 138/138/138
f 139/139/139 143/143/143 141/141/141
f 144/144/144 140/140/140 142/142/142
f 141/141/141 143/143/143 145/145/145
f 146/146/146 144/144/144 142/142/142
f 143/143/143 147/147/147 145/145/145
f 148/148/148 144/144/144 146/146/146
f 145/145/145 147/147/147 149/149/149
f 150/150/150 148/148/148 146/146/146
f 147/147/147 151/151/151 149/149/149
f 152/152/152 148/148/148 150/150/150
f 149/149/149 151/151/151 153/153/153
f 154/154/154 152/152/152 150/150/150
f 151/151/151 155/155/155 153/153/153
f 156/156/156 152/152/152 154/154/154
f 153/153/153 155/155/155 157/157/157
f 158/158/158 156/156/156 154/154/154
f 155/155/155 159/159/159 157/157/157
f 160/160/160 156/156/156 158/158/158
f 157/157/157 159/159/159 161/161/161
f 161/161/161 160/160/160 158/158/158
f 159/159/159 160/160/160 161/161/161
