g KK-PortholeWindow
v -2.462005 3.452576 3.686671
v -2.403354 3.432195 4.099281
v -2.541442 3.451158 3.706015
v -2.380314 3.45321 3.683182
v -2.615571 3.449011 3.740474
v -2.29951 3.453038 3.695685
v -2.681547 3.446217 3.78872
v -2.222695 3.452065 3.723694
v -2.736831 3.442886 3.848901
v -2.152823 3.450328 3.766141
v -2.779299 3.439142 3.918704
v -2.092579 3.447894 3.82139
v -2.807321 3.435133 3.995448
v -2.044278 3.444857 3.887316
v -2.819818 3.431011 4.076181
v -2.009776 3.441333 3.96139
v -2.81631 3.426934 4.157801
v -1.990398 3.437459 4.040761
v -2.796933 3.423059 4.237173
v -1.986891 3.433382 4.122382
v -2.762431 3.419536 4.311245
v -1.999388 3.42926 4.203115
v -2.71413 3.416498 4.377173
v -2.027409 3.42525 4.279858
v -2.653886 3.414065 4.432421
v -2.069877 3.421509 4.349662
v -2.584014 3.412329 4.474866
v -2.125162 3.418174 4.409843
v -2.507199 3.411355 4.502879
v -2.191137 3.415383 4.458089
v -2.426394 3.411181 4.515381
v -2.265266 3.413235 4.492548
v -2.344703 3.411818 4.511893
vt 0.631442 0.6770763
vt 0.4742754 0.6385207
vt 0.6209009 0.706997
vt 0.6359442 0.6456732
vt 0.604724 0.7342871
vt 0.6342336 0.6139962
vt 0.5835346 0.7578958
vt 0.6263757 0.5832621
vt 0.5581462 0.7769169
vt 0.6126721 0.5546504
vt 0.5295342 0.790621
vt 0.5936507 0.5292619
vt 0.4987991 0.7984779
vt 0.5700419 0.5080726
vt 0.4671216 0.8001893
vt 0.5427529 0.491896
vt 0.4357197 0.7956869
vt 0.5128318 0.4813539
vt 0.4057988 0.7851456
vt 0.4814297 0.476852
vt 0.3785092 0.7689685
vt 0.4497519 0.4785628
vt 0.3549002 0.7477788
vt 0.4190174 0.4864207
vt 0.3358788 0.7223907
vt 0.3904055 0.500124
vt 0.3221755 0.693779
vt 0.3650171 0.5191446
vt 0.3143177 0.6630439
vt 0.3438275 0.5427539
vt 0.3126067 0.6313668
vt 0.3276508 0.5700435
vt 0.3171091 0.5999638
vn -0.005615545 0.9987269 0.05012872
vn -0.005623652 0.998727 0.05012729
vn -0.00561851 0.9987269 0.05012913
vn -0.005624289 0.9987269 0.05012763
vn -0.005625862 0.9987267 0.05013347
vn -0.005632759 0.9987269 0.05012783
vn -0.005622695 0.9987269 0.05012839
vn -0.005627341 0.9987268 0.05012969
vn -0.005622908 0.9987267 0.05013329
vn -0.005624104 0.9987268 0.05013155
vn -0.005626527 0.9987267 0.05013271
vn -0.005623861 0.9987268 0.05013141
vn -0.005619456 0.9987275 0.05011823
vn -0.005623448 0.9987267 0.05013262
vn -0.005619904 0.9987271 0.05012473
vn -0.005624913 0.998727 0.05012696
vn -0.005620142 0.9987268 0.05013147
vn -0.005626871 0.9987271 0.05012472
vn -0.00562221 0.998727 0.05012598
vn -0.005625942 0.9987269 0.05012795
vn -0.005620534 0.998727 0.05012631
vn -0.00562648 0.9987269 0.05012819
vn -0.005620708 0.9987269 0.05012832
vn -0.005621299 0.9987274 0.05011863
vn -0.005628991 0.9987273 0.05012065
vn -0.005630926 0.9987269 0.05012705
vn -0.005627366 0.9987273 0.05012027
vn -0.005629106 0.9987267 0.05013216
vn -0.005613673 0.9987271 0.05012511
vn -0.005623154 0.9987271 0.0501234
vn -0.005620261 0.998727 0.05012631
vn -0.005623481 0.998727 0.05012622
vn -0.005623576 0.9987271 0.05012394
g KK-PortholeWindow_0
f 3/3/3 2/2/2 1/1/1
f 1/1/1 2/2/2 4/4/4
f 5/5/5 2/2/2 3/3/3
f 4/4/4 2/2/2 6/6/6
f 7/7/7 2/2/2 5/5/5
f 6/6/6 2/2/2 8/8/8
f 9/9/9 2/2/2 7/7/7
f 8/8/8 2/2/2 10/10/10
f 11/11/11 2/2/2 9/9/9
f 10/10/10 2/2/2 12/12/12
f 13/13/13 2/2/2 11/11/11
f 12/12/12 2/2/2 14/14/14
f 15/15/15 2/2/2 13/13/13
f 14/14/14 2/2/2 16/16/16
f 17/17/17 2/2/2 15/15/15
f 16/16/16 2/2/2 18/18/18
f 19/19/19 2/2/2 17/17/17
f 18/18/18 2/2/2 20/20/20
f 21/21/21 2/2/2 19/19/19
f 20/20/20 2/2/2 22/22/22
f 23/23/23 2/2/2 21/21/21
f 22/22/22 2/2/2 24/24/24
f 25/25/25 2/2/2 23/23/23
f 24/24/24 2/2/2 26/26/26
f 27/27/27 2/2/2 25/25/25
f 26/26/26 2/2/2 28/28/28
f 29/29/29 2/2/2 27/27/27
f 28/28/28 2/2/2 30/30/30
f 31/31/31 2/2/2 29/29/29
f 30/30/30 2/2/2 32/32/32
f 33/33/33 2/2/2 31/31/31
f 32/32/32 2/2/2 33/33/33
