g KK-RearWall
v -0.3394702 3.385364 0.008405609
v -3.099987 3.38202 0.9323282
v -3.081793 3.381385 3.051758E-06
v -0.3218402 3.385364 0.9092053
v 0.380065 3.385364 0.008405915
v 0.3757437 3.385364 0.9072912
v -0.2945959 3.385364 2.268091
v 0.3690561 3.385364 2.265253
v -0.2732874 3.385364 3.330873
v 0.433656 3.385364 2.44987
v 0.5377191 3.385364 2.615482
v 0.6760229 3.385364 2.753787
v 0.8416367 3.385364 2.857848
v 1.026254 3.385364 2.922448
v 1.218463 3.385364 3.330874
v 1.220616 3.385364 2.944347
v 1.414978 3.385364 2.922448
v 1.599593 3.385364 2.857847
v 2.726032 3.385365 3.330875
v 1.765207 3.385364 2.753786
v 1.903511 3.385364 2.615481
v -3.039173 3.385363 3.330872
v 2.007571 3.385364 2.449868
v -3.06437 3.385363 2.279933
v -3.485148 3.385361 3.330873
v -3.485148 3.385365 2.28208
v -3.485147 3.385364 0.9290515
v 2.739355 3.385364 2.263129
v 2.072172 3.385364 2.265251
v 2.070992 3.380892 0.01008957
v 2.769791 3.380892 0.01008987
v 3.558079 3.385365 2.593013
v 3.605442 3.385365 2.694877
v 3.671758 3.385365 2.785535
v 3.754475 3.385365 2.861504
v 4.064463 3.385365 3.330875
v 3.531487 3.385365 2.483856
v 3.850415 3.385365 2.919864
v 3.52669 3.385365 2.371604
v 3.54387 3.385365 2.26057
v 3.582368 3.385364 2.155018
v 3.955896 3.385365 2.958371
v 3.640705 3.385364 2.059007
v 4.06686 3.385365 2.975546
v 3.716637 3.385364 1.976227
v 4.179043 3.385365 2.97073
v 4.288135 3.385365 2.944106
v 4.389943 3.385365 2.8967
v 3.807248 3.385364 1.909858
v 3.909056 3.385364 1.86245
v 4.018148 3.385364 1.835827
v 6.120099 3.385365 3.330876
v 4.117033 3.380892 1.525879E-06
v 4.480556 3.385365 2.83033
v 4.130332 3.385365 1.831011
v 4.556489 3.385365 2.74755
v 4.614826 3.385365 2.651539
v 4.653324 3.385365 2.545989
v 4.241295 3.385365 1.848186
v 4.346776 3.385365 1.886693
v 6.1201 3.385365 2.198608
v 4.442718 3.385365 1.945052
v 5.786364 3.380892 3.051758E-06
v 4.670504 3.385365 2.434953
v 5.802353 3.385365 0.9338861
v 4.525438 3.385365 2.021021
v 4.665707 3.385365 2.3227
v 4.639115 3.385365 2.213544
v 4.591753 3.385365 2.11168
v 6.1201 3.385365 0.9290543
vt 0.6595604 0.6542146
vt 0.9396867 0.7486228
vt 0.9380488 0.6539338
vt 0.657566 0.7456896
vt 0.5864972 0.6540515
vt 0.586733 0.7453287
vt 0.6544498 0.8836927
vt 0.5870619 0.8832071
vt 0.651879 0.991644
vt 0.5804441 0.9019018
vt 0.5698177 0.9186673
vt 0.5557027 0.9326506
vt 0.5387791 0.9431363
vt 0.5198404 0.949591
vt 0.500154 0.9910232
vt 0.499897 0.9517885
vt 0.4799461 0.949644
vt 0.4609952 0.9432521
vt 0.3467979 0.9919798
vt 0.4440623 0.9328225
vt 0.429933 0.9188696
vt 0.9329138 0.9922015
vt 0.419284 0.9021201
vt 0.9357298 0.8854756
vt 0.9782208 0.9922936
vt 0.9784686 0.8857841
vt 0.9788058 0.7483786
vt 0.3449077 0.8835933
vt 0.412642 0.8834127
vt 0.41128 0.6533631
vt 0.3403111 0.6538436
vt 0.2619896 0.9173858
vt 0.2572759 0.9276294
vt 0.2505849 0.936793
vt 0.2421834 0.944469
vt 0.2106813 0.9920951
vt 0.2645978 0.9064039
vt 0.2323499 0.950314
vt 0.2650157 0.8950573
vt 0.263208 0.8838398
vt 0.2592369 0.8732157
vt 0.2215722 0.9542257
vt 0.2532554 0.8635265
vt 0.2102455 0.9560056
vt 0.2454908 0.8551772
vt 0.1987859 0.9555905
vt 0.187637 0.9529838
vt 0.1771883 0.9483191
vt 0.2362464 0.8485054
vt 0.2258675 0.8437591
vt 0.2147423 0.8411254
vt 0.001833446 0.9938931
vt 0.2035188 0.6547651
vt 0.1679152 0.9416925
vt 0.2032798 0.8407161
vt 0.1601465 0.9334011
vt 0.1541595 0.9237478
vt 0.1501934 0.9131292
vt 0.191975 0.8425339
vt 0.181226 0.8464966
vt 0.001044948 0.8789027
vt 0.1714041 0.8524673
vt 0.03402354 0.655581
vt 0.1483909 0.9020212
vt 0.03279967 0.7503575
vt 0.1629701 0.8602152
vt 0.1488085 0.890705
vt 0.1514595 0.8796815
vt 0.1562452 0.869417
vt 0.0005 0.7499702
vn -0.000672577 0.9999998 -0.0001754162
vn 0.000781188 0.9999993 -0.0009585728
vn -0.00132755 0.999999 -0.0003463499
vn -0.000483198 0.9999999 -0.0003933881
vn 2.155763E-07 1 1.679776E-07
vn 2.204447E-07 1 2.512217E-07
vn -0.0001511081 1 -0.0003021783
vn 1.361768E-07 1 0
vn -1.489507E-07 1 -2.035762E-07
vn 0 1 -4.388525E-07
vn -2.990766E-07 1 -7.656349E-07
vn -1.183166E-07 1 -3.028902E-07
vn -1.158044E-07 1 -3.684706E-07
vn 0 1 -5.986183E-07
vn -4.127559E-07 1 -5.173443E-07
vn -7.885135E-07 1 -7.939259E-07
vn -7.586664E-07 1 -4.495718E-07
vn -3.5865E-07 1 -3.616514E-07
vn -2.263419E-07 1 -5.602616E-07
vn -3.69451E-07 1 -4.509002E-07
vn -4.381489E-07 1 -3.494086E-07
vn -8.028679E-07 1 1.012611E-06
vn -2.81515E-07 1 -5.973022E-07
vn 0.0008690371 0.9999994 -0.0006279237
vn -1.403279E-06 1 2.051604E-06
vn 0.002069249 0.9999977 -0.000643389
vn 0.004153391 0.9999906 -0.001293034
vn -6.130712E-05 0.9999995 -0.0009723164
vn -1.594116E-06 0.9999996 -0.0008947159
vn -3.305393E-06 0.9999981 -0.00198391
vn -0.0001317735 0.9999979 -0.002094058
vn 0 1 -3.648295E-07
vn 2.375941E-07 1 -1.536449E-07
vn 2.128913E-07 1 -1.904115E-07
vn -1.738811E-07 1 -7.467992E-07
vn -1.715325E-07 1 -9.210918E-07
vn -2.473892E-07 1 -3.30282E-07
vn -2.473908E-07 1 -1.011576E-06
vn -3.846668E-07 1 0
vn -0.000140841 0.9999994 -0.001096971
vn -0.0006826146 0.9999982 -0.00176469
vn 2.278437E-07 1 -8.85659E-07
vn -0.001855907 0.9999974 -0.00139376
vn 0 1 -8.86546E-07
vn -0.001521827 0.9999976 -0.001554057
vn -1.260983E-07 1 -8.874861E-07
vn -1.514424E-07 1 -8.381928E-07
vn -1.905907E-07 1 -6.876708E-07
vn -0.001052158 0.9999979 -0.00177941
vn -0.0007476417 0.9999979 -0.001959767
vn -0.0002017619 0.9999974 -0.002314706
vn -2.566351E-07 1 -3.355821E-07
vn 4.588204E-05 0.9999971 -0.002380354
vn -2.776256E-07 1 -3.100065E-07
vn 0.0003165446 0.999997 -0.00245036
vn -3.006442E-07 1 -2.479414E-07
vn -3.332264E-07 1 -1.600898E-07
vn -2.95394E-07 1 -2.110137E-07
vn 0.000633492 0.9999968 -0.002462446
vn 0.0002600566 0.9999973 -0.002361674
vn -3.303713E-07 1 -2.812712E-07
vn -0.001534863 0.9999936 -0.003242354
vn -0.001155487 0.9999948 -0.003023369
vn -2.916218E-07 1 -7.203718E-07
vn -0.001472892 0.999997 -0.001980376
vn -0.001558112 0.9999967 -0.002094971
vn -3.235203E-07 1 -1.332473E-06
vn -3.617534E-07 1 -6.607572E-07
vn -5.071157E-07 1 -4.195965E-07
vn -4.944576E-07 1 -3.973338E-07
g KK-RearWall_0
f 3/3/3 2/2/2 1/1/1
f 2/2/2 4/4/4 1/1/1
f 1/1/1 4/4/4 5/5/5
f 4/4/4 6/6/6 5/5/5
f 6/6/6 4/4/4 7/7/7
f 7/7/7 4/4/4 2/2/2
f 8/8/8 6/6/6 7/7/7
f 8/8/8 7/7/7 9/9/9
f 10/10/10 8/8/8 9/9/9
f 11/11/11 10/10/10 9/9/9
f 12/12/12 11/11/11 9/9/9
f 13/13/13 12/12/12 9/9/9
f 14/14/14 13/13/13 9/9/9
f 15/15/15 14/14/14 9/9/9
f 16/16/16 14/14/14 15/15/15
f 16/16/16 15/15/15 17/17/17
f 17/17/17 15/15/15 18/18/18
f 15/15/15 19/19/19 18/18/18
f 18/18/18 19/19/19 20/20/20
f 20/20/20 19/19/19 21/21/21
f 22/22/22 9/9/9 7/7/7
f 19/19/19 23/23/23 21/21/21
f 24/24/24 22/22/22 7/7/7
f 25/25/25 22/22/22 24/24/24
f 24/24/24 7/7/7 2/2/2
f 26/26/26 25/25/25 24/24/24
f 26/26/26 24/24/24 2/2/2
f 27/27/27 26/26/26 2/2/2
f 23/23/23 19/19/19 28/28/28
f 29/29/29 23/23/23 28/28/28
f 29/29/29 28/28/28 30/30/30
f 28/28/28 31/31/31 30/30/30
f 28/28/28 19/19/19 32/32/32
f 32/32/32 19/19/19 33/33/33
f 33/33/33 19/19/19 34/34/34
f 19/19/19 35/35/35 34/34/34
f 19/19/19 36/36/36 35/35/35
f 37/37/37 28/28/28 32/32/32
f 36/36/36 38/38/38 35/35/35
f 28/28/28 37/37/37 39/39/39
f 40/40/40 28/28/28 39/39/39
f 40/40/40 41/41/41 28/28/28
f 41/41/41 31/31/31 28/28/28
f 38/38/38 36/36/36 42/42/42
f 41/41/41 43/43/43 31/31/31
f 36/36/36 44/44/44 42/42/42
f 43/43/43 45/45/45 31/31/31
f 44/44/44 36/36/36 46/46/46
f 36/36/36 47/47/47 46/46/46
f 47/47/47 36/36/36 48/48/48
f 45/45/45 49/49/49 31/31/31
f 49/49/49 50/50/50 31/31/31
f 50/50/50 51/51/51 31/31/31
f 36/36/36 52/52/52 48/48/48
f 31/31/31 51/51/51 53/53/53
f 48/48/48 52/52/52 54/54/54
f 51/51/51 55/55/55 53/53/53
f 52/52/52 56/56/56 54/54/54
f 56/56/56 52/52/52 57/57/57
f 52/52/52 58/58/58 57/57/57
f 55/55/55 59/59/59 53/53/53
f 59/59/59 60/60/60 53/53/53
f 52/52/52 61/61/61 58/58/58
f 53/53/53 60/60/60 62/62/62
f 63/63/63 53/53/53 62/62/62
f 61/61/61 64/64/64 58/58/58
f 65/65/65 63/63/63 62/62/62
f 66/66/66 65/65/65 62/62/62
f 64/64/64 61/61/61 67/67/67
f 61/61/61 68/68/68 67/67/67
f 65/65/65 66/66/66 69/69/69
f 68/68/68 61/61/61 69/69/69
f 70/70/70 65/65/65 69/69/69
f 61/61/61 70/70/70 69/69/69
