g KK-SideWallPlank_2
v -4.467031 1.607668 6.966198
v -4.513613 -0.4539041 6.992693
v -4.493454 1.606024 6.992693
v -4.467029 -0.4545221 6.9662
v -4.493449 -2.513832 6.992693
v -4.467027 -2.516713 6.966196
v -5.634528 -0.3596515 6.966202
v -5.66117 1.506597 6.9662
v -5.634748 1.509444 6.992696
v -5.594932 -0.3632751 6.992696
v -5.66117 -2.225899 6.9662
v -5.634747 -2.235995 6.992697
v -4.467032 3.669857 6.966197
v -4.467031 1.607668 6.966198
v -4.493454 1.606024 6.992693
v -4.493455 3.665952 6.992693
v -5.634748 1.509444 6.992696
v -5.66117 1.506597 6.9662
v -5.66117 3.372843 6.9662
v -5.634748 3.382162 6.992696
v -5.056177 -0.4410327 6.992696
v -5.073058 -1.403141 6.992693
v -5.073057 -0.4403299 6.968567
v -5.019758 0.8571667 6.992692
v -5.073058 0.8553002 6.968567
v -5.073058 1.689312 6.992696
v -5.073058 -1.403141 6.992693
v -5.089937 -0.4362152 6.992692
v -5.073057 -0.4403299 6.968567
v -5.073058 0.8553002 6.968567
v -5.126358 0.8520675 6.992692
v -5.073058 1.689312 6.992696
v -5.073058 1.689312 6.992696
v -5.634748 3.382162 6.992696
v -5.07306 3.580269 6.992693
v -4.493455 3.665952 6.992693
v -5.634748 1.509444 6.992696
v -4.493454 1.606024 6.992693
v -5.126358 0.8520675 6.992692
v -5.019758 0.8571667 6.992692
v -5.594932 -0.3632751 6.992696
v -5.089937 -0.4362152 6.992692
v -4.513613 -0.4539041 6.992693
v -5.056177 -0.4410327 6.992696
v -5.073058 -1.403141 6.992693
v -5.634747 -2.235995 6.992697
v -4.493449 -2.513832 6.992693
v -5.073057 -2.450631 6.992696
vt 0.7305585 0.9038439
vt 0.5856685 0.9075794
vt 0.7304613 0.9065211
vt 0.5856307 0.9039096
vt 0.4408809 0.9068501
vt 0.4407082 0.9040686
vt 0.5922861 0.9879448
vt 0.7234666 0.9896579
vt 0.7236863 0.9870189
vt 0.5920368 0.9846998
vt 0.461122 0.9897562
vt 0.4603941 0.9868726
vt 0.8754766 0.903899
vt 0.7305585 0.9038439
vt 0.7304613 0.9065211
vt 0.8752034 0.9065523
vt 0.7236863 0.9870189
vt 0.7234666 0.9896579
vt 0.8546253 0.9897165
vt 0.855268 0.9869859
vt 0.5866191 0.9455984
vt 0.5190461 0.9474522
vt 0.5866821 0.9474602
vt 0.6778241 0.9434176
vt 0.6776866 0.9474145
vt 0.7363089 0.9474025
vt 0.5190461 0.9474522
vt 0.5869516 0.9493233
vt 0.5866821 0.9474602
vt 0.6776866 0.9474145
vt 0.677462 0.9514127
vt 0.7363089 0.9474025
vt 0.7363089 0.9474025
vt 0.855268 0.9869859
vt 0.8691946 0.9474047
vt 0.8752034 0.9065523
vt 0.7236863 0.9870189
vt 0.7304613 0.9065211
vt 0.677462 0.9514127
vt 0.6778241 0.9434176
vt 0.5920368 0.9846998
vt 0.5869516 0.9493233
vt 0.5856685 0.9075794
vt 0.5866191 0.9455984
vt 0.5190461 0.9474522
vt 0.4603941 0.9868726
vt 0.4408809 0.9068501
vt 0.4453957 0.9474653
vn 0.5874044 -0.002872126 0.8092883
vn 0.5874045 -0.002872126 0.8092884
vn 0.5874044 -0.002872126 0.8092883
vn 0.5874045 -0.002872126 0.8092884
vn 0.5874923 0.002873207 0.8092245
vn 0.5874924 0.002873207 0.8092245
vn -0.6259995 -0.01112655 0.779744
vn -0.6259995 -0.01112655 0.779744
vn -0.6259995 -0.01112655 0.779744
vn -0.6259995 -0.01112655 0.779744
vn -0.6245213 0.01110043 0.7809289
vn -0.6245213 0.01110043 0.7809289
vn 0.7080624 5.760908E-07 0.7061499
vn 0.7080624 5.760908E-07 0.7061499
vn 0.7080624 5.760908E-07 0.7061499
vn 0.7080624 5.760907E-07 0.7061499
vn -0.7080889 -3.466232E-07 0.7061234
vn -0.7080888 -3.466232E-07 0.7061234
vn -0.7080889 -3.466232E-07 0.7061234
vn -0.7080889 -3.466232E-07 0.7061234
vn -0.7049708 0.01136682 0.7091452
vn -0.8191006 0.01437044 0.5734699
vn -0.7012811 0.01127313 0.7127958
vn -0.4902682 -0.009413204 0.8715208
vn -0.4929431 -0.00882153 0.8700168
vn -0.4114431 -0.02635729 0.9110543
vn 0.8204125 0.01432237 0.5715927
vn 0.692324 0.0110249 0.7215025
vn 0.715431 0.01160144 0.698587
vn 0.4896124 -0.009750666 0.8718857
vn 0.4956085 -0.008405698 0.8685053
vn 0.4135311 -0.02632994 0.9101092
vn 2.749622E-06 -1.014007E-06 1
vn 3.311501E-06 8.464053E-07 1
vn 2.127195E-06 1.291098E-06 1
vn 1.710371E-06 7.976765E-07 1
vn 1.848194E-06 -1.046067E-06 1
vn 4.414318E-06 -7.417928E-07 1
vn 5.810476E-06 -1.658077E-07 1
vn 2.293052E-06 5.963954E-07 1
vn 6.870675E-06 4.647219E-07 1
vn 6.766096E-06 5.267214E-07 1
vn 2.011006E-06 1.155652E-07 1
vn 2.003941E-06 1.301453E-07 1
vn 4.303006E-06 3.877959E-07 1
vn 4.027907E-06 1.875998E-06 1
vn 4.525948E-06 1.313378E-06 1
vn 4.493164E-06 2.330725E-06 1
g KK-SideWallPlank_2_0
f 3/3/3 2/2/2 1/1/1
f 2/2/2 4/4/4 1/1/1
f 4/4/4 2/2/2 5/5/5
f 6/6/6 4/4/4 5/5/5
f 9/9/9 8/8/8 7/7/7
f 10/10/10 9/9/9 7/7/7
f 10/10/10 7/7/7 11/11/11
f 12/12/12 10/10/10 11/11/11
f 15/15/15 14/14/14 13/13/13
f 16/16/16 15/15/15 13/13/13
f 19/19/19 18/18/18 17/17/17
f 20/20/20 19/19/19 17/17/17
f 23/23/23 22/22/22 21/21/21
f 23/23/23 21/21/21 24/24/24
f 25/25/25 23/23/23 24/24/24
f 25/25/25 24/24/24 26/26/26
f 29/29/29 28/28/28 27/27/27
f 29/29/29 30/30/30 28/28/28
f 30/30/30 31/31/31 28/28/28
f 30/30/30 32/32/32 31/31/31
f 35/35/35 34/34/34 33/33/33
f 35/35/35 33/33/33 36/36/36
f 34/34/34 37/37/37 33/33/33
f 36/36/36 33/33/33 38/38/38
f 37/37/37 39/39/39 33/33/33
f 33/33/33 40/40/40 38/38/38
f 39/39/39 37/37/37 41/41/41
f 42/42/42 39/39/39 41/41/41
f 38/38/38 40/40/40 43/43/43
f 40/40/40 44/44/44 43/43/43
f 45/45/45 42/42/42 41/41/41
f 43/43/43 44/44/44 45/45/45
f 46/46/46 45/45/45 41/41/41
f 47/47/47 43/43/43 45/45/45
f 48/48/48 45/45/45 46/46/46
f 48/48/48 47/47/47 45/45/45
