g KK-SignLetter_11
v -10.19002 25.23348 31.33212
v -10.17329 25.12999 31.33212
v -10.19109 25.2249 31.33212
v -10.16499 25.11006 31.33212
v -10.18927 25.23431 31.33212
v -10.153 25.09863 31.33212
v -10.18087 25.2363 31.33212
v -10.13269 25.0913 31.33212
v -9.643806 25.02386 31.33212
v -9.495577 25.18403 31.33212
v -9.460212 25.17661 31.33212
v -9.599025 25.00721 31.33212
v -9.562665 24.97058 31.33212
v -9.430693 25.16172 31.33212
v -9.40371 25.13768 31.33212
v -9.546343 24.92568 31.33212
v -9.365989 25.094 31.33212
v -9.539548 24.87359 31.33212
v -9.345613 25.06343 31.33212
v -9.547099 24.82648 31.33212
v -9.335182 25.0339 31.33212
v -9.340949 24.82502 31.33212
v -9.582124 24.78702 31.33212
v -9.558284 24.469 31.33212
v -9.51979 24.41593 31.33212
v -9.60749 24.48179 31.33212
v -9.362367 24.04933 31.33212
v -9.627973 24.77394 31.33212
v -9.517102 24.28826 31.33212
v -9.939589 24.47515 31.33212
v -9.39403 23.95577 31.33212
v -9.538511 24.225 31.33212
v -9.463666 23.90074 31.33212
v -9.573796 24.19712 31.33212
v -10.13249 24.77858 31.33212
v -9.562402 23.89152 31.33212
v -9.636278 24.19128 31.33212
v -9.926801 24.18861 31.33212
v -9.976256 24.45396 31.33212
v -10.20243 24.01265 31.33212
v -9.989282 24.21541 31.33212
v -10.01189 24.27997 31.33212
v -9.9983 24.41969 31.33212
v -10.21413 24.76371 31.33212
v -10.27765 24.04417 31.33212
v -10.27976 24.72266 31.33212
v -10.3314 24.09806 31.33212
v -10.32749 24.65766 31.33212
v -10.36225 24.17224 31.33212
v -10.35342 24.58262 31.33212
v -10.37231 24.25182 31.33212
v -10.36551 24.50396 31.33212
v -10.37364 24.33559 31.33212
v -9.621964 24.97162 31.21645
v -9.562665 24.97058 31.33212
v -9.598424 24.9479 31.21645
v -9.599025 25.00721 31.33212
v -9.653959 24.98352 31.21645
v -9.643806 25.02386 31.33212
v -10.14264 25.05092 31.21645
v -10.13269 25.0913 31.33212
v -10.17523 25.06269 31.21645
v -10.153 25.09863 31.33212
v -10.19981 25.08612 31.21645
v -10.16499 25.11006 31.33212
v -10.21314 25.11809 31.21645
v -10.17329 25.12999 31.33212
v -10.23292 25.22362 31.21645
v -10.19109 25.2249 31.33212
v -10.22945 25.25144 31.21645
v -10.19002 25.23348 31.33212
v -10.21143 25.27155 31.21645
v -10.18927 25.23431 31.33212
v -10.18415 25.27803 31.21645
v -10.18087 25.2363 31.33212
v -9.489733 25.22506 31.21645
v -9.495577 25.18403 31.33212
v -9.446418 25.21597 31.21645
v -9.460212 25.17661 31.33212
v -9.407228 25.1962 31.21645
v -9.430693 25.16172 31.33212
v -9.374182 25.16676 31.21645
v -9.40371 25.13768 31.33212
v -9.333005 25.11908 31.21645
v -9.365989 25.094 31.33212
v -9.308339 25.08207 31.21645
v -9.345613 25.06343 31.33212
v -9.293632 25.04044 31.21645
v -9.335182 25.0339 31.33212
v -9.299611 24.82388 31.21645
v -9.340949 24.82502 31.33212
v -9.321199 24.04197 31.21645
v -9.362367 24.04933 31.33212
v -9.358782 23.93092 31.21645
v -9.39403 23.95577 31.33212
v -9.447631 23.8607 31.21645
v -9.463666 23.90074 31.33212
v -9.564363 23.8498 31.21645
v -9.562402 23.89152 31.33212
v -10.21439 23.97282 31.21645
v -10.20243 24.01265 31.33212
v -10.30117 24.00919 31.21645
v -10.27765 24.04417 31.33212
v -10.36645 24.07464 31.21645
v -10.3314 24.09806 31.33212
v -10.40258 24.16152 31.21645
v -10.36225 24.17224 31.33212
v -10.41362 24.24889 31.21645
v -10.37231 24.25182 31.33212
v -10.41501 24.33626 31.21645
v -10.37364 24.33559 31.33212
v -10.40671 24.50811 31.21645
v -10.36551 24.50396 31.33212
v -10.39373 24.5926 31.21645
v -10.35342 24.58262 31.33212
v -10.36453 24.67709 31.21645
v -10.32749 24.65766 31.33212
v -10.30841 24.75352 31.21645
v -10.27976 24.72266 31.33212
v -10.22933 24.80297 31.21645
v -10.21413 24.76371 31.33212
v -10.13604 24.81997 31.21645
v -10.13249 24.77858 31.33212
v -9.633569 24.81535 31.21645
v -9.627973 24.77394 31.33212
v -9.605054 24.82348 31.21645
v -9.582124 24.78702 31.33212
v -9.586025 24.84492 31.21645
v -9.547099 24.82648 31.33212
v -9.581333 24.8742 31.21645
v -9.539548 24.87359 31.33212
v -9.586762 24.91582 31.21645
v -9.546343 24.92568 31.33212
v -9.598424 24.9479 31.21645
v -9.562665 24.97058 31.33212
v -9.61237 24.44033 31.21645
v -9.558284 24.469 31.33212
v -9.583048 24.43271 31.21645
v -9.60749 24.48179 31.33212
v -9.928119 24.43401 31.21645
v -9.939589 24.47515 31.33212
v -9.946896 24.42316 31.21645
v -9.976256 24.45396 31.33212
v -9.958107 24.40573 31.21645
v -9.9983 24.41969 31.33212
v -9.969849 24.28504 31.21645
v -10.01189 24.27997 31.33212
v -9.956264 24.24624 31.21645
v -9.989282 24.21541 31.33212
v -9.918489 24.23004 31.21645
v -9.926801 24.18861 31.33212
v -9.638393 24.23262 31.21645
v -9.636278 24.19128 31.33212
v -9.589831 24.23715 31.21645
v -9.573796 24.19712 31.33212
v -9.573759 24.24986 31.21645
v -9.538511 24.225 31.33212
v -9.5586 24.29465 31.21645
v -9.517102 24.28826 31.33212
v -9.560863 24.40212 31.21645
v -9.51979 24.41593 31.33212
v -9.583048 24.43271 31.21645
v -9.558284 24.469 31.33212
vt 0.8839138 0.9380427
vt 0.8753935 0.9281929
vt 0.8829474 0.9374375
vt 0.8740382 0.9255725
vt 0.8842612 0.9380251
vt 0.873836 0.9232066
vt 0.885399 0.937534
vt 0.8745827 0.9200584
vt 0.9183715 0.8552762
vt 0.9536852 0.863732
vt 0.9568307 0.8597344
vt 0.9226303 0.847719
vt 0.9249783 0.8378544
vt 0.9588544 0.8555727
vt 0.9602358 0.8506059
vt 0.9245867 0.8287274
vt 0.9618428 0.8427045
vt 0.9227773 0.8190044
vt 0.9629355 0.8376592
vt 0.9193205 0.811271
vt 0.9628454 0.8332849
vt 0.9549893 0.8055384
vt 0.913663 0.804337
vt 0.9225656 0.7525641
vt 0.927808 0.744075
vt 0.9160039 0.7556872
vt 0.9526629 0.6925032
vt 0.9061437 0.7999082
vt 0.9308671 0.7254824
vt 0.8724315 0.7458292
vt 0.9476025 0.681541
vt 0.9283358 0.7166991
vt 0.9390908 0.6746967
vt 0.9242632 0.7125179
vt 0.8436185 0.7800543
vt 0.9272037 0.6722615
vt 0.9170686 0.7095434
vt 0.879424 0.7089439
vt 0.8693962 0.7424471
vt 0.847735 0.6811161
vt 0.8716025 0.7119851
vt 0.8673409 0.7198883
vt 0.8681192 0.7382491
vt 0.8335972 0.7758604
vt 0.8377501 0.6845002
vt 0.8259258 0.7696269
vt 0.829922 0.6900165
vt 0.8208048 0.7612305
vt 0.8245144 0.6983693
vt 0.8185967 0.7517447
vt 0.8217203 0.708107
vt 0.8182633 0.741492
vt 0.8200424 0.7191229
vt 0.901993 0.8419181
vt 0.9249783 0.8378544
vt 0.9032913 0.8364629
vt 0.9226303 0.847719
vt 0.8994612 0.8472782
vt 0.9183715 0.8552762
vt 0.8539351 0.9181061
vt 0.8745827 0.9200584
vt 0.8537072 0.9248953
vt 0.873836 0.9232066
vt 0.8548502 0.9314976
vt 0.8740382 0.9255725
vt 0.8574167 0.9379492
vt 0.8753935 0.9281929
vt 0.8741987 0.9544833
vt 0.8829474 0.9374375
vt 0.8791643 0.956648
vt 0.8839138 0.9380427
vt 0.884245 0.957382
vt 0.8842612 0.9380251
vt 0.8895826 0.9567607
vt 0.885399 0.937534
vt 0.9695552 0.8757426
vt 0.9536852 0.863732
vt 0.9734511 0.8690845
vt 0.9568307 0.8597344
vt 0.9761816 0.8622314
vt 0.9588544 0.8555727
vt 0.9779494 0.8552555
vt 0.9602358 0.8506059
vt 0.9796546 0.8454271
vt 0.9618428 0.8427045
vt 0.98 0.8387151
vt 0.9629355 0.8376592
vt 0.9796676 0.8323655
vt 0.9628454 0.8332849
vt 0.9730841 0.8025458
vt 0.9549893 0.8055384
vt 0.9691606 0.6880201
vt 0.9526629 0.6925032
vt 0.9606731 0.6708071
vt 0.9476025 0.681541
vt 0.9463633 0.6598786
vt 0.9390908 0.6746967
vt 0.9287521 0.655847
vt 0.9272037 0.6722615
vt 0.8433225 0.6645068
vt 0.847735 0.6811161
vt 0.8294636 0.6695505
vt 0.8377501 0.6845002
vt 0.8179983 0.6784504
vt 0.829922 0.6900165
vt 0.8095225 0.6904259
vt 0.8245144 0.6983693
vt 0.8047692 0.7032977
vt 0.8217203 0.708107
vt 0.8021161 0.7164565
vt 0.8200424 0.7191229
vt 0.8005509 0.7420952
vt 0.8182633 0.741492
vt 0.8017226 0.7551003
vt 0.8185967 0.7517447
vt 0.8057021 0.7683926
vt 0.8208048 0.7612305
vt 0.8137753 0.7807043
vt 0.8259258 0.7696269
vt 0.8247914 0.7896236
vt 0.8335972 0.7758604
vt 0.8374931 0.7953262
vt 0.8436185 0.7800543
vt 0.8966823 0.8138582
vt 0.9061437 0.7999082
vt 0.8997859 0.816855
vt 0.913663 0.804337
vt 0.9018127 0.8204355
vt 0.9193205 0.811271
vt 0.9029134 0.8247462
vt 0.9227773 0.8190044
vt 0.9034305 0.8309463
vt 0.9245867 0.8287274
vt 0.9032913 0.8364629
vt 0.9249783 0.8378544
vt 0.9114946 0.7411326
vt 0.9225656 0.7525641
vt 0.9134422 0.7401718
vt 0.9160039 0.7556872
vt 0.8806944 0.7361361
vt 0.8724315 0.7458292
vt 0.8798756 0.7352432
vt 0.8693962 0.7424471
vt 0.8795955 0.7338864
vt 0.8681192 0.7382491
vt 0.8797796 0.7246567
vt 0.8673409 0.7198883
vt 0.8811237 0.7219439
vt 0.8716025 0.7119851
vt 0.8840162 0.7208862
vt 0.879424 0.7089439
vt 0.9124207 0.7221301
vt 0.9170686 0.7095434
vt 0.9158605 0.723149
vt 0.9242632 0.7125179
vt 0.9163387 0.7239357
vt 0.9283358 0.7166991
vt 0.9168499 0.7277085
vt 0.9308671 0.7254824
vt 0.9153265 0.7371065
vt 0.927808 0.744075
vt 0.9134422 0.7401718
vt 0.9225656 0.7525641
vn -8.90287E-06 -1.89541E-06 1
vn 1.122876E-05 2.551991E-06 1
vn 1.122876E-05 2.551991E-06 1
vn -1.020677E-05 -2.183464E-06 1
vn -5.22035E-06 -8.616034E-07 1
vn -3.146567E-06 -3.346206E-07 1
vn -5.370429E-07 1.48821E-07 1
vn -2.573572E-07 0 1
vn 1.121849E-07 -1.298201E-07 1
vn 1.708258E-07 -3.039992E-07 1
vn 0 0 1
vn 0 -1.212719E-07 1
vn 0 2.195542E-07 1
vn 0 2.260013E-07 1
vn 1.127987E-07 0 1
vn 1.258413E-07 0 1
vn 4.017089E-07 -2.228658E-07 1
vn 6.242992E-07 -3.816457E-07 1
vn -3.671032E-07 5.511213E-07 1
vn 2.440875E-07 -3.300483E-07 1
vn -1.659398E-06 1.620636E-06 1
vn 1.101247E-07 -2.408362E-07 1
vn 0 -1.347607E-07 1
vn 0 0 1
vn -1.499645E-07 0 1
vn 0 0 1
vn 0 0 1
vn 0 0 1
vn -1.399788E-07 0 1
vn 4.65406E-07 0 1
vn -1.150512E-07 -1.228636E-07 1
vn 0 0 1
vn 2.191518E-07 0 1
vn 2.052233E-07 0 1
vn 2.033239E-07 0 1
vn 3.548881E-07 1.609396E-07 1
vn 2.442546E-07 1.409749E-07 1
vn 0 0 1
vn 6.482303E-07 0 1
vn 0 0 1
vn 0 0 1
vn 0 0 1
vn 2.616592E-07 -1.111358E-07 1
vn 0 0 1
vn 0 0 1
vn -4.789878E-07 0 1
vn -4.788538E-07 0 1
vn -5.361399E-07 0 1
vn -5.226781E-07 0 1
vn -1.026169E-06 0 1
vn -1.034703E-06 0 1
vn 0 0 1
vn 0 0 1
vn -0.508761 -0.7893057 0.3437423
vn -0.7930348 -0.5029277 0.3437434
vn -0.7930355 -0.5029266 0.3437433
vn -0.5087605 -0.789306 0.3437423
vn -0.2296459 -0.9125394 0.3384294
vn -0.2296458 -0.9125395 0.3384294
vn -0.225337 -0.9136689 0.3382787
vn -0.225337 -0.9136689 0.3382787
vn -0.4940678 -0.7988413 0.3431465
vn -0.4940678 -0.7988413 0.3431464
vn -0.7740651 -0.5320467 0.3431465
vn -0.7740646 -0.5320474 0.3431465
vn -0.9017298 -0.2691658 0.3382798
vn -0.9017298 -0.2691658 0.3382797
vn -0.9398987 -0.02877157 0.340239
vn -0.9398987 -0.02877188 0.3402391
vn -0.8521906 0.3882168 0.3507975
vn -0.8521923 0.3882131 0.3507976
vn -0.4787941 0.8047966 0.3507973
vn -0.4787965 0.8047952 0.3507973
vn -0.07384592 0.9374352 0.3402383
vn -0.07384508 0.9374353 0.3402383
vn 0.1327628 0.9319971 0.3372765
vn 0.1327631 0.9319971 0.3372764
vn 0.3111262 0.8877809 0.3391836
vn 0.3111264 0.8877809 0.3391835
vn 0.5292221 0.7777392 0.339184
vn 0.529222 0.7777392 0.339184
vn 0.6707634 0.6605452 0.3372782
vn 0.6707633 0.6605453 0.3372782
vn 0.7494149 0.5697905 0.3372184
vn 0.7494149 0.5697905 0.3372184
vn 0.8414586 0.4207879 0.3389468
vn 0.8414586 0.4207881 0.3389468
vn 0.928387 0.1460209 0.3417242
vn 0.9283871 0.14602 0.3417242
vn 0.9412762 -0.02598927 0.3366361
vn 0.9412762 -0.02598927 0.3366361
vn 0.9257424 -0.1655514 0.3399906
vn 0.9257424 -0.1655517 0.3399906
vn 0.7657622 -0.5399653 0.3493505
vn 0.7657624 -0.5399649 0.3493506
vn 0.3483687 -0.8698238 0.3493504
vn 0.3483686 -0.8698239 0.3493504
vn -0.04416488 -0.9395385 0.3395835
vn -0.04416484 -0.9395385 0.3395835
vn -0.2708349 -0.9012283 0.3382839
vn -0.2708349 -0.9012283 0.3382838
vn -0.5241248 -0.779788 0.3423797
vn -0.5241249 -0.779788 0.3423797
vn -0.7811942 -0.5220264 0.3423804
vn -0.7811936 -0.5220269 0.3423804
vn -0.9090675 -0.2417537 0.3393397
vn -0.9090675 -0.2417537 0.3393397
vn -0.9391137 -0.0666278 0.3370847
vn -0.9391137 -0.06662786 0.3370847
vn -0.9414572 0.01521657 0.336789
vn -0.9414572 0.01521649 0.336789
vn -0.936752 0.0943319 0.3370417
vn -0.936752 0.0943319 0.3370418
vn -0.9136294 0.2261335 0.3378534
vn -0.9136294 0.2261334 0.3378534
vn -0.8328073 0.4368195 0.3400306
vn -0.8328072 0.4368196 0.3400306
vn -0.6392557 0.6887342 0.3420489
vn -0.6392555 0.6887343 0.3420489
vn -0.3393803 0.8762552 0.3420495
vn -0.3393806 0.8762552 0.3420495
vn -0.08037276 0.9377155 0.3379791
vn -0.08037274 0.9377155 0.3379792
vn -0.1259668 0.9320485 0.3397322
vn -0.1259669 0.9320485 0.3397322
vn -0.4988837 0.7933112 0.3489588
vn -0.4988845 0.7933109 0.3489588
vn -0.8469088 0.4012158 0.3489575
vn -0.8469082 0.4012171 0.3489575
vn -0.9404097 0.01374213 0.3397655
vn -0.9404097 0.01374221 0.3397655
vn -0.9142055 -0.2229181 0.3384313
vn -0.9142056 -0.2229177 0.3384313
vn -0.7930355 -0.5029266 0.3437433
vn -0.7930348 -0.5029277 0.3437434
vn -0.1099482 -0.9341713 0.3394634
vn -0.5269241 -0.7721907 0.3550667
vn -0.5269237 -0.772191 0.3550668
vn -0.1099482 -0.9341713 0.3394634
vn 0.2519725 -0.9036469 0.3463121
vn 0.2519735 -0.9036466 0.3463121
vn 0.6476076 -0.6792802 0.3452285
vn 0.647608 -0.6792799 0.3452284
vn 0.8865783 -0.3079206 0.3452012
vn 0.8865779 -0.3079217 0.3452012
vn 0.9323081 0.1123547 0.3437703
vn 0.932308 0.1123557 0.3437702
vn 0.6807712 0.6357696 0.3637961
vn 0.6807714 0.6357694 0.363796
vn 0.1847587 0.9209359 0.3431344
vn 0.1847591 0.9209358 0.3431344
vn -0.04813743 0.9403097 0.3368981
vn -0.0481374 0.9403097 0.3368982
vn -0.3483673 0.8698245 0.34935
vn -0.3483675 0.8698245 0.3493501
vn -0.7657601 0.5399679 0.3493512
vn -0.7657589 0.5399694 0.3493512
vn -0.9290677 0.1429219 0.341184
vn -0.9290677 0.1429217 0.341184
vn -0.8876454 -0.2983835 0.3507891
vn -0.8876454 -0.2983836 0.3507892
vn -0.5269237 -0.772191 0.3550668
vn -0.5269241 -0.7721907 0.3550667
g KK-SignLetter_11_0
f 3/3/3 2/2/2 1/1/1
f 2/2/2 4/4/4 1/1/1
f 1/1/1 4/4/4 5/5/5
f 4/4/4 6/6/6 5/5/5
f 5/5/5 6/6/6 7/7/7
f 6/6/6 8/8/8 7/7/7
f 8/8/8 9/9/9 7/7/7
f 9/9/9 10/10/10 7/7/7
f 11/11/11 10/10/10 9/9/9
f 12/12/12 11/11/11 9/9/9
f 11/11/11 12/12/12 13/13/13
f 14/14/14 11/11/11 13/13/13
f 15/15/15 14/14/14 13/13/13
f 16/16/16 15/15/15 13/13/13
f 17/17/17 15/15/15 16/16/16
f 18/18/18 17/17/17 16/16/16
f 19/19/19 17/17/17 18/18/18
f 20/20/20 19/19/19 18/18/18
f 21/21/21 19/19/19 20/20/20
f 22/22/22 21/21/21 20/20/20
f 23/23/23 22/22/22 20/20/20
f 23/23/23 24/24/24 22/22/22
f 24/24/24 25/25/25 22/22/22
f 26/26/26 24/24/24 23/23/23
f 22/22/22 25/25/25 27/27/27
f 28/28/28 26/26/26 23/23/23
f 25/25/25 29/29/29 27/27/27
f 30/30/30 26/26/26 28/28/28
f 27/27/27 29/29/29 31/31/31
f 29/29/29 32/32/32 31/31/31
f 31/31/31 32/32/32 33/33/33
f 32/32/32 34/34/34 33/33/33
f 35/35/35 30/30/30 28/28/28
f 33/33/33 34/34/34 36/36/36
f 34/34/34 37/37/37 36/36/36
f 37/37/37 38/38/38 36/36/36
f 30/30/30 35/35/35 39/39/39
f 38/38/38 40/40/40 36/36/36
f 40/40/40 38/38/38 41/41/41
f 42/42/42 40/40/40 41/41/41
f 35/35/35 43/43/43 39/39/39
f 42/42/42 43/43/43 40/40/40
f 43/43/43 35/35/35 40/40/40
f 40/40/40 35/35/35 44/44/44
f 45/45/45 40/40/40 44/44/44
f 45/45/45 44/44/44 46/46/46
f 47/47/47 45/45/45 46/46/46
f 47/47/47 46/46/46 48/48/48
f 49/49/49 47/47/47 48/48/48
f 49/49/49 48/48/48 50/50/50
f 51/51/51 49/49/49 50/50/50
f 51/51/51 50/50/50 52/52/52
f 53/53/53 51/51/51 52/52/52
f 56/56/56 55/55/55 54/54/54
f 55/55/55 57/57/57 54/54/54
f 54/54/54 57/57/57 58/58/58
f 57/57/57 59/59/59 58/58/58
f 58/58/58 59/59/59 60/60/60
f 59/59/59 61/61/61 60/60/60
f 60/60/60 61/61/61 62/62/62
f 61/61/61 63/63/63 62/62/62
f 62/62/62 63/63/63 64/64/64
f 63/63/63 65/65/65 64/64/64
f 64/64/64 65/65/65 66/66/66
f 65/65/65 67/67/67 66/66/66
f 66/66/66 67/67/67 68/68/68
f 67/67/67 69/69/69 68/68/68
f 68/68/68 69/69/69 70/70/70
f 69/69/69 71/71/71 70/70/70
f 70/70/70 71/71/71 72/72/72
f 71/71/71 73/73/73 72/72/72
f 72/72/72 73/73/73 74/74/74
f 73/73/73 75/75/75 74/74/74
f 74/74/74 75/75/75 76/76/76
f 75/75/75 77/77/77 76/76/76
f 76/76/76 77/77/77 78/78/78
f 77/77/77 79/79/79 78/78/78
f 78/78/78 79/79/79 80/80/80
f 79/79/79 81/81/81 80/80/80
f 80/80/80 81/81/81 82/82/82
f 81/81/81 83/83/83 82/82/82
f 82/82/82 83/83/83 84/84/84
f 83/83/83 85/85/85 84/84/84
f 84/84/84 85/85/85 86/86/86
f 85/85/85 87/87/87 86/86/86
f 86/86/86 87/87/87 88/88/88
f 87/87/87 89/89/89 88/88/88
f 88/88/88 89/89/89 90/90/90
f 89/89/89 91/91/91 90/90/90
f 90/90/90 91/91/91 92/92/92
f 91/91/91 93/93/93 92/92/92
f 92/92/92 93/93/93 94/94/94
f 93/93/93 95/95/95 94/94/94
f 94/94/94 95/95/95 96/96/96
f 95/95/95 97/97/97 96/96/96
f 96/96/96 97/97/97 98/98/98
f 97/97/97 99/99/99 98/98/98
f 98/98/98 99/99/99 100/100/100
f 99/99/99 101/101/101 100/100/100
f 100/100/100 101/101/101 102/102/102
f 101/101/101 103/103/103 102/102/102
f 102/102/102 103/103/103 104/104/104
f 103/103/103 105/105/105 104/104/104
f 104/104/104 105/105/105 106/106/106
f 105/105/105 107/107/107 106/106/106
f 106/106/106 107/107/107 108/108/108
f 107/107/107 109/109/109 108/108/108
f 108/108/108 109/109/109 110/110/110
f 109/109/109 111/111/111 110/110/110
f 110/110/110 111/111/111 112/112/112
f 111/111/111 113/113/113 112/112/112
f 112/112/112 113/113/113 114/114/114
f 113/113/113 115/115/115 114/114/114
f 114/114/114 115/115/115 116/116/116
f 115/115/115 117/117/117 116/116/116
f 116/116/116 117/117/117 118/118/118
f 117/117/117 119/119/119 118/118/118
f 118/118/118 119/119/119 120/120/120
f 119/119/119 121/121/121 120/120/120
f 120/120/120 121/121/121 122/122/122
f 121/121/121 123/123/123 122/122/122
f 122/122/122 123/123/123 124/124/124
f 123/123/123 125/125/125 124/124/124
f 124/124/124 125/125/125 126/126/126
f 125/125/125 127/127/127 126/126/126
f 126/126/126 127/127/127 128/128/128
f 127/127/127 129/129/129 128/128/128
f 128/128/128 129/129/129 130/130/130
f 129/129/129 131/131/131 130/130/130
f 130/130/130 131/131/131 132/132/132
f 131/131/131 133/133/133 132/132/132
f 132/132/132 133/133/133 134/134/134
f 133/133/133 135/135/135 134/134/134
f 138/138/138 137/137/137 136/136/136
f 137/137/137 139/139/139 136/136/136
f 136/136/136 139/139/139 140/140/140
f 139/139/139 141/141/141 140/140/140
f 140/140/140 141/141/141 142/142/142
f 141/141/141 143/143/143 142/142/142
f 142/142/142 143/143/143 144/144/144
f 143/143/143 145/145/145 144/144/144
f 144/144/144 145/145/145 146/146/146
f 145/145/145 147/147/147 146/146/146
f 146/146/146 147/147/147 148/148/148
f 147/147/147 149/149/149 148/148/148
f 148/148/148 149/149/149 150/150/150
f 149/149/149 151/151/151 150/150/150
f 150/150/150 151/151/151 152/152/152
f 151/151/151 153/153/153 152/152/152
f 152/152/152 153/153/153 154/154/154
f 153/153/153 155/155/155 154/154/154
f 154/154/154 155/155/155 156/156/156
f 155/155/155 157/157/157 156/156/156
f 156/156/156 157/157/157 158/158/158
f 157/157/157 159/159/159 158/158/158
f 158/158/158 159/159/159 160/160/160
f 159/159/159 161/161/161 160/160/160
f 160/160/160 161/161/161 162/162/162
f 161/161/161 163/163/163 162/162/162
