g KK-SideWallPlank_1
v -3.379551 3.669865 -4.311594
v -4.44061 3.66986 -4.311591
v -4.453846 2.698723 -4.311591
v -3.37955 2.698724 -4.311594
v -3.379549 0.5849945 -4.311593
v -4.440609 0.5849926 -4.311592
v -3.379547 -1.310331 -4.311592
v -4.425941 -1.310329 -4.311593
v -3.379548 -2.516711 -4.311592
v -4.440608 -2.516712 -4.311593
v -3.330875 3.632535 -4.218364
v -3.35737 3.663002 -4.294464
v -3.35737 2.694032 -4.294464
v -3.330877 2.673191 -4.218364
v -3.35737 0.5849923 -4.294463
v -3.330875 0.5849939 -4.218364
v -3.330874 -1.287171 -4.218364
v -3.357369 -1.306074 -4.294462
v -3.330873 -2.4789 -4.218364
v -3.357369 -2.509763 -4.294462
v -3.35737 3.663002 -4.294464
v -3.379551 3.669865 -4.311594
v -3.37955 2.698724 -4.311594
v -3.35737 2.694032 -4.294464
v -3.35737 0.5849923 -4.294463
v -3.379549 0.5849945 -4.311593
v -3.357369 -1.306074 -4.294462
v -3.379547 -1.310331 -4.311592
v -3.357369 -2.509763 -4.294462
v -3.379548 -2.516711 -4.311592
v -4.467031 -2.516711 -4.285096
v -4.440608 -2.516712 -4.311593
v -4.425941 -1.310329 -4.311593
v -4.482519 -1.310329 -4.285098
v -4.467033 0.5849939 -4.285095
v -4.440609 0.5849926 -4.311592
v -4.480269 2.698724 -4.285095
v -4.453846 2.698723 -4.311591
v -4.467033 3.66986 -4.285095
v -4.44061 3.66986 -4.311591
vt 0.0005 0.7877209
vt 0.0006305589 0.8624964
vt 0.06885377 0.8628604
vt 0.06882283 0.7875594
vt 0.2174321 0.7878332
vt 0.2174321 0.8625693
vt 0.3506551 0.7877187
vt 0.3506898 0.8612029
vt 0.4354779 0.7877856
vt 0.4354763 0.8624839
vt 0.003176712 0.7800354
vt 0.001028318 0.7857157
vt 0.06914803 0.7856715
vt 0.07061412 0.7800493
vt 0.2174093 0.7857833
vt 0.217404 0.78008
vt 0.3490072 0.7800996
vt 0.3503428 0.7857577
vt 0.4327764 0.780102
vt 0.4349538 0.7857811
vt 0.001028318 0.7857157
vt 0.0005 0.7877209
vt 0.06882283 0.7875594
vt 0.06914803 0.7856715
vt 0.2174093 0.7857833
vt 0.2174321 0.7878332
vt 0.3503428 0.7857577
vt 0.3506551 0.7877187
vt 0.4349538 0.7857811
vt 0.4354779 0.7877856
vt 0.4355554 0.8652562
vt 0.4354763 0.8624839
vt 0.3506898 0.8612029
vt 0.3507341 0.8654335
vt 0.2174653 0.8653156
vt 0.2174321 0.8625693
vt 0.06884985 0.8653589
vt 0.06885377 0.8628604
vt 0.0005671291 0.8652412
vt 0.0006305589 0.8624964
vn -3.429976E-06 0 -1
vn -3.429976E-06 0 -1
vn -2.856964E-06 0 -1
vn -2.858313E-06 0 -1
vn -1.143326E-06 0 -1
vn -1.148422E-06 0 -1
vn 5.792315E-07 0 -1
vn 5.8004E-07 0 -1
vn 1.158462E-06 0 -1
vn 1.158462E-06 0 -1
vn 0.9444025 -5.977984E-07 -0.3287917
vn 0.9444024 -5.977984E-07 -0.3287917
vn 0.9444026 -2.719584E-07 -0.3287912
vn 0.9444027 -1.467849E-07 -0.3287911
vn 0.9443994 3.041751E-07 -0.3288006
vn 0.9443994 3.041721E-07 -0.3288005
vn 0.9443941 5.026798E-07 -0.3288159
vn 0.9443933 5.279123E-07 -0.3288177
vn 0.9443915 6.013003E-07 -0.3288231
vn 0.9443915 6.013003E-07 -0.3288231
vn 0.611231 2.884159E-07 -0.7914522
vn 0.611231 2.884159E-07 -0.7914522
vn 0.6112369 0 -0.7914477
vn 0.6112382 0 -0.7914466
vn 0.6112574 -1.985553E-07 -0.791432
vn 0.6112574 -1.985633E-07 -0.791432
vn 0.6112729 0 -0.7914199
vn 0.6112734 0 -0.7914194
vn 0.6112759 0 -0.7914176
vn 0.6112759 0 -0.7914176
vn -0.5381253 -0.0001836554 -0.8428648
vn -0.5381254 -0.0001836554 -0.8428648
vn -0.5381246 -3.319688E-05 -0.8428652
vn -0.5381247 -3.318593E-05 -0.8428652
vn -0.6268037 -0.002170519 -0.7791741
vn -0.6265677 -0.002164201 -0.779364
vn -0.7080737 0.002596742 -0.7061338
vn -0.7080737 0.00261977 -0.7061337
vn -0.708041 0.009650345 -0.7061054
vn -0.708041 0.009650344 -0.7061054
g KK-SideWallPlank_1_0
f 3/3/3 2/2/2 1/1/1
f 4/4/4 3/3/3 1/1/1
f 3/3/3 4/4/4 5/5/5
f 6/6/6 3/3/3 5/5/5
f 6/6/6 5/5/5 7/7/7
f 8/8/8 6/6/6 7/7/7
f 8/8/8 7/7/7 9/9/9
f 10/10/10 8/8/8 9/9/9
f 13/13/13 12/12/12 11/11/11
f 14/14/14 13/13/13 11/11/11
f 15/15/15 13/13/13 14/14/14
f 16/16/16 15/15/15 14/14/14
f 15/15/15 16/16/16 17/17/17
f 18/18/18 15/15/15 17/17/17
f 18/18/18 17/17/17 19/19/19
f 20/20/20 18/18/18 19/19/19
f 23/23/23 22/22/22 21/21/21
f 24/24/24 23/23/23 21/21/21
f 23/23/23 24/24/24 25/25/25
f 26/26/26 23/23/23 25/25/25
f 26/26/26 25/25/25 27/27/27
f 28/28/28 26/26/26 27/27/27
f 28/28/28 27/27/27 29/29/29
f 30/30/30 28/28/28 29/29/29
f 33/33/33 32/32/32 31/31/31
f 34/34/34 33/33/33 31/31/31
f 33/33/33 34/34/34 35/35/35
f 36/36/36 33/33/33 35/35/35
f 36/36/36 35/35/35 37/37/37
f 38/38/38 36/36/36 37/37/37
f 38/38/38 37/37/37 39/39/39
f 40/40/40 38/38/38 39/39/39
