g KK-SignLetter_1
v -10.82228 29.77288 31.44452
v -10.81762 29.77651 31.44452
v -10.49843 29.77651 31.44452
v -10.49377 29.77288 31.44452
v -10.82405 29.76632 31.44452
v -10.49199 29.76632 31.44452
v -10.82405 29.22952 31.44452
v -10.49199 29.23859 31.44452
v -10.83924 29.17347 31.44452
v -10.73631 28.84807 31.44452
v -10.49199 28.78985 31.44452
v -10.78276 28.89452 31.44452
v -10.72113 28.79202 31.44452
v -10.88569 29.12702 31.44452
v -10.83881 28.9097 31.44452
v -10.94174 29.11184 31.44452
v -11.11639 28.9097 31.44452
v -11.18633 29.11184 31.44452
v -11.17244 28.89452 31.44452
v -11.24238 29.12702 31.44452
v -10.49199 28.52609 31.44452
v -10.72113 28.52609 31.44452
v -10.71935 28.51953 31.44452
v -10.49377 28.51952 31.44452
v -10.71469 28.51669 31.44452
v -10.49843 28.51669 31.44452
v -11.21889 28.84807 31.44452
v -11.28884 29.17347 31.44452
v -11.54456 28.7774 31.44452
v -11.23407 28.79202 31.44452
v -11.23407 28.55316 31.44452
v -11.54455 28.5521 31.44452
v -11.54279 28.54561 31.44452
v -11.23587 28.54653 31.44452
v -11.53827 28.5421 31.44452
v -11.24065 28.54284 31.44452
v -11.54455 29.24051 31.44452
v -11.30402 29.22952 31.44452
v -11.30402 29.73923 31.44452
v -11.54456 29.73923 31.44452
v -11.3058 29.7458 31.44452
v -11.54278 29.7458 31.44452
v -11.31045 29.75103 31.44452
v -11.53812 29.75103 31.44452
v -11.20911 29.18448 31.26505
v -11.28884 29.17347 31.44452
v -11.23138 29.20675 31.26505
v -11.24238 29.12702 31.44452
v -11.1778 29.176 31.26505
v -11.18633 29.11184 31.44452
v -10.95027 29.176 31.26505
v -10.94174 29.11184 31.44452
v -10.91897 29.18448 31.26505
v -10.88569 29.12702 31.44452
v -10.89669 29.20675 31.26505
v -10.83924 29.17347 31.44452
v -10.88822 29.23806 31.26505
v -10.82405 29.22952 31.44452
v -10.88822 29.77485 31.26505
v -10.82405 29.76632 31.44452
v -10.87973 29.80616 31.26505
v -10.82228 29.77288 31.44452
v -10.85746 29.82843 31.26505
v -10.82616 29.83691 31.26505
v -10.81762 29.77651 31.44452
v -10.48989 29.83691 31.26505
v -10.49843 29.77651 31.44452
v -10.45858 29.82843 31.26505
v -10.49377 29.77288 31.44452
v -10.43631 29.80616 31.26505
v -10.42783 29.77485 31.26505
v -10.49199 29.76632 31.44452
v -10.42783 29.23859 31.26505
v -10.49199 29.23859 31.44452
v -10.42783 28.78985 31.26505
v -10.49199 28.78985 31.44452
v -10.42783 28.51756 31.26505
v -10.49199 28.52609 31.44452
v -10.43631 28.48625 31.26505
v -10.49377 28.51952 31.44452
v -10.45858 28.46398 31.26505
v -10.48989 28.4555 31.26505
v -10.49843 28.51669 31.44452
v -10.72323 28.4555 31.26505
v -10.71469 28.51669 31.44452
v -10.75454 28.46398 31.26505
v -10.71935 28.51953 31.44452
v -10.77681 28.48625 31.26505
v -10.78528 28.51756 31.26505
v -10.72113 28.52609 31.44452
v -10.78528 28.78348 31.26505
v -10.72113 28.79202 31.44452
v -10.79377 28.81479 31.26505
v -10.73631 28.84807 31.44452
v -10.81604 28.83706 31.26505
v -10.78276 28.89452 31.44452
v -10.84734 28.84554 31.26505
v -10.83881 28.9097 31.44452
v -11.10785 28.84554 31.26505
v -11.11639 28.9097 31.44452
v -11.13916 28.83706 31.26505
v -11.17244 28.89452 31.44452
v -11.16143 28.81479 31.26505
v -11.21889 28.84807 31.44452
v -11.16991 28.78348 31.26505
v -11.23407 28.79202 31.44452
v -11.16991 28.54464 31.26505
v -11.23407 28.55316 31.44452
v -11.17839 28.5133 31.26505
v -11.23587 28.54653 31.44452
v -11.20065 28.49098 31.26505
v -11.23197 28.48243 31.26505
v -11.24065 28.54284 31.44452
v -11.54666 28.48165 31.26505
v -11.53827 28.5421 31.44452
v -11.57795 28.49006 31.26505
v -11.54279 28.54561 31.44452
v -11.60023 28.51228 31.26505
v -11.60872 28.54355 31.26505
v -11.54455 28.5521 31.44452
v -11.60872 28.7774 31.26505
v -11.54456 28.7774 31.44452
v -11.60872 29.24051 31.26505
v -11.54455 29.24051 31.44452
v -11.60872 29.74776 31.26505
v -11.54456 29.73923 31.44452
v -11.60023 29.77907 31.26505
v -11.54278 29.7458 31.44452
v -11.57796 29.80134 31.26505
v -11.54666 29.80983 31.26505
v -11.53812 29.75103 31.44452
v -11.30192 29.80983 31.26505
v -11.31045 29.75103 31.44452
v -11.27061 29.80134 31.26505
v -11.3058 29.7458 31.44452
v -11.24834 29.77907 31.26505
v -11.23986 29.74776 31.26505
v -11.30402 29.73923 31.44452
v -11.23986 29.23806 31.26505
v -11.30402 29.22952 31.44452
v -11.23138 29.20675 31.26505
v -11.28884 29.17347 31.44452
vt 0.1488657 0.9378905
vt 0.1493385 0.9381923
vt 0.1686853 0.9358655
vt 0.1690372 0.9354774
vt 0.1485554 0.9374547
vt 0.1691989 0.9350043
vt 0.1345823 0.8924037
vt 0.1685933 0.8914373
vt 0.1316469 0.8865298
vt 0.1481919 0.8486319
vt 0.1726725 0.8507538
vt 0.142248 0.8532671
vt 0.1521821 0.8440958
vt 0.126423 0.8807327
vt 0.1355029 0.8546333
vt 0.1200482 0.8776392
vt 0.1018934 0.8504197
vt 0.08997674 0.8736565
vt 0.09559125 0.8472126
vt 0.08315013 0.8748978
vt 0.1761261 0.8309419
vt 0.1634836 0.826197
vt 0.1638355 0.8258863
vt 0.1760542 0.8304498
vt 0.1642455 0.8257926
vt 0.1757924 0.830103
vt 0.09059604 0.8413381
vt 0.07699436 0.8793517
vt 0.05887068 0.8345405
vt 0.08786388 0.8356298
vt 0.08115953 0.8164517
vt 0.06188451 0.817036
vt 0.0620883 0.8165802
vt 0.08088478 0.8160098
vt 0.06245024 0.8162477
vt 0.0804477 0.8156929
vt 0.04972332 0.8756482
vt 0.07267126 0.8838854
vt 0.05013764 0.9203362
vt 0.0359487 0.9133934
vt 0.04973998 0.9206473
vt 0.03597228 0.9139286
vt 0.04924419 0.9208115
vt 0.03618404 0.914461
vt 0.0901843 0.8938991
vt 0.07699436 0.8793517
vt 0.08754782 0.8952047
vt 0.08315013 0.8748978
vt 0.09317698 0.89322
vt 0.08997674 0.8736565
vt 0.1114896 0.8964346
vt 0.1200482 0.8776392
vt 0.1143263 0.8978912
vt 0.126423 0.8807327
vt 0.1165198 0.8999194
vt 0.1316469 0.8865298
vt 0.1182706 0.9024484
vt 0.1345823 0.8924037
vt 0.136323 0.9491305
vt 0.1485554 0.9374547
vt 0.1386744 0.9514344
vt 0.1488657 0.9378905
vt 0.1413713 0.9531667
vt 0.14447 0.9543683
vt 0.1493385 0.9381923
vt 0.1778391 0.9485797
vt 0.1686853 0.9358655
vt 0.1802095 0.9466283
vt 0.1690372 0.9354774
vt 0.1820784 0.9443231
vt 0.1834828 0.9416117
vt 0.1691989 0.9350043
vt 0.1862493 0.8926377
vt 0.1685933 0.8914373
vt 0.190326 0.8521279
vt 0.1726725 0.8507538
vt 0.1904693 0.8261895
vt 0.1761261 0.8309419
vt 0.1893971 0.8233778
vt 0.1760542 0.8304498
vt 0.1878111 0.8209203
vt 0.1856828 0.8187655
vt 0.1757924 0.830103
vt 0.1637027 0.811717
vt 0.1642455 0.8257926
vt 0.1609221 0.812007
vt 0.1638355 0.8258863
vt 0.1583449 0.8128254
vt 0.1559196 0.8141925
vt 0.1634836 0.826197
vt 0.1397089 0.8312759
vt 0.1521821 0.8440958
vt 0.1375259 0.8331984
vt 0.1481919 0.8486319
vt 0.1349244 0.8345399
vt 0.142248 0.8532671
vt 0.1319557 0.8352695
vt 0.1355029 0.8546333
vt 0.1107237 0.8316908
vt 0.1018934 0.8504197
vt 0.1078938 0.8301904
vt 0.09559125 0.8472126
vt 0.105717 0.8281451
vt 0.09059604 0.8413381
vt 0.1039695 0.8256177
vt 0.08786388 0.8356298
vt 0.09314974 0.8058395
vt 0.08115953 0.8164517
vt 0.09102392 0.8035899
vt 0.08088478 0.8160098
vt 0.08855474 0.8018603
vt 0.08569098 0.8006104
vt 0.0804477 0.8156929
vt 0.05503587 0.8030573
vt 0.06245024 0.8162477
vt 0.05255801 0.80466
vt 0.0620883 0.8165802
vt 0.05051772 0.8066553
vt 0.04887377 0.8090899
vt 0.06188451 0.817036
vt 0.04181315 0.8300476
vt 0.05887068 0.8345405
vt 0.03243229 0.8709527
vt 0.04972332 0.8756482
vt 0.02 0.9168187
vt 0.0359487 0.9133934
vt 0.0208027 0.9198873
vt 0.03597228 0.9139286
vt 0.0221702 0.9226477
vt 0.02412952 0.9251643
vt 0.03618404 0.914461
vt 0.04949983 0.9354737
vt 0.04924419 0.9208115
vt 0.05235605 0.9352847
vt 0.04973998 0.9206473
vt 0.05503137 0.9345572
vt 0.05758597 0.9332701
vt 0.05013764 0.9203362
vt 0.08531544 0.8971341
vt 0.07267126 0.8838854
vt 0.08754782 0.8952047
vt 0.07699436 0.8793517
vn 0 1.808567E-06 1
vn 0 -5.255632E-06 1
vn 0 -5.255632E-06 1
vn 0 1.808534E-06 1
vn 0 1.909858E-06 1
vn 0 1.909831E-06 1
vn 0 3.266745E-07 1
vn 0 0 1
vn -1.438867E-07 2.753968E-07 1
vn 0 -1.017329E-07 1
vn 1.627521E-07 0 1
vn -5.076462E-07 0 1
vn 1.629093E-07 -4.110875E-07 1
vn -4.061932E-07 0 1
vn -1.034106E-07 0 1
vn 0 0 1
vn 0 1.173169E-07 1
vn 1.215917E-07 1.414975E-07 1
vn 3.056535E-07 1.77916E-07 1
vn 3.440262E-07 1.755092E-07 1
vn 1.28613E-07 -1.397539E-06 1
vn 1.286128E-07 -1.397544E-06 1
vn 0 2.398595E-06 1
vn 0 2.3982E-06 1
vn 0 2.021264E-05 1
vn 0 2.021264E-05 1
vn 0 -1.731366E-07 1
vn 0 -1.027169E-07 1
vn 0 0 1
vn 0 -3.442079E-07 1
vn 0 -1.270824E-06 1
vn 0 -1.277424E-06 1
vn 0 0 1
vn 0 0 1
vn 0 7.959323E-06 1
vn 0 7.959322E-06 1
vn -1.34965E-07 0 1
vn -1.687687E-07 -2.312279E-07 1
vn -1.233297E-07 1.298255E-06 1
vn -1.233301E-07 1.29824E-06 1
vn 0 8.419684E-07 1
vn 0 8.418958E-07 1
vn 0 -3.64591E-06 1
vn 0 -3.64591E-06 1
vn 0.4700297 0.8115838 0.3469924
vn 0.8115836 0.4700301 0.3469927
vn 0.8115834 0.4700303 0.3469927
vn 0.47003 0.8115838 0.3469924
vn 0.1240435 0.9324777 0.3392618
vn 0.1240437 0.9324777 0.3392618
vn -0.1240437 0.9324777 0.3392618
vn -0.1240435 0.9324777 0.3392618
vn -0.47003 0.8115838 0.3469923
vn -0.4700302 0.8115836 0.3469923
vn -0.8115851 0.4700278 0.3469923
vn -0.8115847 0.4700283 0.3469923
vn -0.932478 0.1240418 0.3392615
vn -0.932478 0.1240419 0.3392616
vn -0.9324768 0.1240489 0.3392621
vn -0.9324768 0.1240494 0.3392621
vn -0.8115806 0.4700358 0.3469919
vn -0.6874849 0.6258443 0.3683522
vn -0.4970404 0.7985946 0.3394074
vn -0.1528809 0.932784 0.3264067
vn -0.1579105 0.9319054 0.3265218
vn 0.1528862 0.9327829 0.3264074
vn 0.157916 0.9319043 0.3265225
vn 0.4970423 0.7985933 0.3394077
vn 0.68749 0.6258389 0.3683518
vn 0.8115801 0.4700361 0.3469925
vn 0.9324778 0.1240461 0.3392605
vn 0.9324777 0.124047 0.3392605
vn 0.9416353 0 0.3366347
vn 0.9416353 0 0.3366347
vn 0.9416352 -2.95967E-07 0.3366351
vn 0.9416352 -2.959671E-07 0.3366352
vn 0.9324781 -0.1240456 0.3392599
vn 0.9324781 -0.1240454 0.3392599
vn 0.8115854 -0.4700291 0.3469895
vn 0.67703 -0.6357642 0.370721
vn 0.4888401 -0.8030092 0.3408982
vn 0.1433985 -0.9335157 0.3286112
vn 0.1468535 -0.932958 0.3286691
vn -0.1434003 -0.9335151 0.3286121
vn -0.1468562 -0.9329573 0.3286699
vn -0.4888409 -0.8030078 0.3409003
vn -0.6770344 -0.6357583 0.3707233
vn -0.8115848 -0.470028 0.3469925
vn -0.9324775 -0.1240447 0.3392618
vn -0.9324777 -0.1240443 0.3392618
vn -0.9324774 -0.124047 0.3392614
vn -0.9324774 -0.1240468 0.3392614
vn -0.8115833 -0.4700314 0.3469913
vn -0.8115832 -0.4700316 0.3469913
vn -0.4700314 -0.8115829 0.3469923
vn -0.4700317 -0.8115827 0.3469923
vn -0.1240445 -0.9324775 0.3392619
vn -0.1240444 -0.9324775 0.3392619
vn 0.1240431 -0.9324778 0.3392617
vn 0.124043 -0.9324778 0.3392617
vn 0.4700308 -0.8115833 0.3469921
vn 0.4700306 -0.8115835 0.3469921
vn 0.8115851 -0.4700281 0.3469917
vn 0.8115849 -0.4700284 0.3469918
vn 0.9324775 -0.1240433 0.3392622
vn 0.9324775 -0.1240435 0.3392622
vn 0.9325067 -0.1238453 0.3392542
vn 0.9325069 -0.1238449 0.3392541
vn 0.8119854 -0.4693599 0.3469597
vn 0.688032 -0.6252679 0.3683098
vn 0.4982845 -0.7977933 0.3394679
vn 0.1549744 -0.9323813 0.3265698
vn 0.1598969 -0.9315102 0.326683
vn -0.1499586 -0.9332469 0.3264396
vn -0.1549664 -0.9323893 0.3265513
vn -0.4950812 -0.7997802 0.3394792
vn -0.6860769 -0.627239 0.3686049
vn -0.8111817 -0.470699 0.3470256
vn -0.9324484 -0.1242401 0.3392704
vn -0.9324484 -0.1242396 0.3392704
vn -0.9416345 0 0.3366369
vn -0.9416345 0 0.3366368
vn -0.9416345 0 0.336637
vn -0.9416345 0 0.336637
vn -0.9324778 0.1240416 0.3392622
vn -0.9324778 0.1240416 0.3392622
vn -0.8115851 0.4700273 0.3469927
vn -0.7056612 0.6080766 0.3637102
vn -0.5130755 0.7896746 0.3364039
vn -0.1715475 0.9311131 0.3218696
vn -0.1791301 0.9295983 0.3221169
vn 0.1715453 0.9311135 0.3218694
vn 0.1791272 0.9295989 0.3221169
vn 0.5130723 0.7896768 0.3364035
vn 0.7056584 0.6080797 0.3637102
vn 0.8115839 0.4700298 0.346992
vn 0.9324777 0.1240426 0.3392624
vn 0.9324777 0.1240424 0.3392623
vn 0.9324772 0.1240443 0.3392628
vn 0.9324772 0.1240442 0.3392628
vn 0.8115834 0.4700303 0.3469927
vn 0.8115836 0.4700301 0.3469927
g KK-SignLetter_1_0
f 3/3/3 2/2/2 1/1/1
f 4/4/4 3/3/3 1/1/1
f 4/4/4 1/1/1 5/5/5
f 6/6/6 4/4/4 5/5/5
f 6/6/6 5/5/5 7/7/7
f 8/8/8 6/6/6 7/7/7
f 9/9/9 8/8/8 7/7/7
f 8/8/8 9/9/9 10/10/10
f 11/11/11 8/8/8 10/10/10
f 12/12/12 10/10/10 9/9/9
f 13/13/13 11/11/11 10/10/10
f 14/14/14 12/12/12 9/9/9
f 15/15/15 12/12/12 14/14/14
f 16/16/16 15/15/15 14/14/14
f 17/17/17 15/15/15 16/16/16
f 18/18/18 17/17/17 16/16/16
f 17/17/17 18/18/18 19/19/19
f 18/18/18 20/20/20 19/19/19
f 21/21/21 11/11/11 13/13/13
f 22/22/22 21/21/21 13/13/13
f 21/21/21 22/22/22 23/23/23
f 24/24/24 21/21/21 23/23/23
f 24/24/24 23/23/23 25/25/25
f 26/26/26 24/24/24 25/25/25
f 19/19/19 20/20/20 27/27/27
f 20/20/20 28/28/28 27/27/27
f 29/29/29 27/27/27 28/28/28
f 27/27/27 29/29/29 30/30/30
f 31/31/31 30/30/30 29/29/29
f 32/32/32 31/31/31 29/29/29
f 31/31/31 32/32/32 33/33/33
f 34/34/34 31/31/31 33/33/33
f 34/34/34 33/33/33 35/35/35
f 36/36/36 34/34/34 35/35/35
f 37/37/37 29/29/29 28/28/28
f 38/38/38 37/37/37 28/28/28
f 37/37/37 38/38/38 39/39/39
f 40/40/40 37/37/37 39/39/39
f 40/40/40 39/39/39 41/41/41
f 42/42/42 40/40/40 41/41/41
f 42/42/42 41/41/41 43/43/43
f 44/44/44 42/42/42 43/43/43
f 47/47/47 46/46/46 45/45/45
f 46/46/46 48/48/48 45/45/45
f 45/45/45 48/48/48 49/49/49
f 48/48/48 50/50/50 49/49/49
f 49/49/49 50/50/50 51/51/51
f 50/50/50 52/52/52 51/51/51
f 51/51/51 52/52/52 53/53/53
f 52/52/52 54/54/54 53/53/53
f 53/53/53 54/54/54 55/55/55
f 54/54/54 56/56/56 55/55/55
f 55/55/55 56/56/56 57/57/57
f 56/56/56 58/58/58 57/57/57
f 57/57/57 58/58/58 59/59/59
f 58/58/58 60/60/60 59/59/59
f 59/59/59 60/60/60 61/61/61
f 60/60/60 62/62/62 61/61/61
f 61/61/61 62/62/62 63/63/63
f 63/63/63 62/62/62 64/64/64
f 62/62/62 65/65/65 64/64/64
f 64/64/64 65/65/65 66/66/66
f 65/65/65 67/67/67 66/66/66
f 66/66/66 67/67/67 68/68/68
f 67/67/67 69/69/69 68/68/68
f 68/68/68 69/69/69 70/70/70
f 70/70/70 69/69/69 71/71/71
f 69/69/69 72/72/72 71/71/71
f 71/71/71 72/72/72 73/73/73
f 72/72/72 74/74/74 73/73/73
f 73/73/73 74/74/74 75/75/75
f 74/74/74 76/76/76 75/75/75
f 75/75/75 76/76/76 77/77/77
f 76/76/76 78/78/78 77/77/77
f 77/77/77 78/78/78 79/79/79
f 78/78/78 80/80/80 79/79/79
f 79/79/79 80/80/80 81/81/81
f 81/81/81 80/80/80 82/82/82
f 80/80/80 83/83/83 82/82/82
f 82/82/82 83/83/83 84/84/84
f 83/83/83 85/85/85 84/84/84
f 84/84/84 85/85/85 86/86/86
f 85/85/85 87/87/87 86/86/86
f 86/86/86 87/87/87 88/88/88
f 88/88/88 87/87/87 89/89/89
f 87/87/87 90/90/90 89/89/89
f 89/89/89 90/90/90 91/91/91
f 90/90/90 92/92/92 91/91/91
f 91/91/91 92/92/92 93/93/93
f 92/92/92 94/94/94 93/93/93
f 93/93/93 94/94/94 95/95/95
f 94/94/94 96/96/96 95/95/95
f 95/95/95 96/96/96 97/97/97
f 96/96/96 98/98/98 97/97/97
f 97/97/97 98/98/98 99/99/99
f 98/98/98 100/100/100 99/99/99
f 99/99/99 100/100/100 101/101/101
f 100/100/100 102/102/102 101/101/101
f 101/101/101 102/102/102 103/103/103
f 102/102/102 104/104/104 103/103/103
f 103/103/103 104/104/104 105/105/105
f 104/104/104 106/106/106 105/105/105
f 105/105/105 106/106/106 107/107/107
f 106/106/106 108/108/108 107/107/107
f 107/107/107 108/108/108 109/109/109
f 108/108/108 110/110/110 109/109/109
f 109/109/109 110/110/110 111/111/111
f 111/111/111 110/110/110 112/112/112
f 110/110/110 113/113/113 112/112/112
f 112/112/112 113/113/113 114/114/114
f 113/113/113 115/115/115 114/114/114
f 114/114/114 115/115/115 116/116/116
f 115/115/115 117/117/117 116/116/116
f 116/116/116 117/117/117 118/118/118
f 118/118/118 117/117/117 119/119/119
f 117/117/117 120/120/120 119/119/119
f 119/119/119 120/120/120 121/121/121
f 120/120/120 122/122/122 121/121/121
f 121/121/121 122/122/122 123/123/123
f 122/122/122 124/124/124 123/123/123
f 123/123/123 124/124/124 125/125/125
f 124/124/124 126/126/126 125/125/125
f 125/125/125 126/126/126 127/127/127
f 126/126/126 128/128/128 127/127/127
f 127/127/127 128/128/128 129/129/129
f 129/129/129 128/128/128 130/130/130
f 128/128/128 131/131/131 130/130/130
f 130/130/130 131/131/131 132/132/132
f 131/131/131 133/133/133 132/132/132
f 132/132/132 133/133/133 134/134/134
f 133/133/133 135/135/135 134/134/134
f 134/134/134 135/135/135 136/136/136
f 136/136/136 135/135/135 137/137/137
f 135/135/135 138/138/138 137/137/137
f 137/137/137 138/138/138 139/139/139
f 138/138/138 140/140/140 139/139/139
f 139/139/139 140/140/140 141/141/141
f 140/140/140 142/142/142 141/141/141
