g KK-Window_1
v -3.268556 -2.222247 6.13791
v -2.944803 -2.222248 3.038704
v -3.268557 -2.222248 3.038705
v -2.944799 -2.222248 6.13791
v -0.9323279 -2.222248 3.038707
v -0.9323273 -2.222248 6.138257
vt 0.9957147 0.7529939
vt 0.002215848 0.6492089
vt 0.002216028 0.7529935
vt 0.9957149 0.6492084
vt 0.00221692 0.004078642
vt 0.9958267 0.00407855
vn -9.426111E-07 -1 0
vn -4.713033E-07 -1 0
vn -9.42611E-07 -1 0
vn -4.712775E-07 -1 0
vn 0 -1 0
vn 0 -1 0
g KK-Window_1_0
f 3/3/3 2/2/2 1/1/1
f 2/2/2 4/4/4 1/1/1
f 2/2/2 5/5/5 4/4/4
f 5/5/5 6/6/6 4/4/4
