g MenuBoard_0 Instance
v -1.274406 -1.162662 1.692483
v -0.6456322 -1.162662 1.692483
v -0.6456322 -1.132255 1.692483
v -1.274406 -1.132255 1.692483
v -1.274406 -1.162662 2.922483
v -1.274406 -1.132255 2.922483
v -0.6456322 -1.132255 2.922483
v -0.6456322 -1.162662 2.922483
v -0.6456322 -1.162662 1.692483
v -0.6456322 -1.162662 2.922483
v -0.6456322 -1.132255 2.922483
v -0.6456322 -1.132255 1.692483
v -1.274406 -1.132255 1.692483
v -1.274406 -1.132255 2.922483
v -1.274406 -1.162662 2.922483
v -1.274406 -1.162662 1.692483
v -1.244116 -1.162662 1.722772
v -1.244116 -1.150139 1.722772
v -0.6759221 -1.150139 1.722772
v -0.6759221 -1.162662 1.722772
v -0.6759221 -1.162662 1.722772
v -0.6759221 -1.150139 1.722772
v -0.6759221 -1.150139 2.892193
v -0.6759221 -1.162662 2.892193
v -0.6759221 -1.162662 2.892193
v -0.6759221 -1.150139 2.892193
v -1.244116 -1.150139 2.892193
v -1.244116 -1.162662 2.892193
v -1.244116 -1.162662 2.892193
v -1.244116 -1.150139 2.892193
v -1.244116 -1.150139 1.722772
v -1.244116 -1.162662 1.722772
v -1.274406 -1.162662 1.692483
v -1.244116 -1.162662 1.722772
v -0.6759221 -1.162662 1.722772
v -0.6456322 -1.162662 1.692483
v -1.274406 -1.162662 2.922483
v -0.6759221 -1.162662 2.892193
v -1.244116 -1.162662 2.892193
v -0.6456322 -1.162662 2.922483
v -1.244116 -1.150139 1.722772
v -1.244116 -1.150139 2.892193
v -0.6759221 -1.150139 2.892193
v -0.6759221 -1.150139 1.722772
vt 0.5795444 0.5378905
vt 0.3113221 0.5378227
vt 0.3117396 0.5507874
vt 0.5797073 0.5507874
vt 0.5789102 0.01346475
vt 0.5784928 0.0005000298
vt 0.3105251 0.0005
vt 0.310688 0.01339717
vt 0.3113221 0.5378227
vt 0.310688 0.01339717
vt 0.2980517 0.01347487
vt 0.2980517 0.5376701
vt 0.5921807 0.5378127
vt 0.5921807 0.01361723
vt 0.5789102 0.01346475
vt 0.5795444 0.5378905
vt 0.5670474 0.5255012
vt 0.5647172 0.5232762
vt 0.3256931 0.5232545
vt 0.3235981 0.5254519
vt 0.3235981 0.5254519
vt 0.3256931 0.5232545
vt 0.3255152 0.02801137
vt 0.323185 0.02578626
vt 0.323185 0.02578626
vt 0.3255152 0.02801137
vt 0.5645392 0.0280329
vt 0.5666342 0.02583556
vt 0.5666342 0.02583556
vt 0.5645392 0.0280329
vt 0.5647172 0.5232762
vt 0.5670474 0.5255012
vt 0.5795444 0.5378905
vt 0.5670474 0.5255012
vt 0.3235981 0.5254519
vt 0.3113221 0.5378227
vt 0.5789102 0.01346475
vt 0.323185 0.02578626
vt 0.5666342 0.02583556
vt 0.310688 0.01339717
vt 0.5975448 0.0005000149
vt 0.5956033 0.4976157
vt 0.8371403 0.498559
vt 0.8390815 0.001443424
vn 0 0 -1
vn 0 0 -1
vn 0 0 -1
vn 0 0 -1
vn 0 0 1
vn 0 0 1
vn 0 0 1
vn 0 0 1
vn 1 0 0
vn 1 0 0
vn 1 0 0
vn 1 0 0
vn -1 0 0
vn -1 0 0
vn -1 0 0
vn -1 0 0
vn 0 0 1
vn 0 0 1
vn 0 0 1
vn 0 0 1
vn -1 0 0
vn -1 0 0
vn -1 0 0
vn -1 0 0
vn 0 0 -1
vn 0 0 -1
vn 0 0 -1
vn 0 0 -1
vn 1 0 0
vn 1 0 0
vn 1 0 0
vn 1 0 0
vn 0 -1 0
vn 0 -1 0
vn 0 -1 0
vn 0 -1 0
vn 0 -1 0
vn 0 -1 0
vn 0 -1 0
vn 0 -1 0
vn 0 -1 0
vn 0 -1 0
vn 0 -1 0
vn 0 -1 0
g MenuBoard_0 Instance_0
f 3/3/3 2/2/2 1/1/1
f 4/4/4 3/3/3 1/1/1
f 7/7/7 6/6/6 5/5/5
f 8/8/8 7/7/7 5/5/5
f 11/11/11 10/10/10 9/9/9
f 12/12/12 11/11/11 9/9/9
f 15/15/15 14/14/14 13/13/13
f 16/16/16 15/15/15 13/13/13
f 19/19/19 18/18/18 17/17/17
f 20/20/20 19/19/19 17/17/17
f 23/23/23 22/22/22 21/21/21
f 24/24/24 23/23/23 21/21/21
f 27/27/27 26/26/26 25/25/25
f 28/28/28 27/27/27 25/25/25
f 31/31/31 30/30/30 29/29/29
f 32/32/32 31/31/31 29/29/29
f 35/35/35 34/34/34 33/33/33
f 36/36/36 35/35/35 33/33/33
f 33/33/33 34/34/34 37/37/37
f 38/38/38 35/35/35 36/36/36
f 34/34/34 39/39/39 37/37/37
f 40/40/40 38/38/38 36/36/36
f 37/37/37 39/39/39 40/40/40
f 39/39/39 38/38/38 40/40/40
g MenuBoard_0 Instance_1
f 43/43/43 42/42/42 41/41/41
f 44/44/44 43/43/43 41/41/41
