g MenuBoard_1 Instance
v 2.277635 -1.162662 1.706823
v 2.906409 -1.162662 1.706823
v 2.906409 -1.132255 1.706823
v 2.277635 -1.132255 1.706823
v 2.277635 -1.162662 2.936822
v 2.277635 -1.132255 2.936822
v 2.906409 -1.132255 2.936822
v 2.906409 -1.162662 2.936822
v 2.906409 -1.162662 1.706823
v 2.906409 -1.162662 2.936822
v 2.906409 -1.132255 2.936822
v 2.906409 -1.132255 1.706823
v 2.277635 -1.132255 1.706823
v 2.277635 -1.132255 2.936822
v 2.277635 -1.162662 2.936822
v 2.277635 -1.162662 1.706823
v 2.307925 -1.162662 1.737112
v 2.307925 -1.150139 1.737112
v 2.876119 -1.150139 1.737112
v 2.876119 -1.162662 1.737112
v 2.876119 -1.162662 1.737112
v 2.876119 -1.150139 1.737112
v 2.876119 -1.150139 2.906533
v 2.876119 -1.162662 2.906533
v 2.876119 -1.162662 2.906533
v 2.876119 -1.150139 2.906533
v 2.307925 -1.150139 2.906533
v 2.307925 -1.162662 2.906533
v 2.307925 -1.162662 2.906533
v 2.307925 -1.150139 2.906533
v 2.307925 -1.150139 1.737112
v 2.307925 -1.162662 1.737112
v 2.277635 -1.162662 1.706823
v 2.307925 -1.162662 1.737112
v 2.876119 -1.162662 1.737112
v 2.906409 -1.162662 1.706823
v 2.277635 -1.162662 2.936822
v 2.876119 -1.162662 2.906533
v 2.307925 -1.162662 2.906533
v 2.906409 -1.162662 2.936822
v 2.307925 -1.150139 1.737112
v 2.307925 -1.150139 2.906533
v 2.876119 -1.150139 2.906533
v 2.876119 -1.150139 1.737112
vt 0.281885 0.5380147
vt 0.01367076 0.5377693
vt 0.01399799 0.5508496
vt 0.2819553 0.5508496
vt 0.2814546 0.01358038
vt 0.2811273 0.0005000298
vt 0.01317003 0.0005
vt 0.01324029 0.01333495
vt 0.01367076 0.5377693
vt 0.01324029 0.01333495
vt 0.0005000596 0.01334796
vt 0.0005 0.5375229
vt 0.2946252 0.5380017
vt 0.2946253 0.01382675
vt 0.2814546 0.01358038
vt 0.281885 0.5380147
vt 0.2694257 0.5255843
vt 0.2671319 0.5233263
vt 0.02811657 0.5232573
vt 0.0259851 0.5254248
vt 0.0259851 0.5254248
vt 0.02811657 0.5232573
vt 0.02799338 0.02802338
vt 0.02569948 0.02576524
vt 0.02569948 0.02576524
vt 0.02799338 0.02802338
vt 0.2670087 0.02809238
vt 0.2691402 0.0259249
vt 0.2691402 0.0259249
vt 0.2670087 0.02809238
vt 0.2671319 0.5233263
vt 0.2694257 0.5255843
vt 0.281885 0.5380147
vt 0.2694257 0.5255843
vt 0.0259851 0.5254248
vt 0.01367076 0.5377693
vt 0.2814546 0.01358038
vt 0.02569948 0.02576524
vt 0.2691402 0.0259249
vt 0.01324029 0.01333495
vt 0.7557364 0.5014415
vt 0.7537954 0.998557
vt 0.9953322 0.9995
vt 0.9972731 0.5023845
vn 0 0 -1
vn 0 0 -1
vn 0 0 -1
vn 0 0 -1
vn 0 0 1
vn 0 0 1
vn 0 0 1
vn 0 0 1
vn 1 0 0
vn 1 0 0
vn 1 0 0
vn 1 0 0
vn -1 0 0
vn -1 0 0
vn -1 0 0
vn -1 0 0
vn 0 0 1
vn 0 0 1
vn 0 0 1
vn 0 0 1
vn -1 0 0
vn -1 0 0
vn -1 0 0
vn -1 0 0
vn 0 0 -1
vn 0 0 -1
vn 0 0 -1
vn 0 0 -1
vn 1 0 0
vn 1 0 0
vn 1 0 0
vn 1 0 0
vn 0 -1 0
vn 0 -1 0
vn 0 -1 0
vn 0 -1 0
vn 0 -1 0
vn 0 -1 0
vn 0 -1 0
vn 0 -1 0
vn 0 -1 0
vn 0 -1 0
vn 0 -1 0
vn 0 -1 0
g MenuBoard_1 Instance_0
f 3/3/3 2/2/2 1/1/1
f 4/4/4 3/3/3 1/1/1
f 7/7/7 6/6/6 5/5/5
f 8/8/8 7/7/7 5/5/5
f 11/11/11 10/10/10 9/9/9
f 12/12/12 11/11/11 9/9/9
f 15/15/15 14/14/14 13/13/13
f 16/16/16 15/15/15 13/13/13
f 19/19/19 18/18/18 17/17/17
f 20/20/20 19/19/19 17/17/17
f 23/23/23 22/22/22 21/21/21
f 24/24/24 23/23/23 21/21/21
f 27/27/27 26/26/26 25/25/25
f 28/28/28 27/27/27 25/25/25
f 31/31/31 30/30/30 29/29/29
f 32/32/32 31/31/31 29/29/29
f 35/35/35 34/34/34 33/33/33
f 36/36/36 35/35/35 33/33/33
f 33/33/33 34/34/34 37/37/37
f 38/38/38 35/35/35 36/36/36
f 34/34/34 39/39/39 37/37/37
f 40/40/40 38/38/38 36/36/36
f 37/37/37 39/39/39 40/40/40
f 39/39/39 38/38/38 40/40/40
g MenuBoard_1 Instance_1
f 43/43/43 42/42/42 41/41/41
f 44/44/44 43/43/43 41/41/41
