g MMBBPhoto
v -0.3733112 -0.9407035 -0.3959338
v -0.3729312 -0.9408103 -0.3892401
v -0.3747781 -0.9454937 -0.3925685
v -0.3726101 -0.9377711 -0.4011508
v -0.371639 -0.938044 -0.3840455
v -0.3725188 -0.9364539 -0.4070816
v -0.3708748 -0.9369159 -0.3781242
v -0.2745292 -0.5956239 -0.7489125
v -0.2387102 -0.4947426 -0.7407945
v -0.3153031 -0.7116554 -0.7514424
v -0.3797382 -0.9433473 -0.484159
v -0.3857149 -0.9447949 -0.5718784
v -0.3548243 -0.8251724 -0.7479993
v -0.3895389 -0.940576 -0.6568851
v -0.3870761 -0.918893 -0.7391073
v -0.3906282 -0.9313332 -0.7262379
v -0.3909599 -0.9312509 -0.73202
v -0.3890069 -0.9244108 -0.7390958
v -0.3912851 -0.9312302 -0.7373504
v -0.3907902 -0.9294968 -0.7391435
v -0.3920893 -0.9328901 -0.7409294
v -0.3689261 -0.9464107 -0.2935755
v -0.2290436 -0.4671082 -0.7409025
v -0.3642668 -0.9508618 -0.1938699
v -0.2368047 -0.4890669 -0.7420977
v -0.2310946 -0.472743 -0.7421615
v -0.2352364 -0.4840513 -0.745103
v -0.2330019 -0.4776634 -0.7451279
v -0.2344009 -0.4807781 -0.7500788
v -0.01716436 0.006008272 0.001070331
v -0.3576061 -0.9495915 -0.09418663
v -0.1917196 -0.3588855 -0.7498611
v -0.1472914 -0.2313411 -0.7533568
v -0.1025229 -0.1038923 -0.7508572
v -0.06422961 0.004057972 -0.742743
v -0.3499582 -0.9427933 -0.009701625
v -0.05924904 0.01783383 -0.7402025
v -0.06232412 0.009733706 -0.7440462
v -0.05932152 0.0178542 -0.7414792
v -0.06075583 0.01474935 -0.7470514
v -0.05992036 0.01802248 -0.7520272
v -0.05852133 0.02113725 -0.7470763
v -0.05661401 0.02605762 -0.7441099
v -0.05456305 0.03169248 -0.742851
v -0.01723904 0.1399151 -0.7518095
v 0.02718911 0.2674595 -0.7553052
v 0.07195765 0.3949084 -0.7528057
v 0.1102509 0.5028586 -0.7446916
v -0.3479783 -0.9397146 0.004764646
v -0.3484045 -0.9409329 0.004769405
v -0.3500494 -0.9441105 -0.003770816
v -0.3522174 -0.9518331 0.004811992
v -0.3507505 -0.9470428 0.001446095
v -0.3503704 -0.9471496 0.008140881
v -0.3490782 -0.9443834 0.01333553
v -0.3483141 -0.9432553 0.01925679
v -0.3463654 -0.9527501 0.1038054
v -0.341706 -0.9572012 0.203511
v -0.1445797 -0.4908421 0.7468322
v -0.3350454 -0.9559309 0.3031943
v -0.1062864 -0.3828918 0.7549463
v -0.06151783 -0.255443 0.7574459
v -0.01708968 -0.1278985 0.7539502
v 0.02023434 -0.01967592 0.7449916
v -0.1542462 -0.5184765 0.7469401
v -0.3273974 -0.9491327 0.3876793
v -0.1521952 -0.5128417 0.7481991
v -0.1464851 -0.4965178 0.7481353
v -0.1502879 -0.5079213 0.7511655
v -0.1480534 -0.5015334 0.7511406
v -0.1488889 -0.5048065 0.7561164
v -0.1890987 -0.6196293 0.7558472
v -0.3257534 -0.9495947 0.4166367
v -0.3274887 -0.95045 0.3936101
v -0.2295338 -0.735756 0.7592841
v -0.3265176 -0.9507229 0.4107155
v -0.3242173 -0.9589484 0.4937776
v -0.3281898 -0.9533824 0.3988271
v -0.3278098 -0.9534891 0.4055207
v -0.3296567 -0.9581726 0.4021924
v -0.3202324 -0.9631951 0.5815192
v -0.2693956 -0.8491774 0.7567274
v -0.3144055 -0.9616881 0.6665036
v -0.3026156 -0.9426259 0.7485665
v -0.3076236 -0.9546571 0.7357928
v -0.3072988 -0.9547592 0.7415749
v -0.3045452 -0.948144 0.7485982
v -0.3070186 -0.9549086 0.7469059
v -0.3063208 -0.9532322 0.7486856
v -0.3074157 -0.9566829 0.7504984
v 0.3389825 0.95272 0.3980744
v 0.3386025 0.9528269 0.3913808
v 0.3404494 0.9575102 0.3947091
v 0.3382814 0.9497877 0.4032914
v 0.3373102 0.9500605 0.3861861
v 0.3381901 0.9484705 0.4092222
v 0.3365461 0.9489324 0.3802648
v 0.2402005 0.6076404 0.7510531
v 0.2043814 0.5067592 0.7429352
v 0.2809743 0.7236719 0.753583
v 0.3454095 0.955364 0.4862997
v 0.3513862 0.9568114 0.574019
v 0.3204956 0.837189 0.7501399
v 0.3552102 0.9525926 0.6590257
v 0.3527474 0.9309095 0.7412479
v 0.3562995 0.9433498 0.7283785
v 0.3566312 0.9432674 0.7341606
v 0.3546781 0.9364273 0.7412364
v 0.3569564 0.9432467 0.739491
v 0.3564615 0.9415135 0.7412841
v 0.3577606 0.9449066 0.7430701
v 0.3345974 0.9584272 0.2957161
v 0.1947149 0.4791247 0.7430431
v 0.3299381 0.9628783 0.1960106
v 0.2024759 0.5010835 0.7442384
v 0.1967658 0.4847596 0.7443022
v 0.2009077 0.4960679 0.7472436
v 0.1986732 0.4896799 0.7472686
v 0.2000722 0.4927947 0.7522194
v 0.3232774 0.9616081 0.0963273
v 0.1573909 0.3709021 0.7520017
v 0.1129627 0.2433576 0.7554974
v 0.06819419 0.1159088 0.7529978
v 0.02990089 0.007958587 0.7448836
v 0.3156295 0.9548099 0.0118423
v 0.02492032 -0.005817288 0.7423432
v 0.0279954 0.002282854 0.7461868
v 0.02228529 -0.01404106 0.7462506
v 0.02499281 -0.005837654 0.7436199
v 0.02642711 -0.002732786 0.7491921
v 0.02419262 -0.009120688 0.749217
v 0.02559165 -0.006005918 0.7541679
v 0.3136496 0.9517311 -0.002623984
v 0.3140758 0.9529494 -0.002628743
v 0.3157207 0.9561271 0.005911485
v 0.3178887 0.9638497 -0.002671322
v 0.3164218 0.9590594 0.0006945748
v 0.3160417 0.9591662 -0.006000211
v 0.3147495 0.9564 -0.01119486
v 0.3139854 0.9552718 -0.01711612
v 0.3120367 0.9647666 -0.1016648
v 0.3073773 0.9692177 -0.2013704
v 0.3007166 0.9679475 -0.3010536
v 0.1199175 0.5304931 -0.7447995
v 0.2930687 0.9611493 -0.3855386
v 0.1178665 0.5248582 -0.7460585
v 0.1121564 0.5085344 -0.7459947
v 0.1159592 0.5199379 -0.7490249
v 0.1137247 0.5135499 -0.749
v 0.1145602 0.5168231 -0.7539757
v 0.15477 0.631646 -0.7537066
v 0.2914247 0.9616113 -0.4144961
v 0.29316 0.9624665 -0.3914695
v 0.1952051 0.7477726 -0.7571434
v 0.2921889 0.9627394 -0.4085748
v 0.2898886 0.970965 -0.491637
v 0.2938611 0.9653989 -0.3966864
v 0.2934811 0.9655057 -0.4033801
v 0.295328 0.9701891 -0.4000518
v 0.2859037 0.9752116 -0.5793785
v 0.2350669 0.8611939 -0.7545868
v 0.2800768 0.9737046 -0.664363
v 0.2682869 0.9546424 -0.7464259
v 0.2732949 0.9666736 -0.7336521
v 0.2729701 0.9667757 -0.7394343
v 0.2702165 0.9601606 -0.7464576
v 0.2726899 0.9669251 -0.7447652
v 0.2719922 0.9652489 -0.746545
v 0.273087 0.9686994 -0.7483577
vt 0.8720256 0.543273
vt 0.8720267 0.5438052
vt 0.8724246 0.5435383
vt 0.8717852 0.5428595
vt 0.8717878 0.5442199
vt 0.8716813 0.5423884
vt 0.8716862 0.5446913
vt 0.8434172 0.5153672
vt 0.8349227 0.5160618
vt 0.8531793 0.5151098
vt 0.8723519 0.5362551
vt 0.8725769 0.5292778
vt 0.8627229 0.5153286
vt 0.8723221 0.5225191
vt 0.8705952 0.5159904
vt 0.8716264 0.5170079
vt 0.8716263 0.5165481
vt 0.8710593 0.5159886
vt 0.8716308 0.516124
vt 0.8714871 0.5159823
vt 0.8717747 0.5158386
vt 0.8723853 0.551411
vt 0.8325984 0.5160667
vt 0.8726423 0.5593385
vt 0.8344468 0.515961
vt 0.833074 0.5159639
vt 0.8340285 0.5157244
vt 0.8334913 0.5157255
vt 0.8337591 0.5153303
vt 0.791804 0.5753763
vt 0.8724229 0.5672652
vt 0.8235082 0.5153978
vt 0.8127847 0.5151685
vt 0.8020609 0.5154125
vt 0.7929689 0.516093
vt 0.8717569 0.5739869
vt 0.7918066 0.5162993
vt 0.7924932 0.5159912
vt 0.7918065 0.5161978
vt 0.7920753 0.5157536
vt 0.7918067 0.5153588
vt 0.7915379 0.5157536
vt 0.7911201 0.5159912
vt 0.7906442 0.5160929
vt 0.7815526 0.5154116
vt 0.7708285 0.5151666
vt 0.7601053 0.515395
vt 0.7510146 0.5160631
vt 0.8714212 0.5753798
vt 0.871545 0.5753798
vt 0.8718818 0.5745569
vt 0.8726538 0.5753799
vt 0.8721718 0.5750578
vt 0.8721718 0.575702
vt 0.8718817 0.5762026
vt 0.8717568 0.5767726
vt 0.8724223 0.5834942
vt 0.8726408 0.5914211
vt 0.8325933 0.6346894
vt 0.8723833 0.5993487
vt 0.8235027 0.6353574
vt 0.8127793 0.6355858
vt 0.8020552 0.635341
vt 0.7929637 0.6346595
vt 0.8349174 0.6346944
vt 0.8716833 0.6060684
vt 0.8344416 0.6347954
vt 0.8330686 0.6347924
vt 0.8340232 0.6350318
vt 0.8334861 0.6350306
vt 0.8337538 0.6354259
vt 0.8434119 0.6353897
vt 0.8716784 0.6083713
vt 0.8717852 0.6065398
vt 0.853174 0.6356481
vt 0.8717822 0.6079
vt 0.8723485 0.6145046
vt 0.8720241 0.6069542
vt 0.8720227 0.6074866
vt 0.8724219 0.6072214
vt 0.8725728 0.6214818
vt 0.8627177 0.6354302
vt 0.8723173 0.6282405
vt 0.8705899 0.6347691
vt 0.8716213 0.6337519
vt 0.8716211 0.6342116
vt 0.8710539 0.6347709
vt 0.8716255 0.6346355
vt 0.8714819 0.6347772
vt 0.8717693 0.634921
vt 0.7115822 0.6074795
vt 0.7115812 0.6069472
vt 0.7111832 0.607214
vt 0.7118227 0.607893
vt 0.7118199 0.6065326
vt 0.7119266 0.608364
vt 0.7119218 0.6060612
vt 0.7401909 0.6353852
vt 0.7486854 0.6346906
vt 0.7304288 0.6356428
vt 0.7112562 0.6144974
vt 0.7110311 0.6214747
vt 0.720885 0.6354239
vt 0.7112857 0.6282333
vt 0.7130127 0.6347621
vt 0.7119817 0.6337447
vt 0.7119818 0.6342043
vt 0.7125487 0.6347639
vt 0.7119772 0.6346284
vt 0.7121208 0.6347702
vt 0.7118334 0.6349139
vt 0.7112227 0.5993415
vt 0.7510095 0.6346858
vt 0.7109656 0.5914139
vt 0.7491611 0.6347916
vt 0.7505341 0.6347888
vt 0.7495793 0.6350281
vt 0.7501168 0.635027
vt 0.749849 0.6354222
vt 0.7111849 0.5834873
vt 0.7600998 0.6353546
vt 0.7708232 0.6355839
vt 0.7815472 0.63534
vt 0.7906391 0.6346593
vt 0.7118508 0.5767655
vt 0.7918012 0.6344531
vt 0.7911146 0.6347615
vt 0.7924879 0.6347615
vt 0.7918013 0.6345547
vt 0.7915326 0.6349988
vt 0.79207 0.6349988
vt 0.7918012 0.6353937
vt 0.7121869 0.5753728
vt 0.7120631 0.5753728
vt 0.7117262 0.5761955
vt 0.7109541 0.5753727
vt 0.7114358 0.5756947
vt 0.7114359 0.5750507
vt 0.7117264 0.5745498
vt 0.7118509 0.5739799
vt 0.7111857 0.5672582
vt 0.7109669 0.5593315
vt 0.7112249 0.5514038
vt 0.7486906 0.5160581
vt 0.7119243 0.5446842
vt 0.7491663 0.5159572
vt 0.7505392 0.5159602
vt 0.7495846 0.5157207
vt 0.750122 0.5157219
vt 0.7498542 0.5153266
vt 0.7401962 0.5153627
vt 0.7119293 0.5423813
vt 0.7118226 0.5442127
vt 0.7304339 0.5151044
vt 0.7118255 0.5428524
vt 0.7112595 0.536248
vt 0.711584 0.5437981
vt 0.7115851 0.5432659
vt 0.7111861 0.5435312
vt 0.7110353 0.5292706
vt 0.7208902 0.5153223
vt 0.7112905 0.522512
vt 0.713018 0.5159833
vt 0.7119868 0.5170007
vt 0.711987 0.516541
vt 0.7125539 0.5159816
vt 0.7119825 0.5161169
vt 0.7121262 0.5159753
vt 0.7118387 0.5158315
vn -0.9422183 0.3298067 0.05875538
vn -0.9422183 0.3298067 0.05875538
vn -0.9422149 0.3298157 0.05875999
vn -0.9422146 0.3298174 0.0587565
vn -0.9422146 0.3298174 0.0587565
vn -0.942215 0.3298165 0.05875362
vn -0.9422147 0.329817 0.0587546
vn -0.9422153 0.3298157 0.05875424
vn -0.942215 0.3298164 0.05875394
vn -0.942215 0.3298164 0.05875438
vn -0.9422146 0.3298173 0.05875461
vn -0.9422149 0.3298167 0.05875447
vn -0.942215 0.3298165 0.0587544
vn -0.9422149 0.3298167 0.05875476
vn -0.9422146 0.3298175 0.05875451
vn -0.9422137 0.3298201 0.05875472
vn -0.9422141 0.3298187 0.05875418
vn -0.9422141 0.3298188 0.05875419
vn -0.9422159 0.3298146 0.05875044
vn -0.9422159 0.3298146 0.05875045
vn -0.942217 0.3298118 0.05874817
vn -0.9422149 0.3298168 0.05875439
vn -0.9422149 0.3298167 0.05875352
vn -0.9422149 0.3298165 0.0587546
vn -0.9422149 0.3298193 0.05873915
vn -0.9422149 0.3298193 0.05873915
vn -0.9422138 0.3298197 0.05875439
vn -0.9422138 0.3298197 0.05875439
vn -0.9422114 0.3298266 0.05875501
vn -0.9422149 0.3298165 0.05875445
vn -0.9422149 0.3298164 0.05875457
vn -0.9422149 0.3298166 0.05875442
vn -0.942215 0.3298165 0.05875446
vn -0.942215 0.3298164 0.05875447
vn -0.9422153 0.3298154 0.05875428
vn -0.9422148 0.3298165 0.05875596
vn -0.9422168 0.3298113 0.05875389
vn -0.9422175 0.3298092 0.05875349
vn -0.9422174 0.3298097 0.05875378
vn -0.9422141 0.3298188 0.05875517
vn -0.9422148 0.3298168 0.05875468
vn -0.9422155 0.3298148 0.05875419
vn -0.9422187 0.3298061 0.05875355
vn -0.9422155 0.3298149 0.05875433
vn -0.942215 0.3298165 0.05875447
vn -0.9422149 0.3298165 0.05875444
vn -0.942215 0.3298165 0.05875448
vn -0.9422154 0.329815 0.05875605
vn -0.942215 0.3298164 0.05875375
vn -0.9422141 0.3298191 0.05875313
vn -0.9422141 0.3298187 0.05875648
vn -0.9422125 0.3298237 0.05875285
vn -0.9422125 0.3298229 0.05875851
vn -0.9422126 0.3298246 0.05874721
vn -0.9422148 0.3298178 0.05874986
vn -0.9422151 0.3298163 0.05875237
vn -0.9422149 0.3298165 0.05875472
vn -0.9422149 0.3298165 0.05875454
vn -0.9422153 0.3298156 0.05875432
vn -0.9422149 0.3298168 0.05875433
vn -0.942215 0.3298165 0.05875443
vn -0.942215 0.3298165 0.05875443
vn -0.9422149 0.3298165 0.05875444
vn -0.9422151 0.3298159 0.05875436
vn -0.9422154 0.3298151 0.05875385
vn -0.9422149 0.3298166 0.05875451
vn -0.9422178 0.3298082 0.05875649
vn -0.9422178 0.3298082 0.05875649
vn -0.9422127 0.3298225 0.05875727
vn -0.9422127 0.3298225 0.05875727
vn -0.9422125 0.3298235 0.05875507
vn -0.9422149 0.3298167 0.05875458
vn -0.9422147 0.3298171 0.0587558
vn -0.942216 0.3298128 0.05875672
vn -0.942215 0.3298164 0.05875431
vn -0.9422162 0.3298128 0.05875673
vn -0.9422148 0.3298167 0.05875463
vn -0.9422162 0.3298143 0.0587482
vn -0.9422162 0.3298143 0.05874821
vn -0.9422175 0.3298118 0.05873853
vn -0.9422152 0.3298158 0.05875461
vn -0.9422149 0.3298168 0.05875422
vn -0.942215 0.3298164 0.05875473
vn -0.9422156 0.3298143 0.05875583
vn -0.9422155 0.3298147 0.05875391
vn -0.9422174 0.3298084 0.05876101
vn -0.9422174 0.3298084 0.05876101
vn -0.9422159 0.3298144 0.05875117
vn -0.9422159 0.3298143 0.05875129
vn -0.9422153 0.3298196 0.05873164
vn -0.9422178 0.3298084 0.05875493
vn -0.9422178 0.3298085 0.05875493
vn -0.9422135 0.3298197 0.05875947
vn -0.9422145 0.3298183 0.05875163
vn -0.9422145 0.3298184 0.05875163
vn -0.9422146 0.3298172 0.0587553
vn -0.9422146 0.3298174 0.05875494
vn -0.9422149 0.3298165 0.0587542
vn -0.9422148 0.329817 0.05875324
vn -0.942215 0.3298164 0.05875415
vn -0.9422152 0.3298159 0.05875427
vn -0.9422147 0.329817 0.05875451
vn -0.9422149 0.3298166 0.05875449
vn -0.9422149 0.3298167 0.05875475
vn -0.9422153 0.3298158 0.05875281
vn -0.9422147 0.3298174 0.05875332
vn -0.9422163 0.3298137 0.05874931
vn -0.9422163 0.3298137 0.05874929
vn -0.9422123 0.3298238 0.05875388
vn -0.9422125 0.3298238 0.05875389
vn -0.9422089 0.3298341 0.05875214
vn -0.9422151 0.3298161 0.05875438
vn -0.9422148 0.3298171 0.05875318
vn -0.942215 0.3298164 0.05875449
vn -0.9422123 0.329827 0.05873787
vn -0.9422122 0.3298269 0.05873786
vn -0.9422138 0.3298189 0.05875775
vn -0.9422138 0.3298189 0.05875774
vn -0.9422128 0.3298222 0.05875769
vn -0.942215 0.3298165 0.05875441
vn -0.9422149 0.3298166 0.05875438
vn -0.9422149 0.3298165 0.05875446
vn -0.942215 0.3298165 0.05875443
vn -0.9422149 0.3298166 0.05875451
vn -0.9422145 0.3298178 0.05875519
vn -0.9422153 0.3298155 0.05875441
vn -0.9422149 0.3298166 0.05875447
vn -0.9422165 0.3298122 0.05875373
vn -0.9422156 0.3298145 0.05875391
vn -0.9422167 0.3298119 0.05875284
vn -0.9422146 0.3298178 0.05875365
vn -0.9422155 0.3298148 0.05875324
vn -0.9422144 0.3298185 0.05875313
vn -0.942214 0.3298197 0.05875282
vn -0.942212 0.3298248 0.05875301
vn -0.9422148 0.3298171 0.05875378
vn -0.9422143 0.3298184 0.05875451
vn -0.9422153 0.3298157 0.05875305
vn -0.9422154 0.3298155 0.05875227
vn -0.9422151 0.3298164 0.05875264
vn -0.942215 0.3298165 0.05875457
vn -0.942215 0.3298165 0.05875456
vn -0.9422149 0.3298166 0.05875498
vn -0.9422155 0.3298143 0.05875623
vn -0.9422143 0.3298185 0.05875391
vn -0.9422198 0.3297992 0.05877277
vn -0.9422199 0.3297992 0.05877278
vn -0.9422152 0.329817 0.05874716
vn -0.9422152 0.329817 0.05874716
vn -0.9422151 0.3298161 0.05875438
vn -0.9422151 0.3298162 0.05875442
vn -0.9422144 0.3298183 0.05875275
vn -0.9422108 0.3298284 0.05875412
vn -0.9422149 0.3298164 0.05875495
vn -0.9422108 0.3298284 0.05875413
vn -0.942215 0.3298164 0.05875443
vn -0.9422194 0.3298047 0.05874905
vn -0.9422194 0.3298047 0.05874905
vn -0.9422113 0.3298283 0.05874592
vn -0.9422149 0.3298165 0.05875411
vn -0.9422149 0.3298165 0.05875469
vn -0.9422149 0.3298165 0.05875427
vn -0.9422147 0.3298169 0.05875627
vn -0.9422152 0.3298154 0.0587558
vn -0.9422148 0.329816 0.05875931
vn -0.9422148 0.329816 0.05875933
vn -0.9422172 0.3298097 0.05875577
vn -0.9422172 0.3298096 0.05875575
vn -0.942216 0.3298126 0.05875856
g MMBBPhoto_0
f 3/3/3 2/2/2 1/1/1
f 1/1/1 2/2/2 4/4/4
f 2/2/2 5/5/5 4/4/4
f 4/4/4 5/5/5 6/6/6
f 5/5/5 7/7/7 6/6/6
f 8/8/8 6/6/6 7/7/7
f 8/8/8 7/7/7 9/9/9
f 6/6/6 8/8/8 10/10/10
f 10/10/10 11/11/11 6/6/6
f 10/10/10 12/12/12 11/11/11
f 10/10/10 13/13/13 12/12/12
f 13/13/13 14/14/14 12/12/12
f 13/13/13 15/15/15 14/14/14
f 15/15/15 16/16/16 14/14/14
f 17/17/17 16/16/16 15/15/15
f 18/18/18 17/17/17 15/15/15
f 19/19/19 17/17/17 18/18/18
f 20/20/20 19/19/19 18/18/18
f 21/21/21 19/19/19 20/20/20
f 9/9/9 7/7/7 22/22/22
f 23/23/23 9/9/9 22/22/22
f 23/23/23 22/22/22 24/24/24
f 25/25/25 9/9/9 23/23/23
f 26/26/26 25/25/25 23/23/23
f 27/27/27 25/25/25 26/26/26
f 28/28/28 27/27/27 26/26/26
f 29/29/29 27/27/27 28/28/28
f 23/23/23 24/24/24 30/30/30
f 30/30/30 24/24/24 31/31/31
f 30/30/30 32/32/32 23/23/23
f 30/30/30 33/33/33 32/32/32
f 30/30/30 34/34/34 33/33/33
f 30/30/30 35/35/35 34/34/34
f 30/30/30 31/31/31 36/36/36
f 30/30/30 37/37/37 35/35/35
f 38/38/38 35/35/35 37/37/37
f 39/39/39 38/38/38 37/37/37
f 40/40/40 38/38/38 39/39/39
f 41/41/41 40/40/40 39/39/39
f 42/42/42 41/41/41 39/39/39
f 43/43/43 42/42/42 39/39/39
f 43/43/43 39/39/39 37/37/37
f 44/44/44 43/43/43 37/37/37
f 37/37/37 30/30/30 44/44/44
f 44/44/44 30/30/30 45/45/45
f 45/45/45 30/30/30 46/46/46
f 46/46/46 30/30/30 47/47/47
f 47/47/47 30/30/30 48/48/48
f 36/36/36 49/49/49 30/30/30
f 49/49/49 36/36/36 50/50/50
f 36/36/36 51/51/51 50/50/50
f 50/50/50 51/51/51 52/52/52
f 51/51/51 53/53/53 52/52/52
f 50/50/50 52/52/52 54/54/54
f 55/55/55 50/50/50 54/54/54
f 55/55/55 56/56/56 50/50/50
f 56/56/56 49/49/49 50/50/50
f 49/49/49 56/56/56 30/30/30
f 57/57/57 30/30/30 56/56/56
f 58/58/58 30/30/30 57/57/57
f 58/58/58 59/59/59 30/30/30
f 60/60/60 59/59/59 58/58/58
f 61/61/61 30/30/30 59/59/59
f 62/62/62 30/30/30 61/61/61
f 63/63/63 30/30/30 62/62/62
f 64/64/64 30/30/30 63/63/63
f 65/65/65 59/59/59 60/60/60
f 66/66/66 65/65/65 60/60/60
f 65/65/65 67/67/67 59/59/59
f 67/67/67 68/68/68 59/59/59
f 67/67/67 69/69/69 68/68/68
f 69/69/69 70/70/70 68/68/68
f 69/69/69 71/71/71 70/70/70
f 66/66/66 72/72/72 65/65/65
f 73/73/73 72/72/72 66/66/66
f 66/66/66 74/74/74 73/73/73
f 72/72/72 73/73/73 75/75/75
f 74/74/74 76/76/76 73/73/73
f 77/77/77 75/75/75 73/73/73
f 74/74/74 78/78/78 76/76/76
f 78/78/78 79/79/79 76/76/76
f 78/78/78 80/80/80 79/79/79
f 81/81/81 75/75/75 77/77/77
f 82/82/82 75/75/75 81/81/81
f 83/83/83 82/82/82 81/81/81
f 84/84/84 82/82/82 83/83/83
f 85/85/85 84/84/84 83/83/83
f 85/85/85 86/86/86 84/84/84
f 86/86/86 87/87/87 84/84/84
f 86/86/86 88/88/88 87/87/87
f 88/88/88 89/89/89 87/87/87
f 88/88/88 90/90/90 89/89/89
f 93/93/93 92/92/92 91/91/91
f 91/91/91 92/92/92 94/94/94
f 92/92/92 95/95/95 94/94/94
f 94/94/94 95/95/95 96/96/96
f 95/95/95 97/97/97 96/96/96
f 98/98/98 96/96/96 97/97/97
f 98/98/98 97/97/97 99/99/99
f 96/96/96 98/98/98 100/100/100
f 100/100/100 101/101/101 96/96/96
f 100/100/100 102/102/102 101/101/101
f 100/100/100 103/103/103 102/102/102
f 103/103/103 104/104/104 102/102/102
f 103/103/103 105/105/105 104/104/104
f 105/105/105 106/106/106 104/104/104
f 107/107/107 106/106/106 105/105/105
f 108/108/108 107/107/107 105/105/105
f 109/109/109 107/107/107 108/108/108
f 110/110/110 109/109/109 108/108/108
f 111/111/111 109/109/109 110/110/110
f 99/99/99 97/97/97 112/112/112
f 113/113/113 99/99/99 112/112/112
f 113/113/113 112/112/112 114/114/114
f 115/115/115 99/99/99 113/113/113
f 116/116/116 115/115/115 113/113/113
f 117/117/117 115/115/115 116/116/116
f 118/118/118 117/117/117 116/116/116
f 119/119/119 117/117/117 118/118/118
f 113/113/113 114/114/114 30/30/30
f 30/30/30 114/114/114 120/120/120
f 30/30/30 121/121/121 113/113/113
f 30/30/30 122/122/122 121/121/121
f 30/30/30 123/123/123 122/122/122
f 30/30/30 124/124/124 123/123/123
f 30/30/30 120/120/120 125/125/125
f 30/30/30 126/126/126 124/124/124
f 127/127/127 124/124/124 126/126/126
f 126/126/126 30/30/30 64/64/64
f 64/64/64 128/128/128 126/126/126
f 129/129/129 127/127/127 126/126/126
f 128/128/128 129/129/129 126/126/126
f 130/130/130 127/127/127 129/129/129
f 128/128/128 131/131/131 129/129/129
f 132/132/132 130/130/130 129/129/129
f 131/131/131 132/132/132 129/129/129
f 125/125/125 133/133/133 30/30/30
f 133/133/133 125/125/125 134/134/134
f 125/125/125 135/135/135 134/134/134
f 134/134/134 135/135/135 136/136/136
f 135/135/135 137/137/137 136/136/136
f 134/134/134 136/136/136 138/138/138
f 139/139/139 134/134/134 138/138/138
f 139/139/139 140/140/140 134/134/134
f 140/140/140 133/133/133 134/134/134
f 133/133/133 140/140/140 30/30/30
f 141/141/141 30/30/30 140/140/140
f 142/142/142 30/30/30 141/141/141
f 142/142/142 48/48/48 30/30/30
f 143/143/143 48/48/48 142/142/142
f 144/144/144 48/48/48 143/143/143
f 145/145/145 144/144/144 143/143/143
f 144/144/144 146/146/146 48/48/48
f 146/146/146 147/147/147 48/48/48
f 146/146/146 148/148/148 147/147/147
f 148/148/148 149/149/149 147/147/147
f 148/148/148 150/150/150 149/149/149
f 145/145/145 151/151/151 144/144/144
f 152/152/152 151/151/151 145/145/145
f 145/145/145 153/153/153 152/152/152
f 151/151/151 152/152/152 154/154/154
f 153/153/153 155/155/155 152/152/152
f 156/156/156 154/154/154 152/152/152
f 153/153/153 157/157/157 155/155/155
f 157/157/157 158/158/158 155/155/155
f 157/157/157 159/159/159 158/158/158
f 160/160/160 154/154/154 156/156/156
f 161/161/161 154/154/154 160/160/160
f 162/162/162 161/161/161 160/160/160
f 163/163/163 161/161/161 162/162/162
f 164/164/164 163/163/163 162/162/162
f 164/164/164 165/165/165 163/163/163
f 165/165/165 166/166/166 163/163/163
f 165/165/165 167/167/167 166/166/166
f 167/167/167 168/168/168 166/166/166
f 167/167/167 169/169/169 168/168/168
