g NoWash_BunBottom
v -5.535246E-15 0.1964333 -3.970879E-08
v -2.237255E-07 0.1969981 -1.481667
v -0.1934196 0.1969981 -1.470709
v -0.3831242 0.1969981 -1.431188
v 0.1934192 0.1969981 -1.47071
v -0.5672309 0.1969981 -1.370499
v 0.3831238 0.1969981 -1.431188
v -0.7403583 0.1969981 -1.283192
v 0.5672305 0.1969981 -1.370499
v -0.9025348 0.1969981 -1.176906
v 0.7403579 0.1969981 -1.283192
v -1.047173 0.196998 -1.047764
v 0.9025345 0.1969981 -1.176907
v -1.176315 0.196998 -0.903125
v 1.047173 0.196998 -1.047764
v -1.282601 0.196998 -0.7409474
v 1.176315 0.196998 -0.9031254
v -1.369907 0.196998 -0.5678081
v 1.282601 0.196998 -0.7409478
v -1.430597 0.1969979 -0.3836144
v 1.369907 0.196998 -0.5678085
v -1.470118 0.1969979 -0.1937017
v 1.430597 0.1969979 -0.3836148
v -1.481076 0.1969979 2.47815E-07
v 1.470118 0.1969979 -0.1937021
v -1.470118 0.1969978 0.1937022
v 1.481076 0.1969979 -1.994574E-07
v -1.430597 0.1969978 0.3836148
v 1.470118 0.1969978 0.1937017
v -1.369907 0.1969978 0.5678086
v 1.430597 0.1969978 0.3836144
v -1.282601 0.1969977 0.7409479
v 1.369907 0.1969978 0.5678082
v -1.176315 0.1969977 0.9031256
v 1.282601 0.1969977 0.7409475
v -1.047173 0.1969977 1.047764
v 1.176315 0.1969977 0.9031253
v -0.9025345 0.1969977 1.176907
v 1.047173 0.1969977 1.047764
v -0.7403579 0.1969977 1.283192
v 0.9025348 0.1969977 1.176906
v -0.5672305 0.1969976 1.370499
v 0.7403583 0.1969977 1.283192
v -0.3831238 0.1969976 1.431188
v 0.5672309 0.1969976 1.370499
v -0.1934192 0.1969976 1.470709
v 0.3831242 0.1969976 1.431188
v 2.237255E-07 0.1969976 1.481667
v 0.1934196 0.1969976 1.470709
vt 0.7449778 0.7488139
vt 0.7935522 0.7328204
vt 0.791105 0.7265972
vt 0.7877615 0.7208048
vt 0.7952811 0.7392795
vt 0.7837848 0.7154241
vt 0.7960331 0.7459255
vt 0.7790535 0.710691
vt 0.7960306 0.7526162
vt 0.7738184 0.7065213
vt 0.7950373 0.7592344
vt 0.7680233 0.7031736
vt 0.7933037 0.7656988
vt 0.7618876 0.700501
vt 0.790631 0.7718347
vt 0.7554235 0.6987677
vt 0.7872833 0.7776294
vt 0.7488049 0.6977742
vt 0.7831141 0.7828644
vt 0.7421113 0.6977728
vt 0.7783802 0.7875955
vt 0.7354587 0.6985272
vt 0.7729967 0.7915736
vt 0.72899 0.7002586
vt 0.7671974 0.7949192
vt 0.7227581 0.702709
vt 0.7609651 0.7973694
vt 0.7169586 0.7060546
vt 0.7544965 0.7991009
vt 0.7115752 0.7100329
vt 0.7478441 0.7998554
vt 0.7068417 0.7147638
vt 0.7411503 0.799854
vt 0.7026718 0.7199991
vt 0.7345319 0.798861
vt 0.6993242 0.7257938
vt 0.7280677 0.7971273
vt 0.6966516 0.7319296
vt 0.7219319 0.7944546
vt 0.6949177 0.7383938
vt 0.7161367 0.7911069
vt 0.6939247 0.745012
vt 0.7109016 0.7869374
vt 0.6939222 0.751703
vt 0.7061704 0.7822041
vt 0.6946741 0.7583486
vt 0.7021935 0.7768232
vt 0.6964029 0.7648079
vt 0.6988502 0.7710307
vn 0 -1 0
vn 0 -1 -0.0003812116
vn -4.977998E-05 -1 -0.0003775113
vn -9.864685E-05 -1 -0.0003682436
vn 4.969797E-05 -1 -0.0003775113
vn -0.00014573 -1 -0.0003518336
vn 9.864676E-05 -1 -0.0003682438
vn -0.0001905842 -1 -0.0003302073
vn 0.0001457495 -1 -0.0003518336
vn -0.0002316355 -1 -0.0003021861
vn 0.0001905518 -1 -0.0003302073
vn -0.0002695118 -1 -0.0002696642
vn 0.0002317069 -1 -0.0003021863
vn -0.0003019848 -1 -0.0002319133
vn 0.0002694793 -1 -0.0002696643
vn -0.000330073 -1 -0.0001907547
vn 0.0003019979 -1 -0.0002319133
vn -0.0003518025 -1 -0.0001458567
vn 0.0003301121 -1 -0.0001907548
vn -0.0003681908 -1 -9.879468E-05
vn 0.0003517765 -1 -0.0001458568
vn -0.0003775043 -1 -4.983403E-05
vn 0.0003681908 -1 -9.879484E-05
vn -0.0003811938 -1 0
vn 0.0003774914 -1 -4.983404E-05
vn -0.0003775042 -1 4.952352E-05
vn 0.0003811938 -1 0
vn -0.0003681778 -1 9.847695E-05
vn 0.0003775173 -1 4.952351E-05
vn -0.0003517638 -1 0.0001455256
vn 0.0003681778 -1 9.847666E-05
vn -0.0003301118 -1 0.0001904075
vn 0.0003517378 -1 0.0001455254
vn -0.0003020366 -1 0.0002316077
vn 0.0003301248 -1 0.0001904075
vn -0.0002695638 -1 0.0002693447
vn 0.0003020235 -1 0.0002316076
vn -0.0002317134 -1 0.0003018383
vn 0.0002695378 -1 0.0002693446
vn -0.0001905906 -1 0.0003298863
vn 0.0002316875 -1 0.0003018381
vn -0.0001457495 -1 0.0003514962
vn 0.0001905192 -1 0.0003298863
vn -9.865494E-05 -1 0.000367913
vn 0.000145834 -1 0.0003514962
vn -4.971824E-05 -1 0.0003771926
vn 9.875889E-05 -1 0.0003679131
vn 0 -1 0.0003808898
vn 4.969632E-05 -1 0.0003771927
g NoWash_BunBottom_0
f 3/3/3 2/2/2 1/1/1
f 4/4/4 3/3/3 1/1/1
f 2/2/2 5/5/5 1/1/1
f 6/6/6 4/4/4 1/1/1
f 5/5/5 7/7/7 1/1/1
f 8/8/8 6/6/6 1/1/1
f 7/7/7 9/9/9 1/1/1
f 10/10/10 8/8/8 1/1/1
f 9/9/9 11/11/11 1/1/1
f 12/12/12 10/10/10 1/1/1
f 11/11/11 13/13/13 1/1/1
f 14/14/14 12/12/12 1/1/1
f 13/13/13 15/15/15 1/1/1
f 16/16/16 14/14/14 1/1/1
f 15/15/15 17/17/17 1/1/1
f 18/18/18 16/16/16 1/1/1
f 17/17/17 19/19/19 1/1/1
f 20/20/20 18/18/18 1/1/1
f 19/19/19 21/21/21 1/1/1
f 22/22/22 20/20/20 1/1/1
f 21/21/21 23/23/23 1/1/1
f 24/24/24 22/22/22 1/1/1
f 23/23/23 25/25/25 1/1/1
f 26/26/26 24/24/24 1/1/1
f 25/25/25 27/27/27 1/1/1
f 28/28/28 26/26/26 1/1/1
f 27/27/27 29/29/29 1/1/1
f 30/30/30 28/28/28 1/1/1
f 29/29/29 31/31/31 1/1/1
f 32/32/32 30/30/30 1/1/1
f 31/31/31 33/33/33 1/1/1
f 34/34/34 32/32/32 1/1/1
f 33/33/33 35/35/35 1/1/1
f 36/36/36 34/34/34 1/1/1
f 35/35/35 37/37/37 1/1/1
f 38/38/38 36/36/36 1/1/1
f 37/37/37 39/39/39 1/1/1
f 40/40/40 38/38/38 1/1/1
f 39/39/39 41/41/41 1/1/1
f 42/42/42 40/40/40 1/1/1
f 41/41/41 43/43/43 1/1/1
f 44/44/44 42/42/42 1/1/1
f 43/43/43 45/45/45 1/1/1
f 46/46/46 44/44/44 1/1/1
f 45/45/45 47/47/47 1/1/1
f 48/48/48 46/46/46 1/1/1
f 47/47/47 49/49/49 1/1/1
f 49/49/49 48/48/48 1/1/1
