g Object
v 1.250002 -0.1340555 0
v 1.428913 -0.1340555 0.03989432
v 1.428913 -0.1340555 0
v 1.250002 -0.1340555 0.03989432
v 1.107405 -0.1340555 0
v 1.428913 -0.1340555 0.07978865
v 1.107405 -0.1340555 0.03989432
v 0.9648088 -0.1340555 0
v 1.250002 -0.1340555 0.07978865
v 1.428913 -0.1340555 0.1196829
v 1.250002 -0.1340555 0.1196829
v 1.107405 -0.1340555 0.07978865
v 1.107405 -0.1340555 0.1196829
v 0.9648088 -0.1340555 0.03989433
v 0.8398088 -0.1340555 0
v 0.9648088 -0.1340555 0.07978866
v 0.9648088 -0.1340555 0.1196829
v 0.8398088 -0.1340555 0.03989433
v 0.7148088 -0.1340555 0
v 0.7148088 -0.1340555 0.03989433
v 0.8398088 -0.1340555 0.07978866
v 0.8398088 -0.1340555 0.1196829
v 0.7148088 -0.1340555 0.07978866
v 0.7148088 -0.1340555 0.1196829
v 0.7148088 0.5400976 0.05376169
v 0.7148088 0.5400976 0.1075234
v 0.8398088 0.5400976 0.1075234
v 0.8398088 0.5400976 0.05376169
v 0.7148088 0.5400976 2.384186E-08
v 0.9648088 0.5400976 0.1075234
v 0.8398088 0.5400976 2.384186E-08
v 0.9648088 0.5400976 0.05376169
v 1.107405 0.5400976 0.1075234
v 0.9648088 0.5400976 2.384186E-08
v 1.107405 0.5400976 0.05376169
v 1.250002 0.5400976 0.1075234
v 1.107405 0.5400976 2.384186E-08
v 1.250002 0.5400976 0.05376169
v 1.428913 0.5400976 0.1075234
v 1.250002 0.5400976 2.384186E-08
v 1.428913 0.5400976 0.05376172
v 1.542428 0.5400976 0.1075234
v 1.428913 0.5400976 2.384186E-08
v 1.542428 0.5400976 0.05376172
v 1.714809 0.5400976 0.1075234
v 1.542428 0.5400976 2.384186E-08
v 1.714809 0.5400976 0.05376172
v 1.714809 0.5400976 2.384186E-08
v 1.107405 0.0388096 0.008833885
v 1.250002 0.0388096 0.04283895
v 1.250002 0.0388096 0.008833885
v 1.107405 0.0388096 0.04283895
v 0.9648088 0.0388096 0.008833885
v 1.250002 0.0388096 0.07684402
v 0.9648088 0.0388096 0.04283897
v 0.8398088 0.0388096 0.008833885
v 1.107405 0.0388096 0.07684402
v 1.250002 0.0388096 0.1108491
v 1.107405 0.0388096 0.1108491
v 0.9648088 0.0388096 0.07684404
v 0.9648088 0.0388096 0.1108491
v 0.8398088 0.0388096 0.04283897
v 0.7148088 0.0388096 0.008833885
v 0.7148088 0.0388096 0.04283897
v 0.8398088 0.0388096 0.07684404
v 0.8398088 0.0388096 0.1108491
v 0.7148088 0.0388096 0.07684404
v 0.7148088 0.0388096 0.1108491
v 1.428913 0.2905465 2.384186E-08
v 1.542428 0.2905465 0.0276525
v 1.542428 0.2905465 2.384186E-08
v 1.428913 0.2905465 0.0276525
v 1.250002 0.2905465 2.384186E-08
v 1.542428 0.2905465 0.05530497
v 1.250002 0.2905465 0.0276525
v 1.107405 0.2905465 2.384186E-08
v 1.428913 0.2905465 0.05530497
v 1.542428 0.2905465 0.0829574
v 1.428913 0.2905465 0.0829574
v 1.250002 0.2905465 0.05530497
v 1.250002 0.2905465 0.0829574
v 1.107405 0.2905465 0.0276525
v 0.9648088 0.2905465 2.384186E-08
v 1.107405 0.2905465 0.05530497
v 1.107405 0.2905465 0.0829574
v 0.9648088 0.2905465 0.02765254
v 0.8398088 0.2905465 2.384186E-08
v 0.9648088 0.2905465 0.05530497
v 0.9648088 0.2905465 0.0829574
v 0.8398088 0.2905465 0.02765254
v 0.7148088 0.2905465 2.384186E-08
v 0.7148088 0.2905465 0.02765254
v 0.8398088 0.2905465 0.05530497
v 0.8398088 0.2905465 0.0829574
v 0.7148088 0.2905465 0.05530497
v 0.7148088 0.2905465 0.0829574
vt 0.5351563 0.5341797
vt 0.7138672 0.5737305
vt 0.7138672 0.5341797
vt 0.5351563 0.5737305
vt 0.3925781 0.5341797
vt 0.7138672 0.6137695
vt 0.3925781 0.5737305
vt 0.25 0.5341797
vt 0.5351563 0.6137695
vt 0.7138672 0.6538086
vt 0.5351563 0.6538086
vt 0.3925781 0.6137695
vt 0.3925781 0.6538086
vt 0.25 0.5737305
vt 0.125 0.5341797
vt 0.25 0.6137695
vt 0.25 0.6538086
vt 0.125 0.5737305
vt 0 0.5341797
vt 0 0.5737305
vt 0.125 0.6137695
vt 0.125 0.6538086
vt 0 0.6137695
vt 0 0.6538086
vt 0 0.8925781
vt 0 0.9462891
vt 0.125 0.9462891
vt 0.125 0.8925781
vt 0 0.8388672
vt 0.25 0.9462891
vt 0.125 0.8388672
vt 0.25 0.8925781
vt 0.3925781 0.9462891
vt 0.25 0.8388672
vt 0.3925781 0.8925781
vt 0.5351563 0.9462891
vt 0.3925781 0.8388672
vt 0.5351563 0.8925781
vt 0.7138672 0.9462891
vt 0.5351563 0.8388672
vt 0.7138672 0.8925781
vt 0.8276367 0.9462891
vt 0.7138672 0.8388672
vt 0.8276367 0.8925781
vt 1 0.9462891
vt 0.8276367 0.8388672
vt 1 0.8925781
vt 1 0.8388672
vt 0.3925781 0.6538086
vt 0.5351563 0.6879883
vt 0.5351563 0.6538086
vt 0.3925781 0.6879883
vt 0.25 0.6538086
vt 0.5351563 0.7216797
vt 0.25 0.6879883
vt 0.125 0.6538086
vt 0.3925781 0.7216797
vt 0.5351563 0.7558594
vt 0.3925781 0.7558594
vt 0.25 0.7216797
vt 0.25 0.7558594
vt 0.125 0.6879883
vt 0 0.6538086
vt 0 0.6879883
vt 0.125 0.7216797
vt 0.125 0.7558594
vt 0 0.7216797
vt 0 0.7558594
vt 0.7138672 0.7558594
vt 0.8276367 0.7832031
vt 0.8276367 0.7558594
vt 0.7138672 0.7832031
vt 0.5351563 0.7558594
vt 0.8276367 0.8110352
vt 0.5351563 0.7832031
vt 0.3925781 0.7558594
vt 0.7138672 0.8110352
vt 0.8276367 0.8388672
vt 0.7138672 0.8388672
vt 0.5351563 0.8110352
vt 0.5351563 0.8388672
vt 0.3925781 0.7832031
vt 0.25 0.7558594
vt 0.3925781 0.8110352
vt 0.3925781 0.8388672
vt 0.25 0.7832031
vt 0.125 0.7558594
vt 0.25 0.8110352
vt 0.25 0.8388672
vt 0.125 0.7832031
vt 0 0.7558594
vt 0 0.7832031
vt 0.125 0.8110352
vt 0.125 0.8388672
vt 0 0.8110352
vt 0 0.8388672
vn 0 -1 0
vn 0 -1 0
vn 0 -1 0
vn 0 -1 0
vn 0 -1 0
vn 0 -1 0
vn 0 -1 0
vn 0 -1 0
vn 0 -1 0
vn 0 -1 0
vn 0 -1 0
vn 0 -1 0
vn 0 -1 0
vn 0 -1 0
vn 0 -1 0
vn 0 -1 0
vn 0 -1 0
vn 0 -1 0
vn 0 -1 0
vn 0 -1 0
vn 0 -1 0
vn 0 -1 0
vn 0 -1 0
vn 0 -1 0
vn 0 -1 0
vn 0 -1 0
vn 0 -1 0
vn 0 -1 0
vn 0 -1 0
vn 0 -1 0
vn 0 -1 0
vn 0 -1 0
vn 0 -1 0
vn 0 -1 0
vn 0 -1 0
vn 0 -1 0
vn 0 -1 0
vn 0 -1 0
vn 0 -1 0
vn 0 -1 0
vn 0 -1 0
vn 0 -1 0
vn 0 -1 0
vn 0 -1 0
vn 0 -1 0
vn 0 -1 0
vn 0 -1 0
vn 0 -1 0
vn 0 -1 0
vn 0 -1 0
vn 0 -1 0
vn 0 -1 0
vn 0 -1 0
vn 0 -1 0
vn 0 -1 0
vn 0 -1 0
vn 0 -1 0
vn 0 -1 0
vn 0 -1 0
vn 0 -1 0
vn 0 -1 0
vn 0 -1 0
vn 0 -1 0
vn 0 -1 0
vn 0 -1 0
vn 0 -1 0
vn 0 -1 0
vn 0 -1 0
vn 0 -1 0
vn 0 -1 0
vn 0 -1 0
vn 0 -1 0
vn 0 -1 0
vn 0 -1 0
vn 0 -1 0
vn 0 -1 0
vn 0 -1 0
vn 0 -1 0
vn 0 -1 0
vn 0 -1 0
vn 0 -1 0
vn 0 -1 0
vn 0 -1 0
vn 0 -1 0
vn 0 -1 0
vn 0 -1 0
vn 0 -1 0
vn 0 -1 0
vn 0 -1 0
vn 0 -1 0
vn 0 -1 0
vn 0 -1 0
vn 0 -1 0
vn 0 -1 0
vn 0 -1 0
vn 0 -1 0
g Object_0
f 3/3/3 2/2/2 1/1/1
f 2/2/2 4/4/4 1/1/1
f 1/1/1 4/4/4 5/5/5
f 4/4/4 2/2/2 6/6/6
f 4/4/4 7/7/7 5/5/5
f 5/5/5 7/7/7 8/8/8
f 9/9/9 4/4/4 6/6/6
f 7/7/7 4/4/4 9/9/9
f 9/9/9 6/6/6 10/10/10
f 11/11/11 9/9/9 10/10/10
f 12/12/12 9/9/9 11/11/11
f 12/12/12 7/7/7 9/9/9
f 13/13/13 12/12/12 11/11/11
f 7/7/7 14/14/14 8/8/8
f 14/14/14 7/7/7 12/12/12
f 8/8/8 14/14/14 15/15/15
f 16/16/16 12/12/12 13/13/13
f 16/16/16 14/14/14 12/12/12
f 17/17/17 16/16/16 13/13/13
f 14/14/14 18/18/18 15/15/15
f 14/14/14 16/16/16 18/18/18
f 15/15/15 18/18/18 19/19/19
f 18/18/18 20/20/20 19/19/19
f 21/21/21 16/16/16 17/17/17
f 16/16/16 21/21/21 18/18/18
f 18/18/18 21/21/21 20/20/20
f 22/22/22 21/21/21 17/17/17
f 21/21/21 23/23/23 20/20/20
f 23/23/23 21/21/21 22/22/22
f 24/24/24 23/23/23 22/22/22
f 27/27/27 26/26/26 25/25/25
f 28/28/28 27/27/27 25/25/25
f 28/28/28 25/25/25 29/29/29
f 30/30/30 27/27/27 28/28/28
f 31/31/31 28/28/28 29/29/29
f 32/32/32 30/30/30 28/28/28
f 32/32/32 28/28/28 31/31/31
f 33/33/33 30/30/30 32/32/32
f 34/34/34 32/32/32 31/31/31
f 35/35/35 33/33/33 32/32/32
f 35/35/35 32/32/32 34/34/34
f 36/36/36 33/33/33 35/35/35
f 37/37/37 35/35/35 34/34/34
f 38/38/38 36/36/36 35/35/35
f 38/38/38 35/35/35 37/37/37
f 39/39/39 36/36/36 38/38/38
f 40/40/40 38/38/38 37/37/37
f 41/41/41 39/39/39 38/38/38
f 41/41/41 38/38/38 40/40/40
f 39/39/39 41/41/41 42/42/42
f 43/43/43 41/41/41 40/40/40
f 41/41/41 44/44/44 42/42/42
f 44/44/44 41/41/41 43/43/43
f 42/42/42 44/44/44 45/45/45
f 46/46/46 44/44/44 43/43/43
f 44/44/44 47/47/47 45/45/45
f 47/47/47 44/44/44 46/46/46
f 48/48/48 47/47/47 46/46/46
f 51/51/51 50/50/50 49/49/49
f 50/50/50 52/52/52 49/49/49
f 49/49/49 52/52/52 53/53/53
f 52/52/52 50/50/50 54/54/54
f 52/52/52 55/55/55 53/53/53
f 53/53/53 55/55/55 56/56/56
f 57/57/57 52/52/52 54/54/54
f 55/55/55 52/52/52 57/57/57
f 57/57/57 54/54/54 58/58/58
f 59/59/59 57/57/57 58/58/58
f 60/60/60 57/57/57 59/59/59
f 60/60/60 55/55/55 57/57/57
f 61/61/61 60/60/60 59/59/59
f 55/55/55 62/62/62 56/56/56
f 55/55/55 60/60/60 62/62/62
f 56/56/56 62/62/62 63/63/63
f 62/62/62 64/64/64 63/63/63
f 65/65/65 60/60/60 61/61/61
f 60/60/60 65/65/65 62/62/62
f 62/62/62 65/65/65 64/64/64
f 66/66/66 65/65/65 61/61/61
f 65/65/65 67/67/67 64/64/64
f 67/67/67 65/65/65 66/66/66
f 68/68/68 67/67/67 66/66/66
f 71/71/71 70/70/70 69/69/69
f 70/70/70 72/72/72 69/69/69
f 69/69/69 72/72/72 73/73/73
f 72/72/72 70/70/70 74/74/74
f 72/72/72 75/75/75 73/73/73
f 73/73/73 75/75/75 76/76/76
f 77/77/77 72/72/72 74/74/74
f 75/75/75 72/72/72 77/77/77
f 77/77/77 74/74/74 78/78/78
f 79/79/79 77/77/77 78/78/78
f 80/80/80 77/77/77 79/79/79
f 80/80/80 75/75/75 77/77/77
f 81/81/81 80/80/80 79/79/79
f 75/75/75 82/82/82 76/76/76
f 82/82/82 75/75/75 80/80/80
f 76/76/76 82/82/82 83/83/83
f 84/84/84 80/80/80 81/81/81
f 84/84/84 82/82/82 80/80/80
f 85/85/85 84/84/84 81/81/81
f 82/82/82 86/86/86 83/83/83
f 86/86/86 82/82/82 84/84/84
f 83/83/83 86/86/86 87/87/87
f 88/88/88 84/84/84 85/85/85
f 88/88/88 86/86/86 84/84/84
f 89/89/89 88/88/88 85/85/85
f 86/86/86 90/90/90 87/87/87
f 86/86/86 88/88/88 90/90/90
f 87/87/87 90/90/90 91/91/91
f 90/90/90 92/92/92 91/91/91
f 93/93/93 88/88/88 89/89/89
f 88/88/88 93/93/93 90/90/90
f 90/90/90 93/93/93 92/92/92
f 94/94/94 93/93/93 89/89/89
f 93/93/93 95/95/95 92/92/92
f 95/95/95 93/93/93 94/94/94
f 96/96/96 95/95/95 94/94/94
