g OuterCollision
v 26.85252 -10.90942 0.7548661
v -7.677193 -10.90934 2.06764
v 26.85249 31.99435 0.7551891
v -7.67712 31.99444 2.067814
v -7.674146 -10.90934 -2.040393
v 23.29486 -10.90943 -1.299148
v -7.674073 31.99444 -2.040232
v 23.29483 31.99435 -1.298828
v 26.85249 31.99435 0.7551891
v -7.67712 31.99444 2.067814
v 23.29483 31.99435 -1.298828
v -7.674073 31.99444 -2.040232
v 23.29486 -10.90943 -1.299148
v -7.674146 -10.90934 -2.040393
v 26.85252 -10.90942 0.7548661
v -7.677193 -10.90934 2.06764
v 23.29486 -10.90943 -1.299148
v 26.85252 -10.90942 0.7548661
v 41.44682 -10.90925 -32.29479
v 45.55426 -10.90923 -32.36472
v 23.29483 31.99435 -1.298828
v 23.29486 -10.90943 -1.299148
v 41.44681 31.99453 -32.29436
v 41.44682 -10.90925 -32.29479
v 26.85252 -10.90942 0.7548661
v 26.85249 31.99435 0.7551891
v 45.55426 -10.90923 -32.36472
v 45.55425 31.99454 -32.3643
v 26.85249 31.99435 0.7551891
v 23.29483 31.99435 -1.298828
v 45.55425 31.99454 -32.3643
v 41.44681 31.99453 -32.29436
v 38.15179 -10.90919 -38.02236
v 40.2111 -10.90914 -41.57697
v 41.44681 31.99453 -32.29436
v 41.44682 -10.90925 -32.29479
v 38.15195 31.99458 -38.02184
v 38.15179 -10.90919 -38.02236
v 45.55426 -10.90923 -32.36472
v 45.55425 31.99454 -32.3643
v 40.2111 -10.90914 -41.57697
v 40.21125 31.99464 -41.57644
v 45.55425 31.99454 -32.3643
v 41.44681 31.99453 -32.29436
v 40.21125 31.99464 -41.57644
v 38.15195 31.99458 -38.02184
v -31.73853 -10.90862 -77.52887
v -33.78727 -10.90855 -81.08958
v 38.15195 31.99458 -38.02184
v 38.15179 -10.90919 -38.02236
v -31.73821 31.99515 -77.52843
v -31.73853 -10.90862 -77.52887
v 40.2111 -10.90914 -41.57697
v 40.21125 31.99464 -41.57644
v -33.78727 -10.90855 -81.08958
v -33.78696 31.99522 -81.08915
v 40.21125 31.99464 -41.57644
v 38.15195 31.99458 -38.02184
v -33.78696 31.99522 -81.08915
v -31.73821 31.99515 -77.52843
v -94.03497 -10.90832 -86.69717
v -97.58958 -10.90825 -88.75646
v -31.73821 31.99515 -77.52843
v -31.73853 -10.90862 -77.52887
v -94.03461 31.99545 -86.69682
v -94.03497 -10.90832 -86.69717
v -33.78727 -10.90855 -81.08958
v -33.78696 31.99522 -81.08915
v -97.58958 -10.90825 -88.75646
v -97.58925 31.99552 -88.75613
v -33.78696 31.99522 -81.08915
v -31.73821 31.99515 -77.52843
v -97.58925 31.99552 -88.75613
v -94.03461 31.99545 -86.69682
v -94.03497 -10.90832 -86.69717
v -105.7163 -10.90844 -66.5579
v -109.6859 -10.9084 -65.50055
v -94.03461 31.99545 -86.69682
v -94.03497 -10.90832 -86.69717
v -105.716 31.99534 -66.5577
v -105.7163 -10.90844 -66.5579
v -97.58958 -10.90825 -88.75646
v -97.58925 31.99552 -88.75613
v -109.6859 -10.9084 -65.50055
v -109.6856 31.99538 -65.50035
v -97.58925 31.99552 -88.75613
v -94.03461 31.99545 -86.69682
v -109.6856 31.99538 -65.50035
v -105.716 31.99534 -66.5577
v -81.32555 -10.90902 -4.16289
v -83.38485 -10.90901 -0.6082762
v -105.716 31.99534 -66.5577
v -105.7163 -10.90844 -66.5579
v -81.32539 31.99475 -4.162762
v -81.32555 -10.90902 -4.16289
v -109.6859 -10.9084 -65.50055
v -109.6856 31.99538 -65.50035
v -83.38485 -10.90901 -0.6082762
v -83.3847 31.99476 -0.6081245
v -109.6856 31.99538 -65.50035
v -105.716 31.99534 -66.5577
v -83.3847 31.99476 -0.6081245
v -81.32539 31.99475 -4.162762
v -74.85624 -10.90906 -2.985515
v -76.91553 -10.90904 0.569099
v -81.32539 31.99475 -4.162762
v -81.32555 -10.90902 -4.16289
v -74.85607 31.99472 -2.985381
v -74.85624 -10.90906 -2.985515
v -83.38485 -10.90901 -0.6082762
v -83.3847 31.99476 -0.6081245
v -76.91553 -10.90904 0.569099
v -76.91538 31.99473 0.5692527
v -83.3847 31.99476 -0.6081245
v -81.32539 31.99475 -4.162762
v -76.91538 31.99473 0.5692527
v -74.85607 31.99472 -2.985381
v -74.85607 31.99472 -2.985381
v -74.85624 -10.90906 -2.985515
v -7.674073 31.99444 -2.040232
v -7.674146 -10.90934 -2.040393
v -76.91553 -10.90904 0.569099
v -76.91538 31.99473 0.5692527
v -7.677193 -10.90934 2.06764
v -7.67712 31.99444 2.067814
vt 26.80446 -10.90941
vt -7.750203 -10.90932
vt 26.80441 31.99436
vt -7.750136 31.99445
vt 7.720772 -10.90934
vt -23.2571 -10.90943
vt 7.720695 31.99443
vt -23.25708 31.99434
vt -26.85241 0.7553241
vt 7.677197 2.067949
vt -23.29475 -1.298693
vt 7.674151 -2.040097
vt 23.29489 -1.299232
vt -7.674112 -2.040477
vt 26.85255 0.754782
vt -7.677159 2.067556
vt 23.29482 -1.299107
vt 26.85248 0.7549069
vt 41.44678 -32.29475
vt 45.55422 -32.36467
vt -12.89283 31.99441
vt -12.89312 -10.90937
vt -48.81243 31.99459
vt -48.8128 -10.90919
vt 12.54602 -10.90935
vt 12.54572 31.99442
vt 50.58102 -10.90916
vt 50.58066 31.99462
vt -26.85257 0.755046
vt -23.29491 -1.298971
vt -45.55434 -32.36444
vt -41.4469 -32.29451
vt 38.15174 -38.02222
vt 40.21105 -41.57683
vt -7.325464 31.99426
vt -7.325827 -10.90951
vt -13.93304 31.99432
vt -13.93357 -10.90946
vt 5.14086 -10.90951
vt 5.140499 31.99427
vt 15.79051 -10.90941
vt 15.78997 31.99436
vt -45.55438 -32.36469
vt -41.44694 -32.29476
vt -40.21138 -41.57684
vt -38.15208 -38.02223
vt -31.73853 -77.5287
vt -33.78727 -81.08941
vt 14.5028 31.99412
vt 14.50241 -10.90965
vt -65.78048 31.99469
vt -65.78098 -10.90908
vt -15.88737 -10.90964
vt -15.88775 31.99413
vt 67.99949 -10.90906
vt 67.99902 31.99472
vt -40.21126 -41.57692
vt -38.15195 -38.02232
vt 33.78696 -81.08963
vt 31.73821 -77.52891
vt -94.03494 -86.69697
vt -97.58956 -88.75626
vt -42.68851 31.99449
vt -42.6889 -10.90928
vt -105.656 31.9948
vt -105.6564 -10.90898
vt 43.22056 -10.90924
vt 43.22021 31.99453
vt 107.4819 -10.90895
vt 107.4815 31.99483
vt 33.78703 -81.08978
vt 31.73828 -77.52905
vt 97.58932 -88.75676
vt 94.03468 -86.69745
vt -94.03484 -86.69704
vt -105.7161 -66.55777
vt -109.6858 -65.50042
vt 27.8136 31.99406
vt 27.81372 -10.90971
vt 4.531891 31.99394
vt 4.531909 -10.90983
vt -33.70906 -10.90959
vt -33.70892 31.99418
vt -7.495356 -10.90973
vt -7.495306 31.99404
vt 97.5896 -88.75651
vt 94.03497 -86.6972
vt 109.686 -65.50072
vt 105.7163 -66.55807
vt -81.32542 -4.162837
vt -83.38473 -0.6082222
vt 100.4786 31.99497
vt 100.4789 -10.9088
vt 33.48582 31.99438
vt 33.48599 -10.90939
vt -101.9047 -10.90872
vt -101.9044 31.99505
vt -31.88506 -10.90933
vt -31.88486 31.99444
vt 109.686 -65.5005
vt 105.7163 -66.55785
vt 83.38508 -0.6082741
vt 81.32578 -4.162912
vt -74.85618 -2.985525
vt -76.91547 0.5690888
vt 80.75648 31.99478
vt 80.75665 -10.909
vt 74.18089 31.99474
vt 74.18108 -10.90903
vt -82.14622 -10.90897
vt -82.14605 31.9948
vt -75.57064 -10.909
vt -75.57047 31.99477
vt 83.38487 -0.6081048
vt 81.32557 -4.162743
vt 76.91556 0.5692724
vt 74.85625 -2.985362
vt 74.89066 31.99471
vt 74.89083 -10.90906
vt 7.702014 31.99443
vt 7.702089 -10.90934
vt -76.88522 -10.90903
vt -76.88506 31.99474
vt -7.630656 -10.90933
vt -7.630579 31.99445
vn 0.03799123 -7.492583E-06 0.9992781
vn 0.03798913 -5.802885E-06 0.9992782
vn 0.03798913 -5.802885E-06 0.9992782
vn 0.03798704 -4.113187E-06 0.9992782
vn 0.0239282 3.703959E-06 -0.9997137
vn 0.02393081 5.58596E-06 -0.9997137
vn 0.02393081 5.58596E-06 -0.9997137
vn 0.02393341 7.467961E-06 -0.9997135
vn 2.435808E-06 1 -4.21894E-06
vn 2.639987E-06 1 -2.340563E-06
vn 2.639987E-06 1 -2.340563E-06
vn 2.844166E-06 1 -4.621866E-07
vn -3.10997E-06 -1 7.70812E-06
vn -2.816666E-06 -1 4.085273E-06
vn -2.816666E-06 -1 4.085273E-06
vn -2.523362E-06 -1 4.624254E-07
vn 3.497406E-06 -1 -3.736203E-06
vn 4.159793E-06 -1 -3.443701E-06
vn 4.159793E-06 -1 -3.443701E-06
vn 4.822181E-06 -1 -3.151199E-06
vn -0.8629143 3.11372E-06 -0.5053504
vn -0.8629148 3.973862E-06 -0.5053495
vn -0.8629148 3.973862E-06 -0.5053495
vn -0.8629153 4.834003E-06 -0.5053486
vn 0.8707658 -3.004908E-06 0.491698
vn 0.8707653 -3.868256E-06 0.4916989
vn 0.8707653 -3.868256E-06 0.4916989
vn 0.8707649 -4.731605E-06 0.4916997
vn -2.582705E-06 1 4.473372E-06
vn -3.352299E-06 1 3.921932E-06
vn -3.352299E-06 1 3.921932E-06
vn -4.121894E-06 1 3.370492E-06
vn 4.710414E-06 -1 -1.273709E-05
vn 4.760722E-06 -1 -1.280292E-05
vn -0.8668039 -5.075472E-06 0.4986492
vn -0.8668005 -4.017093E-06 0.4986551
vn -0.8668005 -4.017093E-06 0.4986551
vn -0.8667971 -2.958713E-06 0.4986611
vn 0.8650291 4.983959E-06 -0.5017217
vn 0.8650311 3.993286E-06 -0.5017183
vn 0.8650311 3.993286E-06 -0.5017183
vn 0.8650331 3.002613E-06 -0.5017148
vn -3.970863E-06 1 1.224134E-05
vn -4.309542E-06 1 1.228643E-05
vn -4.309542E-06 1 1.228643E-05
vn -4.648219E-06 1 1.233151E-05
vn 2.152162E-06 -1 -1.865785E-05
vn 3.835371E-06 -1 -2.202641E-05
vn -0.4920899 -8.88768E-06 0.8705444
vn -0.4920891 -7.095571E-06 0.8705449
vn -0.4920891 -7.095571E-06 0.8705449
vn -0.4920883 -5.303461E-06 0.8705453
vn 0.4710226 9.106526E-06 -0.8821211
vn 0.4710235 7.270241E-06 -0.8821207
vn 0.4710235 7.270241E-06 -0.8821207
vn 0.4710243 5.433956E-06 -0.8821203
vn -6.389177E-08 1 1.498736E-05
vn -2.776325E-06 1 1.951816E-05
vn -2.776325E-06 1 1.951816E-05
vn -5.488759E-06 1 2.404897E-05
vn -1.610728E-06 -1 -2.385095E-05
vn -1.123138E-06 -1 -2.908959E-05
vn -0.1456053 -9.122968E-06 0.9893427
vn -0.1456045 -8.01237E-06 0.9893428
vn -0.1456045 -8.01237E-06 0.9893428
vn -0.1456038 -6.901772E-06 0.9893429
vn 0.1193079 9.03847E-06 -0.9928573
vn 0.1193087 7.848421E-06 -0.9928572
vn 0.1193087 7.848421E-06 -0.9928572
vn 0.1193095 6.658371E-06 -0.9928571
vn 2.248858E-06 1 1.959694E-05
vn 1.392827E-06 1 2.46176E-05
vn 1.392827E-06 1 2.46176E-05
vn 5.367966E-07 1 2.963826E-05
vn -1.092886E-05 -1 -1.216355E-05
vn -1.225918E-05 -1 -1.265057E-05
vn -1.35895E-05 -1 -1.313758E-05
vn 0.8650192 -1.118006E-05 0.5017388
vn 0.8650204 -9.826368E-06 0.5017366
vn 0.8650204 -9.826368E-06 0.5017366
vn 0.8650216 -8.472678E-06 0.5017345
vn -0.8871663 1.046996E-05 -0.4614497
vn -0.8871653 9.141431E-06 -0.4614517
vn -0.8871653 9.141431E-06 -0.4614517
vn -0.8871644 7.8129E-06 -0.4614536
vn 1.094153E-05 1 1.167835E-05
vn 1.264673E-05 1 1.293743E-05
vn 1.264673E-05 1 1.293743E-05
vn 1.435193E-05 1 1.419651E-05
vn -1.254716E-05 -1 -4.429187E-06
vn -1.368433E-05 -1 -3.903398E-06
vn 0.9313686 -4.941551E-06 -0.3640776
vn 0.9313684 -3.576675E-06 -0.3640784
vn 0.9313684 -3.576675E-06 -0.3640784
vn 0.931368 -2.211799E-06 -0.3640792
vn -0.9267723 4.196258E-06 0.3756237
vn -0.9267725 3.078216E-06 0.375623
vn -0.9267725 3.078216E-06 0.375623
vn -0.9267728 1.960174E-06 0.3756224
vn 1.181591E-05 1 4.675398E-06
vn 1.267989E-05 1 4.382844E-06
vn 1.267989E-05 1 4.382844E-06
vn 1.354387E-05 1 4.090291E-06
vn -5.285385E-06 -1 1.096536E-06
vn -5.240791E-06 -1 1.256522E-06
vn 0.1790533 2.304574E-06 -0.9838394
vn 0.1790531 2.335608E-06 -0.9838394
vn 0.1790531 2.335608E-06 -0.9838394
vn 0.1790529 2.366642E-06 -0.9838395
vn -0.1790527 -2.8431E-06 0.9838395
vn -0.1790529 -2.866336E-06 0.9838395
vn -0.1790529 -2.866336E-06 0.9838395
vn -0.179053 -2.889571E-06 0.9838395
vn 5.419157E-06 1 -6.165894E-07
vn 5.419154E-06 1 -6.16586E-07
vn 5.419154E-06 1 -6.16586E-07
vn 5.41915E-06 1 -6.165826E-07
vn 0.0140671 3.062166E-06 -0.9999011
vn 0.01406689 3.391118E-06 -0.9999011
vn 0.01406689 3.391118E-06 -0.9999011
vn 0.01406668 3.72007E-06 -0.9999011
vn -0.02163816 -3.503726E-06 0.9997658
vn -0.02163832 -3.757696E-06 0.9997659
vn -0.02163832 -3.757696E-06 0.9997659
vn -0.02163847 -4.011666E-06 0.9997659
g OuterCollision_0
f 3/3/3 2/2/2 1/1/1
f 3/3/3 4/4/4 2/2/2
f 7/7/7 6/6/6 5/5/5
f 7/7/7 8/8/8 6/6/6
f 11/11/11 10/10/10 9/9/9
f 11/11/11 12/12/12 10/10/10
f 15/15/15 14/14/14 13/13/13
f 15/15/15 16/16/16 14/14/14
f 19/19/19 18/18/18 17/17/17
f 19/19/19 20/20/20 18/18/18
f 23/23/23 22/22/22 21/21/21
f 23/23/23 24/24/24 22/22/22
f 27/27/27 26/26/26 25/25/25
f 27/27/27 28/28/28 26/26/26
f 31/31/31 30/30/30 29/29/29
f 31/31/31 32/32/32 30/30/30
f 33/33/33 20/20/20 19/19/19
f 33/33/33 34/34/34 20/20/20
f 37/37/37 36/36/36 35/35/35
f 37/37/37 38/38/38 36/36/36
f 41/41/41 40/40/40 39/39/39
f 41/41/41 42/42/42 40/40/40
f 45/45/45 44/44/44 43/43/43
f 45/45/45 46/46/46 44/44/44
f 47/47/47 34/34/34 33/33/33
f 47/47/47 48/48/48 34/34/34
f 51/51/51 50/50/50 49/49/49
f 51/51/51 52/52/52 50/50/50
f 55/55/55 54/54/54 53/53/53
f 55/55/55 56/56/56 54/54/54
f 59/59/59 58/58/58 57/57/57
f 59/59/59 60/60/60 58/58/58
f 61/61/61 48/48/48 47/47/47
f 61/61/61 62/62/62 48/48/48
f 65/65/65 64/64/64 63/63/63
f 65/65/65 66/66/66 64/64/64
f 69/69/69 68/68/68 67/67/67
f 69/69/69 70/70/70 68/68/68
f 73/73/73 72/72/72 71/71/71
f 73/73/73 74/74/74 72/72/72
f 76/76/76 62/62/62 75/75/75
f 76/76/76 77/77/77 62/62/62
f 80/80/80 79/79/79 78/78/78
f 80/80/80 81/81/81 79/79/79
f 84/84/84 83/83/83 82/82/82
f 84/84/84 85/85/85 83/83/83
f 88/88/88 87/87/87 86/86/86
f 88/88/88 89/89/89 87/87/87
f 90/90/90 77/77/77 76/76/76
f 90/90/90 91/91/91 77/77/77
f 94/94/94 93/93/93 92/92/92
f 94/94/94 95/95/95 93/93/93
f 98/98/98 97/97/97 96/96/96
f 98/98/98 99/99/99 97/97/97
f 102/102/102 101/101/101 100/100/100
f 102/102/102 103/103/103 101/101/101
f 104/104/104 91/91/91 90/90/90
f 104/104/104 105/105/105 91/91/91
f 108/108/108 107/107/107 106/106/106
f 108/108/108 109/109/109 107/107/107
f 112/112/112 111/111/111 110/110/110
f 112/112/112 113/113/113 111/111/111
f 116/116/116 115/115/115 114/114/114
f 116/116/116 117/117/117 115/115/115
f 14/14/14 105/105/105 104/104/104
f 14/14/14 16/16/16 105/105/105
f 120/120/120 119/119/119 118/118/118
f 120/120/120 121/121/121 119/119/119
f 124/124/124 123/123/123 122/122/122
f 124/124/124 125/125/125 123/123/123
f 10/10/10 117/117/117 116/116/116
f 10/10/10 12/12/12 117/117/117
