g PanelTailTip_1
v 0.04715027 0.3401468 0.8055958
v -0.01511369 0.3245537 0.766728
v 0.04715027 0.3272999 0.766728
v -0.05540619 0.3402467 0.8195847
v 0.04715027 0.3470869 0.9178241
v -0.06132365 0.3233985 0.766728
v -0.03977844 0.3452215 0.9322507
v 0.04715027 0.3222286 1.021258
v -0.1672037 0.3389313 0.830778
v -0.1711574 0.31988 0.766728
v -0.1559247 0.3415973 0.9490891
v -0.02243622 0.319272 1.033764
v 0.04714996 0.2660933 1.103358
v -0.2774954 0.3366379 0.8392389
v -0.2794594 0.3166088 0.766728
v -0.38631 0.3135579 0.766728
v -0.2692496 0.3373482 0.9644637
v -0.1407391 0.3140364 1.055529
v -0.005640259 0.2632191 1.112752
v 0.04715027 0.1816945 1.155628
v -0.3862295 0.3338748 0.845566
v -0.4912922 0.3107255 0.766728
v -0.3807046 0.3328189 0.9786464
v -0.2553549 0.3084947 1.077904
v -0.1241364 0.2577621 1.138403
v 0.007996521 0.1796866 1.162202
v 0.04715027 0.07850158 1.179961
v -0.4930035 0.3308167 0.8500013
v -0.5935895 0.3079357 0.7667279
v -0.490795 0.3280957 0.9912326
v -0.3684204 0.3026944 1.1004
v -0.2384644 0.252426 1.166857
v -0.1102856 0.1747057 1.190251
v 0.01612854 0.07742111 1.184911
v 0.04715027 0.0004258728 1.182401
v 0.01687683 0.0004258728 1.187133
v -0.1024304 0.0736789 1.213647
v -0.1019656 0.0004258728 1.215681
v -0.2154373 0.070056 1.248776
v -0.2150928 0.0004260254 1.250697
v -0.2237207 0.1700159 1.223332
v -0.3290369 0.06614593 1.285712
v -0.3287991 0.0004258728 1.287503
v -0.3373248 0.164756 1.258082
v -0.44837 0.06188888 1.320277
v -0.4482602 0.0004258728 1.32183
v -0.3520987 0.2466988 1.196602
v -0.4552365 0.1585272 1.291123
v -0.5780804 0.05775726 1.349425
v -0.578251 0.0004258728 1.350573
v -0.4677994 0.240405 1.225477
v -0.5816013 0.1524184 1.319687
v -0.721539 0.0545253 1.364167
v -0.7220803 0.0004260254 1.364759
v -0.4815921 0.2966495 1.12179
v -0.5887933 0.2345404 1.249884
v -0.7197183 0.1487027 1.334329
v -0.874295 0.05225143 1.346599
v -0.875129 0.0004258728 1.346784
v -0.5963413 0.2906421 1.139353
v -0.7171902 0.2309895 1.262261
v -0.8660489 0.1468623 1.318617
v -1.020316 0.04967575 1.277554
v -1.021092 0.0004260254 1.277137
v -0.5995795 0.3231812 1.000829
v -0.7133282 0.285977 1.14739
v -0.8507391 0.2295609 1.249212
v -1.139237 0.04735642 1.169999
v -1.139666 0.0004258728 1.169063
v -1.007522 0.1442705 1.256252
v -0.5970621 0.3273399 0.8522897
v -0.6922668 0.3051425 0.766728
v -0.7065127 0.31819 1.004245
v -0.6973456 0.3232523 0.8513584
v -0.7866291 0.3024601 0.766728
v -1.224705 0.04546646 1.04773
v -1.224767 0.0004258728 1.046761
v -1.124372 0.141068 1.155408
v -0.8307461 0.2820958 1.13656
v -0.9797735 0.2256407 1.197427
v -0.8102298 0.3130464 0.9963387
v -0.7928204 0.3185597 0.8453417
v -1.280887 0.04342499 0.9266271
v -1.280586 0.0004258728 0.9259254
v -1.209426 0.1384227 1.038337
v -0.9430777 0.2776785 1.099255
v -1.090183 0.2214987 1.112861
v -0.882829 0.3127434 0.8323774
v -0.8765395 0.2993731 0.766728
v -0.9083776 0.3073944 0.9725702
v -1.3103 0.04017441 0.8112627
v -1.309659 0.0004258728 0.8110099
v -1.26577 0.1352992 0.9212146
v -1.042556 0.2726439 1.036626
v -1.173583 0.2165941 1.010017
v -0.9669937 0.3049837 0.8119277
v -0.9621556 0.2953251 0.766728
v -0.9978836 0.3005238 0.9325141
v -1.308557 0.03837293 0.766728
v -1.30784 0.0004258728 0.766728
v -1.293136 0.1281176 0.766728
v -1.295039 0.1307907 0.8096957
v -1.259119 0.1996421 0.766728
v -1.12322 0.266523 0.9576221
v -1.229614 0.2099329 0.9043814
v -1.075428 0.2918172 0.8806443
v -1.260007 0.2028632 0.8041079
v -1.18154 0.257675 0.8739544
v -1.21464 0.2487378 0.7941081
v -1.214904 0.2468719 0.766728
v -1.044208 0.2951366 0.7854084
v -1.042251 0.2908111 0.766728
v -1.088654 0.2872951 0.766728
v -1.13699 0.2810747 0.825948
v -1.115009 0.2829667 0.766728
v -1.175117 0.2686336 0.7830299
v -1.1721 0.2682329 0.766728
vt 0.3715571 0.9406357
vt 0.376418 0.9371012
vt 0.3714161 0.9374021
vt 0.3798365 0.9411063
vt 0.3722565 0.949298
vt 0.3801096 0.9369166
vt 0.37929 0.9497009
vt 0.3730933 0.9573884
vt 0.3888325 0.941255
vt 0.388889 0.9362704
vt 0.3886517 0.9501312
vt 0.378736 0.9577279
vt 0.3738687 0.9648485
vt 0.3976339 0.9411872
vt 0.3975082 0.9356235
vt 0.4059631 0.9350084
vt 0.3977283 0.9504816
vt 0.3883154 0.9584345
vt 0.3781618 0.9651225
vt 0.3743281 0.9722072
vt 0.4062352 0.9409857
vt 0.4142096 0.9344577
vt 0.4065802 0.9507693
vt 0.3975693 0.959221
vt 0.3878285 0.9660134
vt 0.377535 0.9723961
vt 0.3745023 0.9799747
vt 0.4145975 0.9407001
vt 0.4221753 0.9340019
vt 0.4152319 0.9509805
vt 0.4066411 0.9600287
vt 0.3971706 0.9671
vt 0.3872587 0.9733219
vt 0.3770089 0.9800737
vt 0.374482 0.984005
vt 0.3768277 0.9840146
vt 0.3867089 0.9809071
vt 0.386399 0.9845696
vt 0.3961094 0.9820302
vt 0.3957596 0.9854199
vt 0.3966503 0.9745123
vt 0.4056614 0.9832702
vt 0.4053978 0.9863731
vt 0.4060539 0.9758269
vt 0.4157357 0.9843629
vt 0.4157143 0.9871662
vt 0.4064211 0.9682789
vt 0.4157461 0.9770376
vt 0.4267183 0.9848243
vt 0.4270708 0.9872465
vt 0.4157597 0.9693847
vt 0.4260435 0.9778091
vt 0.4387769 0.9840229
vt 0.4396485 0.9860804
vt 0.4156319 0.9607685
vt 0.4253747 0.9701335
vt 0.43708 0.9773279
vt 0.451358 0.9807776
vt 0.4528813 0.982361
vt 0.4246173 0.9612495
vt 0.4353386 0.9698747
vt 0.4483997 0.9746839
vt 0.4632619 0.9742919
vt 0.4653808 0.9752572
vt 0.4236682 0.9510368
vt 0.4335952 0.9610487
vt 0.4453672 0.9678488
vt 0.4729125 0.9651963
vt 0.4754646 0.9654831
vt 0.4590587 0.9691517
vt 0.4226533 0.9403424
vt 0.4297773 0.9336594
vt 0.431825 0.9507352
vt 0.4303122 0.9398615
vt 0.4369493 0.9334438
vt 0.4795699 0.9549276
vt 0.482374 0.9545277
vt 0.4677069 0.9612572
vt 0.4423785 0.9596038
vt 0.4547679 0.9634645
vt 0.4395806 0.9497504
vt 0.4374914 0.9391456
vt 0.4833339 0.9446214
vt 0.486183 0.9435096
vt 0.473689 0.952303
vt 0.4505406 0.9564877
vt 0.4625379 0.9570419
vt 0.4441545 0.9380656
vt 0.443679 0.9333442
vt 0.4467567 0.9477914
vt 0.4844481 0.934835
vt 0.4870479 0.9330068
vt 0.4771515 0.9434395
vt 0.4575326 0.9517892
vt 0.468117 0.9495688
vt 0.4503104 0.9365674
vt 0.4499933 0.9333398
vt 0.4531591 0.944827
vt 0.4838396 0.9311597
vt 0.4862378 0.930727
vt 0.4780435 0.9321319
vt 0.4784395 0.9352065
vt 0.4730249 0.9327808
vt 0.4629798 0.9461159
vt 0.4715801 0.942104
vt 0.4586124 0.9411451
vt 0.47321 0.9352517
vt 0.4667658 0.9402909
vt 0.4688137 0.9349288
vt 0.4687535 0.9331697
vt 0.4559339 0.9347242
vt 0.4558278 0.9334047
vt 0.4591848 0.9334458
vt 0.462912 0.937338
vt 0.4611392 0.9334235
vt 0.4656437 0.9343787
vt 0.4653942 0.9333152
vn -0.01776657 0.9903665 -0.1373269
vn -0.0395682 0.9492593 -0.3119957
vn -0.04184144 0.948648 -0.3135541
vn -0.01538425 0.9962186 -0.08550927
vn 0.01080466 0.9813368 0.1919934
vn -0.02718459 0.953293 -0.3008211
vn 0.002137436 0.9835567 0.1805869
vn 0.004531816 0.9672266 0.2538745
vn -0.02618654 0.993221 -0.113253
vn -0.02983068 0.9585733 -0.2832796
vn -0.008137244 0.9831374 0.1826874
vn 0.01523933 0.9504542 0.3104909
vn 0.08240741 0.7242188 0.6846285
vn -0.02607161 0.9986711 -0.04445746
vn -0.02831262 0.9637138 -0.265432
vn -0.02687825 0.9680185 -0.2494349
vn -0.02367525 0.9930802 0.115027
vn 0.01777632 0.9456487 0.3247034
vn 0.1118401 0.6942044 0.7110358
vn 0.1311791 0.4048794 0.9049115
vn -0.03186258 0.9944797 -0.09997497
vn -0.02635632 0.9716456 -0.2349683
vn -0.02587051 0.9913526 0.1286502
vn 0.0150173 0.9486364 0.3160118
vn 0.1296906 0.7044777 0.6977761
vn 0.1820118 0.381047 0.9064628
vn 0.1504382 0.1542601 0.9765102
vn -0.03337067 0.9964521 -0.0772638
vn -0.02708433 0.9746401 -0.2221335
vn -0.03041857 0.9909689 0.1305958
vn 0.009682694 0.9517247 0.3068002
vn 0.1351239 0.7315102 0.6683071
vn 0.2193832 0.3920377 0.8934077
vn 0.2114247 0.1476137 0.9661832
vn 0.1543519 0.0308664 0.9875337
vn 0.2170809 0.03027061 0.9756842
vn 0.2641186 0.1324887 0.9553471
vn 0.2735707 0.02843559 0.9614315
vn 0.2937581 0.1666883 0.9412339
vn 0.3017126 0.02778799 0.9529939
vn 0.2423995 0.4224841 0.8733554
vn 0.2878575 0.1555845 0.9449506
vn 0.2975723 0.02708227 0.9543151
vn 0.2296649 0.4529814 0.8614301
vn 0.2374446 0.1940834 0.9518149
vn 0.2459968 0.02492302 0.9689502
vn 0.1241562 0.7575106 0.6409079
vn 0.1929118 0.4729304 0.859722
vn 0.1509374 0.1978839 0.9685349
vn 0.1565301 0.01931929 0.9874842
vn 0.1005699 0.7746497 0.6243425
vn 0.1236308 0.4841081 0.8662302
vn -0.01253136 0.1979179 0.9801384
vn -0.01069709 0.011055 0.9998816
vn -0.004242165 0.9620886 0.2727044
vn 0.06077025 0.7869478 0.6140198
vn -0.01238625 0.4876832 0.8729329
vn -0.2744001 0.1944277 0.941755
vn -0.2789559 0.00792448 0.9602712
vn -0.01547647 0.9650103 0.261755
vn -0.01634594 0.7936785 0.6081178
vn -0.2342769 0.476579 0.847341
vn -0.5466031 0.1677657 0.8204144
vn -0.5560055 0.001720788 0.8311768
vn -0.03718479 0.9934323 0.1082105
vn -0.03829952 0.9433359 0.3296218
vn -0.1595454 0.7904583 0.5913721
vn -0.7395406 0.1424241 0.6578717
vn -0.7485335 -0.006391704 0.6630662
vn -0.482795 0.4384367 0.758078
vn -0.03740382 0.9970081 -0.06764393
vn -0.0277185 0.9771449 -0.2107596
vn -0.04934654 0.9966549 0.06514525
vn -0.04260235 0.9971994 -0.06146886
vn -0.03071208 0.9787269 -0.2028561
vn -0.8577359 0.124707 0.4987359
vn -0.8647445 -0.009618282 0.50212
vn -0.6794168 0.3842634 0.6250876
vn -0.09855461 0.9449897 0.3118995
vn -0.3342637 0.7647262 0.5508736
vn -0.06243987 0.9963599 0.0580369
vn -0.04463924 0.9953672 -0.0851556
vn -0.9345445 0.1139369 0.3371127
vn -0.9400895 -0.01213911 0.3407117
vn -0.8071794 0.3396854 0.4827787
vn -0.1812434 0.9360962 0.3014543
vn -0.498279 0.7156432 0.4894619
vn -0.04795695 0.9874001 -0.1508016
vn -0.03992169 0.9783488 -0.2030763
vn -0.1045713 0.9876156 0.1169619
vn -0.9798986 0.1091893 0.1669629
vn -0.9849748 -0.01695893 0.1718638
vn -0.8922506 0.3114122 0.326973
vn -0.2736485 0.9193791 0.2825926
vn -0.6394178 0.6571298 0.3991555
vn -0.05739286 0.9835405 -0.1713304
vn -0.05055123 0.9755525 -0.2138736
vn -0.1456083 0.9839697 0.1029641
vn -0.9928638 0.1111008 -0.04333607
vn -0.998979 -0.01888377 -0.04104266
vn -0.9571052 0.2834546 -0.06002547
vn -0.9442063 0.289543 0.1569693
vn -0.8452126 0.5303648 -0.06579313
vn -0.3792147 0.8903399 0.2519746
vn -0.747496 0.6020843 0.2806138
vn -0.1933381 0.9776821 0.08220741
vn -0.8214026 0.5528862 0.140052
vn -0.5043787 0.8393863 0.2025658
vn -0.6152632 0.7795777 0.1170897
vn -0.6502416 0.7583687 -0.04541817
vn -0.1258387 0.9908065 -0.04966884
vn -0.05723118 0.9712932 -0.2308982
vn -0.1611382 0.9864547 -0.03068511
vn -0.2645955 0.9622567 0.06364912
vn -0.1773317 0.9835498 -0.03439594
vn -0.373787 0.9271237 0.0269234
vn -0.3045895 0.9491424 -0.0797113
g PanelTailTip_1_0
f 3/3/3 2/2/2 1/1/1
f 2/2/2 4/4/4 1/1/1
f 5/5/5 1/1/1 4/4/4
f 4/4/4 2/2/2 6/6/6
f 7/7/7 5/5/5 4/4/4
f 8/8/8 5/5/5 7/7/7
f 4/4/4 6/6/6 9/9/9
f 6/6/6 10/10/10 9/9/9
f 11/11/11 7/7/7 4/4/4
f 9/9/9 11/11/11 4/4/4
f 12/12/12 8/8/8 7/7/7
f 13/13/13 8/8/8 12/12/12
f 9/9/9 10/10/10 14/14/14
f 10/10/10 15/15/15 14/14/14
f 14/14/14 15/15/15 16/16/16
f 17/17/17 11/11/11 9/9/9
f 14/14/14 17/17/17 9/9/9
f 11/11/11 18/18/18 7/7/7
f 18/18/18 12/12/12 7/7/7
f 19/19/19 13/13/13 12/12/12
f 20/20/20 13/13/13 19/19/19
f 21/21/21 14/14/14 16/16/16
f 21/21/21 16/16/16 22/22/22
f 23/23/23 17/17/17 14/14/14
f 21/21/21 23/23/23 14/14/14
f 17/17/17 24/24/24 11/11/11
f 24/24/24 18/18/18 11/11/11
f 18/18/18 25/25/25 12/12/12
f 25/25/25 19/19/19 12/12/12
f 26/26/26 20/20/20 19/19/19
f 27/27/27 20/20/20 26/26/26
f 28/28/28 21/21/21 22/22/22
f 28/28/28 22/22/22 29/29/29
f 30/30/30 23/23/23 21/21/21
f 28/28/28 30/30/30 21/21/21
f 23/23/23 31/31/31 17/17/17
f 31/31/31 24/24/24 17/17/17
f 24/24/24 32/32/32 18/18/18
f 32/32/32 25/25/25 18/18/18
f 25/25/25 33/33/33 19/19/19
f 33/33/33 26/26/26 19/19/19
f 34/34/34 27/27/27 26/26/26
f 35/35/35 27/27/27 34/34/34
f 36/36/36 35/35/35 34/34/34
f 37/37/37 34/34/34 26/26/26
f 36/36/36 34/34/34 37/37/37
f 33/33/33 37/37/37 26/26/26
f 38/38/38 36/36/36 37/37/37
f 38/38/38 37/37/37 39/39/39
f 39/39/39 37/37/37 33/33/33
f 40/40/40 38/38/38 39/39/39
f 41/41/41 33/33/33 25/25/25
f 41/41/41 39/39/39 33/33/33
f 32/32/32 41/41/41 25/25/25
f 40/40/40 39/39/39 42/42/42
f 42/42/42 39/39/39 41/41/41
f 43/43/43 40/40/40 42/42/42
f 44/44/44 41/41/41 32/32/32
f 44/44/44 42/42/42 41/41/41
f 43/43/43 42/42/42 45/45/45
f 45/45/45 42/42/42 44/44/44
f 46/46/46 43/43/43 45/45/45
f 47/47/47 44/44/44 32/32/32
f 47/47/47 32/32/32 24/24/24
f 31/31/31 47/47/47 24/24/24
f 48/48/48 45/45/45 44/44/44
f 48/48/48 44/44/44 47/47/47
f 46/46/46 45/45/45 49/49/49
f 49/49/49 45/45/45 48/48/48
f 50/50/50 46/46/46 49/49/49
f 51/51/51 47/47/47 31/31/31
f 51/51/51 48/48/48 47/47/47
f 52/52/52 49/49/49 48/48/48
f 52/52/52 48/48/48 51/51/51
f 50/50/50 49/49/49 53/53/53
f 53/53/53 49/49/49 52/52/52
f 54/54/54 50/50/50 53/53/53
f 55/55/55 51/51/51 31/31/31
f 55/55/55 31/31/31 23/23/23
f 30/30/30 55/55/55 23/23/23
f 56/56/56 52/52/52 51/51/51
f 56/56/56 51/51/51 55/55/55
f 57/57/57 53/53/53 52/52/52
f 57/57/57 52/52/52 56/56/56
f 54/54/54 53/53/53 58/58/58
f 58/58/58 53/53/53 57/57/57
f 59/59/59 54/54/54 58/58/58
f 60/60/60 55/55/55 30/30/30
f 60/60/60 56/56/56 55/55/55
f 61/61/61 57/57/57 56/56/56
f 61/61/61 56/56/56 60/60/60
f 62/62/62 58/58/58 57/57/57
f 62/62/62 57/57/57 61/61/61
f 58/58/58 63/63/63 59/59/59
f 63/63/63 58/58/58 62/62/62
f 63/63/63 64/64/64 59/59/59
f 65/65/65 60/60/60 30/30/30
f 65/65/65 30/30/30 28/28/28
f 66/66/66 61/61/61 60/60/60
f 66/66/66 60/60/60 65/65/65
f 67/67/67 62/62/62 61/61/61
f 67/67/67 61/61/61 66/66/66
f 63/63/63 68/68/68 64/64/64
f 68/68/68 69/69/69 64/64/64
f 70/70/70 63/63/63 62/62/62
f 70/70/70 62/62/62 67/67/67
f 68/68/68 63/63/63 70/70/70
f 71/71/71 65/65/65 28/28/28
f 71/71/71 28/28/28 29/29/29
f 71/71/71 29/29/29 72/72/72
f 73/73/73 66/66/66 65/65/65
f 73/73/73 65/65/65 71/71/71
f 74/74/74 71/71/71 72/72/72
f 74/74/74 73/73/73 71/71/71
f 74/74/74 72/72/72 75/75/75
f 68/68/68 76/76/76 69/69/69
f 76/76/76 77/77/77 69/69/69
f 78/78/78 68/68/68 70/70/70
f 68/68/68 78/78/78 76/76/76
f 79/79/79 66/66/66 73/73/73
f 79/79/79 67/67/67 66/66/66
f 80/80/80 70/70/70 67/67/67
f 78/78/78 70/70/70 80/80/80
f 80/80/80 67/67/67 79/79/79
f 81/81/81 73/73/73 74/74/74
f 81/81/81 79/79/79 73/73/73
f 82/82/82 74/74/74 75/75/75
f 82/82/82 81/81/81 74/74/74
f 76/76/76 83/83/83 77/77/77
f 83/83/83 84/84/84 77/77/77
f 78/78/78 85/85/85 76/76/76
f 76/76/76 85/85/85 83/83/83
f 86/86/86 80/80/80 79/79/79
f 86/86/86 79/79/79 81/81/81
f 87/87/87 78/78/78 80/80/80
f 85/85/85 78/78/78 87/87/87
f 87/87/87 80/80/80 86/86/86
f 82/82/82 75/75/75 88/88/88
f 75/75/75 89/89/89 88/88/88
f 90/90/90 81/81/81 82/82/82
f 90/90/90 86/86/86 81/81/81
f 88/88/88 90/90/90 82/82/82
f 83/83/83 91/91/91 84/84/84
f 91/91/91 92/92/92 84/84/84
f 85/85/85 93/93/93 83/83/83
f 83/83/83 93/93/93 91/91/91
f 94/94/94 87/87/87 86/86/86
f 94/94/94 86/86/86 90/90/90
f 95/95/95 85/85/85 87/87/87
f 85/85/85 95/95/95 93/93/93
f 95/95/95 87/87/87 94/94/94
f 88/88/88 89/89/89 96/96/96
f 89/89/89 97/97/97 96/96/96
f 98/98/98 90/90/90 88/88/88
f 98/98/98 94/94/94 90/90/90
f 96/96/96 98/98/98 88/88/88
f 91/91/91 99/99/99 92/92/92
f 99/99/99 100/100/100 92/92/92
f 101/101/101 99/99/99 91/91/91
f 102/102/102 101/101/101 91/91/91
f 93/93/93 102/102/102 91/91/91
f 103/103/103 101/101/101 102/102/102
f 104/104/104 95/95/95 94/94/94
f 104/104/104 94/94/94 98/98/98
f 95/95/95 105/105/105 93/93/93
f 93/93/93 105/105/105 102/102/102
f 105/105/105 95/95/95 104/104/104
f 106/106/106 98/98/98 96/96/96
f 106/106/106 104/104/104 98/98/98
f 107/107/107 103/103/103 102/102/102
f 105/105/105 107/107/107 102/102/102
f 108/108/108 105/105/105 104/104/104
f 105/105/105 108/108/108 107/107/107
f 108/108/108 104/104/104 106/106/106
f 107/107/107 109/109/109 103/103/103
f 108/108/108 109/109/109 107/107/107
f 109/109/109 110/110/110 103/103/103
f 111/111/111 106/106/106 96/96/96
f 96/96/96 97/97/97 111/111/111
f 97/97/97 112/112/112 111/111/111
f 111/111/111 112/112/112 113/113/113
f 114/114/114 108/108/108 106/106/106
f 114/114/114 106/106/106 111/111/111
f 114/114/114 111/111/111 113/113/113
f 109/109/109 108/108/108 114/114/114
f 113/113/113 115/115/115 114/114/114
f 109/109/109 116/116/116 110/110/110
f 116/116/116 109/109/109 114/114/114
f 114/114/114 115/115/115 116/116/116
f 116/116/116 117/117/117 110/110/110
f 115/115/115 117/117/117 116/116/116
