g PH-Path
v 1.655795 -1.695732 0.01247079
v 2.003032 -1.874965 0.001779757
v 1.633529 -1.781835 0.001513214
v 2.018882 -1.791331 0.01401408
v 2.535183 -1.847836 -0.0889646
v 1.670179 -1.62995 -0.009299164
v 2.035353 -1.721111 -0.007248726
v 2.535182 -1.934924 -0.1182458
v 2.535182 -1.776584 -0.1125663
v 3.067749 -1.874917 0.006117783
v 3.037875 -1.736195 -0.01232206
v 3.052563 -1.798771 0.01189975
v 3.43625 -1.78066 0.00576724
v 3.418037 -1.71964 0.01446989
v 3.404223 -1.652256 -0.008938803
v 1.6226 -6.228459 -0.08682057
v 1.633529 -1.781835 0.001513214
v 2.003032 -1.874965 0.001779757
v 2.535182 -1.934924 -0.1182458
v 2.485466 -6.228459 -0.09818462
v 3.065645 -6.228459 -0.09818468
v 3.067749 -1.874917 0.006117783
v 3.431401 -6.228459 -0.0924703
v 3.43625 -1.78066 0.00576724
vt 0.3298572 0.9492314
vt 0.399224 0.9127184
vt 0.325892 0.9314689
vt 0.4021834 0.9297094
vt 0.5081193 0.9181488
vt 0.3330082 0.9632804
vt 0.406047 0.9442292
vt 0.5081016 0.9003104
vt 0.5081644 0.9329159
vt 0.6170132 0.9127636
vt 0.6106461 0.9413191
vt 0.61426 0.9280921
vt 0.6905684 0.9317358
vt 0.6871275 0.9444441
vt 0.6839557 0.9589449
vt 0.3258787 0.04033339
vt 0.325892 0.9314689
vt 0.399224 0.9127184
vt 0.5081016 0.9003104
vt 0.498794 0.0405037
vt 0.6152245 0.04054789
vt 0.6170132 0.9127636
vt 0.689254 0.0406191
vt 0.6905684 0.9317358
vn 0.01791637 0.08452283 0.9962605
vn 0.07105462 -0.1895136 0.9793037
vn -0.03529693 -0.1275076 0.9912093
vn 0.1072405 0.03537907 0.9936034
vn 0.0009584751 0.01263737 0.9999197
vn 0.06881551 0.2867308 0.9555364
vn 0.1493802 0.2794366 0.9484729
vn -0.003508869 -0.2391972 0.9709647
vn 0.007822374 0.2967534 0.9549221
vn -0.0810245 -0.1622779 0.9834129
vn -0.1497859 0.3180045 0.9361823
vn -0.1145504 0.06967314 0.9909712
vn 0.02062084 -0.1000255 0.9947712
vn -0.02967617 0.1120076 0.9932641
vn -0.08060499 0.3273666 0.9414531
vn 0.02834776 -0.0002412165 0.9995981
vn -0.005723475 -0.01984705 0.9997867
vn 0.09923112 -0.0289139 0.9946443
vn 0.0402773 -0.02151347 0.9989569
vn -0.04834542 -0.002204165 0.9988282
vn -0.0575739 -0.01603109 0.9982126
vn -0.05160988 -0.01681568 0.9985258
vn -0.00435026 -0.02300265 0.9997259
vn -0.00435026 -0.02300265 0.9997259
g PH-Path_0
f 3/3/3 2/2/2 1/1/1
f 2/2/2 4/4/4 1/1/1
f 5/5/5 4/4/4 2/2/2
f 1/1/1 4/4/4 6/6/6
f 4/4/4 7/7/7 6/6/6
f 7/7/7 4/4/4 5/5/5
f 8/8/8 5/5/5 2/2/2
f 9/9/9 7/7/7 5/5/5
f 8/8/8 10/10/10 5/5/5
f 11/11/11 9/9/9 5/5/5
f 10/10/10 12/12/12 5/5/5
f 12/12/12 11/11/11 5/5/5
f 12/12/12 10/10/10 13/13/13
f 14/14/14 12/12/12 13/13/13
f 11/11/11 12/12/12 14/14/14
f 15/15/15 11/11/11 14/14/14
f 18/18/18 17/17/17 16/16/16
f 18/18/18 16/16/16 19/19/19
f 16/16/16 20/20/20 19/19/19
f 20/20/20 21/21/21 19/19/19
f 21/21/21 22/22/22 19/19/19
f 21/21/21 23/23/23 22/22/22
f 23/23/23 24/24/24 22/22/22
