g PH-RockUnderside
v 3.330164 3.416914 -0.02657661
v 3.347868 0.3178708 -0.02657677
v 3.555785 3.40596 -0.02657677
v 3.104704 3.409154 -0.02657661
v 3.780787 3.381153 -0.02657661
v 2.880085 3.379348 -0.02657677
v 4.003702 3.345402 -0.02657646
v 2.655851 3.327324 -0.02657677
v 4.221988 3.290992 -0.02657646
v 2.434635 3.264889 -0.02657677
v 4.435919 3.21551 -0.02657646
v 2.220198 3.199219 -0.02657677
v 4.646227 3.123447 -0.02657646
v 2.014832 3.124376 -0.02657677
v 4.852608 3.020676 -0.02657646
v 1.817324 3.029428 -0.02657677
v 5.053189 2.910142 -0.02657677
v 1.631621 2.912321 -0.02657677
v 5.24594 2.787193 -0.02657692
v 1.457552 2.775373 -0.02657661
v 5.425598 2.647865 -0.02657692
v 1.290938 2.621733 -0.02657661
v 5.594283 2.486305 -0.02657661
v 1.132399 2.457704 -0.02657661
v 5.745556 2.309854 -0.02657661
v 0.9813089 2.286356 -0.02657661
v 5.878091 2.121769 -0.02657661
v 0.8373083 2.111593 -0.02657661
v 5.997138 1.923701 -0.02657677
v 0.7067563 1.933242 -0.02657661
v 6.105968 1.718321 -0.02657661
v 0.5940219 1.746561 -0.02657661
v 6.201882 1.50786 -0.02657661
v 0.497847 1.550119 -0.02657661
v 6.284546 1.293137 -0.02657661
v 0.4185788 1.343221 -0.02657661
v 6.350372 1.075201 -0.02657661
v 0.3536966 1.127824 -0.02657661
v 6.395486 0.8546445 -0.02657677
v 0.3004764 0.9073876 -0.02657661
v 6.425018 0.6306856 -0.02657661
v 0.2642776 0.6838226 -0.02657661
v 6.442977 0.4041844 -0.02657661
v 0.2492087 0.4577471 -0.02657661
v 6.444535 0.177783 -0.02657661
v 0.2507376 0.2305738 -0.02657661
v 6.424903 -0.0472599 -0.02657661
v 0.2640335 0.004868221 -0.02657661
v 6.387125 -0.2708846 -0.02657661
v 0.2919907 -0.2189485 -0.02657661
v 6.331473 -0.4910809 -0.02657661
v 0.3348453 -0.4396229 -0.02657661
v 6.262584 -0.7068648 -0.02657661
v 0.3971115 -0.6587626 -0.02657661
v 6.187488 -0.9170056 -0.02657677
v 0.483591 -0.8729556 -0.02657661
v 6.100595 -1.115603 -0.02657661
v 0.5884518 -1.086883 -0.02657661
v 5.993246 -1.306351 -0.02657677
v 0.7031192 -1.295405 -0.02657661
v 5.868911 -1.484864 -0.02657677
v 0.8282373 -1.494112 -0.02657661
v 5.727215 -1.653317 -0.02657692
v 0.962583 -1.677539 -0.02657661
v 5.571734 -1.813686 -0.02657692
v 1.109875 -1.845894 -0.02657661
v 5.406664 -1.968542 -0.02657661
v 1.26919 -1.995094 -0.02657661
v 5.234063 -2.117651 -0.02657692
v 1.44508 -2.131144 -0.02657661
v 5.055945 -2.259323 -0.02657677
v 1.636944 -2.256027 -0.02657677
v 4.873019 -2.384679 -0.02657646
v 1.840615 -2.374453 -0.02657677
v 4.678649 -2.489154 -0.02657646
v 2.04999 -2.48978 -0.02657677
v 4.476825 -2.573925 -0.02657646
v 2.264908 -2.592252 -0.02657677
v 4.265548 -2.644459 -0.02657646
v 2.480908 -2.669708 -0.02657677
v 4.047071 -2.702621 -0.02657646
v 2.697897 -2.721587 -0.02657677
v 3.823721 -2.749061 -0.02657661
v 2.921177 -2.752681 -0.02657661
v 3.598685 -2.776399 -0.02657677
v 3.146966 -2.771774 -0.02657661
v 3.37329 -2.781586 -0.02657677
vt 0.7796627 0.5606658
vt 0.7859641 0.772802
vt 0.7951266 0.5610451
vt 0.7642395 0.5615671
vt 0.8105711 0.5623737
vt 0.7489102 0.5639763
vt 0.8258906 0.5644551
vt 0.733644 0.5679064
vt 0.8409237 0.5678214
vt 0.7186012 0.5725443
vt 0.8556935 0.5726376
vt 0.7040281 0.5773924
vt 0.8702425 0.5785949
vt 0.6900909 0.582854
vt 0.8845403 0.5852916
vt 0.6767247 0.589679
vt 0.8984534 0.5925292
vt 0.6642032 0.5980018
vt 0.9118513 0.6006299
vt 0.6525108 0.6076636
vt 0.9243796 0.6098731
vt 0.6413563 0.618456
vt 0.9361932 0.6206564
vt 0.6307716 0.6299464
vt 0.9468392 0.6324874
vt 0.6207089 0.6419259
vt 0.9562215 0.6451458
vt 0.6111374 0.654127
vt 0.9646971 0.6585097
vt 0.6024926 0.6665522
vt 0.972485 0.6723909
vt 0.5950811 0.6795183
vt 0.9793972 0.686641
vt 0.5888195 0.6931254
vt 0.9854094 0.7012048
vt 0.5837325 0.7074208
vt 0.9902743 0.7160163
vt 0.5796445 0.7222747
vt 0.9937255 0.7310408
vt 0.5763633 0.7374542
vt 0.9961154 0.7463244
vt 0.5742527 0.7528201
vt 0.9977176 0.761801
vt 0.5735928 0.7683226
vt 0.9981967 0.7772979
vt 0.574071 0.7838733
vt 0.997223 0.7927368
vt 0.5753525 0.7993044
vt 0.9950045 0.8081083
vt 0.5776347 0.8145818
vt 0.9915569 0.8232747
vt 0.5809317 0.8296198
vt 0.9871958 0.8381606
vt 0.5855553 0.8445205
vt 0.9824005 0.8526707
vt 0.5918284 0.8590429
vt 0.9767784 0.8664097
vt 0.5993596 0.8735166
vt 0.9697434 0.8796452
vt 0.6075535 0.8876039
vt 0.961525 0.8920705
vt 0.6164466 0.9010023
vt 0.9521017 0.9038364
vt 0.6259462 0.9133391
vt 0.9417213 0.9150712
vt 0.6363075 0.9246225
vt 0.9306753 0.9259447
vt 0.6474604 0.9345746
vt 0.919104 0.9364371
vt 0.6597263 0.943599
vt 0.9071432 0.9464288
vt 0.6730675 0.9518327
vt 0.8948262 0.9553121
vt 0.6872061 0.9596048
vt 0.8816912 0.9627846
vt 0.7017303 0.9671553
vt 0.8680136 0.9689204
vt 0.7166126 0.9738166
vt 0.8536652 0.9740973
vt 0.7315278 0.9787638
vt 0.8388038 0.9784384
vt 0.7464687 0.9819583
vt 0.8235893 0.9819853
vt 0.7618061 0.9837192
vt 0.8082279 0.9842275
vt 0.7772952 0.9846545
vt 0.7928058 0.9849537
vn -3.350908E-07 0 -1
vn 0 0 -1
vn 0 0 -1
vn 3.310389E-07 0 -1
vn 6.751667E-07 0 -1
vn 3.391016E-07 0 -1
vn 3.480014E-07 0 -1
vn 0 0 -1
vn 0 0 -1
vn 0 0 -1
vn 0 0 -1
vn 0 0 -1
vn 0 0 -1
vn 0 0 -1
vn -5.457342E-07 4.167388E-07 -1
vn 0 0 -1
vn -8.287627E-07 5.452E-07 -1
vn -2.825394E-07 -1.869018E-07 -1
vn -2.866299E-07 1.585279E-07 -1
vn -3.138967E-07 -1.793593E-07 -1
vn 4.61238E-07 -4.767892E-07 -1
vn 0 0 -1
vn 4.924937E-07 -4.398371E-07 -1
vn 0 0 -1
vn 0 0 -1
vn 0 0 -1
vn -1.458484E-07 2.891609E-07 -1
vn 0 0 -1
vn 0 0 -1
vn 0 0 -1
vn 1.940813E-07 -2.732747E-07 -1
vn 0 0 -1
vn 0 0 -1
vn 0 0 -1
vn 0 0 -1
vn 0 0 -1
vn 0 3.411191E-07 -1
vn 0 0 -1
vn 0 0 -1
vn 0 0 -1
vn 0 -3.301531E-07 -1
vn 0 0 -1
vn 0 0 -1
vn 0 0 -1
vn 0 0 -1
vn 0 0 -1
vn 0 0 -1
vn 0 0 -1
vn 0 0 -1
vn 0 0 -1
vn 0 0 -1
vn 0 0 -1
vn 1.61054E-07 3.091906E-07 -1
vn 0 0 -1
vn 0 0 -1
vn 0 0 -1
vn 0 0 -1
vn 0 0 -1
vn 1.836925E-07 2.991809E-07 -1
vn 0 0 -1
vn 1.978403E-07 2.766708E-07 -1
vn 0 0 -1
vn 1.90574E-07 3.074439E-07 -1
vn 0 0 -1
vn -4.930408E-07 -4.428073E-07 -1
vn 0 0 -1
vn 0 0 -1
vn 0 0 -1
vn 2.159598E-07 2.299016E-07 -1
vn -2.85258E-07 1.593283E-07 -1
vn -8.638488E-07 -5.725299E-07 -1
vn -2.838093E-07 1.88654E-07 -1
vn -5.372715E-07 -4.161242E-07 -1
vn 0 0 -1
vn 0 0 -1
vn 0 0 -1
vn 0 0 -1
vn 0 0 -1
vn 0 0 -1
vn 0 0 -1
vn 3.49661E-07 0 -1
vn 3.265528E-07 0 -1
vn 6.716464E-07 0 -1
vn 3.355151E-07 0 -1
vn 3.376951E-07 0 -1
vn -3.390617E-07 0 -1
vn -3.331934E-07 0 -1
g PH-RockUnderside_0
f 3/3/3 2/2/2 1/1/1
f 1/1/1 2/2/2 4/4/4
f 5/5/5 2/2/2 3/3/3
f 4/4/4 2/2/2 6/6/6
f 7/7/7 2/2/2 5/5/5
f 6/6/6 2/2/2 8/8/8
f 9/9/9 2/2/2 7/7/7
f 8/8/8 2/2/2 10/10/10
f 11/11/11 2/2/2 9/9/9
f 10/10/10 2/2/2 12/12/12
f 13/13/13 2/2/2 11/11/11
f 12/12/12 2/2/2 14/14/14
f 15/15/15 2/2/2 13/13/13
f 14/14/14 2/2/2 16/16/16
f 17/17/17 2/2/2 15/15/15
f 16/16/16 2/2/2 18/18/18
f 19/19/19 2/2/2 17/17/17
f 18/18/18 2/2/2 20/20/20
f 21/21/21 2/2/2 19/19/19
f 20/20/20 2/2/2 22/22/22
f 23/23/23 2/2/2 21/21/21
f 22/22/22 2/2/2 24/24/24
f 25/25/25 2/2/2 23/23/23
f 24/24/24 2/2/2 26/26/26
f 27/27/27 2/2/2 25/25/25
f 26/26/26 2/2/2 28/28/28
f 29/29/29 2/2/2 27/27/27
f 28/28/28 2/2/2 30/30/30
f 31/31/31 2/2/2 29/29/29
f 30/30/30 2/2/2 32/32/32
f 33/33/33 2/2/2 31/31/31
f 32/32/32 2/2/2 34/34/34
f 35/35/35 2/2/2 33/33/33
f 34/34/34 2/2/2 36/36/36
f 37/37/37 2/2/2 35/35/35
f 36/36/36 2/2/2 38/38/38
f 39/39/39 2/2/2 37/37/37
f 38/38/38 2/2/2 40/40/40
f 41/41/41 2/2/2 39/39/39
f 40/40/40 2/2/2 42/42/42
f 43/43/43 2/2/2 41/41/41
f 42/42/42 2/2/2 44/44/44
f 45/45/45 2/2/2 43/43/43
f 44/44/44 2/2/2 46/46/46
f 47/47/47 2/2/2 45/45/45
f 46/46/46 2/2/2 48/48/48
f 49/49/49 2/2/2 47/47/47
f 48/48/48 2/2/2 50/50/50
f 51/51/51 2/2/2 49/49/49
f 50/50/50 2/2/2 52/52/52
f 53/53/53 2/2/2 51/51/51
f 52/52/52 2/2/2 54/54/54
f 55/55/55 2/2/2 53/53/53
f 54/54/54 2/2/2 56/56/56
f 57/57/57 2/2/2 55/55/55
f 56/56/56 2/2/2 58/58/58
f 59/59/59 2/2/2 57/57/57
f 58/58/58 2/2/2 60/60/60
f 61/61/61 2/2/2 59/59/59
f 60/60/60 2/2/2 62/62/62
f 63/63/63 2/2/2 61/61/61
f 62/62/62 2/2/2 64/64/64
f 65/65/65 2/2/2 63/63/63
f 64/64/64 2/2/2 66/66/66
f 67/67/67 2/2/2 65/65/65
f 66/66/66 2/2/2 68/68/68
f 69/69/69 2/2/2 67/67/67
f 68/68/68 2/2/2 70/70/70
f 71/71/71 2/2/2 69/69/69
f 70/70/70 2/2/2 72/72/72
f 73/73/73 2/2/2 71/71/71
f 72/72/72 2/2/2 74/74/74
f 75/75/75 2/2/2 73/73/73
f 74/74/74 2/2/2 76/76/76
f 77/77/77 2/2/2 75/75/75
f 76/76/76 2/2/2 78/78/78
f 79/79/79 2/2/2 77/77/77
f 78/78/78 2/2/2 80/80/80
f 81/81/81 2/2/2 79/79/79
f 80/80/80 2/2/2 82/82/82
f 83/83/83 2/2/2 81/81/81
f 82/82/82 2/2/2 84/84/84
f 85/85/85 2/2/2 83/83/83
f 84/84/84 2/2/2 86/86/86
f 87/87/87 2/2/2 85/85/85
f 86/86/86 2/2/2 87/87/87
