g PillarFace_2
v 0.9570408 -0.4642427 0.4740771
v 1.046339 -0.4642428 0.1338606
v -4.067384E-07 -0.4642429 0.1338606
v -4.067384E-07 -0.4642428 0.4740771
v 0.87212 -0.4642427 0.8200771
v -0.9570417 -0.464243 0.4740771
v -1.046339 -0.4642431 0.1338606
v -0.8721206 -0.4642429 0.8200771
v -4.067384E-07 -0.4642428 0.8200771
v 0.7917143 -0.4642426 1.175526
v -0.7917151 -0.4642429 1.175526
v -4.067385E-07 -0.4642428 1.175526
v 0.7160864 -0.4642426 1.543281
v -0.7160873 -0.4642428 1.543281
v -4.067385E-07 -0.4642427 1.543281
v 0.6456867 -0.4642425 1.925593
v -0.6456875 -0.4642427 1.925593
v -4.067385E-07 -0.4642426 1.925593
v 0.5787359 -0.4642425 2.324116
v -0.5787367 -0.4642426 2.324116
v -4.067385E-07 -0.4642425 2.324116
v 0.5130478 -0.4642424 2.739794
v -0.5130486 -0.4642426 2.739794
v -4.067385E-07 -0.4642425 2.739794
v 0.4527841 -0.4642423 3.172688
v -0.452785 -0.4642425 3.172688
v -4.067385E-07 -0.4642424 3.172688
v 0.4009829 -0.4642423 3.621768
v -0.4009838 -0.4642424 3.621768
v -4.067385E-07 -0.4642423 3.621768
v 0.3606001 -0.4642422 4.084717
v -0.3606009 -0.4642423 4.084717
v -4.067385E-07 -0.4642423 4.084717
v 0.3344637 -0.4642421 4.557898
v -0.3344645 -0.4642422 4.557898
v -4.067385E-07 -0.4642422 4.557898
v 0.3252087 -0.4642421 5.036529
v -0.3252096 -0.4642422 5.036529
v -4.067385E-07 -0.4642421 5.036529
v -4.067386E-07 -0.464242 5.515158
v 0.3344637 -0.464242 5.515158
v -0.3344645 -0.4642421 5.515158
v -4.067386E-07 -0.464242 5.98834
v 0.3606001 -0.4642419 5.98834
v -0.3606009 -0.464242 5.98834
v -4.067386E-07 -0.4642419 6.451289
v 0.4009829 -0.4642418 6.451289
v -0.4009838 -0.464242 6.451289
v -4.067386E-07 -0.4642418 6.900368
v 0.4527841 -0.4642417 6.900368
v -0.452785 -0.4642419 6.900368
v -4.067386E-07 -0.4642417 7.333262
v 0.5130478 -0.4642417 7.333262
v -0.5130486 -0.4642418 7.333262
v -4.067386E-07 -0.4642417 7.74894
v 0.5787359 -0.4642416 7.74894
v -0.5787367 -0.4642418 7.74894
v -4.067386E-07 -0.4642416 8.147463
v 0.6456867 -0.4642415 8.147463
v -0.6456875 -0.4642417 8.147463
v -4.067386E-07 -0.4642415 8.529776
v 0.7160864 -0.4642414 8.529776
v -0.7160873 -0.4642417 8.529776
v -4.067386E-07 -0.4642415 8.897532
v 0.7917143 -0.4642414 8.897532
v -0.7917151 -0.4642416 8.897532
v -4.067386E-07 -0.4642414 9.252979
v 0.87212 -0.4642413 9.252979
v -0.8721206 -0.4642416 9.252979
v -4.067387E-07 -0.4642414 9.59898
v 0.9570408 -0.4642412 9.59898
v -0.9570417 -0.4642415 9.59898
v -4.067387E-07 -0.4642413 9.939196
v 1.046339 -0.4642411 9.939196
v -1.046339 -0.4642415 9.939196
vt 0.8288273 0.01103455
vt 0.858529 0.003238677
vt 0.8585288 0.09458666
vt 0.828827 0.09458666
vt 0.7986206 0.01844829
vt 0.828827 0.1781387
vt 0.8585288 0.1859347
vt 0.7986203 0.1707249
vt 0.7986204 0.09458666
vt 0.7675892 0.02546789
vt 0.7675888 0.1637053
vt 0.7675889 0.09458666
vt 0.7354831 0.03207024
vt 0.7354829 0.1571027
vt 0.7354831 0.09458657
vt 0.7021062 0.03821633
vt 0.7021061 0.1509565
vt 0.7021061 0.09458647
vt 0.6673142 0.04406133
vt 0.6673139 0.1451115
vt 0.6673139 0.0945864
vt 0.6310244 0.04979607
vt 0.6310244 0.1393769
vt 0.6310244 0.09458637
vt 0.5932315 0.05505707
vt 0.5932313 0.1341156
vt 0.5932315 0.09458637
vt 0.5540257 0.05957945
vt 0.5540257 0.1295932
vt 0.5540257 0.09458637
vt 0.5136091 0.06310498
vt 0.5136091 0.1260677
vt 0.5136091 0.09458631
vt 0.4722991 0.06538668
vt 0.4722991 0.1237859
vt 0.4722991 0.09458631
vt 0.4305135 0.06619464
vt 0.4305136 0.1229779
vt 0.4305136 0.09458631
vt 0.3887279 0.09458628
vt 0.3887279 0.06538668
vt 0.3887279 0.1237858
vt 0.347418 0.09458625
vt 0.347418 0.06310485
vt 0.347418 0.1260676
vt 0.3070014 0.09458625
vt 0.3070014 0.05957928
vt 0.3070014 0.129593
vt 0.2677957 0.09458619
vt 0.2677957 0.05505694
vt 0.2677957 0.1341155
vt 0.2300029 0.09458619
vt 0.2300028 0.0497958
vt 0.2300029 0.1393766
vt 0.1937131 0.09458622
vt 0.1937131 0.04406108
vt 0.1937131 0.1451113
vt 0.1589211 0.09458622
vt 0.1589211 0.03821607
vt 0.158921 0.1509563
vt 0.1255441 0.09458622
vt 0.1255443 0.03207006
vt 0.1255441 0.1571024
vt 0.09343829 0.09458622
vt 0.09343824 0.02546749
vt 0.09343822 0.1637048
vt 0.06240668 0.09458612
vt 0.06240669 0.01844786
vt 0.06240661 0.1707244
vt 0.03220011 0.09458612
vt 0.03220018 0.01103411
vt 0.0322001 0.1781382
vt 0.002498253 0.09458609
vt 0.002498323 0.003238154
vt 0.002498245 0.185934
vn 0 -1 0
vn 0 -1 0
vn 0 -1 0
vn 0 -1 0
vn 0 -1 0
vn 0 -1 0
vn 0 -1 0
vn 0 -1 0
vn 0 -1 0
vn 0 -1 0
vn 0 -1 0
vn 0 -1 0
vn 0 -1 0
vn 0 -1 0
vn 0 -1 0
vn 0 -1 0
vn 0 -1 0
vn 0 -1 0
vn 0 -1 0
vn 0 -1 0
vn 0 -1 0
vn 0 -1 0
vn 0 -1 0
vn 0 -1 0
vn 0 -1 0
vn 0 -1 0
vn 0 -1 0
vn 0 -1 0
vn 0 -1 0
vn 0 -1 0
vn 0 -1 0
vn 0 -1 0
vn 0 -1 0
vn 0 -1 0
vn 0 -1 0
vn 0 -1 0
vn 0 -1 0
vn 0 -1 0
vn 0 -1 0
vn 0 -1 0
vn 0 -1 0
vn 0 -1 0
vn 0 -1 0
vn 0 -1 0
vn 0 -1 0
vn 0 -1 0
vn 0 -1 0
vn 0 -1 0
vn 0 -1 0
vn 0 -1 0
vn 0 -1 0
vn 0 -1 0
vn 0 -1 0
vn 0 -1 0
vn 0 -1 0
vn 0 -1 0
vn 0 -1 0
vn 0 -1 0
vn 0 -1 0
vn 0 -1 0
vn 0 -1 0
vn 0 -1 0
vn 0 -1 0
vn 0 -1 0
vn 0 -1 0
vn 0 -1 0
vn 0 -1 0
vn 0 -1 0
vn 0 -1 0
vn 0 -1 0
vn 0 -1 0
vn 0 -1 0
vn 0 -1 0
vn 0 -1 0
vn 0 -1 0
g PillarFace_2_0
f 3/3/3 2/2/2 1/1/1
f 4/4/4 3/3/3 1/1/1
f 4/4/4 1/1/1 5/5/5
f 3/3/3 4/4/4 6/6/6
f 7/7/7 3/3/3 6/6/6
f 6/6/6 4/4/4 8/8/8
f 9/9/9 4/4/4 5/5/5
f 4/4/4 9/9/9 8/8/8
f 9/9/9 5/5/5 10/10/10
f 8/8/8 9/9/9 11/11/11
f 12/12/12 9/9/9 10/10/10
f 9/9/9 12/12/12 11/11/11
f 12/12/12 10/10/10 13/13/13
f 11/11/11 12/12/12 14/14/14
f 15/15/15 12/12/12 13/13/13
f 12/12/12 15/15/15 14/14/14
f 15/15/15 13/13/13 16/16/16
f 14/14/14 15/15/15 17/17/17
f 18/18/18 15/15/15 16/16/16
f 15/15/15 18/18/18 17/17/17
f 18/18/18 16/16/16 19/19/19
f 17/17/17 18/18/18 20/20/20
f 21/21/21 18/18/18 19/19/19
f 18/18/18 21/21/21 20/20/20
f 21/21/21 19/19/19 22/22/22
f 20/20/20 21/21/21 23/23/23
f 24/24/24 21/21/21 22/22/22
f 21/21/21 24/24/24 23/23/23
f 24/24/24 22/22/22 25/25/25
f 23/23/23 24/24/24 26/26/26
f 27/27/27 24/24/24 25/25/25
f 24/24/24 27/27/27 26/26/26
f 27/27/27 25/25/25 28/28/28
f 26/26/26 27/27/27 29/29/29
f 30/30/30 27/27/27 28/28/28
f 27/27/27 30/30/30 29/29/29
f 30/30/30 28/28/28 31/31/31
f 29/29/29 30/30/30 32/32/32
f 33/33/33 30/30/30 31/31/31
f 30/30/30 33/33/33 32/32/32
f 33/33/33 31/31/31 34/34/34
f 32/32/32 33/33/33 35/35/35
f 36/36/36 33/33/33 34/34/34
f 33/33/33 36/36/36 35/35/35
f 36/36/36 34/34/34 37/37/37
f 35/35/35 36/36/36 38/38/38
f 39/39/39 36/36/36 37/37/37
f 36/36/36 39/39/39 38/38/38
f 40/40/40 39/39/39 37/37/37
f 39/39/39 40/40/40 38/38/38
f 41/41/41 40/40/40 37/37/37
f 40/40/40 42/42/42 38/38/38
f 43/43/43 40/40/40 41/41/41
f 40/40/40 43/43/43 42/42/42
f 44/44/44 43/43/43 41/41/41
f 43/43/43 45/45/45 42/42/42
f 46/46/46 43/43/43 44/44/44
f 43/43/43 46/46/46 45/45/45
f 47/47/47 46/46/46 44/44/44
f 46/46/46 48/48/48 45/45/45
f 49/49/49 46/46/46 47/47/47
f 46/46/46 49/49/49 48/48/48
f 50/50/50 49/49/49 47/47/47
f 49/49/49 51/51/51 48/48/48
f 52/52/52 49/49/49 50/50/50
f 49/49/49 52/52/52 51/51/51
f 53/53/53 52/52/52 50/50/50
f 52/52/52 54/54/54 51/51/51
f 55/55/55 52/52/52 53/53/53
f 52/52/52 55/55/55 54/54/54
f 56/56/56 55/55/55 53/53/53
f 55/55/55 57/57/57 54/54/54
f 58/58/58 55/55/55 56/56/56
f 55/55/55 58/58/58 57/57/57
f 59/59/59 58/58/58 56/56/56
f 58/58/58 60/60/60 57/57/57
f 61/61/61 58/58/58 59/59/59
f 58/58/58 61/61/61 60/60/60
f 62/62/62 61/61/61 59/59/59
f 61/61/61 63/63/63 60/60/60
f 64/64/64 61/61/61 62/62/62
f 61/61/61 64/64/64 63/63/63
f 65/65/65 64/64/64 62/62/62
f 64/64/64 66/66/66 63/63/63
f 67/67/67 64/64/64 65/65/65
f 64/64/64 67/67/67 66/66/66
f 68/68/68 67/67/67 65/65/65
f 67/67/67 69/69/69 66/66/66
f 70/70/70 67/67/67 68/68/68
f 67/67/67 70/70/70 69/69/69
f 71/71/71 70/70/70 68/68/68
f 70/70/70 72/72/72 69/69/69
f 73/73/73 70/70/70 71/71/71
f 70/70/70 73/73/73 72/72/72
f 74/74/74 73/73/73 71/71/71
f 73/73/73 75/75/75 72/72/72
