g PillarFace_6
v 0.9570413 -0.4642432 0.4740771
v 1.046339 -0.4642432 0.1338606
v 7.00988E-08 -0.4642434 0.1338606
v 7.009879E-08 -0.4642433 0.4740771
v 0.8721202 -0.4642431 0.8200771
v -0.9570412 -0.4642435 0.4740771
v -1.046339 -0.4642436 0.1338606
v -0.8721203 -0.4642434 0.8200771
v 7.009879E-08 -0.4642433 0.8200771
v 0.7917147 -0.4642431 1.175526
v -0.7917146 -0.4642434 1.175526
v 7.009878E-08 -0.4642432 1.175526
v 0.7160869 -0.4642431 1.543281
v -0.7160868 -0.4642433 1.543281
v 7.009876E-08 -0.4642432 1.543281
v 0.6456872 -0.464243 1.925593
v -0.645687 -0.4642432 1.925593
v 7.009876E-08 -0.4642431 1.925593
v 0.5787364 -0.4642429 2.324116
v -0.5787362 -0.4642431 2.324116
v 7.009874E-08 -0.464243 2.324116
v 0.5130482 -0.4642429 2.739794
v -0.5130481 -0.4642431 2.739794
v 7.009874E-08 -0.464243 2.739794
v 0.4527846 -0.4642428 3.172688
v -0.4527845 -0.464243 3.172688
v 7.009872E-08 -0.4642429 3.172688
v 0.4009834 -0.4642428 3.621768
v -0.4009833 -0.4642429 3.621768
v 7.009871E-08 -0.4642428 3.621768
v 0.3606005 -0.4642427 4.084717
v -0.3606004 -0.4642428 4.084717
v 7.00987E-08 -0.4642428 4.084717
v 0.3344641 -0.4642426 4.557898
v -0.334464 -0.4642427 4.557898
v 7.009869E-08 -0.4642427 4.557898
v 0.3252092 -0.4642425 5.036529
v -0.3252091 -0.4642426 5.036529
v 7.009867E-08 -0.4642426 5.036529
v 7.009866E-08 -0.4642425 5.515158
v 0.3344641 -0.4642425 5.515158
v -0.334464 -0.4642426 5.515158
v 7.009864E-08 -0.4642424 5.98834
v 0.3606005 -0.4642424 5.98834
v -0.3606004 -0.4642425 5.98834
v 7.009864E-08 -0.4642424 6.451289
v 0.4009834 -0.4642423 6.451289
v -0.4009833 -0.4642424 6.451289
v 7.009862E-08 -0.4642423 6.900368
v 0.4527846 -0.4642422 6.900368
v -0.4527845 -0.4642424 6.900368
v 7.009861E-08 -0.4642422 7.333262
v 0.5130482 -0.4642421 7.333262
v -0.5130481 -0.4642423 7.333262
v 7.00986E-08 -0.4642422 7.74894
v 0.5787364 -0.4642421 7.74894
v -0.5787362 -0.4642422 7.74894
v 7.009859E-08 -0.4642421 8.147463
v 0.6456872 -0.464242 8.147463
v -0.645687 -0.4642422 8.147463
v 7.009858E-08 -0.464242 8.529776
v 0.7160869 -0.4642419 8.529776
v -0.7160868 -0.4642421 8.529776
v 7.009857E-08 -0.464242 8.897532
v 0.7917147 -0.4642418 8.897532
v -0.7917146 -0.4642421 8.897532
v 7.009856E-08 -0.4642419 9.252979
v 0.8721202 -0.4642418 9.252979
v -0.8721203 -0.464242 9.252979
v 7.009855E-08 -0.4642419 9.59898
v 0.9570413 -0.4642417 9.59898
v -0.9570412 -0.464242 9.59898
v 7.009854E-08 -0.4642418 9.939196
v 1.046339 -0.4642416 9.939196
v -1.046339 -0.464242 9.939196
vt 0.8404478 0.1971363
vt 0.8701489 0.1893406
vt 0.8701488 0.2806865
vt 0.8404478 0.2806865
vt 0.8102416 0.2045498
vt 0.8404475 0.3642367
vt 0.8701486 0.3720323
vt 0.8102414 0.3568229
vt 0.8102416 0.2806865
vt 0.7792108 0.2115694
vt 0.7792106 0.3498035
vt 0.7792106 0.2806863
vt 0.7471057 0.2181717
vt 0.7471055 0.3432012
vt 0.7471056 0.2806863
vt 0.7137296 0.2243176
vt 0.7137294 0.3370552
vt 0.7137295 0.2806863
vt 0.6789384 0.2301624
vt 0.6789383 0.3312102
vt 0.6789384 0.2806863
vt 0.6426494 0.2358969
vt 0.6426494 0.3254757
vt 0.6426494 0.2806863
vt 0.6048572 0.2411579
vt 0.6048572 0.3202145
vt 0.6048572 0.2806862
vt 0.5656525 0.2456802
vt 0.5656525 0.3156922
vt 0.5656525 0.2806862
vt 0.5252368 0.2492056
vt 0.5252368 0.3121668
vt 0.5252368 0.2806861
vt 0.483928 0.2514873
vt 0.483928 0.3098851
vt 0.483928 0.2806861
vt 0.4421432 0.2522952
vt 0.4421433 0.3090771
vt 0.4421433 0.2806861
vt 0.4003587 0.2806861
vt 0.4003587 0.2514873
vt 0.4003587 0.3098851
vt 0.3590496 0.2806861
vt 0.3590496 0.2492055
vt 0.3590496 0.3121668
vt 0.3186339 0.280686
vt 0.3186339 0.24568
vt 0.3186339 0.3156921
vt 0.2794292 0.280686
vt 0.2794292 0.2411578
vt 0.2794292 0.3202145
vt 0.2416371 0.280686
vt 0.2416371 0.2358969
vt 0.2416371 0.3254754
vt 0.2053484 0.280686
vt 0.2053482 0.2301623
vt 0.2053482 0.3312101
vt 0.1705568 0.280686
vt 0.1705569 0.2243173
vt 0.1705568 0.3370548
vt 0.1371806 0.2806859
vt 0.1371807 0.2181712
vt 0.1371807 0.3432008
vt 0.1050758 0.2806859
vt 0.1050757 0.2115691
vt 0.1050755 0.3498031
vt 0.07404479 0.2806859
vt 0.07404486 0.2045494
vt 0.07404472 0.3568225
vt 0.04383865 0.2806859
vt 0.04383873 0.1971357
vt 0.04383865 0.3642362
vt 0.01413785 0.2806859
vt 0.01413792 0.1893401
vt 0.01413777 0.3720319
vn 0 -1 0
vn 0 -1 0
vn 0 -1 0
vn 0 -1 0
vn 0 -1 0
vn 0 -1 0
vn 0 -1 0
vn 0 -1 0
vn 0 -1 0
vn 0 -1 0
vn 0 -1 0
vn 0 -1 0
vn 0 -1 0
vn 0 -1 0
vn 0 -1 0
vn 0 -1 0
vn 0 -1 0
vn 0 -1 0
vn 0 -1 0
vn 0 -1 0
vn 0 -1 0
vn 0 -1 0
vn 0 -1 0
vn 0 -1 0
vn 0 -1 0
vn 0 -1 0
vn 0 -1 0
vn 0 -1 0
vn 0 -1 0
vn 0 -1 0
vn 0 -1 0
vn 0 -1 0
vn 0 -1 0
vn 0 -1 0
vn 0 -1 0
vn 0 -1 0
vn 0 -1 0
vn 0 -1 0
vn 0 -1 0
vn 0 -1 0
vn 0 -1 0
vn 0 -1 0
vn 0 -1 0
vn 0 -1 0
vn 0 -1 0
vn 0 -1 0
vn 0 -1 0
vn 0 -1 0
vn 0 -1 0
vn 0 -1 0
vn 0 -1 0
vn 0 -1 0
vn 0 -1 0
vn 0 -1 0
vn 0 -1 0
vn 0 -1 0
vn 0 -1 0
vn 0 -1 0
vn 0 -1 0
vn 0 -1 0
vn 0 -1 0
vn 0 -1 0
vn 0 -1 0
vn 0 -1 0
vn 0 -1 0
vn 0 -1 0
vn 0 -1 0
vn 0 -1 0
vn 0 -1 0
vn 0 -1 0
vn 0 -1 0
vn 0 -1 0
vn 0 -1 0
vn 0 -1 0
vn 0 -1 0
g PillarFace_6_0
f 3/3/3 2/2/2 1/1/1
f 4/4/4 3/3/3 1/1/1
f 4/4/4 1/1/1 5/5/5
f 3/3/3 4/4/4 6/6/6
f 7/7/7 3/3/3 6/6/6
f 6/6/6 4/4/4 8/8/8
f 9/9/9 4/4/4 5/5/5
f 4/4/4 9/9/9 8/8/8
f 9/9/9 5/5/5 10/10/10
f 8/8/8 9/9/9 11/11/11
f 12/12/12 9/9/9 10/10/10
f 9/9/9 12/12/12 11/11/11
f 12/12/12 10/10/10 13/13/13
f 11/11/11 12/12/12 14/14/14
f 15/15/15 12/12/12 13/13/13
f 12/12/12 15/15/15 14/14/14
f 15/15/15 13/13/13 16/16/16
f 14/14/14 15/15/15 17/17/17
f 18/18/18 15/15/15 16/16/16
f 15/15/15 18/18/18 17/17/17
f 18/18/18 16/16/16 19/19/19
f 17/17/17 18/18/18 20/20/20
f 21/21/21 18/18/18 19/19/19
f 18/18/18 21/21/21 20/20/20
f 21/21/21 19/19/19 22/22/22
f 20/20/20 21/21/21 23/23/23
f 24/24/24 21/21/21 22/22/22
f 21/21/21 24/24/24 23/23/23
f 24/24/24 22/22/22 25/25/25
f 23/23/23 24/24/24 26/26/26
f 27/27/27 24/24/24 25/25/25
f 24/24/24 27/27/27 26/26/26
f 27/27/27 25/25/25 28/28/28
f 26/26/26 27/27/27 29/29/29
f 30/30/30 27/27/27 28/28/28
f 27/27/27 30/30/30 29/29/29
f 30/30/30 28/28/28 31/31/31
f 29/29/29 30/30/30 32/32/32
f 33/33/33 30/30/30 31/31/31
f 30/30/30 33/33/33 32/32/32
f 33/33/33 31/31/31 34/34/34
f 32/32/32 33/33/33 35/35/35
f 36/36/36 33/33/33 34/34/34
f 33/33/33 36/36/36 35/35/35
f 36/36/36 34/34/34 37/37/37
f 35/35/35 36/36/36 38/38/38
f 39/39/39 36/36/36 37/37/37
f 36/36/36 39/39/39 38/38/38
f 40/40/40 39/39/39 37/37/37
f 39/39/39 40/40/40 38/38/38
f 41/41/41 40/40/40 37/37/37
f 40/40/40 42/42/42 38/38/38
f 43/43/43 40/40/40 41/41/41
f 40/40/40 43/43/43 42/42/42
f 44/44/44 43/43/43 41/41/41
f 43/43/43 45/45/45 42/42/42
f 46/46/46 43/43/43 44/44/44
f 43/43/43 46/46/46 45/45/45
f 47/47/47 46/46/46 44/44/44
f 46/46/46 48/48/48 45/45/45
f 49/49/49 46/46/46 47/47/47
f 46/46/46 49/49/49 48/48/48
f 50/50/50 49/49/49 47/47/47
f 49/49/49 51/51/51 48/48/48
f 52/52/52 49/49/49 50/50/50
f 49/49/49 52/52/52 51/51/51
f 53/53/53 52/52/52 50/50/50
f 52/52/52 54/54/54 51/51/51
f 55/55/55 52/52/52 53/53/53
f 52/52/52 55/55/55 54/54/54
f 56/56/56 55/55/55 53/53/53
f 55/55/55 57/57/57 54/54/54
f 58/58/58 55/55/55 56/56/56
f 55/55/55 58/58/58 57/57/57
f 59/59/59 58/58/58 56/56/56
f 58/58/58 60/60/60 57/57/57
f 61/61/61 58/58/58 59/59/59
f 58/58/58 61/61/61 60/60/60
f 62/62/62 61/61/61 59/59/59
f 61/61/61 63/63/63 60/60/60
f 64/64/64 61/61/61 62/62/62
f 61/61/61 64/64/64 63/63/63
f 65/65/65 64/64/64 62/62/62
f 64/64/64 66/66/66 63/63/63
f 67/67/67 64/64/64 65/65/65
f 64/64/64 67/67/67 66/66/66
f 68/68/68 67/67/67 65/65/65
f 67/67/67 69/69/69 66/66/66
f 70/70/70 67/67/67 68/68/68
f 67/67/67 70/70/70 69/69/69
f 71/71/71 70/70/70 68/68/68
f 70/70/70 72/72/72 69/69/69
f 73/73/73 70/70/70 71/71/71
f 70/70/70 73/73/73 72/72/72
f 74/74/74 73/73/73 71/71/71
f 73/73/73 75/75/75 72/72/72
