g PortholeWindow_0
v 0.0009857178 -0.04196345 0.2987424
v 0.07864624 -0.041386 0.2885132
v 0.00109375 -0.05175368 2.57492E-07
v -0.0766748 -0.04164289 0.2885132
v 0.1510138 -0.03969813 0.2585242
v -0.1490405 -0.04087862 0.2585236
v 0.213158 -0.037122 0.2108162
v -0.2111844 -0.04011389 0.210816
v 0.2608414 -0.03430658 0.1486438
v -0.2588681 -0.03958961 0.1486444
v 0.2908166 -0.03212069 0.07624302
v -0.2888434 -0.03933505 0.07624241
v 0.3010419 -0.0312961 -0.001453791
v -0.2990671 -0.03926709 -0.001453991
v 0.2908166 -0.03212072 -0.07915059
v -0.2888434 -0.03933507 -0.07915039
v 0.2608404 -0.03430661 -0.1515526
v -0.258869 -0.03958958 -0.1515528
v 0.2131577 -0.03712201 -0.213725
v -0.2111853 -0.04011388 -0.2137254
v 0.1510138 -0.03969813 -0.2614326
v -0.1490405 -0.04087862 -0.2614322
v 0.07864593 -0.04138552 -0.291422
v -0.0766748 -0.04164286 -0.2914224
v 0.0009857178 -0.04196294 -0.3016512
vt 0.7284602 0.4279993
vt 0.7337986 0.4272977
vt 0.7284693 0.4074711
vt 0.723122 0.4272962
vt 0.7387757 0.4252396
vt 0.7181473 0.4252354
vt 0.7430538 0.421964
vt 0.7138752 0.4219564
vt 0.7463408 0.4176933
vt 0.7105976 0.4176828
vt 0.7484098 0.412718
vt 0.7085381 0.4127057
vt 0.7491172 0.4073777
vt 0.7078368 0.4073649
vt 0.7484131 0.4020369
vt 0.7085414 0.4020245
vt 0.7463471 0.3970602
vt 0.7106039 0.3970487
vt 0.7430629 0.3927875
vt 0.7138841 0.3927769
vt 0.7387868 0.3895093
vt 0.7181583 0.3895006
vt 0.733811 0.387448
vt 0.7231343 0.3874429
vt 0.7284729 0.3867431
vn 0.001650903 -0.9994621 0.03275448
vn 0.02306315 -0.9992925 0.02971007
vn -0.005606283 -0.9999843 5.003568E-05
vn -0.02127485 -0.9993446 0.02928689
vn 0.04388959 -0.998813 0.02112497
vn -0.02668639 -0.9992915 0.02653848
vn 0.06297333 -0.9979976 0.005919836
vn -0.03333668 -0.9992107 0.02160161
vn 0.06633458 -0.9977967 0.001200242
vn -0.03763831 -0.9991642 0.01594001
vn 0.06807528 -0.9976786 -0.00177783
vn -0.04050649 -0.9991413 0.008704296
vn 0.06804565 -0.9976822 -7.982243E-07
vn -0.04156374 -0.9991359 3.04784E-06
vn 0.06809159 -0.9976775 0.001773008
vn -0.04042659 -0.9991448 -0.008677406
vn 0.06632648 -0.9977973 -0.001191362
vn -0.03750716 -0.9991705 -0.01585948
vn 0.06290815 -0.9980019 -0.005904254
vn -0.03319159 -0.9992188 -0.02145195
vn 0.04375313 -0.9988223 -0.02096859
vn -0.02656085 -0.9993007 -0.02631565
vn 0.02296678 -0.9993026 -0.02944117
vn -0.02115719 -0.9993547 -0.02902635
vn 0.001653902 -0.9994723 -0.03244061
g PortholeWindow_0_0
f 3/3/3 2/2/2 1/1/1
f 3/3/3 1/1/1 4/4/4
f 3/3/3 5/5/5 2/2/2
f 3/3/3 4/4/4 6/6/6
f 3/3/3 7/7/7 5/5/5
f 3/3/3 6/6/6 8/8/8
f 3/3/3 9/9/9 7/7/7
f 3/3/3 8/8/8 10/10/10
f 3/3/3 11/11/11 9/9/9
f 3/3/3 10/10/10 12/12/12
f 3/3/3 13/13/13 11/11/11
f 3/3/3 12/12/12 14/14/14
f 3/3/3 15/15/15 13/13/13
f 3/3/3 14/14/14 16/16/16
f 3/3/3 17/17/17 15/15/15
f 3/3/3 16/16/16 18/18/18
f 3/3/3 19/19/19 17/17/17
f 3/3/3 18/18/18 20/20/20
f 3/3/3 21/21/21 19/19/19
f 3/3/3 20/20/20 22/22/22
f 3/3/3 23/23/23 21/21/21
f 3/3/3 22/22/22 24/24/24
f 3/3/3 25/25/25 23/23/23
f 3/3/3 24/24/24 25/25/25
