g PortholeWindow_5
v -0.001136475 0.02733246 0.3163362
v -0.001840515 0.03757877 1.430511E-07
v 0.0810376 0.03135704 0.3055049
v -0.08331116 0.02330738 0.3055049
v 0.1576117 0.03510677 0.273749
v -0.159884 0.0195557 0.2737488
v 0.2233667 0.03832863 0.2232323
v -0.2256406 0.01633583 0.2232323
v 0.273822 0.04079956 0.1573981
v -0.2760956 0.01386291 0.1573981
v 0.3055408 0.04235378 0.08073263
v -0.3078131 0.01230892 0.08073263
v 0.3163595 0.04288318 -0.001539688
v -0.3186316 0.01177944 -0.001539965
v 0.3055408 0.04235382 -0.08381215
v -0.3078131 0.01230896 -0.08381229
v 0.273822 0.04079967 -0.1604777
v -0.2760956 0.01386303 -0.1604778
v 0.2233667 0.03832882 -0.2263121
v -0.2256406 0.01633602 -0.2263121
v 0.1576117 0.03510696 -0.2768285
v -0.159884 0.01955589 -0.2768285
v 0.0810376 0.03135677 -0.3085844
v -0.08331116 0.02330765 -0.3085845
v -0.001136475 0.02733223 -0.319416
vt 0.3556976 0.5246789
vt 0.3666572 0.5434724
vt 0.3609593 0.5224686
vt 0.3511873 0.5281756
vt 0.3666136 0.5216956
vt 0.3477358 0.5327204
vt 0.3722754 0.5224123
vt 0.345578 0.5380039
vt 0.3775588 0.52457
vt 0.3448614 0.5436656
vt 0.3821037 0.5280215
vt 0.3456345 0.54932
vt 0.3856004 0.5325318
vt 0.3478447 0.5545816
vt 0.3878106 0.5377935
vt 0.3513414 0.5590919
vt 0.3885837 0.5434479
vt 0.3558863 0.5625436
vt 0.387867 0.5491096
vt 0.3611696 0.5647013
vt 0.3857094 0.554393
vt 0.3668315 0.5654179
vt 0.3822578 0.558938
vt 0.3724858 0.5646449
vt 0.3777475 0.5624347
vn -0.04889508 0.9982768 0.03244361
vn -0.04893457 0.9988019 7.965243E-05
vn -0.04050539 0.9986882 0.03132711
vn -0.05729001 0.9978657 0.03133659
vn -0.03271015 0.9990706 0.02807467
vn -0.06509509 0.9974837 0.02809097
vn -0.02602981 0.9993988 0.02290305
vn -0.07178988 0.9971565 0.02291765
vn -0.02091694 0.9996504 0.01617782
vn -0.07691728 0.9969061 0.01618528
vn -0.01772858 0.9998079 0.008365173
vn -0.08011018 0.9967508 0.008376108
vn -0.01666773 0.9998611 2.936088E-06
vn -0.08117086 0.9967001 2.939242E-06
vn -0.01780523 0.9998067 -0.008338493
vn -0.0800336 0.9967572 -0.008349398
vn -0.02104971 0.9996489 -0.01609472
vn -0.07678481 0.9969177 -0.01610207
vn -0.02618352 0.9993985 -0.02274346
vn -0.07163666 0.9971711 -0.02275781
vn -0.03284606 0.9990726 -0.02783994
vn -0.06496266 0.9974988 -0.02785433
vn -0.04058471 0.998694 -0.03103674
vn -0.05721112 0.9978793 -0.03104443
vn -0.0488923 0.998287 -0.0321318
g PortholeWindow_5_0
f 3/3/3 2/2/2 1/1/1
f 1/1/1 2/2/2 4/4/4
f 5/5/5 2/2/2 3/3/3
f 4/4/4 2/2/2 6/6/6
f 7/7/7 2/2/2 5/5/5
f 6/6/6 2/2/2 8/8/8
f 9/9/9 2/2/2 7/7/7
f 8/8/8 2/2/2 10/10/10
f 11/11/11 2/2/2 9/9/9
f 10/10/10 2/2/2 12/12/12
f 13/13/13 2/2/2 11/11/11
f 12/12/12 2/2/2 14/14/14
f 15/15/15 2/2/2 13/13/13
f 14/14/14 2/2/2 16/16/16
f 17/17/17 2/2/2 15/15/15
f 16/16/16 2/2/2 18/18/18
f 19/19/19 2/2/2 17/17/17
f 18/18/18 2/2/2 20/20/20
f 21/21/21 2/2/2 19/19/19
f 20/20/20 2/2/2 22/22/22
f 23/23/23 2/2/2 21/21/21
f 22/22/22 2/2/2 24/24/24
f 25/25/25 2/2/2 23/23/23
f 24/24/24 2/2/2 25/25/25
