g PortholeWindow_6
v -0.006457214 -0.02711243 0.3222846
v 0.07493591 -0.04713394 0.3112497
v -0.009156189 -0.03722183 1.239777E-07
v -0.08785095 -0.007090149 0.3112497
v 0.1507825 -0.06579056 0.2788966
v -0.163696 0.0115683 0.2788964
v 0.2159128 -0.0818132 0.22743
v -0.2288278 0.02758911 0.22743
v 0.2658887 -0.09410629 0.1603579
v -0.2788034 0.03988434 0.1603579
v 0.2973059 -0.1018353 0.08225074
v -0.3102191 0.04761291 0.08225074
v 0.3080221 -0.1044708 -0.001568661
v -0.320935 0.05024841 -0.001568947
v 0.2973059 -0.1018353 -0.08538819
v -0.3102191 0.04761291 -0.08538833
v 0.2658887 -0.09410629 -0.1634954
v -0.2788034 0.03988434 -0.1634955
v 0.2159128 -0.0818132 -0.2305677
v -0.2288278 0.02758911 -0.2305677
v 0.1507825 -0.06579056 -0.2820341
v -0.163696 0.0115683 -0.2820341
v 0.07493622 -0.04713348 -0.3143871
v -0.08785095 -0.007090149 -0.3143872
v -0.006457214 -0.02711197 -0.3254223
vt 0.8209736 0.5903064
vt 0.8285742 0.5893042
vt 0.8209491 0.5610813
vt 0.8133726 0.5893073
vt 0.8356565 0.586369
vt 0.8062892 0.5863749
vt 0.8417377 0.5817007
vt 0.800206 0.5817091
vt 0.8464034 0.5756177
vt 0.7955378 0.5756279
vt 0.8493359 0.5685343
vt 0.7926027 0.5685457
vt 0.8503351 0.5609332
vt 0.7916004 0.5609451
vt 0.8493329 0.5533326
vt 0.7925996 0.553344
vt 0.8463976 0.5462503
vt 0.7955319 0.5462606
vt 0.8417294 0.5401691
vt 0.8001976 0.5401775
vt 0.8356463 0.5355033
vt 0.8062789 0.5355092
vt 0.8285629 0.5325709
vt 0.8133611 0.532574
vt 0.8209618 0.5315717
vn -0.2387428 -0.9705408 0.03244324
vn -0.2305861 -0.9725475 0.03132686
vn -0.2388821 -0.9710486 7.927808E-05
vn -0.2469055 -0.9685327 0.03133612
vn -0.2230081 -0.9744123 0.02807455
vn -0.2544933 -0.9666665 0.02809088
vn -0.2165131 -0.976011 0.0229025
vn -0.2610016 -0.9650663 0.02291783
vn -0.2115425 -0.9772349 0.01617754
vn -0.2659874 -0.9638407 0.01618456
vn -0.2084432 -0.9779987 0.008365003
vn -0.2690918 -0.9630781 0.008375972
vn -0.207412 -0.9782537 2.702106E-06
vn -0.2701229 -0.9628259 2.710633E-06
vn -0.2085183 -0.9779829 -0.008339027
vn -0.2690178 -0.9630991 -0.008349972
vn -0.2116727 -0.9772081 -0.0160954
vn -0.2658593 -0.9638773 -0.01610232
vn -0.2166638 -0.9759813 -0.02274367
vn -0.2608541 -0.9651099 -0.02275872
vn -0.2231418 -0.9743884 -0.0278405
vn -0.2543661 -0.9667068 -0.02785501
vn -0.230665 -0.9725381 -0.03103725
vn -0.2468308 -0.9685612 -0.0310448
vn -0.2387422 -0.9705512 -0.03213208
g PortholeWindow_6_0
f 3/3/3 2/2/2 1/1/1
f 3/3/3 1/1/1 4/4/4
f 3/3/3 5/5/5 2/2/2
f 3/3/3 4/4/4 6/6/6
f 3/3/3 7/7/7 5/5/5
f 3/3/3 6/6/6 8/8/8
f 3/3/3 9/9/9 7/7/7
f 3/3/3 8/8/8 10/10/10
f 3/3/3 11/11/11 9/9/9
f 3/3/3 10/10/10 12/12/12
f 3/3/3 13/13/13 11/11/11
f 3/3/3 12/12/12 14/14/14
f 3/3/3 15/15/15 13/13/13
f 3/3/3 14/14/14 16/16/16
f 3/3/3 17/17/17 15/15/15
f 3/3/3 16/16/16 18/18/18
f 3/3/3 19/19/19 17/17/17
f 3/3/3 18/18/18 20/20/20
f 3/3/3 21/21/21 19/19/19
f 3/3/3 20/20/20 22/22/22
f 3/3/3 23/23/23 21/21/21
f 3/3/3 22/22/22 24/24/24
f 3/3/3 25/25/25 23/23/23
f 3/3/3 24/24/24 25/25/25
