g PortholeWindow_2
v -0.001054687 -0.02536911 0.2936107
v 0.07521606 -0.02910454 0.2835576
v -0.001708374 -0.03487923 1.144409E-07
v -0.07732575 -0.02163319 0.2835576
v 0.1462891 -0.03258488 0.254083
v -0.1483981 -0.01815098 0.2540828
v 0.2073206 -0.03557529 0.2071954
v -0.2094305 -0.01516243 0.2071954
v 0.254151 -0.03786869 0.1460907
v -0.256261 -0.01286713 0.1460907
v 0.2835913 -0.03931118 0.07493282
v -0.2856999 -0.01142471 0.07493282
v 0.2936325 -0.03980259 -0.0014291
v -0.2957413 -0.0109333 -0.001429357
v 0.2835913 -0.03931118 -0.07779114
v -0.2856999 -0.01142471 -0.07779127
v 0.254151 -0.03786869 -0.1489491
v -0.256261 -0.01286713 -0.1489492
v 0.2073206 -0.03557529 -0.2100539
v -0.2094305 -0.01516243 -0.2100539
v 0.1462891 -0.03258488 -0.2569413
v -0.1483981 -0.01815098 -0.2569413
v 0.07521606 -0.02910408 -0.2864158
v -0.07732575 -0.02163319 -0.286416
v -0.001054687 -0.02536865 -0.2964693
vt 0.5753764 0.5390096
vt 0.5840396 0.5378582
vt 0.575314 0.5056943
vt 0.5667104 0.5378796
vt 0.5921096 0.5345039
vt 0.5586321 0.5345451
vt 0.5990364 0.5291751
vt 0.5516921 0.5292335
vt 0.6043479 0.5222352
vt 0.5463634 0.5223067
vt 0.6076826 0.514157
vt 0.5430091 0.5142367
vt 0.6088126 0.505491
vt 0.5418577 0.5055735
vt 0.6076612 0.4968278
vt 0.5429877 0.4969075
vt 0.6043068 0.4887578
vt 0.5463221 0.4888293
vt 0.5989782 0.4818309
vt 0.5516337 0.4818892
vt 0.5920382 0.4765192
vt 0.5585606 0.4765605
vt 0.5839599 0.4731847
vt 0.5666305 0.4732061
vt 0.5752938 0.4720547
vn -0.04889499 -0.9982768 0.03244328
vn -0.04050517 -0.9986882 0.03132681
vn -0.04893459 -0.9988019 7.926657E-05
vn -0.05729019 -0.9978657 0.03133628
vn -0.03271023 -0.9990706 0.02807449
vn -0.06509513 -0.9974837 0.02809072
vn -0.02602993 -0.9993988 0.02290283
vn -0.07178995 -0.9971565 0.02291736
vn -0.02091676 -0.9996504 0.01617716
vn -0.07691754 -0.9969061 0.01618472
vn -0.01772842 -0.9998079 0.008364958
vn -0.08011038 -0.9967508 0.00837601
vn -0.01666777 -0.9998611 2.704745E-06
vn -0.08117087 -0.9967001 2.709154E-06
vn -0.01780513 -0.9998067 -0.008338983
vn -0.0800337 -0.9967572 -0.008349998
vn -0.02104968 -0.9996489 -0.01609503
vn -0.07678491 -0.9969177 -0.01610249
vn -0.02618353 -0.9993984 -0.02274399
vn -0.07163683 -0.9971711 -0.02275827
vn -0.03284603 -0.9990726 -0.02784039
vn -0.0649626 -0.9974988 -0.02785483
vn -0.04058473 -0.998694 -0.03103724
vn -0.05721107 -0.9978793 -0.03104503
vn -0.04889247 -0.998287 -0.03213231
g PortholeWindow_2_0
f 3/3/3 2/2/2 1/1/1
f 3/3/3 1/1/1 4/4/4
f 3/3/3 5/5/5 2/2/2
f 3/3/3 4/4/4 6/6/6
f 3/3/3 7/7/7 5/5/5
f 3/3/3 6/6/6 8/8/8
f 3/3/3 9/9/9 7/7/7
f 3/3/3 8/8/8 10/10/10
f 3/3/3 11/11/11 9/9/9
f 3/3/3 10/10/10 12/12/12
f 3/3/3 13/13/13 11/11/11
f 3/3/3 12/12/12 14/14/14
f 3/3/3 15/15/15 13/13/13
f 3/3/3 14/14/14 16/16/16
f 3/3/3 17/17/17 15/15/15
f 3/3/3 16/16/16 18/18/18
f 3/3/3 19/19/19 17/17/17
f 3/3/3 18/18/18 20/20/20
f 3/3/3 21/21/21 19/19/19
f 3/3/3 20/20/20 22/22/22
f 3/3/3 23/23/23 21/21/21
f 3/3/3 22/22/22 24/24/24
f 3/3/3 25/25/25 23/23/23
f 3/3/3 24/24/24 25/25/25
