g PortholeWindow_8
v -0.009867554 -0.02468552 0.3074135
v 0.06415161 -0.05490875 0.2968877
v -0.01382172 -0.03384964 1.144409E-07
v -0.08388732 0.005538483 0.2968877
v 0.1331268 -0.08307189 0.2660275
v -0.1528613 0.033703 0.2660273
v 0.1923559 -0.1072577 0.2169357
v -0.2120923 0.05788734 0.2169357
v 0.2378042 -0.1258147 0.1529585
v -0.25754 0.07644623 0.1529585
v 0.2663754 -0.1374814 0.07845546
v -0.2861096 0.08811241 0.07845546
v 0.2761206 -0.1414601 -0.001496277
v -0.2958546 0.09209106 -0.001496553
v 0.2663754 -0.1374814 -0.08144813
v -0.2861096 0.08811241 -0.08144828
v 0.2378042 -0.1258147 -0.1559513
v -0.25754 0.07644623 -0.1559513
v 0.1923559 -0.1072577 -0.2199287
v -0.2120923 0.05788734 -0.2199287
v 0.1331268 -0.08307189 -0.2690202
v -0.1528613 0.033703 -0.2690202
v 0.06415191 -0.05490845 -0.2998804
v -0.08388732 0.005538483 -0.2998805
v -0.009867554 -0.02468506 -0.3104064
vt 0.8553027 0.8376393
vt 0.8601142 0.8373379
vt 0.8565422 0.8193616
vt 0.8505768 0.8366891
vt 0.8646834 0.8358054
vt 0.8462588 0.8345519
vt 0.868699 0.8331464
vt 0.8426427 0.8313735
vt 0.8718873 0.8295419
vt 0.8399752 0.8273706
vt 0.8740312 0.8252377
vt 0.838438 0.8228158
vt 0.8749845 0.820527
vt 0.8381357 0.8180197
vt 0.8746821 0.8157308
vt 0.839089 0.8133089
vt 0.8731448 0.8111762
vt 0.8412329 0.8090047
vt 0.8704774 0.8071733
vt 0.8444213 0.8054003
vt 0.8668615 0.803995
vt 0.8484371 0.8027412
vt 0.8625435 0.8018578
vt 0.8530062 0.8012087
vt 0.8578178 0.8009074
vn -0.3778225 -0.9253094 0.03244368
vn -0.3700463 -0.928485 0.03132726
vn -0.3780339 -0.9257917 7.929144E-05
vn -0.3856029 -0.9221325 0.03133698
vn -0.3628214 -0.9314356 0.02807498
vn -0.3928375 -0.9191787 0.02809101
vn -0.3566292 -0.9339653 0.02290268
vn -0.3990439 -0.9166454 0.02291753
vn -0.3518897 -0.9359018 0.01617654
vn -0.4037968 -0.9147055 0.01618477
vn -0.348935 -0.9371096 0.008365025
vn -0.4067569 -0.913498 0.008375486
vn -0.3479524 -0.9375122 2.703399E-06
vn -0.4077403 -0.9130979 2.708084E-06
vn -0.3490069 -0.937083 -0.008339053
vn -0.4066868 -0.9135295 -0.008349484
vn -0.3520145 -0.9358562 -0.01609441
vn -0.4036755 -0.9147605 -0.01610254
vn -0.3567739 -0.9339138 -0.02274383
vn -0.3989044 -0.9167101 -0.02275843
vn -0.3629499 -0.9313927 -0.02784062
vn -0.3927175 -0.9192371 -0.02785512
vn -0.370123 -0.9284642 -0.03103732
vn -0.3855332 -0.9221715 -0.03104565
vn -0.377824 -0.9253197 -0.03213252
g PortholeWindow_8_0
f 3/3/3 2/2/2 1/1/1
f 3/3/3 1/1/1 4/4/4
f 3/3/3 5/5/5 2/2/2
f 3/3/3 4/4/4 6/6/6
f 3/3/3 7/7/7 5/5/5
f 3/3/3 6/6/6 8/8/8
f 3/3/3 9/9/9 7/7/7
f 3/3/3 8/8/8 10/10/10
f 3/3/3 11/11/11 9/9/9
f 3/3/3 10/10/10 12/12/12
f 3/3/3 13/13/13 11/11/11
f 3/3/3 12/12/12 14/14/14
f 3/3/3 15/15/15 13/13/13
f 3/3/3 14/14/14 16/16/16
f 3/3/3 17/17/17 15/15/15
f 3/3/3 16/16/16 18/18/18
f 3/3/3 19/19/19 17/17/17
f 3/3/3 18/18/18 20/20/20
f 3/3/3 21/21/21 19/19/19
f 3/3/3 20/20/20 22/22/22
f 3/3/3 23/23/23 21/21/21
f 3/3/3 22/22/22 24/24/24
f 3/3/3 25/25/25 23/23/23
f 3/3/3 24/24/24 25/25/25
