g PortholeWindow_9
v -0.009867554 0.02468536 0.3074135
v -0.01382141 0.03384949 1.430511E-07
v 0.06415191 0.0549086 0.2968878
v -0.08388732 -0.005538635 0.2968878
v 0.1331271 0.08307159 0.2660276
v -0.152861 -0.03370323 0.2660274
v 0.1923563 0.1072575 0.2169358
v -0.212092 -0.05788757 0.2169358
v 0.2378046 0.1258145 0.1529585
v -0.2575397 -0.07644646 0.1529585
v 0.2663757 0.1374812 0.07845548
v -0.2861094 -0.08811256 0.07845548
v 0.2761209 0.1414601 -0.001496248
v -0.2958545 -0.09209122 -0.001496525
v 0.2663757 0.1374814 -0.08144812
v -0.2861094 -0.08811249 -0.08144825
v 0.2378046 0.1258147 -0.1559512
v -0.2575397 -0.07644638 -0.1559513
v 0.1923563 0.1072577 -0.2199287
v -0.212092 -0.05788742 -0.2199287
v 0.1331271 0.08307175 -0.2690202
v -0.152861 -0.033703 -0.2690202
v 0.06415222 0.05490829 -0.2998804
v -0.08388732 -0.005538483 -0.2998805
v -0.009867554 0.02468506 -0.3104064
vt 0.8056814 0.5944771
vt 0.8195297 0.6186707
vt 0.8124461 0.5916995
vt 0.7998661 0.5989108
vt 0.819699 0.5907674
vt 0.7953966 0.6046985
vt 0.8269461 0.5917444
vt 0.7925773 0.6114459
vt 0.8336934 0.5945637
vt 0.7916004 0.6186929
vt 0.8394812 0.5990331
vt 0.7925325 0.6259459
vt 0.843915 0.6048484
vt 0.79531 0.6327106
vt 0.8466926 0.611613
vt 0.7997437 0.6385258
vt 0.8476245 0.6188661
vt 0.8055314 0.6429954
vt 0.8466477 0.6261132
vt 0.8122787 0.6458148
vt 0.8438285 0.6328605
vt 0.8195259 0.6467916
vt 0.8393589 0.6386483
vt 0.8267789 0.6458596
vt 0.8335436 0.643082
vn -0.3778218 0.9253097 0.03244331
vn -0.3780341 0.9257917 7.957331E-05
vn -0.3700448 0.9284856 0.03132683
vn -0.3856038 0.9221321 0.03133631
vn -0.3628212 0.9314357 0.02807537
vn -0.3928386 0.9191783 0.02809062
vn -0.3566298 0.9339651 0.02290332
vn -0.399044 0.9166454 0.02291767
vn -0.3518896 0.9359018 0.01617655
vn -0.4037965 0.9147056 0.01618559
vn -0.3489352 0.9371095 0.008365893
vn -0.4067565 0.9134982 0.008376233
vn -0.3479528 0.937512 3.600362E-06
vn -0.4077401 0.913098 3.141601E-06
vn -0.3490074 0.9370828 -0.00833893
vn -0.4066863 0.9135297 -0.008349732
vn -0.3520148 0.935856 -0.01609419
vn -0.4036753 0.9147606 -0.01610287
vn -0.3567749 0.9339135 -0.02274414
vn -0.3989047 0.9167099 -0.02275767
vn -0.3629505 0.9313924 -0.02784106
vn -0.3927184 0.9192368 -0.02785414
vn -0.3701215 0.9284647 -0.0310369
vn -0.3855337 0.9221714 -0.03104466
vn -0.3778225 0.9253203 -0.03213169
g PortholeWindow_9_0
f 3/3/3 2/2/2 1/1/1
f 1/1/1 2/2/2 4/4/4
f 5/5/5 2/2/2 3/3/3
f 4/4/4 2/2/2 6/6/6
f 7/7/7 2/2/2 5/5/5
f 6/6/6 2/2/2 8/8/8
f 9/9/9 2/2/2 7/7/7
f 8/8/8 2/2/2 10/10/10
f 11/11/11 2/2/2 9/9/9
f 10/10/10 2/2/2 12/12/12
f 13/13/13 2/2/2 11/11/11
f 12/12/12 2/2/2 14/14/14
f 15/15/15 2/2/2 13/13/13
f 14/14/14 2/2/2 16/16/16
f 17/17/17 2/2/2 15/15/15
f 16/16/16 2/2/2 18/18/18
f 19/19/19 2/2/2 17/17/17
f 18/18/18 2/2/2 20/20/20
f 21/21/21 2/2/2 19/19/19
f 20/20/20 2/2/2 22/22/22
f 23/23/23 2/2/2 21/21/21
f 22/22/22 2/2/2 24/24/24
f 25/25/25 2/2/2 23/23/23
f 24/24/24 2/2/2 25/25/25
