g PortholeWindow_4
v -0.001136475 -0.02733265 0.3163362
v 0.0810376 -0.03135719 0.3055049
v -0.00184082 -0.03757885 1.239777E-07
v -0.08331116 -0.02330757 0.3055049
v 0.1576117 -0.03510692 0.273749
v -0.159884 -0.01955585 0.2737488
v 0.2233667 -0.03832878 0.2232323
v -0.2256406 -0.01633595 0.2232323
v 0.273822 -0.04079971 0.1573981
v -0.2760956 -0.01386299 0.1573981
v 0.3055408 -0.04235386 0.08073262
v -0.3078131 -0.01230896 0.08073262
v 0.3163595 -0.0428833 -0.001539707
v -0.3186316 -0.01177948 -0.001539984
v 0.3055408 -0.04235386 -0.08381217
v -0.3078131 -0.01230896 -0.08381231
v 0.273822 -0.04079971 -0.1604777
v -0.2760956 -0.01386299 -0.1604778
v 0.2233667 -0.03832878 -0.2263121
v -0.2256406 -0.01633595 -0.2263121
v 0.1576117 -0.03510692 -0.2768285
v -0.159884 -0.01955585 -0.2768285
v 0.0810376 -0.03135673 -0.3085844
v -0.08331116 -0.02330757 -0.3085845
v -0.001136475 -0.02733215 -0.319416
vt 0.8796569 0.5886531
vt 0.8871162 0.5876617
vt 0.8796032 0.5599675
vt 0.8721951 0.5876802
vt 0.8940648 0.5847735
vt 0.8652395 0.5848091
vt 0.9000289 0.5801853
vt 0.8592639 0.5802355
vt 0.9046024 0.5742097
vt 0.8546757 0.5742713
vt 0.9074736 0.5672541
vt 0.8517875 0.5673228
vt 0.9084467 0.5597924
vt 0.8507961 0.5598634
vt 0.9074553 0.5523331
vt 0.8517691 0.5524017
vt 0.9045669 0.5453845
vt 0.8546401 0.545446
vt 0.8999788 0.5394202
vt 0.8592135 0.5394705
vt 0.8940033 0.5348467
vt 0.8651779 0.5348822
vt 0.8870476 0.5319756
vt 0.8721264 0.531994
vt 0.8795858 0.5310026
vn -0.04889484 -0.9982768 0.0324433
vn -0.04050522 -0.9986882 0.03132685
vn -0.04893466 -0.9988019 7.927672E-05
vn -0.05729016 -0.9978657 0.03133624
vn -0.03271025 -0.9990706 0.02807448
vn -0.06509539 -0.9974837 0.02809058
vn -0.02602997 -0.9993988 0.0229029
vn -0.07179018 -0.9971565 0.02291729
vn -0.02091691 -0.9996504 0.01617731
vn -0.07691757 -0.9969061 0.01618492
vn -0.0177285 -0.9998079 0.008364953
vn -0.08011042 -0.9967508 0.008375932
vn -0.01666783 -0.9998611 2.704279E-06
vn -0.08117105 -0.9967001 2.708068E-06
vn -0.01780521 -0.9998067 -0.008338977
vn -0.08003379 -0.9967572 -0.008349926
vn -0.02104982 -0.9996489 -0.01609519
vn -0.07678493 -0.9969176 -0.01610268
vn -0.02618357 -0.9993984 -0.02274405
vn -0.07163705 -0.9971711 -0.0227582
vn -0.03284587 -0.9990726 -0.02784028
vn -0.06496286 -0.9974988 -0.02785469
vn -0.04058482 -0.998694 -0.03103718
vn -0.05721103 -0.9978793 -0.031045
vn -0.04889255 -0.998287 -0.03213233
g PortholeWindow_4_0
f 3/3/3 2/2/2 1/1/1
f 3/3/3 1/1/1 4/4/4
f 3/3/3 5/5/5 2/2/2
f 3/3/3 4/4/4 6/6/6
f 3/3/3 7/7/7 5/5/5
f 3/3/3 6/6/6 8/8/8
f 3/3/3 9/9/9 7/7/7
f 3/3/3 8/8/8 10/10/10
f 3/3/3 11/11/11 9/9/9
f 3/3/3 10/10/10 12/12/12
f 3/3/3 13/13/13 11/11/11
f 3/3/3 12/12/12 14/14/14
f 3/3/3 15/15/15 13/13/13
f 3/3/3 14/14/14 16/16/16
f 3/3/3 17/17/17 15/15/15
f 3/3/3 16/16/16 18/18/18
f 3/3/3 19/19/19 17/17/17
f 3/3/3 18/18/18 20/20/20
f 3/3/3 21/21/21 19/19/19
f 3/3/3 20/20/20 22/22/22
f 3/3/3 23/23/23 21/21/21
f 3/3/3 22/22/22 24/24/24
f 3/3/3 25/25/25 23/23/23
f 3/3/3 24/24/24 25/25/25
