g PrisonChamberGauge_4
v -1.912686 -0.7855232 1.374918
v -1.891171 -0.8157502 1.377936
v -1.911523 -0.8272896 1.393121
v -1.931695 -0.7989485 1.39029
v -1.939358 -0.7611114 1.366066
v -1.89756 -0.8591519 1.39029
v -1.876279 -0.8497329 1.374918
v -1.956703 -0.7760598 1.381991
v -1.96937 -0.7441789 1.351986
v -1.890759 -0.8923642 1.381991
v -1.869026 -0.8851549 1.366066
v -1.984843 -0.7601838 1.368789
v -2.000676 -0.7358792 1.333636
v -1.891584 -0.9246629 1.368789
v -1.869905 -0.9196029 1.351986
v -2.014196 -0.7524015 1.351584
v -2.031143 -0.736778 1.312267
v -1.899977 -0.9538469 1.351584
v -1.878858 -0.9507289 1.333636
v -2.042762 -0.7532445 1.331548
v -2.058695 -0.7468143 1.289335
v -1.915368 -0.9779271 1.331548
v -1.895272 -0.9764116 1.312267
v -2.068595 -0.7626545 1.310047
v -2.081454 -0.7653039 1.266403
v -1.936707 -0.9952632 1.310047
v -1.918031 -0.9949016 1.289335
v -2.089934 -0.7799906 1.288546
v -2.097868 -0.7909867 1.245034
v -1.96254 -1.004673 1.288546
v -1.945582 -1.004938 1.266403
v -2.105324 -0.8040711 1.26851
v -2.10682 -0.8221129 1.226684
v -1.991106 -1.005516 1.26851
v -1.97605 -1.005836 1.245034
v -2.113718 -0.833255 1.251305
v -2.1077 -0.8565607 1.212604
v -2.020459 -0.9977343 1.251305
v -2.007356 -0.9975367 1.226684
v -2.114542 -0.8655537 1.238103
v -2.100447 -0.8919827 1.203753
v -2.048598 -0.9818579 1.238103
v -2.037368 -0.980604 1.212604
v -2.107742 -0.898766 1.229804
v -2.085555 -0.9259651 1.200733
v -2.073606 -0.9589696 1.229804
v -2.06404 -0.9561925 1.203752
v -2.093779 -0.9306282 1.226973
v -2.021683 -0.9945798 1.256074
v -2.048826 -0.9792658 1.24334
v -2.072948 -0.9571878 1.235335
v -2.092407 -0.9298503 1.232604
v -2.105875 -0.8991163 1.235335
v -2.112435 -0.8670802 1.24334
v -1.99337 -1.002086 1.27267
v -2.111639 -0.8359252 1.256074
v -1.965815 -1.001273 1.291996
v -2.103543 -0.8077749 1.27267
v -1.940897 -0.9921963 1.312736
v -2.088697 -0.7845472 1.291996
v -1.920314 -0.9754742 1.333475
v -2.068114 -0.7678249 1.312736
v -1.905468 -0.9522464 1.352802
v -2.043197 -0.7587481 1.333475
v -1.897372 -0.9240961 1.369398
v -2.015642 -0.7579352 1.352802
v -1.896577 -0.8929414 1.382132
v -1.987328 -0.7654415 1.369398
v -1.903137 -0.8609053 1.390137
v -1.960186 -0.7807555 1.382132
v -1.916605 -0.8301712 1.392868
v -1.936063 -0.8028336 1.390137
v -1.902402 -0.8922433 1.378386
v -1.908608 -0.8619363 1.385959
v -1.921349 -0.8328611 1.388543
v -1.939757 -0.8069993 1.385959
v -1.962578 -0.7861128 1.378386
v -1.988256 -0.7716253 1.366339
v -1.903155 -0.9217166 1.366339
v -2.015041 -0.7645242 1.350639
v -1.910814 -0.9483477 1.350639
v -2.041108 -0.7652931 1.332356
v -1.924858 -0.9703218 1.332356
v -2.064681 -0.77388 1.312736
v -1.94433 -0.9861411 1.312736
v -2.084153 -0.7896995 1.293116
v -1.967903 -0.9947283 1.293116
v -2.098198 -0.8116736 1.274832
v -1.993971 -0.9954973 1.274832
v -2.105857 -0.8383047 1.259132
v -2.020756 -0.9883961 1.259132
v -2.106609 -0.8677781 1.247085
v -2.046434 -0.9739086 1.247085
v -2.100403 -0.8980851 1.239512
v -2.069254 -0.9530222 1.239512
v -2.087663 -0.9271603 1.236929
v -2.018308 -0.9829848 1.258715
v -2.042945 -0.9690853 1.247157
v -2.064839 -0.9490461 1.239891
v -2.082501 -0.9242334 1.237412
v -2.094725 -0.8963377 1.239891
v -2.100679 -0.8672606 1.247157
v -1.99261 -0.9897981 1.273778
v -2.099957 -0.8389829 1.258715
v -1.9676 -0.9890601 1.291319
v -2.092608 -0.8134323 1.273778
v -1.944983 -0.9808217 1.310144
v -2.079134 -0.7923498 1.291319
v -1.926301 -0.9656439 1.328968
v -2.060452 -0.777172 1.310144
v -1.912827 -0.9445614 1.346509
v -2.037835 -0.7689335 1.328968
v -1.905478 -0.9190105 1.361573
v -2.012825 -0.7681956 1.346509
v -1.904756 -0.8907332 1.373131
v -1.987127 -0.7750087 1.361573
v -1.91071 -0.8616558 1.380397
v -1.962491 -0.7889082 1.373131
v -1.922934 -0.8337602 1.382875
v -1.940596 -0.8089473 1.380397
v -1.903193 -0.8865356 1.360776
v -1.90388 -0.9134212 1.349786
v -1.908854 -0.8588893 1.367684
v -1.920477 -0.8323667 1.37004
v -1.910867 -0.9377145 1.335465
v -1.937269 -0.8087751 1.367684
v -1.958086 -0.7897223 1.360776
v -1.923678 -0.9577593 1.318787
v -1.98151 -0.7765069 1.349786
v -1.941441 -0.9721901 1.300889
v -2.005943 -0.7700291 1.335465
v -1.962944 -0.9800232 1.282991
v -2.029722 -0.7707307 1.318787
v -1.986723 -0.9807246 1.266313
v -2.051226 -0.7785637 1.300889
v -2.011157 -0.9742469 1.251992
v -2.068988 -0.7929946 1.282991
v -2.03458 -0.9610313 1.241002
v -2.0818 -0.8130394 1.266313
v -2.055398 -0.9419787 1.234094
v -2.088787 -0.8373324 1.251992
v -2.07219 -0.9183871 1.231737
v -2.089473 -0.8642182 1.241002
v -2.083812 -0.8918645 1.234094
v -1.920477 -0.8323667 1.37004
v -1.996333 -0.875377 1.300889
v -1.937269 -0.8087751 1.367684
v -1.908854 -0.8588893 1.367684
v -1.958086 -0.7897223 1.360776
v -1.903193 -0.8865356 1.360776
v -1.98151 -0.7765069 1.349786
v -1.90388 -0.9134212 1.349786
v -2.005943 -0.7700291 1.335465
v -1.910867 -0.9377145 1.335465
v -2.029722 -0.7707307 1.318787
v -1.923678 -0.9577593 1.318787
v -2.051226 -0.7785637 1.300889
v -1.941441 -0.9721901 1.300889
v -2.068988 -0.7929946 1.282991
v -1.962944 -0.9800232 1.282991
v -2.0818 -0.8130394 1.266313
v -1.986723 -0.9807246 1.266313
v -2.088787 -0.8373324 1.251992
v -2.011157 -0.9742469 1.251992
v -2.089473 -0.8642182 1.241002
v -2.03458 -0.9610313 1.241002
v -2.083812 -0.8918645 1.234094
v -2.055398 -0.9419787 1.234094
v -2.07219 -0.9183871 1.231737
vt 0.297914 0.9572814
vt 0.3049611 0.9614245
vt 0.3071539 0.9560361
vt 0.3014554 0.9528069
vt 0.2923101 0.9515163
vt 0.3134856 0.9577307
vt 0.3128335 0.9632626
vt 0.2968552 0.9481596
vt 0.28841 0.9445791
vt 0.3200454 0.9576154
vt 0.3207809 0.9632354
vt 0.2936353 0.942528
vt 0.2864265 0.9368856
vt 0.3263011 0.9557966
vt 0.328627 0.961148
vt 0.2919824 0.9362639
vt 0.2865253 0.9289573
vt 0.3318938 0.952463
vt 0.3355233 0.9568369
vt 0.292034 0.9297963
vt 0.2886695 0.921373
vt 0.336378 0.9477589
vt 0.3409633 0.9509934
vt 0.2937462 0.9235957
vt 0.292669 0.9146438
vt 0.3394552 0.9420871
vt 0.344691 0.9440233
vt 0.2969798 0.9180779
vt 0.2982217 0.9091926
vt 0.3409888 0.9358301
vt 0.3465187 0.9363421
vt 0.3014961 0.9136001
vt 0.3049596 0.9053422
vt 0.3408167 0.9294012
vt 0.3462692 0.9284675
vt 0.3070002 0.9104377
vt 0.3124694 0.9033278
vt 0.3390119 0.9232756
vt 0.3439987 0.9209868
vt 0.3131357 0.9087707
vt 0.3202484 0.9033259
vt 0.3357316 0.9178485
vt 0.3399157 0.9144069
vt 0.3194937 0.9087431
vt 0.3277314 0.9053373
vt 0.3311893 0.9134218
vt 0.3343596 0.90916
vt 0.3256377 0.910334
vt 0.3380293 0.9237074
vt 0.3348873 0.9185187
vt 0.3305435 0.9142842
vt 0.3252365 0.91133
vt 0.3193579 0.9098102
vt 0.3132775 0.9098369
vt 0.3397445 0.9295664
vt 0.3074107 0.9114267
vt 0.3399022 0.9357136
vt 0.3021512 0.914459
vt 0.3384411 0.941695
vt 0.2978314 0.9187418
vt 0.3354946 0.9471104
vt 0.2947454 0.9240202
vt 0.3312038 0.9515978
vt 0.293115 0.9299493
vt 0.3258641 0.9547921
vt 0.2930691 0.93613
vt 0.319883 0.9565206
vt 0.2946518 0.9421148
vt 0.3136247 0.9566255
vt 0.297729 0.9474932
vt 0.3075756 0.9550141
vt 0.3021309 0.9519224
vt 0.3196934 0.9552505
vt 0.313784 0.9553299
vt 0.3080648 0.9538192
vt 0.3029157 0.9508947
vt 0.2987446 0.9467162
vt 0.2958383 0.9416282
vt 0.3253527 0.9536148
vt 0.2943368 0.9359703
vt 0.3304023 0.9505908
vt 0.2943788 0.9301225
vt 0.3344625 0.9463543
vt 0.2959154 0.924511
vt 0.3372518 0.9412341
vt 0.2988299 0.9195127
vt 0.3386382 0.9355774
vt 0.3029154 0.9154582
vt 0.3384914 0.9297601
vt 0.3078924 0.9125867
vt 0.3368698 0.924216
vt 0.3134474 0.9110906
vt 0.3339048 0.9193004
vt 0.3192017 0.9110575
vt 0.329798 0.9152867
vt 0.3247689 0.912495
vt 0.335897 0.9246405
vt 0.3330719 0.9199598
vt 0.3291631 0.9161378
vt 0.324373 0.9134833
vt 0.319073 0.9121119
vt 0.3135922 0.9121425
vt 0.3374318 0.929925
vt 0.3083003 0.9135667
vt 0.33757 0.935464
vt 0.3035631 0.9163024
vt 0.3362449 0.940847
vt 0.2996725 0.9201624
vt 0.3335901 0.9457164
vt 0.2969035 0.9249274
vt 0.3297241 0.9497421
vt 0.2954471 0.9302702
vt 0.3249191 0.9526167
vt 0.295408 0.9358368
vt 0.3195349 0.9541715
vt 0.2968436 0.9412166
vt 0.3139173 0.9542464
vt 0.2996064 0.9460528
vt 0.3084792 0.9528066
vt 0.3035758 0.9500283
vt 0.3191788 0.9518427
vt 0.3239731 0.9504704
vt 0.3141931 0.9518996
vt 0.3093654 0.9506171
vt 0.3282537 0.947914
vt 0.3050375 0.9481065
vt 0.3014709 0.9446234
vt 0.3317077 0.9443427
vt 0.298963 0.9403518
vt 0.3341172 0.9400285
vt 0.2977729 0.9355429
vt 0.3352112 0.9352142
vt 0.2977597 0.9305916
vt 0.3351377 0.9302824
vt 0.2990385 0.9258311
vt 0.3337931 0.9255655
vt 0.3014928 0.9215736
vt 0.3313143 0.9213634
vt 0.3049285 0.918088
vt 0.327768 0.9180257
vt 0.3091849 0.9156836
vt 0.3235236 0.9156234
vt 0.3139129 0.9144194
vt 0.318801 0.9143959
vt 0.3093654 0.9506171
vt 0.3164915 0.9330325
vt 0.3050375 0.9481065
vt 0.3141931 0.9518996
vt 0.3014709 0.9446234
vt 0.3191788 0.9518427
vt 0.298963 0.9403518
vt 0.3239731 0.9504704
vt 0.2977729 0.9355429
vt 0.3282537 0.947914
vt 0.2977597 0.9305916
vt 0.3317077 0.9443427
vt 0.2990385 0.9258311
vt 0.3341172 0.9400285
vt 0.3014928 0.9215736
vt 0.3352112 0.9352142
vt 0.3049285 0.918088
vt 0.3351377 0.9302824
vt 0.3091849 0.9156836
vt 0.3337931 0.9255655
vt 0.3139129 0.9144194
vt 0.3313143 0.9213634
vt 0.318801 0.9143959
vt 0.327768 0.9180257
vt 0.3235236 0.9156234
vn 0.3305829 0.4694214 0.8187541
vn 0.4735842 0.2685191 0.8388178
vn 0.2410485 0.1366757 0.960841
vn 0.1182106 0.3092523 0.9436045
vn 0.1532982 0.6316742 0.7599259
vn 0.3260755 -0.05734233 0.943603
vn 0.5725607 0.04265318 0.8187521
vn -0.03406896 0.448635 0.8930655
vn -0.04617505 0.7442176 0.6663394
vn 0.3674908 -0.2595817 0.8930665
vn 0.620768 -0.1927822 0.7599226
vn -0.2054162 0.545316 0.8126712
vn -0.2542486 0.799384 0.5443739
vn 0.3624646 -0.4562625 0.812677
vn 0.6149227 -0.4217418 0.6663362
vn -0.3841556 0.5927035 0.7079033
vn -0.4567497 0.7934109 0.4023419
vn 0.3113546 -0.6339744 0.7079088
vn 0.5554219 -0.6286235 0.5443704
vn -0.5581102 0.5875666 0.5858998
vn -0.6398706 0.7267068 0.2499254
vn 0.2176352 -0.7806053 0.5859099
vn 0.4463177 -0.7993231 0.4023468
vn -0.7154152 0.5302613 0.4549769
vn -0.7911415 0.6038107 0.09750821
vn 0.08769439 -0.8861707 0.4549847
vn 0.2950485 -0.9222131 0.2499389
vn -0.8453565 0.424692 0.324051
vn -0.9002411 0.4331095 -0.04451971
vn -0.06961188 -0.9434747 0.3240519
vn 0.1119244 -0.9889202 0.09751898
vn -0.9390748 0.2780611 0.2020406
vn -0.9597414 0.2262307 -0.1664818
vn -0.24356 -0.9486079 0.2020438
vn -0.09057394 -0.9948944 -0.04451535
vn -0.9901855 0.100351 0.09727456
vn -0.9655879 -0.002733218 -0.2600628
vn -0.4223041 -0.9012192 0.09727918
vn -0.2986491 -0.9397308 -0.1664777
vn -0.9952062 -0.09632885 0.01688997
vn -0.9173784 -0.2381657 -0.3188948
vn -0.5936562 -0.8045415 0.01689473
vn -0.4981243 -0.8271873 -0.2600641
vn -0.9537944 -0.2985703 -0.03364613
vn -0.8183995 -0.4640291 -0.338968
vn -0.7459385 -0.6651646 -0.0336439
vn -0.6754 -0.6649342 -0.3189002
vn -0.8687733 -0.4925889 -0.0508844
vn -0.5541119 -0.5835259 0.5936814
vn -0.6238552 -0.5441741 0.5609627
vn -0.6858366 -0.4874495 0.5403897
vn -0.735835 -0.41721 0.5333694
vn -0.7704372 -0.3382404 0.5403886
vn -0.7872909 -0.2559293 0.5609574
vn -0.4813607 -0.6028188 0.6363186
vn -0.7852537 -0.1758756 0.5936702
vn -0.410558 -0.6007294 0.6859784
vn -0.7644487 -0.1035438 0.636315
vn -0.3465295 -0.5774106 0.7392662
vn -0.7262977 -0.0438652 0.6859792
vn -0.2936406 -0.5344423 0.7925569
vn -0.6734104 -0.0008962806 0.7392684
vn -0.2555032 -0.4747563 0.842214
vn -0.6093898 0.02242721 0.7925535
vn -0.2346981 -0.4024248 0.8848565
vn -0.5385895 0.02452188 0.8422114
vn -0.2326502 -0.3223739 0.9175778
vn -0.4658323 0.005244332 0.8848575
vn -0.249514 -0.2400645 0.9381428
vn -0.3960969 -0.03411476 0.9175748
vn -0.2841305 -0.1610971 0.9451548
vn -0.3341273 -0.09085513 0.9381388
vn -0.7449627 -0.2684039 0.6107289
vn -0.7313366 -0.3349554 0.5940973
vn -0.7033566 -0.3987984 0.5884297
vn -0.6629333 -0.4555926 0.5941
vn -0.6128225 -0.5014538 0.6107314
vn -0.5564382 -0.5332633 0.6371868
vn -0.7433149 -0.2036804 0.637179
vn -0.4976199 -0.5488628 0.6716577
vn -0.7264903 -0.1452083 0.6716595
vn -0.4403794 -0.5471728 0.7118061
vn -0.6956452 -0.09696279 0.7118117
vn -0.3886233 -0.5283059 0.754894
vn -0.6528914 -0.06222014 0.7548916
vn -0.3458731 -0.4935635 0.7979768
vn -0.6011292 -0.04336088 0.7979746
vn -0.3150307 -0.4453177 0.8381215
vn -0.5438858 -0.04167317 0.8381239
vn -0.2982152 -0.3868439 0.8725935
vn -0.4850714 -0.05726562 0.8725974
vn -0.2965534 -0.3221255 0.8990502
vn -0.4286906 -0.08908293 0.8990488
vn -0.3101762 -0.2555743 0.9156815
vn -0.3785794 -0.1349489 0.9156781
vn -0.3381613 -0.1917328 0.9213498
vn -0.2623463 0.4557073 0.8505911
vn -0.1058393 0.3674036 0.9240199
vn 0.03326552 0.240103 0.9701773
vn 0.1454666 0.08247361 0.9859196
vn 0.2231221 -0.09474362 0.9701753
vn 0.2609358 -0.2794604 0.9240208
vn -0.4256037 0.4989862 0.7549
vn 0.2563461 -0.4591075 0.8505922
vn -0.5844861 0.4943056 0.6434578
vn 0.2096593 -0.6214253 0.7548998
vn -0.7281627 0.4419734 0.5238688
vn 0.1240586 -0.7553551 0.6434657
vn -0.8468449 0.3455501 0.4042881
vn 0.005382583 -0.8517764 0.5238779
vn -0.9324484 0.2116146 0.2928468
vn -0.1382898 -0.9041173 0.4042868
vn -0.979135 0.04929925 0.1971403
vn -0.297176 -0.9088069 0.2928424
vn -0.9837201 -0.1303435 0.1237146
vn -0.4604346 -0.8655246 0.1971478
vn -0.9458953 -0.3150651 0.07756343
vn -0.6169365 -0.7772272 0.1237221
vn -0.868237 -0.4922827 0.06182416
vn -0.7560294 -0.649925 0.07756883
vn -0.9891409 -0.0442341 -0.1401561
vn -0.9835985 0.1728933 -0.05139908
vn -0.9434234 -0.2674984 -0.1959509
vn -0.8495607 -0.4816935 -0.2149838
vn -0.927175 0.3690758 0.06426363
vn -0.713947 -0.6722204 -0.1959576
vn -0.5458307 -0.8260887 -0.1401653
vn -0.8237115 0.5309594 0.1989508
vn -0.3566658 -0.9328165 -0.05140805
vn -0.6802602 0.6475026 0.3434917
vn -0.1593423 -0.98513 0.06425783
vn -0.5066048 0.710755 0.4880359
vn 0.03269352 -0.9794641 0.1989504
vn -0.3145694 0.7164212 0.6227252
vn 0.2063558 -0.9162039 0.3434933
vn -0.1172452 0.6641104 0.7383839
vn 0.3498056 -0.7996632 0.4880315
vn 0.07192537 0.5573831 0.8271341
vn 0.453261 -0.6377863 0.6227225
vn 0.2400483 0.4035176 0.8829215
vn 0.5096897 -0.4415966 0.7383826
vn 0.3756641 0.212991 0.9019486
vn 0.5152324 -0.2244665 0.8271338
vn 0.4695156 -0.001201879 0.8829234
vn -0.5405111 -0.3064656 0.7835346
vn -0.5405121 -0.3064675 0.7835333
vn -0.5405093 -0.3064693 0.7835345
vn -0.5405111 -0.3064657 0.7835346
vn -0.5405104 -0.3064676 0.7835344
vn -0.5405122 -0.3064689 0.7835326
vn -0.5405138 -0.3064649 0.7835331
vn -0.5405104 -0.3064646 0.7835356
vn -0.5405127 -0.3064654 0.7835338
vn -0.5405111 -0.3064693 0.7835333
vn -0.5405122 -0.3064665 0.7835335
vn -0.5405095 -0.3064719 0.7835334
vn -0.5405141 -0.306464 0.7835333
vn -0.540513 -0.3064665 0.783533
vn -0.5405124 -0.3064639 0.7835344
vn -0.5405182 -0.3064681 0.7835289
vn -0.5405098 -0.3064675 0.7835349
vn -0.5405115 -0.306472 0.7835318
vn -0.5405118 -0.3064747 0.7835307
vn -0.5405059 -0.3064703 0.7835365
vn -0.5405138 -0.3064754 0.7835291
vn -0.5405104 -0.3064689 0.7835339
vn -0.5405156 -0.3064629 0.7835326
vn -0.5405156 -0.3064669 0.783531
vn -0.5405158 -0.3064584 0.7835342
g PrisonChamberGauge_4_0
f 3/3/3 2/2/2 1/1/1
f 4/4/4 3/3/3 1/1/1
f 4/4/4 1/1/1 5/5/5
f 3/3/3 6/6/6 2/2/2
f 6/6/6 7/7/7 2/2/2
f 8/8/8 4/4/4 5/5/5
f 8/8/8 5/5/5 9/9/9
f 6/6/6 10/10/10 7/7/7
f 10/10/10 11/11/11 7/7/7
f 12/12/12 8/8/8 9/9/9
f 12/12/12 9/9/9 13/13/13
f 10/10/10 14/14/14 11/11/11
f 14/14/14 15/15/15 11/11/11
f 16/16/16 12/12/12 13/13/13
f 16/16/16 13/13/13 17/17/17
f 14/14/14 18/18/18 15/15/15
f 18/18/18 19/19/19 15/15/15
f 20/20/20 16/16/16 17/17/17
f 20/20/20 17/17/17 21/21/21
f 18/18/18 22/22/22 19/19/19
f 22/22/22 23/23/23 19/19/19
f 24/24/24 20/20/20 21/21/21
f 24/24/24 21/21/21 25/25/25
f 22/22/22 26/26/26 23/23/23
f 26/26/26 27/27/27 23/23/23
f 28/28/28 24/24/24 25/25/25
f 28/28/28 25/25/25 29/29/29
f 26/26/26 30/30/30 27/27/27
f 30/30/30 31/31/31 27/27/27
f 32/32/32 28/28/28 29/29/29
f 32/32/32 29/29/29 33/33/33
f 30/30/30 34/34/34 31/31/31
f 34/34/34 35/35/35 31/31/31
f 36/36/36 32/32/32 33/33/33
f 36/36/36 33/33/33 37/37/37
f 34/34/34 38/38/38 35/35/35
f 38/38/38 39/39/39 35/35/35
f 40/40/40 36/36/36 37/37/37
f 40/40/40 37/37/37 41/41/41
f 38/38/38 42/42/42 39/39/39
f 42/42/42 43/43/43 39/39/39
f 44/44/44 40/40/40 41/41/41
f 44/44/44 41/41/41 45/45/45
f 42/42/42 46/46/46 43/43/43
f 46/46/46 47/47/47 43/43/43
f 48/48/48 45/45/45 47/47/47
f 48/48/48 44/44/44 45/45/45
f 46/46/46 48/48/48 47/47/47
f 49/49/49 38/38/38 34/34/34
f 50/50/50 42/42/42 38/38/38
f 49/49/49 50/50/50 38/38/38
f 51/51/51 46/46/46 42/42/42
f 50/50/50 51/51/51 42/42/42
f 52/52/52 48/48/48 46/46/46
f 51/51/51 52/52/52 46/46/46
f 53/53/53 44/44/44 48/48/48
f 52/52/52 53/53/53 48/48/48
f 54/54/54 40/40/40 44/44/44
f 53/53/53 54/54/54 44/44/44
f 55/55/55 49/49/49 34/34/34
f 55/55/55 34/34/34 30/30/30
f 54/54/54 56/56/56 40/40/40
f 56/56/56 36/36/36 40/40/40
f 57/57/57 55/55/55 30/30/30
f 57/57/57 30/30/30 26/26/26
f 56/56/56 58/58/58 36/36/36
f 58/58/58 32/32/32 36/36/36
f 59/59/59 57/57/57 26/26/26
f 59/59/59 26/26/26 22/22/22
f 58/58/58 60/60/60 32/32/32
f 60/60/60 28/28/28 32/32/32
f 61/61/61 59/59/59 22/22/22
f 61/61/61 22/22/22 18/18/18
f 60/60/60 62/62/62 28/28/28
f 62/62/62 24/24/24 28/28/28
f 63/63/63 61/61/61 18/18/18
f 63/63/63 18/18/18 14/14/14
f 62/62/62 64/64/64 24/24/24
f 64/64/64 20/20/20 24/24/24
f 65/65/65 63/63/63 14/14/14
f 65/65/65 14/14/14 10/10/10
f 64/64/64 66/66/66 20/20/20
f 66/66/66 16/16/16 20/20/20
f 67/67/67 65/65/65 10/10/10
f 67/67/67 10/10/10 6/6/6
f 66/66/66 68/68/68 16/16/16
f 68/68/68 12/12/12 16/16/16
f 69/69/69 67/67/67 6/6/6
f 69/69/69 6/6/6 3/3/3
f 68/68/68 70/70/70 12/12/12
f 70/70/70 8/8/8 12/12/12
f 71/71/71 69/69/69 3/3/3
f 71/71/71 3/3/3 4/4/4
f 72/72/72 4/4/4 8/8/8
f 70/70/70 72/72/72 8/8/8
f 72/72/72 71/71/71 4/4/4
f 65/65/65 67/67/67 73/73/73
f 67/67/67 69/69/69 74/74/74
f 73/73/73 67/67/67 74/74/74
f 69/69/69 71/71/71 75/75/75
f 74/74/74 69/69/69 75/75/75
f 71/71/71 72/72/72 76/76/76
f 75/75/75 71/71/71 76/76/76
f 72/72/72 70/70/70 77/77/77
f 76/76/76 72/72/72 77/77/77
f 70/70/70 68/68/68 78/78/78
f 77/77/77 70/70/70 78/78/78
f 79/79/79 65/65/65 73/73/73
f 63/63/63 65/65/65 79/79/79
f 78/78/78 68/68/68 80/80/80
f 68/68/68 66/66/66 80/80/80
f 81/81/81 63/63/63 79/79/79
f 61/61/61 63/63/63 81/81/81
f 80/80/80 66/66/66 82/82/82
f 66/66/66 64/64/64 82/82/82
f 83/83/83 61/61/61 81/81/81
f 59/59/59 61/61/61 83/83/83
f 82/82/82 64/64/64 84/84/84
f 64/64/64 62/62/62 84/84/84
f 85/85/85 59/59/59 83/83/83
f 57/57/57 59/59/59 85/85/85
f 84/84/84 62/62/62 86/86/86
f 62/62/62 60/60/60 86/86/86
f 87/87/87 57/57/57 85/85/85
f 55/55/55 57/57/57 87/87/87
f 86/86/86 60/60/60 88/88/88
f 60/60/60 58/58/58 88/88/88
f 89/89/89 55/55/55 87/87/87
f 49/49/49 55/55/55 89/89/89
f 88/88/88 58/58/58 90/90/90
f 58/58/58 56/56/56 90/90/90
f 91/91/91 49/49/49 89/89/89
f 50/50/50 49/49/49 91/91/91
f 90/90/90 56/56/56 92/92/92
f 56/56/56 54/54/54 92/92/92
f 93/93/93 50/50/50 91/91/91
f 51/51/51 50/50/50 93/93/93
f 92/92/92 54/54/54 94/94/94
f 54/54/54 53/53/53 94/94/94
f 95/95/95 51/51/51 93/93/93
f 52/52/52 51/51/51 95/95/95
f 53/53/53 52/52/52 96/96/96
f 94/94/94 53/53/53 96/96/96
f 96/96/96 52/52/52 95/95/95
f 97/97/97 91/91/91 89/89/89
f 98/98/98 93/93/93 91/91/91
f 97/97/97 98/98/98 91/91/91
f 99/99/99 95/95/95 93/93/93
f 98/98/98 99/99/99 93/93/93
f 100/100/100 96/96/96 95/95/95
f 99/99/99 100/100/100 95/95/95
f 101/101/101 94/94/94 96/96/96
f 100/100/100 101/101/101 96/96/96
f 102/102/102 92/92/92 94/94/94
f 101/101/101 102/102/102 94/94/94
f 103/103/103 97/97/97 89/89/89
f 103/103/103 89/89/89 87/87/87
f 102/102/102 104/104/104 92/92/92
f 104/104/104 90/90/90 92/92/92
f 105/105/105 103/103/103 87/87/87
f 105/105/105 87/87/87 85/85/85
f 104/104/104 106/106/106 90/90/90
f 106/106/106 88/88/88 90/90/90
f 107/107/107 105/105/105 85/85/85
f 107/107/107 85/85/85 83/83/83
f 106/106/106 108/108/108 88/88/88
f 108/108/108 86/86/86 88/88/88
f 109/109/109 107/107/107 83/83/83
f 109/109/109 83/83/83 81/81/81
f 108/108/108 110/110/110 86/86/86
f 110/110/110 84/84/84 86/86/86
f 111/111/111 109/109/109 81/81/81
f 111/111/111 81/81/81 79/79/79
f 110/110/110 112/112/112 84/84/84
f 112/112/112 82/82/82 84/84/84
f 113/113/113 111/111/111 79/79/79
f 113/113/113 79/79/79 73/73/73
f 112/112/112 114/114/114 82/82/82
f 114/114/114 80/80/80 82/82/82
f 115/115/115 113/113/113 73/73/73
f 115/115/115 73/73/73 74/74/74
f 114/114/114 116/116/116 80/80/80
f 116/116/116 78/78/78 80/80/80
f 117/117/117 115/115/115 74/74/74
f 117/117/117 74/74/74 75/75/75
f 116/116/116 118/118/118 78/78/78
f 118/118/118 77/77/77 78/78/78
f 119/119/119 117/117/117 75/75/75
f 119/119/119 75/75/75 76/76/76
f 120/120/120 76/76/76 77/77/77
f 118/118/118 120/120/120 77/77/77
f 120/120/120 119/119/119 76/76/76
f 115/115/115 121/121/121 113/113/113
f 121/121/121 122/122/122 113/113/113
f 123/123/123 121/121/121 115/115/115
f 117/117/117 123/123/123 115/115/115
f 113/113/113 122/122/122 111/111/111
f 124/124/124 123/123/123 117/117/117
f 119/119/119 124/124/124 117/117/117
f 122/122/122 125/125/125 111/111/111
f 126/126/126 124/124/124 119/119/119
f 120/120/120 126/126/126 119/119/119
f 111/111/111 125/125/125 109/109/109
f 127/127/127 126/126/126 120/120/120
f 118/118/118 127/127/127 120/120/120
f 125/125/125 128/128/128 109/109/109
f 129/129/129 127/127/127 118/118/118
f 109/109/109 128/128/128 107/107/107
f 116/116/116 129/129/129 118/118/118
f 128/128/128 130/130/130 107/107/107
f 131/131/131 129/129/129 116/116/116
f 107/107/107 130/130/130 105/105/105
f 114/114/114 131/131/131 116/116/116
f 130/130/130 132/132/132 105/105/105
f 133/133/133 131/131/131 114/114/114
f 105/105/105 132/132/132 103/103/103
f 112/112/112 133/133/133 114/114/114
f 132/132/132 134/134/134 103/103/103
f 135/135/135 133/133/133 112/112/112
f 103/103/103 134/134/134 97/97/97
f 110/110/110 135/135/135 112/112/112
f 134/134/134 136/136/136 97/97/97
f 137/137/137 135/135/135 110/110/110
f 97/97/97 136/136/136 98/98/98
f 108/108/108 137/137/137 110/110/110
f 136/136/136 138/138/138 98/98/98
f 139/139/139 137/137/137 108/108/108
f 98/98/98 138/138/138 99/99/99
f 106/106/106 139/139/139 108/108/108
f 138/138/138 140/140/140 99/99/99
f 141/141/141 139/139/139 106/106/106
f 99/99/99 140/140/140 100/100/100
f 104/104/104 141/141/141 106/106/106
f 140/140/140 142/142/142 100/100/100
f 143/143/143 141/141/141 104/104/104
f 100/100/100 142/142/142 101/101/101
f 102/102/102 143/143/143 104/104/104
f 142/142/142 144/144/144 101/101/101
f 144/144/144 143/143/143 102/102/102
f 101/101/101 144/144/144 102/102/102
g PrisonChamberGauge_4_1
f 147/147/147 146/146/146 145/145/145
f 145/145/145 146/146/146 148/148/148
f 149/149/149 146/146/146 147/147/147
f 148/148/148 146/146/146 150/150/150
f 151/151/151 146/146/146 149/149/149
f 150/150/150 146/146/146 152/152/152
f 153/153/153 146/146/146 151/151/151
f 152/152/152 146/146/146 154/154/154
f 155/155/155 146/146/146 153/153/153
f 154/154/154 146/146/146 156/156/156
f 157/157/157 146/146/146 155/155/155
f 156/156/156 146/146/146 158/158/158
f 159/159/159 146/146/146 157/157/157
f 158/158/158 146/146/146 160/160/160
f 161/161/161 146/146/146 159/159/159
f 160/160/160 146/146/146 162/162/162
f 163/163/163 146/146/146 161/161/161
f 162/162/162 146/146/146 164/164/164
f 165/165/165 146/146/146 163/163/163
f 164/164/164 146/146/146 166/166/166
f 167/167/167 146/146/146 165/165/165
f 166/166/166 146/146/146 168/168/168
f 169/169/169 146/146/146 167/167/167
f 168/168/168 146/146/146 169/169/169
