g PrisonChamberGauge_5
v -1.75215 -1.033674 1.374918
v -1.726209 -1.060199 1.377937
v -1.744525 -1.074754 1.393121
v -1.768848 -1.049883 1.39029
v -1.782285 -1.013692 1.366066
v -1.725791 -1.104067 1.39029
v -1.706228 -1.091462 1.374918
v -1.797103 -1.031149 1.381991
v -1.814559 -1.001618 1.351986
v -1.713924 -1.135823 1.381991
v -1.693571 -1.125331 1.366066
v -1.827363 -1.019828 1.368789
v -1.846774 -0.9982724 1.333636
v -1.709731 -1.167859 1.368789
v -1.689099 -1.159499 1.351986
v -1.857568 -1.016691 1.351584
v -1.876733 -1.003884 1.312267
v -1.713498 -1.197991 1.351584
v -1.693117 -1.191636 1.333636
v -1.885658 -1.021953 1.331548
v -1.902395 -1.018071 1.289335
v -1.724968 -1.224167 1.331548
v -1.705351 -1.219554 1.312267
v -1.909719 -1.035254 1.310047
v -1.922012 -1.039865 1.266403
v -1.743361 -1.244601 1.310047
v -1.724967 -1.241348 1.289335
v -1.928113 -1.055689 1.288546
v -1.934246 -1.067783 1.245034
v -1.767423 -1.257903 1.288546
v -1.75063 -1.255535 1.266403
v -1.939583 -1.081865 1.26851
v -1.938264 -1.09992 1.226684
v -1.795513 -1.263165 1.26851
v -1.780589 -1.261147 1.245034
v -1.94335 -1.111997 1.251305
v -1.933792 -1.134088 1.212604
v -1.825718 -1.260028 1.251305
v -1.812804 -1.257801 1.226684
v -1.939157 -1.144033 1.238103
v -1.921134 -1.167957 1.203753
v -1.855978 -1.248707 1.238103
v -1.845078 -1.245727 1.212604
v -1.927289 -1.175789 1.229804
v -1.901154 -1.19922 1.200733
v -1.884233 -1.229972 1.229804
v -1.875213 -1.225746 1.203753
v -1.908556 -1.205101 1.226973
v -1.827416 -1.257102 1.256074
v -1.856605 -1.246181 1.24334
v -1.883859 -1.22811 1.235335
v -1.90732 -1.20412 1.232604
v -1.925391 -1.175846 1.235335
v -1.936839 -1.145215 1.24334
v -1.798281 -1.260127 1.27267
v -1.940883 -1.114313 1.256074
v -1.771186 -1.255052 1.291996
v -1.937249 -1.085248 1.27267
v -1.747977 -1.242221 1.312736
v -1.926185 -1.059999 1.291996
v -1.730235 -1.22251 1.333476
v -1.908443 -1.040288 1.312736
v -1.71917 -1.197262 1.352802
v -1.885234 -1.027457 1.333476
v -1.715536 -1.168196 1.369398
v -1.858139 -1.022382 1.352802
v -1.719581 -1.137295 1.382132
v -1.829004 -1.025408 1.369398
v -1.731029 -1.106663 1.390137
v -1.799815 -1.036328 1.382132
v -1.749099 -1.078389 1.392868
v -1.772561 -1.054399 1.390137
v -1.725444 -1.137509 1.378386
v -1.736274 -1.10853 1.38596
v -1.753369 -1.081782 1.388543
v -1.775564 -1.059087 1.38596
v -1.801347 -1.041991 1.378386
v -1.828961 -1.03166 1.366339
v -1.721618 -1.166742 1.36634
v -1.856523 -1.028798 1.350639
v -1.725056 -1.194239 1.350639
v -1.882156 -1.033599 1.332356
v -1.735523 -1.218125 1.332356
v -1.904113 -1.045738 1.312736
v -1.752307 -1.236772 1.312736
v -1.920897 -1.064385 1.293116
v -1.774264 -1.24891 1.293116
v -1.931364 -1.08827 1.274833
v -1.799896 -1.253711 1.274833
v -1.934802 -1.115767 1.259133
v -1.827459 -1.250849 1.259133
v -1.930975 -1.145001 1.247085
v -1.855072 -1.240518 1.247085
v -1.920146 -1.173979 1.239512
v -1.880856 -1.223422 1.239512
v -1.903051 -1.200727 1.236929
v -1.82588 -1.245124 1.258715
v -1.852373 -1.235212 1.247157
v -1.87711 -1.21881 1.239891
v -1.898405 -1.197035 1.237413
v -1.914806 -1.171372 1.239891
v -1.925197 -1.14357 1.247157
v -1.799436 -1.24787 1.273778
v -1.928868 -1.115522 1.258715
v -1.774843 -1.243263 1.29132
v -1.92557 -1.089141 1.273778
v -1.753777 -1.231618 1.310144
v -1.915527 -1.066224 1.29132
v -1.737674 -1.213727 1.328968
v -1.899424 -1.048333 1.310144
v -1.727631 -1.19081 1.34651
v -1.878358 -1.036688 1.328968
v -1.724333 -1.164429 1.361573
v -1.853765 -1.032081 1.346509
v -1.728004 -1.136382 1.373131
v -1.827321 -1.034828 1.361573
v -1.738395 -1.108579 1.380397
v -1.800828 -1.044739 1.373131
v -1.754796 -1.082916 1.382875
v -1.776091 -1.061142 1.380397
v -1.727111 -1.131992 1.360776
v -1.723621 -1.15866 1.349787
v -1.73699 -1.105558 1.367684
v -1.752584 -1.081158 1.370041
v -1.726756 -1.183742 1.335465
v -1.772831 -1.060456 1.367684
v -1.79635 -1.044861 1.360776
v -1.736305 -1.205531 1.318787
v -1.82154 -1.035437 1.349786
v -1.751615 -1.222541 1.300889
v -1.846682 -1.032826 1.335465
v -1.771644 -1.233614 1.282991
v -1.870065 -1.037206 1.318787
v -1.795027 -1.237993 1.266313
v -1.890094 -1.048278 1.300889
v -1.820169 -1.235383 1.251992
v -1.905404 -1.065288 1.282991
v -1.845359 -1.225959 1.241002
v -1.914953 -1.087077 1.266313
v -1.868878 -1.210364 1.234094
v -1.918088 -1.11216 1.251991
v -1.889125 -1.189661 1.231737
v -1.914598 -1.138827 1.241002
v -1.904719 -1.165261 1.234094
v -1.752584 -1.081158 1.370041
v -1.820855 -1.13541 1.300889
v -1.772831 -1.060456 1.367684
v -1.73699 -1.105558 1.367684
v -1.79635 -1.044861 1.360776
v -1.727111 -1.131992 1.360776
v -1.82154 -1.035437 1.349786
v -1.723621 -1.15866 1.349787
v -1.846682 -1.032826 1.335465
v -1.726756 -1.183742 1.335465
v -1.870065 -1.037206 1.318787
v -1.736305 -1.205531 1.318787
v -1.890094 -1.048278 1.300889
v -1.751615 -1.222541 1.300889
v -1.905404 -1.065288 1.282991
v -1.771644 -1.233614 1.282991
v -1.914953 -1.087077 1.266313
v -1.795027 -1.237993 1.266313
v -1.918088 -1.11216 1.251991
v -1.820169 -1.235383 1.251992
v -1.914598 -1.138827 1.241002
v -1.845359 -1.225959 1.241002
v -1.904719 -1.165261 1.234094
v -1.868878 -1.210364 1.234094
v -1.889125 -1.189661 1.231737
vt 0.1118207 0.9629506
vt 0.1188686 0.9670911
vt 0.1210593 0.9617023
vt 0.1153601 0.9584756
vt 0.1062152 0.957188
vt 0.1273913 0.9633947
vt 0.1267411 0.9689264
vt 0.1107588 0.9538301
vt 0.102313 0.9502527
vt 0.1339505 0.9632771
vt 0.1346879 0.9688966
vt 0.1075372 0.9482
vt 0.1003271 0.9425603
vt 0.1402053 0.9614564
vt 0.1425326 0.9668065
vt 0.1058823 0.9419367
vt 0.1004232 0.934633
vt 0.1457964 0.9581211
vt 0.1494271 0.9624937
vt 0.1059315 0.9354699
vt 0.1025646 0.9270482
vt 0.1502785 0.9534158
vt 0.1548647 0.9566486
vt 0.1076418 0.929269
vt 0.1065614 0.9203181
vt 0.1533535 0.9477435
vt 0.1585894 0.9496778
vt 0.1108731 0.9237507
vt 0.1121118 0.9148653
vt 0.1548849 0.9414865
vt 0.1604145 0.9419966
vt 0.1153876 0.9192716
vt 0.1188479 0.9110131
vt 0.1547105 0.9350581
vt 0.1601624 0.9341227
vt 0.12089 0.9161075
vt 0.1263564 0.9089962
vt 0.1529038 0.9289334
vt 0.1578896 0.9266432
vt 0.1270248 0.9144385
vt 0.1341349 0.9089917
vt 0.1496221 0.9235077
vt 0.1538043 0.920065
vt 0.1333821 0.9144089
vt 0.1416181 0.9110004
vt 0.1450785 0.9190831
vt 0.1482472 0.9148206
vt 0.1395264 0.9159974
vt 0.1519215 0.9293656
vt 0.1487779 0.9241784
vt 0.1444332 0.9199457
vt 0.1391254 0.9169936
vt 0.1332468 0.9154758
vt 0.1271668 0.9155048
vt 0.1536388 0.9352237
vt 0.1213009 0.9170963
vt 0.1537983 0.9413702
vt 0.116043 0.9201304
vt 0.1523393 0.9473517
vt 0.1117249 0.924414
vt 0.1493949 0.9527678
vt 0.1086409 0.9296932
vt 0.145106 0.9572563
vt 0.1070126 0.9356223
vt 0.1397678 0.9604523
vt 0.1069688 0.9418028
vt 0.1337878 0.9621825
vt 0.1085534 0.9477865
vt 0.12753 0.9622893
vt 0.1116322 0.9531634
vt 0.1214808 0.9606804
vt 0.1160355 0.9575909
vt 0.1335977 0.9609125
vt 0.1276887 0.9609939
vt 0.1219696 0.9594854
vt 0.1168197 0.9565628
vt 0.1126475 0.9523862
vt 0.1097398 0.9472996
vt 0.1392561 0.959275
vt 0.1082364 0.9416424
vt 0.1443043 0.9562498
vt 0.1082765 0.9357951
vt 0.1483627 0.9520121
vt 0.1098109 0.9301836
vt 0.1511498 0.9468914
vt 0.1127236 0.9251846
vt 0.1525344 0.9412344
vt 0.1168073 0.9211292
vt 0.1523856 0.9354176
vt 0.121783 0.9182562
vt 0.1507622 0.9298744
vt 0.1273374 0.9167581
vt 0.1477958 0.9249606
vt 0.133091 0.916723
vt 0.143688 0.9209483
vt 0.1386583 0.9181587
vt 0.1497898 0.9302993
vt 0.1469634 0.9256199
vt 0.1430535 0.9217996
vt 0.1382627 0.9191469
vt 0.1329625 0.9177775
vt 0.1274824 0.91781
vt 0.1513261 0.9355828
vt 0.1221913 0.9192357
vt 0.1514663 0.9411215
vt 0.1174554 0.9219728
vt 0.1501431 0.9465046
vt 0.1135663 0.9258342
vt 0.1474902 0.9513745
vt 0.1107993 0.9305994
vt 0.1436259 0.9554011
vt 0.1093446 0.9359425
vt 0.138822 0.9582772
vt 0.1093074 0.9415088
vt 0.1334389 0.9598339
vt 0.1107449 0.9468876
vt 0.1278217 0.9599108
vt 0.1135091 0.9517224
vt 0.1223836 0.9584727
vt 0.1174796 0.9556964
vt 0.133082 0.9575052
vt 0.1378756 0.9561315
vt 0.1280968 0.9575638
vt 0.123269 0.956283
vt 0.142155 0.9535738
vt 0.1189406 0.9537741
vt 0.1153732 0.9502925
vt 0.1456073 0.9500015
vt 0.1128638 0.9460221
vt 0.1480153 0.945687
vt 0.1116722 0.9412141
vt 0.1491076 0.9408726
vt 0.1116571 0.936263
vt 0.1490323 0.935941
vt 0.1129343 0.9315025
vt 0.1476864 0.9312249
vt 0.115387 0.9272446
vt 0.1452062 0.9270242
vt 0.1188211 0.9237579
vt 0.1416591 0.9236878
vt 0.1230766 0.9213521
vt 0.137414 0.9212872
vt 0.1278037 0.9200866
vt 0.1326915 0.9200615
vt 0.123269 0.956283
vt 0.1303885 0.9386975
vt 0.1189406 0.9537741
vt 0.1280968 0.9575638
vt 0.1153732 0.9502925
vt 0.133082 0.9575052
vt 0.1128638 0.9460221
vt 0.1378756 0.9561315
vt 0.1116722 0.9412141
vt 0.142155 0.9535738
vt 0.1116571 0.936263
vt 0.1456073 0.9500015
vt 0.1129343 0.9315025
vt 0.1480153 0.945687
vt 0.115387 0.9272446
vt 0.1491076 0.9408726
vt 0.1188211 0.9237579
vt 0.1490323 0.935941
vt 0.1230766 0.9213521
vt 0.1476864 0.9312249
vt 0.1278037 0.9200866
vt 0.1452062 0.9270242
vt 0.1326915 0.9200615
vt 0.1416591 0.9236878
vt 0.137414 0.9212872
vn 0.2538022 0.5150014 0.818754
vn 0.4262199 0.3386999 0.83882
vn 0.2169537 0.1724024 0.9608374
vn 0.06883936 0.3238493 0.943601
vn 0.05351189 0.6478072 0.7599226
vn 0.3310263 -0.006095333 0.9436018
vn 0.5590205 0.1309085 0.8187546
vn -0.1032166 0.4379271 0.8930657
vn -0.1610029 0.7280641 0.6663338
vn 0.4032869 -0.199471 0.8930684
vn 0.6431508 -0.09420781 0.7599223
vn -0.2874842 0.5068649 0.812675
vn -0.3751187 0.7502967 0.544372
vn 0.4288208 -0.3945484 0.8126772
vn 0.6728767 -0.3213015 0.6663349
vn -0.4714091 0.5259675 0.7079067
vn -0.5742432 0.7129974 0.4023424
vn 0.4058875 -0.5780362 0.7079051
vn 0.6461713 -0.5349037 0.5443719
vn -0.6424585 0.4939307 0.5859006
vn -0.7448068 0.6187086 0.2499252
vn 0.3360349 -0.7374269 0.5859029
vn 0.5648527 -0.7204576 0.402346
vn -0.7889776 0.4129338 0.4549727
vn -0.8751903 0.4738495 0.09751193
vn 0.2240358 -0.8618628 0.4549732
vn 0.4344695 -0.8653154 0.2499311
vn -0.9009819 0.2884884 0.3240464
vn -0.9565067 0.2882931 -0.04452004
vn 0.07751955 -0.942859 0.3240489
vn 0.2639072 -0.9596062 0.09751382
vn -0.9708322 0.1290925 0.202039
vn -0.9832118 0.07468916 -0.1664812
vn -0.09353201 -0.974899 0.2020491
vn 0.06478056 -0.9969061 -0.04451713
vn -0.9937715 -0.05438699 0.09726408
vn -0.9534884 -0.152408 -0.260061
vn -0.2774672 -0.9557976 0.09727811
vn -0.1493372 -0.9746708 -0.1664787
vn -0.968238 -0.2494604 0.01687295
vn -0.8693616 -0.3775203 -0.3188871
vn -0.4617343 -0.8868576 0.01688588
vn -0.3638493 -0.8944162 -0.2600641
vn -0.8959693 -0.4428391 -0.03365301
vn -0.7365621 -0.5853079 -0.3389558
vn -0.6337857 -0.7727765 -0.03364672
vn -0.5641406 -0.761611 -0.3188952
vn -0.7818943 -0.6213308 -0.05088383
vn -0.45694 -0.6623868 0.5936746
vn -0.5319407 -0.6343302 0.5609493
vn -0.601966 -0.5878948 0.5403857
vn -0.6622498 -0.5262579 0.5333645
vn -0.7086859 -0.4536077 0.5403742
vn -0.7381032 -0.3748982 0.5609412
vn -0.382075 -0.6701586 0.6363223
vn -0.7484919 -0.2955024 0.593665
vn -0.3124519 -0.657126 0.6859732
vn -0.7391498 -0.2208257 0.6363125
vn -0.2528171 -0.6241605 0.7392613
vn -0.7107196 -0.1559425 0.6859736
vn -0.2072351 -0.5735087 0.7925537
vn -0.6651303 -0.1052887 0.7392672
vn -0.1788063 -0.5086363 0.8422099
vn -0.6054925 -0.07232399 0.7925581
vn -0.1694698 -0.4339508 0.884854
vn -0.5358741 -0.05928772 0.8422137
vn -0.1798669 -0.3545489 0.9175745
vn -0.4610164 -0.06706205 0.884854
vn -0.2092707 -0.2758414 0.9381457
vn -0.3860161 -0.09512096 0.9175749
vn -0.2556999 -0.2031903 0.9451621
vn -0.3159879 -0.1415502 0.9381446
vn -0.6943386 -0.3806612 0.6107299
vn -0.6705573 -0.4442875 0.5941055
vn -0.6330185 -0.5030234 0.5884345
vn -0.5842848 -0.5528642 0.594098
vn -0.5276669 -0.5904076 0.6107261
vn -0.4670317 -0.6130882 0.6371847
vn -0.7027354 -0.3164726 0.6371877
vn -0.4065042 -0.6193705 0.6716655
vn -0.6951902 -0.2560899 0.671661
vn -0.3502168 -0.6088299 0.7118106
vn -0.672208 -0.2036375 0.7118063
vn -0.3019974 -0.5821838 0.7548903
vn -0.6353505 -0.1626933 0.7548912
vn -0.2651502 -0.5412339 0.7979732
vn -0.5871358 -0.1360453 0.7979744
vn -0.2421634 -0.4887794 0.8381239
vn -0.5308519 -0.1254987 0.8381208
vn -0.2346099 -0.4284024 0.8725992
vn -0.4703313 -0.1317865 0.8725944
vn -0.2430179 -0.3642108 0.899051
vn -0.4097001 -0.1544825 0.8990445
vn -0.2668079 -0.300584 0.9156761
vn -0.3530846 -0.192018 0.9156749
vn -0.3043509 -0.2418497 0.9213465
vn -0.3298296 0.409523 0.85059
vn -0.1615255 0.3465555 0.9240177
vn -0.00437553 0.2423547 0.9701779
vn 0.1309103 0.1040251 0.9859216
vn 0.235109 -0.05900458 0.9701764
vn 0.3011194 -0.2356251 0.9240173
vn -0.4978207 0.4269675 0.7548995
vn 0.3244447 -0.4138051 0.8505886
vn -0.6540564 0.3977062 0.6434593
vn 0.3034891 -0.5814002 0.7548961
vn -0.7878827 0.3237309 0.5238693
vn 0.2396871 -0.7269902 0.6434557
vn -0.8901817 0.210073 0.4042842
vn 0.13739 -0.8406482 0.5238652
vn -0.9539816 0.06448086 0.2928503
vn 0.003562077 -0.9146245 0.4042889
vn -0.9749342 -0.1031129 0.1971573
vn -0.1526775 -0.9438885 0.2928549
vn -0.9516134 -0.2812893 0.123726
vn -0.3206688 -0.9264449 0.1971579
vn -0.8856066 -0.4579129 0.07756768
vn -0.4889779 -0.8634779 0.1237189
vn -0.7814094 -0.620948 0.06182865
vn -0.6461283 -0.7592772 0.07756513
vn -0.9703227 -0.1970573 -0.140151
vn -0.9985104 0.01830098 -0.05139993
vn -0.8905389 -0.4105417 -0.1959492
vn -0.7646021 -0.6075921 -0.214978
vn -0.9731857 0.2208635 0.06425675
vn -0.6010904 -0.7747878 -0.1959444
vn -0.4111503 -0.9007294 -0.1401498
vn -0.896071 0.3968328 0.1989487
vn -0.2077269 -0.9768357 -0.05139563
vn -0.7724257 0.534207 0.3434844
vn -0.004671978 -0.9979225 0.06425762
vn -0.6106762 0.6236222 0.4880267
vn 0.1841639 -0.9625515 0.198943
vn -0.4218403 0.6589889 0.6227232
vn 0.3459086 -0.8731311 0.343496
vn -0.2187867 0.6379057 0.7383825
vn 0.4695505 -0.7357597 0.4880368
vn -0.01535909 0.561804 0.8271278
vn 0.5466679 -0.5597948 0.622723
vn 0.1745812 0.4358644 0.8829177
vn 0.5719965 -0.357228 0.738382
vn 0.3380945 0.2686637 0.901949
vn 0.5438097 -0.1418628 0.8271311
vn 0.4640297 0.07161409 0.8829201
vn -0.4864619 -0.3865627 0.7835331
vn -0.4864603 -0.3865656 0.7835327
vn -0.4864617 -0.386562 0.7835335
vn -0.4864593 -0.3865691 0.7835316
vn -0.4864596 -0.3865656 0.7835331
vn -0.4864595 -0.3865643 0.7835338
vn -0.4864576 -0.3865658 0.7835341
vn -0.4864586 -0.3865636 0.7835346
vn -0.4864577 -0.3865648 0.7835347
vn -0.4864604 -0.3865687 0.7835311
vn -0.4864603 -0.3865668 0.783532
vn -0.4864611 -0.3865662 0.7835318
vn -0.4864595 -0.3865661 0.7835329
vn -0.4864558 -0.3865659 0.7835354
vn -0.4864608 -0.3865649 0.7835327
vn -0.4864617 -0.3865667 0.7835312
vn -0.4864615 -0.3865676 0.783531
vn -0.4864601 -0.3865655 0.7835328
vn -0.4864611 -0.3865629 0.7835335
vn -0.4864586 -0.3865643 0.7835343
vn -0.4864585 -0.3865682 0.7835324
vn -0.4864661 -0.3865629 0.7835303
vn -0.4864597 -0.3865698 0.783531
vn -0.4864628 -0.3865644 0.7835317
vn -0.4864628 -0.3865644 0.7835316
g PrisonChamberGauge_5_0
f 3/3/3 2/2/2 1/1/1
f 4/4/4 3/3/3 1/1/1
f 4/4/4 1/1/1 5/5/5
f 3/3/3 6/6/6 2/2/2
f 6/6/6 7/7/7 2/2/2
f 8/8/8 4/4/4 5/5/5
f 8/8/8 5/5/5 9/9/9
f 6/6/6 10/10/10 7/7/7
f 10/10/10 11/11/11 7/7/7
f 12/12/12 8/8/8 9/9/9
f 12/12/12 9/9/9 13/13/13
f 10/10/10 14/14/14 11/11/11
f 14/14/14 15/15/15 11/11/11
f 16/16/16 12/12/12 13/13/13
f 16/16/16 13/13/13 17/17/17
f 14/14/14 18/18/18 15/15/15
f 18/18/18 19/19/19 15/15/15
f 20/20/20 16/16/16 17/17/17
f 20/20/20 17/17/17 21/21/21
f 18/18/18 22/22/22 19/19/19
f 22/22/22 23/23/23 19/19/19
f 24/24/24 20/20/20 21/21/21
f 24/24/24 21/21/21 25/25/25
f 22/22/22 26/26/26 23/23/23
f 26/26/26 27/27/27 23/23/23
f 28/28/28 24/24/24 25/25/25
f 28/28/28 25/25/25 29/29/29
f 26/26/26 30/30/30 27/27/27
f 30/30/30 31/31/31 27/27/27
f 32/32/32 28/28/28 29/29/29
f 32/32/32 29/29/29 33/33/33
f 30/30/30 34/34/34 31/31/31
f 34/34/34 35/35/35 31/31/31
f 36/36/36 32/32/32 33/33/33
f 36/36/36 33/33/33 37/37/37
f 34/34/34 38/38/38 35/35/35
f 38/38/38 39/39/39 35/35/35
f 40/40/40 36/36/36 37/37/37
f 40/40/40 37/37/37 41/41/41
f 38/38/38 42/42/42 39/39/39
f 42/42/42 43/43/43 39/39/39
f 44/44/44 40/40/40 41/41/41
f 44/44/44 41/41/41 45/45/45
f 42/42/42 46/46/46 43/43/43
f 46/46/46 47/47/47 43/43/43
f 48/48/48 45/45/45 47/47/47
f 48/48/48 44/44/44 45/45/45
f 46/46/46 48/48/48 47/47/47
f 49/49/49 38/38/38 34/34/34
f 50/50/50 42/42/42 38/38/38
f 49/49/49 50/50/50 38/38/38
f 51/51/51 46/46/46 42/42/42
f 50/50/50 51/51/51 42/42/42
f 52/52/52 48/48/48 46/46/46
f 51/51/51 52/52/52 46/46/46
f 53/53/53 44/44/44 48/48/48
f 52/52/52 53/53/53 48/48/48
f 54/54/54 40/40/40 44/44/44
f 53/53/53 54/54/54 44/44/44
f 55/55/55 49/49/49 34/34/34
f 55/55/55 34/34/34 30/30/30
f 54/54/54 56/56/56 40/40/40
f 56/56/56 36/36/36 40/40/40
f 57/57/57 55/55/55 30/30/30
f 57/57/57 30/30/30 26/26/26
f 56/56/56 58/58/58 36/36/36
f 58/58/58 32/32/32 36/36/36
f 59/59/59 57/57/57 26/26/26
f 59/59/59 26/26/26 22/22/22
f 58/58/58 60/60/60 32/32/32
f 60/60/60 28/28/28 32/32/32
f 61/61/61 59/59/59 22/22/22
f 61/61/61 22/22/22 18/18/18
f 60/60/60 62/62/62 28/28/28
f 62/62/62 24/24/24 28/28/28
f 63/63/63 61/61/61 18/18/18
f 63/63/63 18/18/18 14/14/14
f 62/62/62 64/64/64 24/24/24
f 64/64/64 20/20/20 24/24/24
f 65/65/65 63/63/63 14/14/14
f 65/65/65 14/14/14 10/10/10
f 64/64/64 66/66/66 20/20/20
f 66/66/66 16/16/16 20/20/20
f 67/67/67 65/65/65 10/10/10
f 67/67/67 10/10/10 6/6/6
f 66/66/66 68/68/68 16/16/16
f 68/68/68 12/12/12 16/16/16
f 69/69/69 67/67/67 6/6/6
f 69/69/69 6/6/6 3/3/3
f 68/68/68 70/70/70 12/12/12
f 70/70/70 8/8/8 12/12/12
f 71/71/71 69/69/69 3/3/3
f 71/71/71 3/3/3 4/4/4
f 72/72/72 4/4/4 8/8/8
f 70/70/70 72/72/72 8/8/8
f 72/72/72 71/71/71 4/4/4
f 65/65/65 67/67/67 73/73/73
f 67/67/67 69/69/69 74/74/74
f 73/73/73 67/67/67 74/74/74
f 69/69/69 71/71/71 75/75/75
f 74/74/74 69/69/69 75/75/75
f 71/71/71 72/72/72 76/76/76
f 75/75/75 71/71/71 76/76/76
f 72/72/72 70/70/70 77/77/77
f 76/76/76 72/72/72 77/77/77
f 70/70/70 68/68/68 78/78/78
f 77/77/77 70/70/70 78/78/78
f 79/79/79 65/65/65 73/73/73
f 63/63/63 65/65/65 79/79/79
f 78/78/78 68/68/68 80/80/80
f 68/68/68 66/66/66 80/80/80
f 81/81/81 63/63/63 79/79/79
f 61/61/61 63/63/63 81/81/81
f 80/80/80 66/66/66 82/82/82
f 66/66/66 64/64/64 82/82/82
f 83/83/83 61/61/61 81/81/81
f 59/59/59 61/61/61 83/83/83
f 82/82/82 64/64/64 84/84/84
f 64/64/64 62/62/62 84/84/84
f 85/85/85 59/59/59 83/83/83
f 57/57/57 59/59/59 85/85/85
f 84/84/84 62/62/62 86/86/86
f 62/62/62 60/60/60 86/86/86
f 87/87/87 57/57/57 85/85/85
f 55/55/55 57/57/57 87/87/87
f 86/86/86 60/60/60 88/88/88
f 60/60/60 58/58/58 88/88/88
f 89/89/89 55/55/55 87/87/87
f 49/49/49 55/55/55 89/89/89
f 88/88/88 58/58/58 90/90/90
f 58/58/58 56/56/56 90/90/90
f 91/91/91 49/49/49 89/89/89
f 50/50/50 49/49/49 91/91/91
f 90/90/90 56/56/56 92/92/92
f 56/56/56 54/54/54 92/92/92
f 93/93/93 50/50/50 91/91/91
f 51/51/51 50/50/50 93/93/93
f 92/92/92 54/54/54 94/94/94
f 54/54/54 53/53/53 94/94/94
f 95/95/95 51/51/51 93/93/93
f 52/52/52 51/51/51 95/95/95
f 53/53/53 52/52/52 96/96/96
f 94/94/94 53/53/53 96/96/96
f 96/96/96 52/52/52 95/95/95
f 97/97/97 91/91/91 89/89/89
f 98/98/98 93/93/93 91/91/91
f 97/97/97 98/98/98 91/91/91
f 99/99/99 95/95/95 93/93/93
f 98/98/98 99/99/99 93/93/93
f 100/100/100 96/96/96 95/95/95
f 99/99/99 100/100/100 95/95/95
f 101/101/101 94/94/94 96/96/96
f 100/100/100 101/101/101 96/96/96
f 102/102/102 92/92/92 94/94/94
f 101/101/101 102/102/102 94/94/94
f 103/103/103 97/97/97 89/89/89
f 103/103/103 89/89/89 87/87/87
f 102/102/102 104/104/104 92/92/92
f 104/104/104 90/90/90 92/92/92
f 105/105/105 103/103/103 87/87/87
f 105/105/105 87/87/87 85/85/85
f 104/104/104 106/106/106 90/90/90
f 106/106/106 88/88/88 90/90/90
f 107/107/107 105/105/105 85/85/85
f 107/107/107 85/85/85 83/83/83
f 106/106/106 108/108/108 88/88/88
f 108/108/108 86/86/86 88/88/88
f 109/109/109 107/107/107 83/83/83
f 109/109/109 83/83/83 81/81/81
f 108/108/108 110/110/110 86/86/86
f 110/110/110 84/84/84 86/86/86
f 111/111/111 109/109/109 81/81/81
f 111/111/111 81/81/81 79/79/79
f 110/110/110 112/112/112 84/84/84
f 112/112/112 82/82/82 84/84/84
f 113/113/113 111/111/111 79/79/79
f 113/113/113 79/79/79 73/73/73
f 112/112/112 114/114/114 82/82/82
f 114/114/114 80/80/80 82/82/82
f 115/115/115 113/113/113 73/73/73
f 115/115/115 73/73/73 74/74/74
f 114/114/114 116/116/116 80/80/80
f 116/116/116 78/78/78 80/80/80
f 117/117/117 115/115/115 74/74/74
f 117/117/117 74/74/74 75/75/75
f 116/116/116 118/118/118 78/78/78
f 118/118/118 77/77/77 78/78/78
f 119/119/119 117/117/117 75/75/75
f 119/119/119 75/75/75 76/76/76
f 120/120/120 76/76/76 77/77/77
f 118/118/118 120/120/120 77/77/77
f 120/120/120 119/119/119 76/76/76
f 115/115/115 121/121/121 113/113/113
f 121/121/121 122/122/122 113/113/113
f 123/123/123 121/121/121 115/115/115
f 117/117/117 123/123/123 115/115/115
f 113/113/113 122/122/122 111/111/111
f 124/124/124 123/123/123 117/117/117
f 119/119/119 124/124/124 117/117/117
f 122/122/122 125/125/125 111/111/111
f 126/126/126 124/124/124 119/119/119
f 120/120/120 126/126/126 119/119/119
f 111/111/111 125/125/125 109/109/109
f 127/127/127 126/126/126 120/120/120
f 118/118/118 127/127/127 120/120/120
f 125/125/125 128/128/128 109/109/109
f 129/129/129 127/127/127 118/118/118
f 109/109/109 128/128/128 107/107/107
f 116/116/116 129/129/129 118/118/118
f 128/128/128 130/130/130 107/107/107
f 131/131/131 129/129/129 116/116/116
f 107/107/107 130/130/130 105/105/105
f 114/114/114 131/131/131 116/116/116
f 130/130/130 132/132/132 105/105/105
f 133/133/133 131/131/131 114/114/114
f 105/105/105 132/132/132 103/103/103
f 112/112/112 133/133/133 114/114/114
f 132/132/132 134/134/134 103/103/103
f 135/135/135 133/133/133 112/112/112
f 103/103/103 134/134/134 97/97/97
f 110/110/110 135/135/135 112/112/112
f 134/134/134 136/136/136 97/97/97
f 137/137/137 135/135/135 110/110/110
f 97/97/97 136/136/136 98/98/98
f 108/108/108 137/137/137 110/110/110
f 136/136/136 138/138/138 98/98/98
f 139/139/139 137/137/137 108/108/108
f 98/98/98 138/138/138 99/99/99
f 106/106/106 139/139/139 108/108/108
f 138/138/138 140/140/140 99/99/99
f 141/141/141 139/139/139 106/106/106
f 99/99/99 140/140/140 100/100/100
f 104/104/104 141/141/141 106/106/106
f 140/140/140 142/142/142 100/100/100
f 143/143/143 141/141/141 104/104/104
f 100/100/100 142/142/142 101/101/101
f 102/102/102 143/143/143 104/104/104
f 142/142/142 144/144/144 101/101/101
f 144/144/144 143/143/143 102/102/102
f 101/101/101 144/144/144 102/102/102
g PrisonChamberGauge_5_1
f 147/147/147 146/146/146 145/145/145
f 145/145/145 146/146/146 148/148/148
f 149/149/149 146/146/146 147/147/147
f 148/148/148 146/146/146 150/150/150
f 151/151/151 146/146/146 149/149/149
f 150/150/150 146/146/146 152/152/152
f 153/153/153 146/146/146 151/151/151
f 152/152/152 146/146/146 154/154/154
f 155/155/155 146/146/146 153/153/153
f 154/154/154 146/146/146 156/156/156
f 157/157/157 146/146/146 155/155/155
f 156/156/156 146/146/146 158/158/158
f 159/159/159 146/146/146 157/157/157
f 158/158/158 146/146/146 160/160/160
f 161/161/161 146/146/146 159/159/159
f 160/160/160 146/146/146 162/162/162
f 163/163/163 146/146/146 161/161/161
f 162/162/162 146/146/146 164/164/164
f 165/165/165 146/146/146 163/163/163
f 164/164/164 146/146/146 166/166/166
f 167/167/167 146/146/146 165/165/165
f 166/166/166 146/146/146 168/168/168
f 169/169/169 146/146/146 167/167/167
f 168/168/168 146/146/146 169/169/169
