g PrisonChamberButton_0
v 1.483757 -0.9696395 1.285898
v 1.490047 -0.997261 1.303781
v 1.471575 -0.9859562 1.286953
v 1.500892 -0.9827365 1.302843
v 1.499443 -0.957752 1.280572
v 1.483631 -1.013976 1.300804
v 1.464366 -1.004734 1.283608
v 1.514855 -0.9721543 1.298101
v 1.516741 -0.9517272 1.271616
v 1.482415 -1.030866 1.294269
v 1.463001 -1.023707 1.276268
v 1.530253 -0.9667911 1.290128
v 1.533565 -0.9522915 1.26011
v 1.486547 -1.045893 1.284966
v 1.467643 -1.040588 1.265816
v 1.545229 -0.9672937 1.279887
v 1.547886 -0.9593774 1.247443
v 1.495529 -1.057245 1.274016
v 1.477732 -1.05334 1.253516
v 1.557977 -0.9736013 1.268611
v 1.557975 -0.9721299 1.235142
v 1.508276 -1.063552 1.26274
v 1.492053 -1.060426 1.240848
v 1.566959 -0.9849532 1.257661
v 1.562617 -0.9890109 1.224691
v 1.523252 -1.064055 1.252498
v 1.508877 -1.060991 1.229343
v 1.571091 -0.9999802 1.248358
v 1.561252 -1.007984 1.217351
v 1.538651 -1.058692 1.244526
v 1.526175 -1.054966 1.220387
v 1.569875 -1.01687 1.241823
v 1.554043 -1.026762 1.214006
v 1.552614 -1.04811 1.239784
v 1.541861 -1.043078 1.21506
v 1.563458 -1.033585 1.238846
v 1.513499 -1.061684 1.268878
v 1.527165 -1.062143 1.259532
v 1.541216 -1.057249 1.252257
v 1.553957 -1.047593 1.247931
v 1.563852 -1.034339 1.247074
v 1.569707 -1.019087 1.249791
v 1.501867 -1.055929 1.279167
v 1.570816 -1.003675 1.255754
v 1.493671 -1.04557 1.289159
v 1.567046 -0.9899635 1.264243
v 1.489901 -1.031858 1.297648
v 1.55885 -0.9796051 1.274235
v 1.49101 -1.016447 1.30361
v 1.547218 -0.9738495 1.284524
v 1.496865 -1.001194 1.306327
v 1.533553 -0.9733909 1.293869
v 1.50676 -0.9879407 1.305471
v 1.519502 -0.9782847 1.301144
v 1.498975 -1.017635 1.301417
v 1.503867 -1.00489 1.303687
v 1.531852 -1.018738 1.278932
v 1.498048 -1.030511 1.296435
v 1.512135 -0.9938167 1.302971
v 1.522781 -0.9857487 1.299356
v 1.501198 -1.041969 1.289341
v 1.534521 -0.9816597 1.293278
v 1.508046 -1.050623 1.280993
v 1.545939 -0.9820427 1.285469
v 1.517765 -1.055433 1.272396
v 1.555658 -0.9868518 1.276872
v 1.529183 -1.055816 1.264587
v 1.562506 -0.9955068 1.268523
v 1.540923 -1.051727 1.258509
v 1.565657 -1.006964 1.26143
v 1.55157 -1.043659 1.254894
v 1.56473 -1.019841 1.256448
v 1.559837 -1.032585 1.254178
v 1.542797 -1.047593 1.199552
v 1.560007 -1.029515 1.205698
v 1.55791 -1.027985 1.198746
v 1.545687 -1.048696 1.206938
v 1.523445 -1.061833 1.205578
v 1.527247 -1.06267 1.213199
v 1.502189 -1.068988 1.216097
v 1.506912 -1.069753 1.223728
v 1.481592 -1.068193 1.229842
v 1.487134 -1.069089 1.237253
v 1.464137 -1.059546 1.245154
v 1.4703 -1.060759 1.252144
v 1.451931 -1.044088 1.260186
v 1.458439 -1.045768 1.266604
v 1.446446 -1.023685 1.273125
v 1.452982 -1.025924 1.27889
v 1.448343 -1.000797 1.282411
v 1.454587 -1.003619 1.287519
v 1.457393 -0.9781845 1.286924
v 1.463061 -0.9815457 1.291451
v 1.472506 -0.9585759 1.286118
v 1.477382 -0.9623649 1.290212
v 1.491423 -0.9438053 1.279274
v 1.495822 -0.9483904 1.28395
v 1.512011 -0.9362483 1.267773
v 1.516157 -0.9413076 1.273422
v 1.532216 -0.9368036 1.253448
v 1.535934 -0.9419713 1.259896
v 1.549599 -0.9454039 1.238029
v 1.552768 -0.9503011 1.245005
v 1.562064 -0.9610118 1.223374
v 1.564629 -0.9652923 1.230545
v 1.568108 -0.9817455 1.211252
v 1.570086 -0.9851367 1.218259
v 1.567002 -1.005104 1.203124
v 1.568481 -1.007441 1.20963
v 1.55791 -1.027985 1.198746
v 1.517224 -0.9450248 1.274209
v 1.536112 -0.9456585 1.261292
v 1.552189 -0.9536137 1.247071
v 1.563516 -0.9679306 1.233261
v 1.568728 -0.9868825 1.221527
v 1.567195 -1.008184 1.213286
v 1.559102 -1.029265 1.209531
v 1.497803 -0.9517889 1.284264
v 1.545425 -1.047583 1.210715
v 1.480193 -0.9651347 1.290244
v 1.527815 -1.060929 1.216695
v 1.466516 -0.983453 1.291428
v 1.508394 -1.067693 1.22675
v 1.458423 -1.004534 1.287673
v 1.489506 -1.067059 1.239667
v 1.45689 -1.025835 1.279431
v 1.473429 -1.059104 1.253888
v 1.462102 -1.044787 1.267698
v 1.508877 -1.060991 1.229343
v 1.526175 -1.054966 1.220387
v 1.492053 -1.060426 1.240848
v 1.477732 -1.05334 1.253516
v 1.541861 -1.043078 1.21506
v 1.467643 -1.040588 1.265816
v 1.463001 -1.023707 1.276268
v 1.554043 -1.026762 1.214006
v 1.464366 -1.004734 1.283608
v 1.561252 -1.007984 1.217351
v 1.471575 -0.9859562 1.286953
v 1.562617 -0.9890109 1.224691
v 1.483757 -0.9696395 1.285898
v 1.557975 -0.9721299 1.235142
v 1.499443 -0.957752 1.280572
v 1.547886 -0.9593774 1.247443
v 1.516741 -0.9517272 1.271616
v 1.533565 -0.9522915 1.26011
vt 0.81649 0.9644107
vt 0.8125136 0.95993
vt 0.8121511 0.9648018
vt 0.8151057 0.9596102
vt 0.8204927 0.9624664
vt 0.8099949 0.9593443
vt 0.8080415 0.9636779
vt 0.8174393 0.9583928
vt 0.8235912 0.9592092
vt 0.8078375 0.957956
vt 0.8046 0.9613409
vt 0.819186 0.9564267
vt 0.8252214 0.9550218
vt 0.8062649 0.9559339
vt 0.8022168 0.9580224
vt 0.8201975 0.9540066
vt 0.8252743 0.9505517
vt 0.8055217 0.9534951
vt 0.8009642 0.9541597
vt 0.8202847 0.9513762
vt 0.8237742 0.9463847
vt 0.8056163 0.9509759
vt 0.8010433 0.9500867
vt 0.8194348 0.9488708
vt 0.8209497 0.9430349
vt 0.8065407 0.9486274
vt 0.8024846 0.9462377
vt 0.8177767 0.946833
vt 0.8171812 0.9408911
vt 0.8082079 0.9467077
vt 0.8051562 0.9430648
vt 0.8155357 0.9454994
vt 0.8129498 0.9401817
vt 0.8104364 0.9454538
vt 0.8087772 0.940951
vt 0.812978 0.9450334
vt 0.8067104 0.9512035
vt 0.807514 0.9492037
vt 0.8089372 0.9475825
vt 0.8108279 0.9465289
vt 0.8129789 0.9461905
vt 0.8151242 0.9465978
vt 0.8066434 0.9533575
vt 0.8170198 0.947709
vt 0.807294 0.9554147
vt 0.8183917 0.949444
vt 0.8086235 0.9571245
vt 0.8191168 0.9515378
vt 0.8104564 0.9582911
vt 0.8190578 0.9537622
vt 0.8125892 0.9587707
vt 0.8181946 0.9558005
vt 0.8147722 0.9584863
vt 0.816729 0.9574525
vt 0.8108832 0.9572799
vt 0.8126455 0.9576669
vt 0.8128356 0.9524707
vt 0.8093643 0.9563217
vt 0.8144418 0.9574236
vt 0.8160481 0.9565687
vt 0.8082643 0.9549111
vt 0.8172635 0.9552068
vt 0.8077187 0.9532135
vt 0.8179592 0.9535211
vt 0.807775 0.9514322
vt 0.8180104 0.9516993
vt 0.8084354 0.9497765
vt 0.8174223 0.9499769
vt 0.8096157 0.9484351
vt 0.816292 0.9485566
vt 0.8111854 0.947567
vt 0.8147342 0.94763
vt 0.8129611 0.9472882
vt 0.8071023 0.9366144
vt 0.812919 0.9378402
vt 0.8128514 0.9354724
vt 0.8079609 0.9387875
vt 0.8021575 0.9395968
vt 0.8036774 0.9413309
vt 0.7985379 0.944
vt 0.8005254 0.9451115
vt 0.7966244 0.9493017
vt 0.7988393 0.9496793
vt 0.7965953 0.9548504
vt 0.7987745 0.9544899
vt 0.7983115 0.9600056
vt 0.8002313 0.9590403
vt 0.801442 0.9644866
vt 0.8030492 0.9629244
vt 0.8060112 0.9678631
vt 0.8070515 0.9657861
vt 0.8116655 0.9695481
vt 0.8119423 0.9671623
vt 0.8177369 0.9691628
vt 0.8171418 0.9667502
vt 0.8235035 0.9665741
vt 0.8219559 0.9644486
vt 0.8278621 0.961861
vt 0.8256819 0.9605305
vt 0.8301394 0.9559327
vt 0.8276523 0.9554905
vt 0.8301399 0.9496721
vt 0.8276901 0.9501343
vt 0.8279738 0.9438921
vt 0.8258679 0.9451638
vt 0.8239875 0.9392868
vt 0.8224724 0.9411854
vt 0.818722 0.9363793
vt 0.8179638 0.9386554
vt 0.8128514 0.9354724
vt 0.8249193 0.9600406
vt 0.8267674 0.9553149
vt 0.82681 0.950282
vt 0.8251039 0.9456044
vt 0.8219152 0.9418553
vt 0.8176752 0.9394671
vt 0.812926 0.9386916
vt 0.8214286 0.9637198
vt 0.8082537 0.9395749
vt 0.8169121 0.9658948
vt 0.804211 0.9419594
vt 0.8120266 0.966304
vt 0.8012369 0.9455197
vt 0.8074118 0.9650306
vt 0.7996421 0.9498295
vt 0.8036222 0.9623461
vt 0.7995691 0.9543754
vt 0.8009511 0.9586787
vt 0.8024846 0.9462377
vt 0.8051562 0.9430648
vt 0.8010433 0.9500867
vt 0.8009642 0.9541597
vt 0.8087772 0.940951
vt 0.8022168 0.9580224
vt 0.8046 0.9613409
vt 0.8129498 0.9401817
vt 0.8080415 0.9636779
vt 0.8171812 0.9408911
vt 0.8121511 0.9648018
vt 0.8209497 0.9430349
vt 0.81649 0.9644107
vt 0.8237742 0.9463847
vt 0.8204927 0.9624664
vt 0.8252743 0.9505517
vt 0.8235912 0.9592092
vt 0.8252214 0.9550218
vn -0.3580006 0.52797 0.770119
vn -0.4401224 0.1858505 0.8784941
vn -0.5596775 0.2578444 0.7875769
vn -0.2493421 0.4413853 0.8619788
vn -0.09831211 0.7247805 0.6819295
vn -0.5530136 -0.1082271 0.8261131
vn -0.6790216 -0.0530259 0.7322007
vn -0.003676223 0.6275632 0.7785571
vn 0.1880669 0.8245253 0.5336562
vn -0.5744027 -0.4053767 0.7111478
vn -0.7016294 -0.3671483 0.6106704
vn 0.2672328 0.7219219 0.6382909
vn 0.4665964 0.8151779 0.3431805
vn -0.5017056 -0.669749 0.5474739
vn -0.6247787 -0.6466162 0.4376517
vn 0.5307149 0.7130813 0.4581012
vn 0.7036837 0.6978647 0.1334695
vn -0.3436908 -0.8694677 0.3548275
vn -0.4577405 -0.8577386 0.2340048
vn 0.754994 0.602106 0.259716
vn 0.870726 0.4867356 -0.07017705
vn -0.1194167 -0.9804412 0.1564442
vn -0.2206593 -0.9750485 0.02428659
vn 0.9130096 0.4023867 0.06707074
vn 0.947573 0.2072693 -0.2431972
vn 0.1440675 -0.989283 -0.02374458
vn 0.05786408 -0.9843935 -0.1661963
vn 0.9857075 0.1380149 -0.09660544
vn 0.9249633 -0.1068439 -0.364729
vn 0.4149788 -0.8949267 -0.1640085
vn 0.3442476 -0.8846478 -0.3144707
vn 0.9643212 -0.159135 -0.2115671
vn 0.8056204 -0.4177132 -0.4201089
vn 0.6606438 -0.7087516 -0.2474288
vn 0.6039429 -0.6878386 -0.4026551
vn 0.8514261 -0.4532168 -0.2639472
vn 0.1762661 -0.8501449 0.4961692
vn 0.3594467 -0.8562857 0.3709082
vn 0.5477824 -0.7906899 0.2733932
vn 0.7185587 -0.6612683 0.2154009
vn 0.8511894 -0.4836248 0.2039206
vn 0.929676 -0.2791814 0.2403337
vn 0.02035336 -0.7729988 0.6340809
vn 0.9445487 -0.07259559 0.3202461
vn -0.08950354 -0.6341551 0.7680081
vn 0.8940098 0.1111941 0.4340304
vn -0.1400351 -0.4503612 0.8817964
vn 0.7841585 0.2500343 0.5679598
vn -0.1251646 -0.2437873 0.9617181
vn 0.6282372 0.3271825 0.7058823
vn -0.0466936 -0.03934293 0.9981342
vn 0.4450622 0.3333327 0.8311492
vn 0.08593721 0.1383052 0.9866542
vn 0.2567286 0.2677342 0.9286597
vn 0.3546499 -0.3283442 0.8754505
vn 0.3782561 -0.2668473 0.8864055
vn 0.5230628 -0.3400142 0.7815341
vn 0.3501768 -0.3904855 0.851409
vn 0.4181539 -0.2134106 0.8829514
vn 0.4695306 -0.1744732 0.8655056
vn 0.3653799 -0.445775 0.8171794
vn 0.5261766 -0.1547442 0.8361773
vn 0.3984273 -0.4875396 0.7768918
vn 0.5812707 -0.1566019 0.7984987
vn 0.445325 -0.5107458 0.7354076
vn 0.6281818 -0.1798096 0.7570047
vn 0.5004249 -0.5125927 0.6977275
vn 0.6612308 -0.2215678 0.7167158
vn 0.5570774 -0.4928603 0.6683963
vn 0.6764295 -0.2768529 0.6824921
vn 0.6084551 -0.4539272 0.6509475
vn 0.671949 -0.339 0.6584554
vn 0.6483464 -0.4004923 0.6474974
vn 0.6209694 -0.7026193 -0.3474525
vn 0.8738812 -0.4798329 -0.07805173
vn 0.826775 -0.4426472 -0.3471405
vn 0.6997889 -0.7105954 -0.07314139
vn 0.3578268 -0.8922335 -0.2754622
vn 0.4738126 -0.8806078 -0.005629523
vn 0.06887291 -0.9877232 -0.1402117
vn 0.2233488 -0.967741 0.1165882
vn -0.2107156 -0.9766729 0.04133819
vn -0.0205945 -0.9602344 0.2784345
vn -0.4467391 -0.8600228 0.2465459
vn -0.227535 -0.8584647 0.459637
vn -0.6101936 -0.6519927 0.4500771
vn -0.3715132 -0.6750013 0.6374568
vn -0.6809611 -0.3782908 0.627047
vn -0.4345965 -0.4329618 0.7897277
vn -0.6503372 -0.07285673 0.7561437
vn -0.409232 -0.1629068 0.8977697
vn -0.5221271 0.2264249 0.8222621
vn -0.2991366 0.1012744 0.9488208
vn -0.3139575 0.4904465 0.8129533
vn -0.1207637 0.3308429 0.9359268
vn -0.05474228 0.692082 0.71974
vn 0.1008815 0.5021074 0.858901
vn 0.2174589 0.7988771 0.5608093
vn 0.3432015 0.5949843 0.7267781
vn 0.4824272 0.7963478 0.3648207
vn 0.5803698 0.5923033 0.5588809
vn 0.7137109 0.6821468 0.1590363
vn 0.7847239 0.4915162 0.3776507
vn 0.8816476 0.4709302 -0.03036973
vn 0.929325 0.3058618 0.20689
vn 0.9656739 0.189431 -0.1777356
vn 0.995765 0.0599122 0.06973249
vn 0.950323 -0.1299667 -0.2828334
vn 0.9763618 -0.2145053 -0.02655108
vn 0.826775 -0.4426472 -0.3471405
vn 0.5123334 0.01600951 0.8586375
vn 0.6150178 0.01257379 0.788413
vn 0.7024267 -0.03066421 0.7110953
vn 0.7640083 -0.1085109 0.6360162
vn 0.7923391 -0.2115529 0.5722272
vn 0.7840061 -0.3273556 0.5274209
vn 0.7400031 -0.441963 0.5070149
vn 0.4067402 -0.02075684 0.9133081
vn 0.6656435 -0.5415478 0.5134635
vn 0.3109962 -0.09330928 0.9458196
vn 0.5699071 -0.6141064 0.5459663
vn 0.23664 -0.1928998 0.9522558
vn 0.464327 -0.650895 0.600613
vn 0.1926393 -0.3075143 0.9318396
vn 0.3616361 -0.6474552 0.6708362
vn 0.1843042 -0.4233208 0.8870353
vn 0.2742296 -0.6041998 0.7481583
vn 0.2126404 -0.5263601 0.8232431
vn 0.523067 -0.3400021 0.7815366
vn 0.5230662 -0.3400035 0.7815365
vn 0.5230698 -0.3400032 0.7815343
vn 0.5230684 -0.3400061 0.781534
vn 0.5230703 -0.3400131 0.7815297
vn 0.5230643 -0.3400176 0.7815318
vn 0.5230654 -0.3400204 0.7815297
vn 0.5230712 -0.3400202 0.781526
vn 0.5230654 -0.3400167 0.7815313
vn 0.5230669 -0.3400168 0.7815303
vn 0.5230581 -0.3400118 0.7815384
vn 0.5230685 -0.3400076 0.7815332
vn 0.5230583 -0.3400122 0.781538
vn 0.523059 -0.3400216 0.7815335
vn 0.5230665 -0.3400187 0.7815297
vn 0.5230488 -0.3400355 0.7815343
vn 0.523069 -0.3400224 0.7815264
vn 0.5230601 -0.3400281 0.7815298
g PrisonChamberButton_0_0
f 3/3/3 2/2/2 1/1/1
f 2/2/2 4/4/4 1/1/1
f 1/1/1 4/4/4 5/5/5
f 6/6/6 2/2/2 3/3/3
f 7/7/7 6/6/6 3/3/3
f 4/4/4 8/8/8 5/5/5
f 5/5/5 8/8/8 9/9/9
f 10/10/10 6/6/6 7/7/7
f 11/11/11 10/10/10 7/7/7
f 8/8/8 12/12/12 9/9/9
f 9/9/9 12/12/12 13/13/13
f 14/14/14 10/10/10 11/11/11
f 15/15/15 14/14/14 11/11/11
f 12/12/12 16/16/16 13/13/13
f 13/13/13 16/16/16 17/17/17
f 18/18/18 14/14/14 15/15/15
f 19/19/19 18/18/18 15/15/15
f 16/16/16 20/20/20 17/17/17
f 17/17/17 20/20/20 21/21/21
f 22/22/22 18/18/18 19/19/19
f 23/23/23 22/22/22 19/19/19
f 20/20/20 24/24/24 21/21/21
f 21/21/21 24/24/24 25/25/25
f 26/26/26 22/22/22 23/23/23
f 27/27/27 26/26/26 23/23/23
f 24/24/24 28/28/28 25/25/25
f 25/25/25 28/28/28 29/29/29
f 30/30/30 26/26/26 27/27/27
f 31/31/31 30/30/30 27/27/27
f 28/28/28 32/32/32 29/29/29
f 29/29/29 32/32/32 33/33/33
f 34/34/34 30/30/30 31/31/31
f 35/35/35 34/34/34 31/31/31
f 33/33/33 36/36/36 35/35/35
f 32/32/32 36/36/36 33/33/33
f 36/36/36 34/34/34 35/35/35
f 37/37/37 22/22/22 26/26/26
f 38/38/38 26/26/26 30/30/30
f 38/38/38 37/37/37 26/26/26
f 39/39/39 30/30/30 34/34/34
f 39/39/39 38/38/38 30/30/30
f 40/40/40 34/34/34 36/36/36
f 40/40/40 39/39/39 34/34/34
f 41/41/41 36/36/36 32/32/32
f 41/41/41 40/40/40 36/36/36
f 42/42/42 32/32/32 28/28/28
f 42/42/42 41/41/41 32/32/32
f 37/37/37 43/43/43 22/22/22
f 43/43/43 18/18/18 22/22/22
f 44/44/44 42/42/42 28/28/28
f 44/44/44 28/28/28 24/24/24
f 43/43/43 45/45/45 18/18/18
f 45/45/45 14/14/14 18/18/18
f 46/46/46 44/44/44 24/24/24
f 46/46/46 24/24/24 20/20/20
f 45/45/45 47/47/47 14/14/14
f 47/47/47 10/10/10 14/14/14
f 48/48/48 46/46/46 20/20/20
f 48/48/48 20/20/20 16/16/16
f 47/47/47 49/49/49 10/10/10
f 49/49/49 6/6/6 10/10/10
f 50/50/50 48/48/48 16/16/16
f 50/50/50 16/16/16 12/12/12
f 49/49/49 51/51/51 6/6/6
f 51/51/51 2/2/2 6/6/6
f 52/52/52 50/50/50 12/12/12
f 52/52/52 12/12/12 8/8/8
f 51/51/51 53/53/53 2/2/2
f 53/53/53 4/4/4 2/2/2
f 54/54/54 8/8/8 4/4/4
f 54/54/54 52/52/52 8/8/8
f 53/53/53 54/54/54 4/4/4
f 55/55/55 49/49/49 47/47/47
f 56/56/56 51/51/51 49/49/49
f 55/55/55 56/56/56 49/49/49
f 57/57/57 56/56/56 55/55/55
f 57/57/57 55/55/55 58/58/58
f 58/58/58 55/55/55 47/47/47
f 57/57/57 59/59/59 56/56/56
f 56/56/56 59/59/59 51/51/51
f 59/59/59 53/53/53 51/51/51
f 58/58/58 47/47/47 45/45/45
f 59/59/59 60/60/60 53/53/53
f 60/60/60 54/54/54 53/53/53
f 57/57/57 60/60/60 59/59/59
f 61/61/61 58/58/58 45/45/45
f 57/57/57 58/58/58 61/61/61
f 61/61/61 45/45/45 43/43/43
f 60/60/60 62/62/62 54/54/54
f 57/57/57 62/62/62 60/60/60
f 62/62/62 52/52/52 54/54/54
f 63/63/63 61/61/61 43/43/43
f 57/57/57 61/61/61 63/63/63
f 63/63/63 43/43/43 37/37/37
f 62/62/62 64/64/64 52/52/52
f 57/57/57 64/64/64 62/62/62
f 64/64/64 50/50/50 52/52/52
f 65/65/65 63/63/63 37/37/37
f 57/57/57 63/63/63 65/65/65
f 57/57/57 66/66/66 64/64/64
f 64/64/64 66/66/66 50/50/50
f 57/57/57 65/65/65 67/67/67
f 65/65/65 37/37/37 38/38/38
f 67/67/67 65/65/65 38/38/38
f 66/66/66 48/48/48 50/50/50
f 67/67/67 38/38/38 39/39/39
f 66/66/66 68/68/68 48/48/48
f 57/57/57 68/68/68 66/66/66
f 68/68/68 46/46/46 48/48/48
f 69/69/69 67/67/67 39/39/39
f 57/57/57 67/67/67 69/69/69
f 69/69/69 39/39/39 40/40/40
f 68/68/68 70/70/70 46/46/46
f 57/57/57 70/70/70 68/68/68
f 70/70/70 44/44/44 46/46/46
f 71/71/71 69/69/69 40/40/40
f 57/57/57 69/69/69 71/71/71
f 71/71/71 40/40/40 41/41/41
f 70/70/70 72/72/72 44/44/44
f 57/57/57 72/72/72 70/70/70
f 72/72/72 42/42/42 44/44/44
f 73/73/73 71/71/71 41/41/41
f 57/57/57 71/71/71 73/73/73
f 73/73/73 41/41/41 42/42/42
f 72/72/72 73/73/73 42/42/42
f 57/57/57 73/73/73 72/72/72
g PrisonChamberButton_0_1
f 76/76/76 75/75/75 74/74/74
f 75/75/75 77/77/77 74/74/74
f 74/74/74 77/77/77 78/78/78
f 77/77/77 79/79/79 78/78/78
f 78/78/78 79/79/79 80/80/80
f 79/79/79 81/81/81 80/80/80
f 80/80/80 81/81/81 82/82/82
f 81/81/81 83/83/83 82/82/82
f 82/82/82 83/83/83 84/84/84
f 83/83/83 85/85/85 84/84/84
f 84/84/84 85/85/85 86/86/86
f 85/85/85 87/87/87 86/86/86
f 86/86/86 87/87/87 88/88/88
f 87/87/87 89/89/89 88/88/88
f 88/88/88 89/89/89 90/90/90
f 89/89/89 91/91/91 90/90/90
f 90/90/90 91/91/91 92/92/92
f 91/91/91 93/93/93 92/92/92
f 92/92/92 93/93/93 94/94/94
f 93/93/93 95/95/95 94/94/94
f 94/94/94 95/95/95 96/96/96
f 95/95/95 97/97/97 96/96/96
f 96/96/96 97/97/97 98/98/98
f 97/97/97 99/99/99 98/98/98
f 98/98/98 99/99/99 100/100/100
f 99/99/99 101/101/101 100/100/100
f 100/100/100 101/101/101 102/102/102
f 101/101/101 103/103/103 102/102/102
f 102/102/102 103/103/103 104/104/104
f 103/103/103 105/105/105 104/104/104
f 104/104/104 105/105/105 106/106/106
f 105/105/105 107/107/107 106/106/106
f 106/106/106 107/107/107 108/108/108
f 107/107/107 109/109/109 108/108/108
f 108/108/108 109/109/109 110/110/110
f 109/109/109 75/75/75 110/110/110
f 99/99/99 97/97/97 111/111/111
f 101/101/101 99/99/99 112/112/112
f 99/99/99 111/111/111 112/112/112
f 103/103/103 101/101/101 113/113/113
f 101/101/101 112/112/112 113/113/113
f 105/105/105 103/103/103 114/114/114
f 103/103/103 113/113/113 114/114/114
f 107/107/107 105/105/105 115/115/115
f 105/105/105 114/114/114 115/115/115
f 109/109/109 107/107/107 116/116/116
f 107/107/107 115/115/115 116/116/116
f 75/75/75 109/109/109 117/117/117
f 109/109/109 116/116/116 117/117/117
f 97/97/97 118/118/118 111/111/111
f 97/97/97 95/95/95 118/118/118
f 75/75/75 117/117/117 119/119/119
f 77/77/77 75/75/75 119/119/119
f 95/95/95 120/120/120 118/118/118
f 95/95/95 93/93/93 120/120/120
f 77/77/77 119/119/119 121/121/121
f 79/79/79 77/77/77 121/121/121
f 93/93/93 122/122/122 120/120/120
f 93/93/93 91/91/91 122/122/122
f 79/79/79 121/121/121 123/123/123
f 81/81/81 79/79/79 123/123/123
f 91/91/91 124/124/124 122/122/122
f 91/91/91 89/89/89 124/124/124
f 81/81/81 123/123/123 125/125/125
f 83/83/83 81/81/81 125/125/125
f 89/89/89 126/126/126 124/124/124
f 89/89/89 87/87/87 126/126/126
f 83/83/83 125/125/125 127/127/127
f 85/85/85 83/83/83 127/127/127
f 87/87/87 85/85/85 128/128/128
f 87/87/87 128/128/128 126/126/126
f 85/85/85 127/127/127 128/128/128
f 123/123/123 121/121/121 129/129/129
f 121/121/121 130/130/130 129/129/129
f 123/123/123 129/129/129 131/131/131
f 125/125/125 123/123/123 131/131/131
f 121/121/121 119/119/119 130/130/130
f 125/125/125 131/131/131 132/132/132
f 127/127/127 125/125/125 132/132/132
f 119/119/119 133/133/133 130/130/130
f 127/127/127 132/132/132 134/134/134
f 128/128/128 127/127/127 134/134/134
f 119/119/119 117/117/117 133/133/133
f 128/128/128 134/134/134 135/135/135
f 117/117/117 136/136/136 133/133/133
f 126/126/126 128/128/128 135/135/135
f 117/117/117 116/116/116 136/136/136
f 126/126/126 135/135/135 137/137/137
f 116/116/116 138/138/138 136/136/136
f 124/124/124 126/126/126 137/137/137
f 116/116/116 115/115/115 138/138/138
f 124/124/124 137/137/137 139/139/139
f 115/115/115 140/140/140 138/138/138
f 122/122/122 124/124/124 139/139/139
f 115/115/115 114/114/114 140/140/140
f 122/122/122 139/139/139 141/141/141
f 114/114/114 142/142/142 140/140/140
f 120/120/120 122/122/122 141/141/141
f 114/114/114 113/113/113 142/142/142
f 120/120/120 141/141/141 143/143/143
f 113/113/113 144/144/144 142/142/142
f 118/118/118 120/120/120 143/143/143
f 113/113/113 112/112/112 144/144/144
f 118/118/118 143/143/143 145/145/145
f 112/112/112 146/146/146 144/144/144
f 111/111/111 118/118/118 145/145/145
f 111/111/111 145/145/145 146/146/146
f 112/112/112 111/111/111 146/146/146
