g PrisonChamberGauge_0
v 1.421639 -0.2911381 1.521672
v 1.427065 -0.2423618 1.525666
v 1.453609 -0.2481189 1.540978
v 1.448522 -0.2938519 1.537234
v 1.426425 -0.3387246 1.509964
v 1.467925 -0.2043875 1.537234
v 1.442333 -0.1957205 1.521672
v 1.45301 -0.3384697 1.526256
v 1.441098 -0.3818793 1.491339
v 1.490494 -0.1656381 1.526256
v 1.466404 -0.1543925 1.509964
v 1.466768 -0.3789319 1.508794
v 1.464657 -0.4176608 1.467067
v 1.519778 -0.1345108 1.508793
v 1.497636 -0.1211941 1.491339
v 1.488857 -0.4124809 1.486035
v 1.495497 -0.4436304 1.438801
v 1.553782 -0.1131274 1.486035
v 1.533902 -0.09838772 1.467067
v 1.517773 -0.4368305 1.459533
v 1.531517 -0.4580187 1.408468
v 1.590187 -0.102945 1.459533
v 1.57273 -0.08752757 1.438801
v 1.551545 -0.4503212 1.431093
v 1.57026 -0.4598451 1.378135
v 1.626513 -0.1046572 1.431093
v 1.611473 -0.08935398 1.408468
v 1.587871 -0.4520336 1.402652
v 1.609088 -0.4489851 1.349869
v 1.660285 -0.118148 1.402652
v 1.647493 -0.1037424 1.378135
v 1.624276 -0.441851 1.37615
v 1.645354 -0.4261788 1.325596
v 1.689201 -0.1424974 1.37615
v 1.678333 -0.1297122 1.349869
v 1.65828 -0.4204675 1.353391
v 1.676586 -0.3929804 1.306972
v 1.71129 -0.1760465 1.353391
v 1.701892 -0.1654934 1.325596
v 1.687564 -0.3893403 1.335929
v 1.700657 -0.3516523 1.295263
v 1.725048 -0.2165084 1.335929
v 1.716565 -0.2086479 1.306972
v 1.710132 -0.3505908 1.324951
v 1.715925 -0.305011 1.29127
v 1.729536 -0.2611264 1.324951
v 1.721352 -0.2562346 1.295263
v 1.724448 -0.3068594 1.321207
v 1.709717 -0.1802368 1.3597
v 1.722987 -0.2192658 1.342855
v 1.727316 -0.2623037 1.332266
v 1.722409 -0.3064171 1.328655
v 1.7086 -0.3485998 1.332266
v 1.68683 -0.3859772 1.342855
v 1.68841 -0.1478755 1.381652
v 1.658584 -0.4160023 1.3597
v 1.660518 -0.1243886 1.407216
v 1.625785 -0.4366285 1.381652
v 1.627942 -0.1113756 1.434649
v 1.590669 -0.4464503 1.407216
v 1.592902 -0.1097238 1.462083
v 1.555628 -0.4447983 1.434649
v 1.557786 -0.1195456 1.487646
v 1.523052 -0.4317855 1.462083
v 1.524987 -0.1401718 1.509598
v 1.495161 -0.4082982 1.487646
v 1.49674 -0.1701969 1.526443
v 1.473854 -0.3759373 1.509599
v 1.47497 -0.2075742 1.537032
v 1.460583 -0.3369084 1.526443
v 1.461161 -0.249757 1.540644
v 1.456254 -0.2938703 1.537032
v 1.50187 -0.17602 1.521489
v 1.481276 -0.21138 1.531506
v 1.468212 -0.2512861 1.534923
v 1.46357 -0.2930185 1.531506
v 1.467665 -0.3337334 1.521489
v 1.480219 -0.3706559 1.505553
v 1.528592 -0.1476156 1.505553
v 1.500376 -0.4012702 1.484786
v 1.559621 -0.1281027 1.484786
v 1.526762 -0.4234898 1.460602
v 1.592842 -0.118811 1.460602
v 1.55758 -0.4358003 1.434649
v 1.625991 -0.1203735 1.434649
v 1.590729 -0.4373629 1.408697
v 1.656808 -0.1326842 1.408696
v 1.623949 -0.4280713 1.384513
v 1.683195 -0.1549037 1.384512
v 1.654978 -0.4085583 1.363745
v 1.703352 -0.1855178 1.363745
v 1.681701 -0.380154 1.34781
v 1.715906 -0.2224406 1.34781
v 1.702295 -0.3447942 1.337792
v 1.720001 -0.2631555 1.337792
v 1.715359 -0.3048879 1.334376
v 1.696168 -0.1886972 1.363193
v 1.708213 -0.2241219 1.347904
v 1.712142 -0.263185 1.338293
v 1.707688 -0.3032244 1.335015
v 1.695155 -0.3415112 1.338293
v 1.675395 -0.3754367 1.347904
v 1.676829 -0.159325 1.383118
v 1.649757 -0.4026887 1.363193
v 1.651513 -0.138007 1.406321
v 1.619987 -0.42141 1.383118
v 1.621946 -0.1261959 1.43122
v 1.588114 -0.4303248 1.406321
v 1.590142 -0.1246966 1.45612
v 1.556311 -0.4288256 1.43122
v 1.558269 -0.1336113 1.479323
v 1.526743 -0.4170144 1.45612
v 1.528499 -0.1523327 1.499248
v 1.501427 -0.3956963 1.479323
v 1.502861 -0.1795847 1.514537
v 1.482088 -0.3663243 1.499248
v 1.483101 -0.2135101 1.524148
v 1.470043 -0.3308994 1.514537
v 1.470568 -0.251797 1.527426
v 1.466114 -0.2918363 1.524148
v 1.497619 -0.1823467 1.498194
v 1.521996 -0.1564362 1.483658
v 1.478833 -0.2146025 1.507332
v 1.466916 -0.2510048 1.510449
v 1.5503 -0.1386364 1.464714
v 1.462681 -0.2890734 1.507332
v 1.466417 -0.326214 1.498194
v 1.580604 -0.1301603 1.442653
v 1.477869 -0.3598952 1.483658
v 1.610843 -0.1315858 1.418979
v 1.496256 -0.3878219 1.464714
v 1.638955 -0.1428157 1.395304
v 1.520326 -0.4080907 1.442653
v 1.663025 -0.1630844 1.373243
v 1.548438 -0.4193204 1.418979
v 1.681412 -0.1910109 1.354299
v 1.578677 -0.4207457 1.395304
v 1.692864 -0.2246919 1.339763
v 1.608981 -0.4122699 1.373243
v 1.6966 -0.2618325 1.330625
v 1.637286 -0.39447 1.354299
v 1.692365 -0.2999011 1.327508
v 1.661662 -0.3685592 1.339763
v 1.680449 -0.3363037 1.330625
v 1.663025 -0.1630844 1.373243
v 1.579641 -0.2754529 1.418979
v 1.638955 -0.1428157 1.395304
v 1.681412 -0.1910109 1.354299
v 1.610843 -0.1315858 1.418979
v 1.692864 -0.2246919 1.339763
v 1.580604 -0.1301603 1.442653
v 1.6966 -0.2618325 1.330625
v 1.5503 -0.1386364 1.464714
v 1.692365 -0.2999011 1.327508
v 1.521996 -0.1564362 1.483658
v 1.680449 -0.3363037 1.330625
v 1.497619 -0.1823467 1.498194
v 1.661662 -0.3685592 1.339763
v 1.478833 -0.2146025 1.507332
v 1.637286 -0.39447 1.354299
v 1.466916 -0.2510048 1.510449
v 1.608981 -0.4122699 1.373243
v 1.462681 -0.2890734 1.507332
v 1.578677 -0.4207457 1.395304
v 1.466417 -0.326214 1.498194
v 1.548438 -0.4193204 1.418979
v 1.477869 -0.3598952 1.483658
v 1.520326 -0.4080907 1.442653
v 1.496256 -0.3878219 1.464714
vt 0.8886486 0.9036792
vt 0.8913353 0.9137692
vt 0.8971967 0.9113893
vt 0.8948975 0.9029289
vt 0.8887289 0.8932955
vt 0.901649 0.9189596
vt 0.8965878 0.9228267
vt 0.8949226 0.8942034
vt 0.8914907 0.8833754
vt 0.9079605 0.9250364
vt 0.9040971 0.9302686
vt 0.8972064 0.8858517
vt 0.8967004 0.8745297
vt 0.9155977 0.9292758
vt 0.9134058 0.9352095
vt 0.9015523 0.8783886
vt 0.9040182 0.8673797
vt 0.9240608 0.9313061
vt 0.9234987 0.93752
vt 0.9076878 0.8723401
vt 0.9128695 0.8624085
vt 0.9326842 0.9310605
vt 0.9337304 0.9371618
vt 0.9151241 0.8681063
vt 0.9226103 0.8598849
vt 0.9409041 0.9286193
vt 0.943471 0.9342344
vt 0.9233372 0.8659449
vt 0.9326497 0.8598843
vt 0.9482406 0.9241675
vt 0.9521623 0.9289141
vt 0.9318125 0.8659245
vt 0.9423903 0.8624443
vt 0.9541419 0.9179478
vt 0.9591395 0.9214997
vt 0.9400316 0.8680829
vt 0.9511735 0.8674349
vt 0.9582233 0.9104767
vt 0.9638991 0.9125991
vt 0.9474365 0.8722863
vt 0.9583822 0.8745416
vt 0.9602739 0.9022477
vt 0.9661798 0.9029189
vt 0.9535185 0.8782598
vt 0.9634839 0.8832709
vt 0.9601354 0.8937712
vt 0.9661297 0.8929808
vt 0.9578406 0.885597
vt 0.9568846 0.9099573
vt 0.9588451 0.9020879
vt 0.9587122 0.8939794
vt 0.9565161 0.8861583
vt 0.9523813 0.879144
vt 0.9465659 0.8734337
vt 0.9529724 0.9170983
vt 0.9394863 0.8694133
vt 0.9473282 0.9230416
vt 0.9316263 0.8673468
vt 0.9403177 0.9272968
vt 0.9235203 0.8673686
vt 0.9324597 0.9296231
vt 0.9156667 0.8694422
vt 0.9242176 0.9298496
vt 0.9085622 0.8734994
vt 0.9161372 0.9279022
vt 0.9027022 0.8792852
vt 0.9088422 0.9238513
vt 0.8985546 0.8864208
vt 0.9028171 0.9180434
vt 0.8963792 0.8944032
vt 0.8985656 0.9108168
vt 0.8963634 0.9027384
vt 0.9098632 0.9224724
vt 0.9041868 0.9169654
vt 0.9001635 0.9101449
vt 0.8980737 0.9025106
vt 0.8980818 0.89463
vt 0.9001325 0.8870829
vt 0.9167664 0.9262872
vt 0.9040478 0.8803292
vt 0.9243982 0.9281471
vt 0.9095893 0.8748511
vt 0.9321966 0.9279535
vt 0.9163072 0.8710011
vt 0.9396304 0.9257449
vt 0.9237378 0.8690239
vt 0.9462589 0.9217153
vt 0.9314125 0.869011
vt 0.9516081 0.9161
vt 0.9388522 0.8709713
vt 0.9553199 0.9093456
vt 0.9455514 0.8747791
vt 0.9571857 0.9018981
vt 0.9510461 0.880188
vt 0.9570519 0.8942211
vt 0.9549688 0.8868181
vt 0.9540002 0.9088271
vt 0.9557744 0.9017339
vt 0.9556453 0.8944273
vt 0.953663 0.8873797
vt 0.9499273 0.8810669
vt 0.9446952 0.8759171
vt 0.9504545 0.9152557
vt 0.9383173 0.8722891
vt 0.9453596 0.9206029
vt 0.9312327 0.8704181
vt 0.9390453 0.9244338
vt 0.9239265 0.8704329
vt 0.9319721 0.9265335
vt 0.9168534 0.8723176
vt 0.9245511 0.9267089
vt 0.910462 0.8759915
vt 0.9172938 0.9249321
vt 0.9051859 0.8812084
vt 0.9107296 0.9212993
vt 0.9014675 0.8876382
vt 0.9053338 0.9160593
vt 0.8995212 0.8948161
vt 0.9015099 0.9095746
vt 0.8995172 0.9023145
vt 0.9125921 0.9187599
vt 0.9184229 0.9220021
vt 0.9078053 0.9140956
vt 0.9044234 0.9083345
vt 0.9248739 0.9236014
vt 0.9027105 0.9018801
vt 0.9026297 0.8952243
vt 0.9314846 0.9234701
vt 0.9042861 0.8888206
vt 0.9378086 0.9216615
vt 0.9076951 0.8831585
vt 0.9433725 0.9181471
vt 0.9123431 0.8784682
vt 0.9479539 0.9134296
vt 0.9180228 0.8751648
vt 0.9511309 0.9077166
vt 0.9243199 0.8734107
vt 0.9527185 0.9014001
vt 0.9308483 0.8734594
vt 0.952611 0.894889
vt 0.9371691 0.8751441
vt 0.9508413 0.888606
vt 0.942852 0.8783854
vt 0.9475135 0.8829778
vt 0.9479539 0.9134296
vt 0.9277491 0.8984343
vt 0.9433725 0.9181471
vt 0.9511309 0.9077166
vt 0.9378086 0.9216615
vt 0.9527185 0.9014001
vt 0.9314846 0.9234701
vt 0.952611 0.894889
vt 0.9248739 0.9236014
vt 0.9508413 0.888606
vt 0.9184229 0.9220021
vt 0.9475135 0.8829778
vt 0.9125921 0.9187599
vt 0.942852 0.8783854
vt 0.9078053 0.9140956
vt 0.9371691 0.8751441
vt 0.9044234 0.9083345
vt 0.9308483 0.8734594
vt 0.9027105 0.9018801
vt 0.9243199 0.8734107
vt 0.9026297 0.8952243
vt 0.9180228 0.8751648
vt 0.9042861 0.8888206
vt 0.9123431 0.8784682
vt 0.9076951 0.8831585
vn -0.5065699 -0.1353854 0.8515033
vn -0.4799285 0.10409 0.8711107
vn -0.2406299 0.05218886 0.9692128
vn -0.2635002 -0.1534327 0.9523792
vn -0.4830695 -0.3690198 0.7940204
vn -0.1762602 0.2488112 0.9523787
vn -0.4049679 0.3330826 0.8515027
vn -0.2433179 -0.3540394 0.9030241
vn -0.4110283 -0.5808935 0.7025799
vn -0.07478638 0.423034 0.9030222
vn -0.2867913 0.5359889 0.7940193
vn -0.1814583 -0.5359617 0.8245107
vn -0.2953595 -0.7565678 0.5834106
vn 0.05687629 0.5629838 0.8245086
vn -0.1334483 0.6989814 0.7025785
vn -0.08213872 -0.6868041 0.7221864
vn -0.1439497 -0.8840699 0.4446334
vn 0.2097635 0.6591283 0.7221835
vn 0.04460639 0.8109517 0.5834104
vn 0.0478698 -0.7962834 0.6030267
vn 0.03288884 -0.9547124 0.2957069
vn 0.3734471 0.7049076 0.6030279
vn 0.235237 0.8642699 0.444636
vn 0.1997097 -0.8569373 0.4751574
vn 0.2231087 -0.963679 0.146783
vn 0.536778 0.6972034 0.4751598
vn 0.4254546 0.8553038 0.2957092
vn 0.3630354 -0.8646383 0.3472833
vn 0.4137408 -0.9103594 0.008010537
vn 0.6886217 0.6365477 0.3472852
vn 0.6022941 0.7846637 0.1467805
vn 0.5267165 -0.81886 0.2281183
vn 0.5917948 -0.7983876 -0.1111583
vn 0.8186291 0.5270725 0.2281246
vn 0.7537075 0.6571613 0.008006022
vn 0.6796001 -0.7227163 0.125797
vn 0.7451337 -0.6353968 -0.2025999
vn 0.9179443 0.376234 0.1258027
vn 0.8693773 0.4814843 -0.1111585
vn 0.8112665 -0.5827612 0.04728902
vn 0.8633144 -0.4324885 -0.2600805
vn 0.979799 0.1943136 0.04728676
vn 0.941416 0.2696123 -0.2025961
vn 0.9127391 -0.4085377 -0.002067323
vn 0.9382787 -0.2034947 -0.2796838
vn 0.9999781 -0.00629412 -0.002071476
vn 0.9649174 0.03597851 -0.2600767
vn 0.9771048 -0.2119168 -0.01890491
vn 0.8020064 0.06581363 0.5936785
vn 0.8277853 -0.009996232 0.5609559
vn 0.8361958 -0.09359694 0.5403853
vn 0.8266628 -0.1792884 0.5333707
vn 0.7998379 -0.2612252 0.5403893
vn 0.7575494 -0.3338308 0.5609599
vn 0.7606151 0.1286699 0.6363243
vn 0.7026826 -0.3921602 0.5936731
vn 0.7064351 0.174286 0.6859839
vn 0.6389693 -0.4322287 0.6363149
vn 0.6431601 0.1995675 0.7392685
vn 0.5707571 -0.4513007 0.6859767
vn 0.575096 0.202787 0.7925543
vn 0.5026946 -0.4480858 0.739268
vn 0.5068805 0.1837135 0.8422123
vn 0.4394169 -0.4228128 0.7925541
vn 0.4431663 0.1436452 0.8848558
vn 0.3852353 -0.3771895 0.8422124
vn 0.3883012 0.08531933 0.9175743
vn 0.3438463 -0.3143289 0.8848543
vn 0.346011 0.01271277 0.9381443
vn 0.3180656 -0.238517 0.9175749
vn 0.3191837 -0.06922654 0.9451611
vn 0.3096531 -0.1549147 0.9381452
vn 0.7343053 -0.2963226 0.610728
vn 0.7684939 -0.2376242 0.5940975
vn 0.7901812 -0.1713725 0.5884261
vn 0.7978854 -0.1020931 0.5941008
vn 0.7910845 -0.03450875 0.6107328
vn 0.7702457 0.02678231 0.6371846
vn 0.6899426 -0.3434724 0.637186
vn 0.7367803 0.077605 0.6716638
vn 0.6384309 -0.3758708 0.67166
vn 0.6929771 0.1144839 0.7118119
vn 0.583283 -0.391296 0.7118064
vn 0.64182 0.1349265 0.754892
vn 0.5282542 -0.3886987 0.7548912
vn 0.5867875 0.137531 0.797976
vn 0.4770939 -0.3682607 0.7979758
vn 0.5316392 0.122104 0.8381231
vn 0.4332914 -0.3313736 0.838123
vn 0.480132 0.08970957 0.872597
vn 0.399829 -0.2805536 0.8725975
vn 0.4357743 0.04255239 0.8990495
vn 0.378987 -0.2192592 0.8990518
vn 0.4015882 -0.01614792 0.915678
vn 0.3721924 -0.1516705 0.9156795
vn 0.3799002 -0.08239311 0.9213507
vn -0.1080865 -0.5145995 0.8505908
vn -0.1659358 -0.3444654 0.9240178
vn -0.1848025 -0.156857 0.9701773
vn -0.1634106 0.03544152 0.9859213
vn -0.1032155 0.2193209 0.9701778
vn -0.00831973 0.3822585 0.9240179
vn -0.01519619 -0.6556649 0.7548991
vn 0.1148105 0.513144 0.8505892
vn 0.1063876 -0.7580481 0.6434631
vn 0.2577863 0.6030605 0.7548935
vn 0.2483844 -0.8147774 0.5238731
vn 0.4108625 0.6458772 0.6434553
vn 0.4011292 -0.8219803 0.4042819
vn 0.5636126 0.6386691 0.5238726
vn 0.5542058 -0.7791656 0.2928427
vn 0.7056159 0.5819427 0.4042881
vn 0.6971844 -0.6892501 0.1971502
vn 0.8272007 0.4795628 0.2928456
vn 0.820318 -0.5583649 0.123721
vn 0.9200836 0.3384929 0.1971513
vn 0.915215 -0.3954312 0.07756109
vn 0.9779305 0.1683596 0.123721
vn 0.9754108 -0.2115477 0.06181733
vn 0.9968019 -0.01924669 0.07756037
vn 0.7669755 -0.626184 -0.1401503
vn 0.6181517 -0.7843764 -0.05140088
vn 0.8816748 -0.4292513 -0.1959415
vn 0.95443 -0.2070006 -0.214975
vn 0.4453453 -0.8930496 0.06426422
vn 0.9802847 0.02542554 -0.1959474
vn 0.9574764 0.2521817 -0.140155
vn 0.2603223 -0.9448012 0.1989549
vn 0.8875594 0.4578168 -0.05140085
vn 0.07570313 -0.9360989 0.3434935
vn 0.7752935 0.6283242 0.06425516
vn -0.09592944 -0.8675374 0.4880331
vn 0.628337 0.7520747 0.1989384
vn -0.2428866 -0.74379 0.622722
vn 0.4567053 0.820631 0.3434891
vn -0.3551502 -0.5732899 0.7383813
vn 0.2720916 0.8293293 0.4880361
vn -0.4250673 -0.3676543 0.8271326
vn 0.08707123 0.7775844 0.6227207
vn -0.4478796 -0.1408945 0.8829228
vn -0.08574267 0.66891 0.7383817
vn -0.4220279 0.09153038 0.9019504
vn -0.2345684 0.5107133 0.8271333
vn -0.3492685 0.3137827 0.8829224
vn 0.6072336 -0.1316967 0.7835325
vn 0.607233 -0.1316981 0.7835328
vn 0.6072359 -0.1316961 0.783531
vn 0.6072342 -0.1316968 0.783532
vn 0.6072324 -0.1316958 0.7835337
vn 0.6072351 -0.1316988 0.7835311
vn 0.6072285 -0.1316974 0.7835365
vn 0.6072345 -0.1317014 0.7835311
vn 0.6072323 -0.1316978 0.7835335
vn 0.6072353 -0.1316991 0.7835309
vn 0.6072355 -0.1316966 0.7835311
vn 0.6072347 -0.1316965 0.7835317
vn 0.6072333 -0.1316963 0.7835329
vn 0.607234 -0.1316965 0.7835323
vn 0.6072302 -0.1316992 0.7835349
vn 0.607233 -0.1316987 0.7835327
vn 0.6072309 -0.1316994 0.7835343
vn 0.6072329 -0.1316999 0.7835327
vn 0.6072322 -0.1316975 0.7835336
vn 0.6072323 -0.1316985 0.7835333
vn 0.607232 -0.1316971 0.7835338
vn 0.6072292 -0.1316991 0.7835357
vn 0.6072342 -0.131697 0.7835321
vn 0.6072305 -0.1317013 0.7835342
vn 0.6072347 -0.1317004 0.7835312
g PrisonChamberGauge_0_0
f 3/3/3 2/2/2 1/1/1
f 4/4/4 3/3/3 1/1/1
f 4/4/4 1/1/1 5/5/5
f 3/3/3 6/6/6 2/2/2
f 6/6/6 7/7/7 2/2/2
f 8/8/8 4/4/4 5/5/5
f 8/8/8 5/5/5 9/9/9
f 6/6/6 10/10/10 7/7/7
f 10/10/10 11/11/11 7/7/7
f 12/12/12 8/8/8 9/9/9
f 12/12/12 9/9/9 13/13/13
f 10/10/10 14/14/14 11/11/11
f 14/14/14 15/15/15 11/11/11
f 16/16/16 12/12/12 13/13/13
f 16/16/16 13/13/13 17/17/17
f 14/14/14 18/18/18 15/15/15
f 18/18/18 19/19/19 15/15/15
f 20/20/20 16/16/16 17/17/17
f 20/20/20 17/17/17 21/21/21
f 18/18/18 22/22/22 19/19/19
f 22/22/22 23/23/23 19/19/19
f 24/24/24 20/20/20 21/21/21
f 24/24/24 21/21/21 25/25/25
f 22/22/22 26/26/26 23/23/23
f 26/26/26 27/27/27 23/23/23
f 28/28/28 24/24/24 25/25/25
f 28/28/28 25/25/25 29/29/29
f 26/26/26 30/30/30 27/27/27
f 30/30/30 31/31/31 27/27/27
f 32/32/32 28/28/28 29/29/29
f 32/32/32 29/29/29 33/33/33
f 30/30/30 34/34/34 31/31/31
f 34/34/34 35/35/35 31/31/31
f 36/36/36 32/32/32 33/33/33
f 36/36/36 33/33/33 37/37/37
f 34/34/34 38/38/38 35/35/35
f 38/38/38 39/39/39 35/35/35
f 40/40/40 36/36/36 37/37/37
f 40/40/40 37/37/37 41/41/41
f 38/38/38 42/42/42 39/39/39
f 42/42/42 43/43/43 39/39/39
f 44/44/44 40/40/40 41/41/41
f 44/44/44 41/41/41 45/45/45
f 42/42/42 46/46/46 43/43/43
f 46/46/46 47/47/47 43/43/43
f 48/48/48 45/45/45 47/47/47
f 48/48/48 44/44/44 45/45/45
f 46/46/46 48/48/48 47/47/47
f 49/49/49 38/38/38 34/34/34
f 50/50/50 42/42/42 38/38/38
f 49/49/49 50/50/50 38/38/38
f 51/51/51 46/46/46 42/42/42
f 50/50/50 51/51/51 42/42/42
f 52/52/52 48/48/48 46/46/46
f 51/51/51 52/52/52 46/46/46
f 53/53/53 44/44/44 48/48/48
f 52/52/52 53/53/53 48/48/48
f 54/54/54 40/40/40 44/44/44
f 53/53/53 54/54/54 44/44/44
f 55/55/55 49/49/49 34/34/34
f 55/55/55 34/34/34 30/30/30
f 54/54/54 56/56/56 40/40/40
f 56/56/56 36/36/36 40/40/40
f 57/57/57 55/55/55 30/30/30
f 57/57/57 30/30/30 26/26/26
f 56/56/56 58/58/58 36/36/36
f 58/58/58 32/32/32 36/36/36
f 59/59/59 57/57/57 26/26/26
f 59/59/59 26/26/26 22/22/22
f 58/58/58 60/60/60 32/32/32
f 60/60/60 28/28/28 32/32/32
f 61/61/61 59/59/59 22/22/22
f 61/61/61 22/22/22 18/18/18
f 60/60/60 62/62/62 28/28/28
f 62/62/62 24/24/24 28/28/28
f 63/63/63 61/61/61 18/18/18
f 63/63/63 18/18/18 14/14/14
f 62/62/62 64/64/64 24/24/24
f 64/64/64 20/20/20 24/24/24
f 65/65/65 63/63/63 14/14/14
f 65/65/65 14/14/14 10/10/10
f 64/64/64 66/66/66 20/20/20
f 66/66/66 16/16/16 20/20/20
f 67/67/67 65/65/65 10/10/10
f 67/67/67 10/10/10 6/6/6
f 66/66/66 68/68/68 16/16/16
f 68/68/68 12/12/12 16/16/16
f 69/69/69 67/67/67 6/6/6
f 69/69/69 6/6/6 3/3/3
f 68/68/68 70/70/70 12/12/12
f 70/70/70 8/8/8 12/12/12
f 71/71/71 69/69/69 3/3/3
f 71/71/71 3/3/3 4/4/4
f 72/72/72 4/4/4 8/8/8
f 70/70/70 72/72/72 8/8/8
f 72/72/72 71/71/71 4/4/4
f 65/65/65 67/67/67 73/73/73
f 67/67/67 69/69/69 74/74/74
f 73/73/73 67/67/67 74/74/74
f 69/69/69 71/71/71 75/75/75
f 74/74/74 69/69/69 75/75/75
f 71/71/71 72/72/72 76/76/76
f 75/75/75 71/71/71 76/76/76
f 72/72/72 70/70/70 77/77/77
f 76/76/76 72/72/72 77/77/77
f 70/70/70 68/68/68 78/78/78
f 77/77/77 70/70/70 78/78/78
f 79/79/79 65/65/65 73/73/73
f 63/63/63 65/65/65 79/79/79
f 78/78/78 68/68/68 80/80/80
f 68/68/68 66/66/66 80/80/80
f 81/81/81 63/63/63 79/79/79
f 61/61/61 63/63/63 81/81/81
f 80/80/80 66/66/66 82/82/82
f 66/66/66 64/64/64 82/82/82
f 83/83/83 61/61/61 81/81/81
f 59/59/59 61/61/61 83/83/83
f 82/82/82 64/64/64 84/84/84
f 64/64/64 62/62/62 84/84/84
f 85/85/85 59/59/59 83/83/83
f 57/57/57 59/59/59 85/85/85
f 84/84/84 62/62/62 86/86/86
f 62/62/62 60/60/60 86/86/86
f 87/87/87 57/57/57 85/85/85
f 55/55/55 57/57/57 87/87/87
f 86/86/86 60/60/60 88/88/88
f 60/60/60 58/58/58 88/88/88
f 89/89/89 55/55/55 87/87/87
f 49/49/49 55/55/55 89/89/89
f 88/88/88 58/58/58 90/90/90
f 58/58/58 56/56/56 90/90/90
f 91/91/91 49/49/49 89/89/89
f 50/50/50 49/49/49 91/91/91
f 90/90/90 56/56/56 92/92/92
f 56/56/56 54/54/54 92/92/92
f 93/93/93 50/50/50 91/91/91
f 51/51/51 50/50/50 93/93/93
f 92/92/92 54/54/54 94/94/94
f 54/54/54 53/53/53 94/94/94
f 95/95/95 51/51/51 93/93/93
f 52/52/52 51/51/51 95/95/95
f 53/53/53 52/52/52 96/96/96
f 94/94/94 53/53/53 96/96/96
f 96/96/96 52/52/52 95/95/95
f 97/97/97 91/91/91 89/89/89
f 98/98/98 93/93/93 91/91/91
f 97/97/97 98/98/98 91/91/91
f 99/99/99 95/95/95 93/93/93
f 98/98/98 99/99/99 93/93/93
f 100/100/100 96/96/96 95/95/95
f 99/99/99 100/100/100 95/95/95
f 101/101/101 94/94/94 96/96/96
f 100/100/100 101/101/101 96/96/96
f 102/102/102 92/92/92 94/94/94
f 101/101/101 102/102/102 94/94/94
f 103/103/103 97/97/97 89/89/89
f 103/103/103 89/89/89 87/87/87
f 102/102/102 104/104/104 92/92/92
f 104/104/104 90/90/90 92/92/92
f 105/105/105 103/103/103 87/87/87
f 105/105/105 87/87/87 85/85/85
f 104/104/104 106/106/106 90/90/90
f 106/106/106 88/88/88 90/90/90
f 107/107/107 105/105/105 85/85/85
f 107/107/107 85/85/85 83/83/83
f 106/106/106 108/108/108 88/88/88
f 108/108/108 86/86/86 88/88/88
f 109/109/109 107/107/107 83/83/83
f 109/109/109 83/83/83 81/81/81
f 108/108/108 110/110/110 86/86/86
f 110/110/110 84/84/84 86/86/86
f 111/111/111 109/109/109 81/81/81
f 111/111/111 81/81/81 79/79/79
f 110/110/110 112/112/112 84/84/84
f 112/112/112 82/82/82 84/84/84
f 113/113/113 111/111/111 79/79/79
f 113/113/113 79/79/79 73/73/73
f 112/112/112 114/114/114 82/82/82
f 114/114/114 80/80/80 82/82/82
f 115/115/115 113/113/113 73/73/73
f 115/115/115 73/73/73 74/74/74
f 114/114/114 116/116/116 80/80/80
f 116/116/116 78/78/78 80/80/80
f 117/117/117 115/115/115 74/74/74
f 117/117/117 74/74/74 75/75/75
f 116/116/116 118/118/118 78/78/78
f 118/118/118 77/77/77 78/78/78
f 119/119/119 117/117/117 75/75/75
f 119/119/119 75/75/75 76/76/76
f 120/120/120 76/76/76 77/77/77
f 118/118/118 120/120/120 77/77/77
f 120/120/120 119/119/119 76/76/76
f 115/115/115 121/121/121 113/113/113
f 121/121/121 122/122/122 113/113/113
f 123/123/123 121/121/121 115/115/115
f 117/117/117 123/123/123 115/115/115
f 113/113/113 122/122/122 111/111/111
f 124/124/124 123/123/123 117/117/117
f 119/119/119 124/124/124 117/117/117
f 122/122/122 125/125/125 111/111/111
f 126/126/126 124/124/124 119/119/119
f 120/120/120 126/126/126 119/119/119
f 111/111/111 125/125/125 109/109/109
f 127/127/127 126/126/126 120/120/120
f 118/118/118 127/127/127 120/120/120
f 125/125/125 128/128/128 109/109/109
f 129/129/129 127/127/127 118/118/118
f 109/109/109 128/128/128 107/107/107
f 116/116/116 129/129/129 118/118/118
f 128/128/128 130/130/130 107/107/107
f 131/131/131 129/129/129 116/116/116
f 107/107/107 130/130/130 105/105/105
f 114/114/114 131/131/131 116/116/116
f 130/130/130 132/132/132 105/105/105
f 133/133/133 131/131/131 114/114/114
f 105/105/105 132/132/132 103/103/103
f 112/112/112 133/133/133 114/114/114
f 132/132/132 134/134/134 103/103/103
f 135/135/135 133/133/133 112/112/112
f 103/103/103 134/134/134 97/97/97
f 110/110/110 135/135/135 112/112/112
f 134/134/134 136/136/136 97/97/97
f 137/137/137 135/135/135 110/110/110
f 97/97/97 136/136/136 98/98/98
f 108/108/108 137/137/137 110/110/110
f 136/136/136 138/138/138 98/98/98
f 139/139/139 137/137/137 108/108/108
f 98/98/98 138/138/138 99/99/99
f 106/106/106 139/139/139 108/108/108
f 138/138/138 140/140/140 99/99/99
f 141/141/141 139/139/139 106/106/106
f 99/99/99 140/140/140 100/100/100
f 104/104/104 141/141/141 106/106/106
f 140/140/140 142/142/142 100/100/100
f 143/143/143 141/141/141 104/104/104
f 100/100/100 142/142/142 101/101/101
f 102/102/102 143/143/143 104/104/104
f 142/142/142 144/144/144 101/101/101
f 144/144/144 143/143/143 102/102/102
f 101/101/101 144/144/144 102/102/102
g PrisonChamberGauge_0_1
f 147/147/147 146/146/146 145/145/145
f 145/145/145 146/146/146 148/148/148
f 149/149/149 146/146/146 147/147/147
f 148/148/148 146/146/146 150/150/150
f 151/151/151 146/146/146 149/149/149
f 150/150/150 146/146/146 152/152/152
f 153/153/153 146/146/146 151/151/151
f 152/152/152 146/146/146 154/154/154
f 155/155/155 146/146/146 153/153/153
f 154/154/154 146/146/146 156/156/156
f 157/157/157 146/146/146 155/155/155
f 156/156/156 146/146/146 158/158/158
f 159/159/159 146/146/146 157/157/157
f 158/158/158 146/146/146 160/160/160
f 161/161/161 146/146/146 159/159/159
f 160/160/160 146/146/146 162/162/162
f 163/163/163 146/146/146 161/161/161
f 162/162/162 146/146/146 164/164/164
f 165/165/165 146/146/146 163/163/163
f 164/164/164 146/146/146 166/166/166
f 167/167/167 146/146/146 165/165/165
f 166/166/166 146/146/146 168/168/168
f 169/169/169 146/146/146 167/167/167
f 168/168/168 146/146/146 169/169/169
