g PrisonChamberGauge_6
v -1.124583 -1.348576 1.521672
v -1.079577 -1.368147 1.525666
v -1.092907 -1.391813 1.540978
v -1.135105 -1.373463 1.537234
v -1.171465 -1.339114 1.509964
v -1.055344 -1.418391 1.537234
v -1.039514 -1.396493 1.521672
v -1.179062 -1.364592 1.526256
v -1.217027 -1.340406 1.491339
v -1.024975 -1.451384 1.526256
v -1.007124 -1.431682 1.509964
v -1.221782 -1.365803 1.508793
v -1.258165 -1.352364 1.467066
v -1.003869 -1.488546 1.508793
v -0.9846141 -1.471317 1.491339
v -1.260353 -1.377015 1.486035
v -1.292076 -1.374172 1.4388
v -0.9934663 -1.527344 1.486035
v -0.9735188 -1.512697 1.467067
v -1.292148 -1.397462 1.459533
v -1.316448 -1.404345 1.408468
v -0.9944742 -1.565133 1.459533
v -0.974594 -1.553 1.438801
v -1.315 -1.425753 1.431092
v -1.32962 -1.440827 1.378134
v -1.006825 -1.599338 1.431092
v -0.9877665 -1.589481 1.408468
v -1.32735 -1.459958 1.402652
v -1.330695 -1.48113 1.349869
v -1.029676 -1.627629 1.402652
v -1.012138 -1.619654 1.378134
v -1.328358 -1.497747 1.376149
v -1.3196 -1.522509 1.325596
v -1.061471 -1.648077 1.376149
v -1.046049 -1.641463 1.349869
v -1.317955 -1.536545 1.353391
v -1.29709 -1.562144 1.306971
v -1.100043 -1.659288 1.353391
v -1.087187 -1.65342 1.325596
v -1.29685 -1.573707 1.335928
v -1.2647 -1.597334 1.295263
v -1.142763 -1.660499 1.335928
v -1.13275 -1.654712 1.306971
v -1.266481 -1.606701 1.32495
v -1.224637 -1.62568 1.29127
v -1.186719 -1.651628 1.324951
v -1.179631 -1.645251 1.295263
v -1.228917 -1.633278 1.321206
v -1.103583 -1.656549 1.3597
v -1.144789 -1.657717 1.342855
v -1.18719 -1.64916 1.332266
v -1.227893 -1.63146 1.328654
v -1.264127 -1.605824 1.332266
v -1.29342 -1.573998 1.342855
v -1.066377 -1.645735 1.381652
v -1.313778 -1.538152 1.3597
v -1.035708 -1.626011 1.407216
v -1.323813 -1.500728 1.381652
v -1.013666 -1.598722 1.434649
v -1.32284 -1.464278 1.407215
v -1.001753 -1.565728 1.462082
v -1.310927 -1.431284 1.434649
v -1.00078 -1.529277 1.487646
v -1.288885 -1.403995 1.462082
v -1.010815 -1.491854 1.509598
v -1.258216 -1.384272 1.487646
v -1.031173 -1.456008 1.526443
v -1.221011 -1.373457 1.509598
v -1.060466 -1.424182 1.537032
v -1.179804 -1.372289 1.526443
v -1.0967 -1.398546 1.540644
v -1.137403 -1.380846 1.537032
v -1.03825 -1.459192 1.521488
v -1.065963 -1.429084 1.531506
v -1.10024 -1.404832 1.534923
v -1.138747 -1.388087 1.531506
v -1.178859 -1.379992 1.521488
v -1.217841 -1.381097 1.505553
v -1.018991 -1.493103 1.505553
v -1.253039 -1.391328 1.484786
v -1.009498 -1.528507 1.484786
v -1.282053 -1.409987 1.460602
v -1.010418 -1.56299 1.460602
v -1.302905 -1.435803 1.434649
v -1.021688 -1.594203 1.434649
v -1.314175 -1.467016 1.408696
v -1.042541 -1.620019 1.408696
v -1.315095 -1.501499 1.384512
v -1.071554 -1.638678 1.384512
v -1.305602 -1.536903 1.363745
v -1.106752 -1.648909 1.363745
v -1.286343 -1.570814 1.34781
v -1.145735 -1.650015 1.34781
v -1.25863 -1.600922 1.337792
v -1.185846 -1.641919 1.337792
v -1.224353 -1.625175 1.334375
v -1.107671 -1.641107 1.363193
v -1.145072 -1.642168 1.347904
v -1.183556 -1.634401 1.338293
v -1.220501 -1.618336 1.335015
v -1.253388 -1.595067 1.338293
v -1.279976 -1.566181 1.347904
v -1.073901 -1.631292 1.383118
v -1.298454 -1.533645 1.363193
v -1.046064 -1.61339 1.40632
v -1.307562 -1.499678 1.383118
v -1.026058 -1.588621 1.43122
v -1.306679 -1.466593 1.40632
v -1.015245 -1.558674 1.45612
v -1.295866 -1.436646 1.43122
v -1.014363 -1.52559 1.479323
v -1.27586 -1.411878 1.45612
v -1.02347 -1.491623 1.499248
v -1.248023 -1.393976 1.479323
v -1.041948 -1.459087 1.514537
v -1.214254 -1.384161 1.499248
v -1.068537 -1.430201 1.524148
v -1.176852 -1.3831 1.514536
v -1.101424 -1.406932 1.527426
v -1.138368 -1.390867 1.524147
v -1.043041 -1.453264 1.498194
v -1.025473 -1.484198 1.483658
v -1.068321 -1.4258 1.507332
v -1.09959 -1.403676 1.510449
v -1.016814 -1.516494 1.464714
v -1.134716 -1.388402 1.507332
v -1.171306 -1.381017 1.498194
v -1.017653 -1.54795 1.442653
v -1.206866 -1.382025 1.483658
v -1.027934 -1.576423 1.418978
v -1.238974 -1.391358 1.464713
v -1.046955 -1.599972 1.395304
v -1.26544 -1.408379 1.442653
v -1.073422 -1.616993 1.373243
v -1.284462 -1.431928 1.418978
v -1.105529 -1.626326 1.354299
v -1.294743 -1.460401 1.395304
v -1.14109 -1.627334 1.339763
v -1.295582 -1.491857 1.373243
v -1.17768 -1.619949 1.330625
v -1.286922 -1.524153 1.354299
v -1.212806 -1.604675 1.327508
v -1.269354 -1.555087 1.339763
v -1.244074 -1.582551 1.330625
v -1.17768 -1.619949 1.330625
v -1.156198 -1.504176 1.418978
v -1.14109 -1.627334 1.339763
v -1.212806 -1.604675 1.327508
v -1.105529 -1.626326 1.354299
v -1.244074 -1.582551 1.330625
v -1.073422 -1.616993 1.373243
v -1.269354 -1.555087 1.339763
v -1.046955 -1.599972 1.395304
v -1.286922 -1.524153 1.354299
v -1.027934 -1.576423 1.418978
v -1.295582 -1.491857 1.373243
v -1.017653 -1.54795 1.442653
v -1.294743 -1.460401 1.395304
v -1.016814 -1.516494 1.464714
v -1.284462 -1.431928 1.418978
v -1.025473 -1.484198 1.483658
v -1.26544 -1.408379 1.442653
v -1.043041 -1.453264 1.498194
v -1.238974 -1.391358 1.464713
v -1.068321 -1.4258 1.507332
v -1.206866 -1.382025 1.483658
v -1.09959 -1.403676 1.510449
v -1.171306 -1.381017 1.498194
v -1.134716 -1.388402 1.507332
vt 0.8565057 0.5787643
vt 0.8591828 0.5888571
vt 0.8650467 0.5864829
vt 0.8627555 0.5780201
vt 0.8565963 0.5683804
vt 0.8694919 0.5940578
vt 0.8644266 0.5979202
vt 0.8627892 0.5692942
vt 0.8593678 0.5584625
vt 0.8757979 0.6001409
vt 0.8719291 0.6053696
vt 0.8650812 0.5609443
vt 0.8645864 0.5496215
vt 0.8834309 0.6043879
vt 0.881233 0.6103197
vt 0.8694347 0.5534853
vt 0.8719113 0.5424782
vt 0.8918923 0.6064266
vt 0.8913241 0.61264
vt 0.8755761 0.5474426
vt 0.8807676 0.5375156
vt 0.9005164 0.6061891
vt 0.9015566 0.6122919
vt 0.8830168 0.5432159
vt 0.8905113 0.5350015
vt 0.9087389 0.603756
vt 0.9113005 0.6093737
vt 0.8912325 0.5410622
vt 0.9005513 0.5350107
vt 0.9160801 0.5993112
vt 0.9199973 0.6040616
vt 0.8997079 0.5410502
vt 0.9102896 0.5375803
vt 0.9219874 0.5930971
vt 0.926982 0.5966538
vt 0.9079255 0.5432167
vt 0.9190683 0.5425794
vt 0.9260764 0.5856297
vt 0.9317501 0.5877576
vt 0.9153262 0.5474274
vt 0.9262702 0.5496933
vt 0.9281351 0.5774022
vt 0.9340405 0.5780795
vt 0.9214025 0.553407
vt 0.9313636 0.558428
vt 0.9280046 0.5689255
vt 0.9340001 0.5681409
vt 0.9257177 0.5607486
vt 0.924738 0.585109
vt 0.9267063 0.5772412
vt 0.9265813 0.5691322
vt 0.9243927 0.5613087
vt 0.9202644 0.5542902
vt 0.9144545 0.548574
vt 0.9208189 0.5922463
vt 0.9073784 0.5445465
vt 0.9151688 0.5981842
vt 0.8995204 0.5424724
vt 0.908154 0.6024328
vt 0.891414 0.5424864
vt 0.9002932 0.6047517
vt 0.8835583 0.5445523
vt 0.8920505 0.6049702
vt 0.8764496 0.5486029
vt 0.8839719 0.6030147
vt 0.8705835 0.554383
vt 0.8766804 0.5989567
vt 0.866429 0.5615149
vt 0.8706609 0.5931429
vt 0.864246 0.5694954
vt 0.8664162 0.5859118
vt 0.8642219 0.5778309
vt 0.8777029 0.5975789
vt 0.8720317 0.5920659
vt 0.8680148 0.5852414
vt 0.8659325 0.5776049
vt 0.8659481 0.5697238
vt 0.8680063 0.5621786
vt 0.8846028 0.6014005
vt 0.8719282 0.5554284
vt 0.892233 0.6032679
vt 0.8774753 0.5499556
vt 0.9000318 0.6030818
vt 0.8841971 0.5461122
vt 0.907468 0.6008803
vt 0.8916299 0.5441419
vt 0.9141005 0.596857
vt 0.8993049 0.5441364
vt 0.9194555 0.5912466
vt 0.906743 0.5461041
vt 0.923174 0.5844957
vt 0.9134386 0.5499184
vt 0.9250471 0.5770496
vt 0.9189286 0.5553329
vt 0.9249208 0.5693724
vt 0.9228447 0.561967
vt 0.9218547 0.5839759
vt 0.9236358 0.5768842
vt 0.9235139 0.5695771
vt 0.9215383 0.5625273
vt 0.9178085 0.5562108
vt 0.9125813 0.5510557
vt 0.9183027 0.5904013
vt 0.9062069 0.5474213
vt 0.9132024 0.5957439
vt 0.8991239 0.5455434
vt 0.906884 0.5995686
vt 0.8918173 0.5455511
vt 0.8998086 0.6016616
vt 0.8847422 0.5474291
vt 0.8923871 0.6018296
vt 0.878347 0.5510968
vt 0.8851314 0.6000457
vt 0.8730654 0.5563087
vt 0.8785703 0.5964065
vt 0.8693408 0.5627352
vt 0.8731796 0.5911611
vt 0.8673875 0.5699114
vt 0.8693618 0.5846725
vt 0.8673763 0.5774101
vt 0.8804355 0.5938689
vt 0.8862633 0.5971167
vt 0.8756531 0.5891997
vt 0.8722767 0.5834351
vt 0.8927132 0.5987225
vt 0.87057 0.5769787
vt 0.8704956 0.5703226
vt 0.8993241 0.5985973
vt 0.8721582 0.5639204
vt 0.9056502 0.5967948
vt 0.8755729 0.5582613
vt 0.9112173 0.593286
vt 0.8802257 0.5535753
vt 0.9158038 0.5885726
vt 0.885909 0.5502775
vt 0.9189864 0.5828625
vt 0.8922079 0.5485295
vt 0.9205801 0.5765473
vt 0.8987365 0.5485843
vt 0.9204791 0.5700359
vt 0.9050559 0.5502753
vt 0.9187154 0.563751
vt 0.9107357 0.5535222
vt 0.9153929 0.5581193
vt 0.9204791 0.5700359
vt 0.8956128 0.5735574
vt 0.9205801 0.5765473
vt 0.9187154 0.563751
vt 0.9189864 0.5828625
vt 0.9153929 0.5581193
vt 0.9158038 0.5885726
vt 0.9107357 0.5535222
vt 0.9112173 0.593286
vt 0.9050559 0.5502753
vt 0.9056502 0.5967948
vt 0.8987365 0.5485843
vt 0.8993241 0.5985973
vt 0.8922079 0.5485295
vt 0.8927132 0.5987225
vt 0.885909 0.5502775
vt 0.8862633 0.5971167
vt 0.8802257 0.5535753
vt 0.8804355 0.5938689
vt 0.8755729 0.5582613
vt 0.8756531 0.5891997
vt 0.8721582 0.5639204
vt 0.8722767 0.5834351
vt 0.8704956 0.5703226
vt 0.87057 0.5769787
vn 0.02004805 0.5239688 0.8515015
vn 0.2410108 0.4278784 0.8711107
vn 0.1208388 0.2145308 0.9692134
vn -0.0688895 0.2970324 0.9523792
vn -0.2101249 0.5704246 0.7940173
vn 0.2897294 0.09503606 0.9523786
vn 0.4377074 0.2887068 0.851505
vn -0.2665268 0.3369138 0.9030241
vn -0.4338222 0.5640794 0.7025759
vn 0.4262722 -0.05331047 0.9030227
vn 0.5967302 0.115941 0.7940219
vn -0.4586029 0.331469 0.8245069
vn -0.6357951 0.5053679 0.5834106
vn 0.5211641 -0.2204007 0.8245069
vn 0.7072453 -0.07865262 0.7025795
vn -0.632024 0.2810691 0.7221813
vn -0.8022833 0.398296 0.4446368
vn 0.5679373 -0.3948399 0.7221833
vn 0.7617192 -0.2818097 0.5834099
vn -0.7749751 0.1891304 0.6030286
vn -0.9219419 0.2501572 0.2957103
vn 0.5634064 -0.5647434 0.6030242
vn 0.7564425 -0.4796826 0.4446341
vn -0.8777195 0.06192604 0.4751565
vn -0.9866137 0.07104751 0.1467848
vn 0.507876 -0.7185369 0.4751493
vn 0.6917714 -0.6587935 0.2957084
vn -0.9332512 -0.09186345 0.3472799
vn -0.9918925 -0.1268273 0.008012153
vn 0.4051326 -0.8457318 0.3472829
vn 0.572111 -0.8069342 0.1467859
vn -0.9377845 -0.2617669 0.2281189
vn -0.9374177 -0.3299887 -0.1111558
vn 0.2621799 -0.9376674 0.2281263
vn 0.4056221 -0.9140058 0.008011551
vn -0.8910099 -0.4362064 0.1257981
vn -0.8269024 -0.5245811 -0.2026009
vn 0.08875352 -0.9880776 0.1257988
vn 0.2036475 -0.9727137 -0.111157
vn -0.7961183 -0.6032906 0.04728688
vn -0.6678802 -0.6973462 -0.2600851
vn -0.1033222 -0.993523 0.04729242
vn -0.0200494 -0.9790571 -0.2025963
vn -0.6595754 -0.7516356 -0.002070252
vn -0.4711843 -0.8365163 -0.2796889
vn -0.300955 -0.9536362 -0.002055811
vn -0.250221 -0.9326026 -0.2600804
vn -0.4906817 -0.871134 -0.01889494
vn -0.1736606 -0.7857425 0.5936757
vn -0.2537052 -0.7880089 0.5609596
vn -0.3360665 -0.7713848 0.5403933
vn -0.4151307 -0.7370058 0.533375
vn -0.4855143 -0.6872072 0.5403907
vn -0.5424204 -0.6253853 0.5609574
vn -0.1013846 -0.7647321 0.6363224
vn -0.5819679 -0.555757 0.5936729
vn -0.04181029 -0.7264213 0.6859766
vn -0.6014634 -0.4830593 0.636314
vn 0.0009996621 -0.6734185 0.7392609
vn -0.5995716 -0.412254 0.6859741
vn 0.02414189 -0.6093249 0.7925531
vn -0.5764244 -0.3481644 0.7392675
vn 0.02603264 -0.5385181 0.8422116
vn -0.5336109 -0.29515 0.7925566
vn 0.006536115 -0.4658228 0.8848538
vn -0.4740406 -0.2568358 0.842212
vn -0.03300372 -0.3961846 0.9175776
vn -0.4017654 -0.235841 0.8848523
vn -0.08990043 -0.3343595 0.938148
vn -0.3217206 -0.2335737 0.9175724
vn -0.1602862 -0.2845649 0.9451619
vn -0.2393565 -0.2501882 0.9381441
vn -0.4997176 -0.6142381 0.6107322
vn -0.4537113 -0.6642175 0.5941052
vn -0.3968136 -0.7044779 0.58843
vn -0.3328892 -0.732279 0.5940979
vn -0.2663005 -0.7457157 0.6107307
vn -0.2015874 -0.7438771 0.6371887
vn -0.5316965 -0.557941 0.6371817
vn -0.1431555 -0.7268971 0.6716599
vn -0.5474507 -0.4991702 0.6716597
vn -0.09498578 -0.6959248 0.7118051
vn -0.545925 -0.4419239 0.711807
vn -0.06036439 -0.6530683 0.7548895
vn -0.5272173 -0.3901069 0.7548897
vn -0.04166372 -0.6012488 0.7979749
vn -0.4925944 -0.3472534 0.7979762
vn -0.0401414 -0.5440044 0.8381216
vn -0.4444289 -0.3162803 0.8381227
vn -0.05589767 -0.4852355 0.872595
vn -0.3860011 -0.2992995 0.8725955
vn -0.08786529 -0.4289377 0.8990506
vn -0.3212872 -0.2974661 0.8990486
vn -0.1338696 -0.3789584 0.9156798
vn -0.2547058 -0.3109065 0.9156758
vn -0.1907813 -0.3387034 0.9213482
vn -0.4598292 0.2550527 0.8505911
vn -0.2801999 0.2601481 0.9240189
vn -0.09537246 0.2228505 0.9701762
vn 0.0820611 0.1456931 0.9859206
vn 0.2400127 0.03393707 0.9701764
vn 0.367712 -0.104792 0.9240165
vn -0.6220151 0.2079113 0.7548974
vn 0.4564508 -0.2610545 0.8505899
vn -0.7557047 0.1219368 0.6434609
vn 0.5001925 -0.4241922 0.7548964
vn -0.8517916 0.002984033 0.5238723
vn 0.4959583 -0.5830855 0.6434568
vn -0.9037231 -0.1408469 0.4042854
vn 0.4440319 -0.7269118 0.5238653
vn -0.907961 -0.2997422 0.2928506
vn 0.3479449 -0.8458671 0.404281
vn -0.8642203 -0.4628753 0.197154
vn 0.2142478 -0.931847 0.2928465
vn -0.7754744 -0.6191381 0.1237239
vn 0.05206069 -0.9789888 0.197157
vn -0.6477792 -0.7578695 0.07756273
vn -0.1275649 -0.984083 0.1237243
vn -0.4898346 -0.8696207 0.06182094
vn -0.3123966 -0.9467801 0.07756223
vn -0.8245478 -0.548159 -0.1401524
vn -0.9318062 -0.3592985 -0.05139754
vn -0.6702037 -0.7158437 -0.1959454
vn -0.4792971 -0.850919 -0.2149677
vn -0.9846751 -0.1621263 0.06426345
vn -0.2648401 -0.9441765 -0.1959345
vn -0.041442 -0.9892626 -0.1401498
vn -0.9795521 0.029927 0.1989525
vn 0.1756683 -0.9831064 -0.0514054
vn -0.9167835 0.2037653 0.3434936
vn 0.3716944 -0.9261285 0.06425915
vn -0.8006488 0.3475399 0.4880344
vn 0.5332808 -0.8222087 0.1989584
vn -0.6390601 0.4514639 0.6227219
vn 0.6494128 -0.6784319 0.3435011
vn -0.4430315 0.5084451 0.7383811
vn 0.7121829 -0.504595 0.4880362
vn -0.2259216 0.5146004 0.8271311
vn 0.7173106 -0.3125403 0.6227232
vn -0.002527978 0.4695137 0.8829215
vn 0.6644407 -0.1153633 0.7383833
vn 0.2119268 0.3762544 0.9019532
vn 0.5571815 0.07350125 0.8271314
vn 0.4028375 0.2411822 0.8829231
vn -0.3049407 -0.5413778 0.7835314
vn -0.3049401 -0.5413755 0.7835331
vn -0.304941 -0.5413771 0.7835316
vn -0.3049417 -0.5413755 0.7835325
vn -0.3049367 -0.5413781 0.7835327
vn -0.3049411 -0.5413761 0.7835323
vn -0.3049352 -0.5413765 0.7835343
vn -0.3049409 -0.5413771 0.7835317
vn -0.3049395 -0.541377 0.7835323
vn -0.3049419 -0.5413763 0.7835318
vn -0.304939 -0.5413764 0.7835329
vn -0.3049414 -0.5413747 0.7835331
vn -0.3049372 -0.5413751 0.7835345
vn -0.3049441 -0.5413746 0.7835322
vn -0.304938 -0.5413772 0.7835328
vn -0.3049419 -0.541375 0.7835327
vn -0.3049395 -0.5413759 0.7835331
vn -0.3049415 -0.5413745 0.7835333
vn -0.3049384 -0.5413735 0.7835351
vn -0.3049423 -0.5413757 0.7835321
vn -0.3049374 -0.5413753 0.7835343
vn -0.3049419 -0.5413719 0.7835349
vn -0.3049429 -0.5413743 0.7835328
vn -0.3049384 -0.5413732 0.7835353
vn -0.3049399 -0.5413738 0.7835344
g PrisonChamberGauge_6_0
f 3/3/3 2/2/2 1/1/1
f 4/4/4 3/3/3 1/1/1
f 4/4/4 1/1/1 5/5/5
f 3/3/3 6/6/6 2/2/2
f 6/6/6 7/7/7 2/2/2
f 8/8/8 4/4/4 5/5/5
f 8/8/8 5/5/5 9/9/9
f 6/6/6 10/10/10 7/7/7
f 10/10/10 11/11/11 7/7/7
f 12/12/12 8/8/8 9/9/9
f 12/12/12 9/9/9 13/13/13
f 10/10/10 14/14/14 11/11/11
f 14/14/14 15/15/15 11/11/11
f 16/16/16 12/12/12 13/13/13
f 16/16/16 13/13/13 17/17/17
f 14/14/14 18/18/18 15/15/15
f 18/18/18 19/19/19 15/15/15
f 20/20/20 16/16/16 17/17/17
f 20/20/20 17/17/17 21/21/21
f 18/18/18 22/22/22 19/19/19
f 22/22/22 23/23/23 19/19/19
f 24/24/24 20/20/20 21/21/21
f 24/24/24 21/21/21 25/25/25
f 22/22/22 26/26/26 23/23/23
f 26/26/26 27/27/27 23/23/23
f 28/28/28 24/24/24 25/25/25
f 28/28/28 25/25/25 29/29/29
f 26/26/26 30/30/30 27/27/27
f 30/30/30 31/31/31 27/27/27
f 32/32/32 28/28/28 29/29/29
f 32/32/32 29/29/29 33/33/33
f 30/30/30 34/34/34 31/31/31
f 34/34/34 35/35/35 31/31/31
f 36/36/36 32/32/32 33/33/33
f 36/36/36 33/33/33 37/37/37
f 34/34/34 38/38/38 35/35/35
f 38/38/38 39/39/39 35/35/35
f 40/40/40 36/36/36 37/37/37
f 40/40/40 37/37/37 41/41/41
f 38/38/38 42/42/42 39/39/39
f 42/42/42 43/43/43 39/39/39
f 44/44/44 40/40/40 41/41/41
f 44/44/44 41/41/41 45/45/45
f 42/42/42 46/46/46 43/43/43
f 46/46/46 47/47/47 43/43/43
f 48/48/48 45/45/45 47/47/47
f 48/48/48 44/44/44 45/45/45
f 46/46/46 48/48/48 47/47/47
f 49/49/49 38/38/38 34/34/34
f 50/50/50 42/42/42 38/38/38
f 49/49/49 50/50/50 38/38/38
f 51/51/51 46/46/46 42/42/42
f 50/50/50 51/51/51 42/42/42
f 52/52/52 48/48/48 46/46/46
f 51/51/51 52/52/52 46/46/46
f 53/53/53 44/44/44 48/48/48
f 52/52/52 53/53/53 48/48/48
f 54/54/54 40/40/40 44/44/44
f 53/53/53 54/54/54 44/44/44
f 55/55/55 49/49/49 34/34/34
f 55/55/55 34/34/34 30/30/30
f 54/54/54 56/56/56 40/40/40
f 56/56/56 36/36/36 40/40/40
f 57/57/57 55/55/55 30/30/30
f 57/57/57 30/30/30 26/26/26
f 56/56/56 58/58/58 36/36/36
f 58/58/58 32/32/32 36/36/36
f 59/59/59 57/57/57 26/26/26
f 59/59/59 26/26/26 22/22/22
f 58/58/58 60/60/60 32/32/32
f 60/60/60 28/28/28 32/32/32
f 61/61/61 59/59/59 22/22/22
f 61/61/61 22/22/22 18/18/18
f 60/60/60 62/62/62 28/28/28
f 62/62/62 24/24/24 28/28/28
f 63/63/63 61/61/61 18/18/18
f 63/63/63 18/18/18 14/14/14
f 62/62/62 64/64/64 24/24/24
f 64/64/64 20/20/20 24/24/24
f 65/65/65 63/63/63 14/14/14
f 65/65/65 14/14/14 10/10/10
f 64/64/64 66/66/66 20/20/20
f 66/66/66 16/16/16 20/20/20
f 67/67/67 65/65/65 10/10/10
f 67/67/67 10/10/10 6/6/6
f 66/66/66 68/68/68 16/16/16
f 68/68/68 12/12/12 16/16/16
f 69/69/69 67/67/67 6/6/6
f 69/69/69 6/6/6 3/3/3
f 68/68/68 70/70/70 12/12/12
f 70/70/70 8/8/8 12/12/12
f 71/71/71 69/69/69 3/3/3
f 71/71/71 3/3/3 4/4/4
f 72/72/72 4/4/4 8/8/8
f 70/70/70 72/72/72 8/8/8
f 72/72/72 71/71/71 4/4/4
f 65/65/65 67/67/67 73/73/73
f 67/67/67 69/69/69 74/74/74
f 73/73/73 67/67/67 74/74/74
f 69/69/69 71/71/71 75/75/75
f 74/74/74 69/69/69 75/75/75
f 71/71/71 72/72/72 76/76/76
f 75/75/75 71/71/71 76/76/76
f 72/72/72 70/70/70 77/77/77
f 76/76/76 72/72/72 77/77/77
f 70/70/70 68/68/68 78/78/78
f 77/77/77 70/70/70 78/78/78
f 79/79/79 65/65/65 73/73/73
f 63/63/63 65/65/65 79/79/79
f 78/78/78 68/68/68 80/80/80
f 68/68/68 66/66/66 80/80/80
f 81/81/81 63/63/63 79/79/79
f 61/61/61 63/63/63 81/81/81
f 80/80/80 66/66/66 82/82/82
f 66/66/66 64/64/64 82/82/82
f 83/83/83 61/61/61 81/81/81
f 59/59/59 61/61/61 83/83/83
f 82/82/82 64/64/64 84/84/84
f 64/64/64 62/62/62 84/84/84
f 85/85/85 59/59/59 83/83/83
f 57/57/57 59/59/59 85/85/85
f 84/84/84 62/62/62 86/86/86
f 62/62/62 60/60/60 86/86/86
f 87/87/87 57/57/57 85/85/85
f 55/55/55 57/57/57 87/87/87
f 86/86/86 60/60/60 88/88/88
f 60/60/60 58/58/58 88/88/88
f 89/89/89 55/55/55 87/87/87
f 49/49/49 55/55/55 89/89/89
f 88/88/88 58/58/58 90/90/90
f 58/58/58 56/56/56 90/90/90
f 91/91/91 49/49/49 89/89/89
f 50/50/50 49/49/49 91/91/91
f 90/90/90 56/56/56 92/92/92
f 56/56/56 54/54/54 92/92/92
f 93/93/93 50/50/50 91/91/91
f 51/51/51 50/50/50 93/93/93
f 92/92/92 54/54/54 94/94/94
f 54/54/54 53/53/53 94/94/94
f 95/95/95 51/51/51 93/93/93
f 52/52/52 51/51/51 95/95/95
f 53/53/53 52/52/52 96/96/96
f 94/94/94 53/53/53 96/96/96
f 96/96/96 52/52/52 95/95/95
f 97/97/97 91/91/91 89/89/89
f 98/98/98 93/93/93 91/91/91
f 97/97/97 98/98/98 91/91/91
f 99/99/99 95/95/95 93/93/93
f 98/98/98 99/99/99 93/93/93
f 100/100/100 96/96/96 95/95/95
f 99/99/99 100/100/100 95/95/95
f 101/101/101 94/94/94 96/96/96
f 100/100/100 101/101/101 96/96/96
f 102/102/102 92/92/92 94/94/94
f 101/101/101 102/102/102 94/94/94
f 103/103/103 97/97/97 89/89/89
f 103/103/103 89/89/89 87/87/87
f 102/102/102 104/104/104 92/92/92
f 104/104/104 90/90/90 92/92/92
f 105/105/105 103/103/103 87/87/87
f 105/105/105 87/87/87 85/85/85
f 104/104/104 106/106/106 90/90/90
f 106/106/106 88/88/88 90/90/90
f 107/107/107 105/105/105 85/85/85
f 107/107/107 85/85/85 83/83/83
f 106/106/106 108/108/108 88/88/88
f 108/108/108 86/86/86 88/88/88
f 109/109/109 107/107/107 83/83/83
f 109/109/109 83/83/83 81/81/81
f 108/108/108 110/110/110 86/86/86
f 110/110/110 84/84/84 86/86/86
f 111/111/111 109/109/109 81/81/81
f 111/111/111 81/81/81 79/79/79
f 110/110/110 112/112/112 84/84/84
f 112/112/112 82/82/82 84/84/84
f 113/113/113 111/111/111 79/79/79
f 113/113/113 79/79/79 73/73/73
f 112/112/112 114/114/114 82/82/82
f 114/114/114 80/80/80 82/82/82
f 115/115/115 113/113/113 73/73/73
f 115/115/115 73/73/73 74/74/74
f 114/114/114 116/116/116 80/80/80
f 116/116/116 78/78/78 80/80/80
f 117/117/117 115/115/115 74/74/74
f 117/117/117 74/74/74 75/75/75
f 116/116/116 118/118/118 78/78/78
f 118/118/118 77/77/77 78/78/78
f 119/119/119 117/117/117 75/75/75
f 119/119/119 75/75/75 76/76/76
f 120/120/120 76/76/76 77/77/77
f 118/118/118 120/120/120 77/77/77
f 120/120/120 119/119/119 76/76/76
f 115/115/115 121/121/121 113/113/113
f 121/121/121 122/122/122 113/113/113
f 123/123/123 121/121/121 115/115/115
f 117/117/117 123/123/123 115/115/115
f 113/113/113 122/122/122 111/111/111
f 124/124/124 123/123/123 117/117/117
f 119/119/119 124/124/124 117/117/117
f 122/122/122 125/125/125 111/111/111
f 126/126/126 124/124/124 119/119/119
f 120/120/120 126/126/126 119/119/119
f 111/111/111 125/125/125 109/109/109
f 127/127/127 126/126/126 120/120/120
f 118/118/118 127/127/127 120/120/120
f 125/125/125 128/128/128 109/109/109
f 129/129/129 127/127/127 118/118/118
f 109/109/109 128/128/128 107/107/107
f 116/116/116 129/129/129 118/118/118
f 128/128/128 130/130/130 107/107/107
f 131/131/131 129/129/129 116/116/116
f 107/107/107 130/130/130 105/105/105
f 114/114/114 131/131/131 116/116/116
f 130/130/130 132/132/132 105/105/105
f 133/133/133 131/131/131 114/114/114
f 105/105/105 132/132/132 103/103/103
f 112/112/112 133/133/133 114/114/114
f 132/132/132 134/134/134 103/103/103
f 135/135/135 133/133/133 112/112/112
f 103/103/103 134/134/134 97/97/97
f 110/110/110 135/135/135 112/112/112
f 134/134/134 136/136/136 97/97/97
f 137/137/137 135/135/135 110/110/110
f 97/97/97 136/136/136 98/98/98
f 108/108/108 137/137/137 110/110/110
f 136/136/136 138/138/138 98/98/98
f 139/139/139 137/137/137 108/108/108
f 98/98/98 138/138/138 99/99/99
f 106/106/106 139/139/139 108/108/108
f 138/138/138 140/140/140 99/99/99
f 141/141/141 139/139/139 106/106/106
f 99/99/99 140/140/140 100/100/100
f 104/104/104 141/141/141 106/106/106
f 140/140/140 142/142/142 100/100/100
f 143/143/143 141/141/141 104/104/104
f 100/100/100 142/142/142 101/101/101
f 102/102/102 143/143/143 104/104/104
f 142/142/142 144/144/144 101/101/101
f 144/144/144 143/143/143 102/102/102
f 101/101/101 144/144/144 102/102/102
g PrisonChamberGauge_6_1
f 147/147/147 146/146/146 145/145/145
f 145/145/145 146/146/146 148/148/148
f 149/149/149 146/146/146 147/147/147
f 148/148/148 146/146/146 150/150/150
f 151/151/151 146/146/146 149/149/149
f 150/150/150 146/146/146 152/152/152
f 153/153/153 146/146/146 151/151/151
f 152/152/152 146/146/146 154/154/154
f 155/155/155 146/146/146 153/153/153
f 154/154/154 146/146/146 156/156/156
f 157/157/157 146/146/146 155/155/155
f 156/156/156 146/146/146 158/158/158
f 159/159/159 146/146/146 157/157/157
f 158/158/158 146/146/146 160/160/160
f 161/161/161 146/146/146 159/159/159
f 160/160/160 146/146/146 162/162/162
f 163/163/163 146/146/146 161/161/161
f 162/162/162 146/146/146 164/164/164
f 165/165/165 146/146/146 163/163/163
f 164/164/164 146/146/146 166/166/166
f 167/167/167 146/146/146 165/165/165
f 166/166/166 146/146/146 168/168/168
f 169/169/169 146/146/146 167/167/167
f 168/168/168 146/146/146 169/169/169
