g PrisonChamberGauge_1
v -1.464971 1.312089 1.528235
v -1.487059 1.282645 1.53123
v -1.502014 1.296478 1.542715
v -1.481304 1.324084 1.539907
v -1.449933 1.344655 1.519454
v -1.527924 1.27368 1.539906
v -1.514692 1.258331 1.528235
v -1.467205 1.354618 1.531673
v -1.442971 1.378124 1.505485
v -1.557267 1.257245 1.531673
v -1.545988 1.240802 1.519454
v -1.460677 1.385999 1.518576
v -1.444559 1.410215 1.487281
v -1.588044 1.248293 1.518576
v -1.578813 1.231254 1.505486
v -1.462166 1.416088 1.501508
v -1.454588 1.438742 1.466082
v -1.618158 1.247434 1.501508
v -1.610931 1.230338 1.487281
v -1.471569 1.442835 1.481631
v -1.472376 1.46176 1.443332
v -1.645556 1.254725 1.481631
v -1.640152 1.238114 1.466082
v -1.488247 1.464417 1.460301
v -1.496709 1.4777 1.420582
v -1.668371 1.269671 1.4603
v -1.664486 1.254055 1.443332
v -1.511063 1.479364 1.43897
v -1.525931 1.485478 1.399383
v -1.685049 1.291253 1.43897
v -1.682273 1.277073 1.420582
v -1.53846 1.486655 1.419093
v -1.558048 1.484561 1.381178
v -1.694453 1.318 1.419093
v -1.692303 1.3056 1.399383
v -1.568574 1.485796 1.402025
v -1.590873 1.475013 1.36721
v -1.695941 1.348089 1.402025
v -1.69389 1.337691 1.381178
v -1.599351 1.476843 1.388928
v -1.622169 1.457484 1.358429
v -1.689414 1.37947 1.388927
v -1.686928 1.37116 1.36721
v -1.628695 1.460409 1.380694
v -1.649802 1.43317 1.355434
v -1.675314 1.410005 1.380694
v -1.67189 1.403726 1.358429
v -1.654604 1.437611 1.377886
v -1.693329 1.350197 1.406756
v -1.687032 1.380467 1.394123
v -1.673432 1.40992 1.386181
v -1.653455 1.436549 1.383472
v -1.628463 1.458539 1.386181
v -1.600159 1.474392 1.394123
v -1.691893 1.321173 1.42322
v -1.570472 1.483027 1.406756
v -1.682822 1.295374 1.442393
v -1.541425 1.483856 1.42322
v -1.666735 1.274556 1.462968
v -1.514997 1.476823 1.442393
v -1.644727 1.260139 1.483543
v -1.492989 1.462406 1.462968
v -1.6183 1.253106 1.502716
v -1.476902 1.441588 1.483543
v -1.589252 1.253935 1.51918
v -1.467831 1.415788 1.502716
v -1.559565 1.26257 1.531813
v -1.466395 1.386765 1.51918
v -1.531261 1.278423 1.539755
v -1.472692 1.356495 1.531813
v -1.506269 1.300413 1.542464
v -1.486292 1.327042 1.539755
v -1.560661 1.268287 1.528098
v -1.533884 1.283284 1.535611
v -1.510241 1.304087 1.538173
v -1.491343 1.329279 1.535611
v -1.478477 1.357142 1.528098
v -1.47252 1.385777 1.516146
v -1.588746 1.260118 1.516146
v -1.473878 1.413235 1.500571
v -1.616225 1.259333 1.500571
v -1.482459 1.437642 1.482432
v -1.641227 1.265987 1.482432
v -1.497678 1.457336 1.462968
v -1.662046 1.279626 1.462968
v -1.518498 1.470975 1.443503
v -1.677265 1.29932 1.443504
v -1.543499 1.477628 1.425366
v -1.685846 1.323727 1.425366
v -1.570979 1.476844 1.40979
v -1.687204 1.351184 1.40979
v -1.599064 1.468675 1.397838
v -1.681247 1.37982 1.397838
v -1.62584 1.453678 1.390325
v -1.668382 1.407683 1.390325
v -1.649483 1.432875 1.387763
v -1.681352 1.350501 1.409376
v -1.675637 1.377975 1.397909
v -1.663293 1.404708 1.390701
v -1.645162 1.428878 1.388242
v -1.622478 1.448837 1.390701
v -1.596787 1.463226 1.397909
v -1.680049 1.324158 1.424319
v -1.569842 1.471063 1.409376
v -1.671816 1.300741 1.441722
v -1.543478 1.471815 1.424319
v -1.657215 1.281846 1.460397
v -1.51949 1.465432 1.441722
v -1.63724 1.26876 1.479071
v -1.499515 1.452346 1.460396
v -1.613252 1.262376 1.496474
v -1.484914 1.433451 1.479071
v -1.586888 1.263129 1.511417
v -1.476681 1.410034 1.496473
v -1.559942 1.270967 1.522884
v -1.475378 1.383691 1.511417
v -1.534252 1.285356 1.530092
v -1.481093 1.356217 1.522884
v -1.511568 1.305314 1.53255
v -1.493437 1.329484 1.530092
v -1.555504 1.270754 1.510627
v -1.581123 1.263302 1.499725
v -1.531079 1.284435 1.51748
v -1.509511 1.303412 1.519818
v -1.60619 1.262587 1.485516
v -1.492271 1.326392 1.51748
v -1.480535 1.351809 1.510627
v -1.628997 1.268656 1.46897
v -1.475101 1.377931 1.499724
v -1.647988 1.281098 1.451215
v -1.47634 1.402977 1.485516
v -1.661871 1.299063 1.433459
v -1.484168 1.425242 1.468971
v -1.669699 1.321327 1.416914
v -1.498051 1.443207 1.451215
v -1.670938 1.346374 1.402706
v -1.517043 1.455648 1.433459
v -1.665505 1.372496 1.391803
v -1.539849 1.461718 1.416914
v -1.653768 1.397913 1.38495
v -1.564916 1.461002 1.402706
v -1.636528 1.420893 1.382612
v -1.590535 1.45355 1.391803
v -1.614961 1.43987 1.38495
v -1.669699 1.321327 1.416914
v -1.57302 1.362152 1.451215
v -1.661871 1.299063 1.433459
v -1.670938 1.346374 1.402706
v -1.647988 1.281098 1.451215
v -1.665505 1.372496 1.391803
v -1.628997 1.268656 1.46897
v -1.653768 1.397913 1.38495
v -1.60619 1.262587 1.485516
v -1.636528 1.420893 1.382612
v -1.581123 1.263302 1.499725
v -1.614961 1.43987 1.38495
v -1.555504 1.270754 1.510627
v -1.590535 1.45355 1.391803
v -1.531079 1.284435 1.51748
v -1.564916 1.461002 1.402706
v -1.509511 1.303412 1.519818
v -1.539849 1.461718 1.416914
v -1.492271 1.326392 1.51748
v -1.517043 1.455648 1.433459
v -1.480535 1.351809 1.510627
v -1.498051 1.443207 1.451215
v -1.475101 1.377931 1.499724
v -1.484168 1.425242 1.468971
v -1.47634 1.402977 1.485516
vt 0.4175676 0.9421018
vt 0.4196119 0.9495133
vt 0.4239075 0.9477372
vt 0.4221689 0.9415073
vt 0.4175424 0.9344484
vt 0.427191 0.953299
vt 0.4235077 0.9561233
vt 0.4221369 0.9350624
vt 0.419459 0.927065
vt 0.4317917 0.9578158
vt 0.4289664 0.9614885
vt 0.4237411 0.9288392
vt 0.423216 0.9203877
vt 0.437397 0.9609875
vt 0.4356092 0.9652626
vt 0.4269035 0.9232163
vt 0.4286082 0.914896
vt 0.4436279 0.9626181
vt 0.442996 0.9672207
vt 0.4314407 0.918599
vt 0.4352669 0.9109976
vt 0.4500942 0.9625836
vt 0.4506807 0.9672215
vt 0.4370337 0.9153129
vt 0.4427077 0.908991
vt 0.4563727 0.9608369
vt 0.4581718 0.965205
vt 0.4432829 0.9136027
vt 0.4503664 0.9090054
vt 0.4619589 0.9574804
vt 0.4649585 0.9612539
vt 0.4497275 0.9135856
vt 0.4577127 0.9109794
vt 0.4664701 0.9528304
vt 0.4702768 0.955538
vt 0.455923 0.9152229
vt 0.4642912 0.9147508
vt 0.4695613 0.9471987
vt 0.4738498 0.9488081
vt 0.4614764 0.9183924
vt 0.4697019 0.9200815
vt 0.4711331 0.9410031
vt 0.4755926 0.941521
vt 0.4660437 0.9228817
vt 0.4735651 0.9266459
vt 0.471049 0.9345893
vt 0.4755806 0.9339963
vt 0.4693068 0.9284058
vt 0.4685571 0.9468019
vt 0.4700549 0.9408791
vt 0.4699727 0.9347452
vt 0.468307 0.92883
vt 0.4651878 0.9235473
vt 0.4608251 0.9192529
vt 0.4655942 0.9521781
vt 0.4555158 0.9162259
vt 0.4612799 0.9566191
vt 0.4495923 0.9146637
vt 0.4559397 0.9598224
vt 0.4434306 0.9146888
vt 0.4499419 0.9614933
vt 0.4374571 0.9163238
vt 0.4437608 0.9615347
vt 0.4321126 0.9194649
vt 0.4378055 0.959981
vt 0.4277747 0.9238753
vt 0.4324497 0.9569471
vt 0.4247479 0.9292451
vt 0.4280524 0.9526289
vt 0.4232182 0.9351935
vt 0.4249146 0.9473118
vt 0.4232529 0.9413556
vt 0.4332172 0.9559301
vt 0.4290581 0.9518439
vt 0.4260911 0.9468126
vt 0.4245151 0.9411783
vt 0.4244746 0.935348
vt 0.4259278 0.9297211
vt 0.4382851 0.9588016
vt 0.4288008 0.9246482
vt 0.4439197 0.9602603
vt 0.4328996 0.9204757
vt 0.4497613 0.9602225
vt 0.4379519 0.9174963
vt 0.4554343 0.9586464
vt 0.4436052 0.9159548
vt 0.460485 0.955613
vt 0.4494333 0.9159248
vt 0.4645634 0.9514134
vt 0.4550337 0.9174058
vt 0.4673785 0.9463373
vt 0.4600606 0.9202608
vt 0.4688023 0.9407337
vt 0.4641882 0.9243267
vt 0.4687182 0.9349266
vt 0.4671381 0.9293273
vt 0.4663834 0.9459407
vt 0.4677374 0.9406089
vt 0.4676554 0.9350812
vt 0.4661516 0.9297499
vt 0.4633454 0.9249874
vt 0.4594172 0.9211131
vt 0.4637021 0.9507711
vt 0.4546307 0.9183941
vt 0.4598126 0.9547631
vt 0.4492979 0.91699
vt 0.4550043 0.9576458
vt 0.4437518 0.9170251
vt 0.4496096 0.9591496
vt 0.4383736 0.9184946
vt 0.4440516 0.9591928
vt 0.4335656 0.9213279
vt 0.4386901 0.9578039
vt 0.4296625 0.9252957
vt 0.4338633 0.9550731
vt 0.4269249 0.9301224
vt 0.4299058 0.9511789
vt 0.4255448 0.9354765
vt 0.4270839 0.9463888
vt 0.4255814 0.9410256
vt 0.4352567 0.9532056
vt 0.439556 0.9556509
vt 0.4317361 0.9497337
vt 0.4292344 0.945466
vt 0.4443294 0.956933
vt 0.4279365 0.940684
vt 0.4278076 0.9357482
vt 0.449278 0.9568316
vt 0.4290791 0.9309863
vt 0.4540548 0.9554384
vt 0.4315301 0.9266914
vt 0.4583547 0.9529235
vt 0.4350118 0.9231733
vt 0.4618354 0.9493862
vt 0.4393056 0.9206982
vt 0.4642791 0.9451081
vt 0.444068 0.9193422
vt 0.4654329 0.9403418
vt 0.4490049 0.9192882
vt 0.4653085 0.9354241
vt 0.4537771 0.9204881
vt 0.464013 0.9306692
vt 0.4580277 0.9229577
vt 0.4615245 0.9264224
vt 0.4618354 0.9493862
vt 0.446651 0.9380687
vt 0.4583547 0.9529235
vt 0.4642791 0.9451081
vt 0.4540548 0.9554384
vt 0.4654329 0.9403418
vt 0.449278 0.9568316
vt 0.4653085 0.9354241
vt 0.4443294 0.956933
vt 0.464013 0.9306692
vt 0.439556 0.9556509
vt 0.4615245 0.9264224
vt 0.4352567 0.9532056
vt 0.4580277 0.9229577
vt 0.4317361 0.9497337
vt 0.4537771 0.9204881
vt 0.4292344 0.945466
vt 0.4490049 0.9192882
vt 0.4279365 0.940684
vt 0.444068 0.9193422
vt 0.4278076 0.9357482
vt 0.4393056 0.9206982
vt 0.4290791 0.9309863
vt 0.4350118 0.9231733
vt 0.4315301 0.9266914
vn 0.5051148 -0.1407064 0.851505
vn 0.3605179 -0.3334508 0.8711128
vn 0.1807651 -0.1671945 0.969211
vn 0.304922 -0.001689624 0.9523758
vn 0.6035561 0.07247499 0.7940198
vn 0.02543901 -0.3038603 0.952377
vn 0.1796238 -0.4926174 0.8515065
vn 0.3894452 0.1813528 0.9030191
vn 0.649133 0.29157 0.7025763
vn -0.1504726 -0.4023789 0.9030222
vn -0.02523983 -0.6073638 0.7940227
vn 0.4285699 0.3694787 0.824508
vn 0.6387393 0.5016459 0.5834066
vn -0.3349823 -0.4560432 0.8245068
vn -0.2401214 -0.6698695 0.7025784
vn 0.4196466 0.549863 0.7221824
vn 0.573088 0.6883849 0.4446306
vn -0.5155164 -0.4611886 0.7221827
vn -0.4503699 -0.6758695 0.58341
vn 0.3632762 0.7102086 0.603021
vn 0.4566486 0.8390648 0.2957065
vn -0.6797585 -0.4174824 0.6030231
vn -0.6416563 -0.6249613 0.4446352
vn 0.2632939 0.8395905 0.4751464
vn 0.2973532 0.9434164 0.1467874
vn -0.8165298 -0.32789 0.4751496
vn -0.8009481 -0.5206107 0.2957138
vn 0.1265198 0.9291916 0.3472691
vn 0.1060564 0.9943277 0.00801825
vn -0.9165124 -0.1985078 0.3472745
vn -0.9173917 -0.3699256 0.1467906
vn -0.03773082 0.972903 0.2281142
vn -0.1041966 0.9883263 -0.1111494
vn -0.9728871 -0.03817135 0.228109
vn -0.9830457 -0.1831858 0.008014598
vn -0.218261 0.9677485 0.1257972
vn -0.3190711 0.9258235 -0.2025947
vn -0.981811 0.1422129 0.1257885
vn -0.993439 0.0268871 -0.1111577
vn -0.402766 0.9140814 0.04727288
vn -0.5239369 0.8110777 -0.260083
vn -0.9426758 0.3303435 0.04728151
vn -0.9478624 0.2459822 -0.202607
vn -0.5786768 0.8155543 -0.002089087
vn -0.7048289 0.6519123 -0.2796899
vn -0.858152 0.5133915 -0.002073854
vn -0.8494226 0.4591684 -0.2600879
vn -0.7340001 0.6788858 -0.01891499
vn -0.7242686 0.350706 0.5936667
vn -0.707948 0.4291122 0.5609565
vn -0.6727249 0.5053956 0.5403854
vn -0.6209952 0.5743636 0.5333586
vn -0.5562648 0.6313192 0.5403753
vn -0.4829469 0.6723776 0.5609552
vn -0.7205589 0.2755236 0.6363031
vn -0.4060526 0.6947454 0.593675
vn -0.6970652 0.2087039 0.6859613
vn -0.3308217 0.6968982 0.6363095
vn -0.6553895 0.1547903 0.7392595
vn -0.2623776 0.678678 0.6859696
vn -0.5983828 0.1174617 0.7925532
vn -0.2053792 0.6413336 0.7392636
vn -0.5299401 0.09924456 0.8422078
vn -0.1637085 0.5874157 0.7925544
vn -0.4547025 0.1013827 0.8848544
vn -0.1402166 0.5205886 0.8422154
vn -0.3778063 0.1237444 0.9175782
vn -0.1364933 0.4454169 0.8848578
vn -0.3044921 0.1648019 0.9381498
vn -0.1527803 0.3670194 0.9175811
vn -0.2397583 0.2217585 0.9451662
vn -0.188011 0.290733 0.9381504
vn -0.4819773 0.6282558 0.610731
vn -0.5412491 0.595063 0.5940955
vn -0.5935873 0.549021 0.5884131
vn -0.6354171 0.4932558 0.5940909
vn -0.6638898 0.4315802 0.610728
vn -0.6770743 0.3681923 0.6371852
vn -0.4198119 0.6463423 0.6371809
vn -0.6740621 0.3074171 0.6716658
vn -0.3589888 0.6480758 0.6716582
vn -0.6550617 0.2533983 0.711817
vn -0.3036501 0.6333395 0.7118129
vn -0.6213827 0.2098071 0.7548937
vn -0.2575769 0.6031498 0.7548936
vn -0.5753096 0.1796134 0.7979712
vn -0.2238938 0.5595638 0.7979724
vn -0.519967 0.164882 0.8381218
vn -0.2048834 0.5055414 0.8381233
vn -0.459132 0.1666218 0.8726024
vn -0.2018764 0.4447667 0.8725987
vn -0.3969699 0.1847014 0.8990552
vn -0.215072 0.3813854 0.8990491
vn -0.3377061 0.2178955 0.9156834
vn -0.243553 0.319713 0.9156777
vn -0.2853787 0.2639487 0.9213523
vn 0.3545198 0.3883535 0.8505864
vn 0.3179169 0.2124211 0.9240163
vn 0.2388653 0.04122982 0.970177
vn 0.1227601 -0.1135459 0.9859195
vn -0.02249877 -0.2413572 0.9701755
vn -0.1870164 -0.3334928 0.924017
vn 0.3461775 0.5570453 0.7548918
vn -0.3595657 -0.3836894 0.850585
vn 0.2934482 0.7069989 0.6434599
vn -0.5283879 -0.3885158 0.7548918
vn 0.1999455 0.8279943 0.5238769
vn -0.6819985 -0.3476258 0.643455
vn 0.07203528 0.9117943 0.4042797
vn -0.8099108 -0.2638193 0.523874
vn -0.08156964 0.9526787 0.2928307
vn -0.9034102 -0.1428264 0.4042904
vn -0.2503973 0.9478604 0.1971344
vn -0.9561321 0.007124622 0.292849
vn -0.4229488 0.897669 0.1237125
vn -0.9644808 0.1758154 0.1971443
vn -0.5874618 0.8055268 0.0775568
vn -0.9278861 0.3517451 0.1237041
vn -0.7327265 0.6777114 0.06180021
vn -0.8488386 0.5229344 0.07754104
vn -0.3425632 0.9289827 -0.1401486
vn -0.134014 0.9896458 -0.05139566
vn -0.5413914 0.8176218 -0.1959331
vn -0.7169698 0.6631343 -0.2149588
vn 0.07005022 0.9954717 0.06425706
vn -0.857307 0.4760607 -0.195936
vn -0.9528441 0.2691617 -0.1401431
vn 0.2557187 0.9460607 0.19894
vn -0.9970779 0.05651753 -0.05139481
vn 0.4103207 0.8447796 0.3434885
vn -0.986991 -0.147378 0.06425367
vn 0.5233174 0.698539 0.4880391
vn -0.9232683 -0.3286271 0.1989469
vn 0.5870391 0.517292 0.6227313
vn -0.8102548 -0.4748715 0.3434882
vn 0.5971397 0.3134 0.7383797
vn -0.6556475 -0.5761573 0.4880259
vn 0.552915 0.1007527 0.8271238
vn -0.469991 -0.6255668 0.6227154
vn 0.4573705 -0.1061594 0.882917
vn -0.2659361 -0.6197438 0.7383736
vn 0.3170234 -0.2932234 0.9019513
vn -0.05738308 -0.5590806 0.8271252
vn 0.1414535 -0.4477042 0.8829224
vn -0.4561515 0.4219064 0.783531
vn -0.4561515 0.4219031 0.7835328
vn -0.4561479 0.4218976 0.7835379
vn -0.4561542 0.4219039 0.7835308
vn -0.4561497 0.4218976 0.7835367
vn -0.4561534 0.4218955 0.7835357
vn -0.4561565 0.4219004 0.7835312
vn -0.4561496 0.4219029 0.783534
vn -0.4561574 0.4219019 0.7835299
vn -0.4561508 0.4219045 0.7835324
vn -0.4561507 0.4219019 0.7835338
vn -0.4561509 0.4219049 0.7835321
vn -0.4561528 0.4219017 0.7835328
vn -0.4561517 0.4219056 0.7835312
vn -0.4561554 0.4219021 0.7835311
vn -0.4561507 0.4219043 0.7835326
vn -0.45615 0.4219074 0.7835312
vn -0.4561489 0.421905 0.7835332
vn -0.4561486 0.4219042 0.7835339
vn -0.4561527 0.4219061 0.7835305
vn -0.4561498 0.4219011 0.7835348
vn -0.4561506 0.4219053 0.7835321
vn -0.4561509 0.4219028 0.7835333
vn -0.4561504 0.4219063 0.7835316
vn -0.4561517 0.4219048 0.7835316
g PrisonChamberGauge_1_0
f 3/3/3 2/2/2 1/1/1
f 4/4/4 3/3/3 1/1/1
f 4/4/4 1/1/1 5/5/5
f 3/3/3 6/6/6 2/2/2
f 6/6/6 7/7/7 2/2/2
f 8/8/8 4/4/4 5/5/5
f 8/8/8 5/5/5 9/9/9
f 6/6/6 10/10/10 7/7/7
f 10/10/10 11/11/11 7/7/7
f 12/12/12 8/8/8 9/9/9
f 12/12/12 9/9/9 13/13/13
f 10/10/10 14/14/14 11/11/11
f 14/14/14 15/15/15 11/11/11
f 16/16/16 12/12/12 13/13/13
f 16/16/16 13/13/13 17/17/17
f 14/14/14 18/18/18 15/15/15
f 18/18/18 19/19/19 15/15/15
f 20/20/20 16/16/16 17/17/17
f 20/20/20 17/17/17 21/21/21
f 18/18/18 22/22/22 19/19/19
f 22/22/22 23/23/23 19/19/19
f 24/24/24 20/20/20 21/21/21
f 24/24/24 21/21/21 25/25/25
f 22/22/22 26/26/26 23/23/23
f 26/26/26 27/27/27 23/23/23
f 28/28/28 24/24/24 25/25/25
f 28/28/28 25/25/25 29/29/29
f 26/26/26 30/30/30 27/27/27
f 30/30/30 31/31/31 27/27/27
f 32/32/32 28/28/28 29/29/29
f 32/32/32 29/29/29 33/33/33
f 30/30/30 34/34/34 31/31/31
f 34/34/34 35/35/35 31/31/31
f 36/36/36 32/32/32 33/33/33
f 36/36/36 33/33/33 37/37/37
f 34/34/34 38/38/38 35/35/35
f 38/38/38 39/39/39 35/35/35
f 40/40/40 36/36/36 37/37/37
f 40/40/40 37/37/37 41/41/41
f 38/38/38 42/42/42 39/39/39
f 42/42/42 43/43/43 39/39/39
f 44/44/44 40/40/40 41/41/41
f 44/44/44 41/41/41 45/45/45
f 42/42/42 46/46/46 43/43/43
f 46/46/46 47/47/47 43/43/43
f 48/48/48 45/45/45 47/47/47
f 48/48/48 44/44/44 45/45/45
f 46/46/46 48/48/48 47/47/47
f 49/49/49 38/38/38 34/34/34
f 50/50/50 42/42/42 38/38/38
f 49/49/49 50/50/50 38/38/38
f 51/51/51 46/46/46 42/42/42
f 50/50/50 51/51/51 42/42/42
f 52/52/52 48/48/48 46/46/46
f 51/51/51 52/52/52 46/46/46
f 53/53/53 44/44/44 48/48/48
f 52/52/52 53/53/53 48/48/48
f 54/54/54 40/40/40 44/44/44
f 53/53/53 54/54/54 44/44/44
f 55/55/55 49/49/49 34/34/34
f 55/55/55 34/34/34 30/30/30
f 54/54/54 56/56/56 40/40/40
f 56/56/56 36/36/36 40/40/40
f 57/57/57 55/55/55 30/30/30
f 57/57/57 30/30/30 26/26/26
f 56/56/56 58/58/58 36/36/36
f 58/58/58 32/32/32 36/36/36
f 59/59/59 57/57/57 26/26/26
f 59/59/59 26/26/26 22/22/22
f 58/58/58 60/60/60 32/32/32
f 60/60/60 28/28/28 32/32/32
f 61/61/61 59/59/59 22/22/22
f 61/61/61 22/22/22 18/18/18
f 60/60/60 62/62/62 28/28/28
f 62/62/62 24/24/24 28/28/28
f 63/63/63 61/61/61 18/18/18
f 63/63/63 18/18/18 14/14/14
f 62/62/62 64/64/64 24/24/24
f 64/64/64 20/20/20 24/24/24
f 65/65/65 63/63/63 14/14/14
f 65/65/65 14/14/14 10/10/10
f 64/64/64 66/66/66 20/20/20
f 66/66/66 16/16/16 20/20/20
f 67/67/67 65/65/65 10/10/10
f 67/67/67 10/10/10 6/6/6
f 66/66/66 68/68/68 16/16/16
f 68/68/68 12/12/12 16/16/16
f 69/69/69 67/67/67 6/6/6
f 69/69/69 6/6/6 3/3/3
f 68/68/68 70/70/70 12/12/12
f 70/70/70 8/8/8 12/12/12
f 71/71/71 69/69/69 3/3/3
f 71/71/71 3/3/3 4/4/4
f 72/72/72 4/4/4 8/8/8
f 70/70/70 72/72/72 8/8/8
f 72/72/72 71/71/71 4/4/4
f 65/65/65 67/67/67 73/73/73
f 67/67/67 69/69/69 74/74/74
f 73/73/73 67/67/67 74/74/74
f 69/69/69 71/71/71 75/75/75
f 74/74/74 69/69/69 75/75/75
f 71/71/71 72/72/72 76/76/76
f 75/75/75 71/71/71 76/76/76
f 72/72/72 70/70/70 77/77/77
f 76/76/76 72/72/72 77/77/77
f 70/70/70 68/68/68 78/78/78
f 77/77/77 70/70/70 78/78/78
f 79/79/79 65/65/65 73/73/73
f 63/63/63 65/65/65 79/79/79
f 78/78/78 68/68/68 80/80/80
f 68/68/68 66/66/66 80/80/80
f 81/81/81 63/63/63 79/79/79
f 61/61/61 63/63/63 81/81/81
f 80/80/80 66/66/66 82/82/82
f 66/66/66 64/64/64 82/82/82
f 83/83/83 61/61/61 81/81/81
f 59/59/59 61/61/61 83/83/83
f 82/82/82 64/64/64 84/84/84
f 64/64/64 62/62/62 84/84/84
f 85/85/85 59/59/59 83/83/83
f 57/57/57 59/59/59 85/85/85
f 84/84/84 62/62/62 86/86/86
f 62/62/62 60/60/60 86/86/86
f 87/87/87 57/57/57 85/85/85
f 55/55/55 57/57/57 87/87/87
f 86/86/86 60/60/60 88/88/88
f 60/60/60 58/58/58 88/88/88
f 89/89/89 55/55/55 87/87/87
f 49/49/49 55/55/55 89/89/89
f 88/88/88 58/58/58 90/90/90
f 58/58/58 56/56/56 90/90/90
f 91/91/91 49/49/49 89/89/89
f 50/50/50 49/49/49 91/91/91
f 90/90/90 56/56/56 92/92/92
f 56/56/56 54/54/54 92/92/92
f 93/93/93 50/50/50 91/91/91
f 51/51/51 50/50/50 93/93/93
f 92/92/92 54/54/54 94/94/94
f 54/54/54 53/53/53 94/94/94
f 95/95/95 51/51/51 93/93/93
f 52/52/52 51/51/51 95/95/95
f 53/53/53 52/52/52 96/96/96
f 94/94/94 53/53/53 96/96/96
f 96/96/96 52/52/52 95/95/95
f 97/97/97 91/91/91 89/89/89
f 98/98/98 93/93/93 91/91/91
f 97/97/97 98/98/98 91/91/91
f 99/99/99 95/95/95 93/93/93
f 98/98/98 99/99/99 93/93/93
f 100/100/100 96/96/96 95/95/95
f 99/99/99 100/100/100 95/95/95
f 101/101/101 94/94/94 96/96/96
f 100/100/100 101/101/101 96/96/96
f 102/102/102 92/92/92 94/94/94
f 101/101/101 102/102/102 94/94/94
f 103/103/103 97/97/97 89/89/89
f 103/103/103 89/89/89 87/87/87
f 102/102/102 104/104/104 92/92/92
f 104/104/104 90/90/90 92/92/92
f 105/105/105 103/103/103 87/87/87
f 105/105/105 87/87/87 85/85/85
f 104/104/104 106/106/106 90/90/90
f 106/106/106 88/88/88 90/90/90
f 107/107/107 105/105/105 85/85/85
f 107/107/107 85/85/85 83/83/83
f 106/106/106 108/108/108 88/88/88
f 108/108/108 86/86/86 88/88/88
f 109/109/109 107/107/107 83/83/83
f 109/109/109 83/83/83 81/81/81
f 108/108/108 110/110/110 86/86/86
f 110/110/110 84/84/84 86/86/86
f 111/111/111 109/109/109 81/81/81
f 111/111/111 81/81/81 79/79/79
f 110/110/110 112/112/112 84/84/84
f 112/112/112 82/82/82 84/84/84
f 113/113/113 111/111/111 79/79/79
f 113/113/113 79/79/79 73/73/73
f 112/112/112 114/114/114 82/82/82
f 114/114/114 80/80/80 82/82/82
f 115/115/115 113/113/113 73/73/73
f 115/115/115 73/73/73 74/74/74
f 114/114/114 116/116/116 80/80/80
f 116/116/116 78/78/78 80/80/80
f 117/117/117 115/115/115 74/74/74
f 117/117/117 74/74/74 75/75/75
f 116/116/116 118/118/118 78/78/78
f 118/118/118 77/77/77 78/78/78
f 119/119/119 117/117/117 75/75/75
f 119/119/119 75/75/75 76/76/76
f 120/120/120 76/76/76 77/77/77
f 118/118/118 120/120/120 77/77/77
f 120/120/120 119/119/119 76/76/76
f 115/115/115 121/121/121 113/113/113
f 121/121/121 122/122/122 113/113/113
f 123/123/123 121/121/121 115/115/115
f 117/117/117 123/123/123 115/115/115
f 113/113/113 122/122/122 111/111/111
f 124/124/124 123/123/123 117/117/117
f 119/119/119 124/124/124 117/117/117
f 122/122/122 125/125/125 111/111/111
f 126/126/126 124/124/124 119/119/119
f 120/120/120 126/126/126 119/119/119
f 111/111/111 125/125/125 109/109/109
f 127/127/127 126/126/126 120/120/120
f 118/118/118 127/127/127 120/120/120
f 125/125/125 128/128/128 109/109/109
f 129/129/129 127/127/127 118/118/118
f 109/109/109 128/128/128 107/107/107
f 116/116/116 129/129/129 118/118/118
f 128/128/128 130/130/130 107/107/107
f 131/131/131 129/129/129 116/116/116
f 107/107/107 130/130/130 105/105/105
f 114/114/114 131/131/131 116/116/116
f 130/130/130 132/132/132 105/105/105
f 133/133/133 131/131/131 114/114/114
f 105/105/105 132/132/132 103/103/103
f 112/112/112 133/133/133 114/114/114
f 132/132/132 134/134/134 103/103/103
f 135/135/135 133/133/133 112/112/112
f 103/103/103 134/134/134 97/97/97
f 110/110/110 135/135/135 112/112/112
f 134/134/134 136/136/136 97/97/97
f 137/137/137 135/135/135 110/110/110
f 97/97/97 136/136/136 98/98/98
f 108/108/108 137/137/137 110/110/110
f 136/136/136 138/138/138 98/98/98
f 139/139/139 137/137/137 108/108/108
f 98/98/98 138/138/138 99/99/99
f 106/106/106 139/139/139 108/108/108
f 138/138/138 140/140/140 99/99/99
f 141/141/141 139/139/139 106/106/106
f 99/99/99 140/140/140 100/100/100
f 104/104/104 141/141/141 106/106/106
f 140/140/140 142/142/142 100/100/100
f 143/143/143 141/141/141 104/104/104
f 100/100/100 142/142/142 101/101/101
f 102/102/102 143/143/143 104/104/104
f 142/142/142 144/144/144 101/101/101
f 144/144/144 143/143/143 102/102/102
f 101/101/101 144/144/144 102/102/102
g PrisonChamberGauge_1_1
f 147/147/147 146/146/146 145/145/145
f 145/145/145 146/146/146 148/148/148
f 149/149/149 146/146/146 147/147/147
f 148/148/148 146/146/146 150/150/150
f 151/151/151 146/146/146 149/149/149
f 150/150/150 146/146/146 152/152/152
f 153/153/153 146/146/146 151/151/151
f 152/152/152 146/146/146 154/154/154
f 155/155/155 146/146/146 153/153/153
f 154/154/154 146/146/146 156/156/156
f 157/157/157 146/146/146 155/155/155
f 156/156/156 146/146/146 158/158/158
f 159/159/159 146/146/146 157/157/157
f 158/158/158 146/146/146 160/160/160
f 161/161/161 146/146/146 159/159/159
f 160/160/160 146/146/146 162/162/162
f 163/163/163 146/146/146 161/161/161
f 162/162/162 146/146/146 164/164/164
f 165/165/165 146/146/146 163/163/163
f 164/164/164 146/146/146 166/166/166
f 167/167/167 146/146/146 165/165/165
f 166/166/166 146/146/146 168/168/168
f 169/169/169 146/146/146 167/167/167
f 168/168/168 146/146/146 169/169/169
