g PrisonChamberButton_1
v 1.571518 -0.7999972 1.290218
v 1.577937 -0.7807693 1.292418
v 1.597309 -0.790355 1.309301
v 1.591596 -0.8074711 1.307343
v 1.570848 -0.8193666 1.283884
v 1.60745 -0.7754294 1.307343
v 1.589329 -0.7640025 1.290218
v 1.590998 -0.8247132 1.301705
v 1.576005 -0.8365413 1.274181
v 1.620794 -0.7644948 1.301705
v 1.60432 -0.7517189 1.283884
v 1.59559 -0.8400017 1.293067
v 1.586369 -0.8494504 1.262277
v 1.635734 -0.7588699 1.293067
v 1.621103 -0.7454 1.274181
v 1.604815 -0.8514929 1.282471
v 1.60069 -0.8565362 1.24961
v 1.650466 -0.7592333 1.282471
v 1.637652 -0.7458081 1.262278
v 1.617563 -0.8578005 1.271195
v 1.617239 -0.8569444 1.237707
v 1.663214 -0.7655408 1.271196
v 1.651973 -0.7528938 1.24961
v 1.632295 -0.858164 1.260599
v 1.634022 -0.8506254 1.228004
v 1.672439 -0.777032 1.260599
v 1.662337 -0.7658027 1.237707
v 1.647234 -0.852539 1.251962
v 1.649013 -0.8383418 1.22167
v 1.677031 -0.7923206 1.251962
v 1.667494 -0.7829776 1.228004
v 1.660579 -0.8416044 1.246324
v 1.660405 -0.8215747 1.21947
v 1.676434 -0.8095629 1.246324
v 1.666823 -0.8023472 1.22167
v 1.67072 -0.826679 1.244366
v 1.664497 -0.7712012 1.277091
v 1.672915 -0.7816867 1.267422
v 1.677104 -0.7956372 1.25954
v 1.67656 -0.8113706 1.254395
v 1.671346 -0.8269888 1.252609
v 1.662093 -0.8406081 1.254395
v 1.652864 -0.7654454 1.28738
v 1.649916 -0.8505858 1.25954
v 1.639422 -0.765114 1.297048
v 1.636284 -0.8557183 1.267422
v 1.62579 -0.7702465 1.30493
v 1.622841 -0.8553869 1.277091
v 1.613613 -0.7802242 1.310075
v 1.611209 -0.8496312 1.28738
v 1.604359 -0.7938435 1.311862
v 1.60279 -0.8391457 1.297048
v 1.599146 -0.8094619 1.310075
v 1.598601 -0.825195 1.30493
v 1.619189 -0.7859762 1.307734
v 1.611457 -0.7973557 1.309227
v 1.639443 -0.8112028 1.284472
v 1.629363 -0.7776393 1.303435
v 1.607101 -0.8104054 1.307734
v 1.606646 -0.8235512 1.303435
v 1.640754 -0.7733508 1.29685
v 1.610147 -0.8352077 1.29685
v 1.651986 -0.7736279 1.288771
v 1.617181 -0.8439687 1.288771
v 1.661705 -0.778437 1.280174
v 1.6269 -0.8487779 1.280174
v 1.668738 -0.787198 1.272096
v 1.638132 -0.8490548 1.272096
v 1.672239 -0.7988544 1.26551
v 1.649522 -0.8447663 1.26551
v 1.671784 -0.8120003 1.261211
v 1.659696 -0.8364295 1.261211
v 1.667428 -0.8250501 1.259718
v 1.555913 -0.7971767 1.2901
v 1.564047 -0.7739941 1.293252
v 1.569341 -0.7765161 1.296911
v 1.561796 -0.7991193 1.294325
v 1.554797 -0.8205499 1.281973
v 1.582733 -0.7568058 1.294325
v 1.57762 -0.7533075 1.2901
v 1.561007 -0.8218892 1.286879
v 1.560834 -0.8412947 1.269851
v 1.600356 -0.7423658 1.28688
v 1.595524 -0.7382413 1.281973
v 1.56707 -0.8420793 1.275472
v 1.573296 -0.856909 1.255197
v 1.620085 -0.7349377 1.275472
v 1.615678 -0.7304559 1.269851
v 1.579254 -0.8572543 1.261479
v 1.590679 -0.8655095 1.239778
v 1.639539 -0.7354173 1.26148
v 1.635651 -0.7308903 1.255197
v 1.596088 -0.8655841 1.246588
v 1.610887 -0.8660585 1.225453
v 1.656374 -0.7437471 1.246589
v 1.653033 -0.7394919 1.239778
v 1.615543 -0.8660637 1.232596
v 1.631483 -0.8584903 1.213951
v 1.668557 -0.758922 1.232596
v 1.665729 -0.7552237 1.225453
v 1.635272 -0.8586355 1.221189
v 1.649982 -0.8437171 1.206658
v 1.674621 -0.7791122 1.221189
v 1.672206 -0.7761881 1.213951
v 1.652895 -0.8441954 1.213743
v 1.664153 -0.8235214 1.204455
v 1.673832 -0.8018821 1.213743
v 1.671685 -0.7998564 1.206658
v 1.666287 -0.8244852 1.211158
v 1.655997 -0.7469711 1.248833
v 1.667632 -0.7614636 1.23547
v 1.673423 -0.7807456 1.224576
v 1.672669 -0.8024914 1.217465
v 1.665464 -0.824078 1.214996
v 1.652674 -0.8429019 1.217465
v 1.639919 -0.7390159 1.263055
v 1.635844 -0.8566924 1.224576
v 1.621339 -0.7385578 1.276418
v 1.617002 -0.8637865 1.23547
v 1.602498 -0.7456518 1.287312
v 1.598422 -0.8633284 1.248833
v 1.585667 -0.7594426 1.294423
v 1.582345 -0.8553733 1.263054
v 1.572878 -0.7782663 1.296892
v 1.570709 -0.8408806 1.276418
v 1.565672 -0.7998529 1.294423
v 1.564919 -0.8215986 1.287312
v 1.589329 -0.7640025 1.290218
v 1.577937 -0.7807693 1.292418
v 1.60432 -0.7517189 1.283884
v 1.571518 -0.7999972 1.290218
v 1.570848 -0.8193666 1.283884
v 1.621103 -0.7454 1.274181
v 1.576005 -0.8365413 1.274181
v 1.586369 -0.8494504 1.262277
v 1.637652 -0.7458081 1.262278
v 1.60069 -0.8565362 1.24961
v 1.651973 -0.7528938 1.24961
v 1.617239 -0.8569444 1.237707
v 1.662337 -0.7658027 1.237707
v 1.634022 -0.8506254 1.228004
v 1.667494 -0.7829776 1.228004
v 1.649013 -0.8383418 1.22167
v 1.666823 -0.8023472 1.22167
v 1.660405 -0.8215747 1.21947
vt 0.769857 0.9737586
vt 0.7741516 0.9741492
vt 0.7737989 0.969313
vt 0.7712237 0.9689941
vt 0.7658836 0.9718588
vt 0.7763031 0.9687362
vt 0.7782301 0.9730724
vt 0.768904 0.967787
vt 0.7627953 0.9686238
vt 0.7784508 0.9673619
vt 0.781637 0.9707365
vt 0.7671693 0.9658387
vt 0.7611376 0.9644448
vt 0.7800246 0.965355
vt 0.7840455 0.9674514
vt 0.7661534 0.9634288
vt 0.761076 0.9599676
vt 0.7807744 0.9629282
vt 0.7853153 0.9636063
vt 0.7660642 0.9607926
vt 0.7625803 0.9557964
vt 0.7806897 0.9604094
vt 0.785255 0.9595462
vt 0.7669143 0.958288
vt 0.7654131 0.9524493
vt 0.7797789 0.9580633
vt 0.7838392 0.9557024
vt 0.7685795 0.9562482
vt 0.7691846 0.9503148
vt 0.7781293 0.9561465
vt 0.7811882 0.9525206
vt 0.7708245 0.9549258
vt 0.773412 0.9496164
vt 0.7759055 0.9548906
vt 0.7775769 0.9503962
vt 0.7733704 0.9544606
vt 0.7795907 0.9606463
vt 0.7788202 0.9586388
vt 0.777402 0.957015
vt 0.7755121 0.9559643
vt 0.773366 0.9556116
vt 0.7712181 0.9560159
vt 0.7796555 0.9627882
vt 0.7693322 0.9571418
vt 0.7790014 0.9648346
vt 0.7679577 0.9588639
vt 0.7776719 0.9665327
vt 0.7672331 0.9609532
vt 0.7758461 0.9676878
vt 0.7672998 0.9631677
vt 0.773725 0.968161
vt 0.7681377 0.9652094
vt 0.7715549 0.9678772
vt 0.7696076 0.9668517
vt 0.7754236 0.9666814
vt 0.7736703 0.9670634
vt 0.7734913 0.9618859
vt 0.7769371 0.9657317
vt 0.7718836 0.9668205
vt 0.7702841 0.9659709
vt 0.7780365 0.9643306
vt 0.7690724 0.9646168
vt 0.7785848 0.9626415
vt 0.7683897 0.9629317
vt 0.7785333 0.960866
vt 0.7683372 0.9611142
vt 0.7778909 0.9592076
vt 0.7689245 0.9593966
vt 0.776715 0.957864
vt 0.7700551 0.9579814
vt 0.7751474 0.9569952
vt 0.7716039 0.9570497
vt 0.7733737 0.9567097
vt 0.7686373 0.9784334
vt 0.7746075 0.9788312
vt 0.7743464 0.9764799
vt 0.7692198 0.9760697
vt 0.7630118 0.9759081
vt 0.7791783 0.9751481
vt 0.7801902 0.9772132
vt 0.7644374 0.973838
vt 0.7584996 0.9713797
vt 0.7831847 0.9723478
vt 0.784772 0.9739168
vt 0.7607236 0.969949
vt 0.756194 0.9653759
vt 0.7860222 0.9684814
vt 0.7879347 0.9694563
vt 0.7587025 0.9649259
vt 0.7561963 0.959085
vt 0.7874975 0.9639454
vt 0.7896702 0.964314
vt 0.7586545 0.9595503
vt 0.7583784 0.9532931
vt 0.7874473 0.9591495
vt 0.7896582 0.9587837
vt 0.7604856 0.9545713
vt 0.7623828 0.9486927
vt 0.7857974 0.9545848
vt 0.7877886 0.9534886
vt 0.7638936 0.950596
vt 0.7676561 0.9458022
vt 0.7826746 0.9507882
vt 0.784202 0.9490624
vt 0.7684076 0.9480789
vt 0.7735223 0.944912
vt 0.7783987 0.9482363
vt 0.7792627 0.9460663
vt 0.7734488 0.9472775
vt 0.7866527 0.9592976
vt 0.7850882 0.9549939
vt 0.7821376 0.95142
vt 0.7781039 0.9490225
vt 0.7734393 0.9481278
vt 0.7686941 0.9488905
vt 0.7867057 0.9638276
vt 0.7644495 0.9512675
vt 0.7853054 0.9681159
vt 0.7612501 0.9550136
vt 0.7826178 0.9717681
vt 0.759537 0.959698
vt 0.7788257 0.9743973
vt 0.7595894 0.9647446
vt 0.7742664 0.9756327
vt 0.7614796 0.9694583
vt 0.7694428 0.9752254
vt 0.7649588 0.9731115
vt 0.7782301 0.9730724
vt 0.7741516 0.9741492
vt 0.781637 0.9707365
vt 0.769857 0.9737586
vt 0.7658836 0.9718588
vt 0.7840455 0.9674514
vt 0.7627953 0.9686238
vt 0.7611376 0.9644448
vt 0.7853153 0.9636063
vt 0.761076 0.9599676
vt 0.785255 0.9595462
vt 0.7625803 0.9557964
vt 0.7838392 0.9557024
vt 0.7654131 0.9524493
vt 0.7811882 0.9525206
vt 0.7691846 0.9503148
vt 0.7775769 0.9503962
vt 0.773412 0.9496164
vn -0.6580062 -0.04531635 0.7516477
vn -0.5517473 0.2730047 0.788063
vn -0.4268478 0.2112066 0.8793138
vn -0.5273658 -0.08992149 0.8448665
vn -0.6691158 -0.3659935 0.6467866
vn -0.2484399 0.4737976 0.8448629
vn -0.3631496 0.5505897 0.7516471
vn -0.5378753 -0.3932738 0.7456714
vn -0.5837278 -0.6503327 0.4861372
vn -0.01365878 0.6661735 0.7456718
vn -0.1149585 0.7539535 0.6467911
vn -0.4571029 -0.6622537 0.5936978
vn -0.4121424 -0.8640439 0.2890793
vn 0.2491728 0.7651349 0.5937016
vn 0.1628867 0.8585648 0.4861425
vn -0.2947943 -0.8644191 0.4072789
vn -0.1750616 -0.9813532 0.07936817
vn 0.5083601 0.7587401 0.407288
vn 0.4368684 0.8518078 0.2890837
vn -0.07051542 -0.9753907 0.2089031
vn 0.09892456 -0.9881097 -0.1176991
vn 0.7326353 0.6477682 0.2089062
vn 0.6739509 0.7344999 0.07937272
vn 0.1886729 -0.9817825 0.02248615
vn 0.3767713 -0.8834963 -0.2783479
vn 0.8949475 0.4456048 0.02247911
vn 0.8455349 0.5207866 -0.1176948
vn 0.4515102 -0.8828196 -0.1294919
vn 0.6249596 -0.6801349 -0.3831997
vn 0.9757229 0.1766264 -0.1294913
vn 0.9309239 0.2364442 -0.2783431
vn 0.6862816 -0.69045 -0.2286838
vn 0.8135559 -0.4025522 -0.4196172
vn 0.9652175 -0.1267264 -0.2286822
vn 0.919816 -0.08423095 -0.3832018
vn 0.864693 -0.4278636 -0.2631326
vn 0.7853417 0.3137422 0.5336706
vn 0.8981814 0.1732027 0.4040682
vn 0.954334 -0.01378589 0.2984237
vn 0.9470323 -0.2246698 0.2294634
vn 0.8771484 -0.4340238 0.205509
vn 0.7531168 -0.616577 0.2294511
vn 0.6294225 0.3908977 0.6715849
vn 0.5899022 -0.7503104 0.2984119
vn 0.4492418 0.3953408 0.8011787
vn 0.407182 -0.8191038 0.4040689
vn 0.2665218 0.3265437 0.9068272
vn 0.2269877 -0.8146635 0.5336667
vn 0.1033046 0.192805 0.975784
vn 0.07107316 -0.7375167 0.6715785
vn -0.02072555 0.01025938 0.9997326
vn -0.04176112 -0.5969675 0.8011778
vn -0.09060021 -0.1990884 0.9757845
vn -0.09791169 -0.4099726 0.9068273
vn 0.4486913 -0.1486447 0.8812382
vn 0.4113817 -0.2035533 0.8884431
vn 0.5568158 -0.2755141 0.7836122
vn 0.4977854 -0.1084163 0.8604973
vn 0.3903616 -0.2665241 0.8812394
vn 0.3881615 -0.3299624 0.8604972
vn 0.5527509 -0.08772042 0.8287168
vn 0.4050545 -0.3862097 0.8287177
vn 0.60695 -0.08905458 0.7897347
vn 0.4389935 -0.4284886 0.7897354
vn 0.6538511 -0.1122677 0.7482477
vn 0.4858978 -0.4516982 0.748246
vn 0.6877923 -0.1545455 0.7092655
vn 0.5401058 -0.4530367 0.7092556
vn 0.7046822 -0.210788 0.677489
vn 0.5950668 -0.4323434 0.6774766
vn 0.7024898 -0.2742201 0.656743
vn 0.6441637 -0.3921109 0.6567361
vn 0.6814728 -0.3371925 0.6495354
vn -0.5973996 -0.07492555 0.7984359
vn -0.485182 0.2382559 0.8413278
vn -0.2653159 0.1319289 0.9550928
vn -0.3608037 -0.1395683 0.9221396
vn -0.6212089 -0.3830703 0.6836349
vn -0.1084452 0.3716486 0.9220179
vn -0.3037454 0.5205699 0.7979635
vn -0.3789305 -0.4119374 0.8286853
vn -0.5466756 -0.6587386 0.516923
vn 0.09761988 0.5511232 0.828694
vn -0.07230709 0.7262236 0.6836454
vn -0.3116188 -0.6559847 0.687443
vn -0.3831192 -0.8671955 0.3181066
vn 0.3324524 0.6456678 0.6874507
vn 0.1920488 0.8342076 0.5169284
vn -0.1668882 -0.8404554 0.5155416
vn -0.1509176 -0.9822516 0.1113804
vn 0.5669045 0.64252 0.5155457
vn 0.4569927 0.8306424 0.3181052
vn 0.03720058 -0.9417138 0.3343522
vn 0.1211257 -0.9895922 -0.07769081
vn 0.7712057 0.5417113 0.3343512
vn 0.6893086 0.7158557 0.1113749
vn 0.2748876 -0.9469134 0.1667092
vn 0.3994677 -0.8886015 -0.2254172
vn 0.9195287 0.35592 0.1666976
vn 0.8601751 0.5040444 -0.07770544
vn 0.5162579 -0.855765 0.03382269
vn 0.6500192 -0.6924467 -0.3130377
vn 0.9934943 0.1087454 0.03381413
vn 0.9487429 0.2215147 -0.2254289
vn 0.7311707 -0.680533 -0.04758645
vn 0.8418245 -0.4182143 -0.3412163
vn 0.9845269 -0.1685023 -0.04810226
vn 0.9444911 -0.09673821 -0.3139718
vn 0.8940312 -0.4417893 -0.07436672
vn 0.7200392 0.0374468 0.6929223
vn 0.7833015 -0.0413378 0.6202661
vn 0.8147794 -0.1461639 0.5610442
vn 0.8106753 -0.2643941 0.5223998
vn 0.7715045 -0.3817592 0.5089605
vn 0.7019764 -0.484099 0.5223765
vn 0.6326352 0.08070114 0.7702338
vn 0.6104802 -0.5590606 0.5610392
vn 0.531627 0.08319277 0.8428831
vn 0.508051 -0.597625 0.6202649
vn 0.4291964 0.04461794 0.9021086
vn 0.4070351 -0.5951349 0.6929191
vn 0.337695 -0.03035326 0.9407661
vn 0.3196281 -0.5518859 0.7702337
vn 0.2681607 -0.1326822 0.9541935
vn 0.2563627 -0.4731015 0.8428839
vn 0.2289788 -0.250046 0.9407687
vn 0.2248832 -0.3682716 0.9021106
vn 0.5568115 -0.2755147 0.7836151
vn 0.556814 -0.2755114 0.7836146
vn 0.5568095 -0.2755213 0.7836141
vn 0.5568156 -0.2755153 0.783612
vn 0.556814 -0.275522 0.7836107
vn 0.5568135 -0.2755133 0.7836141
vn 0.5568157 -0.2755138 0.7836125
vn 0.5568185 -0.2755122 0.783611
vn 0.5568186 -0.2755052 0.7836134
vn 0.55681 -0.2755249 0.7836126
vn 0.5568177 -0.2755117 0.7836117
vn 0.5568156 -0.2755201 0.7836102
vn 0.5568119 -0.2755209 0.7836126
vn 0.5568184 -0.2755287 0.7836053
vn 0.5568112 -0.2755206 0.7836133
vn 0.5568213 -0.2755302 0.7836027
vn 0.5568096 -0.2755183 0.7836152
vn 0.5568196 -0.2755187 0.7836079
g PrisonChamberButton_1_0
f 3/3/3 2/2/2 1/1/1
f 4/4/4 3/3/3 1/1/1
f 4/4/4 1/1/1 5/5/5
f 3/3/3 6/6/6 2/2/2
f 6/6/6 7/7/7 2/2/2
f 8/8/8 4/4/4 5/5/5
f 8/8/8 5/5/5 9/9/9
f 6/6/6 10/10/10 7/7/7
f 10/10/10 11/11/11 7/7/7
f 12/12/12 8/8/8 9/9/9
f 12/12/12 9/9/9 13/13/13
f 10/10/10 14/14/14 11/11/11
f 14/14/14 15/15/15 11/11/11
f 16/16/16 12/12/12 13/13/13
f 16/16/16 13/13/13 17/17/17
f 14/14/14 18/18/18 15/15/15
f 18/18/18 19/19/19 15/15/15
f 20/20/20 16/16/16 17/17/17
f 20/20/20 17/17/17 21/21/21
f 18/18/18 22/22/22 19/19/19
f 22/22/22 23/23/23 19/19/19
f 24/24/24 20/20/20 21/21/21
f 24/24/24 21/21/21 25/25/25
f 22/22/22 26/26/26 23/23/23
f 26/26/26 27/27/27 23/23/23
f 28/28/28 24/24/24 25/25/25
f 28/28/28 25/25/25 29/29/29
f 26/26/26 30/30/30 27/27/27
f 30/30/30 31/31/31 27/27/27
f 32/32/32 28/28/28 29/29/29
f 32/32/32 29/29/29 33/33/33
f 30/30/30 34/34/34 31/31/31
f 34/34/34 35/35/35 31/31/31
f 36/36/36 33/33/33 35/35/35
f 36/36/36 32/32/32 33/33/33
f 34/34/34 36/36/36 35/35/35
f 22/22/22 37/37/37 26/26/26
f 26/26/26 38/38/38 30/30/30
f 37/37/37 38/38/38 26/26/26
f 30/30/30 39/39/39 34/34/34
f 38/38/38 39/39/39 30/30/30
f 34/34/34 40/40/40 36/36/36
f 39/39/39 40/40/40 34/34/34
f 36/36/36 41/41/41 32/32/32
f 40/40/40 41/41/41 36/36/36
f 32/32/32 42/42/42 28/28/28
f 41/41/41 42/42/42 32/32/32
f 43/43/43 37/37/37 22/22/22
f 18/18/18 43/43/43 22/22/22
f 42/42/42 44/44/44 28/28/28
f 28/28/28 44/44/44 24/24/24
f 45/45/45 43/43/43 18/18/18
f 14/14/14 45/45/45 18/18/18
f 44/44/44 46/46/46 24/24/24
f 24/24/24 46/46/46 20/20/20
f 47/47/47 45/45/45 14/14/14
f 10/10/10 47/47/47 14/14/14
f 46/46/46 48/48/48 20/20/20
f 20/20/20 48/48/48 16/16/16
f 49/49/49 47/47/47 10/10/10
f 6/6/6 49/49/49 10/10/10
f 48/48/48 50/50/50 16/16/16
f 16/16/16 50/50/50 12/12/12
f 51/51/51 49/49/49 6/6/6
f 3/3/3 51/51/51 6/6/6
f 50/50/50 52/52/52 12/12/12
f 12/12/12 52/52/52 8/8/8
f 53/53/53 51/51/51 3/3/3
f 4/4/4 53/53/53 3/3/3
f 8/8/8 54/54/54 4/4/4
f 52/52/52 54/54/54 8/8/8
f 54/54/54 53/53/53 4/4/4
f 49/49/49 55/55/55 47/47/47
f 51/51/51 56/56/56 49/49/49
f 56/56/56 55/55/55 49/49/49
f 56/56/56 57/57/57 55/55/55
f 55/55/55 57/57/57 58/58/58
f 55/55/55 58/58/58 47/47/47
f 59/59/59 57/57/57 56/56/56
f 59/59/59 56/56/56 51/51/51
f 53/53/53 59/59/59 51/51/51
f 47/47/47 58/58/58 45/45/45
f 60/60/60 59/59/59 53/53/53
f 54/54/54 60/60/60 53/53/53
f 60/60/60 57/57/57 59/59/59
f 58/58/58 61/61/61 45/45/45
f 58/58/58 57/57/57 61/61/61
f 45/45/45 61/61/61 43/43/43
f 62/62/62 60/60/60 54/54/54
f 62/62/62 57/57/57 60/60/60
f 52/52/52 62/62/62 54/54/54
f 61/61/61 63/63/63 43/43/43
f 61/61/61 57/57/57 63/63/63
f 43/43/43 63/63/63 37/37/37
f 64/64/64 62/62/62 52/52/52
f 64/64/64 57/57/57 62/62/62
f 50/50/50 64/64/64 52/52/52
f 63/63/63 65/65/65 37/37/37
f 63/63/63 57/57/57 65/65/65
f 66/66/66 57/57/57 64/64/64
f 66/66/66 64/64/64 50/50/50
f 65/65/65 57/57/57 67/67/67
f 37/37/37 65/65/65 38/38/38
f 65/65/65 67/67/67 38/38/38
f 48/48/48 66/66/66 50/50/50
f 38/38/38 67/67/67 39/39/39
f 68/68/68 66/66/66 48/48/48
f 68/68/68 57/57/57 66/66/66
f 46/46/46 68/68/68 48/48/48
f 67/67/67 69/69/69 39/39/39
f 67/67/67 57/57/57 69/69/69
f 39/39/39 69/69/69 40/40/40
f 70/70/70 68/68/68 46/46/46
f 70/70/70 57/57/57 68/68/68
f 44/44/44 70/70/70 46/46/46
f 69/69/69 71/71/71 40/40/40
f 69/69/69 57/57/57 71/71/71
f 40/40/40 71/71/71 41/41/41
f 72/72/72 70/70/70 44/44/44
f 72/72/72 57/57/57 70/70/70
f 42/42/42 72/72/72 44/44/44
f 71/71/71 73/73/73 41/41/41
f 71/71/71 57/57/57 73/73/73
f 73/73/73 57/57/57 72/72/72
f 73/73/73 72/72/72 42/42/42
f 41/41/41 73/73/73 42/42/42
g PrisonChamberButton_1_1
f 76/76/76 75/75/75 74/74/74
f 77/77/77 76/76/76 74/74/74
f 77/77/77 74/74/74 78/78/78
f 76/76/76 79/79/79 75/75/75
f 79/79/79 80/80/80 75/75/75
f 81/81/81 77/77/77 78/78/78
f 81/81/81 78/78/78 82/82/82
f 79/79/79 83/83/83 80/80/80
f 83/83/83 84/84/84 80/80/80
f 85/85/85 81/81/81 82/82/82
f 85/85/85 82/82/82 86/86/86
f 83/83/83 87/87/87 84/84/84
f 87/87/87 88/88/88 84/84/84
f 89/89/89 85/85/85 86/86/86
f 89/89/89 86/86/86 90/90/90
f 87/87/87 91/91/91 88/88/88
f 91/91/91 92/92/92 88/88/88
f 93/93/93 89/89/89 90/90/90
f 93/93/93 90/90/90 94/94/94
f 91/91/91 95/95/95 92/92/92
f 95/95/95 96/96/96 92/92/92
f 97/97/97 93/93/93 94/94/94
f 97/97/97 94/94/94 98/98/98
f 95/95/95 99/99/99 96/96/96
f 99/99/99 100/100/100 96/96/96
f 101/101/101 97/97/97 98/98/98
f 101/101/101 98/98/98 102/102/102
f 99/99/99 103/103/103 100/100/100
f 103/103/103 104/104/104 100/100/100
f 105/105/105 101/101/101 102/102/102
f 105/105/105 102/102/102 106/106/106
f 103/103/103 107/107/107 104/104/104
f 107/107/107 108/108/108 104/104/104
f 109/109/109 106/106/106 108/108/108
f 109/109/109 105/105/105 106/106/106
f 107/107/107 109/109/109 108/108/108
f 99/99/99 95/95/95 110/110/110
f 103/103/103 99/99/99 111/111/111
f 111/111/111 99/99/99 110/110/110
f 107/107/107 103/103/103 112/112/112
f 112/112/112 103/103/103 111/111/111
f 109/109/109 107/107/107 113/113/113
f 113/113/113 107/107/107 112/112/112
f 105/105/105 109/109/109 114/114/114
f 114/114/114 109/109/109 113/113/113
f 101/101/101 105/105/105 115/115/115
f 115/115/115 105/105/105 114/114/114
f 110/110/110 95/95/95 116/116/116
f 95/95/95 91/91/91 116/116/116
f 117/117/117 101/101/101 115/115/115
f 97/97/97 101/101/101 117/117/117
f 116/116/116 91/91/91 118/118/118
f 91/91/91 87/87/87 118/118/118
f 119/119/119 97/97/97 117/117/117
f 93/93/93 97/97/97 119/119/119
f 118/118/118 87/87/87 120/120/120
f 87/87/87 83/83/83 120/120/120
f 121/121/121 93/93/93 119/119/119
f 89/89/89 93/93/93 121/121/121
f 120/120/120 83/83/83 122/122/122
f 83/83/83 79/79/79 122/122/122
f 123/123/123 89/89/89 121/121/121
f 85/85/85 89/89/89 123/123/123
f 122/122/122 79/79/79 124/124/124
f 79/79/79 76/76/76 124/124/124
f 125/125/125 85/85/85 123/123/123
f 81/81/81 85/85/85 125/125/125
f 124/124/124 76/76/76 126/126/126
f 76/76/76 77/77/77 126/126/126
f 77/77/77 81/81/81 127/127/127
f 127/127/127 81/81/81 125/125/125
f 126/126/126 77/77/77 127/127/127
f 120/120/120 122/122/122 128/128/128
f 128/128/128 122/122/122 129/129/129
f 122/122/122 124/124/124 129/129/129
f 130/130/130 120/120/120 128/128/128
f 129/129/129 124/124/124 131/131/131
f 124/124/124 126/126/126 131/131/131
f 118/118/118 120/120/120 130/130/130
f 131/131/131 126/126/126 132/132/132
f 126/126/126 127/127/127 132/132/132
f 133/133/133 118/118/118 130/130/130
f 132/132/132 127/127/127 134/134/134
f 127/127/127 125/125/125 134/134/134
f 116/116/116 118/118/118 133/133/133
f 134/134/134 125/125/125 135/135/135
f 136/136/136 116/116/116 133/133/133
f 125/125/125 123/123/123 135/135/135
f 110/110/110 116/116/116 136/136/136
f 135/135/135 123/123/123 137/137/137
f 138/138/138 110/110/110 136/136/136
f 123/123/123 121/121/121 137/137/137
f 111/111/111 110/110/110 138/138/138
f 137/137/137 121/121/121 139/139/139
f 140/140/140 111/111/111 138/138/138
f 121/121/121 119/119/119 139/139/139
f 112/112/112 111/111/111 140/140/140
f 139/139/139 119/119/119 141/141/141
f 142/142/142 112/112/112 140/140/140
f 119/119/119 117/117/117 141/141/141
f 113/113/113 112/112/112 142/142/142
f 141/141/141 117/117/117 143/143/143
f 144/144/144 113/113/113 142/142/142
f 117/117/117 115/115/115 143/143/143
f 114/114/114 113/113/113 144/144/144
f 143/143/143 115/115/115 145/145/145
f 145/145/145 114/114/114 144/144/144
f 115/115/115 114/114/114 145/145/145
