g PrisonChamberButtonBoard_4
v 0.3564732 -1.624886 1.480585
v 0.2626039 -1.656712 1.480585
v 0.2414491 -1.595803 1.53198
v 0.3362222 -1.563671 1.53198
v 0.4117115 -1.791861 1.340394
v 0.3203069 -1.822851 1.340394
v 0.2991523 -1.761943 1.39179
v 0.3914605 -1.730646 1.39179
v 0.4393306 -1.875349 1.270299
v 0.3491585 -1.905921 1.270299
v 0.3280038 -1.845012 1.321695
v 0.4190795 -1.814133 1.321695
v 0.3693597 -1.616448 1.451686
v 0.3564732 -1.624886 1.480585
v 0.3362222 -1.563671 1.53198
v 0.3417405 -1.53296 1.521781
v 0.3840923 -1.708373 1.41049
v 0.2914554 -1.739782 1.410489
v 0.2703007 -1.678873 1.461885
v 0.3638414 -1.647158 1.461885
v 0.2183912 -1.574781 1.521781
v 0.2414491 -1.595803 1.53198
v 0.2626039 -1.656712 1.480585
v 0.2472427 -1.657851 1.451686
v 0.3417405 -1.53296 1.521781
v 0.3362222 -1.563671 1.53198
v 0.2414491 -1.595803 1.53198
v 0.2183912 -1.574781 1.521781
v 0.4245977 -1.783423 1.311495
v 0.4117115 -1.791861 1.340394
v 0.3914605 -1.730646 1.39179
v 0.3969787 -1.699935 1.381591
v 0.2472427 -1.657851 1.451686
v 0.2626039 -1.656712 1.480585
v 0.3564732 -1.624886 1.480585
v 0.3693597 -1.616448 1.451686
v 0.2760943 -1.740921 1.38159
v 0.2991523 -1.761943 1.39179
v 0.3203069 -1.822851 1.340394
v 0.3049458 -1.82399 1.311495
v 0.3969787 -1.699935 1.381591
v 0.3914605 -1.730646 1.39179
v 0.2991523 -1.761943 1.39179
v 0.2760943 -1.740921 1.38159
v 0.452217 -1.866911 1.2414
v 0.4393306 -1.875349 1.270299
v 0.4190795 -1.814133 1.321695
v 0.4245977 -1.783423 1.311495
v 0.3049458 -1.82399 1.311495
v 0.3203069 -1.822851 1.340394
v 0.4117115 -1.791861 1.340394
v 0.4245977 -1.783423 1.311495
v 0.3049458 -1.82399 1.311495
v 0.3280038 -1.845012 1.321695
v 0.3491585 -1.905921 1.270299
v 0.3337976 -1.90706 1.2414
v 0.4245977 -1.783423 1.311495
v 0.4190795 -1.814133 1.321695
v 0.3280038 -1.845012 1.321695
v 0.3049458 -1.82399 1.311495
v 0.3969787 -1.699935 1.381591
v 0.3840923 -1.708373 1.41049
v 0.3638414 -1.647158 1.461885
v 0.3693597 -1.616448 1.451686
v 0.3337976 -1.90706 1.2414
v 0.3491585 -1.905921 1.270299
v 0.4393306 -1.875349 1.270299
v 0.452217 -1.866911 1.2414
v 0.2472427 -1.657851 1.451686
v 0.2703007 -1.678873 1.461885
v 0.2914554 -1.739782 1.410489
v 0.2760943 -1.740921 1.38159
v 0.3693597 -1.616448 1.451686
v 0.3638414 -1.647158 1.461885
v 0.2703007 -1.678873 1.461885
v 0.2472427 -1.657851 1.451686
v 0.2760943 -1.740921 1.38159
v 0.2914554 -1.739782 1.410489
v 0.3840923 -1.708373 1.41049
v 0.3969787 -1.699935 1.381591
v 0.3421007 -1.488644 1.518728
v 0.350563 -1.488709 1.516506
v 0.352625 -1.513309 1.527735
v 0.3441285 -1.513241 1.529962
v 0.3518094 -1.518309 1.52848
v 0.2045028 -1.56058 1.529962
v 0.1911535 -1.539822 1.518728
v 0.1844755 -1.54502 1.516506
v 0.1978 -1.565802 1.527735
v 0.2082588 -1.564006 1.530724
v 0.2014879 -1.569274 1.528479
v 0.3432303 -1.518244 1.530724
v 0.3492886 -1.523334 1.527116
v 0.2133718 -1.566429 1.529371
v 0.2065451 -1.57173 1.527116
v 0.2183912 -1.574781 1.521781
v 0.3406454 -1.523277 1.529371
v 0.3417405 -1.53296 1.521781
v 0.1835415 -1.55242 1.511143
v 0.1844755 -1.54502 1.516506
v 0.1978 -1.565802 1.527735
v 0.1968644 -1.573238 1.522359
v 0.2014879 -1.569274 1.528479
v 0.2251627 -1.654306 1.453903
v 0.2133363 -1.637734 1.438894
v 0.2005388 -1.576774 1.523061
v 0.2065451 -1.57173 1.527116
v 0.2566038 -1.744373 1.377855
v 0.2462588 -1.732005 1.359061
v 0.2284188 -1.656669 1.455607
v 0.2055801 -1.579267 1.521674
v 0.2183912 -1.574781 1.521781
v 0.2472427 -1.657851 1.451686
v 0.2329344 -1.657684 1.455474
v 0.2760943 -1.740921 1.38159
v 0.2634698 -1.745201 1.38159
v 0.3049458 -1.82399 1.311495
v 0.2594666 -1.745634 1.380496
v 0.2940032 -1.832693 1.307726
v 0.3337976 -1.90706 1.2414
v 0.2905133 -1.83459 1.305395
v 0.3213604 -1.911066 1.24156
v 0.3267943 -1.91641 1.236134
v 0.3238015 -1.919811 1.232543
v 0.3184019 -1.91449 1.237942
v 0.3217027 -1.920794 1.228019
v 0.288044 -1.834433 1.30182
v 0.2791812 -1.826275 1.279227
v 0.316351 -1.915515 1.233372
v 0.3143165 -1.91687 1.201609
v 0.3089848 -1.911615 1.206957
v 0.4701701 -1.870456 1.228019
v 0.4746835 -1.855436 1.206957
v 0.4736474 -1.86285 1.201609
v 0.4712083 -1.863011 1.233372
v 0.4679069 -1.870953 1.232543
v 0.4443659 -1.781433 1.30182
v 0.4464396 -1.769567 1.279227
v 0.4689568 -1.863445 1.237942
v 0.4634622 -1.870073 1.236135
v 0.4145503 -1.690822 1.377855
v 0.4152399 -1.674712 1.359061
v 0.4425009 -1.783059 1.305395
v 0.4645257 -1.862526 1.24156
v 0.452217 -1.866911 1.2414
v 0.4245977 -1.783423 1.311495
v 0.4385769 -1.783676 1.307726
v 0.3969787 -1.699935 1.381591
v 0.4096034 -1.695655 1.38159
v 0.3693597 -1.616448 1.451686
v 0.4130445 -1.693564 1.380497
v 0.3806164 -1.607613 1.455474
v 0.3417405 -1.53296 1.521781
v 0.3835832 -1.604061 1.455607
v 0.3546382 -1.528729 1.521673
v 0.3492886 -1.523334 1.527116
v 0.3518094 -1.518309 1.52848
v 0.3571236 -1.523684 1.523061
v 0.352625 -1.513309 1.527735
v 0.3847312 -1.600205 1.453903
v 0.3840401 -1.579858 1.438894
v 0.3578904 -1.518643 1.522359
v 0.350563 -1.488709 1.516506
v 0.3558045 -1.494014 1.511143
v 0.3217027 -1.920794 1.228019
v 0.322777 -1.916928 1.199394
v 0.3143165 -1.91687 1.201609
v 0.3301948 -1.920852 1.225801
v 0.3238015 -1.919811 1.232543
v 0.4634645 -1.875667 1.225801
v 0.4669663 -1.868041 1.199394
v 0.4736474 -1.86285 1.201609
v 0.4701701 -1.870456 1.228019
v 0.4611368 -1.87621 1.230307
v 0.4679069 -1.870953 1.232543
v 0.332373 -1.919867 1.230307
v 0.3267943 -1.91641 1.236134
v 0.4566404 -1.875363 1.233887
v 0.4634622 -1.870073 1.236135
v 0.452217 -1.866911 1.2414
v 0.3354266 -1.91646 1.233887
v 0.3337976 -1.90706 1.2414
vt 0.9438397 0.530655
vt 0.9617811 0.530655
vt 0.9618676 0.51573
vt 0.9437534 0.5157298
vt 0.9440751 0.5816146
vt 0.9615456 0.5816147
vt 0.9616319 0.5666896
vt 0.9439889 0.5666895
vt 0.9441929 0.6070943
vt 0.9614275 0.6070943
vt 0.961514 0.5921694
vt 0.9441065 0.5921694
vt 0.938578 0.533385
vt 0.9438397 0.530655
vt 0.9437534 0.5157298
vt 0.9384604 0.5130295
vt 0.9439574 0.5561347
vt 0.9616633 0.5561349
vt 0.9617497 0.5412098
vt 0.9438711 0.5412096
vt 0.9671606 0.5130296
vt 0.9618676 0.51573
vt 0.9617811 0.530655
vt 0.9670427 0.5333851
vt 0.9410225 0.5104526
vt 0.9437534 0.5157298
vt 0.9618676 0.51573
vt 0.9645985 0.5104526
vt 0.9388134 0.5843444
vt 0.9440751 0.5816146
vt 0.9439889 0.5666895
vt 0.9386958 0.5639892
vt 0.9644807 0.5359325
vt 0.9617811 0.530655
vt 0.9438397 0.530655
vt 0.9411401 0.5359325
vt 0.966925 0.5639892
vt 0.9616319 0.5666896
vt 0.9615456 0.5816147
vt 0.9668071 0.5843446
vt 0.9412578 0.5614122
vt 0.9439889 0.5666895
vt 0.9616319 0.5666896
vt 0.9643629 0.5614123
vt 0.9389313 0.6098244
vt 0.9441929 0.6070943
vt 0.9441065 0.5921694
vt 0.9388134 0.5894691
vt 0.9642449 0.5868919
vt 0.9615456 0.5816147
vt 0.9440751 0.5816146
vt 0.9413756 0.5868919
vt 0.966807 0.5894691
vt 0.961514 0.5921694
vt 0.9614275 0.6070943
vt 0.9666893 0.6098245
vt 0.9413756 0.5868919
vt 0.9441065 0.5921694
vt 0.961514 0.5921694
vt 0.9642449 0.5868919
vt 0.9386958 0.5588649
vt 0.9439574 0.5561347
vt 0.9438711 0.5412096
vt 0.938578 0.5385092
vt 0.9641271 0.6123718
vt 0.9614275 0.6070943
vt 0.9441929 0.6070943
vt 0.9414935 0.6123718
vt 0.9670427 0.5385094
vt 0.9617497 0.5412098
vt 0.9616633 0.5561349
vt 0.966925 0.558865
vt 0.9411401 0.5359325
vt 0.9438711 0.5412096
vt 0.9617497 0.5412098
vt 0.9644807 0.5359325
vt 0.9643629 0.5614123
vt 0.9616633 0.5561349
vt 0.9439574 0.5561347
vt 0.9412578 0.5614122
vt 0.9624329 0.3727998
vt 0.9620411 0.3712327
vt 0.9572152 0.3725673
vt 0.9576714 0.3741113
vt 0.9563572 0.3730162
vt 0.9576119 0.4005183
vt 0.9624329 0.4018317
vt 0.9620367 0.4034177
vt 0.9571525 0.4020676
vt 0.9567996 0.4000766
vt 0.9562931 0.4016122
vt 0.9568583 0.3745521
vt 0.9555191 0.3737198
vt 0.9560493 0.3993736
vt 0.9554596 0.4009016
vt 0.9538353 0.3990549
vt 0.9560978 0.3752552
vt 0.953875 0.3755589
vt 0.4476796 0.6755316
vt 0.4493569 0.675244
vt 0.4469417 0.6708384
vt 0.4453086 0.6712016
vt 0.4463777 0.6700587
vt 0.4256789 0.6711735
vt 0.4267625 0.6756682
vt 0.4447624 0.6704783
vt 0.4457017 0.6692113
vt 0.4035111 0.6711551
vt 0.4035198 0.6756559
vt 0.4254026 0.6704271
vt 0.4440848 0.6697255
vt 0.4441926 0.6672738
vt 0.4239301 0.6672339
vt 0.4250426 0.6696708
vt 0.4034902 0.6672301
vt 0.4035036 0.6696531
vt 0.3830512 0.6672248
vt 0.403508 0.6704113
vt 0.3819714 0.6696119
vt 0.3627936 0.667257
vt 0.3816168 0.6703658
vt 0.362941 0.6696156
vt 0.3613222 0.669102
vt 0.3606416 0.6699457
vt 0.3622584 0.6703639
vt 0.3600835 0.6707212
vt 0.3813465 0.6711107
vt 0.3802775 0.6756674
vt 0.3617177 0.6710837
vt 0.3576672 0.6752456
vt 0.3593471 0.6755273
vt 0.9913223 0.7049383
vt 0.986515 0.7056745
vt 0.9867967 0.707355
vt 0.9909595 0.7033036
vt 0.992098 0.7043797
vt 0.9909331 0.6836701
vt 0.9863752 0.6847394
vt 0.9916795 0.7027626
vt 0.992942 0.7036991
vt 0.990889 0.6615001
vt 0.986387 0.6614915
vt 0.991678 0.6833998
vt 0.9924283 0.7020801
vt 0.9947875 0.7022275
vt 0.9948198 0.6819651
vt 0.992432 0.6830453
vt 0.9948148 0.6615211
vt 0.9923913 0.6615075
vt 0.9948114 0.6410763
vt 0.9916329 0.6615031
vt 0.9923739 0.6399633
vt 0.994772 0.6208091
vt 0.9916177 0.6396033
vt 0.9923196 0.620917
vt 0.992834 0.6192998
vt 0.9919865 0.6186236
vt 0.9915667 0.620239
vt 0.9912066 0.6180593
vt 0.9908709 0.6393268
vt 0.9863752 0.6382429
vt 0.9908431 0.6196929
vt 0.9868 0.6156436
vt 0.9865123 0.6173213
vt 0.9265015 0.648293
vt 0.9318269 0.6485513
vt 0.9314412 0.6469849
vt 0.9269519 0.6498355
vt 0.9256442 0.6487277
vt 0.9268857 0.6750212
vt 0.9318269 0.6763067
vt 0.931437 0.6778938
vt 0.9264324 0.6765712
vt 0.9260744 0.6745937
vt 0.9255726 0.6761302
vt 0.9261399 0.6502615
vt 0.9247945 0.6494155
vt 0.9253123 0.6739047
vt 0.9247253 0.6754351
vt 0.9231139 0.6736969
vt 0.9253684 0.650948
vt 0.9231764 0.6511423
vn 0.2001426 -0.5903181 0.7819639
vn 0.2001426 -0.5903181 0.7819639
vn 0.2001426 -0.5903181 0.7819639
vn 0.2001426 -0.5903181 0.7819639
vn 0.2001432 -0.5903183 0.7819635
vn 0.2001432 -0.5903183 0.7819635
vn 0.2001432 -0.5903183 0.7819635
vn 0.2001432 -0.5903183 0.7819635
vn 0.2001443 -0.5903161 0.7819649
vn 0.2001443 -0.5903161 0.7819649
vn 0.2001443 -0.5903161 0.7819649
vn 0.2001443 -0.5903161 0.7819649
vn 0.9162923 -0.03206083 0.399225
vn 0.9162923 -0.03206083 0.399225
vn 0.9162923 -0.03206083 0.399225
vn 0.9162923 -0.03206083 0.399225
vn 0.2001441 -0.5903159 0.781965
vn 0.2001441 -0.5903159 0.781965
vn 0.2001441 -0.5903159 0.781965
vn 0.2001441 -0.5903159 0.781965
vn -0.707849 -0.5827218 0.3992305
vn -0.707849 -0.5827218 0.3992305
vn -0.707849 -0.5827218 0.3992305
vn -0.707849 -0.5827218 0.3992305
vn -0.1123298 0.3313093 0.9368118
vn -0.1123298 0.3313093 0.9368118
vn -0.1123298 0.3313093 0.9368118
vn -0.1123298 0.3313093 0.9368118
vn 0.9162927 -0.03205972 0.3992242
vn 0.9162927 -0.03205972 0.3992242
vn 0.9162927 -0.03205972 0.3992242
vn 0.9162927 -0.03205972 0.3992242
vn 0.3182756 -0.9387388 -0.1321747
vn 0.3182756 -0.9387388 -0.1321747
vn 0.3182756 -0.9387388 -0.1321747
vn 0.3182756 -0.9387388 -0.1321747
vn -0.7078518 -0.5827221 0.3992254
vn -0.7078518 -0.5827221 0.3992254
vn -0.7078518 -0.5827221 0.3992254
vn -0.7078518 -0.5827221 0.3992254
vn -0.1123286 0.3313056 0.9368131
vn -0.1123286 0.3313056 0.9368131
vn -0.1123286 0.3313056 0.9368131
vn -0.1123286 0.3313056 0.9368131
vn 0.9162928 -0.03205869 0.3992236
vn 0.9162928 -0.03205869 0.3992236
vn 0.9162928 -0.03205869 0.3992236
vn 0.9162928 -0.03205869 0.3992236
vn 0.3182769 -0.9387377 -0.1321793
vn 0.3182769 -0.9387377 -0.1321793
vn 0.3182769 -0.9387377 -0.1321793
vn 0.3182769 -0.9387377 -0.1321793
vn -0.7078573 -0.5827182 0.3992212
vn -0.7078573 -0.5827182 0.3992212
vn -0.7078573 -0.5827182 0.3992212
vn -0.7078573 -0.5827182 0.3992212
vn -0.1123306 0.3313102 0.9368113
vn -0.1123306 0.3313102 0.9368113
vn -0.1123306 0.3313102 0.9368113
vn -0.1123306 0.3313102 0.9368113
vn 0.9162917 -0.03206034 0.3992264
vn 0.9162917 -0.03206034 0.3992264
vn 0.9162917 -0.03206034 0.3992264
vn 0.9162917 -0.03206034 0.3992264
vn 0.318274 -0.9387383 -0.1321813
vn 0.318274 -0.9387383 -0.1321813
vn 0.318274 -0.9387383 -0.1321813
vn 0.318274 -0.9387383 -0.1321813
vn -0.7078516 -0.5827215 0.3992266
vn -0.7078516 -0.5827215 0.3992266
vn -0.7078516 -0.5827215 0.3992266
vn -0.7078516 -0.5827215 0.3992266
vn -0.1123293 0.3313043 0.9368135
vn -0.1123293 0.3313043 0.9368135
vn -0.1123293 0.3313043 0.9368135
vn -0.1123293 0.3313043 0.9368135
vn 0.3182758 -0.9387385 -0.1321765
vn 0.3182758 -0.9387385 -0.1321765
vn 0.3182758 -0.9387385 -0.1321765
vn 0.3182758 -0.9387385 -0.1321765
vn 0.06519376 0.4190341 0.905627
vn 0.5240813 0.3896313 0.7573152
vn 0.5494761 0.2417295 0.7997767
vn 0.08406041 0.2862656 0.9544558
vn 0.4477555 -0.1333944 0.8841498
vn -0.2408242 0.1761064 0.9544581
vn -0.3066002 0.2929806 0.9056262
vn -0.6529876 -0.009438383 0.7573098
vn -0.5831847 -0.1422999 0.7997791
vn -0.05393618 -0.1430929 0.9882385
vn -0.2742899 -0.3782158 0.8841481
vn 0.1298316 -0.08077667 0.9882402
vn 0.2766717 -0.4714337 0.8373786
vn 0.1345623 -0.459913 0.877709
vn 0.0670905 -0.5424911 0.8373781
vn 0.2001415 -0.5903145 0.7819667
vn 0.1728854 -0.4469175 0.8777103
vn 0.2001425 -0.5903153 0.781966
vn -0.856785 -0.3381716 0.3893063
vn -0.6529876 -0.009438383 0.7573098
vn -0.5831847 -0.1422999 0.7997791
vn -0.758534 -0.4506246 0.4707054
vn -0.2742899 -0.3782158 0.8841481
vn -0.781326 -0.5388198 0.3149649
vn -0.8706439 -0.4572928 0.1812807
vn -0.4032174 -0.6061941 0.6855249
vn 0.0670905 -0.5424911 0.8373781
vn -0.7825866 -0.5379145 0.3133788
vn -0.8715917 -0.4561655 0.1795573
vn -0.4177656 -0.6668178 0.6171108
vn 0.02983304 -0.6243577 0.7805687
vn 0.2001415 -0.5903145 0.7819667
vn 0.2001386 -0.590318 0.781965
vn 0.03656238 -0.6371763 0.7698503
vn 0.2001441 -0.5903172 0.7819641
vn 0.03621881 -0.6372574 0.7697995
vn 0.2001468 -0.590316 0.7819644
vn -0.4190608 -0.6666666 0.6163958
vn 0.03611553 -0.6372814 0.7697845
vn 0.2001466 -0.5903175 0.7819632
vn -0.4197284 -0.6665846 0.6160301
vn 0.03821492 -0.6508409 0.7582517
vn 0.1191413 -0.6958034 0.7082817
vn -0.1038843 -0.8843464 0.4551257
vn -0.3635516 -0.7295868 0.5792524
vn -0.3128302 -0.9430538 0.1130783
vn -0.7835948 -0.5371834 0.3121106
vn -0.8725228 -0.455051 0.1778553
vn -0.68297 -0.6787955 0.269794
vn -0.3388558 -0.9397713 -0.04479789
vn -0.7530603 -0.6478865 0.1146435
vn 0.8218806 -0.5583242 0.1130762
vn 0.9918103 -0.05629337 0.1146453
vn 0.8405361 -0.5399005 -0.04479356
vn 0.9549757 -0.1234446 0.2697828
vn 0.6203194 -0.6388036 0.4551194
vn 0.9487227 0.05014704 0.3121065
vn 0.9693609 0.1694331 0.1778532
vn 0.732313 -0.3580361 0.5792476
vn 0.3285943 -0.6247857 0.7082857
vn 0.9483652 0.0489613 0.3133786
vn 0.9692997 0.1679803 0.1795568
vn 0.7385825 -0.2738669 0.6160298
vn 0.3654963 -0.5398776 0.7582511
vn 0.200142 -0.5903186 0.7819636
vn 0.2001407 -0.5903186 0.7819639
vn 0.3589013 -0.5278407 0.7697883
vn 0.2001485 -0.590317 0.7819631
vn 0.3588059 -0.5278857 0.7698019
vn 0.2001501 -0.5903147 0.7819644
vn 0.7380954 -0.2743375 0.6164042
vn 0.3584872 -0.5280308 0.7698509
vn 0.2001425 -0.5903153 0.781966
vn 0.7371629 -0.2752413 0.6171167
vn 0.3560359 -0.5137643 0.780567
vn 0.2766717 -0.4714337 0.8373786
vn 0.4477555 -0.1333944 0.8841498
vn 0.6887525 -0.2359588 0.6855242
vn 0.5494761 0.2417295 0.7997767
vn 0.9479144 0.04747673 0.3149671
vn 0.9692326 0.1665079 0.181283
vn 0.8761868 0.1036192 0.4707012
vn 0.5240813 0.3896313 0.7573152
vn 0.885783 0.2526276 0.3893171
vn -0.3128302 -0.9430538 0.1130783
vn 0.1238073 -0.9758833 -0.1797875
vn -0.3388558 -0.9397713 -0.04479789
vn 0.1526551 -0.9876301 -0.03582133
vn -0.1038843 -0.8843464 0.4551257
vn 0.4794902 -0.8768158 -0.03582136
vn 0.4952394 -0.84995 -0.1797857
vn 0.8405361 -0.5399005 -0.04479356
vn 0.8218806 -0.5583242 0.1130762
vn 0.3933677 -0.8566719 0.333729
vn 0.6203194 -0.6388036 0.4551194
vn 0.20876 -0.9192628 0.3337292
vn 0.1191413 -0.6958034 0.7082817
vn 0.2593509 -0.7013737 0.6639369
vn 0.3285943 -0.6247857 0.7082857
vn 0.200142 -0.5903186 0.7819636
vn 0.2206864 -0.7144819 0.6639375
vn 0.2001466 -0.5903175 0.7819632
g PrisonChamberButtonBoard_4_0
f 3/3/3 2/2/2 1/1/1
f 4/4/4 3/3/3 1/1/1
f 7/7/7 6/6/6 5/5/5
f 8/8/8 7/7/7 5/5/5
f 11/11/11 10/10/10 9/9/9
f 12/12/12 11/11/11 9/9/9
f 15/15/15 14/14/14 13/13/13
f 16/16/16 15/15/15 13/13/13
f 19/19/19 18/18/18 17/17/17
f 20/20/20 19/19/19 17/17/17
f 23/23/23 22/22/22 21/21/21
f 24/24/24 23/23/23 21/21/21
f 27/27/27 26/26/26 25/25/25
f 28/28/28 27/27/27 25/25/25
f 31/31/31 30/30/30 29/29/29
f 32/32/32 31/31/31 29/29/29
f 35/35/35 34/34/34 33/33/33
f 36/36/36 35/35/35 33/33/33
f 39/39/39 38/38/38 37/37/37
f 40/40/40 39/39/39 37/37/37
f 43/43/43 42/42/42 41/41/41
f 44/44/44 43/43/43 41/41/41
f 47/47/47 46/46/46 45/45/45
f 48/48/48 47/47/47 45/45/45
f 51/51/51 50/50/50 49/49/49
f 52/52/52 51/51/51 49/49/49
f 55/55/55 54/54/54 53/53/53
f 56/56/56 55/55/55 53/53/53
f 59/59/59 58/58/58 57/57/57
f 60/60/60 59/59/59 57/57/57
f 63/63/63 62/62/62 61/61/61
f 64/64/64 63/63/63 61/61/61
f 67/67/67 66/66/66 65/65/65
f 68/68/68 67/67/67 65/65/65
f 71/71/71 70/70/70 69/69/69
f 72/72/72 71/71/71 69/69/69
f 75/75/75 74/74/74 73/73/73
f 76/76/76 75/75/75 73/73/73
f 79/79/79 78/78/78 77/77/77
f 80/80/80 79/79/79 77/77/77
g PrisonChamberButtonBoard_4_1
f 83/83/83 82/82/82 81/81/81
f 84/84/84 83/83/83 81/81/81
f 85/85/85 83/83/83 84/84/84
f 84/84/84 81/81/81 86/86/86
f 81/81/81 87/87/87 86/86/86
f 86/86/86 87/87/87 88/88/88
f 89/89/89 86/86/86 88/88/88
f 90/90/90 86/86/86 89/89/89
f 86/86/86 90/90/90 84/84/84
f 91/91/91 90/90/90 89/89/89
f 92/92/92 85/85/85 84/84/84
f 90/90/90 92/92/92 84/84/84
f 93/93/93 85/85/85 92/92/92
f 94/94/94 90/90/90 91/91/91
f 90/90/90 94/94/94 92/92/92
f 95/95/95 94/94/94 91/91/91
f 95/95/95 96/96/96 94/94/94
f 97/97/97 93/93/93 92/92/92
f 94/94/94 97/97/97 92/92/92
f 97/97/97 94/94/94 96/96/96
f 97/97/97 98/98/98 93/93/93
f 98/98/98 97/97/97 96/96/96
f 101/101/101 100/100/100 99/99/99
f 102/102/102 101/101/101 99/99/99
f 103/103/103 101/101/101 102/102/102
f 102/102/102 99/99/99 104/104/104
f 99/99/99 105/105/105 104/104/104
f 106/106/106 103/103/103 102/102/102
f 107/107/107 103/103/103 106/106/106
f 104/104/104 105/105/105 108/108/108
f 105/105/105 109/109/109 108/108/108
f 104/104/104 110/110/110 102/102/102
f 110/110/110 106/106/106 102/102/102
f 111/111/111 107/107/107 106/106/106
f 111/111/111 112/112/112 107/107/107
f 112/112/112 111/111/111 113/113/113
f 114/114/114 111/111/111 106/106/106
f 111/111/111 114/114/114 113/113/113
f 110/110/110 114/114/114 106/106/106
f 113/113/113 114/114/114 115/115/115
f 114/114/114 116/116/116 115/115/115
f 116/116/116 114/114/114 110/110/110
f 115/115/115 116/116/116 117/117/117
f 118/118/118 110/110/110 104/104/104
f 118/118/118 116/116/116 110/110/110
f 108/108/108 118/118/118 104/104/104
f 116/116/116 119/119/119 117/117/117
f 119/119/119 116/116/116 118/118/118
f 117/117/117 119/119/119 120/120/120
f 121/121/121 118/118/118 108/108/108
f 121/121/121 119/119/119 118/118/118
f 119/119/119 122/122/122 120/120/120
f 122/122/122 119/119/119 121/121/121
f 123/123/123 120/120/120 122/122/122
f 123/123/123 122/122/122 124/124/124
f 122/122/122 125/125/125 124/124/124
f 125/125/125 122/122/122 121/121/121
f 124/124/124 125/125/125 126/126/126
f 127/127/127 121/121/121 108/108/108
f 125/125/125 121/121/121 127/127/127
f 108/108/108 109/109/109 127/127/127
f 109/109/109 128/128/128 127/127/127
f 125/125/125 129/129/129 126/126/126
f 129/129/129 125/125/125 127/127/127
f 127/127/127 128/128/128 129/129/129
f 130/130/130 126/126/126 129/129/129
f 128/128/128 131/131/131 129/129/129
f 131/131/131 130/130/130 129/129/129
f 134/134/134 133/133/133 132/132/132
f 133/133/133 135/135/135 132/132/132
f 132/132/132 135/135/135 136/136/136
f 135/135/135 133/133/133 137/137/137
f 133/133/133 138/138/138 137/137/137
f 135/135/135 139/139/139 136/136/136
f 136/136/136 139/139/139 140/140/140
f 137/137/137 138/138/138 141/141/141
f 138/138/138 142/142/142 141/141/141
f 137/137/137 143/143/143 135/135/135
f 143/143/143 139/139/139 135/135/135
f 139/139/139 144/144/144 140/140/140
f 144/144/144 145/145/145 140/140/140
f 145/145/145 144/144/144 146/146/146
f 147/147/147 144/144/144 139/139/139
f 144/144/144 147/147/147 146/146/146
f 143/143/143 147/147/147 139/139/139
f 146/146/146 147/147/147 148/148/148
f 147/147/147 149/149/149 148/148/148
f 149/149/149 147/147/147 143/143/143
f 148/148/148 149/149/149 150/150/150
f 151/151/151 143/143/143 137/137/137
f 151/151/151 149/149/149 143/143/143
f 141/141/141 151/151/151 137/137/137
f 149/149/149 152/152/152 150/150/150
f 152/152/152 149/149/149 151/151/151
f 150/150/150 152/152/152 153/153/153
f 154/154/154 151/151/151 141/141/141
f 154/154/154 152/152/152 151/151/151
f 152/152/152 155/155/155 153/153/153
f 155/155/155 152/152/152 154/154/154
f 156/156/156 153/153/153 155/155/155
f 156/156/156 155/155/155 157/157/157
f 155/155/155 158/158/158 157/157/157
f 158/158/158 155/155/155 154/154/154
f 157/157/157 158/158/158 159/159/159
f 160/160/160 154/154/154 141/141/141
f 158/158/158 154/154/154 160/160/160
f 141/141/141 142/142/142 160/160/160
f 142/142/142 161/161/161 160/160/160
f 158/158/158 162/162/162 159/159/159
f 162/162/162 158/158/158 160/160/160
f 160/160/160 161/161/161 162/162/162
f 159/159/159 162/162/162 163/163/163
f 161/161/161 164/164/164 162/162/162
f 162/162/162 164/164/164 163/163/163
f 167/167/167 166/166/166 165/165/165
f 166/166/166 168/168/168 165/165/165
f 169/169/169 165/165/165 168/168/168
f 168/168/168 166/166/166 170/170/170
f 166/166/166 171/171/171 170/170/170
f 171/171/171 172/172/172 170/170/170
f 172/172/172 173/173/173 170/170/170
f 170/170/170 173/173/173 174/174/174
f 170/170/170 174/174/174 168/168/168
f 173/173/173 175/175/175 174/174/174
f 176/176/176 169/169/169 168/168/168
f 174/174/174 176/176/176 168/168/168
f 177/177/177 169/169/169 176/176/176
f 174/174/174 175/175/175 178/178/178
f 174/174/174 178/178/178 176/176/176
f 175/175/175 179/179/179 178/178/178
f 179/179/179 180/180/180 178/178/178
f 181/181/181 177/177/177 176/176/176
f 178/178/178 181/181/181 176/176/176
f 181/181/181 178/178/178 180/180/180
f 181/181/181 182/182/182 177/177/177
f 182/182/182 181/181/181 180/180/180
