g PrisonChamberButton_4
v -1.415813 -1.527207 1.298507
v -1.39776 -1.536428 1.300707
v -1.410134 -1.554149 1.317591
v -1.426203 -1.545942 1.315633
v -1.434865 -1.523649 1.292174
v -1.396891 -1.566407 1.315633
v -1.382885 -1.550197 1.298507
v -1.443163 -1.542775 1.309995
v -1.452617 -1.526182 1.28247
v -1.388074 -1.581236 1.309995
v -1.372979 -1.566856 1.292174
v -1.458966 -1.545029 1.301357
v -1.46693 -1.534501 1.270567
v -1.384745 -1.596848 1.301357
v -1.36924 -1.584394 1.28247
v -1.471707 -1.552434 1.290761
v -1.476077 -1.547601 1.2579
v -1.387306 -1.61136 1.290761
v -1.372117 -1.600697 1.270567
v -1.479849 -1.564096 1.279485
v -1.478954 -1.563904 1.245996
v -1.395448 -1.623022 1.279485
v -1.381263 -1.613798 1.2579
v -1.48241 -1.578608 1.268889
v -1.475214 -1.581442 1.236293
v -1.408189 -1.630427 1.268889
v -1.395576 -1.622116 1.245997
v -1.479081 -1.59422 1.260251
v -1.465309 -1.598101 1.229959
v -1.423992 -1.632682 1.260251
v -1.413329 -1.624649 1.236293
v -1.470263 -1.60905 1.254613
v -1.450433 -1.611871 1.22776
v -1.440951 -1.629514 1.254613
v -1.43238 -1.621091 1.229959
v -1.457021 -1.621307 1.252655
v -1.401236 -1.623445 1.28538
v -1.412862 -1.630202 1.275711
v -1.427282 -1.632259 1.267829
v -1.442758 -1.629369 1.262685
v -1.457421 -1.62188 1.260898
v -1.469505 -1.610695 1.262685
v -1.393807 -1.612804 1.295669
v -1.47755 -1.597164 1.267829
v -1.39147 -1.599561 1.305338
v -1.480588 -1.582918 1.275711
v -1.394508 -1.585315 1.31322
v -1.478251 -1.569675 1.28538
v -1.402554 -1.571784 1.318364
v -1.470821 -1.559034 1.295669
v -1.414637 -1.560599 1.320151
v -1.459196 -1.552278 1.305338
v -1.4293 -1.55311 1.318364
v -1.444776 -1.55022 1.31322
v -1.409074 -1.576438 1.316023
v -1.41917 -1.567093 1.317516
v -1.437045 -1.592694 1.292762
v -1.402352 -1.587744 1.311725
v -1.431422 -1.560835 1.316023
v -1.444353 -1.55842 1.311725
v -1.399814 -1.599647 1.305139
v -1.456401 -1.56014 1.305139
v -1.401766 -1.610712 1.29706
v -1.466115 -1.565785 1.29706
v -1.407974 -1.619603 1.288463
v -1.472323 -1.574676 1.288463
v -1.417688 -1.625249 1.280385
v -1.474275 -1.585741 1.280385
v -1.429736 -1.626968 1.273799
v -1.471737 -1.597644 1.273799
v -1.442666 -1.624553 1.269501
v -1.465015 -1.60895 1.269501
v -1.454919 -1.618295 1.268008
v -1.410651 -1.512215 1.298376
v -1.388807 -1.523547 1.301248
v -1.39227 -1.528564 1.3052
v -1.413492 -1.517725 1.302614
v -1.433716 -1.507771 1.290494
v -1.374783 -1.544751 1.302615
v -1.370818 -1.540402 1.298764
v -1.435888 -1.513543 1.295169
v -1.455219 -1.510753 1.278553
v -1.363139 -1.564334 1.295169
v -1.358854 -1.560746 1.291224
v -1.456758 -1.51652 1.283762
v -1.472567 -1.5208 1.263993
v -1.358743 -1.584952 1.283762
v -1.354358 -1.582125 1.279536
v -1.473583 -1.526299 1.269769
v -1.483668 -1.5367 1.248571
v -1.362125 -1.604116 1.269769
v -1.357872 -1.601961 1.265111
v -1.484335 -1.541699 1.254878
v -1.487182 -1.556537 1.234146
v -1.372877 -1.619517 1.254878
v -1.368973 -1.617861 1.249689
v -1.487717 -1.560864 1.240885
v -1.482686 -1.577916 1.222458
v -1.389702 -1.629295 1.240885
v -1.386321 -1.627908 1.235129
v -1.483321 -1.581481 1.229478
v -1.470722 -1.59826 1.214918
v -1.410571 -1.632273 1.229478
v -1.407825 -1.63089 1.223188
v -1.471677 -1.601064 1.222033
v -1.452733 -1.615114 1.212434
v -1.432968 -1.62809 1.222033
v -1.43089 -1.626447 1.215306
v -1.454189 -1.617251 1.219447
v -1.376008 -1.618662 1.257123
v -1.392077 -1.628001 1.243759
v -1.412008 -1.630844 1.232865
v -1.433397 -1.62685 1.225755
v -1.453664 -1.616498 1.223285
v -1.470365 -1.601039 1.225754
v -1.365739 -1.603954 1.271344
v -1.481485 -1.582337 1.232865
v -1.36251 -1.585652 1.284708
v -1.485684 -1.562647 1.243759
v -1.366708 -1.565961 1.295602
v -1.482454 -1.544344 1.257123
v -1.377829 -1.547259 1.302712
v -1.472185 -1.529636 1.271344
v -1.394529 -1.5318 1.305182
v -1.456116 -1.520298 1.284707
v -1.414797 -1.521448 1.302712
v -1.436186 -1.517454 1.295602
v -1.382885 -1.550197 1.298507
v -1.39776 -1.536428 1.300707
v -1.372979 -1.566856 1.292174
v -1.415813 -1.527207 1.298507
v -1.434865 -1.523649 1.292174
v -1.36924 -1.584394 1.28247
v -1.452617 -1.526182 1.28247
v -1.46693 -1.534501 1.270567
v -1.372117 -1.600697 1.270567
v -1.476077 -1.547601 1.2579
v -1.381263 -1.613798 1.2579
v -1.478954 -1.563904 1.245996
v -1.395576 -1.622116 1.245997
v -1.475214 -1.581442 1.236293
v -1.413329 -1.624649 1.236293
v -1.465309 -1.598101 1.229959
v -1.43238 -1.621091 1.229959
v -1.450433 -1.611871 1.22776
vt 0.04570225 0.9754376
vt 0.0452967 0.9796931
vt 0.05009547 0.9793648
vt 0.05042187 0.9768102
vt 0.0475947 0.971503
vt 0.05065647 0.9818534
vt 0.04633788 0.9837424
vt 0.05162672 0.9745118
vt 0.0507941 0.9684359
vt 0.05200956 0.9839949
vt 0.04862067 0.9871413
vt 0.05356393 0.9727946
vt 0.05496326 0.9668196
vt 0.05399648 0.9855736
vt 0.0518823 0.9895518
vt 0.05596009 0.9717888
vt 0.05942664 0.9667452
vt 0.05641356 0.9863271
vt 0.05571792 0.9908513
vt 0.05859492 0.971701
vt 0.06357577 0.9682523
vt 0.05892507 0.9862438
vt 0.05977878 0.9907831
vt 0.06108347 0.9725597
vt 0.06689391 0.9710815
vt 0.06126354 0.9853442
vt 0.06362454 0.9894062
vt 0.06310198 0.9742138
vt 0.06899974 0.9748397
vt 0.06317256 0.983707
vt 0.06677333 0.9867608
vt 0.06441209 0.9764495
vt 0.06967626 0.9790422
vt 0.06443021 0.9815029
vt 0.06888846 0.9831768
vt 0.06486157 0.9789824
vt 0.05869142 0.9851477
vt 0.06069324 0.9843894
vt 0.06230972 0.98298
vt 0.06336585 0.9811085
vt 0.06371472 0.9789743
vt 0.06332771 0.9768355
vt 0.05655542 0.9852125
vt 0.06221196 0.9749582
vt 0.05451832 0.9845585
vt 0.06050232 0.9735772
vt 0.05283907 0.9832249
vt 0.05841688 0.9728774
vt 0.05170009 0.9814044
vt 0.0562177 0.9729312
vt 0.0512394 0.9792961
vt 0.05418691 0.9737579
vt 0.05152926 0.9771429
vt 0.05255285 0.9752131
vt 0.05270204 0.9809889
vt 0.05232963 0.9792457
vt 0.05747733 0.9790857
vt 0.05363998 0.9824974
vt 0.05257711 0.9774726
vt 0.05342511 0.9758874
vt 0.05503193 0.9835988
vt 0.05477295 0.9746882
vt 0.05671701 0.9841483
vt 0.05644933 0.9740155
vt 0.05848322 0.9840975
vt 0.05825851 0.9739693
vt 0.06013188 0.9834655
vt 0.05996964 0.974546
vt 0.06146732 0.9823022
vt 0.06137374 0.9756758
vt 0.06233707 0.980748
vt 0.0622966 0.9772225
vt 0.06262437 0.9789857
vt 0.04107842 0.9742151
vt 0.04066131 0.9801211
vt 0.0429878 0.9798741
vt 0.0434154 0.9747995
vt 0.04359189 0.9686579
vt 0.04427502 0.9846645
vt 0.04223422 0.9856479
vt 0.0456374 0.9700707
vt 0.04806802 0.9642014
vt 0.04700199 0.9886714
vt 0.04545066 0.9901728
vt 0.04949019 0.9664034
vt 0.05402032 0.9618754
vt 0.05084375 0.9915129
vt 0.04979531 0.9934506
vt 0.05447278 0.9643723
vt 0.06031093 0.9618758
vt 0.05537025 0.9930393
vt 0.054992 0.9952314
vt 0.05984351 0.9643294
vt 0.06608322 0.9640741
vt 0.06018636 0.9929975
vt 0.06055854 0.9952096
vt 0.06480166 0.9661696
vt 0.07064381 0.9680835
vt 0.06473015 0.9913266
vt 0.06582693 0.9933028
vt 0.06874332 0.9695778
vt 0.07349041 0.973341
vt 0.0684915 0.9882331
vt 0.07020108 0.9897465
vt 0.07122466 0.9740772
vt 0.0743458 0.9791701
vt 0.0710297 0.983997
vt 0.07317916 0.9848593
vt 0.0719984 0.9790874
vt 0.06003837 0.9922033
vt 0.06432275 0.9906218
vt 0.06786505 0.9877008
vt 0.07025061 0.983703
vt 0.07115439 0.9790752
vt 0.07041696 0.9743583
vt 0.0554925 0.9922452
vt 0.06807294 0.970128
vt 0.05121187 0.9908014
vt 0.06435892 0.9669296
vt 0.04758445 0.9881101
vt 0.0596951 0.9652095
vt 0.04502109 0.9843219
vt 0.05465332 0.9652547
vt 0.04382709 0.979799
vt 0.0499771 0.9671534
vt 0.04425046 0.9750229
vt 0.04635564 0.9705874
vt 0.04633788 0.9837424
vt 0.0452967 0.9796931
vt 0.04862067 0.9871413
vt 0.04570225 0.9754376
vt 0.0475947 0.971503
vt 0.0518823 0.9895518
vt 0.0507941 0.9684359
vt 0.05496326 0.9668196
vt 0.05571792 0.9908513
vt 0.05942664 0.9667452
vt 0.05977878 0.9907831
vt 0.06357577 0.9682523
vt 0.06362454 0.9894062
vt 0.06689391 0.9710815
vt 0.06677333 0.9867608
vt 0.06899974 0.9748397
vt 0.06888846 0.9831768
vt 0.06967626 0.9790422
vn 0.05353071 0.6573923 0.7516447
vn 0.3524013 0.5047461 0.7880638
vn 0.2726306 0.390495 0.8793101
vn -0.01009213 0.5348936 0.8448591
vn -0.2618783 0.7163011 0.6467863
vn 0.505606 0.1748417 0.8448627
vn 0.5986788 0.2767833 0.751648
vn -0.3084628 0.5906162 0.7456697
vn -0.5557886 0.6743656 0.486138
vn 0.6607311 -0.08605485 0.7456735
vn 0.7626668 0.0009883533 0.6467909
vn -0.5865009 0.5509439 0.5936982
vn -0.792743 0.5366516 0.2890733
vn 0.719298 -0.3607263 0.593706
vn 0.8245787 -0.2893654 0.4861457
vn -0.8106546 0.4206684 0.4072803
vn -0.9441658 0.3197696 0.07936233
vn 0.6742449 -0.6160448 0.4072871
vn 0.776951 -0.559265 0.2890849
vn -0.9538977 0.2155005 0.2088987
vn -0.9917963 0.04986133 -0.1177025
vn 0.5310007 -0.821219 0.2088963
vn 0.6255222 -0.7761588 0.07937001
vn -0.9989539 -0.03982216 0.0224757
vn -0.9298846 -0.2404959 -0.2783457
vn 0.3068436 -0.9514945 0.02247434
vn 0.3885639 -0.913874 -0.1176964
vn -0.9403868 -0.3144893 -0.1294954
vn -0.7658999 -0.5162914 -0.383198
vn 0.0288157 -0.9911613 -0.1294949
vn 0.09466077 -0.9558069 -0.2783387
vn -0.7852607 -0.5753868 -0.2286824
vn -0.5196152 -0.7442619 -0.4196119
vn -0.269553 -0.9354366 -0.228691
vn -0.2207454 -0.896903 -0.3831924
vn -0.5522815 -0.7910406 -0.2631347
vn 0.1928551 -0.8234107 0.5336682
vn 0.03702231 -0.9139818 0.4040628
vn -0.156257 -0.9415593 0.2984121
vn -0.3636867 -0.9028196 0.2294534
vn -0.5602373 -0.8024337 0.2055096
vn -0.7222033 -0.6525128 0.2294549
vn 0.2924391 -0.6807711 0.6715877
vn -0.8300482 -0.4711352 0.2984153
vn 0.3237604 -0.5032805 0.8011791
vn -0.870761 -0.280189 0.4040661
vn 0.2830426 -0.3123335 0.9068267
vn -0.8394362 -0.1026926 0.5336675
vn 0.1751962 -0.1309588 0.9757849
vn -0.7398568 0.03994035 0.6715776
vn 0.01324041 0.01896603 0.9997324
vn -0.584024 0.1305054 0.8011769
vn -0.183304 0.1193496 0.9757844
vn -0.3907332 0.1580852 0.9068278
vn -0.2140334 -0.4214376 0.8812379
vn -0.262751 -0.3763419 0.8884417
vn -0.3556384 -0.509386 0.7836117
vn -0.1815901 -0.4759947 0.8604965
vn -0.3218732 -0.3461424 0.8812395
vn -0.3842674 -0.3344912 0.8604965
vn -0.1693378 -0.5334376 0.8287153
vn -0.4424136 -0.3427867 0.8287144
vn -0.178764 -0.5868227 0.7897357
vn -0.4892941 -0.3700288 0.7897278
vn -0.208726 -0.629725 0.7482513
vn -0.5192443 -0.4129333 0.7482456
vn -0.255594 -0.6569728 0.7092662
vn -0.5286629 -0.4663244 0.7092652
vn -0.3137331 -0.6652722 0.6774839
vn -0.5164157 -0.5237674 0.6774825
vn -0.3761319 -0.6536103 0.6567483
vn -0.4839744 -0.578332 0.656735
vn -0.4352564 -0.6234205 0.6495373
vn 0.0205868 0.6027272 0.7976817
vn 0.3087093 0.4480704 0.8390063
vn 0.1701141 0.2450197 0.9544771
vn -0.08240318 0.3787571 0.9218204
vn -0.2850535 0.6655163 0.6898062
vn 0.3765849 0.04815799 0.9251295
vn 0.5445873 0.2206595 0.8091564
vn -0.350621 0.4326132 0.8306086
vn -0.5710384 0.6284941 0.5281196
vn 0.5127339 -0.1877039 0.8377775
vn 0.700231 -0.05173536 0.7120394
vn -0.601804 0.3994853 0.6915516
vn -0.8023416 0.4959559 0.3320779
vn 0.5630014 -0.4342697 0.7031637
vn 0.7575721 -0.3362991 0.5594529
vn -0.8049839 0.2830328 0.5214339
vn -0.9505903 0.283956 0.1254879
vn 0.5219628 -0.662438 0.5373367
vn 0.7102444 -0.5991351 0.3695811
vn -0.9349889 0.0973598 0.3410525
vn -0.9976184 0.01836976 -0.06648255
vn 0.3946835 -0.8454539 0.3597676
vn 0.564062 -0.8091061 0.1648676
vn -0.9757354 -0.1347217 0.1725995
vn -0.9377748 -0.2683492 -0.2203799
vn 0.1959431 -0.96177 0.1913235
vn 0.3362016 -0.9412999 -0.03037719
vn -0.9223287 -0.3846509 0.03678913
vn -0.7786036 -0.5413201 -0.3174098
vn -0.05117477 -0.9973336 0.05202659
vn 0.05340343 -0.9798021 -0.1927067
vn -0.7816519 -0.6217245 -0.04978929
vn -0.5398396 -0.767451 -0.3458208
vn -0.3176018 -0.9473282 -0.04121238
vn -0.2507965 -0.9196013 -0.3023817
vn -0.5714051 -0.8170714 -0.0767507
vn -0.07058895 -0.7175521 0.6929185
vn -0.1579452 -0.7683105 0.6202841
vn -0.2663042 -0.7837752 0.5610513
vn -0.3825906 -0.7620624 0.5223843
vn -0.4927693 -0.7057924 0.5089552
vn -0.5835563 -0.6217598 0.5223762
vn -0.01476646 -0.6376031 0.7702235
vn -0.6440191 -0.5200707 0.5610399
vn 0.002802831 -0.538095 0.8428796
vn -0.6668565 -0.4130138 0.6202598
vn -0.02002344 -0.4310437 0.9021089
vn -0.6492945 -0.3135156 0.6929103
vn -0.08048152 -0.329366 0.940766
vn -0.5934601 -0.2335553 0.7702318
vn -0.1712756 -0.2453174 0.9541929
vn -0.5061014 -0.1827885 0.8428817
vn -0.2814686 -0.1890385 0.9407656
vn -0.3977499 -0.1673237 0.9021074
vn -0.3556453 -0.5093892 0.7836064
vn -0.355648 -0.5093896 0.783605
vn -0.3556518 -0.5093876 0.7836044
vn -0.3556435 -0.5093849 0.78361
vn -0.3556393 -0.5093933 0.7836065
vn -0.355662 -0.5093822 0.7836034
vn -0.3556419 -0.5093962 0.7836034
vn -0.3556426 -0.5093835 0.7836114
vn -0.3556489 -0.5093899 0.7836043
vn -0.3556443 -0.5093859 0.7836091
vn -0.3556299 -0.5093932 0.7836108
vn -0.3556411 -0.5093901 0.7836078
vn -0.3556294 -0.5093828 0.7836178
vn -0.3556464 -0.5093889 0.7836061
vn -0.355639 -0.5093871 0.7836107
vn -0.3556617 -0.5093934 0.7835963
vn -0.3556503 -0.5094019 0.783596
vn -0.3556607 -0.5094046 0.7835895
g PrisonChamberButton_4_0
f 3/3/3 2/2/2 1/1/1
f 4/4/4 3/3/3 1/1/1
f 4/4/4 1/1/1 5/5/5
f 3/3/3 6/6/6 2/2/2
f 6/6/6 7/7/7 2/2/2
f 8/8/8 4/4/4 5/5/5
f 8/8/8 5/5/5 9/9/9
f 6/6/6 10/10/10 7/7/7
f 10/10/10 11/11/11 7/7/7
f 12/12/12 8/8/8 9/9/9
f 12/12/12 9/9/9 13/13/13
f 10/10/10 14/14/14 11/11/11
f 14/14/14 15/15/15 11/11/11
f 16/16/16 12/12/12 13/13/13
f 16/16/16 13/13/13 17/17/17
f 14/14/14 18/18/18 15/15/15
f 18/18/18 19/19/19 15/15/15
f 20/20/20 16/16/16 17/17/17
f 20/20/20 17/17/17 21/21/21
f 18/18/18 22/22/22 19/19/19
f 22/22/22 23/23/23 19/19/19
f 24/24/24 20/20/20 21/21/21
f 24/24/24 21/21/21 25/25/25
f 22/22/22 26/26/26 23/23/23
f 26/26/26 27/27/27 23/23/23
f 28/28/28 24/24/24 25/25/25
f 28/28/28 25/25/25 29/29/29
f 26/26/26 30/30/30 27/27/27
f 30/30/30 31/31/31 27/27/27
f 32/32/32 28/28/28 29/29/29
f 32/32/32 29/29/29 33/33/33
f 30/30/30 34/34/34 31/31/31
f 34/34/34 35/35/35 31/31/31
f 36/36/36 33/33/33 35/35/35
f 36/36/36 32/32/32 33/33/33
f 34/34/34 36/36/36 35/35/35
f 22/22/22 37/37/37 26/26/26
f 26/26/26 38/38/38 30/30/30
f 37/37/37 38/38/38 26/26/26
f 30/30/30 39/39/39 34/34/34
f 38/38/38 39/39/39 30/30/30
f 34/34/34 40/40/40 36/36/36
f 39/39/39 40/40/40 34/34/34
f 36/36/36 41/41/41 32/32/32
f 40/40/40 41/41/41 36/36/36
f 32/32/32 42/42/42 28/28/28
f 41/41/41 42/42/42 32/32/32
f 43/43/43 37/37/37 22/22/22
f 18/18/18 43/43/43 22/22/22
f 42/42/42 44/44/44 28/28/28
f 28/28/28 44/44/44 24/24/24
f 45/45/45 43/43/43 18/18/18
f 14/14/14 45/45/45 18/18/18
f 44/44/44 46/46/46 24/24/24
f 24/24/24 46/46/46 20/20/20
f 47/47/47 45/45/45 14/14/14
f 10/10/10 47/47/47 14/14/14
f 46/46/46 48/48/48 20/20/20
f 20/20/20 48/48/48 16/16/16
f 49/49/49 47/47/47 10/10/10
f 6/6/6 49/49/49 10/10/10
f 48/48/48 50/50/50 16/16/16
f 16/16/16 50/50/50 12/12/12
f 51/51/51 49/49/49 6/6/6
f 3/3/3 51/51/51 6/6/6
f 50/50/50 52/52/52 12/12/12
f 12/12/12 52/52/52 8/8/8
f 53/53/53 51/51/51 3/3/3
f 4/4/4 53/53/53 3/3/3
f 8/8/8 54/54/54 4/4/4
f 52/52/52 54/54/54 8/8/8
f 54/54/54 53/53/53 4/4/4
f 49/49/49 55/55/55 47/47/47
f 51/51/51 56/56/56 49/49/49
f 56/56/56 55/55/55 49/49/49
f 56/56/56 57/57/57 55/55/55
f 55/55/55 57/57/57 58/58/58
f 55/55/55 58/58/58 47/47/47
f 59/59/59 57/57/57 56/56/56
f 59/59/59 56/56/56 51/51/51
f 53/53/53 59/59/59 51/51/51
f 47/47/47 58/58/58 45/45/45
f 60/60/60 59/59/59 53/53/53
f 54/54/54 60/60/60 53/53/53
f 60/60/60 57/57/57 59/59/59
f 58/58/58 61/61/61 45/45/45
f 58/58/58 57/57/57 61/61/61
f 45/45/45 61/61/61 43/43/43
f 62/62/62 60/60/60 54/54/54
f 62/62/62 57/57/57 60/60/60
f 52/52/52 62/62/62 54/54/54
f 61/61/61 63/63/63 43/43/43
f 61/61/61 57/57/57 63/63/63
f 43/43/43 63/63/63 37/37/37
f 64/64/64 62/62/62 52/52/52
f 64/64/64 57/57/57 62/62/62
f 50/50/50 64/64/64 52/52/52
f 63/63/63 65/65/65 37/37/37
f 63/63/63 57/57/57 65/65/65
f 66/66/66 57/57/57 64/64/64
f 66/66/66 64/64/64 50/50/50
f 65/65/65 57/57/57 67/67/67
f 37/37/37 65/65/65 38/38/38
f 65/65/65 67/67/67 38/38/38
f 48/48/48 66/66/66 50/50/50
f 38/38/38 67/67/67 39/39/39
f 68/68/68 66/66/66 48/48/48
f 68/68/68 57/57/57 66/66/66
f 46/46/46 68/68/68 48/48/48
f 67/67/67 69/69/69 39/39/39
f 67/67/67 57/57/57 69/69/69
f 39/39/39 69/69/69 40/40/40
f 70/70/70 68/68/68 46/46/46
f 70/70/70 57/57/57 68/68/68
f 44/44/44 70/70/70 46/46/46
f 69/69/69 71/71/71 40/40/40
f 69/69/69 57/57/57 71/71/71
f 40/40/40 71/71/71 41/41/41
f 72/72/72 70/70/70 44/44/44
f 72/72/72 57/57/57 70/70/70
f 42/42/42 72/72/72 44/44/44
f 71/71/71 73/73/73 41/41/41
f 71/71/71 57/57/57 73/73/73
f 73/73/73 57/57/57 72/72/72
f 73/73/73 72/72/72 42/42/42
f 41/41/41 73/73/73 42/42/42
g PrisonChamberButton_4_1
f 76/76/76 75/75/75 74/74/74
f 77/77/77 76/76/76 74/74/74
f 77/77/77 74/74/74 78/78/78
f 76/76/76 79/79/79 75/75/75
f 79/79/79 80/80/80 75/75/75
f 81/81/81 77/77/77 78/78/78
f 81/81/81 78/78/78 82/82/82
f 79/79/79 83/83/83 80/80/80
f 83/83/83 84/84/84 80/80/80
f 85/85/85 81/81/81 82/82/82
f 85/85/85 82/82/82 86/86/86
f 83/83/83 87/87/87 84/84/84
f 87/87/87 88/88/88 84/84/84
f 89/89/89 85/85/85 86/86/86
f 89/89/89 86/86/86 90/90/90
f 87/87/87 91/91/91 88/88/88
f 91/91/91 92/92/92 88/88/88
f 93/93/93 89/89/89 90/90/90
f 93/93/93 90/90/90 94/94/94
f 91/91/91 95/95/95 92/92/92
f 95/95/95 96/96/96 92/92/92
f 97/97/97 93/93/93 94/94/94
f 97/97/97 94/94/94 98/98/98
f 95/95/95 99/99/99 96/96/96
f 99/99/99 100/100/100 96/96/96
f 101/101/101 97/97/97 98/98/98
f 101/101/101 98/98/98 102/102/102
f 99/99/99 103/103/103 100/100/100
f 103/103/103 104/104/104 100/100/100
f 105/105/105 101/101/101 102/102/102
f 105/105/105 102/102/102 106/106/106
f 103/103/103 107/107/107 104/104/104
f 107/107/107 108/108/108 104/104/104
f 109/109/109 106/106/106 108/108/108
f 109/109/109 105/105/105 106/106/106
f 107/107/107 109/109/109 108/108/108
f 99/99/99 95/95/95 110/110/110
f 103/103/103 99/99/99 111/111/111
f 111/111/111 99/99/99 110/110/110
f 107/107/107 103/103/103 112/112/112
f 112/112/112 103/103/103 111/111/111
f 109/109/109 107/107/107 113/113/113
f 113/113/113 107/107/107 112/112/112
f 105/105/105 109/109/109 114/114/114
f 114/114/114 109/109/109 113/113/113
f 101/101/101 105/105/105 115/115/115
f 115/115/115 105/105/105 114/114/114
f 110/110/110 95/95/95 116/116/116
f 95/95/95 91/91/91 116/116/116
f 117/117/117 101/101/101 115/115/115
f 97/97/97 101/101/101 117/117/117
f 116/116/116 91/91/91 118/118/118
f 91/91/91 87/87/87 118/118/118
f 119/119/119 97/97/97 117/117/117
f 93/93/93 97/97/97 119/119/119
f 118/118/118 87/87/87 120/120/120
f 87/87/87 83/83/83 120/120/120
f 121/121/121 93/93/93 119/119/119
f 89/89/89 93/93/93 121/121/121
f 120/120/120 83/83/83 122/122/122
f 83/83/83 79/79/79 122/122/122
f 123/123/123 89/89/89 121/121/121
f 85/85/85 89/89/89 123/123/123
f 122/122/122 79/79/79 124/124/124
f 79/79/79 76/76/76 124/124/124
f 125/125/125 85/85/85 123/123/123
f 81/81/81 85/85/85 125/125/125
f 124/124/124 76/76/76 126/126/126
f 76/76/76 77/77/77 126/126/126
f 77/77/77 81/81/81 127/127/127
f 127/127/127 81/81/81 125/125/125
f 126/126/126 77/77/77 127/127/127
f 120/120/120 122/122/122 128/128/128
f 128/128/128 122/122/122 129/129/129
f 122/122/122 124/124/124 129/129/129
f 130/130/130 120/120/120 128/128/128
f 129/129/129 124/124/124 131/131/131
f 124/124/124 126/126/126 131/131/131
f 118/118/118 120/120/120 130/130/130
f 131/131/131 126/126/126 132/132/132
f 126/126/126 127/127/127 132/132/132
f 133/133/133 118/118/118 130/130/130
f 132/132/132 127/127/127 134/134/134
f 127/127/127 125/125/125 134/134/134
f 116/116/116 118/118/118 133/133/133
f 134/134/134 125/125/125 135/135/135
f 136/136/136 116/116/116 133/133/133
f 125/125/125 123/123/123 135/135/135
f 110/110/110 116/116/116 136/136/136
f 135/135/135 123/123/123 137/137/137
f 138/138/138 110/110/110 136/136/136
f 123/123/123 121/121/121 137/137/137
f 111/111/111 110/110/110 138/138/138
f 137/137/137 121/121/121 139/139/139
f 140/140/140 111/111/111 138/138/138
f 121/121/121 119/119/119 139/139/139
f 112/112/112 111/111/111 140/140/140
f 139/139/139 119/119/119 141/141/141
f 142/142/142 112/112/112 140/140/140
f 119/119/119 117/117/117 141/141/141
f 113/113/113 112/112/112 142/142/142
f 141/141/141 117/117/117 143/143/143
f 144/144/144 113/113/113 142/142/142
f 117/117/117 115/115/115 143/143/143
f 114/114/114 113/113/113 144/144/144
f 143/143/143 115/115/115 145/145/145
f 145/145/145 114/114/114 144/144/144
f 115/115/115 114/114/114 145/145/145
