g PrisonChamberButton_3
v -1.672673 1.521765 1.313547
v -1.684581 1.50536 1.315747
v -1.70017 1.520332 1.33263
v -1.68957 1.534935 1.330672
v -1.666203 1.540035 1.307213
v -1.714332 1.509151 1.330672
v -1.700491 1.4928 1.313547
v -1.683811 1.551198 1.325034
v -1.665953 1.557965 1.29751
v -1.730349 1.50274 1.325034
v -1.718484 1.485598 1.307213
v -1.683588 1.567159 1.316396
v -1.671951 1.573395 1.285607
v -1.746289 1.501872 1.316396
v -1.73639 1.484622 1.29751
v -1.688927 1.580894 1.3058
v -1.683475 1.584462 1.272939
v -1.760229 1.506652 1.305801
v -1.75205 1.489993 1.285607
v -1.699186 1.590747 1.294524
v -1.699135 1.589833 1.261036
v -1.770487 1.516504 1.294525
v -1.763573 1.50106 1.27294
v -1.713125 1.595527 1.283929
v -1.717041 1.588858 1.251332
v -1.775826 1.530239 1.283929
v -1.769572 1.51649 1.261036
v -1.729065 1.594659 1.275291
v -1.735034 1.581656 1.244999
v -1.775603 1.546201 1.275291
v -1.769321 1.534421 1.251333
v -1.745082 1.588248 1.269653
v -1.750944 1.569094 1.242799
v -1.769844 1.562464 1.269652
v -1.762852 1.55269 1.244999
v -1.759245 1.577067 1.267695
v -1.770007 1.522288 1.30042
v -1.774879 1.534821 1.290751
v -1.774675 1.549386 1.282869
v -1.769421 1.564226 1.277724
v -1.759748 1.57755 1.275937
v -1.746825 1.587753 1.277724
v -1.760646 1.513298 1.310709
v -1.73221 1.593603 1.282869
v -1.747927 1.508936 1.320377
v -1.717665 1.594395 1.290751
v -1.733382 1.509728 1.328259
v -1.704945 1.590033 1.30042
v -1.718766 1.515578 1.333404
v -1.695585 1.581044 1.310709
v -1.705843 1.525781 1.335191
v -1.690712 1.568511 1.320377
v -1.696171 1.539106 1.333404
v -1.690916 1.553946 1.328259
v -1.722353 1.522742 1.331063
v -1.711555 1.531267 1.332556
v -1.734075 1.552894 1.307802
v -1.734565 1.517854 1.326764
v -1.703474 1.5424 1.331063
v -1.699083 1.554799 1.326764
v -1.746718 1.517192 1.320179
v -1.698913 1.566969 1.320179
v -1.757346 1.520837 1.3121
v -1.702984 1.577441 1.3121
v -1.765167 1.528348 1.303503
v -1.710805 1.584952 1.303503
v -1.769238 1.53882 1.295424
v -1.721433 1.588597 1.295425
v -1.769068 1.550989 1.288839
v -1.733585 1.587935 1.288839
v -1.764677 1.563389 1.28454
v -1.745797 1.583047 1.28454
v -1.756595 1.574522 1.283047
v -1.658764 1.514528 1.313673
v -1.673542 1.494918 1.316907
v -1.677663 1.498717 1.32024
v -1.663665 1.518002 1.317654
v -1.650628 1.536439 1.305474
v -1.696367 1.483952 1.317654
v -1.693344 1.479675 1.314682
v -1.65606 1.539478 1.310208
v -1.650115 1.558008 1.293301
v -1.717519 1.475485 1.310209
v -1.714762 1.470551 1.306255
v -1.655766 1.560557 1.298801
v -1.657286 1.576633 1.278621
v -1.738568 1.474339 1.298802
v -1.736187 1.469087 1.293916
v -1.662817 1.578696 1.284809
v -1.671276 1.590068 1.263204
v -1.756977 1.480652 1.284809
v -1.755034 1.475461 1.279154
v -1.676364 1.591706 1.269918
v -1.690398 1.596692 1.248911
v -1.770524 1.493662 1.269918
v -1.769031 1.488904 1.26375
v -1.694772 1.598018 1.255925
v -1.712347 1.595707 1.237465
v -1.777575 1.5118 1.255925
v -1.776489 1.507794 1.249562
v -1.715822 1.596873 1.244518
v -1.734473 1.587231 1.230246
v -1.77728 1.532879 1.244518
v -1.776508 1.529854 1.238299
v -1.736974 1.588406 1.237072
v -1.754109 1.572287 1.228126
v -1.769675 1.554356 1.237072
v -1.769086 1.552421 1.231323
v -1.755677 1.57364 1.234487
v -1.769194 1.496623 1.272163
v -1.775928 1.513946 1.258799
v -1.775646 1.534076 1.247905
v -1.768384 1.554587 1.240794
v -1.755015 1.573004 1.238325
v -1.737153 1.587106 1.240794
v -1.756256 1.484198 1.286384
v -1.716952 1.595192 1.247905
v -1.738675 1.478169 1.299747
v -1.696849 1.596286 1.258799
v -1.718572 1.479264 1.310641
v -1.679269 1.590257 1.272162
v -1.698372 1.487349 1.317752
v -1.666331 1.577832 1.286384
v -1.68051 1.501451 1.320221
v -1.659597 1.560509 1.299747
v -1.667141 1.519868 1.317752
v -1.659878 1.540379 1.310641
v -1.700491 1.4928 1.313547
v -1.684581 1.50536 1.315747
v -1.718484 1.485598 1.307213
v -1.672673 1.521765 1.313547
v -1.666203 1.540035 1.307213
v -1.73639 1.484622 1.29751
v -1.665953 1.557965 1.29751
v -1.671951 1.573395 1.285607
v -1.75205 1.489993 1.285607
v -1.683475 1.584462 1.272939
v -1.763573 1.50106 1.27294
v -1.699135 1.589833 1.261036
v -1.769572 1.51649 1.261036
v -1.717041 1.588858 1.251332
v -1.769321 1.534421 1.251333
v -1.735034 1.581656 1.244999
v -1.762852 1.55269 1.244999
v -1.750944 1.569094 1.242799
vt 0.7241294 0.9697911
vt 0.7237271 0.9740498
vt 0.7285288 0.9737176
vt 0.7288535 0.9711614
vt 0.7260204 0.9658523
vt 0.7290919 0.9762074
vt 0.7247719 0.9781009
vt 0.7300574 0.9688603
vt 0.7292195 0.9627808
vt 0.7304474 0.9783494
vt 0.7270589 0.9815006
vt 0.7319947 0.9671405
vt 0.7333903 0.9611602
vt 0.7324371 0.9799279
vt 0.7303246 0.9839103
vt 0.7343916 0.9661321
vt 0.7378568 0.9610825
vt 0.7348564 0.98068
vt 0.7341637 0.9852078
vt 0.7370279 0.9660423
vt 0.7420099 0.9625874
vt 0.7373697 0.9805947
vt 0.7382273 0.9851363
vt 0.7395191 0.9668997
vt 0.7453324 0.9654162
vt 0.739709 0.9796927
vt 0.7420746 0.9837557
vt 0.7415403 0.9685534
vt 0.7474425 0.9691752
vt 0.7416179 0.9780529
vt 0.7452235 0.9811062
vt 0.742853 0.9707898
vt 0.7481228 0.9733801
vt 0.7428749 0.9758465
vt 0.7473373 0.9775181
vt 0.7433046 0.973324
vt 0.7371348 0.979498
vt 0.7391375 0.9787377
vt 0.7407539 0.9773262
vt 0.7418095 0.9754525
vt 0.742157 0.9733168
vt 0.7417681 0.9711767
vt 0.7349977 0.9795646
vt 0.7406502 0.9692991
vt 0.7329586 0.9789116
vt 0.7389383 0.9679184
vt 0.7312771 0.9775785
vt 0.7368508 0.9672197
vt 0.7301359 0.9757575
vt 0.7346503 0.9672751
vt 0.7296733 0.9736482
vt 0.7326188 0.9681039
vt 0.7299618 0.9714934
vt 0.7309848 0.9695612
vt 0.7311385 0.975341
vt 0.7307644 0.9735968
vt 0.7359154 0.9734328
vt 0.732078 0.9768497
vt 0.7310106 0.9718224
vt 0.7318581 0.9702356
vt 0.7334718 0.9779509
vt 0.733206 0.9690344
vt 0.7351584 0.9784994
vt 0.734883 0.96836
vt 0.7369258 0.9784473
vt 0.7366931 0.9683124
vt 0.738575 0.9778134
vt 0.7384062 0.9688881
vt 0.7399105 0.9766485
vt 0.7398118 0.9700177
vt 0.7407798 0.9750925
vt 0.7407366 0.9715648
vt 0.741066 0.9733288
vt 0.7195017 0.9685715
vt 0.7190887 0.9744817
vt 0.7214167 0.9742326
vt 0.7218407 0.9691542
vt 0.7220126 0.9630084
vt 0.7227084 0.9790254
vt 0.7206671 0.9800109
vt 0.7240607 0.9644204
vt 0.7264885 0.9585454
vt 0.7254402 0.983033
vt 0.7238891 0.9845365
vt 0.7279134 0.9607478
vt 0.7324431 0.9562134
vt 0.7292868 0.9858737
vt 0.7282391 0.9878132
vt 0.7328976 0.9587117
vt 0.7387378 0.9562091
vt 0.7338174 0.9873975
vt 0.7334406 0.9895916
vt 0.738272 0.9586647
vt 0.7445158 0.9584046
vt 0.738637 0.987352
vt 0.7390109 0.9895656
vt 0.743235 0.9605023
vt 0.7490826 0.9624133
vt 0.7431824 0.9856766
vt 0.7442815 0.9876533
vt 0.7471817 0.9639101
vt 0.7519351 0.9676722
vt 0.746944 0.9825781
vt 0.748656 0.9840912
vt 0.7496684 0.9684105
vt 0.7527954 0.9735045
vt 0.7494808 0.9783374
vt 0.7516322 0.9791986
vt 0.7504464 0.9734237
vt 0.7384883 0.9865575
vt 0.7427741 0.9849717
vt 0.7463167 0.982046
vt 0.7487007 0.9780436
vt 0.7496019 0.973412
vt 0.7488604 0.9686924
vt 0.7339392 0.9866028
vt 0.7465115 0.9644611
vt 0.7296547 0.9851612
vt 0.7427926 0.9612632
vt 0.7260225 0.9824708
vt 0.7381242 0.9595456
vt 0.7234547 0.978682
vt 0.733079 0.9595945
vt 0.7222564 0.974157
vt 0.7284009 0.9614981
vt 0.7226766 0.9693772
vt 0.7247797 0.9649372
vt 0.7247719 0.9781009
vt 0.7237271 0.9740498
vt 0.7270589 0.9815006
vt 0.7241294 0.9697911
vt 0.7260204 0.9658523
vt 0.7303246 0.9839103
vt 0.7292195 0.9627808
vt 0.7333903 0.9611602
vt 0.7341637 0.9852078
vt 0.7378568 0.9610825
vt 0.7382273 0.9851363
vt 0.7420099 0.9625874
vt 0.7420746 0.9837557
vt 0.7453324 0.9654162
vt 0.7452235 0.9811062
vt 0.7474425 0.9691752
vt 0.7473373 0.9775181
vt 0.7481228 0.9733801
vn 0.641137 -0.1548209 0.7516475
vn 0.4439942 -0.4264093 0.7880636
vn 0.3434896 -0.329887 0.879312
vn 0.5299819 -0.07296783 0.8448639
vn 0.7482415 0.1476452 0.6467886
vn 0.09432235 -0.5266107 0.8448577
vn 0.1805988 -0.6343622 0.751644
vn 0.6313028 0.2131515 0.7456696
vn 0.75239 0.4444964 0.4861401
vn -0.1874635 -0.6393986 0.745672
vn -0.1172859 -0.753594 0.6467922
vn 0.6352347 0.4939669 0.5936949
vn 0.6530898 0.6999332 0.2890801
vn -0.4678983 -0.6546631 0.5937064
vn -0.4137339 -0.7697273 0.4861522
vn 0.5413029 0.7356094 0.4072714
vn 0.4623086 0.88316 0.079367
vn -0.7131488 -0.570558 0.4072865
vn -0.6729855 -0.680824 0.2890833
vn 0.3608176 0.9089429 0.2088862
vn 0.2030553 0.9720674 -0.117701
vn -0.8936252 -0.3972326 0.2089025
vn -0.8637636 -0.4976072 0.07936979
vn 0.1155638 0.9930457 0.02247856
vn -0.09339743 0.955928 -0.2783498
vn -0.9875656 -0.1555906 0.02248978
vn -0.9630714 -0.2421614 -0.1176915
vn -0.1648709 0.9777787 -0.129485
vn -0.391282 0.8366909 -0.3832056
vn -0.9836425 0.1252339 -0.1294758
vn -0.9589234 0.05469274 -0.2783425
vn -0.4466635 0.8649832 -0.2286826
vn -0.6546724 0.6287453 -0.4196229
vn -0.8823246 0.4113526 -0.228675
vn -0.8518174 0.3571576 -0.3832044
vn -0.6958317 0.6682662 -0.2631324
vn -0.8433559 -0.06283747 0.5336687
vn -0.9086637 0.1051499 0.4040716
vn -0.9059342 0.3003742 0.298427
vn -0.8355007 0.4992827 0.2294676
vn -0.7058556 0.6778896 0.2055077
vn -0.5326299 0.8146506 0.2294554
vn -0.7178932 -0.1833394 0.6715772
vn -0.3367305 0.8930613 0.2984192
vn -0.547397 -0.2418057 0.8011782
vn -0.141779 0.9036784 0.4040596
vn -0.3524378 -0.231204 0.9068254
vn 0.02872692 0.8452122 0.5336584
vn -0.1565353 -0.1527816 0.975784
vn 0.1541986 0.7247141 0.6715745
vn 0.01667998 -0.01601621 0.9997326
vn 0.2195047 0.5567218 0.8011732
vn 0.1463256 0.1625856 0.9757842
vn 0.2167642 0.3614959 0.9068263
vn -0.3831503 0.2767903 0.8812394
vn -0.3310426 0.3179291 0.8884435
vn -0.4480774 0.4303262 0.7836108
vn -0.442074 0.2532006 0.8604999
vn -0.2920506 0.3716606 0.8812348
vn -0.2708558 0.4314845 0.8604988
vn -0.5007278 0.2500142 0.8287126
vn -0.2700393 0.4902122 0.8287164
vn -0.5520136 0.267597 0.7897296
vn -0.2896902 0.5407476 0.7897288
vn -0.5897471 0.3038432 0.7482498
vn -0.3274265 0.576987 0.7482499
vn -0.6093978 0.3543773 0.7092609
vn -0.3787117 0.5945853 0.7092572
vn -0.6085851 0.4130938 0.677479
vn -0.4373566 0.5913965 0.6774728
vn -0.5873891 0.4729421 0.6567341
vn -0.4962857 0.5678034 0.6567342
vn -0.5483879 0.5266711 0.6495293
vn 0.5831352 -0.09952029 0.8062562
vn 0.3758342 -0.3461623 0.8596048
vn 0.2026355 -0.1912312 0.9604006
vn 0.3800608 0.02874088 0.9245149
vn 0.7010061 0.1834454 0.6891577
vn -0.02373005 -0.3596571 0.9327828
vn 0.1012369 -0.5438204 0.833073
vn 0.480939 0.2807972 0.8305724
vn 0.7147644 0.4664358 0.5211042
vn -0.2722749 -0.4685944 0.8404081
vn -0.1817838 -0.6721175 0.7177832
vn 0.4914943 0.5325433 0.6890798
vn 0.6227109 0.7131595 0.3219235
vn -0.5168033 -0.4954047 0.6982037
vn -0.4523326 -0.7062505 0.5446149
vn 0.409813 0.7513721 0.5171976
vn 0.4364604 0.8922271 0.1159017
vn -0.7352127 -0.426408 0.5269141
vn -0.6962305 -0.6297285 0.3445362
vn 0.2460353 0.908994 0.3364469
vn 0.1793149 0.9812041 -0.07130721
vn -0.8972203 -0.2710136 0.3486364
vn -0.8798219 -0.4535585 0.1421203
vn 0.02103166 0.9852474 0.1698388
vn -0.1167319 0.9694239 -0.2158492
vn -0.9810292 -0.05011476 0.1872702
vn -0.9789445 -0.2009063 -0.03611356
vn -0.2364597 0.9708679 0.03876098
vn -0.4149358 0.8593912 -0.2987893
vn -0.976214 0.2067176 0.06537567
vn -0.9816897 0.0955607 -0.1647836
vn -0.4937131 0.8687083 -0.03991545
vn -0.6786174 0.6668885 -0.3077956
vn -0.88442 0.4664263 -0.01574201
vn -0.881101 0.3997367 -0.2527284
vn -0.7183121 0.6934868 -0.05571146
vn -0.697932 0.1809985 0.6929146
vn -0.7345463 0.2751664 0.6202622
vn -0.733027 0.384607 0.561025
vn -0.6935299 0.4961259 0.5223747
vn -0.6208447 0.5962474 0.5089606
vn -0.5237428 0.6729234 0.5223672
vn -0.6275964 0.1134449 0.7702292
vn -0.4139168 0.716889 0.5610197
vn -0.5320174 0.08066028 0.8428829
vn -0.3046161 0.7228292 0.6202637
vn -0.4227218 0.08660965 0.9021115
vn -0.2090391 0.6900499 0.692917
vn -0.3128881 0.1305702 0.9407723
vn -0.1387155 0.6224876 0.7702384
vn -0.2157918 0.2072423 0.9541932
vn -0.1021028 0.5283185 0.8428847
vn -0.1430966 0.3073655 0.9407709
vn -0.1036082 0.4188816 0.9021106
vn -0.4480695 0.4303081 0.7836254
vn -0.4480676 0.4303211 0.7836193
vn -0.4480788 0.4303156 0.7836159
vn -0.4480654 0.4303278 0.7836169
vn -0.4480633 0.4303316 0.7836159
vn -0.4480753 0.4303342 0.7836078
vn -0.4480751 0.4303285 0.7836109
vn -0.4480787 0.4303264 0.7836099
vn -0.4480729 0.4303461 0.7836025
vn -0.4480656 0.4303377 0.7836114
vn -0.4480759 0.4303356 0.7836065
vn -0.4480713 0.4303249 0.7836152
vn -0.4480895 0.4303247 0.7836047
vn -0.4480818 0.430311 0.7836168
vn -0.448089 0.4303271 0.7836037
vn -0.4480669 0.4303128 0.7836242
vn -0.4480643 0.430324 0.7836196
vn -0.4480561 0.4303174 0.783628
g PrisonChamberButton_3_0
f 3/3/3 2/2/2 1/1/1
f 4/4/4 3/3/3 1/1/1
f 4/4/4 1/1/1 5/5/5
f 3/3/3 6/6/6 2/2/2
f 6/6/6 7/7/7 2/2/2
f 8/8/8 4/4/4 5/5/5
f 8/8/8 5/5/5 9/9/9
f 6/6/6 10/10/10 7/7/7
f 10/10/10 11/11/11 7/7/7
f 12/12/12 8/8/8 9/9/9
f 12/12/12 9/9/9 13/13/13
f 10/10/10 14/14/14 11/11/11
f 14/14/14 15/15/15 11/11/11
f 16/16/16 12/12/12 13/13/13
f 16/16/16 13/13/13 17/17/17
f 14/14/14 18/18/18 15/15/15
f 18/18/18 19/19/19 15/15/15
f 20/20/20 16/16/16 17/17/17
f 20/20/20 17/17/17 21/21/21
f 18/18/18 22/22/22 19/19/19
f 22/22/22 23/23/23 19/19/19
f 24/24/24 20/20/20 21/21/21
f 24/24/24 21/21/21 25/25/25
f 22/22/22 26/26/26 23/23/23
f 26/26/26 27/27/27 23/23/23
f 28/28/28 24/24/24 25/25/25
f 28/28/28 25/25/25 29/29/29
f 26/26/26 30/30/30 27/27/27
f 30/30/30 31/31/31 27/27/27
f 32/32/32 28/28/28 29/29/29
f 32/32/32 29/29/29 33/33/33
f 30/30/30 34/34/34 31/31/31
f 34/34/34 35/35/35 31/31/31
f 36/36/36 33/33/33 35/35/35
f 36/36/36 32/32/32 33/33/33
f 34/34/34 36/36/36 35/35/35
f 22/22/22 37/37/37 26/26/26
f 26/26/26 38/38/38 30/30/30
f 37/37/37 38/38/38 26/26/26
f 30/30/30 39/39/39 34/34/34
f 38/38/38 39/39/39 30/30/30
f 34/34/34 40/40/40 36/36/36
f 39/39/39 40/40/40 34/34/34
f 36/36/36 41/41/41 32/32/32
f 40/40/40 41/41/41 36/36/36
f 32/32/32 42/42/42 28/28/28
f 41/41/41 42/42/42 32/32/32
f 43/43/43 37/37/37 22/22/22
f 18/18/18 43/43/43 22/22/22
f 42/42/42 44/44/44 28/28/28
f 28/28/28 44/44/44 24/24/24
f 45/45/45 43/43/43 18/18/18
f 14/14/14 45/45/45 18/18/18
f 44/44/44 46/46/46 24/24/24
f 24/24/24 46/46/46 20/20/20
f 47/47/47 45/45/45 14/14/14
f 10/10/10 47/47/47 14/14/14
f 46/46/46 48/48/48 20/20/20
f 20/20/20 48/48/48 16/16/16
f 49/49/49 47/47/47 10/10/10
f 6/6/6 49/49/49 10/10/10
f 48/48/48 50/50/50 16/16/16
f 16/16/16 50/50/50 12/12/12
f 51/51/51 49/49/49 6/6/6
f 3/3/3 51/51/51 6/6/6
f 50/50/50 52/52/52 12/12/12
f 12/12/12 52/52/52 8/8/8
f 53/53/53 51/51/51 3/3/3
f 4/4/4 53/53/53 3/3/3
f 8/8/8 54/54/54 4/4/4
f 52/52/52 54/54/54 8/8/8
f 54/54/54 53/53/53 4/4/4
f 49/49/49 55/55/55 47/47/47
f 51/51/51 56/56/56 49/49/49
f 56/56/56 55/55/55 49/49/49
f 56/56/56 57/57/57 55/55/55
f 55/55/55 57/57/57 58/58/58
f 55/55/55 58/58/58 47/47/47
f 59/59/59 57/57/57 56/56/56
f 59/59/59 56/56/56 51/51/51
f 53/53/53 59/59/59 51/51/51
f 47/47/47 58/58/58 45/45/45
f 60/60/60 59/59/59 53/53/53
f 54/54/54 60/60/60 53/53/53
f 60/60/60 57/57/57 59/59/59
f 58/58/58 61/61/61 45/45/45
f 58/58/58 57/57/57 61/61/61
f 45/45/45 61/61/61 43/43/43
f 62/62/62 60/60/60 54/54/54
f 62/62/62 57/57/57 60/60/60
f 52/52/52 62/62/62 54/54/54
f 61/61/61 63/63/63 43/43/43
f 61/61/61 57/57/57 63/63/63
f 43/43/43 63/63/63 37/37/37
f 64/64/64 62/62/62 52/52/52
f 64/64/64 57/57/57 62/62/62
f 50/50/50 64/64/64 52/52/52
f 63/63/63 65/65/65 37/37/37
f 63/63/63 57/57/57 65/65/65
f 66/66/66 57/57/57 64/64/64
f 66/66/66 64/64/64 50/50/50
f 65/65/65 57/57/57 67/67/67
f 37/37/37 65/65/65 38/38/38
f 65/65/65 67/67/67 38/38/38
f 48/48/48 66/66/66 50/50/50
f 38/38/38 67/67/67 39/39/39
f 68/68/68 66/66/66 48/48/48
f 68/68/68 57/57/57 66/66/66
f 46/46/46 68/68/68 48/48/48
f 67/67/67 69/69/69 39/39/39
f 67/67/67 57/57/57 69/69/69
f 39/39/39 69/69/69 40/40/40
f 70/70/70 68/68/68 46/46/46
f 70/70/70 57/57/57 68/68/68
f 44/44/44 70/70/70 46/46/46
f 69/69/69 71/71/71 40/40/40
f 69/69/69 57/57/57 71/71/71
f 40/40/40 71/71/71 41/41/41
f 72/72/72 70/70/70 44/44/44
f 72/72/72 57/57/57 70/70/70
f 42/42/42 72/72/72 44/44/44
f 71/71/71 73/73/73 41/41/41
f 71/71/71 57/57/57 73/73/73
f 73/73/73 57/57/57 72/72/72
f 73/73/73 72/72/72 42/42/42
f 41/41/41 73/73/73 42/42/42
g PrisonChamberButton_3_1
f 76/76/76 75/75/75 74/74/74
f 77/77/77 76/76/76 74/74/74
f 77/77/77 74/74/74 78/78/78
f 76/76/76 79/79/79 75/75/75
f 79/79/79 80/80/80 75/75/75
f 81/81/81 77/77/77 78/78/78
f 81/81/81 78/78/78 82/82/82
f 79/79/79 83/83/83 80/80/80
f 83/83/83 84/84/84 80/80/80
f 85/85/85 81/81/81 82/82/82
f 85/85/85 82/82/82 86/86/86
f 83/83/83 87/87/87 84/84/84
f 87/87/87 88/88/88 84/84/84
f 89/89/89 85/85/85 86/86/86
f 89/89/89 86/86/86 90/90/90
f 87/87/87 91/91/91 88/88/88
f 91/91/91 92/92/92 88/88/88
f 93/93/93 89/89/89 90/90/90
f 93/93/93 90/90/90 94/94/94
f 91/91/91 95/95/95 92/92/92
f 95/95/95 96/96/96 92/92/92
f 97/97/97 93/93/93 94/94/94
f 97/97/97 94/94/94 98/98/98
f 95/95/95 99/99/99 96/96/96
f 99/99/99 100/100/100 96/96/96
f 101/101/101 97/97/97 98/98/98
f 101/101/101 98/98/98 102/102/102
f 99/99/99 103/103/103 100/100/100
f 103/103/103 104/104/104 100/100/100
f 105/105/105 101/101/101 102/102/102
f 105/105/105 102/102/102 106/106/106
f 103/103/103 107/107/107 104/104/104
f 107/107/107 108/108/108 104/104/104
f 109/109/109 106/106/106 108/108/108
f 109/109/109 105/105/105 106/106/106
f 107/107/107 109/109/109 108/108/108
f 99/99/99 95/95/95 110/110/110
f 103/103/103 99/99/99 111/111/111
f 111/111/111 99/99/99 110/110/110
f 107/107/107 103/103/103 112/112/112
f 112/112/112 103/103/103 111/111/111
f 109/109/109 107/107/107 113/113/113
f 113/113/113 107/107/107 112/112/112
f 105/105/105 109/109/109 114/114/114
f 114/114/114 109/109/109 113/113/113
f 101/101/101 105/105/105 115/115/115
f 115/115/115 105/105/105 114/114/114
f 110/110/110 95/95/95 116/116/116
f 95/95/95 91/91/91 116/116/116
f 117/117/117 101/101/101 115/115/115
f 97/97/97 101/101/101 117/117/117
f 116/116/116 91/91/91 118/118/118
f 91/91/91 87/87/87 118/118/118
f 119/119/119 97/97/97 117/117/117
f 93/93/93 97/97/97 119/119/119
f 118/118/118 87/87/87 120/120/120
f 87/87/87 83/83/83 120/120/120
f 121/121/121 93/93/93 119/119/119
f 89/89/89 93/93/93 121/121/121
f 120/120/120 83/83/83 122/122/122
f 83/83/83 79/79/79 122/122/122
f 123/123/123 89/89/89 121/121/121
f 85/85/85 89/89/89 123/123/123
f 122/122/122 79/79/79 124/124/124
f 79/79/79 76/76/76 124/124/124
f 125/125/125 85/85/85 123/123/123
f 81/81/81 85/85/85 125/125/125
f 124/124/124 76/76/76 126/126/126
f 76/76/76 77/77/77 126/126/126
f 77/77/77 81/81/81 127/127/127
f 127/127/127 81/81/81 125/125/125
f 126/126/126 77/77/77 127/127/127
f 120/120/120 122/122/122 128/128/128
f 128/128/128 122/122/122 129/129/129
f 122/122/122 124/124/124 129/129/129
f 130/130/130 120/120/120 128/128/128
f 129/129/129 124/124/124 131/131/131
f 124/124/124 126/126/126 131/131/131
f 118/118/118 120/120/120 130/130/130
f 131/131/131 126/126/126 132/132/132
f 126/126/126 127/127/127 132/132/132
f 133/133/133 118/118/118 130/130/130
f 132/132/132 127/127/127 134/134/134
f 127/127/127 125/125/125 134/134/134
f 116/116/116 118/118/118 133/133/133
f 134/134/134 125/125/125 135/135/135
f 136/136/136 116/116/116 133/133/133
f 125/125/125 123/123/123 135/135/135
f 110/110/110 116/116/116 136/136/136
f 135/135/135 123/123/123 137/137/137
f 138/138/138 110/110/110 136/136/136
f 123/123/123 121/121/121 137/137/137
f 111/111/111 110/110/110 138/138/138
f 137/137/137 121/121/121 139/139/139
f 140/140/140 111/111/111 138/138/138
f 121/121/121 119/119/119 139/139/139
f 112/112/112 111/111/111 140/140/140
f 139/139/139 119/119/119 141/141/141
f 142/142/142 112/112/112 140/140/140
f 119/119/119 117/117/117 141/141/141
f 113/113/113 112/112/112 142/142/142
f 141/141/141 117/117/117 143/143/143
f 144/144/144 113/113/113 142/142/142
f 117/117/117 115/115/115 143/143/143
f 114/114/114 113/113/113 144/144/144
f 143/143/143 115/115/115 145/145/145
f 145/145/145 114/114/114 144/144/144
f 115/115/115 114/114/114 145/145/145
