g PrisonChamberButton_6
v -0.216318 -1.868549 1.324851
v -0.196386 -1.864859 1.327051
v -0.1953971 -1.88645 1.343934
v -0.2131401 -1.889735 1.341976
v -0.233592 -1.877338 1.318517
v -0.1774282 -1.888099 1.341976
v -0.1762001 -1.866712 1.324851
v -0.2285169 -1.897558 1.336338
v -0.2461244 -1.890164 1.308814
v -0.1614005 -1.894484 1.336338
v -0.1581951 -1.873884 1.318517
v -0.239673 -1.908976 1.3277
v -0.2524038 -1.905482 1.29691
v -0.1492474 -1.904834 1.3277
v -0.1445424 -1.885511 1.308814
v -0.2452627 -1.922611 1.317104
v -0.2516727 -1.921443 1.284243
v -0.1424345 -1.917901 1.317104
v -0.136889 -1.900191 1.296911
v -0.2446118 -1.93682 1.305828
v -0.2440193 -1.936122 1.27234
v -0.1417837 -1.932109 1.305828
v -0.1361579 -1.916151 1.284243
v -0.237799 -1.949887 1.295232
v -0.2303667 -1.947749 1.262637
v -0.1473734 -1.945744 1.295232
v -0.1424373 -1.931469 1.27234
v -0.2256458 -1.960237 1.286595
v -0.2123615 -1.954921 1.256303
v -0.1585295 -1.957162 1.286595
v -0.1549698 -1.944295 1.262637
v -0.2096182 -1.966621 1.280957
v -0.1921757 -1.956774 1.254103
v -0.1739062 -1.964985 1.280957
v -0.1722437 -1.953084 1.256303
v -0.1916492 -1.968271 1.278998
v -0.1461157 -1.935971 1.311724
v -0.1512161 -1.948414 1.302055
v -0.1613958 -1.958832 1.294173
v -0.175427 -1.965971 1.289028
v -0.1916173 -1.968968 1.287242
v -0.2080137 -1.967463 1.289028
v -0.1467095 -1.923007 1.322013
v -0.2226387 -1.961638 1.294173
v -0.1529262 -1.911083 1.331681
v -0.2337283 -1.952193 1.302055
v -0.1640157 -1.901639 1.339563
v -0.2399451 -1.94027 1.311724
v -0.1786408 -1.895813 1.344708
v -0.2405388 -1.927305 1.322013
v -0.1950371 -1.894308 1.346495
v -0.2354383 -1.914863 1.331681
v -0.2112274 -1.897306 1.344708
v -0.2252586 -1.904445 1.339563
v -0.180975 -1.903477 1.342367
v -0.1946748 -1.90222 1.34386
v -0.1932461 -1.93341 1.319106
v -0.1687551 -1.908345 1.338068
v -0.2082024 -1.904724 1.342367
v -0.2199261 -1.910689 1.338068
v -0.1594892 -1.916236 1.331483
v -0.2284318 -1.919394 1.331483
v -0.1542949 -1.926199 1.323404
v -0.2326934 -1.92979 1.323404
v -0.1537988 -1.937031 1.314807
v -0.2321973 -1.940622 1.314807
v -0.1580604 -1.947427 1.306728
v -0.2270029 -1.950585 1.306728
v -0.1665661 -1.956132 1.300143
v -0.2177371 -1.958476 1.300143
v -0.1782897 -1.962097 1.295844
v -0.2055172 -1.963344 1.295844
v -0.1918173 -1.964601 1.294351
v -0.2214803 -1.854176 1.325547
v -0.197278 -1.85038 1.329086
v -0.1968249 -1.855278 1.331544
v -0.220256 -1.859617 1.328958
v -0.2424548 -1.864247 1.317086
v -0.1730954 -1.857456 1.328958
v -0.1723473 -1.852997 1.326889
v -0.2405624 -1.869948 1.321512
v -0.2576717 -1.87938 1.304724
v -0.1519294 -1.865888 1.321513
v -0.150502 -1.861337 1.318718
v -0.2552949 -1.885026 1.310105
v -0.2652954 -1.897747 1.28995
v -0.1358801 -1.879556 1.310106
v -0.1339373 -1.875179 1.306565
v -0.2626766 -1.903033 1.296112
v -0.2644069 -1.917135 1.274549
v -0.1268831 -1.896813 1.296113
v -0.1246519 -1.892854 1.291895
v -0.2618171 -1.921795 1.281222
v -0.2551129 -1.935205 1.260376
v -0.1260236 -1.915575 1.281222
v -0.1237652 -1.91223 1.276477
v -0.2528201 -1.939052 1.267229
v -0.2385345 -1.949777 1.249141
v -0.1334053 -1.933582 1.267229
v -0.1313843 -1.930969 1.262172
v -0.2367708 -1.95272 1.255822
v -0.2166714 -1.959093 1.2422
v -0.1481379 -1.94866 1.255822
v -0.1465904 -1.946812 1.250704
v -0.2156049 -1.961151 1.248376
v -0.1921606 -1.962031 1.24039
v -0.1684443 -1.958991 1.248376
v -0.167549 -1.957847 1.243457
v -0.1918753 -1.963329 1.245791
v -0.1290273 -1.916806 1.283466
v -0.136077 -1.934003 1.270103
v -0.150147 -1.948402 1.259209
v -0.1695401 -1.958269 1.252098
v -0.1919174 -1.962412 1.249629
v -0.2145797 -1.960332 1.252098
v -0.1298481 -1.898887 1.297688
v -0.2347937 -1.95228 1.259209
v -0.1384405 -1.882407 1.311051
v -0.2501213 -1.939226 1.270103
v -0.1537679 -1.869353 1.321945
v -0.2587135 -1.922746 1.283466
v -0.173982 -1.861301 1.329056
v -0.2595344 -1.904827 1.297687
v -0.1966443 -1.859221 1.331525
v -0.2524847 -1.88763 1.311051
v -0.2190216 -1.863364 1.329056
v -0.2384148 -1.87323 1.321945
v -0.1762001 -1.866712 1.324851
v -0.196386 -1.864859 1.327051
v -0.1581951 -1.873884 1.318517
v -0.216318 -1.868549 1.324851
v -0.233592 -1.877338 1.318517
v -0.1445424 -1.885511 1.308814
v -0.2461244 -1.890164 1.308814
v -0.2524038 -1.905482 1.29691
v -0.136889 -1.900191 1.296911
v -0.2516727 -1.921443 1.284243
v -0.1361579 -1.916151 1.284243
v -0.2440193 -1.936122 1.27234
v -0.1424373 -1.931469 1.27234
v -0.2303667 -1.947749 1.262637
v -0.1549698 -1.944295 1.262637
v -0.2123615 -1.954921 1.256303
v -0.1722437 -1.953084 1.256303
v -0.1921757 -1.956774 1.254103
vt 0.083597 0.9796897
vt 0.08471447 0.9837627
vt 0.08903098 0.9817715
vt 0.08842802 0.9792897
vt 0.08396566 0.975391
vt 0.09042794 0.9838798
vt 0.08709508 0.9871429
vt 0.08872354 0.9767279
vt 0.08586985 0.9714249
vt 0.09243518 0.9853899
vt 0.09039736 0.9894924
vt 0.08990985 0.9744188
vt 0.08907437 0.9683528
vt 0.09483266 0.9861578
vt 0.09426361 0.9905878
vt 0.09183276 0.9726924
vt 0.0932048 0.9667309
vt 0.09734052 0.98601
vt 0.09827745 0.9904544
vt 0.09421992 0.9716755
vt 0.09761381 0.9666677
vt 0.09964442 0.9850525
vt 0.1020262 0.9889724
vt 0.09682995 0.971583
vt 0.101715 0.9681326
vt 0.1015026 0.9833967
vt 0.105121 0.9863477
vt 0.09929258 0.9724024
vt 0.1050086 0.9708948
vt 0.1027033 0.9812046
vt 0.1071253 0.9827839
vt 0.101302 0.974018
vt 0.1071203 0.9745751
vt 0.1030993 0.9787126
vt 0.1078386 0.9787049
vt 0.1026135 0.9762158
vt 0.09904313 0.984116
vt 0.1006376 0.9827091
vt 0.1016455 0.9808316
vt 0.10197 0.9787201
vt 0.1015435 0.9766126
vt 0.1004291 0.9747601
vt 0.09708184 0.9849254
vt 0.09872872 0.97341
vt 0.09496093 0.9850328
vt 0.09665209 0.972734
vt 0.09293437 0.9843848
vt 0.09447169 0.9728262
vt 0.09123737 0.9830968
vt 0.09245962 0.973651
vt 0.09006631 0.9813042
vt 0.09084052 0.9751121
vt 0.08957219 0.979205
vt 0.08983541 0.977049
vt 0.09202027 0.9823587
vt 0.09105945 0.9808726
vt 0.09578401 0.9789127
vt 0.0934217 0.9834284
vt 0.09066105 0.9791394
vt 0.09088576 0.9773668
vt 0.095101 0.9839618
vt 0.09171635 0.9757774
vt 0.09685838 0.9838803
vt 0.09304905 0.9745731
vt 0.09848106 0.9832135
vt 0.09471011 0.9738931
vt 0.09979129 0.9820474
vt 0.09650081 0.9738216
vt 0.1006241 0.9804971
vt 0.09820366 0.9743734
vt 0.1008866 0.9787464
vt 0.09960699 0.9754838
vt 0.1005334 0.977007
vt 0.07890064 0.980184
vt 0.08058208 0.9857797
vt 0.0826444 0.9847381
vt 0.08126181 0.9799029
vt 0.07926065 0.9741758
vt 0.08550876 0.9887168
vt 0.08396417 0.9903384
vt 0.08164907 0.9747556
vt 0.08179897 0.968464
vt 0.08943188 0.991475
vt 0.08851832 0.9934068
vt 0.08390546 0.9699866
vt 0.08644331 0.9641414
vt 0.09398478 0.9927695
vt 0.09368742 0.9949322
vt 0.08776355 0.9662919
vt 0.09229589 0.9618793
vt 0.09871817 0.9926074
vt 0.09913105 0.9947752
vt 0.09273648 0.9643336
vt 0.09847188 0.9618747
vt 0.1031785 0.9908882
vt 0.1042963 0.9928151
vt 0.09801924 0.964288
vt 0.1041564 0.9640053
vt 0.1068208 0.9877478
vt 0.1085316 0.9892038
vt 0.1029094 0.966074
vt 0.1086719 0.967912
vt 0.1092407 0.9835533
vt 0.1113622 0.9843649
vt 0.1068159 0.9693981
vt 0.1115207 0.9730526
vt 0.1101219 0.978718
vt 0.1124277 0.9787686
vt 0.1093016 0.9738004
vt 0.1027639 0.9902017
vt 0.1061955 0.9872344
vt 0.1084711 0.9832768
vt 0.1092923 0.9787173
vt 0.1085101 0.9740856
vt 0.1061611 0.9699454
vt 0.09855467 0.9918275
vt 0.1024781 0.9668248
vt 0.09407789 0.991981
vt 0.09787542 0.9651549
vt 0.08977556 0.990752
vt 0.09291172 0.9652063
vt 0.08607924 0.9881393
vt 0.0882498 0.9670436
vt 0.08339351 0.9843755
vt 0.08462757 0.9705051
vt 0.08211112 0.9798163
vt 0.08249605 0.9749797
vt 0.08709508 0.9871429
vt 0.08471447 0.9837627
vt 0.09039736 0.9894924
vt 0.083597 0.9796897
vt 0.08396566 0.975391
vt 0.09426361 0.9905878
vt 0.08586985 0.9714249
vt 0.08907437 0.9683528
vt 0.09827745 0.9904544
vt 0.0932048 0.9667309
vt 0.1020262 0.9889724
vt 0.09761381 0.9666677
vt 0.105121 0.9863477
vt 0.101715 0.9681326
vt 0.1071253 0.9827839
vt 0.1050086 0.9708948
vt 0.1078386 0.9787049
vt 0.1071203 0.9745751
vn -0.3581511 0.5538569 0.751645
vn -0.02816584 0.6149527 0.7880608
vn -0.02179042 0.4757498 0.8793107
vn -0.3339509 0.4179525 0.8448625
vn -0.6441346 0.4083595 0.6467867
vn 0.2943415 0.4467333 0.8448623
vn 0.3060179 0.584277 0.7516472
vn -0.6044806 0.2803183 0.7456708
vn -0.8516167 0.1960124 0.4861359
vn 0.5763194 0.3344032 0.7456746
vn 0.6041011 0.4655304 0.6467945
vn -0.800752 0.07944342 0.5937045
vn -0.9555742 -0.05757699 0.2890725
vn 0.7901334 0.1523078 0.5937101
vn 0.8301276 0.2730374 0.4861467
vn -0.8990974 -0.1604501 0.4072833
vn -0.9434693 -0.3218184 0.07936362
vn 0.9099974 -0.07758781 0.4072896
vn 0.9568332 0.03001614 0.2890832
vn -0.8876483 -0.4104176 0.2088968
vn -0.8167645 -0.5648385 -0.1177
vn 0.921448 -0.3275542 0.2089062
vn 0.9689369 -0.2342247 0.07937273
vn -0.767787 -0.6403108 0.02248072
vn -0.5907401 -0.7573305 -0.2783462
vn 0.8231074 -0.5674406 0.02248595
vn 0.8649784 -0.4878128 -0.1176907
vn -0.5539708 -0.8224043 -0.1294892
vn -0.2926522 -0.8760762 -0.3832039
vn 0.6268355 -0.7683162 -0.1294889
vn 0.6574987 -0.7001594 -0.2783383
vn -0.271988 -0.9347331 -0.2286842
vn 0.04153636 -0.9067492 -0.4196196
vn 0.3563041 -0.9059548 -0.2286771
vn 0.3715191 -0.8456556 -0.3831973
vn 0.04414637 -0.9637504 -0.2631277
vn 0.6546809 -0.535343 0.5336673
vn 0.5863146 -0.7021157 0.4040654
vn 0.4498672 -0.8417642 0.2984169
vn 0.261793 -0.9374493 0.2294627
vn 0.0447804 -0.9776294 0.2055128
vn -0.1749932 -0.9574586 0.2294567
vn 0.6467183 -0.3615698 0.6715823
vn -0.371022 -0.8793695 0.298416
vn 0.5633891 -0.2017475 0.8011808
vn -0.5196678 -0.7527767 0.4040702
vn 0.4147494 -0.07515508 0.9068267
vn -0.6029972 -0.5929558 0.5336645
vn 0.2187171 0.002937054 0.9757839
vn -0.6109529 -0.4191784 0.6715848
vn -0.001056888 0.02310229 0.9997326
vn -0.5425842 -0.2524077 0.8011821
vn -0.2180689 -0.01707911 0.975784
vn -0.4061411 -0.1127592 0.9068267
vn 0.08710957 -0.4645708 0.8812412
vn 0.02099941 -0.4585069 0.8884428
vn 0.02842828 -0.6206023 0.7836099
vn 0.1460909 -0.4880662 0.8604934
vn -0.04427169 -0.4705948 0.8812381
vn -0.1008507 -0.4993807 0.860493
vn 0.1908011 -0.5261416 0.8287158
vn -0.1418936 -0.5413841 0.8287156
vn 0.2158637 -0.5742156 0.7897337
vn -0.1624593 -0.5915484 0.7897326
vn 0.2182597 -0.6264915 0.7482453
vn -0.1600646 -0.6438228 0.7482457
vn 0.1976941 -0.6766633 0.7092559
vn -0.1349995 -0.6918989 0.7092609
vn 0.1566435 -0.718667 0.677481
vn -0.09028435 -0.7299798 0.6774794
vn 0.1000743 -0.7474486 0.6567386
vn -0.03132147 -0.7534684 0.6567376
vn 0.03479091 -0.759539 0.6495306
vn -0.3541134 0.4364561 0.8271093
vn -0.03816405 0.4514598 0.891475
vn -0.01434478 0.2442733 0.9696004
vn -0.2914944 0.2197434 0.9309908
vn -0.6326892 0.3300764 0.7005384
vn 0.2568097 0.2027605 0.9449534
vn 0.289906 0.3903204 0.8738446
vn -0.5382823 0.117179 0.8345785
vn -0.8375381 0.1447062 0.5268681
vn 0.5030918 0.110814 0.8570992
vn 0.5729446 0.2878005 0.7674016
vn -0.7205743 -0.05212747 0.6914155
vn -0.9409404 -0.09230895 0.3257456
vn 0.6928658 -0.03289162 0.7203159
vn 0.7872044 0.13283 0.602217
vn -0.8129538 -0.2643475 0.5188704
vn -0.9292499 -0.3488419 0.1216703
vn 0.8006589 -0.2265093 0.5546522
vn 0.9088156 -0.08262795 0.4089337
vn -0.8026837 -0.4906594 0.3390462
vn -0.8039779 -0.5917175 -0.05907553
vn 0.8111086 -0.4432116 0.3816625
vn 0.9205777 -0.3279641 0.2120759
vn -0.6911209 -0.701048 0.1757372
vn -0.5815972 -0.7906276 -0.1914489
vn 0.7227041 -0.6536255 0.2246607
vn 0.8208321 -0.5699039 0.03800504
vn -0.4935097 -0.8682222 0.0513646
vn -0.2920504 -0.9218963 -0.2545856
vn 0.5479965 -0.8298038 0.1054771
vn 0.6235926 -0.7767355 -0.08839817
vn -0.2372301 -0.971322 -0.0159786
vn 0.02788492 -0.9695976 -0.2431112
vn 0.3110462 -0.9500726 0.02474854
vn 0.3516361 -0.9192395 -0.1770615
vn 0.04292242 -0.9988732 -0.02024783
vn 0.3812982 -0.6119481 0.692915
vn 0.3429675 -0.7054389 0.6202655
vn 0.2664753 -0.7837307 0.5610321
vn 0.1610464 -0.8373676 0.5223787
vn 0.03938915 -0.8598952 0.5089487
vn -0.08381645 -0.8485942 0.5223625
vn 0.3768339 -0.5145253 0.7702338
vn -0.1937183 -0.8048106 0.5610287
vn 0.3301287 -0.4249258 0.8428838
vn -0.2770472 -0.7338398 0.6202613
vn 0.2467988 -0.3539574 0.9021111
vn -0.3237581 -0.644244 0.6929144
vn 0.1368912 -0.3101868 0.9407683
vn -0.3282188 -0.5468234 0.7702315
vn 0.01368777 -0.2988839 0.9541913
vn -0.2898936 -0.4533275 0.8428853
vn -0.1079711 -0.3214024 0.9407672
vn -0.2134072 -0.3750391 0.9021104
vn 0.02842628 -0.620598 0.7836134
vn 0.02842203 -0.6206031 0.7836096
vn 0.02842437 -0.6205887 0.7836208
vn 0.02842636 -0.6205952 0.7836156
vn 0.02843085 -0.6205972 0.7836139
vn 0.02842451 -0.6205916 0.7836185
vn 0.02843087 -0.6206003 0.7836114
vn 0.02842508 -0.6206011 0.7836111
vn 0.02843093 -0.6205978 0.7836134
vn 0.02841931 -0.6206024 0.7836103
vn 0.02842506 -0.6206027 0.7836099
vn 0.02842515 -0.6206002 0.7836118
vn 0.02842511 -0.6206052 0.7836078
vn 0.02843084 -0.6205974 0.7836137
vn 0.02843136 -0.6206102 0.7836037
vn 0.02843164 -0.6205959 0.7836149
vn 0.02842658 -0.6206028 0.7836096
vn 0.02842715 -0.6205942 0.7836165
g PrisonChamberButton_6_0
f 3/3/3 2/2/2 1/1/1
f 4/4/4 3/3/3 1/1/1
f 4/4/4 1/1/1 5/5/5
f 3/3/3 6/6/6 2/2/2
f 6/6/6 7/7/7 2/2/2
f 8/8/8 4/4/4 5/5/5
f 8/8/8 5/5/5 9/9/9
f 6/6/6 10/10/10 7/7/7
f 10/10/10 11/11/11 7/7/7
f 12/12/12 8/8/8 9/9/9
f 12/12/12 9/9/9 13/13/13
f 10/10/10 14/14/14 11/11/11
f 14/14/14 15/15/15 11/11/11
f 16/16/16 12/12/12 13/13/13
f 16/16/16 13/13/13 17/17/17
f 14/14/14 18/18/18 15/15/15
f 18/18/18 19/19/19 15/15/15
f 20/20/20 16/16/16 17/17/17
f 20/20/20 17/17/17 21/21/21
f 18/18/18 22/22/22 19/19/19
f 22/22/22 23/23/23 19/19/19
f 24/24/24 20/20/20 21/21/21
f 24/24/24 21/21/21 25/25/25
f 22/22/22 26/26/26 23/23/23
f 26/26/26 27/27/27 23/23/23
f 28/28/28 24/24/24 25/25/25
f 28/28/28 25/25/25 29/29/29
f 26/26/26 30/30/30 27/27/27
f 30/30/30 31/31/31 27/27/27
f 32/32/32 28/28/28 29/29/29
f 32/32/32 29/29/29 33/33/33
f 30/30/30 34/34/34 31/31/31
f 34/34/34 35/35/35 31/31/31
f 36/36/36 33/33/33 35/35/35
f 36/36/36 32/32/32 33/33/33
f 34/34/34 36/36/36 35/35/35
f 22/22/22 37/37/37 26/26/26
f 26/26/26 38/38/38 30/30/30
f 37/37/37 38/38/38 26/26/26
f 30/30/30 39/39/39 34/34/34
f 38/38/38 39/39/39 30/30/30
f 34/34/34 40/40/40 36/36/36
f 39/39/39 40/40/40 34/34/34
f 36/36/36 41/41/41 32/32/32
f 40/40/40 41/41/41 36/36/36
f 32/32/32 42/42/42 28/28/28
f 41/41/41 42/42/42 32/32/32
f 43/43/43 37/37/37 22/22/22
f 18/18/18 43/43/43 22/22/22
f 42/42/42 44/44/44 28/28/28
f 28/28/28 44/44/44 24/24/24
f 45/45/45 43/43/43 18/18/18
f 14/14/14 45/45/45 18/18/18
f 44/44/44 46/46/46 24/24/24
f 24/24/24 46/46/46 20/20/20
f 47/47/47 45/45/45 14/14/14
f 10/10/10 47/47/47 14/14/14
f 46/46/46 48/48/48 20/20/20
f 20/20/20 48/48/48 16/16/16
f 49/49/49 47/47/47 10/10/10
f 6/6/6 49/49/49 10/10/10
f 48/48/48 50/50/50 16/16/16
f 16/16/16 50/50/50 12/12/12
f 51/51/51 49/49/49 6/6/6
f 3/3/3 51/51/51 6/6/6
f 50/50/50 52/52/52 12/12/12
f 12/12/12 52/52/52 8/8/8
f 53/53/53 51/51/51 3/3/3
f 4/4/4 53/53/53 3/3/3
f 8/8/8 54/54/54 4/4/4
f 52/52/52 54/54/54 8/8/8
f 54/54/54 53/53/53 4/4/4
f 49/49/49 55/55/55 47/47/47
f 51/51/51 56/56/56 49/49/49
f 56/56/56 55/55/55 49/49/49
f 56/56/56 57/57/57 55/55/55
f 55/55/55 57/57/57 58/58/58
f 55/55/55 58/58/58 47/47/47
f 59/59/59 57/57/57 56/56/56
f 59/59/59 56/56/56 51/51/51
f 53/53/53 59/59/59 51/51/51
f 47/47/47 58/58/58 45/45/45
f 60/60/60 59/59/59 53/53/53
f 54/54/54 60/60/60 53/53/53
f 60/60/60 57/57/57 59/59/59
f 58/58/58 61/61/61 45/45/45
f 58/58/58 57/57/57 61/61/61
f 45/45/45 61/61/61 43/43/43
f 62/62/62 60/60/60 54/54/54
f 62/62/62 57/57/57 60/60/60
f 52/52/52 62/62/62 54/54/54
f 61/61/61 63/63/63 43/43/43
f 61/61/61 57/57/57 63/63/63
f 43/43/43 63/63/63 37/37/37
f 64/64/64 62/62/62 52/52/52
f 64/64/64 57/57/57 62/62/62
f 50/50/50 64/64/64 52/52/52
f 63/63/63 65/65/65 37/37/37
f 63/63/63 57/57/57 65/65/65
f 66/66/66 57/57/57 64/64/64
f 66/66/66 64/64/64 50/50/50
f 65/65/65 57/57/57 67/67/67
f 37/37/37 65/65/65 38/38/38
f 65/65/65 67/67/67 38/38/38
f 48/48/48 66/66/66 50/50/50
f 38/38/38 67/67/67 39/39/39
f 68/68/68 66/66/66 48/48/48
f 68/68/68 57/57/57 66/66/66
f 46/46/46 68/68/68 48/48/48
f 67/67/67 69/69/69 39/39/39
f 67/67/67 57/57/57 69/69/69
f 39/39/39 69/69/69 40/40/40
f 70/70/70 68/68/68 46/46/46
f 70/70/70 57/57/57 68/68/68
f 44/44/44 70/70/70 46/46/46
f 69/69/69 71/71/71 40/40/40
f 69/69/69 57/57/57 71/71/71
f 40/40/40 71/71/71 41/41/41
f 72/72/72 70/70/70 44/44/44
f 72/72/72 57/57/57 70/70/70
f 42/42/42 72/72/72 44/44/44
f 71/71/71 73/73/73 41/41/41
f 71/71/71 57/57/57 73/73/73
f 73/73/73 57/57/57 72/72/72
f 73/73/73 72/72/72 42/42/42
f 41/41/41 73/73/73 42/42/42
g PrisonChamberButton_6_1
f 76/76/76 75/75/75 74/74/74
f 77/77/77 76/76/76 74/74/74
f 77/77/77 74/74/74 78/78/78
f 76/76/76 79/79/79 75/75/75
f 79/79/79 80/80/80 75/75/75
f 81/81/81 77/77/77 78/78/78
f 81/81/81 78/78/78 82/82/82
f 79/79/79 83/83/83 80/80/80
f 83/83/83 84/84/84 80/80/80
f 85/85/85 81/81/81 82/82/82
f 85/85/85 82/82/82 86/86/86
f 83/83/83 87/87/87 84/84/84
f 87/87/87 88/88/88 84/84/84
f 89/89/89 85/85/85 86/86/86
f 89/89/89 86/86/86 90/90/90
f 87/87/87 91/91/91 88/88/88
f 91/91/91 92/92/92 88/88/88
f 93/93/93 89/89/89 90/90/90
f 93/93/93 90/90/90 94/94/94
f 91/91/91 95/95/95 92/92/92
f 95/95/95 96/96/96 92/92/92
f 97/97/97 93/93/93 94/94/94
f 97/97/97 94/94/94 98/98/98
f 95/95/95 99/99/99 96/96/96
f 99/99/99 100/100/100 96/96/96
f 101/101/101 97/97/97 98/98/98
f 101/101/101 98/98/98 102/102/102
f 99/99/99 103/103/103 100/100/100
f 103/103/103 104/104/104 100/100/100
f 105/105/105 101/101/101 102/102/102
f 105/105/105 102/102/102 106/106/106
f 103/103/103 107/107/107 104/104/104
f 107/107/107 108/108/108 104/104/104
f 109/109/109 106/106/106 108/108/108
f 109/109/109 105/105/105 106/106/106
f 107/107/107 109/109/109 108/108/108
f 99/99/99 95/95/95 110/110/110
f 103/103/103 99/99/99 111/111/111
f 111/111/111 99/99/99 110/110/110
f 107/107/107 103/103/103 112/112/112
f 112/112/112 103/103/103 111/111/111
f 109/109/109 107/107/107 113/113/113
f 113/113/113 107/107/107 112/112/112
f 105/105/105 109/109/109 114/114/114
f 114/114/114 109/109/109 113/113/113
f 101/101/101 105/105/105 115/115/115
f 115/115/115 105/105/105 114/114/114
f 110/110/110 95/95/95 116/116/116
f 95/95/95 91/91/91 116/116/116
f 117/117/117 101/101/101 115/115/115
f 97/97/97 101/101/101 117/117/117
f 116/116/116 91/91/91 118/118/118
f 91/91/91 87/87/87 118/118/118
f 119/119/119 97/97/97 117/117/117
f 93/93/93 97/97/97 119/119/119
f 118/118/118 87/87/87 120/120/120
f 87/87/87 83/83/83 120/120/120
f 121/121/121 93/93/93 119/119/119
f 89/89/89 93/93/93 121/121/121
f 120/120/120 83/83/83 122/122/122
f 83/83/83 79/79/79 122/122/122
f 123/123/123 89/89/89 121/121/121
f 85/85/85 89/89/89 123/123/123
f 122/122/122 79/79/79 124/124/124
f 79/79/79 76/76/76 124/124/124
f 125/125/125 85/85/85 123/123/123
f 81/81/81 85/85/85 125/125/125
f 124/124/124 76/76/76 126/126/126
f 76/76/76 77/77/77 126/126/126
f 77/77/77 81/81/81 127/127/127
f 127/127/127 81/81/81 125/125/125
f 126/126/126 77/77/77 127/127/127
f 120/120/120 122/122/122 128/128/128
f 128/128/128 122/122/122 129/129/129
f 122/122/122 124/124/124 129/129/129
f 130/130/130 120/120/120 128/128/128
f 129/129/129 124/124/124 131/131/131
f 124/124/124 126/126/126 131/131/131
f 118/118/118 120/120/120 130/130/130
f 131/131/131 126/126/126 132/132/132
f 126/126/126 127/127/127 132/132/132
f 133/133/133 118/118/118 130/130/130
f 132/132/132 127/127/127 134/134/134
f 127/127/127 125/125/125 134/134/134
f 116/116/116 118/118/118 133/133/133
f 134/134/134 125/125/125 135/135/135
f 136/136/136 116/116/116 133/133/133
f 125/125/125 123/123/123 135/135/135
f 110/110/110 116/116/116 136/136/136
f 135/135/135 123/123/123 137/137/137
f 138/138/138 110/110/110 136/136/136
f 123/123/123 121/121/121 137/137/137
f 111/111/111 110/110/110 138/138/138
f 137/137/137 121/121/121 139/139/139
f 140/140/140 111/111/111 138/138/138
f 121/121/121 119/119/119 139/139/139
f 112/112/112 111/111/111 140/140/140
f 139/139/139 119/119/119 141/141/141
f 142/142/142 112/112/112 140/140/140
f 119/119/119 117/117/117 141/141/141
f 113/113/113 112/112/112 142/142/142
f 141/141/141 117/117/117 143/143/143
f 144/144/144 113/113/113 142/142/142
f 117/117/117 115/115/115 143/143/143
f 114/114/114 113/113/113 144/144/144
f 143/143/143 115/115/115 145/145/145
f 145/145/145 114/114/114 144/144/144
f 115/115/115 114/114/114 145/145/145
