g PrisonChamberButtonBoard_2
v -1.927487 1.270815 1.34094
v -1.990552 1.315417 1.278738
v -1.940649 1.38383 1.278458
v -1.878639 1.335811 1.341277
v -2.045424 1.080739 1.340837
v -2.112511 1.114871 1.280238
v -2.071337 1.190026 1.279526
v -2.005805 1.151283 1.340859
v -2.094813 0.9798271 1.340959
v -2.16288 1.009728 1.281395
v -2.12673 1.086623 1.280385
v -2.059613 1.053214 1.340762
v -1.989657 1.177902 1.340871
v -2.055033 1.217191 1.279415
v -2.008894 1.289345 1.27885
v -1.945328 1.245542 1.340985
v -1.913371 1.241859 1.330455
v -1.927487 1.270815 1.34094
v -1.878639 1.335811 1.341277
v -1.847507 1.33104 1.330964
v -1.847507 1.33104 1.330964
v -1.878639 1.335811 1.341277
v -1.940649 1.38383 1.278458
v -1.927509 1.393446 1.2496
v -1.927509 1.393446 1.2496
v -1.940649 1.38383 1.278458
v -1.990552 1.315417 1.278738
v -1.994408 1.29878 1.248938
v -1.994408 1.29878 1.248938
v -1.990552 1.315417 1.278738
v -1.927487 1.270815 1.34094
v -1.913371 1.241859 1.330455
v -2.027339 1.054214 1.330292
v -2.045424 1.080739 1.340837
v -2.005805 1.151283 1.340859
v -1.973597 1.14939 1.330114
v -1.973597 1.14939 1.330114
v -2.005805 1.151283 1.340859
v -2.071337 1.190026 1.279526
v -2.056525 1.200114 1.249096
v -2.056525 1.200114 1.249096
v -2.071337 1.190026 1.279526
v -2.112511 1.114871 1.280238
v -2.113965 1.09782 1.2504
v -2.113965 1.09782 1.2504
v -2.112511 1.114871 1.280238
v -2.045424 1.080739 1.340837
v -2.027339 1.054214 1.330292
v -2.076111 0.9545759 1.33062
v -2.094813 0.9798271 1.340959
v -2.059613 1.053214 1.340762
v -2.027339 1.054214 1.330292
v -2.027339 1.054214 1.330292
v -2.059613 1.053214 1.340762
v -2.12673 1.086623 1.280385
v -2.113965 1.09782 1.2504
v -2.113965 1.09782 1.2504
v -2.12673 1.086623 1.280385
v -2.16288 1.009728 1.281395
v -2.165248 0.9939848 1.252455
v -2.165248 0.9939848 1.252455
v -2.16288 1.009728 1.281395
v -2.094813 0.9798271 1.340959
v -2.076111 0.9545759 1.33062
v -1.973597 1.14939 1.330114
v -1.989657 1.177902 1.340871
v -1.945328 1.245542 1.340985
v -1.913371 1.241859 1.330455
v -1.913371 1.241859 1.330455
v -1.945328 1.245542 1.340985
v -2.008894 1.289345 1.27885
v -1.994408 1.29878 1.248938
v -1.994408 1.29878 1.248938
v -2.008894 1.289345 1.27885
v -2.055033 1.217191 1.279415
v -2.056525 1.200114 1.249096
v -2.056525 1.200114 1.249096
v -2.055033 1.217191 1.279415
v -1.989657 1.177902 1.340871
v -1.973597 1.14939 1.330114
v -1.804315 1.331843 1.312881
v -1.801121 1.32797 1.31888
v -1.823563 1.330733 1.333969
v -1.827295 1.337503 1.329732
v -1.829416 1.331941 1.336266
v -1.916109 1.41085 1.237596
v -1.900635 1.410925 1.213036
v -1.907508 1.412938 1.208677
v -1.923315 1.411282 1.231542
v -1.918799 1.409241 1.24284
v -1.926127 1.409798 1.237384
v -1.832051 1.33899 1.331412
v -1.836118 1.332284 1.336829
v -1.9209 1.404692 1.247814
v -1.927741 1.405883 1.242844
v -1.927509 1.393446 1.2496
v -1.83894 1.339 1.331803
v -1.847507 1.33104 1.330964
v -1.916501 1.4075 1.20703
v -1.907508 1.412938 1.208677
v -1.923315 1.411282 1.231542
v -1.932547 1.405476 1.2301
v -1.926127 1.409798 1.237384
v -1.998845 1.31323 1.232089
v -1.984055 1.310331 1.210039
v -1.935464 1.403793 1.235813
v -1.927741 1.405883 1.242844
v -2.066975 1.205993 1.233239
v -2.054279 1.19855 1.210966
v -2.000448 1.312529 1.237589
v -1.936468 1.399447 1.240807
v -1.927509 1.393446 1.2496
v -1.994408 1.29878 1.248938
v -2.000145 1.30973 1.241333
v -2.056525 1.200114 1.249096
v -2.066158 1.205575 1.242178
v -2.113965 1.09782 1.2504
v -2.067778 1.206425 1.238427
v -2.126075 1.097469 1.24312
v -2.165248 0.9939848 1.252455
v -2.128671 1.096562 1.239093
v -2.174321 0.9988561 1.243923
v -2.175889 0.9886861 1.2458
v -2.178243 0.9846236 1.240423
v -2.177579 0.9957914 1.238758
v -2.177976 0.9813346 1.234283
v -2.128378 1.094734 1.233542
v -2.118338 1.082906 1.21118
v -2.177412 0.9923325 1.232943
v -2.171159 0.9664368 1.2107
v -2.170861 0.9768724 1.209219
v -2.064736 0.9336016 1.332699
v -2.047617 0.9209561 1.31977
v -2.051088 0.9149299 1.316583
v -2.061273 0.9406717 1.335845
v -2.068698 0.9383013 1.33527
v -2.012782 1.035857 1.33719
v -1.997399 1.021239 1.320077
v -2.062814 0.9444649 1.338435
v -2.072181 0.9442005 1.33607
v -1.955011 1.138935 1.338118
v -1.93676 1.128109 1.321174
v -2.016784 1.039598 1.339758
v -2.066406 0.9503468 1.338567
v -2.076111 0.9545759 1.33062
v -2.027339 1.054214 1.330292
v -2.020268 1.043549 1.33872
v -1.973597 1.14939 1.330114
v -1.963526 1.143798 1.338861
v -1.913371 1.241859 1.330455
v -1.959483 1.141535 1.340153
v -1.900446 1.240807 1.339016
v -1.847507 1.33104 1.330964
v -1.895743 1.239662 1.340197
v -1.838871 1.324326 1.339315
v -1.836118 1.332284 1.336829
v -1.829416 1.331941 1.336266
v -1.83213 1.323915 1.339362
v -1.823563 1.330733 1.333969
v -1.890822 1.237746 1.338084
v -1.870247 1.230997 1.321236
v -1.829195 1.325002 1.33782
v -1.801121 1.32797 1.31888
v -1.805012 1.322263 1.322342
v -2.177976 0.9813346 1.234283
v -2.166017 0.9613838 1.215015
v -2.171159 0.9664368 1.2107
v -2.174205 0.9752134 1.240386
v -2.178243 0.9846236 1.240423
v -2.072467 0.9335819 1.328405
v -2.056037 0.915894 1.310492
v -2.051088 0.9149299 1.316583
v -2.064736 0.9336016 1.332699
v -2.076167 0.9372911 1.330457
v -2.068698 0.9383013 1.33527
v -2.174346 0.978475 1.245923
v -2.175889 0.9886861 1.2458
v -2.079443 0.9435323 1.331079
v -2.072181 0.9442005 1.33607
v -2.076111 0.9545759 1.33062
v -2.171507 0.9827061 1.251064
v -2.165248 0.9939848 1.252455
vt 0.9395241 0.2835808
vt 0.9577839 0.2835808
vt 0.9578719 0.2683908
vt 0.9394363 0.2683908
vt 0.9397639 0.3354446
vt 0.9575442 0.3354446
vt 0.9576321 0.3202547
vt 0.9396759 0.3202547
vt 0.9398837 0.3613767
vt 0.9574243 0.3613767
vt 0.9575121 0.3461866
vt 0.9397956 0.3461866
vt 0.9396441 0.3095127
vt 0.9576641 0.3095127
vt 0.9577521 0.2943228
vt 0.9395561 0.2943228
vt 0.9341693 0.2863592
vt 0.9395241 0.2835808
vt 0.9394363 0.2683908
vt 0.9340492 0.2656425
vt 0.936657 0.2630198
vt 0.9394363 0.2683908
vt 0.9578719 0.2683908
vt 0.9606512 0.2630198
vt 0.9632589 0.2656425
vt 0.9578719 0.2683908
vt 0.9577839 0.2835808
vt 0.9631389 0.2863592
vt 0.9605312 0.2889518
vt 0.9577839 0.2835808
vt 0.9395241 0.2835808
vt 0.9367766 0.2889518
vt 0.9344087 0.3382231
vt 0.9397639 0.3354446
vt 0.9396759 0.3202547
vt 0.9342891 0.3175064
vt 0.9368964 0.3148837
vt 0.9396759 0.3202547
vt 0.9576321 0.3202547
vt 0.9604115 0.3148837
vt 0.963019 0.3175064
vt 0.9576321 0.3202547
vt 0.9575442 0.3354446
vt 0.9628992 0.3382231
vt 0.9602916 0.3408156
vt 0.9575442 0.3354446
vt 0.9397639 0.3354446
vt 0.9370162 0.3408156
vt 0.9345286 0.3641551
vt 0.9398837 0.3613767
vt 0.9397956 0.3461866
vt 0.9344087 0.3434384
vt 0.9370162 0.3408156
vt 0.9397956 0.3461866
vt 0.9575121 0.3461866
vt 0.9602916 0.3408156
vt 0.9628992 0.3434384
vt 0.9575121 0.3461866
vt 0.9574243 0.3613767
vt 0.9627793 0.3641551
vt 0.9601717 0.3667476
vt 0.9574243 0.3613767
vt 0.9398837 0.3613767
vt 0.9371362 0.3667476
vt 0.9342891 0.3122911
vt 0.9396441 0.3095127
vt 0.9395561 0.2943228
vt 0.9341692 0.2915744
vt 0.9367766 0.2889518
vt 0.9395561 0.2943228
vt 0.9577521 0.2943228
vt 0.9605312 0.2889518
vt 0.9631389 0.2915745
vt 0.9577521 0.2943228
vt 0.9576641 0.3095127
vt 0.963019 0.3122912
vt 0.9604115 0.3148837
vt 0.9576641 0.3095127
vt 0.9396441 0.3095127
vt 0.9368964 0.3148837
vt 0.9396786 0.03479611
vt 0.9400864 0.03642758
vt 0.9451102 0.03503826
vt 0.9446353 0.03343102
vt 0.9460034 0.03457101
vt 0.9446975 0.005940282
vt 0.9396786 0.004572832
vt 0.940091 0.002921724
vt 0.9451757 0.004327291
vt 0.9455429 0.006400072
vt 0.9460703 0.004801386
vt 0.9454819 0.03297206
vt 0.9468759 0.03383862
vt 0.9463242 0.007131928
vt 0.9469381 0.005541288
vt 0.948629 0.007463657
vt 0.9462734 0.03224012
vt 0.9485876 0.03192379
vt 0.9928156 0.2887462
vt 0.9925113 0.2869748
vt 0.9878591 0.2895267
vt 0.9882432 0.2912514
vt 0.9870358 0.2901226
vt 0.9882182 0.311983
vt 0.992965 0.3108374
vt 0.9874793 0.2918283
vt 0.9861408 0.2908368
vt 0.9882045 0.3353947
vt 0.992958 0.3353843
vt 0.98743 0.312275
vt 0.9866844 0.2925443
vt 0.9840949 0.2924311
vt 0.984058 0.313831
vt 0.9866314 0.3126554
vt 0.9840593 0.3354175
vt 0.9866181 0.3354027
vt 0.9840589 0.3570033
vt 0.9874189 0.3353979
vt 0.9865804 0.3581433
vt 0.9840981 0.3783968
vt 0.9873765 0.3585174
vt 0.9865888 0.3782408
vt 0.986047 0.3799502
vt 0.9869379 0.3806688
vt 0.9873794 0.3789613
vt 0.9877572 0.3812582
vt 0.9881632 0.3588026
vt 0.9929758 0.3599305
vt 0.9881397 0.3795323
vt 0.9925359 0.3838087
vt 0.9928329 0.3820345
vt 0.9900728 0.5217545
vt 0.9950156 0.5209987
vt 0.9947265 0.5192708
vt 0.9904453 0.5234354
vt 0.9892749 0.5223285
vt 0.9904679 0.5436227
vt 0.9951545 0.5425245
vt 0.9897048 0.5239913
vt 0.9884071 0.5230282
vt 0.9905082 0.5664172
vt 0.9951369 0.5664272
vt 0.9897019 0.5439005
vt 0.988935 0.524693
vt 0.9865093 0.524541
vt 0.9864711 0.5453749
vt 0.9889265 0.5442648
vt 0.9864717 0.5663948
vt 0.9889633 0.5664093
vt 0.9864702 0.5874153
vt 0.9897431 0.5664141
vt 0.9889762 0.5885601
vt 0.9865059 0.6082542
vt 0.9897538 0.5889305
vt 0.9890276 0.6081442
vt 0.9884984 0.6098068
vt 0.9893698 0.6105023
vt 0.9898018 0.6088413
vt 0.9901714 0.6110826
vt 0.9905216 0.5892149
vt 0.9951437 0.5903303
vt 0.9905455 0.6094032
vt 0.9947019 0.6135675
vt 0.9949981 0.6118426
vt 0.9889963 0.2040352
vt 0.9833992 0.2037636
vt 0.9838048 0.2054098
vt 0.988524 0.2024153
vt 0.9898962 0.2035789
vt 0.9886021 0.1759189
vt 0.9833993 0.1745632
vt 0.9838102 0.1728918
vt 0.9890805 0.1742853
vt 0.9894562 0.1763701
vt 0.9899873 0.1747501
vt 0.9893776 0.2019686
vt 0.9907874 0.2028575
vt 0.9902648 0.177098
vt 0.9908813 0.1754837
vt 0.9925738 0.1773175
vt 0.9901822 0.2012495
vt 0.9924921 0.2010459
vn -0.5035196 0.3723817 0.7796151
vn -0.5035196 0.3723817 0.7796151
vn -0.5035196 0.3723817 0.7796151
vn -0.5035196 0.3723817 0.7796151
vn -0.5471554 0.3070973 0.7786605
vn -0.5471554 0.3070973 0.7786605
vn -0.5471554 0.3070973 0.7786605
vn -0.5471554 0.3070973 0.7786605
vn -0.5634052 0.2737477 0.7795107
vn -0.5634052 0.2737477 0.7795107
vn -0.5634052 0.2737477 0.7795107
vn -0.5634052 0.2737477 0.7795107
vn -0.5255762 0.3426429 0.7786948
vn -0.5255762 0.3426429 0.7786948
vn -0.5255762 0.3426429 0.7786948
vn -0.5255762 0.3426429 0.7786948
vn 0.2749591 -0.2097189 0.9383045
vn 0.2749591 -0.2097189 0.9383045
vn 0.2749591 -0.2097189 0.9383045
vn 0.2749591 -0.2097189 0.9383045
vn 0.2652441 0.8736646 0.4078673
vn 0.2652441 0.8736646 0.4078673
vn 0.2652441 0.8736646 0.4078673
vn 0.2652441 0.8736646 0.4078673
vn -0.7972323 0.5714543 -0.1945776
vn -0.7972323 0.5714543 -0.1945776
vn -0.7972323 0.5714543 -0.1945776
vn -0.7972323 0.5714543 -0.1945776
vn -0.7585929 -0.5188894 0.3940694
vn -0.7585929 -0.5188894 0.3940694
vn -0.7585929 -0.5188894 0.3940694
vn -0.7585929 -0.5188894 0.3940694
vn 0.3016611 -0.1690611 0.9383065
vn 0.3016611 -0.1690611 0.9383065
vn 0.3016611 -0.1690611 0.9383065
vn 0.3016611 -0.1690611 0.9383065
vn 0.1781186 0.9061078 0.383722
vn 0.1781186 0.9061078 0.383722
vn 0.1781186 0.9061078 0.383722
vn 0.1781186 0.9061078 0.383722
vn -0.8491824 0.4691663 -0.2424301
vn -0.8491824 0.4691663 -0.2424301
vn -0.8491824 0.4691663 -0.2424301
vn -0.8491824 0.4691663 -0.2424301
vn -0.6754747 -0.6231443 0.3942401
vn -0.6754747 -0.6231443 0.3942401
vn -0.6754747 -0.6231443 0.3942401
vn -0.6754747 -0.6231443 0.3942401
vn 0.312275 -0.1487106 0.9382801
vn 0.312275 -0.1487106 0.9382801
vn 0.312275 -0.1487106 0.9382801
vn 0.312275 -0.1487106 0.9382801
vn 0.1025318 0.9150673 0.3900499
vn 0.1025318 0.9150673 0.3900499
vn 0.1025318 0.9150673 0.3900499
vn 0.1025318 0.9150673 0.3900499
vn -0.8852227 0.4250467 -0.1889874
vn -0.8852227 0.4250467 -0.1889874
vn -0.8852227 0.4250467 -0.1889874
vn -0.8852227 0.4250467 -0.1889874
vn -0.6433064 -0.6475974 0.4083804
vn -0.6433064 -0.6475974 0.4083804
vn -0.6433064 -0.6475974 0.4083804
vn -0.6433064 -0.6475974 0.4083804
vn 0.288082 -0.1907945 0.9384062
vn 0.288082 -0.1907945 0.9384062
vn 0.288082 -0.1907945 0.9384062
vn 0.288082 -0.1907945 0.9384062
vn 0.2309674 0.8905344 0.3919215
vn 0.2309674 0.8905344 0.3919215
vn 0.2309674 0.8905344 0.3919215
vn 0.2309674 0.8905344 0.3919215
vn -0.819878 0.5185683 -0.2426662
vn -0.819878 0.5185683 -0.2426662
vn -0.819878 0.5185683 -0.2426662
vn -0.819878 0.5185683 -0.2426662
vn -0.7201986 -0.5770845 0.385081
vn -0.7201986 -0.5770845 0.385081
vn -0.7201986 -0.5770845 0.385081
vn -0.7201986 -0.5770845 0.385081
vn 0.4493199 0.8086597 0.379712
vn 0.5377975 0.5399505 0.6474776
vn 0.5093136 0.4164352 0.7531145
vn 0.4199329 0.7768789 0.4691647
vn 0.2704028 0.4512482 0.8504454
vn 0.180959 0.9529366 0.2432395
vn 0.2534458 0.949345 0.1857667
vn -0.1546737 0.986337 -0.05670445
vn -0.2676629 0.9633499 -0.01770923
vn -0.007688033 0.8956214 0.4447506
vn -0.3869746 0.8864112 0.2540196
vn 0.2221051 0.751606 0.6210942
vn -0.1455718 0.4555339 0.8782355
vn -0.2920583 0.6468034 0.7045192
vn -0.4684952 0.6437881 0.6050199
vn -0.4824256 0.3901922 0.7842293
vn -0.205097 0.6054202 0.7690263
vn -0.473099 0.3921807 0.7889053
vn -0.5789829 0.7322032 -0.3586881
vn -0.1546737 0.986337 -0.05670445
vn -0.2676629 0.9633499 -0.01770923
vn -0.6520715 0.7105747 -0.2643602
vn -0.3869746 0.8864112 0.2540196
vn -0.7760315 0.5164632 -0.3619956
vn -0.7134857 0.4716465 -0.518158
vn -0.7046481 0.6991844 0.1208811
vn -0.4684952 0.6437881 0.6050199
vn -0.800464 0.4721844 -0.3691873
vn -0.7221898 0.4242232 -0.54633
vn -0.8230674 0.5568995 0.1114579
vn -0.6206295 0.5163901 0.590051
vn -0.4824256 0.3901922 0.7842293
vn -0.4760514 0.3169647 0.8203099
vn -0.6431969 0.4326426 0.6317579
vn -0.473029 0.2877539 0.8327312
vn -0.6497561 0.3909665 0.6518914
vn -0.500506 0.275929 0.8205833
vn -0.8524396 0.5065716 0.1293525
vn -0.6884142 0.3665552 0.6258779
vn -0.5738621 0.2425274 0.7822165
vn -0.8841286 0.4580403 0.09228006
vn -0.7579716 0.3048706 0.5766567
vn -0.8039503 0.1093675 0.5845534
vn -0.9687155 -0.1016149 0.2264173
vn -0.9564602 0.27799 0.08891367
vn -0.969811 -0.2406482 -0.03943454
vn -0.8226739 0.4265639 -0.3758336
vn -0.7562459 0.392196 -0.5237121
vn -0.9333766 0.220713 -0.2830086
vn -0.9337965 -0.3508771 -0.07006627
vn -0.9174005 0.147644 -0.3695638
vn -0.09776425 -0.6602517 0.7446542
vn 0.3527945 -0.4473219 0.8218511
vn -0.1921017 -0.7402086 0.6443509
vn 0.3236024 -0.3984425 0.8582103
vn -0.2371486 -0.4770561 0.8462729
vn 0.4840412 -0.2649521 0.8339691
vn 0.5510173 -0.2992105 0.7790076
vn 0.1039492 -0.2428138 0.9644874
vn -0.4611798 -0.09910886 0.8817543
vn 0.4351485 -0.2664252 0.8600368
vn 0.5357956 -0.3280855 0.7779992
vn 0.1344826 -0.07826912 0.98782
vn -0.3364247 0.07613163 0.938628
vn -0.5653686 0.2306481 0.7919343
vn -0.5290276 0.2849397 0.7993368
vn -0.3595178 0.1868802 0.9142334
vn -0.5142134 0.3109429 0.7993116
vn -0.3729712 0.2253345 0.9000648
vn -0.5011654 0.3389017 0.796228
vn 0.05638143 -0.03575484 0.9977689
vn -0.3459552 0.2397707 0.907097
vn -0.473099 0.3921807 0.7889053
vn 0.09867489 -0.06571654 0.9929475
vn -0.2414881 0.2699971 0.9320864
vn -0.1455718 0.4555339 0.8782355
vn 0.2704028 0.4512482 0.8504454
vn 0.2192853 0.02655578 0.9752993
vn 0.5093136 0.4164352 0.7531145
vn 0.4344026 -0.2965019 0.8505181
vn 0.5087115 -0.3494824 0.786813
vn 0.4623889 -0.04471854 0.8855489
vn 0.5377975 0.5399505 0.6474776
vn 0.544946 -0.07756373 0.8348759
vn -0.969811 -0.2406482 -0.03943454
vn -0.7059295 -0.6872905 0.1711585
vn -0.9337965 -0.3508771 -0.07006627
vn -0.7462331 -0.6271935 0.2230793
vn -0.9687155 -0.1016149 0.2264173
vn -0.4776263 -0.7525946 0.4532928
vn -0.4912079 -0.7907247 0.3653343
vn -0.1921017 -0.7402086 0.6443509
vn -0.09776425 -0.6602517 0.7446542
vn -0.5490994 -0.5683818 0.6127249
vn -0.2371486 -0.4770561 0.8462729
vn -0.7947665 -0.4329489 0.4253251
vn -0.8039503 0.1093675 0.5845534
vn -0.6289012 -0.1168691 0.7686514
vn -0.4611798 -0.09910886 0.8817543
vn -0.5653686 0.2306481 0.7919343
vn -0.715385 -0.05784557 0.696332
vn -0.5738621 0.2425274 0.7822165
g PrisonChamberButtonBoard_2_0
f 3/3/3 2/2/2 1/1/1
f 4/4/4 3/3/3 1/1/1
f 7/7/7 6/6/6 5/5/5
f 8/8/8 7/7/7 5/5/5
f 11/11/11 10/10/10 9/9/9
f 12/12/12 11/11/11 9/9/9
f 15/15/15 14/14/14 13/13/13
f 16/16/16 15/15/15 13/13/13
f 19/19/19 18/18/18 17/17/17
f 20/20/20 19/19/19 17/17/17
f 23/23/23 22/22/22 21/21/21
f 24/24/24 23/23/23 21/21/21
f 27/27/27 26/26/26 25/25/25
f 28/28/28 27/27/27 25/25/25
f 31/31/31 30/30/30 29/29/29
f 32/32/32 31/31/31 29/29/29
f 35/35/35 34/34/34 33/33/33
f 36/36/36 35/35/35 33/33/33
f 39/39/39 38/38/38 37/37/37
f 40/40/40 39/39/39 37/37/37
f 43/43/43 42/42/42 41/41/41
f 44/44/44 43/43/43 41/41/41
f 47/47/47 46/46/46 45/45/45
f 48/48/48 47/47/47 45/45/45
f 51/51/51 50/50/50 49/49/49
f 52/52/52 51/51/51 49/49/49
f 55/55/55 54/54/54 53/53/53
f 56/56/56 55/55/55 53/53/53
f 59/59/59 58/58/58 57/57/57
f 60/60/60 59/59/59 57/57/57
f 63/63/63 62/62/62 61/61/61
f 64/64/64 63/63/63 61/61/61
f 67/67/67 66/66/66 65/65/65
f 68/68/68 67/67/67 65/65/65
f 71/71/71 70/70/70 69/69/69
f 72/72/72 71/71/71 69/69/69
f 75/75/75 74/74/74 73/73/73
f 76/76/76 75/75/75 73/73/73
f 79/79/79 78/78/78 77/77/77
f 80/80/80 79/79/79 77/77/77
g PrisonChamberButtonBoard_2_1
f 83/83/83 82/82/82 81/81/81
f 84/84/84 83/83/83 81/81/81
f 85/85/85 83/83/83 84/84/84
f 84/84/84 81/81/81 86/86/86
f 81/81/81 87/87/87 86/86/86
f 86/86/86 87/87/87 88/88/88
f 89/89/89 86/86/86 88/88/88
f 90/90/90 86/86/86 89/89/89
f 86/86/86 90/90/90 84/84/84
f 91/91/91 90/90/90 89/89/89
f 92/92/92 85/85/85 84/84/84
f 90/90/90 92/92/92 84/84/84
f 93/93/93 85/85/85 92/92/92
f 94/94/94 90/90/90 91/91/91
f 90/90/90 94/94/94 92/92/92
f 95/95/95 94/94/94 91/91/91
f 95/95/95 96/96/96 94/94/94
f 97/97/97 93/93/93 92/92/92
f 94/94/94 97/97/97 92/92/92
f 97/97/97 94/94/94 96/96/96
f 97/97/97 98/98/98 93/93/93
f 98/98/98 97/97/97 96/96/96
f 101/101/101 100/100/100 99/99/99
f 102/102/102 101/101/101 99/99/99
f 103/103/103 101/101/101 102/102/102
f 102/102/102 99/99/99 104/104/104
f 99/99/99 105/105/105 104/104/104
f 106/106/106 103/103/103 102/102/102
f 107/107/107 103/103/103 106/106/106
f 104/104/104 105/105/105 108/108/108
f 105/105/105 109/109/109 108/108/108
f 104/104/104 110/110/110 102/102/102
f 110/110/110 106/106/106 102/102/102
f 111/111/111 107/107/107 106/106/106
f 111/111/111 112/112/112 107/107/107
f 112/112/112 111/111/111 113/113/113
f 114/114/114 111/111/111 106/106/106
f 111/111/111 114/114/114 113/113/113
f 110/110/110 114/114/114 106/106/106
f 113/113/113 114/114/114 115/115/115
f 114/114/114 116/116/116 115/115/115
f 116/116/116 114/114/114 110/110/110
f 115/115/115 116/116/116 117/117/117
f 118/118/118 110/110/110 104/104/104
f 118/118/118 116/116/116 110/110/110
f 108/108/108 118/118/118 104/104/104
f 116/116/116 119/119/119 117/117/117
f 119/119/119 116/116/116 118/118/118
f 117/117/117 119/119/119 120/120/120
f 121/121/121 118/118/118 108/108/108
f 121/121/121 119/119/119 118/118/118
f 119/119/119 122/122/122 120/120/120
f 122/122/122 119/119/119 121/121/121
f 123/123/123 120/120/120 122/122/122
f 123/123/123 122/122/122 124/124/124
f 122/122/122 125/125/125 124/124/124
f 125/125/125 122/122/122 121/121/121
f 124/124/124 125/125/125 126/126/126
f 127/127/127 121/121/121 108/108/108
f 125/125/125 121/121/121 127/127/127
f 108/108/108 109/109/109 127/127/127
f 109/109/109 128/128/128 127/127/127
f 125/125/125 129/129/129 126/126/126
f 129/129/129 125/125/125 127/127/127
f 127/127/127 128/128/128 129/129/129
f 130/130/130 126/126/126 129/129/129
f 128/128/128 131/131/131 129/129/129
f 131/131/131 130/130/130 129/129/129
f 134/134/134 133/133/133 132/132/132
f 133/133/133 135/135/135 132/132/132
f 132/132/132 135/135/135 136/136/136
f 135/135/135 133/133/133 137/137/137
f 133/133/133 138/138/138 137/137/137
f 135/135/135 139/139/139 136/136/136
f 136/136/136 139/139/139 140/140/140
f 137/137/137 138/138/138 141/141/141
f 138/138/138 142/142/142 141/141/141
f 137/137/137 143/143/143 135/135/135
f 143/143/143 139/139/139 135/135/135
f 139/139/139 144/144/144 140/140/140
f 144/144/144 145/145/145 140/140/140
f 145/145/145 144/144/144 146/146/146
f 147/147/147 144/144/144 139/139/139
f 144/144/144 147/147/147 146/146/146
f 143/143/143 147/147/147 139/139/139
f 146/146/146 147/147/147 148/148/148
f 147/147/147 149/149/149 148/148/148
f 149/149/149 147/147/147 143/143/143
f 148/148/148 149/149/149 150/150/150
f 151/151/151 143/143/143 137/137/137
f 151/151/151 149/149/149 143/143/143
f 141/141/141 151/151/151 137/137/137
f 149/149/149 152/152/152 150/150/150
f 152/152/152 149/149/149 151/151/151
f 150/150/150 152/152/152 153/153/153
f 154/154/154 151/151/151 141/141/141
f 154/154/154 152/152/152 151/151/151
f 152/152/152 155/155/155 153/153/153
f 155/155/155 152/152/152 154/154/154
f 156/156/156 153/153/153 155/155/155
f 156/156/156 155/155/155 157/157/157
f 155/155/155 158/158/158 157/157/157
f 158/158/158 155/155/155 154/154/154
f 157/157/157 158/158/158 159/159/159
f 160/160/160 154/154/154 141/141/141
f 158/158/158 154/154/154 160/160/160
f 141/141/141 142/142/142 160/160/160
f 142/142/142 161/161/161 160/160/160
f 158/158/158 162/162/162 159/159/159
f 162/162/162 158/158/158 160/160/160
f 160/160/160 161/161/161 162/162/162
f 159/159/159 162/162/162 163/163/163
f 161/161/161 164/164/164 162/162/162
f 162/162/162 164/164/164 163/163/163
f 167/167/167 166/166/166 165/165/165
f 166/166/166 168/168/168 165/165/165
f 169/169/169 165/165/165 168/168/168
f 168/168/168 166/166/166 170/170/170
f 166/166/166 171/171/171 170/170/170
f 171/171/171 172/172/172 170/170/170
f 172/172/172 173/173/173 170/170/170
f 170/170/170 173/173/173 174/174/174
f 170/170/170 174/174/174 168/168/168
f 173/173/173 175/175/175 174/174/174
f 176/176/176 169/169/169 168/168/168
f 174/174/174 176/176/176 168/168/168
f 177/177/177 169/169/169 176/176/176
f 174/174/174 175/175/175 178/178/178
f 174/174/174 178/178/178 176/176/176
f 175/175/175 179/179/179 178/178/178
f 179/179/179 180/180/180 178/178/178
f 181/181/181 177/177/177 176/176/176
f 178/178/178 181/181/181 176/176/176
f 181/181/181 178/178/178 180/180/180
f 181/181/181 182/182/182 177/177/177
f 182/182/182 181/181/181 180/180/180
