g PrisonChamberGauge_8
v 0.01765805 -1.79429 1.345204
v 0.05331683 -1.784042 1.348223
v 0.05743748 -1.807072 1.363407
v 0.02400345 -1.81668 1.360576
v -0.01422977 -1.811334 1.336352
v 0.09212899 -1.804491 1.360576
v 0.09031665 -1.781289 1.345204
v -0.00589484 -1.832661 1.352277
v -0.04017299 -1.834014 1.322272
v 0.1257136 -1.809113 1.352277
v 0.1261362 -1.786219 1.336352
v -0.03021967 -1.853926 1.339075
v -0.05840421 -1.860783 1.303922
v 0.1559029 -1.820623 1.339075
v 0.1583342 -1.798495 1.322272
v -0.04731327 -1.879025 1.32187
v -0.06768072 -1.889818 1.282553
v 0.1806391 -1.838238 1.32187
v 0.1847167 -1.817282 1.303922
v -0.05601096 -1.906248 1.301834
v -0.0673703 -1.919139 1.259621
v 0.1982369 -1.860756 1.301834
v 0.2034853 -1.841298 1.282553
v -0.05571991 -1.93374 1.280333
v -0.05749428 -1.946748 1.236689
v 0.2074968 -1.886643 1.280333
v 0.2133614 -1.868908 1.259621
v -0.04646015 -1.959626 1.258832
v -0.0387255 -1.970765 1.21532
v 0.2077879 -1.914135 1.258832
v 0.2136718 -1.898229 1.236689
v -0.02886236 -1.982145 1.238796
v -0.01234317 -1.989551 1.19697
v 0.1990902 -1.941357 1.238796
v 0.2043954 -1.927263 1.21532
v -0.004126012 -1.999759 1.221591
v 0.01985484 -2.001827 1.18289
v 0.1819963 -1.966456 1.221591
v 0.1861641 -1.954033 1.19697
v 0.02606326 -2.01127 1.208389
v 0.05567431 -2.006757 1.174039
v 0.1576716 -1.987721 1.208389
v 0.1602207 -1.976712 1.18289
v 0.05964786 -2.015892 1.20009
v 0.0926742 -2.004004 1.171019
v 0.1277735 -2.003702 1.20009
v 0.128333 -1.993757 1.174039
v 0.09433931 -2.013311 1.197259
v 0.1786144 -1.966563 1.22636
v 0.155151 -1.987075 1.213626
v 0.1263116 -2.00249 1.205621
v 0.09406155 -2.011758 1.20289
v 0.06059855 -2.014248 1.205621
v 0.02820325 -2.009789 1.213626
v 0.1951029 -1.942353 1.242956
v -0.0009168983 -1.998686 1.22636
v 0.2034925 -1.916094 1.262282
v -0.02477723 -1.981696 1.242956
v 0.2032117 -1.889576 1.283022
v -0.04175174 -1.959975 1.262282
v 0.1942797 -1.864606 1.303762
v -0.05068368 -1.935005 1.283022
v 0.1773053 -1.842885 1.323088
v -0.05096447 -1.908487 1.303762
v 0.1534449 -1.825894 1.339684
v -0.04257488 -1.882228 1.323088
v 0.1243247 -1.814791 1.352418
v -0.02608645 -1.858017 1.339684
v 0.09192944 -1.810333 1.360423
v -0.002623022 -1.837506 1.352418
v 0.05846643 -1.812822 1.363154
v 0.02621645 -1.822091 1.360423
v 0.1217307 -1.820054 1.348673
v 0.09108388 -1.815836 1.356246
v 0.05942702 -1.818191 1.358829
v 0.02891761 -1.826959 1.356246
v 0.001634777 -1.841542 1.348673
v -0.02056217 -1.860947 1.336625
v 0.1492791 -1.830557 1.336625
v -0.03616059 -1.88385 1.320925
v 0.1718516 -1.846631 1.320925
v -0.04409742 -1.908692 1.302642
v 0.1879101 -1.867179 1.302642
v -0.04383188 -1.933779 1.283022
v 0.1963599 -1.890802 1.283022
v -0.03538191 -1.957401 1.263402
v 0.1966254 -1.915889 1.263402
v -0.01932365 -1.977949 1.245119
v 0.1886885 -1.94073 1.245119
v 0.00324887 -1.994023 1.229419
v 0.1730902 -1.963634 1.229419
v 0.0307973 -2.004527 1.217372
v 0.1508931 -1.983038 1.217371
v 0.0614441 -2.008745 1.209798
v 0.1236103 -1.997621 1.209798
v 0.09310091 -2.006389 1.207215
v 0.1687999 -1.959527 1.229001
v 0.1475034 -1.978144 1.217443
v 0.1213275 -1.992136 1.210177
v 0.09205586 -2.000548 1.207699
v 0.0616833 -2.002808 1.210177
v 0.03227979 -1.998761 1.217443
v 0.1837655 -1.937553 1.244064
v 0.005849063 -1.988684 1.229001
v 0.1913802 -1.913719 1.261606
v -0.01580775 -1.973262 1.244064
v 0.1911255 -1.88965 1.28043
v -0.03121459 -1.953548 1.261606
v 0.1830185 -1.866986 1.299254
v -0.0393216 -1.930883 1.28043
v 0.1676116 -1.847271 1.316795
v -0.03957641 -1.906815 1.299254
v 0.1459548 -1.83185 1.331859
v -0.0319615 -1.882981 1.316795
v 0.1195241 -1.821772 1.343417
v -0.01699603 -1.861006 1.331859
v 0.09012061 -1.817726 1.350683
v 0.004300475 -1.842389 1.343417
v 0.05974799 -1.819985 1.353161
v 0.03047639 -1.828398 1.350683
v 0.1160844 -1.818903 1.331062
v 0.1412142 -1.828485 1.320073
v 0.08812809 -1.815056 1.33797
v 0.05925047 -1.817204 1.340327
v 0.1618052 -1.843148 1.305751
v 0.03141958 -1.825202 1.33797
v 0.006531954 -1.838505 1.331062
v 0.1764537 -1.861892 1.289073
v -0.01371634 -1.856206 1.320073
v 0.1841617 -1.88344 1.271175
v -0.02794528 -1.877099 1.305751
v 0.184404 -1.906325 1.253277
v -0.03518528 -1.89976 1.289073
v 0.1771639 -1.928986 1.236599
v -0.03494322 -1.922644 1.271175
v 0.1629349 -1.949878 1.222278
v -0.02723509 -1.944193 1.253277
v 0.1426865 -1.967579 1.211288
v -0.01258653 -1.962937 1.236599
v 0.117799 -1.980882 1.20438
v 0.008004367 -1.9776 1.222278
v 0.08996809 -1.98888 1.202023
v 0.03313416 -1.987181 1.211288
v 0.06109047 -1.991029 1.20438
v 0.05925047 -1.817204 1.340327
v 0.07460928 -1.903043 1.271175
v 0.03141958 -1.825202 1.33797
v 0.08812809 -1.815056 1.33797
v 0.006531954 -1.838505 1.331062
v 0.1160844 -1.818903 1.331062
v -0.01371634 -1.856206 1.320073
v 0.1412142 -1.828485 1.320073
v -0.02794528 -1.877099 1.305751
v 0.1618052 -1.843148 1.305751
v -0.03518528 -1.89976 1.289073
v 0.1764537 -1.861892 1.289073
v -0.03494322 -1.922644 1.271175
v 0.1841617 -1.88344 1.271175
v -0.02723509 -1.944193 1.253277
v 0.184404 -1.906325 1.253277
v -0.01258653 -1.962937 1.236599
v 0.1771639 -1.928986 1.236599
v 0.008004367 -1.9776 1.222278
v 0.1629349 -1.949878 1.222278
v 0.03313416 -1.987181 1.211288
v 0.1426865 -1.967579 1.211288
v 0.06109047 -1.991029 1.20438
v 0.117799 -1.980882 1.20438
v 0.08996809 -1.98888 1.202023
vt 0.6006452 0.9629889
vt 0.607679 0.9670955
vt 0.6098458 0.9617284
vt 0.6041541 0.9585035
vt 0.5950116 0.9572604
vt 0.6161743 0.9633925
vt 0.615533 0.9689132
vt 0.5995314 0.9538822
vt 0.5910795 0.9503269
vt 0.6227165 0.9632826
vt 0.6234616 0.9688765
vt 0.5962957 0.9482513
vt 0.5890757 0.9426253
vt 0.6289591 0.9614736
vt 0.631269 0.9667875
vt 0.5946338 0.9419809
vt 0.5891563 0.934683
vt 0.6345258 0.9581388
vt 0.6381252 0.9625072
vt 0.5946734 0.9355023
vt 0.5912915 0.9270777
vt 0.6390144 0.9534567
vt 0.643572 0.9567034
vt 0.5963812 0.929287
vt 0.5952936 0.9203272
vt 0.6421076 0.9477915
vt 0.647323 0.9497427
vt 0.599619 0.9237549
vt 0.6008576 0.9148611
vt 0.6436331 0.9415359
vt 0.649153 0.9420707
vt 0.6041479 0.9192674
vt 0.6076124 0.9109996
vt 0.6434798 0.935118
vt 0.6489288 0.934213
vt 0.6096616 0.9160924
vt 0.6151328 0.9089937
vt 0.641695 0.9289866
vt 0.6466911 0.9267215
vt 0.6158069 0.9144368
vt 0.6229124 0.9089938
vt 0.6384134 0.9235473
vt 0.6426172 0.9201147
vt 0.6221668 0.9144128
vt 0.6304046 0.9110036
vt 0.633866 0.9191098
vt 0.63705 0.9148402
vt 0.6283146 0.9160076
vt 0.6406745 0.9294339
vt 0.6375426 0.9242373
vt 0.633201 0.9200019
vt 0.6279025 0.9170396
vt 0.6220301 0.9155164
vt 0.6159569 0.9155393
vt 0.6423733 0.9352894
vt 0.6100889 0.9171198
vt 0.642516 0.941415
vt 0.6048245 0.9201521
vt 0.6410559 0.9473835
vt 0.6005019 0.9244392
vt 0.6381031 0.9527884
vt 0.5974166 0.9297239
vt 0.6338185 0.9572513
vt 0.5957927 0.9356571
vt 0.6285061 0.9604365
vt 0.5957589 0.9418373
vt 0.6225446 0.9621556
vt 0.5973444 0.9478194
vt 0.6163116 0.9622529
vt 0.6004357 0.9531881
vt 0.6102754 0.9606701
vt 0.604845 0.9575915
vt 0.6223562 0.9608855
vt 0.6164676 0.9609674
vt 0.610761 0.9594781
vt 0.6056249 0.9565648
vt 0.6014519 0.9524054
vt 0.5985295 0.9473318
vt 0.6279958 0.9592631
vt 0.5970253 0.9416763
vt 0.6330203 0.9562494
vt 0.5970564 0.9358287
vt 0.6370748 0.9520326
vt 0.5985867 0.9302143
vt 0.6398693 0.9469226
vt 0.6015012 0.9252107
vt 0.6412557 0.9412779
vt 0.6055887 0.9211519
vt 0.6411227 0.9354798
vt 0.6105695 0.9182807
vt 0.6395198 0.9299379
vt 0.6161246 0.9167868
vt 0.6365597 0.9250174
vt 0.6218736 0.9167622
vt 0.6324517 0.9210067
vt 0.6274341 0.9182031
vt 0.6385076 0.9303772
vt 0.6356964 0.9256993
vt 0.631793 0.921888
vt 0.6270235 0.9192238
vt 0.6217374 0.9178522
vt 0.6162717 0.9178771
vt 0.6400306 0.9356455
vt 0.6109903 0.9192971
vt 0.640152 0.9411569
vt 0.6062574 0.9220272
vt 0.6388313 0.946519
vt 0.6023761 0.9258866
vt 0.636173 0.9513683
vt 0.599613 0.9306445
vt 0.6323231 0.955372
vt 0.5981631 0.9359797
vt 0.6275498 0.9582357
vt 0.598137 0.9415343
vt 0.6221906 0.9597732
vt 0.599566 0.9469042
vt 0.6166036 0.9598495
vt 0.6023396 0.951721
vt 0.6111879 0.9584309
vt 0.6063081 0.9556648
vt 0.6218348 0.9574538
vt 0.6266043 0.9560958
vt 0.6168734 0.9575115
vt 0.6120666 0.9562448
vt 0.6308563 0.9535519
vt 0.6077588 0.9537509
vt 0.6041989 0.9502901
vt 0.6342947 0.949997
vt 0.6016884 0.946034
vt 0.6367036 0.9456978
vt 0.6004952 0.9412386
vt 0.6378037 0.9409052
vt 0.6004753 0.9363004
vt 0.6377406 0.9360002
vt 0.6017479 0.9315493
vt 0.636405 0.9313002
vt 0.6041964 0.927299
vt 0.6339341 0.9271037
vt 0.6076269 0.9238177
vt 0.6303998 0.923768
vt 0.6118761 0.9214143
vt 0.6261733 0.9213624
vt 0.6165925 0.920153
vt 0.6214659 0.9201338
vt 0.6120666 0.9562448
vt 0.6191539 0.9387226
vt 0.6077588 0.9537509
vt 0.6168734 0.9575115
vt 0.6041989 0.9502901
vt 0.6218348 0.9574538
vt 0.6016884 0.946034
vt 0.6266043 0.9560958
vt 0.6004952 0.9412386
vt 0.6308563 0.9535519
vt 0.6004753 0.9363004
vt 0.6342947 0.949997
vt 0.6017479 0.9315493
vt 0.6367036 0.9456978
vt 0.6041964 0.927299
vt 0.6378037 0.9409052
vt 0.6076269 0.9238177
vt 0.6377406 0.9360002
vt 0.6118761 0.9214143
vt 0.636405 0.9313002
vt 0.6165925 0.920153
vt 0.6339341 0.9271037
vt 0.6214659 0.9201338
vt 0.6303998 0.923768
vt 0.6261733 0.9213624
vn -0.3328933 0.4677876 0.8187531
vn -0.09588713 0.5358993 0.8388191
vn -0.04880748 0.272777 0.9608385
vn -0.2523998 0.2142659 0.9436018
vn -0.5448368 0.3545005 0.7599225
vn 0.1624415 0.2884949 0.9436013
vn 0.1500336 0.5541943 0.8187543
vn -0.4344637 0.1169514 0.8930641
vn -0.717274 0.2037607 0.666333
vn 0.366955 0.2603465 0.8930643
vn 0.3881101 0.5214272 0.7599237
vn -0.5825835 -0.01253205 0.8126742
vn -0.8384475 0.02583682 0.5443696
vn 0.5507911 0.1902546 0.8126699
vn 0.6021151 0.4398316 0.6663375
vn -0.6866734 -0.1653698 0.7079071
vn -0.9001017 -0.1671439 0.4023432
vn 0.7014147 0.08299458 0.707905
vn 0.7774662 0.3149661 0.5443737
vn -0.7396424 -0.3311422 0.585896
vn -0.8980378 -0.362027 0.2499291
vn 0.8085692 -0.0541303 0.585906
vn 0.9022131 0.1553399 0.4023443
vn -0.7378687 -0.4985501 0.4549699
vn -0.8323968 -0.5455336 0.09751236
vn 0.8649575 -0.2117666 0.4549764
vn 0.9678546 -0.02816758 0.2499282
vn -0.6814801 -0.6561855 0.3240454
vn -0.7076485 -0.7051606 -0.04452006
vn 0.8667337 -0.3791674 0.3240443
vn 0.9699173 -0.2230507 0.09751344
vn -0.5743219 -0.7933064 0.2020378
vn -0.5322962 -0.8300274 -0.1664792
vn 0.8137729 -0.5449351 0.2020381
vn 0.9082593 -0.4160327 -0.04451657
vn -0.4236941 -0.9005683 0.09726321
vn -0.3182921 -0.9116237 -0.2600625
vn 0.7096798 -0.6977767 0.0972736
vn 0.7870855 -0.5939541 -0.1664784
vn -0.2398572 -0.9706614 0.01688196
vn -0.08021685 -0.9443901 -0.3188929
vn 0.5615555 -0.8272666 0.01689004
vn 0.6146544 -0.7446918 -0.2600657
vn -0.03534658 -0.9988084 -0.03365088
vn 0.165701 -0.9260932 -0.3389609
vn 0.3794931 -0.9245828 -0.03364052
vn 0.4027088 -0.8579793 -0.3189
vn 0.1758993 -0.9830922 -0.05088441
vn 0.366244 -0.7165325 0.5936721
vn 0.3059507 -0.7692379 0.5609521
vn 0.2318503 -0.8088414 0.5403897
vn 0.1489839 -0.8326586 0.5333697
vn 0.06300311 -0.8390603 0.540378
vn -0.02023621 -0.8276088 0.5609405
vn 0.4086182 -0.6543223 0.6363124
vn -0.09506395 -0.79908 0.5936615
vn 0.4301731 -0.586851 0.6859716
vn -0.1563716 -0.7554142 0.6363154
vn 0.4294481 -0.518715 0.7392625
vn -0.1999869 -0.6996045 0.6859729
vn 0.4064944 -0.4545552 0.7925541
vn -0.222944 -0.6354468 0.7392586
vn 0.36288 -0.3987423 0.842213
vn -0.223659 -0.5673058 0.7925533
vn 0.3015739 -0.3550866 0.884854
vn -0.2020895 -0.4998346 0.8422144
vn 0.2267494 -0.3265582 0.9175752
vn -0.1597267 -0.4376262 0.8848562
vn 0.1435054 -0.3150986 0.9381465
vn -0.09944576 -0.3849258 0.9175743
vn 0.05752381 -0.3214954 0.9451622
vn -0.02534076 -0.3453163 0.9381442
vn 0.005600079 -0.791818 0.6107315
vn 0.07289305 -0.8010787 0.594104
vn 0.1424104 -0.7959092 0.5884283
vn 0.2094106 -0.7766552 0.5940992
vn 0.2693184 -0.7446303 0.6107318
vn 0.3180591 -0.7020213 0.6371847
vn -0.05489548 -0.7687568 0.6371809
vn 0.3523169 -0.6517285 0.6716567
vn -0.1044607 -0.7334595 0.6716586
vn 0.3697469 -0.5971783 0.7118043
vn -0.1397185 -0.6883367 0.7118084
vn 0.3691575 -0.5420918 0.7548901
vn -0.1582795 -0.6364649 0.7548908
vn 0.3506074 -0.4902187 0.7979725
vn -0.1588727 -0.5813757 0.7979735
vn 0.3153472 -0.4450919 0.8381225
vn -0.1414426 -0.5268259 0.838122
vn 0.2657765 -0.4097991 0.8725982
vn -0.1071806 -0.4765376 0.8725961
vn 0.205282 -0.3867401 0.8990502
vn -0.05843042 -0.4339354 0.8990473
vn 0.1379811 -0.3774763 0.9156817
vn 0.001475845 -0.401908 0.9156789
vn 0.068465 -0.3826461 0.9213547
vn -0.5169901 -0.09599964 0.8505911
vn -0.3816975 0.02227351 0.9240189
vn -0.2154125 0.1111666 0.970175
vn -0.02945464 0.1646106 0.9859188
vn 0.1635001 0.1789723 0.9701735
vn 0.3502963 0.1532617 0.9240149
vn -0.6120734 -0.2355939 0.7548918
vn 0.5182039 0.08923408 0.8505892
vn -0.6604553 -0.387001 0.6434508
vn 0.6557904 -0.00873865 0.7548925
vn -0.6588337 -0.53991 0.5238656
vn 0.7536678 -0.1339796 0.6434551
vn -0.6073232 -0.6838955 0.4042839
vn 0.8051721 -0.2779591 0.5238671
vn -0.5094417 -0.8091418 0.2928457
vn 0.8067886 -0.4308684 0.4042828
vn -0.3718591 -0.9071118 0.1971519
vn 0.7584101 -0.5822824 0.2928504
vn -0.2039539 -0.971131 0.1237238
vn 0.6633356 -0.7218829 0.1971571
vn -0.0171604 -0.9968399 0.07756194
vn 0.5280464 -0.8401544 0.1237245
vn 0.1757936 -0.9824843 0.0618165
vn 0.361756 -0.9290406 0.07756323
vn -0.2869743 -0.9476289 -0.1401612
vn -0.4899201 -0.8702511 -0.05139388
vn -0.06120261 -0.9787008 -0.195957
vn 0.1720096 -0.9613534 -0.2149709
vn -0.6562057 -0.7518404 0.06426557
vn 0.3967717 -0.8967599 -0.1959436
vn 0.5977595 -0.7893278 -0.1401612
vn -0.7745059 -0.6004646 0.198954
vn 0.7612844 -0.6463773 -0.05140549
vn -0.8367566 -0.4264387 0.3434943
vn 0.8761979 -0.4776482 0.0642605
vn -0.8387131 -0.2416282 0.4880328
vn 0.934668 -0.2946445 0.1989483
vn -0.7802429 -0.05862558 0.6227231
vn 0.9327117 -0.1098321 0.3434903
vn -0.6653295 0.1101059 0.7383858
vn 0.8704608 0.06419125 0.4880343
vn -0.5018117 0.2530625 0.8271302
vn 0.7521572 0.2155633 0.6227295
vn -0.3008255 0.3604966 0.8829192
vn 0.5858704 0.3339765 0.7383872
vn -0.07605904 0.4250874 0.9019511
vn 0.382929 0.411364 0.8271306
vn 0.1571563 0.4424398 0.8829207
vn 0.1094347 -0.6116343 0.7835353
vn 0.1094385 -0.6116364 0.783533
vn 0.1094371 -0.6116339 0.7835351
vn 0.1094394 -0.6116337 0.7835351
vn 0.1094394 -0.6116338 0.7835349
vn 0.1094391 -0.6116312 0.783537
vn 0.1094347 -0.6116352 0.7835346
vn 0.1094362 -0.6116305 0.783538
vn 0.1094328 -0.6116347 0.7835351
vn 0.109442 -0.6116373 0.7835319
vn 0.1094358 -0.6116325 0.7835366
vn 0.1094425 -0.6116388 0.7835307
vn 0.1094362 -0.6116382 0.7835319
vn 0.109441 -0.6116349 0.7835339
vn 0.1094351 -0.6116381 0.7835322
vn 0.109441 -0.6116348 0.783534
vn 0.1094391 -0.6116364 0.783533
vn 0.1094389 -0.6116405 0.7835299
vn 0.1094372 -0.611639 0.7835312
vn 0.1094398 -0.6116424 0.7835283
vn 0.1094394 -0.6116376 0.783532
vn 0.1094424 -0.6116377 0.7835315
vn 0.1094419 -0.61164 0.7835298
vn 0.1094416 -0.6116381 0.7835312
vn 0.1094373 -0.6116403 0.7835302
g PrisonChamberGauge_8_0
f 3/3/3 2/2/2 1/1/1
f 4/4/4 3/3/3 1/1/1
f 4/4/4 1/1/1 5/5/5
f 3/3/3 6/6/6 2/2/2
f 6/6/6 7/7/7 2/2/2
f 8/8/8 4/4/4 5/5/5
f 8/8/8 5/5/5 9/9/9
f 6/6/6 10/10/10 7/7/7
f 10/10/10 11/11/11 7/7/7
f 12/12/12 8/8/8 9/9/9
f 12/12/12 9/9/9 13/13/13
f 10/10/10 14/14/14 11/11/11
f 14/14/14 15/15/15 11/11/11
f 16/16/16 12/12/12 13/13/13
f 16/16/16 13/13/13 17/17/17
f 14/14/14 18/18/18 15/15/15
f 18/18/18 19/19/19 15/15/15
f 20/20/20 16/16/16 17/17/17
f 20/20/20 17/17/17 21/21/21
f 18/18/18 22/22/22 19/19/19
f 22/22/22 23/23/23 19/19/19
f 24/24/24 20/20/20 21/21/21
f 24/24/24 21/21/21 25/25/25
f 22/22/22 26/26/26 23/23/23
f 26/26/26 27/27/27 23/23/23
f 28/28/28 24/24/24 25/25/25
f 28/28/28 25/25/25 29/29/29
f 26/26/26 30/30/30 27/27/27
f 30/30/30 31/31/31 27/27/27
f 32/32/32 28/28/28 29/29/29
f 32/32/32 29/29/29 33/33/33
f 30/30/30 34/34/34 31/31/31
f 34/34/34 35/35/35 31/31/31
f 36/36/36 32/32/32 33/33/33
f 36/36/36 33/33/33 37/37/37
f 34/34/34 38/38/38 35/35/35
f 38/38/38 39/39/39 35/35/35
f 40/40/40 36/36/36 37/37/37
f 40/40/40 37/37/37 41/41/41
f 38/38/38 42/42/42 39/39/39
f 42/42/42 43/43/43 39/39/39
f 44/44/44 40/40/40 41/41/41
f 44/44/44 41/41/41 45/45/45
f 42/42/42 46/46/46 43/43/43
f 46/46/46 47/47/47 43/43/43
f 48/48/48 45/45/45 47/47/47
f 48/48/48 44/44/44 45/45/45
f 46/46/46 48/48/48 47/47/47
f 49/49/49 38/38/38 34/34/34
f 50/50/50 42/42/42 38/38/38
f 49/49/49 50/50/50 38/38/38
f 51/51/51 46/46/46 42/42/42
f 50/50/50 51/51/51 42/42/42
f 52/52/52 48/48/48 46/46/46
f 51/51/51 52/52/52 46/46/46
f 53/53/53 44/44/44 48/48/48
f 52/52/52 53/53/53 48/48/48
f 54/54/54 40/40/40 44/44/44
f 53/53/53 54/54/54 44/44/44
f 55/55/55 49/49/49 34/34/34
f 55/55/55 34/34/34 30/30/30
f 54/54/54 56/56/56 40/40/40
f 56/56/56 36/36/36 40/40/40
f 57/57/57 55/55/55 30/30/30
f 57/57/57 30/30/30 26/26/26
f 56/56/56 58/58/58 36/36/36
f 58/58/58 32/32/32 36/36/36
f 59/59/59 57/57/57 26/26/26
f 59/59/59 26/26/26 22/22/22
f 58/58/58 60/60/60 32/32/32
f 60/60/60 28/28/28 32/32/32
f 61/61/61 59/59/59 22/22/22
f 61/61/61 22/22/22 18/18/18
f 60/60/60 62/62/62 28/28/28
f 62/62/62 24/24/24 28/28/28
f 63/63/63 61/61/61 18/18/18
f 63/63/63 18/18/18 14/14/14
f 62/62/62 64/64/64 24/24/24
f 64/64/64 20/20/20 24/24/24
f 65/65/65 63/63/63 14/14/14
f 65/65/65 14/14/14 10/10/10
f 64/64/64 66/66/66 20/20/20
f 66/66/66 16/16/16 20/20/20
f 67/67/67 65/65/65 10/10/10
f 67/67/67 10/10/10 6/6/6
f 66/66/66 68/68/68 16/16/16
f 68/68/68 12/12/12 16/16/16
f 69/69/69 67/67/67 6/6/6
f 69/69/69 6/6/6 3/3/3
f 68/68/68 70/70/70 12/12/12
f 70/70/70 8/8/8 12/12/12
f 71/71/71 69/69/69 3/3/3
f 71/71/71 3/3/3 4/4/4
f 72/72/72 4/4/4 8/8/8
f 70/70/70 72/72/72 8/8/8
f 72/72/72 71/71/71 4/4/4
f 65/65/65 67/67/67 73/73/73
f 67/67/67 69/69/69 74/74/74
f 73/73/73 67/67/67 74/74/74
f 69/69/69 71/71/71 75/75/75
f 74/74/74 69/69/69 75/75/75
f 71/71/71 72/72/72 76/76/76
f 75/75/75 71/71/71 76/76/76
f 72/72/72 70/70/70 77/77/77
f 76/76/76 72/72/72 77/77/77
f 70/70/70 68/68/68 78/78/78
f 77/77/77 70/70/70 78/78/78
f 79/79/79 65/65/65 73/73/73
f 63/63/63 65/65/65 79/79/79
f 78/78/78 68/68/68 80/80/80
f 68/68/68 66/66/66 80/80/80
f 81/81/81 63/63/63 79/79/79
f 61/61/61 63/63/63 81/81/81
f 80/80/80 66/66/66 82/82/82
f 66/66/66 64/64/64 82/82/82
f 83/83/83 61/61/61 81/81/81
f 59/59/59 61/61/61 83/83/83
f 82/82/82 64/64/64 84/84/84
f 64/64/64 62/62/62 84/84/84
f 85/85/85 59/59/59 83/83/83
f 57/57/57 59/59/59 85/85/85
f 84/84/84 62/62/62 86/86/86
f 62/62/62 60/60/60 86/86/86
f 87/87/87 57/57/57 85/85/85
f 55/55/55 57/57/57 87/87/87
f 86/86/86 60/60/60 88/88/88
f 60/60/60 58/58/58 88/88/88
f 89/89/89 55/55/55 87/87/87
f 49/49/49 55/55/55 89/89/89
f 88/88/88 58/58/58 90/90/90
f 58/58/58 56/56/56 90/90/90
f 91/91/91 49/49/49 89/89/89
f 50/50/50 49/49/49 91/91/91
f 90/90/90 56/56/56 92/92/92
f 56/56/56 54/54/54 92/92/92
f 93/93/93 50/50/50 91/91/91
f 51/51/51 50/50/50 93/93/93
f 92/92/92 54/54/54 94/94/94
f 54/54/54 53/53/53 94/94/94
f 95/95/95 51/51/51 93/93/93
f 52/52/52 51/51/51 95/95/95
f 53/53/53 52/52/52 96/96/96
f 94/94/94 53/53/53 96/96/96
f 96/96/96 52/52/52 95/95/95
f 97/97/97 91/91/91 89/89/89
f 98/98/98 93/93/93 91/91/91
f 97/97/97 98/98/98 91/91/91
f 99/99/99 95/95/95 93/93/93
f 98/98/98 99/99/99 93/93/93
f 100/100/100 96/96/96 95/95/95
f 99/99/99 100/100/100 95/95/95
f 101/101/101 94/94/94 96/96/96
f 100/100/100 101/101/101 96/96/96
f 102/102/102 92/92/92 94/94/94
f 101/101/101 102/102/102 94/94/94
f 103/103/103 97/97/97 89/89/89
f 103/103/103 89/89/89 87/87/87
f 102/102/102 104/104/104 92/92/92
f 104/104/104 90/90/90 92/92/92
f 105/105/105 103/103/103 87/87/87
f 105/105/105 87/87/87 85/85/85
f 104/104/104 106/106/106 90/90/90
f 106/106/106 88/88/88 90/90/90
f 107/107/107 105/105/105 85/85/85
f 107/107/107 85/85/85 83/83/83
f 106/106/106 108/108/108 88/88/88
f 108/108/108 86/86/86 88/88/88
f 109/109/109 107/107/107 83/83/83
f 109/109/109 83/83/83 81/81/81
f 108/108/108 110/110/110 86/86/86
f 110/110/110 84/84/84 86/86/86
f 111/111/111 109/109/109 81/81/81
f 111/111/111 81/81/81 79/79/79
f 110/110/110 112/112/112 84/84/84
f 112/112/112 82/82/82 84/84/84
f 113/113/113 111/111/111 79/79/79
f 113/113/113 79/79/79 73/73/73
f 112/112/112 114/114/114 82/82/82
f 114/114/114 80/80/80 82/82/82
f 115/115/115 113/113/113 73/73/73
f 115/115/115 73/73/73 74/74/74
f 114/114/114 116/116/116 80/80/80
f 116/116/116 78/78/78 80/80/80
f 117/117/117 115/115/115 74/74/74
f 117/117/117 74/74/74 75/75/75
f 116/116/116 118/118/118 78/78/78
f 118/118/118 77/77/77 78/78/78
f 119/119/119 117/117/117 75/75/75
f 119/119/119 75/75/75 76/76/76
f 120/120/120 76/76/76 77/77/77
f 118/118/118 120/120/120 77/77/77
f 120/120/120 119/119/119 76/76/76
f 115/115/115 121/121/121 113/113/113
f 121/121/121 122/122/122 113/113/113
f 123/123/123 121/121/121 115/115/115
f 117/117/117 123/123/123 115/115/115
f 113/113/113 122/122/122 111/111/111
f 124/124/124 123/123/123 117/117/117
f 119/119/119 124/124/124 117/117/117
f 122/122/122 125/125/125 111/111/111
f 126/126/126 124/124/124 119/119/119
f 120/120/120 126/126/126 119/119/119
f 111/111/111 125/125/125 109/109/109
f 127/127/127 126/126/126 120/120/120
f 118/118/118 127/127/127 120/120/120
f 125/125/125 128/128/128 109/109/109
f 129/129/129 127/127/127 118/118/118
f 109/109/109 128/128/128 107/107/107
f 116/116/116 129/129/129 118/118/118
f 128/128/128 130/130/130 107/107/107
f 131/131/131 129/129/129 116/116/116
f 107/107/107 130/130/130 105/105/105
f 114/114/114 131/131/131 116/116/116
f 130/130/130 132/132/132 105/105/105
f 133/133/133 131/131/131 114/114/114
f 105/105/105 132/132/132 103/103/103
f 112/112/112 133/133/133 114/114/114
f 132/132/132 134/134/134 103/103/103
f 135/135/135 133/133/133 112/112/112
f 103/103/103 134/134/134 97/97/97
f 110/110/110 135/135/135 112/112/112
f 134/134/134 136/136/136 97/97/97
f 137/137/137 135/135/135 110/110/110
f 97/97/97 136/136/136 98/98/98
f 108/108/108 137/137/137 110/110/110
f 136/136/136 138/138/138 98/98/98
f 139/139/139 137/137/137 108/108/108
f 98/98/98 138/138/138 99/99/99
f 106/106/106 139/139/139 108/108/108
f 138/138/138 140/140/140 99/99/99
f 141/141/141 139/139/139 106/106/106
f 99/99/99 140/140/140 100/100/100
f 104/104/104 141/141/141 106/106/106
f 140/140/140 142/142/142 100/100/100
f 143/143/143 141/141/141 104/104/104
f 100/100/100 142/142/142 101/101/101
f 102/102/102 143/143/143 104/104/104
f 142/142/142 144/144/144 101/101/101
f 144/144/144 143/143/143 102/102/102
f 101/101/101 144/144/144 102/102/102
g PrisonChamberGauge_8_1
f 147/147/147 146/146/146 145/145/145
f 145/145/145 146/146/146 148/148/148
f 149/149/149 146/146/146 147/147/147
f 148/148/148 146/146/146 150/150/150
f 151/151/151 146/146/146 149/149/149
f 150/150/150 146/146/146 152/152/152
f 153/153/153 146/146/146 151/151/151
f 152/152/152 146/146/146 154/154/154
f 155/155/155 146/146/146 153/153/153
f 154/154/154 146/146/146 156/156/156
f 157/157/157 146/146/146 155/155/155
f 156/156/156 146/146/146 158/158/158
f 159/159/159 146/146/146 157/157/157
f 158/158/158 146/146/146 160/160/160
f 161/161/161 146/146/146 159/159/159
f 160/160/160 146/146/146 162/162/162
f 163/163/163 146/146/146 161/161/161
f 162/162/162 146/146/146 164/164/164
f 165/165/165 146/146/146 163/163/163
f 164/164/164 146/146/146 166/166/166
f 167/167/167 146/146/146 165/165/165
f 166/166/166 146/146/146 168/168/168
f 169/169/169 146/146/146 167/167/167
f 168/168/168 146/146/146 169/169/169
