g SB-PineapplePanelTop_5
v -0.7900155 1.09966 6.686943
v -0.8141836 1.322817 6.528872
v -0.6047113 1.190786 6.678287
v -0.5859143 0.943253 6.860054
v -0.7337046 0.8436779 6.865577
v -0.3948595 1.006601 6.855858
v -0.5282745 0.6819034 6.965379
v -0.6232494 0.6031252 6.965379
v -0.376998 0.7548304 6.965379
v -0.229235 0.7888762 6.965379
v -0.2098079 0.7945995 6.965379
v -0.229235 0.7888762 6.965379
v -0.3948595 1.006601 6.855858
v -0.3739522 1.016161 6.844008
v -0.6047113 1.190786 6.678287
v -0.5828683 1.204583 6.662533
v -0.8141836 1.322817 6.528872
v -0.8285276 1.343706 6.487134
v -0.8285276 1.343706 6.487134
v -0.8141836 1.322817 6.528872
v -0.7900155 1.09966 6.686943
v -0.828528 1.086157 6.662533
v -0.7337046 0.8436779 6.865577
v -0.7708884 0.8248072 6.844008
v -0.6232494 0.6031252 6.965379
v -0.6578239 0.5786213 6.965379
vt 0.8844653 0.5844744
vt 0.9013517 0.5721233
vt 0.879522 0.5696353
vt 0.8612981 0.5837193
vt 0.8641629 0.5966119
vt 0.8547367 0.5702603
vt 0.843124 0.59559
vt 0.84461 0.6050068
vt 0.8386111 0.5834712
vt 0.832621 0.5733839
vt 0.8319063 0.5720204
vt 0.832621 0.5733839
vt 0.8547367 0.5702603
vt 0.8545049 0.5683142
vt 0.879522 0.5696353
vt 0.8796891 0.5673679
vt 0.9013517 0.5721233
vt 0.9040426 0.5714235
vt 0.9040426 0.5714235
vt 0.9013517 0.5721233
vt 0.8844653 0.5844744
vt 0.8869488 0.5870423
vt 0.8641629 0.5966119
vt 0.866084 0.5995916
vt 0.84461 0.6050068
vt 0.8453116 0.6081355
vn -0.2390395 0.5306921 0.813158
vn -0.2354993 0.5546858 0.7980374
vn -0.2163663 0.5418718 0.8121333
vn -0.2000568 0.4574959 0.866415
vn -0.2494427 0.4015609 0.8812079
vn -0.1343869 0.4735502 0.8704541
vn -0.2085003 0.3309451 0.9203277
vn -0.2321506 0.2798839 0.9315424
vn -0.1281553 0.3942369 0.9100294
vn -0.09029411 0.3918713 0.9155785
vn 0.06360721 0.5012918 0.8629372
vn 0.06360721 0.5012918 0.8629372
vn 0.05770832 0.620321 0.7822222
vn 0.05791951 0.6166427 0.7851096
vn 0.0892701 0.7861025 0.6116157
vn 0.08988302 0.7870651 0.6102865
vn 0.1272188 0.8418459 0.5245102
vn 0.1272188 0.8418459 0.5245102
vn -0.7004348 0.3827012 0.6024375
vn -0.7004348 0.3827012 0.6024375
vn -0.6427621 0.3758151 0.6675477
vn -0.653199 0.3772256 0.6565301
vn -0.495892 0.2927188 0.8175614
vn -0.5094479 0.3031562 0.8053317
vn -0.4004752 0.2202525 0.8894428
vn -0.4004752 0.2202525 0.8894428
g SB-PineapplePanelTop_5_0
f 3/3/3 2/2/2 1/1/1
f 4/4/4 3/3/3 1/1/1
f 1/1/1 5/5/5 4/4/4
f 6/6/6 3/3/3 4/4/4
f 5/5/5 7/7/7 4/4/4
f 5/5/5 8/8/8 7/7/7
f 4/4/4 7/7/7 9/9/9
f 9/9/9 6/6/6 4/4/4
f 6/6/6 9/9/9 10/10/10
f 13/13/13 12/12/12 11/11/11
f 14/14/14 13/13/13 11/11/11
f 15/15/15 13/13/13 14/14/14
f 16/16/16 15/15/15 14/14/14
f 17/17/17 15/15/15 16/16/16
f 18/18/18 17/17/17 16/16/16
f 21/21/21 20/20/20 19/19/19
f 22/22/22 21/21/21 19/19/19
f 23/23/23 21/21/21 22/22/22
f 24/24/24 23/23/23 22/22/22
f 25/25/25 23/23/23 24/24/24
f 26/26/26 25/25/25 24/24/24
