g SB-PineapplePanel_11
v 0.7273365 -1.585033 6.233064
v 0.7720522 -1.34946 6.451853
v 1.014879 -1.443992 6.233395
v 0.9875171 -1.713022 6.015865
v 0.6145302 -1.833598 5.987198
v 1.305236 -1.503394 5.986698
v 0.8744527 -1.959208 5.718277
v 0.4476241 -2.055923 5.688625
v 1.277292 -1.765008 5.718277
v 1.603213 -1.501073 5.688141
v 0.7103084 -2.18077 5.42069
v 0.2447927 -2.236274 5.403857
v 0.5117441 -2.333577 5.083089
v 1.164228 -2.011194 5.42069
v 1.572745 -1.765007 5.42069
v 1.882046 -1.447752 5.404058
v 1.820076 -1.706742 5.088899
v 1.000084 -2.232755 5.081174
v 0.8034866 -2.384652 4.747492
v 1.45968 -2.011193 5.081174
v 1.705512 -1.952904 4.752837
v 1.295536 -2.232754 4.741659
v 1.107003 -2.383711 4.388503
v 1.537561 -2.177706 4.391529
v 1.35725 -2.336887 4.051153
v 0.4154741 -2.041892 5.695024
v 0.2447927 -2.236274 5.403857
v 0.206558 -2.230315 5.397436
v 0.4476241 -2.055923 5.688625
v 0.5796185 -1.82033 5.992611
v 0.6145302 -1.833598 5.987198
v 0.6926829 -1.574144 6.236835
v 0.7273365 -1.585033 6.233064
v 0.7503225 -1.312795 6.481059
v 0.7720522 -1.34946 6.451853
v 0.206558 -2.230315 5.397436
v 0.2447927 -2.236274 5.403857
v 0.5117441 -2.333577 5.083089
v 0.4795205 -2.332288 5.05792
v 0.8034866 -2.384652 4.747492
v 0.7692959 -2.384273 4.718405
v 1.107003 -2.383711 4.388503
v 1.064748 -2.384272 4.350009
v 1.35725 -2.336887 4.051153
v 1.354524 -2.332287 3.981614
v 1.354524 -2.332287 3.981614
v 1.35725 -2.336887 4.051153
v 1.537561 -2.177706 4.391529
v 1.56344 -2.143864 4.350009
v 1.705512 -1.952904 4.752837
v 1.727584 -1.922302 4.718405
v 1.820076 -1.706742 5.088899
v 1.840648 -1.676117 5.05792
v 1.882046 -1.447752 5.404058
v 1.898288 -1.414767 5.397436
v 1.898288 -1.414767 5.397436
v 1.882046 -1.447752 5.404058
v 1.603213 -1.501073 5.688141
v 1.608513 -1.466753 5.695024
v 1.305236 -1.503394 5.986698
v 1.31306 -1.466753 5.992611
v 1.014879 -1.443992 6.233395
v 1.023285 -1.414768 6.236835
v 0.7720522 -1.34946 6.451853
v 0.7503225 -1.312795 6.481059
vt 0.1030929 0.7338457
vt 0.1220136 0.7487468
vt 0.1257086 0.7237701
vt 0.1058427 0.7065464
vt 0.07915372 0.7192619
vt 0.1321189 0.695105
vt 0.08110531 0.6896348
vt 0.05167706 0.7047302
vt 0.1114272 0.6759059
vt 0.1408609 0.6642952
vt 0.05467183 0.6751186
vt 0.02470063 0.6926916
vt 0.02661063 0.6606261
vt 0.08676445 0.659088
vt 0.1194229 0.6458697
vt 0.1504728 0.6359485
vt 0.127384 0.6156928
vt 0.05916316 0.642023
vt 0.03170164 0.6269667
vt 0.09375022 0.6264748
vt 0.1010887 0.5962587
vt 0.06615283 0.6092306
vt 0.03894253 0.5920503
vt 0.07206011 0.577551
vt 0.04570798 0.5614603
vt 0.05026882 0.7070628
vt 0.02470063 0.6926916
vt 0.02209497 0.6942124
vt 0.05167706 0.7047302
vt 0.07768493 0.7217537
vt 0.07915372 0.7192619
vt 0.1016661 0.7362356
vt 0.1030929 0.7338457
vt 0.1234162 0.7524778
vt 0.1220136 0.7487468
vt 0.02209497 0.6942124
vt 0.02470063 0.6926916
vt 0.02661063 0.6606261
vt 0.02348667 0.6604467
vt 0.03170164 0.6269667
vt 0.02830315 0.6263722
vt 0.03894253 0.5920503
vt 0.0347639 0.5908469
vt 0.04570798 0.5614603
vt 0.04350816 0.5565704
vt 0.04350816 0.5565704
vt 0.04570798 0.5614603
vt 0.07206011 0.577551
vt 0.07390299 0.5734286
vt 0.1010887 0.5962587
vt 0.1030573 0.5928965
vt 0.127384 0.6156928
vt 0.1296279 0.6127575
vt 0.1504728 0.6359485
vt 0.1532128 0.6351208
vt 0.1532128 0.6351208
vt 0.1504728 0.6359485
vt 0.1408609 0.6642952
vt 0.1434613 0.6650056
vt 0.1321189 0.695105
vt 0.1349104 0.6958917
vt 0.1257086 0.7237701
vt 0.1279598 0.7243727
vt 0.1220136 0.7487468
vt 0.1234162 0.7524778
vn 0.2771855 -0.6894384 0.6692107
vn 0.3160517 -0.6459752 0.6948577
vn 0.3682528 -0.6402242 0.6741683
vn 0.3434377 -0.7092487 0.6156435
vn 0.1827395 -0.7896569 0.5857032
vn 0.4991671 -0.623821 0.6013979
vn 0.2654408 -0.812502 0.51902
vn 0.1283919 -0.8608659 0.4923672
vn 0.4702715 -0.7073825 0.527688
vn 0.59312 -0.6206617 0.5128232
vn 0.1939916 -0.883871 0.4256047
vn 0.09217677 -0.9013944 0.4230739
vn 0.1554604 -0.9225416 0.3531983
vn 0.392774 -0.8133708 0.4291348
vn 0.5724964 -0.6912748 0.4408935
vn 0.6523345 -0.6125811 0.4463229
vn 0.6252322 -0.686956 0.370373
vn 0.3024176 -0.8929332 0.3334875
vn 0.251386 -0.9290726 0.271347
vn 0.5095048 -0.7899524 0.3411453
vn 0.5665652 -0.7742983 0.281897
vn 0.4184763 -0.8708646 0.2578225
vn 0.3729439 -0.9057685 0.2012369
vn 0.4696821 -0.858964 0.2039108
vn 0.4241873 -0.8890914 0.1719926
vn -0.1999188 -0.7437322 0.637883
vn -0.2132773 -0.7502115 0.625856
vn -0.2132773 -0.7502115 0.625856
vn -0.1983596 -0.7429606 0.6392675
vn -0.1601834 -0.7025999 0.6933215
vn -0.1596736 -0.7018922 0.6941554
vn -0.1302518 -0.6639087 0.7363829
vn -0.13056 -0.6640514 0.7361996
vn -0.1264834 -0.662158 0.7386127
vn -0.1264834 -0.662158 0.7386127
vn -0.1696254 -0.97324 0.1550195
vn -0.1696254 -0.97324 0.1550195
vn -0.1274901 -0.9851813 0.1147342
vn -0.129599 -0.9846693 0.1167499
vn -0.04260824 -0.9983556 0.03834793
vn -0.04235724 -0.9983745 0.03813455
vn 0.04237451 -0.9984963 -0.0347802
vn 0.04602666 -0.9982185 -0.03796487
vn 0.08629195 -0.993586 -0.07307947
vn 0.08629195 -0.993586 -0.07307947
vn 0.7389823 -0.6692408 -0.07760089
vn 0.7389823 -0.6692408 -0.07760089
vn 0.7749453 -0.6310378 -0.03536945
vn 0.7694947 -0.6372672 -0.0420557
vn 0.8326742 -0.5520791 0.0431562
vn 0.829893 -0.5565601 0.03896863
vn 0.8771306 -0.4633353 0.1263422
vn 0.8762712 -0.4655098 0.1242962
vn 0.8930369 -0.4172538 0.1684767
vn 0.8930369 -0.4172538 0.1684767
vn 0.7162605 -0.2317864 0.6582142
vn 0.7162605 -0.2317864 0.6582142
vn 0.7012942 -0.2411962 0.6708285
vn 0.7018732 -0.2408381 0.6703515
vn 0.6431299 -0.2529298 0.7227796
vn 0.6417722 -0.2530024 0.7239602
vn 0.5919058 -0.2576376 0.7637214
vn 0.5915539 -0.2578911 0.7639086
vn 0.5877553 -0.260617 0.7659128
vn 0.5877553 -0.260617 0.7659128
g SB-PineapplePanel_11_0
f 3/3/3 2/2/2 1/1/1
f 4/4/4 3/3/3 1/1/1
f 4/4/4 1/1/1 5/5/5
f 3/3/3 4/4/4 6/6/6
f 7/7/7 4/4/4 5/5/5
f 7/7/7 5/5/5 8/8/8
f 4/4/4 9/9/9 6/6/6
f 9/9/9 4/4/4 7/7/7
f 10/10/10 6/6/6 9/9/9
f 11/11/11 7/7/7 8/8/8
f 8/8/8 12/12/12 11/11/11
f 12/12/12 13/13/13 11/11/11
f 14/14/14 9/9/9 7/7/7
f 14/14/14 7/7/7 11/11/11
f 15/15/15 10/10/10 9/9/9
f 9/9/9 14/14/14 15/15/15
f 16/16/16 10/10/10 15/15/15
f 17/17/17 16/16/16 15/15/15
f 18/18/18 11/11/11 13/13/13
f 18/18/18 14/14/14 11/11/11
f 19/19/19 18/18/18 13/13/13
f 17/17/17 15/15/15 20/20/20
f 14/14/14 20/20/20 15/15/15
f 20/20/20 14/14/14 18/18/18
f 21/21/21 17/17/17 20/20/20
f 22/22/22 18/18/18 19/19/19
f 22/22/22 20/20/20 18/18/18
f 20/20/20 22/22/22 21/21/21
f 23/23/23 22/22/22 19/19/19
f 22/22/22 24/24/24 21/21/21
f 24/24/24 22/22/22 23/23/23
f 25/25/25 24/24/24 23/23/23
f 28/28/28 27/27/27 26/26/26
f 27/27/27 29/29/29 26/26/26
f 26/26/26 29/29/29 30/30/30
f 29/29/29 31/31/31 30/30/30
f 30/30/30 31/31/31 32/32/32
f 31/31/31 33/33/33 32/32/32
f 32/32/32 33/33/33 34/34/34
f 33/33/33 35/35/35 34/34/34
f 38/38/38 37/37/37 36/36/36
f 39/39/39 38/38/38 36/36/36
f 40/40/40 38/38/38 39/39/39
f 41/41/41 40/40/40 39/39/39
f 42/42/42 40/40/40 41/41/41
f 43/43/43 42/42/42 41/41/41
f 44/44/44 42/42/42 43/43/43
f 45/45/45 44/44/44 43/43/43
f 48/48/48 47/47/47 46/46/46
f 49/49/49 48/48/48 46/46/46
f 50/50/50 48/48/48 49/49/49
f 51/51/51 50/50/50 49/49/49
f 52/52/52 50/50/50 51/51/51
f 53/53/53 52/52/52 51/51/51
f 54/54/54 52/52/52 53/53/53
f 55/55/55 54/54/54 53/53/53
f 58/58/58 57/57/57 56/56/56
f 59/59/59 58/58/58 56/56/56
f 60/60/60 58/58/58 59/59/59
f 61/61/61 60/60/60 59/59/59
f 62/62/62 60/60/60 61/61/61
f 63/63/63 62/62/62 61/61/61
f 64/64/64 62/62/62 63/63/63
f 65/65/65 64/64/64 63/63/63
