g SB-PineapplePanel_14
v 2.089059 -1.930418 2.138149
v 2.299972 -1.743517 2.461353
v 2.436749 -1.548566 2.127168
v 2.25913 -1.748911 1.782207
v 2.5351 -1.309051 1.770172
v 2.391904 -1.525194 1.444164
v 2.616854 -1.055992 1.436107
v 2.470438 -1.276471 1.097413
v 2.638499 -0.7852213 1.110815
v 2.496663 -1.028762 0.8149973
v 2.16565 -1.713248 1.097428
v 2.277006 -1.479837 0.7840638
v 2.301095 -1.242732 0.5027961
v 2.045092 -1.642216 0.4650427
v 2.093385 -1.408477 0.2341583
v 1.805353 -1.740305 0.2303708
v 1.883444 -1.520212 0.02947177
v 1.675957 -1.963624 0.496356
v 1.937473 -1.880903 0.7843399
v 2.137419 -1.827409 1.478828
v 2.141508 -1.848708 1.60499
v 2.115322 -1.825246 1.347875
v 2.118997 -1.877981 1.738538
v 2.084529 -1.932335 1.857526
v 1.979324 -2.006151 2.001222
v 2.095463 -1.83461 1.284102
v 2.072981 -1.838459 1.2229
v 2.01092 -1.86492 1.108665
v 1.9397 -1.915669 1.009883
v 1.861245 -1.978513 0.9340036
v 1.757709 -2.047041 0.8722001
v 1.653914 -2.122591 0.8385901
v 1.50972 -2.186306 0.8369895
v 1.480709 -2.175186 0.799881
v 1.455692 -2.196387 0.8390263
v 1.637099 -1.965068 0.4809546
v 1.805353 -1.740305 0.2303708
v 1.768143 -1.741724 0.2150028
v 1.883444 -1.520212 0.02947177
v 1.847468 -1.491623 -0.01107419
v 1.847468 -1.491623 -0.01107419
v 1.883444 -1.520212 0.02947177
v 2.093385 -1.408477 0.2341583
v 2.085823 -1.364078 0.2149784
v 2.301095 -1.242732 0.5027961
v 2.291112 -1.190754 0.4809348
v 2.496663 -1.028762 0.8149973
v 2.488124 -0.9905881 0.7997965
v 2.638499 -0.7852213 1.110815
v 2.639056 -0.7586331 1.113024
v 2.639056 -0.7586331 1.113024
v 2.638499 -0.7852213 1.110815
v 2.616854 -1.055992 1.436107
v 2.616538 -1.022561 1.459491
v 2.5351 -1.309051 1.770172
v 2.536739 -1.271352 1.797328
v 2.436749 -1.548566 2.127168
v 2.440127 -1.515567 2.151897
v 2.299972 -1.743517 2.461353
v 2.293379 -1.736734 2.50032
v 2.293379 -1.736734 2.50032
v 2.299972 -1.743517 2.461353
v 2.089059 -1.930418 2.138149
v 2.069821 -1.935036 2.152439
v 1.950238 -2.014976 2.0288
v 1.979324 -2.006151 2.001222
vt 0.5610991 0.3537987
vt 0.5861012 0.3730525
vt 0.599425 0.3461742
vt 0.5751333 0.323851
vt 0.6138359 0.3162243
vt 0.5902475 0.2953665
vt 0.6284385 0.2875929
vt 0.6045306 0.2662322
vt 0.6422796 0.2593944
vt 0.617879 0.2414916
vt 0.5650076 0.2721229
vt 0.5807238 0.2459696
vt 0.593196 0.2214078
vt 0.557859 0.2241117
vt 0.5713564 0.2035149
vt 0.5389079 0.2064283
vt 0.5534059 0.1886859
vt 0.5213893 0.2280958
vt 0.541595 0.2503138
vt 0.5608297 0.3023869
vt 0.5613876 0.3122303
vt 0.558555 0.2924526
vt 0.5602083 0.3228641
vt 0.5569603 0.3327756
vt 0.5492038 0.3454406
vt 0.5563983 0.2877498
vt 0.5532613 0.2837947
vt 0.5486333 0.2746443
vt 0.5412747 0.2676856
vt 0.5331162 0.2624186
vt 0.523326 0.2580763
vt 0.5130753 0.2584595
vt 0.5013857 0.2550164
vt 0.4998464 0.2516262
vt 0.4971843 0.2545153
vt 0.5187318 0.2263633
vt 0.5389079 0.2064283
vt 0.5364875 0.2045716
vt 0.5534059 0.1886859
vt 0.5528316 0.1840572
vt 0.5528316 0.1840572
vt 0.5534059 0.1886859
vt 0.5713564 0.2035149
vt 0.5736728 0.2006281
vt 0.593196 0.2214078
vt 0.5961337 0.2182478
vt 0.617879 0.2414916
vt 0.620167 0.2393292
vt 0.6422796 0.2593944
vt 0.6442659 0.2590168
vt 0.6442659 0.2590168
vt 0.6422796 0.2593944
vt 0.6284385 0.2875929
vt 0.6312655 0.2887995
vt 0.6138359 0.3162243
vt 0.6170157 0.3177887
vt 0.599425 0.3461742
vt 0.6021416 0.3477017
vt 0.5861012 0.3730525
vt 0.5866987 0.3760598
vt 0.5866987 0.3760598
vt 0.5861012 0.3730525
vt 0.5610991 0.3537987
vt 0.5599034 0.3552102
vt 0.5473781 0.347982
vt 0.5492038 0.3454406
vn 0.6974697 -0.7159618 -0.03057584
vn 0.7382852 -0.6733573 -0.0390498
vn 0.7840667 -0.6183898 -0.05323002
vn 0.7657594 -0.6392929 -0.07012247
vn 0.8670662 -0.4904115 -0.08770797
vn 0.8292574 -0.5449817 -0.1238023
vn 0.9125816 -0.3828422 -0.1436195
vn 0.8812193 -0.4329073 -0.1898524
vn 0.9298586 -0.3128295 -0.1936511
vn 0.9003657 -0.3649568 -0.236956
vn 0.7483662 -0.6401162 -0.1737798
vn 0.8139157 -0.5252118 -0.2483826
vn 0.8372412 -0.4525552 -0.3069543
vn 0.7172948 -0.6144307 -0.3285776
vn 0.7467135 -0.5449067 -0.381439
vn 0.6503703 -0.6587538 -0.3782353
vn 0.6874072 -0.591878 -0.4208941
vn 0.4151296 -0.807017 -0.4199893
vn 0.660222 -0.7137669 -0.2337599
vn 0.7502121 -0.6471138 -0.1357402
vn 0.7322825 -0.6724905 -0.1073256
vn 0.7499307 -0.646914 -0.1382251
vn 0.7016808 -0.7113249 -0.04075384
vn 0.686166 -0.7268111 -0.03036323
vn 0.5710507 -0.8209068 -0.003608883
vn 0.7298587 -0.6650924 -0.1579823
vn 0.6776084 -0.7064196 -0.2044951
vn 0.6849962 -0.7131864 -0.1488129
vn 0.6877684 -0.7160236 -0.1195194
vn 0.6322196 -0.7484012 -0.2004843
vn 0.5479881 -0.781769 -0.2975671
vn 0.496783 -0.7988915 -0.3390856
vn 0.2941391 -0.8673617 -0.4014548
vn 0.2018257 -0.8789369 -0.43213
vn 0.1544022 -0.9067363 -0.3924147
vn 0.239562 -0.8329809 -0.4987513
vn 0.2541151 -0.7479788 -0.6131502
vn 0.254032 -0.7503186 -0.6103194
vn 0.2550696 -0.6954389 -0.6717917
vn 0.2550696 -0.6954389 -0.6717917
vn 0.7215701 -0.1265651 -0.6806746
vn 0.7215701 -0.1265651 -0.6806746
vn 0.7708865 -0.1107735 -0.6272665
vn 0.7712831 -0.1106381 -0.6268026
vn 0.8372323 -0.06551775 -0.5429084
vn 0.8388804 -0.06318138 -0.5406366
vn 0.8756527 -0.009434256 -0.4828494
vn 0.8787531 -0.004751948 -0.477253
vn 0.894664 0.02074563 -0.4462578
vn 0.894664 0.02074563 -0.4462578
vn 0.9986264 -0.02390473 0.04662568
vn 0.9986264 -0.02390473 0.04662568
vn 0.9923623 -0.07477516 0.09811056
vn 0.9928541 -0.07192183 0.09522593
vn 0.9779676 -0.1492016 0.1460078
vn 0.9779812 -0.1491146 0.1460058
vn 0.9570885 -0.225271 0.1823036
vn 0.9560001 -0.2281521 0.1844187
vn 0.9354792 -0.2765919 0.2199443
vn 0.9354792 -0.2765919 0.2199443
vn 0.4140057 -0.8790104 0.2365166
vn 0.4140057 -0.8790104 0.2365166
vn 0.4098196 -0.8878245 0.2093217
vn 0.4093127 -0.8887975 0.2061607
vn 0.4048493 -0.8966165 0.1793769
vn 0.4048493 -0.8966165 0.1793769
g SB-PineapplePanel_14_0
f 3/3/3 2/2/2 1/1/1
f 4/4/4 3/3/3 1/1/1
f 3/3/3 4/4/4 5/5/5
f 4/4/4 6/6/6 5/5/5
f 7/7/7 5/5/5 6/6/6
f 8/8/8 7/7/7 6/6/6
f 9/9/9 7/7/7 8/8/8
f 10/10/10 9/9/9 8/8/8
f 6/6/6 11/11/11 8/8/8
f 11/11/11 12/12/12 8/8/8
f 10/10/10 8/8/8 12/12/12
f 13/13/13 10/10/10 12/12/12
f 12/12/12 14/14/14 13/13/13
f 14/14/14 15/15/15 13/13/13
f 15/15/15 14/14/14 16/16/16
f 17/17/17 15/15/15 16/16/16
f 16/16/16 14/14/14 18/18/18
f 14/14/14 19/19/19 18/18/18
f 14/14/14 12/12/12 19/19/19
f 12/12/12 11/11/11 19/19/19
f 20/20/20 6/6/6 4/4/4
f 21/21/21 20/20/20 4/4/4
f 6/6/6 20/20/20 22/22/22
f 11/11/11 6/6/6 22/22/22
f 23/23/23 21/21/21 4/4/4
f 23/23/23 4/4/4 1/1/1
f 24/24/24 23/23/23 1/1/1
f 25/25/25 24/24/24 1/1/1
f 26/26/26 11/11/11 22/22/22
f 26/26/26 27/27/27 11/11/11
f 27/27/27 28/28/28 11/11/11
f 11/11/11 28/28/28 29/29/29
f 19/19/19 11/11/11 29/29/29
f 30/30/30 19/19/19 29/29/29
f 19/19/19 30/30/30 18/18/18
f 30/30/30 31/31/31 18/18/18
f 31/31/31 32/32/32 18/18/18
f 32/32/32 33/33/33 18/18/18
f 18/18/18 33/33/33 34/34/34
f 33/33/33 35/35/35 34/34/34
f 36/36/36 18/18/18 34/34/34
f 37/37/37 18/18/18 36/36/36
f 38/38/38 37/37/37 36/36/36
f 39/39/39 37/37/37 38/38/38
f 40/40/40 39/39/39 38/38/38
f 43/43/43 42/42/42 41/41/41
f 44/44/44 43/43/43 41/41/41
f 45/45/45 43/43/43 44/44/44
f 46/46/46 45/45/45 44/44/44
f 47/47/47 45/45/45 46/46/46
f 48/48/48 47/47/47 46/46/46
f 49/49/49 47/47/47 48/48/48
f 50/50/50 49/49/49 48/48/48
f 53/53/53 52/52/52 51/51/51
f 54/54/54 53/53/53 51/51/51
f 55/55/55 53/53/53 54/54/54
f 56/56/56 55/55/55 54/54/54
f 57/57/57 55/55/55 56/56/56
f 58/58/58 57/57/57 56/56/56
f 59/59/59 57/57/57 58/58/58
f 60/60/60 59/59/59 58/58/58
f 63/63/63 62/62/62 61/61/61
f 64/64/64 63/63/63 61/61/61
f 63/63/63 64/64/64 65/65/65
f 66/66/66 63/63/63 65/65/65
