g SB-PineapplePanel_23
v 1.281322 1.757186 5.725016
v 1.540537 1.756573 5.465389
v 1.588998 1.530849 5.72999
v 1.335565 1.531314 6.030494
v 0.9907713 1.707053 6.017821
v 1.591293 1.264324 6.022398
v 1.045789 1.479329 6.274717
v 0.7182065 1.606714 6.258815
v 1.335564 1.264845 6.274717
v 1.532703 1.008629 6.267856
v 0.7728268 1.377356 6.518942
v 0.4813836 1.465106 6.493701
v 0.5376897 1.211609 6.668872
v 1.045789 1.21286 6.518942
v 1.277924 1.003496 6.518942
v 1.429908 0.7640002 6.494197
v 1.143596 0.7642717 6.669102
v 0.7728265 1.110887 6.700417
v 0.5305753 0.9413259 6.850443
v 0.9881487 0.9515105 6.700417
v 0.8507631 0.707987 6.851494
v 0.7151863 0.8495374 6.881891
v 0.5744936 0.6058468 6.965379
v 0.4750002 0.6774762 6.965379
v 0.5744936 0.6058468 6.965379
v 0.579617 0.5786204 6.965379
v 0.8507631 0.707987 6.851494
v 0.8525796 0.6805934 6.844008
v 1.143596 0.7642717 6.669102
v 1.142355 0.7325786 6.662533
v 1.429908 0.7640002 6.494197
v 1.437807 0.7325782 6.481059
v 0.5046625 0.938113 6.844008
v 0.4470223 0.6767637 6.965379
v 0.5305753 0.9413259 6.850443
v 0.5046627 1.204582 6.662533
v 0.5376897 1.211609 6.668872
v 0.447023 1.465932 6.481059
v 0.4813836 1.465106 6.493701
v 1.437807 0.7325782 6.481059
v 1.429908 0.7640002 6.494197
v 1.532703 1.008629 6.267856
v 1.550872 0.9787639 6.236835
v 1.591293 1.264324 6.022398
v 1.608512 1.240113 5.992611
v 1.588998 1.530849 5.72999
v 1.608513 1.506582 5.695024
v 1.540537 1.756573 5.465389
v 1.550873 1.767932 5.397436
v 1.550873 1.767932 5.397436
v 1.540537 1.756573 5.465389
v 1.281322 1.757186 5.725016
v 1.255421 1.767932 5.695024
v 0.9907713 1.707053 6.017821
v 0.9656455 1.715947 5.992611
v 0.7182065 1.606714 6.258815
v 0.6926829 1.613974 6.236835
v 0.4813836 1.465106 6.493701
v 0.447023 1.465932 6.481059
vt 0.711229 0.6362829
vt 0.7130563 0.6093664
vt 0.6886644 0.6177553
vt 0.6843668 0.6469573
vt 0.7051501 0.6672595
vt 0.6618216 0.6308975
vt 0.680205 0.6750577
vt 0.6976747 0.6949938
vt 0.6598131 0.6577156
vt 0.6389071 0.6454697
vt 0.6723902 0.7020288
vt 0.6863322 0.719479
vt 0.6634441 0.7246985
vt 0.6556758 0.6856301
vt 0.6372893 0.671962
vt 0.6191468 0.6620448
vt 0.6193271 0.6870139
vt 0.6500371 0.710458
vt 0.6401077 0.7333434
vt 0.6347783 0.6974188
vt 0.6171792 0.7135563
vt 0.629141 0.7222559
vt 0.6126971 0.7374291
vt 0.619979 0.7438242
vt 0.6126971 0.7374291
vt 0.6105579 0.7373747
vt 0.6171792 0.7135563
vt 0.6150094 0.7134044
vt 0.6193271 0.6870139
vt 0.6168303 0.6869323
vt 0.6191468 0.6620448
vt 0.616758 0.6608471
vt 0.6407664 0.7353007
vt 0.6205452 0.7459247
vt 0.6401077 0.7333434
vt 0.6642334 0.7272341
vt 0.6634441 0.7246985
vt 0.6881005 0.721666
vt 0.6863322 0.719479
vt 0.616758 0.6608471
vt 0.6191468 0.6620448
vt 0.6389071 0.6454697
vt 0.6370052 0.6423983
vt 0.6618216 0.6308975
vt 0.6606525 0.6279028
vt 0.6886644 0.6177553
vt 0.6879378 0.6142633
vt 0.7130563 0.6093664
vt 0.7164164 0.6051591
vt 0.7164164 0.6051591
vt 0.7130563 0.6093664
vt 0.711229 0.6362829
vt 0.7143609 0.6364127
vt 0.7051501 0.6672595
vt 0.7079157 0.6678404
vt 0.6976747 0.6949938
vt 0.7001343 0.6959757
vt 0.6863322 0.719479
vt 0.6881005 0.721666
vn 0.4691427 0.7305906 0.4961275
vn 0.5173938 0.7137022 0.4721576
vn 0.5484201 0.6689073 0.5017952
vn 0.4913202 0.6669347 0.5601808
vn 0.3328792 0.7564738 0.5629731
vn 0.6127034 0.533937 0.5826713
vn 0.3590545 0.6835755 0.6354561
vn 0.2278886 0.7320032 0.6420578
vn 0.5399932 0.5366997 0.6483524
vn 0.6149228 0.417842 0.6687885
vn 0.2363235 0.6466212 0.7252809
vn 0.1426861 0.6806149 0.7186126
vn 0.1322136 0.5938935 0.7936057
vn 0.4046543 0.5457714 0.7337497
vn 0.5363169 0.3930187 0.7469273
vn 0.5891762 0.2962194 0.7517482
vn 0.5092666 0.2674928 0.8179824
vn 0.2448955 0.5278649 0.8132557
vn 0.09716243 0.4953551 0.8632397
vn 0.4255769 0.3742995 0.8238836
vn 0.4231348 0.2112224 0.8811028
vn 0.2629456 0.3551598 0.8970625
vn 0.4063166 0.1975946 0.8921117
vn 0.006982788 0.3785241 0.9255651
vn 0.3068363 0.06954127 0.9492183
vn 0.4150802 -0.0715639 0.9069659
vn 0.4852754 -0.1334132 0.8641231
vn 0.4803683 -0.128985 0.8675305
vn 0.5281735 -0.1978585 0.8257631
vn 0.5282274 -0.1978307 0.8257353
vn 0.5110227 -0.2066111 0.8343667
vn 0.5110227 -0.2066111 0.8343667
vn -0.2002363 0.4863086 0.8505347
vn -0.137892 0.4309613 0.8917725
vn -0.2074182 0.4925102 0.8452286
vn -0.271936 0.5235862 0.8074085
vn -0.2718311 0.5239813 0.8071874
vn -0.2767538 0.5050588 0.8175101
vn -0.2767538 0.5050588 0.8175101
vn 0.8879318 0.04806994 0.4574565
vn 0.8879318 0.04806994 0.4574565
vn 0.8997692 0.101914 0.424298
vn 0.9009005 0.1081277 0.420341
vn 0.9118938 0.2316554 0.3387999
vn 0.9117916 0.2449514 0.3295978
vn 0.8982593 0.3639612 0.2462977
vn 0.8952277 0.3773196 0.2370602
vn 0.8819214 0.4257308 0.2024053
vn 0.8819214 0.4257308 0.2024053
vn 0.1893675 0.9638502 0.1874376
vn 0.1893675 0.9638502 0.1874376
vn 0.1383364 0.9645909 0.2245609
vn 0.1440097 0.9646979 0.2204974
vn 0.02946215 0.9511962 0.3071771
vn 0.03148605 0.9516414 0.3055931
vn -0.07610941 0.9187521 0.38743
vn -0.07771937 0.9181138 0.3886216
vn -0.1218817 0.8989594 0.4207337
vn -0.1218817 0.8989594 0.4207337
g SB-PineapplePanel_23_0
f 3/3/3 2/2/2 1/1/1
f 4/4/4 3/3/3 1/1/1
f 1/1/1 5/5/5 4/4/4
f 6/6/6 3/3/3 4/4/4
f 5/5/5 7/7/7 4/4/4
f 7/7/7 5/5/5 8/8/8
f 9/9/9 6/6/6 4/4/4
f 9/9/9 4/4/4 7/7/7
f 10/10/10 6/6/6 9/9/9
f 11/11/11 7/7/7 8/8/8
f 11/11/11 8/8/8 12/12/12
f 13/13/13 11/11/11 12/12/12
f 14/14/14 9/9/9 7/7/7
f 7/7/7 11/11/11 14/14/14
f 15/15/15 10/10/10 9/9/9
f 15/15/15 9/9/9 14/14/14
f 10/10/10 15/15/15 16/16/16
f 15/15/15 17/17/17 16/16/16
f 18/18/18 11/11/11 13/13/13
f 11/11/11 18/18/18 14/14/14
f 19/19/19 18/18/18 13/13/13
f 17/17/17 15/15/15 20/20/20
f 20/20/20 15/15/15 14/14/14
f 20/20/20 14/14/14 18/18/18
f 21/21/21 17/17/17 20/20/20
f 18/18/18 19/19/19 22/22/22
f 22/22/22 20/20/20 18/18/18
f 21/21/21 20/20/20 22/22/22
f 23/23/23 21/21/21 22/22/22
f 19/19/19 24/24/24 22/22/22
f 22/22/22 24/24/24 25/25/25
f 27/27/27 25/25/25 26/26/26
f 28/28/28 27/27/27 26/26/26
f 29/29/29 27/27/27 28/28/28
f 30/30/30 29/29/29 28/28/28
f 31/31/31 29/29/29 30/30/30
f 32/32/32 31/31/31 30/30/30
f 34/34/34 24/24/24 33/33/33
f 24/24/24 35/35/35 33/33/33
f 33/33/33 35/35/35 36/36/36
f 35/35/35 37/37/37 36/36/36
f 36/36/36 37/37/37 38/38/38
f 37/37/37 39/39/39 38/38/38
f 42/42/42 41/41/41 40/40/40
f 43/43/43 42/42/42 40/40/40
f 44/44/44 42/42/42 43/43/43
f 45/45/45 44/44/44 43/43/43
f 46/46/46 44/44/44 45/45/45
f 47/47/47 46/46/46 45/45/45
f 48/48/48 46/46/46 47/47/47
f 49/49/49 48/48/48 47/47/47
f 52/52/52 51/51/51 50/50/50
f 53/53/53 52/52/52 50/50/50
f 54/54/54 52/52/52 53/53/53
f 55/55/55 54/54/54 53/53/53
f 56/56/56 54/54/54 55/55/55
f 57/57/57 56/56/56 55/55/55
f 58/58/58 56/56/56 57/57/57
f 59/59/59 58/58/58 57/57/57
