g SB-PineapplePanel_25
v -0.08076946 2.121041 5.740619
v -0.4764225 2.092087 5.719281
v -0.2881374 2.262252 5.449989
v -0.2556924 1.968981 6.030494
v 0.128764 1.932543 6.032838
v -0.6350152 1.873661 6.019992
v -0.04651034 1.780854 6.274717
v 0.290628 1.71475 6.276283
v -0.4195241 1.747189 6.274717
v -0.7493112 1.628614 6.260254
v 0.1179466 1.559525 6.518942
v 0.4281297 1.479108 6.48775
v 0.198878 1.307783 6.66118
v -0.210342 1.559061 6.518942
v -0.5322412 1.500844 6.518942
v -0.808906 1.374958 6.492705
v -0.5657458 1.237199 6.669739
v -0.04588502 1.337732 6.700417
v 0.03622976 1.077718 6.842877
v -0.3230592 1.312716 6.700417
v -0.3545274 1.046028 6.853096
v -0.1586022 1.091387 6.881891
v -0.09106737 0.8369595 6.965379
v -0.1835269 0.81968 6.965379
v -0.09106737 0.8369595 6.965379
v -0.06834127 0.816285 6.965379
v 0.03622976 1.077718 6.842877
v 0.04641652 1.06602 6.837933
v 0.198878 1.307783 6.66118
v 0.212631 1.290441 6.654304
v 0.4281297 1.479108 6.48775
v 0.4470231 1.465932 6.481059
v 0.4470231 1.465932 6.481059
v 0.4281297 1.479108 6.48775
v 0.290628 1.71475 6.276283
v 0.3058197 1.706786 6.24654
v 0.128764 1.932543 6.032838
v 0.1430173 1.926141 6.00401
v -0.08076946 2.121041 5.740619
v -0.06450588 2.11285 5.708016
v -0.2881374 2.262252 5.449989
v -0.2847613 2.270144 5.397436
v -0.2847613 2.270144 5.397436
v -0.2881374 2.262252 5.449989
v -0.4764225 2.092087 5.719281
v -0.4980387 2.084843 5.695024
v -0.6350152 1.873661 6.019992
v -0.6618704 1.86305 5.992611
v -0.7493112 1.628614 6.260254
v -0.7745876 1.616704 6.236835
v -0.808906 1.374958 6.492705
v -0.8285277 1.343706 6.487134
v -0.8285277 1.343706 6.487134
v -0.808906 1.374958 6.492705
v -0.5657458 1.237199 6.669739
v -0.5828683 1.204583 6.662533
v -0.3545274 1.046028 6.853096
v -0.3739522 1.016161 6.844008
v -0.1835269 0.81968 6.965379
v -0.2098079 0.7945995 6.965379
vt 0.1726832 0.0888133
vt 0.1565402 0.06629029
vt 0.1473591 0.08903401
vt 0.1840371 0.06621304
vt 0.2002918 0.08670069
vt 0.1714478 0.04265344
vt 0.2090863 0.06579801
vt 0.2248385 0.08292541
vt 0.195789 0.04434607
vt 0.1861272 0.022374
vt 0.233415 0.06202273
vt 0.2473471 0.07805871
vt 0.2531099 0.05604404
vt 0.2208204 0.04408273
vt 0.2104867 0.02482916
vt 0.203018 0.006187771
vt 0.2251623 0.009871225
vt 0.2430473 0.04194132
vt 0.2629307 0.03482794
vt 0.2330761 0.02575632
vt 0.2486818 0.01145449
vt 0.2552974 0.02359341
vt 0.2731745 0.01639619
vt 0.2701526 0.0103063
vt 0.2731745 0.01639619
vt 0.2752676 0.01698729
vt 0.2629307 0.03482794
vt 0.2639972 0.03523282
vt 0.2531099 0.05604404
vt 0.2546077 0.05668231
vt 0.2473471 0.07805871
vt 0.2485806 0.07919386
vt 0.2485806 0.07919386
vt 0.2473471 0.07805871
vt 0.2248385 0.08292541
vt 0.2247514 0.08531035
vt 0.2002918 0.08670069
vt 0.1998688 0.08891796
vt 0.1726832 0.0888133
vt 0.171955 0.09127202
vt 0.1473591 0.08903401
vt 0.1443069 0.09127206
vt 0.1443069 0.09127206
vt 0.1473591 0.08903401
vt 0.1565402 0.06629029
vt 0.154355 0.06552393
vt 0.1714478 0.04265344
vt 0.1690244 0.04129608
vt 0.1861272 0.022374
vt 0.1841428 0.0207398
vt 0.203018 0.006187771
vt 0.2028669 0.003599757
vt 0.2028669 0.003599757
vt 0.203018 0.006187771
vt 0.2251623 0.009871225
vt 0.2255031 0.007237618
vt 0.2486818 0.01145449
vt 0.2489754 0.008899446
vt 0.2701526 0.0103063
vt 0.2703052 0.007735006
vn -0.0342607 0.8758881 0.4812963
vn -0.1337065 0.8666651 0.4806395
vn -0.08934516 0.8869748 0.4530928
vn -0.07507177 0.8367251 0.5424532
vn 0.1014795 0.8243282 0.5569424
vn -0.2442846 0.7930153 0.5580787
vn 0.04220999 0.7786923 0.6259845
vn 0.1794727 0.7406154 0.647517
vn -0.1812083 0.7566179 0.6282461
vn -0.3072627 0.6983402 0.6464601
vn 0.1368743 0.6727409 0.7271073
vn 0.2390523 0.6382187 0.7317998
vn 0.2105781 0.5608159 0.8007136
vn -0.06241136 0.6903773 0.7207525
vn -0.2486724 0.6425543 0.7247662
vn -0.3410518 0.598458 0.7249357
vn -0.2856095 0.5333043 0.7962497
vn 0.07490642 0.5804911 0.8108138
vn 0.2037843 0.463322 0.8624411
vn -0.1614514 0.565865 0.8085359
vn -0.2341828 0.4345475 0.8696705
vn -0.01770944 0.456342 0.8896282
vn 0.2058032 0.4430943 0.8725322
vn -0.1153169 0.3391573 0.933635
vn 0.1911681 0.2840764 0.9395506
vn 0.3879165 0.2592809 0.884474
vn 0.5087278 0.2207835 0.8321362
vn 0.4932114 0.2261436 0.8400009
vn 0.5594409 0.1761475 0.8099371
vn 0.555607 0.1754752 0.8127173
vn 0.5073377 0.1668634 0.8454377
vn 0.5073377 0.1668634 0.8454377
vn 0.6992643 0.6618537 0.2701464
vn 0.6992643 0.6618537 0.2701464
vn 0.6956309 0.6809134 0.2290296
vn 0.6940477 0.687148 0.2147681
vn 0.6487843 0.7472273 0.14398
vn 0.628669 0.7667978 0.1296011
vn 0.5392972 0.8359804 0.1014658
vn 0.5142339 0.8514914 0.1025957
vn 0.4663191 0.8784269 0.1044637
vn 0.4663191 0.8784269 0.1044637
vn -0.5422962 0.8291451 0.1357697
vn -0.5422962 0.8291451 0.1357697
vn -0.5584193 0.803412 0.2066327
vn -0.5561833 0.8076298 0.1959443
vn -0.6133586 0.721139 0.3221022
vn -0.6092405 0.7270329 0.3166215
vn -0.7062527 0.5951383 0.3834286
vn -0.7037268 0.5984545 0.3829109
vn -0.756417 0.52306 0.3927361
vn -0.756417 0.52306 0.3927361
vn -0.5276461 0.1358085 0.8385379
vn -0.5276461 0.1358085 0.8385379
vn -0.5541468 0.1329833 0.8217279
vn -0.5545834 0.1329351 0.8214412
vn -0.4962774 0.1527563 0.8546194
vn -0.4836198 0.1559349 0.8612759
vn -0.3924488 0.1771711 0.9025488
vn -0.3924488 0.1771711 0.9025488
g SB-PineapplePanel_25_0
f 3/3/3 2/2/2 1/1/1
f 2/2/2 4/4/4 1/1/1
f 1/1/1 4/4/4 5/5/5
f 4/4/4 2/2/2 6/6/6
f 4/4/4 7/7/7 5/5/5
f 5/5/5 7/7/7 8/8/8
f 9/9/9 4/4/4 6/6/6
f 4/4/4 9/9/9 7/7/7
f 6/6/6 10/10/10 9/9/9
f 7/7/7 11/11/11 8/8/8
f 12/12/12 8/8/8 11/11/11
f 13/13/13 12/12/12 11/11/11
f 9/9/9 14/14/14 7/7/7
f 7/7/7 14/14/14 11/11/11
f 10/10/10 15/15/15 9/9/9
f 14/14/14 9/9/9 15/15/15
f 10/10/10 16/16/16 15/15/15
f 16/16/16 17/17/17 15/15/15
f 11/11/11 18/18/18 13/13/13
f 14/14/14 18/18/18 11/11/11
f 18/18/18 19/19/19 13/13/13
f 15/15/15 17/17/17 20/20/20
f 20/20/20 14/14/14 15/15/15
f 14/14/14 20/20/20 18/18/18
f 17/17/17 21/21/21 20/20/20
f 18/18/18 22/22/22 19/19/19
f 20/20/20 22/22/22 18/18/18
f 22/22/22 20/20/20 21/21/21
f 22/22/22 23/23/23 19/19/19
f 24/24/24 22/22/22 21/21/21
f 22/22/22 24/24/24 25/25/25
f 27/27/27 25/25/25 26/26/26
f 28/28/28 27/27/27 26/26/26
f 29/29/29 27/27/27 28/28/28
f 30/30/30 29/29/29 28/28/28
f 31/31/31 29/29/29 30/30/30
f 32/32/32 31/31/31 30/30/30
f 35/35/35 34/34/34 33/33/33
f 36/36/36 35/35/35 33/33/33
f 37/37/37 35/35/35 36/36/36
f 38/38/38 37/37/37 36/36/36
f 39/39/39 37/37/37 38/38/38
f 40/40/40 39/39/39 38/38/38
f 41/41/41 39/39/39 40/40/40
f 42/42/42 41/41/41 40/40/40
f 45/45/45 44/44/44 43/43/43
f 46/46/46 45/45/45 43/43/43
f 47/47/47 45/45/45 46/46/46
f 48/48/48 47/47/47 46/46/46
f 49/49/49 47/47/47 48/48/48
f 50/50/50 49/49/49 48/48/48
f 51/51/51 49/49/49 50/50/50
f 52/52/52 51/51/51 50/50/50
f 55/55/55 54/54/54 53/53/53
f 56/56/56 55/55/55 53/53/53
f 57/57/57 55/55/55 56/56/56
f 58/58/58 57/57/57 56/56/56
f 59/59/59 57/57/57 58/58/58
f 60/60/60 59/59/59 58/58/58
