g SB-PineapplePanelBottom_4
v 2.487892 1.064639 0.7643853
v 2.427567 1.278132 1.035919
v 2.270476 1.428635 0.7957639
v 2.338706 1.215613 0.4897227
v 2.493691 0.7978363 0.448203
v 2.132179 1.388852 0.2227101
v 2.03484 1.592919 0.4783639
v 1.799464 1.730734 0.206881
v 2.369328 0.9571276 0.2226939
v 2.472907 0.5349926 0.1855858
v 1.857872 1.50201 -5.413282E-07
v 1.557039 1.786843 -5.539648E-07
v 2.126562 1.110337 -5.240419E-07
v 2.311772 0.6750414 -5.049012E-07
v 2.417661 0.3262612 -0.003962967
v 2.427567 1.278132 1.035919
v 2.429207 1.284004 1.113079
v 2.236024 1.448423 0.8304986
v 2.270476 1.428635 0.7957639
v 2.002966 1.611074 0.5104551
v 2.03484 1.592919 0.4783639
v 1.766597 1.743515 0.2435331
v 1.799464 1.730734 0.206881
v 1.506788 1.824007 -5.556204E-07
v 1.557039 1.786843 -5.539648E-07
v 2.488124 1.030569 0.7997963
v 2.429207 1.284004 1.113079
v 2.427567 1.278132 1.035919
v 2.487892 1.064639 0.7643853
v 2.489309 0.7658611 0.4809277
v 2.493691 0.7978363 0.448203
v 2.467669 0.5066273 0.214999
v 2.472907 0.5349926 0.1855858
v 2.417661 0.3262612 -0.003962967
v 2.389759 0.2542369 -0.01335938
vt 0.5305024 0.4388273
vt 0.5067863 0.43857
vt 0.5112019 0.4601372
vt 0.5367984 0.461348
vt 0.5584497 0.4402417
vt 0.5413541 0.4864614
vt 0.5183275 0.4884426
vt 0.5245627 0.5135599
vt 0.5619171 0.4605016
vt 0.5837959 0.4406591
vt 0.5457509 0.5113629
vt 0.529567 0.5348681
vt 0.5656707 0.4851162
vt 0.5868742 0.459909
vt 0.6035825 0.4407496
vt 0.5067863 0.43857
vt 0.5024295 0.4354984
vt 0.5076733 0.4609723
vt 0.5112019 0.4601372
vt 0.5151177 0.4893923
vt 0.5183275 0.4884426
vt 0.5212439 0.5144463
vt 0.5245627 0.5135599
vt 0.5273763 0.5385118
vt 0.529567 0.5348681
vt 0.5302024 0.4354973
vt 0.5024295 0.4354984
vt 0.5067863 0.43857
vt 0.5305024 0.4388273
vt 0.5583913 0.4370963
vt 0.5584497 0.4402417
vt 0.5838869 0.4378224
vt 0.5837959 0.4406591
vt 0.6035825 0.4407496
vt 0.6080229 0.4377144
vn 0.8622351 0.4539169 -0.2247443
vn 0.8345895 0.5152944 -0.1947615
vn 0.8060362 0.5540975 -0.2080421
vn 0.8292256 0.482517 -0.2820676
vn 0.8882865 0.3128345 -0.3362764
vn 0.7342272 0.5416561 -0.409291
vn 0.7250072 0.6235905 -0.2924027
vn 0.6365533 0.6326766 -0.4410444
vn 0.8336096 0.3430969 -0.4328738
vn 0.8481606 0.2526002 -0.465636
vn 0.6539769 0.5919335 -0.4710934
vn 0.5872838 0.6202751 -0.5199581
vn 0.7477716 0.4111023 -0.5213756
vn 0.8250585 0.2702636 -0.4962218
vn 0.8169918 0.2539196 -0.5177347
vn 0.6534324 0.7567692 0.01806177
vn 0.6534324 0.7567692 0.01806177
vn 0.5931787 0.8044499 0.03161506
vn 0.5937439 0.8040376 0.03149245
vn 0.4961998 0.8672165 0.04148707
vn 0.4979169 0.8662235 0.04166078
vn 0.4511101 0.8879136 -0.0900507
vn 0.4514335 0.888005 -0.08749156
vn 0.431437 0.8760541 -0.2153866
vn 0.431437 0.8760541 -0.2153866
vn 0.9945387 0.09834211 0.03494991
vn 0.9779986 0.2056129 0.0352433
vn 0.9779986 0.2056129 0.0352433
vn 0.996138 0.08058302 0.03486222
vn 0.9967777 -0.07168226 0.03599901
vn 0.9965313 -0.07496303 0.03613833
vn 0.9759113 -0.2150193 0.03693182
vn 0.9764311 -0.2126412 0.03696227
vn 0.9510853 -0.3068739 0.03557165
vn 0.9510853 -0.3068739 0.03557165
g SB-PineapplePanelBottom_4_0
f 3/3/3 2/2/2 1/1/1
f 4/4/4 3/3/3 1/1/1
f 1/1/1 5/5/5 4/4/4
f 4/4/4 6/6/6 3/3/3
f 6/6/6 7/7/7 3/3/3
f 8/8/8 7/7/7 6/6/6
f 5/5/5 9/9/9 4/4/4
f 6/6/6 4/4/4 9/9/9
f 9/9/9 5/5/5 10/10/10
f 11/11/11 8/8/8 6/6/6
f 12/12/12 8/8/8 11/11/11
f 13/13/13 11/11/11 6/6/6
f 13/13/13 6/6/6 9/9/9
f 13/13/13 9/9/9 14/14/14
f 14/14/14 9/9/9 10/10/10
f 14/14/14 10/10/10 15/15/15
f 18/18/18 17/17/17 16/16/16
f 19/19/19 18/18/18 16/16/16
f 20/20/20 18/18/18 19/19/19
f 21/21/21 20/20/20 19/19/19
f 22/22/22 20/20/20 21/21/21
f 23/23/23 22/22/22 21/21/21
f 24/24/24 22/22/22 23/23/23
f 25/25/25 24/24/24 23/23/23
f 28/28/28 27/27/27 26/26/26
f 29/29/29 28/28/28 26/26/26
f 29/29/29 26/26/26 30/30/30
f 31/31/31 29/29/29 30/30/30
f 31/31/31 30/30/30 32/32/32
f 33/33/33 31/31/31 32/32/32
f 33/33/33 32/32/32 34/34/34
f 32/32/32 35/35/35 34/34/34
