g SB-PineapplePanelBottom_0
v -2.567446 -1.022238 0.7720609
v -2.513819 -1.248807 1.058094
v -2.339466 -1.432294 0.7741879
v -2.41624 -1.214762 0.4601706
v -2.569263 -0.7522001 0.4576785
v -2.110779 -1.592727 0.4519193
v -2.446555 -0.9571645 0.1940939
v -2.548545 -0.4927047 0.1933511
v -2.210601 -1.387541 0.1941101
v -1.882197 -1.722214 0.1803968
v -2.463511 -0.7068731 -0.0007852945
v -2.455582 -0.2991413 0.006246224
v -2.275044 -1.146512 2.893386E-05
v -2.004729 -1.54119 3.078207E-05
v -1.638326 -1.801762 0.003403856
v -2.54627 -0.466607 0.2149933
v -2.455582 -0.2991413 0.006246224
v -2.43383 -0.2296373 -0.006087457
v -2.548545 -0.4927047 0.1933511
v -2.567963 -0.7258747 0.4809296
v -2.569263 -0.7522001 0.4576785
v -2.566733 -0.9905953 0.7997977
v -2.567446 -1.022238 0.7720609
v -2.507771 -1.244046 1.113079
v -2.513819 -1.248807 1.058094
v -1.58779 -1.821747 -0.005899427
v -1.638326 -1.801762 0.003403856
v -1.882197 -1.722214 0.1803968
v -1.846598 -1.741338 0.2149756
v -2.110779 -1.592727 0.4519193
v -2.082002 -1.609187 0.4809445
v -2.339466 -1.432294 0.7741879
v -2.31406 -1.446945 0.7998453
v -2.513819 -1.248807 1.058094
v -2.507771 -1.244046 1.113079
vt 0.04666718 0.7223324
vt 0.02145825 0.7116
vt 0.01498665 0.7391275
vt 0.04163123 0.7519543
vt 0.07525108 0.7362807
vt 0.01022128 0.7715781
vt 0.06746814 0.7621623
vt 0.1004896 0.7488446
vt 0.03523627 0.7795509
vt 0.006469048 0.8002011
vt 0.08956443 0.7678072
vt 0.1182994 0.7614902
vt 0.0580182 0.7836079
vt 0.02727387 0.8015905
vt 0.00291319 0.8238352
vt 0.1019959 0.7467448
vt 0.1182994 0.7614902
vt 0.1239624 0.7617664
vt 0.1004896 0.7488446
vt 0.07650946 0.7338568
vt 0.07525108 0.7362807
vt 0.04791585 0.7193434
vt 0.04666718 0.7223324
vt 0.01949593 0.7077352
vt 0.02145825 0.7116
vt 0.0005 0.8273739
vt 0.00291319 0.8238352
vt 0.006469048 0.8002011
vt 0.002403737 0.8001646
vt 0.01022128 0.7715781
vt 0.006812705 0.7711802
vt 0.01498665 0.7391275
vt 0.01204254 0.7385343
vt 0.02145825 0.7116
vt 0.01949593 0.7077352
vn -0.8912389 -0.4101738 -0.1935218
vn -0.8612304 -0.479692 -0.1678625
vn -0.8231204 -0.5356632 -0.1885149
vn -0.8520475 -0.4671466 -0.2361972
vn -0.9361038 -0.2632137 -0.2332984
vn -0.7339584 -0.6399875 -0.2274228
vn -0.8921573 -0.3369346 -0.3008827
vn -0.9375158 -0.09328476 -0.3352047
vn -0.7672752 -0.5676296 -0.2984717
vn -0.6142492 -0.7199084 -0.3231562
vn -0.927457 -0.1902839 -0.3218938
vn -0.9053076 0.02491716 -0.4240252
vn -0.8192325 -0.4502794 -0.3551148
vn -0.6785096 -0.6645921 -0.312957
vn -0.5304255 -0.7509513 -0.3933458
vn -0.9782019 0.1738161 -0.1136179
vn -0.9445705 0.2572516 -0.2039808
vn -0.9445705 0.2572516 -0.2039808
vn -0.9819094 0.1609335 -0.09977131
vn -0.9989212 0.04603382 0.006108844
vn -0.9989451 0.04547703 0.006371958
vn -0.9969354 -0.03475 0.07008842
vn -0.9971498 -0.03261926 0.06803235
vn -0.9893903 -0.08460576 0.1181047
vn -0.9893903 -0.08460576 0.1181047
vn -0.3825678 -0.9167704 -0.1147778
vn -0.3825678 -0.9167704 -0.1147778
vn -0.4418411 -0.8957528 -0.04902318
vn -0.4322225 -0.8997685 -0.06000349
vn -0.5095684 -0.8600727 0.02479847
vn -0.5087313 -0.8605899 0.02403256
vn -0.567272 -0.8184578 0.09126547
vn -0.5675093 -0.8182582 0.09157927
vn -0.6016647 -0.786704 0.1381898
vn -0.6016647 -0.786704 0.1381898
g SB-PineapplePanelBottom_0_0
f 3/3/3 2/2/2 1/1/1
f 4/4/4 3/3/3 1/1/1
f 4/4/4 1/1/1 5/5/5
f 3/3/3 4/4/4 6/6/6
f 7/7/7 4/4/4 5/5/5
f 7/7/7 5/5/5 8/8/8
f 4/4/4 9/9/9 6/6/6
f 9/9/9 4/4/4 7/7/7
f 10/10/10 6/6/6 9/9/9
f 11/11/11 7/7/7 8/8/8
f 8/8/8 12/12/12 11/11/11
f 7/7/7 11/11/11 13/13/13
f 13/13/13 9/9/9 7/7/7
f 9/9/9 13/13/13 14/14/14
f 14/14/14 10/10/10 9/9/9
f 10/10/10 14/14/14 15/15/15
f 18/18/18 17/17/17 16/16/16
f 17/17/17 19/19/19 16/16/16
f 16/16/16 19/19/19 20/20/20
f 19/19/19 21/21/21 20/20/20
f 20/20/20 21/21/21 22/22/22
f 21/21/21 23/23/23 22/22/22
f 22/22/22 23/23/23 24/24/24
f 23/23/23 25/25/25 24/24/24
f 28/28/28 27/27/27 26/26/26
f 29/29/29 28/28/28 26/26/26
f 30/30/30 28/28/28 29/29/29
f 31/31/31 30/30/30 29/29/29
f 32/32/32 30/30/30 31/31/31
f 33/33/33 32/32/32 31/31/31
f 34/34/34 32/32/32 33/33/33
f 35/35/35 34/34/34 33/33/33
