g SB-PineapplePanel_31
v -0.80696 1.628613 6.233064
v -0.8516757 1.393041 6.451853
v -1.094503 1.487573 6.233395
v -1.067141 1.756603 6.015865
v -0.6941537 1.877178 5.987198
v -1.384859 1.546975 5.986698
v -0.9540761 2.002789 5.718277
v -0.5272474 2.099503 5.688625
v -1.356916 1.808588 5.718277
v -1.682837 1.544654 5.688141
v -0.7899318 2.22435 5.42069
v -0.3244161 2.279854 5.403857
v -0.5913675 2.377157 5.083089
v -1.079707 2.276335 5.081174
v -0.9095307 2.42815 4.716243
v -1.017969 2.388052 4.740335
v -1.08249 2.368121 4.739621
v -1.232694 2.323987 4.729278
v -1.243851 2.054774 5.42069
v -1.652368 1.808588 5.42069
v -1.96167 1.491333 5.404058
v -1.899699 1.750322 5.088899
v -1.539304 2.054774 5.081174
v -1.785135 1.996484 4.752838
v -1.375159 2.276335 4.741659
v -1.344877 2.300582 4.684935
v -1.427446 2.270159 4.63291
v -1.499858 2.246946 4.564586
v -1.499858 2.246946 4.564586
v -1.572563 2.22716 4.469925
v -1.613982 2.224113 4.385485
v -1.627924 2.200736 4.323495
v -1.62752 2.201091 4.322787
v -1.807207 1.965883 4.718405
v -1.899699 1.750322 5.088899
v -1.920272 1.719697 5.05792
v -1.96167 1.491333 5.404058
v -1.976493 1.4546 5.397436
v -1.682837 1.544654 5.688141
v -1.688136 1.510334 5.695024
v -1.384859 1.546975 5.986698
v -1.392684 1.510334 5.992611
v -1.094503 1.487573 6.233395
v -1.102909 1.458349 6.236835
v -0.8516757 1.393041 6.451853
v -0.8285275 1.343706 6.487134
v -0.80696 1.628613 6.233064
v -0.7745876 1.616705 6.236835
v -0.6941537 1.877178 5.987198
v -0.6618704 1.86305 5.992611
v -0.5272474 2.099503 5.688625
v -0.4980387 2.084843 5.695024
v -0.3244161 2.279854 5.403857
v -0.2847613 2.270144 5.397436
v -0.5913675 2.377157 5.083089
v -0.5577236 2.372118 5.05792
v -0.9095307 2.42815 4.716243
v -0.8618491 2.424104 4.700512
vt 0.6898538 0.7258005
vt 0.6695032 0.7335681
vt 0.6869872 0.748229
vt 0.7097999 0.7408783
vt 0.7125282 0.71408
vt 0.7062953 0.766767
vt 0.7346371 0.7296211
vt 0.7368371 0.6996316
vt 0.7310186 0.7596831
vt 0.726226 0.7880811
vt 0.7583656 0.7159649
vt 0.7588756 0.684689
vt 0.7827731 0.7009923
vt 0.7819484 0.7349874
vt 0.808597 0.7226186
vt 0.8063134 0.730409
vt 0.8060084 0.7350318
vt 0.8058813 0.7457332
vt 0.7557133 0.7484152
vt 0.7506408 0.7800165
vt 0.743826 0.8086591
vt 0.7703468 0.8004328
vt 0.7777935 0.7691843
vt 0.7978774 0.7891181
vt 0.8041607 0.7558063
vt 0.8083521 0.7536983
vt 0.8111621 0.7601112
vt 0.8148453 0.7652944
vt 0.8155581 0.7663528
vt 0.8210239 0.7716687
vt 0.8264865 0.7750136
vt 0.8284178 0.7785984
vt 0.8304113 0.7774283
vt 0.7995732 0.792233
vt 0.7703468 0.8004328
vt 0.7715657 0.8035685
vt 0.743826 0.8086591
vt 0.7430315 0.8113409
vt 0.726226 0.7880811
vt 0.7244545 0.7897812
vt 0.7062953 0.766767
vt 0.7043651 0.7685733
vt 0.6869872 0.748229
vt 0.6854514 0.7496912
vt 0.6695032 0.7335681
vt 0.6649792 0.7330228
vt 0.6898538 0.7258005
vt 0.688639 0.7237239
vt 0.7125282 0.71408
vt 0.711268 0.7119351
vt 0.7368371 0.6996316
vt 0.735687 0.6976248
vt 0.7588756 0.684689
vt 0.7588214 0.681806
vt 0.7827731 0.7009923
vt 0.784341 0.6985074
vt 0.808597 0.7226186
vt 0.8097826 0.7192755
vn -0.2771851 0.6894382 0.669211
vn -0.3160513 0.6459751 0.6948581
vn -0.3682525 0.6402239 0.6741686
vn -0.3434376 0.7092486 0.6156436
vn -0.1827392 0.7896569 0.5857033
vn -0.499167 0.623821 0.601398
vn -0.2654405 0.812502 0.5190202
vn -0.1283911 0.8608661 0.4923671
vn -0.4702716 0.7073825 0.527688
vn -0.5931195 0.6206622 0.5128233
vn -0.1940932 0.8843796 0.4245003
vn -0.09217608 0.9013947 0.4230734
vn -0.1556863 0.9238737 0.3495985
vn -0.3010313 0.8934788 0.3332805
vn -0.2336855 0.9307798 0.2811409
vn -0.2869518 0.9244681 0.2510327
vn -0.2885007 0.924082 0.2506785
vn -0.2880327 0.9245143 0.249621
vn -0.392774 0.8133705 0.4291353
vn -0.5724962 0.6912748 0.4408937
vn -0.6523338 0.6125817 0.4463231
vn -0.6252317 0.6869563 0.3703732
vn -0.5094081 0.7898266 0.341581
vn -0.7203238 0.6748336 0.1604159
vn -0.4185272 0.8713712 0.2560215
vn -0.3534125 0.9126428 0.2053841
vn -0.4321066 0.8879923 0.1573321
vn -0.5341176 0.8085866 0.2467918
vn -0.5341176 0.8085866 0.2467918
vn -0.545769 0.8017368 0.2436275
vn -0.7421736 0.6670237 0.06525094
vn -0.7648656 0.6409448 -0.06457815
vn -0.7383293 0.6689093 -0.08619879
vn -0.8358772 0.5482209 0.02762408
vn -0.8847701 0.4510301 0.1172756
vn -0.8836099 0.4537029 0.1157035
vn -0.8497702 0.3130018 0.4241703
vn -0.8504012 0.3136306 0.4224379
vn -0.7030733 0.2287548 0.6733196
vn -0.7037594 0.2278413 0.6729125
vn -0.6431298 0.2529322 0.722779
vn -0.6417721 0.2530047 0.7239594
vn -0.5908521 0.2608301 0.7634537
vn -0.5903566 0.2614364 0.7636296
vn -0.2101663 0.5099586 0.8341297
vn -0.2476373 0.4914382 0.8349637
vn 0.1744967 0.6515202 0.7382901
vn 0.1766112 0.6507351 0.7384797
vn 0.1869255 0.6918712 0.6974045
vn 0.1860812 0.6908039 0.6986872
vn 0.2340875 0.7245012 0.6483063
vn 0.2353605 0.724551 0.6477895
vn 0.2583087 0.8868806 0.3830398
vn 0.2585048 0.8845241 0.38832
vn 0.1793824 0.9817283 0.06349383
vn 0.1845937 0.9805539 0.06662837
vn 0.1268404 0.9914073 0.03198436
vn 0.1268404 0.9914073 0.03198436
g SB-PineapplePanel_31_0
f 3/3/3 2/2/2 1/1/1
f 4/4/4 3/3/3 1/1/1
f 4/4/4 1/1/1 5/5/5
f 3/3/3 4/4/4 6/6/6
f 7/7/7 4/4/4 5/5/5
f 7/7/7 5/5/5 8/8/8
f 4/4/4 9/9/9 6/6/6
f 9/9/9 4/4/4 7/7/7
f 10/10/10 6/6/6 9/9/9
f 11/11/11 7/7/7 8/8/8
f 8/8/8 12/12/12 11/11/11
f 12/12/12 13/13/13 11/11/11
f 14/14/14 11/11/11 13/13/13
f 15/15/15 14/14/14 13/13/13
f 16/16/16 14/14/14 15/15/15
f 16/16/16 17/17/17 14/14/14
f 17/17/17 18/18/18 14/14/14
f 19/19/19 7/7/7 11/11/11
f 19/19/19 9/9/9 7/7/7
f 14/14/14 19/19/19 11/11/11
f 20/20/20 10/10/10 9/9/9
f 9/9/9 19/19/19 20/20/20
f 21/21/21 10/10/10 20/20/20
f 22/22/22 21/21/21 20/20/20
f 19/19/19 23/23/23 20/20/20
f 22/22/22 20/20/20 23/23/23
f 23/23/23 19/19/19 14/14/14
f 24/24/24 22/22/22 23/23/23
f 14/14/14 18/18/18 25/25/25
f 25/25/25 23/23/23 14/14/14
f 23/23/23 25/25/25 24/24/24
f 18/18/18 26/26/26 25/25/25
f 27/27/27 25/25/25 26/26/26
f 28/28/28 25/25/25 27/27/27
f 25/25/25 29/29/29 24/24/24
f 24/24/24 29/29/29 30/30/30
f 24/24/24 30/30/30 31/31/31
f 24/24/24 31/31/31 32/32/32
f 33/33/33 32/32/32 31/31/31
f 34/34/34 24/24/24 32/32/32
f 35/35/35 24/24/24 34/34/34
f 36/36/36 35/35/35 34/34/34
f 37/37/37 35/35/35 36/36/36
f 38/38/38 37/37/37 36/36/36
f 39/39/39 37/37/37 38/38/38
f 40/40/40 39/39/39 38/38/38
f 41/41/41 39/39/39 40/40/40
f 42/42/42 41/41/41 40/40/40
f 43/43/43 41/41/41 42/42/42
f 44/44/44 43/43/43 42/42/42
f 45/45/45 43/43/43 44/44/44
f 46/46/46 45/45/45 44/44/44
f 47/47/47 45/45/45 46/46/46
f 48/48/48 47/47/47 46/46/46
f 49/49/49 47/47/47 48/48/48
f 50/50/50 49/49/49 48/48/48
f 51/51/51 49/49/49 50/50/50
f 52/52/52 51/51/51 50/50/50
f 53/53/53 51/51/51 52/52/52
f 54/54/54 53/53/53 52/52/52
f 55/55/55 53/53/53 54/54/54
f 56/56/56 55/55/55 54/54/54
f 57/57/57 55/55/55 56/56/56
f 58/58/58 57/57/57 56/56/56
