g SB-PineapplePanel_9
v 0.982498 -2.529804 1.565381
v 0.9888383 -2.5374 1.514159
v 0.7881097 -2.621696 1.778414
v 0.8089994 -2.602259 1.798061
v 0.4903449 -2.729311 2.10691
v 0.5226257 -2.70606 2.135063
v 1.170569 -2.374747 0.9870661
v 0.9832986 -2.454292 0.816555
v 1.156533 -2.405526 1.013957
v 1.007677 -2.418957 0.7998627
v 0.7277988 -2.437359 0.4809718
v 0.7041659 -2.469657 0.4974827
v 0.5641285 -2.428483 0.318827
v 0.5703782 -2.461622 0.3642472
v 0.7041659 -2.469657 0.4974827
v 0.5703782 -2.461622 0.3642472
v 0.5851615 -2.532295 0.5122566
v 0.5900869 -2.566891 0.6437092
v 0.9832986 -2.454292 0.816555
v 0.7786643 -2.597398 1.097758
v 0.6052781 -2.612636 0.9028345
v 0.6161042 -2.665383 1.32183
v 1.073085 -2.489756 1.148668
v 1.156533 -2.405526 1.013957
v 1.028654 -2.529406 1.26726
v 0.9888383 -2.5374 1.514159
v 0.9888383 -2.5374 1.514159
v 0.6241491 -2.685695 1.576041
v 0.7881097 -2.621696 1.778414
v 0.5997097 -2.697931 1.811188
v 0.4903449 -2.729311 2.10691
vt 0.7761726 0.4365465
vt 0.7761776 0.4326129
vt 0.7604586 0.4530327
vt 0.7626024 0.4545161
vt 0.7376369 0.4786933
vt 0.7406757 0.4807614
vt 0.7921632 0.3910278
vt 0.775917 0.3796622
vt 0.7901965 0.3935954
vt 0.7787697 0.3777438
vt 0.758003 0.3537528
vt 0.7553455 0.3556319
vt 0.7466685 0.3406207
vt 0.746115 0.344841
vt 0.7553455 0.3556319
vt 0.746115 0.344841
vt 0.7453095 0.3572439
vt 0.7450014 0.3675196
vt 0.775917 0.3796622
vt 0.7587584 0.4018477
vt 0.7455947 0.387318
vt 0.7460366 0.4190671
vt 0.7824576 0.4046888
vt 0.7901965 0.3935954
vt 0.7786382 0.4139298
vt 0.7761776 0.4326129
vt 0.7761776 0.4326129
vt 0.7466872 0.4382829
vt 0.7604586 0.4530327
vt 0.7452772 0.4560716
vt 0.7376369 0.4786933
vn 0.5780094 -0.7948871 0.1845527
vn 0.5780094 -0.7948871 0.1845527
vn 0.5432016 -0.8193681 0.1832153
vn 0.5464264 -0.8171906 0.1833514
vn 0.5110962 -0.8400921 0.1817309
vn 0.5110962 -0.8400921 0.1817309
vn 0.6459746 -0.6447435 -0.408684
vn 0.613974 -0.649547 -0.4484693
vn 0.6459746 -0.6447435 -0.408684
vn 0.6200173 -0.648787 -0.4411962
vn 0.5521223 -0.6560737 -0.5145174
vn 0.5475052 -0.656462 -0.518937
vn 0.5110733 -0.6585538 -0.5523684
vn 0.5110733 -0.6585538 -0.5523684
vn 0.385035 -0.8735887 -0.2976419
vn 0.402625 -0.8468791 -0.3474033
vn 0.402625 -0.8468791 -0.3474033
vn 0.3636145 -0.8957345 -0.2558207
vn 0.3823423 -0.8968111 -0.222585
vn 0.3174492 -0.9380264 -0.1390414
vn 0.2745689 -0.9463753 -0.1702521
vn 0.3261332 -0.9424688 -0.07341507
vn 0.3659131 -0.9188119 -0.1479605
vn 0.4066124 -0.8903047 -0.2049969
vn 0.297079 -0.9532222 -0.05578106
vn 0.297079 -0.9532222 -0.05578106
vn 0.3601747 -0.9319715 -0.04126848
vn 0.3656941 -0.9304233 -0.02409175
vn 0.3766522 -0.9263388 0.005459531
vn 0.3778947 -0.9256495 0.0191971
vn 0.3778947 -0.9256495 0.0191971
g SB-PineapplePanel_9_0
f 3/3/3 2/2/2 1/1/1
f 4/4/4 3/3/3 1/1/1
f 5/5/5 3/3/3 4/4/4
f 6/6/6 5/5/5 4/4/4
f 9/9/9 8/8/8 7/7/7
f 8/8/8 10/10/10 7/7/7
f 10/10/10 8/8/8 11/11/11
f 8/8/8 12/12/12 11/11/11
f 11/11/11 12/12/12 13/13/13
f 12/12/12 14/14/14 13/13/13
f 17/17/17 16/16/16 15/15/15
f 18/18/18 17/17/17 15/15/15
f 15/15/15 19/19/19 18/18/18
f 19/19/19 20/20/20 18/18/18
f 20/20/20 21/21/21 18/18/18
f 22/22/22 21/21/21 20/20/20
f 23/23/23 20/20/20 19/19/19
f 24/24/24 23/23/23 19/19/19
f 23/23/23 25/25/25 20/20/20
f 25/25/25 26/26/26 20/20/20
f 20/20/20 27/27/27 22/22/22
f 27/27/27 28/28/28 22/22/22
f 27/27/27 29/29/29 28/28/28
f 28/28/28 29/29/29 30/30/30
f 29/29/29 31/31/31 30/30/30
