g SB-PineapplePanel_33
v -1.686208 2.305898 3.57932
v -1.501746 2.373961 3.749981
v -1.540393 2.351769 3.797023
v -1.501209 2.43251 3.255208
v -1.418705 2.41837 3.683082
v -1.324127 2.466035 3.637308
v -1.263933 2.494977 3.622724
v -1.939926 2.172279 3.204528
v -0.9714503 2.62634 3.213076
v -1.760263 2.312978 2.890102
v -2.167293 2.012213 2.841062
v -1.235162 2.568974 2.890278
v -0.6860322 2.716968 2.849942
v -1.993156 2.163292 2.529745
v -2.340469 1.834063 2.506918
v -2.146261 1.994016 2.216013
v -1.031102 2.636936 2.731037
v -0.5733196 2.73851 2.712461
v -1.499986 2.4666 2.530021
v -1.735128 2.322393 2.180052
v -1.887771 2.157137 1.860994
v -1.218084 2.579332 2.180244
v -1.000835 2.601238 1.801918
v -1.455003 2.442059 1.824263
v -1.628164 2.303343 1.522813
v -1.21138 2.511616 1.520466
v -1.395849 2.382847 1.229421
v -0.9162194 2.63458 3.223196
v -1.194743 2.515535 3.610467
v -1.263933 2.494977 3.622724
v -0.9714503 2.62634 3.213076
v -0.6299694 2.72181 2.859711
v -0.6860322 2.716968 2.849942
v -0.5074956 2.744513 2.710819
v -0.5733196 2.73851 2.712461
v -1.152006 2.499439 1.492941
v -0.9976992 2.563996 1.699902
v -1.000835 2.601238 1.801918
v -1.21138 2.511616 1.520466
v -1.395849 2.382847 1.229421
v -1.372008 2.346714 1.145075
v -1.650685 2.246432 1.492919
v -1.372008 2.346714 1.145075
v -1.395849 2.382847 1.229421
v -1.628164 2.303343 1.522813
v -1.907336 2.098212 1.831953
v -1.887771 2.157137 1.860994
v -2.16372 1.934634 2.18794
v -2.146261 1.994016 2.216013
v -2.384445 1.775046 2.50032
v -2.340469 1.834063 2.506918
v -2.196096 1.969132 2.85949
v -2.384445 1.775046 2.50032
v -2.340469 1.834063 2.506918
v -2.167293 2.012213 2.841062
v -1.973874 2.136402 3.222962
v -1.939926 2.172279 3.204528
v -1.725778 2.278228 3.598495
v -1.686208 2.305898 3.57932
v -1.557036 2.332291 3.819098
v -1.540393 2.351769 3.797023
vt 0.01024663 0.03316532
vt 0.01073343 0.01544882
vt 0.006328412 0.0155549
vt 0.03695744 0.03689166
vt 0.01841122 0.01372697
vt 0.02555392 0.0104309
vt 0.02933391 0.007694678
vt 0.01599795 0.065019
vt 0.06489879 0.01008166
vt 0.04238248 0.06799272
vt 0.02174056 0.09580532
vt 0.06907564 0.03855662
vt 0.0972321 0.01155641
vt 0.04797852 0.09832958
vt 0.02751064 0.1236942
vt 0.05377042 0.1240708
vt 0.08694439 0.03501485
vt 0.1095977 0.01211922
vt 0.07424229 0.06925754
vt 0.07929224 0.09898253
vt 0.08573073 0.1247761
vt 0.1055816 0.07009394
vt 0.1344431 0.07714108
vt 0.1109499 0.0999971
vt 0.1163792 0.1246821
vt 0.1375914 0.1016186
vt 0.1413346 0.1253209
vt 0.06689948 0.006729683
vt 0.03318386 0.004493024
vt 0.02933391 0.007694678
vt 0.06489879 0.01008166
vt 0.09931153 0.008208771
vt 0.0972321 0.01155641
vt 0.1127431 0.008805277
vt 0.1095977 0.01211922
vt 0.141995 0.1005247
vt 0.1396579 0.08241884
vt 0.1344431 0.07714108
vt 0.1375914 0.1016186
vt 0.1413346 0.1253209
vt 0.1463151 0.1294308
vt 0.1159445 0.1293044
vt 0.1463151 0.1294308
vt 0.1413346 0.1253209
vt 0.1163792 0.1246821
vt 0.08507097 0.1294308
vt 0.08573073 0.1247761
vt 0.05295289 0.1286585
vt 0.05377042 0.1240708
vt 0.02449077 0.1278026
vt 0.02751064 0.1236942
vt 0.01838261 0.09753136
vt 0.02449077 0.1278026
vt 0.02751064 0.1236942
vt 0.02174056 0.09580532
vt 0.01274496 0.06661841
vt 0.01599795 0.065019
vt 0.007016063 0.03467777
vt 0.01024663 0.03316532
vt 0.004003169 0.01566744
vt 0.006328412 0.0155549
vn -0.4575199 0.884806 0.08828191
vn -0.4175757 0.9034204 0.09727298
vn -0.4145416 0.905883 0.08678265
vn -0.4277313 0.9009762 0.07271805
vn -0.4142477 0.9038578 0.1069579
vn -0.4071805 0.9068031 0.1091422
vn -0.372561 0.9230672 0.09563147
vn -0.5486876 0.8343536 0.05287977
vn -0.3019272 0.9508211 0.06913161
vn -0.5205986 0.8531172 0.03417538
vn -0.6345595 0.772866 0.003536561
vn -0.3488662 0.9361431 0.04391593
vn -0.2325767 0.9725672 0.004597521
vn -0.6116805 0.7905221 -0.0303603
vn -0.685755 0.7264876 -0.04422502
vn -0.6522185 0.753822 -0.07977111
vn -0.2818273 0.959234 0.02105922
vn -0.2175285 0.9757221 -0.025449
vn -0.4386331 0.8986546 -0.00458223
vn -0.539559 0.8387809 -0.0729559
vn -0.5842316 0.8040107 -0.1106353
vn -0.3110375 0.9490592 -0.05042085
vn -0.302072 0.9491732 -0.08844578
vn -0.4458398 0.8892492 -0.1022873
vn -0.4910431 0.8621525 -0.1247786
vn -0.396884 0.9101939 -0.1184493
vn -0.443674 0.8863614 -0.1323515
vn -0.1674981 0.9764473 0.1359962
vn -0.2207501 0.9645072 0.1448981
vn -0.2207501 0.9645072 0.1448981
vn -0.1926331 0.971198 0.1402391
vn -0.1088455 0.989499 0.09510207
vn -0.1236028 0.9858992 0.1128054
vn -0.09343296 0.992672 0.07663311
vn -0.09343296 0.992672 0.07663311
vn 0.02410597 0.9304385 -0.3656544
vn 0.05037926 0.9409854 -0.3346766
vn 0.05037926 0.9409854 -0.3346766
vn 0.02037829 0.9288108 -0.3699934
vn -0.005818003 0.9164558 -0.4000934
vn -0.005818003 0.9164558 -0.4000934
vn -0.7603038 0.5029448 -0.4110776
vn -0.7313748 0.524623 -0.4357311
vn -0.7313748 0.524623 -0.4357311
vn -0.7572754 0.5053122 -0.4137553
vn -0.7993838 0.4596989 -0.3868623
vn -0.7971878 0.4632797 -0.3871222
vn -0.8129945 0.4769929 -0.3339428
vn -0.8129135 0.4705074 -0.3432119
vn -0.8120039 0.5063392 -0.2902932
vn -0.8120039 0.5063392 -0.2902932
vn -0.7772266 0.6162564 0.1270699
vn -0.8040009 0.5852827 0.1050076
vn -0.8040009 0.5852827 0.1050076
vn -0.764898 0.6294789 0.1367022
vn -0.6874344 0.7117707 0.1442789
vn -0.6656789 0.7333682 0.137995
vn -0.5829103 0.7975912 0.1551252
vn -0.5708892 0.8036814 0.1678746
vn -0.5390977 0.8180618 0.2003705
vn -0.5390977 0.8180618 0.2003705
g SB-PineapplePanel_33_0
f 3/3/3 2/2/2 1/1/1
f 1/1/1 2/2/2 4/4/4
f 2/2/2 5/5/5 4/4/4
f 4/4/4 5/5/5 6/6/6
f 4/4/4 6/6/6 7/7/7
f 8/8/8 1/1/1 4/4/4
f 7/7/7 9/9/9 4/4/4
f 10/10/10 8/8/8 4/4/4
f 11/11/11 8/8/8 10/10/10
f 9/9/9 12/12/12 4/4/4
f 10/10/10 4/4/4 12/12/12
f 12/12/12 9/9/9 13/13/13
f 14/14/14 11/11/11 10/10/10
f 11/11/11 14/14/14 15/15/15
f 14/14/14 16/16/16 15/15/15
f 17/17/17 12/12/12 13/13/13
f 17/17/17 13/13/13 18/18/18
f 19/19/19 10/10/10 12/12/12
f 14/14/14 10/10/10 19/19/19
f 12/12/12 17/17/17 19/19/19
f 16/16/16 14/14/14 20/20/20
f 20/20/20 14/14/14 19/19/19
f 21/21/21 16/16/16 20/20/20
f 17/17/17 22/22/22 19/19/19
f 20/20/20 19/19/19 22/22/22
f 23/23/23 22/22/22 17/17/17
f 21/21/21 20/20/20 24/24/24
f 24/24/24 20/20/20 22/22/22
f 22/22/22 23/23/23 24/24/24
f 25/25/25 21/21/21 24/24/24
f 23/23/23 26/26/26 24/24/24
f 25/25/25 24/24/24 26/26/26
f 27/27/27 25/25/25 26/26/26
f 30/30/30 29/29/29 28/28/28
f 31/31/31 30/30/30 28/28/28
f 31/31/31 28/28/28 32/32/32
f 33/33/33 31/31/31 32/32/32
f 33/33/33 32/32/32 34/34/34
f 35/35/35 33/33/33 34/34/34
f 38/38/38 37/37/37 36/36/36
f 39/39/39 38/38/38 36/36/36
f 39/39/39 36/36/36 40/40/40
f 36/36/36 41/41/41 40/40/40
f 44/44/44 43/43/43 42/42/42
f 45/45/45 44/44/44 42/42/42
f 45/45/45 42/42/42 46/46/46
f 47/47/47 45/45/45 46/46/46
f 47/47/47 46/46/46 48/48/48
f 49/49/49 47/47/47 48/48/48
f 49/49/49 48/48/48 50/50/50
f 51/51/51 49/49/49 50/50/50
f 54/54/54 53/53/53 52/52/52
f 55/55/55 54/54/54 52/52/52
f 55/55/55 52/52/52 56/56/56
f 57/57/57 55/55/55 56/56/56
f 57/57/57 56/56/56 58/58/58
f 59/59/59 57/57/57 58/58/58
f 59/59/59 58/58/58 60/60/60
f 61/61/61 59/59/59 60/60/60
