g SH-PortholeWindow_1
v 1.623306 -2.732997 6.512949
v 1.184732 -2.732997 6.478132
v 1.608088 -2.732997 6.59784
v 1.621672 -2.732997 6.426717
v 1.576599 -2.732997 6.678133
v 1.603246 -2.732997 6.342463
v 1.530051 -2.732997 6.75074
v 1.568736 -2.732997 6.263422
v 1.470233 -2.732997 6.81287
v 1.51947 -2.732997 6.192632
v 1.399443 -2.732997 6.862136
v 1.45734 -2.732997 6.132813
v 1.320401 -2.732997 6.896646
v 1.384733 -2.732997 6.086266
v 1.236147 -2.732997 6.915072
v 1.304441 -2.732997 6.054777
v 1.149916 -2.732997 6.916708
v 1.219548 -2.732997 6.039558
v 1.065023 -2.732997 6.901488
v 1.133317 -2.732997 6.041191
v 0.984731 -2.732997 6.87
v 1.049062 -2.732997 6.059618
v 0.9121245 -2.732997 6.823452
v 0.970021 -2.732997 6.094127
v 0.8499942 -2.732997 6.763633
v 0.899231 -2.732997 6.143394
v 0.8007275 -2.732997 6.692843
v 0.8394127 -2.732997 6.205525
v 0.7662179 -2.732997 6.613802
v 0.7928648 -2.732997 6.278131
v 0.7477916 -2.732997 6.529547
v 0.7613762 -2.732997 6.358424
v 0.7461569 -2.732997 6.443316
vt 0.4328033 0.9270647
vt 0.4045224 0.9239852
vt 0.4316589 0.9325217
vt 0.4328646 0.9214932
vt 0.4294757 0.937649
vt 0.4318405 0.9160231
vt 0.426339 0.9422495
vt 0.4297686 0.9108598
vt 0.4223627 0.9461519
vt 0.4267272 0.9061936
vt 0.4176899 0.9492069
vt 0.4228305 0.902202
vt 0.4125052 0.9512951
vt 0.4182254 0.8990451
vt 0.4070111 0.9523289
vt 0.4130904 0.8968472
vt 0.4014208 0.9522676
vt 0.4076257 0.8956967
vt 0.3959531 0.9511169
vt 0.4020402 0.895637
vt 0.3908192 0.948917
vt 0.3965494 0.8966687
vt 0.3862173 0.945756
vt 0.3913647 0.8987564
vt 0.3823233 0.9417665
vt 0.3866847 0.901816
vt 0.3792824 0.937104
vt 0.3826937 0.9057277
vt 0.3772087 0.9319447
vt 0.379552 0.9103404
vt 0.3761793 0.9264839
vt 0.3773739 0.9154713
vt 0.3762353 0.9209226
vn 0 -1 0
vn 0 -1 0
vn 0 -1 0
vn 0 -1 0
vn 0 -1 0
vn 0 -1 0
vn 0 -1 0
vn 0 -1 0
vn 0 -1 0
vn 0 -1 0
vn 0 -1 0
vn 0 -1 0
vn 0 -1 0
vn 0 -1 0
vn 0 -1 0
vn 0 -1 0
vn 0 -1 0
vn 0 -1 0
vn 0 -1 0
vn 0 -1 0
vn 0 -1 0
vn 0 -1 0
vn 0 -1 0
vn 0 -1 0
vn 0 -1 0
vn 0 -1 0
vn 0 -1 0
vn 0 -1 0
vn 0 -1 0
vn 0 -1 0
vn 0 -1 0
vn 0 -1 0
vn 0 -1 0
g SH-PortholeWindow_1_0
f 3/3/3 2/2/2 1/1/1
f 1/1/1 2/2/2 4/4/4
f 5/5/5 2/2/2 3/3/3
f 4/4/4 2/2/2 6/6/6
f 7/7/7 2/2/2 5/5/5
f 6/6/6 2/2/2 8/8/8
f 9/9/9 2/2/2 7/7/7
f 8/8/8 2/2/2 10/10/10
f 11/11/11 2/2/2 9/9/9
f 10/10/10 2/2/2 12/12/12
f 13/13/13 2/2/2 11/11/11
f 12/12/12 2/2/2 14/14/14
f 15/15/15 2/2/2 13/13/13
f 14/14/14 2/2/2 16/16/16
f 17/17/17 2/2/2 15/15/15
f 16/16/16 2/2/2 18/18/18
f 19/19/19 2/2/2 17/17/17
f 18/18/18 2/2/2 20/20/20
f 21/21/21 2/2/2 19/19/19
f 20/20/20 2/2/2 22/22/22
f 23/23/23 2/2/2 21/21/21
f 22/22/22 2/2/2 24/24/24
f 25/25/25 2/2/2 23/23/23
f 24/24/24 2/2/2 26/26/26
f 27/27/27 2/2/2 25/25/25
f 26/26/26 2/2/2 28/28/28
f 29/29/29 2/2/2 27/27/27
f 28/28/28 2/2/2 30/30/30
f 31/31/31 2/2/2 29/29/29
f 30/30/30 2/2/2 32/32/32
f 33/33/33 2/2/2 31/31/31
f 32/32/32 2/2/2 33/33/33
