g SH-Step_3
v 0.7039037 -4.415001 0
v 0.6840491 -4.408937 0.02161131
v 0.6840491 -3.991105 0.02161131
v 0.7039037 -3.985041 0
v -0.703904 -3.985041 0
v -0.6840494 -3.991105 0.02161131
v -0.6840494 -4.408937 0.02161131
v -0.703904 -4.415001 0
v 0.6840491 -4.408937 0.02161131
v 0.3420245 -3.991104 0.02161131
v 0.6840491 -3.991105 0.02161131
v 0.3420245 -4.400066 0.02161131
v -8.583068E-08 -4.010386 0.02161131
v -7.629394E-08 -4.400066 0.02161131
v -0.3420247 -4.002146 0.02161131
v -0.3420247 -4.408937 0.02161131
v -0.6840494 -3.991105 0.02161131
v -0.6840494 -4.408937 0.02161131
v 0.3519518 -4.40613 0
v 0.6840491 -4.408937 0.02161131
v 0.7039037 -4.415001 0
v 0.3420245 -4.400066 0.02161131
v -8.583068E-08 -4.40613 0
v -7.629394E-08 -4.400066 0.02161131
v -0.3420247 -4.408937 0.02161131
v -0.351952 -4.415001 0
v -0.6840494 -4.408937 0.02161131
v -0.703904 -4.415001 0
v -0.351952 -3.996082 0
v -0.6840494 -3.991105 0.02161131
v -0.703904 -3.985041 0
v -0.3420247 -4.002146 0.02161131
v -8.583068E-08 -4.004323 0
v -8.583068E-08 -4.010386 0.02161131
v 0.3420245 -3.991104 0.02161131
v 0.3519518 -3.985041 0
v 0.6840491 -3.991105 0.02161131
v 0.7039037 -3.985041 0
vt 0.5235652 0.9017482
vt 0.517893 0.9030271
vt 0.518158 0.9910365
vt 0.5238246 0.9923122
vt 0.2128541 0.9924277
vt 0.2185304 0.9911618
vt 0.2183787 0.9031524
vt 0.212716 0.9018635
vt 0.517893 0.9030271
vt 0.4433062 0.9910474
vt 0.518158 0.9910365
vt 0.4429904 0.904911
vt 0.3683875 0.9871711
vt 0.3680882 0.9050859
vt 0.2934411 0.9889593
vt 0.2932292 0.903278
vt 0.2185304 0.9911618
vt 0.2183787 0.9031524
vt 0.445134 0.9010222
vt 0.517893 0.9030271
vt 0.522168 0.8991022
vt 0.4429904 0.904911
vt 0.3681204 0.9012371
vt 0.3680882 0.9050859
vt 0.2932292 0.903278
vt 0.2910832 0.8994171
vt 0.2183787 0.9031524
vt 0.214026 0.8992829
vt 0.2913342 0.992861
vt 0.2185304 0.9911618
vt 0.2142757 0.9950917
vt 0.2934411 0.9889593
vt 0.3683481 0.9910355
vt 0.3683875 0.9871711
vt 0.4433062 0.9910474
vt 0.4454157 0.9949195
vt 0.518158 0.9910365
vt 0.5225044 0.9948936
vn 0.7363269 0 0.6766259
vn 0.7363302 0 0.6766225
vn 0.7363302 0 0.6766225
vn 0.7363269 0 0.6766259
vn -0.7363269 0 0.6766259
vn -0.7363302 0 0.6766225
vn -0.7363302 0 0.6766225
vn -0.7363269 0 0.6766259
vn 0 0 1
vn 0 0 1
vn 0 0 1
vn 0 0 1
vn 0 0 1
vn 0 0 1
vn 0 0 1
vn 0 0 1
vn 0 0 1
vn 0 0 1
vn -0.01565683 -0.9653773 0.2603873
vn -0.02440046 -0.966868 0.2541079
vn -0.02440044 -0.9668674 0.2541103
vn -0.009155498 -0.9643792 0.264365
vn 0.01234007 -0.9635401 0.2672794
vn 0.01228593 -0.9635407 0.2672796
vn 0.0156293 -0.9636796 0.2666034
vn 0.009146097 -0.9633888 0.2679519
vn 0 -0.962707 0.2705464
vn 0 -0.9627066 0.2705477
vn 0.02781864 0.9664119 0.2554881
vn 0.03052591 0.9676714 0.2503602
vn 0.03052584 0.9676691 0.2503692
vn 0.02596409 0.9652534 0.2600228
vn -0.01547661 0.9649175 0.2620964
vn -0.01526738 0.9649129 0.2621258
vn -0.033948 0.9642759 0.2627156
vn -0.01944448 0.9638361 0.2657853
vn 0 0.962707 0.2705464
vn 0 0.9627082 0.2705421
g SH-Step_3_0
f 3/3/3 2/2/2 1/1/1
f 4/4/4 3/3/3 1/1/1
f 7/7/7 6/6/6 5/5/5
f 8/8/8 7/7/7 5/5/5
f 11/11/11 10/10/10 9/9/9
f 10/10/10 12/12/12 9/9/9
f 10/10/10 13/13/13 12/12/12
f 13/13/13 14/14/14 12/12/12
f 13/13/13 15/15/15 14/14/14
f 15/15/15 16/16/16 14/14/14
f 16/16/16 15/15/15 17/17/17
f 18/18/18 16/16/16 17/17/17
f 21/21/21 20/20/20 19/19/19
f 20/20/20 22/22/22 19/19/19
f 19/19/19 22/22/22 23/23/23
f 22/22/22 24/24/24 23/23/23
f 24/24/24 25/25/25 23/23/23
f 25/25/25 26/26/26 23/23/23
f 26/26/26 25/25/25 27/27/27
f 28/28/28 26/26/26 27/27/27
f 31/31/31 30/30/30 29/29/29
f 30/30/30 32/32/32 29/29/29
f 29/29/29 32/32/32 33/33/33
f 32/32/32 34/34/34 33/33/33
f 34/34/34 35/35/35 33/33/33
f 35/35/35 36/36/36 33/33/33
f 36/36/36 35/35/35 37/37/37
f 38/38/38 36/36/36 37/37/37
