g Stern
v 1.296011 1.516192 1.121334
v 1.288539 1.521157 0.854258
v 1.299919 1.51614 0.8537129
v 1.28475 1.521156 1.12189
v 1.286915 1.516225 1.44198
v 1.152853 1.521157 0.854258
v 1.275712 1.521157 1.442899
v 1.27825 1.516252 1.700237
v 1.152793 1.521156 1.125098
v 1.139864 1.516099 0.8537084
v 1.125638 1.521156 1.444711
v 1.267101 1.521157 1.701706
v 1.26903 1.513453 2.001237
v 1.117586 1.521157 1.708615
v 1.257984 1.518511 2.003453
v 1.267134 1.512134 2.012163
v 1.25595 1.513731 2.013985
v 1.107868 1.516051 2.016411
v 1.108855 1.52075 2.005895
v 0.9429767 1.517881 2.018921
v 0.9514191 1.521156 1.71609
v 0.9435483 1.522515 2.008411
v 0.7637753 1.519005 2.02143
v 0.7643112 1.523595 2.010922
v 0.5717422 1.519148 2.023852
v 0.7766216 1.521156 1.724353
v 0.9581664 1.521157 1.4469
v 0.5725795 1.523724 2.01334
v 0.3633052 1.51772 2.026081
v 0.9651586 1.521156 1.12496
v 0.580046 1.521157 1.75017
v 0.5776285 1.521156 1.451114
v 0.7819531 1.521156 1.44906
v 0.3543889 1.521156 1.856428
v 0.3657615 1.522347 2.015551
v 0.3541107 1.517327 2.024827
v 0.3526496 1.518562 2.01408
v 0.3422898 1.517254 1.863682
v 0.3256479 1.517274 1.803612
v 0.3357981 1.521157 1.789867
v 0.2829052 1.517282 1.762175
v 0.2943692 1.521157 1.749804
v 0.2211339 1.517273 1.746113
v 0.2262534 1.521157 1.732079
v 2.636828E-07 1.517259 1.746099
v 2.61564E-07 1.521156 1.732067
v -0.2262529 1.521157 1.732079
v -0.2211334 1.517273 1.746113
v 2.19607E-07 1.521156 1.454198
v 0.2976713 1.521157 1.453101
v 1.698885E-07 1.521156 1.124928
v 0.3002098 1.521156 1.124928
v -0.2943686 1.521157 1.749804
v -0.2829047 1.517282 1.762175
v -0.577628 1.521156 1.451114
v -0.2976709 1.521157 1.453101
v -0.3357975 1.521157 1.789867
v -0.3256474 1.517274 1.803612
v -0.3543883 1.521156 1.856428
v -0.3422893 1.517254 1.863682
v 0.5822557 1.521156 1.124928
v -0.3002095 1.521156 1.124928
v -0.365761 1.522347 2.015551
v -0.352649 1.518562 2.01408
v -0.3541101 1.517327 2.024827
v -0.3633046 1.51772 2.026081
v -0.5725789 1.523724 2.01334
v -0.5717416 1.519148 2.023852
v -0.5800455 1.521157 1.75017
v -0.7643106 1.523595 2.010922
v -0.7637747 1.519005 2.021431
v -0.7766211 1.521156 1.724354
v -0.9435477 1.522515 2.008412
v -0.9429761 1.517881 2.018921
v -1.108854 1.52075 2.005895
v -1.107867 1.516051 2.016411
v -0.9514186 1.521156 1.716091
v -1.257983 1.518511 2.003453
v -1.255949 1.513731 2.013985
v -1.267133 1.512134 2.012163
v -1.269029 1.513453 2.001238
v -1.267101 1.521157 1.701707
v -1.278249 1.516252 1.700238
v -1.117586 1.521157 1.708615
v -1.275712 1.521157 1.442899
v -1.286915 1.516225 1.44198
v -1.125638 1.521156 1.444712
v -1.28475 1.521156 1.12189
v -1.296011 1.516192 1.121335
v -1.288538 1.521157 0.8542584
v -1.299918 1.51614 0.8537132
v -1.152853 1.521157 0.8542584
v -1.152792 1.521156 1.125098
v -1.139864 1.516099 0.8537088
v -0.9581659 1.521157 1.4469
v -0.9651583 1.521156 1.12496
v -1.139847 1.516157 1.112854
v -0.7819526 1.521156 1.44906
v -1.134012 1.503906 0.8749404
v -1.134011 1.503891 0.8523822
v -1.134019 1.504087 1.106648
v -0.9655144 1.516199 1.112731
v -0.9658468 1.504231 1.106543
v -0.7879312 1.521157 1.124943
v -0.5822553 1.521156 1.124928
v -0.7881596 1.516229 1.112718
v -0.7882633 1.504332 1.106538
v -0.5824341 1.516248 1.112705
v -0.5825213 1.504399 1.10653
v -0.3003128 1.51626 1.112706
v -0.3003747 1.504438 1.106535
v 1.680431E-07 1.516263 1.112706
v 1.671114E-07 1.50445 1.106536
v 0.3003751 1.504438 1.106535
v 0.3003132 1.51626 1.112706
v 0.5825216 1.504399 1.10653
v 0.5824344 1.516248 1.112704
v 0.7882637 1.504332 1.106538
v 0.78816 1.516229 1.112718
v 0.9658472 1.504231 1.106543
v 0.7879316 1.521157 1.124943
v 0.9655148 1.516199 1.112731
v 1.134019 1.504087 1.106648
v 1.139848 1.516157 1.112854
v 1.134012 1.503906 0.87494
v 1.134011 1.503891 0.8523819
v 0.7882637 1.504332 1.106538
v 0.9658472 1.504231 1.070387
v 0.9658472 1.504231 1.106543
v 0.7882637 1.504333 1.070382
v 0.5825216 1.504399 1.10653
v 0.5825216 1.504399 1.070374
v 0.3003751 1.504438 1.106535
v 0.300375 1.504438 1.070378
v 1.671114E-07 1.50445 1.106536
v 1.61652E-07 1.50445 1.07038
v -0.3003747 1.504438 1.070378
v -0.3003747 1.504438 1.106535
v -0.5825213 1.504399 1.070374
v -0.5825213 1.504399 1.10653
v -0.7882633 1.504333 1.070382
v -0.7882633 1.504332 1.106538
v -0.9658468 1.504231 1.084315
v -0.9658468 1.504231 1.106543
v 0.2146366 1.507899 1.757095
v 0.1854175 1.456051 1.791601
v 2.705845E-07 1.455234 1.791808
v 0.2447097 1.456276 1.806899
v 0.2737931 1.507927 1.772465
v 0.288074 1.456317 1.848823
v 0.317077 1.507899 1.814476
v 0.3038908 1.456164 1.906139
v 0.2829052 1.517282 1.762175
v 0.3256479 1.517274 1.803612
v 0.2211339 1.517273 1.746113
v 0.3422898 1.517254 1.863682
v 2.653378E-07 1.507849 1.75706
v 2.636828E-07 1.517259 1.746099
v -0.2211334 1.517273 1.746113
v 0.3328969 1.507833 1.871864
v 0.3526496 1.518562 2.01408
v -0.2146361 1.507899 1.757095
v -0.185417 1.456051 1.791601
v -0.2829047 1.517282 1.762175
v -0.2447092 1.456276 1.806899
v 0.3416972 1.509576 2.012393
v 0.3033752 1.456756 1.999873
v 0.3541107 1.517327 2.024827
v 0.3069667 1.453747 2.010825
v 0.3482375 1.509306 2.024089
v -0.2737926 1.507927 1.772465
v -0.3256474 1.517274 1.803612
v -0.2880734 1.456317 1.848823
v -0.3170764 1.507899 1.814476
v -0.3422893 1.517254 1.863682
v -0.3038902 1.456164 1.906139
v -0.3328964 1.507833 1.871864
v -0.352649 1.518562 2.01408
v -0.3416966 1.509576 2.012393
v -0.3033746 1.456756 1.999873
v -0.3541101 1.517327 2.024827
v -0.3069661 1.453747 2.010825
v -0.3482369 1.509306 2.024089
vt 0.726169 0.3521462
vt 0.760566 0.3485126
vt 0.7604139 0.3469085
vt 0.726244 0.3537392
vt 0.6849519 0.3551287
vt 0.7630493 0.3656512
vt 0.6848863 0.3566976
vt 0.6522211 0.356825
vt 0.7275627 0.371446
vt 0.7633882 0.3672837
vt 0.6850721 0.375856
vt 0.6520736 0.3583604
vt 0.6147247 0.3587862
vt 0.6514637 0.3773689
vt 0.6145471 0.3603051
vt 0.6133283 0.3590425
vt 0.6131037 0.3604787
vt 0.6125951 0.3789338
vt 0.6140367 0.3788257
vt 0.6123446 0.399641
vt 0.6506881 0.3983835
vt 0.6137891 0.3995709
vt 0.6121133 0.4222099
vt 0.6135583 0.4221414
vt 0.6118696 0.4464146
vt 0.6497285 0.4204885
vt 0.6849081 0.3973293
vt 0.6133164 0.446305
vt 0.6116594 0.4724067
vt 0.7262928 0.3967324
vt 0.6464981 0.4453338
vt 0.6843315 0.4456344
vt 0.6846301 0.4197426
vt 0.6329845 0.4738033
vt 0.6130868 0.4720643
vt 0.6118273 0.4735739
vt 0.613201 0.473774
vt 0.6320363 0.4753989
vt 0.639623 0.4775521
vt 0.6413971 0.4762193
vt 0.6448582 0.4829552
vt 0.6464707 0.4814778
vt 0.6469005 0.4907472
vt 0.6487366 0.4900882
vt 0.6469622 0.5186562
vt 0.6488006 0.5186562
vt 0.6487364 0.5472241
vt 0.6469004 0.5465652
vt 0.6838729 0.5186563
vt 0.6840186 0.4810399
vt 0.7254173 0.5186565
vt 0.725453 0.4807691
vt 0.6464704 0.5558345
vt 0.6448579 0.5543569
vt 0.6843309 0.5916781
vt 0.6840183 0.5562727
vt 0.6413966 0.5610929
vt 0.6396227 0.55976
vt 0.632984 0.5635087
vt 0.6320359 0.5619132
vt 0.7255803 0.4451463
vt 0.7254527 0.556544
vt 0.6130861 0.5652475
vt 0.6132004 0.5635378
vt 0.6118267 0.563738
vt 0.6116588 0.5649052
vt 0.6133156 0.5910072
vt 0.6118687 0.5908977
vt 0.6464975 0.5919784
vt 0.6135575 0.615171
vt 0.6121124 0.6151024
vt 0.6497279 0.616824
vt 0.6137881 0.6377416
vt 0.6123436 0.6376714
vt 0.6140355 0.6584867
vt 0.6125938 0.6583786
vt 0.6506873 0.6389291
vt 0.6145456 0.6770074
vt 0.6131023 0.6768337
vt 0.6133268 0.6782699
vt 0.6147233 0.6785263
vt 0.6520724 0.6789525
vt 0.6522199 0.6804879
vt 0.6514629 0.6599438
vt 0.6848853 0.6806157
vt 0.6849509 0.6821846
vt 0.6850714 0.6614571
vt 0.7262434 0.6835745
vt 0.7261685 0.6851675
vt 0.7605656 0.6888016
vt 0.7604135 0.6904058
vt 0.7630492 0.6716629
vt 0.7275624 0.6658674
vt 0.7633882 0.6700304
vt 0.6849076 0.6399836
vt 0.7262926 0.6405808
vt 0.729292 0.6642376
vt 0.6846296 0.6175699
vt 0.7611391 0.6679946
vt 0.7638194 0.6684487
vt 0.7310188 0.6627106
vt 0.7279299 0.6405668
vt 0.729672 0.6405412
vt 0.7258153 0.6181765
vt 0.72558 0.5921664
vt 0.727482 0.6181794
vt 0.7291754 0.6181663
vt 0.7272439 0.5921783
vt 0.7289311 0.5921785
vt 0.7271148 0.5565534
vt 0.728798 0.5565574
vt 0.7270785 0.5186565
vt 0.7287601 0.5186565
vt 0.7287983 0.4807558
vt 0.7271152 0.4807597
vt 0.7289316 0.445134
vt 0.7272444 0.4451343
vt 0.7291754 0.4191458
vt 0.727482 0.4191327
vt 0.729672 0.3967719
vt 0.7258153 0.4191355
vt 0.7279301 0.3967464
vt 0.731019 0.3746029
vt 0.7292923 0.373076
vt 0.7611392 0.3693195
vt 0.7638194 0.3688654
vt 0.7291754 0.4191458
vt 0.734222 0.3968719
vt 0.729672 0.3967719
vt 0.7337354 0.4192175
vt 0.7289316 0.445134
vt 0.7334954 0.4451641
vt 0.7287983 0.4807558
vt 0.7333606 0.4807666
vt 0.7287601 0.5186565
vt 0.7333213 0.5186565
vt 0.7333603 0.5565466
vt 0.728798 0.5565574
vt 0.7334948 0.5921485
vt 0.7289311 0.5921785
vt 0.7337347 0.6180942
vt 0.7291754 0.6181663
vt 0.7324701 0.6404793
vt 0.729672 0.6405412
vt 0.7761739 0.1644006
vt 0.7840537 0.1605665
vt 0.7841508 0.1370913
vt 0.7853193 0.1681643
vt 0.7775401 0.1721936
vt 0.7892029 0.1746792
vt 0.7815163 0.1789581
vt 0.7951244 0.1793067
vt 0.7756878 0.1732716
vt 0.779566 0.1798264
vt 0.774331 0.1652029
vt 0.7858573 0.1847364
vt 0.7761673 0.1370913
vt 0.7743445 0.1370912
vt 0.7743315 0.10898
vt 0.7875551 0.183725
vt 0.8021125 0.1946064
vt 0.7761744 0.1097823
vt 0.7840539 0.1136163
vt 0.7756884 0.1009116
vt 0.7853196 0.1060189
vt 0.8027188 0.1929212
vt 0.8054644 0.185131
vt 0.8033304 0.1952834
vt 0.8067966 0.1858364
vt 0.80388 0.1941357
vt 0.7775406 0.1019895
vt 0.7795665 0.09435683
vt 0.7892031 0.09950411
vt 0.7815169 0.09522516
vt 0.7858578 0.0894472
vt 0.7951246 0.09487677
vt 0.7875556 0.09045851
vt 0.8021127 0.07957757
vt 0.8027189 0.08126277
vt 0.8054644 0.08905274
vt 0.8033305 0.07890058
vt 0.8067966 0.08834738
vt 0.8038803 0.08004826
vn 0.4037026 0.914847 0.008901414
vn 0.0341589 0.9994162 0.0004868117
vn 0.4036321 0.9149036 0.005714498
vn 0.03329602 0.9994453 0.0007079961
vn 0.4038613 0.9147369 0.01233804
vn -0.03372884 0.999431 -2.108328E-05
vn 0.03150409 0.9995031 0.0009458511
vn 0.4085388 0.9125739 0.01745747
vn -0.009273022 0.9999373 -0.006280517
vn -0.6694576 0.7428502 -0.0002031848
vn 0 1 0
vn 0.03464383 0.9993919 0.003941788
vn 0.4099079 0.9116067 0.03080121
vn 0.003703154 0.999993 0.0006720329
vn 0.03871653 0.9990225 0.02133625
vn 0.3240941 0.8927175 0.3130792
vn 0.04213404 0.9122911 0.4073693
vn 0.01829438 0.9120563 0.4096565
vn 0.006881689 0.9998314 0.01702376
vn 0.01360799 0.9144647 0.4044368
vn 0.002138582 0.9999952 -0.002247729
vn 0.004432109 0.9999235 0.01155289
vn 0.008378006 0.9159755 0.4011467
vn 0.001522387 0.9999651 0.008218125
vn 0.001687727 0.9164097 0.4002379
vn 0.0006808925 0.9999928 -0.003735228
vn 0 1 0
vn -0.002478066 0.9999553 0.009126987
vn -0.01230216 0.9192352 0.3935164
vn 1.22203E-05 0.9998876 -0.01499577
vn -0.0013919 0.9999889 -0.004515761
vn 0 1 0
vn 0 1 0
vn -0.01165289 0.9999267 -0.003313988
vn -0.01751393 0.9997734 0.01209776
vn -0.4850694 0.8267304 0.2849991
vn -0.4866922 0.8726466 0.04023113
vn -0.475114 0.8781707 0.05552416
vn -0.3612397 0.9081989 0.2113781
vn -0.006866049 0.9999686 0.003945747
vn -0.1947438 0.9147463 0.3539971
vn -0.003405465 0.9999743 0.006312552
vn -0.02607102 0.8897845 0.4556358
vn -0.0005103033 0.999962 0.008707579
vn 0 0.8845122 0.4665171
vn 0 0.9999344 0.01144874
vn 0.0005191993 0.999962 0.008706354
vn 0.02607172 0.8897837 0.4556372
vn 0 1 0
vn 0 1 0
vn 0 0.9998963 -0.01440111
vn -0.001374352 0.9998943 -0.01447535
vn 0.003418872 0.9999739 0.006362752
vn 0.1947452 0.9147457 0.353998
vn 0 1 0
vn 0 1 0
vn 0.006870061 0.9999686 0.003942598
vn 0.3612423 0.9081979 0.2113777
vn 0.01165203 0.9999267 -0.003303953
vn 0.4751172 0.8781689 0.05552454
vn 0 0.9998944 -0.01453356
vn 0.001374477 0.9998943 -0.01447415
vn 0.01752383 0.9997733 0.01209227
vn 0.4866943 0.8726454 0.04023055
vn 0.4850716 0.8267295 0.2849983
vn 0.012304 0.9192354 0.3935159
vn 0.002477828 0.9999553 0.009128059
vn -0.001687772 0.916409 0.4002397
vn 0.001392199 0.9999889 -0.004515763
vn -0.001522591 0.9999651 0.008217886
vn -0.008377587 0.9159755 0.4011467
vn -0.0006809254 0.9999928 -0.003735227
vn -0.00442286 0.9999235 0.01155113
vn -0.01360764 0.9144665 0.4044329
vn -0.006881985 0.9998313 0.01702575
vn -0.01829487 0.912055 0.4096596
vn -0.002138641 0.9999952 -0.002247717
vn -0.03871489 0.9990225 0.02133769
vn -0.04213164 0.9122894 0.4073732
vn -0.3240878 0.8927203 0.3130774
vn -0.4099051 0.9116079 0.03080067
vn -0.03464326 0.9993919 0.003969464
vn -0.4084376 0.912621 0.01736762
vn -0.003630223 0.9999932 0.0007343119
vn -0.03150485 0.9995031 0.0009484086
vn -0.4038629 0.9147363 0.01233825
vn 0 1 0
vn -0.03329652 0.9994453 0.0007078462
vn -0.4037037 0.9148466 0.008901501
vn -0.03415913 0.9994162 0.0004867995
vn -0.4036327 0.9149033 0.005714318
vn 0.03373097 0.999431 -8.026315E-05
vn 0.009271711 0.9999373 -0.006281804
vn 0.6694582 0.7428498 -0.0002032871
vn 0 1 0
vn -1.163152E-05 0.9998876 -0.01499404
vn 0.445104 0.8415841 -0.3059715
vn 0 1 0
vn 0.9011965 0.4334106 -0.0002363797
vn 0.9017236 0.4323127 -0.0002771185
vn 0.6771278 0.5674588 -0.4684958
vn -0.0004105906 0.739448 -0.6732137
vn -0.0005335585 0.4591201 -0.888374
vn -2.023957E-05 0.9998919 -0.01470797
vn -1.077796E-05 0.9998944 -0.01453249
vn -0.00017101 0.7379065 -0.6749029
vn -0.0001798012 0.4608444 -0.8874809
vn -6.318346E-05 0.7392582 -0.673422
vn -8.716933E-05 0.4619882 -0.8868861
vn -1.679627E-05 0.7398431 -0.6727794
vn -2.087623E-05 0.4626476 -0.8865423
vn 0 0.7400449 -0.6725575
vn 0 0.4628641 -0.8864293
vn 2.054625E-05 0.4626517 -0.8865402
vn 2.94879E-05 0.739808 -0.6728179
vn 8.682592E-05 0.4619931 -0.8868835
vn 6.293273E-05 0.7392594 -0.6734208
vn 0.0001798518 0.4608484 -0.8874788
vn 0.0001710488 0.7379075 -0.6749019
vn 0.0002176582 0.4601541 -0.887839
vn 0 0.9998919 -0.01470867
vn 0.0004102912 0.7394477 -0.6732139
vn -0.6771271 0.5674585 -0.4684975
vn -0.445104 0.841584 -0.3059719
vn -0.9011968 0.43341 -0.0002361819
vn -0.9017249 0.4323103 -0.0002770832
vn 0.0004489234 0.9999999 0
vn 0.0005733003 0.9999999 0
vn 0.0005733003 0.9999999 0
vn 0.0004489182 0.9999999 0
vn 0.0002307843 1 0
vn 0.000230783 1 0
vn 8.870029E-05 1 0
vn 8.870088E-05 1 0
vn 0 1 0
vn 0 1 0
vn -8.870903E-05 1 0
vn -8.870837E-05 1 0
vn -0.0002307262 1 0
vn -0.0002307275 1 0
vn -0.0004457967 0.9999999 0
vn -0.0004489822 0.9999999 0
vn -0.0005734471 0.9999999 0
vn -0.0005734471 0.9999999 0
vn -0.04674421 0.614365 0.7876361
vn -0.0490673 0.5712187 0.8193299
vn 0 0.5527176 0.8333685
vn -0.3709608 0.6503728 0.6628751
vn -0.3545165 0.6870113 0.6342975
vn -0.6628485 0.63587 0.3953494
vn -0.6356213 0.6728603 0.3784767
vn -0.8229702 0.5608659 0.09027369
vn -0.1947438 0.9147463 0.3539971
vn -0.3612397 0.9081989 0.2113781
vn -0.02607102 0.8897845 0.4556358
vn -0.475114 0.8781707 0.05552416
vn 0 0.5979439 0.801538
vn 0 0.8845122 0.4665171
vn 0.02607172 0.8897837 0.4556372
vn -0.7917119 0.6045068 0.08811262
vn -0.4866922 0.8726466 0.04023113
vn 0.04674427 0.6143641 0.7876369
vn 0.04906729 0.5712185 0.8193301
vn 0.1947452 0.9147457 0.353998
vn 0.3709608 0.6503727 0.6628751
vn -0.8069409 0.5873752 0.06194126
vn -0.8381354 0.5416916 0.06402642
vn -0.4850694 0.8267304 0.2849991
vn -0.7773237 0.4718589 0.4160734
vn -0.7687196 0.49933 0.3996745
vn 0.3545169 0.6870106 0.6342983
vn 0.3612423 0.9081979 0.2113777
vn 0.6628483 0.6358704 0.3953494
vn 0.6356224 0.6728593 0.3784768
vn 0.4751172 0.8781689 0.05552454
vn 0.82297 0.5608664 0.09027342
vn 0.7917117 0.6045085 0.08810326
vn 0.4866943 0.8726454 0.04023055
vn 0.8069465 0.5873674 0.0619427
vn 0.8381345 0.5416931 0.06402484
vn 0.4850716 0.8267295 0.2849983
vn 0.7773232 0.4718621 0.4160707
vn 0.76872 0.4993311 0.3996724
g Stern_0
f 3/3/3 2/2/2 1/1/1
f 2/2/2 4/4/4 1/1/1
f 1/1/1 4/4/4 5/5/5
f 4/4/4 2/2/2 6/6/6
f 4/4/4 7/7/7 5/5/5
f 8/8/8 5/5/5 7/7/7
f 9/9/9 4/4/4 6/6/6
f 6/6/6 10/10/10 9/9/9
f 11/11/11 7/7/7 4/4/4
f 9/9/9 11/11/11 4/4/4
f 12/12/12 8/8/8 7/7/7
f 13/13/13 8/8/8 12/12/12
f 7/7/7 11/11/11 14/14/14
f 12/12/12 7/7/7 14/14/14
f 15/15/15 13/13/13 12/12/12
f 16/16/16 13/13/13 15/15/15
f 17/17/17 16/16/16 15/15/15
f 18/18/18 17/17/17 15/15/15
f 19/19/19 15/15/15 12/12/12
f 19/19/19 18/18/18 15/15/15
f 14/14/14 19/19/19 12/12/12
f 18/18/18 19/19/19 20/20/20
f 19/19/19 14/14/14 21/21/21
f 21/21/21 14/14/14 11/11/11
f 19/19/19 22/22/22 20/20/20
f 22/22/22 19/19/19 21/21/21
f 23/23/23 20/20/20 22/22/22
f 24/24/24 23/23/23 22/22/22
f 23/23/23 24/24/24 25/25/25
f 22/22/22 21/21/21 26/26/26
f 24/24/24 22/22/22 26/26/26
f 27/27/27 21/21/21 11/11/11
f 26/26/26 21/21/21 27/27/27
f 24/24/24 28/28/28 25/25/25
f 29/29/29 25/25/25 28/28/28
f 30/30/30 27/27/27 11/11/11
f 9/9/9 30/30/30 11/11/11
f 24/24/24 26/26/26 31/31/31
f 28/28/28 24/24/24 31/31/31
f 31/31/31 26/26/26 32/32/32
f 26/26/26 33/33/33 32/32/32
f 33/33/33 26/26/26 27/27/27
f 34/34/34 31/31/31 32/32/32
f 31/31/31 34/34/34 28/28/28
f 35/35/35 29/29/29 28/28/28
f 34/34/34 35/35/35 28/28/28
f 36/36/36 29/29/29 35/35/35
f 37/37/37 36/36/36 35/35/35
f 38/38/38 37/37/37 35/35/35
f 34/34/34 38/38/38 35/35/35
f 39/39/39 38/38/38 34/34/34
f 40/40/40 39/39/39 34/34/34
f 40/40/40 34/34/34 32/32/32
f 39/39/39 40/40/40 41/41/41
f 40/40/40 42/42/42 41/41/41
f 40/40/40 32/32/32 42/42/42
f 41/41/41 42/42/42 43/43/43
f 42/42/42 44/44/44 43/43/43
f 42/42/42 32/32/32 44/44/44
f 43/43/43 44/44/44 45/45/45
f 44/44/44 46/46/46 45/45/45
f 46/46/46 47/47/47 45/45/45
f 47/47/47 48/48/48 45/45/45
f 49/49/49 46/46/46 44/44/44
f 46/46/46 49/49/49 47/47/47
f 32/32/32 50/50/50 44/44/44
f 50/50/50 49/49/49 44/44/44
f 51/51/51 49/49/49 50/50/50
f 50/50/50 32/32/32 52/52/52
f 52/52/52 51/51/51 50/50/50
f 47/47/47 53/53/53 48/48/48
f 53/53/53 54/54/54 48/48/48
f 55/55/55 53/53/53 47/47/47
f 56/56/56 55/55/55 47/47/47
f 49/49/49 56/56/56 47/47/47
f 49/49/49 51/51/51 56/56/56
f 55/55/55 57/57/57 53/53/53
f 53/53/53 57/57/57 54/54/54
f 57/57/57 58/58/58 54/54/54
f 58/58/58 57/57/57 59/59/59
f 59/59/59 57/57/57 55/55/55
f 60/60/60 58/58/58 59/59/59
f 32/32/32 61/61/61 52/52/52
f 61/61/61 32/32/32 33/33/33
f 51/51/51 62/62/62 56/56/56
f 55/55/55 56/56/56 62/62/62
f 60/60/60 59/59/59 63/63/63
f 64/64/64 60/60/60 63/63/63
f 65/65/65 64/64/64 63/63/63
f 66/66/66 65/65/65 63/63/63
f 66/66/66 63/63/63 67/67/67
f 63/63/63 59/59/59 67/67/67
f 68/68/68 66/66/66 67/67/67
f 59/59/59 69/69/69 67/67/67
f 69/69/69 59/59/59 55/55/55
f 67/67/67 70/70/70 68/68/68
f 70/70/70 67/67/67 69/69/69
f 70/70/70 71/71/71 68/68/68
f 72/72/72 70/70/70 69/69/69
f 72/72/72 69/69/69 55/55/55
f 71/71/71 70/70/70 73/73/73
f 73/73/73 70/70/70 72/72/72
f 74/74/74 71/71/71 73/73/73
f 73/73/73 75/75/75 74/74/74
f 75/75/75 76/76/76 74/74/74
f 77/77/77 73/73/73 72/72/72
f 75/75/75 73/73/73 77/77/77
f 76/76/76 75/75/75 78/78/78
f 79/79/79 76/76/76 78/78/78
f 80/80/80 79/79/79 78/78/78
f 81/81/81 80/80/80 78/78/78
f 81/81/81 78/78/78 82/82/82
f 78/78/78 75/75/75 82/82/82
f 83/83/83 81/81/81 82/82/82
f 75/75/75 84/84/84 82/82/82
f 84/84/84 75/75/75 77/77/77
f 83/83/83 82/82/82 85/85/85
f 85/85/85 82/82/82 84/84/84
f 86/86/86 83/83/83 85/85/85
f 84/84/84 77/77/77 87/87/87
f 87/87/87 85/85/85 84/84/84
f 85/85/85 88/88/88 86/86/86
f 85/85/85 87/87/87 88/88/88
f 88/88/88 89/89/89 86/86/86
f 88/88/88 90/90/90 89/89/89
f 90/90/90 91/91/91 89/89/89
f 90/90/90 88/88/88 92/92/92
f 88/88/88 93/93/93 92/92/92
f 87/87/87 93/93/93 88/88/88
f 94/94/94 92/92/92 93/93/93
f 77/77/77 95/95/95 87/87/87
f 77/77/77 72/72/72 95/95/95
f 96/96/96 93/93/93 87/87/87
f 95/95/95 96/96/96 87/87/87
f 97/97/97 94/94/94 93/93/93
f 93/93/93 96/96/96 97/97/97
f 72/72/72 98/98/98 95/95/95
f 98/98/98 72/72/72 55/55/55
f 99/99/99 94/94/94 97/97/97
f 99/99/99 100/100/100 94/94/94
f 101/101/101 99/99/99 97/97/97
f 97/97/97 102/102/102 101/101/101
f 96/96/96 102/102/102 97/97/97
f 102/102/102 103/103/103 101/101/101
f 104/104/104 96/96/96 95/95/95
f 98/98/98 104/104/104 95/95/95
f 102/102/102 96/96/96 104/104/104
f 55/55/55 105/105/105 98/98/98
f 105/105/105 104/104/104 98/98/98
f 105/105/105 55/55/55 62/62/62
f 103/103/103 102/102/102 106/106/106
f 106/106/106 102/102/102 104/104/104
f 104/104/104 105/105/105 106/106/106
f 107/107/107 103/103/103 106/106/106
f 105/105/105 108/108/108 106/106/106
f 106/106/106 108/108/108 107/107/107
f 108/108/108 105/105/105 62/62/62
f 108/108/108 109/109/109 107/107/107
f 110/110/110 108/108/108 62/62/62
f 109/109/109 108/108/108 110/110/110
f 111/111/111 109/109/109 110/110/110
f 62/62/62 51/51/51 110/110/110
f 110/110/110 112/112/112 111/111/111
f 51/51/51 112/112/112 110/110/110
f 112/112/112 113/113/113 111/111/111
f 113/113/113 112/112/112 114/114/114
f 112/112/112 51/51/51 115/115/115
f 112/112/112 115/115/115 114/114/114
f 51/51/51 52/52/52 115/115/115
f 116/116/116 114/114/114 115/115/115
f 117/117/117 115/115/115 52/52/52
f 117/117/117 116/116/116 115/115/115
f 116/116/116 117/117/117 118/118/118
f 61/61/61 117/117/117 52/52/52
f 117/117/117 119/119/119 118/118/118
f 117/117/117 61/61/61 119/119/119
f 120/120/120 118/118/118 119/119/119
f 61/61/61 121/121/121 119/119/119
f 121/121/121 61/61/61 33/33/33
f 121/121/121 33/33/33 27/27/27
f 30/30/30 121/121/121 27/27/27
f 122/122/122 120/120/120 119/119/119
f 122/122/122 119/119/119 121/121/121
f 30/30/30 122/122/122 121/121/121
f 120/120/120 122/122/122 123/123/123
f 122/122/122 30/30/30 124/124/124
f 122/122/122 124/124/124 123/123/123
f 30/30/30 9/9/9 124/124/124
f 125/125/125 123/123/123 124/124/124
f 10/10/10 124/124/124 9/9/9
f 10/10/10 125/125/125 124/124/124
f 126/126/126 125/125/125 10/10/10
f 129/129/129 128/128/128 127/127/127
f 128/128/128 130/130/130 127/127/127
f 127/127/127 130/130/130 131/131/131
f 130/130/130 132/132/132 131/131/131
f 131/131/131 132/132/132 133/133/133
f 132/132/132 134/134/134 133/133/133
f 133/133/133 134/134/134 135/135/135
f 134/134/134 136/136/136 135/135/135
f 136/136/136 137/137/137 135/135/135
f 137/137/137 138/138/138 135/135/135
f 137/137/137 139/139/139 138/138/138
f 139/139/139 140/140/140 138/138/138
f 139/139/139 141/141/141 140/140/140
f 141/141/141 142/142/142 140/140/140
f 141/141/141 143/143/143 142/142/142
f 143/143/143 144/144/144 142/142/142
f 147/147/147 146/146/146 145/145/145
f 145/145/145 146/146/146 148/148/148
f 149/149/149 145/145/145 148/148/148
f 149/149/149 148/148/148 150/150/150
f 151/151/151 149/149/149 150/150/150
f 151/151/151 150/150/150 152/152/152
f 149/149/149 153/153/153 145/145/145
f 154/154/154 153/153/153 149/149/149
f 151/151/151 154/154/154 149/149/149
f 153/153/153 155/155/155 145/145/145
f 154/154/154 151/151/151 156/156/156
f 145/145/145 155/155/155 157/157/157
f 157/157/157 147/147/147 145/145/145
f 155/155/155 158/158/158 157/157/157
f 158/158/158 159/159/159 157/157/157
f 151/151/151 160/160/160 156/156/156
f 160/160/160 151/151/151 152/152/152
f 156/156/156 160/160/160 161/161/161
f 147/147/147 157/157/157 162/162/162
f 159/159/159 162/162/162 157/157/157
f 163/163/163 147/147/147 162/162/162
f 159/159/159 164/164/164 162/162/162
f 163/163/163 162/162/162 165/165/165
f 166/166/166 160/160/160 152/152/152
f 160/160/160 166/166/166 161/161/161
f 167/167/167 166/166/166 152/152/152
f 168/168/168 161/161/161 166/166/166
f 167/167/167 169/169/169 166/166/166
f 170/170/170 168/168/168 166/166/166
f 169/169/169 170/170/170 166/166/166
f 164/164/164 171/171/171 162/162/162
f 162/162/162 171/171/171 165/165/165
f 164/164/164 172/172/172 171/171/171
f 165/165/165 171/171/171 173/173/173
f 172/172/172 174/174/174 171/171/171
f 171/171/171 174/174/174 173/173/173
f 174/174/174 172/172/172 175/175/175
f 173/173/173 174/174/174 176/176/176
f 177/177/177 174/174/174 175/175/175
f 174/174/174 177/177/177 176/176/176
f 177/177/177 175/175/175 178/178/178
f 177/177/177 179/179/179 176/176/176
f 179/179/179 177/177/177 178/178/178
f 179/179/179 180/180/180 176/176/176
f 178/178/178 181/181/181 179/179/179
f 182/182/182 180/180/180 179/179/179
f 181/181/181 183/183/183 179/179/179
f 183/183/183 182/182/182 179/179/179
