g WallOfSuperheroSuperGadgetry
v 0.3844967 -1.232385 5.965257
v 0.3844967 1.232385 5.965257
v 0.7562904 1.232385 5.984851
v 0.7562904 -1.232385 5.984851
v -0.1183516 1.232385 0.6977614
v 0.377806 1.163362 5.89517
v -0.1183516 1.163362 0.6977614
v 0.3844967 1.232385 5.965257
v 0.3844967 -1.232385 5.965257
v 0.377806 -1.163362 5.89517
v -0.1183516 -1.232385 0.6977614
v -0.1183516 -1.163362 0.6977614
v 0.377806 -1.163362 5.89517
v 0.4464963 -1.146262 5.89879
v 0.4464963 1.146262 5.89879
v 0.377806 1.163362 5.89517
v -0.1183516 1.163362 0.6977614
v 0.377806 1.163362 5.89517
v 0.4464963 1.146262 5.89879
v -0.04966128 1.146262 0.7013818
v 0.7562904 -1.232385 5.984851
v 0.2534422 -1.232385 0.7173563
v -0.1183516 -1.232385 0.6977614
v 0.3844967 -1.232385 5.965257
v 0.3844967 1.232385 5.965257
v -0.1183516 1.232385 0.6977614
v 0.2534422 1.232385 0.7173561
v 0.7562904 1.232385 5.984851
v 0.4464963 -1.146262 5.89879
v -0.04966128 -1.146262 0.7013818
v -0.04966128 1.146262 0.7013818
v 0.4464963 1.146262 5.89879
v 0.377806 -1.163362 5.89517
v -0.1183516 -1.163362 0.6977614
v -0.04966128 -1.146262 0.7013818
v 0.4464963 -1.146262 5.89879
vt 0.01239796 0.389413
vt 0.01239788 0.759813
vt 0.1118011 0.759813
vt 0.1118012 0.3894131
vt 0.2474397 0.7865093
vt 0.2405105 0.2602042
vt 0.2405104 0.7865093
vt 0.2474398 0.2531068
vt 9.776179E-08 0.2531068
vt 0.006929297 0.2602042
vt 1.744731E-09 0.7865093
vt 0.006929185 0.7865093
vt 0.1123189 0.759813
vt 0.1190615 0.7580547
vt 0.1190616 0.522342
vt 0.112319 0.5205837
vt 0.1403237 0.263653
vt 0.1353365 0.7906077
vt 0.1421345 0.7916959
vt 0.1471215 0.264741
vt 0.5407087 0.2002964
vt 0.02134314 0.1951032
vt 0.01561575 0.2329088
vt 0.5349811 0.2381021
vt 0.543065 0.1571612
vt 0.02602626 0.1054612
vt 0.02794967 0.1436868
vt 0.5449882 0.1953866
vt 0.249852 0.263653
vt 0.249852 0.7813475
vt 0.4849148 0.7813475
vt 0.4849148 0.263653
vt 0.1687002 0.7900914
vt 0.1731476 0.263653
vt 0.1658103 0.2646202
vt 0.1613628 0.7910588
vn -0.05262961 0 0.9986141
vn -0.05262961 0 0.9986141
vn -0.05262961 0 0.9986141
vn -0.05262961 0 0.9986141
vn -0.9954744 0 0.09503047
vn -0.9954744 0 0.09503066
vn -0.9954744 0 0.09503047
vn -0.9954744 0 0.09503066
vn -0.9954744 0 0.09503064
vn -0.9954744 0 0.09503064
vn -0.9954744 0 0.09503042
vn -0.9954744 0 0.09503042
vn 0.05263345 0 -0.998614
vn 0.05263345 0 -0.998614
vn 0.05263345 0 -0.998614
vn 0.05263345 0 -0.998614
vn -0.2426502 -0.9698372 0.02316399
vn -0.2426502 -0.9698372 0.02316399
vn -0.2426502 -0.9698372 0.02316399
vn -0.2426502 -0.9698372 0.02316399
vn 0 -1 0
vn 0 -1 0
vn 0 -1 0
vn 0 -1 0
vn 0 1 0
vn 0 1 0
vn 0 1 0
vn 0 1 0
vn -0.9954744 0 0.09503046
vn -0.9954744 0 0.09503046
vn -0.9954744 0 0.09503046
vn -0.9954744 0 0.09503046
vn -0.2426502 0.9698372 0.02316407
vn -0.2426502 0.9698372 0.02316407
vn -0.2426502 0.9698372 0.02316407
vn -0.2426502 0.9698372 0.02316407
g WallOfSuperheroSuperGadgetry_0
f 3/3/3 2/2/2 1/1/1
f 4/4/4 3/3/3 1/1/1
f 7/7/7 6/6/6 5/5/5
f 6/6/6 8/8/8 5/5/5
f 8/8/8 6/6/6 9/9/9
f 6/6/6 10/10/10 9/9/9
f 9/9/9 10/10/10 11/11/11
f 10/10/10 12/12/12 11/11/11
f 15/15/15 14/14/14 13/13/13
f 16/16/16 15/15/15 13/13/13
f 19/19/19 18/18/18 17/17/17
f 20/20/20 19/19/19 17/17/17
f 23/23/23 22/22/22 21/21/21
f 24/24/24 23/23/23 21/21/21
f 27/27/27 26/26/26 25/25/25
f 28/28/28 27/27/27 25/25/25
f 31/31/31 30/30/30 29/29/29
f 32/32/32 31/31/31 29/29/29
f 35/35/35 34/34/34 33/33/33
f 36/36/36 35/35/35 33/33/33
