g WheelInner_1
v 3.196826 3.46262 -1.763887
v 3.196826 3.462859 -1.596514
v 3.285463 3.4619 -1.608131
v 3.242325 3.462149 -1.769851
v 3.151327 3.462149 -1.769851
v 3.36806 3.459106 -1.642194
v 3.284722 3.460777 -1.787338
v 3.108188 3.4619 -1.608131
v 3.108929 3.460777 -1.787338
v 3.438987 3.454715 -1.696387
v 3.321129 3.458609 -1.815157
v 3.025592 3.459106 -1.642194
v 3.072522 3.458609 -1.815157
v 3.493413 3.4491 -1.767026
v 3.349066 3.455814 -1.851414
v 2.954664 3.454715 -1.696387
v 3.044585 3.455814 -1.851415
v 3.527625 3.442718 -1.849297
v 3.366627 3.452607 -1.893641
v 2.900239 3.4491 -1.767026
v 3.027025 3.452607 -1.893641
v 3.539295 3.43607 -1.937594
v 3.372618 3.449221 -1.938963
v 2.866027 3.442718 -1.849297
v 3.021034 3.449221 -1.938963
v 3.527625 3.429638 -2.025913
v 3.366627 3.445894 -1.98429
v 2.854358 3.43607 -1.937594
v 3.027025 3.445894 -1.98429
v 3.493413 3.42383 -2.108245
v 3.349066 3.442846 -2.026534
v 2.866027 3.429638 -2.025913
v 3.044585 3.442846 -2.026534
v 3.438987 3.418977 -2.178962
v 3.321129 3.440267 -2.062814
v 2.900239 3.42383 -2.108245
v 3.072522 3.440267 -2.062814
v 3.36806 3.415334 -2.233234
v 3.284722 3.438313 -2.090656
v 2.954664 3.418977 -2.178962
v 3.108929 3.438313 -2.090656
v 3.285463 3.413079 -2.267352
v 3.242325 3.437095 -2.108158
v 3.025592 3.415334 -2.233234
v 3.151327 3.437095 -2.108158
v 3.196826 3.412317 -2.27899
v 3.196826 3.436681 -2.114128
v 3.108188 3.413079 -2.267353
v 3.438987 3.383963 -2.17546
v 3.493413 3.388343 -2.104635
v 3.36806 3.380778 -2.229822
v 3.285463 3.378851 -2.263999
v 3.527625 3.393793 -2.022208
v 3.196826 3.378207 -2.275655
v 3.108188 3.378851 -2.263999
v 3.539295 3.40009 -1.93385
v 3.025592 3.380778 -2.229822
v 3.527625 3.406877 -1.845542
v 2.954664 3.383963 -2.17546
v 3.493413 3.413625 -1.763251
v 2.900239 3.388343 -2.104635
v 3.438987 3.419723 -1.692604
v 2.866027 3.393793 -2.022208
v 3.36806 3.424577 -1.638416
v 2.854358 3.40009 -1.93385
v 3.285463 3.427703 -1.604364
v 2.866027 3.406877 -1.845542
v 3.196826 3.428782 -1.592752
v 2.900239 3.413625 -1.763251
v 3.108188 3.427703 -1.604364
v 2.954664 3.419723 -1.692604
v 3.025592 3.424577 -1.638416
vt 0.9489794 0.5926231
vt 0.9489794 0.611584
vt 0.9588086 0.6103045
vt 0.9540301 0.5918476
vt 0.9439288 0.5918476
vt 0.9681239 0.6066054
vt 0.9588098 0.5900173
vt 0.9391505 0.6103045
vt 0.9391493 0.5900173
vt 0.9762271 0.600628
vt 0.9629389 0.5870216
vt 0.9298353 0.6066053
vt 0.9350201 0.5870218
vt 0.9825257 0.5927432
vt 0.966134 0.5830629
vt 0.9217321 0.600628
vt 0.9318252 0.5830629
vt 0.9865654 0.5834667
vt 0.9681687 0.5784122
vt 0.9154336 0.5927432
vt 0.9297904 0.5784122
vt 0.9880283 0.5734158
vt 0.9688944 0.5733885
vt 0.9113937 0.5834667
vt 0.9290649 0.5733886
vt 0.9867117 0.5633342
vt 0.9682467 0.5683275
vt 0.9099309 0.5734158
vt 0.9297125 0.5683275
vt 0.9828128 0.5539658
vt 0.9662744 0.563583
vt 0.9112474 0.563334
vt 0.9316847 0.563583
vt 0.9766349 0.5459212
vt 0.9631168 0.5594801
vt 0.9151465 0.5539656
vt 0.9348424 0.55948
vt 0.9685938 0.5397186
vt 0.9589891 0.5562959
vt 0.9213244 0.545921
vt 0.9389702 0.5562959
vt 0.9591937 0.5357764
vt 0.9541675 0.5542473
vt 0.9293656 0.5397184
vt 0.9437918 0.5542473
vt 0.9489797 0.5344614
vt 0.9489797 0.553481
vt 0.9387657 0.5357764
vt 0.9797809 0.5429884
vt 0.9866676 0.551928
vt 0.9708387 0.5361012
vt 0.9603983 0.5316852
vt 0.9910235 0.5623587
vt 0.9489797 0.5300477
vt 0.9375611 0.5316851
vt 0.9925147 0.5736296
vt 0.9271206 0.536101
vt 0.9907554 0.5848452
vt 0.9181785 0.5429881
vt 0.9861583 0.5951138
vt 0.9112918 0.5519277
vt 0.9790851 0.6037886
vt 0.9069356 0.5623586
vt 0.9700584 0.6103123
vt 0.9054443 0.5736296
vt 0.9597473 0.6142843
vt 0.9072037 0.5848452
vt 0.9489794 0.6155268
vt 0.9118007 0.5951138
vt 0.9382116 0.6142842
vt 0.918874 0.6037884
vt 0.9279007 0.6103123
vn 0 -0.999999 0.001427666
vn -2.445211E-07 -0.9619702 -0.2731546
vn -0.09129701 -0.9606869 -0.2621938
vn -0.01995701 -0.9997937 0.003785779
vn 0.01995659 -0.9997937 0.003785813
vn -0.1774377 -0.9569539 -0.2296847
vn -0.03872285 -0.9991924 0.01072932
vn 0.0912971 -0.9606869 -0.2621938
vn 0.03872281 -0.9991924 0.01072906
vn -0.2530377 -0.9511546 -0.1768524
vn -0.05511541 -0.9982383 0.02196908
vn 0.1774383 -0.9569542 -0.2296829
vn 0.05511547 -0.9982383 0.02196885
vn -0.3126126 -0.9439208 -0.1062396
vn -0.06792857 -0.9970087 0.03686772
vn 0.253039 -0.9511542 -0.1768534
vn 0.06792943 -0.9970087 0.03686799
vn -0.3510797 -0.9360842 -0.02212688
vn -0.0761662 -0.9956045 0.05450227
vn 0.3126125 -0.9439208 -0.1062404
vn 0.07616626 -0.9956044 0.05450303
vn -0.3647436 -0.9285126 0.06947321
vn -0.07904033 -0.9941474 0.07364421
vn 0.3510818 -0.9360834 -0.02212742
vn 0.07904062 -0.9941474 0.07364421
vn -0.3521802 -0.921907 0.1614204
vn -0.07624592 -0.9927614 0.09279638
vn 0.3647425 -0.928513 0.06947318
vn 0.07624593 -0.9927616 0.09279585
vn -0.3145128 -0.9166928 0.2464874
vn -0.06806713 -0.9915421 0.110504
vn 0.3521822 -0.9219062 0.1614209
vn 0.06806785 -0.9915421 0.1105037
vn -0.2552136 -0.9129589 0.3183898
vn -0.05526148 -0.9905538 0.1254959
vn 0.314513 -0.9166926 0.2464881
vn 0.05526162 -0.9905538 0.1254961
vn -0.1793141 -0.9105441 0.3724993
vn -0.03886721 -0.9898342 0.136812
vn 0.2552149 -0.9129582 0.3183905
vn 0.03886716 -0.9898342 0.1368123
vn -0.09238213 -0.9092238 0.405928
vn -0.02003559 -0.9893993 0.1438321
vn 0.1793154 -0.910545 0.3724967
vn 0.02003504 -0.9893993 0.1438316
vn -1.378871E-06 -0.9088087 0.4172131
vn 0 -0.989255 0.1462002
vn 0.09238228 -0.9092235 0.4059288
vn -0.7092586 0.07014862 0.7014496
vn -0.8676603 0.05031753 0.4946047
vn -0.5020018 0.08497518 0.860682
vn -0.2600065 0.09415298 0.9610057
vn -0.9667013 0.02630729 0.2545516
vn 0 0.09729412 0.9952556
vn 0.2600069 0.09416995 0.9610038
vn -0.9999969 -0.0002568123 -0.002467788
vn 0.5020046 0.08497502 0.8606803
vn -0.9654628 -0.02714757 -0.2591225
vn 0.7092595 0.07014854 0.7014486
vn -0.8654911 -0.05299841 -0.4981127
vn 0.8676594 0.05031768 0.4946062
vn -0.7067046 -0.07605213 -0.7034093
vn 0.9667013 0.02630726 0.2545514
vn -0.4997414 -0.09421661 -0.8610352
vn 0.9999969 -0.0002567933 -0.002467601
vn -0.2586872 -0.105766 -0.9601533
vn 0.9654627 -0.02714761 -0.2591229
vn 0 -0.1097261 -0.9939619
vn 0.8654902 -0.05299647 -0.4981145
vn 0.2586874 -0.1057617 -0.9601539
vn 0.7067064 -0.07604588 -0.7034082
vn 0.4997456 -0.09421638 -0.8610328
g WheelInner_1_0
f 3/3/3 2/2/2 1/1/1
f 4/4/4 3/3/3 1/1/1
f 1/1/1 2/2/2 5/5/5
f 6/6/6 3/3/3 4/4/4
f 7/7/7 6/6/6 4/4/4
f 2/2/2 8/8/8 5/5/5
f 5/5/5 8/8/8 9/9/9
f 10/10/10 6/6/6 7/7/7
f 11/11/11 10/10/10 7/7/7
f 8/8/8 12/12/12 9/9/9
f 9/9/9 12/12/12 13/13/13
f 14/14/14 10/10/10 11/11/11
f 15/15/15 14/14/14 11/11/11
f 12/12/12 16/16/16 13/13/13
f 13/13/13 16/16/16 17/17/17
f 18/18/18 14/14/14 15/15/15
f 19/19/19 18/18/18 15/15/15
f 16/16/16 20/20/20 17/17/17
f 17/17/17 20/20/20 21/21/21
f 22/22/22 18/18/18 19/19/19
f 23/23/23 22/22/22 19/19/19
f 20/20/20 24/24/24 21/21/21
f 21/21/21 24/24/24 25/25/25
f 26/26/26 22/22/22 23/23/23
f 27/27/27 26/26/26 23/23/23
f 24/24/24 28/28/28 25/25/25
f 25/25/25 28/28/28 29/29/29
f 30/30/30 26/26/26 27/27/27
f 31/31/31 30/30/30 27/27/27
f 28/28/28 32/32/32 29/29/29
f 29/29/29 32/32/32 33/33/33
f 34/34/34 30/30/30 31/31/31
f 35/35/35 34/34/34 31/31/31
f 32/32/32 36/36/36 33/33/33
f 33/33/33 36/36/36 37/37/37
f 38/38/38 34/34/34 35/35/35
f 39/39/39 38/38/38 35/35/35
f 36/36/36 40/40/40 37/37/37
f 37/37/37 40/40/40 41/41/41
f 42/42/42 38/38/38 39/39/39
f 43/43/43 42/42/42 39/39/39
f 40/40/40 44/44/44 41/41/41
f 41/41/41 44/44/44 45/45/45
f 46/46/46 42/42/42 43/43/43
f 47/47/47 46/46/46 43/43/43
f 45/45/45 48/48/48 47/47/47
f 44/44/44 48/48/48 45/45/45
f 48/48/48 46/46/46 47/47/47
f 34/34/34 38/38/38 49/49/49
f 34/34/34 49/49/49 50/50/50
f 38/38/38 51/51/51 49/49/49
f 38/38/38 42/42/42 51/51/51
f 30/30/30 34/34/34 50/50/50
f 42/42/42 52/52/52 51/51/51
f 42/42/42 46/46/46 52/52/52
f 30/30/30 50/50/50 53/53/53
f 46/46/46 54/54/54 52/52/52
f 46/46/46 48/48/48 54/54/54
f 26/26/26 30/30/30 53/53/53
f 48/48/48 55/55/55 54/54/54
f 48/48/48 44/44/44 55/55/55
f 26/26/26 53/53/53 56/56/56
f 44/44/44 57/57/57 55/55/55
f 22/22/22 26/26/26 56/56/56
f 44/44/44 40/40/40 57/57/57
f 22/22/22 56/56/56 58/58/58
f 40/40/40 59/59/59 57/57/57
f 18/18/18 22/22/22 58/58/58
f 40/40/40 36/36/36 59/59/59
f 18/18/18 58/58/58 60/60/60
f 36/36/36 61/61/61 59/59/59
f 14/14/14 18/18/18 60/60/60
f 36/36/36 32/32/32 61/61/61
f 14/14/14 60/60/60 62/62/62
f 32/32/32 63/63/63 61/61/61
f 10/10/10 14/14/14 62/62/62
f 32/32/32 28/28/28 63/63/63
f 10/10/10 62/62/62 64/64/64
f 28/28/28 65/65/65 63/63/63
f 6/6/6 10/10/10 64/64/64
f 28/28/28 24/24/24 65/65/65
f 6/6/6 64/64/64 66/66/66
f 24/24/24 67/67/67 65/65/65
f 3/3/3 6/6/6 66/66/66
f 24/24/24 20/20/20 67/67/67
f 3/3/3 66/66/66 68/68/68
f 20/20/20 69/69/69 67/67/67
f 2/2/2 3/3/3 68/68/68
f 20/20/20 16/16/16 69/69/69
f 2/2/2 68/68/68 70/70/70
f 16/16/16 71/71/71 69/69/69
f 8/8/8 2/2/2 70/70/70
f 16/16/16 12/12/12 71/71/71
f 8/8/8 70/70/70 72/72/72
f 12/12/12 72/72/72 71/71/71
f 12/12/12 8/8/8 72/72/72
