g WheelOuter_4
v -2.536596 -0.2826826 -1.667692
v -2.609995 -0.3268772 -1.691399
v -2.609995 -0.2834622 -1.658059
v -2.544285 -0.3263153 -1.700047
v -2.4682 -0.2803859 -1.695935
v -2.675703 -0.3263152 -1.700048
v -2.683393 -0.2826825 -1.667692
v -2.483055 -0.3246357 -1.725405
v -2.409467 -0.276697 -1.74086
v -2.736934 -0.3246356 -1.725405
v -2.75179 -0.2803859 -1.695935
v -2.430475 -0.3218605 -1.765734
v -2.364399 -0.2718204 -1.799401
v -2.789514 -0.3218605 -1.765734
v -2.810522 -0.276697 -1.74086
v -2.390129 -0.3180405 -1.81827
v -2.336068 -0.2660355 -1.867562
v -2.829861 -0.3180405 -1.81827
v -2.85559 -0.2718204 -1.799401
v -2.364766 -0.3132777 -1.879398
v -2.326406 -0.2596909 -1.94069
v -2.855223 -0.3132776 -1.879398
v -2.88392 -0.2660355 -1.867562
v -2.356115 -0.3077561 -1.94491
v -2.336068 -0.253197 -2.013805
v -2.863874 -0.307756 -1.94491
v -2.893584 -0.2596909 -1.94069
v -2.364767 -0.3017787 -2.010382
v -2.364399 -0.2470173 -2.081931
v -2.855223 -0.3017787 -2.010382
v -2.88392 -0.253197 -2.013805
v -2.390129 -0.2958182 -2.071404
v -2.409467 -0.2416195 -2.140427
v -2.82986 -0.2958182 -2.071404
v -2.85559 -0.2470173 -2.081931
v -2.430475 -0.290426 -2.123801
v -2.4682 -0.2374245 -2.185308
v -2.789514 -0.290426 -2.123802
v -2.810522 -0.2416195 -2.140427
v -2.483055 -0.286132 -2.163999
v -2.536596 -0.2347651 -2.213518
v -2.736934 -0.2861318 -2.163999
v -2.75179 -0.2374244 -2.185308
v -2.544285 -0.2833677 -2.18926
v -2.609995 -0.2338542 -2.22314
v -2.675703 -0.2833677 -2.18926
v -2.683393 -0.2347651 -2.213518
v -2.609995 -0.282414 -2.197875
v -2.793637 -0.3293474 -2.053466
v -2.759939 -0.324651 -2.097326
v -2.716021 -0.3208741 -2.130983
v -2.664878 -0.3184275 -2.152137
v -2.609995 -0.3175808 -2.159351
v -2.555112 -0.3184276 -2.152137
v -2.814822 -0.3344694 -2.002417
v -2.503968 -0.3208741 -2.130983
v -2.822047 -0.3395154 -1.947698
v -2.460051 -0.3246509 -2.097326
v -2.814822 -0.3440804 -1.892938
v -2.426352 -0.3293475 -2.053466
v -2.793637 -0.3479316 -1.841776
v -2.405168 -0.3344694 -2.002417
v -2.759939 -0.3509488 -1.797768
v -2.397942 -0.3395154 -1.947698
v -2.716021 -0.353094 -1.763968
v -2.405168 -0.3440804 -1.892938
v -2.664878 -0.3543707 -1.742711
v -2.426352 -0.3479316 -1.841776
v -2.609995 -0.3547939 -1.73546
v -2.460051 -0.3509488 -1.797768
v -2.555111 -0.3543707 -1.742711
v -2.503968 -0.353094 -1.763968
v -2.691434 -0.37359 -1.808425
v -2.652151 -0.3745863 -1.792045
v -2.609995 -0.4016264 -1.953151
v -2.725167 -0.3719167 -1.834458
v -2.609995 -0.3749165 -1.786456
v -2.751052 -0.3695674 -1.868333
v -2.567838 -0.3745864 -1.792045
v -2.767323 -0.3665809 -1.907683
v -2.528555 -0.3735901 -1.808425
v -2.772873 -0.363062 -1.949765
v -2.494822 -0.3719166 -1.834458
v -2.767323 -0.3591949 -1.991816
v -2.468938 -0.3695672 -1.868333
v -2.751051 -0.3552795 -2.031085
v -2.452667 -0.3665809 -1.907683
v -2.725167 -0.3516907 -2.064851
v -2.447116 -0.363062 -1.949764
v -2.691434 -0.3488025 -2.090778
v -2.452667 -0.359195 -1.991816
v -2.652151 -0.3469297 -2.10708
v -2.468938 -0.3552795 -2.031085
v -2.609995 -0.3462809 -2.112641
v -2.494822 -0.3516907 -2.064851
v -2.567838 -0.3469297 -2.10708
v -2.528555 -0.3488025 -2.090778
vt 0.1314683 0.9238812
vt 0.1226852 0.9193086
vt 0.1226852 0.9250551
vt 0.1299603 0.918325
vt 0.1396432 0.9204437
vt 0.1154103 0.918325
vt 0.113902 0.9238812
vt 0.1367219 0.9154465
vt 0.1466484 0.914987
vt 0.1086487 0.9154465
vt 0.1057273 0.9204437
vt 0.142502 0.9108872
vt 0.1520089 0.9078951
vt 0.1028684 0.9108872
vt 0.09872237 0.914987
vt 0.1469132 0.9049739
vt 0.1553686 0.8996686
vt 0.09845734 0.9049739
vt 0.0933618 0.9078951
vt 0.1496767 0.8981141
vt 0.1565966 0.8908297
vt 0.09569361 0.8981141
vt 0.09000202 0.8996686
vt 0.1506677 0.890785
vt 0.1554518 0.8819476
vt 0.09470262 0.890785
vt 0.08877383 0.8908297
vt 0.149735 0.8834494
vt 0.1520835 0.8736733
vt 0.09563553 0.8834494
vt 0.08991844 0.8819476
vt 0.1469768 0.8765784
vt 0.1467127 0.8665531
vt 0.0983936 0.8765787
vt 0.09328719 0.8736737
vt 0.1425597 0.8706447
vt 0.1396928 0.8610734
vt 0.1028108 0.870645
vt 0.09865757 0.8665534
vt 0.1367664 0.8660652
vt 0.1314959 0.8576192
vt 0.1086038 0.8660652
vt 0.1056776 0.8610736
vt 0.1299845 0.8631722
vt 0.1226852 0.8564392
vt 0.1153859 0.8631725
vt 0.1138748 0.8576194
vt 0.1226852 0.8621832
vt 0.1030215 0.8792105
vt 0.1066085 0.8743876
vt 0.1113037 0.870672
vt 0.1167889 0.86833
vt 0.1226852 0.8675297
vt 0.1285812 0.8683298
vt 0.1007787 0.8848011
vt 0.1340667 0.870672
vt 0.1000249 0.8907731
vt 0.1387616 0.8743873
vt 0.1008126 0.8967417
vt 0.1423491 0.8792102
vt 0.1030688 0.9023241
vt 0.1445921 0.8848011
vt 0.1066565 0.9071322
vt 0.1453458 0.8907731
vt 0.1113419 0.910831
vt 0.144558 0.8967417
vt 0.1168101 0.913161
vt 0.1423016 0.9023241
vt 0.1226852 0.9139565
vt 0.1387144 0.9071322
vt 0.1285602 0.913161
vt 0.1340288 0.910831
vt 0.1141167 0.9060159
vt 0.1182544 0.9077645
vt 0.1226852 0.8907354
vt 0.1105498 0.9032264
vt 0.1226852 0.9083595
vt 0.1077992 0.8995792
vt 0.1271161 0.9077645
vt 0.1060594 0.8953246
vt 0.1312539 0.9060159
vt 0.1054564 0.8907627
vt 0.1348207 0.9032264
vt 0.1060393 0.8861993
vt 0.1375712 0.8995792
vt 0.1077662 0.8819382
vt 0.1393113 0.8953246
vt 0.1105138 0.8782797
vt 0.1399144 0.8907627
vt 0.1140864 0.8754773
vt 0.1393315 0.8861993
vt 0.1182375 0.873719
vt 0.1376043 0.8819382
vt 0.1226852 0.87312
vt 0.1348567 0.8782797
vt 0.1271331 0.873719
vt 0.1312842 0.8754773
vn 0.2177866 -0.6058133 0.7652184
vn -4.649628E-06 -0.7197552 0.6942279
vn -4.378958E-07 -0.6090577 0.7931259
vn 0.1923869 -0.7171772 0.669809
vn 0.4216402 -0.5964183 0.6830115
vn -0.1923868 -0.7171794 0.6698067
vn -0.2177853 -0.6058233 0.7652109
vn 0.3732424 -0.7096363 0.5975839
vn 0.5980755 -0.5817818 0.551213
vn -0.3732377 -0.7096363 0.5975869
vn -0.4216396 -0.5964202 0.6830102
vn 0.5309734 -0.6976796 0.4809476
vn 0.7347947 -0.5632931 0.3778594
vn -0.5309736 -0.6976779 0.4809498
vn -0.5980763 -0.5817804 0.5512134
vn 0.6543835 -0.6821959 0.3261763
vn 0.8216344 -0.5427495 0.1741835
vn -0.6543846 -0.6821962 0.3261734
vn -0.7347966 -0.5632914 0.3778583
vn 0.7335607 -0.6644667 0.1427331
vn 0.8515221 -0.5223098 -0.04585366
vn -0.7335676 -0.6644593 0.1427317
vn -0.8216351 -0.5427483 0.1741836
vn 0.7610279 -0.6462334 -0.05673457
vn 0.821633 -0.5041019 -0.2660833
vn -0.7610282 -0.6462334 -0.05673137
vn -0.8515179 -0.5223166 -0.04585438
vn 0.7335616 -0.6294323 -0.2563247
vn 0.7347941 -0.4888431 -0.4702235
vn -0.7335691 -0.6294234 -0.2563254
vn -0.8216374 -0.5040944 -0.2660845
vn 0.6543826 -0.61493 -0.4400505
vn 0.5980709 -0.4768534 -0.6441444
vn -0.6543806 -0.6149329 -0.4400495
vn -0.7347926 -0.4888484 -0.4702201
vn 0.5309736 -0.603214 -0.5951469
vn 0.4216372 -0.4682925 -0.776482
vn -0.5309761 -0.6032115 -0.5951473
vn -0.5980725 -0.4768504 -0.6441452
vn 0.3732418 -0.5946622 -0.7120867
vn 0.2177804 -0.4632254 -0.8590657
vn -0.3732437 -0.5946624 -0.7120855
vn -0.4216371 -0.4682941 -0.776481
vn 0.1923848 -0.5895047 -0.7845204
vn 3.961927E-07 -0.4615466 -0.887116
vn -0.1923845 -0.5895026 -0.7845221
vn -0.2177833 -0.4632165 -0.8590698
vn 4.469355E-06 -0.5877848 -0.8090174
vn -0.4601711 -0.8158005 -0.350303
vn -0.3729395 -0.8051375 -0.4611611
vn -0.261898 -0.7968932 -0.5443993
vn -0.1349123 -0.7917001 -0.5958268
vn -3.484347E-07 -0.7899258 -0.6132025
vn 0.1349119 -0.7916976 -0.5958303
vn -0.5164572 -0.8280436 -0.2182104
vn 0.2618982 -0.7968938 -0.5443983
vn -0.536078 -0.8409343 -0.073824
vn 0.3729379 -0.8051366 -0.4611643
vn -0.5164584 -0.8533973 0.07059591
vn 0.4601731 -0.8158005 -0.3502999
vn -0.4601722 -0.8643572 0.2028009
vn 0.5164542 -0.8280465 -0.2182067
vn -0.3729363 -0.8731737 0.3138251
vn 0.5360752 -0.840936 -0.07382435
vn -0.2618984 -0.8795575 0.3972248
vn 0.5164519 -0.8534017 0.07059144
vn -0.1349165 -0.8834009 0.4487766
vn 0.4601749 -0.8643566 0.2027974
vn 1.493291E-07 -0.8846841 0.4661908
vn 0.3729346 -0.8731738 0.3138267
vn 0.1349151 -0.8834029 0.4487731
vn 0.2618994 -0.8795577 0.3972241
vn -0.1596809 -0.9636573 0.2141651
vn -0.08221661 -0.9656765 0.2463923
vn 0 -0.9961687 -0.08745278
vn -0.2275342 -0.9602186 0.1618899
vn -1.723025E-06 -0.9663404 0.2572669
vn -0.2809381 -0.9552993 0.09207149
vn 0.08221549 -0.9656765 0.246393
vn -0.3154019 -0.9489186 0.008675448
vn 0.1596814 -0.9636574 0.214164
vn -0.3274176 -0.9412596 -0.08263227
vn 0.2275402 -0.9602175 0.1618883
vn -0.3154004 -0.9328926 -0.1738795
vn 0.2809353 -0.9553005 0.09206734
vn -0.2809364 -0.9246454 -0.2571102
vn 0.315404 -0.9489178 0.008679521
vn -0.2275372 -0.9173245 -0.3267149
vn 0.3274172 -0.9412599 -0.08263112
vn -0.15968 -0.9116019 -0.3787931
vn 0.3154035 -0.9328917 -0.1738786
vn -0.08221328 -0.9079759 -0.4108781
vn 0.2809353 -0.9246464 -0.2571074
vn -1.089735E-07 -0.9067339 -0.4217031
vn 0.22754 -0.9173234 -0.3267161
vn 0.08221323 -0.9079759 -0.4108779
vn 0.1596787 -0.911602 -0.3787934
g WheelOuter_4_0
f 3/3/3 2/2/2 1/1/1
f 2/2/2 4/4/4 1/1/1
f 1/1/1 4/4/4 5/5/5
f 6/6/6 2/2/2 3/3/3
f 7/7/7 6/6/6 3/3/3
f 4/4/4 8/8/8 5/5/5
f 5/5/5 8/8/8 9/9/9
f 10/10/10 6/6/6 7/7/7
f 11/11/11 10/10/10 7/7/7
f 8/8/8 12/12/12 9/9/9
f 9/9/9 12/12/12 13/13/13
f 14/14/14 10/10/10 11/11/11
f 15/15/15 14/14/14 11/11/11
f 12/12/12 16/16/16 13/13/13
f 13/13/13 16/16/16 17/17/17
f 18/18/18 14/14/14 15/15/15
f 19/19/19 18/18/18 15/15/15
f 16/16/16 20/20/20 17/17/17
f 17/17/17 20/20/20 21/21/21
f 22/22/22 18/18/18 19/19/19
f 23/23/23 22/22/22 19/19/19
f 20/20/20 24/24/24 21/21/21
f 21/21/21 24/24/24 25/25/25
f 26/26/26 22/22/22 23/23/23
f 27/27/27 26/26/26 23/23/23
f 24/24/24 28/28/28 25/25/25
f 25/25/25 28/28/28 29/29/29
f 30/30/30 26/26/26 27/27/27
f 31/31/31 30/30/30 27/27/27
f 28/28/28 32/32/32 29/29/29
f 29/29/29 32/32/32 33/33/33
f 34/34/34 30/30/30 31/31/31
f 35/35/35 34/34/34 31/31/31
f 32/32/32 36/36/36 33/33/33
f 33/33/33 36/36/36 37/37/37
f 38/38/38 34/34/34 35/35/35
f 39/39/39 38/38/38 35/35/35
f 36/36/36 40/40/40 37/37/37
f 37/37/37 40/40/40 41/41/41
f 42/42/42 38/38/38 39/39/39
f 43/43/43 42/42/42 39/39/39
f 40/40/40 44/44/44 41/41/41
f 41/41/41 44/44/44 45/45/45
f 46/46/46 42/42/42 43/43/43
f 47/47/47 46/46/46 43/43/43
f 45/45/45 48/48/48 47/47/47
f 44/44/44 48/48/48 45/45/45
f 48/48/48 46/46/46 47/47/47
f 34/34/34 38/38/38 49/49/49
f 38/38/38 42/42/42 50/50/50
f 38/38/38 50/50/50 49/49/49
f 42/42/42 46/46/46 51/51/51
f 42/42/42 51/51/51 50/50/50
f 46/46/46 48/48/48 52/52/52
f 46/46/46 52/52/52 51/51/51
f 48/48/48 44/44/44 53/53/53
f 48/48/48 53/53/53 52/52/52
f 44/44/44 40/40/40 54/54/54
f 44/44/44 54/54/54 53/53/53
f 34/34/34 49/49/49 55/55/55
f 30/30/30 34/34/34 55/55/55
f 40/40/40 56/56/56 54/54/54
f 40/40/40 36/36/36 56/56/56
f 30/30/30 55/55/55 57/57/57
f 26/26/26 30/30/30 57/57/57
f 36/36/36 58/58/58 56/56/56
f 36/36/36 32/32/32 58/58/58
f 26/26/26 57/57/57 59/59/59
f 22/22/22 26/26/26 59/59/59
f 32/32/32 60/60/60 58/58/58
f 32/32/32 28/28/28 60/60/60
f 22/22/22 59/59/59 61/61/61
f 18/18/18 22/22/22 61/61/61
f 28/28/28 62/62/62 60/60/60
f 28/28/28 24/24/24 62/62/62
f 18/18/18 61/61/61 63/63/63
f 14/14/14 18/18/18 63/63/63
f 24/24/24 64/64/64 62/62/62
f 24/24/24 20/20/20 64/64/64
f 14/14/14 63/63/63 65/65/65
f 10/10/10 14/14/14 65/65/65
f 20/20/20 66/66/66 64/64/64
f 20/20/20 16/16/16 66/66/66
f 10/10/10 65/65/65 67/67/67
f 6/6/6 10/10/10 67/67/67
f 16/16/16 68/68/68 66/66/66
f 16/16/16 12/12/12 68/68/68
f 6/6/6 67/67/67 69/69/69
f 2/2/2 6/6/6 69/69/69
f 12/12/12 70/70/70 68/68/68
f 12/12/12 8/8/8 70/70/70
f 2/2/2 69/69/69 71/71/71
f 4/4/4 2/2/2 71/71/71
f 8/8/8 4/4/4 72/72/72
f 8/8/8 72/72/72 70/70/70
f 4/4/4 71/71/71 72/72/72
f 65/65/65 73/73/73 67/67/67
f 67/67/67 74/74/74 69/69/69
f 73/73/73 74/74/74 67/67/67
f 75/75/75 74/74/74 73/73/73
f 76/76/76 73/73/73 65/65/65
f 75/75/75 73/73/73 76/76/76
f 63/63/63 76/76/76 65/65/65
f 74/74/74 77/77/77 69/69/69
f 69/69/69 77/77/77 71/71/71
f 75/75/75 77/77/77 74/74/74
f 78/78/78 76/76/76 63/63/63
f 75/75/75 76/76/76 78/78/78
f 61/61/61 78/78/78 63/63/63
f 77/77/77 79/79/79 71/71/71
f 71/71/71 79/79/79 72/72/72
f 75/75/75 79/79/79 77/77/77
f 80/80/80 78/78/78 61/61/61
f 75/75/75 78/78/78 80/80/80
f 59/59/59 80/80/80 61/61/61
f 79/79/79 81/81/81 72/72/72
f 75/75/75 81/81/81 79/79/79
f 75/75/75 80/80/80 82/82/82
f 82/82/82 80/80/80 59/59/59
f 75/75/75 83/83/83 81/81/81
f 72/72/72 81/81/81 70/70/70
f 81/81/81 83/83/83 70/70/70
f 57/57/57 82/82/82 59/59/59
f 70/70/70 83/83/83 68/68/68
f 84/84/84 82/82/82 57/57/57
f 75/75/75 82/82/82 84/84/84
f 55/55/55 84/84/84 57/57/57
f 83/83/83 85/85/85 68/68/68
f 75/75/75 85/85/85 83/83/83
f 68/68/68 85/85/85 66/66/66
f 86/86/86 84/84/84 55/55/55
f 75/75/75 84/84/84 86/86/86
f 49/49/49 86/86/86 55/55/55
f 85/85/85 87/87/87 66/66/66
f 75/75/75 87/87/87 85/85/85
f 66/66/66 87/87/87 64/64/64
f 88/88/88 86/86/86 49/49/49
f 75/75/75 86/86/86 88/88/88
f 50/50/50 88/88/88 49/49/49
f 87/87/87 89/89/89 64/64/64
f 75/75/75 89/89/89 87/87/87
f 75/75/75 88/88/88 90/90/90
f 90/90/90 88/88/88 50/50/50
f 75/75/75 91/91/91 89/89/89
f 64/64/64 89/89/89 62/62/62
f 89/89/89 91/91/91 62/62/62
f 51/51/51 90/90/90 50/50/50
f 62/62/62 91/91/91 60/60/60
f 92/92/92 90/90/90 51/51/51
f 75/75/75 90/90/90 92/92/92
f 52/52/52 92/92/92 51/51/51
f 91/91/91 93/93/93 60/60/60
f 75/75/75 93/93/93 91/91/91
f 60/60/60 93/93/93 58/58/58
f 94/94/94 92/92/92 52/52/52
f 75/75/75 92/92/92 94/94/94
f 53/53/53 94/94/94 52/52/52
f 93/93/93 95/95/95 58/58/58
f 75/75/75 95/95/95 93/93/93
f 58/58/58 95/95/95 56/56/56
f 96/96/96 94/94/94 53/53/53
f 75/75/75 94/94/94 96/96/96
f 54/54/54 96/96/96 53/53/53
f 95/95/95 97/97/97 56/56/56
f 75/75/75 97/97/97 95/95/95
f 75/75/75 96/96/96 97/97/97
f 97/97/97 96/96/96 54/54/54
f 56/56/56 97/97/97 54/54/54
