g WheelInner_5
v -2.609995 3.385878 -1.780905
v -2.609995 3.387091 -1.631283
v -2.53071 3.386077 -1.641675
v -2.569297 3.38538 -1.78624
v -2.650692 3.38538 -1.78624
v -2.45683 3.383124 -1.672143
v -2.531374 3.383924 -1.801881
v -2.689279 3.386077 -1.641675
v -2.688616 3.383924 -1.801881
v -2.393386 3.378482 -1.720618
v -2.498808 3.381625 -1.826765
v -2.76316 3.383124 -1.672143
v -2.721181 3.381625 -1.826765
v -2.344705 3.37254 -1.783802
v -2.473819 3.378663 -1.859196
v -2.826603 3.378482 -1.720618
v -2.74617 3.378663 -1.859196
v -2.314102 3.365784 -1.857392
v -2.458111 3.375262 -1.896967
v -2.875284 3.37254 -1.783802
v -2.761878 3.375262 -1.896967
v -2.303665 3.35874 -1.936371
v -2.452753 3.371671 -1.937506
v -2.905887 3.365784 -1.857392
v -2.767236 3.371671 -1.937506
v -2.314102 3.351916 -2.015369
v -2.458111 3.368143 -1.97805
v -2.916325 3.35874 -1.936371
v -2.761878 3.368143 -1.97805
v -2.344705 3.345747 -2.089011
v -2.473819 3.364911 -2.015836
v -2.905887 3.351916 -2.015369
v -2.746169 3.364911 -2.015836
v -2.393386 3.340588 -2.152263
v -2.498808 3.362178 -2.048288
v -2.875284 3.345747 -2.089011
v -2.721181 3.362178 -2.048288
v -2.45683 3.336713 -2.200806
v -2.531374 3.360106 -2.073191
v -2.826603 3.340588 -2.152263
v -2.688615 3.360106 -2.073191
v -2.53071 3.334313 -2.231323
v -2.569297 3.358814 -2.088847
v -2.76316 3.336713 -2.200806
v -2.650692 3.358814 -2.088847
v -2.609995 3.3335 -2.241732
v -2.609995 3.358375 -2.094187
v -2.689279 3.334313 -2.231323
v -2.393386 3.302477 -2.149048
v -2.344705 3.307121 -2.085696
v -2.45683 3.299101 -2.197673
v -2.53071 3.297057 -2.228243
v -2.314102 3.3129 -2.011968
v -2.609995 3.296374 -2.23867
v -2.689279 3.297057 -2.228243
v -2.303665 3.319576 -1.932933
v -2.76316 3.299101 -2.197673
v -2.314102 3.326773 -1.853944
v -2.826603 3.302477 -2.149048
v -2.344705 3.333928 -1.780337
v -2.875284 3.307121 -2.085696
v -2.393386 3.340393 -1.717144
v -2.905887 3.3129 -2.011968
v -2.45683 3.345541 -1.668674
v -2.916325 3.319576 -1.932933
v -2.53071 3.348855 -1.638215
v -2.905887 3.326773 -1.853944
v -2.609995 3.349999 -1.627829
v -2.875284 3.333928 -1.780337
v -2.689279 3.348855 -1.638215
v -2.826603 3.340393 -1.717144
v -2.76316 3.345541 -1.668674
vt 0.7673807 0.5286598
vt 0.7673805 0.5442701
vt 0.7757542 0.5431818
vt 0.7715887 0.5280234
vt 0.7631725 0.5280234
vt 0.7834501 0.5398974
vt 0.7754917 0.5263292
vt 0.759007 0.5431817
vt 0.7592695 0.5263292
vt 0.79 0.5347464
vt 0.7788152 0.5237013
vt 0.7513111 0.5398973
vt 0.7559459 0.5237012
vt 0.7949973 0.5281003
vt 0.7813323 0.520321
vt 0.7447612 0.5347462
vt 0.7534289 0.5203208
vt 0.7981395 0.5204174
vt 0.7828701 0.5164165
vt 0.7397639 0.5281001
vt 0.7518911 0.5164165
vt 0.7992896 0.5122437
vt 0.7833195 0.5122437
vt 0.7366217 0.5204173
vt 0.7514416 0.5122437
vt 0.7981393 0.5040699
vt 0.7828701 0.5080708
vt 0.7354715 0.5122437
vt 0.7518913 0.5080708
vt 0.7949972 0.496387
vt 0.7813321 0.5041665
vt 0.7366217 0.5040699
vt 0.753429 0.5041665
vt 0.7899998 0.4897411
vt 0.7788152 0.5007862
vt 0.739764 0.496387
vt 0.7559459 0.5007862
vt 0.7834498 0.4845902
vt 0.7754916 0.4981582
vt 0.7447613 0.4897411
vt 0.7592695 0.4981582
vt 0.775754 0.4813059
vt 0.7715886 0.4964642
vt 0.7513112 0.4845902
vt 0.7631725 0.4964642
vt 0.7673807 0.4802175
vt 0.7673805 0.4958276
vt 0.7590071 0.4813059
vt 0.7931324 0.4867703
vt 0.7988226 0.4942942
vt 0.7856914 0.4809422
vt 0.776962 0.4771835
vt 0.8023816 0.5030003
vt 0.7673807 0.4757702
vt 0.757799 0.4771835
vt 0.8035933 0.5122437
vt 0.7490697 0.4809422
vt 0.8023818 0.5214869
vt 0.7416289 0.4867702
vt 0.7988227 0.5301932
vt 0.7359385 0.4942942
vt 0.7931325 0.5377173
vt 0.7323793 0.5030003
vt 0.7856916 0.5435454
vt 0.7311679 0.5122437
vt 0.776962 0.5473042
vt 0.7323793 0.5214869
vt 0.7673805 0.5487172
vt 0.7359385 0.530193
vt 0.7577989 0.5473041
vt 0.7416287 0.5377172
vt 0.7490696 0.5435451
vn 0 -0.9999672 0.008103242
vn 0 -0.9472306 -0.3205529
vn -0.1066799 -0.9454987 -0.307655
vn -0.02200072 -0.9997008 0.01069665
vn 0.0220006 -0.9997008 0.01069664
vn -0.2071362 -0.9404789 -0.2694327
vn -0.04265705 -0.9989213 0.01835114
vn 0.10668 -0.9454987 -0.3076548
vn 0.04265717 -0.9989213 0.01835111
vn -0.2949852 -0.9327015 -0.207489
vn -0.06063888 -0.9976882 0.0306803
vn 0.2071367 -0.9404789 -0.2694326
vn 0.06063916 -0.9976882 0.03068067
vn -0.3638183 -0.9230472 -0.1249801
vn -0.07467818 -0.9960995 0.04699956
vn 0.2949879 -0.9327006 -0.2074887
vn 0.07467827 -0.9960995 0.04699985
vn -0.4078453 -0.9126503 -0.02704963
vn -0.08364792 -0.9942889 0.06627551
vn 0.3638181 -0.9230472 -0.1249803
vn 0.08364768 -0.994289 0.06627525
vn -0.4230039 -0.9026561 0.07924378
vn -0.08673888 -0.9924142 0.08712328
vn 0.4078444 -0.9126507 -0.02705141
vn 0.0867387 -0.9924139 0.08712699
vn -0.4078454 -0.8939778 0.1856498
vn -0.08364764 -0.9906276 0.1079812
vn 0.4230041 -0.9026561 0.07924378
vn 0.08364525 -0.9906278 0.1079816
vn -0.3638174 -0.8871534 0.2838937
vn -0.07467576 -0.9890526 0.1272734
vn 0.4078423 -0.893979 0.1856511
vn 0.07467753 -0.989053 0.1272699
vn -0.2949843 -0.8822843 0.3668224
vn -0.06063924 -0.9877736 0.1436182
vn 0.3638167 -0.8871533 0.2838949
vn 0.06063969 -0.9877736 0.143618
vn -0.2071374 -0.8791474 0.4291783
vn -0.04265592 -0.9868395 0.1559755
vn 0.2949844 -0.8822846 0.3668214
vn 0.04265571 -0.9868395 0.1559753
vn -0.1066792 -0.8774326 0.4676874
vn -0.02199701 -0.9862731 0.1636503
vn 0.2071383 -0.8791475 0.4291777
vn 0.02199724 -0.9862731 0.1636502
vn 0 -0.8768898 0.4806914
vn 0 -0.986084 0.1662479
vn 0.1066795 -0.8774323 0.467688
vn -0.7086594 0.05931725 0.7030529
vn -0.866992 0.0426169 0.4964963
vn -0.501594 0.07180644 0.8621179
vn -0.2598124 0.0795425 0.9623775
vn -0.9662076 0.02238482 0.2567913
vn 0 0.08220002 0.9966158
vn 0.2598126 0.0795425 0.9623775
vn -1 0 -3.910211E-07
vn 0.5015961 0.07180633 0.8621166
vn -0.9662079 -0.02269597 -0.2567631
vn 0.7086607 0.05931713 0.7030515
vn -0.8669931 -0.04454084 -0.4963256
vn 0.8669904 0.04261714 0.4964991
vn -0.7086616 -0.06407457 -0.7026331
vn 0.9662064 0.02238522 0.2567957
vn -0.5015934 -0.07951222 -0.8614418
vn 1 0 -3.861333E-07
vn -0.2598121 -0.089357 -0.961516
vn 0.9662064 -0.02269643 -0.2567682
vn 0 -0.09272298 -0.995692
vn 0.8669915 -0.04454108 -0.4963283
vn 0.2598124 -0.08935698 -0.9615159
vn 0.708663 -0.06406876 -0.7026322
vn 0.5015957 -0.07951209 -0.8614404
g WheelInner_5_0
f 3/3/3 2/2/2 1/1/1
f 4/4/4 3/3/3 1/1/1
f 1/1/1 2/2/2 5/5/5
f 6/6/6 3/3/3 4/4/4
f 7/7/7 6/6/6 4/4/4
f 2/2/2 8/8/8 5/5/5
f 5/5/5 8/8/8 9/9/9
f 10/10/10 6/6/6 7/7/7
f 11/11/11 10/10/10 7/7/7
f 8/8/8 12/12/12 9/9/9
f 9/9/9 12/12/12 13/13/13
f 14/14/14 10/10/10 11/11/11
f 15/15/15 14/14/14 11/11/11
f 12/12/12 16/16/16 13/13/13
f 13/13/13 16/16/16 17/17/17
f 18/18/18 14/14/14 15/15/15
f 19/19/19 18/18/18 15/15/15
f 16/16/16 20/20/20 17/17/17
f 17/17/17 20/20/20 21/21/21
f 22/22/22 18/18/18 19/19/19
f 23/23/23 22/22/22 19/19/19
f 20/20/20 24/24/24 21/21/21
f 21/21/21 24/24/24 25/25/25
f 26/26/26 22/22/22 23/23/23
f 27/27/27 26/26/26 23/23/23
f 24/24/24 28/28/28 25/25/25
f 25/25/25 28/28/28 29/29/29
f 30/30/30 26/26/26 27/27/27
f 31/31/31 30/30/30 27/27/27
f 28/28/28 32/32/32 29/29/29
f 29/29/29 32/32/32 33/33/33
f 34/34/34 30/30/30 31/31/31
f 35/35/35 34/34/34 31/31/31
f 32/32/32 36/36/36 33/33/33
f 33/33/33 36/36/36 37/37/37
f 38/38/38 34/34/34 35/35/35
f 39/39/39 38/38/38 35/35/35
f 36/36/36 40/40/40 37/37/37
f 37/37/37 40/40/40 41/41/41
f 42/42/42 38/38/38 39/39/39
f 43/43/43 42/42/42 39/39/39
f 40/40/40 44/44/44 41/41/41
f 41/41/41 44/44/44 45/45/45
f 46/46/46 42/42/42 43/43/43
f 47/47/47 46/46/46 43/43/43
f 45/45/45 48/48/48 47/47/47
f 44/44/44 48/48/48 45/45/45
f 48/48/48 46/46/46 47/47/47
f 34/34/34 38/38/38 49/49/49
f 34/34/34 49/49/49 50/50/50
f 38/38/38 51/51/51 49/49/49
f 38/38/38 42/42/42 51/51/51
f 30/30/30 34/34/34 50/50/50
f 42/42/42 52/52/52 51/51/51
f 42/42/42 46/46/46 52/52/52
f 30/30/30 50/50/50 53/53/53
f 46/46/46 54/54/54 52/52/52
f 46/46/46 48/48/48 54/54/54
f 26/26/26 30/30/30 53/53/53
f 48/48/48 55/55/55 54/54/54
f 48/48/48 44/44/44 55/55/55
f 26/26/26 53/53/53 56/56/56
f 44/44/44 57/57/57 55/55/55
f 22/22/22 26/26/26 56/56/56
f 44/44/44 40/40/40 57/57/57
f 22/22/22 56/56/56 58/58/58
f 40/40/40 59/59/59 57/57/57
f 18/18/18 22/22/22 58/58/58
f 40/40/40 36/36/36 59/59/59
f 18/18/18 58/58/58 60/60/60
f 36/36/36 61/61/61 59/59/59
f 14/14/14 18/18/18 60/60/60
f 36/36/36 32/32/32 61/61/61
f 14/14/14 60/60/60 62/62/62
f 32/32/32 63/63/63 61/61/61
f 10/10/10 14/14/14 62/62/62
f 32/32/32 28/28/28 63/63/63
f 10/10/10 62/62/62 64/64/64
f 28/28/28 65/65/65 63/63/63
f 6/6/6 10/10/10 64/64/64
f 28/28/28 24/24/24 65/65/65
f 6/6/6 64/64/64 66/66/66
f 24/24/24 67/67/67 65/65/65
f 3/3/3 6/6/6 66/66/66
f 24/24/24 20/20/20 67/67/67
f 3/3/3 66/66/66 68/68/68
f 20/20/20 69/69/69 67/67/67
f 2/2/2 3/3/3 68/68/68
f 20/20/20 16/16/16 69/69/69
f 2/2/2 68/68/68 70/70/70
f 16/16/16 71/71/71 69/69/69
f 8/8/8 2/2/2 70/70/70
f 16/16/16 12/12/12 71/71/71
f 8/8/8 70/70/70 72/72/72
f 12/12/12 72/72/72 71/71/71
f 12/12/12 8/8/8 72/72/72
