g WheelOuter_0
v 3.283144 -0.3507874 -1.624926
v 3.196826 -0.4001957 -1.652481
v 3.196826 -0.351659 -1.613729
v 3.274101 -0.3995675 -1.662535
v 3.36358 -0.3482198 -1.657754
v 3.119551 -0.3995674 -1.662535
v 3.110508 -0.3507873 -1.624926
v 3.346109 -0.3976898 -1.692009
v 3.432651 -0.3440957 -1.709974
v 3.047544 -0.3976897 -1.692009
v 3.030073 -0.3482198 -1.657755
v 3.407944 -0.3945872 -1.738887
v 3.485651 -0.3386437 -1.77802
v 2.985708 -0.3945872 -1.738887
v 2.961002 -0.3440957 -1.709974
v 3.455393 -0.3903165 -1.799953
v 3.518969 -0.3321764 -1.857249
v 2.93826 -0.3903165 -1.799953
v 2.908001 -0.3386437 -1.77802
v 3.485219 -0.3849919 -1.871007
v 3.530333 -0.3250834 -1.94225
v 2.908433 -0.3849917 -1.871007
v 2.874684 -0.3321764 -1.857249
v 3.495393 -0.3788189 -1.947155
v 3.518969 -0.3178233 -2.027237
v 2.89826 -0.3788188 -1.947155
v 2.863321 -0.3250834 -1.942251
v 3.485219 -0.3721364 -2.023257
v 3.485651 -0.3109146 -2.106425
v 2.908433 -0.3721364 -2.023257
v 2.874684 -0.3178233 -2.027237
v 3.455393 -0.3654726 -2.094188
v 3.43265 -0.30488 -2.174419
v 2.93826 -0.3654726 -2.094188
v 2.908001 -0.3109146 -2.106425
v 3.407944 -0.3594444 -2.155093
v 3.36358 -0.3001901 -2.226586
v 2.985708 -0.3594444 -2.155094
v 2.961002 -0.30488 -2.174419
v 3.346109 -0.3546437 -2.201817
v 3.283144 -0.2972169 -2.259378
v 3.047544 -0.3546436 -2.201817
v 3.030073 -0.30019 -2.226586
v 3.274101 -0.3515534 -2.23118
v 3.196826 -0.2961986 -2.270561
v 3.119551 -0.3515534 -2.231181
v 3.110508 -0.2972169 -2.259378
v 3.196826 -0.3504871 -2.241194
v 2.980859 -0.4029573 -2.073338
v 3.020489 -0.3977069 -2.124319
v 3.072137 -0.3934844 -2.163441
v 3.132283 -0.3907492 -2.18803
v 3.196826 -0.3898026 -2.196415
v 3.261369 -0.3907493 -2.18803
v 2.955945 -0.4086837 -2.013999
v 3.321515 -0.3934844 -2.163441
v 2.947448 -0.4143248 -1.950396
v 3.373163 -0.3977068 -2.124319
v 2.955945 -0.4194284 -1.886744
v 3.412793 -0.4029574 -2.073338
v 2.980859 -0.4237339 -1.827276
v 3.437706 -0.4086837 -2.013999
v 3.020489 -0.4271072 -1.776122
v 3.446203 -0.4143249 -1.950396
v 3.072137 -0.4295054 -1.736834
v 3.437706 -0.4194284 -1.886744
v 3.132283 -0.4309327 -1.712126
v 3.412793 -0.4237339 -1.827276
v 3.196826 -0.4314058 -1.703697
v 3.373163 -0.4271072 -1.776122
v 3.261369 -0.4309327 -1.712126
v 3.321515 -0.4295055 -1.736834
v 3.101052 -0.4524193 -1.788509
v 3.147249 -0.4535331 -1.76947
v 3.196826 -0.4837633 -1.956734
v 3.061382 -0.4505486 -1.818769
v 3.196826 -0.4539023 -1.762974
v 3.030941 -0.4479221 -1.858145
v 3.246402 -0.4535332 -1.76947
v 3.011805 -0.4445834 -1.903884
v 3.2926 -0.4524193 -1.788509
v 3.005277 -0.4406494 -1.952799
v 3.332272 -0.4505485 -1.818769
v 3.011805 -0.4363261 -2.001678
v 3.362711 -0.447922 -1.858145
v 3.030941 -0.4319487 -2.047323
v 3.381846 -0.4445834 -1.903884
v 3.061382 -0.4279365 -2.086571
v 3.388375 -0.4406494 -1.952798
v 3.101052 -0.4247076 -2.116708
v 3.381846 -0.4363262 -2.001678
v 3.14725 -0.4226138 -2.135657
v 3.362711 -0.4319488 -2.047323
v 3.196826 -0.4218886 -2.142121
v 3.332272 -0.4279365 -2.086571
v 3.246402 -0.4226138 -2.135657
v 3.2926 -0.4247076 -2.116708
vt 0.3729626 0.9582152
vt 0.3627733 0.9529113
vt 0.3627733 0.9595774
vt 0.3712132 0.9517699
vt 0.3824459 0.9542279
vt 0.3543345 0.9517699
vt 0.3525845 0.9582152
vt 0.379057 0.9484307
vt 0.3905722 0.9478973
vt 0.3464905 0.9484307
vt 0.3431015 0.9542279
vt 0.3857622 0.9431418
vt 0.396791 0.9396699
vt 0.3397853 0.9431418
vt 0.3349752 0.9478977
vt 0.3908796 0.9362814
vt 0.4006885 0.9301264
vt 0.334668 0.9362814
vt 0.3287567 0.9396699
vt 0.3940856 0.9283227
vt 0.402113 0.9198726
vt 0.3314623 0.9283227
vt 0.324859 0.9301264
vt 0.3952349 0.9198214
vt 0.4007848 0.9095694
vt 0.3303126 0.9198216
vt 0.3234345 0.9198726
vt 0.3941528 0.9113116
vt 0.396877 0.8999705
vt 0.3313946 0.9113116
vt 0.3247625 0.9095694
vt 0.3909529 0.9033407
vt 0.390647 0.8917108
vt 0.3345946 0.9033407
vt 0.3286704 0.8999705
vt 0.3858289 0.8964572
vt 0.3825031 0.8853531
vt 0.3397183 0.8964568
vt 0.3349007 0.8917104
vt 0.3791084 0.8911444
vt 0.3729944 0.8813461
vt 0.3464393 0.8911439
vt 0.3430443 0.8853531
vt 0.3712415 0.8877885
vt 0.3627733 0.8799769
vt 0.354306 0.8877885
vt 0.3525531 0.8813461
vt 0.3627733 0.8866407
vt 0.3399628 0.9063938
vt 0.344124 0.9007989
vt 0.3495711 0.8964887
vt 0.3559339 0.8937713
vt 0.3627733 0.8928435
vt 0.3696135 0.8937713
vt 0.337361 0.9128792
vt 0.3759761 0.8964887
vt 0.3364864 0.9198071
vt 0.3814234 0.9007989
vt 0.3374002 0.9267321
vt 0.3855845 0.9063938
vt 0.3400179 0.9332082
vt 0.3881865 0.9128789
vt 0.3441797 0.9387851
vt 0.389061 0.9198071
vt 0.3496153 0.9430761
vt 0.3881475 0.9267318
vt 0.3559582 0.9457793
vt 0.3855295 0.9332078
vt 0.3627733 0.9467021
vt 0.3813679 0.9387851
vt 0.3695892 0.9457793
vt 0.3759322 0.9430761
vt 0.3528341 0.9374905
vt 0.3576344 0.9395189
vt 0.3627733 0.9197631
vt 0.3486962 0.9342546
vt 0.3627733 0.9402092
vt 0.3455047 0.9300234
vt 0.3679131 0.9395185
vt 0.3434864 0.9250876
vt 0.3727137 0.9374905
vt 0.3427871 0.9197956
vt 0.376852 0.9342542
vt 0.3434632 0.9145016
vt 0.3800427 0.930023
vt 0.3454669 0.9095581
vt 0.3820609 0.9250873
vt 0.3486542 0.9053139
vt 0.3827605 0.9197956
vt 0.352799 0.9020625
vt 0.3820843 0.9145012
vt 0.3576144 0.9000232
vt 0.3800806 0.9095581
vt 0.3627733 0.8993281
vt 0.3768933 0.9053141
vt 0.3679332 0.9000232
vt 0.3727485 0.9020625
vn 0.2123707 -0.6210411 0.7544579
vn -3.614008E-06 -0.733053 0.6801714
vn -3.754442E-07 -0.6239395 0.7814727
vn 0.1864138 -0.7308189 0.6566228
vn 0.4118704 -0.612577 0.67462
vn -0.1864139 -0.7308212 0.6566204
vn -0.2123697 -0.621049 0.7544516
vn 0.3622371 -0.7242216 0.5867599
vn 0.5856796 -0.5991685 0.5458723
vn -0.3622346 -0.72422 0.5867635
vn -0.4118715 -0.6125765 0.6746197
vn 0.5165201 -0.7135614 0.4733257
vn 0.7215295 -0.5818214 0.3753386
vn -0.5165187 -0.7135615 0.473327
vn -0.5856779 -0.5991667 0.5458761
vn 0.6381971 -0.6993915 0.3218011
vn 0.8087074 -0.5620016 0.1736279
vn -0.6381967 -0.6993919 0.3218009
vn -0.7215301 -0.5818238 0.3753337
vn 0.7170039 -0.6826421 0.1410854
vn 0.839388 -0.541641 -0.04530786
vn -0.717013 -0.6826338 0.14108
vn -0.8087165 -0.561989 0.1736261
vn 0.7448819 -0.6648192 -0.05627156
vn 0.8102359 -0.5228765 -0.2647981
vn -0.7448825 -0.6648184 -0.05627067
vn -0.8393829 -0.5416489 -0.04530853
vn 0.7182127 -0.6477966 -0.2540279
vn 0.7241618 -0.5065765 -0.4679423
vn -0.7182212 -0.6477897 -0.254021
vn -0.8102452 -0.5228639 -0.2647946
vn 0.6402627 -0.6325877 -0.4357712
vn 0.5886918 -0.4933482 -0.640351
vn -0.6402625 -0.6325886 -0.4357703
vn -0.7241623 -0.5065798 -0.4679378
vn 0.5188706 -0.6199293 -0.5886094
vn 0.4144651 -0.4836344 -0.7709192
vn -0.5188695 -0.6199284 -0.5886114
vn -0.5886919 -0.4933427 -0.6403551
vn 0.3642465 -0.6104806 -0.703305
vn 0.213858 -0.4777595 -0.8520626
vn -0.3642474 -0.6104805 -0.7033046
vn -0.4144655 -0.4836348 -0.7709188
vn 0.1875606 -0.6046885 -0.7740625
vn 2.076465E-07 -0.4757919 -0.8795578
vn -0.1875609 -0.6046877 -0.7740631
vn -0.2138602 -0.4777511 -0.8520668
vn 3.933207E-06 -0.602742 -0.7979361
vn -0.4441035 -0.8280609 -0.3421801
vn -0.3597965 -0.8171566 -0.4503348
vn -0.2525551 -0.8086061 -0.5313868
vn -0.1300502 -0.8031757 -0.5813741
vn -6.181272E-07 -0.8013118 -0.5982469
vn 0.1300519 -0.8031727 -0.5813777
vn -0.4984171 -0.8403275 -0.2131432
vn 0.2525532 -0.8086084 -0.5313843
vn -0.5170916 -0.8528899 -0.07207705
vn 0.3598006 -0.8171534 -0.4503375
vn -0.4976329 -0.8646525 0.06883091
vn 0.4441024 -0.8280625 -0.3421776
vn -0.4427697 -0.8746206 0.1974684
vn 0.498417 -0.8403273 -0.2131444
vn -0.3582848 -0.8823487 0.3051112
vn 0.517083 -0.852895 -0.07207769
vn -0.2512715 -0.8877597 0.385675
vn 0.4976312 -0.8646533 0.06883246
vn -0.1293214 -0.8909368 0.4353248
vn 0.4427681 -0.8746222 0.1974652
vn 0 -0.8919827 0.4520694
vn 0.3582881 -0.8823469 0.3051123
vn 0.1293221 -0.8909383 0.4353214
vn 0.2512684 -0.8877615 0.385673
vn -0.1522242 -0.9665119 0.2065978
vn -0.0783351 -0.9682093 0.2375589
vn 1.947512E-07 -0.9964389 -0.08431847
vn -0.217075 -0.9635616 0.1562934
vn -8.372716E-07 -0.9687613 0.2479947
vn -0.2682491 -0.9592319 0.08897574
vn 0.07833439 -0.9682094 0.2375587
vn -0.3014055 -0.9534588 0.008416573
vn 0.1522218 -0.9665122 0.206598
vn -0.3131006 -0.9463502 -0.07993402
vn 0.2170777 -0.9635609 0.1562936
vn -0.3017361 -0.9384171 -0.1683115
vn 0.2682507 -0.9592316 0.08897269
vn -0.2688115 -0.9304655 -0.2489464
vn 0.3014047 -0.9534591 0.008419138
vn -0.2177097 -0.9233182 -0.3163639
vn 0.3131016 -0.9463499 -0.0799326
vn -0.1527599 -0.9176844 -0.3667693
vn 0.3017359 -0.938417 -0.168312
vn -0.0786371 -0.9140968 -0.3977982
vn 0.2688129 -0.9304659 -0.2489436
vn 0 -0.9128653 -0.4082608
vn 0.2177114 -0.923317 -0.316366
vn 0.07863781 -0.9140969 -0.3977976
vn 0.1527574 -0.9176849 -0.3667693
g WheelOuter_0_0
f 3/3/3 2/2/2 1/1/1
f 2/2/2 4/4/4 1/1/1
f 1/1/1 4/4/4 5/5/5
f 6/6/6 2/2/2 3/3/3
f 7/7/7 6/6/6 3/3/3
f 4/4/4 8/8/8 5/5/5
f 5/5/5 8/8/8 9/9/9
f 10/10/10 6/6/6 7/7/7
f 11/11/11 10/10/10 7/7/7
f 8/8/8 12/12/12 9/9/9
f 9/9/9 12/12/12 13/13/13
f 14/14/14 10/10/10 11/11/11
f 15/15/15 14/14/14 11/11/11
f 12/12/12 16/16/16 13/13/13
f 13/13/13 16/16/16 17/17/17
f 18/18/18 14/14/14 15/15/15
f 19/19/19 18/18/18 15/15/15
f 16/16/16 20/20/20 17/17/17
f 17/17/17 20/20/20 21/21/21
f 22/22/22 18/18/18 19/19/19
f 23/23/23 22/22/22 19/19/19
f 20/20/20 24/24/24 21/21/21
f 21/21/21 24/24/24 25/25/25
f 26/26/26 22/22/22 23/23/23
f 27/27/27 26/26/26 23/23/23
f 24/24/24 28/28/28 25/25/25
f 25/25/25 28/28/28 29/29/29
f 30/30/30 26/26/26 27/27/27
f 31/31/31 30/30/30 27/27/27
f 28/28/28 32/32/32 29/29/29
f 29/29/29 32/32/32 33/33/33
f 34/34/34 30/30/30 31/31/31
f 35/35/35 34/34/34 31/31/31
f 32/32/32 36/36/36 33/33/33
f 33/33/33 36/36/36 37/37/37
f 38/38/38 34/34/34 35/35/35
f 39/39/39 38/38/38 35/35/35
f 36/36/36 40/40/40 37/37/37
f 37/37/37 40/40/40 41/41/41
f 42/42/42 38/38/38 39/39/39
f 43/43/43 42/42/42 39/39/39
f 40/40/40 44/44/44 41/41/41
f 41/41/41 44/44/44 45/45/45
f 46/46/46 42/42/42 43/43/43
f 47/47/47 46/46/46 43/43/43
f 45/45/45 48/48/48 47/47/47
f 44/44/44 48/48/48 45/45/45
f 48/48/48 46/46/46 47/47/47
f 34/34/34 38/38/38 49/49/49
f 38/38/38 42/42/42 50/50/50
f 38/38/38 50/50/50 49/49/49
f 42/42/42 46/46/46 51/51/51
f 42/42/42 51/51/51 50/50/50
f 46/46/46 48/48/48 52/52/52
f 46/46/46 52/52/52 51/51/51
f 48/48/48 44/44/44 53/53/53
f 48/48/48 53/53/53 52/52/52
f 44/44/44 40/40/40 54/54/54
f 44/44/44 54/54/54 53/53/53
f 34/34/34 49/49/49 55/55/55
f 30/30/30 34/34/34 55/55/55
f 40/40/40 56/56/56 54/54/54
f 40/40/40 36/36/36 56/56/56
f 30/30/30 55/55/55 57/57/57
f 26/26/26 30/30/30 57/57/57
f 36/36/36 58/58/58 56/56/56
f 36/36/36 32/32/32 58/58/58
f 26/26/26 57/57/57 59/59/59
f 22/22/22 26/26/26 59/59/59
f 32/32/32 60/60/60 58/58/58
f 32/32/32 28/28/28 60/60/60
f 22/22/22 59/59/59 61/61/61
f 18/18/18 22/22/22 61/61/61
f 28/28/28 62/62/62 60/60/60
f 28/28/28 24/24/24 62/62/62
f 18/18/18 61/61/61 63/63/63
f 14/14/14 18/18/18 63/63/63
f 24/24/24 64/64/64 62/62/62
f 24/24/24 20/20/20 64/64/64
f 14/14/14 63/63/63 65/65/65
f 10/10/10 14/14/14 65/65/65
f 20/20/20 66/66/66 64/64/64
f 20/20/20 16/16/16 66/66/66
f 10/10/10 65/65/65 67/67/67
f 6/6/6 10/10/10 67/67/67
f 16/16/16 68/68/68 66/66/66
f 16/16/16 12/12/12 68/68/68
f 6/6/6 67/67/67 69/69/69
f 2/2/2 6/6/6 69/69/69
f 12/12/12 70/70/70 68/68/68
f 12/12/12 8/8/8 70/70/70
f 2/2/2 69/69/69 71/71/71
f 4/4/4 2/2/2 71/71/71
f 8/8/8 4/4/4 72/72/72
f 8/8/8 72/72/72 70/70/70
f 4/4/4 71/71/71 72/72/72
f 65/65/65 73/73/73 67/67/67
f 67/67/67 74/74/74 69/69/69
f 73/73/73 74/74/74 67/67/67
f 75/75/75 74/74/74 73/73/73
f 76/76/76 73/73/73 65/65/65
f 75/75/75 73/73/73 76/76/76
f 63/63/63 76/76/76 65/65/65
f 74/74/74 77/77/77 69/69/69
f 69/69/69 77/77/77 71/71/71
f 75/75/75 77/77/77 74/74/74
f 78/78/78 76/76/76 63/63/63
f 75/75/75 76/76/76 78/78/78
f 61/61/61 78/78/78 63/63/63
f 77/77/77 79/79/79 71/71/71
f 71/71/71 79/79/79 72/72/72
f 75/75/75 79/79/79 77/77/77
f 80/80/80 78/78/78 61/61/61
f 75/75/75 78/78/78 80/80/80
f 59/59/59 80/80/80 61/61/61
f 79/79/79 81/81/81 72/72/72
f 75/75/75 81/81/81 79/79/79
f 75/75/75 80/80/80 82/82/82
f 82/82/82 80/80/80 59/59/59
f 75/75/75 83/83/83 81/81/81
f 72/72/72 81/81/81 70/70/70
f 81/81/81 83/83/83 70/70/70
f 57/57/57 82/82/82 59/59/59
f 70/70/70 83/83/83 68/68/68
f 84/84/84 82/82/82 57/57/57
f 75/75/75 82/82/82 84/84/84
f 55/55/55 84/84/84 57/57/57
f 83/83/83 85/85/85 68/68/68
f 75/75/75 85/85/85 83/83/83
f 68/68/68 85/85/85 66/66/66
f 86/86/86 84/84/84 55/55/55
f 75/75/75 84/84/84 86/86/86
f 49/49/49 86/86/86 55/55/55
f 85/85/85 87/87/87 66/66/66
f 75/75/75 87/87/87 85/85/85
f 66/66/66 87/87/87 64/64/64
f 88/88/88 86/86/86 49/49/49
f 75/75/75 86/86/86 88/88/88
f 50/50/50 88/88/88 49/49/49
f 87/87/87 89/89/89 64/64/64
f 75/75/75 89/89/89 87/87/87
f 75/75/75 88/88/88 90/90/90
f 90/90/90 88/88/88 50/50/50
f 75/75/75 91/91/91 89/89/89
f 64/64/64 89/89/89 62/62/62
f 89/89/89 91/91/91 62/62/62
f 51/51/51 90/90/90 50/50/50
f 62/62/62 91/91/91 60/60/60
f 92/92/92 90/90/90 51/51/51
f 75/75/75 90/90/90 92/92/92
f 52/52/52 92/92/92 51/51/51
f 91/91/91 93/93/93 60/60/60
f 75/75/75 93/93/93 91/91/91
f 60/60/60 93/93/93 58/58/58
f 94/94/94 92/92/92 52/52/52
f 75/75/75 92/92/92 94/94/94
f 53/53/53 94/94/94 52/52/52
f 93/93/93 95/95/95 58/58/58
f 75/75/75 95/95/95 93/93/93
f 58/58/58 95/95/95 56/56/56
f 96/96/96 94/94/94 53/53/53
f 75/75/75 94/94/94 96/96/96
f 54/54/54 96/96/96 53/53/53
f 95/95/95 97/97/97 56/56/56
f 75/75/75 97/97/97 95/95/95
f 75/75/75 96/96/96 97/97/97
f 97/97/97 96/96/96 54/54/54
f 56/56/56 97/97/97 54/54/54
