g WheelOuter_3
v -1.331366 3.43103 -1.662379
v -1.406184 3.431824 -1.65256
v -1.406184 3.476079 -1.686544
v -1.339204 3.475507 -1.695361
v -1.261646 3.428689 -1.691169
v -1.473164 3.475507 -1.695361
v -1.481003 3.43103 -1.662379
v -1.276788 3.473794 -1.721208
v -1.201776 3.424928 -1.736963
v -1.53558 3.473794 -1.721208
v -1.550723 3.428689 -1.691169
v -1.22319 3.470966 -1.762318
v -1.155836 3.419957 -1.796637
v -1.589177 3.470966 -1.762318
v -1.610592 3.424928 -1.736963
v -1.182064 3.467072 -1.815871
v -1.126957 3.414061 -1.866117
v -1.630304 3.467072 -1.815871
v -1.656532 3.419957 -1.796637
v -1.15621 3.462217 -1.878182
v -1.117107 3.407593 -1.94066
v -1.656158 3.462217 -1.878182
v -1.685411 3.414061 -1.866117
v -1.147392 3.456588 -1.944961
v -1.126957 3.400973 -2.015189
v -1.664976 3.456588 -1.944961
v -1.695261 3.407593 -1.94066
v -1.156211 3.450495 -2.0117
v -1.155836 3.394674 -2.084634
v -1.656158 3.450495 -2.0117
v -1.685411 3.400973 -2.015189
v -1.182064 3.444419 -2.073903
v -1.201776 3.389172 -2.144261
v -1.630304 3.444419 -2.073903
v -1.656532 3.394674 -2.084634
v -1.223191 3.438923 -2.127314
v -1.261646 3.384896 -2.190011
v -1.589177 3.438923 -2.127314
v -1.610592 3.389172 -2.144262
v -1.276788 3.434546 -2.168289
v -1.331366 3.382185 -2.218767
v -1.53558 3.434546 -2.168289
v -1.550722 3.384896 -2.190011
v -1.339204 3.431728 -2.194039
v -1.406184 3.381257 -2.228575
v -1.473164 3.431728 -2.19404
v -1.481003 3.382185 -2.218767
v -1.406184 3.430756 -2.202821
v -1.59338 3.478597 -2.055618
v -1.559029 3.47381 -2.100327
v -1.514262 3.46996 -2.134635
v -1.462129 3.467466 -2.156198
v -1.406184 3.466603 -2.163552
v -1.350239 3.467466 -2.156198
v -1.614974 3.483819 -2.003581
v -1.298106 3.46996 -2.134635
v -1.62234 3.488962 -1.947803
v -1.253339 3.47381 -2.100327
v -1.614974 3.493616 -1.891983
v -1.218988 3.478597 -2.055618
v -1.59338 3.497541 -1.839831
v -1.197394 3.483819 -2.003581
v -1.559029 3.500617 -1.794972
v -1.190029 3.488962 -1.947803
v -1.514262 3.502804 -1.760518
v -1.197394 3.493616 -1.891983
v -1.462129 3.504105 -1.73885
v -1.218988 3.497541 -1.839831
v -1.406184 3.504536 -1.731459
v -1.253339 3.500617 -1.794972
v -1.350239 3.504105 -1.73885
v -1.298106 3.502804 -1.760518
v -1.489199 3.523696 -1.805835
v -1.449156 3.524712 -1.789138
v -1.406184 3.552275 -1.953361
v -1.523585 3.52199 -1.832372
v -1.406184 3.525048 -1.783441
v -1.54997 3.519596 -1.866902
v -1.363212 3.524712 -1.789138
v -1.566557 3.516551 -1.907014
v -1.323169 3.523696 -1.805835
v -1.572214 3.512964 -1.94991
v -1.288783 3.52199 -1.832372
v -1.566557 3.509022 -1.992775
v -1.262398 3.519596 -1.866902
v -1.54997 3.505031 -2.032804
v -1.245811 3.516551 -1.907014
v -1.523585 3.501373 -2.067223
v -1.240154 3.512964 -1.94991
v -1.489199 3.498429 -2.093652
v -1.245811 3.509023 -1.992775
v -1.449156 3.49652 -2.110269
v -1.262398 3.505031 -2.032804
v -1.406184 3.495859 -2.115938
v -1.288783 3.501373 -2.067223
v -1.363212 3.49652 -2.110269
v -1.323169 3.498429 -2.093652
vt 0.4551455 0.9177706
vt 0.4640981 0.9189674
vt 0.4640981 0.9131095
vt 0.4566829 0.9121066
vt 0.4468127 0.9142665
vt 0.4715131 0.9121065
vt 0.4730509 0.9177703
vt 0.4497903 0.9091729
vt 0.4396718 0.9087042
vt 0.4784058 0.9091727
vt 0.4813838 0.9142663
vt 0.4438984 0.904525
vt 0.4342077 0.9014746
vt 0.4842982 0.9045249
vt 0.4885247 0.9087038
vt 0.4394017 0.8984973
vt 0.4307828 0.8930891
vt 0.4887944 0.8984973
vt 0.4939886 0.9014744
vt 0.4365851 0.8915041
vt 0.4295311 0.8840789
vt 0.4916114 0.891504
vt 0.4974135 0.8930891
vt 0.4355748 0.8840338
vt 0.4306981 0.8750246
vt 0.4926214 0.8840336
vt 0.4986651 0.8840786
vt 0.4365256 0.8765552
vt 0.4341314 0.8665906
vt 0.4916706 0.8765552
vt 0.4974986 0.8750244
vt 0.4393378 0.8695514
vt 0.4396062 0.8593325
vt 0.4888586 0.8695512
vt 0.4940647 0.8665904
vt 0.4438398 0.8635032
vt 0.4467618 0.8537468
vt 0.4843563 0.8635029
vt 0.4885898 0.8593324
vt 0.4497451 0.8588352
vt 0.4551176 0.8502252
vt 0.4784511 0.8588349
vt 0.4814347 0.8537465
vt 0.456658 0.8558861
vt 0.4640981 0.8490223
vt 0.4715381 0.8558861
vt 0.4730787 0.8502249
vt 0.4640981 0.8548776
vt 0.4841416 0.8722344
vt 0.4804849 0.8673179
vt 0.4756988 0.8635308
vt 0.4701078 0.8611429
vt 0.4640981 0.8603277
vt 0.4580882 0.8611429
vt 0.4864282 0.8779333
vt 0.4524974 0.8635311
vt 0.4871966 0.8840211
vt 0.4477114 0.867318
vt 0.4863933 0.8901057
vt 0.4440546 0.8722346
vt 0.4840938 0.8957965
vt 0.4417679 0.8779333
vt 0.4804365 0.9006975
vt 0.441 0.8840211
vt 0.47566 0.9044674
vt 0.441803 0.8901059
vt 0.4700862 0.9068428
vt 0.4441028 0.8957968
vt 0.4640981 0.9076533
vt 0.4477597 0.9006975
vt 0.4581096 0.9068428
vt 0.4525364 0.9044677
vt 0.4728323 0.8995596
vt 0.4686141 0.9013414
vt 0.4640981 0.8839827
vt 0.4764682 0.8967157
vt 0.4640981 0.9019479
vt 0.4792717 0.8929979
vt 0.4595818 0.9013414
vt 0.4810457 0.8886608
vt 0.455364 0.8995596
vt 0.4816604 0.8840107
vt 0.4517281 0.8967159
vt 0.481066 0.8793586
vt 0.4489246 0.8929981
vt 0.4793054 0.875015
vt 0.4471509 0.888661
vt 0.4765044 0.8712856
vt 0.4465362 0.8840108
vt 0.4728627 0.8684291
vt 0.4471303 0.8793586
vt 0.4686316 0.8666365
vt 0.4488912 0.8750154
vt 0.4640981 0.8660261
vt 0.4516918 0.8712859
vt 0.4595648 0.8666367
vt 0.455334 0.8684291
vn 0.2177868 0.6058139 0.7652179
vn 0 0.6090577 0.7931259
vn -4.226309E-06 0.7197548 0.6942284
vn 0.1923866 0.7171763 0.66981
vn 0.4216398 0.5964172 0.6830127
vn -0.1923843 0.7171791 0.6698077
vn -0.2177845 0.6058246 0.76521
vn 0.3732402 0.7096356 0.597586
vn 0.598076 0.5817792 0.5512151
vn -0.3732358 0.7096366 0.5975876
vn -0.4216394 0.596419 0.6830114
vn 0.5309753 0.6976772 0.4809489
vn 0.7347931 0.5632961 0.377858
vn -0.530975 0.6976777 0.4809483
vn -0.598076 0.5817811 0.5512131
vn 0.6543823 0.6821979 0.3261745
vn 0.8216351 0.5427487 0.1741831
vn -0.6543821 0.682198 0.3261747
vn -0.7347918 0.5632977 0.377858
vn 0.7335638 0.6644634 0.1427324
vn 0.8515192 0.5223146 -0.04585344
vn -0.7335628 0.6644651 0.1427301
vn -0.821633 0.5427523 0.1741819
vn 0.7610259 0.6462357 -0.05673593
vn 0.8216315 0.5041049 -0.2660824
vn -0.7610254 0.6462366 -0.05673263
vn -0.8515158 0.5223199 -0.04585543
vn 0.7335634 0.6294312 -0.2563224
vn 0.7347934 0.4888443 -0.4702234
vn -0.7335642 0.629431 -0.2563206
vn -0.8216347 0.5040992 -0.2660835
vn 0.6543806 0.6149322 -0.4400505
vn 0.59807 0.4768553 -0.6441439
vn -0.6543787 0.6149328 -0.4400524
vn -0.7347917 0.488846 -0.4702243
vn 0.5309736 0.6032133 -0.5951478
vn 0.4216379 0.4682935 -0.776481
vn -0.530974 0.6032115 -0.5951491
vn -0.5980709 0.4768516 -0.6441458
vn 0.3732409 0.5946619 -0.7120874
vn 0.2177826 0.4632304 -0.8590625
vn -0.373243 0.5946629 -0.7120854
vn -0.4216379 0.4682936 -0.7764808
vn 0.192384 0.5895045 -0.7845208
vn 3.170776E-07 0.4615509 -0.8871137
vn -0.1923833 0.5895047 -0.7845207
vn -0.2177846 0.4632216 -0.8590667
vn 4.548716E-06 0.5877882 -0.8090149
vn -0.4601734 0.815801 -0.3502985
vn -0.37294 0.8051353 -0.4611648
vn -0.2618957 0.7968937 -0.5443996
vn -0.1349124 0.7916982 -0.5958294
vn -2.228825E-06 0.7899255 -0.6132027
vn 0.134913 0.7916951 -0.5958333
vn -0.5164536 0.8280467 -0.2182073
vn 0.2618992 0.7968947 -0.5443965
vn -0.5360802 0.8409328 -0.07382525
vn 0.3729419 0.8051348 -0.461164
vn -0.5164545 0.8533998 0.07059272
vn 0.4601718 0.8158012 -0.3503003
vn -0.4601749 0.8643566 0.2027974
vn 0.5164587 0.8280433 -0.2182077
vn -0.3729349 0.8731741 0.3138257
vn 0.5360759 0.8409355 -0.07382492
vn -0.2618968 0.8795585 0.397224
vn 0.5164551 0.8533995 0.07059257
vn -0.1349164 0.8834005 0.4487773
vn 0.4601746 0.8643566 0.2027981
vn 1.210223E-07 0.8846835 0.466192
vn 0.3729353 0.8731744 0.3138247
vn 0.1349158 0.8834029 0.4487729
vn 0.2618989 0.8795572 0.3972253
vn -0.15968 0.9636574 0.2141647
vn -0.08221819 0.9656772 0.2463896
vn 0 0.9961687 -0.08745231
vn -0.2275353 0.9602188 0.1618877
vn 1.324434E-07 0.9663404 0.2572666
vn -0.280934 0.9553006 0.09207077
vn 0.08221524 0.9656772 0.2463902
vn -0.3154032 0.948918 0.008678582
vn 0.1596794 0.9636574 0.2141659
vn -0.3274179 0.9412594 -0.08263402
vn 0.2275375 0.9602184 0.1618866
vn -0.3154031 0.9328917 -0.1738795
vn 0.2809351 0.9553002 0.09207131
vn -0.2809373 0.9246463 -0.2571062
vn 0.3154042 0.9489177 0.008677674
vn -0.2275366 0.9173239 -0.326717
vn 0.3274184 0.9412595 -0.08263037
vn -0.1596775 0.9116023 -0.3787934
vn 0.3154049 0.9328914 -0.1738779
vn -0.08221599 0.9079753 -0.4108787
vn 0.2809369 0.9246454 -0.2571096
vn 0 0.906733 -0.4217051
vn 0.2275381 0.917323 -0.3267182
vn 0.08221527 0.9079764 -0.4108765
vn 0.159677 0.9116024 -0.3787934
g WheelOuter_3_0
f 3/3/3 2/2/2 1/1/1
f 4/4/4 3/3/3 1/1/1
f 4/4/4 1/1/1 5/5/5
f 3/3/3 6/6/6 2/2/2
f 6/6/6 7/7/7 2/2/2
f 8/8/8 4/4/4 5/5/5
f 8/8/8 5/5/5 9/9/9
f 6/6/6 10/10/10 7/7/7
f 10/10/10 11/11/11 7/7/7
f 12/12/12 8/8/8 9/9/9
f 12/12/12 9/9/9 13/13/13
f 10/10/10 14/14/14 11/11/11
f 14/14/14 15/15/15 11/11/11
f 16/16/16 12/12/12 13/13/13
f 16/16/16 13/13/13 17/17/17
f 14/14/14 18/18/18 15/15/15
f 18/18/18 19/19/19 15/15/15
f 20/20/20 16/16/16 17/17/17
f 20/20/20 17/17/17 21/21/21
f 18/18/18 22/22/22 19/19/19
f 22/22/22 23/23/23 19/19/19
f 24/24/24 20/20/20 21/21/21
f 24/24/24 21/21/21 25/25/25
f 22/22/22 26/26/26 23/23/23
f 26/26/26 27/27/27 23/23/23
f 28/28/28 24/24/24 25/25/25
f 28/28/28 25/25/25 29/29/29
f 26/26/26 30/30/30 27/27/27
f 30/30/30 31/31/31 27/27/27
f 32/32/32 28/28/28 29/29/29
f 32/32/32 29/29/29 33/33/33
f 30/30/30 34/34/34 31/31/31
f 34/34/34 35/35/35 31/31/31
f 36/36/36 32/32/32 33/33/33
f 36/36/36 33/33/33 37/37/37
f 34/34/34 38/38/38 35/35/35
f 38/38/38 39/39/39 35/35/35
f 40/40/40 36/36/36 37/37/37
f 40/40/40 37/37/37 41/41/41
f 38/38/38 42/42/42 39/39/39
f 42/42/42 43/43/43 39/39/39
f 44/44/44 40/40/40 41/41/41
f 44/44/44 41/41/41 45/45/45
f 42/42/42 46/46/46 43/43/43
f 46/46/46 47/47/47 43/43/43
f 48/48/48 45/45/45 47/47/47
f 48/48/48 44/44/44 45/45/45
f 46/46/46 48/48/48 47/47/47
f 38/38/38 34/34/34 49/49/49
f 42/42/42 38/38/38 50/50/50
f 50/50/50 38/38/38 49/49/49
f 46/46/46 42/42/42 51/51/51
f 51/51/51 42/42/42 50/50/50
f 48/48/48 46/46/46 52/52/52
f 52/52/52 46/46/46 51/51/51
f 44/44/44 48/48/48 53/53/53
f 53/53/53 48/48/48 52/52/52
f 40/40/40 44/44/44 54/54/54
f 54/54/54 44/44/44 53/53/53
f 49/49/49 34/34/34 55/55/55
f 34/34/34 30/30/30 55/55/55
f 56/56/56 40/40/40 54/54/54
f 36/36/36 40/40/40 56/56/56
f 55/55/55 30/30/30 57/57/57
f 30/30/30 26/26/26 57/57/57
f 58/58/58 36/36/36 56/56/56
f 32/32/32 36/36/36 58/58/58
f 57/57/57 26/26/26 59/59/59
f 26/26/26 22/22/22 59/59/59
f 60/60/60 32/32/32 58/58/58
f 28/28/28 32/32/32 60/60/60
f 59/59/59 22/22/22 61/61/61
f 22/22/22 18/18/18 61/61/61
f 62/62/62 28/28/28 60/60/60
f 24/24/24 28/28/28 62/62/62
f 61/61/61 18/18/18 63/63/63
f 18/18/18 14/14/14 63/63/63
f 64/64/64 24/24/24 62/62/62
f 20/20/20 24/24/24 64/64/64
f 63/63/63 14/14/14 65/65/65
f 14/14/14 10/10/10 65/65/65
f 66/66/66 20/20/20 64/64/64
f 16/16/16 20/20/20 66/66/66
f 65/65/65 10/10/10 67/67/67
f 10/10/10 6/6/6 67/67/67
f 68/68/68 16/16/16 66/66/66
f 12/12/12 16/16/16 68/68/68
f 67/67/67 6/6/6 69/69/69
f 6/6/6 3/3/3 69/69/69
f 70/70/70 12/12/12 68/68/68
f 8/8/8 12/12/12 70/70/70
f 69/69/69 3/3/3 71/71/71
f 3/3/3 4/4/4 71/71/71
f 4/4/4 8/8/8 72/72/72
f 72/72/72 8/8/8 70/70/70
f 71/71/71 4/4/4 72/72/72
f 73/73/73 65/65/65 67/67/67
f 74/74/74 67/67/67 69/69/69
f 74/74/74 73/73/73 67/67/67
f 74/74/74 75/75/75 73/73/73
f 73/73/73 76/76/76 65/65/65
f 73/73/73 75/75/75 76/76/76
f 76/76/76 63/63/63 65/65/65
f 77/77/77 74/74/74 69/69/69
f 77/77/77 69/69/69 71/71/71
f 77/77/77 75/75/75 74/74/74
f 76/76/76 78/78/78 63/63/63
f 76/76/76 75/75/75 78/78/78
f 78/78/78 61/61/61 63/63/63
f 79/79/79 77/77/77 71/71/71
f 79/79/79 71/71/71 72/72/72
f 79/79/79 75/75/75 77/77/77
f 78/78/78 80/80/80 61/61/61
f 78/78/78 75/75/75 80/80/80
f 80/80/80 59/59/59 61/61/61
f 81/81/81 79/79/79 72/72/72
f 81/81/81 75/75/75 79/79/79
f 80/80/80 75/75/75 82/82/82
f 80/80/80 82/82/82 59/59/59
f 83/83/83 75/75/75 81/81/81
f 81/81/81 72/72/72 70/70/70
f 83/83/83 81/81/81 70/70/70
f 82/82/82 57/57/57 59/59/59
f 83/83/83 70/70/70 68/68/68
f 82/82/82 84/84/84 57/57/57
f 82/82/82 75/75/75 84/84/84
f 84/84/84 55/55/55 57/57/57
f 85/85/85 83/83/83 68/68/68
f 85/85/85 75/75/75 83/83/83
f 85/85/85 68/68/68 66/66/66
f 84/84/84 86/86/86 55/55/55
f 84/84/84 75/75/75 86/86/86
f 86/86/86 49/49/49 55/55/55
f 87/87/87 85/85/85 66/66/66
f 87/87/87 75/75/75 85/85/85
f 87/87/87 66/66/66 64/64/64
f 86/86/86 88/88/88 49/49/49
f 86/86/86 75/75/75 88/88/88
f 88/88/88 50/50/50 49/49/49
f 89/89/89 87/87/87 64/64/64
f 89/89/89 75/75/75 87/87/87
f 88/88/88 75/75/75 90/90/90
f 88/88/88 90/90/90 50/50/50
f 91/91/91 75/75/75 89/89/89
f 89/89/89 64/64/64 62/62/62
f 91/91/91 89/89/89 62/62/62
f 90/90/90 51/51/51 50/50/50
f 91/91/91 62/62/62 60/60/60
f 90/90/90 92/92/92 51/51/51
f 90/90/90 75/75/75 92/92/92
f 92/92/92 52/52/52 51/51/51
f 93/93/93 91/91/91 60/60/60
f 93/93/93 75/75/75 91/91/91
f 93/93/93 60/60/60 58/58/58
f 92/92/92 94/94/94 52/52/52
f 92/92/92 75/75/75 94/94/94
f 94/94/94 53/53/53 52/52/52
f 95/95/95 93/93/93 58/58/58
f 95/95/95 75/75/75 93/93/93
f 95/95/95 58/58/58 56/56/56
f 94/94/94 96/96/96 53/53/53
f 94/94/94 75/75/75 96/96/96
f 96/96/96 54/54/54 53/53/53
f 97/97/97 95/95/95 56/56/56
f 97/97/97 75/75/75 95/95/95
f 97/97/97 56/56/56 54/54/54
f 96/96/96 75/75/75 97/97/97
f 96/96/96 97/97/97 54/54/54
