g WheelInner_2
v -1.561007 -0.2187673 -1.978743
v -1.566469 -0.2223632 -1.937414
v -1.718442 -0.2082065 -1.936171
v -1.707802 -0.2012538 -2.016699
v -1.707802 -0.2153908 -1.855664
v -1.544994 -0.2154732 -2.01726
v -1.561007 -0.2260233 -1.89609
v -1.676607 -0.194975 -2.091767
v -1.676607 -0.2222877 -1.780649
v -1.519522 -0.2126866 -2.050339
v -1.544994 -0.2294906 -1.857589
v -1.626983 -0.1897295 -2.156247
v -1.626983 -0.2283569 -1.716243
v -1.486326 -0.2105743 -2.075725
v -1.519522 -0.2325102 -1.82453
v -1.562313 -0.1857918 -2.20573
v -1.562313 -0.2331013 -1.666829
v -1.447669 -0.2092576 -2.091684
v -1.486326 -0.2348532 -1.799165
v -1.487002 -0.1833538 -2.23684
v -1.487002 -0.2361209 -1.635772
v -1.406184 -0.2088105 -2.097127
v -1.447669 -0.2363374 -1.783221
v -1.406184 -0.1825288 -2.24745
v -1.406184 -0.2371572 -1.62518
v -1.364699 -0.2092576 -2.091684
v -1.406184 -0.2368454 -1.777783
v -1.325366 -0.1833538 -2.236839
v -1.325366 -0.2361209 -1.635772
v -1.326042 -0.2105743 -2.075725
v -1.364699 -0.2363372 -1.783221
v -1.250055 -0.1857918 -2.20573
v -1.250055 -0.2331013 -1.666829
v -1.292846 -0.2126866 -2.050339
v -1.326042 -0.2348532 -1.799165
v -1.185385 -0.1897295 -2.156247
v -1.185385 -0.228357 -1.716243
v -1.267374 -0.2154732 -2.01726
v -1.292846 -0.2325102 -1.82453
v -1.135761 -0.194975 -2.091767
v -1.135761 -0.2222877 -1.780649
v -1.251361 -0.2187674 -1.978743
v -1.267374 -0.2294906 -1.857588
v -1.104567 -0.2012538 -2.016699
v -1.104567 -0.2153908 -1.855664
v -1.2459 -0.2223632 -1.937414
v -1.251361 -0.2260233 -1.89609
v -1.093927 -0.2082065 -1.936171
vt 0.8213331 0.5134386
vt 0.820754 0.5090328
vt 0.8045133 0.5090327
vt 0.8056462 0.5176412
vt 0.8056464 0.5004242
vt 0.8230329 0.5175443
vt 0.8213331 0.504627
vt 0.8089693 0.525664
vt 0.8089694 0.4924015
vt 0.8257374 0.5210703
vt 0.8230329 0.5005214
vt 0.8142557 0.5325532
vt 0.8142558 0.4855126
vt 0.8292623 0.5237762
vt 0.8257374 0.4969954
vt 0.8211443 0.5378389
vt 0.8211446 0.4802269
vt 0.8333675 0.5254775
vt 0.8292623 0.4942897
vt 0.8291655 0.5411618
vt 0.8291656 0.4769043
vt 0.837773 0.5260586
vt 0.8333675 0.4925883
vt 0.837773 0.5422957
vt 0.837773 0.4757703
vt 0.8421786 0.5254775
vt 0.837773 0.4920073
vt 0.8463804 0.5411618
vt 0.8463804 0.4769043
vt 0.8462837 0.5237763
vt 0.8421786 0.4925883
vt 0.8544017 0.537839
vt 0.8544015 0.4802268
vt 0.8498086 0.5210704
vt 0.8462836 0.4942897
vt 0.8612902 0.5325533
vt 0.86129 0.4855126
vt 0.8525131 0.5175444
vt 0.8498086 0.4969954
vt 0.8665766 0.5256641
vt 0.8665764 0.4924015
vt 0.854213 0.5134386
vt 0.8525131 0.5005214
vt 0.8698998 0.5176413
vt 0.8698997 0.5004242
vt 0.8547919 0.5090328
vt 0.854213 0.504627
vt 0.8710325 0.5090327
vn 0.08977334 0.9899171 0.1095674
vn 0.09310544 0.9918416 0.08707254
vn 0.09310544 0.9918416 0.08707245
vn 0.09008507 0.9900164 0.1084076
vn 0.09008513 0.9937616 0.06574618
vn 0.08011781 0.9882252 0.1303535
vn 0.08977354 0.9938658 0.06458738
vn 0.08112935 0.9883716 0.1286069
vn 0.08112939 0.9956613 0.04556904
vn 0.06502371 0.9868566 0.1479389
vn 0.08011828 0.9958215 0.04382441
vn 0.06662121 0.9869875 0.1463463
vn 0.06662175 0.9973893 0.02785977
vn 0.04571493 0.9858605 0.1612119
vn 0.06502338 0.997538 0.02626788
vn 0.04736412 0.9859374 0.1602627
vn 0.04736371 0.99878 0.01397398
vn 0.02356497 0.9852588 0.169439
vn 0.04571507 0.9988696 0.01302614
vn 0.02461048 0.9852813 0.1691597
vn 0.02461023 0.9996841 0.005097309
vn 0 0.9850581 0.1722224
vn 0.02356595 0.9997106 0.004818695
vn -2.913211E-07 0.9850581 0.1722223
vn 0 0.999998 0.002043167
vn -0.02356516 0.9852588 0.1694393
vn -2.095441E-06 0.999998 0.002043167
vn -0.02461064 0.9852813 0.16916
vn -0.02461006 0.9996841 0.005098425
vn -0.0457151 0.9858605 0.1612118
vn -0.02356594 0.9997106 0.004819856
vn -0.04736391 0.9859374 0.1602627
vn -0.04736347 0.99878 0.01397386
vn -0.0650239 0.9868566 0.1479386
vn -0.04571338 0.9988696 0.0130252
vn -0.06662115 0.9869876 0.1463463
vn -0.06662133 0.9973894 0.02785993
vn -0.08011722 0.9882252 0.1303539
vn -0.06502319 0.997538 0.02626826
vn -0.08112898 0.9883716 0.1286069
vn -0.08112933 0.9956613 0.04556955
vn -0.08977349 0.9899171 0.1095671
vn -0.08011799 0.9958215 0.04382453
vn -0.09008521 0.9900164 0.1084072
vn -0.09008512 0.9937616 0.06574642
vn -0.09310541 0.9918417 0.08707186
vn -0.08977347 0.9938658 0.06458737
vn -0.09310541 0.9918417 0.08707222
g WheelInner_2_0
f 3/3/3 2/2/2 1/1/1
f 4/4/4 3/3/3 1/1/1
f 3/3/3 5/5/5 2/2/2
f 4/4/4 1/1/1 6/6/6
f 5/5/5 7/7/7 2/2/2
f 8/8/8 4/4/4 6/6/6
f 5/5/5 9/9/9 7/7/7
f 8/8/8 6/6/6 10/10/10
f 9/9/9 11/11/11 7/7/7
f 12/12/12 8/8/8 10/10/10
f 9/9/9 13/13/13 11/11/11
f 12/12/12 10/10/10 14/14/14
f 13/13/13 15/15/15 11/11/11
f 16/16/16 12/12/12 14/14/14
f 13/13/13 17/17/17 15/15/15
f 16/16/16 14/14/14 18/18/18
f 17/17/17 19/19/19 15/15/15
f 20/20/20 16/16/16 18/18/18
f 17/17/17 21/21/21 19/19/19
f 20/20/20 18/18/18 22/22/22
f 21/21/21 23/23/23 19/19/19
f 24/24/24 20/20/20 22/22/22
f 21/21/21 25/25/25 23/23/23
f 24/24/24 22/22/22 26/26/26
f 25/25/25 27/27/27 23/23/23
f 28/28/28 24/24/24 26/26/26
f 25/25/25 29/29/29 27/27/27
f 28/28/28 26/26/26 30/30/30
f 29/29/29 31/31/31 27/27/27
f 32/32/32 28/28/28 30/30/30
f 29/29/29 33/33/33 31/31/31
f 32/32/32 30/30/30 34/34/34
f 33/33/33 35/35/35 31/31/31
f 36/36/36 32/32/32 34/34/34
f 33/33/33 37/37/37 35/35/35
f 36/36/36 34/34/34 38/38/38
f 37/37/37 39/39/39 35/35/35
f 40/40/40 36/36/36 38/38/38
f 37/37/37 41/41/41 39/39/39
f 40/40/40 38/38/38 42/42/42
f 41/41/41 43/43/43 39/39/39
f 44/44/44 40/40/40 42/42/42
f 41/41/41 45/45/45 43/43/43
f 44/44/44 42/42/42 46/46/46
f 45/45/45 47/47/47 43/43/43
f 48/48/48 44/44/44 46/46/46
f 48/48/48 46/46/46 47/47/47
f 45/45/45 48/48/48 47/47/47
