g WheelOuter_1
v 3.283144 3.518114 -1.624926
v 3.196826 3.518986 -1.613729
v 3.196826 3.567523 -1.652481
v 3.274101 3.566894 -1.662535
v 3.363579 3.515546 -1.657754
v 3.119551 3.566894 -1.662535
v 3.110508 3.518114 -1.624926
v 3.346109 3.565017 -1.692009
v 3.432651 3.511422 -1.709974
v 3.047544 3.565017 -1.692009
v 3.030073 3.515546 -1.657755
v 3.407944 3.561914 -1.738887
v 3.485651 3.50597 -1.77802
v 2.985708 3.561914 -1.738887
v 2.961002 3.511422 -1.709974
v 3.455393 3.557643 -1.799953
v 3.518969 3.499503 -1.857249
v 2.93826 3.557643 -1.799953
v 2.908001 3.50597 -1.77802
v 3.485219 3.552319 -1.871007
v 3.530333 3.49241 -1.94225
v 2.908432 3.552318 -1.871007
v 2.874684 3.499503 -1.857249
v 3.495393 3.546145 -1.947155
v 3.518969 3.48515 -2.027237
v 2.89826 3.546145 -1.947155
v 2.86332 3.49241 -1.942251
v 3.485219 3.539463 -2.023257
v 3.485651 3.478241 -2.106425
v 2.908432 3.539463 -2.023257
v 2.874684 3.48515 -2.027237
v 3.455393 3.532799 -2.094188
v 3.43265 3.472206 -2.174419
v 2.93826 3.532799 -2.094188
v 2.908001 3.478241 -2.106425
v 3.407944 3.526771 -2.155093
v 3.363579 3.467516 -2.226586
v 2.985708 3.526771 -2.155094
v 2.961002 3.472206 -2.174419
v 3.346109 3.52197 -2.201817
v 3.283144 3.464543 -2.259377
v 3.047544 3.52197 -2.201817
v 3.030073 3.467516 -2.226586
v 3.274101 3.51888 -2.23118
v 3.196826 3.463525 -2.270561
v 3.119551 3.51888 -2.231181
v 3.110508 3.464543 -2.259377
v 3.196826 3.517814 -2.241194
v 2.980859 3.570284 -2.073338
v 3.020489 3.565033 -2.124319
v 3.072137 3.560811 -2.163441
v 3.132282 3.558075 -2.18803
v 3.196826 3.557129 -2.196415
v 3.261369 3.558075 -2.18803
v 2.955945 3.57601 -2.013999
v 3.321515 3.560811 -2.163441
v 2.947448 3.581651 -1.950396
v 3.373163 3.565033 -2.124319
v 2.955945 3.586755 -1.886744
v 3.412793 3.570284 -2.073338
v 2.980859 3.591061 -1.827276
v 3.437706 3.57601 -2.013999
v 3.020489 3.594434 -1.776122
v 3.446203 3.581651 -1.950396
v 3.072137 3.596832 -1.736834
v 3.437706 3.586755 -1.886744
v 3.132282 3.598259 -1.712126
v 3.412793 3.59106 -1.827276
v 3.196826 3.598732 -1.703697
v 3.373163 3.594434 -1.776122
v 3.261369 3.598259 -1.712126
v 3.321515 3.596832 -1.736834
v 3.101052 3.619746 -1.788509
v 3.147249 3.620859 -1.76947
v 3.196826 3.65109 -1.956734
v 3.061382 3.617875 -1.818769
v 3.196826 3.621228 -1.762974
v 3.030941 3.615248 -1.858145
v 3.246402 3.62086 -1.76947
v 3.011805 3.61191 -1.903884
v 3.2926 3.619746 -1.788509
v 3.005277 3.607976 -1.952799
v 3.332272 3.617875 -1.818769
v 3.011805 3.603652 -2.001678
v 3.362711 3.615248 -1.858145
v 3.030941 3.599275 -2.047323
v 3.381846 3.61191 -1.903884
v 3.061382 3.595263 -2.086571
v 3.388375 3.607976 -1.952798
v 3.101052 3.592034 -2.116708
v 3.381846 3.603653 -2.001678
v 3.14725 3.58994 -2.135657
v 3.362711 3.599275 -2.047323
v 3.196826 3.589215 -2.142121
v 3.332272 3.595263 -2.086571
v 3.246402 3.58994 -2.135657
v 3.2926 3.592034 -2.116708
vt 0.4586817 0.8467402
vt 0.4688707 0.8481022
vt 0.4688707 0.841436
vt 0.4604315 0.8402945
vt 0.4491985 0.8427523
vt 0.4773102 0.8402945
vt 0.4790597 0.8467402
vt 0.4525871 0.8369558
vt 0.4410719 0.8364224
vt 0.485154 0.8369555
vt 0.4885431 0.8427523
vt 0.4458811 0.8316667
vt 0.4348532 0.8281952
vt 0.4918599 0.8316664
vt 0.4966697 0.8364224
vt 0.4407643 0.8248065
vt 0.4309556 0.8186514
vt 0.4969772 0.8248065
vt 0.5028882 0.8281952
vt 0.4375582 0.8168475
vt 0.4295311 0.8083982
vt 0.500183 0.8168475
vt 0.5067858 0.8186514
vt 0.4364089 0.8083467
vt 0.430859 0.7980949
vt 0.5013324 0.8083467
vt 0.5082104 0.8083982
vt 0.4374908 0.7998371
vt 0.4347668 0.7884962
vt 0.5002507 0.7998371
vt 0.5068827 0.7980949
vt 0.440691 0.7918662
vt 0.4409972 0.7802359
vt 0.4970507 0.7918659
vt 0.5029752 0.7884962
vt 0.4458149 0.7849824
vt 0.4491407 0.7738789
vt 0.4919268 0.7849824
vt 0.4967442 0.7802359
vt 0.4525355 0.7796695
vt 0.45865 0.7698719
vt 0.485206 0.7796695
vt 0.4886007 0.7738789
vt 0.4604028 0.7763141
vt 0.4688707 0.768503
vt 0.4773388 0.7763141
vt 0.4790916 0.7698719
vt 0.4688707 0.7751663
vt 0.4916824 0.7949188
vt 0.4875211 0.789324
vt 0.4820742 0.785014
vt 0.4757109 0.7822971
vt 0.4688707 0.7813689
vt 0.4620303 0.7822971
vt 0.4942844 0.8014043
vt 0.4556673 0.785014
vt 0.4951587 0.8083321
vt 0.4502206 0.789324
vt 0.4942448 0.8152573
vt 0.4460589 0.7949188
vt 0.4916272 0.8217328
vt 0.4434575 0.8014043
vt 0.4874655 0.82731
vt 0.4425828 0.8083324
vt 0.4820297 0.8316011
vt 0.4434965 0.8152573
vt 0.4756864 0.8343042
vt 0.4461139 0.8217328
vt 0.4688707 0.8352271
vt 0.4502762 0.82731
vt 0.4620553 0.8343042
vt 0.4557115 0.8316011
vt 0.4788111 0.8260154
vt 0.4740109 0.8280434
vt 0.4688707 0.8082887
vt 0.4829488 0.8227792
vt 0.4688707 0.8287337
vt 0.4861398 0.8185479
vt 0.4637309 0.8280434
vt 0.4881578 0.8136127
vt 0.4589306 0.8260154
vt 0.488858 0.8083205
vt 0.4547925 0.8227792
vt 0.4881815 0.8030265
vt 0.4516016 0.8185479
vt 0.486178 0.7980834
vt 0.449583 0.8136127
vt 0.4829908 0.7938395
vt 0.4488834 0.8083209
vt 0.4788459 0.7905883
vt 0.4495599 0.8030265
vt 0.4740306 0.7885485
vt 0.4515638 0.7980834
vt 0.4688707 0.7878538
vt 0.4547509 0.7938395
vt 0.4637109 0.7885485
vt 0.4588955 0.7905883
vn 0.2123713 0.6210431 0.754456
vn -2.690684E-07 0.6239374 0.7814744
vn -3.398502E-06 0.7330538 0.6801707
vn 0.1864142 0.730819 0.6566226
vn 0.4118718 0.6125752 0.6746208
vn -0.1864144 0.7308208 0.6566207
vn -0.2123704 0.6210502 0.7544504
vn 0.3622358 0.7242203 0.5867624
vn 0.5856804 0.5991653 0.5458748
vn -0.3622336 0.7242182 0.5867662
vn -0.4118736 0.6125739 0.6746209
vn 0.5165188 0.7135612 0.4733273
vn 0.721531 0.5818174 0.3753416
vn -0.5165195 0.7135605 0.4733277
vn -0.5856796 0.599161 0.5458803
vn 0.6381969 0.6993917 0.321801
vn 0.808708 0.5620008 0.1736276
vn -0.6381978 0.6993915 0.3217995
vn -0.7215292 0.5818229 0.3753367
vn 0.7170022 0.6826444 0.1410838
vn 0.8393899 0.5416381 -0.04530722
vn -0.7170106 0.6826361 0.1410803
vn -0.8087146 0.561992 0.173625
vn 0.7448823 0.6648185 -0.05627301
vn 0.810234 0.5228791 -0.2647989
vn -0.7448831 0.6648178 -0.05627029
vn -0.8393855 0.5416449 -0.0453083
vn 0.7182103 0.6477988 -0.2540287
vn 0.7241617 0.5065743 -0.4679447
vn -0.7182186 0.6477917 -0.2540239
vn -0.8102432 0.5228664 -0.2647954
vn 0.6402647 0.6325864 -0.4357701
vn 0.5886922 0.4933465 -0.640352
vn -0.6402635 0.6325887 -0.4357686
vn -0.7241602 0.5065805 -0.4679403
vn 0.5188715 0.6199283 -0.5886096
vn 0.4144658 0.4836319 -0.7709205
vn -0.518872 0.6199269 -0.5886107
vn -0.5886939 0.4933373 -0.6403575
vn 0.3642469 0.6104781 -0.703307
vn 0.21386 0.4777577 -0.8520632
vn -0.3642465 0.6104781 -0.7033073
vn -0.4144664 0.4836319 -0.7709201
vn 0.1875596 0.6046893 -0.7740622
vn 1.195541E-07 0.4757931 -0.8795572
vn -0.1875602 0.6046877 -0.7740633
vn -0.2138617 0.4777503 -0.8520668
vn 3.168609E-06 0.602743 -0.7979353
vn -0.4441067 0.8280593 -0.3421798
vn -0.3597953 0.8171587 -0.450332
vn -0.252554 0.8086058 -0.5313879
vn -0.1300486 0.8031763 -0.5813735
vn 0 0.8013119 -0.5982469
vn 0.1300495 0.8031741 -0.5813764
vn -0.4984144 0.8403288 -0.2131448
vn 0.2525506 0.8086072 -0.5313874
vn -0.5170892 0.8528914 -0.07207612
vn 0.3598006 0.8171543 -0.4503359
vn -0.4976321 0.864653 0.06883045
vn 0.444106 0.8280613 -0.3421758
vn -0.4427673 0.8746223 0.197466
vn 0.4984176 0.8403267 -0.2131453
vn -0.3582833 0.8823497 0.3051099
vn 0.5170824 0.8528956 -0.07207676
vn -0.2512731 0.8877597 0.385674
vn 0.4976273 0.8646554 0.06883291
vn -0.1293197 0.8909373 0.4353243
vn 0.442766 0.874624 0.1974616
vn 0 0.8919848 0.4520655
vn 0.3582873 0.8823488 0.3051075
vn 0.1293209 0.8909373 0.4353238
vn 0.2512693 0.8877612 0.3856732
vn -0.1522193 0.9665122 0.2065998
vn -0.07833016 0.9682096 0.2375593
vn 0 0.996439 -0.08431825
vn -0.2170801 0.9635607 0.1562917
vn -5.739456E-06 0.9687613 0.2479948
vn -0.2682488 0.9592324 0.08897166
vn 0.07833049 0.9682092 0.237561
vn -0.3014063 0.9534586 0.008420593
vn 0.1522259 0.9665121 0.2065953
vn -0.3130998 0.9463503 -0.07993546
vn 0.2170801 0.9635607 0.1562912
vn -0.3017369 0.938417 -0.1683104
vn 0.268251 0.9592314 0.088975
vn -0.2688145 0.930465 -0.2489452
vn 0.3014058 0.9534587 0.008422525
vn -0.2177086 0.9233183 -0.3163642
vn 0.3131021 0.9463501 -0.07992929
vn -0.1527589 0.9176844 -0.3667697
vn 0.3017384 0.9384161 -0.1683121
vn -0.07863582 0.9140962 -0.3977998
vn 0.2688136 0.9304649 -0.2489465
vn 0 0.9128647 -0.4082623
vn 0.2177102 0.9233175 -0.3163654
vn 0.07863627 0.9140961 -0.3977997
vn 0.1527562 0.9176847 -0.3667701
g WheelOuter_1_0
f 3/3/3 2/2/2 1/1/1
f 4/4/4 3/3/3 1/1/1
f 4/4/4 1/1/1 5/5/5
f 3/3/3 6/6/6 2/2/2
f 6/6/6 7/7/7 2/2/2
f 8/8/8 4/4/4 5/5/5
f 8/8/8 5/5/5 9/9/9
f 6/6/6 10/10/10 7/7/7
f 10/10/10 11/11/11 7/7/7
f 12/12/12 8/8/8 9/9/9
f 12/12/12 9/9/9 13/13/13
f 10/10/10 14/14/14 11/11/11
f 14/14/14 15/15/15 11/11/11
f 16/16/16 12/12/12 13/13/13
f 16/16/16 13/13/13 17/17/17
f 14/14/14 18/18/18 15/15/15
f 18/18/18 19/19/19 15/15/15
f 20/20/20 16/16/16 17/17/17
f 20/20/20 17/17/17 21/21/21
f 18/18/18 22/22/22 19/19/19
f 22/22/22 23/23/23 19/19/19
f 24/24/24 20/20/20 21/21/21
f 24/24/24 21/21/21 25/25/25
f 22/22/22 26/26/26 23/23/23
f 26/26/26 27/27/27 23/23/23
f 28/28/28 24/24/24 25/25/25
f 28/28/28 25/25/25 29/29/29
f 26/26/26 30/30/30 27/27/27
f 30/30/30 31/31/31 27/27/27
f 32/32/32 28/28/28 29/29/29
f 32/32/32 29/29/29 33/33/33
f 30/30/30 34/34/34 31/31/31
f 34/34/34 35/35/35 31/31/31
f 36/36/36 32/32/32 33/33/33
f 36/36/36 33/33/33 37/37/37
f 34/34/34 38/38/38 35/35/35
f 38/38/38 39/39/39 35/35/35
f 40/40/40 36/36/36 37/37/37
f 40/40/40 37/37/37 41/41/41
f 38/38/38 42/42/42 39/39/39
f 42/42/42 43/43/43 39/39/39
f 44/44/44 40/40/40 41/41/41
f 44/44/44 41/41/41 45/45/45
f 42/42/42 46/46/46 43/43/43
f 46/46/46 47/47/47 43/43/43
f 48/48/48 45/45/45 47/47/47
f 48/48/48 44/44/44 45/45/45
f 46/46/46 48/48/48 47/47/47
f 38/38/38 34/34/34 49/49/49
f 42/42/42 38/38/38 50/50/50
f 50/50/50 38/38/38 49/49/49
f 46/46/46 42/42/42 51/51/51
f 51/51/51 42/42/42 50/50/50
f 48/48/48 46/46/46 52/52/52
f 52/52/52 46/46/46 51/51/51
f 44/44/44 48/48/48 53/53/53
f 53/53/53 48/48/48 52/52/52
f 40/40/40 44/44/44 54/54/54
f 54/54/54 44/44/44 53/53/53
f 49/49/49 34/34/34 55/55/55
f 34/34/34 30/30/30 55/55/55
f 56/56/56 40/40/40 54/54/54
f 36/36/36 40/40/40 56/56/56
f 55/55/55 30/30/30 57/57/57
f 30/30/30 26/26/26 57/57/57
f 58/58/58 36/36/36 56/56/56
f 32/32/32 36/36/36 58/58/58
f 57/57/57 26/26/26 59/59/59
f 26/26/26 22/22/22 59/59/59
f 60/60/60 32/32/32 58/58/58
f 28/28/28 32/32/32 60/60/60
f 59/59/59 22/22/22 61/61/61
f 22/22/22 18/18/18 61/61/61
f 62/62/62 28/28/28 60/60/60
f 24/24/24 28/28/28 62/62/62
f 61/61/61 18/18/18 63/63/63
f 18/18/18 14/14/14 63/63/63
f 64/64/64 24/24/24 62/62/62
f 20/20/20 24/24/24 64/64/64
f 63/63/63 14/14/14 65/65/65
f 14/14/14 10/10/10 65/65/65
f 66/66/66 20/20/20 64/64/64
f 16/16/16 20/20/20 66/66/66
f 65/65/65 10/10/10 67/67/67
f 10/10/10 6/6/6 67/67/67
f 68/68/68 16/16/16 66/66/66
f 12/12/12 16/16/16 68/68/68
f 67/67/67 6/6/6 69/69/69
f 6/6/6 3/3/3 69/69/69
f 70/70/70 12/12/12 68/68/68
f 8/8/8 12/12/12 70/70/70
f 69/69/69 3/3/3 71/71/71
f 3/3/3 4/4/4 71/71/71
f 4/4/4 8/8/8 72/72/72
f 72/72/72 8/8/8 70/70/70
f 71/71/71 4/4/4 72/72/72
f 73/73/73 65/65/65 67/67/67
f 74/74/74 67/67/67 69/69/69
f 74/74/74 73/73/73 67/67/67
f 74/74/74 75/75/75 73/73/73
f 73/73/73 76/76/76 65/65/65
f 73/73/73 75/75/75 76/76/76
f 76/76/76 63/63/63 65/65/65
f 77/77/77 74/74/74 69/69/69
f 77/77/77 69/69/69 71/71/71
f 77/77/77 75/75/75 74/74/74
f 76/76/76 78/78/78 63/63/63
f 76/76/76 75/75/75 78/78/78
f 78/78/78 61/61/61 63/63/63
f 79/79/79 77/77/77 71/71/71
f 79/79/79 71/71/71 72/72/72
f 79/79/79 75/75/75 77/77/77
f 78/78/78 80/80/80 61/61/61
f 78/78/78 75/75/75 80/80/80
f 80/80/80 59/59/59 61/61/61
f 81/81/81 79/79/79 72/72/72
f 81/81/81 75/75/75 79/79/79
f 80/80/80 75/75/75 82/82/82
f 80/80/80 82/82/82 59/59/59
f 83/83/83 75/75/75 81/81/81
f 81/81/81 72/72/72 70/70/70
f 83/83/83 81/81/81 70/70/70
f 82/82/82 57/57/57 59/59/59
f 83/83/83 70/70/70 68/68/68
f 82/82/82 84/84/84 57/57/57
f 82/82/82 75/75/75 84/84/84
f 84/84/84 55/55/55 57/57/57
f 85/85/85 83/83/83 68/68/68
f 85/85/85 75/75/75 83/83/83
f 85/85/85 68/68/68 66/66/66
f 84/84/84 86/86/86 55/55/55
f 84/84/84 75/75/75 86/86/86
f 86/86/86 49/49/49 55/55/55
f 87/87/87 85/85/85 66/66/66
f 87/87/87 75/75/75 85/85/85
f 87/87/87 66/66/66 64/64/64
f 86/86/86 88/88/88 49/49/49
f 86/86/86 75/75/75 88/88/88
f 88/88/88 50/50/50 49/49/49
f 89/89/89 87/87/87 64/64/64
f 89/89/89 75/75/75 87/87/87
f 88/88/88 75/75/75 90/90/90
f 88/88/88 90/90/90 50/50/50
f 91/91/91 75/75/75 89/89/89
f 89/89/89 64/64/64 62/62/62
f 91/91/91 89/89/89 62/62/62
f 90/90/90 51/51/51 50/50/50
f 91/91/91 62/62/62 60/60/60
f 90/90/90 92/92/92 51/51/51
f 90/90/90 75/75/75 92/92/92
f 92/92/92 52/52/52 51/51/51
f 93/93/93 91/91/91 60/60/60
f 93/93/93 75/75/75 91/91/91
f 93/93/93 60/60/60 58/58/58
f 92/92/92 94/94/94 52/52/52
f 92/92/92 75/75/75 94/94/94
f 94/94/94 53/53/53 52/52/52
f 95/95/95 93/93/93 58/58/58
f 95/95/95 75/75/75 93/93/93
f 95/95/95 58/58/58 56/56/56
f 94/94/94 96/96/96 53/53/53
f 94/94/94 75/75/75 96/96/96
f 96/96/96 54/54/54 53/53/53
f 97/97/97 95/95/95 56/56/56
f 97/97/97 75/75/75 95/95/95
f 97/97/97 56/56/56 54/54/54
f 96/96/96 75/75/75 97/97/97
f 96/96/96 97/97/97 54/54/54
