g CB-DoorWindow_0
v -0.2168908 -3.678643 2.238691
v -0.4535021 -3.67864 2.238691
v -0.2214372 -3.678643 2.284852
v -0.2214371 -3.678642 2.192531
v -0.2349018 -3.678643 2.329238
v -0.2349016 -3.678642 2.148144
v -0.256767 -3.678644 2.370145
v -0.2567668 -3.678641 2.107237
v -0.2861927 -3.678644 2.406001
v -0.2861924 -3.678641 2.071382
v -0.3220479 -3.678644 2.435426
v -0.3220477 -3.67864 2.041956
v -0.3629549 -3.678644 2.457291
v -0.3629547 -3.67864 2.020091
v -0.4073416 -3.678644 2.470756
v -0.4073414 -3.67864 2.006626
v -0.4535022 -3.678643 2.475302
v -0.453502 -3.678639 2.002079
v -0.4996628 -3.678643 2.470756
v -0.4996625 -3.678639 2.006626
v -0.5440494 -3.678643 2.457291
v -0.5440493 -3.678639 2.02009
v -0.5849564 -3.678643 2.435426
v -0.5849563 -3.678639 2.041956
v -0.6208117 -3.678642 2.406001
v -0.6208116 -3.678639 2.071381
v -0.6502374 -3.678642 2.370145
v -0.6502373 -3.678639 2.107237
v -0.6721026 -3.678641 2.329238
v -0.6721026 -3.678639 2.148144
v -0.6855671 -3.67864 2.284852
v -0.6855671 -3.67864 2.19253
v -0.6901136 -3.67864 2.238691
vt 0.9995 0.7018734
vt 0.7089838 0.7057029
vt 0.9943519 0.7585019
vt 0.9935174 0.6452268
vt 0.9783629 0.8129203
vt 0.9765827 0.5907492
vt 0.952345 0.8630642
vt 0.9493117 0.5405494
vt 0.9176968 0.9072004
vt 0.91272 0.4965677
vt 0.8747424 0.943289
vt 0.8681714 0.4605087
vt 0.8255198 0.9709424
vt 0.8173103 0.4337963
vt 0.771716 0.9887131
vt 0.761978 0.4175811
vt 0.7153679 0.9957311
vt 0.7041665 0.4128944
vt 0.658652 0.9916404
vt 0.6465905 0.418633
vt 0.6037627 0.9765562
vt 0.5917811 0.4372046
vt 0.5528215 0.9510337
vt 0.5410445 0.4653812
vt 0.5077977 0.916035
vt 0.4973178 0.5030515
vt 0.4704345 0.8728892
vt 0.4619958 0.5484582
vt 0.4421811 0.8232425
vt 0.4362879 0.5997939
vt 0.4241391 0.7689922
vt 0.4211126 0.6550855
vt 0.4170183 0.712215
vn -9.028446E-06 -1 -1.233327E-05
vn -1.220458E-06 -1 -1.167389E-05
vn -9.028446E-06 -1 -1.411153E-05
vn -7.490823E-06 -1 -4.603072E-06
vn -9.872121E-06 -1 -9.870091E-06
vn -9.631901E-06 -1 -9.772103E-06
vn -8.899869E-06 -1 -1.221732E-05
vn -5.676638E-06 -1 -3.852628E-06
vn -7.347239E-06 -1 -1.454099E-05
vn -5.496985E-06 -1 -3.672973E-06
vn -9.866209E-06 -1 -1.202202E-05
vn -5.496983E-06 -1 -3.672972E-06
vn -7.33122E-06 -1 -1.371584E-05
vn -5.731717E-06 -1 -3.770203E-06
vn -1.062249E-05 -1 -1.235256E-05
vn -6.230074E-06 -1 -3.869332E-06
vn -7.881521E-06 -1 -1.289777E-05
vn -3.810902E-07 -1 -3.869328E-06
vn -5.340833E-06 -1 -1.289777E-05
vn -7.612771E-06 -1 -2.430863E-06
vn -1.220458E-06 -1 -1.167389E-05
vn -2.443751E-06 -1 -4.571938E-06
vn -1.220459E-06 -1 -1.167389E-05
vn -3.288731E-06 -1 -4.007341E-06
vn -5.238692E-06 -1 -1.435879E-05
vn -4.007338E-06 -1 -3.288734E-06
vn 3.343829E-07 -1 -8.785711E-06
vn -8.989599E-07 -1 -7.940743E-06
vn -2.774E-06 -1 -1.343774E-05
vn -1.190643E-06 -1 -7.236559E-06
vn -2.579539E-06 -1 -1.296827E-05
vn -1.289772E-06 -1 -6.738209E-06
vn -1.289772E-06 -1 -6.484146E-06
g CB-DoorWindow_0_0
f 3/3/3 2/2/2 1/1/1
f 1/1/1 2/2/2 4/4/4
f 5/5/5 2/2/2 3/3/3
f 4/4/4 2/2/2 6/6/6
f 7/7/7 2/2/2 5/5/5
f 6/6/6 2/2/2 8/8/8
f 9/9/9 2/2/2 7/7/7
f 8/8/8 2/2/2 10/10/10
f 11/11/11 2/2/2 9/9/9
f 10/10/10 2/2/2 12/12/12
f 13/13/13 2/2/2 11/11/11
f 12/12/12 2/2/2 14/14/14
f 15/15/15 2/2/2 13/13/13
f 14/14/14 2/2/2 16/16/16
f 17/17/17 2/2/2 15/15/15
f 16/16/16 2/2/2 18/18/18
f 19/19/19 2/2/2 17/17/17
f 18/18/18 2/2/2 20/20/20
f 21/21/21 2/2/2 19/19/19
f 20/20/20 2/2/2 22/22/22
f 23/23/23 2/2/2 21/21/21
f 22/22/22 2/2/2 24/24/24
f 25/25/25 2/2/2 23/23/23
f 24/24/24 2/2/2 26/26/26
f 27/27/27 2/2/2 25/25/25
f 26/26/26 2/2/2 28/28/28
f 29/29/29 2/2/2 27/27/27
f 28/28/28 2/2/2 30/30/30
f 31/31/31 2/2/2 29/29/29
f 30/30/30 2/2/2 32/32/32
f 33/33/33 2/2/2 31/31/31
f 32/32/32 2/2/2 33/33/33
