g CB-Letter_1
v -0.3606689 -4.505351 7.713381
v -0.5245026 -4.489039 7.727122
v -0.5044025 -4.491725 7.729086
v -0.3398145 -4.506531 7.706941
v -0.5395727 -4.486389 7.718667
v -0.3249367 -4.506701 7.694904
v -0.5500488 -4.483881 7.704994
v -0.3155344 -4.506053 7.678336
v -0.5547226 -4.48167 7.685503
v -0.3127647 -4.504522 7.656926
v -0.5653946 -4.444416 7.242761
v -0.3418574 -4.468139 7.233873
v -0.3378111 -4.466699 7.212111
v -0.3208542 -4.466286 7.191056
v -0.5705548 -4.426385 7.028604
v -0.3222787 -4.4483 6.969812
v -0.3679784 -4.440794 6.922275
v -0.5749689 -4.410955 6.845409
v -0.4031816 -4.431703 6.849416
v -0.5857132 -4.373361 6.399317
v -0.4144092 -4.392509 6.377954
v -0.5832657 -4.372535 6.384707
v -0.4174788 -4.391171 6.365165
v -0.5768259 -4.372589 6.373945
v -0.4239337 -4.389843 6.356738
v -0.5684656 -4.373239 6.367335
v -0.4313872 -4.38874 6.35254
v -0.2773152 -4.454025 7.002769
v -0.2869397 -4.468328 7.187295
v -0.2426912 -4.472235 7.203462
v -0.2195067 -4.458822 7.023205
v -0.1602788 -4.461206 7.024221
v -0.1744119 -4.47648 7.218966
v -0.1089799 -4.47847 7.222458
v -0.1168491 -4.46118 7.010316
v -0.003190002 -4.477433 7.205156
v -0.0536087 -4.47881 7.219755
v 0.07899673 -4.470369 7.139562
v 0.04187973 -4.474777 7.181513
v -0.08709747 -4.459787 6.987347
v 0.09964553 -4.466726 7.103448
v 0.1130879 -4.46351 7.07023
v -0.06321045 -4.456891 6.949
v 0.1248177 -4.459158 7.022626
v -0.05303879 -4.453499 6.906533
v 0.1406073 -4.410581 6.430628
v -0.05209839 -4.419003 6.479649
v -0.04915832 -4.417725 6.463761
v 0.1382869 -4.409799 6.419569
v -0.0420549 -4.416737 6.451476
v 0.1330052 -4.409504 6.412825
v -0.03258041 -4.416059 6.44327
v 0.1274268 -4.409531 6.409986
v -0.3971629 -4.389442 6.849059
v -0.3679784 -4.440794 6.922275
v -0.3629896 -4.398951 6.920193
v -0.4031816 -4.431703 6.849416
v -0.4081895 -4.349243 6.378174
v -0.4144092 -4.392509 6.377954
v -0.4116358 -4.347686 6.363727
v -0.4174788 -4.391171 6.365165
v -0.4194122 -4.346027 6.353518
v -0.4239337 -4.389843 6.356738
v -0.4293055 -4.344528 6.34791
v -0.4313872 -4.38874 6.35254
v -0.5691999 -4.331157 6.363298
v -0.5684656 -4.373239 6.367335
v -0.5794203 -4.330759 6.37146
v -0.5768259 -4.372589 6.373945
v -0.5867858 -4.331017 6.383877
v -0.5832657 -4.372535 6.384707
v -0.5894469 -4.332076 6.399905
v -0.5857132 -4.373361 6.399317
v -0.5775371 -4.374393 6.893686
v -0.5749689 -4.410955 6.845409
v -0.5748078 -4.384082 7.025973
v -0.5705548 -4.426385 7.028604
v -0.5782483 -4.388826 7.275157
v -0.5653946 -4.444416 7.242761
v -0.5605935 -4.418166 7.687958
v -0.5547226 -4.48167 7.685503
v -0.5554575 -4.419742 7.70989
v -0.5500488 -4.483881 7.704994
v -0.5431348 -4.42178 7.726247
v -0.5395727 -4.486389 7.718667
v -0.5253007 -4.424083 7.736441
v -0.5245026 -4.489039 7.727122
v -0.5027577 -4.426484 7.738746
v -0.5044025 -4.491725 7.729086
v -0.3580697 -4.44043 7.722829
v -0.3606689 -4.505351 7.713381
v -0.3350848 -4.442419 7.715583
v -0.3398145 -4.506531 7.706941
v -0.317965 -4.443482 7.701486
v -0.3249367 -4.506701 7.694904
v -0.3072291 -4.443647 7.682187
v -0.3155344 -4.506053 7.678336
v -0.3042988 -4.442807 7.658483
v -0.3127647 -4.504522 7.656926
v -0.3350446 -4.419357 7.235269
v -0.3418574 -4.468139 7.233873
v -0.3315234 -4.418776 7.215719
v -0.3378111 -4.466699 7.212111
v -0.3172102 -4.419365 7.197685
v -0.3208542 -4.466286 7.191056
v -0.2872378 -4.422245 7.194192
v -0.2869397 -4.468328 7.187295
v -0.2465063 -4.425898 7.209239
v -0.2426912 -4.472235 7.203462
v -0.1750898 -4.435127 7.225019
v -0.1744119 -4.47648 7.218966
v -0.1077546 -4.437202 7.228654
v -0.1089799 -4.47847 7.222458
v -0.05316393 -4.446465 7.224489
v -0.0536087 -4.47881 7.219755
v -0.001833048 -4.440433 7.210278
v -0.003190002 -4.477433 7.205156
v 0.04449899 -4.434401 7.186413
v 0.04187973 -4.474777 7.181513
v 0.08259375 -4.428204 7.143536
v 0.07899673 -4.470369 7.139562
v 0.1138896 -4.422918 7.114962
v 0.09964553 -4.466726 7.103448
v 0.12814 -4.419409 7.079355
v 0.1130879 -4.46351 7.07023
v 0.1291563 -4.417072 7.024256
v 0.1248177 -4.459158 7.022626
v 0.1445934 -4.371643 6.43107
v 0.1406073 -4.410581 6.430628
v 0.1419217 -4.370965 6.418389
v 0.1382869 -4.409799 6.419569
v 0.1353033 -4.371018 6.40996
v 0.1330052 -4.409504 6.412825
v 0.127314 -4.371546 6.405924
v 0.1274268 -4.409531 6.409986
v -0.03422498 -4.391032 6.440982
v -0.03258041 -4.416059 6.44327
v -0.04456655 -4.392799 6.450115
v -0.0420549 -4.416737 6.451476
v -0.05219315 -4.393517 6.463258
v -0.04915832 -4.417725 6.463761
v -0.05530474 -4.394571 6.479911
v -0.05209839 -4.419003 6.479649
v -0.05631591 -4.428505 6.906722
v -0.05303879 -4.453499 6.906533
v -0.06622382 -4.432227 6.94837
v -0.06321045 -4.456891 6.949
v -0.08979288 -4.432307 6.985667
v -0.08709747 -4.459787 6.987347
v -0.1187288 -4.430421 7.007608
v -0.1168491 -4.46118 7.010316
v -0.1608849 -4.426776 7.020742
v -0.1602788 -4.461206 7.024221
v -0.2184617 -4.42087 7.019391
v -0.2195067 -4.458822 7.023205
v -0.2746046 -4.41421 6.999267
v -0.2773152 -4.454025 7.002769
v -0.3184123 -4.407501 6.966908
v -0.3222787 -4.4483 6.969812
v -0.3629896 -4.398951 6.920193
v -0.3679784 -4.440794 6.922275
vt 0.8402001 0.7075422
vt 0.8012592 0.7060857
vt 0.8059269 0.706736
vt 0.8451118 0.707003
vt 0.7979352 0.7048302
vt 0.8486812 0.7057411
vt 0.7957579 0.7030451
vt 0.8510696 0.703904
vt 0.794929 0.7002741
vt 0.852241 0.7010921
vt 0.8058949 0.5970696
vt 0.858678 0.6012164
vt 0.8605963 0.5951946
vt 0.8661136 0.5897345
vt 0.8090439 0.5471089
vt 0.8680543 0.5367962
vt 0.857886 0.5240166
vt 0.8094396 0.504384
vt 0.850037 0.5051782
vt 0.8006799 0.3999052
vt 0.841167 0.3937879
vt 0.8014752 0.3976036
vt 0.8404545 0.3923225
vt 0.8031861 0.3960107
vt 0.8391938 0.3915415
vt 0.8053171 0.3950337
vt 0.837692 0.3912388
vt 0.8786723 0.5451931
vt 0.8753105 0.588872
vt 0.8863791 0.5926409
vt 0.8925777 0.5504488
vt 0.9068323 0.5513868
vt 0.9020538 0.597165
vt 0.9168599 0.5990369
vt 0.9174073 0.5488576
vt 0.9411427 0.5965763
vt 0.9295499 0.5991096
vt 0.9609794 0.5832304
vt 0.9514934 0.5917724
vt 0.9250919 0.5443946
vt 0.9665202 0.5757822
vt 0.9702954 0.5685939
vt 0.9316869 0.5360248
vt 0.9739321 0.5579606
vt 0.9349133 0.5263919
vt 0.9902557 0.4193944
vt 0.9438465 0.4259666
vt 0.9449667 0.4229282
vt 0.9899267 0.4182205
vt 0.9470646 0.4208155
vt 0.9890597 0.41772
vt 0.9496465 0.4195589
vt 0.9880672 0.4176369
vt 0.8596163 0.5020064
vt 0.857886 0.5240166
vt 0.8658822 0.5182288
vt 0.850037 0.5051782
vt 0.8504014 0.3900966
vt 0.841167 0.3937879
vt 0.8472837 0.3850451
vt 0.8404545 0.3923225
vt 0.8426473 0.3820224
vt 0.8391938 0.3915415
vt 0.8374974 0.3810038
vt 0.837692 0.3912388
vt 0.8020442 0.3858297
vt 0.8053171 0.3950337
vt 0.7973896 0.3882383
vt 0.8031861 0.3960107
vt 0.7935237 0.3922456
vt 0.8014752 0.3976036
vt 0.7911289 0.3977571
vt 0.8006799 0.3999052
vt 0.8005303 0.5149843
vt 0.8094396 0.504384
vt 0.7991441 0.5452405
vt 0.8090439 0.5471089
vt 0.7912098 0.6027247
vt 0.8058949 0.5970696
vt 0.7802979 0.7012782
vt 0.794929 0.7002741
vt 0.7825409 0.7094858
vt 0.7957579 0.7030451
vt 0.7876872 0.7157443
vt 0.7979352 0.7048302
vt 0.7946679 0.7197837
vt 0.8012592 0.7060857
vt 0.8028198 0.7218419
vt 0.8059269 0.706736
vt 0.8403572 0.7229021
vt 0.8402001 0.7075422
vt 0.8490281 0.7215055
vt 0.8451118 0.707003
vt 0.8566431 0.7180904
vt 0.8486812 0.7057411
vt 0.8626478 0.7123743
vt 0.8510696 0.703904
vt 0.8659742 0.7044623
vt 0.852241 0.7010921
vt 0.8698402 0.6036948
vt 0.858678 0.6012164
vt 0.8696842 0.6016257
vt 0.8605963 0.5951946
vt 0.8706359 0.5999515
vt 0.8661136 0.5897345
vt 0.8744503 0.5996915
vt 0.8753105 0.588872
vt 0.8827589 0.6026931
vt 0.8863791 0.5926409
vt 0.8998665 0.6066129
vt 0.9020538 0.597165
vt 0.9164701 0.6088689
vt 0.9168599 0.5990369
vt 0.9304383 0.606685
vt 0.9295499 0.5991096
vt 0.9442142 0.6047352
vt 0.9411427 0.5965763
vt 0.9569646 0.5993944
vt 0.9514934 0.5917724
vt 0.9684208 0.5897954
vt 0.9609794 0.5832304
vt 0.9759483 0.5818315
vt 0.9665202 0.5757822
vt 0.9805678 0.5730104
vt 0.9702954 0.5685939
vt 0.9836906 0.5594174
vt 0.9739321 0.5579606
vt 0.9990683 0.4179611
vt 0.9902557 0.4193944
vt 0.9971534 0.4131323
vt 0.9899267 0.4182205
vt 0.9935802 0.4101295
vt 0.9890597 0.41772
vt 0.9895136 0.4090095
vt 0.9880672 0.4176369
vt 0.94861 0.4138476
vt 0.9496465 0.4195589
vt 0.94433 0.4159966
vt 0.9470646 0.4208155
vt 0.9407105 0.4192992
vt 0.9449667 0.4229282
vt 0.9384152 0.4238711
vt 0.9438465 0.4259666
vt 0.9293429 0.5246192
vt 0.9349133 0.5263919
vt 0.92682 0.5330235
vt 0.9316869 0.5360248
vt 0.9210255 0.5394737
vt 0.9250919 0.5443946
vt 0.9147433 0.5422653
vt 0.9174073 0.5488576
vt 0.9059766 0.5434238
vt 0.9068323 0.5513868
vt 0.8940887 0.5417063
vt 0.8925777 0.5504488
vt 0.8827161 0.5367303
vt 0.8786723 0.5451931
vt 0.8741251 0.5294132
vt 0.8680543 0.5367962
vt 0.8658822 0.5182288
vt 0.857886 0.5240166
vn -0.1127153 -0.9762493 -0.1850198
vn -0.1069911 -0.986548 -0.1235955
vn -0.1127153 -0.9762493 -0.1850198
vn -0.1069532 -0.9866013 -0.1232025
vn -0.1051619 -0.9890206 -0.1038222
vn -0.1051306 -0.9890597 -0.1034819
vn -0.1040315 -0.990404 -0.09097975
vn -0.103995 -0.9904466 -0.09055781
vn -0.1045935 -0.9910788 -0.08260079
vn -0.1046731 -0.9910917 -0.08234522
vn -0.1059401 -0.9910423 -0.08131328
vn -0.1071199 -0.9907964 -0.08275086
vn -0.1069831 -0.9907098 -0.08395711
vn -0.09173369 -0.9925467 -0.08022472
vn -0.1087502 -0.9909698 -0.07843617
vn -0.09498527 -0.9924998 -0.07695442
vn -0.1094371 -0.9910597 -0.07631668
vn -0.1167108 -0.9900482 -0.07863351
vn -0.1162418 -0.9901239 -0.07837419
vn -0.1195585 -0.9897585 -0.07800029
vn -0.1196155 -0.9897719 -0.07774114
vn -0.1197961 -0.9901682 -0.07222139
vn -0.1197533 -0.9902048 -0.07178817
vn -0.1188613 -0.9909202 -0.0628434
vn -0.1188243 -0.9909477 -0.06247773
vn -0.1177025 -0.9917145 -0.05146126
vn -0.1177025 -0.9917145 -0.05146126
vn -0.06359092 -0.9947194 -0.08055742
vn -0.06179236 -0.9948311 -0.08057808
vn -0.04787697 -0.9956077 -0.08045572
vn -0.04889672 -0.9955562 -0.08047967
vn -0.03252441 -0.996247 -0.08021338
vn -0.03314029 -0.9962262 -0.08021969
vn -0.01441136 -0.9965703 -0.08148564
vn -0.005497179 -0.9966803 -0.08123077
vn 0.005379003 -0.9961665 -0.08731135
vn -0.003771221 -0.9965631 -0.08275065
vn 0.01042902 -0.996375 -0.08442828
vn 0.01291322 -0.9957617 -0.09105995
vn 0.01061662 -0.996893 -0.07804735
vn 0.01070301 -0.9968924 -0.07804549
vn 0.01612715 -0.9967324 -0.07914893
vn 0.01705368 -0.9966807 -0.07960461
vn 0.02049165 -0.9965129 -0.08088256
vn 0.0211889 -0.9964982 -0.08088367
vn 0.02331955 -0.9966831 -0.07796871
vn 0.02293284 -0.9966211 -0.07886993
vn 0.02508082 -0.997057 -0.07244545
vn 0.02543188 -0.997154 -0.07097178
vn 0.02759768 -0.9977115 -0.06172511
vn 0.02789051 -0.9977828 -0.06042873
vn 0.0306838 -0.9983736 -0.04804653
vn 0.0306838 -0.9983736 -0.04804653
vn 0.9620804 -0.1386931 -0.2348734
vn 0.8016835 -0.1245918 -0.5846199
vn 0.8123138 -0.1252474 -0.5696134
vn 0.957093 -0.1380764 -0.2547703
vn 0.9794438 -0.1399376 -0.1452832
vn 0.9807448 -0.1401467 -0.1360098
vn 0.883139 -0.133615 -0.4496804
vn 0.8933814 -0.1342744 -0.4287657
vn 0.6300478 -0.1213996 -0.7670084
vn 0.6494213 -0.1221536 -0.7505534
vn 0.169658 -0.1101274 -0.9793305
vn 0.2063009 -0.1111184 -0.9721587
vn -0.3925258 -0.09472027 -0.9148506
vn -0.3742986 -0.09515935 -0.9224128
vn -0.7514887 -0.08546767 -0.6541864
vn -0.7491974 -0.0854874 -0.6568068
vn -0.9331264 -0.08620295 -0.3490617
vn -0.9350448 -0.0862553 -0.3438768
vn -0.9928176 -0.08897442 -0.07998041
vn -0.9932807 -0.08911771 -0.07383456
vn -0.995469 -0.09384866 0.01529253
vn -0.9956541 -0.09174741 0.01597754
vn -0.9914585 -0.1302937 0.005798611
vn -0.99064 -0.1364356 0.004203605
vn -0.986323 -0.1644226 0.01149234
vn -0.9859087 -0.1672291 0.004302619
vn -0.9842536 -0.1313723 0.1182623
vn -0.9836483 -0.1290862 0.1255899
vn -0.906756 -0.1076756 0.4076757
vn -0.898646 -0.1083504 0.4250829
vn -0.6715694 -0.1227146 0.730709
vn -0.6540419 -0.1236233 0.7462884
vn -0.3259737 -0.1380237 0.935249
vn -0.3023561 -0.138878 0.9430237
vn -0.01592668 -0.1457483 0.9891935
vn -0.004950464 -0.1460125 0.9892703
vn 0.1854032 -0.1489382 0.97131
vn 0.1941483 -0.1490002 0.9695904
vn 0.4548835 -0.1517803 0.8775213
vn 0.4651411 -0.1517881 0.8721262
vn 0.7532822 -0.1497813 0.6404151
vn 0.7558023 -0.1497416 0.6374484
vn 0.9410191 -0.14426 0.306059
vn 0.9397426 -0.1443339 0.3099223
vn 0.9904369 -0.1368586 0.01745374
vn 0.9903234 -0.1369479 0.02246559
vn 0.9891366 -0.1388606 0.04823442
vn 0.9894371 -0.1387015 0.04214531
vn 0.9018367 -0.1487917 0.4056497
vn 0.9028159 -0.1487585 0.4034779
vn 0.4858019 -0.1592477 0.8594397
vn 0.466959 -0.1592407 0.8698229
vn -0.1181794 -0.1486441 0.9818038
vn -0.1383319 -0.1484606 0.9791955
vn -0.2973535 -0.1424299 0.944084
vn -0.2869872 -0.142359 0.9472973
vn -0.147912 -0.1442971 0.9784172
vn -0.1416895 -0.1444562 0.9793143
vn -0.006861288 -0.1470722 0.9891019
vn -0.004746663 -0.1471071 0.9891092
vn 0.1625099 -0.1460556 0.9758372
vn 0.1651799 -0.1459918 0.9753983
vn 0.3809464 -0.1402391 0.9138998
vn 0.3737974 -0.140435 0.916817
vn 0.6268871 -0.1335958 0.7675706
vn 0.6149406 -0.1340607 0.7770944
vn 0.7627006 -0.2006473 0.6148403
vn 0.7617016 -0.1934929 0.6183617
vn 0.8345154 -0.3213533 0.4475668
vn 0.832098 -0.3190184 0.4536961
vn 0.9276661 -0.3038641 0.2170303
vn 0.9296663 -0.3009547 0.212478
vn 0.9841825 -0.1662847 0.0611066
vn 0.9834621 -0.1696564 0.06339583
vn 0.9898788 -0.1005712 -0.1001265
vn 0.9905653 -0.1007392 -0.09290932
vn 0.8998109 -0.09722931 -0.4253078
vn 0.902974 -0.09731249 -0.418531
vn 0.6358973 -0.09493227 -0.7659129
vn 0.6341787 -0.09493813 -0.7673357
vn 0.1511257 -0.1040213 -0.9830262
vn 0.1333594 -0.1043223 -0.9855619
vn -0.4206338 -0.1106742 -0.9004546
vn -0.4406658 -0.1110192 -0.8907796
vn -0.7571208 -0.1160302 -0.642888
vn -0.7640122 -0.116261 -0.6346407
vn -0.9266463 -0.1236575 -0.3550149
vn -0.9297103 -0.1238592 -0.3468393
vn -0.9862048 -0.1283575 -0.1045203
vn -0.9867957 -0.1284926 -0.09861037
vn -0.9841198 -0.1279723 -0.1230087
vn -0.9830564 -0.1277558 -0.1314476
vn -0.9133063 -0.1213448 -0.3887764
vn -0.9106033 -0.1211545 -0.3951244
vn -0.7299567 -0.1128102 -0.6741195
vn -0.7309865 -0.112848 -0.6729962
vn -0.4532264 -0.1056241 -0.8851154
vn -0.460337 -0.1057572 -0.8814223
vn -0.1376127 -0.1021839 -0.9852011
vn -0.1495109 -0.1022318 -0.9834608
vn 0.1804149 -0.1036406 -0.978115
vn 0.1656549 -0.1034638 -0.9807414
vn 0.4641002 -0.1091283 -0.8790347
vn 0.4502919 -0.108734 -0.8862359
vn 0.6493807 -0.1152531 -0.7516791
vn 0.6417905 -0.1148742 -0.7582274
vn 0.8123138 -0.1252474 -0.5696134
vn 0.8016835 -0.1245918 -0.5846199
g CB-Letter_1_0
f 3/3/3 2/2/2 1/1/1
f 2/2/2 4/4/4 1/1/1
f 4/4/4 2/2/2 5/5/5
f 6/6/6 4/4/4 5/5/5
f 6/6/6 5/5/5 7/7/7
f 8/8/8 6/6/6 7/7/7
f 8/8/8 7/7/7 9/9/9
f 10/10/10 8/8/8 9/9/9
f 9/9/9 11/11/11 10/10/10
f 11/11/11 12/12/12 10/10/10
f 12/12/12 11/11/11 13/13/13
f 13/13/13 11/11/11 14/14/14
f 11/11/11 15/15/15 14/14/14
f 16/16/16 14/14/14 15/15/15
f 17/17/17 16/16/16 15/15/15
f 15/15/15 18/18/18 17/17/17
f 18/18/18 19/19/19 17/17/17
f 19/19/19 18/18/18 20/20/20
f 21/21/21 19/19/19 20/20/20
f 21/21/21 20/20/20 22/22/22
f 23/23/23 21/21/21 22/22/22
f 23/23/23 22/22/22 24/24/24
f 25/25/25 23/23/23 24/24/24
f 25/25/25 24/24/24 26/26/26
f 27/27/27 25/25/25 26/26/26
f 14/14/14 16/16/16 28/28/28
f 29/29/29 14/14/14 28/28/28
f 30/30/30 29/29/29 28/28/28
f 31/31/31 30/30/30 28/28/28
f 30/30/30 31/31/31 32/32/32
f 33/33/33 30/30/30 32/32/32
f 34/34/34 33/33/33 32/32/32
f 35/35/35 34/34/34 32/32/32
f 34/34/34 35/35/35 36/36/36
f 37/37/37 34/34/34 36/36/36
f 36/36/36 35/35/35 38/38/38
f 39/39/39 36/36/36 38/38/38
f 38/38/38 35/35/35 40/40/40
f 41/41/41 38/38/38 40/40/40
f 42/42/42 41/41/41 40/40/40
f 43/43/43 42/42/42 40/40/40
f 44/44/44 42/42/42 43/43/43
f 45/45/45 44/44/44 43/43/43
f 46/46/46 44/44/44 45/45/45
f 47/47/47 46/46/46 45/45/45
f 46/46/46 47/47/47 48/48/48
f 49/49/49 46/46/46 48/48/48
f 49/49/49 48/48/48 50/50/50
f 51/51/51 49/49/49 50/50/50
f 51/51/51 50/50/50 52/52/52
f 53/53/53 51/51/51 52/52/52
f 56/56/56 55/55/55 54/54/54
f 55/55/55 57/57/57 54/54/54
f 54/54/54 57/57/57 58/58/58
f 57/57/57 59/59/59 58/58/58
f 58/58/58 59/59/59 60/60/60
f 59/59/59 61/61/61 60/60/60
f 60/60/60 61/61/61 62/62/62
f 61/61/61 63/63/63 62/62/62
f 62/62/62 63/63/63 64/64/64
f 63/63/63 65/65/65 64/64/64
f 64/64/64 65/65/65 66/66/66
f 65/65/65 67/67/67 66/66/66
f 66/66/66 67/67/67 68/68/68
f 67/67/67 69/69/69 68/68/68
f 68/68/68 69/69/69 70/70/70
f 69/69/69 71/71/71 70/70/70
f 70/70/70 71/71/71 72/72/72
f 71/71/71 73/73/73 72/72/72
f 72/72/72 73/73/73 74/74/74
f 73/73/73 75/75/75 74/74/74
f 74/74/74 75/75/75 76/76/76
f 75/75/75 77/77/77 76/76/76
f 76/76/76 77/77/77 78/78/78
f 77/77/77 79/79/79 78/78/78
f 78/78/78 79/79/79 80/80/80
f 79/79/79 81/81/81 80/80/80
f 80/80/80 81/81/81 82/82/82
f 81/81/81 83/83/83 82/82/82
f 82/82/82 83/83/83 84/84/84
f 83/83/83 85/85/85 84/84/84
f 84/84/84 85/85/85 86/86/86
f 85/85/85 87/87/87 86/86/86
f 86/86/86 87/87/87 88/88/88
f 87/87/87 89/89/89 88/88/88
f 88/88/88 89/89/89 90/90/90
f 89/89/89 91/91/91 90/90/90
f 90/90/90 91/91/91 92/92/92
f 91/91/91 93/93/93 92/92/92
f 92/92/92 93/93/93 94/94/94
f 93/93/93 95/95/95 94/94/94
f 94/94/94 95/95/95 96/96/96
f 95/95/95 97/97/97 96/96/96
f 96/96/96 97/97/97 98/98/98
f 97/97/97 99/99/99 98/98/98
f 98/98/98 99/99/99 100/100/100
f 99/99/99 101/101/101 100/100/100
f 100/100/100 101/101/101 102/102/102
f 101/101/101 103/103/103 102/102/102
f 102/102/102 103/103/103 104/104/104
f 103/103/103 105/105/105 104/104/104
f 104/104/104 105/105/105 106/106/106
f 105/105/105 107/107/107 106/106/106
f 106/106/106 107/107/107 108/108/108
f 107/107/107 109/109/109 108/108/108
f 108/108/108 109/109/109 110/110/110
f 109/109/109 111/111/111 110/110/110
f 110/110/110 111/111/111 112/112/112
f 111/111/111 113/113/113 112/112/112
f 112/112/112 113/113/113 114/114/114
f 113/113/113 115/115/115 114/114/114
f 114/114/114 115/115/115 116/116/116
f 115/115/115 117/117/117 116/116/116
f 116/116/116 117/117/117 118/118/118
f 117/117/117 119/119/119 118/118/118
f 118/118/118 119/119/119 120/120/120
f 119/119/119 121/121/121 120/120/120
f 120/120/120 121/121/121 122/122/122
f 121/121/121 123/123/123 122/122/122
f 122/122/122 123/123/123 124/124/124
f 123/123/123 125/125/125 124/124/124
f 124/124/124 125/125/125 126/126/126
f 125/125/125 127/127/127 126/126/126
f 126/126/126 127/127/127 128/128/128
f 127/127/127 129/129/129 128/128/128
f 128/128/128 129/129/129 130/130/130
f 129/129/129 131/131/131 130/130/130
f 130/130/130 131/131/131 132/132/132
f 131/131/131 133/133/133 132/132/132
f 132/132/132 133/133/133 134/134/134
f 133/133/133 135/135/135 134/134/134
f 134/134/134 135/135/135 136/136/136
f 135/135/135 137/137/137 136/136/136
f 136/136/136 137/137/137 138/138/138
f 137/137/137 139/139/139 138/138/138
f 138/138/138 139/139/139 140/140/140
f 139/139/139 141/141/141 140/140/140
f 140/140/140 141/141/141 142/142/142
f 141/141/141 143/143/143 142/142/142
f 142/142/142 143/143/143 144/144/144
f 143/143/143 145/145/145 144/144/144
f 144/144/144 145/145/145 146/146/146
f 145/145/145 147/147/147 146/146/146
f 146/146/146 147/147/147 148/148/148
f 147/147/147 149/149/149 148/148/148
f 148/148/148 149/149/149 150/150/150
f 149/149/149 151/151/151 150/150/150
f 150/150/150 151/151/151 152/152/152
f 151/151/151 153/153/153 152/152/152
f 152/152/152 153/153/153 154/154/154
f 153/153/153 155/155/155 154/154/154
f 154/154/154 155/155/155 156/156/156
f 155/155/155 157/157/157 156/156/156
f 156/156/156 157/157/157 158/158/158
f 157/157/157 159/159/159 158/158/158
f 158/158/158 159/159/159 160/160/160
f 159/159/159 161/161/161 160/160/160
