g CB-Roof
v 3.914523 -0.2234756 8.507592
v 0.003662671 -0.2095806 8.507592
v 3.857768 0.5547194 8.507592
v 3.905858 -0.9734479 8.507592
v 3.632551 1.29302 8.507592
v 3.575479 -1.715069 8.507592
v 3.280609 1.97264 8.507592
v 3.170026 -2.399354 8.507592
v 2.813879 2.568666 8.507592
v 2.842577 -2.982805 8.507592
v 2.181859 3.044918 8.507592
v 2.205151 -3.477487 8.507592
v 1.478252 3.407603 8.507592
v 1.484453 -3.843638 8.507592
v 0.7757376 3.633767 8.507592
v 0.75534 -4.062862 8.507592
v 0.01783159 3.709183 8.507592
v -0.02113255 -4.1373 8.507592
v -0.7615409 3.632836 8.507592
v -0.7894395 -4.063475 8.507592
v -1.533 3.412488 8.507592
v -1.505472 -3.843905 8.507592
v -2.187256 3.049479 8.507592
v -2.150102 -3.479446 8.507592
v -2.737258 2.555843 8.507592
v -2.711222 -2.988953 8.507592
v -3.240521 1.968633 8.507592
v -3.351857 -2.396605 8.507592
v -3.613739 1.29205 8.507592
v -3.674147 -1.716102 8.507592
v -3.84108 0.5416146 8.507592
v -3.796793 -0.9778331 8.507592
v -3.936328 -0.2207797 8.507592
vt 0.3930791 0.5272383
vt 0.2447292 0.5244024
vt 0.3902571 0.5567062
vt 0.3933952 0.4987843
vt 0.38108 0.5845159
vt 0.3815017 0.4703707
vt 0.3671467 0.6099909
vt 0.3667113 0.4440674
vt 0.3489314 0.6321964
vt 0.354793 0.4216557
vt 0.3245494 0.6497171
vt 0.331041 0.4023446
vt 0.2975498 0.6628684
vt 0.3040202 0.3878369
vt 0.2707089 0.6708426
vt 0.2765538 0.3788948
vt 0.2418967 0.6730514
vt 0.2471666 0.3754036
vt 0.2124006 0.6694852
vt 0.2179616 0.377543
vt 0.1833286 0.6604638
vt 0.1906141 0.3852553
vt 0.158825 0.6461323
vt 0.1658502 0.3985246
vt 0.1383882 0.6269357
vt 0.1441453 0.4166462
vt 0.1198046 0.6042302
vt 0.1193366 0.4385628
vt 0.1062307 0.5782467
vt 0.1065269 0.4640969
vt 0.0982532 0.5495874
vt 0.10124 0.4919937
vt 0.0952963 0.5205884
vn 0 0 1
vn 0 0 1
vn 0 0 1
vn 0 0 1
vn 0 0 1
vn 0 0 1
vn 0 0 1
vn 0 0 1
vn 0 0 1
vn 0 0 1
vn 0 0 1
vn 0 0 1
vn 0 0 1
vn 0 0 1
vn 0 0 1
vn 0 0 1
vn 0 0 1
vn 0 0 1
vn 0 0 1
vn 0 0 1
vn 0 0 1
vn 0 0 1
vn 0 0 1
vn 0 0 1
vn 0 0 1
vn 0 0 1
vn 0 0 1
vn 0 0 1
vn 0 0 1
vn 0 0 1
vn 0 0 1
vn 0 0 1
vn 0 0 1
g CB-Roof_0
f 3/3/3 2/2/2 1/1/1
f 1/1/1 2/2/2 4/4/4
f 5/5/5 2/2/2 3/3/3
f 4/4/4 2/2/2 6/6/6
f 7/7/7 2/2/2 5/5/5
f 6/6/6 2/2/2 8/8/8
f 9/9/9 2/2/2 7/7/7
f 8/8/8 2/2/2 10/10/10
f 11/11/11 2/2/2 9/9/9
f 10/10/10 2/2/2 12/12/12
f 13/13/13 2/2/2 11/11/11
f 12/12/12 2/2/2 14/14/14
f 15/15/15 2/2/2 13/13/13
f 14/14/14 2/2/2 16/16/16
f 17/17/17 2/2/2 15/15/15
f 16/16/16 2/2/2 18/18/18
f 19/19/19 2/2/2 17/17/17
f 18/18/18 2/2/2 20/20/20
f 21/21/21 2/2/2 19/19/19
f 20/20/20 2/2/2 22/22/22
f 23/23/23 2/2/2 21/21/21
f 22/22/22 2/2/2 24/24/24
f 25/25/25 2/2/2 23/23/23
f 24/24/24 2/2/2 26/26/26
f 27/27/27 2/2/2 25/25/25
f 26/26/26 2/2/2 28/28/28
f 29/29/29 2/2/2 27/27/27
f 28/28/28 2/2/2 30/30/30
f 31/31/31 2/2/2 29/29/29
f 30/30/30 2/2/2 32/32/32
f 33/33/33 2/2/2 31/31/31
f 32/32/32 2/2/2 33/33/33
