g PanelTailTip_3
v 0.04715027 0.3213098 0.748605
v 0.04715027 0.3272999 0.766728
v -0.01511369 0.3245537 0.766728
v 0.037565 0.3040364 0.6976227
v 0.04715027 0.3037532 0.6959802
v -0.06785004 0.3048166 0.7084321
v -0.06132365 0.3233985 0.766728
v -0.1711574 0.31988 0.766728
v 0.02179504 0.248884 0.6024434
v 0.04714996 0.2483723 0.5989307
v -0.1743588 0.3044536 0.7148646
v -0.2794594 0.3166088 0.766728
v -0.07691956 0.2494388 0.6100104
v 0.01117218 0.1797821 0.5294318
v 0.04715027 0.1794351 0.5253175
v -0.280773 0.303213 0.7182317
v -0.38631 0.3135579 0.766728
v -0.1787164 0.2493356 0.6136573
v -0.08289246 0.180251 0.5349911
v 0.005402221 0.1002936 0.4854171
v 0.04715027 0.1001176 0.4810953
v 0.003382873 0.0157106 0.4693339
v 0.04715027 0.01532623 0.4652074
v 0.04715027 0.0004257202 0.4666693
v 0.00354248 0.0004257202 0.4708116
v -0.0877002 0.01653656 0.4735325
v -0.08765228 0.0004257202 0.4749818
v -0.08629821 0.1007141 0.4901055
v -0.1815091 0.1804814 0.5372274
v -0.2817548 0.2485496 0.6145502
v -0.1843689 0.01751923 0.4749928
v -0.1843967 0.0004258728 0.476425
v -0.1833655 0.1011774 0.4918964
v -0.2839893 0.01857712 0.4747
v -0.2840817 0.0004257202 0.4761763
v -0.2824078 0.180235 0.5373073
v -0.2832364 0.10158 0.4917833
v -0.3863583 0.3013316 0.7192848
v -0.3849414 0.01974503 0.4732524
v -0.3850864 0.0004257202 0.4747564
v -0.3848877 0.247278 0.6133313
v -0.4903009 0.299088 0.7184933
v -0.4912922 0.3107255 0.766728
v -0.3843075 0.101875 0.490509
v -0.3841064 0.1796774 0.5357339
v -0.4860159 0.02103088 0.4713601
v -0.48621 0.0004258728 0.4728316
v -0.4870575 0.2458337 0.6105731
v -0.5915417 0.2964935 0.716274
v -0.5935895 0.3079357 0.7667279
v -0.485376 0.1021112 0.4886197
v -0.4854382 0.1789673 0.5331042
v -0.5864547 0.02229141 0.4693339
v -0.5867203 0.0004255676 0.4707435
v -0.5872506 0.244252 0.606851
v -0.6890265 0.2935883 0.712733
v -0.6922668 0.3051425 0.766728
v -0.5856057 0.1022716 0.4863654
v -0.5855038 0.1781087 0.5299012
v -0.6862409 0.02320175 0.4676857
v -0.6866305 0.0004257202 0.4689908
v -0.6846259 0.2426657 0.6026269
v -0.782001 0.2904254 0.707963
v -0.7866291 0.3024601 0.766728
v -0.6847259 0.1023039 0.4840985
v -0.6837344 0.1773543 0.5263786
v -0.7862799 0.02317291 0.4677378
v -0.7868237 0.0004257202 0.4689196
v -0.7788208 0.2410843 0.5988268
v -0.870368 0.2862538 0.7023106
v -0.8765395 0.2993731 0.766728
v -0.7833655 0.101861 0.4828354
v -0.7802628 0.1769078 0.5231438
v -0.8877997 0.0219371 0.4723366
v -0.8883569 0.0004255676 0.4734383
v -0.8700372 0.2375474 0.5985221
v -0.9545965 0.2802344 0.6961074
v -0.9621556 0.2953251 0.766728
v -1.03418 0.2729764 0.6897046
v -1.042251 0.2908111 0.766728
v -0.8828946 0.1000349 0.4858372
v -0.9901016 0.02065445 0.4860546
v -0.9904498 0.0004257202 0.4871048
v -0.8760986 0.174655 0.5247889
v -0.9586273 0.2325772 0.6022334
v -0.9710403 0.1706046 0.5351017
v -1.111453 0.2832729 0.757146
v -1.088654 0.2872951 0.766728
v -1.115009 0.2829667 0.766728
v -1.089055 0.02115616 0.5138921
v -1.080293 0.0975444 0.5235623
v -1.089096 0.0004258728 0.5148325
v -0.9831182 0.09769501 0.4978727
v -1.178731 0.02432129 0.5579619
v -1.178441 0.0004255676 0.558779
v -1.254841 0.0004257202 0.618353
v -1.255479 0.02979309 0.6176894
v -1.305249 0.0004258728 0.7036608
v -1.165977 0.26742 0.7336517
v -1.1721 0.2682329 0.766728
v -1.214904 0.2468719 0.766728
v -1.215365 0.243609 0.71885
v -1.259119 0.1996421 0.766728
v -1.153042 0.2566705 0.688803
v -1.104467 0.2647 0.6859801
v -1.181759 0.2299396 0.660422
v -1.25779 0.194825 0.7108267
v -1.293136 0.1281176 0.766728
v -1.120939 0.2259445 0.6277313
v -1.146613 0.1709322 0.5873916
v -1.215107 0.1805086 0.6371359
v -1.043819 0.2283424 0.610598
v -1.062922 0.1682899 0.5549063
v -1.29043 0.1243173 0.7056428
v -1.308557 0.03837293 0.766728
v -1.242357 0.1124025 0.622803
v -1.16843 0.1020653 0.5648204
v -1.306078 0.03580993 0.7033679
v -1.30784 0.0004258728 0.766728
vt 0.8056693 0.8243342
vt 0.8057345 0.8258271
vt 0.8106874 0.825529
vt 0.8062617 0.8203439
vt 0.8054947 0.8202081
vt 0.814641 0.8207709
vt 0.8143428 0.8253462
vt 0.8230363 0.8247063
vt 0.8072186 0.8122277
vt 0.8051975 0.8120753
vt 0.8230814 0.8207096
vt 0.8315711 0.8240658
vt 0.8150577 0.8123911
vt 0.807866 0.8048288
vt 0.8050247 0.8047458
vt 0.8314878 0.8203812
vt 0.8399433 0.8234568
vt 0.823137 0.8122337
vt 0.8153065 0.804853
vt 0.8081291 0.7981755
vt 0.804782 0.7981699
vt 0.8082328 0.7919405
vt 0.8047268 0.7919268
vt 0.8047488 0.7908294
vt 0.8082321 0.790817
vt 0.8155094 0.7919607
vt 0.815497 0.7907841
vt 0.815459 0.7981635
vt 0.8231674 0.8047239
vt 0.8313143 0.8118141
vt 0.8232029 0.7919731
vt 0.8231838 0.7907494
vt 0.8232238 0.7981064
vt 0.831149 0.791566
vt 0.83113 0.790233
vt 0.8312368 0.8042962
vt 0.8312189 0.7976962
vt 0.839781 0.8198952
vt 0.839292 0.7912357
vt 0.83928 0.7898563
vt 0.8394746 0.8112466
vt 0.8478866 0.8193309
vt 0.848109 0.8229113
vt 0.8393406 0.7972549
vt 0.8393525 0.8037676
vt 0.8475415 0.7907503
vt 0.8475456 0.7892381
vt 0.8475242 0.8106254
vt 0.8557177 0.8187579
vt 0.8559967 0.8224601
vt 0.8474969 0.7967442
vt 0.8474137 0.8031912
vt 0.8558223 0.7907211
vt 0.8558804 0.7891548
vt 0.8553911 0.8100629
vt 0.8631862 0.8182026
vt 0.8635242 0.8221208
vt 0.8556256 0.796565
vt 0.8553944 0.8028061
vt 0.8641207 0.7906728
vt 0.8642436 0.7890773
vt 0.8630027 0.809577
vt 0.8702246 0.8176868
vt 0.870626 0.8219073
vt 0.8637009 0.7963833
vt 0.8632577 0.8024691
vt 0.8725735 0.7907747
vt 0.8727971 0.7891874
vt 0.8702984 0.8092552
vt 0.876828 0.8172216
vt 0.8772898 0.8218089
vt 0.871762 0.7963745
vt 0.8709335 0.802309
vt 0.8812633 0.7914973
vt 0.8816183 0.7900422
vt 0.8772817 0.8092452
vt 0.8830515 0.8168108
vt 0.8835422 0.8218045
vt 0.8888861 0.816482
vt 0.8893196 0.8218688
vt 0.8798925 0.7968881
vt 0.8900659 0.7932007
vt 0.8905576 0.791914
vt 0.8784707 0.8025935
vt 0.8839836 0.8096023
vt 0.8858639 0.8035172
vt 0.8942949 0.8212602
vt 0.8926437 0.8219095
vt 0.8945791 0.8218874
vt 0.8985558 0.7962485
vt 0.8957742 0.8007486
vt 0.8992355 0.7950528
vt 0.8880242 0.7982248
vt 0.9061227 0.8008141
vt 0.9071203 0.7996292
vt 0.9136969 0.8057974
vt 0.912205 0.8069089
vt 0.9182895 0.8136864
vt 0.8982907 0.8196434
vt 0.8987923 0.8217801
vt 0.9021189 0.8216361
vt 0.9020147 0.8185902
vt 0.9063483 0.8212509
vt 0.8975648 0.8166159
vt 0.894013 0.8163666
vt 0.9000597 0.8145465
vt 0.9060742 0.817592
vt 0.9113179 0.8206084
vt 0.8959041 0.8119797
vt 0.8989748 0.8082062
vt 0.9035529 0.8123055
vt 0.8903195 0.8104458
vt 0.892874 0.8053104
vt 0.9107606 0.8162801
vt 0.9170572 0.8196458
vt 0.9076562 0.8098743
vt 0.902517 0.8046388
vt 0.9162 0.8144682
vt 0.9194318 0.8192173
vn -0.04170159 0.9486482 -0.3135725
vn -0.04184146 0.9486485 -0.3135531
vn -0.02534175 0.9528975 -0.3022319
vn -0.03957079 0.9030613 -0.4276849
vn -0.0559991 0.8765971 -0.4779557
vn -0.03315264 0.9026199 -0.4291599
vn -0.0271846 0.9532931 -0.3008209
vn -0.02983067 0.9585732 -0.2832802
vn -0.04558473 0.8071416 -0.5885954
vn -0.07013346 0.7814295 -0.6200396
vn -0.02727485 0.8944563 -0.4463228
vn -0.02831262 0.9637139 -0.2654317
vn -0.03039228 0.8155941 -0.5778257
vn -0.0538449 0.6219273 -0.7812216
vn -0.0852219 0.5995365 -0.7957972
vn -0.02239945 0.8972312 -0.4409927
vn -0.02687824 0.9680185 -0.2494349
vn -0.01621576 0.8218815 -0.5694275
vn -0.02899565 0.6313422 -0.7749621
vn -0.06127563 0.3460084 -0.9362283
vn -0.09576403 0.3315614 -0.9385607
vn -0.05935743 0.1447657 -0.987684
vn -0.09170575 0.1407974 -0.985782
vn -0.09411818 -0.0972089 -0.9908038
vn -0.06092059 -0.09668494 -0.9934489
vn -0.02829786 0.149376 -0.9883754
vn -0.02931132 -0.08964302 -0.9955426
vn -0.03040593 0.3535747 -0.934912
vn -0.007094996 0.6827142 -0.7306511
vn -0.007382177 0.8282998 -0.5602366
vn 0.001586065 0.1455774 -0.9893456
vn 9.519757E-05 -0.08349617 -0.9965081
vn -0.0004814252 0.3578452 -0.9337807
vn 0.01018131 0.1476 -0.9889948
vn 0.008248095 -0.08110529 -0.9966714
vn 0.002978627 0.6523097 -0.7579467
vn 0.007661089 0.360902 -0.9325723
vn -0.01829292 0.9027309 -0.4298166
vn 0.01817664 0.1514899 -0.9882917
vn 0.01649341 -0.07773218 -0.9968379
vn -0.0003382547 0.8342417 -0.5513989
vn -0.01600653 0.9212305 -0.3886878
vn -0.02635631 0.9716455 -0.2349691
vn 0.01553236 0.3636549 -0.9314042
vn 0.01152861 0.6562007 -0.7544983
vn 0.02116427 0.15474 -0.9877285
vn 0.0198499 -0.07140434 -0.9972499
vn 0.004872527 0.839399 -0.5434939
vn -0.01436601 0.9228352 -0.3849269
vn -0.02708433 0.9746401 -0.2221335
vn 0.0198923 0.3639425 -0.931209
vn 0.01669939 0.6576678 -0.7531231
vn 0.01980815 0.1560808 -0.9875457
vn 0.01911534 -0.06455547 -0.997731
vn 0.008076997 0.8437384 -0.5366938
vn -0.01322375 0.9274644 -0.3736775
vn -0.0277185 0.9771449 -0.2107593
vn 0.02148388 0.362226 -0.9318427
vn 0.02021641 0.6574149 -0.7532575
vn 0.01466008 0.1517069 -0.9883168
vn 0.01435026 -0.05744578 -0.9982455
vn 0.008185255 0.8476735 -0.5304552
vn -0.01635858 0.9286721 -0.3705407
vn -0.03071208 0.9787269 -0.2028558
vn 0.01592812 0.3556591 -0.93448
vn 0.0225579 0.6441157 -0.7645954
vn -0.02386472 0.1370434 -0.9902775
vn -0.02205804 -0.05134818 -0.9984372
vn 0.002197213 0.8497517 -0.5271786
vn -0.03204224 0.9540128 -0.2980484
vn -0.03992169 0.9783488 -0.2030761
vn -0.01195653 0.3377087 -0.9411748
vn 0.00990425 0.713853 -0.7002255
vn -0.0908154 0.1273521 -0.9876913
vn -0.08842849 -0.04866317 -0.9948932
vn -0.04905366 0.8437082 -0.5345562
vn -0.04751999 0.9324402 -0.3581859
vn -0.05055122 0.9755525 -0.213874
vn -0.06822551 0.9239576 -0.3763608
vn -0.06427956 0.9707084 -0.2315022
vn -0.07717084 0.3252943 -0.9424586
vn -0.2024222 0.1211566 -0.9717748
vn -0.2023033 -0.04730413 -0.9781798
vn -0.06801272 0.6296703 -0.7738795
vn -0.08143339 0.8233483 -0.5616638
vn -0.1441534 0.6127879 -0.7769883
vn -0.1105961 0.9659916 -0.2337281
vn -0.07378123 0.9700028 -0.2316268
vn -0.2443216 0.9678509 -0.05976282
vn -0.3545872 0.1135549 -0.928102
vn -0.317326 0.2974969 -0.9004441
vn -0.3605959 -0.04155823 -0.9317959
vn -0.1806721 0.3193016 -0.930271
vn -0.5271519 0.1004613 -0.8438119
vn -0.5375196 -0.03533095 -0.8425108
vn -0.7643234 -0.03115408 -0.64408
vn -0.7509298 0.1079874 -0.651493
vn -0.9464478 -0.02485101 -0.3218991
vn -0.2793797 0.9341152 -0.2222061
vn -0.3810463 0.9198522 -0.09314327
vn -0.625617 0.7787107 -0.04704439
vn -0.5901645 0.7490967 -0.300932
vn -0.8349086 0.5463048 -0.06692329
vn -0.2611699 0.870059 -0.4180763
vn -0.1113948 0.9047369 -0.4111475
vn -0.425997 0.6895997 -0.5856439
vn -0.7901596 0.51264 -0.3359286
vn -0.9544947 0.292038 -0.06044648
vn -0.2142486 0.7323034 -0.646397
vn -0.3714654 0.5122081 -0.7743749
vn -0.5994412 0.4884546 -0.6340996
vn -0.1229234 0.7877645 -0.6035866
vn -0.2302067 0.5699316 -0.7887857
vn -0.8978829 0.2817223 -0.3382879
vn -0.9922287 0.1165622 -0.04353572
vn -0.7125916 0.2654811 -0.6494097
vn -0.4871829 0.2636989 -0.8325358
vn -0.935795 0.1172396 -0.3324794
vn -0.998979 -0.01888377 -0.04104275
g PanelTailTip_3_0
f 3/3/3 2/2/2 1/1/1
f 4/4/4 3/3/3 1/1/1
f 4/4/4 1/1/1 5/5/5
f 3/3/3 4/4/4 6/6/6
f 7/7/7 3/3/3 6/6/6
f 8/8/8 7/7/7 6/6/6
f 4/4/4 5/5/5 9/9/9
f 6/6/6 4/4/4 9/9/9
f 5/5/5 10/10/10 9/9/9
f 11/11/11 8/8/8 6/6/6
f 12/12/12 8/8/8 11/11/11
f 13/13/13 6/6/6 9/9/9
f 11/11/11 6/6/6 13/13/13
f 9/9/9 10/10/10 14/14/14
f 13/13/13 9/9/9 14/14/14
f 10/10/10 15/15/15 14/14/14
f 16/16/16 12/12/12 11/11/11
f 17/17/17 12/12/12 16/16/16
f 18/18/18 11/11/11 13/13/13
f 16/16/16 11/11/11 18/18/18
f 19/19/19 13/13/13 14/14/14
f 18/18/18 13/13/13 19/19/19
f 14/14/14 15/15/15 20/20/20
f 19/19/19 14/14/14 20/20/20
f 15/15/15 21/21/21 20/20/20
f 20/20/20 21/21/21 22/22/22
f 21/21/21 23/23/23 22/22/22
f 23/23/23 24/24/24 22/22/22
f 24/24/24 25/25/25 22/22/22
f 26/26/26 22/22/22 25/25/25
f 22/22/22 26/26/26 20/20/20
f 27/27/27 26/26/26 25/25/25
f 28/28/28 19/19/19 20/20/20
f 26/26/26 28/28/28 20/20/20
f 29/29/29 18/18/18 19/19/19
f 29/29/29 19/19/19 28/28/28
f 30/30/30 16/16/16 18/18/18
f 30/30/30 18/18/18 29/29/29
f 31/31/31 26/26/26 27/27/27
f 32/32/32 31/31/31 27/27/27
f 33/33/33 28/28/28 26/26/26
f 33/33/33 29/29/29 28/28/28
f 31/31/31 33/33/33 26/26/26
f 31/31/31 32/32/32 34/34/34
f 32/32/32 35/35/35 34/34/34
f 36/36/36 29/29/29 33/33/33
f 36/36/36 30/30/30 29/29/29
f 37/37/37 33/33/33 31/31/31
f 34/34/34 37/37/37 31/31/31
f 37/37/37 36/36/36 33/33/33
f 38/38/38 16/16/16 30/30/30
f 38/38/38 17/17/17 16/16/16
f 34/34/34 35/35/35 39/39/39
f 35/35/35 40/40/40 39/39/39
f 41/41/41 30/30/30 36/36/36
f 41/41/41 38/38/38 30/30/30
f 17/17/17 38/38/38 42/42/42
f 42/42/42 38/38/38 41/41/41
f 43/43/43 17/17/17 42/42/42
f 44/44/44 37/37/37 34/34/34
f 39/39/39 44/44/44 34/34/34
f 45/45/45 36/36/36 37/37/37
f 45/45/45 41/41/41 36/36/36
f 44/44/44 45/45/45 37/37/37
f 39/39/39 40/40/40 46/46/46
f 40/40/40 47/47/47 46/46/46
f 48/48/48 42/42/42 41/41/41
f 48/48/48 41/41/41 45/45/45
f 43/43/43 42/42/42 49/49/49
f 49/49/49 42/42/42 48/48/48
f 50/50/50 43/43/43 49/49/49
f 51/51/51 44/44/44 39/39/39
f 46/46/46 51/51/51 39/39/39
f 52/52/52 45/45/45 44/44/44
f 52/52/52 48/48/48 45/45/45
f 51/51/51 52/52/52 44/44/44
f 46/46/46 47/47/47 53/53/53
f 47/47/47 54/54/54 53/53/53
f 55/55/55 49/49/49 48/48/48
f 55/55/55 48/48/48 52/52/52
f 50/50/50 49/49/49 56/56/56
f 56/56/56 49/49/49 55/55/55
f 57/57/57 50/50/50 56/56/56
f 58/58/58 51/51/51 46/46/46
f 53/53/53 58/58/58 46/46/46
f 59/59/59 52/52/52 51/51/51
f 59/59/59 55/55/55 52/52/52
f 58/58/58 59/59/59 51/51/51
f 53/53/53 54/54/54 60/60/60
f 54/54/54 61/61/61 60/60/60
f 62/62/62 56/56/56 55/55/55
f 62/62/62 55/55/55 59/59/59
f 57/57/57 56/56/56 63/63/63
f 63/63/63 56/56/56 62/62/62
f 64/64/64 57/57/57 63/63/63
f 65/65/65 58/58/58 53/53/53
f 60/60/60 65/65/65 53/53/53
f 66/66/66 59/59/59 58/58/58
f 66/66/66 62/62/62 59/59/59
f 65/65/65 66/66/66 58/58/58
f 60/60/60 61/61/61 67/67/67
f 61/61/61 68/68/68 67/67/67
f 69/69/69 63/63/63 62/62/62
f 69/69/69 62/62/62 66/66/66
f 64/64/64 63/63/63 70/70/70
f 70/70/70 63/63/63 69/69/69
f 71/71/71 64/64/64 70/70/70
f 72/72/72 65/65/65 60/60/60
f 67/67/67 72/72/72 60/60/60
f 73/73/73 66/66/66 65/65/65
f 73/73/73 69/69/69 66/66/66
f 72/72/72 73/73/73 65/65/65
f 67/67/67 68/68/68 74/74/74
f 68/68/68 75/75/75 74/74/74
f 76/76/76 70/70/70 69/69/69
f 76/76/76 69/69/69 73/73/73
f 71/71/71 70/70/70 77/77/77
f 77/77/77 70/70/70 76/76/76
f 78/78/78 71/71/71 77/77/77
f 78/78/78 77/77/77 79/79/79
f 80/80/80 78/78/78 79/79/79
f 81/81/81 72/72/72 67/67/67
f 74/74/74 81/81/81 67/67/67
f 74/74/74 75/75/75 82/82/82
f 81/81/81 74/74/74 82/82/82
f 75/75/75 83/83/83 82/82/82
f 84/84/84 73/73/73 72/72/72
f 84/84/84 76/76/76 73/73/73
f 81/81/81 84/84/84 72/72/72
f 85/85/85 77/77/77 76/76/76
f 85/85/85 76/76/76 84/84/84
f 79/79/79 77/77/77 85/85/85
f 86/86/86 84/84/84 81/81/81
f 86/86/86 85/85/85 84/84/84
f 87/87/87 80/80/80 79/79/79
f 87/87/87 88/88/88 80/80/80
f 87/87/87 89/89/89 88/88/88
f 90/90/90 82/82/82 83/83/83
f 82/82/82 90/90/90 91/91/91
f 92/92/92 90/90/90 83/83/83
f 93/93/93 81/81/81 82/82/82
f 93/93/93 86/86/86 81/81/81
f 93/93/93 82/82/82 91/91/91
f 86/86/86 93/93/93 91/91/91
f 94/94/94 90/90/90 92/92/92
f 90/90/90 94/94/94 91/91/91
f 95/95/95 94/94/94 92/92/92
f 95/95/95 96/96/96 94/94/94
f 96/96/96 97/97/97 94/94/94
f 97/97/97 96/96/96 98/98/98
f 89/89/89 87/87/87 99/99/99
f 100/100/100 89/89/89 99/99/99
f 100/100/100 99/99/99 101/101/101
f 99/99/99 102/102/102 101/101/101
f 103/103/103 101/101/101 102/102/102
f 104/104/104 99/99/99 87/87/87
f 99/99/99 104/104/104 102/102/102
f 105/105/105 104/104/104 87/87/87
f 79/79/79 105/105/105 87/87/87
f 106/106/106 104/104/104 105/105/105
f 104/104/104 106/106/106 102/102/102
f 107/107/107 103/103/103 102/102/102
f 108/108/108 103/103/103 107/107/107
f 109/109/109 105/105/105 79/79/79
f 109/109/109 106/106/106 105/105/105
f 106/106/106 109/109/109 110/110/110
f 106/106/106 111/111/111 102/102/102
f 111/111/111 107/107/107 102/102/102
f 111/111/111 106/106/106 110/110/110
f 112/112/112 109/109/109 79/79/79
f 109/109/109 112/112/112 110/110/110
f 112/112/112 79/79/79 85/85/85
f 112/112/112 85/85/85 86/86/86
f 113/113/113 112/112/112 86/86/86
f 112/112/112 113/113/113 110/110/110
f 113/113/113 86/86/86 91/91/91
f 113/113/113 91/91/91 110/110/110
f 114/114/114 108/108/108 107/107/107
f 115/115/115 108/108/108 114/114/114
f 111/111/111 116/116/116 107/107/107
f 116/116/116 111/111/111 110/110/110
f 116/116/116 114/114/114 107/107/107
f 91/91/91 117/117/117 110/110/110
f 117/117/117 116/116/116 110/110/110
f 94/94/94 117/117/117 91/91/91
f 94/94/94 97/97/97 117/117/117
f 97/97/97 116/116/116 117/117/117
f 116/116/116 97/97/97 114/114/114
f 118/118/118 115/115/115 114/114/114
f 97/97/97 118/118/118 114/114/114
f 119/119/119 115/115/115 118/118/118
f 118/118/118 97/97/97 98/98/98
f 98/98/98 119/119/119 118/118/118
