g SB-FrontDoor
v 0.4250297 -2.456118 0.001516255
v -0.2566765 -2.520485 0.0006436766
v -0.2265567 -2.609716 0.2719857
v -0.8820317 -2.424777 0.0002975017
v 0.4443767 -2.549867 0.2811152
v -0.8977152 -2.511661 0.2824726
v -0.2274952 -2.69429 0.6258084
v 0.4613462 -2.642223 0.6325246
v -0.9188728 -2.593398 0.6365242
v -0.2261955 -2.75393 0.9838698
v 0.4775179 -2.711173 0.9887453
v -0.935046 -2.650448 0.9948185
v -0.2236471 -2.793362 1.344588
v 0.4917554 -2.761333 1.34814
v -0.9470438 -2.687548 1.355768
v -0.2208069 -2.817419 1.706694
v 0.5029645 -2.797386 1.709335
v -0.955655 -2.709568 1.718101
v 0.4868124 -2.811832 1.879163
v -0.9379923 -2.71985 1.888205
v 0.4427797 -2.825297 2.042076
v -0.8918937 -2.733469 2.051073
v 0.3729836 -2.836493 2.191884
v -0.8195961 -2.749711 2.200427
v 0.280484 -2.844274 2.322987
v -0.7243871 -2.767611 2.3306
v 0.1690372 -2.847799 2.417669
v -0.6103342 -2.78606 2.423857
v 0.04288625 -2.846622 2.497796
v -0.4820383 -2.803887 2.502114
v -0.09341641 -2.840708 2.547589
v -0.3443667 -2.819937 2.549697
v -0.2186921 -2.831789 2.56317
vt 0.9752643 0.006023291
vt 0.8775218 0.005535817
vt 0.8772864 0.06349114
vt 0.7797784 0.005229333
vt 0.9769017 0.06403385
vt 0.7776699 0.06322462
vt 0.8770515 0.1213482
vt 0.9784762 0.1220501
vt 0.775624 0.1212257
vt 0.8768171 0.1789934
vt 0.9798968 0.1800609
vt 0.773732 0.1792233
vt 0.8765848 0.2361705
vt 0.9809739 0.2380446
vt 0.7721837 0.2371966
vt 0.8762602 0.3160559
vt 0.9813052 0.2959471
vt 0.771382 0.2950951
vt 0.9785372 0.3229775
vt 0.7739306 0.322147
vt 0.971856 0.3489191
vt 0.7804006 0.3481423
vt 0.9615165 0.3727272
vt 0.7905468 0.3720339
vt 0.9479498 0.3934625
vt 0.8039448 0.3928788
vt 0.9317324 0.4103348
vt 0.8200251 0.4098822
vt 0.9135184 0.4227416
vt 0.8381378 0.4224362
vt 0.893844 0.4302925
vt 0.8577508 0.4301462
vt 0.8757884 0.4324919
vn 0.08895858 -0.9428484 -0.3211282
vn -0.03571918 -0.9500195 -0.3101403
vn -0.02520372 -0.9610512 -0.275219
vn -0.1434229 -0.9441513 -0.2966616
vn 0.08564214 -0.9556246 -0.2818632
vn -0.1438522 -0.953983 -0.2631026
vn -0.03497234 -0.9781426 -0.2049729
vn 0.07522143 -0.9746622 -0.2106543
vn -0.1446348 -0.9699628 -0.1955833
vn -0.0425401 -0.9887286 -0.1435478
vn 0.06047434 -0.9867066 -0.1508411
vn -0.1452401 -0.9803419 -0.1335479
vn -0.05060474 -0.9941882 -0.09502141
vn 0.04449655 -0.9936277 -0.1035583
vn -0.1455504 -0.9857202 -0.08468044
vn -0.06108107 -0.9964514 -0.05791264
vn 0.03221511 -0.996046 -0.08279169
vn -0.1457013 -0.9878266 -0.05449322
vn 0.0270162 -0.9965431 -0.07856075
vn -0.1453709 -0.9884396 -0.04306388
vn 0.02335834 -0.9972984 -0.06964466
vn -0.1441038 -0.9887627 -0.03978148
vn 0.01506958 -0.998221 -0.05768655
vn -0.1413849 -0.9893071 -0.03580175
vn 0.002896925 -0.9989424 -0.04588674
vn -0.1374341 -0.9899973 -0.03189538
vn -0.01617151 -0.9992967 -0.03383432
vn -0.1289832 -0.9912869 -0.02671213
vn -0.03992136 -0.9989248 -0.02356692
vn -0.1157819 -0.9930499 -0.02113128
vn -0.0624993 -0.9978796 -0.01816896
vn -0.1002793 -0.9948024 -0.01766991
vn -0.08262763 -0.9964437 -0.01651402
g SB-FrontDoor_0
f 3/3/3 2/2/2 1/1/1
f 4/4/4 2/2/2 3/3/3
f 5/5/5 3/3/3 1/1/1
f 6/6/6 4/4/4 3/3/3
f 7/7/7 3/3/3 5/5/5
f 6/6/6 3/3/3 7/7/7
f 8/8/8 7/7/7 5/5/5
f 9/9/9 6/6/6 7/7/7
f 10/10/10 7/7/7 8/8/8
f 9/9/9 7/7/7 10/10/10
f 11/11/11 10/10/10 8/8/8
f 12/12/12 9/9/9 10/10/10
f 10/10/10 11/11/11 13/13/13
f 10/10/10 13/13/13 12/12/12
f 11/11/11 14/14/14 13/13/13
f 13/13/13 15/15/15 12/12/12
f 13/13/13 14/14/14 16/16/16
f 13/13/13 16/16/16 15/15/15
f 14/14/14 17/17/17 16/16/16
f 16/16/16 18/18/18 15/15/15
f 16/16/16 17/17/17 19/19/19
f 18/18/18 16/16/16 20/20/20
f 16/16/16 19/19/19 21/21/21
f 20/20/20 16/16/16 22/22/22
f 16/16/16 21/21/21 23/23/23
f 22/22/22 16/16/16 24/24/24
f 16/16/16 23/23/23 25/25/25
f 24/24/24 16/16/16 26/26/26
f 16/16/16 25/25/25 27/27/27
f 26/26/26 16/16/16 28/28/28
f 16/16/16 27/27/27 29/29/29
f 28/28/28 16/16/16 30/30/30
f 16/16/16 29/29/29 31/31/31
f 30/30/30 16/16/16 32/32/32
f 31/31/31 33/33/33 16/16/16
f 33/33/33 32/32/32 16/16/16
