g SB-GarageDoorAlcove
v 0.9407175 2.638479 2.739777
v 0.6975375 2.547812 2.725823
v 0.9407144 2.439809 2.739778
v 0.4126621 2.753763 2.717442
v 0.4543609 2.655816 2.711868
v 0.1194736 2.790058 2.708584
v -0.1072131 2.792972 2.707582
v -0.03893828 2.706205 2.70703
v -0.2890597 2.67478 2.709053
v -0.1643441 2.775602 2.708044
v -0.2038538 2.787572 2.708364
v -0.4739499 2.761743 2.710547
v -0.5074962 2.744512 2.710819
v -0.4141203 2.659067 2.710064
v -0.5733202 2.738509 2.712461
v -0.5391811 2.643355 2.711076
v -1.031102 2.636936 2.731037
v -1.031103 2.480517 2.731037
v 0.9197099 2.174944 -5.713664E-07
v 0.9214028 2.096162 0.0961324
v 0.9182859 2.081169 0.004479532
v 0.9229952 2.339212 0.2284788
v 0.9285617 2.456451 0.7356754
v 0.9282321 2.175728 0.663418
v 0.9291773 2.474241 0.871269
v 0.9294392 2.462849 0.9289922
v 0.9311354 2.25823 1.302584
v 0.9298387 2.499722 1.017043
v 0.9308932 2.533604 1.249344
v 0.9314662 2.522566 1.342178
v 0.9320815 2.566368 1.41561
v 0.9340754 2.596699 1.653809
v 0.9351258 2.320143 1.778097
v 0.9362116 2.626539 1.966264
v 0.9387922 2.647681 2.409265
v 0.9379202 2.379976 2.276152
v 0.9407175 2.638479 2.739777
v 0.9407144 2.439809 2.739778
v -0.9455985 2.201383 -5.736947E-07
v -0.9450689 2.111239 0.005459629
v -0.9462146 2.115124 0.09296282
v -0.9479397 2.308228 0.1415907
v -0.9658011 2.185756 0.6449926
v -0.955328 2.385021 0.349851
v -0.9686736 2.198547 0.7337961
v -0.9640613 2.435597 0.5960122
v -0.971546 2.211337 0.8244424
v -0.9668037 2.430023 0.6773456
v -0.9772909 2.236918 1.01026
v -0.9689202 2.4761 0.7454749
v -0.9761686 2.52835 0.9788151
v -0.9887807 2.288079 1.392975
v -0.985567 2.571151 1.281998
v -0.9955269 2.590769 1.625057
v -0.9922671 2.30454 1.513459
v -0.9976996 2.563995 1.699902
v -0.9992401 2.337461 1.752881
v -1.000835 2.601237 1.801918
v -1.031102 2.636936 2.731037
v -1.031103 2.480517 2.731037
vt 0.409839 0.637807
vt 0.4235048 0.6720891
vt 0.4380417 0.637159
vt 0.3951842 0.713209
vt 0.4090041 0.7070342
vt 0.3908857 0.7549564
vt 0.3911073 0.787147
vt 0.4032347 0.7772115
vt 0.4083947 0.8126342
vt 0.3937328 0.7952096
vt 0.3921438 0.8008523
vt 0.3965652 0.8391265
vt 0.3991052 0.843841
vt 0.4109747 0.8303455
vt 0.4001409 0.8531721
vt 0.4135548 0.8480568
vt 0.4158351 0.9179337
vt 0.4380417 0.9174988
vt 0.5122457 0.6011553
vt 0.5251124 0.6132376
vt 0.5255321 0.6000496
vt 0.4933368 0.6363588
vt 0.486194 0.7099358
vt 0.5243833 0.6945806
vt 0.4861923 0.7293546
vt 0.4888617 0.7372713
vt 0.5245664 0.7860929
vt 0.4852958 0.7503489
vt 0.4848137 0.7836804
vt 0.4880814 0.7965471
vt 0.4832701 0.8076946
vt 0.4833968 0.8417917
vt 0.5246277 0.8541858
vt 0.4849635 0.8863343
vt 0.4901645 0.949096
vt 0.5253977 0.9254129
vt 0.4975613 0.9954599
vt 0.5255321 0.9917927
vt 0.5656528 0.9889336
vt 0.57844 0.9899011
vt 0.5795772 0.9775147
vt 0.553346 0.9669552
vt 0.5802642 0.8984442
vt 0.5465503 0.9361603
vt 0.5801737 0.8856981
vt 0.5441723 0.9005342
vt 0.5801185 0.8726931
vt 0.5465218 0.8891923
vt 0.5800954 0.8460464
vt 0.5413502 0.8787166
vt 0.5384895 0.8448679
vt 0.5802618 0.7911953
vt 0.5383019 0.8013704
vt 0.542143 0.7527088
vt 0.5802642 0.7739211
vt 0.5473497 0.7426897
vt 0.5802394 0.7395902
vt 0.5440733 0.7276143
vt 0.5569304 0.5961434
vt 0.5789365 0.5991518
vn 0.05774596 0.01297824 -0.9982469
vn 0.05835153 0.03060393 -0.9978269
vn 0.05728944 0 -0.9983576
vn 0.04531737 0.0631064 -0.9969774
vn 0.05016787 0.0450374 -0.9977248
vn 0.01095778 0.008842958 -0.9999008
vn -0.00292683 0.0008873329 -0.9999954
vn 0.003306797 0.001955877 -0.9999926
vn -0.008086106 0 -0.9999673
vn -0.008087142 0 -0.9999673
vn -0.008086178 0 -0.9999673
vn -0.008087272 0 -0.9999673
vn -0.01203686 0.001228257 -0.9999268
vn -0.009749424 0.0005101212 -0.9999523
vn -0.02900005 0.0008211865 -0.9995791
vn -0.02636238 0.001009002 -0.999652
vn -0.04054503 0 -0.9991776
vn -0.04054503 0 -0.9991776
vn -0.999747 0.00521847 0.02188208
vn -0.9998184 0.003287226 0.01877674
vn -0.9993723 0.01666967 0.0312596
vn -0.9999228 -0.001097128 0.0123852
vn -0.9999747 -0.0003197074 0.007106962
vn -0.9999593 -0.00055918 0.00899695
vn -0.9999897 0 0.004538038
vn -0.9999897 0 0.0045399
vn -0.9999802 2.886918E-05 0.00630376
vn -0.9999897 0 0.004538925
vn -0.9999862 0.0001397782 0.005271489
vn -0.9999719 0.0001280583 0.007500859
vn -0.9999648 -1.356298E-05 0.008385436
vn -0.9999696 -0.0002883664 0.00779342
vn -0.9999744 -0.0001574605 0.007158685
vn -0.9999816 -5.037281E-05 0.006054235
vn -0.999983 0.0001978751 0.005848472
vn -0.9999834 0.0002119321 0.005767097
vn -0.9999825 0.0001835842 0.0059312
vn -0.9999825 0.0001835842 0.0059312
vn 0.9999049 0.006156671 0.01233973
vn 0.999896 0.006648134 0.01279675
vn 0.9997634 0.003779719 0.02141763
vn 0.9995518 0.001397598 0.0299002
vn 0.9993929 -0.0001279901 0.03484277
vn 0.9993787 -4.706765E-05 0.03524521
vn 0.999442 -0.0001337758 0.033399
vn 0.9994228 -0.0001479825 0.03397081
vn 0.9994986 -0.0004479011 0.03165881
vn 0.9994875 -0.0003285291 0.03200875
vn 0.9995257 -0.0002866827 0.03079432
vn 0.9995151 -0.0005818636 0.03113289
vn 0.9995261 -0.0002307698 0.03078156
vn 0.9995616 3.279459E-05 0.02960717
vn 0.9995541 1.306787E-05 0.02985678
vn 0.99958 7.093974E-05 0.02898158
vn 0.9995759 9.736163E-05 0.02912094
vn 0.9995688 0.0001084121 0.02936606
vn 0.999527 6.825307E-05 0.03075436
vn 0.9995049 3.872005E-05 0.03146344
vn 0.9994698 0 0.03255863
vn 0.9994698 0 0.03255863
g SB-GarageDoorAlcove_0
f 3/3/3 2/2/2 1/1/1
f 1/1/1 2/2/2 4/4/4
f 2/2/2 5/5/5 4/4/4
f 4/4/4 5/5/5 6/6/6
f 6/6/6 5/5/5 7/7/7
f 5/5/5 8/8/8 7/7/7
f 7/7/7 8/8/8 9/9/9
f 10/10/10 7/7/7 9/9/9
f 10/10/10 9/9/9 11/11/11
f 11/11/11 9/9/9 12/12/12
f 12/12/12 9/9/9 13/13/13
f 9/9/9 14/14/14 13/13/13
f 13/13/13 14/14/14 15/15/15
f 14/14/14 16/16/16 15/15/15
f 15/15/15 16/16/16 17/17/17
f 16/16/16 18/18/18 17/17/17
f 21/21/21 20/20/20 19/19/19
f 19/19/19 20/20/20 22/22/22
f 22/22/22 20/20/20 23/23/23
f 20/20/20 24/24/24 23/23/23
f 23/23/23 24/24/24 25/25/25
f 25/25/25 24/24/24 26/26/26
f 24/24/24 27/27/27 26/26/26
f 27/27/27 28/28/28 26/26/26
f 29/29/29 28/28/28 27/27/27
f 29/29/29 27/27/27 30/30/30
f 30/30/30 27/27/27 31/31/31
f 31/31/31 27/27/27 32/32/32
f 27/27/27 33/33/33 32/32/32
f 32/32/32 33/33/33 34/34/34
f 35/35/35 34/34/34 33/33/33
f 36/36/36 35/35/35 33/33/33
f 37/37/37 35/35/35 36/36/36
f 38/38/38 37/37/37 36/36/36
f 41/41/41 40/40/40 39/39/39
f 42/42/42 41/41/41 39/39/39
f 43/43/43 41/41/41 42/42/42
f 44/44/44 43/43/43 42/42/42
f 45/45/45 43/43/43 44/44/44
f 46/46/46 45/45/45 44/44/44
f 47/47/47 45/45/45 46/46/46
f 48/48/48 47/47/47 46/46/46
f 49/49/49 47/47/47 48/48/48
f 50/50/50 49/49/49 48/48/48
f 51/51/51 49/49/49 50/50/50
f 52/52/52 49/49/49 51/51/51
f 53/53/53 52/52/52 51/51/51
f 54/54/54 52/52/52 53/53/53
f 55/55/55 52/52/52 54/54/54
f 56/56/56 55/55/55 54/54/54
f 57/57/57 55/55/55 56/56/56
f 58/58/58 57/57/57 56/56/56
f 57/57/57 58/58/58 59/59/59
f 60/60/60 57/57/57 59/59/59
