g SB-PineapplePanel_12
v 1.879521 -1.673506 5.042093
v 1.927852 -1.43665 5.351236
v 2.176233 -1.349434 5.041301
v 2.15328 -1.603505 4.726143
v 1.765488 -1.921083 4.702323
v 2.423954 -1.203945 4.699739
v 2.040215 -1.849691 4.357748
v 1.600526 -2.143687 4.33392
v 2.39894 -1.455462 4.357748
v 2.633017 -1.009858 4.333582
v 1.876071 -2.071253 3.989352
v 1.398642 -2.323807 3.9839
v 1.663817 -2.225556 3.622125
v 2.285875 -1.701648 3.989352
v 2.607855 -1.26704 3.989352
v 2.789268 -0.8012066 3.984224
v 2.734574 -1.054855 3.62618
v 2.121731 -1.92321 3.606234
v 1.911407 -2.085577 3.245197
v 2.494791 -1.513226 3.606234
v 2.625469 -1.300167 3.245894
v 2.335489 -1.74211 3.229764
v 2.143295 -1.917771 2.886791
v 2.476955 -1.541018 2.88141
v 2.306677 -1.744297 2.550249
v 1.840648 -1.676117 5.05792
v 1.765488 -1.921083 4.702323
v 1.727584 -1.922302 4.718405
v 1.879521 -1.673506 5.042093
v 1.600526 -2.143687 4.33392
v 1.898288 -1.414767 5.397436
v 1.56344 -2.143864 4.350009
v 1.927852 -1.43665 5.351236
v 1.398642 -2.323807 3.9839
v 2.17125 -1.312793 5.05792
v 1.354524 -2.332287 3.981614
v 2.176233 -1.349434 5.041301
v 1.663817 -2.225556 3.622125
v 2.416909 -1.16475 4.718405
v 1.627486 -2.230313 3.598495
v 2.423954 -1.203945 4.699739
v 1.911407 -2.085577 3.245197
v 2.625825 -0.9763277 4.350009
v 1.877612 -2.092099 3.222962
v 2.633017 -1.009858 4.333582
v 2.143295 -1.917771 2.886791
v 2.789969 -0.754766 3.981614
v 2.102236 -1.928069 2.85949
v 2.789268 -0.8012066 3.984224
v 2.306677 -1.744297 2.550249
v 2.73233 -1.016116 3.598495
v 2.293379 -1.736734 2.50032
v 2.734574 -1.054855 3.62618
v 2.476955 -1.541018 2.88141
v 2.625256 -1.26814 3.222691
v 2.478487 -1.510379 2.859076
v 2.625469 -1.300167 3.245894
vt 0.06079994 0.9680238
vt 0.07363144 0.9939637
vt 0.09404396 0.9720074
vt 0.08185729 0.9440506
vt 0.04444491 0.9392958
vt 0.1178476 0.948137
vt 0.0662848 0.9138157
vt 0.02679826 0.9090484
vt 0.1055463 0.9187331
vt 0.1429593 0.9236139
vt 0.0493257 0.8840889
vt 0.009344115 0.8808094
vt 0.03204903 0.8548453
vt 0.09002987 0.8885767
vt 0.129649 0.894272
vt 0.1659055 0.9006411
vt 0.1524402 0.8705974
vt 0.07331654 0.8576658
vt 0.056344 0.8283011
vt 0.1143561 0.8629431
vt 0.1369889 0.838795
vt 0.09754898 0.8321709
vt 0.08139405 0.803904
vt 0.1194167 0.8084587
vt 0.1025937 0.7819358
vt 0.05811571 0.9697478
vt 0.04444491 0.9392958
vt 0.04172334 0.9408928
vt 0.06079994 0.9680238
vt 0.02679826 0.9090484
vt 0.07282507 0.9984329
vt 0.02406645 0.9104749
vt 0.07363144 0.9939637
vt 0.009344115 0.8808094
vt 0.09592941 0.9744275
vt 0.005898739 0.880529
vt 0.09404396 0.9720074
vt 0.03204903 0.8548453
vt 0.1200021 0.9506919
vt 0.02944114 0.8527706
vt 0.1178476 0.948137
vt 0.056344 0.8283011
vt 0.1449525 0.9257296
vt 0.05398339 0.8262275
vt 0.1429593 0.9236139
vt 0.08139405 0.803904
vt 0.1694097 0.9012901
vt 0.0786249 0.8012238
vt 0.1659055 0.9006411
vt 0.1025937 0.7819358
vt 0.1556948 0.868946
vt 0.1028974 0.7779189
vt 0.1524402 0.8705974
vt 0.1194167 0.8084587
vt 0.139587 0.8372468
vt 0.1218172 0.8068534
vt 0.1369889 0.838795
vn 0.6424934 -0.6663676 0.37836
vn 0.6740227 -0.6161239 0.407535
vn 0.7198351 -0.5793537 0.3823436
vn 0.6992808 -0.6359982 0.3263626
vn 0.5644882 -0.7693303 0.2991389
vn 0.8179957 -0.4852368 0.3089147
vn 0.6299471 -0.7400587 0.2355415
vn 0.5023642 -0.8392788 0.2079452
vn 0.7979086 -0.5527063 0.2405358
vn 0.8861995 -0.4073728 0.2206761
vn 0.5575933 -0.8172823 0.145393
vn 0.4616069 -0.8756838 0.1417635
vn 0.5164733 -0.8523111 0.08258978
vn 0.7321182 -0.6649696 0.1477105
vn 0.8707244 -0.4676729 0.1520561
vn 0.9211527 -0.357025 0.1549545
vn 0.9013782 -0.4245152 0.08546475
vn 0.6489758 -0.7576467 0.06929507
vn 0.598285 -0.8008925 0.02502872
vn 0.8183181 -0.5708474 0.06699925
vn 0.8563111 -0.5161899 0.01670772
vn 0.7431719 -0.66893 0.01511112
vn 0.7016094 -0.71246 -0.01204013
vn 0.7859982 -0.6179842 -0.01738902
vn 0.7480846 -0.6629435 -0.0295854
vn 0.2689144 -0.8011608 0.5346275
vn 0.2289235 -0.8497326 0.4749194
vn 0.2291944 -0.8494326 0.4753255
vn 0.2674561 -0.8030937 0.5324546
vn 0.183474 -0.8943368 0.408043
vn 0.5713549 -0.5345829 0.6227157
vn 0.1819226 -0.8956649 0.4058185
vn 0.590646 -0.511472 0.6241265
vn 0.185584 -0.9736047 0.1328624
vn 0.8090977 -0.1451314 0.5694714
vn 0.1856123 -0.9736509 0.1324843
vn 0.8122315 -0.1416034 0.5658872
vn 0.2338298 -0.9610276 -0.1474772
vn 0.8540905 -0.09113792 0.5120775
vn 0.2314197 -0.9619116 -0.1455027
vn 0.8567528 -0.08766066 0.5082226
vn 0.3056525 -0.9329045 -0.190436
vn 0.8968187 -0.02662135 0.4415965
vn 0.3034898 -0.9337912 -0.1895462
vn 0.897376 -0.02561268 0.4405227
vn 0.3742275 -0.8983241 -0.2301469
vn 0.9897467 -0.01321753 0.1422209
vn 0.3734828 -0.8987808 -0.2295727
vn 0.9893651 -0.01306193 0.1448655
vn 0.7203512 -0.6255513 -0.2996326
vn 0.9831468 -0.07164151 -0.1681955
vn 0.7011505 -0.647769 -0.2979651
vn 0.9835467 -0.06982433 -0.1666144
vn 0.9316593 -0.2397771 -0.2729797
vn 0.9606941 -0.1585474 -0.2278807
vn 0.9308033 -0.2417526 -0.2741549
vn 0.9613912 -0.1561183 -0.2266144
g SB-PineapplePanel_12_0
f 3/3/3 2/2/2 1/1/1
f 4/4/4 3/3/3 1/1/1
f 4/4/4 1/1/1 5/5/5
f 3/3/3 4/4/4 6/6/6
f 7/7/7 4/4/4 5/5/5
f 7/7/7 5/5/5 8/8/8
f 4/4/4 9/9/9 6/6/6
f 9/9/9 4/4/4 7/7/7
f 10/10/10 6/6/6 9/9/9
f 11/11/11 7/7/7 8/8/8
f 8/8/8 12/12/12 11/11/11
f 12/12/12 13/13/13 11/11/11
f 14/14/14 9/9/9 7/7/7
f 14/14/14 7/7/7 11/11/11
f 15/15/15 10/10/10 9/9/9
f 9/9/9 14/14/14 15/15/15
f 16/16/16 10/10/10 15/15/15
f 17/17/17 16/16/16 15/15/15
f 18/18/18 11/11/11 13/13/13
f 18/18/18 14/14/14 11/11/11
f 19/19/19 18/18/18 13/13/13
f 17/17/17 15/15/15 20/20/20
f 14/14/14 20/20/20 15/15/15
f 20/20/20 14/14/14 18/18/18
f 21/21/21 17/17/17 20/20/20
f 22/22/22 18/18/18 19/19/19
f 22/22/22 20/20/20 18/18/18
f 20/20/20 22/22/22 21/21/21
f 23/23/23 22/22/22 19/19/19
f 22/22/22 24/24/24 21/21/21
f 24/24/24 22/22/22 23/23/23
f 25/25/25 24/24/24 23/23/23
f 28/28/28 27/27/27 26/26/26
f 27/27/27 29/29/29 26/26/26
f 30/30/30 27/27/27 28/28/28
f 26/26/26 29/29/29 31/31/31
f 32/32/32 30/30/30 28/28/28
f 29/29/29 33/33/33 31/31/31
f 34/34/34 30/30/30 32/32/32
f 31/31/31 33/33/33 35/35/35
f 36/36/36 34/34/34 32/32/32
f 33/33/33 37/37/37 35/35/35
f 38/38/38 34/34/34 36/36/36
f 35/35/35 37/37/37 39/39/39
f 40/40/40 38/38/38 36/36/36
f 37/37/37 41/41/41 39/39/39
f 42/42/42 38/38/38 40/40/40
f 39/39/39 41/41/41 43/43/43
f 44/44/44 42/42/42 40/40/40
f 41/41/41 45/45/45 43/43/43
f 46/46/46 42/42/42 44/44/44
f 43/43/43 45/45/45 47/47/47
f 48/48/48 46/46/46 44/44/44
f 45/45/45 49/49/49 47/47/47
f 50/50/50 46/46/46 48/48/48
f 47/47/47 49/49/49 51/51/51
f 52/52/52 50/50/50 48/48/48
f 49/49/49 53/53/53 51/51/51
f 54/54/54 50/50/50 52/52/52
f 51/51/51 53/53/53 55/55/55
f 56/56/56 54/54/54 52/52/52
f 53/53/53 57/57/57 55/55/55
f 57/57/57 54/54/54 56/56/56
f 55/55/55 57/57/57 56/56/56
