g SB-PineapplePanel_1
v -1.82355 -0.6867486 6.231287
v -1.579547 -0.7233793 6.435415
v -1.645306 -0.9409902 6.240009
v -1.959772 -0.9066775 6.015865
v -2.101896 -0.5883345 5.984093
v -1.708153 -1.201368 5.994516
v -2.232734 -0.8047043 5.718277
v -2.347148 -0.4331299 5.685672
v -2.017412 -1.168027 5.718277
v -1.709109 -1.468094 5.696364
v -2.478394 -0.6566617 5.42069
v -2.542316 -0.2492437 5.406172
v -2.648049 -0.4822215 5.087112
v -2.290374 -1.066054 5.42069
v -2.017412 -1.434497 5.42069
v -1.658597 -1.716282 5.402781
v -1.947161 -1.660652 5.083746
v -2.536034 -0.9180113 5.081174
v -2.704487 -0.7432999 4.749945
v -2.290374 -1.332523 5.081174
v -2.214568 -1.560797 4.741495
v -2.536034 -1.184481 4.741659
v -2.703573 -1.004381 4.378341
v -2.46606 -1.408323 4.38164
v -2.650996 -1.239902 4.044394
v -1.629078 -1.728106 5.397436
v -1.709109 -1.468094 5.696364
v -1.661501 -1.476416 5.708016
v -1.658597 -1.716282 5.402781
v -1.708153 -1.201368 5.994516
v -1.918853 -1.67612 5.05792
v -1.661859 -1.212046 6.00401
v -1.947161 -1.660652 5.083746
v -1.645306 -0.9409902 6.240009
v -2.191815 -1.574147 4.718405
v -1.605 -0.9531121 6.24654
v -2.214568 -1.560797 4.741495
v -1.579547 -0.7233793 6.435415
v -2.437475 -1.426104 4.350009
v -1.516013 -0.6927512 6.481059
v -2.46606 -1.408323 4.38164
v -1.82355 -0.6867486 6.231287
v -2.646391 -1.237682 3.981614
v -1.805789 -0.6407656 6.236835
v -2.650996 -1.239902 4.044394
v -2.101896 -0.5883345 5.984093
v -2.704031 -0.9763323 4.350009
v -2.078751 -0.5387923 5.992611
v -2.703573 -1.004381 4.378341
v -2.347148 -0.4331299 5.685672
v -2.704031 -0.7098628 4.718405
v -2.32441 -0.3907498 5.695024
v -2.704487 -0.7432999 4.749945
v -2.542316 -0.2492437 5.406172
v -2.646392 -0.4485132 5.05792
v -2.533327 -0.2023274 5.397436
v -2.648049 -0.4822215 5.087112
vt 0.2392242 0.779851
vt 0.2580465 0.7943866
vt 0.2620735 0.7724782
vt 0.2389257 0.7543837
vt 0.2145598 0.7641061
vt 0.266638 0.7450343
vt 0.2135739 0.7366301
vt 0.1869317 0.7488983
vt 0.2426725 0.7248423
vt 0.2737199 0.7153076
vt 0.187208 0.7211485
vt 0.1609573 0.7362617
vt 0.1604768 0.7058326
vt 0.2173402 0.7072484
vt 0.2492552 0.6959413
vt 0.2819913 0.6872535
vt 0.2572213 0.6660786
vt 0.189818 0.6893196
vt 0.1634616 0.6734096
vt 0.2228972 0.6757978
vt 0.2303565 0.6453615
vt 0.1952323 0.6577443
vt 0.1678549 0.6393708
vt 0.2008851 0.625915
vt 0.1744826 0.6096619
vt 0.2843961 0.6866158
vt 0.2737199 0.7153076
vt 0.2774232 0.7163135
vt 0.2819913 0.6872535
vt 0.266638 0.7450343
vt 0.2592891 0.6636844
vt 0.270219 0.7460294
vt 0.2572213 0.6660786
vt 0.2620735 0.7724782
vt 0.2318532 0.6431154
vt 0.2652332 0.7733087
vt 0.2303565 0.6453615
vt 0.2580465 0.7943866
vt 0.2024784 0.6227795
vt 0.260843 0.8002052
vt 0.2008851 0.625915
vt 0.2392242 0.779851
vt 0.1726332 0.6051591
vt 0.2375971 0.7832719
vt 0.1744826 0.6096619
vt 0.2145598 0.7641061
vt 0.1650094 0.6383315
vt 0.2127782 0.7679261
vt 0.1678549 0.6393708
vt 0.1869317 0.7488983
vt 0.1600485 0.6726089
vt 0.18528 0.7522805
vt 0.1634616 0.6734096
vt 0.1609573 0.7362617
vt 0.1570635 0.7055012
vt 0.1577756 0.7381979
vt 0.1604768 0.7058326
vn -0.634789 -0.3516346 0.6880378
vn -0.5910077 -0.3901249 0.7060542
vn -0.583877 -0.4387632 0.6830626
vn -0.6610905 -0.4031815 0.632775
vn -0.7515681 -0.2404871 0.6142567
vn -0.564673 -0.5597566 0.6064791
vn -0.7760282 -0.319689 0.5436719
vn -0.8339711 -0.1717403 0.524402
vn -0.6532233 -0.5310893 0.5396697
vn -0.5553876 -0.6562791 0.5107272
vn -0.8584436 -0.2386741 0.4539926
vn -0.8826859 -0.1223213 0.4537654
vn -0.9037879 -0.1993777 0.3787029
vn -0.7689285 -0.4548526 0.4492863
vn -0.6290417 -0.639683 0.441715
vn -0.5421495 -0.7180865 0.4363779
vn -0.6168013 -0.698822 0.3622209
vn -0.8627571 -0.3594482 0.355594
vn -0.9064093 -0.309756 0.2871818
vn -0.7333396 -0.5845954 0.3470752
vn -0.706948 -0.6504606 0.2777147
vn -0.8290288 -0.4919734 0.2658445
vn -0.8707156 -0.4454122 0.2084761
vn -0.8099248 -0.5485498 0.2076412
vn -0.8486698 -0.4975431 0.1794723
vn -0.3063636 -0.8649886 0.3974117
vn -0.2682416 -0.7389284 0.6180868
vn -0.2686995 -0.7383681 0.6185573
vn -0.3092567 -0.8695146 0.3851035
vn -0.2931472 -0.6689585 0.6830515
vn -0.3920074 -0.9123629 0.1180007
vn -0.2935336 -0.6648231 0.6869122
vn -0.3933364 -0.9119577 0.1167032
vn -0.2867813 -0.6051907 0.7426309
vn -0.4773304 -0.877897 0.03811189
vn -0.2855842 -0.6038796 0.7441579
vn -0.4754497 -0.8788419 0.03980427
vn -0.4976494 -0.2305202 0.8361851
vn -0.5581359 -0.8287834 -0.04003194
vn -0.4698583 -0.2882601 0.8343496
vn -0.5534812 -0.8321173 -0.03520556
vn -0.6238374 0.1510668 0.7668154
vn -0.8582211 -0.50617 -0.08513822
vn -0.6234981 0.1501315 0.7672747
vn -0.8650765 -0.4943477 -0.08522387
vn -0.6649233 0.1874659 0.7230031
vn -0.9972362 -0.05920165 -0.04489039
vn -0.6603673 0.1836692 0.728135
vn -0.9982066 -0.04768451 -0.03618954
vn -0.7044337 0.231932 0.6708061
vn -0.9980203 0.04952374 0.03876736
vn -0.7041515 0.2312558 0.6713355
vn -0.9973205 0.05759491 0.04510885
vn -0.8696893 0.2369356 0.4330148
vn -0.9798459 0.1554863 0.1254032
vn -0.872795 0.2364289 0.4270015
vn -0.9787836 0.159394 0.128749
g SB-PineapplePanel_1_0
f 3/3/3 2/2/2 1/1/1
f 4/4/4 3/3/3 1/1/1
f 4/4/4 1/1/1 5/5/5
f 3/3/3 4/4/4 6/6/6
f 7/7/7 4/4/4 5/5/5
f 7/7/7 5/5/5 8/8/8
f 4/4/4 9/9/9 6/6/6
f 9/9/9 4/4/4 7/7/7
f 10/10/10 6/6/6 9/9/9
f 11/11/11 7/7/7 8/8/8
f 8/8/8 12/12/12 11/11/11
f 12/12/12 13/13/13 11/11/11
f 14/14/14 9/9/9 7/7/7
f 14/14/14 7/7/7 11/11/11
f 15/15/15 10/10/10 9/9/9
f 9/9/9 14/14/14 15/15/15
f 16/16/16 10/10/10 15/15/15
f 17/17/17 16/16/16 15/15/15
f 18/18/18 11/11/11 13/13/13
f 18/18/18 14/14/14 11/11/11
f 19/19/19 18/18/18 13/13/13
f 17/17/17 15/15/15 20/20/20
f 14/14/14 20/20/20 15/15/15
f 20/20/20 14/14/14 18/18/18
f 21/21/21 17/17/17 20/20/20
f 22/22/22 18/18/18 19/19/19
f 22/22/22 20/20/20 18/18/18
f 20/20/20 22/22/22 21/21/21
f 23/23/23 22/22/22 19/19/19
f 22/22/22 24/24/24 21/21/21
f 24/24/24 22/22/22 23/23/23
f 25/25/25 24/24/24 23/23/23
f 28/28/28 27/27/27 26/26/26
f 27/27/27 29/29/29 26/26/26
f 30/30/30 27/27/27 28/28/28
f 26/26/26 29/29/29 31/31/31
f 32/32/32 30/30/30 28/28/28
f 29/29/29 33/33/33 31/31/31
f 34/34/34 30/30/30 32/32/32
f 31/31/31 33/33/33 35/35/35
f 36/36/36 34/34/34 32/32/32
f 33/33/33 37/37/37 35/35/35
f 38/38/38 34/34/34 36/36/36
f 35/35/35 37/37/37 39/39/39
f 40/40/40 38/38/38 36/36/36
f 37/37/37 41/41/41 39/39/39
f 42/42/42 38/38/38 40/40/40
f 39/39/39 41/41/41 43/43/43
f 44/44/44 42/42/42 40/40/40
f 41/41/41 45/45/45 43/43/43
f 46/46/46 42/42/42 44/44/44
f 43/43/43 45/45/45 47/47/47
f 48/48/48 46/46/46 44/44/44
f 45/45/45 49/49/49 47/47/47
f 50/50/50 46/46/46 48/48/48
f 47/47/47 49/49/49 51/51/51
f 52/52/52 50/50/50 48/48/48
f 49/49/49 53/53/53 51/51/51
f 54/54/54 50/50/50 52/52/52
f 51/51/51 53/53/53 55/55/55
f 56/56/56 54/54/54 52/52/52
f 53/53/53 57/57/57 55/55/55
f 57/57/57 54/54/54 56/56/56
f 55/55/55 57/57/57 56/56/56
