g SB-PineapplePanel_37
v -2.721612 -0.005534953 5.042682
v -2.567527 -0.2053332 5.355949
v -2.666921 -0.4340389 5.047338
v -2.861608 -0.2314819 4.726145
v -2.974672 0.0153847 4.357749
v -2.838462 0.2395233 4.700789
v -2.733044 -0.6909937 4.70324
v -2.902076 0.4972344 4.329102
v -2.919248 -0.4928314 4.357749
v -2.731121 -0.9598179 4.335826
v -2.919247 -0.7593011 3.989354
v -2.668956 -1.216766 3.983254
v -2.838015 -0.993795 3.6223
v -3.032312 -0.2466457 3.989354
v -3.089952 0.01538466 3.606236
v -3.032312 0.277415 3.989354
v -2.898832 0.7519785 3.984469
v -3.000513 0.5251302 3.619235
v -3.06779 0.2580441 3.248322
v -3.084541 -0.007827058 2.881224
v -3.032312 -0.5131152 3.606236
v -2.958445 -0.7478392 3.248443
v -3.095618 -0.2528152 3.22915
v -3.027392 -0.498411 2.876788
v -3.056736 -0.2529387 2.546286
v -3.008113 -0.5177131 2.858359
v -2.958445 -0.7478392 3.248443
v -2.930029 -0.773499 3.222598
v -3.027392 -0.498411 2.876788
v -2.838015 -0.993795 3.6223
v -3.040499 -0.2518595 2.498986
v -2.810535 -1.01612 3.598495
v -3.056736 -0.2529387 2.546286
v -2.668956 -1.216766 3.983254
v -3.065917 0.01992277 2.858014
v -2.646391 -1.237682 3.981614
v -3.084541 -0.007827058 2.881224
v -2.731121 -0.9598179 4.335826
v -3.045252 0.2882266 3.222259
v -2.704031 -0.9763323 4.350009
v -3.06779 0.2580441 3.248322
v -2.733044 -0.6909937 4.70324
v -2.98124 0.5484146 3.598495
v -2.704031 -0.7098628 4.718405
v -3.000513 0.5251302 3.619235
v -2.666921 -0.4340389 5.047338
v -2.868176 0.7946004 3.981614
v -2.646392 -0.4485132 5.05792
v -2.898832 0.7519785 3.984469
v -2.567527 -0.2053332 5.355949
v -2.868176 0.5281308 4.350009
v -2.533327 -0.2023274 5.397436
v -2.902076 0.4972344 4.329102
v -2.721612 -0.005534953 5.042682
v -2.810536 0.2667814 4.718405
v -2.697472 0.01991473 5.05792
v -2.838462 0.2395233 4.700789
vt 0.9133709 0.1997521
vt 0.9337919 0.2212517
vt 0.9461176 0.194689
vt 0.9246401 0.1707108
vt 0.9010392 0.1462627
vt 0.8896574 0.1766426
vt 0.9600487 0.1647833
vt 0.8649586 0.1523313
vt 0.9384044 0.1398212
vt 0.9757916 0.1339712
vt 0.9532477 0.1095315
vt 0.991671 0.1048734
vt 0.9682131 0.07978389
vt 0.9148569 0.1154642
vt 0.8904431 0.09079773
vt 0.8767937 0.1227405
vt 0.8412479 0.1307556
vt 0.8525231 0.09961908
vt 0.8673679 0.06771903
vt 0.8824543 0.03677726
vt 0.929432 0.08404212
vt 0.9435841 0.05450157
vt 0.905113 0.05953196
vt 0.9194365 0.02998534
vt 0.8967673 0.009711769
vt 0.9210644 0.0280824
vt 0.9435841 0.05450157
vt 0.9460375 0.05195594
vt 0.9194365 0.02998534
vt 0.9682131 0.07978389
vt 0.8961528 0.005898739
vt 0.9706412 0.07757618
vt 0.8967673 0.009711769
vt 0.991671 0.1048734
vt 0.8797977 0.03519279
vt 0.994037 0.1046001
vt 0.8824543 0.03677726
vt 0.9757916 0.1339712
vt 0.864251 0.06611426
vt 0.9781612 0.1351995
vt 0.8673679 0.06771903
vt 0.9600487 0.1647833
vt 0.8499326 0.09850388
vt 0.9625244 0.1662596
vt 0.8525231 0.09961908
vt 0.9461176 0.194689
vt 0.837305 0.1316692
vt 0.9478452 0.1958291
vt 0.8412479 0.1307556
vt 0.9337919 0.2212517
vt 0.8623686 0.1552044
vt 0.9345524 0.2253499
vt 0.8649586 0.1523313
vt 0.9133709 0.1997521
vt 0.8876263 0.1792021
vt 0.9116729 0.2021075
vt 0.8896574 0.1766426
vn -0.9162204 -0.04641131 0.3979777
vn -0.8988187 -0.1101076 0.4242655
vn -0.9013532 -0.1691386 0.398691
vn -0.933567 -0.104873 0.342716
vn -0.9682677 0.02877823 0.2482527
vn -0.9426149 0.09956185 0.3186921
vn -0.8959943 -0.3073528 0.3205127
vn -0.9542774 0.2019777 0.2203627
vn -0.9381291 -0.240679 0.2489726
vn -0.8828347 -0.4134924 0.2227712
vn -0.9210507 -0.3576278 0.1541689
vn -0.8661703 -0.4759361 0.1524258
vn -0.9058362 -0.4147409 0.08631678
vn -0.9823882 -0.1070549 0.1531428
vn -0.9973276 0.03073239 0.06628139
vn -0.977479 0.1475689 0.1508576
vn -0.9524165 0.2693551 0.1426559
vn -0.9744839 0.2093562 0.08093891
vn -0.9948577 0.1006725 0.01110565
vn -0.9981256 -0.04804945 -0.03790221
vn -0.9679569 -0.2423356 0.0658233
vn -0.950958 -0.3091711 0.009592681
vn -0.9940329 -0.1090744 -0.001144839
vn -0.9836143 -0.1760403 -0.03889392
vn -0.9917579 -0.1150202 -0.05644983
vn -0.7950481 -0.5416468 -0.2729785
vn -0.754248 -0.6193351 -0.2180227
vn -0.7548884 -0.6182826 -0.2187927
vn -0.7940084 -0.543964 -0.2713922
vn -0.7092661 -0.6869234 -0.1583604
vn -0.9367201 -0.1029245 -0.3346071
vn -0.7088619 -0.6874735 -0.157781
vn -0.937565 -0.09454242 -0.3347143
vn -0.6727482 -0.7271003 0.1368759
vn -0.8870679 0.3649648 -0.2826856
vn -0.6724657 -0.7269615 0.138985
vn -0.8864315 0.3681434 -0.2805522
vn -0.6246727 -0.6564572 0.4229043
vn -0.8643734 0.4491381 -0.2261268
vn -0.6246586 -0.6565028 0.4228543
vn -0.8637817 0.4508532 -0.2249722
vn -0.6398435 -0.5904291 0.4919286
vn -0.8317776 0.5306996 -0.1628008
vn -0.6404684 -0.5864502 0.4958593
vn -0.8314112 0.5314881 -0.1620977
vn -0.6484407 -0.5240003 0.5522212
vn -0.8025423 0.5797865 0.1406184
vn -0.648985 -0.5190914 0.5562037
vn -0.8023275 0.579726 0.1420856
vn -0.7653259 -0.07767792 0.6389385
vn -0.7402614 0.5164841 0.4304152
vn -0.7644317 -0.08658806 0.6388636
vn -0.7401462 0.5174636 0.4294356
vn -0.7398955 0.3754339 0.5582151
vn -0.7442198 0.4396804 0.5028102
vn -0.7391351 0.3701497 0.5627331
vn -0.7442434 0.4449874 0.4980844
g SB-PineapplePanel_37_0
f 3/3/3 2/2/2 1/1/1
f 4/4/4 3/3/3 1/1/1
f 5/5/5 4/4/4 1/1/1
f 6/6/6 5/5/5 1/1/1
f 3/3/3 4/4/4 7/7/7
f 6/6/6 8/8/8 5/5/5
f 4/4/4 9/9/9 7/7/7
f 9/9/9 4/4/4 5/5/5
f 10/10/10 7/7/7 9/9/9
f 11/11/11 10/10/10 9/9/9
f 12/12/12 10/10/10 11/11/11
f 13/13/13 12/12/12 11/11/11
f 9/9/9 14/14/14 11/11/11
f 14/14/14 9/9/9 5/5/5
f 15/15/15 14/14/14 5/5/5
f 8/8/8 16/16/16 5/5/5
f 16/16/16 15/15/15 5/5/5
f 16/16/16 8/8/8 17/17/17
f 18/18/18 16/16/16 17/17/17
f 16/16/16 18/18/18 15/15/15
f 18/18/18 19/19/19 15/15/15
f 19/19/19 20/20/20 15/15/15
f 13/13/13 11/11/11 21/21/21
f 14/14/14 21/21/21 11/11/11
f 21/21/21 14/14/14 15/15/15
f 22/22/22 13/13/13 21/21/21
f 23/23/23 21/21/21 15/15/15
f 21/21/21 23/23/23 22/22/22
f 20/20/20 23/23/23 15/15/15
f 23/23/23 24/24/24 22/22/22
f 24/24/24 23/23/23 20/20/20
f 25/25/25 24/24/24 20/20/20
f 28/28/28 27/27/27 26/26/26
f 27/27/27 29/29/29 26/26/26
f 30/30/30 27/27/27 28/28/28
f 26/26/26 29/29/29 31/31/31
f 32/32/32 30/30/30 28/28/28
f 29/29/29 33/33/33 31/31/31
f 34/34/34 30/30/30 32/32/32
f 31/31/31 33/33/33 35/35/35
f 36/36/36 34/34/34 32/32/32
f 33/33/33 37/37/37 35/35/35
f 38/38/38 34/34/34 36/36/36
f 35/35/35 37/37/37 39/39/39
f 40/40/40 38/38/38 36/36/36
f 37/37/37 41/41/41 39/39/39
f 42/42/42 38/38/38 40/40/40
f 39/39/39 41/41/41 43/43/43
f 44/44/44 42/42/42 40/40/40
f 41/41/41 45/45/45 43/43/43
f 46/46/46 42/42/42 44/44/44
f 43/43/43 45/45/45 47/47/47
f 48/48/48 46/46/46 44/44/44
f 45/45/45 49/49/49 47/47/47
f 50/50/50 46/46/46 48/48/48
f 47/47/47 49/49/49 51/51/51
f 52/52/52 50/50/50 48/48/48
f 49/49/49 53/53/53 51/51/51
f 54/54/54 50/50/50 52/52/52
f 51/51/51 53/53/53 55/55/55
f 56/56/56 54/54/54 52/52/52
f 53/53/53 57/57/57 55/55/55
f 57/57/57 54/54/54 56/56/56
f 55/55/55 57/57/57 56/56/56
