g SB-PineapplePanel_5
v -0.01186151 -2.086184 5.724041
v 0.3938477 -2.049106 5.719281
v 0.2053229 -2.219005 5.449989
v 0.1732914 -1.925689 6.030494
v -0.2228223 -1.898814 6.016699
v 0.5527483 -1.830904 6.019992
v -0.03562514 -1.737267 6.274717
v -0.3830054 -1.679952 6.261778
v 0.3374357 -1.704128 6.274717
v 0.6673898 -1.586018 6.260254
v -0.1997699 -1.515706 6.518942
v -0.5098392 -1.434852 6.48775
v -0.2803462 -1.263851 6.66118
v 0.1285191 -1.515706 6.518942
v 0.4505001 -1.457942 6.518942
v 0.7273421 -1.332446 6.492705
v 0.4843765 -1.194345 6.669739
v -0.03562562 -1.294145 6.700417
v -0.1173737 -1.034015 6.842877
v 0.2415836 -1.26952 6.700417
v 0.2734278 -1.002876 6.853096
v 0.07743884 -1.047959 6.881891
v 0.009522721 -0.7940928 6.965379
v 0.1132982 -0.7722369 6.965379
v 0.009522721 -0.7940928 6.965379
v -0.009865098 -0.7764553 6.965379
v 0.009522721 -0.7940928 6.965379
v -0.1173737 -1.034015 6.842877
v -0.1246224 -1.02619 6.837933
v -0.2803462 -1.263851 6.66118
v -0.2908364 -1.250612 6.654304
v -0.5098392 -1.434852 6.48775
v -0.525228 -1.426103 6.481059
v -0.525228 -1.426103 6.481059
v -0.5098392 -1.434852 6.48775
v -0.3830054 -1.679952 6.261778
v -0.4121631 -1.672289 6.236835
v -0.2228223 -1.898814 6.016699
v -0.2480184 -1.89385 5.992611
v -0.01186151 -2.086184 5.724041
v -0.03910179 -2.082272 5.695024
v 0.2053229 -2.219005 5.449989
v 0.206558 -2.230315 5.397436
v 0.206558 -2.230315 5.397436
v 0.2053229 -2.219005 5.449989
v 0.3938477 -2.049106 5.719281
v 0.4154741 -2.041892 5.695024
v 0.5527483 -1.830904 6.019992
v 0.5796185 -1.82033 5.992611
v 0.6673898 -1.586018 6.260254
v 0.6926829 -1.574144 6.236835
v 0.7273421 -1.332446 6.492705
v 0.7503225 -1.312795 6.481059
v 0.7503225 -1.312795 6.481059
v 0.7273421 -1.332446 6.492705
v 0.4843765 -1.194345 6.669739
v 0.5046627 -1.164753 6.662533
v 0.2734278 -1.002876 6.853096
v 0.2957462 -0.9763308 6.844008
v 0.1132982 -0.7722369 6.965379
v 0.1316014 -0.7547696 6.965379
vt 0.7855306 0.8890557
vt 0.8075982 0.867145
vt 0.7808051 0.8618909
vt 0.8140281 0.8965768
vt 0.7940427 0.9186249
vt 0.8363193 0.8776051
vt 0.820425 0.9234668
vt 0.8042492 0.9443938
vt 0.8403147 0.9040375
vt 0.8615043 0.8884029
vt 0.8304507 0.9487636
vt 0.8167187 0.9677949
vt 0.8417369 0.9684281
vt 0.8466514 0.93084
vt 0.8648393 0.9151059
vt 0.88322 0.9026083
vt 0.8843233 0.9272138
vt 0.8543781 0.9541495
vt 0.8669028 0.9736295
vt 0.8692694 0.9395213
vt 0.8883547 0.9527408
vt 0.8770024 0.9627513
vt 0.8888995 0.980059
vt 0.8955044 0.9749154
vt 0.8888995 0.980059
vt 0.8887945 0.9820772
vt 0.8888995 0.980059
vt 0.8669028 0.9736295
vt 0.8666981 0.9745055
vt 0.8417369 0.9684281
vt 0.8414323 0.9697939
vt 0.8167187 0.9677949
vt 0.8158816 0.9689873
vt 0.8158816 0.9689873
vt 0.8167187 0.9677949
vt 0.8042492 0.9443938
vt 0.8015146 0.9456802
vt 0.7940427 0.9186249
vt 0.791449 0.9193411
vt 0.7855306 0.8890557
vt 0.7825066 0.8893979
vt 0.7808051 0.8618909
vt 0.7779189 0.8589
vt 0.7779189 0.8589
vt 0.7808051 0.8618909
vt 0.8075982 0.867145
vt 0.807941 0.8646349
vt 0.8363193 0.8776051
vt 0.8371968 0.8746979
vt 0.8615043 0.8884029
vt 0.8627656 0.8858818
vt 0.88322 0.9026083
vt 0.8852862 0.9012335
vt 0.8852862 0.9012335
vt 0.88322 0.9026083
vt 0.8843233 0.9272138
vt 0.8870795 0.9266912
vt 0.8883547 0.9527408
vt 0.891039 0.9521495
vt 0.8955044 0.9749154
vt 0.8974382 0.9745956
vn 0.03158673 -0.8759012 0.4814555
vn 0.1313646 -0.8670119 0.4806597
vn 0.08640446 -0.8872701 0.4530852
vn 0.07428695 -0.837001 0.5421354
vn -0.1011276 -0.8247613 0.5563649
vn 0.2431653 -0.7933593 0.5580786
vn -0.04286624 -0.7787904 0.6258177
vn -0.1795333 -0.7426957 0.6451131
vn 0.1801409 -0.7568728 0.6282458
vn 0.3062764 -0.698773 0.6464604
vn -0.137963 -0.6735456 0.7261559
vn -0.2404165 -0.640646 0.7292274
vn -0.2115416 -0.5614513 0.8000142
vn 0.06143731 -0.6904647 0.7207524
vn 0.2477662 -0.6429042 0.7247662
vn 0.340208 -0.5989381 0.7249356
vn 0.28486 -0.5337062 0.796249
vn -0.07572292 -0.5804496 0.8107678
vn -0.2044217 -0.4635485 0.8621685
vn 0.1606687 -0.5661918 0.808463
vn 0.2335955 -0.4354317 0.8693863
vn 0.01680244 -0.4562321 0.8897022
vn -0.2064088 -0.4435057 0.8721801
vn 0.1212663 -0.3399607 0.9325885
vn -0.195339 -0.2795402 0.9400532
vn -0.4028982 -0.2505146 0.8802928
vn -0.1953624 -0.2795351 0.9400498
vn -0.5347573 -0.1914818 0.8230245
vn -0.5317348 -0.1929573 0.8246366
vn -0.5999583 -0.1236812 0.7904131
vn -0.5920922 -0.1228292 0.7964545
vn -0.53714 -0.1167233 0.8353779
vn -0.53714 -0.1167233 0.8353779
vn -0.5678928 -0.6967371 0.438241
vn -0.5678928 -0.6967371 0.438241
vn -0.539661 -0.7398162 0.4017935
vn -0.5394235 -0.7401531 0.4014917
vn -0.4646027 -0.8272409 0.3159379
vn -0.4609987 -0.8306963 0.312128
vn -0.3743822 -0.8987375 0.2282739
vn -0.3683965 -0.9025074 0.2230794
vn -0.3285455 -0.9254501 0.188679
vn -0.3285455 -0.9254501 0.188679
vn 0.4920919 -0.8491641 0.1917441
vn 0.4920919 -0.8491641 0.1917441
vn 0.534512 -0.8126342 0.2322124
vn 0.5281683 -0.8184916 0.2260745
vn 0.6123402 -0.7220031 0.3221041
vn 0.6082138 -0.7278911 0.3166234
vn 0.6721421 -0.6176118 0.4083879
vn 0.6711048 -0.6198223 0.4067414
vn 0.6931438 -0.5685012 0.4431229
vn 0.6931438 -0.5685012 0.4431229
vn 0.5289226 -0.1445614 0.8362672
vn 0.5289226 -0.1445614 0.8362672
vn 0.5392072 -0.1627326 0.8263012
vn 0.5382114 -0.1609545 0.827298
vn 0.4751654 -0.1803096 0.8612238
vn 0.4743851 -0.1803179 0.861652
vn 0.3968365 -0.1804435 0.8999783
vn 0.3968365 -0.1804435 0.8999783
g SB-PineapplePanel_5_0
f 3/3/3 2/2/2 1/1/1
f 2/2/2 4/4/4 1/1/1
f 1/1/1 4/4/4 5/5/5
f 4/4/4 2/2/2 6/6/6
f 4/4/4 7/7/7 5/5/5
f 5/5/5 7/7/7 8/8/8
f 9/9/9 4/4/4 6/6/6
f 4/4/4 9/9/9 7/7/7
f 6/6/6 10/10/10 9/9/9
f 7/7/7 11/11/11 8/8/8
f 12/12/12 8/8/8 11/11/11
f 13/13/13 12/12/12 11/11/11
f 9/9/9 14/14/14 7/7/7
f 7/7/7 14/14/14 11/11/11
f 10/10/10 15/15/15 9/9/9
f 14/14/14 9/9/9 15/15/15
f 10/10/10 16/16/16 15/15/15
f 16/16/16 17/17/17 15/15/15
f 11/11/11 18/18/18 13/13/13
f 14/14/14 18/18/18 11/11/11
f 18/18/18 19/19/19 13/13/13
f 15/15/15 17/17/17 20/20/20
f 20/20/20 14/14/14 15/15/15
f 14/14/14 20/20/20 18/18/18
f 17/17/17 21/21/21 20/20/20
f 18/18/18 22/22/22 19/19/19
f 20/20/20 22/22/22 18/18/18
f 22/22/22 20/20/20 21/21/21
f 22/22/22 23/23/23 19/19/19
f 24/24/24 22/22/22 21/21/21
f 22/22/22 24/24/24 25/25/25
f 28/28/28 27/27/27 26/26/26
f 29/29/29 28/28/28 26/26/26
f 30/30/30 28/28/28 29/29/29
f 31/31/31 30/30/30 29/29/29
f 32/32/32 30/30/30 31/31/31
f 33/33/33 32/32/32 31/31/31
f 36/36/36 35/35/35 34/34/34
f 37/37/37 36/36/36 34/34/34
f 38/38/38 36/36/36 37/37/37
f 39/39/39 38/38/38 37/37/37
f 40/40/40 38/38/38 39/39/39
f 41/41/41 40/40/40 39/39/39
f 42/42/42 40/40/40 41/41/41
f 43/43/43 42/42/42 41/41/41
f 46/46/46 45/45/45 44/44/44
f 47/47/47 46/46/46 44/44/44
f 48/48/48 46/46/46 47/47/47
f 49/49/49 48/48/48 47/47/47
f 50/50/50 48/48/48 49/49/49
f 51/51/51 50/50/50 49/49/49
f 52/52/52 50/50/50 51/51/51
f 53/53/53 52/52/52 51/51/51
f 56/56/56 55/55/55 54/54/54
f 57/57/57 56/56/56 54/54/54
f 58/58/58 56/56/56 57/57/57
f 59/59/59 58/58/58 57/57/57
f 60/60/60 58/58/58 59/59/59
f 61/61/61 60/60/60 59/59/59
