g SB-PineappleCrown
v -0.9308858 -0.002743855 6.965379
v -0.02958349 0.04399354 6.965379
v -0.9176165 -0.117239 6.965379
v -0.9141066 0.01991481 6.965379
v -0.8972936 -0.1347246 6.965379
v -0.9087775 0.0592637 6.965379
v -0.8836403 -0.1724232 6.965379
v -0.903473 0.1762428 6.965379
v -0.8531988 -0.2855141 6.965379
v -0.8536802 0.3242854 6.965379
v -0.7723398 -0.4219509 6.965379
v -0.7865404 0.4236664 6.965379
v -0.6587565 -0.5410359 6.965379
v -0.7666417 0.4590336 6.965379
v -0.6422628 -0.5620498 6.965379
v -0.7674088 0.4835321 6.965379
v -0.642394 -0.589479 6.965379
v -0.6958891 0.5727947 6.965379
v -0.5571176 -0.6377472 6.965379
v -0.6578239 0.5786213 6.965379
v -0.525229 -0.636935 6.965379
v -0.6232494 0.6031252 6.965379
v -0.5096388 -0.6440717 6.965379
v -0.5282745 0.6819034 6.965379
v -0.3758278 -0.7154379 6.965379
v -0.376998 0.7548304 6.965379
v -0.2116833 -0.7603459 6.965379
v -0.229235 0.7888762 6.965379
v -0.02814511 -0.7736356 6.965379
v -0.2098079 0.7945995 6.965379
v -0.009865098 -0.7764553 6.965379
v -0.183527 0.81968 6.965379
v 0.009522721 -0.7940928 6.965379
v -0.09106736 0.8369595 6.965379
v 0.1132982 -0.7722369 6.965379
v -0.06834127 0.816285 6.965379
v 0.1316014 -0.7547696 6.965379
v -0.04459886 0.8126225 6.965379
v 0.1734002 -0.7424555 6.965379
v 0.1334769 0.8001752 6.965379
v 0.2987915 -0.7150002 6.965379
v 0.2976214 0.7552667 6.965379
v 0.4500679 -0.642073 6.965379
v 0.4078116 0.6947132 6.965379
v 0.5450425 -0.5632945 6.965379
v 0.4470223 0.6767637 6.965379
v 0.579617 -0.5387907 6.965379
v 0.4750002 0.6774762 6.965379
v 0.6040673 -0.5350481 6.965379
v 0.5744936 0.6058468 6.965379
v 0.689071 -0.4395186 6.965379
v 0.579617 0.5786204 6.965379
v 0.6884349 -0.4192027 6.965379
v 0.6067861 0.5474374 6.965379
v 0.7083334 -0.3838355 6.965379
v 0.6941329 0.4617792 6.965379
v 0.7754729 -0.2844543 6.965379
v 0.7749916 0.3253423 6.965379
v 0.8252652 -0.1364117 6.965379
v 0.8054327 0.2122513 6.965379
v 0.8377028 0.02266698 6.965379
v 0.819086 0.1745527 6.965379
v 0.8416848 0.04616962 6.965379
v 0.8358507 0.1601285 6.965379
v 0.8577022 0.06106529 6.965379
vt 0.8626704 0.4674332
vt 0.9303851 0.4709457
vt 0.8636682 0.4588323
vt 0.8639308 0.4691353
vt 0.865195 0.4575187
vt 0.864331 0.4720913
vt 0.8662208 0.4546868
vt 0.8647282 0.4808791
vt 0.8685085 0.4461917
vt 0.8684667 0.4920011
vt 0.8745836 0.4359433
vt 0.8735092 0.4994678
vt 0.8831168 0.4269988
vt 0.8750038 0.5021251
vt 0.8843558 0.42542
vt 0.874946 0.5039655
vt 0.8843458 0.4233598
vt 0.8803176 0.5106726
vt 0.8907517 0.4197342
vt 0.8826391 0.5123987
vt 0.8931471 0.4197951
vt 0.8857741 0.512952
vt 0.8943182 0.419259
vt 0.8929081 0.5188723
vt 0.9043695 0.4138989
vt 0.9042716 0.5243545
vt 0.9166991 0.4105265
vt 0.9153724 0.5269161
vt 0.9304845 0.409529
vt 0.9163187 0.5281078
vt 0.9318573 0.4093169
vt 0.9188063 0.5292313
vt 0.9333134 0.4079921
vt 0.925753 0.5305318
vt 0.9411077 0.4096333
vt 0.9280022 0.5300133
vt 0.9424826 0.410945
vt 0.9292446 0.5287041
vt 0.945622 0.4118695
vt 0.9426254 0.5277742
vt 0.9550394 0.413931
vt 0.9549609 0.5244048
vt 0.9664006 0.4194074
vt 0.9632429 0.5198578
vt 0.973534 0.4253229
vt 0.966475 0.5196227
vt 0.9761308 0.4271627
vt 0.9682924 0.5185643
vt 0.9779671 0.4274433
vt 0.9757713 0.5131847
vt 0.9843516 0.4346166
vt 0.9772997 0.5117712
vt 0.9843042 0.4361421
vt 0.9781994 0.5087966
vt 0.9857991 0.4387977
vt 0.9847664 0.5023621
vt 0.9908423 0.44626
vt 0.9908478 0.4921117
vt 0.9945831 0.4573768
vt 0.9931393 0.4836142
vt 0.9955192 0.4693226
vt 0.9941666 0.4807814
vt 0.9958187 0.4710873
vt 0.9954268 0.479698
vt 0.9970725 0.472254
vn 0 0 1
vn 0 0 1
vn 0 0 1
vn 0 0 1
vn 0 0 1
vn 0 0 1
vn 0 0 1
vn 0 0 1
vn 0 0 1
vn 0 0 1
vn 0 0 1
vn 0 0 1
vn 0 0 1
vn 0 0 1
vn 0 0 1
vn 0 0 1
vn 0 0 1
vn 0 0 1
vn 0 0 1
vn 0 0 1
vn 0 0 1
vn 0 0 1
vn 0 0 1
vn 0 0 1
vn 0 0 1
vn 0 0 1
vn 0 0 1
vn 0 0 1
vn 3.417844E-05 0 1
vn 0 0 1
vn 2.386906E-05 0 1
vn 0 0 1
vn 0 0 1
vn 0 0 1
vn 1.402613E-05 0 1
vn 0 0 1
vn 3.226557E-05 0 1
vn 0 0 1
vn 0 0 1
vn 0 0 1
vn 0 0 1
vn 0 0 1
vn 0 0 1
vn 0 0 1
vn 0 0 1
vn 0 0 1
vn -3.56211E-05 0 1
vn 0 0 1
vn -1.825207E-05 0 1
vn 0 0 1
vn 0 0 1
vn 0 0 1
vn 0 0 1
vn 0 0 1
vn 0 0 1
vn 0 0 1
vn 0 0 1
vn 0 0 1
vn 0 0 1
vn 0 0 1
vn 0 0 1
vn -1.030127E-05 0 1
vn 0 0 1
vn 0 0 1
vn 0 0 1
g SB-PineappleCrown_0
f 3/3/3 2/2/2 1/1/1
f 1/1/1 2/2/2 4/4/4
f 5/5/5 2/2/2 3/3/3
f 4/4/4 2/2/2 6/6/6
f 7/7/7 2/2/2 5/5/5
f 6/6/6 2/2/2 8/8/8
f 9/9/9 2/2/2 7/7/7
f 8/8/8 2/2/2 10/10/10
f 11/11/11 2/2/2 9/9/9
f 10/10/10 2/2/2 12/12/12
f 13/13/13 2/2/2 11/11/11
f 12/12/12 2/2/2 14/14/14
f 15/15/15 2/2/2 13/13/13
f 14/14/14 2/2/2 16/16/16
f 17/17/17 2/2/2 15/15/15
f 16/16/16 2/2/2 18/18/18
f 19/19/19 2/2/2 17/17/17
f 18/18/18 2/2/2 20/20/20
f 21/21/21 2/2/2 19/19/19
f 2/2/2 22/22/22 20/20/20
f 23/23/23 2/2/2 21/21/21
f 22/22/22 2/2/2 24/24/24
f 25/25/25 2/2/2 23/23/23
f 24/24/24 2/2/2 26/26/26
f 27/27/27 2/2/2 25/25/25
f 26/26/26 2/2/2 28/28/28
f 29/29/29 2/2/2 27/27/27
f 28/28/28 2/2/2 30/30/30
f 31/31/31 2/2/2 29/29/29
f 2/2/2 32/32/32 30/30/30
f 33/33/33 2/2/2 31/31/31
f 32/32/32 2/2/2 34/34/34
f 35/35/35 2/2/2 33/33/33
f 34/34/34 2/2/2 36/36/36
f 37/37/37 2/2/2 35/35/35
f 2/2/2 38/38/38 36/36/36
f 39/39/39 2/2/2 37/37/37
f 38/38/38 2/2/2 40/40/40
f 41/41/41 2/2/2 39/39/39
f 40/40/40 2/2/2 42/42/42
f 43/43/43 2/2/2 41/41/41
f 42/42/42 2/2/2 44/44/44
f 45/45/45 2/2/2 43/43/43
f 44/44/44 2/2/2 46/46/46
f 47/47/47 2/2/2 45/45/45
f 2/2/2 48/48/48 46/46/46
f 49/49/49 2/2/2 47/47/47
f 48/48/48 2/2/2 50/50/50
f 51/51/51 2/2/2 49/49/49
f 50/50/50 2/2/2 52/52/52
f 53/53/53 2/2/2 51/51/51
f 2/2/2 54/54/54 52/52/52
f 55/55/55 2/2/2 53/53/53
f 54/54/54 2/2/2 56/56/56
f 57/57/57 2/2/2 55/55/55
f 56/56/56 2/2/2 58/58/58
f 59/59/59 2/2/2 57/57/57
f 58/58/58 2/2/2 60/60/60
f 61/61/61 2/2/2 59/59/59
f 60/60/60 2/2/2 62/62/62
f 63/63/63 2/2/2 61/61/61
f 62/62/62 2/2/2 64/64/64
f 65/65/65 2/2/2 63/63/63
f 64/64/64 2/2/2 65/65/65
