g SB-PineapplePanel_6
v -0.7540249 -1.605616 6.232853
v -0.5414209 -1.474247 6.445716
v -0.4436008 -1.688962 6.233088
v -0.6712909 -1.860375 6.015865
v -1.027502 -1.712335 5.986416
v -0.2762551 -1.911091 5.987739
v -0.9442532 -1.962349 5.718277
v -1.319808 -1.763933 5.687489
v -0.5071462 -2.081937 5.718277
v -0.06742753 -2.101574 5.688663
v -1.234029 -2.014335 5.42069
v -1.607314 -1.755934 5.403685
v -1.496205 -1.993814 5.080814
v -0.7801085 -2.183911 5.42069
v -0.2982297 -2.270359 5.42069
v 0.1656595 -2.244514 5.404688
v -0.06581439 -2.381048 5.082395
v -1.069884 -2.235896 5.081174
v -1.335455 -2.211023 4.738397
v -0.571192 -2.372333 5.081174
v -0.3391341 -2.4855 4.741943
v -0.8609671 -2.424319 4.741659
v -1.129308 -2.396222 4.367332
v -0.6262049 -2.536352 4.372575
v -0.8988351 -2.536908 4.04556
v -1.351867 -2.195852 4.718405
v -1.129308 -2.396222 4.367332
v -1.142951 -2.384274 4.350009
v -1.335455 -2.211023 4.738397
v -0.8988351 -2.536908 4.04556
v -1.516012 -1.974291 5.05792
v -0.8972911 -2.532317 3.981614
v -1.496205 -1.993814 5.080814
v -0.6262049 -2.536352 4.372575
v -1.629078 -1.728106 5.397436
v -0.6018391 -2.532317 4.350009
v -1.607314 -1.755934 5.403685
v -0.3391341 -2.4855 4.741943
v -1.333625 -1.728105 5.695024
v -0.3120638 -2.480331 4.718405
v -1.319808 -1.763933 5.687489
v -0.06581439 -2.381048 5.082395
v -1.04385 -1.676119 5.992611
v -0.03910148 -2.378357 5.05792
v -1.027502 -1.712335 5.986416
v 0.1656595 -2.244514 5.404688
v -0.7708874 -1.574146 6.236835
v 0.206558 -2.230315 5.397436
v -0.7540249 -1.605616 6.232853
v -0.06742753 -2.101574 5.688663
v -0.525228 -1.426103 6.481059
v -0.03910179 -2.082272 5.695024
v -0.5414209 -1.474247 6.445716
v -0.2762551 -1.911091 5.987739
v -0.4121631 -1.672289 6.236835
v -0.2480184 -1.89385 5.992611
v -0.4436008 -1.688962 6.233088
vt 0.7966641 0.1804118
vt 0.8166312 0.1944133
vt 0.8196347 0.1709867
vt 0.7982107 0.1543444
vt 0.7714562 0.1656798
vt 0.8262132 0.1435007
vt 0.7722206 0.1374486
vt 0.7431213 0.1508565
vt 0.803401 0.1245875
vt 0.8346786 0.1133573
vt 0.7448913 0.1227251
vt 0.7155355 0.1387341
vt 0.7164803 0.1077171
vt 0.7774404 0.1078076
vt 0.811427 0.09523223
vt 0.8443826 0.0854526
vt 0.8207731 0.06465545
vt 0.7489475 0.09057825
vt 0.7203556 0.07489285
vt 0.7844166 0.07585394
vt 0.7928631 0.04491771
vt 0.7558129 0.05852701
vt 0.7262821 0.04032113
vt 0.7630325 0.02533819
vt 0.7351919 0.01045579
vt 0.7181277 0.07438742
vt 0.7262821 0.04032113
vt 0.7244775 0.0397108
vt 0.7203556 0.07489285
vt 0.7351919 0.01045579
vt 0.7137358 0.1074284
vt 0.7332971 0.005898739
vt 0.7164803 0.1077171
vt 0.7630325 0.02533819
vt 0.7131339 0.1400727
vt 0.7641919 0.02307459
vt 0.7155355 0.1387341
vt 0.7928631 0.04491771
vt 0.7416559 0.1534503
vt 0.7943709 0.04259542
vt 0.7431213 0.1508565
vt 0.8207731 0.06465545
vt 0.7699636 0.1683694
vt 0.8223574 0.06235342
vt 0.7714562 0.1656798
vt 0.8443826 0.0854526
vt 0.7953036 0.1827889
vt 0.8476149 0.08448734
vt 0.7966641 0.1804118
vt 0.8346786 0.1133573
vt 0.8186449 0.1987388
vt 0.8372768 0.1139312
vt 0.8166312 0.1944133
vt 0.8262132 0.1435007
vt 0.8223135 0.1715728
vt 0.8287033 0.1440689
vt 0.8196347 0.1709867
vn -0.242941 -0.7056623 0.6655979
vn -0.1888625 -0.7014908 0.6871984
vn -0.1433129 -0.7352597 0.6624612
vn -0.2073896 -0.7654046 0.609217
vn -0.3741331 -0.7138498 0.5919822
vn -0.03760685 -0.8109987 0.583838
vn -0.3314318 -0.786925 0.5204825
vn -0.466238 -0.7291145 0.5010132
vn -0.1155058 -0.8485237 0.516397
vn 0.02435152 -0.870952 0.4907643
vn -0.4359536 -0.7910036 0.4292527
vn -0.5268264 -0.732702 0.4308152
vn -0.4923878 -0.7949457 0.354423
vn -0.2392979 -0.8732168 0.4245339
vn -0.03341708 -0.9061552 0.4216231
vn 0.06490086 -0.9061739 0.4178956
vn 0.01398728 -0.9375764 0.3474979
vn -0.3622135 -0.8719823 0.3293148
vn -0.4276752 -0.8651199 0.2620331
vn -0.1342789 -0.935417 0.3270539
vn -0.07566749 -0.9624668 0.2606373
vn -0.2592075 -0.9341867 0.2451665
vn -0.3195934 -0.9275182 0.1938301
vn -0.2067598 -0.9589725 0.1939646
vn -0.2661288 -0.9491843 0.1680015
vn -0.7034711 -0.7096956 0.03821649
vn -0.635158 -0.7715707 -0.03539903
vn -0.6302418 -0.7753569 -0.04021254
vn -0.7066257 -0.7063417 0.04197114
vn -0.270108 -0.9596204 -0.07855225
vn -0.7644129 -0.6330662 0.1220662
vn -0.2640261 -0.9613132 -0.07853004
vn -0.7654254 -0.6315197 0.1237205
vn 0.1345709 -0.9902879 -0.03493424
vn -0.7547193 -0.5103347 0.4122589
vn 0.1309955 -0.9906578 -0.03791027
vn -0.7493998 -0.5018518 0.4319081
vn 0.2061206 -0.977087 0.05306137
vn -0.6406552 -0.3849525 0.6643588
vn 0.205362 -0.9773192 0.05170742
vn -0.6394483 -0.3853542 0.6652879
vn 0.2769094 -0.95047 0.1411664
vn -0.5809174 -0.3840457 0.7176656
vn 0.2735524 -0.9518691 0.1382548
vn -0.5807219 -0.3840149 0.7178403
vn 0.3414488 -0.8404443 0.4207923
vn -0.5309056 -0.3782226 0.7583448
vn 0.3406461 -0.8467801 0.408563
vn -0.5311502 -0.3781178 0.7582257
vn 0.3281651 -0.6907887 0.6442971
vn -0.1424049 -0.5534394 0.8206251
vn 0.3299043 -0.691242 0.6429211
vn -0.1593286 -0.548095 0.8211005
vn 0.2815974 -0.6576266 0.6987346
vn 0.2456658 -0.6261619 0.7399794
vn 0.2827862 -0.6587411 0.6972031
vn 0.2458483 -0.6262077 0.73988
g SB-PineapplePanel_6_0
f 3/3/3 2/2/2 1/1/1
f 4/4/4 3/3/3 1/1/1
f 4/4/4 1/1/1 5/5/5
f 3/3/3 4/4/4 6/6/6
f 7/7/7 4/4/4 5/5/5
f 7/7/7 5/5/5 8/8/8
f 4/4/4 9/9/9 6/6/6
f 9/9/9 4/4/4 7/7/7
f 10/10/10 6/6/6 9/9/9
f 11/11/11 7/7/7 8/8/8
f 8/8/8 12/12/12 11/11/11
f 12/12/12 13/13/13 11/11/11
f 14/14/14 9/9/9 7/7/7
f 14/14/14 7/7/7 11/11/11
f 15/15/15 10/10/10 9/9/9
f 9/9/9 14/14/14 15/15/15
f 16/16/16 10/10/10 15/15/15
f 17/17/17 16/16/16 15/15/15
f 18/18/18 11/11/11 13/13/13
f 18/18/18 14/14/14 11/11/11
f 19/19/19 18/18/18 13/13/13
f 17/17/17 15/15/15 20/20/20
f 14/14/14 20/20/20 15/15/15
f 20/20/20 14/14/14 18/18/18
f 21/21/21 17/17/17 20/20/20
f 22/22/22 18/18/18 19/19/19
f 22/22/22 20/20/20 18/18/18
f 20/20/20 22/22/22 21/21/21
f 23/23/23 22/22/22 19/19/19
f 22/22/22 24/24/24 21/21/21
f 24/24/24 22/22/22 23/23/23
f 25/25/25 24/24/24 23/23/23
f 28/28/28 27/27/27 26/26/26
f 27/27/27 29/29/29 26/26/26
f 30/30/30 27/27/27 28/28/28
f 26/26/26 29/29/29 31/31/31
f 32/32/32 30/30/30 28/28/28
f 29/29/29 33/33/33 31/31/31
f 34/34/34 30/30/30 32/32/32
f 31/31/31 33/33/33 35/35/35
f 36/36/36 34/34/34 32/32/32
f 33/33/33 37/37/37 35/35/35
f 38/38/38 34/34/34 36/36/36
f 35/35/35 37/37/37 39/39/39
f 40/40/40 38/38/38 36/36/36
f 37/37/37 41/41/41 39/39/39
f 42/42/42 38/38/38 40/40/40
f 39/39/39 41/41/41 43/43/43
f 44/44/44 42/42/42 40/40/40
f 41/41/41 45/45/45 43/43/43
f 46/46/46 42/42/42 44/44/44
f 43/43/43 45/45/45 47/47/47
f 48/48/48 46/46/46 44/44/44
f 45/45/45 49/49/49 47/47/47
f 50/50/50 46/46/46 48/48/48
f 47/47/47 49/49/49 51/51/51
f 52/52/52 50/50/50 48/48/48
f 49/49/49 53/53/53 51/51/51
f 54/54/54 50/50/50 52/52/52
f 51/51/51 53/53/53 55/55/55
f 56/56/56 54/54/54 52/52/52
f 53/53/53 57/57/57 55/55/55
f 57/57/57 54/54/54 56/56/56
f 55/55/55 57/57/57 56/56/56
