g SB-PineapplePanelBottom_2
v 1.033353 -2.420911 0.7779673
v 1.196521 -2.375225 0.9724067
v 1.420094 -2.236239 0.8534647
v 1.231281 -2.289985 0.4603318
v 1.465951 -2.198545 0.7763035
v 0.7543052 -2.439139 0.4580998
v 1.621367 -1.991152 0.4546232
v 0.9633951 -2.325037 0.1942124
v 0.5606504 -2.429139 0.2679566
v 1.405088 -2.094976 0.1942054
v 1.750752 -1.771608 0.1853232
v 0.7061629 -2.343596 -0.003927312
v 0.5524743 -2.372648 -0.00497784
v 1.155706 -2.161965 0.00348497
v 1.560251 -1.898212 0.003502659
v 1.823955 -1.548762 -0.0002316018
v 1.847468 -1.491623 -0.01107419
v 1.823955 -1.548762 -0.0002316018
v 1.750752 -1.771608 0.1853232
v 1.768143 -1.741724 0.2150028
v 1.621367 -1.991152 0.4546232
v 1.637099 -1.965068 0.4809546
v 1.465951 -2.198545 0.7763035
v 1.480709 -2.175186 0.799881
v 1.420094 -2.236239 0.8534647
v 1.455692 -2.196387 0.8390263
v 1.170569 -2.374747 0.9870661
v 1.196521 -2.375225 0.9724067
v 1.033353 -2.420911 0.7779673
v 1.007677 -2.418957 0.7998627
v 0.7543052 -2.439139 0.4580998
v 0.7277988 -2.437359 0.4809718
v 0.5606504 -2.429139 0.2679566
v 0.5641285 -2.428483 0.318827
vt 0.5755321 0.9285525
vt 0.5780045 0.9481933
vt 0.6003435 0.9511271
vt 0.603293 0.9177691
vt 0.6072456 0.9481367
vt 0.5723538 0.8963215
vt 0.635969 0.9352996
vt 0.5983208 0.8899118
vt 0.5695875 0.8755664
vt 0.6297345 0.9094347
vt 0.6616385 0.9243458
vt 0.5915344 0.8673244
vt 0.5810116 0.8585024
vt 0.6213589 0.8876201
vt 0.652073 0.9053172
vt 0.6819839 0.9150755
vt 0.6867427 0.9154038
vt 0.6819839 0.9150755
vt 0.6616385 0.9243458
vt 0.6633139 0.9273314
vt 0.635969 0.9352996
vt 0.6372198 0.9381281
vt 0.6072456 0.9481367
vt 0.6082332 0.9507344
vt 0.6003435 0.9511271
vt 0.6045395 0.9522076
vt 0.5756946 0.9480701
vt 0.5780045 0.9481933
vt 0.5755321 0.9285525
vt 0.5729552 0.9288527
vt 0.5723538 0.8963215
vt 0.5696759 0.8965138
vt 0.5695875 0.8755664
vt 0.5673679 0.878847
vn 0.3838013 -0.9114679 -0.1480639
vn 0.4464886 -0.8870605 -0.1173528
vn 0.4684855 -0.8753505 -0.1195108
vn 0.4495914 -0.8688129 -0.2074412
vn 0.5396807 -0.8274434 -0.155184
vn 0.2541725 -0.9456421 -0.2028727
vn 0.6244158 -0.7503852 -0.2168569
vn 0.3260525 -0.9032536 -0.2789671
vn 0.2014451 -0.9554606 -0.2156732
vn 0.5517229 -0.7822846 -0.289193
vn 0.7041679 -0.6369336 -0.3137884
vn 0.2320669 -0.9399675 -0.2502119
vn 0.1831631 -0.9615755 -0.2045085
vn 0.4347426 -0.833 -0.3422132
vn 0.6490111 -0.6966884 -0.30563
vn 0.7358878 -0.5593967 -0.381503
vn 0.9081175 -0.4001602 -0.1232659
vn 0.9081175 -0.4001602 -0.1232659
vn 0.8860716 -0.459908 -0.05798026
vn 0.8893103 -0.4524612 -0.06637802
vn 0.8464469 -0.5320752 0.02058305
vn 0.8466367 -0.5317837 0.02030989
vn 0.8001889 -0.592495 0.09299242
vn 0.7985019 -0.5943531 0.09559839
vn 0.763279 -0.6292433 0.1464863
vn 0.763279 -0.6292433 0.1464863
vn 0.07329296 -0.9829035 0.1689046
vn 0.07329296 -0.9829035 0.1689046
vn 0.0302159 -0.9924648 0.1187462
vn 0.03018857 -0.9924695 0.1187142
vn -0.03821861 -0.9984151 0.04131187
vn -0.03967132 -0.9984212 0.03976631
vn -0.0651413 -0.9977964 0.01260822
vn -0.0651413 -0.9977964 0.01260822
g SB-PineapplePanelBottom_2_0
f 3/3/3 2/2/2 1/1/1
f 4/4/4 3/3/3 1/1/1
f 5/5/5 3/3/3 4/4/4
f 4/4/4 1/1/1 6/6/6
f 5/5/5 4/4/4 7/7/7
f 8/8/8 4/4/4 6/6/6
f 8/8/8 6/6/6 9/9/9
f 4/4/4 10/10/10 7/7/7
f 10/10/10 4/4/4 8/8/8
f 11/11/11 7/7/7 10/10/10
f 12/12/12 8/8/8 9/9/9
f 13/13/13 12/12/12 9/9/9
f 8/8/8 12/12/12 14/14/14
f 14/14/14 10/10/10 8/8/8
f 10/10/10 14/14/14 15/15/15
f 15/15/15 11/11/11 10/10/10
f 11/11/11 15/15/15 16/16/16
f 19/19/19 18/18/18 17/17/17
f 20/20/20 19/19/19 17/17/17
f 21/21/21 19/19/19 20/20/20
f 22/22/22 21/21/21 20/20/20
f 23/23/23 21/21/21 22/22/22
f 24/24/24 23/23/23 22/22/22
f 25/25/25 23/23/23 24/24/24
f 26/26/26 25/25/25 24/24/24
f 29/29/29 28/28/28 27/27/27
f 30/30/30 29/29/29 27/27/27
f 31/31/31 29/29/29 30/30/30
f 32/32/32 31/31/31 30/30/30
f 31/31/31 32/32/32 33/33/33
f 32/32/32 34/34/34 33/33/33
