g SB-PineapplePanel_35
v -2.367054 -0.01946565 5.733214
v -2.334506 -0.3659908 5.725729
v -2.521144 -0.2011684 5.448567
v -2.195557 -0.1721835 6.030519
v -1.986641 0.01691956 6.274743
v -2.164796 0.1614454 6.036694
v -2.091556 -0.5122484 6.022541
v -1.923007 0.3107528 6.274143
v -1.949897 -0.320226 6.274743
v -1.82331 -0.6103225 6.268027
v -1.676935 -0.4221994 6.518966
v -1.545851 -0.6643015 6.497022
v -1.375146 -0.4581678 6.667654
v -1.740981 -0.1318035 6.518966
v -1.468019 -0.2337769 6.700441
v -1.163869 -0.2684217 6.850475
v -1.740981 0.1656427 6.518966
v -1.65805 0.4355981 6.492384
v -1.461089 0.2468464 6.669807
v -1.495322 0.01691958 6.700441
v -1.213338 0.0944882 6.850436
v -1.22236 -0.0857343 6.881916
v -0.9308858 -0.002743855 6.965379
v -0.9176165 -0.117239 6.965379
v -0.9308858 -0.002743855 6.965379
v -0.9141066 0.01991481 6.965379
v -0.9308858 -0.002743855 6.965379
v -1.213338 0.0944882 6.850436
v -1.187069 0.1225687 6.844008
v -1.461089 0.2468464 6.669807
v -1.432728 0.2706114 6.662533
v -1.65805 0.4355981 6.492384
v -1.641644 0.4590338 6.481059
v -1.641644 0.4590338 6.481059
v -1.65805 0.4355981 6.492384
v -1.923007 0.3107528 6.274143
v -1.908693 0.3316816 6.246539
v -2.164796 0.1614454 6.036694
v -2.15106 0.1848554 6.00344
v -2.367054 -0.01946565 5.733214
v -2.358082 -0.00294337 5.707447
v -2.521144 -0.2011684 5.448567
v -2.533327 -0.2023274 5.397436
v -2.533327 -0.2023274 5.397436
v -2.521144 -0.2011684 5.448567
v -2.334506 -0.3659908 5.725729
v -2.32441 -0.3907498 5.695024
v -2.091556 -0.5122484 6.022541
v -2.078751 -0.5387923 5.992611
v -1.82331 -0.6103225 6.268027
v -1.805789 -0.6407656 6.236835
v -1.545851 -0.6643015 6.497022
v -1.516013 -0.6927512 6.481059
v -1.516013 -0.6927512 6.481059
v -1.545851 -0.6643015 6.497022
v -1.375146 -0.4581678 6.667654
v -1.351869 -0.4711898 6.662533
v -1.163869 -0.2684217 6.850475
v -1.142953 -0.2827673 6.844008
v -0.9176165 -0.117239 6.965379
v -0.8972936 -0.1347246 6.965379
vt 0.7179697 0.5961056
vt 0.7366962 0.5771345
vt 0.7105972 0.5702698
vt 0.7445568 0.6050031
vt 0.7525635 0.6312611
vt 0.7290711 0.6243563
vt 0.7654431 0.5886217
vt 0.7398877 0.6498184
vt 0.7708399 0.6140594
vt 0.7909765 0.6013724
vt 0.7958329 0.6267415
vt 0.8133371 0.6166443
vt 0.8175106 0.640173
vt 0.778776 0.6403618
vt 0.8020703 0.6508172
vt 0.8233156 0.6655353
vt 0.7640709 0.6564474
vt 0.7526341 0.673701
vt 0.7767292 0.6775891
vt 0.788159 0.6638172
vt 0.802131 0.6844574
vt 0.8115996 0.6743713
vt 0.8249658 0.6946129
vt 0.8317331 0.6883513
vt 0.8249658 0.6946129
vt 0.8246761 0.696807
vt 0.8249658 0.6946129
vt 0.802131 0.6844574
vt 0.8017166 0.6874451
vt 0.7767292 0.6775891
vt 0.7763232 0.6804895
vt 0.7526341 0.673701
vt 0.7513667 0.6757003
vt 0.7513667 0.6757003
vt 0.7526341 0.673701
vt 0.7398877 0.6498184
vt 0.7373025 0.651102
vt 0.7290711 0.6243563
vt 0.725947 0.6252007
vt 0.7179697 0.5961056
vt 0.7155813 0.5963017
vt 0.7105972 0.5702698
vt 0.7077352 0.5673679
vt 0.7077352 0.5673679
vt 0.7105972 0.5702698
vt 0.7366962 0.5771345
vt 0.7371324 0.5740805
vt 0.7654431 0.5886217
vt 0.7664642 0.585579
vt 0.7909765 0.6013724
vt 0.7927693 0.5981988
vt 0.8133371 0.6166443
vt 0.8163159 0.6150011
vt 0.8163159 0.6150011
vt 0.8133371 0.6166443
vt 0.8175106 0.640173
vt 0.8196177 0.6399747
vt 0.8233156 0.6655353
vt 0.8253286 0.6652941
vt 0.8317331 0.6883513
vt 0.8338338 0.6882184
vn -0.8561634 -0.04745277 0.5145216
vn -0.8450946 -0.1408989 0.5157155
vn -0.8670388 -0.09201469 0.4896702
vn -0.8085603 -0.09177042 0.5812129
vn -0.7430016 0.04143856 0.6680057
vn -0.7986507 0.09260878 0.5946264
vn -0.7590119 -0.2726769 0.5912262
vn -0.70855 0.1889917 0.6798816
vn -0.7200314 -0.2025488 0.6637234
vn -0.6610879 -0.3324617 0.6726307
vn -0.5974603 -0.2717185 0.7544602
vn -0.5476305 -0.3647645 0.7530257
vn -0.4763467 -0.3240563 0.8173624
vn -0.6523258 -0.07110735 0.7545958
vn -0.5205128 -0.1890619 0.8326597
vn -0.3883949 -0.2800363 0.8779118
vn -0.6377315 0.1438599 0.7567053
vn -0.6070592 0.2604167 0.7507744
vn -0.5333967 0.2076627 0.8199781
vn -0.5476764 0.06532662 0.8341361
vn -0.43326 0.1791948 0.8832752
vn -0.4160165 -0.04894491 0.9080389
vn -0.4131667 0.1767233 0.8933432
vn -0.3020372 -0.1078121 0.94718
vn -0.2693975 0.1813476 0.9458001
vn -0.2630171 0.3376463 0.9037793
vn -0.2693905 0.1813432 0.945803
vn -0.275738 0.4393178 0.8549669
vn -0.2732303 0.4173153 0.8667141
vn -0.252395 0.5240582 0.8134247
vn -0.2554231 0.52294 0.8131991
vn -0.2244511 0.5340742 0.8150991
vn -0.2244511 0.5340742 0.8150991
vn -0.6176468 0.7150373 0.3274662
vn -0.6176468 0.7150373 0.3274662
vn -0.6394603 0.7183841 0.2738883
vn -0.6393337 0.718371 0.2742181
vn -0.7094401 0.6811367 0.1809626
vn -0.7175184 0.6743869 0.174269
vn -0.8004946 0.5837758 0.1356996
vn -0.8126909 0.5664943 0.1364468
vn -0.8458298 0.5152243 0.1382596
vn -0.8458298 0.5152243 0.1382596
vn -0.7982606 -0.5680442 0.2002641
vn -0.7982606 -0.5680442 0.2002641
vn -0.7548399 -0.6101857 0.2406036
vn -0.7635596 -0.6022775 0.2328917
vn -0.6556786 -0.6818278 0.3243401
vn -0.6627486 -0.6776496 0.3186776
vn -0.5494087 -0.7326577 0.4016997
vn -0.550545 -0.7322228 0.4009364
vn -0.5010461 -0.7494401 0.4327727
vn -0.5010461 -0.7494401 0.4327727
vn -0.1238293 -0.5711182 0.8114741
vn -0.1238293 -0.5711182 0.8114741
vn -0.1392745 -0.579612 0.8029026
vn -0.1412714 -0.5806959 0.8017697
vn -0.1672592 -0.5136154 0.8415602
vn -0.1695509 -0.494578 0.8524347
vn -0.1782349 -0.4124183 0.8933888
vn -0.1782349 -0.4124183 0.8933888
g SB-PineapplePanel_35_0
f 3/3/3 2/2/2 1/1/1
f 2/2/2 4/4/4 1/1/1
f 1/1/1 4/4/4 5/5/5
f 6/6/6 1/1/1 5/5/5
f 4/4/4 2/2/2 7/7/7
f 8/8/8 6/6/6 5/5/5
f 9/9/9 4/4/4 7/7/7
f 4/4/4 9/9/9 5/5/5
f 7/7/7 10/10/10 9/9/9
f 10/10/10 11/11/11 9/9/9
f 10/10/10 12/12/12 11/11/11
f 12/12/12 13/13/13 11/11/11
f 14/14/14 9/9/9 11/11/11
f 9/9/9 14/14/14 5/5/5
f 11/11/11 13/13/13 15/15/15
f 15/15/15 14/14/14 11/11/11
f 13/13/13 16/16/16 15/15/15
f 17/17/17 8/8/8 5/5/5
f 8/8/8 17/17/17 18/18/18
f 17/17/17 19/19/19 18/18/18
f 5/5/5 14/14/14 20/20/20
f 17/17/17 5/5/5 20/20/20
f 19/19/19 17/17/17 20/20/20
f 14/14/14 15/15/15 20/20/20
f 21/21/21 19/19/19 20/20/20
f 22/22/22 15/15/15 16/16/16
f 15/15/15 22/22/22 20/20/20
f 20/20/20 22/22/22 21/21/21
f 22/22/22 23/23/23 21/21/21
f 24/24/24 22/22/22 16/16/16
f 22/22/22 24/24/24 25/25/25
f 28/28/28 27/27/27 26/26/26
f 29/29/29 28/28/28 26/26/26
f 30/30/30 28/28/28 29/29/29
f 31/31/31 30/30/30 29/29/29
f 32/32/32 30/30/30 31/31/31
f 33/33/33 32/32/32 31/31/31
f 36/36/36 35/35/35 34/34/34
f 37/37/37 36/36/36 34/34/34
f 38/38/38 36/36/36 37/37/37
f 39/39/39 38/38/38 37/37/37
f 40/40/40 38/38/38 39/39/39
f 41/41/41 40/40/40 39/39/39
f 42/42/42 40/40/40 41/41/41
f 43/43/43 42/42/42 41/41/41
f 46/46/46 45/45/45 44/44/44
f 47/47/47 46/46/46 44/44/44
f 48/48/48 46/46/46 47/47/47
f 49/49/49 48/48/48 47/47/47
f 50/50/50 48/48/48 49/49/49
f 51/51/51 50/50/50 49/49/49
f 52/52/52 50/50/50 51/51/51
f 53/53/53 52/52/52 51/51/51
f 56/56/56 55/55/55 54/54/54
f 57/57/57 56/56/56 54/54/54
f 58/58/58 56/56/56 57/57/57
f 59/59/59 58/58/58 57/57/57
f 60/60/60 58/58/58 59/59/59
f 61/61/61 60/60/60 59/59/59
