g SB-PineapplePanel_21
v 2.750873 1.099961 3.57144
v 2.590745 1.292103 3.906868
v 2.499711 1.487327 3.588312
v 2.672786 1.291114 3.254755
v 2.875725 0.8591315 3.196394
v 2.342657 1.718976 3.212922
v 2.806262 1.056647 2.889259
v 2.958883 0.6053439 2.832706
v 2.525441 1.534232 2.889599
v 2.15044 1.935433 2.849761
v 2.896907 0.8060858 2.52884
v 2.979446 0.3451767 2.513728
v 2.907533 0.5879624 2.198917
v 2.339866 1.761505 2.529359
v 1.9462 2.123736 2.504762
v 2.110159 1.946734 2.195854
v 2.669638 1.308874 2.529045
v 2.764033 1.060859 2.17911
v 2.775493 0.844768 1.844465
v 2.48771 1.540087 2.179518
v 2.260391 1.729793 1.839644
v 2.585375 1.295663 1.823565
v 2.632614 1.092361 1.506889
v 2.387301 1.51309 1.494044
v 2.463332 1.304176 1.198899
v 2.577149 1.281335 3.981614
v 2.499711 1.487327 3.588312
v 2.590745 1.292103 3.906868
v 2.455122 1.523692 3.598495
v 2.342657 1.718976 3.212922
v 2.29632 1.753216 3.22282
v 2.15044 1.935433 2.849761
v 2.102123 1.96769 2.859338
v 1.875237 2.160798 2.499538
v 1.9462 2.123736 2.504762
v 2.742429 1.060619 3.598495
v 2.577149 1.281335 3.981614
v 2.590745 1.292103 3.906868
v 2.750873 1.099961 3.57144
v 2.863167 0.8186144 3.222598
v 2.875725 0.8591315 3.196394
v 2.942564 0.5632327 2.858359
v 2.958883 0.6053439 2.832706
v 2.962932 0.2918276 2.499606
v 2.979446 0.3451767 2.513728
v 2.88495 0.5595264 2.15159
v 2.962932 0.2918276 2.499606
v 2.979446 0.3451767 2.513728
v 2.907533 0.5879624 2.198917
v 2.755635 0.8153285 1.797183
v 2.775493 0.844768 1.844465
v 2.616538 1.0625 1.459491
v 2.632614 1.092361 1.506889
v 2.429207 1.284004 1.113079
v 2.463332 1.304176 1.198899
v 2.343857 1.537141 1.462991
v 2.429207 1.284004 1.113079
v 2.463332 1.304176 1.198899
v 2.387301 1.51309 1.494044
v 2.260391 1.729793 1.839644
v 2.211696 1.75009 1.809884
v 2.060515 1.965091 2.166454
v 2.110159 1.946734 2.195854
v 1.875237 2.160798 2.499538
v 1.9462 2.123736 2.504762
vt 0.5526559 0.3990789
vt 0.5776316 0.3854497
vt 0.5579914 0.3680258
vt 0.5329951 0.3825798
vt 0.5251621 0.4142666
vt 0.5348942 0.3455753
vt 0.5062267 0.3976202
vt 0.4983802 0.4289187
vt 0.510707 0.3604398
vt 0.5123731 0.3227747
vt 0.4799942 0.4122966
vt 0.474959 0.4424248
vt 0.4560263 0.4238388
vt 0.4885583 0.3378967
vt 0.4906383 0.3015052
vt 0.4677007 0.3155058
vt 0.4843678 0.3755851
vt 0.4587762 0.3905717
vt 0.4340003 0.40183
vt 0.4628922 0.3532919
vt 0.4412067 0.3310832
vt 0.4366451 0.3682869
vt 0.4132709 0.3796865
vt 0.4157653 0.3462138
vt 0.3945438 0.3593109
vt 0.5828624 0.3862581
vt 0.5579914 0.3680258
vt 0.5776316 0.3854497
vt 0.5593739 0.3642453
vt 0.5348942 0.3455753
vt 0.536164 0.3417416
vt 0.5123731 0.3227747
vt 0.5135251 0.3188582
vt 0.4908417 0.295915
vt 0.4906383 0.3015052
vt 0.5545564 0.4017862
vt 0.5828624 0.3862581
vt 0.5776316 0.3854497
vt 0.5526559 0.3990789
vt 0.5269287 0.4171805
vt 0.5251621 0.4142666
vt 0.4999345 0.4321035
vt 0.4983802 0.4289187
vt 0.473479 0.4460799
vt 0.474959 0.4424248
vt 0.4522478 0.4252075
vt 0.473479 0.4460799
vt 0.474959 0.4424248
vt 0.4560263 0.4238388
vt 0.4301293 0.403089
vt 0.4340003 0.40183
vt 0.4094255 0.3808332
vt 0.4132709 0.3796865
vt 0.3879962 0.3586503
vt 0.3945438 0.3593109
vt 0.4135824 0.3427736
vt 0.3879962 0.3586503
vt 0.3945438 0.3593109
vt 0.4157653 0.3462138
vt 0.4412067 0.3310832
vt 0.4391576 0.3273945
vt 0.4657858 0.3117563
vt 0.4677007 0.3155058
vt 0.4908417 0.295915
vt 0.4906383 0.3015052
vn 0.8656034 0.4938617 0.0826515
vn 0.8365448 0.5378547 0.1044272
vn 0.8170759 0.5693706 0.09057604
vn 0.8526356 0.5193613 0.05723996
vn 0.9239981 0.3811804 0.03048093
vn 0.7625226 0.6444228 0.05725827
vn 0.9100161 0.414566 0.002403614
vn 0.9640678 0.263811 -0.03125989
vn 0.7999529 0.5997044 0.02073927
vn 0.7072725 0.7068691 0.01008652
vn 0.9524848 0.2961851 -0.07104173
vn 0.9803523 0.1783244 -0.08431912
vn 0.9624065 0.2408589 -0.1255418
vn 0.7395932 0.6721168 -0.03550948
vn 0.677813 0.7346598 -0.02905856
vn 0.7059725 0.7039722 -0.07762726
vn 0.8633608 0.5022839 -0.04815598
vn 0.9120793 0.3916294 -0.121399
vn 0.9271417 0.3399851 -0.1575387
vn 0.7995349 0.5917141 -0.1030454
vn 0.7639493 0.6322352 -0.1290742
vn 0.8590423 0.4909475 -0.1449721
vn 0.8797477 0.447439 -0.1607559
vn 0.8287111 0.5387651 -0.1515587
vn 0.8548318 0.4935294 -0.1602848
vn 0.6630918 0.7087923 0.2406716
vn 0.650523 0.7253918 0.2250034
vn 0.6630918 0.7087923 0.2406716
vn 0.641435 0.7367517 0.2139117
vn 0.6147581 0.7670457 0.1836118
vn 0.6033267 0.7788284 0.1715318
vn 0.559664 0.8138501 0.1562821
vn 0.5314717 0.8326599 0.1556127
vn 0.5006207 0.851732 0.1546982
vn 0.5006207 0.851732 0.1546982
vn 0.9435508 0.09663001 0.3168195
vn 0.930452 0.2061477 0.3029228
vn 0.930452 0.2061477 0.3029228
vn 0.9444939 0.08042365 0.3185331
vn 0.9445922 -0.08219378 0.317789
vn 0.9445354 -0.08494044 0.317235
vn 0.9325523 -0.2122726 0.2920387
vn 0.933313 -0.2075766 0.2929826
vn 0.9184312 -0.2824241 0.2769851
vn 0.9184312 -0.2824241 0.2769851
vn 0.9240478 -0.1004889 -0.3688329
vn 0.9206412 -0.1796957 -0.3465966
vn 0.9206412 -0.1796957 -0.3465966
vn 0.923314 -0.1356206 -0.3593026
vn 0.9277214 -0.002887734 -0.3732622
vn 0.926013 -0.02639724 -0.3765677
vn 0.9159309 0.1043489 -0.3875332
vn 0.9226924 0.06872325 -0.3793624
vn 0.9061741 0.1467989 -0.3966087
vn 0.9061741 0.1467989 -0.3966087
vn 0.5753594 0.7514426 -0.3229482
vn 0.5897455 0.7191032 -0.3675471
vn 0.5897455 0.7191032 -0.3675471
vn 0.5749794 0.7522129 -0.3218299
vn 0.5278491 0.8011864 -0.281914
vn 0.526723 0.8018572 -0.2821133
vn 0.4779786 0.837525 -0.2647422
vn 0.4794873 0.8360352 -0.2667157
vn 0.4618561 0.8527794 -0.2438365
vn 0.4618561 0.8527794 -0.2438365
g SB-PineapplePanel_21_0
f 3/3/3 2/2/2 1/1/1
f 4/4/4 3/3/3 1/1/1
f 1/1/1 5/5/5 4/4/4
f 6/6/6 3/3/3 4/4/4
f 5/5/5 7/7/7 4/4/4
f 7/7/7 5/5/5 8/8/8
f 9/9/9 6/6/6 4/4/4
f 9/9/9 4/4/4 7/7/7
f 10/10/10 6/6/6 9/9/9
f 11/11/11 7/7/7 8/8/8
f 11/11/11 8/8/8 12/12/12
f 13/13/13 11/11/11 12/12/12
f 14/14/14 10/10/10 9/9/9
f 10/10/10 14/14/14 15/15/15
f 14/14/14 16/16/16 15/15/15
f 17/17/17 9/9/9 7/7/7
f 7/7/7 11/11/11 17/17/17
f 14/14/14 9/9/9 17/17/17
f 18/18/18 11/11/11 13/13/13
f 11/11/11 18/18/18 17/17/17
f 19/19/19 18/18/18 13/13/13
f 16/16/16 14/14/14 20/20/20
f 20/20/20 14/14/14 17/17/17
f 20/20/20 17/17/17 18/18/18
f 21/21/21 16/16/16 20/20/20
f 18/18/18 19/19/19 22/22/22
f 22/22/22 20/20/20 18/18/18
f 21/21/21 20/20/20 22/22/22
f 19/19/19 23/23/23 22/22/22
f 24/24/24 21/21/21 22/22/22
f 24/24/24 22/22/22 23/23/23
f 25/25/25 24/24/24 23/23/23
f 28/28/28 27/27/27 26/26/26
f 27/27/27 29/29/29 26/26/26
f 27/27/27 30/30/30 29/29/29
f 30/30/30 31/31/31 29/29/29
f 30/30/30 32/32/32 31/31/31
f 32/32/32 33/33/33 31/31/31
f 34/34/34 33/33/33 32/32/32
f 35/35/35 34/34/34 32/32/32
f 38/38/38 37/37/37 36/36/36
f 39/39/39 38/38/38 36/36/36
f 39/39/39 36/36/36 40/40/40
f 41/41/41 39/39/39 40/40/40
f 41/41/41 40/40/40 42/42/42
f 43/43/43 41/41/41 42/42/42
f 43/43/43 42/42/42 44/44/44
f 45/45/45 43/43/43 44/44/44
f 48/48/48 47/47/47 46/46/46
f 49/49/49 48/48/48 46/46/46
f 49/49/49 46/46/46 50/50/50
f 51/51/51 49/49/49 50/50/50
f 51/51/51 50/50/50 52/52/52
f 53/53/53 51/51/51 52/52/52
f 53/53/53 52/52/52 54/54/54
f 55/55/55 53/53/53 54/54/54
f 58/58/58 57/57/57 56/56/56
f 59/59/59 58/58/58 56/56/56
f 60/60/60 59/59/59 56/56/56
f 61/61/61 60/60/60 56/56/56
f 60/60/60 61/61/61 62/62/62
f 63/63/63 60/60/60 62/62/62
f 63/63/63 62/62/62 64/64/64
f 65/65/65 63/63/63 64/64/64
