g SB-PineapplePanel_7
v -0.0142062 -2.397699 5.044579
v 0.209692 -2.259013 5.358813
v 0.4619144 -2.352606 5.046311
v 0.2388911 -2.526392 4.726143
v -0.288541 -2.500085 4.704777
v 0.7470181 -2.41214 4.702254
v -0.03407113 -2.628365 4.357748
v -0.5821828 -2.549859 4.338013
v 0.5286665 -2.578377 4.357748
v 1.043077 -2.413192 4.33322
v -0.3238464 -2.680352 3.989352
v -0.8604224 -2.553886 3.983841
v -0.5914645 -2.656416 3.624892
v 0.2557043 -2.680351 3.989352
v 0.8241189 -2.578377 3.989352
v 1.328933 -2.354747 3.983423
v 1.090169 -2.49905 3.616476
v -0.03407102 -2.732337 3.606234
v -0.3043649 -2.717324 3.247357
v 0.5511566 -2.68035 3.606234
v 0.8135576 -2.616337 3.245666
v 0.2620294 -2.744338 3.230183
v -0.01181446 -2.749002 2.880564
v 0.5269611 -2.701418 2.881513
v 0.2583103 -2.747889 2.548501
v -0.6018391 -2.532317 4.350009
v -0.8604224 -2.553886 3.983841
v -0.8972911 -2.532317 3.981614
v -0.5821828 -2.549859 4.338013
v -0.3120638 -2.480331 4.718405
v -0.288541 -2.500085 4.704777
v -0.03910148 -2.378357 5.05792
v -0.0142062 -2.397699 5.044579
v 0.206558 -2.230315 5.397436
v 0.209692 -2.259013 5.358813
v -0.8972911 -2.532317 3.981614
v -0.8604224 -2.553886 3.983841
v -0.5914645 -2.656416 3.624892
v -0.6243289 -2.63429 3.598495
v -0.3043649 -2.717324 3.247357
v -0.3352766 -2.69928 3.223251
v -0.01181446 -2.749002 2.880564
v -0.03912408 -2.735108 2.859864
v 0.2583103 -2.747889 2.548501
v 0.2567063 -2.736619 2.501126
v 0.2567063 -2.736619 2.501126
v 0.2583103 -2.747889 2.548501
v 0.5269611 -2.701418 2.881513
v 0.5517213 -2.681959 2.859711
v 0.8135576 -2.616337 3.245666
v 0.8380057 -2.594743 3.223196
v 1.090169 -2.49905 3.616476
v 1.108864 -2.480329 3.598495
v 1.328933 -2.354747 3.983423
v 1.354524 -2.332287 3.981614
v 1.354524 -2.332287 3.981614
v 1.328933 -2.354747 3.983423
v 1.043077 -2.413192 4.33322
v 1.064748 -2.384272 4.350009
v 0.7470181 -2.41214 4.702254
v 0.7692959 -2.384273 4.718405
v 0.4619144 -2.352606 5.046311
v 0.4795205 -2.332288 5.05792
v 0.209692 -2.259013 5.358813
v 0.206558 -2.230315 5.397436
vt 0.3194318 0.1946774
vt 0.3413252 0.2156979
vt 0.3552947 0.1885749
vt 0.3328621 0.1655466
vt 0.2938136 0.1724232
vt 0.3713164 0.1584421
vt 0.3074265 0.1416016
vt 0.266618 0.1492675
vt 0.3487689 0.1342857
vt 0.3886459 0.1271674
vt 0.2810738 0.1184956
vt 0.2412357 0.1272159
vt 0.2556021 0.09600712
vt 0.3233408 0.1103707
vt 0.365667 0.1035334
vt 0.4061061 0.09806018
vt 0.3825165 0.07298672
vt 0.2967542 0.08604302
vt 0.2714554 0.06334399
vt 0.3400602 0.07839518
vt 0.3559819 0.04830627
vt 0.3134759 0.05420747
vt 0.2883891 0.03176562
vt 0.3289772 0.02469223
vt 0.3043646 0.004191017
vt 0.265085 0.1508387
vt 0.2412357 0.1272159
vt 0.2380446 0.1279201
vt 0.266618 0.1492675
vt 0.2921061 0.17432
vt 0.2938136 0.1724232
vt 0.317748 0.1966622
vt 0.3194318 0.1946774
vt 0.3419308 0.2193557
vt 0.3413252 0.2156979
vt 0.2380446 0.1279201
vt 0.2412357 0.1272159
vt 0.2556021 0.09600712
vt 0.2522456 0.09464485
vt 0.2714554 0.06334399
vt 0.2684582 0.06196397
vt 0.2883891 0.03176562
vt 0.2858683 0.03048582
vt 0.3043646 0.004191017
vt 0.3036727 0.0005
vt 0.3036727 0.0005
vt 0.3043646 0.004191017
vt 0.3289772 0.02469223
vt 0.3309457 0.02252538
vt 0.3559819 0.04830627
vt 0.3581045 0.04614919
vt 0.3825165 0.07298672
vt 0.3843049 0.07133579
vt 0.4061061 0.09806018
vt 0.4086887 0.09771379
vt 0.4086887 0.09771379
vt 0.4061061 0.09806018
vt 0.3886459 0.1271674
vt 0.391349 0.1285131
vt 0.3713164 0.1584421
vt 0.373929 0.1598881
vt 0.3552947 0.1885749
vt 0.3572023 0.1897055
vt 0.3413252 0.2156979
vt 0.3419308 0.2193557
vn 0.0269852 -0.9311972 0.3635156
vn 0.0853617 -0.9163375 0.3912019
vn 0.140206 -0.9203441 0.365115
vn 0.08371978 -0.9459659 0.3132725
vn -0.09523588 -0.9519824 0.2909634
vn 0.2562474 -0.9209864 0.2934643
vn -0.0297313 -0.9733167 0.2275317
vn -0.1806353 -0.9615901 0.2066768
vn 0.198619 -0.9531901 0.2279893
vn 0.3475501 -0.9157924 0.2013288
vn -0.1255373 -0.9814506 0.1448971
vn -0.228348 -0.9624506 0.1467857
vn -0.1729156 -0.9810272 0.08766793
vn 0.08774155 -0.9861515 0.1407365
vn 0.3005995 -0.9433252 0.1406328
vn 0.4026522 -0.9053571 0.1349063
vn 0.3534798 -0.9318819 0.0815366
vn -0.02342147 -0.9972008 0.07100641
vn -0.08307722 -0.9960395 0.03167789
vn 0.2033859 -0.9765677 0.07035482
vn 0.264662 -0.9638577 0.03053215
vn 0.08946592 -0.9955009 0.03120609
vn 0.03040206 -0.9994668 0.01190532
vn 0.1470151 -0.9890662 0.01160022
vn 0.08796854 -0.9961122 0.004709803
vn -0.4514835 -0.7907814 0.4133127
vn -0.4792518 -0.7887741 0.3849067
vn -0.4792518 -0.7887741 0.3849067
vn -0.4491263 -0.7908927 0.4156613
vn -0.3843788 -0.7889416 0.4793998
vn -0.3834396 -0.7888479 0.4803052
vn -0.3226959 -0.7802097 0.5358548
vn -0.32372 -0.7803954 0.5349657
vn -0.2996671 -0.7756793 0.5554469
vn -0.2996671 -0.7756793 0.5554469
vn -0.4910059 -0.862738 -0.1208152
vn -0.4910059 -0.862738 -0.1208152
vn -0.45586 -0.8775413 -0.148704
vn -0.4581152 -0.8766622 -0.1469483
vn -0.3855703 -0.9036411 -0.1864626
vn -0.3876752 -0.9028803 -0.1857826
vn -0.3133119 -0.9254782 -0.2128984
vn -0.3153761 -0.9249696 -0.2120595
vn -0.2777961 -0.9334204 -0.2270589
vn -0.2777961 -0.9334204 -0.2270589
vn 0.4439774 -0.8645579 -0.2354222
vn 0.4439774 -0.8645579 -0.2354222
vn 0.4774549 -0.8504677 -0.2207747
vn 0.4789793 -0.8497873 -0.2200919
vn 0.5444318 -0.8166241 -0.1916219
vn 0.5461341 -0.8156552 -0.1909031
vn 0.6117713 -0.7764842 -0.1510237
vn 0.6133312 -0.7754937 -0.1497812
vn 0.6456707 -0.7535994 -0.1232769
vn 0.6456707 -0.7535994 -0.1232769
vn 0.6180369 -0.6823367 0.3904445
vn 0.6180369 -0.6823367 0.3904445
vn 0.5885807 -0.6895351 0.4220356
vn 0.5905985 -0.6890923 0.419935
vn 0.5234073 -0.6993755 0.486743
vn 0.5232901 -0.6993861 0.4868537
vn 0.4608825 -0.7031976 0.5413876
vn 0.4593926 -0.7032583 0.5425737
vn 0.4350106 -0.7038868 0.5615239
vn 0.4350106 -0.7038868 0.5615239
g SB-PineapplePanel_7_0
f 3/3/3 2/2/2 1/1/1
f 4/4/4 3/3/3 1/1/1
f 4/4/4 1/1/1 5/5/5
f 3/3/3 4/4/4 6/6/6
f 7/7/7 4/4/4 5/5/5
f 7/7/7 5/5/5 8/8/8
f 4/4/4 9/9/9 6/6/6
f 9/9/9 4/4/4 7/7/7
f 10/10/10 6/6/6 9/9/9
f 11/11/11 7/7/7 8/8/8
f 8/8/8 12/12/12 11/11/11
f 12/12/12 13/13/13 11/11/11
f 14/14/14 9/9/9 7/7/7
f 14/14/14 7/7/7 11/11/11
f 15/15/15 10/10/10 9/9/9
f 9/9/9 14/14/14 15/15/15
f 16/16/16 10/10/10 15/15/15
f 17/17/17 16/16/16 15/15/15
f 18/18/18 11/11/11 13/13/13
f 18/18/18 14/14/14 11/11/11
f 19/19/19 18/18/18 13/13/13
f 17/17/17 15/15/15 20/20/20
f 14/14/14 20/20/20 15/15/15
f 20/20/20 14/14/14 18/18/18
f 21/21/21 17/17/17 20/20/20
f 22/22/22 18/18/18 19/19/19
f 22/22/22 20/20/20 18/18/18
f 20/20/20 22/22/22 21/21/21
f 23/23/23 22/22/22 19/19/19
f 22/22/22 24/24/24 21/21/21
f 24/24/24 22/22/22 23/23/23
f 25/25/25 24/24/24 23/23/23
f 28/28/28 27/27/27 26/26/26
f 27/27/27 29/29/29 26/26/26
f 26/26/26 29/29/29 30/30/30
f 29/29/29 31/31/31 30/30/30
f 30/30/30 31/31/31 32/32/32
f 31/31/31 33/33/33 32/32/32
f 32/32/32 33/33/33 34/34/34
f 33/33/33 35/35/35 34/34/34
f 38/38/38 37/37/37 36/36/36
f 39/39/39 38/38/38 36/36/36
f 40/40/40 38/38/38 39/39/39
f 41/41/41 40/40/40 39/39/39
f 42/42/42 40/40/40 41/41/41
f 43/43/43 42/42/42 41/41/41
f 44/44/44 42/42/42 43/43/43
f 45/45/45 44/44/44 43/43/43
f 48/48/48 47/47/47 46/46/46
f 49/49/49 48/48/48 46/46/46
f 50/50/50 48/48/48 49/49/49
f 51/51/51 50/50/50 49/49/49
f 52/52/52 50/50/50 51/51/51
f 53/53/53 52/52/52 51/51/51
f 54/54/54 52/52/52 53/53/53
f 55/55/55 54/54/54 53/53/53
f 58/58/58 57/57/57 56/56/56
f 59/59/59 58/58/58 56/56/56
f 60/60/60 58/58/58 59/59/59
f 61/61/61 60/60/60 59/59/59
f 62/62/62 60/60/60 61/61/61
f 63/63/63 62/62/62 61/61/61
f 64/64/64 62/62/62 63/63/63
f 65/65/65 64/64/64 63/63/63
