g SB-PortholeWindow_1
v 1.990527 -2.053401 1.585837
v 1.62434 -2.272059 1.516909
v 1.976956 -2.072717 1.667175
v 1.990026 -2.042488 1.501851
v 1.949834 -2.099693 1.742738
v 1.975471 -2.040398 1.418444
v 1.910204 -2.133293 1.809622
v 1.947423 -2.04721 1.33882
v 1.859589 -2.172226 1.865258
v 1.906959 -2.062663 1.26604
v 1.799932 -2.214995 1.907506
v 1.855634 -2.086162 1.202901
v 1.733527 -2.259958 1.934744
v 1.79542 -2.116807 1.151829
v 1.662928 -2.305385 1.945925
v 1.728632 -2.153417 1.114787
v 1.590845 -2.349531 1.94062
v 1.657837 -2.194586 1.093198
v 1.520049 -2.390701 1.919031
v 1.585754 -2.238733 1.087892
v 1.45326 -2.427311 1.881989
v 1.515153 -2.28416 1.099073
v 1.393047 -2.457955 1.830917
v 1.448749 -2.329122 1.126311
v 1.341722 -2.481455 1.767778
v 1.389093 -2.371891 1.16856
v 1.301258 -2.496908 1.694998
v 1.338477 -2.410825 1.224195
v 1.27321 -2.50372 1.615374
v 1.298847 -2.444425 1.29108
v 1.258655 -2.501629 1.531967
v 1.271725 -2.471401 1.366643
v 1.258154 -2.490717 1.44798
vt 0.7361212 0.4033513
vt 0.6649141 0.385883
vt 0.7313452 0.4169074
vt 0.7381609 0.3891235
vt 0.7240161 0.4292715
vt 0.7373857 0.3747718
vt 0.7144158 0.4399679
vt 0.7338254 0.3608469
vt 0.7029133 0.4485858
vt 0.727617 0.347884
vt 0.6899502 0.4547945
vt 0.7189991 0.3363814
vt 0.6760249 0.4583545
vt 0.7083027 0.3267812
vt 0.6616728 0.4591297
vt 0.6959389 0.3194521
vt 0.6474455 0.4570899
vt 0.6823826 0.314676
vt 0.633889 0.4523139
vt 0.6681553 0.3126362
vt 0.6215256 0.4449848
vt 0.6538032 0.3134113
vt 0.6108288 0.4353844
vt 0.6398782 0.3169714
vt 0.6022109 0.4238817
vt 0.626915 0.3231797
vt 0.5960024 0.4109187
vt 0.6154126 0.3317978
vt 0.5924424 0.3969937
vt 0.6058122 0.3424942
vt 0.5916672 0.3826416
vt 0.598483 0.354858
vt 0.593707 0.3684142
vn 0.5249676 -0.8436213 -0.1127483
vn 0.5249677 -0.843621 -0.1127498
vn 0.5249667 -0.8436218 -0.1127485
vn 0.5249673 -0.843621 -0.1127521
vn 0.5249677 -0.8436214 -0.1127468
vn 0.5249676 -0.8436208 -0.1127521
vn 0.5249689 -0.84362 -0.1127515
vn 0.524968 -0.8436208 -0.1127499
vn 0.5249665 -0.8436214 -0.1127515
vn 0.5249666 -0.8436214 -0.1127514
vn 0.5249663 -0.843622 -0.1127487
vn 0.524967 -0.8436214 -0.1127497
vn 0.5249683 -0.8436205 -0.1127508
vn 0.5249684 -0.8436208 -0.1127482
vn 0.5249676 -0.8436211 -0.1127494
vn 0.5249687 -0.8436204 -0.1127492
vn 0.5249676 -0.843621 -0.11275
vn 0.5249682 -0.8436207 -0.11275
vn 0.524967 -0.8436214 -0.1127497
vn 0.5249667 -0.8436216 -0.1127501
vn 0.5249668 -0.8436217 -0.112749
vn 0.5249661 -0.843622 -0.1127493
vn 0.524969 -0.8436206 -0.1127468
vn 0.5249661 -0.8436219 -0.1127502
vn 0.5249694 -0.8436201 -0.1127484
vn 0.5249694 -0.8436198 -0.1127517
vn 0.5249683 -0.8436204 -0.1127519
vn 0.5249703 -0.8436193 -0.11275
vn 0.5249665 -0.8436216 -0.1127517
vn 0.5249676 -0.8436213 -0.1127483
vn 0.5249669 -0.8436214 -0.11275
vn 0.5249676 -0.8436213 -0.1127484
vn 0.524968 -0.843621 -0.1127484
g SB-PortholeWindow_1_0
f 3/3/3 2/2/2 1/1/1
f 1/1/1 2/2/2 4/4/4
f 5/5/5 2/2/2 3/3/3
f 4/4/4 2/2/2 6/6/6
f 7/7/7 2/2/2 5/5/5
f 6/6/6 2/2/2 8/8/8
f 9/9/9 2/2/2 7/7/7
f 8/8/8 2/2/2 10/10/10
f 11/11/11 2/2/2 9/9/9
f 10/10/10 2/2/2 12/12/12
f 13/13/13 2/2/2 11/11/11
f 12/12/12 2/2/2 14/14/14
f 15/15/15 2/2/2 13/13/13
f 14/14/14 2/2/2 16/16/16
f 17/17/17 2/2/2 15/15/15
f 16/16/16 2/2/2 18/18/18
f 19/19/19 2/2/2 17/17/17
f 18/18/18 2/2/2 20/20/20
f 21/21/21 2/2/2 19/19/19
f 20/20/20 2/2/2 22/22/22
f 23/23/23 2/2/2 21/21/21
f 22/22/22 2/2/2 24/24/24
f 25/25/25 2/2/2 23/23/23
f 24/24/24 2/2/2 26/26/26
f 27/27/27 2/2/2 25/25/25
f 26/26/26 2/2/2 28/28/28
f 29/29/29 2/2/2 27/27/27
f 28/28/28 2/2/2 30/30/30
f 31/31/31 2/2/2 29/29/29
f 30/30/30 2/2/2 32/32/32
f 33/33/33 2/2/2 31/31/31
f 32/32/32 2/2/2 33/33/33
