g SB-PineapplePanelBottom_1
v -1.224751 -2.165828 0.003406626
v -1.553126 -1.873468 0.004986196
v -1.438572 -2.075046 0.1880613
v -1.032397 -2.328577 0.1941968
v -1.266729 -2.26493 0.4575037
v -1.044543 -2.44769 0.7929737
v -1.008999 -2.342115 0.2170084
v -1.004782 -2.32988 0.1816688
v -0.9798687 -2.251753 0.003036089
v -1.459432 -2.051377 0.2149994
v -1.553126 -1.873468 0.004986196
v -1.58779 -1.821747 -0.005899427
v -1.438572 -2.075046 0.1880613
v -1.285036 -2.244719 0.4809644
v -1.266729 -2.26493 0.4575037
v -1.08628 -2.418959 0.7998627
v -1.044543 -2.44769 0.7929737
v -1.044625 -2.441589 0.8555964
vt 0.8455931 0.2688186
vt 0.8410673 0.2374226
vt 0.8282361 0.2557262
vt 0.8376456 0.2907092
vt 0.8127533 0.2790879
vt 0.7934735 0.3069538
vt 0.8364616 0.2928796
vt 0.8390614 0.2915975
vt 0.8518336 0.2848345
vt 0.8258367 0.25374
vt 0.8410673 0.2374226
vt 0.8415507 0.2326459
vt 0.8282361 0.2557262
vt 0.8105119 0.2774911
vt 0.8127533 0.2790879
vt 0.7919566 0.3033091
vt 0.7934735 0.3069538
vt 0.7887164 0.3079358
vn -0.4932718 -0.8131381 -0.3090134
vn -0.6174397 -0.6914723 -0.3750122
vn -0.5711994 -0.7613549 -0.306708
vn -0.3698593 -0.8784161 -0.3026369
vn -0.4713665 -0.8579536 -0.2042774
vn -0.4356615 -0.8810808 -0.1841079
vn -0.3742855 -0.8986491 -0.22878
vn -0.2619439 -0.8795161 -0.3972867
vn -0.2941613 -0.8561182 -0.4248891
vn -0.7829845 -0.6187376 -0.06402346
vn -0.8114056 -0.5715672 -0.1221962
vn -0.8114056 -0.5715672 -0.1221962
vn -0.7780337 -0.6258285 -0.05479309
vn -0.6925635 -0.7213429 -0.004499318
vn -0.6910868 -0.7227565 -0.004710492
vn -0.6112182 -0.7912727 0.01731177
vn -0.5908222 -0.8057489 0.04120546
vn -0.556231 -0.8271815 0.07986183
g SB-PineapplePanelBottom_1_0
f 3/3/3 2/2/2 1/1/1
f 1/1/1 4/4/4 3/3/3
f 4/4/4 5/5/5 3/3/3
f 6/6/6 5/5/5 4/4/4
f 7/7/7 6/6/6 4/4/4
f 7/7/7 4/4/4 8/8/8
f 4/4/4 1/1/1 8/8/8
f 1/1/1 9/9/9 8/8/8
f 12/12/12 11/11/11 10/10/10
f 11/11/11 13/13/13 10/10/10
f 10/10/10 13/13/13 14/14/14
f 13/13/13 15/15/15 14/14/14
f 14/14/14 15/15/15 16/16/16
f 15/15/15 17/17/17 16/16/16
f 18/18/18 16/16/16 17/17/17
