g SB-PineapplePanel_0
v -1.65637 -1.491024 5.729417
v -1.352097 -1.720441 5.716413
v -1.621301 -1.71956 5.448559
v -1.413769 -1.491487 6.030494
v -1.656404 -1.229427 6.026679
v -1.067486 -1.667753 6.016327
v -1.413769 -1.225018 6.274717
v -1.60017 -0.9713576 6.267527
v -1.123994 -1.439502 6.274717
v -0.792324 -1.568049 6.255296
v -1.35613 -0.9636685 6.518942
v -1.50894 -0.7208871 6.492823
v -1.216977 -0.7413996 6.664267
v -1.123994 -1.173032 6.518942
v -0.8510318 -1.337528 6.518942
v -0.5513898 -1.425475 6.490684
v -0.6133208 -1.171232 6.668378
v -1.066355 -0.9116826 6.700417
v -0.9217344 -0.6909034 6.850325
v -0.8510321 -1.071059 6.700417
v -0.606586 -0.9012251 6.849898
v -0.7933925 -0.809709 6.881891
v -0.642394 -0.589479 6.965379
v -0.5571176 -0.6377472 6.965379
v -0.642394 -0.589479 6.965379
v -0.6422628 -0.5620498 6.965379
v -0.642394 -0.589479 6.965379
v -0.9217344 -0.6909034 6.850325
v -0.9192044 -0.6654535 6.837933
v -1.216977 -0.7413996 6.664267
v -1.212685 -0.7181417 6.654304
v -1.50894 -0.7208871 6.492823
v -1.516013 -0.6927512 6.481059
v -1.516013 -0.6927512 6.481059
v -1.50894 -0.7208871 6.492823
v -1.60017 -0.9713576 6.267527
v -1.605 -0.9531121 6.24654
v -1.656404 -1.229427 6.026679
v -1.661859 -1.212046 6.00401
v -1.65637 -1.491024 5.729417
v -1.661501 -1.476416 5.708016
v -1.621301 -1.71956 5.448559
v -1.629078 -1.728106 5.397436
v -1.629078 -1.728106 5.397436
v -1.621301 -1.71956 5.448559
v -1.352097 -1.720441 5.716413
v -1.333625 -1.728105 5.695024
v -1.067486 -1.667753 6.016327
v -1.04385 -1.676119 5.992611
v -0.792324 -1.568049 6.255296
v -0.7708874 -1.574146 6.236835
v -0.5513898 -1.425475 6.490684
v -0.525228 -1.426103 6.481059
v -0.525228 -1.426103 6.481059
v -0.5513898 -1.425475 6.490684
v -0.6133208 -1.171232 6.668378
v -0.5828683 -1.164754 6.662533
v -0.606586 -0.9012251 6.849898
v -0.5828686 -0.8982844 6.844008
v -0.5571176 -0.6377472 6.965379
v -0.525229 -0.636935 6.965379
vt 0.8962916 0.737583
vt 0.9200027 0.7203661
vt 0.8936841 0.7110425
vt 0.9224886 0.749956
vt 0.9019237 0.7667223
vt 0.9478884 0.7355966
vt 0.9257794 0.7764662
vt 0.908675 0.7926412
vt 0.9482136 0.7619067
vt 0.9725915 0.7505109
vt 0.9328699 0.8021224
vt 0.9179384 0.8166444
vt 0.9425269 0.8225573
vt 0.9513029 0.7884681
vt 0.9718542 0.7771474
vt 0.9932151 0.768535
vt 0.9912454 0.7922786
vt 0.956583 0.8119537
vt 0.9677576 0.8317752
vt 0.9735044 0.8010452
vt 0.9927607 0.8171895
vt 0.9787796 0.8244718
vt 0.9894932 0.8429625
vt 0.9964678 0.8395844
vt 0.9894932 0.8429625
vt 0.9892021 0.8450567
vt 0.9894932 0.8429625
vt 0.9677576 0.8317752
vt 0.9670722 0.8338304
vt 0.9425269 0.8225573
vt 0.9419115 0.8244451
vt 0.9179384 0.8166444
vt 0.9162743 0.8183792
vt 0.9162743 0.8183792
vt 0.9179384 0.8166444
vt 0.908675 0.7926412
vt 0.9065707 0.7931815
vt 0.9019237 0.7667223
vt 0.8997282 0.7668645
vt 0.8962916 0.737583
vt 0.8943081 0.7373647
vt 0.8936841 0.7110425
vt 0.8912925 0.7077352
vt 0.8912925 0.7077352
vt 0.8936841 0.7110425
vt 0.9200027 0.7203661
vt 0.9207103 0.7182422
vt 0.9478884 0.7355966
vt 0.9491494 0.7332493
vt 0.9725915 0.7505109
vt 0.9739772 0.7487605
vt 0.9932151 0.768535
vt 0.995208 0.7677176
vt 0.995208 0.7677176
vt 0.9932151 0.768535
vt 0.9912454 0.7922786
vt 0.9937016 0.7922529
vt 0.9927607 0.8171895
vt 0.9946582 0.8171317
vt 0.9964678 0.8395844
vt 0.9989565 0.839664
vn -0.5520455 -0.6719729 0.4936578
vn -0.470932 -0.7337072 0.4897926
vn -0.5198882 -0.7159362 0.4659953
vn -0.495865 -0.6684471 0.5543432
vn -0.6237044 -0.5298685 0.5746583
vn -0.3310153 -0.760958 0.558007
vn -0.5470891 -0.5322587 0.6460606
vn -0.6264736 -0.4077043 0.6643102
vn -0.3573411 -0.6859403 0.6338715
vn -0.2206237 -0.7355146 0.6405805
vn -0.5424303 -0.3900763 0.7440496
vn -0.5961647 -0.2949007 0.7467403
vn -0.5158826 -0.2626899 0.8153889
vn -0.4046541 -0.5457721 0.7337492
vn -0.2319466 -0.6491805 0.7244069
vn -0.1335665 -0.6851499 0.7160513
vn -0.126618 -0.5963677 0.7926623
vn -0.4286432 -0.3727518 0.8229952
vn -0.4224037 -0.2113421 0.8814247
vn -0.2430598 -0.5283703 0.8134782
vn -0.09400101 -0.4974442 0.862388
vn -0.262957 -0.3589231 0.89556
vn -0.4050592 -0.2005651 0.8920206
vn -0.1240974 -0.3460568 0.9299701
vn -0.3275275 -0.001197115 0.9448408
vn -0.4577289 0.2246393 0.860245
vn -0.3275378 -0.001211504 0.9448373
vn -0.5023777 0.3270414 0.8004127
vn -0.4979563 0.3162635 0.8074757
vn -0.4969352 0.3711418 0.7844164
vn -0.4958768 0.3699905 0.7856292
vn -0.4548077 0.3257985 0.8288578
vn -0.4548077 0.3257985 0.8288578
vn -0.9349146 0.01053657 0.3547162
vn -0.9349146 0.01053657 0.3547162
vn -0.9555494 0.005077743 0.2947877
vn -0.9570517 0.004634585 0.2898802
vn -0.9805325 -0.0664682 0.1847652
vn -0.9812595 -0.08103456 0.1748234
vn -0.9673744 -0.2144072 0.1349672
vn -0.9609777 -0.2403179 0.1370008
vn -0.9411024 -0.306936 0.1418324
vn -0.9411024 -0.306936 0.1418324
vn -0.1893065 -0.9638419 0.1875418
vn -0.1893065 -0.9638419 0.1875418
vn -0.1376667 -0.9646896 0.2245481
vn -0.1436528 -0.9647906 0.2203249
vn -0.02891529 -0.9511783 0.3072842
vn -0.03121572 -0.9516938 0.3054579
vn 0.07565515 -0.918701 0.3876402
vn 0.07748304 -0.9179732 0.3890008
vn 0.1215805 -0.8987591 0.4212486
vn 0.1215805 -0.8987591 0.4212486
vn 0.2756462 -0.5055938 0.8175536
vn 0.2756462 -0.5055938 0.8175536
vn 0.2712597 -0.5243629 0.8071318
vn 0.2713803 -0.5238575 0.8074194
vn 0.2003326 -0.491481 0.8475337
vn 0.1929093 -0.4856054 0.8526274
vn 0.1237356 -0.4290528 0.8947643
vn 0.1237356 -0.4290528 0.8947643
g SB-PineapplePanel_0_0
f 3/3/3 2/2/2 1/1/1
f 2/2/2 4/4/4 1/1/1
f 1/1/1 4/4/4 5/5/5
f 4/4/4 2/2/2 6/6/6
f 4/4/4 7/7/7 5/5/5
f 5/5/5 7/7/7 8/8/8
f 9/9/9 4/4/4 6/6/6
f 4/4/4 9/9/9 7/7/7
f 6/6/6 10/10/10 9/9/9
f 7/7/7 11/11/11 8/8/8
f 12/12/12 8/8/8 11/11/11
f 13/13/13 12/12/12 11/11/11
f 9/9/9 14/14/14 7/7/7
f 7/7/7 14/14/14 11/11/11
f 10/10/10 15/15/15 9/9/9
f 14/14/14 9/9/9 15/15/15
f 10/10/10 16/16/16 15/15/15
f 16/16/16 17/17/17 15/15/15
f 11/11/11 18/18/18 13/13/13
f 14/14/14 18/18/18 11/11/11
f 18/18/18 19/19/19 13/13/13
f 15/15/15 17/17/17 20/20/20
f 20/20/20 14/14/14 15/15/15
f 14/14/14 20/20/20 18/18/18
f 17/17/17 21/21/21 20/20/20
f 18/18/18 22/22/22 19/19/19
f 20/20/20 22/22/22 18/18/18
f 22/22/22 20/20/20 21/21/21
f 22/22/22 23/23/23 19/19/19
f 24/24/24 22/22/22 21/21/21
f 22/22/22 24/24/24 25/25/25
f 28/28/28 27/27/27 26/26/26
f 29/29/29 28/28/28 26/26/26
f 30/30/30 28/28/28 29/29/29
f 31/31/31 30/30/30 29/29/29
f 32/32/32 30/30/30 31/31/31
f 33/33/33 32/32/32 31/31/31
f 36/36/36 35/35/35 34/34/34
f 37/37/37 36/36/36 34/34/34
f 38/38/38 36/36/36 37/37/37
f 39/39/39 38/38/38 37/37/37
f 40/40/40 38/38/38 39/39/39
f 41/41/41 40/40/40 39/39/39
f 42/42/42 40/40/40 41/41/41
f 43/43/43 42/42/42 41/41/41
f 46/46/46 45/45/45 44/44/44
f 47/47/47 46/46/46 44/44/44
f 48/48/48 46/46/46 47/47/47
f 49/49/49 48/48/48 47/47/47
f 50/50/50 48/48/48 49/49/49
f 51/51/51 50/50/50 49/49/49
f 52/52/52 50/50/50 51/51/51
f 53/53/53 52/52/52 51/51/51
f 56/56/56 55/55/55 54/54/54
f 57/57/57 56/56/56 54/54/54
f 58/58/58 56/56/56 57/57/57
f 59/59/59 58/58/58 57/57/57
f 60/60/60 58/58/58 59/59/59
f 61/61/61 60/60/60 59/59/59
