g SB-PineapplePanel_13
v 1.144063 -2.486868 3.574407
v 1.363537 -2.347496 3.93579
v 1.613055 -2.262235 3.572884
v 1.409427 -2.43066 3.215897
v 0.8721642 -2.603127 3.201084
v 1.865381 -2.123683 3.200124
v 1.144187 -2.566411 2.85227
v 0.5849782 -2.691957 2.839466
v 1.667619 -2.31175 2.852095
v 1.408094 -2.464594 2.493299
v 1.899747 -2.162764 2.493025
v 2.089427 -1.965559 2.834474
v 2.274107 -1.777555 2.498006
v 2.061261 -1.96408 2.166173
v 0.8616532 -2.672651 2.493547
v 0.2938513 -2.74283 2.499334
v 0.5403479 -2.703961 2.145922
v 1.127047 -2.576677 2.144771
v 0.8373567 -2.608953 1.810595
v 1.870913 -2.145569 2.117146
v 1.948528 -2.049918 2.045138
v 1.772188 -2.224378 2.160142
v 1.635679 -2.322685 2.175631
v 1.550527 -2.368603 2.169464
v 1.433274 -2.424293 2.135319
v 1.323981 -2.475281 2.076973
v 1.226555 -2.519174 1.996655
v 1.226048 -2.519391 1.996041
v 1.13628 -2.541802 1.897117
v 1.067445 -2.558264 1.782612
v 0.9937403 -2.539549 1.595075
v 0.5517213 -2.681959 2.859711
v 0.2938513 -2.74283 2.499334
v 0.2567063 -2.736619 2.501126
v 0.5849782 -2.691957 2.839466
v 0.8380057 -2.594743 3.223196
v 0.8721642 -2.603127 3.201084
v 1.108864 -2.480329 3.598495
v 1.144063 -2.486868 3.574407
v 1.354524 -2.332287 3.981614
v 1.363537 -2.347496 3.93579
v 1.627486 -2.230313 3.598495
v 1.613055 -2.262235 3.572884
v 1.877612 -2.092099 3.222962
v 1.865381 -2.123683 3.200124
v 2.102236 -1.928069 2.85949
v 2.089427 -1.965559 2.834474
v 2.293379 -1.736734 2.50032
v 2.274107 -1.777555 2.498006
v 2.069821 -1.935036 2.152439
v 2.061261 -1.96408 2.166173
v 1.950238 -2.014976 2.0288
v 1.948528 -2.049918 2.045138
v 0.2567063 -2.736619 2.501126
v 0.2938513 -2.74283 2.499334
v 0.5403479 -2.703961 2.145922
v 0.5226257 -2.70606 2.135063
v 0.8373567 -2.608953 1.810595
v 0.8089994 -2.602259 1.798061
v 0.9937403 -2.539549 1.595075
v 0.982498 -2.529804 1.565381
vt 0.6190205 0.6066922
vt 0.6376756 0.6334355
vt 0.6581182 0.6077475
vt 0.6396892 0.5800585
vt 0.5973109 0.5781593
vt 0.680917 0.5807863
vt 0.6182926 0.5521424
vt 0.5752807 0.5503531
vt 0.6618294 0.5536014
vt 0.6403015 0.525787
vt 0.6835464 0.527622
vt 0.7026448 0.5542272
vt 0.722931 0.5301793
vt 0.7039924 0.5041638
vt 0.5964893 0.5246676
vt 0.5540351 0.5243425
vt 0.5727441 0.4979091
vt 0.6182021 0.4988689
vt 0.5969023 0.4728177
vt 0.6843593 0.4990949
vt 0.694107 0.4941581
vt 0.6741042 0.4991686
vt 0.6615192 0.5023599
vt 0.6544751 0.4999611
vt 0.6442568 0.4986439
vt 0.635122 0.4940045
vt 0.6277649 0.4880599
vt 0.6270013 0.4876738
vt 0.6201028 0.4799511
vt 0.6148912 0.4710779
vt 0.6099541 0.4564278
vt 0.5727361 0.5520135
vt 0.5540351 0.5243425
vt 0.5511717 0.5244462
vt 0.5752807 0.5503531
vt 0.5947692 0.5800188
vt 0.5973109 0.5781593
vt 0.6165092 0.6087419
vt 0.6190205 0.6066922
vt 0.637463 0.6371556
vt 0.6376756 0.6334355
vt 0.6603822 0.6100826
vt 0.6581182 0.6077475
vt 0.6831946 0.582858
vt 0.680917 0.5807863
vt 0.7054018 0.5564388
vt 0.7026448 0.5542272
vt 0.7263291 0.5304793
vt 0.722931 0.5301793
vt 0.7062354 0.5030457
vt 0.7039924 0.5041638
vt 0.6965199 0.492479
vt 0.694107 0.4941581
vt 0.5511717 0.5244462
vt 0.5540351 0.5243425
vt 0.5727441 0.4979091
vt 0.5713977 0.497066
vt 0.5969023 0.4728177
vt 0.5948099 0.4716141
vt 0.6099541 0.4564278
vt 0.6092618 0.4539943
vn 0.3774802 -0.9181844 0.1201918
vn 0.4286207 -0.8939956 0.1305993
vn 0.4822553 -0.8680347 0.1180917
vn 0.4345771 -0.8956097 0.09500577
vn 0.2652352 -0.9590504 0.09936034
vn 0.5905685 -0.8021368 0.08834802
vn 0.329279 -0.9422207 0.06160619
vn 0.1755749 -0.9828689 0.05605631
vn 0.5411013 -0.8393697 0.05165184
vn 0.442252 -0.8968619 -0.007193981
vn 0.6335521 -0.7735174 -0.01680492
vn 0.6712912 -0.7406261 0.02900263
vn 0.716976 -0.696374 -0.03175948
vn 0.7082617 -0.7024812 -0.06989683
vn 0.2300516 -0.9731768 0.001770102
vn 0.1227517 -0.9923941 0.009277077
vn 0.17146 -0.9839323 -0.0497888
vn 0.3281511 -0.9423527 -0.06548416
vn 0.2159683 -0.9697528 -0.1137421
vn 0.6591981 -0.7462836 -0.0922965
vn 0.7000915 -0.7067566 -0.101818
vn 0.5876169 -0.8055556 -0.07606836
vn 0.523115 -0.8511754 -0.04302341
vn 0.4575761 -0.8870289 -0.06167537
vn 0.4491726 -0.891117 -0.06445469
vn 0.4431327 -0.8943337 -0.06164884
vn 0.4437458 -0.8947976 -0.04926588
vn 0.39756 -0.9134247 -0.08718558
vn 0.2723131 -0.9573939 -0.09613749
vn 0.2226402 -0.9671819 -0.1224362
vn 0.1919629 -0.9662355 -0.1718697
vn -0.109254 -0.9550676 0.2755165
vn -0.1384575 -0.9555045 0.2604623
vn -0.1384575 -0.9555045 0.2604623
vn -0.1055626 -0.9549394 0.2773939
vn -0.04203374 -0.9544311 0.2954564
vn -0.04081384 -0.9544479 0.2955731
vn 0.02579075 -0.9489563 0.3143517
vn 0.02383241 -0.9493191 0.313409
vn 0.4013662 -0.8407965 0.3632719
vn 0.4181279 -0.8323687 0.3637738
vn 0.7402923 -0.5857749 0.3299018
vn 0.7441043 -0.5823873 0.3273129
vn 0.794767 -0.5285372 0.2983186
vn 0.7961282 -0.5268421 0.2976865
vn 0.8459073 -0.4663917 0.258688
vn 0.8454308 -0.4669612 0.2592177
vn 0.8999957 -0.4349555 -0.02865997
vn 0.8996078 -0.4329076 -0.05741915
vn 0.8312492 -0.3827869 -0.4031116
vn 0.8205091 -0.3777815 -0.4290056
vn 0.7860548 -0.361745 -0.5012567
vn 0.7860548 -0.361745 -0.5012567
vn -0.05223462 -0.9897775 -0.1327102
vn -0.05223462 -0.9897775 -0.1327102
vn -0.005816869 -0.9797768 -0.2000087
vn -0.01288649 -0.9817285 -0.1898502
vn -0.008486322 -0.9546199 -0.2977058
vn 0.0008836222 -0.9574409 -0.2886277
vn -0.04101717 -0.9435006 -0.3288226
vn -0.04101717 -0.9435006 -0.3288226
g SB-PineapplePanel_13_0
f 3/3/3 2/2/2 1/1/1
f 4/4/4 3/3/3 1/1/1
f 4/4/4 1/1/1 5/5/5
f 3/3/3 4/4/4 6/6/6
f 7/7/7 4/4/4 5/5/5
f 7/7/7 5/5/5 8/8/8
f 4/4/4 9/9/9 6/6/6
f 9/9/9 4/4/4 7/7/7
f 10/10/10 9/9/9 7/7/7
f 9/9/9 10/10/10 11/11/11
f 12/12/12 6/6/6 9/9/9
f 11/11/11 12/12/12 9/9/9
f 13/13/13 12/12/12 11/11/11
f 14/14/14 13/13/13 11/11/11
f 15/15/15 7/7/7 8/8/8
f 10/10/10 7/7/7 15/15/15
f 8/8/8 16/16/16 15/15/15
f 16/16/16 17/17/17 15/15/15
f 18/18/18 15/15/15 17/17/17
f 18/18/18 10/10/10 15/15/15
f 19/19/19 18/18/18 17/17/17
f 14/14/14 11/11/11 20/20/20
f 21/21/21 14/14/14 20/20/20
f 20/20/20 11/11/11 22/22/22
f 11/11/11 23/23/23 22/22/22
f 10/10/10 23/23/23 11/11/11
f 24/24/24 23/23/23 10/10/10
f 25/25/25 24/24/24 10/10/10
f 25/25/25 10/10/10 18/18/18
f 26/26/26 25/25/25 18/18/18
f 27/27/27 26/26/26 18/18/18
f 28/28/28 27/27/27 18/18/18
f 28/28/28 18/18/18 29/29/29
f 18/18/18 19/19/19 29/29/29
f 19/19/19 30/30/30 29/29/29
f 31/31/31 30/30/30 19/19/19
f 34/34/34 33/33/33 32/32/32
f 33/33/33 35/35/35 32/32/32
f 32/32/32 35/35/35 36/36/36
f 35/35/35 37/37/37 36/36/36
f 36/36/36 37/37/37 38/38/38
f 37/37/37 39/39/39 38/38/38
f 38/38/38 39/39/39 40/40/40
f 39/39/39 41/41/41 40/40/40
f 40/40/40 41/41/41 42/42/42
f 41/41/41 43/43/43 42/42/42
f 42/42/42 43/43/43 44/44/44
f 43/43/43 45/45/45 44/44/44
f 44/44/44 45/45/45 46/46/46
f 45/45/45 47/47/47 46/46/46
f 46/46/46 47/47/47 48/48/48
f 47/47/47 49/49/49 48/48/48
f 48/48/48 49/49/49 50/50/50
f 49/49/49 51/51/51 50/50/50
f 50/50/50 51/51/51 52/52/52
f 51/51/51 53/53/53 52/52/52
f 56/56/56 55/55/55 54/54/54
f 57/57/57 56/56/56 54/54/54
f 58/58/58 56/56/56 57/57/57
f 59/59/59 58/58/58 57/57/57
f 58/58/58 59/59/59 60/60/60
f 59/59/59 61/61/61 60/60/60
