g SB-PineapplePanel_17
v 2.658696 0.04959028 5.042682
v 2.503587 0.2485947 5.355949
v 2.601806 0.4778077 5.047338
v 2.797529 0.2762531 4.726145
v 2.91186 0.0299703 4.357749
v 2.776803 -0.1948647 4.700789
v 2.666609 0.7350985 4.70324
v 2.841739 -0.4522459 4.329102
v 2.853827 0.5378951 4.357749
v 2.663304 1.003909 4.335826
v 2.852458 0.8043612 3.989354
v 2.599821 1.260535 3.983254
v 2.770023 1.038435 3.6223
v 2.968154 0.2922932 3.989354
v 3.027138 0.03056226 3.606236
v 2.970845 -0.2317606 3.989354
v 2.839803 -0.7070031 3.984469
v 2.940318 -0.4796357 3.619235
v 3.006223 -0.2122078 3.248322
v 3.021609 0.05374589 2.881224
v 2.966785 0.5587592 3.606236
v 2.891713 0.7931007 3.248443
v 3.031428 0.2987877 3.22915
v 2.961942 0.5440299 2.876788
v 2.992545 0.2987115 2.546286
v 2.942564 0.5632327 2.858359
v 2.891713 0.7931007 3.248443
v 2.863167 0.8186142 3.222598
v 2.961942 0.5440299 2.876788
v 2.770023 1.038435 3.6223
v 2.962932 0.2918276 2.499606
v 2.742429 1.060619 3.598495
v 2.992545 0.2987115 2.546286
v 2.599821 1.260535 3.983254
v 2.988269 0.01992293 2.858589
v 2.577149 1.281335 3.981614
v 3.021609 0.05374589 2.881224
v 2.663304 1.003909 4.335826
v 2.967293 -0.2484272 3.222539
v 2.63613 1.020285 4.350009
v 3.006223 -0.2122078 3.248322
v 2.666609 0.7350985 4.70324
v 2.903034 -0.5085801 3.598495
v 2.637499 0.7538185 4.718405
v 2.940318 -0.4796357 3.619235
v 2.601806 0.4778077 5.047338
v 2.789969 -0.754766 3.981614
v 2.581202 0.4921764 5.05792
v 2.839803 -0.7070031 3.984469
v 2.503587 0.2485947 5.355949
v 2.789968 -0.4882965 4.350009
v 2.45512 0.2421526 5.397436
v 2.841739 -0.4522459 4.329102
v 2.658696 0.04959028 5.042682
v 2.732329 -0.226947 4.718405
v 2.619264 0.01991472 5.05792
v 2.776803 -0.1948647 4.700789
vt 0.3260832 0.2990334
vt 0.3178695 0.3234662
vt 0.3434272 0.3237348
vt 0.3542656 0.296526
vt 0.3645341 0.2674073
vt 0.3352081 0.2704788
vt 0.3734758 0.3231192
vt 0.3449916 0.2406083
vt 0.3850502 0.2951857
vt 0.4052069 0.3233756
vt 0.4158883 0.2948133
vt 0.435655 0.3243187
vt 0.4464391 0.294648
vt 0.395187 0.2660138
vt 0.4050361 0.2360508
vt 0.3737024 0.2382397
vt 0.3531582 0.2133061
vt 0.3822395 0.2092171
vt 0.4139872 0.207791
vt 0.4452124 0.2071652
vt 0.426742 0.2648213
vt 0.4567281 0.2639284
vt 0.4363845 0.2348839
vt 0.4662222 0.2339906
vt 0.4715682 0.208205
vt 0.4684566 0.2344462
vt 0.4567281 0.2639284
vt 0.4598357 0.2648424
vt 0.4662222 0.2339906
vt 0.4464391 0.294648
vt 0.4746123 0.2056826
vt 0.4492614 0.2957102
vt 0.4715682 0.208205
vt 0.435655 0.3243187
vt 0.4451887 0.2035013
vt 0.4368638 0.3261456
vt 0.4452124 0.2071652
vt 0.4052069 0.3233756
vt 0.4135893 0.2036938
vt 0.4051777 0.3258263
vt 0.4139872 0.207791
vt 0.3734758 0.3231192
vt 0.3815015 0.2057135
vt 0.3732706 0.3257477
vt 0.3822395 0.2092171
vt 0.3434272 0.3237348
vt 0.3499702 0.2097207
vt 0.3431575 0.3255917
vt 0.3531582 0.2133061
vt 0.3178695 0.3234662
vt 0.3405609 0.2391844
vt 0.3141862 0.3261186
vt 0.3449916 0.2406083
vt 0.3260832 0.2990334
vt 0.331306 0.2696054
vt 0.3225629 0.2985598
vt 0.3352081 0.2704788
vn 0.91597 0.0511161 0.3979775
vn 0.8982415 0.1147217 0.4242654
vn 0.9004729 0.1737643 0.3986912
vn 0.9330162 0.1096651 0.3427162
vn 0.9684028 -0.0238063 0.2482526
vn 0.9431138 -0.09471961 0.3186919
vn 0.8944045 0.3119486 0.3205131
vn 0.9553019 -0.1970752 0.2203626
vn 0.9368811 0.2454921 0.2489724
vn 0.8806999 0.4180202 0.2227711
vn 0.9192023 0.3623523 0.1541684
vn 0.8637149 0.4803778 0.152426
vn 0.903695 0.4193863 0.08631661
vn 0.9818256 0.1120977 0.1531424
vn 0.9974722 -0.02561046 0.06628153
vn 0.978224 -0.1425475 0.1508575
vn 0.9537871 -0.2644607 0.1426561
vn 0.9755462 -0.2043486 0.08093883
vn 0.9953615 -0.09556314 0.01110605
vn 0.9978657 0.05317345 -0.03790218
vn 0.9666998 0.2473031 0.06582326
vn 0.9493576 0.3140512 0.009593079
vn 0.9934597 0.1141778 -0.001144305
vn 0.9826972 0.1810898 -0.03889384
vn 0.9911542 0.1201113 -0.0564503
vn 0.7316981 0.5980523 -0.3270341
vn 0.7510602 0.6231979 -0.2180206
vn 0.7517061 0.6221485 -0.2187906
vn 0.7342967 0.5974765 -0.3222271
vn 0.7057318 0.6905543 -0.1583583
vn 0.8717974 0.02408812 -0.489274
vn 0.7053248 0.6911026 -0.1577787
vn 0.8679909 0.08669611 -0.4889536
vn 0.6690122 0.7305392 0.1368761
vn 0.7672837 -0.5112963 -0.3871072
vn 0.6687305 0.7303991 0.1389843
vn 0.7674383 -0.5102332 -0.3882017
vn 0.621298 0.6596535 0.422902
vn 0.7413973 -0.5820585 -0.3339728
vn 0.6212837 0.6596991 0.4228519
vn 0.7430985 -0.5788429 -0.335776
vn 0.6367996 0.5937116 0.4919277
vn 0.6981967 -0.6601995 -0.2768717
vn 0.6374449 0.589736 0.4958583
vn 0.7013128 -0.6548373 -0.2816884
vn 0.5934234 0.5671908 0.5710894
vn 0.6885808 -0.7132365 0.1309583
vn 0.5828525 0.5702273 0.5788987
vn 0.6902045 -0.7145575 0.1141285
vn 0.676344 0.04984704 0.7348974
vn 0.6171974 -0.6147726 0.4910418
vn 0.6779609 0.02290721 0.734741
vn 0.6172611 -0.6145011 0.4913014
vn 0.6114596 -0.5141926 0.6014342
vn 0.6200995 -0.5557204 0.5537611
vn 0.6102511 -0.5115485 0.6049063
vn 0.620453 -0.559087 0.5499634
g SB-PineapplePanel_17_0
f 3/3/3 2/2/2 1/1/1
f 4/4/4 3/3/3 1/1/1
f 5/5/5 4/4/4 1/1/1
f 6/6/6 5/5/5 1/1/1
f 3/3/3 4/4/4 7/7/7
f 6/6/6 8/8/8 5/5/5
f 4/4/4 9/9/9 7/7/7
f 9/9/9 4/4/4 5/5/5
f 10/10/10 7/7/7 9/9/9
f 11/11/11 10/10/10 9/9/9
f 12/12/12 10/10/10 11/11/11
f 13/13/13 12/12/12 11/11/11
f 9/9/9 14/14/14 11/11/11
f 14/14/14 9/9/9 5/5/5
f 15/15/15 14/14/14 5/5/5
f 8/8/8 16/16/16 5/5/5
f 16/16/16 15/15/15 5/5/5
f 16/16/16 8/8/8 17/17/17
f 18/18/18 16/16/16 17/17/17
f 16/16/16 18/18/18 15/15/15
f 18/18/18 19/19/19 15/15/15
f 19/19/19 20/20/20 15/15/15
f 13/13/13 11/11/11 21/21/21
f 14/14/14 21/21/21 11/11/11
f 21/21/21 14/14/14 15/15/15
f 22/22/22 13/13/13 21/21/21
f 23/23/23 21/21/21 15/15/15
f 21/21/21 23/23/23 22/22/22
f 20/20/20 23/23/23 15/15/15
f 23/23/23 24/24/24 22/22/22
f 24/24/24 23/23/23 20/20/20
f 25/25/25 24/24/24 20/20/20
f 28/28/28 27/27/27 26/26/26
f 27/27/27 29/29/29 26/26/26
f 30/30/30 27/27/27 28/28/28
f 26/26/26 29/29/29 31/31/31
f 32/32/32 30/30/30 28/28/28
f 29/29/29 33/33/33 31/31/31
f 34/34/34 30/30/30 32/32/32
f 31/31/31 33/33/33 35/35/35
f 36/36/36 34/34/34 32/32/32
f 33/33/33 37/37/37 35/35/35
f 38/38/38 34/34/34 36/36/36
f 35/35/35 37/37/37 39/39/39
f 40/40/40 38/38/38 36/36/36
f 37/37/37 41/41/41 39/39/39
f 42/42/42 38/38/38 40/40/40
f 39/39/39 41/41/41 43/43/43
f 44/44/44 42/42/42 40/40/40
f 41/41/41 45/45/45 43/43/43
f 46/46/46 42/42/42 44/44/44
f 43/43/43 45/45/45 47/47/47
f 48/48/48 46/46/46 44/44/44
f 45/45/45 49/49/49 47/47/47
f 50/50/50 46/46/46 48/48/48
f 47/47/47 49/49/49 51/51/51
f 52/52/52 50/50/50 48/48/48
f 49/49/49 53/53/53 51/51/51
f 54/54/54 50/50/50 52/52/52
f 51/51/51 53/53/53 55/55/55
f 56/56/56 54/54/54 52/52/52
f 53/53/53 57/57/57 55/55/55
f 57/57/57 54/54/54 56/56/56
f 55/55/55 57/57/57 56/56/56
