g SH-Roof
v 2.145951 0.009123306 10.84032
v 4.094228E-05 0.009123459 10.84032
v 2.104718 0.4277698 10.84032
v 2.104719 -0.4095195 10.84032
v 1.982603 0.8303279 10.84032
v 1.982605 -0.8120781 10.84032
v 1.7843 1.201327 10.84032
v 1.784302 -1.183078 10.84032
v 1.517429 1.526511 10.84032
v 1.517431 -1.508263 10.84032
v 1.192245 1.793383 10.84032
v 1.192247 -1.775134 10.84032
v 0.8212453 1.991686 10.84032
v 0.8212474 -1.973438 10.84032
v 0.4186872 2.113801 10.84032
v 0.4186894 -2.095554 10.84032
v 4.112739E-05 2.155034 10.84032
v 4.310658E-05 -2.136787 10.84032
v -0.418605 2.113801 10.84032
v -0.4186036 -2.095554 10.84032
v -0.821163 1.991686 10.84032
v -0.8211617 -1.97344 10.84032
v -1.192163 1.793383 10.84032
v -1.192162 -1.775136 10.84032
v -1.517347 1.526511 10.84032
v -1.517346 -1.508265 10.84032
v -1.784218 1.201327 10.84032
v -1.784217 -1.183082 10.84032
v -1.982522 0.8303275 10.84032
v -1.982521 -0.8120818 10.84032
v -2.104636 0.4277693 10.84032
v -2.104636 -0.4095237 10.84032
v -2.145869 0.009122696 10.84032
vt 0.7180264 0.6795782
vt 0.6068709 0.6795797
vt 0.7158909 0.7012636
vt 0.7158904 0.6578931
vt 0.7095658 0.7221158
vt 0.7095647 0.637041
vt 0.6992941 0.7413334
vt 0.6992928 0.6178237
vt 0.6854706 0.7581777
vt 0.6854689 0.6009797
vt 0.6686267 0.7720014
vt 0.6686246 0.5871563
vt 0.6494094 0.7822735
vt 0.6494071 0.5768847
vt 0.6285574 0.788599
vt 0.6285551 0.5705595
vt 0.6068721 0.7907351
vt 0.6068696 0.568424
vt 0.5851868 0.7885995
vt 0.5851843 0.57056
vt 0.5643346 0.7822743
vt 0.5643324 0.5768857
vt 0.5451172 0.7720026
vt 0.5451151 0.5871577
vt 0.5282729 0.7581791
vt 0.5282713 0.6009816
vt 0.514449 0.7413353
vt 0.5144477 0.6178257
vt 0.504177 0.722118
vt 0.5041761 0.6370433
vt 0.4978513 0.7012661
vt 0.4978509 0.6578954
vt 0.4957153 0.6795808
vn 0 0 1
vn 0 0 1
vn 0 0 1
vn 0 0 1
vn 0 0 1
vn 0 0 1
vn 0 0 1
vn 0 0 1
vn 0 0 1
vn 0 0 1
vn 0 0 1
vn 0 0 1
vn 0 0 1
vn 0 0 1
vn 0 0 1
vn 0 0 1
vn 0 0 1
vn 0 0 1
vn 0 0 1
vn 0 0 1
vn 0 0 1
vn 0 0 1
vn 0 0 1
vn 0 0 1
vn 0 0 1
vn 0 0 1
vn 0 0 1
vn 0 0 1
vn 0 0 1
vn 0 0 1
vn 0 0 1
vn 0 0 1
vn 0 0 1
g SH-Roof_0
f 3/3/3 2/2/2 1/1/1
f 1/1/1 2/2/2 4/4/4
f 5/5/5 2/2/2 3/3/3
f 4/4/4 2/2/2 6/6/6
f 7/7/7 2/2/2 5/5/5
f 6/6/6 2/2/2 8/8/8
f 9/9/9 2/2/2 7/7/7
f 8/8/8 2/2/2 10/10/10
f 11/11/11 2/2/2 9/9/9
f 10/10/10 2/2/2 12/12/12
f 13/13/13 2/2/2 11/11/11
f 12/12/12 2/2/2 14/14/14
f 15/15/15 2/2/2 13/13/13
f 14/14/14 2/2/2 16/16/16
f 17/17/17 2/2/2 15/15/15
f 16/16/16 2/2/2 18/18/18
f 19/19/19 2/2/2 17/17/17
f 18/18/18 2/2/2 20/20/20
f 21/21/21 2/2/2 19/19/19
f 20/20/20 2/2/2 22/22/22
f 23/23/23 2/2/2 21/21/21
f 22/22/22 2/2/2 24/24/24
f 25/25/25 2/2/2 23/23/23
f 24/24/24 2/2/2 26/26/26
f 27/27/27 2/2/2 25/25/25
f 26/26/26 2/2/2 28/28/28
f 29/29/29 2/2/2 27/27/27
f 28/28/28 2/2/2 30/30/30
f 31/31/31 2/2/2 29/29/29
f 30/30/30 2/2/2 32/32/32
f 33/33/33 2/2/2 31/31/31
f 32/32/32 2/2/2 33/33/33
