g SH-DoorKnob
v 0.6031419 -2.714351 1.268869
v 0.6103585 -2.760845 1.19952
v 0.6449214 -2.760845 1.224207
v 0.5877476 -2.714351 1.257873
v 0.5695888 -2.760845 1.190851
v 0.5695888 -2.714351 1.254012
v 0.528819 -2.760845 1.19952
v 0.5514299 -2.714351 1.257873
v 0.4942561 -2.760845 1.224207
v 0.5360356 -2.714351 1.268869
v 0.4711619 -2.760845 1.261155
v 0.5257494 -2.714351 1.285326
v 0.4630523 -2.760845 1.304737
v 0.5221375 -2.714351 1.304737
v 0.4711619 -2.760845 1.348319
v 0.5257494 -2.714351 1.324149
v 0.4942561 -2.760845 1.385267
v 0.5360356 -2.714351 1.340605
v 0.528819 -2.760845 1.409954
v 0.5514299 -2.714351 1.351601
v 0.5695888 -2.760845 1.418623
v 0.5695888 -2.714351 1.355462
v 0.6103584 -2.760845 1.409954
v 0.5877476 -2.714351 1.351601
v 0.6449213 -2.760845 1.385267
v 0.6031419 -2.714351 1.340605
v 0.6680156 -2.760845 1.34832
v 0.6134281 -2.714351 1.324149
v 0.6761252 -2.760845 1.304737
v 0.6170401 -2.714351 1.304737
v 0.6680156 -2.760845 1.261155
v 0.6134281 -2.714351 1.285326
v 0.6449214 -2.760845 1.224207
v 0.6031419 -2.714351 1.268869
v 0.5877476 -2.652416 1.257873
v 0.6031419 -2.714351 1.268869
v 0.6031419 -2.652416 1.268869
v 0.5877476 -2.714351 1.257873
v 0.5695888 -2.652416 1.254012
v 0.5695888 -2.714351 1.254012
v 0.5514299 -2.652416 1.257873
v 0.5514299 -2.714351 1.257873
v 0.5360356 -2.652416 1.268869
v 0.5360356 -2.714351 1.268869
v 0.5257494 -2.652416 1.285326
v 0.5257494 -2.714351 1.285326
v 0.5221375 -2.652416 1.304737
v 0.5221375 -2.714351 1.304737
v 0.5257494 -2.652416 1.324149
v 0.5257494 -2.714351 1.324149
v 0.5360356 -2.652416 1.340605
v 0.5360356 -2.714351 1.340605
v 0.5514299 -2.652416 1.351601
v 0.5514299 -2.714351 1.351601
v 0.5695888 -2.652416 1.355462
v 0.5695888 -2.714351 1.355462
v 0.5877476 -2.652416 1.351601
v 0.5877476 -2.714351 1.351601
v 0.6031419 -2.652416 1.340605
v 0.6031419 -2.714351 1.340605
v 0.6134281 -2.652416 1.324149
v 0.6134281 -2.714351 1.324149
v 0.6170401 -2.652416 1.304737
v 0.6170401 -2.714351 1.304737
v 0.6134281 -2.652416 1.285326
v 0.6134281 -2.714351 1.285326
v 0.6031419 -2.652416 1.268869
v 0.6031419 -2.714351 1.268869
v 0.5695888 -2.767655 1.420988
v 0.5307161 -2.792298 1.405058
v 0.5279726 -2.767655 1.412139
v 0.5695888 -2.792298 1.413324
v 0.6112048 -2.767655 1.412139
v 0.4977615 -2.792298 1.38152
v 0.4926921 -2.767655 1.386939
v 0.6084613 -2.792298 1.405058
v 0.6464853 -2.767655 1.386939
v 0.4757419 -2.792298 1.346291
v 0.4691184 -2.767655 1.349224
v 0.641416 -2.792298 1.38152
v 0.6700591 -2.767655 1.349224
v 0.4680096 -2.792298 1.304737
v 0.4608404 -2.767655 1.304737
v 0.6634356 -2.792298 1.346291
v 0.6783371 -2.767655 1.304737
v 0.4757419 -2.792298 1.263183
v 0.4691184 -2.767655 1.26025
v 0.6711679 -2.792298 1.304737
v 0.6700591 -2.767655 1.26025
v 0.4977615 -2.792298 1.227955
v 0.4926921 -2.767655 1.222535
v 0.6634356 -2.792298 1.263183
v 0.6464854 -2.767655 1.222535
v 0.5307161 -2.792298 1.204416
v 0.5279726 -2.767655 1.197336
v 0.6414161 -2.792298 1.227955
v 0.611205 -2.767655 1.197336
v 0.5695888 -2.792298 1.19615
v 0.5695888 -2.767655 1.188486
v 0.6084614 -2.792298 1.204416
v 0.4977615 -2.816686 1.272933
v 0.5146145 -2.816686 1.24597
v 0.5398369 -2.816686 1.227955
v 0.5695888 -2.816686 1.221628
v 0.5993406 -2.816686 1.227955
v 0.624563 -2.816686 1.24597
v 0.4918435 -2.816686 1.304737
v 0.6414161 -2.816686 1.272933
v 0.4977615 -2.816686 1.336541
v 0.647334 -2.816686 1.304737
v 0.5146145 -2.816686 1.363504
v 0.641416 -2.816686 1.336542
v 0.5398369 -2.816686 1.38152
v 0.6245629 -2.816686 1.363504
v 0.5695888 -2.816686 1.387846
v 0.5993405 -2.816686 1.38152
v 0.5398369 -2.832982 1.336541
v 0.5534872 -2.832982 1.346291
v 0.5695888 -2.838704 1.304737
v 0.5307161 -2.832982 1.321949
v 0.5695888 -2.832982 1.349715
v 0.5275133 -2.832982 1.304737
v 0.5856903 -2.832982 1.346291
v 0.5307161 -2.832982 1.287525
v 0.5993406 -2.832982 1.336541
v 0.5398369 -2.832982 1.272933
v 0.6084614 -2.832982 1.32195
v 0.5534872 -2.832982 1.263183
v 0.6116642 -2.832982 1.304737
v 0.5695888 -2.832982 1.259759
v 0.6084614 -2.832982 1.287525
v 0.5856903 -2.832982 1.263183
v 0.5993406 -2.832982 1.272933
v 0.5279726 -2.767655 1.412139
v 0.5695888 -2.760845 1.418623
v 0.5695888 -2.767655 1.420988
v 0.528819 -2.760845 1.409954
v 0.6103584 -2.760845 1.409954
v 0.4926921 -2.767655 1.386939
v 0.6112048 -2.767655 1.412139
v 0.4942561 -2.760845 1.385267
v 0.6449213 -2.760845 1.385267
v 0.4691184 -2.767655 1.349224
v 0.6464853 -2.767655 1.386939
v 0.4711619 -2.760845 1.348319
v 0.6680156 -2.760845 1.34832
v 0.4608404 -2.767655 1.304737
v 0.6700591 -2.767655 1.349224
v 0.4630523 -2.760845 1.304737
v 0.6761252 -2.760845 1.304737
v 0.4691184 -2.767655 1.26025
v 0.6783371 -2.767655 1.304737
v 0.4711619 -2.760845 1.261155
v 0.6680156 -2.760845 1.261155
v 0.4926921 -2.767655 1.222535
v 0.6700591 -2.767655 1.26025
v 0.4942561 -2.760845 1.224207
v 0.6449214 -2.760845 1.224207
v 0.5279726 -2.767655 1.197336
v 0.6464854 -2.767655 1.222535
v 0.528819 -2.760845 1.19952
v 0.6103585 -2.760845 1.19952
v 0.5695888 -2.767655 1.188486
v 0.611205 -2.767655 1.197336
v 0.5695888 -2.760845 1.190851
vt 0.9735087 0.9093225
vt 0.9703371 0.9070174
vt 0.9698454 0.9089909
vt 0.9739119 0.9085065
vt 0.9712189 0.9053907
vt 0.9744719 0.9076912
vt 0.9723365 0.904034
vt 0.9751741 0.9069192
vt 0.9736081 0.9029135
vt 0.9759949 0.9062194
vt 0.9749886 0.902005
vt 0.9769112 0.9056114
vt 0.9764473 0.9012931
vt 0.977902 0.9051078
vt 0.9779612 0.9007698
vt 0.9789476 0.9047164
vt 0.9795097 0.9004313
vt 0.9800296 0.9044417
vt 0.9810734 0.9002751
vt 0.9811319 0.9042856
vt 0.9826335 0.9003008
vt 0.9822378 0.9042473
vt 0.9841697 0.900509
vt 0.98333 0.9043241
vt 0.9856615 0.9009016
vt 0.9843926 0.9045107
vt 0.9870857 0.9014838
vt 0.9854069 0.9047997
vt 0.9884143 0.9022663
vt 0.9863515 0.9051817
vt 0.9896083 0.9032699
vt 0.9872001 0.9056448
vt 0.9906019 0.9045281
vt 0.9879164 0.906178
vt 0.9760472 0.9103997
vt 0.9735087 0.9093225
vt 0.9755511 0.9109857
vt 0.9739119 0.9085065
vt 0.9765811 0.9098371
vt 0.9744719 0.9076912
vt 0.9771599 0.9093137
vt 0.9751741 0.9069192
vt 0.9777847 0.9088411
vt 0.9759949 0.9062194
vt 0.9784524 0.9084294
vt 0.9769112 0.9056114
vt 0.9791578 0.9080857
vt 0.977902 0.9051078
vt 0.979894 0.9078158
vt 0.9789476 0.9047164
vt 0.9806534 0.9076228
vt 0.9800296 0.9044417
vt 0.9814277 0.9075093
vt 0.9811319 0.9042856
vt 0.9822092 0.9074755
vt 0.9822378 0.9042473
vt 0.9829907 0.9075205
vt 0.98333 0.9043241
vt 0.9837654 0.9076411
vt 0.9843926 0.9045107
vt 0.9845297 0.9078321
vt 0.9854069 0.9047997
vt 0.9852812 0.9080857
vt 0.9863515 0.9051817
vt 0.9860213 0.9083889
vt 0.9872001 0.9056448
vt 0.9867836 0.9087276
vt 0.9879164 0.906178
vt 0.9878094 0.8849345
vt 0.9857119 0.8865743
vt 0.9869215 0.887343
vt 0.9863938 0.8846909
vt 0.9876959 0.8824309
vt 0.9842948 0.8879901
vt 0.9851461 0.8892278
vt 0.9863112 0.8827279
vt 0.9866738 0.8801907
vt 0.9824717 0.8888148
vt 0.9827687 0.8902683
vt 0.9855216 0.8809676
vt 0.9849151 0.8785203
vt 0.9804413 0.8888567
vt 0.9801292 0.8903256
vt 0.9841366 0.8796557
vt 0.9827041 0.8776116
vt 0.978558 0.8880754
vt 0.9776885 0.8892909
vt 0.9823877 0.8789389
vt 0.9802846 0.8775272
vt 0.977141 0.8866247
vt 0.9758724 0.8873907
vt 0.9805072 0.878922
vt 0.9779602 0.8783759
vt 0.9764058 0.8847456
vt 0.9749523 0.8849571
vt 0.9786896 0.8795691
vt 0.9761159 0.8800716
vt 0.9764562 0.8827447
vt 0.9750476 0.8823835
vt 0.9772642 0.8809313
vt 0.9795017 0.8867298
vt 0.97853 0.8857581
vt 0.9780133 0.8844894
vt 0.9780275 0.8831269
vt 0.978558 0.8818819
vt 0.9795187 0.8809426
vt 0.980776 0.8872423
vt 0.9807521 0.8804454
vt 0.9821454 0.8872144
vt 0.9820768 0.8804371
vt 0.9833791 0.886657
vt 0.9832837 0.8809607
vt 0.9843411 0.8856922
vt 0.9842485 0.881864
vt 0.9848142 0.8844151
vt 0.9847639 0.8830836
vt 0.9824339 0.8852707
vt 0.9829155 0.8847679
vt 0.981423 0.8838087
vt 0.9817967 0.8855507
vt 0.9831634 0.8841225
vt 0.9810994 0.8855646
vt 0.9831578 0.8834335
vt 0.9804511 0.8853085
vt 0.9828792 0.8828033
vt 0.9799526 0.8848226
vt 0.9823849 0.8823275
vt 0.979681 0.8841826
vt 0.9817504 0.8820613
vt 0.9796782 0.8834854
vt 0.9810617 0.8820725
vt 0.9799401 0.8828384
vt 0.980426 0.8823415
vt 0.9869215 0.887343
vt 0.9882688 0.8850033
vt 0.9878094 0.8849345
vt 0.9873375 0.8876007
vt 0.9881385 0.8823247
vt 0.9851461 0.8892278
vt 0.9876959 0.8824309
vt 0.9854094 0.8896031
vt 0.9870378 0.87993
vt 0.9827687 0.8902683
vt 0.9866738 0.8801907
vt 0.982872 0.8907374
vt 0.9851531 0.8781517
vt 0.9801292 0.8903256
vt 0.9849151 0.8785203
vt 0.9800352 0.8908113
vt 0.9828008 0.8771955
vt 0.9776885 0.8892909
vt 0.9827041 0.8776116
vt 0.9774113 0.8896858
vt 0.9802173 0.877085
vt 0.9758724 0.8873907
vt 0.9802846 0.8775272
vt 0.9754663 0.8876468
vt 0.9777249 0.8779837
vt 0.9749523 0.8849571
vt 0.9779602 0.8783759
vt 0.9744833 0.8850314
vt 0.9757435 0.8797957
vt 0.9750476 0.8823835
vt 0.9761159 0.8800716
vt 0.9745924 0.8822742
vn 0.4443493 0.795713 -0.4115757
vn 0.2383865 0.8025043 -0.546954
vn 0.4390783 0.7958295 -0.416972
vn 0.2437171 0.8024737 -0.5446447
vn 0 0.8054583 -0.5926526
vn 0 0.8054583 -0.5926526
vn -0.2383865 0.8025043 -0.546954
vn -0.2437171 0.8024737 -0.5446447
vn -0.4387706 0.7959626 -0.4170417
vn -0.4443493 0.795713 -0.4115757
vn -0.572778 0.7881426 -0.2252927
vn -0.5747417 0.7882171 -0.2199676
vn -0.6176532 0.7864506 0
vn -0.6176532 0.7864506 0
vn -0.5726793 0.7880067 0.2260174
vn -0.5747417 0.7882171 0.2199676
vn -0.4386311 0.7957095 0.4176713
vn -0.4443493 0.795713 0.4115757
vn -0.238287 0.8021694 0.5474883
vn -0.2437171 0.8024737 0.5446447
vn 0 0.8050942 0.593147
vn 0 0.8050942 0.593147
vn 0.238287 0.8021694 0.5474883
vn 0.2437171 0.8024737 0.5446447
vn 0.4389387 0.7955765 0.4176014
vn 0.4443493 0.795713 0.4115757
vn 0.5726793 0.7880067 0.2260174
vn 0.5747417 0.7882171 0.2199676
vn 0.6178888 0.7862654 0
vn 0.6176532 0.7864506 0
vn 0.572778 0.7881426 -0.2252927
vn 0.5747417 0.7882171 -0.2199676
vn 0.4390783 0.7958295 -0.416972
vn 0.4443493 0.795713 -0.4115757
vn 0.4030581 0 -0.9151744
vn 0.7285135 0 -0.6850316
vn 0.7285135 0 -0.6850316
vn 0.4030581 0 -0.9151744
vn 0 0 -1
vn 0 0 -1
vn -0.4030581 0 -0.9151744
vn -0.4030581 0 -0.9151744
vn -0.7285135 0 -0.6850316
vn -0.7285135 0 -0.6850316
vn -0.931754 0 -0.3630904
vn -0.931754 0 -0.3630904
vn -1 0 0
vn -1 0 0
vn -0.931754 0 0.3630904
vn -0.931754 0 0.3630904
vn -0.7285135 0 0.6850316
vn -0.7285135 0 0.6850316
vn -0.4030581 0 0.9151744
vn -0.4030581 0 0.9151744
vn 0 0 1
vn 0 0 1
vn 0.4030581 0 0.9151744
vn 0.4030581 0 0.9151744
vn 0.7285135 0 0.6850316
vn 0.7285135 0 0.6850316
vn 0.931754 0 0.3630904
vn 0.931754 0 0.3630904
vn 1 0 0
vn 1 0 0
vn 0.931754 0 -0.3630904
vn 0.931754 0 -0.3630904
vn 0.7285135 0 -0.6850316
vn 0.7285135 0 -0.6850316
vn 0 -0.2960152 0.9551832
vn -0.346773 -0.5096686 0.7873921
vn -0.3837159 -0.2929362 0.8757572
vn 0 -0.5124756 0.8587018
vn 0.3837159 -0.2929362 0.8757572
vn -0.6305456 -0.5010756 0.5927357
vn -0.6963668 -0.2869413 0.6578282
vn 0.346773 -0.5096686 0.7873921
vn 0.6965633 -0.2868651 0.6576534
vn -0.8097064 -0.4945238 0.3159458
vn -0.8938074 -0.2808891 0.3495848
vn 0.6303154 -0.5011962 0.5928785
vn 0.8938074 -0.2808891 0.3495848
vn -0.8708612 -0.491529 0
vn -0.9598076 -0.2806588 0
vn 0.8097064 -0.4945238 0.3159458
vn 0.9598376 -0.2805562 0
vn -0.8097064 -0.4945238 -0.3159458
vn -0.8938842 -0.2807933 -0.3494656
vn 0.8708612 -0.491529 0
vn 0.8938074 -0.2808891 -0.3495848
vn -0.6302601 -0.5008487 -0.5932308
vn -0.6963668 -0.2869413 -0.6578282
vn 0.8097064 -0.4945238 -0.3159458
vn 0.6965633 -0.2868651 -0.6576534
vn -0.3465648 -0.5093625 -0.7876818
vn -0.3839724 -0.293132 -0.8755792
vn 0.6300299 -0.5009692 -0.5933736
vn 0.3839724 -0.293132 -0.8755792
vn 0 -0.5124756 -0.8587018
vn 0 -0.2960152 -0.9551832
vn 0.3465648 -0.5093625 -0.7876818
vn -0.5456221 -0.8108127 -0.2118477
vn -0.4226163 -0.8154548 -0.3955108
vn -0.2312074 -0.8210533 -0.5219335
vn 0 -0.8235075 -0.5673051
vn 0.2312074 -0.8210533 -0.5219335
vn 0.4226163 -0.8154548 -0.3955108
vn -0.5887156 -0.8083402 0
vn 0.5456221 -0.8108127 -0.2118477
vn -0.5456221 -0.8108127 0.2118477
vn 0.5887156 -0.8083402 0
vn -0.4226163 -0.8154548 0.3955108
vn 0.5456221 -0.8108127 0.2118477
vn -0.2312074 -0.8210533 0.5219335
vn 0.4226163 -0.8154548 0.3955108
vn 0 -0.8235075 0.5673051
vn 0.2312074 -0.8210533 0.5219335
vn -0.209765 -0.958054 0.1952721
vn -0.1146097 -0.9596648 0.2567256
vn 0 -1 0
vn -0.2726862 -0.9563113 0.1054081
vn 0 -0.9603066 0.2789462
vn -0.2939249 -0.9558285 0
vn 0.1146097 -0.9596648 0.2567256
vn -0.2726862 -0.9563113 -0.1054081
vn 0.209765 -0.958054 0.1952721
vn -0.209765 -0.958054 -0.1952721
vn 0.2726862 -0.9563113 0.1054081
vn -0.1145872 -0.9594764 -0.2574392
vn 0.2939249 -0.9558285 0
vn 0 -0.9603066 -0.2789462
vn 0.2726862 -0.9563113 -0.1054081
vn 0.1145872 -0.9594764 -0.2574392
vn 0.209765 -0.958054 -0.1952721
vn -0.3792095 0.3262345 0.8658933
vn 0 0.3267435 0.9451131
vn 0 0.3267435 0.9451131
vn -0.3830236 0.32351 0.8652365
vn 0.3830236 0.32351 0.8652365
vn -0.689176 0.3173184 0.6514181
vn 0.3792095 0.3262345 0.8658933
vn -0.6928256 0.3175927 0.6474006
vn 0.693024 0.3175088 0.6472294
vn -0.8849601 0.3112618 0.3463551
vn 0.6889756 0.3174018 0.6515894
vn -0.8861389 0.3112739 0.3433168
vn 0.886057 0.3113792 0.3434329
vn -0.9512834 0.3083181 0
vn 0.8849601 0.3112618 0.3463551
vn -0.9512834 0.3083181 0
vn 0.9513195 0.3082062 0
vn -0.8849601 0.3112618 -0.3463551
vn 0.9513195 0.3082062 0
vn -0.8861389 0.3112739 -0.3433168
vn 0.886057 0.3113792 -0.3434329
vn -0.6895184 0.3174761 -0.6509786
vn 0.8849601 0.3112618 -0.3463551
vn -0.6924831 0.3174358 -0.6478437
vn 0.6926817 0.317352 -0.6476727
vn -0.3794599 0.3264499 -0.8657025
vn 0.6893182 0.3175597 -0.6511499
vn -0.3832766 0.3237236 -0.8650445
vn 0.3832766 0.3237236 -0.8650445
vn 0 0.3267435 -0.9451131
vn 0.3794599 0.3264499 -0.8657025
vn 0 0.3267435 -0.9451131
g SH-DoorKnob_0
f 3/3/3 2/2/2 1/1/1
f 4/4/4 1/1/1 2/2/2
f 2/2/2 5/5/5 4/4/4
f 6/6/6 4/4/4 5/5/5
f 5/5/5 7/7/7 6/6/6
f 8/8/8 6/6/6 7/7/7
f 7/7/7 9/9/9 8/8/8
f 10/10/10 8/8/8 9/9/9
f 9/9/9 11/11/11 10/10/10
f 12/12/12 10/10/10 11/11/11
f 11/11/11 13/13/13 12/12/12
f 14/14/14 12/12/12 13/13/13
f 13/13/13 15/15/15 14/14/14
f 16/16/16 14/14/14 15/15/15
f 15/15/15 17/17/17 16/16/16
f 18/18/18 16/16/16 17/17/17
f 17/17/17 19/19/19 18/18/18
f 20/20/20 18/18/18 19/19/19
f 19/19/19 21/21/21 20/20/20
f 22/22/22 20/20/20 21/21/21
f 21/21/21 23/23/23 22/22/22
f 24/24/24 22/22/22 23/23/23
f 23/23/23 25/25/25 24/24/24
f 26/26/26 24/24/24 25/25/25
f 25/25/25 27/27/27 26/26/26
f 28/28/28 26/26/26 27/27/27
f 27/27/27 29/29/29 28/28/28
f 30/30/30 28/28/28 29/29/29
f 29/29/29 31/31/31 30/30/30
f 32/32/32 30/30/30 31/31/31
f 31/31/31 33/33/33 32/32/32
f 34/34/34 32/32/32 33/33/33
f 37/37/37 36/36/36 35/35/35
f 38/38/38 35/35/35 36/36/36
f 35/35/35 38/38/38 39/39/39
f 40/40/40 39/39/39 38/38/38
f 39/39/39 40/40/40 41/41/41
f 42/42/42 41/41/41 40/40/40
f 41/41/41 42/42/42 43/43/43
f 44/44/44 43/43/43 42/42/42
f 43/43/43 44/44/44 45/45/45
f 46/46/46 45/45/45 44/44/44
f 45/45/45 46/46/46 47/47/47
f 48/48/48 47/47/47 46/46/46
f 47/47/47 48/48/48 49/49/49
f 50/50/50 49/49/49 48/48/48
f 49/49/49 50/50/50 51/51/51
f 52/52/52 51/51/51 50/50/50
f 51/51/51 52/52/52 53/53/53
f 54/54/54 53/53/53 52/52/52
f 53/53/53 54/54/54 55/55/55
f 56/56/56 55/55/55 54/54/54
f 55/55/55 56/56/56 57/57/57
f 58/58/58 57/57/57 56/56/56
f 57/57/57 58/58/58 59/59/59
f 60/60/60 59/59/59 58/58/58
f 59/59/59 60/60/60 61/61/61
f 62/62/62 61/61/61 60/60/60
f 61/61/61 62/62/62 63/63/63
f 64/64/64 63/63/63 62/62/62
f 63/63/63 64/64/64 65/65/65
f 66/66/66 65/65/65 64/64/64
f 65/65/65 66/66/66 67/67/67
f 68/68/68 67/67/67 66/66/66
f 71/71/71 70/70/70 69/69/69
f 72/72/72 69/69/69 70/70/70
f 69/69/69 72/72/72 73/73/73
f 70/70/70 71/71/71 74/74/74
f 75/75/75 74/74/74 71/71/71
f 76/76/76 73/73/73 72/72/72
f 73/73/73 76/76/76 77/77/77
f 74/74/74 75/75/75 78/78/78
f 79/79/79 78/78/78 75/75/75
f 80/80/80 77/77/77 76/76/76
f 77/77/77 80/80/80 81/81/81
f 78/78/78 79/79/79 82/82/82
f 83/83/83 82/82/82 79/79/79
f 84/84/84 81/81/81 80/80/80
f 81/81/81 84/84/84 85/85/85
f 82/82/82 83/83/83 86/86/86
f 87/87/87 86/86/86 83/83/83
f 88/88/88 85/85/85 84/84/84
f 85/85/85 88/88/88 89/89/89
f 86/86/86 87/87/87 90/90/90
f 91/91/91 90/90/90 87/87/87
f 92/92/92 89/89/89 88/88/88
f 89/89/89 92/92/92 93/93/93
f 90/90/90 91/91/91 94/94/94
f 95/95/95 94/94/94 91/91/91
f 96/96/96 93/93/93 92/92/92
f 93/93/93 96/96/96 97/97/97
f 94/94/94 95/95/95 98/98/98
f 99/99/99 98/98/98 95/95/95
f 97/97/97 100/100/100 99/99/99
f 100/100/100 97/97/97 96/96/96
f 98/98/98 99/99/99 100/100/100
f 86/86/86 90/90/90 101/101/101
f 90/90/90 94/94/94 102/102/102
f 102/102/102 101/101/101 90/90/90
f 94/94/94 98/98/98 103/103/103
f 103/103/103 102/102/102 94/94/94
f 98/98/98 100/100/100 104/104/104
f 104/104/104 103/103/103 98/98/98
f 100/100/100 96/96/96 105/105/105
f 105/105/105 104/104/104 100/100/100
f 96/96/96 92/92/92 106/106/106
f 106/106/106 105/105/105 96/96/96
f 101/101/101 107/107/107 86/86/86
f 82/82/82 86/86/86 107/107/107
f 108/108/108 106/106/106 92/92/92
f 92/92/92 88/88/88 108/108/108
f 107/107/107 109/109/109 82/82/82
f 78/78/78 82/82/82 109/109/109
f 110/110/110 108/108/108 88/88/88
f 88/88/88 84/84/84 110/110/110
f 109/109/109 111/111/111 78/78/78
f 74/74/74 78/78/78 111/111/111
f 112/112/112 110/110/110 84/84/84
f 84/84/84 80/80/80 112/112/112
f 111/111/111 113/113/113 74/74/74
f 70/70/70 74/74/74 113/113/113
f 114/114/114 112/112/112 80/80/80
f 80/80/80 76/76/76 114/114/114
f 113/113/113 115/115/115 70/70/70
f 72/72/72 70/70/70 115/115/115
f 76/76/76 72/72/72 116/116/116
f 116/116/116 114/114/114 76/76/76
f 115/115/115 116/116/116 72/72/72
f 111/111/111 109/109/109 117/117/117
f 113/113/113 111/111/111 118/118/118
f 117/117/117 118/118/118 111/111/111
f 118/118/118 117/117/117 119/119/119
f 120/120/120 117/117/117 109/109/109
f 117/117/117 120/120/120 119/119/119
f 109/109/109 107/107/107 120/120/120
f 118/118/118 121/121/121 113/113/113
f 115/115/115 113/113/113 121/121/121
f 121/121/121 118/118/118 119/119/119
f 122/122/122 120/120/120 107/107/107
f 120/120/120 122/122/122 119/119/119
f 107/107/107 101/101/101 122/122/122
f 121/121/121 123/123/123 115/115/115
f 116/116/116 115/115/115 123/123/123
f 123/123/123 121/121/121 119/119/119
f 124/124/124 122/122/122 101/101/101
f 122/122/122 124/124/124 119/119/119
f 101/101/101 102/102/102 124/124/124
f 123/123/123 125/125/125 116/116/116
f 125/125/125 123/123/123 119/119/119
f 124/124/124 126/126/126 119/119/119
f 126/126/126 124/124/124 102/102/102
f 127/127/127 125/125/125 119/119/119
f 114/114/114 116/116/116 125/125/125
f 125/125/125 127/127/127 114/114/114
f 102/102/102 103/103/103 126/126/126
f 112/112/112 114/114/114 127/127/127
f 128/128/128 126/126/126 103/103/103
f 126/126/126 128/128/128 119/119/119
f 103/103/103 104/104/104 128/128/128
f 127/127/127 129/129/129 112/112/112
f 129/129/129 127/127/127 119/119/119
f 110/110/110 112/112/112 129/129/129
f 130/130/130 128/128/128 104/104/104
f 128/128/128 130/130/130 119/119/119
f 104/104/104 105/105/105 130/130/130
f 129/129/129 131/131/131 110/110/110
f 131/131/131 129/129/129 119/119/119
f 108/108/108 110/110/110 131/131/131
f 132/132/132 130/130/130 105/105/105
f 130/130/130 132/132/132 119/119/119
f 105/105/105 106/106/106 132/132/132
f 133/133/133 131/131/131 119/119/119
f 131/131/131 133/133/133 108/108/108
f 132/132/132 133/133/133 119/119/119
f 133/133/133 132/132/132 106/106/106
f 106/106/106 108/108/108 133/133/133
f 136/136/136 135/135/135 134/134/134
f 137/137/137 134/134/134 135/135/135
f 135/135/135 136/136/136 138/138/138
f 134/134/134 137/137/137 139/139/139
f 140/140/140 138/138/138 136/136/136
f 141/141/141 139/139/139 137/137/137
f 138/138/138 140/140/140 142/142/142
f 139/139/139 141/141/141 143/143/143
f 144/144/144 142/142/142 140/140/140
f 145/145/145 143/143/143 141/141/141
f 142/142/142 144/144/144 146/146/146
f 143/143/143 145/145/145 147/147/147
f 148/148/148 146/146/146 144/144/144
f 149/149/149 147/147/147 145/145/145
f 146/146/146 148/148/148 150/150/150
f 147/147/147 149/149/149 151/151/151
f 152/152/152 150/150/150 148/148/148
f 153/153/153 151/151/151 149/149/149
f 150/150/150 152/152/152 154/154/154
f 151/151/151 153/153/153 155/155/155
f 156/156/156 154/154/154 152/152/152
f 157/157/157 155/155/155 153/153/153
f 154/154/154 156/156/156 158/158/158
f 155/155/155 157/157/157 159/159/159
f 160/160/160 158/158/158 156/156/156
f 161/161/161 159/159/159 157/157/157
f 158/158/158 160/160/160 162/162/162
f 159/159/159 161/161/161 163/163/163
f 164/164/164 162/162/162 160/160/160
f 165/165/165 163/163/163 161/161/161
f 162/162/162 164/164/164 165/165/165
f 163/163/163 165/165/165 164/164/164
