g SH-Ear_1
v 3.497973 0.01458359 7.26926
v 3.44077 0.5956557 7.268789
v 3.629987 0.6285748 3.773541
v 3.690964 0.009170685 3.773541
v 3.440771 -0.5664837 7.268789
v 3.629988 -0.6102287 3.77354
v 2.896926 -0.5670982 3.742898
v 2.697399 -0.5219034 7.295085
v 3.407806 -0.5918723 7.297431
v 3.600188 -0.6363631 3.742898
v 2.953679 0.009123382 3.742898
v 2.896926 -0.5670982 3.742898
v 3.600188 -0.6363631 3.742898
v 3.663783 0.00912384 3.742898
v 3.600188 0.6546153 3.742898
v 2.896925 0.5853496 3.742898
v 2.896925 0.5853496 3.742898
v 3.600188 0.6546153 3.742898
v 3.407805 0.6211372 7.297431
v 2.697398 0.551168 7.295085
v 3.407805 0.6211372 7.297431
v 2.757381 0.01684105 7.295578
v 2.697398 0.551168 7.295085
v 3.467505 0.01471657 7.297907
v 3.407806 -0.5918723 7.297431
v 2.697399 -0.5219034 7.295085
v 3.497973 0.01458359 7.26926
v 3.407805 0.6211372 7.297431
v 3.44077 0.5956557 7.268789
v 3.467505 0.01471657 7.297907
v 3.440771 -0.5664837 7.268789
v 3.407806 -0.5918723 7.297431
v 3.629987 0.6285748 3.773541
v 3.600188 0.6546153 3.742898
v 3.663783 0.00912384 3.742898
v 3.690964 0.009170685 3.773541
v 3.600188 -0.6363631 3.742898
v 3.629988 -0.6102287 3.77354
v 3.44077 0.5956557 7.268789
v 3.407805 0.6211372 7.297431
v 3.600188 0.6546153 3.742898
v 3.629987 0.6285748 3.773541
v 3.629988 -0.6102287 3.77354
v 3.600188 -0.6363631 3.742898
v 3.407806 -0.5918723 7.297431
v 3.440771 -0.5664837 7.268789
vt 0.7955579 0.7800813
vt 0.8243427 0.7806194
vt 0.825429 0.6178644
vt 0.795297 0.6182767
vt 0.7667701 0.7805441
vt 0.7651737 0.6177454
vt 0.7286685 0.6189418
vt 0.7297836 0.7819086
vt 0.7647978 0.7817869
vt 0.7631794 0.6165958
vt 0.7954128 0.5826825
vt 0.7668514 0.580252
vt 0.7637834 0.6150689
vt 0.7953026 0.6170574
vt 0.8268349 0.6152812
vt 0.8239895 0.5804375
vt 0.8619546 0.6189238
vt 0.8274316 0.6166916
vt 0.8263124 0.7818805
vt 0.8613252 0.7818868
vt 0.8252854 0.783307
vt 0.7955989 0.8158429
vt 0.8220587 0.8185142
vt 0.7955588 0.7813593
vt 0.7658174 0.7832101
vt 0.7689131 0.8184198
vt 0.7955579 0.7800813
vt 0.8252854 0.783307
vt 0.8243427 0.7806194
vt 0.7955588 0.7813593
vt 0.7667701 0.7805441
vt 0.7658174 0.7832101
vt 0.825429 0.6178644
vt 0.8268349 0.6152812
vt 0.7953026 0.6170574
vt 0.795297 0.6182767
vt 0.7637834 0.6150689
vt 0.7651737 0.6177454
vt 0.8243427 0.7806194
vt 0.8263124 0.7818805
vt 0.8274316 0.6166916
vt 0.825429 0.6178644
vt 0.7651737 0.6177454
vt 0.7631794 0.6165958
vt 0.7647978 0.7817869
vt 0.7667701 0.7805441
vn 0.9984884 9.54213E-05 0.05496266
vn 0.9937177 0.09754284 0.05486785
vn 0.9937177 0.09754284 0.05486785
vn 0.9984884 -9.54213E-05 0.05496266
vn 0.9937177 -0.09754284 0.05486785
vn 0.9937177 -0.09754284 0.05486785
vn -0.09765109 -0.9952019 0.006103193
vn -0.09765109 -0.9952019 0.006103193
vn -0.09765109 -0.9952019 0.006103193
vn -0.09765109 -0.9952019 0.006103193
vn 0 0 -1
vn 0 0 -1
vn 0 0 -1
vn 0 0 -1
vn 0 0 -1
vn 0 0 -1
vn -0.09765246 0.9952159 0.003051639
vn -0.09768954 0.9952122 0.003052798
vn -0.09765109 0.9952019 0.006103193
vn -0.09765109 0.9952019 0.006103193
vn -0.003048766 0.0003810958 0.9999954
vn -0.003048766 0 0.9999954
vn -0.003048766 0.0003810958 0.9999954
vn -0.003048766 0 0.9999954
vn -0.003048766 -0.0003810958 0.9999954
vn -0.003048766 -0.0003810958 0.9999954
vn 0.686982 -0.0001311945 0.7266743
vn 0.683782 0.06792031 0.7265184
vn 0.683782 0.06792031 0.7265184
vn 0.686982 0.0001431213 0.7266743
vn 0.683782 -0.06792031 0.7265184
vn 0.683782 -0.06792031 0.7265184
vn 0.7452092 0.07368103 -0.6627476
vn 0.7452301 0.07330132 -0.6627662
vn 0.7470728 -5.360057E-05 -0.6647423
vn 0.7470728 5.360057E-05 -0.6647423
vn 0.7452092 -0.07368103 -0.6627476
vn 0.7452092 -0.07368103 -0.6627476
vn 0.6322842 0.7735554 0.04276318
vn 0.6322842 0.7735554 0.04276318
vn 0.6322842 0.7735554 0.04276318
vn 0.6322842 0.7735554 0.04276318
vn 0.6322842 -0.7735554 0.04276318
vn 0.6322842 -0.7735554 0.04276318
vn 0.6322842 -0.7735554 0.04276318
vn 0.6322842 -0.7735554 0.04276318
g SH-Ear_1_0
f 3/3/3 2/2/2 1/1/1
f 4/4/4 3/3/3 1/1/1
f 4/4/4 1/1/1 5/5/5
f 6/6/6 4/4/4 5/5/5
f 9/9/9 8/8/8 7/7/7
f 10/10/10 9/9/9 7/7/7
f 13/13/13 12/12/12 11/11/11
f 14/14/14 13/13/13 11/11/11
f 15/15/15 14/14/14 11/11/11
f 16/16/16 15/15/15 11/11/11
f 19/19/19 18/18/18 17/17/17
f 20/20/20 19/19/19 17/17/17
f 23/23/23 22/22/22 21/21/21
f 22/22/22 24/24/24 21/21/21
f 24/24/24 22/22/22 25/25/25
f 22/22/22 26/26/26 25/25/25
f 29/29/29 28/28/28 27/27/27
f 28/28/28 30/30/30 27/27/27
f 27/27/27 30/30/30 31/31/31
f 30/30/30 32/32/32 31/31/31
f 35/35/35 34/34/34 33/33/33
f 36/36/36 35/35/35 33/33/33
f 37/37/37 35/35/35 36/36/36
f 38/38/38 37/37/37 36/36/36
f 41/41/41 40/40/40 39/39/39
f 42/42/42 41/41/41 39/39/39
f 45/45/45 44/44/44 43/43/43
f 46/46/46 45/45/45 43/43/43
