g SH-Nose
v -0.8037902 -3.223042 3.904237
v -0.8022864 -3.197736 3.875491
v -0.8263646 -3.197208 3.903292
v 0.8023742 -3.197736 3.875491
v 0.8038781 -3.223042 3.904237
v 0.8264524 -3.197208 3.903292
v 0.3853175 -3.121038 7.472779
v 0.8038781 -3.223042 3.904237
v -0.8037902 -3.223042 3.904237
v -0.3852298 -3.121038 7.472779
v -0.7521186 -2.777573 3.889704
v -0.356507 -2.672685 7.458523
v -0.4083691 -3.095124 7.471955
v -0.8263646 -3.197208 3.903292
v 0.8023742 -3.197736 3.875491
v 0.728764 -2.778387 3.861977
v -0.7286767 -2.778387 3.861977
v -0.8022864 -3.197736 3.875491
v 0.4084568 -3.095124 7.471955
v 0.3565941 -2.672685 7.458523
v 0.752206 -2.777573 3.889704
v 0.8264524 -3.197208 3.903292
v 0.8038781 -3.223042 3.904237
v 0.8023742 -3.197736 3.875491
v -0.8022864 -3.197736 3.875491
v -0.8037902 -3.223042 3.904237
v -0.8263646 -3.197208 3.903292
v -0.8022864 -3.197736 3.875491
v -0.7286767 -2.778387 3.861977
v -0.7521186 -2.777573 3.889704
v -0.4083691 -3.095124 7.471955
v -0.3852298 -3.121038 7.472779
v -0.8037902 -3.223042 3.904237
v -0.8263646 -3.197208 3.903292
v 0.8264524 -3.197208 3.903292
v 0.8038781 -3.223042 3.904237
v 0.3853175 -3.121038 7.472779
v 0.4084568 -3.095124 7.471955
v 0.752206 -2.777573 3.889704
v 0.728764 -2.778387 3.861977
v 0.8023742 -3.197736 3.875491
v 0.8264524 -3.197208 3.903292
vt 0.8684746 0.792985
vt 0.864593 0.7918713
vt 0.8653736 0.7932248
vt 0.9500695 0.7864549
vt 0.9502967 0.7889401
vt 0.9514343 0.787015
vt 0.9308901 0.9609793
vt 0.9503222 0.7921751
vt 0.8684746 0.792985
vt 0.8917041 0.9613154
vt 0.8263889 0.7962815
vt 0.8678381 0.9659115
vt 0.8890635 0.9615919
vt 0.8653736 0.7932248
vt 0.9500695 0.7864549
vt 0.9483593 0.7465156
vt 0.8699435 0.7470307
vt 0.8687856 0.7870649
vt 0.9335366 0.9612033
vt 0.9548586 0.9650421
vt 0.9924663 0.7945156
vt 0.953427 0.7923496
vt 0.9503222 0.7921751
vt 0.9504836 0.7908561
vt 0.8682826 0.7916687
vt 0.8684746 0.792985
vt 0.8653736 0.7932248
vt 0.864593 0.7918713
vt 0.8260669 0.7949636
vt 0.8263889 0.7962815
vt 0.8890635 0.9615919
vt 0.8917041 0.9613154
vt 0.8684746 0.792985
vt 0.8653736 0.7932248
vt 0.953427 0.7923496
vt 0.9503222 0.7921751
vt 0.9308901 0.9609793
vt 0.9335366 0.9612033
vt 0.9924663 0.7945156
vt 0.9927585 0.7931907
vt 0.9541765 0.7909785
vt 0.953427 0.7923496
vn -0.6269113 -0.5674233 -0.533866
vn -0.6269113 -0.5674233 -0.533866
vn -0.6269113 -0.5674233 -0.533866
vn 0.6269113 -0.5674233 -0.533866
vn 0.6269113 -0.5674233 -0.533866
vn 0.6269113 -0.5674233 -0.533866
vn 0 -0.9995356 0.03047365
vn 0 -0.9996238 0.0274287
vn 0 -0.9996238 0.0274287
vn 0 -0.9995356 0.03047365
vn -0.9829599 0.1495808 0.1068435
vn -0.9826348 0.1495314 0.1098598
vn -0.9826348 0.1495314 0.1098598
vn -0.9829599 0.1495808 0.1068435
vn 0 -0.03351774 -0.9994381
vn 0 -0.03351774 -0.9994381
vn 0 -0.03351774 -0.9994381
vn 0 -0.03351774 -0.9994381
vn 0.9826348 0.1495314 0.1098598
vn 0.9826348 0.1495314 0.1098598
vn 0.9829599 0.1495808 0.1068435
vn 0.9829599 0.1495808 0.1068435
vn 0 -0.7499268 -0.6615208
vn 0 -0.7499268 -0.6615208
vn 0 -0.7499268 -0.6615208
vn 0 -0.7499268 -0.6615208
vn -0.7539675 0.1129425 -0.64713
vn -0.7539675 0.1129425 -0.64713
vn -0.7539675 0.1129425 -0.64713
vn -0.7539675 0.1129425 -0.64713
vn -0.7472331 -0.656405 0.1038036
vn -0.7472331 -0.656405 0.1038036
vn -0.7469929 -0.656194 0.1068223
vn -0.7469929 -0.656194 0.1068223
vn 0.7469929 -0.656194 0.1068223
vn 0.7469929 -0.656194 0.1068223
vn 0.7472331 -0.656405 0.1038036
vn 0.7472331 -0.656405 0.1038036
vn 0.7539675 0.1129425 -0.64713
vn 0.7539675 0.1129425 -0.64713
vn 0.7539675 0.1129425 -0.64713
vn 0.7539675 0.1129425 -0.64713
g SH-Nose_0
f 3/3/3 2/2/2 1/1/1
f 6/6/6 5/5/5 4/4/4
f 9/9/9 8/8/8 7/7/7
f 10/10/10 9/9/9 7/7/7
f 13/13/13 12/12/12 11/11/11
f 14/14/14 13/13/13 11/11/11
f 17/17/17 16/16/16 15/15/15
f 18/18/18 17/17/17 15/15/15
f 21/21/21 20/20/20 19/19/19
f 22/22/22 21/21/21 19/19/19
f 25/25/25 24/24/24 23/23/23
f 26/26/26 25/25/25 23/23/23
f 29/29/29 28/28/28 27/27/27
f 30/30/30 29/29/29 27/27/27
f 33/33/33 32/32/32 31/31/31
f 34/34/34 33/33/33 31/31/31
f 37/37/37 36/36/36 35/35/35
f 38/38/38 37/37/37 35/35/35
f 41/41/41 40/40/40 39/39/39
f 42/42/42 41/41/41 39/39/39
