g SH-Step_2
v 0.7022837 -5.407264 0
v 0.6927764 -5.605155 0
v 0.6732358 -5.598145 0.02161131
v 0.682452 -5.406312 0.02161131
v 0.6916682 -5.214478 0.02161131
v 0.7117909 -5.209375 0
v -0.6888925 -5.323546 0
v -0.6927765 -5.108131 0
v -0.6732358 -5.115141 0.02161131
v -0.6690609 -5.3245 0.02161131
v -0.6932866 -5.532493 0.02161131
v -0.7134092 -5.537598 0
v 0.3320309 -5.572871 0.02161131
v 0.682452 -5.406312 0.02161131
v 0.6732358 -5.598145 0.02161131
v 0.3410342 -5.385468 0.02161131
v 0.6916682 -5.214478 0.02161131
v 0.3500375 -5.198066 0.02161131
v -0.009599714 -5.556458 0.02161131
v -0.0002498436 -5.361843 0.02161131
v 0.009100017 -5.167227 0.02161131
v -0.3418956 -5.345745 0.02161131
v -0.351656 -5.548906 0.02161131
v -0.6932866 -5.532493 0.02161131
v -0.3321351 -5.142583 0.02161131
v -0.6690609 -5.3245 0.02161131
v -0.6732358 -5.115141 0.02161131
v 0.3416557 -5.579404 0
v 0.6732358 -5.598145 0.02161131
v 0.6927764 -5.605155 0
v 0.3320309 -5.572871 0.02161131
v -0.009890709 -5.562514 0
v -0.009599714 -5.556458 0.02161131
v -0.351656 -5.548906 0.02161131
v -0.3618629 -5.554487 0
v -0.6932866 -5.532493 0.02161131
v -0.7134092 -5.537598 0
v -0.3417599 -5.13605 0
v -0.6732358 -5.115141 0.02161131
v -0.6927765 -5.108131 0
v -0.3321351 -5.142583 0.02161131
v 0.009391002 -5.16117 0
v 0.009100017 -5.167227 0.02161131
v 0.3500375 -5.198066 0.02161131
v 0.3602444 -5.192485 0
v 0.6916682 -5.214478 0.02161131
v 0.7117909 -5.209375 0
vt 0.5271277 0.1344034
vt 0.5268509 0.09266657
vt 0.5211917 0.09395521
vt 0.5214604 0.1344142
vt 0.5217507 0.1748725
vt 0.5274286 0.1761401
vt 0.2194156 0.1380482
vt 0.2166297 0.1832932
vt 0.222304 0.1820859
vt 0.2250925 0.1380419
vt 0.2217187 0.09399465
vt 0.2160319 0.09280249
vt 0.4463309 0.09583719
vt 0.5214604 0.1344142
vt 0.5211917 0.09395521
vt 0.446598 0.1353683
vt 0.5217507 0.1748725
vt 0.4468691 0.174904
vt 0.3714438 0.09583569
vt 0.3717338 0.1368872
vt 0.3720145 0.1779274
vt 0.2968557 0.1368901
vt 0.2965652 0.09405185
vt 0.2217187 0.09399465
vt 0.2971606 0.17974
vt 0.2250925 0.1380419
vt 0.222304 0.1820859
vt 0.4484641 0.09196437
vt 0.5211917 0.09395521
vt 0.5254681 0.09002862
vt 0.4463309 0.09583719
vt 0.3714631 0.0919767
vt 0.3714438 0.09583569
vt 0.2965652 0.09405185
vt 0.2944158 0.09018842
vt 0.2217187 0.09399465
vt 0.217366 0.09013225
vt 0.2950706 0.1836382
vt 0.222304 0.1820859
vt 0.2180529 0.1860325
vt 0.2971606 0.17974
vt 0.3721018 0.1817738
vt 0.3720145 0.1779274
vt 0.4468691 0.174904
vt 0.4491019 0.1787335
vt 0.5217507 0.1748725
vt 0.5261124 0.1787223
vn 0.7354839 -0.03662161 0.6765516
vn 0.7354842 -0.03662162 0.6765515
vn 0.7354868 -0.03662175 0.6765487
vn 0.7354868 -0.03662175 0.6765487
vn 0.7354868 -0.03662175 0.6765487
vn 0.7354838 -0.0366216 0.6765518
vn -0.7391071 0.03661212 0.6725923
vn -0.7406183 -0.01525475 0.6717528
vn -0.740616 -0.01525471 0.6717553
vn -0.7391127 0.0366124 0.672586
vn -0.7355767 0.08546119 0.6720293
vn -0.7355791 0.08546147 0.6720265
vn 0 0 1
vn 0 0 1
vn 0 0 1
vn 0 0 1
vn 0 0 1
vn 0 0 1
vn 0 0 1
vn 0 0 1
vn 0 0 1
vn 0 0 1
vn 0 0 1
vn 0 0 1
vn 0 0 1
vn 0 0 1
vn 0 0 1
vn -0.06175309 -0.9636532 0.259921
vn -0.07096548 -0.96452 0.254293
vn -0.07096545 -0.9645197 0.2542946
vn -0.05523235 -0.9629475 0.2639726
vn -0.03385165 -0.9630608 0.2671478
vn -0.03390496 -0.9630533 0.2671682
vn -0.03048574 -0.9633493 0.266512
vn -0.03732206 -0.9627567 0.267781
vn -0.0464204 -0.9618915 0.2694618
vn -0.04642032 -0.9618899 0.2694679
vn 0.07435223 0.96391 0.255635
vn 0.07711176 0.9650423 0.2504939
vn 0.07711197 0.9650447 0.2504842
vn 0.07200187 0.9630727 0.2594353
vn 0.07756487 0.9591531 0.272046
vn 0.0776581 0.9591256 0.2721165
vn 0.07136367 0.9586392 0.2755325
vn 0.06113785 0.9598643 0.2737203
vn 0.0464204 0.9618915 0.2694618
vn 0.04642047 0.961893 0.2694569
g SH-Step_2_0
f 3/3/3 2/2/2 1/1/1
f 4/4/4 3/3/3 1/1/1
f 5/5/5 4/4/4 1/1/1
f 6/6/6 5/5/5 1/1/1
f 9/9/9 8/8/8 7/7/7
f 10/10/10 9/9/9 7/7/7
f 11/11/11 10/10/10 7/7/7
f 12/12/12 11/11/11 7/7/7
f 15/15/15 14/14/14 13/13/13
f 14/14/14 16/16/16 13/13/13
f 16/16/16 14/14/14 17/17/17
f 18/18/18 16/16/16 17/17/17
f 13/13/13 16/16/16 19/19/19
f 20/20/20 16/16/16 18/18/18
f 16/16/16 20/20/20 19/19/19
f 21/21/21 20/20/20 18/18/18
f 20/20/20 22/22/22 19/19/19
f 22/22/22 20/20/20 21/21/21
f 22/22/22 23/23/23 19/19/19
f 23/23/23 22/22/22 24/24/24
f 25/25/25 22/22/22 21/21/21
f 22/22/22 26/26/26 24/24/24
f 26/26/26 22/22/22 25/25/25
f 27/27/27 26/26/26 25/25/25
f 30/30/30 29/29/29 28/28/28
f 29/29/29 31/31/31 28/28/28
f 28/28/28 31/31/31 32/32/32
f 31/31/31 33/33/33 32/32/32
f 33/33/33 34/34/34 32/32/32
f 34/34/34 35/35/35 32/32/32
f 35/35/35 34/34/34 36/36/36
f 37/37/37 35/35/35 36/36/36
f 40/40/40 39/39/39 38/38/38
f 39/39/39 41/41/41 38/38/38
f 38/38/38 41/41/41 42/42/42
f 41/41/41 43/43/43 42/42/42
f 43/43/43 44/44/44 42/42/42
f 44/44/44 45/45/45 42/42/42
f 45/45/45 44/44/44 46/46/46
f 47/47/47 45/45/45 46/46/46
