g SB-PineapplePanelTop_1
v 0.5385077 -1.143374 6.686943
v 0.7118098 -1.059829 6.686943
v 0.711718 -1.247656 6.55864
v 0.5077081 -0.9034224 6.860054
v 0.3338014 -0.9589304 6.865577
v 0.6554983 -0.8038472 6.865577
v 0.2987915 -0.7150002 6.965379
v 0.1734002 -0.7424555 6.965379
v 0.4500679 -0.642073 6.965379
v 0.5450425 -0.5632945 6.965379
v 0.1316014 -0.7547696 6.965379
v 0.1734002 -0.7424555 6.965379
v 0.3338014 -0.9589304 6.865577
v 0.2957462 -0.9763308 6.844008
v 0.5385077 -1.143374 6.686943
v 0.5046627 -1.164753 6.662533
v 0.711718 -1.247656 6.55864
v 0.7503225 -1.312795 6.481059
v 0.7503225 -1.312795 6.481059
v 0.711718 -1.247656 6.55864
v 0.7118098 -1.059829 6.686943
v 0.7503224 -1.046326 6.662533
v 0.6554983 -0.8038472 6.865577
v 0.692682 -0.7849764 6.844008
v 0.5450425 -0.5632945 6.965379
v 0.579617 -0.5387907 6.965379
vt 0.923904 0.9572678
vt 0.9339702 0.9467927
vt 0.9184111 0.9404494
vt 0.9434398 0.9679685
vt 0.9354603 0.9789091
vt 0.9537801 0.9597697
vt 0.9531108 0.9884673
vt 0.9477286 0.9968246
vt 0.9620332 0.9791338
vt 0.9698542 0.9736925
vt 0.9457739 0.9995
vt 0.9477286 0.9968246
vt 0.9354603 0.9789091
vt 0.9324712 0.9808488
vt 0.923904 0.9572678
vt 0.9206253 0.9585722
vt 0.9184111 0.9404494
vt 0.9128875 0.9344824
vt 0.9128875 0.9344824
vt 0.9184111 0.9404494
vt 0.9339702 0.9467927
vt 0.935205 0.9434316
vt 0.9537801 0.9597697
vt 0.9556221 0.9567418
vt 0.9698542 0.9736925
vt 0.972362 0.9716976
vn 0.2454475 -0.5287572 0.8125092
vn 0.2603879 -0.5205992 0.8131264
vn 0.2618892 -0.5432476 0.7976817
vn 0.2149077 -0.4452984 0.8692089
vn 0.1613969 -0.4507196 0.8779538
vn 0.2494475 -0.4015602 0.8812068
vn 0.1287888 -0.3764497 0.9174416
vn 0.08047464 -0.3675277 0.9265243
vn 0.208502 -0.3309445 0.9203274
vn 0.2321572 -0.2798825 0.931541
vn -0.05631658 -0.4829439 0.8738385
vn -0.05631658 -0.4829439 0.8738385
vn -0.05430754 -0.6120809 0.7889281
vn -0.054385 -0.6084988 0.791689
vn -0.01622956 -0.7427774 0.6693417
vn -0.01523486 -0.7433309 0.6687505
vn 0.01969248 -0.7619814 0.6472994
vn 0.01969248 -0.7619814 0.6472994
vn 0.5817888 -0.4582939 0.6719291
vn 0.5817888 -0.4582939 0.6719291
vn 0.5883719 -0.4101931 0.6968214
vn 0.5874752 -0.4176554 0.6931354
vn 0.4958857 -0.2927185 0.8175654
vn 0.5094417 -0.3031559 0.8053357
vn 0.4004678 -0.2202521 0.8894462
vn 0.4004678 -0.2202521 0.8894462
g SB-PineapplePanelTop_1_0
f 3/3/3 2/2/2 1/1/1
f 2/2/2 4/4/4 1/1/1
f 1/1/1 4/4/4 5/5/5
f 4/4/4 2/2/2 6/6/6
f 4/4/4 7/7/7 5/5/5
f 5/5/5 7/7/7 8/8/8
f 4/4/4 9/9/9 7/7/7
f 9/9/9 4/4/4 6/6/6
f 6/6/6 10/10/10 9/9/9
f 13/13/13 12/12/12 11/11/11
f 14/14/14 13/13/13 11/11/11
f 15/15/15 13/13/13 14/14/14
f 16/16/16 15/15/15 14/14/14
f 17/17/17 15/15/15 16/16/16
f 18/18/18 17/17/17 16/16/16
f 21/21/21 20/20/20 19/19/19
f 22/22/22 21/21/21 19/19/19
f 23/23/23 21/21/21 22/22/22
f 24/24/24 23/23/23 22/22/22
f 25/25/25 23/23/23 24/24/24
f 26/26/26 25/25/25 24/24/24
