g SB-PineapplePanel_29
v -1.066262 2.467894 0.852545
v -0.9668032 2.430023 0.6773455
v -0.9689198 2.4761 0.7454749
v -1.098966 2.421236 0.8251229
v -1.327447 2.387753 1.140187
v -1.372008 2.346714 1.145075
v -1.152006 2.499439 1.492941
v -1.372008 2.346714 1.145075
v -1.327447 2.387753 1.140187
v -1.118636 2.537758 1.455618
v -0.9976991 2.563996 1.699902
v -0.9955264 2.590769 1.625057
v -0.9955264 2.590769 1.625057
v -1.118636 2.537758 1.455618
v -0.9855667 2.571151 1.281998
v -1.327447 2.387753 1.140187
v -0.976168 2.52835 0.9788151
v -1.066262 2.467894 0.852545
v -0.9689198 2.4761 0.7454749
vt 0.8708944 0.3987882
vt 0.8660342 0.4119008
vt 0.8706527 0.4086674
vt 0.8665905 0.3982278
vt 0.8705394 0.3719715
vt 0.8674895 0.3690786
vt 0.896817 0.3627845
vt 0.8674895 0.3690786
vt 0.8705394 0.3719715
vt 0.8976075 0.3670517
vt 0.9150078 0.3599591
vt 0.912233 0.3646947
vt 0.912233 0.3646947
vt 0.8976075 0.3670517
vt 0.8964486 0.3820219
vt 0.8705394 0.3719715
vt 0.8820819 0.3971397
vt 0.8708944 0.3987882
vt 0.8706527 0.4086674
vn -0.6028557 0.6690104 -0.43473
vn -0.5715818 0.6726818 -0.4698865
vn -0.5715818 0.6726818 -0.4698865
vn -0.6074862 0.6683227 -0.4293079
vn -0.6379026 0.6627885 -0.3921629
vn -0.6379026 0.6627885 -0.3921629
vn -0.6557915 0.7354677 0.1703668
vn -0.6798344 0.7252984 0.108477
vn -0.6798344 0.7252984 0.108477
vn -0.6555865 0.7355359 0.1708606
vn -0.6287616 0.7423237 0.2315477
vn -0.6287616 0.7423237 0.2315477
vn -0.3198781 0.9453387 -0.06334522
vn -0.3625778 0.926608 -0.09967501
vn -0.4000024 0.9076151 -0.1274084
vn -0.4206606 0.8962986 -0.1403329
vn -0.4000807 0.9037924 -0.1519693
vn -0.3638974 0.9142547 -0.1780925
vn -0.3161628 0.9236376 -0.2166438
g SB-PineapplePanel_29_0
f 3/3/3 2/2/2 1/1/1
f 2/2/2 4/4/4 1/1/1
f 1/1/1 4/4/4 5/5/5
f 4/4/4 6/6/6 5/5/5
f 9/9/9 8/8/8 7/7/7
f 10/10/10 9/9/9 7/7/7
f 10/10/10 7/7/7 11/11/11
f 12/12/12 10/10/10 11/11/11
f 15/15/15 14/14/14 13/13/13
f 14/14/14 15/15/15 16/16/16
f 16/16/16 15/15/15 17/17/17
f 16/16/16 17/17/17 18/18/18
f 19/19/19 18/18/18 17/17/17
