g SB-PineapplePanel_26
v 0.3478969 1.725755 6.239308
v 0.6756825 1.645701 6.23282
v 0.4631981 1.514023 6.445755
v 0.593087 1.900204 6.015865
v 0.1895871 1.951034 5.993254
v 0.9475985 1.755928 5.985772
v 0.4289426 2.121765 5.718277
v -0.02218565 2.138627 5.695745
v 0.8660495 2.002177 5.718277
v 1.239401 1.809474 5.686287
v 0.2200265 2.310188 5.42069
v -0.2427106 2.284744 5.404892
v -0.004511513 2.425843 5.085711
v 0.7019053 2.223739 5.42069
v 1.155825 2.054162 5.42069
v 1.526335 1.79931 5.404481
v 1.414931 2.036667 5.084363
v 0.492989 2.412161 5.081174
v 0.2713939 2.527327 4.751041
v 0.9916806 2.275723 5.081174
v 1.247993 2.259409 4.749676
v 0.7827643 2.464146 4.741659
v 0.5577246 2.577791 4.381579
v 1.041212 2.444713 4.379891
v 0.8204165 2.576092 4.036602
v 1.550873 1.767932 5.397436
v 1.414931 2.036667 5.084363
v 1.437809 2.014118 5.05792
v 1.526335 1.79931 5.404481
v 1.247993 2.259409 4.749676
v 1.255421 1.767932 5.695024
v 1.273664 2.235679 4.718405
v 1.239401 1.809474 5.686287
v 1.041212 2.444713 4.379891
v 0.9656455 1.715947 5.992611
v 1.064748 2.424102 4.350009
v 0.9475985 1.755928 5.985772
v 0.8204165 2.576092 4.036602
v 0.6926829 1.613974 6.236835
v 0.8190888 2.572145 3.981614
v 0.6756825 1.645701 6.23282
v 0.5577246 2.577791 4.381579
v 0.447023 1.465932 6.481059
v 0.5236363 2.572145 4.350009
v 0.4631981 1.514023 6.445755
v 0.2713939 2.527327 4.751041
v 0.3058197 1.706786 6.24654
v 0.233861 2.520159 4.718405
v 0.3478969 1.725755 6.239308
v -0.004511513 2.425843 5.085711
v 0.1430173 1.926141 6.00401
v -0.03910148 2.418187 5.05792
v 0.1895871 1.951034 5.993254
v -0.2427106 2.284744 5.404892
v -0.06450588 2.11285 5.708016
v -0.2847613 2.270144 5.397436
v -0.02218565 2.138627 5.695745
vt 0.3253836 0.7380616
vt 0.3022292 0.726216
vt 0.3052537 0.7505084
vt 0.3225299 0.7098383
vt 0.3497698 0.7239117
vt 0.2964436 0.6975865
vt 0.3480508 0.6936596
vt 0.3778352 0.7101486
vt 0.3175605 0.6792374
vt 0.2884935 0.666624
vt 0.3751619 0.6798565
vt 0.4045161 0.6976145
vt 0.4034089 0.6660196
vt 0.3430048 0.6631657
vt 0.3100677 0.649107
vt 0.2787727 0.6382666
vt 0.3022889 0.6183028
vt 0.3713402 0.6468536
vt 0.3989455 0.6325211
vt 0.3365958 0.6304848
vt 0.3295656 0.599816
vt 0.3649501 0.6140199
vt 0.3934768 0.597319
vt 0.3590687 0.5811059
vt 0.3869677 0.5658094
vt 0.2758359 0.6372796
vt 0.3022889 0.6183028
vt 0.3004002 0.6157324
vt 0.2787727 0.6382666
vt 0.3295656 0.599816
vt 0.2851271 0.6673905
vt 0.3278061 0.596707
vt 0.2884935 0.666624
vt 0.3590687 0.5811059
vt 0.2931393 0.6983659
vt 0.3577607 0.5780947
vt 0.2964436 0.6975865
vt 0.3869677 0.5658094
vt 0.2995303 0.7268122
vt 0.3887746 0.5619692
vt 0.3022292 0.726216
vt 0.3934768 0.597319
vt 0.3033883 0.7548962
vt 0.39691 0.5963879
vt 0.3052537 0.7505084
vt 0.3989455 0.6325211
vt 0.3272141 0.7411548
vt 0.4027497 0.6319079
vt 0.3253836 0.7380616
vt 0.4034089 0.6660196
vt 0.3517978 0.7275038
vt 0.4068431 0.6658633
vt 0.3497698 0.7239117
vt 0.4045161 0.6976145
vt 0.3797402 0.7135565
vt 0.4074861 0.6993897
vt 0.3778352 0.7101486
vn 0.1423374 0.7363446 0.6614655
vn 0.2388428 0.7070675 0.6655895
vn 0.1851867 0.7025735 0.6870926
vn 0.208285 0.7652831 0.609064
vn 0.04335195 0.8117594 0.5823807
vn 0.3696789 0.7167251 0.5913059
vn 0.1178916 0.8488875 0.5152588
vn -0.02179838 0.8709783 0.4908377
vn 0.3292401 0.7884978 0.5194923
vn 0.4621879 0.7326926 0.4995435
vn 0.03650813 0.9047234 0.4244323
vn -0.06414568 0.903589 0.423571
vn -0.006374467 0.93512 0.3542737
vn 0.2393 0.8732163 0.4245338
vn 0.4332576 0.792038 0.4300742
vn 0.5242839 0.7348514 0.4302557
vn 0.4881056 0.7951996 0.3597365
vn 0.1397114 0.933367 0.3306158
vn 0.08644976 0.9596125 0.2677131
vn 0.3579444 0.8720396 0.3338004
vn 0.4179919 0.8670182 0.2712235
vn 0.2573393 0.933565 0.2494652
vn 0.2093675 0.9583515 0.1942361
vn 0.3110966 0.9301691 0.1949471
vn 0.2622761 0.9507873 0.164969
vn 0.754633 0.5104443 0.4122808
vn 0.7646882 0.6324216 0.1236723
vn 0.7639095 0.6336029 0.1224329
vn 0.7492791 0.5019103 0.4320496
vn 0.7056067 0.7073572 0.04201036
vn 0.6405944 0.3849258 0.6644327
vn 0.7027705 0.7103698 0.03858202
vn 0.6393837 0.3853205 0.6653696
vn 0.6360807 0.7708156 -0.03527893
vn 0.5809557 0.3838626 0.7177325
vn 0.6305956 0.7750353 -0.04085967
vn 0.5809817 0.3838667 0.7177092
vn 0.2711652 0.9592282 -0.07969155
vn 0.5309417 0.3781233 0.7583691
vn 0.2642031 0.9611715 -0.07966247
vn 0.5312043 0.3780055 0.7582439
vn -0.1355794 0.9901525 -0.03487218
vn 0.1523089 0.5585175 0.8153896
vn -0.131401 0.9905841 -0.03843015
vn 0.1952397 0.5435358 0.816364
vn -0.2197615 0.9747866 0.03867868
vn -0.1802495 0.6491705 0.7389775
vn -0.2187894 0.9750392 0.03780882
vn -0.1802354 0.6490399 0.7390957
vn -0.3012034 0.9464935 0.1158731
vn -0.2173401 0.6989706 0.6813247
vn -0.3027534 0.9458064 0.1174331
vn -0.2161913 0.6978954 0.6827908
vn -0.3389289 0.8553213 0.3918581
vn -0.2846557 0.7317097 0.6193319
vn -0.339004 0.855913 0.3904987
vn -0.2824553 0.7315724 0.6205004
g SB-PineapplePanel_26_0
f 3/3/3 2/2/2 1/1/1
f 2/2/2 4/4/4 1/1/1
f 5/5/5 1/1/1 4/4/4
f 2/2/2 6/6/6 4/4/4
f 7/7/7 5/5/5 4/4/4
f 5/5/5 7/7/7 8/8/8
f 6/6/6 9/9/9 4/4/4
f 4/4/4 9/9/9 7/7/7
f 6/6/6 10/10/10 9/9/9
f 7/7/7 11/11/11 8/8/8
f 8/8/8 11/11/11 12/12/12
f 11/11/11 13/13/13 12/12/12
f 9/9/9 14/14/14 7/7/7
f 11/11/11 7/7/7 14/14/14
f 10/10/10 15/15/15 9/9/9
f 9/9/9 15/15/15 14/14/14
f 15/15/15 10/10/10 16/16/16
f 17/17/17 15/15/15 16/16/16
f 11/11/11 18/18/18 13/13/13
f 18/18/18 11/11/11 14/14/14
f 18/18/18 19/19/19 13/13/13
f 15/15/15 17/17/17 20/20/20
f 15/15/15 20/20/20 14/14/14
f 14/14/14 20/20/20 18/18/18
f 17/17/17 21/21/21 20/20/20
f 19/19/19 18/18/18 22/22/22
f 20/20/20 22/22/22 18/18/18
f 20/20/20 21/21/21 22/22/22
f 23/23/23 19/19/19 22/22/22
f 21/21/21 24/24/24 22/22/22
f 22/22/22 24/24/24 23/23/23
f 24/24/24 25/25/25 23/23/23
f 28/28/28 27/27/27 26/26/26
f 27/27/27 29/29/29 26/26/26
f 30/30/30 27/27/27 28/28/28
f 26/26/26 29/29/29 31/31/31
f 32/32/32 30/30/30 28/28/28
f 29/29/29 33/33/33 31/31/31
f 34/34/34 30/30/30 32/32/32
f 31/31/31 33/33/33 35/35/35
f 36/36/36 34/34/34 32/32/32
f 33/33/33 37/37/37 35/35/35
f 38/38/38 34/34/34 36/36/36
f 35/35/35 37/37/37 39/39/39
f 40/40/40 38/38/38 36/36/36
f 37/37/37 41/41/41 39/39/39
f 42/42/42 38/38/38 40/40/40
f 39/39/39 41/41/41 43/43/43
f 44/44/44 42/42/42 40/40/40
f 41/41/41 45/45/45 43/43/43
f 46/46/46 42/42/42 44/44/44
f 43/43/43 45/45/45 47/47/47
f 48/48/48 46/46/46 44/44/44
f 45/45/45 49/49/49 47/47/47
f 50/50/50 46/46/46 48/48/48
f 47/47/47 49/49/49 51/51/51
f 52/52/52 50/50/50 48/48/48
f 49/49/49 53/53/53 51/51/51
f 54/54/54 50/50/50 52/52/52
f 51/51/51 53/53/53 55/55/55
f 56/56/56 54/54/54 52/52/52
f 53/53/53 57/57/57 55/55/55
f 57/57/57 54/54/54 56/56/56
f 55/55/55 57/57/57 56/56/56
