g SB-PineapplePanelTop_4
v 0.2351972 1.280478 6.66594
v 0.4350199 1.430244 6.520231
v 0.4785216 1.208737 6.678214
v 0.2976216 1.021736 6.860054
v 0.06602439 1.06018 6.84583
v 0.4641112 0.9500786 6.865577
v 0.1334769 0.8001752 6.965379
v -0.04459886 0.8126225 6.965379
v 0.2976214 0.7552667 6.965379
v 0.4078116 0.6947132 6.965379
v 0.4470223 0.6767637 6.965379
v 0.4078116 0.6947132 6.965379
v 0.4641112 0.9500786 6.865577
v 0.5046625 0.938113 6.844008
v 0.4785216 1.208737 6.678214
v 0.5046627 1.204582 6.662533
v 0.4350199 1.430244 6.520231
v 0.447023 1.465932 6.481059
v 0.447023 1.465932 6.481059
v 0.4350199 1.430244 6.520231
v 0.2351972 1.280478 6.66594
v 0.212631 1.290441 6.654304
v 0.06602439 1.06018 6.84583
v 0.04641652 1.06602 6.837933
v -0.04459886 0.8126225 6.965379
v -0.06834127 0.816285 6.965379
vt 0.8786426 0.6453702
vt 0.8832288 0.6243817
vt 0.8644373 0.6324009
vt 0.8557309 0.6544864
vt 0.8673881 0.6675811
vt 0.8450946 0.6463158
vt 0.8462454 0.674593
vt 0.8542075 0.6857334
vt 0.8370715 0.6653127
vt 0.8290766 0.6598656
vt 0.8265075 0.657873
vt 0.8290766 0.6598656
vt 0.8450946 0.6463158
vt 0.8431919 0.6432957
vt 0.8644373 0.6324009
vt 0.8635943 0.6302483
vt 0.8832288 0.6243817
vt 0.8860108 0.6213554
vt 0.8860108 0.6213554
vt 0.8832288 0.6243817
vt 0.8786426 0.6453702
vt 0.8805448 0.6461745
vt 0.8673881 0.6675811
vt 0.8687807 0.6684818
vt 0.8542075 0.6857334
vt 0.8553754 0.6871309
vn 0.1130416 0.5860124 0.8023784
vn 0.1389255 0.6052831 0.7837934
vn 0.1465016 0.5809337 0.800658
vn 0.110782 0.50231 0.8575616
vn 0.03359885 0.5032449 0.8634904
vn 0.1766994 0.453093 0.8737757
vn 0.05699732 0.4282539 0.9018592
vn 0.02962864 0.4239021 0.9052233
vn 0.1473191 0.3709671 0.9168863
vn 0.1779998 0.323904 0.9291945
vn 0.3526119 0.3014376 0.8858895
vn 0.3526119 0.3014376 0.8858895
vn 0.4324411 0.3911485 0.8124022
vn 0.442478 0.4025705 0.8013427
vn 0.5008578 0.5233578 0.6893751
vn 0.4987536 0.5297842 0.6859836
vn 0.4851907 0.5686255 0.6642704
vn 0.4851907 0.5686255 0.6642704
vn -0.05694091 0.7367412 0.6737731
vn -0.05694091 0.7367412 0.6737731
vn -0.07304231 0.7054425 0.7049934
vn -0.07416925 0.7031813 0.7071315
vn -0.07535174 0.5739696 0.8154024
vn -0.07492484 0.5711697 0.8174052
vn -0.05888836 0.4653458 0.8831678
vn -0.05888836 0.4653458 0.8831678
g SB-PineapplePanelTop_4_0
f 3/3/3 2/2/2 1/1/1
f 4/4/4 3/3/3 1/1/1
f 1/1/1 5/5/5 4/4/4
f 6/6/6 3/3/3 4/4/4
f 5/5/5 7/7/7 4/4/4
f 5/5/5 8/8/8 7/7/7
f 4/4/4 7/7/7 9/9/9
f 9/9/9 6/6/6 4/4/4
f 6/6/6 9/9/9 10/10/10
f 13/13/13 12/12/12 11/11/11
f 14/14/14 13/13/13 11/11/11
f 15/15/15 13/13/13 14/14/14
f 16/16/16 15/15/15 14/14/14
f 17/17/17 15/15/15 16/16/16
f 18/18/18 17/17/17 16/16/16
f 21/21/21 20/20/20 19/19/19
f 22/22/22 21/21/21 19/19/19
f 23/23/23 21/21/21 22/22/22
f 24/24/24 23/23/23 22/22/22
f 25/25/25 23/23/23 24/24/24
f 26/26/26 25/25/25 24/24/24
