g SB-PineapplePanel_3
v -2.816747 -1.043572 3.577664
v -2.6677 -1.247954 3.923711
v -2.566763 -1.471581 3.57427
v -2.748747 -1.289996 3.215446
v -2.938243 -0.8033209 3.201359
v -2.412794 -1.701445 3.197227
v -2.8816 -1.056252 2.851263
v -3.018194 -0.5492784 2.837285
v -2.602157 -1.532352 2.851594
v -2.224428 -1.916296 2.832274
v -2.971782 -0.8064969 2.492137
v -3.047708 -0.2881044 2.497063
v -2.977374 -0.5576974 2.169302
v -2.745711 -1.307665 2.492327
v -2.41748 -1.758944 2.49264
v -1.993562 -2.104785 2.498464
v -2.186141 -1.924476 2.168413
v -2.839644 -1.060444 2.14365
v -2.845321 -0.809277 1.813454
v -2.564681 -1.538175 2.144048
v -2.329865 -1.707517 1.811875
v -2.661872 -1.294518 1.789366
v -2.703127 -1.052456 1.474338
v -2.460292 -1.482548 1.4742
v -2.528204 -1.252882 1.151849
v -1.953639 -2.120792 2.500623
v -2.224428 -1.916296 2.832274
v -2.180372 -1.927848 2.859338
v -1.993562 -2.104785 2.498464
v -2.412794 -1.701445 3.197227
v -2.147939 -1.934571 2.152183
v -2.374535 -1.713388 3.22282
v -2.186141 -1.924476 2.168413
v -2.566763 -1.471581 3.57427
v -2.2973 -1.71788 1.797518
v -2.533326 -1.483867 3.598495
v -2.329865 -1.707517 1.811875
v -2.6677 -1.247954 3.923711
v -2.429678 -1.493504 1.459667
v -2.646391 -1.237682 3.981614
v -2.460292 -1.482548 1.4742
v -2.816747 -1.043572 3.577664
v -2.507771 -1.244046 1.113079
v -2.810535 -1.01612 3.598495
v -2.528204 -1.252882 1.151849
v -2.938243 -0.8033209 3.201359
v -2.695047 -1.022573 1.459497
v -2.930029 -0.773499 3.222598
v -2.703127 -1.052456 1.474338
v -3.018194 -0.5492784 2.837285
v -2.834093 -0.7754294 1.797195
v -3.008113 -0.5177131 2.858359
v -2.845321 -0.809277 1.813454
v -3.047708 -0.2881044 2.497063
v -2.962664 -0.5194498 2.151105
v -3.040499 -0.2518595 2.498986
v -2.977374 -0.5576974 2.169302
vt 0.1901657 0.4610773
vt 0.2086156 0.4867045
vt 0.2279254 0.4618601
vt 0.2097017 0.4339162
vt 0.1703169 0.4322093
vt 0.2499194 0.4338837
vt 0.1903211 0.4061852
vt 0.1509845 0.4040136
vt 0.2315259 0.4071584
vt 0.2721392 0.406462
vt 0.1714561 0.3788705
vt 0.1329042 0.3776029
vt 0.154184 0.3537329
vt 0.212204 0.3799543
vt 0.2536969 0.3806421
vt 0.2943355 0.3812817
vt 0.2749912 0.3561871
vt 0.1932654 0.353424
vt 0.1761586 0.3271309
vt 0.2343769 0.3542911
vt 0.2557503 0.3287219
vt 0.2155494 0.3271479
vt 0.1985895 0.3022209
vt 0.2359693 0.3030642
vt 0.2187873 0.27927
vt 0.2976432 0.3814338
vt 0.2721392 0.406462
vt 0.2754495 0.4087868
vt 0.2943355 0.3812817
vt 0.2499194 0.4338837
vt 0.2778835 0.3546959
vt 0.2527422 0.436198
vt 0.2749912 0.3561871
vt 0.2279254 0.4618601
vt 0.2582067 0.3273042
vt 0.2303051 0.4641106
vt 0.2557503 0.3287219
vt 0.2086156 0.4867045
vt 0.2382107 0.3015504
vt 0.2086071 0.4915169
vt 0.2359693 0.3030642
vt 0.1901657 0.4610773
vt 0.2190298 0.2758358
vt 0.1882427 0.4629059
vt 0.2187873 0.27927
vt 0.1703169 0.4322093
vt 0.1965943 0.3005417
vt 0.1680933 0.4340036
vt 0.1985895 0.3022209
vt 0.1509845 0.4040136
vt 0.1737621 0.3253314
vt 0.1484938 0.4056822
vt 0.1761586 0.3271309
vt 0.1329042 0.3776029
vt 0.1513597 0.3518322
vt 0.1300698 0.3775558
vt 0.154184 0.3537329
vn -0.8873412 -0.4470451 0.1130327
vn -0.8559955 -0.5009665 0.1276885
vn -0.8245774 -0.5542305 0.1135815
vn -0.8608541 -0.5023618 0.08101135
vn -0.9448662 -0.3193712 0.07231808
vn -0.746026 -0.6611922 0.07918395
vn -0.9224233 -0.3854433 0.02384803
vn -0.9772323 -0.2121445 0.003428539
vn -0.7920896 -0.6095981 0.031372
vn -0.6783611 -0.7343248 0.02435688
vn -0.9609874 -0.2700063 -0.05999714
vn -0.987826 -0.1441243 -0.05854908
vn -0.9700512 -0.2070193 -0.1270579
vn -0.8637607 -0.5016065 -0.04804523
vn -0.7194334 -0.6935889 -0.03674322
vn -0.6316912 -0.7747538 -0.02688582
vn -0.6737567 -0.7330805 -0.09297784
vn -0.91652 -0.3764758 -0.1351186
vn -0.9346004 -0.3033718 -0.1857082
vn -0.7886944 -0.6033964 -0.1177876
vn -0.7384881 -0.6551999 -0.1592122
vn -0.8553876 -0.4878373 -0.1741463
vn -0.8832934 -0.422587 -0.2030096
vn -0.8170018 -0.5430337 -0.1939652
vn -0.8514181 -0.480652 -0.209907
vn -0.3772125 -0.9260216 -0.01395396
vn -0.4035689 -0.8760356 0.2639962
vn -0.4010151 -0.8778403 0.2618841
vn -0.376745 -0.9260359 -0.02282022
vn -0.4559235 -0.8410345 0.2911951
vn -0.371525 -0.8733376 -0.3150405
vn -0.456219 -0.8408455 0.2912783
vn -0.3763121 -0.8687449 -0.3219804
vn -0.5100318 -0.7991346 0.3182004
vn -0.4193168 -0.8330569 -0.360818
vn -0.512934 -0.7963787 0.3204367
vn -0.4227374 -0.8307869 -0.3620582
vn -0.8033869 -0.457408 0.3812447
vn -0.4653865 -0.7884196 -0.4022561
vn -0.7933623 -0.4750293 0.3806881
vn -0.4667817 -0.7864748 -0.4044407
vn -0.9424951 -0.02588114 0.3332164
vn -0.7476963 -0.4355778 -0.5012208
vn -0.9406716 -0.03343047 0.3376676
vn -0.7574994 -0.4171292 -0.502193
vn -0.9546926 0.05542519 0.2923867
vn -0.8933452 0.03123388 -0.4482844
vn -0.9543848 0.05138699 0.2941243
vn -0.8928589 0.02963831 -0.4493602
vn -0.9601663 0.1339424 0.2452348
vn -0.9017565 0.09667295 -0.421295
vn -0.9601858 0.1342651 0.2449823
vn -0.9019258 0.09402644 -0.4215315
vn -0.9785295 0.1903263 -0.07909471
vn -0.909135 0.1602747 -0.3844287
vn -0.9800416 0.1896351 -0.05964241
vn -0.9080101 0.1554019 -0.3890603
g SB-PineapplePanel_3_0
f 3/3/3 2/2/2 1/1/1
f 4/4/4 3/3/3 1/1/1
f 4/4/4 1/1/1 5/5/5
f 3/3/3 4/4/4 6/6/6
f 7/7/7 4/4/4 5/5/5
f 7/7/7 5/5/5 8/8/8
f 4/4/4 9/9/9 6/6/6
f 9/9/9 4/4/4 7/7/7
f 10/10/10 6/6/6 9/9/9
f 11/11/11 7/7/7 8/8/8
f 8/8/8 12/12/12 11/11/11
f 12/12/12 13/13/13 11/11/11
f 14/14/14 9/9/9 7/7/7
f 14/14/14 7/7/7 11/11/11
f 15/15/15 10/10/10 9/9/9
f 9/9/9 14/14/14 15/15/15
f 16/16/16 10/10/10 15/15/15
f 17/17/17 16/16/16 15/15/15
f 18/18/18 11/11/11 13/13/13
f 18/18/18 14/14/14 11/11/11
f 19/19/19 18/18/18 13/13/13
f 17/17/17 15/15/15 20/20/20
f 14/14/14 20/20/20 15/15/15
f 20/20/20 14/14/14 18/18/18
f 21/21/21 17/17/17 20/20/20
f 22/22/22 18/18/18 19/19/19
f 22/22/22 20/20/20 18/18/18
f 20/20/20 22/22/22 21/21/21
f 23/23/23 22/22/22 19/19/19
f 22/22/22 24/24/24 21/21/21
f 24/24/24 22/22/22 23/23/23
f 25/25/25 24/24/24 23/23/23
f 28/28/28 27/27/27 26/26/26
f 27/27/27 29/29/29 26/26/26
f 30/30/30 27/27/27 28/28/28
f 26/26/26 29/29/29 31/31/31
f 32/32/32 30/30/30 28/28/28
f 29/29/29 33/33/33 31/31/31
f 34/34/34 30/30/30 32/32/32
f 31/31/31 33/33/33 35/35/35
f 36/36/36 34/34/34 32/32/32
f 33/33/33 37/37/37 35/35/35
f 38/38/38 34/34/34 36/36/36
f 35/35/35 37/37/37 39/39/39
f 40/40/40 38/38/38 36/36/36
f 37/37/37 41/41/41 39/39/39
f 42/42/42 38/38/38 40/40/40
f 39/39/39 41/41/41 43/43/43
f 44/44/44 42/42/42 40/40/40
f 41/41/41 45/45/45 43/43/43
f 46/46/46 42/42/42 44/44/44
f 43/43/43 45/45/45 47/47/47
f 48/48/48 46/46/46 44/44/44
f 45/45/45 49/49/49 47/47/47
f 50/50/50 46/46/46 48/48/48
f 47/47/47 49/49/49 51/51/51
f 52/52/52 50/50/50 48/48/48
f 49/49/49 53/53/53 51/51/51
f 54/54/54 50/50/50 52/52/52
f 51/51/51 53/53/53 55/55/55
f 56/56/56 54/54/54 52/52/52
f 53/53/53 57/57/57 55/55/55
f 57/57/57 54/54/54 56/56/56
f 55/55/55 57/57/57 56/56/56
