g SB-PineapplePanel_28
v 1.074464 2.562837 3.569388
v 0.8310357 2.610766 3.903656
v 0.5921331 2.683112 3.584593
v 0.8475776 2.643682 3.255323
v 1.354133 2.476833 3.193856
v 0.3030032 2.752546 3.209849
v 1.130487 2.574365 2.89024
v 1.615778 2.360457 2.828659
v 0.560276 2.731235 2.890303
v 0.007115247 2.792478 2.846752
v 1.395353 2.472615 2.530059
v 1.833535 2.219203 2.520831
v 1.585681 2.337239 2.216084
v 1.113031 2.584778 2.180182
v 1.302809 2.454008 1.861017
v 0.9387929 2.647681 2.409265
v 0.9407182 2.638479 2.739777
v 0.9362122 2.62654 1.966264
v 0.4126627 2.753763 2.717442
v 0.1194743 2.790058 2.708584
v -0.1072126 2.792972 2.707582
v 0.9340761 2.596699 1.653809
v 1.02246 2.552522 1.522778
v 0.9320823 2.566368 1.41561
v 0.8190889 2.572145 3.981614
v 0.5921331 2.683112 3.584593
v 0.8310357 2.610766 3.903656
v 0.5461265 2.674119 3.598495
v 0.3030032 2.752546 3.209849
v 0.2570628 2.739114 3.223251
v 0.007115247 2.792478 2.846752
v -0.03912408 2.774954 2.859864
v -0.1072126 2.792972 2.707582
v -0.1643436 2.775602 2.708044
v 1.108864 2.520159 3.598495
v 0.8190889 2.572145 3.981614
v 0.8310357 2.610766 3.903656
v 1.074464 2.562837 3.569388
v 1.385202 2.429546 3.223094
v 1.354133 2.476833 3.193856
v 1.643463 2.310646 2.859715
v 1.615778 2.360457 2.828659
v 1.833535 2.219203 2.520831
v 1.875237 2.160798 2.499538
v 1.615716 2.282974 2.188179
v 1.875237 2.160798 2.499538
v 1.833535 2.219203 2.520831
v 1.585681 2.337239 2.216084
v 1.334687 2.400547 1.832144
v 1.302809 2.454008 1.861017
v 1.056644 2.501218 1.492941
v 1.02246 2.552522 1.522778
v 0.9314678 2.522566 1.342179
v 0.9320823 2.566368 1.41561
vt 0.9816614 0.258135
vt 0.986121 0.2316431
vt 0.9599939 0.2320643
vt 0.9547548 0.2601504
vt 0.9759521 0.2901122
vt 0.9272553 0.233631
vt 0.9493641 0.291512
vt 0.9702135 0.3212092
vt 0.9225194 0.2614263
vt 0.8949824 0.2349348
vt 0.9439068 0.3221476
vt 0.9658022 0.3474802
vt 0.9385065 0.3482886
vt 0.9124942 0.3227129
vt 0.9063317 0.3489484
vt 0.915696 0.3029573
vt 0.9326529 0.2881793
vt 0.8934243 0.323287
vt 0.9066075 0.2619709
vt 0.8930239 0.2469842
vt 0.8826653 0.2355218
vt 0.8778056 0.3378816
vt 0.8755207 0.3487969
vt 0.8662354 0.3489314
vt 0.9905639 0.2275763
vt 0.9599939 0.2320643
vt 0.986121 0.2316431
vt 0.9588704 0.2289144
vt 0.9272553 0.233631
vt 0.9259829 0.2304493
vt 0.8949824 0.2349348
vt 0.893572 0.2316979
vt 0.8826653 0.2355218
vt 0.8800468 0.232348
vt 0.9858099 0.2590742
vt 0.9905639 0.2275763
vt 0.986121 0.2316431
vt 0.9816614 0.258135
vt 0.9801802 0.2912356
vt 0.9759521 0.2901122
vt 0.9744852 0.3224005
vt 0.9702135 0.3212092
vt 0.9658022 0.3474802
vt 0.9680471 0.3520589
vt 0.939439 0.3528743
vt 0.9680471 0.3520589
vt 0.9658022 0.3474802
vt 0.9385065 0.3482886
vt 0.9070786 0.3536177
vt 0.9063317 0.3489484
vt 0.8760241 0.3534709
vt 0.8755207 0.3487969
vt 0.8627807 0.3535345
vt 0.8662354 0.3489314
vn 0.2741388 0.9603918 0.0499574
vn 0.2432249 0.9683883 0.05537044
vn 0.2211493 0.9735733 0.05699265
vn 0.2547522 0.9657647 0.04898888
vn 0.3551737 0.9342344 0.03252502
vn 0.1552185 0.9868509 0.04508208
vn 0.3357037 0.941583 0.02691731
vn 0.4472243 0.8943087 -0.01422141
vn 0.1904822 0.9816342 0.01052951
vn 0.06888178 0.9973843 0.02190875
vn 0.4333866 0.900703 -0.03016807
vn 0.4989055 0.8647608 -0.0572888
vn 0.4811289 0.873401 -0.07540309
vn 0.3762017 0.9240481 -0.06787714
vn 0.4252089 0.8998953 -0.09688088
vn 0.3345814 0.942359 -0.003851022
vn 0.2784011 0.9601708 0.02376863
vn 0.3709963 0.9232873 -0.09950986
vn 0.1375864 0.9904333 0.01057102
vn 0.089509 0.9944454 0.05537692
vn 0.01288423 0.9998922 -0.007030394
vn 0.3738458 0.9241337 -0.07884355
vn 0.3323429 0.9386325 -0.09228886
vn 0.2914566 0.9486132 -0.1232317
vn -0.1817716 0.9151893 0.3597049
vn -0.168066 0.929083 0.3294823
vn -0.1817716 0.9151893 0.3597049
vn -0.1613178 0.9354091 0.3146209
vn -0.1798877 0.941758 0.2841343
vn -0.197814 0.938047 0.2844953
vn -0.2506208 0.9306684 0.266544
vn -0.262865 0.9304764 0.2551777
vn -0.2827529 0.9296014 0.2364149
vn -0.2827529 0.9296014 0.2364149
vn 0.6448649 0.679646 0.3496151
vn 0.6350886 0.6734989 0.378235
vn 0.6350886 0.6734989 0.378235
vn 0.6442109 0.6792431 0.3515978
vn 0.6871755 0.6542044 0.3159215
vn 0.683921 0.6572698 0.3166204
vn 0.7566265 0.578563 0.3046001
vn 0.7525274 0.5836025 0.3051402
vn 0.7907019 0.533998 0.2993939
vn 0.7907019 0.533998 0.2993939
vn 0.7120654 0.6044563 -0.3572051
vn 0.7131134 0.6071081 -0.350555
vn 0.7131134 0.6071081 -0.350555
vn 0.7117962 0.6037852 -0.3588727
vn 0.6957425 0.6166914 -0.3682855
vn 0.6925399 0.6199483 -0.3688531
vn 0.6470886 0.652601 -0.3941931
vn 0.6426423 0.655028 -0.3974282
vn 0.6113538 0.6711173 -0.4193425
vn 0.6113538 0.6711173 -0.4193425
g SB-PineapplePanel_28_0
f 3/3/3 2/2/2 1/1/1
f 4/4/4 3/3/3 1/1/1
f 1/1/1 5/5/5 4/4/4
f 6/6/6 3/3/3 4/4/4
f 5/5/5 7/7/7 4/4/4
f 7/7/7 5/5/5 8/8/8
f 9/9/9 6/6/6 4/4/4
f 9/9/9 4/4/4 7/7/7
f 10/10/10 6/6/6 9/9/9
f 11/11/11 7/7/7 8/8/8
f 8/8/8 12/12/12 11/11/11
f 12/12/12 13/13/13 11/11/11
f 14/14/14 11/11/11 13/13/13
f 15/15/15 14/14/14 13/13/13
f 16/16/16 7/7/7 11/11/11
f 14/14/14 16/16/16 11/11/11
f 16/16/16 17/17/17 7/7/7
f 17/17/17 9/9/9 7/7/7
f 18/18/18 16/16/16 14/14/14
f 14/14/14 15/15/15 18/18/18
f 19/19/19 9/9/9 17/17/17
f 19/19/19 10/10/10 9/9/9
f 20/20/20 10/10/10 19/19/19
f 21/21/21 10/10/10 20/20/20
f 18/18/18 15/15/15 22/22/22
f 22/22/22 15/15/15 23/23/23
f 24/24/24 22/22/22 23/23/23
f 27/27/27 26/26/26 25/25/25
f 26/26/26 28/28/28 25/25/25
f 26/26/26 29/29/29 28/28/28
f 29/29/29 30/30/30 28/28/28
f 29/29/29 31/31/31 30/30/30
f 31/31/31 32/32/32 30/30/30
f 31/31/31 33/33/33 32/32/32
f 33/33/33 34/34/34 32/32/32
f 37/37/37 36/36/36 35/35/35
f 38/38/38 37/37/37 35/35/35
f 38/38/38 35/35/35 39/39/39
f 40/40/40 38/38/38 39/39/39
f 40/40/40 39/39/39 41/41/41
f 42/42/42 40/40/40 41/41/41
f 42/42/42 41/41/41 43/43/43
f 41/41/41 44/44/44 43/43/43
f 47/47/47 46/46/46 45/45/45
f 48/48/48 47/47/47 45/45/45
f 48/48/48 45/45/45 49/49/49
f 50/50/50 48/48/48 49/49/49
f 50/50/50 49/49/49 51/51/51
f 52/52/52 50/50/50 51/51/51
f 52/52/52 51/51/51 53/53/53
f 54/54/54 52/52/52 53/53/53
