g SB-PineapplePanel_34
v -2.207852 1.924005 2.155155
v -2.384863 1.777199 2.429706
v -2.527974 1.593117 2.120006
v -2.353628 1.747716 1.81638
v -1.954397 2.089029 1.798184
v -2.626439 1.345199 1.774516
v -2.129008 1.938685 1.477625
v -1.701049 2.239995 1.458666
v -2.48676 1.523113 1.477126
v -2.708315 1.096145 1.436309
v -1.871103 2.085642 1.1293
v -1.445563 2.330595 1.138982
v -1.626122 2.176152 0.8502958
v -2.565437 1.273459 1.129133
v -2.724952 0.8472484 1.123796
v -2.585015 1.062883 0.8335893
v -2.25991 1.712048 1.129148
v -2.031095 1.880504 0.8149375
v -1.781733 1.948819 0.5357223
v -2.371518 1.477726 0.8146605
v -2.385079 1.263627 0.514721
v -2.138942 1.64089 0.4944963
v -1.912673 1.738976 0.2648633
v -2.176114 1.437852 0.2476364
v -1.973878 1.543557 0.04666039
v -2.384445 1.775046 2.50032
v -2.527974 1.593117 2.120006
v -2.384863 1.777199 2.429706
v -2.527971 1.551773 2.151897
v -2.626439 1.345199 1.774516
v -2.621031 1.306183 1.797328
v -2.708315 1.096145 1.436309
v -2.697214 1.056261 1.459491
v -2.724952 0.8472484 1.123796
v -2.717637 0.798611 1.113031
v -2.16372 1.934634 2.18794
v -2.384445 1.775046 2.50032
v -2.384863 1.777199 2.429706
v -2.207852 1.924005 2.155155
v -1.907336 2.098212 1.831953
v -1.954397 2.089029 1.798184
v -1.650685 2.246432 1.492919
v -1.701049 2.239995 1.458666
v -1.445563 2.330595 1.138982
v -1.372008 2.346714 1.145075
v -1.626122 2.176152 0.8502958
v -1.372008 2.346714 1.145075
v -1.445563 2.330595 1.138982
v -1.57293 2.176209 0.8305343
v -1.781733 1.948819 0.5357223
v -1.729749 1.950794 0.5151163
v -1.861097 1.740984 0.2435602
v -1.912673 1.738976 0.2648633
v -1.926133 1.531634 0.001561611
v -1.973878 1.543557 0.04666039
v -2.16448 1.404086 0.2149782
v -1.926133 1.531634 0.001561611
v -1.973878 1.543557 0.04666039
v -2.176114 1.437852 0.2476364
v -2.369756 1.230755 0.4809346
v -2.385079 1.263627 0.514721
v -2.566733 1.030576 0.7997975
v -2.585015 1.062883 0.8335893
v -2.717637 0.798611 1.113031
v -2.724952 0.8472484 1.123796
vt 0.7347182 0.8438714
vt 0.7546326 0.8287638
vt 0.7336028 0.812138
vt 0.712059 0.8270003
vt 0.7084627 0.8631905
vt 0.7101561 0.7934505
vt 0.6876858 0.8456384
vt 0.6830645 0.8810903
vt 0.6895074 0.808497
vt 0.6868552 0.7761787
vt 0.6621727 0.863351
vt 0.6589887 0.8964027
vt 0.6409929 0.8784754
vt 0.6660014 0.7910292
vt 0.6652708 0.7611285
vt 0.645636 0.7774774
vt 0.6647933 0.8269669
vt 0.6421143 0.8444034
vt 0.6202638 0.8586072
vt 0.6440331 0.8089375
vt 0.6228247 0.795543
vt 0.6208882 0.8261778
vt 0.6028255 0.8402741
vt 0.6034619 0.8129675
vt 0.588374 0.8265455
vt 0.7595873 0.8288738
vt 0.7336028 0.812138
vt 0.7546326 0.8287638
vt 0.7360497 0.8094753
vt 0.7101561 0.7934505
vt 0.7118853 0.7908236
vt 0.6868552 0.7761787
vt 0.6884719 0.7733929
vt 0.6652708 0.7611285
vt 0.6642882 0.757854
vt 0.7369612 0.8470845
vt 0.7595873 0.8288738
vt 0.7546326 0.8287638
vt 0.7347182 0.8438714
vt 0.7106515 0.8666574
vt 0.7084627 0.8631905
vt 0.6851065 0.8848127
vt 0.6830645 0.8810903
vt 0.6589887 0.8964027
vt 0.6585523 0.9016399
vt 0.6409929 0.8784754
vt 0.6585523 0.9016399
vt 0.6589887 0.8964027
vt 0.6386676 0.8816252
vt 0.6202638 0.8586072
vt 0.6177469 0.8615788
vt 0.6000799 0.8430159
vt 0.6028255 0.8402741
vt 0.5838748 0.8276492
vt 0.588374 0.8265455
vt 0.6005442 0.8113545
vt 0.5838748 0.8276492
vt 0.588374 0.8265455
vt 0.6034619 0.8129675
vt 0.6198578 0.7938501
vt 0.6228247 0.795543
vt 0.6427271 0.7756517
vt 0.645636 0.7774774
vt 0.6642882 0.757854
vt 0.6652708 0.7611285
vn -0.6881677 0.7225811 -0.06558838
vn -0.7132282 0.697443 -0.06984882
vn -0.7582045 0.6460328 -0.0881341
vn -0.7374004 0.6688195 -0.09445208
vn -0.6196383 0.7820772 -0.0663591
vn -0.8417701 0.5257367 -0.1225727
vn -0.6681043 0.7361402 -0.1083253
vn -0.5419079 0.833616 -0.1068655
vn -0.8160341 0.5607229 -0.1402785
vn -0.8930376 0.4191909 -0.1635929
vn -0.5805616 0.7973428 -0.1649019
vn -0.4906249 0.8582767 -0.1504929
vn -0.5267391 0.8224809 -0.2146418
vn -0.8701729 0.4520906 -0.1959927
vn -0.9155486 0.3452401 -0.2063493
vn -0.8860315 0.3974659 -0.238682
vn -0.7488629 0.639633 -0.1734185
vn -0.6506745 0.7205241 -0.2397244
vn -0.5790051 0.7599034 -0.2954655
vn -0.8101215 0.5349575 -0.2398409
vn -0.8284931 0.4778811 -0.2919396
vn -0.7143741 0.6270234 -0.310663
vn -0.6459942 0.6751295 -0.3562185
vn -0.7385153 0.5728707 -0.3555479
vn -0.6830851 0.6197119 -0.3864607
vn -0.911635 0.3769893 0.1637096
vn -0.9558879 0.2231896 0.1909578
vn -0.911635 0.3769893 0.1637096
vn -0.953061 0.2367021 0.1888036
vn -0.9716173 0.01752208 0.2359081
vn -0.9711617 0.0119056 0.2381244
vn -0.967627 -0.1082816 0.2279764
vn -0.9677721 -0.1153962 0.2238323
vn -0.9664129 -0.1746077 0.188569
vn -0.9664129 -0.1746077 0.188569
vn -0.4040244 0.9005486 0.160551
vn -0.4742156 0.8703094 0.1329706
vn -0.4742156 0.8703094 0.1329706
vn -0.4077913 0.8991029 0.1591235
vn -0.3109508 0.9309383 0.1914766
vn -0.3128853 0.9303854 0.1910127
vn -0.2481691 0.9569938 0.1502489
vn -0.2524645 0.9550645 0.1552848
vn -0.2119957 0.9712737 0.108098
vn -0.2119957 0.9712737 0.108098
vn -0.1857863 0.8730209 -0.4509079
vn -0.1577964 0.9075778 -0.3891051
vn -0.1577964 0.9075778 -0.3891051
vn -0.1813054 0.8789886 -0.4410301
vn -0.2257341 0.8300615 -0.5099432
vn -0.2239641 0.8311224 -0.5089948
vn -0.2767409 0.7886244 -0.5490775
vn -0.2766993 0.7886639 -0.5490417
vn -0.3111852 0.7543076 -0.5780863
vn -0.3111852 0.7543076 -0.5780863
vn -0.7698711 0.1883942 -0.6097592
vn -0.7239483 0.1885005 -0.6636012
vn -0.7239483 0.1885005 -0.6636012
vn -0.7919382 0.1879735 -0.5809473
vn -0.8460459 0.1406998 -0.5142081
vn -0.8537933 0.1142299 -0.5079256
vn -0.8769652 0.02816671 -0.4797278
vn -0.8822741 0.007004015 -0.4706841
vn -0.8908082 -0.03221126 -0.4532363
vn -0.8908082 -0.03221126 -0.4532363
g SB-PineapplePanel_34_0
f 3/3/3 2/2/2 1/1/1
f 4/4/4 3/3/3 1/1/1
f 1/1/1 5/5/5 4/4/4
f 6/6/6 3/3/3 4/4/4
f 5/5/5 7/7/7 4/4/4
f 7/7/7 5/5/5 8/8/8
f 9/9/9 6/6/6 4/4/4
f 9/9/9 4/4/4 7/7/7
f 10/10/10 6/6/6 9/9/9
f 11/11/11 7/7/7 8/8/8
f 11/11/11 8/8/8 12/12/12
f 13/13/13 11/11/11 12/12/12
f 14/14/14 10/10/10 9/9/9
f 10/10/10 14/14/14 15/15/15
f 14/14/14 16/16/16 15/15/15
f 17/17/17 9/9/9 7/7/7
f 7/7/7 11/11/11 17/17/17
f 14/14/14 9/9/9 17/17/17
f 18/18/18 11/11/11 13/13/13
f 11/11/11 18/18/18 17/17/17
f 19/19/19 18/18/18 13/13/13
f 16/16/16 14/14/14 20/20/20
f 20/20/20 14/14/14 17/17/17
f 20/20/20 17/17/17 18/18/18
f 21/21/21 16/16/16 20/20/20
f 18/18/18 19/19/19 22/22/22
f 22/22/22 20/20/20 18/18/18
f 21/21/21 20/20/20 22/22/22
f 19/19/19 23/23/23 22/22/22
f 24/24/24 21/21/21 22/22/22
f 24/24/24 22/22/22 23/23/23
f 25/25/25 24/24/24 23/23/23
f 28/28/28 27/27/27 26/26/26
f 27/27/27 29/29/29 26/26/26
f 27/27/27 30/30/30 29/29/29
f 30/30/30 31/31/31 29/29/29
f 30/30/30 32/32/32 31/31/31
f 32/32/32 33/33/33 31/31/31
f 32/32/32 34/34/34 33/33/33
f 34/34/34 35/35/35 33/33/33
f 38/38/38 37/37/37 36/36/36
f 39/39/39 38/38/38 36/36/36
f 39/39/39 36/36/36 40/40/40
f 41/41/41 39/39/39 40/40/40
f 41/41/41 40/40/40 42/42/42
f 43/43/43 41/41/41 42/42/42
f 43/43/43 42/42/42 44/44/44
f 42/42/42 45/45/45 44/44/44
f 48/48/48 47/47/47 46/46/46
f 47/47/47 49/49/49 46/46/46
f 46/46/46 49/49/49 50/50/50
f 49/49/49 51/51/51 50/50/50
f 50/50/50 51/51/51 52/52/52
f 53/53/53 50/50/50 52/52/52
f 53/53/53 52/52/52 54/54/54
f 55/55/55 53/53/53 54/54/54
f 58/58/58 57/57/57 56/56/56
f 59/59/59 58/58/58 56/56/56
f 59/59/59 56/56/56 60/60/60
f 61/61/61 59/59/59 60/60/60
f 61/61/61 60/60/60 62/62/62
f 63/63/63 61/61/61 62/62/62
f 63/63/63 62/62/62 64/64/64
f 65/65/65 63/63/63 64/64/64
