g SB-PortholeWindow_2
v -1.485591 2.421924 4.287856
v -1.162189 2.549402 4.169457
v -1.453084 2.419396 4.352039
v -1.505669 2.42935 4.219123
v -1.409399 2.421865 4.409205
v -1.512548 2.44139 4.148481
v -1.356213 2.429234 4.457159
v -1.505962 2.45758 4.078646
v -1.295571 2.441223 4.494055
v -1.486166 2.477299 4.0123
v -1.229805 2.457367 4.518479
v -1.453918 2.49979 3.951993
v -1.161438 2.477049 4.529489
v -1.410461 2.524186 3.900045
v -1.093101 2.499511 4.526662
v -1.357462 2.549552 3.858448
v -1.027419 2.523891 4.510108
v -1.296959 2.574912 3.828804
v -0.966916 2.549251 4.480466
v -1.231277 2.599292 3.812251
v -0.9139166 2.574616 4.43887
v -1.162939 2.621754 3.809425
v -0.870459 2.599014 4.38692
v -1.094573 2.641436 3.820436
v -0.8382119 2.621504 4.326615
v -1.028806 2.657582 3.844858
v -0.8184153 2.641222 4.260268
v -0.9681634 2.669569 3.881756
v -0.8118294 2.657413 4.190433
v -0.914978 2.676938 3.929709
v -0.8187079 2.669453 4.119791
v -0.8712927 2.679407 3.986875
v -0.8387865 2.67688 4.051058
vt 0.9497096 0.854302
vt 0.8778058 0.8399709
vt 0.9455324 0.8680542
vt 0.9511239 0.8399986
vt 0.9387522 0.8807274
vt 0.9497206 0.8256944
vt 0.9296302 0.8918344
vt 0.9455533 0.8119392
vt 0.9185163 0.9009482
vt 0.9387829 0.7992605
vt 0.9058381 0.9077191
vt 0.9296693 0.7881466
vt 0.8920825 0.9118859
vt 0.9185625 0.7790247
vt 0.8777782 0.9132896
vt 0.905889 0.7722441
vt 0.8634749 0.9118755
vt 0.8921368 0.7680669
vt 0.8497224 0.9076979
vt 0.8778335 0.7666526
vt 0.8370493 0.9009175
vt 0.8635291 0.768056
vt 0.8259423 0.8917956
vt 0.8497735 0.7722231
vt 0.8168283 0.8806815
vt 0.8370952 0.7789935
vt 0.8100576 0.8680035
vt 0.8259815 0.7881073
vt 0.8058907 0.8542479
vt 0.8168589 0.7992144
vt 0.8044874 0.8399432
vt 0.810079 0.8118877
vt 0.8059017 0.82564
vn -0.2996105 0.9352396 0.1885751
vn -0.2996136 0.9352393 0.1885715
vn -0.2996147 0.9352387 0.1885727
vn -0.2996136 0.9352391 0.1885726
vn -0.2996126 0.9352391 0.1885739
vn -0.2996162 0.9352391 0.1885683
vn -0.2996147 0.9352384 0.1885737
vn -0.2996154 0.9352391 0.1885692
vn -0.2996187 0.9352381 0.1885691
vn -0.2996146 0.935238 0.1885764
vn -0.2996129 0.9352398 0.1885702
vn -0.2996129 0.9352391 0.1885733
vn -0.2996106 0.9352402 0.1885716
vn -0.2996134 0.9352398 0.1885691
vn -0.2996097 0.9352405 0.1885717
vn -0.2996126 0.9352399 0.1885697
vn -0.2996148 0.9352384 0.1885735
vn -0.2996133 0.9352398 0.188569
vn -0.2996114 0.9352403 0.1885701
vn -0.2996143 0.9352393 0.1885705
vn -0.2996126 0.9352391 0.1885737
vn -0.2996143 0.9352393 0.1885705
vn -0.2996183 0.9352375 0.1885724
vn -0.299619 0.9352381 0.1885687
vn -0.2996125 0.9352407 0.1885659
vn -0.2996176 0.935238 0.1885711
vn -0.2996119 0.9352401 0.18857
vn -0.2996105 0.9352394 0.188576
vn -0.2996149 0.9352396 0.1885682
vn -0.2996108 0.9352394 0.1885753
vn -0.2996114 0.9352397 0.1885727
vn -0.2996149 0.9352391 0.1885705
vn -0.2996109 0.9352398 0.1885731
g SB-PortholeWindow_2_0
f 3/3/3 2/2/2 1/1/1
f 1/1/1 2/2/2 4/4/4
f 5/5/5 2/2/2 3/3/3
f 4/4/4 2/2/2 6/6/6
f 7/7/7 2/2/2 5/5/5
f 6/6/6 2/2/2 8/8/8
f 9/9/9 2/2/2 7/7/7
f 8/8/8 2/2/2 10/10/10
f 11/11/11 2/2/2 9/9/9
f 10/10/10 2/2/2 12/12/12
f 13/13/13 2/2/2 11/11/11
f 12/12/12 2/2/2 14/14/14
f 15/15/15 2/2/2 13/13/13
f 14/14/14 2/2/2 16/16/16
f 17/17/17 2/2/2 15/15/15
f 16/16/16 2/2/2 18/18/18
f 19/19/19 2/2/2 17/17/17
f 18/18/18 2/2/2 20/20/20
f 21/21/21 2/2/2 19/19/19
f 20/20/20 2/2/2 22/22/22
f 23/23/23 2/2/2 21/21/21
f 22/22/22 2/2/2 24/24/24
f 25/25/25 2/2/2 23/23/23
f 24/24/24 2/2/2 26/26/26
f 27/27/27 2/2/2 25/25/25
f 26/26/26 2/2/2 28/28/28
f 29/29/29 2/2/2 27/27/27
f 28/28/28 2/2/2 30/30/30
f 31/31/31 2/2/2 29/29/29
f 30/30/30 2/2/2 32/32/32
f 33/33/33 2/2/2 31/31/31
f 32/32/32 2/2/2 33/33/33
