g SB-PineapplePanel_10
v 1.626344 -1.455089 5.718196
v 1.888132 -1.168208 5.720586
v 1.890148 -1.408742 5.441353
v 1.635934 -1.22058 6.030494
v 1.33339 -1.454993 6.015169
v 1.831227 -0.9085957 6.016694
v 1.340481 -1.220581 6.274717
v 1.042203 -1.405407 6.254557
v 1.578294 -0.9592308 6.274717
v 1.718806 -0.6658629 6.260801
v 1.050706 -1.168595 6.518942
v 0.778167 -1.307101 6.491559
v 0.7922319 -1.04766 6.670367
v 1.282841 -0.9592312 6.518942
v 1.465229 -0.7130451 6.518942
v 1.562539 -0.4496531 6.493481
v 1.280256 -0.4963996 6.667898
v 0.993066 -0.9072461 6.700417
v 0.7248902 -0.783239 6.851947
v 1.169776 -0.7130457 6.700417
v 0.9818305 -0.4949386 6.850548
v 0.8800011 -0.6610605 6.881891
v 0.6040673 -0.5350481 6.965379
v 0.689071 -0.4395186 6.965379
v 0.6040673 -0.5350481 6.965379
v 0.579617 -0.5387907 6.965379
v 0.7248902 -0.783239 6.851947
v 0.692682 -0.7849764 6.844008
v 0.7922319 -1.04766 6.670367
v 0.7503224 -1.046326 6.662533
v 0.778167 -1.307101 6.491559
v 0.7503225 -1.312795 6.481059
v 0.7503225 -1.312795 6.481059
v 0.778167 -1.307101 6.491559
v 1.042203 -1.405407 6.254557
v 1.023285 -1.414768 6.236835
v 1.33339 -1.454993 6.015169
v 1.31306 -1.466753 5.992611
v 1.626344 -1.455089 5.718196
v 1.608513 -1.466753 5.695024
v 1.890148 -1.408742 5.441353
v 1.898288 -1.414767 5.397436
v 1.898288 -1.414767 5.397436
v 1.890148 -1.408742 5.441353
v 1.888132 -1.168208 5.720586
v 1.898288 -1.148298 5.695024
v 1.831227 -0.9085957 6.016694
v 1.840647 -0.8869482 5.992611
v 1.718806 -0.6658629 6.260801
v 1.727582 -0.6407626 6.236835
v 1.562539 -0.4496531 6.493481
v 1.563438 -0.4192015 6.481059
v 1.563438 -0.4192015 6.481059
v 1.562539 -0.4496531 6.493481
v 1.280256 -0.4963996 6.667898
v 1.273662 -0.4711875 6.662533
v 0.9818305 -0.4949386 6.850548
v 0.9782103 -0.471188 6.844008
v 0.689071 -0.4395186 6.965379
v 0.6884349 -0.4192027 6.965379
vt 0.5575675 0.7908195
vt 0.5820786 0.8077633
vt 0.584038 0.7807643
vt 0.5544416 0.8200756
vt 0.5295876 0.805697
vt 0.5760147 0.8372101
vt 0.5286252 0.8319628
vt 0.5047305 0.8205281
vt 0.5503836 0.8465952
vt 0.5680684 0.8634261
vt 0.5047842 0.8470747
vt 0.4839935 0.8385462
vt 0.4857769 0.8621335
vt 0.5247328 0.8584264
vt 0.5424433 0.872185
vt 0.5565804 0.8869752
vt 0.5326867 0.8942053
vt 0.5023318 0.8709114
vt 0.4832324 0.8870291
vt 0.5187065 0.8818548
vt 0.507707 0.9036758
vt 0.4962623 0.8943648
vt 0.4775161 0.909456
vt 0.4858953 0.9151676
vt 0.4775161 0.909456
vt 0.4755893 0.9095173
vt 0.4832324 0.8870291
vt 0.4806818 0.8869488
vt 0.4857769 0.8621335
vt 0.4824785 0.8620923
vt 0.4839935 0.8385462
vt 0.4818426 0.8376494
vt 0.4818426 0.8376494
vt 0.4839935 0.8385462
vt 0.5047305 0.8205281
vt 0.5034321 0.8188543
vt 0.5295876 0.805697
vt 0.5284227 0.8034781
vt 0.5575675 0.7908195
vt 0.5568274 0.7885368
vt 0.584038 0.7807643
vt 0.5860904 0.7779189
vt 0.5860904 0.7779189
vt 0.584038 0.7807643
vt 0.5820786 0.8077633
vt 0.5846545 0.8075863
vt 0.5760147 0.8372101
vt 0.5785756 0.8374727
vt 0.5680684 0.8634261
vt 0.5707215 0.8642092
vt 0.5565804 0.8869752
vt 0.5582478 0.888858
vt 0.5582478 0.888858
vt 0.5565804 0.8869752
vt 0.5326867 0.8942053
vt 0.5332696 0.8961749
vt 0.507707 0.9036758
vt 0.5083153 0.905484
vt 0.4858953 0.9151676
vt 0.4863278 0.916682
vn 0.6030476 -0.6251999 0.4954379
vn 0.6728901 -0.5445966 0.5006332
vn 0.6496759 -0.5967746 0.4709366
vn 0.6123759 -0.5558258 0.5621862
vn 0.4629795 -0.6833764 0.5644881
vn 0.7134577 -0.388608 0.5830625
vn 0.4758688 -0.6025774 0.6406632
vn 0.3507819 -0.6813089 0.642472
vn 0.6369376 -0.4094613 0.653186
vn 0.691415 -0.2708472 0.6697664
vn 0.3489197 -0.5914219 0.726963
vn 0.2585226 -0.6499774 0.7146295
vn 0.2432393 -0.5558373 0.7949085
vn 0.4974789 -0.4518994 0.740474
vn 0.6026866 -0.2689829 0.7512769
vn 0.6368575 -0.1624305 0.7536769
vn 0.5510033 -0.1442967 0.821933
vn 0.3406233 -0.4645236 0.817431
vn 0.1912403 -0.4583727 0.867941
vn 0.4872788 -0.2721752 0.829747
vn 0.4553977 -0.1076935 0.8837507
vn 0.3249744 -0.2857608 0.9015167
vn 0.1774366 -0.4409011 0.8798423
vn 0.2794493 -0.1588645 0.9469266
vn 0.03840575 -0.3528422 0.9348944
vn -0.07972208 -0.4581768 0.8852787
vn -0.1273364 -0.5309064 0.837809
vn -0.1202113 -0.5202349 0.8455204
vn -0.1724712 -0.5698318 0.8034585
vn -0.1724218 -0.5699525 0.8033833
vn -0.1793617 -0.5527292 0.8138303
vn -0.1793617 -0.5527292 0.8138303
vn 0.03834374 -0.9066544 0.420128
vn 0.03834374 -0.9066544 0.420128
vn 0.08711705 -0.9177234 0.3875494
vn 0.08535856 -0.91738 0.3887516
vn 0.196787 -0.9305931 0.3086606
vn 0.1994387 -0.930692 0.3066538
vn 0.3070102 -0.9243069 0.2267192
vn 0.313745 -0.9232059 0.2219344
vn 0.3586896 -0.9140832 0.1891924
vn 0.3586896 -0.9140832 0.1891924
vn 0.9516028 -0.2291795 0.2047655
vn 0.9516028 -0.2291795 0.2047655
vn 0.9546272 -0.1633097 0.2490317
vn 0.9544678 -0.1784167 0.2390787
vn 0.9397081 -0.02967623 0.3406875
vn 0.9426027 -0.04353323 0.3310664
vn 0.9005114 0.09546394 0.4242236
vn 0.9030197 0.0892845 0.4202185
vn 0.8779454 0.1457955 0.4560213
vn 0.8779454 0.1457955 0.4560213
vn 0.4623297 0.3124676 0.8298284
vn 0.4623297 0.3124676 0.8298284
vn 0.4802221 0.3072596 0.8215707
vn 0.481084 0.3070039 0.8211619
vn 0.453467 0.2422935 0.8577071
vn 0.44736 0.2345132 0.8630601
vn 0.3972392 0.1721473 0.9014246
vn 0.3972392 0.1721473 0.9014246
g SB-PineapplePanel_10_0
f 3/3/3 2/2/2 1/1/1
f 2/2/2 4/4/4 1/1/1
f 1/1/1 4/4/4 5/5/5
f 4/4/4 2/2/2 6/6/6
f 4/4/4 7/7/7 5/5/5
f 5/5/5 7/7/7 8/8/8
f 9/9/9 4/4/4 6/6/6
f 4/4/4 9/9/9 7/7/7
f 6/6/6 10/10/10 9/9/9
f 7/7/7 11/11/11 8/8/8
f 12/12/12 8/8/8 11/11/11
f 13/13/13 12/12/12 11/11/11
f 9/9/9 14/14/14 7/7/7
f 7/7/7 14/14/14 11/11/11
f 10/10/10 15/15/15 9/9/9
f 14/14/14 9/9/9 15/15/15
f 10/10/10 16/16/16 15/15/15
f 16/16/16 17/17/17 15/15/15
f 11/11/11 18/18/18 13/13/13
f 14/14/14 18/18/18 11/11/11
f 18/18/18 19/19/19 13/13/13
f 15/15/15 17/17/17 20/20/20
f 20/20/20 14/14/14 15/15/15
f 14/14/14 20/20/20 18/18/18
f 17/17/17 21/21/21 20/20/20
f 18/18/18 22/22/22 19/19/19
f 20/20/20 22/22/22 18/18/18
f 22/22/22 20/20/20 21/21/21
f 22/22/22 23/23/23 19/19/19
f 24/24/24 22/22/22 21/21/21
f 22/22/22 24/24/24 25/25/25
f 27/27/27 25/25/25 26/26/26
f 28/28/28 27/27/27 26/26/26
f 29/29/29 27/27/27 28/28/28
f 30/30/30 29/29/29 28/28/28
f 31/31/31 29/29/29 30/30/30
f 32/32/32 31/31/31 30/30/30
f 35/35/35 34/34/34 33/33/33
f 36/36/36 35/35/35 33/33/33
f 37/37/37 35/35/35 36/36/36
f 38/38/38 37/37/37 36/36/36
f 39/39/39 37/37/37 38/38/38
f 40/40/40 39/39/39 38/38/38
f 41/41/41 39/39/39 40/40/40
f 42/42/42 41/41/41 40/40/40
f 45/45/45 44/44/44 43/43/43
f 46/46/46 45/45/45 43/43/43
f 47/47/47 45/45/45 46/46/46
f 48/48/48 47/47/47 46/46/46
f 49/49/49 47/47/47 48/48/48
f 50/50/50 49/49/49 48/48/48
f 51/51/51 49/49/49 50/50/50
f 52/52/52 51/51/51 50/50/50
f 55/55/55 54/54/54 53/53/53
f 56/56/56 55/55/55 53/53/53
f 57/57/57 55/55/55 56/56/56
f 58/58/58 57/57/57 56/56/56
f 59/59/59 57/57/57 58/58/58
f 60/60/60 59/59/59 58/58/58
