g SB-Path
v 0.6006995 -7.442907 0.00775337
v 0.4012509 -2.463973 0.007753152
v 0.5680765 -2.531308 0.007753155
v 0.4194878 -7.442907 0.00775337
v -0.8634731 -2.432058 0.007753151
v -0.8634733 -7.442907 0.00775337
v -1.041271 -2.495151 0.007753154
v -1.044685 -7.442907 0.00775337
vt 0.32972 0.02190455
vt 0.2962824 0.9780958
vt 0.3297202 0.9780958
vt 0.2962821 0.02190455
vt 0.05954567 0.9780962
vt 0.05954563 0.02190455
vt 0.02610782 0.9780962
vt 0.02610781 0.02190455
vn 0 0 1
vn 0 0 1
vn 0 0 1
vn 0 0 1
vn 0 0 1
vn 0 0 1
vn 0 0 1
vn 0 0 1
g SB-Path_0
f 3/3/3 2/2/2 1/1/1
f 2/2/2 4/4/4 1/1/1
f 2/2/2 5/5/5 4/4/4
f 5/5/5 6/6/6 4/4/4
f 6/6/6 5/5/5 7/7/7
f 8/8/8 6/6/6 7/7/7
