g SB-PineapplePanel_36
v -2.37883 0.02481676 5.698472
v -2.543762 -0.175779 5.402192
v -2.704293 0.04656001 5.081506
v -2.577732 0.2542851 5.420691
v -2.368815 0.4427075 5.718279
v -2.169813 0.2130047 5.996373
v -2.690796 0.5004709 5.081176
v -2.817154 0.294925 4.745578
v -2.123156 0.5907499 6.015867
v -1.929495 0.3692041 6.239389
v -2.48188 0.6888933 5.420691
v -2.748436 0.7618203 4.741661
v -2.872699 0.5503311 4.372812
v -1.841519 0.6650159 6.232758
v -1.708497 0.4773153 6.436799
v -1.953529 0.914043 5.987262
v -2.23622 0.8369358 5.718279
v -2.005248 1.179106 5.68957
v -2.29386 1.098285 5.420691
v -2.011119 1.432569 5.404448
v -2.27913 1.32813 5.089304
v -2.53952 0.9502429 5.081176
v -2.523208 1.179856 4.751792
v -2.727943 0.9939439 4.381275
v -2.873939 0.7961681 4.053987
v -1.976493 1.4546 5.397436
v -2.27913 1.32813 5.089304
v -2.249455 1.352627 5.05792
v -2.011119 1.432569 5.404448
v -2.523208 1.179856 4.751792
v -1.976493 1.188131 5.695024
v -2.495115 1.204584 4.718405
v -2.005248 1.179106 5.68957
v -2.727943 0.9939439 4.381275
v -1.918853 0.9267811 5.992611
v -2.704031 1.016162 4.350009
v -1.953529 0.914043 5.987262
v -2.873939 0.7961681 4.053987
v -1.805789 0.6805952 6.236835
v -2.868176 0.7946004 3.981614
v -1.841519 0.6650159 6.232758
v -2.872699 0.5503311 4.372812
v -1.641644 0.4590338 6.481059
v -2.868176 0.5281308 4.350009
v -1.708497 0.4773153 6.436799
v -2.817154 0.294925 4.745578
v -1.908693 0.3316816 6.246539
v -2.810536 0.2667814 4.718405
v -1.929495 0.3692041 6.239389
v -2.704293 0.04656001 5.081506
v -2.15106 0.1848554 6.00344
v -2.697472 0.01991473 5.05792
v -2.169813 0.2130047 5.996373
v -2.543762 -0.175779 5.402192
v -2.358082 -0.00294337 5.707447
v -2.533327 -0.2023274 5.397436
v -2.37883 0.02481676 5.698472
vt 0.2819914 0.860594
vt 0.2873722 0.8314241
vt 0.2628736 0.8113928
vt 0.2572809 0.8420773
vt 0.2525857 0.8720115
vt 0.276764 0.8914576
vt 0.2311152 0.8235186
vt 0.2358063 0.7929158
vt 0.250313 0.9026592
vt 0.272389 0.9199143
vt 0.2275555 0.8558792
vt 0.203504 0.8072695
vt 0.2069451 0.7742082
vt 0.2507476 0.9301809
vt 0.2695504 0.9431702
vt 0.2263646 0.9162787
vt 0.225198 0.8863828
vt 0.1987461 0.9029696
vt 0.1988819 0.8726721
vt 0.1724319 0.8914089
vt 0.1716855 0.8594173
vt 0.1999531 0.8397759
vt 0.1731534 0.8259025
vt 0.1756799 0.7910268
vt 0.1802807 0.7612907
vt 0.1698269 0.8932934
vt 0.1716855 0.8594173
vt 0.167861 0.8594596
vt 0.1724319 0.8914089
vt 0.1731534 0.8259025
vt 0.1977687 0.905119
vt 0.1693507 0.8254464
vt 0.1987461 0.9029696
vt 0.1756799 0.7910268
vt 0.2252306 0.9188994
vt 0.1723436 0.7902136
vt 0.2263646 0.9162787
vt 0.1802807 0.7612907
vt 0.2495536 0.932933
vt 0.1777024 0.7563239
vt 0.2507476 0.9301809
vt 0.2069451 0.7742082
vt 0.2722139 0.9489208
vt 0.207791 0.7719201
vt 0.2695504 0.9431702
vt 0.2358063 0.7929158
vt 0.2756326 0.9206966
vt 0.2371866 0.7902269
vt 0.272389 0.9199143
vt 0.2628736 0.8113928
vt 0.2793283 0.892132
vt 0.2644636 0.8091072
vt 0.276764 0.8914576
vt 0.2873722 0.8314241
vt 0.2846627 0.861287
vt 0.2894861 0.8307204
vt 0.2819914 0.860594
vn -0.8418302 -0.03677998 0.538488
vn -0.8822227 -0.0895685 0.4622344
vn -0.9243354 -0.01301634 0.381359
vn -0.8860953 0.03773249 0.4619645
vn -0.820947 0.1328569 0.5553332
vn -0.7793137 0.03744091 0.6255145
vn -0.9195302 0.1641522 0.3570971
vn -0.9530793 0.1017686 0.2851014
vn -0.7285073 0.2385508 0.642161
vn -0.7001484 0.1634751 0.695031
vn -0.8443204 0.2834351 0.4547389
vn -0.9149244 0.3011269 0.2687674
vn -0.9461112 0.2449958 0.2117797
vn -0.6663703 0.2754412 0.69288
vn -0.6663849 0.2141965 0.7141784
vn -0.6605668 0.4336719 0.6128459
vn -0.7430347 0.3868951 0.5460876
vn -0.6679309 0.5308725 0.521577
vn -0.7409635 0.4960158 0.4527046
vn -0.6701441 0.5887778 0.4519377
vn -0.7433357 0.5531076 0.3761967
vn -0.8366609 0.4167664 0.3553934
vn -0.8280487 0.4824465 0.2856235
vn -0.9091396 0.358043 0.2127686
vn -0.9351646 0.3016118 0.1857352
vn -0.4359065 0.8000235 0.4122474
vn -0.5556436 0.8228728 0.1189143
vn -0.5549898 0.8232179 0.1195778
vn -0.4387006 0.8021228 0.4051428
vn -0.6318312 0.7740275 0.04087372
vn -0.3357556 0.6874682 0.6439377
vn -0.6346755 0.7718476 0.03792372
vn -0.33571 0.6875741 0.6438483
vn -0.702091 0.7111892 -0.03575379
vn -0.3382806 0.6257077 0.7028913
vn -0.7072358 0.7057461 -0.04171375
vn -0.338741 0.6303 0.6985532
vn -0.9471321 0.3091232 -0.08592737
vn -0.3352616 0.5772989 0.7445304
vn -0.9447034 0.3164761 -0.0858976
vn -0.3349213 0.5781455 0.7440267
vn -0.9851204 -0.1679488 -0.0364843
vn -0.5125269 0.1873597 0.8379812
vn -0.9865785 -0.1570843 -0.04457918
vn -0.5076482 0.2025786 0.8374098
vn -0.9622703 -0.2681096 0.0464001
vn -0.6058415 -0.2103617 0.7672704
vn -0.964433 -0.2612516 0.04020806
vn -0.608126 -0.2106864 0.7653717
vn -0.9258193 -0.3527697 0.1356918
vn -0.654152 -0.2510214 0.7134939
vn -0.9270048 -0.3506442 0.1330817
vn -0.6581595 -0.2562253 0.7079369
vn -0.826967 -0.3828134 0.4118003
vn -0.691865 -0.3213273 0.6465846
vn -0.8223693 -0.3819692 0.421673
vn -0.6925141 -0.3245087 0.6442966
g SB-PineapplePanel_36_0
f 3/3/3 2/2/2 1/1/1
f 4/4/4 3/3/3 1/1/1
f 5/5/5 4/4/4 1/1/1
f 6/6/6 5/5/5 1/1/1
f 4/4/4 7/7/7 3/3/3
f 7/7/7 8/8/8 3/3/3
f 5/5/5 6/6/6 9/9/9
f 6/6/6 10/10/10 9/9/9
f 4/4/4 5/5/5 11/11/11
f 7/7/7 4/4/4 11/11/11
f 8/8/8 7/7/7 12/12/12
f 13/13/13 8/8/8 12/12/12
f 14/14/14 9/9/9 10/10/10
f 15/15/15 14/14/14 10/10/10
f 14/14/14 16/16/16 9/9/9
f 9/9/9 17/17/17 5/5/5
f 16/16/16 17/17/17 9/9/9
f 17/17/17 11/11/11 5/5/5
f 16/16/16 18/18/18 17/17/17
f 18/18/18 19/19/19 17/17/17
f 17/17/17 19/19/19 11/11/11
f 19/19/19 18/18/18 20/20/20
f 21/21/21 19/19/19 20/20/20
f 11/11/11 22/22/22 7/7/7
f 19/19/19 22/22/22 11/11/11
f 19/19/19 21/21/21 22/22/22
f 21/21/21 23/23/23 22/22/22
f 22/22/22 12/12/12 7/7/7
f 22/22/22 23/23/23 12/12/12
f 23/23/23 24/24/24 12/12/12
f 12/12/12 24/24/24 13/13/13
f 24/24/24 25/25/25 13/13/13
f 28/28/28 27/27/27 26/26/26
f 27/27/27 29/29/29 26/26/26
f 30/30/30 27/27/27 28/28/28
f 26/26/26 29/29/29 31/31/31
f 32/32/32 30/30/30 28/28/28
f 29/29/29 33/33/33 31/31/31
f 34/34/34 30/30/30 32/32/32
f 31/31/31 33/33/33 35/35/35
f 36/36/36 34/34/34 32/32/32
f 33/33/33 37/37/37 35/35/35
f 38/38/38 34/34/34 36/36/36
f 35/35/35 37/37/37 39/39/39
f 40/40/40 38/38/38 36/36/36
f 37/37/37 41/41/41 39/39/39
f 42/42/42 38/38/38 40/40/40
f 39/39/39 41/41/41 43/43/43
f 44/44/44 42/42/42 40/40/40
f 41/41/41 45/45/45 43/43/43
f 46/46/46 42/42/42 44/44/44
f 43/43/43 45/45/45 47/47/47
f 48/48/48 46/46/46 44/44/44
f 45/45/45 49/49/49 47/47/47
f 50/50/50 46/46/46 48/48/48
f 47/47/47 49/49/49 51/51/51
f 52/52/52 50/50/50 48/48/48
f 49/49/49 53/53/53 51/51/51
f 54/54/54 50/50/50 52/52/52
f 51/51/51 53/53/53 55/55/55
f 56/56/56 54/54/54 52/52/52
f 53/53/53 57/57/57 55/55/55
f 57/57/57 54/54/54 56/56/56
f 55/55/55 57/57/57 56/56/56
