g SB-PineapplePanel_18
v 2.764179 -0.997147 3.572886
v 2.816853 -0.7621183 3.914292
v 2.916903 -0.5383559 3.574476
v 2.900923 -0.7869343 3.215336
v 2.664114 -1.247417 3.194137
v 2.981258 -0.2751909 3.201964
v 2.807268 -1.047713 2.851285
v 2.515497 -1.492669 2.834318
v 2.979207 -0.5313078 2.850976
v 3.005232 -0.009889968 2.836779
v 2.67135 -1.298938 2.492329
v 2.312878 -1.724277 2.499138
v 2.455605 -1.508338 2.158955
v 2.89736 -0.7977439 2.492087
v 2.76532 -1.051558 2.14369
v 2.565275 -1.25628 1.810977
v 3.012587 -0.2658581 2.491984
v 2.934402 -0.5334975 2.143305
v 2.806259 -0.7896472 1.789193
v 2.64187 -1.007887 1.47267
v 2.954912 -0.0004061889 2.161891
v 2.98315 0.2443039 2.496938
v 2.878598 -0.2688296 1.8073
v 2.793079 -0.5378876 1.473134
v 2.656886 -0.7630021 1.144207
v 2.536739 -1.271352 1.797328
v 2.64187 -1.007887 1.47267
v 2.616538 -1.022561 1.459491
v 2.565275 -1.25628 1.810977
v 2.656886 -0.7630021 1.144207
v 2.440127 -1.515567 2.151897
v 2.639056 -0.7586331 1.113024
v 2.455605 -1.508338 2.158955
v 2.793079 -0.5378876 1.473134
v 2.293379 -1.736734 2.50032
v 2.779777 -0.5117701 1.459311
v 2.312878 -1.724277 2.499138
v 2.878598 -0.2688296 1.8073
v 2.478487 -1.510379 2.859076
v 2.867207 -0.2490769 1.797104
v 2.515497 -1.492669 2.834318
v 2.954912 -0.0004061889 2.161891
v 2.625256 -1.26814 3.222691
v 2.941981 0.01994395 2.151404
v 2.664114 -1.247417 3.194137
v 2.98315 0.2443039 2.496938
v 2.73233 -1.016116 3.598495
v 2.962933 0.2918276 2.499606
v 2.764179 -0.997147 3.572886
v 3.005232 -0.009889968 2.836779
v 2.789969 -0.754766 3.981614
v 2.988269 0.01992293 2.858589
v 2.816853 -0.7621183 3.914292
v 2.981258 -0.2751909 3.201964
v 2.903034 -0.5085801 3.598495
v 2.967293 -0.2484273 3.222539
v 2.916903 -0.5383559 3.574476
vt 0.09662604 0.5699559
vt 0.1158438 0.5939507
vt 0.1334429 0.5686601
vt 0.1140927 0.5419633
vt 0.07492201 0.5420663
vt 0.153159 0.5398559
vt 0.09244157 0.5154549
vt 0.0523643 0.5153188
vt 0.1330206 0.5140049
vt 0.1721374 0.5112534
vt 0.07053705 0.4892035
vt 0.02927623 0.4902066
vt 0.04796045 0.4641034
vt 0.1113389 0.4880577
vt 0.08942726 0.4626415
vt 0.06821459 0.4371475
vt 0.1516341 0.4864214
vt 0.1300304 0.4612445
vt 0.1080261 0.4352269
vt 0.08760649 0.4111707
vt 0.1700826 0.460202
vt 0.1892111 0.4845912
vt 0.1479524 0.43397
vt 0.1249946 0.4098645
vt 0.1048015 0.3865967
vt 0.06590174 0.4357975
vt 0.08760649 0.4111707
vt 0.08559311 0.4097963
vt 0.06821459 0.4371475
vt 0.1048015 0.3865967
vt 0.04671087 0.4634527
vt 0.1046118 0.3838107
vt 0.04796045 0.4641034
vt 0.1249946 0.4098645
vt 0.02749371 0.4902928
vt 0.1268577 0.4082587
vt 0.02927623 0.4902066
vt 0.1479524 0.43397
vt 0.04939757 0.517454
vt 0.1494721 0.4328105
vt 0.0523643 0.5153188
vt 0.1700826 0.460202
vt 0.07185399 0.5446752
vt 0.1717359 0.4590707
vt 0.07492201 0.5420663
vt 0.1892111 0.4845912
vt 0.09419399 0.572369
vt 0.1931722 0.4844559
vt 0.09662604 0.5699559
vt 0.1721374 0.5112534
vt 0.1159617 0.5995519
vt 0.1747487 0.5129425
vt 0.1158438 0.5939507
vt 0.153159 0.5398559
vt 0.1357144 0.5707497
vt 0.1553583 0.541568
vt 0.1334429 0.5686601
vn 0.922149 -0.3710282 0.1094502
vn 0.9413164 -0.3137795 0.1243619
vn 0.9616143 -0.2519196 0.1087857
vn 0.9472995 -0.3114238 0.07509202
vn 0.8655131 -0.4958982 0.07051278
vn 0.9915155 -0.1111094 0.06746691
vn 0.8997743 -0.4358562 0.02087222
vn 0.8064283 -0.5913057 0.005569279
vn 0.9829534 -0.1830602 0.01707493
vn 0.9999779 -0.005276135 -0.004054266
vn 0.8386457 -0.5418662 -0.0552663
vn 0.7631726 -0.644039 -0.05273753
vn 0.7940899 -0.5969416 -0.1143761
vn 0.9480818 -0.3123974 -0.05957161
vn 0.8899416 -0.4358226 -0.1343973
vn 0.8469675 -0.5009604 -0.1780024
vn 0.9955111 -0.06204747 -0.07147032
vn 0.9740272 -0.1709787 -0.1484491
vn 0.9349616 -0.2995836 -0.1899909
vn 0.9059715 -0.3663749 -0.2120972
vn 0.9896958 0.005996404 -0.1430602
vn 0.9956042 0.05815959 -0.07341506
vn 0.9760687 -0.08752865 -0.1990691
vn 0.949051 -0.2274181 -0.2181356
vn 0.9271538 -0.2980624 -0.2270346
vn 0.5681432 -0.7316201 -0.3767564
vn 0.6028113 -0.6780499 -0.4205555
vn 0.6021302 -0.6795017 -0.4191855
vn 0.5704712 -0.7290686 -0.3781818
vn 0.8192359 -0.2555575 -0.5133644
vn 0.5275517 -0.7821887 -0.3314668
vn 0.8151513 -0.269149 -0.5129203
vn 0.5317624 -0.7767502 -0.3374726
vn 0.8675374 0.2121026 -0.4498791
vn 0.5424482 -0.8395846 -0.02911315
vn 0.8677315 0.2134156 -0.448883
vn 0.5421654 -0.8395924 -0.03378231
vn 0.8653132 0.2760819 -0.4183442
vn 0.5601668 -0.7883101 0.2545199
vn 0.8645909 0.2788222 -0.41802
vn 0.5623683 -0.7860028 0.2567907
vn 0.8583197 0.3408166 -0.3835771
vn 0.6077488 -0.7393126 0.2899281
vn 0.8583494 0.345082 -0.379677
vn 0.6070431 -0.7400275 0.2895826
vn 0.918542 0.3887844 -0.07160512
vn 0.6551878 -0.682027 0.3249123
vn 0.919488 0.3885258 -0.05991251
vn 0.6522408 -0.6862467 0.3219434
vn 0.9111857 0.3317629 0.2442824
vn 0.8736146 -0.2968095 0.3856185
vn 0.9111385 0.3320866 0.2440184
vn 0.8780334 -0.2831073 0.3858854
vn 0.9219206 0.2566097 0.2901962
vn 0.9264915 0.1692304 0.3361166
vn 0.9224249 0.2530444 0.2917208
vn 0.9267641 0.1766206 0.331532
g SB-PineapplePanel_18_0
f 3/3/3 2/2/2 1/1/1
f 4/4/4 3/3/3 1/1/1
f 4/4/4 1/1/1 5/5/5
f 3/3/3 4/4/4 6/6/6
f 7/7/7 4/4/4 5/5/5
f 7/7/7 5/5/5 8/8/8
f 4/4/4 9/9/9 6/6/6
f 9/9/9 4/4/4 7/7/7
f 10/10/10 6/6/6 9/9/9
f 11/11/11 7/7/7 8/8/8
f 8/8/8 12/12/12 11/11/11
f 12/12/12 13/13/13 11/11/11
f 14/14/14 9/9/9 7/7/7
f 14/14/14 7/7/7 11/11/11
f 15/15/15 11/11/11 13/13/13
f 15/15/15 14/14/14 11/11/11
f 16/16/16 15/15/15 13/13/13
f 17/17/17 10/10/10 9/9/9
f 9/9/9 14/14/14 17/17/17
f 18/18/18 14/14/14 15/15/15
f 14/14/14 18/18/18 17/17/17
f 19/19/19 15/15/15 16/16/16
f 19/19/19 18/18/18 15/15/15
f 20/20/20 19/19/19 16/16/16
f 10/10/10 17/17/17 21/21/21
f 21/21/21 17/17/17 18/18/18
f 22/22/22 10/10/10 21/21/21
f 23/23/23 21/21/21 18/18/18
f 18/18/18 19/19/19 23/23/23
f 19/19/19 24/24/24 23/23/23
f 24/24/24 19/19/19 20/20/20
f 25/25/25 24/24/24 20/20/20
f 28/28/28 27/27/27 26/26/26
f 27/27/27 29/29/29 26/26/26
f 30/30/30 27/27/27 28/28/28
f 26/26/26 29/29/29 31/31/31
f 32/32/32 30/30/30 28/28/28
f 29/29/29 33/33/33 31/31/31
f 34/34/34 30/30/30 32/32/32
f 31/31/31 33/33/33 35/35/35
f 36/36/36 34/34/34 32/32/32
f 33/33/33 37/37/37 35/35/35
f 38/38/38 34/34/34 36/36/36
f 35/35/35 37/37/37 39/39/39
f 40/40/40 38/38/38 36/36/36
f 37/37/37 41/41/41 39/39/39
f 42/42/42 38/38/38 40/40/40
f 39/39/39 41/41/41 43/43/43
f 44/44/44 42/42/42 40/40/40
f 41/41/41 45/45/45 43/43/43
f 46/46/46 42/42/42 44/44/44
f 43/43/43 45/45/45 47/47/47
f 48/48/48 46/46/46 44/44/44
f 45/45/45 49/49/49 47/47/47
f 50/50/50 46/46/46 48/48/48
f 47/47/47 49/49/49 51/51/51
f 52/52/52 50/50/50 48/48/48
f 49/49/49 53/53/53 51/51/51
f 54/54/54 50/50/50 52/52/52
f 51/51/51 53/53/53 55/55/55
f 56/56/56 54/54/54 52/52/52
f 53/53/53 57/57/57 55/55/55
f 57/57/57 54/54/54 56/56/56
f 55/55/55 57/57/57 56/56/56
