g KK-DoorHandle_1
v -1.672987 -2.266863 1.656268
v -1.67677 -2.262324 1.656266
v -1.672987 -2.262324 1.660564
v -1.676772 -2.262324 1.465139
v -1.67299 -2.266864 1.465137
v -1.672989 -2.262324 1.460839
v -1.221573 -2.262324 1.460839
v -1.221573 -2.266864 1.465139
v -1.21779 -2.262324 1.465138
v -1.21779 -2.262324 1.656266
v -1.221572 -2.266864 1.656266
v -1.221572 -2.262324 1.660566
v -1.67299 -2.266864 1.465137
v -1.672987 -2.266863 1.656268
v -1.221572 -2.266864 1.656266
v -1.221573 -2.266864 1.465139
v -1.676772 -2.237198 1.46514
v -1.67677 -2.237198 1.656266
v -1.67677 -2.262324 1.656266
v -1.676772 -2.262324 1.465139
v -1.221573 -2.237198 1.460842
v -1.672989 -2.237198 1.460839
v -1.672989 -2.262324 1.460839
v -1.221573 -2.262324 1.460839
v -1.21779 -2.237198 1.656266
v -1.21779 -2.237198 1.465138
v -1.21779 -2.262324 1.465138
v -1.21779 -2.262324 1.656266
v -1.672987 -2.237199 1.660565
v -1.221573 -2.237198 1.660565
v -1.221572 -2.262324 1.660566
v -1.672987 -2.262324 1.660564
v -1.606154 -2.232658 1.576031
v -1.606154 -2.232659 1.545374
v -1.606155 -2.155567 1.545372
v -1.606154 -2.155567 1.57603
v -1.292189 -2.232659 1.580331
v -1.602371 -2.232658 1.580331
v -1.602371 -2.155566 1.580327
v -1.292188 -2.155566 1.580328
v -1.288406 -2.232659 1.545375
v -1.288405 -2.232658 1.576031
v -1.288405 -2.155567 1.57603
v -1.288406 -2.155567 1.545371
v -1.602371 -2.232659 1.541075
v -1.292189 -2.232659 1.541076
v -1.292189 -2.155567 1.541077
v -1.602371 -2.155567 1.541074
v -1.672987 -2.237199 1.660565
v -1.67677 -2.237198 1.656266
v -1.672987 -2.232659 1.650189
v -1.667637 -2.232659 1.656266
v -1.66764 -2.232659 1.465139
v -1.672989 -2.232659 1.471216
v -1.676772 -2.237198 1.46514
v -1.672989 -2.237198 1.460839
v -1.226923 -2.232658 1.656266
v -1.221572 -2.232659 1.650188
v -1.21779 -2.237198 1.656266
v -1.221573 -2.237198 1.660565
v -1.221573 -2.232659 1.471215
v -1.226923 -2.232659 1.465136
v -1.221573 -2.237198 1.460842
v -1.21779 -2.237198 1.465138
v -1.67299 -2.266864 1.465137
v -1.676772 -2.262324 1.465139
v -1.67677 -2.262324 1.656266
v -1.672987 -2.266863 1.656268
v -1.221573 -2.266864 1.465139
v -1.221573 -2.262324 1.460839
v -1.672989 -2.262324 1.460839
v -1.67299 -2.266864 1.465137
v -1.221572 -2.266864 1.656266
v -1.21779 -2.262324 1.656266
v -1.21779 -2.262324 1.465138
v -1.221573 -2.266864 1.465139
v -1.672987 -2.266863 1.656268
v -1.672987 -2.262324 1.660564
v -1.221572 -2.262324 1.660566
v -1.221572 -2.266864 1.656266
v -1.676772 -2.262324 1.465139
v -1.672989 -2.262324 1.460839
v -1.672989 -2.237198 1.460839
v -1.676772 -2.237198 1.46514
v -1.221573 -2.262324 1.460839
v -1.21779 -2.262324 1.465138
v -1.21779 -2.237198 1.465138
v -1.221573 -2.237198 1.460842
v -1.21779 -2.262324 1.656266
v -1.221572 -2.262324 1.660566
v -1.221573 -2.237198 1.660565
v -1.21779 -2.237198 1.656266
v -1.672987 -2.262324 1.660564
v -1.67677 -2.262324 1.656266
v -1.67677 -2.237198 1.656266
v -1.672987 -2.237199 1.660565
v -1.672987 -2.232659 1.650189
v -1.67677 -2.237198 1.656266
v -1.676772 -2.237198 1.46514
v -1.672989 -2.232659 1.471216
v -1.226923 -2.232658 1.656266
v -1.221573 -2.237198 1.660565
v -1.672987 -2.237199 1.660565
v -1.667637 -2.232659 1.656266
v -1.221573 -2.232659 1.471215
v -1.21779 -2.237198 1.465138
v -1.21779 -2.237198 1.656266
v -1.221572 -2.232659 1.650188
v -1.66764 -2.232659 1.465139
v -1.672989 -2.237198 1.460839
v -1.221573 -2.237198 1.460842
v -1.226923 -2.232659 1.465136
v -1.606154 -2.155567 1.57603
v -1.602371 -2.155566 1.580327
v -1.602371 -2.232658 1.580331
v -1.606154 -2.232658 1.576031
v -1.292188 -2.155566 1.580328
v -1.288405 -2.155567 1.57603
v -1.288405 -2.232658 1.576031
v -1.292189 -2.232659 1.580331
v -1.288406 -2.155567 1.545371
v -1.292189 -2.155567 1.541077
v -1.292189 -2.232659 1.541076
v -1.288406 -2.232659 1.545375
v -1.602371 -2.155567 1.541074
v -1.606155 -2.155567 1.545372
v -1.606154 -2.232659 1.545374
v -1.602371 -2.232659 1.541075
v -1.66764 -2.232659 1.465139
v -1.292189 -2.232659 1.541076
v -1.602371 -2.232659 1.541075
v -1.226923 -2.232659 1.465136
v -1.672989 -2.232659 1.471216
v -1.288406 -2.232659 1.545375
v -1.606154 -2.232659 1.545374
v -1.221573 -2.232659 1.471215
v -1.672987 -2.232659 1.650189
v -1.288405 -2.232658 1.576031
v -1.606154 -2.232658 1.576031
v -1.221572 -2.232659 1.650188
v -1.667637 -2.232659 1.656266
v -1.292189 -2.232659 1.580331
v -1.602371 -2.232658 1.580331
v -1.226923 -2.232658 1.656266
vt 0.8245405 0.3959478
vt 0.8245696 0.3965118
vt 0.8251171 0.3964243
vt 0.8050758 0.3965372
vt 0.8049617 0.3959658
vt 0.8045046 0.3965246
vt 0.8045117 0.3498369
vt 0.8050012 0.3498595
vt 0.8048069 0.3493026
vt 0.8245037 0.3492827
vt 0.8243544 0.3498496
vt 0.8248095 0.3498098
vt 0.8049617 0.3959658
vt 0.8245405 0.3959478
vt 0.8243544 0.3498496
vt 0.8050012 0.3498595
vt 0.8051608 0.3990098
vt 0.824681 0.3989768
vt 0.8245696 0.3965118
vt 0.8050758 0.3965372
vt 0.8020186 0.3497784
vt 0.8017411 0.3959247
vt 0.8043122 0.3959498
vt 0.8045117 0.3498369
vt 0.8244106 0.3467153
vt 0.8048846 0.3467373
vt 0.8048069 0.3493026
vt 0.8245037 0.3492827
vt 0.8277401 0.3958856
vt 0.8272908 0.3497381
vt 0.8248095 0.3498098
vt 0.8251744 0.3959238
vt 0.8416401 0.3832552
vt 0.841647 0.3863842
vt 0.8495157 0.3863842
vt 0.8495087 0.3832552
vt 0.8413212 0.351032
vt 0.8416319 0.3826896
vt 0.8495003 0.3826521
vt 0.8491896 0.3509943
vt 0.8413101 0.3473
vt 0.8413143 0.3504291
vt 0.8491828 0.3504287
vt 0.8491787 0.3472995
vt 0.841653 0.3869854
vt 0.8419266 0.4186602
vt 0.8497949 0.418593
vt 0.8495213 0.3869518
vt 0.8252564 0.3991874
vt 0.824681 0.3989768
vt 0.8240964 0.3994668
vt 0.8247311 0.3999076
vt 0.8052363 0.3999394
vt 0.8058291 0.3994683
vt 0.8051608 0.3990098
vt 0.8046447 0.3992603
vt 0.8247505 0.444883
vt 0.8241623 0.4454121
vt 0.8248361 0.4459385
vt 0.8253347 0.4454614
vt 0.8058969 0.4454231
vt 0.8052859 0.4449125
vt 0.8047224 0.4455073
vt 0.8052369 0.4459634
vt 0.8049617 0.3959658
vt 0.8050758 0.3965372
vt 0.8245696 0.3965118
vt 0.8245405 0.3959478
vt 0.8050012 0.3498595
vt 0.8045117 0.3498369
vt 0.8043122 0.3959498
vt 0.8049617 0.3959658
vt 0.8243544 0.3498496
vt 0.8245037 0.3492827
vt 0.8048069 0.3493026
vt 0.8050012 0.3498595
vt 0.8245405 0.3959478
vt 0.8251744 0.3959238
vt 0.8248095 0.3498098
vt 0.8243544 0.3498496
vt 0.8050758 0.3965372
vt 0.8045046 0.3965246
vt 0.8046447 0.3992603
vt 0.8051608 0.3990098
vt 0.8045117 0.3498369
vt 0.8048069 0.3493026
vt 0.8020864 0.3491649
vt 0.8020186 0.3497784
vt 0.8245037 0.3492827
vt 0.8248095 0.3498098
vt 0.8272908 0.3497381
vt 0.8272173 0.3491221
vt 0.8251171 0.3964243
vt 0.8245696 0.3965118
vt 0.824681 0.3989768
vt 0.8252564 0.3991874
vt 0.8240964 0.3994668
vt 0.824681 0.3989768
vt 0.8051608 0.3990098
vt 0.8058291 0.3994683
vt 0.8247505 0.444883
vt 0.8253347 0.4454614
vt 0.8252564 0.3991874
vt 0.8247311 0.3999076
vt 0.8058969 0.4454231
vt 0.8052369 0.4459634
vt 0.8248361 0.4459385
vt 0.8241623 0.4454121
vt 0.8052363 0.3999394
vt 0.8046447 0.3992603
vt 0.8047224 0.4455073
vt 0.8052859 0.4449125
vt 0.8495087 0.3832552
vt 0.8495003 0.3826521
vt 0.8416319 0.3826896
vt 0.8416401 0.3832552
vt 0.8491896 0.3509943
vt 0.8491828 0.3504287
vt 0.8413143 0.3504291
vt 0.8413212 0.351032
vt 0.8491787 0.3472995
vt 0.8491773 0.3467153
vt 0.8413087 0.3467154
vt 0.8413101 0.3473
vt 0.8495213 0.3869518
vt 0.8495157 0.3863842
vt 0.841647 0.3863842
vt 0.841653 0.3869854
vt 0.8052363 0.3999394
vt 0.813027 0.4382526
vt 0.813002 0.4066117
vt 0.8052859 0.4449125
vt 0.8058291 0.3994683
vt 0.8134695 0.4386071
vt 0.8134143 0.4062652
vt 0.8058969 0.4454231
vt 0.8240964 0.3994668
vt 0.8165846 0.438598
vt 0.8165349 0.406257
vt 0.8241623 0.4454121
vt 0.8247311 0.3999076
vt 0.8170004 0.4382298
vt 0.8169808 0.40659
vt 0.8247505 0.444883
vn -0.6365083 -0.5300831 0.5602402
vn -0.6365083 -0.5300831 0.5602401
vn -0.6365083 -0.5300831 0.5602401
vn -0.636602 -0.5301474 -0.5600728
vn -0.636602 -0.5301474 -0.5600728
vn -0.636602 -0.5301474 -0.5600728
vn 0.6364223 -0.5304343 -0.5600054
vn 0.6364223 -0.5304344 -0.5600054
vn 0.6364223 -0.5304344 -0.5600054
vn 0.6364872 -0.5304278 0.5599378
vn 0.6364872 -0.5304278 0.5599378
vn 0.6364872 -0.5304278 0.5599378
vn 0 -1 1.596697E-06
vn 0 -1 1.596697E-06
vn 0 -1 1.596697E-06
vn 0 -1 1.596697E-06
vn -1 3.036104E-06 9.979484E-06
vn -1 3.036105E-06 9.979484E-06
vn -1 3.036104E-06 9.979485E-06
vn -1 3.036104E-06 9.979484E-06
vn 3.380181E-06 6.072938E-05 -1
vn 3.380181E-06 6.072938E-05 -1
vn 3.380181E-06 6.072938E-05 -1
vn 3.380182E-06 6.072938E-05 -1
vn 1 1.214593E-05 1.596692E-06
vn 1 1.214593E-05 1.596692E-06
vn 1 1.214593E-05 1.596693E-06
vn 1 1.214593E-05 1.596693E-06
vn -2.704188E-06 2.429209E-05 1
vn -2.704189E-06 2.429209E-05 1
vn -2.704188E-06 2.429209E-05 1
vn -2.704188E-06 2.429209E-05 1
vn -1 -5.937829E-06 4.97718E-06
vn -1 -5.937829E-06 4.977179E-06
vn -1 -5.937829E-06 4.977179E-06
vn -1 -5.937829E-06 4.977179E-06
vn -9.83826E-07 4.35444E-05 1
vn -9.83826E-07 4.35444E-05 1
vn -9.838261E-07 4.35444E-05 1
vn -9.83826E-07 4.35444E-05 1
vn 1 0 -1.990882E-05
vn 1 0 -1.990882E-05
vn 1 0 -1.990882E-05
vn 1 0 -1.990882E-05
vn 6.887017E-06 -3.958603E-06 -1
vn 6.887017E-06 -3.958603E-06 -1
vn 6.887017E-06 -3.958603E-06 -1
vn 6.887017E-06 -3.958603E-06 -1
vn -0.4143853 0.8337715 0.3648423
vn -0.4143853 0.8337715 0.3648423
vn -0.4143853 0.8337715 0.3648423
vn -0.4143853 0.8337715 0.3648423
vn -0.414467 0.8337824 -0.3647246
vn -0.414467 0.8337824 -0.3647246
vn -0.414467 0.8337824 -0.3647246
vn -0.414467 0.8337824 -0.3647246
vn 0.4144883 0.8337477 0.3647798
vn 0.4144884 0.8337477 0.3647798
vn 0.4144883 0.8337477 0.3647797
vn 0.4144883 0.8337477 0.3647797
vn 0.4144627 0.833738 -0.3648309
vn 0.4144627 0.833738 -0.3648309
vn 0.4144627 0.833738 -0.3648309
vn 0.4144627 0.833738 -0.3648309
vn -0.768271 -0.6401247 9.966782E-06
vn -0.768271 -0.6401246 9.966781E-06
vn -0.768271 -0.6401246 9.966781E-06
vn -0.768271 -0.6401246 9.966782E-06
vn 1.821155E-06 -0.687595 -0.7260944
vn 1.821155E-06 -0.687595 -0.7260944
vn 1.821155E-06 -0.687595 -0.7260944
vn 1.821155E-06 -0.687595 -0.7260944
vn 0.768235 -0.640168 -3.575568E-07
vn 0.768235 -0.640168 -3.575568E-07
vn 0.768235 -0.640168 -3.575568E-07
vn 0.768235 -0.640168 -3.575568E-07
vn -2.323318E-07 -0.6875238 0.7261618
vn -2.323317E-07 -0.6875238 0.7261617
vn -2.323317E-07 -0.6875238 0.7261618
vn -2.323317E-07 -0.6875238 0.7261618
vn -0.7508445 2.060401E-05 -0.6604789
vn -0.7508445 2.060402E-05 -0.6604789
vn -0.7508445 2.060402E-05 -0.6604789
vn -0.7508445 2.060401E-05 -0.6604789
vn 0.7506353 4.012244E-05 -0.6607168
vn 0.7506353 4.012244E-05 -0.6607168
vn 0.7506353 4.012244E-05 -0.6607168
vn 0.7506353 4.012244E-05 -0.6607168
vn 0.7507648 5.488968E-05 0.6605697
vn 0.7507647 5.488968E-05 0.6605697
vn 0.7507648 5.488968E-05 0.6605697
vn 0.7507647 5.488968E-05 0.6605697
vn -0.7506254 -1.376759E-05 0.6607279
vn -0.7506255 -1.376759E-05 0.6607279
vn -0.7506255 -1.376759E-05 0.6607279
vn -0.7506255 -1.376759E-05 0.6607279
vn -0.7682139 0.6401932 6.704241E-06
vn -0.7682139 0.6401932 6.704241E-06
vn -0.7682139 0.6401932 6.704241E-06
vn -0.7682139 0.6401932 6.704241E-06
vn -9.408595E-07 0.6875117 0.7261733
vn -9.408595E-07 0.6875117 0.7261733
vn -9.408596E-07 0.6875117 0.7261733
vn -9.408596E-07 0.6875117 0.7261733
vn 0.7682498 0.6401501 -6.859996E-07
vn 0.7682498 0.6401501 -6.859996E-07
vn 0.7682498 0.6401501 -6.859996E-07
vn 0.7682499 0.6401501 -6.859995E-07
vn 3.79255E-07 0.6874893 -0.7261945
vn 3.79255E-07 0.6874893 -0.7261945
vn 3.79255E-07 0.6874893 -0.7261945
vn 3.79255E-07 0.6874893 -0.7261945
vn -0.7506818 1.830723E-05 0.660664
vn -0.7506818 1.830723E-05 0.660664
vn -0.7506818 1.830722E-05 0.660664
vn -0.7506818 1.830723E-05 0.660664
vn 0.7507019 1.53347E-05 0.6606411
vn 0.7507019 1.53347E-05 0.6606411
vn 0.7507019 1.53347E-05 0.6606411
vn 0.7507019 1.53347E-05 0.6606411
vn 0.7505289 -1.456502E-05 -0.6608376
vn 0.7505289 -1.456502E-05 -0.6608376
vn 0.7505289 -1.456502E-05 -0.6608376
vn 0.7505289 -1.456502E-05 -0.6608376
vn -0.7506751 -1.827694E-05 -0.6606714
vn -0.7506752 -1.827694E-05 -0.6606714
vn -0.7506752 -1.827694E-05 -0.6606714
vn -0.7506752 -1.827694E-05 -0.6606714
vn -1.04352E-05 1 7.675478E-06
vn 9.898374E-07 1 -3.167979E-06
vn -7.159595E-06 1 4.004664E-06
vn 1.442678E-06 1 -2.778766E-06
vn -1.164418E-05 1 8.483369E-06
vn 3.004795E-06 1 -3.034443E-06
vn -6.293681E-06 1 1.909539E-06
vn 2.647923E-06 1 -2.520086E-06
vn 3.003738E-06 1 5.83767E-06
vn 1.26454E-06 1 -3.034483E-06
vn 1.623455E-06 1 4.792796E-07
vn -5.718499E-07 1 -2.520135E-06
vn 2.691884E-06 1 6.813473E-06
vn -9.898963E-07 1 -8.71224E-07
vn 1.846957E-06 1 4.674864E-06
vn -1.442774E-06 1 -1.269809E-06
g KK-DoorHandle_1_0
f 3/3/3 2/2/2 1/1/1
f 6/6/6 5/5/5 4/4/4
f 9/9/9 8/8/8 7/7/7
f 12/12/12 11/11/11 10/10/10
f 15/15/15 14/14/14 13/13/13
f 16/16/16 15/15/15 13/13/13
f 19/19/19 18/18/18 17/17/17
f 20/20/20 19/19/19 17/17/17
f 23/23/23 22/22/22 21/21/21
f 24/24/24 23/23/23 21/21/21
f 27/27/27 26/26/26 25/25/25
f 28/28/28 27/27/27 25/25/25
f 31/31/31 30/30/30 29/29/29
f 32/32/32 31/31/31 29/29/29
f 35/35/35 34/34/34 33/33/33
f 36/36/36 35/35/35 33/33/33
f 39/39/39 38/38/38 37/37/37
f 40/40/40 39/39/39 37/37/37
f 43/43/43 42/42/42 41/41/41
f 44/44/44 43/43/43 41/41/41
f 47/47/47 46/46/46 45/45/45
f 48/48/48 47/47/47 45/45/45
f 51/51/51 50/50/50 49/49/49
f 52/52/52 51/51/51 49/49/49
f 55/55/55 54/54/54 53/53/53
f 56/56/56 55/55/55 53/53/53
f 59/59/59 58/58/58 57/57/57
f 60/60/60 59/59/59 57/57/57
f 63/63/63 62/62/62 61/61/61
f 64/64/64 63/63/63 61/61/61
f 67/67/67 66/66/66 65/65/65
f 68/68/68 67/67/67 65/65/65
f 71/71/71 70/70/70 69/69/69
f 72/72/72 71/71/71 69/69/69
f 75/75/75 74/74/74 73/73/73
f 76/76/76 75/75/75 73/73/73
f 79/79/79 78/78/78 77/77/77
f 80/80/80 79/79/79 77/77/77
f 83/83/83 82/82/82 81/81/81
f 84/84/84 83/83/83 81/81/81
f 87/87/87 86/86/86 85/85/85
f 88/88/88 87/87/87 85/85/85
f 91/91/91 90/90/90 89/89/89
f 92/92/92 91/91/91 89/89/89
f 95/95/95 94/94/94 93/93/93
f 96/96/96 95/95/95 93/93/93
f 99/99/99 98/98/98 97/97/97
f 100/100/100 99/99/99 97/97/97
f 103/103/103 102/102/102 101/101/101
f 104/104/104 103/103/103 101/101/101
f 107/107/107 106/106/106 105/105/105
f 108/108/108 107/107/107 105/105/105
f 111/111/111 110/110/110 109/109/109
f 112/112/112 111/111/111 109/109/109
f 115/115/115 114/114/114 113/113/113
f 116/116/116 115/115/115 113/113/113
f 119/119/119 118/118/118 117/117/117
f 120/120/120 119/119/119 117/117/117
f 123/123/123 122/122/122 121/121/121
f 124/124/124 123/123/123 121/121/121
f 127/127/127 126/126/126 125/125/125
f 128/128/128 127/127/127 125/125/125
f 131/131/131 130/130/130 129/129/129
f 130/130/130 132/132/132 129/129/129
f 129/129/129 133/133/133 131/131/131
f 132/132/132 130/130/130 134/134/134
f 133/133/133 135/135/135 131/131/131
f 136/136/136 132/132/132 134/134/134
f 135/135/135 133/133/133 137/137/137
f 134/134/134 138/138/138 136/136/136
f 139/139/139 135/135/135 137/137/137
f 138/138/138 140/140/140 136/136/136
f 137/137/137 141/141/141 139/139/139
f 140/140/140 138/138/138 142/142/142
f 141/141/141 143/143/143 139/139/139
f 144/144/144 140/140/140 142/142/142
f 143/143/143 141/141/141 144/144/144
f 142/142/142 143/143/143 144/144/144
