g KK-DumpsterLidFace_0
v -3.995192 10.03674 1.843522
v -5.090343 9.192176 2.662936
v -4.900903 10.20462 2.644201
v -4.162874 9.020047 1.829124
v -4.323849 8.154416 1.834493
v -5.262563 8.328609 2.66398
v -5.403872 7.333787 2.642929
v -4.511971 7.183667 1.836521
vt 0.5018996 0.9851937
vt 0.9995 0.8167171
vt 0.9916711 0.9851937
vt 0.4940706 0.8167171
vt 0.4940706 0.6482408
vt 0.9995 0.6482408
vt 0.9916711 0.4797643
vt 0.5018996 0.4797643
vn 0.6495317 -0.112709 0.7519343
vn 0.6486044 -0.1173965 0.7520176
vn 0.6495317 -0.112709 0.7519343
vn 0.6486056 -0.1173909 0.7520174
vn 0.6489812 -0.1191437 0.7514175
vn 0.6489713 -0.1191656 0.7514225
vn 0.6502887 -0.1162544 0.7507393
vn 0.6502887 -0.1162544 0.7507393
g KK-DumpsterLidFace_0_0
f 3/3/3 2/2/2 1/1/1
f 2/2/2 4/4/4 1/1/1
f 4/4/4 2/2/2 5/5/5
f 2/2/2 6/6/6 5/5/5
f 5/5/5 6/6/6 7/7/7
f 8/8/8 5/5/5 7/7/7
