g KK-Nail_14
v -6.326238 2.778598 3.084178
v -6.314103 2.789438 3.159133
v -6.337756 2.768308 3.087945
v -6.314102 2.789439 3.083225
v -6.348038 2.759126 3.095434
v -6.301968 2.800279 3.084178
v -6.357159 2.750978 3.105457
v -6.290451 2.810567 3.087944
v -6.3652 2.743794 3.116828
v -6.28017 2.819751 3.095436
v -6.371207 2.738428 3.129646
v -6.271047 2.8279 3.105457
v -6.374229 2.735729 3.144004
v -6.263007 2.835081 3.116831
v -6.374992 2.735044 3.159133
v -6.257 2.840447 3.129646
v -6.374229 2.735728 3.174263
v -6.253978 2.843148 3.144004
v -6.371207 2.738428 3.188619
v -6.253214 2.84383 3.159133
v -6.3652 2.743795 3.201436
v -6.253979 2.843148 3.174263
v -6.357159 2.750978 3.212809
v -6.257001 2.840447 3.188621
v -6.348038 2.759126 3.222833
v -6.263007 2.835083 3.201436
v -6.337756 2.76831 3.230322
v -6.271047 2.827899 3.212808
v -6.326238 2.778597 3.234089
v -6.280169 2.819751 3.222831
v -6.314104 2.789439 3.235041
v -6.29045 2.810567 3.23032
v -6.301968 2.800279 3.234089
v -6.293978 2.756995 3.068287
v -6.308582 2.780538 3.070429
v -6.322457 2.768144 3.072158
v -6.308158 2.744328 3.070117
v -6.279798 2.769662 3.070117
v -6.335806 2.756217 3.077197
v -6.294709 2.792931 3.072158
v -6.32182 2.732123 3.075341
v -6.266137 2.781864 3.075341
v -6.348105 2.745232 3.085402
v -6.281358 2.804856 3.077199
v -6.334441 2.720847 3.083688
v -6.253513 2.793141 3.083689
v -6.358896 2.73559 3.096409
v -6.26906 2.815843 3.085402
v -6.345506 2.710963 3.094895
v -6.242449 2.803025 3.094894
v -6.367727 2.727704 3.109863
v -6.258268 2.825482 3.096409
v -6.354495 2.702933 3.108688
v -6.233459 2.811056 3.10869
v -6.374307 2.721827 3.125194
v -6.249439 2.833371 3.109862
v -6.361193 2.696952 3.124425
v -6.226762 2.817036 3.124425
v -6.37835 2.718214 3.141836
v -6.242859 2.839248 3.125194
v -6.365383 2.693209 3.141456
v -6.222573 2.82078 3.141456
v -6.379736 2.716975 3.159133
v -6.238814 2.842861 3.141836
v -6.36685 2.691897 3.159133
v -6.221105 2.82209 3.159133
v -6.37835 2.718214 3.176431
v -6.237428 2.8441 3.159133
v -6.365383 2.693208 3.176811
v -6.222573 2.820779 3.176811
v -6.374306 2.721827 3.193073
v -6.238814 2.842861 3.176431
v -6.361193 2.696952 3.193841
v -6.226763 2.817036 3.193841
v -6.367727 2.727704 3.208404
v -6.242858 2.83925 3.193072
v -6.354496 2.702933 3.209576
v -6.23346 2.811054 3.209578
v -6.358896 2.735591 3.221857
v -6.249438 2.833369 3.208404
v -6.345507 2.710963 3.223372
v -6.242449 2.803025 3.223372
v -6.348105 2.745233 3.232864
v -6.258268 2.825483 3.221857
v -6.334441 2.720848 3.234576
v -6.253512 2.79314 3.234576
v -6.335807 2.756217 3.241068
v -6.26906 2.815843 3.232864
v -6.32182 2.732123 3.242926
v -6.266136 2.781864 3.242926
v -6.322457 2.768142 3.246108
v -6.281359 2.804856 3.241067
v -6.308156 2.744327 3.248149
v -6.279798 2.769661 3.248149
v -6.308581 2.780538 3.247838
v -6.294708 2.792931 3.246108
v -6.293978 2.756995 3.24998
v -6.348105 2.745232 3.085402
v -6.348038 2.759126 3.095434
v -6.357159 2.750978 3.105457
v -6.335806 2.756217 3.077197
v -6.358896 2.73559 3.096409
v -6.337756 2.768308 3.087945
v -6.3652 2.743794 3.116828
v -6.322457 2.768144 3.072158
v -6.367727 2.727704 3.109863
v -6.326238 2.778598 3.084178
v -6.371207 2.738428 3.129646
v -6.308582 2.780538 3.070429
v -6.374307 2.721827 3.125194
v -6.314102 2.789439 3.083225
v -6.374229 2.735729 3.144004
v -6.294709 2.792931 3.072158
v -6.37835 2.718214 3.141836
v -6.301968 2.800279 3.084178
v -6.374992 2.735044 3.159133
v -6.281358 2.804856 3.077199
v -6.379736 2.716975 3.159133
v -6.290451 2.810567 3.087944
v -6.374229 2.735728 3.174263
v -6.26906 2.815843 3.085402
v -6.37835 2.718214 3.176431
v -6.28017 2.819751 3.095436
v -6.371207 2.738428 3.188619
v -6.258268 2.825482 3.096409
v -6.374306 2.721827 3.193073
v -6.271047 2.8279 3.105457
v -6.3652 2.743795 3.201436
v -6.249439 2.833371 3.109862
v -6.367727 2.727704 3.208404
v -6.263007 2.835081 3.116831
v -6.357159 2.750978 3.212809
v -6.242859 2.839248 3.125194
v -6.358896 2.735591 3.221857
v -6.257 2.840447 3.129646
v -6.348038 2.759126 3.222833
v -6.238814 2.842861 3.141836
v -6.348105 2.745233 3.232864
v -6.253978 2.843148 3.144004
v -6.337756 2.76831 3.230322
v -6.237428 2.8441 3.159133
v -6.335807 2.756217 3.241068
v -6.253214 2.84383 3.159133
v -6.326238 2.778597 3.234089
v -6.238814 2.842861 3.176431
v -6.322457 2.768142 3.246108
v -6.253979 2.843148 3.174263
v -6.314104 2.789439 3.235041
v -6.242858 2.83925 3.193072
v -6.308581 2.780538 3.247838
v -6.257001 2.840447 3.188621
v -6.301968 2.800279 3.234089
v -6.249438 2.833369 3.208404
v -6.294708 2.792931 3.246108
v -6.263007 2.835083 3.201436
v -6.29045 2.810567 3.23032
v -6.258268 2.825483 3.221857
v -6.281359 2.804856 3.241067
v -6.271047 2.827899 3.212808
v -6.280169 2.819751 3.222831
v -6.26906 2.815843 3.232864
vt 0.7462869 0.4454804
vt 0.7447873 0.4525705
vt 0.7477544 0.4458375
vt 0.7447372 0.4453985
vt 0.7490684 0.4465427
vt 0.7431956 0.4455201
vt 0.7502322 0.4474967
vt 0.7417537 0.4459135
vt 0.7512429 0.4485845
vt 0.7404794 0.4466367
vt 0.7519892 0.4497987
vt 0.7393581 0.4475911
vt 0.7523733 0.4511471
vt 0.7383922 0.4486715
vt 0.7524798 0.4525702
vt 0.7376893 0.4498673
vt 0.7523735 0.4539936
vt 0.7373363 0.4511835
vt 0.7519894 0.4553421
vt 0.7372537 0.4525702
vt 0.7512431 0.4565561
vt 0.7373362 0.453957
vt 0.7502324 0.4576444
vt 0.7376892 0.4552734
vt 0.7490686 0.4585983
vt 0.7383918 0.4564693
vt 0.7477544 0.4593036
vt 0.7393578 0.4575496
vt 0.7462869 0.459661
vt 0.7404792 0.4585043
vt 0.7447372 0.4597427
vt 0.7417534 0.4592279
vt 0.7431954 0.4596212
vt 0.745499 0.440688
vt 0.7449053 0.4437956
vt 0.7467583 0.4439548
vt 0.7479319 0.4410129
vt 0.7430382 0.4408354
vt 0.7485401 0.4444617
vt 0.743063 0.4439911
vt 0.7502414 0.441792
vt 0.7406478 0.4414507
vt 0.7501716 0.4452953
vt 0.7413084 0.4445239
vt 0.7523281 0.4429819
vt 0.7384292 0.4425096
vt 0.7515875 0.4464098
vt 0.7397138 0.4453699
vt 0.7541071 0.4445203
vt 0.736477 0.4439652
vt 0.7527314 0.4477561
vt 0.7383387 0.4464819
vt 0.7555131 0.4463348
vt 0.734858 0.4457598
vt 0.7535691 0.4492721
vt 0.7372301 0.4478098
vt 0.7565145 0.4483432
vt 0.733625 0.4478355
vt 0.7540801 0.4508954
vt 0.7364166 0.4493026
vt 0.7570947 0.4504511
vt 0.7328254 0.4501262
vt 0.7542679 0.4525702
vt 0.7359282 0.450911
vt 0.7572606 0.4525701
vt 0.732498 0.4525701
vt 0.7540804 0.4542452
vt 0.7357903 0.4525702
vt 0.7570949 0.4546892
vt 0.732825 0.4550144
vt 0.7535694 0.4558688
vt 0.7359282 0.4542297
vt 0.756515 0.4567972
vt 0.7336246 0.4573054
vt 0.7527316 0.4573851
vt 0.7364163 0.4558381
vt 0.7555139 0.4588054
vt 0.7348576 0.4593807
vt 0.7515879 0.4587311
vt 0.7372296 0.4573311
vt 0.7541078 0.4606207
vt 0.7364764 0.4611756
vt 0.7501718 0.4598458
vt 0.7383385 0.4586588
vt 0.7523286 0.4621595
vt 0.7384285 0.4626316
vt 0.7485404 0.4606798
vt 0.7397134 0.4597712
vt 0.7502419 0.4633496
vt 0.7406471 0.4636909
vt 0.7467585 0.4611865
vt 0.7413081 0.4606172
vt 0.7479319 0.4641286
vt 0.7430379 0.4643061
vt 0.7449051 0.4613459
vt 0.7430627 0.4611502
vt 0.7454988 0.4644539
vt 0.7501716 0.4452953
vt 0.7490684 0.4465427
vt 0.7502322 0.4474967
vt 0.7485401 0.4444617
vt 0.7515875 0.4464098
vt 0.7477544 0.4458375
vt 0.7512429 0.4485845
vt 0.7467583 0.4439548
vt 0.7527314 0.4477561
vt 0.7462869 0.4454804
vt 0.7519892 0.4497987
vt 0.7449053 0.4437956
vt 0.7535691 0.4492721
vt 0.7447372 0.4453985
vt 0.7523733 0.4511471
vt 0.743063 0.4439911
vt 0.7540801 0.4508954
vt 0.7431956 0.4455201
vt 0.7524798 0.4525702
vt 0.7413084 0.4445239
vt 0.7542679 0.4525702
vt 0.7417537 0.4459135
vt 0.7523735 0.4539936
vt 0.7397138 0.4453699
vt 0.7540804 0.4542452
vt 0.7404794 0.4466367
vt 0.7519894 0.4553421
vt 0.7383387 0.4464819
vt 0.7535694 0.4558688
vt 0.7393581 0.4475911
vt 0.7512431 0.4565561
vt 0.7372301 0.4478098
vt 0.7527316 0.4573851
vt 0.7383922 0.4486715
vt 0.7502324 0.4576444
vt 0.7364166 0.4493026
vt 0.7515879 0.4587311
vt 0.7376893 0.4498673
vt 0.7490686 0.4585983
vt 0.7359282 0.450911
vt 0.7501718 0.4598458
vt 0.7373363 0.4511835
vt 0.7477544 0.4593036
vt 0.7357903 0.4525702
vt 0.7485404 0.4606798
vt 0.7372537 0.4525702
vt 0.7462869 0.459661
vt 0.7359282 0.4542297
vt 0.7467585 0.4611865
vt 0.7373362 0.453957
vt 0.7447372 0.4597427
vt 0.7364163 0.4558381
vt 0.7449051 0.4613459
vt 0.7376892 0.4552734
vt 0.7431954 0.4596212
vt 0.7372296 0.4573311
vt 0.7430627 0.4611502
vt 0.7383918 0.4564693
vt 0.7417534 0.4592279
vt 0.7383385 0.4586588
vt 0.7413081 0.4606172
vt 0.7393578 0.4575496
vt 0.7404792 0.4585043
vt 0.7397134 0.4597712
vn -0.6662112 0.7457632 8.899585E-07
vn -0.6662112 0.7457632 8.899586E-07
vn -0.6662112 0.7457632 8.899586E-07
vn -0.6662056 0.7457681 -4.719709E-06
vn -0.6661491 0.7458185 -3.610992E-05
vn -0.6662058 0.7457681 -4.75354E-06
vn -0.6661709 0.7457991 -1.530707E-05
vn -0.6662042 0.7457694 -3.85308E-06
vn -0.6662145 0.7457601 4.761578E-05
vn -0.6661971 0.7457758 3.030566E-06
vn -0.6662067 0.7457671 3.066984E-05
vn -0.6661649 0.7458045 4.940808E-05
vn -0.6661929 0.7457794 -1.722248E-05
vn -0.6662019 0.7457714 -3.094949E-05
vn -0.6662099 0.7457642 0.0001038121
vn -0.6662049 0.7457687 -4.164439E-05
vn -0.6662099 0.7457643 -7.372008E-05
vn -0.6661932 0.7457792 4.190493E-05
vn -0.6662012 0.7457721 -1.137531E-05
vn -0.6661932 0.7457792 -9.886003E-05
vn -0.666215 0.7457597 -5.926852E-05
vn -0.6662167 0.7457582 6.887235E-05
vn -0.6661882 0.7457836 -1.080839E-06
vn -0.6661887 0.7457833 -2.893404E-05
vn -0.6662017 0.7457717 -2.046042E-05
vn -0.6662192 0.7457559 3.738666E-05
vn -0.6661511 0.7458168 2.789037E-05
vn -0.6661928 0.7457795 -7.913956E-07
vn -0.6661682 0.7458016 1.768362E-05
vn -0.6662024 0.745771 8.45008E-06
vn -0.6662679 0.7457125 -1.134963E-05
vn -0.666187 0.7457847 -6.846195E-07
vn -0.6661505 0.7458175 -1.135315E-05
vn -0.06024662 0.05200073 -0.996828
vn -0.0423785 0.06311002 -0.9971064
vn -0.2001766 -0.03615754 -0.9790924
vn -0.2166132 -0.04665061 -0.9751423
vn 0.0996272 0.1502432 -0.9836165
vn -0.3496012 -0.1301475 -0.927815
vn 0.1164192 0.1604106 -0.9801607
vn -0.3648363 -0.1395487 -0.9205546
vn 0.2525793 0.2442377 -0.9362434
vn -0.4919743 -0.2165765 -0.8432413
vn 0.2674609 0.2535566 -0.9296095
vn -0.5051539 -0.2244089 -0.8333427
vn 0.3960812 0.3355973 -0.8546895
vn -0.6236454 -0.2958589 -0.7235565
vn 0.408354 0.3435754 -0.8456967
vn -0.6338716 -0.3021311 -0.7119856
vn 0.5292016 0.421033 -0.7366659
vn -0.7341416 -0.3649287 -0.5725933
vn 0.5389967 0.4272073 -0.7259315
vn -0.740298 -0.368884 -0.562035
vn 0.6444739 0.4923267 -0.5850366
vn -0.8164668 -0.4168002 -0.3995742
vn 0.6506538 0.4960443 -0.5749693
vn -0.8195893 -0.4187089 -0.3910962
vn 0.7313643 0.5456336 -0.4091336
vn -0.86971 -0.4478828 -0.2073773
vn 0.7343372 0.5475122 -0.4012222
vn -0.8706219 -0.4483663 -0.202448
vn 0.7853919 0.5813283 -0.2126433
vn -0.8889239 -0.4580547 -1.06212E-05
vn 0.7861468 0.5818722 -0.2083217
vn -0.8889239 -0.4580547 -1.102308E-05
vn 0.8039472 0.5947006 5.698751E-06
vn -0.8697206 -0.4478611 0.2073798
vn 0.8039472 0.5947008 1.69957E-06
vn -0.8706326 -0.4483451 0.2024487
vn 0.7854057 0.581311 0.2126391
vn -0.816474 -0.4167865 0.3995738
vn 0.7861601 0.5818554 0.2083185
vn -0.8195968 -0.418694 0.3910965
vn 0.7313803 0.5455988 0.4091514
vn -0.7341443 -0.3649268 0.572591
vn 0.7343576 0.5474802 0.4012286
vn -0.7403083 -0.3688866 0.5620198
vn 0.644482 0.4923052 0.5850458
vn -0.623627 -0.2958499 0.7235759
vn 0.6506649 0.4960226 0.5749753
vn -0.6338599 -0.3021255 0.7119984
vn 0.5292095 0.4210256 0.7366647
vn -0.4919767 -0.2165779 0.8432395
vn 0.5390054 0.4272006 0.7259289
vn -0.5051507 -0.224408 0.833345
vn 0.3960849 0.3356024 0.8546857
vn -0.3496266 -0.1301425 0.927806
vn 0.4083563 0.3435768 0.845695
vn -0.3648548 -0.1395422 0.9205482
vn 0.2525789 0.2442618 0.9362372
vn -0.2002015 -0.03615974 0.9790872
vn 0.2674585 0.2535781 0.9296043
vn -0.2166256 -0.04664123 0.9751399
vn 0.09963502 0.150259 0.9836133
vn -0.04237077 0.06311221 0.9971066
vn 0.1164258 0.1604293 0.9801569
vn -0.06025327 0.05199423 0.996828
vn -0.7775332 0.3712925 -0.5075274
vn -0.7708329 0.3745123 -0.5153224
vn -0.8352922 0.33764 -0.4339195
vn -0.6905434 0.4248682 -0.5853519
vn -0.8396356 0.3345765 -0.4278676
vn -0.6815561 0.4314207 -0.5910648
vn -0.8886026 0.2929924 -0.3529035
vn -0.5968547 0.5021055 -0.6258231
vn -0.8922954 0.2892505 -0.3466166
vn -0.5901577 0.5086922 -0.6268541
vn -0.9375874 0.2509303 -0.2407567
vn -0.5163745 0.5731768 -0.6362592
vn -0.9396343 0.2495357 -0.2341351
vn -0.510896 0.5774093 -0.6368546
vn -0.9643436 0.2403047 -0.1108835
vn -0.4254138 0.6352898 -0.6445385
vn -0.9646226 0.2405164 -0.1079594
vn -0.4190281 0.6390889 -0.6449658
vn -0.9696262 0.2445912 -1.230896E-06
vn -0.3162416 0.7120717 -0.6268534
vn -0.9696262 0.2445913 -3.159559E-06
vn -0.31126 0.7160981 -0.6247566
vn -0.9643414 0.2403069 0.1108977
vn -0.2274499 0.7951 -0.5622122
vn -0.9646207 0.2405189 0.1079703
vn -0.2257042 0.7971802 -0.5599656
vn -0.9375871 0.2509316 0.2407563
vn -0.1645304 0.8592455 -0.4843831
vn -0.939632 0.2495378 0.2341423
vn -0.1636109 0.8600311 -0.4832989
vn -0.8886086 0.2930116 0.3528725
vn -0.09102231 0.9113962 -0.4013376
vn -0.8922984 0.289271 0.3465917
vn -0.09020942 0.9118698 -0.4004443
vn -0.8353037 0.3376584 0.433883
vn -0.02154602 0.9604151 -0.2777385
vn -0.8396432 0.334599 0.4278351
vn -0.02131053 0.9606211 -0.2770436
vn -0.7708363 0.3745068 0.5153213
vn 0.0003514421 0.9915934 -0.1293931
vn -0.7775394 0.3712891 0.5075203
vn 0.0003499229 0.9915969 -0.1293661
vn -0.6815153 0.4314047 0.5911235
vn -0.003589466 0.9999936 -1.080586E-05
vn -0.6905149 0.4248468 0.585401
vn -0.003589466 0.9999936 -1.027274E-05
vn -0.5901344 0.5086405 0.6269183
vn 0.0003561103 0.9915958 0.1293741
vn -0.5968275 0.5020558 0.6258888
vn 0.0003546041 0.9915993 0.1293472
vn -0.5108789 0.5773652 0.6369083
vn -0.02152725 0.9604118 0.277751
vn -0.5163556 0.5731331 0.6363139
vn -0.02129442 0.9606158 0.2770628
vn -0.4189816 0.6390979 0.6449869
vn -0.09098268 0.911381 0.401381
vn -0.4253659 0.6352971 0.6445631
vn -0.0901721 0.9118532 0.4004906
vn -0.3112541 0.7160966 0.6247612
vn -0.1645181 0.8592455 0.4843874
vn -0.3162397 0.7120667 0.62686
vn -0.1635981 0.8600305 0.4833044
vn -0.2257259 0.7971762 0.5599624
vn -0.2274717 0.7950958 0.5622092
g KK-Nail_14_0
f 3/3/3 2/2/2 1/1/1
f 1/1/1 2/2/2 4/4/4
f 5/5/5 2/2/2 3/3/3
f 4/4/4 2/2/2 6/6/6
f 7/7/7 2/2/2 5/5/5
f 6/6/6 2/2/2 8/8/8
f 9/9/9 2/2/2 7/7/7
f 8/8/8 2/2/2 10/10/10
f 11/11/11 2/2/2 9/9/9
f 10/10/10 2/2/2 12/12/12
f 13/13/13 2/2/2 11/11/11
f 12/12/12 2/2/2 14/14/14
f 15/15/15 2/2/2 13/13/13
f 14/14/14 2/2/2 16/16/16
f 17/17/17 2/2/2 15/15/15
f 16/16/16 2/2/2 18/18/18
f 19/19/19 2/2/2 17/17/17
f 18/18/18 2/2/2 20/20/20
f 21/21/21 2/2/2 19/19/19
f 20/20/20 2/2/2 22/22/22
f 23/23/23 2/2/2 21/21/21
f 22/22/22 2/2/2 24/24/24
f 25/25/25 2/2/2 23/23/23
f 24/24/24 2/2/2 26/26/26
f 27/27/27 2/2/2 25/25/25
f 26/26/26 2/2/2 28/28/28
f 29/29/29 2/2/2 27/27/27
f 28/28/28 2/2/2 30/30/30
f 31/31/31 2/2/2 29/29/29
f 30/30/30 2/2/2 32/32/32
f 33/33/33 2/2/2 31/31/31
f 32/32/32 2/2/2 33/33/33
f 36/36/36 35/35/35 34/34/34
f 37/37/37 36/36/36 34/34/34
f 34/34/34 35/35/35 38/38/38
f 39/39/39 36/36/36 37/37/37
f 35/35/35 40/40/40 38/38/38
f 41/41/41 39/39/39 37/37/37
f 38/38/38 40/40/40 42/42/42
f 43/43/43 39/39/39 41/41/41
f 40/40/40 44/44/44 42/42/42
f 45/45/45 43/43/43 41/41/41
f 42/42/42 44/44/44 46/46/46
f 47/47/47 43/43/43 45/45/45
f 44/44/44 48/48/48 46/46/46
f 49/49/49 47/47/47 45/45/45
f 46/46/46 48/48/48 50/50/50
f 51/51/51 47/47/47 49/49/49
f 48/48/48 52/52/52 50/50/50
f 53/53/53 51/51/51 49/49/49
f 50/50/50 52/52/52 54/54/54
f 55/55/55 51/51/51 53/53/53
f 52/52/52 56/56/56 54/54/54
f 57/57/57 55/55/55 53/53/53
f 54/54/54 56/56/56 58/58/58
f 59/59/59 55/55/55 57/57/57
f 56/56/56 60/60/60 58/58/58
f 61/61/61 59/59/59 57/57/57
f 58/58/58 60/60/60 62/62/62
f 63/63/63 59/59/59 61/61/61
f 60/60/60 64/64/64 62/62/62
f 65/65/65 63/63/63 61/61/61
f 62/62/62 64/64/64 66/66/66
f 67/67/67 63/63/63 65/65/65
f 64/64/64 68/68/68 66/66/66
f 69/69/69 67/67/67 65/65/65
f 66/66/66 68/68/68 70/70/70
f 71/71/71 67/67/67 69/69/69
f 68/68/68 72/72/72 70/70/70
f 73/73/73 71/71/71 69/69/69
f 70/70/70 72/72/72 74/74/74
f 75/75/75 71/71/71 73/73/73
f 72/72/72 76/76/76 74/74/74
f 77/77/77 75/75/75 73/73/73
f 74/74/74 76/76/76 78/78/78
f 79/79/79 75/75/75 77/77/77
f 76/76/76 80/80/80 78/78/78
f 81/81/81 79/79/79 77/77/77
f 78/78/78 80/80/80 82/82/82
f 83/83/83 79/79/79 81/81/81
f 80/80/80 84/84/84 82/82/82
f 85/85/85 83/83/83 81/81/81
f 82/82/82 84/84/84 86/86/86
f 87/87/87 83/83/83 85/85/85
f 84/84/84 88/88/88 86/86/86
f 89/89/89 87/87/87 85/85/85
f 86/86/86 88/88/88 90/90/90
f 91/91/91 87/87/87 89/89/89
f 88/88/88 92/92/92 90/90/90
f 93/93/93 91/91/91 89/89/89
f 90/90/90 92/92/92 94/94/94
f 95/95/95 91/91/91 93/93/93
f 92/92/92 96/96/96 94/94/94
f 97/97/97 95/95/95 93/93/93
f 94/94/94 96/96/96 97/97/97
f 96/96/96 95/95/95 97/97/97
f 100/100/100 99/99/99 98/98/98
f 98/98/98 99/99/99 101/101/101
f 102/102/102 100/100/100 98/98/98
f 99/99/99 103/103/103 101/101/101
f 104/104/104 100/100/100 102/102/102
f 101/101/101 103/103/103 105/105/105
f 106/106/106 104/104/104 102/102/102
f 103/103/103 107/107/107 105/105/105
f 108/108/108 104/104/104 106/106/106
f 105/105/105 107/107/107 109/109/109
f 110/110/110 108/108/108 106/106/106
f 107/107/107 111/111/111 109/109/109
f 112/112/112 108/108/108 110/110/110
f 109/109/109 111/111/111 113/113/113
f 114/114/114 112/112/112 110/110/110
f 111/111/111 115/115/115 113/113/113
f 116/116/116 112/112/112 114/114/114
f 113/113/113 115/115/115 117/117/117
f 118/118/118 116/116/116 114/114/114
f 115/115/115 119/119/119 117/117/117
f 120/120/120 116/116/116 118/118/118
f 117/117/117 119/119/119 121/121/121
f 122/122/122 120/120/120 118/118/118
f 119/119/119 123/123/123 121/121/121
f 124/124/124 120/120/120 122/122/122
f 121/121/121 123/123/123 125/125/125
f 126/126/126 124/124/124 122/122/122
f 123/123/123 127/127/127 125/125/125
f 128/128/128 124/124/124 126/126/126
f 125/125/125 127/127/127 129/129/129
f 130/130/130 128/128/128 126/126/126
f 127/127/127 131/131/131 129/129/129
f 132/132/132 128/128/128 130/130/130
f 129/129/129 131/131/131 133/133/133
f 134/134/134 132/132/132 130/130/130
f 131/131/131 135/135/135 133/133/133
f 136/136/136 132/132/132 134/134/134
f 133/133/133 135/135/135 137/137/137
f 138/138/138 136/136/136 134/134/134
f 135/135/135 139/139/139 137/137/137
f 140/140/140 136/136/136 138/138/138
f 137/137/137 139/139/139 141/141/141
f 142/142/142 140/140/140 138/138/138
f 139/139/139 143/143/143 141/141/141
f 144/144/144 140/140/140 142/142/142
f 141/141/141 143/143/143 145/145/145
f 146/146/146 144/144/144 142/142/142
f 143/143/143 147/147/147 145/145/145
f 148/148/148 144/144/144 146/146/146
f 145/145/145 147/147/147 149/149/149
f 150/150/150 148/148/148 146/146/146
f 147/147/147 151/151/151 149/149/149
f 152/152/152 148/148/148 150/150/150
f 149/149/149 151/151/151 153/153/153
f 154/154/154 152/152/152 150/150/150
f 151/151/151 155/155/155 153/153/153
f 156/156/156 152/152/152 154/154/154
f 153/153/153 155/155/155 157/157/157
f 158/158/158 156/156/156 154/154/154
f 155/155/155 159/159/159 157/157/157
f 160/160/160 156/156/156 158/158/158
f 157/157/157 159/159/159 161/161/161
f 161/161/161 160/160/160 158/158/158
f 159/159/159 160/160/160 161/161/161
