g KK-Nail_13
v -5.770437 3.235023 2.769639
v -5.757669 3.244764 2.844594
v -5.782552 3.225778 2.773405
v -5.757669 3.244763 2.768685
v -5.793368 3.217525 2.780894
v -5.744904 3.254505 2.769639
v -5.802964 3.210203 2.790917
v -5.732786 3.26375 2.773405
v -5.811423 3.20375 2.802291
v -5.721971 3.272002 2.780896
v -5.81774 3.198927 2.815107
v -5.712375 3.279328 2.790918
v -5.82092 3.196502 2.829463
v -5.703917 3.28578 2.80229
v -5.821723 3.195889 2.844594
v -5.697596 3.290602 2.815107
v -5.82092 3.196502 2.859723
v -5.694418 3.293028 2.829465
v -5.81774 3.198927 2.87408
v -5.693613 3.29364 2.844594
v -5.811422 3.20375 2.886896
v -5.694419 3.293028 2.859723
v -5.802963 3.210205 2.898268
v -5.697597 3.290601 2.87408
v -5.793368 3.217525 2.908293
v -5.703917 3.28578 2.886896
v -5.782552 3.225777 2.91578
v -5.712375 3.279328 2.898267
v -5.770436 3.235022 2.919548
v -5.721972 3.272002 2.908293
v -5.757668 3.244764 2.920501
v -5.732787 3.26375 2.91578
v -5.744903 3.254505 2.919548
v -5.739585 3.210633 2.753747
v -5.752708 3.235402 2.755888
v -5.767304 3.224262 2.757619
v -5.754502 3.199252 2.755578
v -5.724668 3.222016 2.755578
v -5.781348 3.213548 2.762659
v -5.738111 3.246538 2.757619
v -5.768874 3.188286 2.7608
v -5.710295 3.23298 2.7608
v -5.794284 3.203676 2.770863
v -5.724069 3.257256 2.762659
v -5.782152 3.178152 2.769151
v -5.697016 3.243114 2.769148
v -5.805638 3.195014 2.781868
v -5.71113 3.267126 2.770862
v -5.793794 3.169272 2.780354
v -5.685376 3.251997 2.780354
v -5.814927 3.187926 2.795324
v -5.699778 3.275787 2.781868
v -5.803249 3.162057 2.794148
v -5.67592 3.259212 2.794149
v -5.821849 3.182644 2.810655
v -5.690489 3.282876 2.795323
v -5.810294 3.156679 2.809885
v -5.668875 3.264587 2.809885
v -5.826103 3.179397 2.827297
v -5.683567 3.288156 2.810655
v -5.814702 3.153316 2.826915
v -5.664466 3.267951 2.826915
v -5.827562 3.178284 2.844592
v -5.679313 3.291403 2.827297
v -5.816246 3.152137 2.844594
v -5.662922 3.26913 2.844594
v -5.826103 3.179399 2.861889
v -5.677853 3.292517 2.844594
v -5.814702 3.153316 2.86227
v -5.664466 3.267951 2.862271
v -5.821849 3.182644 2.878533
v -5.679313 3.291403 2.86189
v -5.810295 3.156679 2.879302
v -5.668875 3.264587 2.879302
v -5.814927 3.187926 2.893863
v -5.683567 3.288157 2.87853
v -5.803249 3.162053 2.895037
v -5.675921 3.25921 2.895037
v -5.805638 3.195014 2.907317
v -5.690489 3.282877 2.893862
v -5.793794 3.169272 2.908832
v -5.685376 3.251997 2.908833
v -5.794285 3.203676 2.918324
v -5.699778 3.275786 2.907317
v -5.782153 3.178152 2.920036
v -5.697018 3.243114 2.920039
v -5.781348 3.213549 2.926527
v -5.711132 3.267125 2.918324
v -5.768873 3.188286 2.928385
v -5.710295 3.232981 2.928385
v -5.767304 3.224262 2.931568
v -5.724069 3.257254 2.926527
v -5.754502 3.199252 2.933609
v -5.724669 3.222016 2.933609
v -5.752708 3.235402 2.933298
v -5.738112 3.246538 2.931568
v -5.739585 3.210633 2.93544
v -5.794284 3.203676 2.770863
v -5.793368 3.217525 2.780894
v -5.802964 3.210203 2.790917
v -5.781348 3.213548 2.762659
v -5.805638 3.195014 2.781868
v -5.782552 3.225778 2.773405
v -5.811423 3.20375 2.802291
v -5.767304 3.224262 2.757619
v -5.814927 3.187926 2.795324
v -5.770437 3.235023 2.769639
v -5.81774 3.198927 2.815107
v -5.752708 3.235402 2.755888
v -5.821849 3.182644 2.810655
v -5.757669 3.244763 2.768685
v -5.82092 3.196502 2.829463
v -5.738111 3.246538 2.757619
v -5.826103 3.179397 2.827297
v -5.744904 3.254505 2.769639
v -5.821723 3.195889 2.844594
v -5.724069 3.257256 2.762659
v -5.827562 3.178284 2.844592
v -5.732786 3.26375 2.773405
v -5.82092 3.196502 2.859723
v -5.71113 3.267126 2.770862
v -5.826103 3.179399 2.861889
v -5.721971 3.272002 2.780896
v -5.81774 3.198927 2.87408
v -5.699778 3.275787 2.781868
v -5.821849 3.182644 2.878533
v -5.712375 3.279328 2.790918
v -5.811422 3.20375 2.886896
v -5.690489 3.282876 2.795323
v -5.814927 3.187926 2.893863
v -5.703917 3.28578 2.80229
v -5.802963 3.210205 2.898268
v -5.683567 3.288156 2.810655
v -5.805638 3.195014 2.907317
v -5.697596 3.290602 2.815107
v -5.793368 3.217525 2.908293
v -5.679313 3.291403 2.827297
v -5.794285 3.203676 2.918324
v -5.694418 3.293028 2.829465
v -5.782552 3.225777 2.91578
v -5.677853 3.292517 2.844594
v -5.781348 3.213549 2.926527
v -5.693613 3.29364 2.844594
v -5.770436 3.235022 2.919548
v -5.679313 3.291403 2.86189
v -5.767304 3.224262 2.931568
v -5.694419 3.293028 2.859723
v -5.757668 3.244764 2.920501
v -5.683567 3.288157 2.87853
v -5.752708 3.235402 2.933298
v -5.697597 3.290601 2.87408
v -5.744903 3.254505 2.919548
v -5.690489 3.282877 2.893862
v -5.738112 3.246538 2.931568
v -5.703917 3.28578 2.886896
v -5.732787 3.26375 2.91578
v -5.699778 3.275786 2.907317
v -5.724069 3.257254 2.926527
v -5.712375 3.279328 2.898267
v -5.721972 3.272002 2.908293
v -5.711132 3.267125 2.918324
vt 0.4649228 0.4543448
vt 0.4574988 0.4527853
vt 0.4645541 0.4558486
vt 0.4650112 0.4527591
vt 0.4638214 0.4571969
vt 0.4649021 0.451176
vt 0.4628319 0.4583979
vt 0.4645149 0.449682
vt 0.4617014 0.4594534
vt 0.4637705 0.4483508
vt 0.4604286 0.4602401
vt 0.4627774 0.4471695
vt 0.4590045 0.4606417
vt 0.4616491 0.4461359
vt 0.4574988 0.4607458
vt 0.4603885 0.4453696
vt 0.4559929 0.4606417
vt 0.4589833 0.4449819
vt 0.4545689 0.4602401
vt 0.4574988 0.4448809
vt 0.4532961 0.4594534
vt 0.4560139 0.4449819
vt 0.4521656 0.4583979
vt 0.454609 0.4453696
vt 0.4511758 0.4571969
vt 0.4533482 0.4461359
vt 0.4504435 0.4558488
vt 0.4522201 0.4471695
vt 0.4500746 0.4543448
vt 0.4512264 0.448351
vt 0.4499864 0.4527588
vt 0.4504827 0.449682
vt 0.4500956 0.451176
vt 0.4693635 0.4532658
vt 0.4666006 0.4528857
vt 0.4664423 0.4547561
vt 0.4690936 0.4556416
vt 0.4691856 0.4508707
vt 0.4659383 0.4565612
vt 0.4664117 0.4510206
vt 0.4683879 0.4579176
vt 0.4685583 0.44854
vt 0.4651 0.4582262
vt 0.4658809 0.4492294
vt 0.4672744 0.460006
vt 0.4674957 0.4463713
vt 0.4639699 0.4596872
vt 0.4650221 0.4475881
vt 0.465801 0.4618269
vt 0.466039 0.4444555
vt 0.4625895 0.4608902
vt 0.463882 0.4461577
vt 0.4640179 0.4633185
vt 0.4642392 0.4428664
vt 0.4610087 0.4617896
vt 0.4625066 0.4449863
vt 0.4619861 0.4644312
vt 0.4621548 0.4416718
vt 0.4592873 0.4623403
vt 0.4609431 0.4441153
vt 0.4597835 0.4651181
vt 0.4598733 0.4409353
vt 0.457499 0.4625261
vt 0.4592498 0.4435899
vt 0.4574988 0.4653509
vt 0.4574986 0.440688
vt 0.4557101 0.46234
vt 0.4574988 0.4434143
vt 0.4552142 0.4651178
vt 0.4551243 0.4409353
vt 0.4539887 0.4617896
vt 0.4557475 0.4435899
vt 0.4530115 0.4644315
vt 0.4528427 0.4416718
vt 0.4524081 0.4608902
vt 0.4540548 0.4441153
vt 0.4509796 0.4633191
vt 0.4507581 0.4428664
vt 0.4510276 0.4596872
vt 0.4524911 0.4449863
vt 0.4491965 0.4618272
vt 0.4489583 0.4444557
vt 0.4498971 0.4582263
vt 0.4511155 0.4461577
vt 0.4477232 0.4600063
vt 0.4475018 0.4463715
vt 0.4490594 0.4565616
vt 0.4499751 0.4475881
vt 0.4466097 0.4579179
vt 0.4464393 0.44854
vt 0.4485554 0.4547561
vt 0.4491167 0.4492295
vt 0.445904 0.4556417
vt 0.445812 0.450871
vt 0.4483966 0.4528857
vt 0.4485858 0.4510207
vt 0.4456339 0.4532658
vt 0.4651 0.4582262
vt 0.4638214 0.4571969
vt 0.4628319 0.4583979
vt 0.4659383 0.4565612
vt 0.4639699 0.4596872
vt 0.4645541 0.4558486
vt 0.4617014 0.4594534
vt 0.4664423 0.4547561
vt 0.4625895 0.4608902
vt 0.4649228 0.4543448
vt 0.4604286 0.4602401
vt 0.4666006 0.4528857
vt 0.4610087 0.4617896
vt 0.4650112 0.4527591
vt 0.4590045 0.4606417
vt 0.4664117 0.4510206
vt 0.4592873 0.4623403
vt 0.4649021 0.451176
vt 0.4574988 0.4607458
vt 0.4658809 0.4492294
vt 0.457499 0.4625261
vt 0.4645149 0.449682
vt 0.4559929 0.4606417
vt 0.4650221 0.4475881
vt 0.4557101 0.46234
vt 0.4637705 0.4483508
vt 0.4545689 0.4602401
vt 0.463882 0.4461577
vt 0.4539887 0.4617896
vt 0.4627774 0.4471695
vt 0.4532961 0.4594534
vt 0.4625066 0.4449863
vt 0.4524081 0.4608902
vt 0.4616491 0.4461359
vt 0.4521656 0.4583979
vt 0.4609431 0.4441153
vt 0.4510276 0.4596872
vt 0.4603885 0.4453696
vt 0.4511758 0.4571969
vt 0.4592498 0.4435899
vt 0.4498971 0.4582263
vt 0.4589833 0.4449819
vt 0.4504435 0.4558488
vt 0.4574988 0.4434143
vt 0.4490594 0.4565616
vt 0.4574988 0.4448809
vt 0.4500746 0.4543448
vt 0.4557475 0.4435899
vt 0.4485554 0.4547561
vt 0.4560139 0.4449819
vt 0.4499864 0.4527588
vt 0.4540548 0.4441153
vt 0.4483966 0.4528857
vt 0.454609 0.4453696
vt 0.4500956 0.451176
vt 0.4524911 0.4449863
vt 0.4485858 0.4510207
vt 0.4533482 0.4461359
vt 0.4504827 0.449682
vt 0.4511155 0.4461577
vt 0.4491167 0.4492295
vt 0.4522201 0.4471695
vt 0.4512264 0.448351
vt 0.4499751 0.4475881
vn -0.6066462 0.7949719 1.934699E-05
vn -0.6066462 0.7949719 1.934699E-05
vn -0.6066462 0.7949719 1.934699E-05
vn -0.60662 0.794992 -3.960754E-06
vn -0.6065945 0.7950113 -9.236261E-06
vn -0.6065744 0.7950268 8.344409E-06
vn -0.6066205 0.7949916 1.378947E-05
vn -0.6066077 0.7950013 -1.008817E-05
vn -0.6065486 0.7950464 -8.223373E-05
vn -0.6067335 0.7949053 -0.0001216017
vn -0.6066579 0.794963 0.000137574
vn -0.6065617 0.7950365 0.0001077906
vn -0.6066015 0.795006 -4.42051E-05
vn -0.6066111 0.7949986 8.28491E-06
vn -0.6066027 0.7950051 -3.62653E-05
vn -0.6066313 0.7949833 -5.652072E-05
vn -0.6066027 0.7950051 3.62692E-05
vn -0.6066061 0.7950026 0.0001099723
vn -0.6066015 0.795006 4.420336E-05
vn -0.6066061 0.7950026 -0.0001023654
vn -0.6066435 0.794974 -9.104628E-05
vn -0.6066301 0.7949842 5.691213E-05
vn -0.6066044 0.7950038 -1.259527E-05
vn -0.606608 0.7950011 -1.476772E-05
vn -0.6065754 0.7950259 2.61898E-05
vn -0.6065617 0.7950364 -0.0001077951
vn -0.6065897 0.7950151 1.351915E-05
vn -0.6067076 0.7949252 8.696153E-05
vn -0.6065941 0.7950116 1.102032E-05
vn -0.6066065 0.7950022 -2.596834E-06
vn -0.606608 0.7950011 7.31465E-06
vn -0.6066343 0.7949811 1.270521E-05
vn -0.6066142 0.7949964 7.316406E-06
vn -0.05499245 0.05578541 -0.9969272
vn -0.03717795 0.06524528 -0.9971764
vn -0.2032772 -0.02406269 -0.9788255
vn -0.2195953 -0.03297235 -0.9750337
vn 0.1130064 0.1438841 -0.983121
vn -0.3601676 -0.1084609 -0.9265611
vn 0.1296976 0.152501 -0.9797561
vn -0.3751968 -0.1163928 -0.9196086
vn 0.2732874 0.2279025 -0.934545
vn -0.5087031 -0.1855135 -0.8407176
vn 0.2880725 0.2358028 -0.9281224
vn -0.5215637 -0.1920367 -0.8313202
vn 0.4233388 0.3094799 -0.8514732
vn -0.6452504 -0.2557651 -0.7198861
vn 0.4354787 0.3162249 -0.8428286
vn -0.6551652 -0.2609679 -0.7089812
vn 0.5617461 0.3853124 -0.7321036
vn -0.7592963 -0.316875 -0.5683832
vn 0.5713482 0.3904716 -0.7218677
vn -0.7652079 -0.3201386 -0.5585411
vn 0.6805281 0.4478195 -0.5799476
vn -0.8437055 -0.3625195 -0.3959048
vn 0.6865291 0.4508833 -0.5704227
vn -0.8466765 -0.3640747 -0.3880572
vn 0.7694006 0.4941882 -0.4047231
vn -0.8978724 -0.3895105 -0.2051995
vn 0.7722685 0.4957345 -0.3973019
vn -0.8987303 -0.3898957 -0.2006618
vn 0.82454 0.5253601 -0.2100726
vn -0.9172909 -0.3982176 7.063134E-06
vn 0.8252693 0.5258119 -0.2060402
vn -0.9172909 -0.3982176 1.245142E-05
vn 0.8435077 0.5371171 4.311321E-06
vn -0.8978802 -0.3895073 0.2051716
vn 0.8435077 0.5371171 1.280974E-06
vn -0.8987378 -0.3898922 0.200635
vn 0.8245394 0.5253592 0.2100774
vn -0.8437195 -0.3625192 0.3958752
vn 0.825268 0.5258106 0.2060486
vn -0.8466905 -0.3640747 0.3880267
vn 0.7693949 0.4941767 0.4047478
vn -0.7592772 -0.3168552 0.5684196
vn 0.7722656 0.495725 0.3973193
vn -0.7651982 -0.3201238 0.5585629
vn 0.6805245 0.4478225 0.5799495
vn -0.6452669 -0.2557701 0.7198697
vn 0.6865296 0.4508862 0.5704197
vn -0.6551754 -0.260969 0.7089714
vn 0.5617259 0.3853457 0.7321016
vn -0.5086844 -0.1855195 0.8407276
vn 0.5713329 0.3905045 0.7218622
vn -0.5215618 -0.1920487 0.8313186
vn 0.4232966 0.3095057 0.8514847
vn -0.3601533 -0.1084778 0.9265647
vn 0.4354363 0.3162529 0.84284
vn -0.3751648 -0.1164017 0.9196206
vn 0.2733082 0.2279313 0.9345319
vn -0.2033088 -0.02406698 0.9788189
vn 0.2880764 0.2358258 0.9281153
vn -0.2196311 -0.03298448 0.9750252
vn 0.1130149 0.1439104 0.9831162
vn -0.03719819 0.06527109 0.997174
vn 0.129716 0.1525291 0.9797492
vn -0.05501078 0.0558122 0.9969247
vn -0.7484173 0.4214596 -0.5120969
vn -0.7420598 0.4240016 -0.5192012
vn -0.8100004 0.3909149 -0.4371325
vn -0.6561111 0.4700172 -0.5904253
vn -0.8141406 0.388389 -0.4316585
vn -0.6472771 0.4755552 -0.5957177
vn -0.8671528 0.3490787 -0.3552323
vn -0.5552005 0.5418319 -0.6310077
vn -0.8707094 0.3459173 -0.3495803
vn -0.5483852 0.5476192 -0.6319706
vn -0.9194663 0.3097733 -0.2421205
vn -0.4679616 0.60808 -0.6412883
vn -0.9213887 0.308637 -0.2361903
vn -0.4623351 0.6117951 -0.6418356
vn -0.9471329 0.30083 -0.1115363
vn -0.3707826 0.6642819 -0.6490376
vn -0.9473716 0.301036 -0.108924
vn -0.3641512 0.6675788 -0.6494094
vn -0.9521943 0.305493 -4.196117E-06
vn -0.2541967 0.7335172 -0.6303464
vn -0.9521943 0.3054929 -1.152558E-05
vn -0.2486866 0.737294 -0.6281343
vn -0.9471321 0.3008345 0.1115313
vn -0.1575519 0.8101184 -0.5646995
vn -0.9473709 0.3010405 0.1089181
vn -0.1553733 0.8123096 -0.5621497
vn -0.9194575 0.3097979 0.2421218
vn -0.08871669 0.8694057 -0.4860689
vn -0.9213796 0.3086608 0.2361951
vn -0.08741231 0.870342 -0.4846278
vn -0.8671355 0.3491201 0.3552338
vn -0.010553 0.9155126 -0.4021508
vn -0.8706943 0.3459572 0.3495787
vn -0.009302961 0.9161053 -0.4008297
vn -0.8100149 0.3909197 0.4371015
vn 0.06320607 0.9585159 -0.2779429
vn -0.8141519 0.3883975 0.4316297
vn 0.06365103 0.9588414 -0.276716
vn -0.7420647 0.4240208 0.5191786
vn 0.08782252 0.9876941 -0.129412
vn -0.7484289 0.4214725 0.5120694
vn 0.08780925 0.9877338 -0.1291174
vn -0.6472662 0.4756058 0.5956893
vn 0.08457397 0.9964172 8.383819E-06
vn -0.6560926 0.4700701 0.5904038
vn 0.08457397 0.9964172 8.985657E-06
vn -0.5483933 0.5476614 0.6319271
vn 0.08779143 0.9876969 0.1294113
vn -0.5552102 0.5418743 0.6309627
vn 0.08777864 0.9877355 0.1291265
vn -0.462359 0.611809 0.6418053
vn 0.06317602 0.9585236 0.2779229
vn -0.4679878 0.6080931 0.6412567
vn 0.0636154 0.9588451 0.2767112
vn -0.3641491 0.6675929 0.6493958
vn -0.01057151 0.9155083 0.4021603
vn -0.3707916 0.6642912 0.6490229
vn -0.009324296 0.9160999 0.4008415
vn -0.2486529 0.7372605 0.6281869
vn -0.08865866 0.8694019 0.4860864
vn -0.2541683 0.7334846 0.6303957
vn -0.08735575 0.8703384 0.4846444
vn -0.1553008 0.8122791 0.5622138
vn -0.1574772 0.8100904 0.5647607
g KK-Nail_13_0
f 3/3/3 2/2/2 1/1/1
f 1/1/1 2/2/2 4/4/4
f 5/5/5 2/2/2 3/3/3
f 4/4/4 2/2/2 6/6/6
f 7/7/7 2/2/2 5/5/5
f 6/6/6 2/2/2 8/8/8
f 9/9/9 2/2/2 7/7/7
f 8/8/8 2/2/2 10/10/10
f 11/11/11 2/2/2 9/9/9
f 10/10/10 2/2/2 12/12/12
f 13/13/13 2/2/2 11/11/11
f 12/12/12 2/2/2 14/14/14
f 15/15/15 2/2/2 13/13/13
f 14/14/14 2/2/2 16/16/16
f 17/17/17 2/2/2 15/15/15
f 16/16/16 2/2/2 18/18/18
f 19/19/19 2/2/2 17/17/17
f 18/18/18 2/2/2 20/20/20
f 21/21/21 2/2/2 19/19/19
f 20/20/20 2/2/2 22/22/22
f 23/23/23 2/2/2 21/21/21
f 22/22/22 2/2/2 24/24/24
f 25/25/25 2/2/2 23/23/23
f 24/24/24 2/2/2 26/26/26
f 27/27/27 2/2/2 25/25/25
f 26/26/26 2/2/2 28/28/28
f 29/29/29 2/2/2 27/27/27
f 28/28/28 2/2/2 30/30/30
f 31/31/31 2/2/2 29/29/29
f 30/30/30 2/2/2 32/32/32
f 33/33/33 2/2/2 31/31/31
f 32/32/32 2/2/2 33/33/33
f 36/36/36 35/35/35 34/34/34
f 37/37/37 36/36/36 34/34/34
f 34/34/34 35/35/35 38/38/38
f 39/39/39 36/36/36 37/37/37
f 35/35/35 40/40/40 38/38/38
f 41/41/41 39/39/39 37/37/37
f 38/38/38 40/40/40 42/42/42
f 43/43/43 39/39/39 41/41/41
f 40/40/40 44/44/44 42/42/42
f 45/45/45 43/43/43 41/41/41
f 42/42/42 44/44/44 46/46/46
f 47/47/47 43/43/43 45/45/45
f 44/44/44 48/48/48 46/46/46
f 49/49/49 47/47/47 45/45/45
f 46/46/46 48/48/48 50/50/50
f 51/51/51 47/47/47 49/49/49
f 48/48/48 52/52/52 50/50/50
f 53/53/53 51/51/51 49/49/49
f 50/50/50 52/52/52 54/54/54
f 55/55/55 51/51/51 53/53/53
f 52/52/52 56/56/56 54/54/54
f 57/57/57 55/55/55 53/53/53
f 54/54/54 56/56/56 58/58/58
f 59/59/59 55/55/55 57/57/57
f 56/56/56 60/60/60 58/58/58
f 61/61/61 59/59/59 57/57/57
f 58/58/58 60/60/60 62/62/62
f 63/63/63 59/59/59 61/61/61
f 60/60/60 64/64/64 62/62/62
f 65/65/65 63/63/63 61/61/61
f 62/62/62 64/64/64 66/66/66
f 67/67/67 63/63/63 65/65/65
f 64/64/64 68/68/68 66/66/66
f 69/69/69 67/67/67 65/65/65
f 66/66/66 68/68/68 70/70/70
f 71/71/71 67/67/67 69/69/69
f 68/68/68 72/72/72 70/70/70
f 73/73/73 71/71/71 69/69/69
f 70/70/70 72/72/72 74/74/74
f 75/75/75 71/71/71 73/73/73
f 72/72/72 76/76/76 74/74/74
f 77/77/77 75/75/75 73/73/73
f 74/74/74 76/76/76 78/78/78
f 79/79/79 75/75/75 77/77/77
f 76/76/76 80/80/80 78/78/78
f 81/81/81 79/79/79 77/77/77
f 78/78/78 80/80/80 82/82/82
f 83/83/83 79/79/79 81/81/81
f 80/80/80 84/84/84 82/82/82
f 85/85/85 83/83/83 81/81/81
f 82/82/82 84/84/84 86/86/86
f 87/87/87 83/83/83 85/85/85
f 84/84/84 88/88/88 86/86/86
f 89/89/89 87/87/87 85/85/85
f 86/86/86 88/88/88 90/90/90
f 91/91/91 87/87/87 89/89/89
f 88/88/88 92/92/92 90/90/90
f 93/93/93 91/91/91 89/89/89
f 90/90/90 92/92/92 94/94/94
f 95/95/95 91/91/91 93/93/93
f 92/92/92 96/96/96 94/94/94
f 97/97/97 95/95/95 93/93/93
f 94/94/94 96/96/96 97/97/97
f 96/96/96 95/95/95 97/97/97
f 100/100/100 99/99/99 98/98/98
f 98/98/98 99/99/99 101/101/101
f 102/102/102 100/100/100 98/98/98
f 99/99/99 103/103/103 101/101/101
f 104/104/104 100/100/100 102/102/102
f 101/101/101 103/103/103 105/105/105
f 106/106/106 104/104/104 102/102/102
f 103/103/103 107/107/107 105/105/105
f 108/108/108 104/104/104 106/106/106
f 105/105/105 107/107/107 109/109/109
f 110/110/110 108/108/108 106/106/106
f 107/107/107 111/111/111 109/109/109
f 112/112/112 108/108/108 110/110/110
f 109/109/109 111/111/111 113/113/113
f 114/114/114 112/112/112 110/110/110
f 111/111/111 115/115/115 113/113/113
f 116/116/116 112/112/112 114/114/114
f 113/113/113 115/115/115 117/117/117
f 118/118/118 116/116/116 114/114/114
f 115/115/115 119/119/119 117/117/117
f 120/120/120 116/116/116 118/118/118
f 117/117/117 119/119/119 121/121/121
f 122/122/122 120/120/120 118/118/118
f 119/119/119 123/123/123 121/121/121
f 124/124/124 120/120/120 122/122/122
f 121/121/121 123/123/123 125/125/125
f 126/126/126 124/124/124 122/122/122
f 123/123/123 127/127/127 125/125/125
f 128/128/128 124/124/124 126/126/126
f 125/125/125 127/127/127 129/129/129
f 130/130/130 128/128/128 126/126/126
f 127/127/127 131/131/131 129/129/129
f 132/132/132 128/128/128 130/130/130
f 129/129/129 131/131/131 133/133/133
f 134/134/134 132/132/132 130/130/130
f 131/131/131 135/135/135 133/133/133
f 136/136/136 132/132/132 134/134/134
f 133/133/133 135/135/135 137/137/137
f 138/138/138 136/136/136 134/134/134
f 135/135/135 139/139/139 137/137/137
f 140/140/140 136/136/136 138/138/138
f 137/137/137 139/139/139 141/141/141
f 142/142/142 140/140/140 138/138/138
f 139/139/139 143/143/143 141/141/141
f 144/144/144 140/140/140 142/142/142
f 141/141/141 143/143/143 145/145/145
f 146/146/146 144/144/144 142/142/142
f 143/143/143 147/147/147 145/145/145
f 148/148/148 144/144/144 146/146/146
f 145/145/145 147/147/147 149/149/149
f 150/150/150 148/148/148 146/146/146
f 147/147/147 151/151/151 149/149/149
f 152/152/152 148/148/148 150/150/150
f 149/149/149 151/151/151 153/153/153
f 154/154/154 152/152/152 150/150/150
f 151/151/151 155/155/155 153/153/153
f 156/156/156 152/152/152 154/154/154
f 153/153/153 155/155/155 157/157/157
f 158/158/158 156/156/156 154/154/154
f 155/155/155 159/159/159 157/157/157
f 160/160/160 156/156/156 158/158/158
f 157/157/157 159/159/159 161/161/161
f 161/161/161 160/160/160 158/158/158
f 159/159/159 160/160/160 161/161/161
