g KK-Nail_10
v -5.51416 3.366427 0.0476239
v -5.499427 3.370555 0.1225787
v -5.528142 3.362509 0.05139099
v -5.499426 3.370553 0.04667053
v -5.540624 3.359013 0.05888001
v -5.484692 3.374681 0.04762268
v -5.551696 3.355913 0.0689032
v -5.47071 3.378599 0.05139099
v -5.561457 3.353176 0.08027496
v -5.458229 3.382096 0.05888001
v -5.568752 3.351134 0.09309143
v -5.447157 3.385197 0.0689032
v -5.572419 3.350107 0.1074499
v -5.437397 3.387931 0.08027527
v -5.573348 3.349847 0.1225787
v -5.430102 3.389975 0.09309143
v -5.572419 3.350107 0.1377069
v -5.426434 3.391001 0.107449
v -5.56875 3.351133 0.1520657
v -5.425505 3.391263 0.1225784
v -5.561457 3.353177 0.1648819
v -5.426435 3.391002 0.1377066
v -5.551697 3.355913 0.1762537
v -5.430102 3.389975 0.1520651
v -5.540624 3.359013 0.1862769
v -5.437395 3.387931 0.1648816
v -5.52814 3.362509 0.1937659
v -5.447157 3.385197 0.1762537
v -5.514159 3.366428 0.1975327
v -5.458229 3.382094 0.1862775
v -5.499426 3.370553 0.1984866
v -5.470711 3.378598 0.1937665
v -5.484693 3.374682 0.197533
v -5.491765 3.331168 0.03173157
v -5.497326 3.359751 0.0338739
v -5.514169 3.35503 0.03560303
v -5.50898 3.326344 0.0335614
v -5.474551 3.33599 0.03356201
v -5.530376 3.350491 0.04064392
v -5.480482 3.364466 0.03560242
v -5.525565 3.321697 0.03878601
v -5.457968 3.340635 0.03878601
v -5.545304 3.346308 0.04884705
v -5.464275 3.369006 0.04064392
v -5.540888 3.317406 0.0471344
v -5.442641 3.344928 0.0471344
v -5.558407 3.342638 0.05985412
v -5.449344 3.373189 0.04884705
v -5.554321 3.313643 0.05833984
v -5.429208 3.348691 0.05833984
v -5.569125 3.339635 0.0733081
v -5.436243 3.376861 0.05985412
v -5.565234 3.310585 0.0721344
v -5.418296 3.351748 0.0721344
v -5.577115 3.337396 0.08864013
v -5.425524 3.379863 0.0733081
v -5.573363 3.308308 0.08786987
v -5.410165 3.354024 0.08786987
v -5.582023 3.336022 0.1052817
v -5.417535 3.382099 0.08863922
v -5.57845 3.306883 0.1049008
v -5.405078 3.355449 0.1049008
v -5.583709 3.33555 0.122579
v -5.412626 3.383477 0.1052814
v -5.580234 3.306385 0.122579
v -5.403296 3.35595 0.1225784
v -5.582023 3.336022 0.1398755
v -5.410942 3.383946 0.1225784
v -5.57845 3.306883 0.140256
v -5.405078 3.35545 0.140256
v -5.577115 3.337398 0.1565167
v -5.412625 3.383476 0.1398752
v -5.573363 3.308309 0.1572867
v -5.410165 3.354025 0.1572867
v -5.569127 3.339635 0.1718481
v -5.417535 3.3821 0.1565167
v -5.565235 3.310585 0.1730222
v -5.418296 3.351747 0.1730225
v -5.558406 3.342638 0.1853024
v -5.425524 3.379862 0.1718484
v -5.554321 3.313643 0.1868167
v -5.42921 3.348689 0.186817
v -5.545304 3.346308 0.1963104
v -5.436243 3.376859 0.1853021
v -5.540887 3.317406 0.1980225
v -5.442641 3.344928 0.1980225
v -5.530375 3.350491 0.2045132
v -5.449344 3.373189 0.1963101
v -5.525565 3.321699 0.2063718
v -5.457966 3.340636 0.2063711
v -5.514169 3.355031 0.2095544
v -5.464273 3.369006 0.2045129
v -5.508979 3.326344 0.2115948
v -5.474549 3.33599 0.2115948
v -5.497324 3.359749 0.2112842
v -5.480481 3.364467 0.2095544
v -5.491765 3.331168 0.2134259
v -5.545304 3.346308 0.04884705
v -5.540624 3.359013 0.05888001
v -5.551696 3.355913 0.0689032
v -5.530376 3.350491 0.04064392
v -5.558407 3.342638 0.05985412
v -5.528142 3.362509 0.05139099
v -5.561457 3.353176 0.08027496
v -5.514169 3.35503 0.03560303
v -5.569125 3.339635 0.0733081
v -5.51416 3.366427 0.0476239
v -5.568752 3.351134 0.09309143
v -5.497326 3.359751 0.0338739
v -5.577115 3.337396 0.08864013
v -5.499426 3.370553 0.04667053
v -5.572419 3.350107 0.1074499
v -5.480482 3.364466 0.03560242
v -5.582023 3.336022 0.1052817
v -5.484692 3.374681 0.04762268
v -5.573348 3.349847 0.1225787
v -5.464275 3.369006 0.04064392
v -5.583709 3.33555 0.122579
v -5.47071 3.378599 0.05139099
v -5.572419 3.350107 0.1377069
v -5.449344 3.373189 0.04884705
v -5.582023 3.336022 0.1398755
v -5.458229 3.382096 0.05888001
v -5.56875 3.351133 0.1520657
v -5.436243 3.376861 0.05985412
v -5.577115 3.337398 0.1565167
v -5.447157 3.385197 0.0689032
v -5.561457 3.353177 0.1648819
v -5.425524 3.379863 0.0733081
v -5.569127 3.339635 0.1718481
v -5.437397 3.387931 0.08027527
v -5.551697 3.355913 0.1762537
v -5.417535 3.382099 0.08863922
v -5.558406 3.342638 0.1853024
v -5.430102 3.389975 0.09309143
v -5.540624 3.359013 0.1862769
v -5.412626 3.383477 0.1052814
v -5.545304 3.346308 0.1963104
v -5.426434 3.391001 0.107449
v -5.52814 3.362509 0.1937659
v -5.410942 3.383946 0.1225784
v -5.530375 3.350491 0.2045132
v -5.425505 3.391263 0.1225784
v -5.514159 3.366428 0.1975327
v -5.412625 3.383476 0.1398752
v -5.514169 3.355031 0.2095544
v -5.426435 3.391002 0.1377066
v -5.499426 3.370553 0.1984866
v -5.417535 3.3821 0.1565167
v -5.497324 3.359749 0.2112842
v -5.430102 3.389975 0.1520651
v -5.484693 3.374682 0.197533
v -5.425524 3.379862 0.1718484
v -5.480481 3.364467 0.2095544
v -5.437395 3.387931 0.1648816
v -5.470711 3.378598 0.1937665
v -5.436243 3.376859 0.1853021
v -5.464273 3.369006 0.2045129
v -5.447157 3.385197 0.1762537
v -5.458229 3.382094 0.1862775
v -5.449344 3.373189 0.1963101
vt 0.889564 0.5396839
vt 0.8881332 0.5466139
vt 0.8909013 0.5400471
vt 0.8881454 0.5395806
vt 0.8920985 0.5407402
vt 0.886725 0.5396709
vt 0.8931599 0.5416707
vt 0.885384 0.5400257
vt 0.8940824 0.5427312
vt 0.8841826 0.5407079
vt 0.8947653 0.5439132
vt 0.8831105 0.5416293
vt 0.8951214 0.545226
vt 0.8821758 0.5426888
vt 0.8952227 0.5466139
vt 0.8814871 0.5438803
vt 0.8951214 0.5480016
vt 0.8811347 0.5452073
vt 0.8947653 0.5493145
vt 0.8810505 0.5466141
vt 0.8940823 0.5504965
vt 0.8811348 0.5480204
vt 0.8931601 0.5515568
vt 0.8814871 0.5493475
vt 0.8920985 0.5524879
vt 0.8821757 0.5505392
vt 0.8909011 0.5531805
vt 0.8831105 0.5515985
vt 0.889564 0.5535436
vt 0.8841826 0.5525199
vt 0.8881456 0.5536466
vt 0.8853843 0.5532022
vt 0.886725 0.5535564
vt 0.8886178 0.5346608
vt 0.8882537 0.5379775
vt 0.889958 0.5381602
vt 0.8909543 0.5349832
vt 0.8862526 0.5348038
vt 0.891592 0.5386707
vt 0.8865474 0.5381303
vt 0.8931758 0.5357535
vt 0.883948 0.5354075
vt 0.8930876 0.5394898
vt 0.8849037 0.5386105
vt 0.895189 0.5369341
vt 0.8817983 0.5364519
vt 0.8943888 0.5405776
vt 0.8833873 0.5394018
vt 0.896913 0.5384669
vt 0.8798916 0.5378957
vt 0.8954461 0.541891
vt 0.8820567 0.5404701
vt 0.8982858 0.5402865
vt 0.8782948 0.5396926
vt 0.8962253 0.5433742
vt 0.8809624 0.5417761
vt 0.899269 0.5423141
vt 0.8770657 0.5417879
vt 0.8967026 0.5449674
vt 0.8801447 0.5432737
vt 0.8998387 0.5444548
vt 0.8762608 0.5441176
vt 0.89688 0.5466139
vt 0.8796465 0.5449105
vt 0.8999956 0.5466139
vt 0.8759301 0.5466141
vt 0.8967026 0.5482606
vt 0.8795009 0.5466141
vt 0.8998387 0.5487728
vt 0.8762609 0.5491101
vt 0.8962253 0.5498533
vt 0.8796465 0.548317
vt 0.8992689 0.5509135
vt 0.8770658 0.5514393
vt 0.8954462 0.5513367
vt 0.8801448 0.549954
vt 0.898286 0.5529411
vt 0.8782948 0.5535352
vt 0.894389 0.5526503
vt 0.8809624 0.5514516
vt 0.8969132 0.5547606
vt 0.8798921 0.5553322
vt 0.8930876 0.5537379
vt 0.8820567 0.5527578
vt 0.8951891 0.5562938
vt 0.8817984 0.5567757
vt 0.8915921 0.5545567
vt 0.8833874 0.553826
vt 0.8931758 0.557474
vt 0.883948 0.5578202
vt 0.889958 0.5550672
vt 0.8849037 0.5546177
vt 0.8909546 0.5582445
vt 0.8862525 0.5584242
vt 0.8882537 0.5552503
vt 0.8865474 0.5550972
vt 0.8886179 0.5585669
vt 0.8930876 0.5394898
vt 0.8920985 0.5407402
vt 0.8931599 0.5416707
vt 0.891592 0.5386707
vt 0.8943888 0.5405776
vt 0.8909013 0.5400471
vt 0.8940824 0.5427312
vt 0.889958 0.5381602
vt 0.8954461 0.541891
vt 0.889564 0.5396839
vt 0.8947653 0.5439132
vt 0.8882537 0.5379775
vt 0.8962253 0.5433742
vt 0.8881454 0.5395806
vt 0.8951214 0.545226
vt 0.8865474 0.5381303
vt 0.8967026 0.5449674
vt 0.886725 0.5396709
vt 0.8952227 0.5466139
vt 0.8849037 0.5386105
vt 0.89688 0.5466139
vt 0.885384 0.5400257
vt 0.8951214 0.5480016
vt 0.8833873 0.5394018
vt 0.8967026 0.5482606
vt 0.8841826 0.5407079
vt 0.8947653 0.5493145
vt 0.8820567 0.5404701
vt 0.8962253 0.5498533
vt 0.8831105 0.5416293
vt 0.8940823 0.5504965
vt 0.8809624 0.5417761
vt 0.8954462 0.5513367
vt 0.8821758 0.5426888
vt 0.8931601 0.5515568
vt 0.8801447 0.5432737
vt 0.894389 0.5526503
vt 0.8814871 0.5438803
vt 0.8920985 0.5524879
vt 0.8796465 0.5449105
vt 0.8930876 0.5537379
vt 0.8811347 0.5452073
vt 0.8909011 0.5531805
vt 0.8795009 0.5466141
vt 0.8915921 0.5545567
vt 0.8810505 0.5466141
vt 0.889564 0.5535436
vt 0.8796465 0.548317
vt 0.889958 0.5550672
vt 0.8811348 0.5480204
vt 0.8881456 0.5536466
vt 0.8801448 0.549954
vt 0.8882537 0.5552503
vt 0.8814871 0.5493475
vt 0.886725 0.5535564
vt 0.8809624 0.5514516
vt 0.8865474 0.5550972
vt 0.8821757 0.5505392
vt 0.8853843 0.5532022
vt 0.8820567 0.5527578
vt 0.8849037 0.5546177
vt 0.8831105 0.5515985
vt 0.8841826 0.5525199
vt 0.8833874 0.553826
vn -0.2698127 0.9629129 1.12134E-05
vn -0.2698127 0.9629129 1.12134E-05
vn -0.2698127 0.9629129 1.12134E-05
vn -0.2697692 0.962925 -2.098377E-05
vn -0.2697209 0.9629385 -2.866565E-05
vn -0.2698452 0.9629037 -3.708163E-05
vn -0.2696725 0.9629521 -6.246829E-05
vn -0.2697355 0.9629346 1.066194E-05
vn -0.2698662 0.9628978 0.0001409552
vn -0.2697528 0.9629297 -1.437153E-06
vn -0.2697243 0.9629377 -8.356437E-05
vn -0.2697081 0.9629422 4.54734E-05
vn -0.2697453 0.9629316 -3.014021E-05
vn -0.2697638 0.9629266 -4.257446E-05
vn -0.2697484 0.9629309 -1.406093E-05
vn -0.2697197 0.9629388 6.896757E-05
vn -0.2697484 0.9629309 1.406149E-05
vn -0.2697473 0.9629311 -7.458285E-05
vn -0.2697294 0.9629361 0.0001125667
vn -0.2697473 0.9629311 1.39742E-05
vn -0.2697977 0.9629171 -6.032302E-05
vn -0.2697371 0.962934 -3.935134E-05
vn -0.2697991 0.9629166 -6.256197E-05
vn -0.269791 0.9629188 9.739224E-05
vn -0.2696875 0.9629479 5.457037E-05
vn -0.2697009 0.9629441 -4.508893E-05
vn -0.2696642 0.9629544 7.090971E-05
vn -0.2698089 0.9629139 6.826449E-05
vn -0.2699164 0.9628838 -3.886638E-05
vn -0.2697155 0.96294 3.130877E-06
vn -0.2696341 0.9629628 2.098556E-05
vn -0.2696995 0.9629446 -3.838536E-06
vn -0.2698166 0.9629118 2.098331E-05
vn -0.02458959 0.06887819 -0.997322
vn -0.01447717 0.0708489 -0.997382
vn -0.2061778 0.03235299 -0.9779795
vn -0.2153755 0.0304447 -0.9760566
vn 0.1680335 0.1052868 -0.9801426
vn -0.3861952 -0.003920834 -0.9224087
vn 0.1775135 0.1070166 -0.9782824
vn -0.3944899 -0.005534148 -0.9188836
vn 0.3499159 0.1395536 -0.926328
vn -0.553176 -0.03526102 -0.8323178
vn 0.3581946 0.1411713 -0.9229124
vn -0.5601003 -0.0365042 -0.8276201
vn 0.518176 0.1735926 -0.837472
vn -0.7036744 -0.06323803 -0.7077028
vn 0.5248342 0.1749944 -0.8330222
vn -0.7088308 -0.06423891 -0.7024474
vn 0.6701615 0.2046045 -0.7134567
vn -0.827246 -0.08838009 -0.554845
vn 0.6752956 0.2056094 -0.7083083
vn -0.8302218 -0.08902331 -0.5502787
vn 0.7963073 0.2281292 -0.5602248
vn -0.9170876 -0.1070254 -0.3840519
vn 0.7994273 0.2286723 -0.5555401
vn -0.9185449 -0.1073088 -0.3804734
vn 0.8884698 0.2449726 -0.388085
vn -0.973164 -0.1167584 -0.1982912
vn 0.889921 0.2452571 -0.3845643
vn -0.9735813 -0.1168136 -0.1961988
vn 0.9453285 0.2573128 -0.2003598
vn -0.9928522 -0.1193504 2.813778E-06
vn 0.9456874 0.2574058 -0.1985388
vn -0.9928522 -0.1193504 2.750349E-06
vn 0.9649583 0.2624035 -6.70102E-06
vn -0.9731635 -0.116739 0.1983052
vn 0.9649583 0.2624035 -8.147089E-06
vn -0.9735823 -0.1167944 0.1962053
vn 0.9453292 0.2573124 0.2003571
vn -0.9170938 -0.107022 0.3840381
vn 0.9456878 0.2574053 0.1985377
vn -0.9185514 -0.107305 0.3804589
vn 0.8884649 0.2449744 0.3880947
vn -0.8272474 -0.08838197 0.5548426
vn 0.8899176 0.245259 0.3845708
vn -0.8302197 -0.08902476 0.5502816
vn 0.7962924 0.228126 0.5602471
vn -0.7036684 -0.06323935 0.7077088
vn 0.7994174 0.2286703 0.5555553
vn -0.708823 -0.06423944 0.7024552
vn 0.6701642 0.2046008 0.7134553
vn -0.553188 -0.03527031 0.8323094
vn 0.6752983 0.2056056 0.7083068
vn -0.560115 -0.03651409 0.8276097
vn 0.5182206 0.1736045 0.8374419
vn -0.3861784 -0.003925596 0.9224157
vn 0.524873 0.1750046 0.8329956
vn -0.3944742 -0.005538926 0.9188904
vn 0.3499297 0.1395661 0.926321
vn -0.2061821 0.03233197 0.9779794
vn 0.3582106 0.1411841 0.9229043
vn -0.2153738 0.0304258 0.9760576
vn 0.1680496 0.1052903 0.9801395
vn -0.01446886 0.07083263 0.9973833
vn 0.1775265 0.1070205 0.9782797
vn -0.02458836 0.06885952 0.9973233
vn -0.560505 0.6306851 -0.5367219
vn -0.5574359 0.6308783 -0.5396831
vn -0.6392613 0.6193745 -0.4557635
vn -0.4465768 0.6497682 -0.6151183
vn -0.6412956 0.6188969 -0.453549
vn -0.441736 0.6509134 -0.6173986
vn -0.7135174 0.594758 -0.3703457
vn -0.3170756 0.6880394 -0.6527365
vn -0.7153401 0.5939584 -0.3681058
vn -0.3128374 0.6896421 -0.65309
vn -0.7809858 0.5715147 -0.251857
vn -0.2044015 0.7232842 -0.6596059
vn -0.7818868 0.5713062 -0.2495238
vn -0.2008403 0.7241469 -0.6597534
vn -0.8123139 0.5715302 -0.1161863
vn -0.08662461 0.7441613 -0.6623596
vn -0.8123816 0.5716413 -0.1151616
vn -0.08227335 0.7446533 -0.6623613
vn -0.8160058 0.5780438 8.751499E-06
vn 0.05263256 0.7697326 -0.6361931
vn -0.8160058 0.5780438 9.454955E-06
vn 0.05688739 0.7707713 -0.6345671
vn -0.812291 0.5715603 0.1161986
vn 0.1728695 0.8073353 -0.5642038
vn -0.8123593 0.5716708 0.1151729
vn 0.1750783 0.8083038 -0.562132
vn -0.7809513 0.5715824 0.2518108
vn 0.2587597 0.837251 -0.4817199
vn -0.7818539 0.5713734 0.2494734
vn 0.2602715 0.8376297 -0.480245
vn -0.7135016 0.5947888 0.3703265
vn 0.3463812 0.850872 -0.3950151
vn -0.7153268 0.5939903 0.3680804
vn 0.3478889 0.8509647 -0.3934875
vn -0.6392515 0.619366 0.4557888
vn 0.4275093 0.8625265 -0.2707097
vn -0.641282 0.618889 0.4535788
vn 0.4281586 0.862689 -0.2691618
vn -0.5574139 0.6309012 0.5396791
vn 0.4597098 0.8791587 -0.1254866
vn -0.5604857 0.6307062 0.5367174
vn 0.4597156 0.8792364 -0.1249197
vn -0.4417408 0.6509523 0.6173542
vn 0.4600925 0.887871 1.579463E-05
vn -0.4465879 0.6498051 0.6150712
vn 0.4600925 0.887871 1.626916E-05
vn -0.3128397 0.6896665 0.6530632
vn 0.4597348 0.879149 0.1254626
vn -0.3170787 0.6880658 0.6527071
vn 0.4597406 0.8792271 0.124893
vn -0.2008313 0.7241462 0.6597568
vn 0.4275367 0.8625177 0.2706946
vn -0.2043855 0.7232852 0.6596098
vn 0.4281868 0.8626804 0.2691441
vn -0.08228458 0.7446775 0.6623327
vn 0.3463863 0.8508406 0.3950781
vn -0.08663245 0.7441841 0.6623329
vn 0.3478987 0.8509338 0.3935455
vn 0.05686349 0.7708158 0.6345151
vn 0.258766 0.8372379 0.4817394
vn 0.0526316 0.7697826 0.6361327
vn 0.2602752 0.837615 0.4802688
vn 0.1750635 0.8083337 0.5620937
vn 0.1728523 0.8073653 0.5641661
g KK-Nail_10_0
f 3/3/3 2/2/2 1/1/1
f 1/1/1 2/2/2 4/4/4
f 5/5/5 2/2/2 3/3/3
f 4/4/4 2/2/2 6/6/6
f 7/7/7 2/2/2 5/5/5
f 6/6/6 2/2/2 8/8/8
f 9/9/9 2/2/2 7/7/7
f 8/8/8 2/2/2 10/10/10
f 11/11/11 2/2/2 9/9/9
f 10/10/10 2/2/2 12/12/12
f 13/13/13 2/2/2 11/11/11
f 12/12/12 2/2/2 14/14/14
f 15/15/15 2/2/2 13/13/13
f 14/14/14 2/2/2 16/16/16
f 17/17/17 2/2/2 15/15/15
f 16/16/16 2/2/2 18/18/18
f 19/19/19 2/2/2 17/17/17
f 18/18/18 2/2/2 20/20/20
f 21/21/21 2/2/2 19/19/19
f 20/20/20 2/2/2 22/22/22
f 23/23/23 2/2/2 21/21/21
f 22/22/22 2/2/2 24/24/24
f 25/25/25 2/2/2 23/23/23
f 24/24/24 2/2/2 26/26/26
f 27/27/27 2/2/2 25/25/25
f 26/26/26 2/2/2 28/28/28
f 29/29/29 2/2/2 27/27/27
f 28/28/28 2/2/2 30/30/30
f 31/31/31 2/2/2 29/29/29
f 30/30/30 2/2/2 32/32/32
f 33/33/33 2/2/2 31/31/31
f 32/32/32 2/2/2 33/33/33
f 36/36/36 35/35/35 34/34/34
f 37/37/37 36/36/36 34/34/34
f 34/34/34 35/35/35 38/38/38
f 39/39/39 36/36/36 37/37/37
f 35/35/35 40/40/40 38/38/38
f 41/41/41 39/39/39 37/37/37
f 38/38/38 40/40/40 42/42/42
f 43/43/43 39/39/39 41/41/41
f 40/40/40 44/44/44 42/42/42
f 45/45/45 43/43/43 41/41/41
f 42/42/42 44/44/44 46/46/46
f 47/47/47 43/43/43 45/45/45
f 44/44/44 48/48/48 46/46/46
f 49/49/49 47/47/47 45/45/45
f 46/46/46 48/48/48 50/50/50
f 51/51/51 47/47/47 49/49/49
f 48/48/48 52/52/52 50/50/50
f 53/53/53 51/51/51 49/49/49
f 50/50/50 52/52/52 54/54/54
f 55/55/55 51/51/51 53/53/53
f 52/52/52 56/56/56 54/54/54
f 57/57/57 55/55/55 53/53/53
f 54/54/54 56/56/56 58/58/58
f 59/59/59 55/55/55 57/57/57
f 56/56/56 60/60/60 58/58/58
f 61/61/61 59/59/59 57/57/57
f 58/58/58 60/60/60 62/62/62
f 63/63/63 59/59/59 61/61/61
f 60/60/60 64/64/64 62/62/62
f 65/65/65 63/63/63 61/61/61
f 62/62/62 64/64/64 66/66/66
f 67/67/67 63/63/63 65/65/65
f 64/64/64 68/68/68 66/66/66
f 69/69/69 67/67/67 65/65/65
f 66/66/66 68/68/68 70/70/70
f 71/71/71 67/67/67 69/69/69
f 68/68/68 72/72/72 70/70/70
f 73/73/73 71/71/71 69/69/69
f 70/70/70 72/72/72 74/74/74
f 75/75/75 71/71/71 73/73/73
f 72/72/72 76/76/76 74/74/74
f 77/77/77 75/75/75 73/73/73
f 74/74/74 76/76/76 78/78/78
f 79/79/79 75/75/75 77/77/77
f 76/76/76 80/80/80 78/78/78
f 81/81/81 79/79/79 77/77/77
f 78/78/78 80/80/80 82/82/82
f 83/83/83 79/79/79 81/81/81
f 80/80/80 84/84/84 82/82/82
f 85/85/85 83/83/83 81/81/81
f 82/82/82 84/84/84 86/86/86
f 87/87/87 83/83/83 85/85/85
f 84/84/84 88/88/88 86/86/86
f 89/89/89 87/87/87 85/85/85
f 86/86/86 88/88/88 90/90/90
f 91/91/91 87/87/87 89/89/89
f 88/88/88 92/92/92 90/90/90
f 93/93/93 91/91/91 89/89/89
f 90/90/90 92/92/92 94/94/94
f 95/95/95 91/91/91 93/93/93
f 92/92/92 96/96/96 94/94/94
f 97/97/97 95/95/95 93/93/93
f 94/94/94 96/96/96 97/97/97
f 96/96/96 95/95/95 97/97/97
f 100/100/100 99/99/99 98/98/98
f 98/98/98 99/99/99 101/101/101
f 102/102/102 100/100/100 98/98/98
f 99/99/99 103/103/103 101/101/101
f 104/104/104 100/100/100 102/102/102
f 101/101/101 103/103/103 105/105/105
f 106/106/106 104/104/104 102/102/102
f 103/103/103 107/107/107 105/105/105
f 108/108/108 104/104/104 106/106/106
f 105/105/105 107/107/107 109/109/109
f 110/110/110 108/108/108 106/106/106
f 107/107/107 111/111/111 109/109/109
f 112/112/112 108/108/108 110/110/110
f 109/109/109 111/111/111 113/113/113
f 114/114/114 112/112/112 110/110/110
f 111/111/111 115/115/115 113/113/113
f 116/116/116 112/112/112 114/114/114
f 113/113/113 115/115/115 117/117/117
f 118/118/118 116/116/116 114/114/114
f 115/115/115 119/119/119 117/117/117
f 120/120/120 116/116/116 118/118/118
f 117/117/117 119/119/119 121/121/121
f 122/122/122 120/120/120 118/118/118
f 119/119/119 123/123/123 121/121/121
f 124/124/124 120/120/120 122/122/122
f 121/121/121 123/123/123 125/125/125
f 126/126/126 124/124/124 122/122/122
f 123/123/123 127/127/127 125/125/125
f 128/128/128 124/124/124 126/126/126
f 125/125/125 127/127/127 129/129/129
f 130/130/130 128/128/128 126/126/126
f 127/127/127 131/131/131 129/129/129
f 132/132/132 128/128/128 130/130/130
f 129/129/129 131/131/131 133/133/133
f 134/134/134 132/132/132 130/130/130
f 131/131/131 135/135/135 133/133/133
f 136/136/136 132/132/132 134/134/134
f 133/133/133 135/135/135 137/137/137
f 138/138/138 136/136/136 134/134/134
f 135/135/135 139/139/139 137/137/137
f 140/140/140 136/136/136 138/138/138
f 137/137/137 139/139/139 141/141/141
f 142/142/142 140/140/140 138/138/138
f 139/139/139 143/143/143 141/141/141
f 144/144/144 140/140/140 142/142/142
f 141/141/141 143/143/143 145/145/145
f 146/146/146 144/144/144 142/142/142
f 143/143/143 147/147/147 145/145/145
f 148/148/148 144/144/144 146/146/146
f 145/145/145 147/147/147 149/149/149
f 150/150/150 148/148/148 146/146/146
f 147/147/147 151/151/151 149/149/149
f 152/152/152 148/148/148 150/150/150
f 149/149/149 151/151/151 153/153/153
f 154/154/154 152/152/152 150/150/150
f 151/151/151 155/155/155 153/153/153
f 156/156/156 152/152/152 154/154/154
f 153/153/153 155/155/155 157/157/157
f 158/158/158 156/156/156 154/154/154
f 155/155/155 159/159/159 157/157/157
f 160/160/160 156/156/156 158/158/158
f 157/157/157 159/159/159 161/161/161
f 161/161/161 160/160/160 158/158/158
f 159/159/159 160/160/160 161/161/161
