g KK-SignLetter_5
v -10.75001 27.76484 31.36255
v -11.00826 27.76785 31.36255
v -10.99443 27.77127 31.36255
v -10.73464 27.76039 31.36255
v -11.01378 27.76247 31.36255
v -10.72772 27.75347 31.36255
v -11.01757 27.74874 31.36255
v -10.72327 27.73809 31.36255
v -11.01757 26.87207 31.36255
v -10.69994 26.85159 31.36255
v -11.02639 26.83105 31.36255
v -10.93856 26.61014 31.36255
v -11.05342 26.79409 31.36255
v -10.69283 26.56615 31.36255
v -11.0961 26.76965 31.36255
v -10.93856 26.34882 31.36255
v -10.68691 26.33816 31.36255
v -10.93594 26.33895 31.36255
v -10.68899 26.32995 31.36255
v -10.93311 26.33604 31.36255
v -10.69037 26.32857 31.36255
v -10.92333 26.33313 31.36255
v -10.69859 26.32652 31.36255
v -11.56631 26.6282 31.36255
v -11.31204 26.77568 31.36255
v -11.65895 26.68024 31.36255
v -11.61348 26.64722 31.36255
v -11.35057 26.7964 31.36255
v -11.69092 26.72028 31.36255
v -11.37777 26.82782 31.36255
v -11.71131 26.76719 31.36255
v -11.38877 26.86456 31.36255
v -11.71877 26.82124 31.36255
v -11.71877 27.71961 31.36255
v -11.44186 27.75616 31.36255
v -11.71457 27.73635 31.36255
v -11.44635 27.76909 31.36255
v -11.70703 27.74478 31.36255
v -11.45176 27.77364 31.36255
v -11.69085 27.7508 31.36255
v -11.46529 27.77586 31.36255
v -11.05892 26.87647 31.24687
v -11.02639 26.83105 31.36255
v -11.06497 26.84836 31.24687
v -11.01757 26.87207 31.36255
v -11.05892 27.75434 31.24687
v -11.01757 27.74874 31.36255
v -11.05067 27.78428 31.24687
v -11.01378 27.76247 31.36255
v -11.02908 27.8053 31.24687
v -11.00826 27.76785 31.36255
v -10.99894 27.81276 31.24687
v -10.99443 27.77127 31.36255
v -10.74361 27.80604 31.24687
v -10.75001 27.76484 31.36255
v -10.71292 27.79716 31.24687
v -10.73464 27.76039 31.36255
v -10.69095 27.77518 31.24687
v -10.72772 27.75347 31.36255
v -10.68207 27.74448 31.24687
v -10.72327 27.73809 31.36255
v -10.6586 26.85265 31.24687
v -10.69994 26.85159 31.36255
v -10.65149 26.56721 31.24687
v -10.69283 26.56615 31.36255
v -10.64542 26.33353 31.24687
v -10.68691 26.33816 31.36255
v -10.6517 26.30873 31.24687
v -10.68899 26.32995 31.36255
v -10.66927 26.29122 31.24687
v -10.69037 26.32857 31.36255
v -10.6941 26.28502 31.24687
v -10.69859 26.32652 31.36255
v -10.92994 26.29195 31.24687
v -10.92333 26.33313 31.36255
v -10.95525 26.29948 31.24687
v -10.93311 26.33604 31.36255
v -10.97314 26.31789 31.24687
v -10.93594 26.33895 31.36255
v -10.97991 26.34342 31.24687
v -10.93856 26.34882 31.36255
v -10.97991 26.56996 31.24687
v -10.93856 26.61014 31.36255
v -11.5749 26.58707 31.24687
v -11.56631 26.6282 31.36255
v -11.63367 26.61077 31.24687
v -11.61348 26.64722 31.36255
v -11.68679 26.64965 31.24687
v -11.65895 26.68024 31.36255
v -11.72659 26.69859 31.24687
v -11.69092 26.72028 31.36255
v -11.7515 26.75592 31.24687
v -11.71131 26.76719 31.36255
v -11.76012 26.8184 31.24687
v -11.71877 26.82124 31.36255
v -11.76012 27.72471 31.24687
v -11.71877 27.71961 31.36255
v -11.7522 27.75632 31.24687
v -11.71457 27.73635 31.36255
v -11.73103 27.77998 31.24687
v -11.70703 27.74478 31.36255
v -11.70049 27.79134 31.24687
v -11.69085 27.7508 31.36255
v -11.46422 27.81759 31.24687
v -11.46529 27.77586 31.36255
v -11.43384 27.81262 31.24687
v -11.45176 27.77364 31.36255
v -11.41101 27.79341 31.24687
v -11.44635 27.76909 31.36255
v -11.40092 27.76433 31.24687
v -11.44186 27.75616 31.36255
v -11.34777 26.87181 31.24687
v -11.38877 26.86456 31.36255
v -11.3407 26.84818 31.24687
v -11.37777 26.82782 31.36255
v -11.32428 26.82921 31.24687
v -11.35057 26.7964 31.36255
v -11.30109 26.81674 31.24687
v -11.31204 26.77568 31.36255
v -11.10657 26.81131 31.24687
v -11.0961 26.76965 31.36255
v -11.08161 26.8256 31.24687
v -11.05342 26.79409 31.36255
v -11.06497 26.84836 31.24687
v -11.02639 26.83105 31.36255
vt 0.8854784 0.2020216
vt 0.8627639 0.2213967
vt 0.864454 0.2206205
vt 0.886623 0.2002574
vt 0.8617848 0.2213282
vt 0.8867792 0.198975
vt 0.8600907 0.2205175
vt 0.8862488 0.1969297
vt 0.774763 0.1311596
vt 0.8175406 0.09975258
vt 0.7687303 0.126866
vt 0.7650642 0.0836809
vt 0.7606646 0.1267498
vt 0.7997111 0.06341198
vt 0.7526016 0.1235751
vt 0.7644685 0.04473025
vt 0.7872458 0.03741567
vt 0.7647291 0.04358114
vt 0.7865908 0.03669013
vt 0.765007 0.04307953
vt 0.7863017 0.03649118
vt 0.7661344 0.0423343
vt 0.7851477 0.03647126
vt 0.6739443 0.1348572
vt 0.7187674 0.1423077
vt 0.6650636 0.1456791
vt 0.668979 0.1395172
vt 0.7138957 0.14758
vt 0.6626362 0.1519172
vt 0.7107841 0.1537393
vt 0.6612701 0.1585096
vt 0.7096504 0.1597015
vt 0.6613859 0.1658267
vt 0.6718947 0.2755979
vt 0.7037672 0.2775367
vt 0.6728702 0.2775336
vt 0.7030673 0.2790972
vt 0.6738737 0.2784876
vt 0.70243 0.2796887
vt 0.6758434 0.2790823
vt 0.7008187 0.2801078
vt 0.7649972 0.14746
vt 0.7687303 0.126866
vt 0.7613323 0.1454768
vt 0.774763 0.1311596
vt 0.8547414 0.2370899
vt 0.8600907 0.2205175
vt 0.8597093 0.2382318
vt 0.8617848 0.2213282
vt 0.8646306 0.2382492
vt 0.8627639 0.2213967
vt 0.8695855 0.2371002
vt 0.864454 0.2206205
vt 0.9014462 0.210213
vt 0.8854784 0.2020216
vt 0.9034596 0.2051229
vt 0.886623 0.2002574
vt 0.904292 0.1999778
vt 0.8867792 0.198975
vt 0.9039662 0.1946296
vt 0.8862488 0.1969297
vt 0.8329356 0.09089445
vt 0.8175406 0.09975258
vt 0.8154586 0.05526725
vt 0.7997111 0.06341198
vt 0.7984138 0.0249772
vt 0.7872458 0.03741567
vt 0.7953827 0.02242198
vt 0.7865908 0.03669013
vt 0.7918308 0.02081463
vt 0.7863017 0.03649118
vt 0.7879069 0.02
vt 0.7851477 0.03647126
vt 0.7557154 0.0294487
vt 0.7661344 0.0423343
vt 0.7527619 0.03222672
vt 0.765007 0.04307953
vt 0.7505883 0.03542236
vt 0.7647291 0.04358114
vt 0.749078 0.03907318
vt 0.7644685 0.04473025
vt 0.745344 0.07219835
vt 0.7650642 0.0836809
vt 0.6619528 0.1212761
vt 0.6739443 0.1348572
vt 0.6552872 0.1287267
vt 0.668979 0.1395172
vt 0.6497499 0.1375014
vt 0.6650636 0.1456791
vt 0.6460919 0.1467091
vt 0.6626362 0.1519172
vt 0.644324 0.1561848
vt 0.6612701 0.1585096
vt 0.6439804 0.1656037
vt 0.6613859 0.1658267
vt 0.6578729 0.2850926
vt 0.6718947 0.2755979
vt 0.6610667 0.2891695
vt 0.6728702 0.2775336
vt 0.6649539 0.2923997
vt 0.6738737 0.2784876
vt 0.6696124 0.294791
vt 0.6758434 0.2790823
vt 0.7071014 0.2951523
vt 0.7008187 0.2801078
vt 0.7113819 0.292978
vt 0.70243 0.2796887
vt 0.7149074 0.2900225
vt 0.7030673 0.2790972
vt 0.717769 0.2861893
vt 0.7037672 0.2775367
vt 0.7266496 0.1645506
vt 0.7096504 0.1597015
vt 0.7277144 0.1613588
vt 0.7107841 0.1537393
vt 0.7294791 0.1583761
vt 0.7138957 0.14758
vt 0.7317741 0.155558
vt 0.7187674 0.1423077
vt 0.7533092 0.143886
vt 0.7526016 0.1235751
vt 0.7576729 0.1443815
vt 0.7606646 0.1267498
vt 0.7613323 0.1454768
vt 0.7687303 0.126866
vn 0 1.221356E-06 1
vn 0 -5.730965E-07 1
vn 0 1.221356E-06 1
vn 0 -5.867652E-07 1
vn 0 4.397344E-07 1
vn 0 4.78194E-07 1
vn 0 4.510759E-07 1
vn 0 4.19656E-07 1
vn 0 2.292945E-07 1
vn 0 0 1
vn 0 2.132219E-07 1
vn 0 0 1
vn 1.470602E-07 1.436699E-07 1
vn 0 0 1
vn 0 0 1
vn 1.718838E-07 4.140234E-07 1
vn 1.757981E-07 4.554335E-07 1
vn 2.160172E-07 1.416346E-06 1
vn 2.145543E-07 1.446552E-06 1
vn 1.387603E-07 9.197371E-07 1
vn 1.359884E-07 8.129271E-07 1
vn -1.861082E-07 -1.15983E-05 1
vn -1.861083E-07 -1.15983E-05 1
vn 0 1.84644E-07 1
vn 0 -1.356357E-07 1
vn 0 -1.021405E-07 1
vn 0 2.643299E-07 1
vn 0 -1.812043E-07 1
vn 0 0 1
vn 0 0 1
vn 0 1.156147E-07 1
vn 0 0 1
vn 0 0 1
vn -1.120483E-07 5.098959E-07 1
vn -1.254088E-07 5.952604E-07 1
vn -1.323518E-07 5.321456E-07 1
vn -1.15783E-07 4.086119E-07 1
vn 1.624034E-07 -1.579124E-06 1
vn 1.659233E-07 -1.592298E-06 1
vn 3.928481E-07 -2.441643E-06 1
vn 3.928481E-07 -2.441643E-06 1
vn -0.9357542 0.09952243 0.3383182
vn -0.8569666 0.3843888 0.3432982
vn -0.8569664 0.3843889 0.3432982
vn -0.9357542 0.09952266 0.3383183
vn -0.9321631 0.126142 0.3393528
vn -0.9321631 0.1261418 0.3393529
vn -0.8072859 0.4771154 0.3473476
vn -0.8072857 0.4771159 0.3473476
vn -0.4557094 0.8195603 0.3473469
vn -0.4557092 0.8195603 0.3473469
vn -0.1015784 0.9351584 0.3393532
vn -0.1015784 0.9351584 0.3393532
vn 0.1443791 0.9296102 0.3390864
vn 0.1443789 0.9296102 0.3390864
vn 0.4772504 0.8076538 0.3463054
vn 0.4772503 0.8076538 0.3463054
vn 0.8078139 0.4769795 0.3463051
vn 0.8078142 0.4769792 0.3463052
vn 0.929637 0.144225 0.3390785
vn 0.929637 0.1442248 0.3390786
vn 0.9413263 0.02410388 0.3366361
vn 0.9413263 0.02410388 0.3366361
vn 0.9413304 0.02394089 0.3366362
vn 0.9413304 0.02394089 0.3366363
vn 0.9348303 -0.1042242 0.339455
vn 0.9348302 -0.1042248 0.3394549
vn 0.8147832 -0.4638974 0.3477464
vn 0.8147826 -0.4638985 0.3477464
vn 0.4610946 -0.8163734 0.3477447
vn 0.461096 -0.8163726 0.3477446
vn 0.1010194 -0.9351825 0.3394538
vn 0.1010199 -0.9351823 0.3394538
vn -0.1490682 -0.928843 0.3391598
vn -0.1490681 -0.928843 0.3391598
vn -0.4858695 -0.8023699 0.3466026
vn -0.4858691 -0.8023701 0.3466026
vn -0.8163126 -0.4620614 0.3466019
vn -0.8163126 -0.4620616 0.3466019
vn -0.9328231 -0.1216979 0.3391618
vn -0.9328231 -0.1216977 0.3391617
vn -0.6418794 -0.6236763 0.4461152
vn -0.6418795 -0.6236762 0.4461152
vn -0.1922784 -0.9200503 0.3413745
vn -0.1922785 -0.9200503 0.3413745
vn -0.4566237 -0.82276 0.3384683
vn -0.4566661 -0.8227365 0.3384682
vn -0.648706 -0.6819018 0.3379208
vn -0.6495764 -0.6810746 0.3379171
vn -0.8049311 -0.4873354 0.3385118
vn -0.8049924 -0.4872334 0.3385126
vn -0.9056704 -0.2540621 0.3394315
vn -0.9056703 -0.2540624 0.3394315
vn -0.9391739 -0.06446124 0.3373382
vn -0.9391739 -0.06446125 0.3373382
vn -0.9337407 0.115224 0.3388976
vn -0.9337407 0.1152239 0.3388977
vn -0.8289374 0.4398234 0.3455691
vn -0.8289375 0.4398234 0.3455692
vn -0.5286729 0.7752981 0.3455687
vn -0.5286729 0.7752982 0.3455688
vn -0.2176369 0.9153045 0.3388982
vn -0.2176367 0.9153045 0.3388982
vn 0.02430253 0.9403155 0.3394351
vn 0.02430272 0.9403155 0.3394351
vn 0.3916474 0.8519044 0.3476652
vn 0.3916478 0.8519043 0.3476653
vn 0.7724074 0.5315228 0.3476643
vn 0.7724071 0.531523 0.3476642
vn 0.9224593 0.1839297 0.3394682
vn 0.9224593 0.1839297 0.3394681
vn 0.9265175 0.1639724 0.3386419
vn 0.9265175 0.1639725 0.3386419
vn 0.8232543 0.4520291 0.3433978
vn 0.8232543 0.4520291 0.3433977
vn 0.5875798 0.7335094 0.3416342
vn 0.5875798 0.7335094 0.3416342
vn 0.241892 0.9069476 0.3448687
vn 0.2418917 0.9069476 0.3448687
vn -0.2283235 0.9092198 0.3481202
vn -0.2283235 0.9092199 0.3481202
vn -0.6261274 0.7000794 0.3432976
vn -0.6261277 0.7000793 0.3432976
vn -0.8569664 0.3843889 0.3432982
vn -0.8569666 0.3843888 0.3432982
g KK-SignLetter_5_0
f 3/3/3 2/2/2 1/1/1
f 2/2/2 4/4/4 1/1/1
f 2/2/2 5/5/5 4/4/4
f 5/5/5 6/6/6 4/4/4
f 5/5/5 7/7/7 6/6/6
f 7/7/7 8/8/8 6/6/6
f 7/7/7 9/9/9 8/8/8
f 9/9/9 10/10/10 8/8/8
f 11/11/11 10/10/10 9/9/9
f 10/10/10 11/11/11 12/12/12
f 11/11/11 13/13/13 12/12/12
f 14/14/14 10/10/10 12/12/12
f 13/13/13 15/15/15 12/12/12
f 14/14/14 12/12/12 16/16/16
f 17/17/17 14/14/14 16/16/16
f 17/17/17 16/16/16 18/18/18
f 19/19/19 17/17/17 18/18/18
f 19/19/19 18/18/18 20/20/20
f 21/21/21 19/19/19 20/20/20
f 21/21/21 20/20/20 22/22/22
f 23/23/23 21/21/21 22/22/22
f 12/12/12 15/15/15 24/24/24
f 15/15/15 25/25/25 24/24/24
f 24/24/24 25/25/25 26/26/26
f 27/27/27 24/24/24 26/26/26
f 25/25/25 28/28/28 26/26/26
f 28/28/28 29/29/29 26/26/26
f 28/28/28 30/30/30 29/29/29
f 30/30/30 31/31/31 29/29/29
f 30/30/30 32/32/32 31/31/31
f 32/32/32 33/33/33 31/31/31
f 33/33/33 32/32/32 34/34/34
f 32/32/32 35/35/35 34/34/34
f 34/34/34 35/35/35 36/36/36
f 35/35/35 37/37/37 36/36/36
f 38/38/38 36/36/36 37/37/37
f 39/39/39 38/38/38 37/37/37
f 40/40/40 38/38/38 39/39/39
f 41/41/41 40/40/40 39/39/39
f 44/44/44 43/43/43 42/42/42
f 43/43/43 45/45/45 42/42/42
f 42/42/42 45/45/45 46/46/46
f 45/45/45 47/47/47 46/46/46
f 46/46/46 47/47/47 48/48/48
f 47/47/47 49/49/49 48/48/48
f 48/48/48 49/49/49 50/50/50
f 49/49/49 51/51/51 50/50/50
f 50/50/50 51/51/51 52/52/52
f 51/51/51 53/53/53 52/52/52
f 52/52/52 53/53/53 54/54/54
f 53/53/53 55/55/55 54/54/54
f 54/54/54 55/55/55 56/56/56
f 55/55/55 57/57/57 56/56/56
f 56/56/56 57/57/57 58/58/58
f 57/57/57 59/59/59 58/58/58
f 58/58/58 59/59/59 60/60/60
f 59/59/59 61/61/61 60/60/60
f 60/60/60 61/61/61 62/62/62
f 61/61/61 63/63/63 62/62/62
f 62/62/62 63/63/63 64/64/64
f 63/63/63 65/65/65 64/64/64
f 64/64/64 65/65/65 66/66/66
f 65/65/65 67/67/67 66/66/66
f 66/66/66 67/67/67 68/68/68
f 67/67/67 69/69/69 68/68/68
f 68/68/68 69/69/69 70/70/70
f 69/69/69 71/71/71 70/70/70
f 70/70/70 71/71/71 72/72/72
f 71/71/71 73/73/73 72/72/72
f 72/72/72 73/73/73 74/74/74
f 73/73/73 75/75/75 74/74/74
f 74/74/74 75/75/75 76/76/76
f 75/75/75 77/77/77 76/76/76
f 76/76/76 77/77/77 78/78/78
f 77/77/77 79/79/79 78/78/78
f 78/78/78 79/79/79 80/80/80
f 79/79/79 81/81/81 80/80/80
f 80/80/80 81/81/81 82/82/82
f 81/81/81 83/83/83 82/82/82
f 82/82/82 83/83/83 84/84/84
f 83/83/83 85/85/85 84/84/84
f 84/84/84 85/85/85 86/86/86
f 85/85/85 87/87/87 86/86/86
f 86/86/86 87/87/87 88/88/88
f 87/87/87 89/89/89 88/88/88
f 88/88/88 89/89/89 90/90/90
f 89/89/89 91/91/91 90/90/90
f 90/90/90 91/91/91 92/92/92
f 91/91/91 93/93/93 92/92/92
f 92/92/92 93/93/93 94/94/94
f 93/93/93 95/95/95 94/94/94
f 94/94/94 95/95/95 96/96/96
f 95/95/95 97/97/97 96/96/96
f 96/96/96 97/97/97 98/98/98
f 97/97/97 99/99/99 98/98/98
f 98/98/98 99/99/99 100/100/100
f 99/99/99 101/101/101 100/100/100
f 100/100/100 101/101/101 102/102/102
f 101/101/101 103/103/103 102/102/102
f 102/102/102 103/103/103 104/104/104
f 103/103/103 105/105/105 104/104/104
f 104/104/104 105/105/105 106/106/106
f 105/105/105 107/107/107 106/106/106
f 106/106/106 107/107/107 108/108/108
f 107/107/107 109/109/109 108/108/108
f 108/108/108 109/109/109 110/110/110
f 109/109/109 111/111/111 110/110/110
f 110/110/110 111/111/111 112/112/112
f 111/111/111 113/113/113 112/112/112
f 112/112/112 113/113/113 114/114/114
f 113/113/113 115/115/115 114/114/114
f 114/114/114 115/115/115 116/116/116
f 115/115/115 117/117/117 116/116/116
f 116/116/116 117/117/117 118/118/118
f 117/117/117 119/119/119 118/118/118
f 118/118/118 119/119/119 120/120/120
f 119/119/119 121/121/121 120/120/120
f 120/120/120 121/121/121 122/122/122
f 121/121/121 123/123/123 122/122/122
f 122/122/122 123/123/123 124/124/124
f 123/123/123 125/125/125 124/124/124
