g KK-SignLetter_2
v -9.383568 29.72897 31.50998
v -9.381432 29.72431 31.50998
v -9.381432 29.63256 31.50998
v -9.383567 29.6279 31.50998
v -9.390134 29.73075 31.50998
v -9.390134 29.62613 31.50998
v -9.796914 29.62613 31.50998
v -10.08321 29.73075 31.50998
v -9.852965 29.61094 31.50998
v -10.08787 29.72871 31.50998
v -9.899418 29.56449 31.50998
v -10.08965 29.72431 31.50998
v -9.914598 29.50844 31.50998
v -10.08965 29.28946 31.50998
v -9.914599 29.28653 31.50998
v -10.08965 29.18106 31.50998
v -9.909178 29.18732 31.50998
v -9.807266 29.18732 31.50998
v -9.909179 28.92207 31.50998
v -9.807266 29.28653 31.50998
v -10.08965 28.60862 31.50998
v -9.8007 29.1891 31.50998
v -9.893997 28.86602 31.50998
v -9.8007 29.28475 31.50998
v -9.798955 29.19375 31.50998
v -9.798954 29.28009 31.50998
v -10.08943 28.6034 31.50998
v -9.847545 28.81957 31.50998
v -10.08258 28.60148 31.50998
v -9.791494 28.80438 31.50998
v -9.221561 28.59217 31.50998
v -9.222198 28.80438 31.50998
v -9.216727 28.59381 31.50998
v -9.217927 28.80261 31.50998
v -9.215765 28.59791 31.50998
v -9.215765 28.79795 31.50998
v -9.845018 28.9306 31.33051
v -9.909178 29.18732 31.50998
v -9.845018 29.12316 31.33051
v -9.909179 28.92207 31.50998
v -9.836539 28.8993 31.33051
v -9.893997 28.86602 31.50998
v -9.814268 28.87703 31.33051
v -9.847545 28.81957 31.50998
v -9.78296 28.86854 31.33051
v -9.791494 28.80438 31.50998
v -9.213664 28.86854 31.33051
v -9.222198 28.80438 31.50998
v -9.182355 28.86007 31.33051
v -9.217927 28.80261 31.50998
v -9.160085 28.8378 31.33051
v -9.151605 28.80649 31.33051
v -9.215765 28.79795 31.50998
v -9.151605 28.58931 31.33051
v -9.215765 28.59791 31.50998
v -9.160109 28.55815 31.33051
v -9.216727 28.59381 31.50998
v -9.182403 28.53609 31.33051
v -9.21366 28.52793 31.33051
v -9.221561 28.59217 31.50998
v -10.09175 28.53742 31.33051
v -10.08258 28.60148 31.50998
v -10.12311 28.54621 31.33051
v -10.08943 28.6034 31.50998
v -10.14535 28.5687 31.33051
v -10.15381 28.60015 31.33051
v -10.08965 28.60862 31.50998
v -10.08965 29.18106 31.50998
v -10.15381 29.19318 31.33051
v -10.08965 29.28946 31.50998
v -10.15381 29.3216 31.33051
v -10.08965 29.72431 31.50998
v -10.15381 29.73285 31.33051
v -10.14533 29.76415 31.33051
v -10.08787 29.72871 31.50998
v -10.12306 29.78643 31.33051
v -10.09175 29.79491 31.33051
v -10.08321 29.73075 31.50998
v -9.381598 29.79491 31.33051
v -9.390134 29.73075 31.50998
v -9.350289 29.78643 31.33051
v -9.383568 29.72897 31.50998
v -9.328019 29.76416 31.33051
v -9.31954 29.73285 31.33051
v -9.381432 29.72431 31.50998
v -9.31954 29.62402 31.33051
v -9.381432 29.63256 31.50998
v -9.328018 29.59271 31.33051
v -9.383567 29.6279 31.50998
v -9.350289 29.57044 31.33051
v -9.381598 29.56196 31.33051
v -9.390134 29.62613 31.50998
v -9.78838 29.56196 31.33051
v -9.796914 29.62613 31.50998
v -9.819689 29.55348 31.33051
v -9.852965 29.61094 31.50998
v -9.841959 29.53121 31.33051
v -9.899418 29.56449 31.50998
v -9.850438 29.4999 31.33051
v -9.914598 29.50844 31.50998
v -9.850439 29.35069 31.33051
v -9.914599 29.28653 31.50998
v -9.845018 29.12316 31.33051
v -9.909178 29.18732 31.50998
v -9.807266 29.18732 31.50998
v -9.798732 29.12316 31.33051
v -9.8007 29.1891 31.50998
v -9.767423 29.13164 31.33051
v -9.745152 29.15391 31.33051
v -9.798955 29.19375 31.50998
v -9.736672 29.18522 31.33051
v -9.798954 29.28009 31.50998
v -9.736672 29.28863 31.33051
v -9.8007 29.28475 31.50998
v -9.745152 29.31994 31.33051
v -9.767423 29.34221 31.33051
v -9.807266 29.28653 31.50998
v -9.798732 29.35069 31.33051
v -9.914599 29.28653 31.50998
v -9.850439 29.35069 31.33051
vt 0.417042 0.8742094
vt 0.4173338 0.8739558
vt 0.4198451 0.8686883
vt 0.4198503 0.8683136
vt 0.4164761 0.8742577
vt 0.4195539 0.8678885
vt 0.3907392 0.8536011
vt 0.3634706 0.8553473
vt 0.3860628 0.8503078
vt 0.3631046 0.8550267
vt 0.3822945 0.8437718
vt 0.3629756 0.8546286
vt 0.3812501 0.83773
vt 0.3641227 0.8128005
vt 0.3834061 0.813188
vt 0.3644087 0.8023734
vt 0.3846831 0.8016869
vt 0.3934221 0.8052335
vt 0.3862355 0.7748591
vt 0.3927366 0.8110716
vt 0.3659188 0.7473106
vt 0.3937785 0.8055127
vt 0.3873843 0.7689775
vt 0.3931761 0.8108673
vt 0.3938567 0.8058124
vt 0.3933153 0.8105913
vt 0.3659614 0.7467018
vt 0.3917488 0.7625904
vt 0.3665041 0.7463509
vt 0.3966176 0.7594399
vt 0.4340456 0.7228434
vt 0.4396333 0.7351279
vt 0.434466 0.7228922
vt 0.4398263 0.7348125
vt 0.4348046 0.7232674
vt 0.4398517 0.7342984
vt 0.4037336 0.7802142
vt 0.3846831 0.8016869
vt 0.4014969 0.7951988
vt 0.3862355 0.7748591
vt 0.4047357 0.7774844
vt 0.3873843 0.7689775
vt 0.4063742 0.7751639
vt 0.3917488 0.7625904
vt 0.4085229 0.7731696
vt 0.3966176 0.7594399
vt 0.4555724 0.7434673
vt 0.4396333 0.7351279
vt 0.4571505 0.7402321
vt 0.4398263 0.7348125
vt 0.4579923 0.7368258
vt 0.4581106 0.7331845
vt 0.4398517 0.7342984
vt 0.4480149 0.7094536
vt 0.4348046 0.7232674
vt 0.4450032 0.7070251
vt 0.434466 0.7228922
vt 0.4416682 0.7053521
vt 0.4379527 0.7044068
vt 0.4340456 0.7228434
vt 0.3537365 0.7307784
vt 0.3665041 0.7463509
vt 0.3506377 0.7335374
vt 0.3659614 0.7467018
vt 0.3482549 0.7368059
vt 0.3465487 0.7406328
vt 0.3659188 0.7473106
vt 0.3644087 0.8023734
vt 0.3458335 0.8038176
vt 0.3641227 0.8128005
vt 0.3456787 0.8174993
vt 0.3629756 0.8546286
vt 0.3451828 0.861316
vt 0.3466624 0.8647112
vt 0.3631046 0.8550267
vt 0.3487438 0.8676442
vt 0.3514675 0.8701699
vt 0.3634706 0.8553473
vt 0.4220476 0.8898905
vt 0.4164761 0.8742577
vt 0.4252004 0.8884597
vt 0.417042 0.8742094
vt 0.4278712 0.8864526
vt 0.4301099 0.88384
vt 0.4173338 0.8739558
vt 0.4344937 0.8713821
vt 0.4198451 0.8686883
vt 0.4348333 0.868264
vt 0.4198503 0.8683136
vt 0.4345095 0.8652499
vt 0.4335122 0.8622872
vt 0.4195539 0.8678885
vt 0.4031686 0.8411
vt 0.3907392 0.8536011
vt 0.4012454 0.8390679
vt 0.3860628 0.8503078
vt 0.3999542 0.8366473
vt 0.3822945 0.8437718
vt 0.3992261 0.8338992
vt 0.3812501 0.83773
vt 0.3987889 0.8227699
vt 0.3834061 0.813188
vt 0.4014969 0.7951988
vt 0.3846831 0.8016869
vt 0.3934221 0.8052335
vt 0.4036165 0.7978227
vt 0.3937785 0.8055127
vt 0.4049644 0.7999665
vt 0.4058051 0.8022694
vt 0.3938567 0.8058124
vt 0.4061578 0.8047718
vt 0.3933153 0.8105913
vt 0.4055311 0.8138119
vt 0.3931761 0.8108673
vt 0.4047147 0.8162603
vt 0.403448 0.8184161
vt 0.3927366 0.8110716
vt 0.4017045 0.8203165
vt 0.3834061 0.813188
vt 0.3987889 0.8227699
vn 6.402122E-06 -3.380364E-07 1
vn 8.929866E-06 -1.978088E-07 1
vn 8.929866E-06 -1.978087E-07 1
vn 6.402098E-06 -3.380377E-07 1
vn 2.56204E-06 -4.711091E-07 1
vn 2.562065E-06 -4.711083E-07 1
vn 0 -3.1325E-07 1
vn 3.367213E-07 6.101964E-07 1
vn 3.984232E-07 6.646462E-07 1
vn 5.00705E-07 5.795665E-07 1
vn 4.978062E-07 4.533536E-07 1
vn 4.990699E-07 3.286821E-07 1
vn 3.216335E-07 0 1
vn 1.61507E-07 1.390963E-07 1
vn 0 1.922653E-07 1
vn 0 1.34473E-07 1
vn 0 1.907605E-07 1
vn 3.247449E-06 1.116447E-07 1
vn -1.513001E-07 0 1
vn 3.247426E-06 1.116459E-07 1
vn -7.542541E-07 5.68301E-07 1
vn 4.28794E-06 -1.161646E-07 1
vn -5.31685E-07 4.611776E-07 1
vn 4.287599E-06 -1.161667E-07 1
vn -1.092371E-05 -2.095955E-07 1
vn -1.092371E-05 -2.095955E-07 1
vn -5.544187E-07 6.03184E-07 1
vn -2.190392E-07 4.102108E-07 1
vn -3.27543E-07 5.342548E-07 1
vn 0 2.727032E-07 1
vn -4.626658E-06 0 1
vn -4.441905E-06 0 1
vn -5.917644E-06 0 1
vn -3.145304E-06 0 1
vn 3.052043E-05 0 1
vn 3.052043E-05 0 1
vn 0.9324782 0.1240467 0.3392591
vn 0.9416357 -3.27893E-07 0.3366335
vn 0.9416357 -3.278931E-07 0.3366335
vn 0.9324782 0.1240467 0.3392591
vn 0.8115836 0.4700324 0.3469894
vn 0.8115836 0.4700324 0.3469893
vn 0.4700316 0.8115833 0.3469909
vn 0.4700313 0.8115836 0.3469909
vn 0.1240446 0.9324777 0.3392617
vn 0.1240443 0.9324777 0.3392616
vn 0.1314861 0.9310124 0.3404811
vn 0.1332267 0.9307607 0.3404923
vn 0.4769908 0.8057349 0.3510999
vn 0.6507037 0.6586297 0.3778778
vn 0.8042451 0.4794319 0.3511907
vn 0.9303634 0.1346941 0.3410006
vn 0.9300177 0.1370088 0.3410213
vn 0.9327115 -0.123027 0.3389892
vn 0.9327715 -0.1225691 0.3389899
vn 0.8091743 -0.4723156 0.3495067
vn 0.659452 -0.6489754 0.379413
vn 0.4684289 -0.8113462 0.3497022
vn 0.119317 -0.9328133 0.3400336
vn 0.1202715 -0.9326894 0.3400374
vn -0.1332556 -0.9312193 0.339225
vn -0.1332556 -0.9312193 0.3392249
vn -0.4758722 -0.8082335 0.3468488
vn -0.6759654 -0.6320404 0.3789403
vn -0.8196335 -0.4563681 0.3463078
vn -0.9352072 -0.10912 0.3368682
vn -0.9354917 -0.1065234 0.3369097
vn -0.9416344 0 0.3366373
vn -0.9416344 0 0.3366373
vn -0.9416344 0 0.3366373
vn -0.9416344 0 0.3366373
vn -0.9308693 0.1326508 0.3404205
vn -0.9310992 0.131053 0.3404107
vn -0.8060737 0.4765878 0.3508692
vn -0.6573064 0.6519741 0.377992
vn -0.4782123 0.8050837 0.3509319
vn -0.1331825 0.9306703 0.3407568
vn -0.1351717 0.9303778 0.3407723
vn 0.1240445 0.9324775 0.3392619
vn 0.1240434 0.9324777 0.3392619
vn 0.4700297 0.8115838 0.3469924
vn 0.644964 0.6671072 0.3728126
vn 0.806836 0.4815806 0.3421925
vn 0.9340947 0.1350492 0.3304981
vn 0.933807 0.1369758 0.3305182
vn 0.9340956 -0.1350435 0.3304976
vn 0.933808 -0.1369692 0.3305177
vn 0.8068376 -0.4815781 0.3421924
vn 0.6449646 -0.6671062 0.3728137
vn 0.4700241 -0.8115872 0.3469921
vn 0.1240394 -0.9324785 0.3392613
vn 0.124039 -0.9324785 0.3392613
vn 0.1240441 -0.9324777 0.3392616
vn 0.124044 -0.9324777 0.3392615
vn 0.470029 -0.8115846 0.3469917
vn 0.470029 -0.8115845 0.3469917
vn 0.8115849 -0.4700279 0.3469923
vn 0.8115849 -0.470028 0.3469923
vn 0.9324784 -0.1240408 0.339261
vn 0.9324784 -0.1240409 0.339261
vn 0.941635 -1.6044E-06 0.3366358
vn 0.941635 -1.6044E-06 0.3366357
vn 5.26712E-07 -0.9416347 0.3366365
vn 5.26712E-07 -0.9416347 0.3366365
vn 0.1240416 -0.932478 0.339262
vn 0.124042 -0.9324778 0.3392619
vn 0.6503163 -0.6612245 0.3739932
vn 0.4700317 -0.8115826 0.3469928
vn 0.8089729 -0.4774652 0.3429137
vn 0.9342491 -0.1313496 0.3315505
vn 0.9343937 -0.1303346 0.331544
vn 0.9342493 0.1313484 0.3315506
vn 0.9343938 0.1303332 0.331544
vn 0.6503173 0.6612238 0.3739927
vn 0.8089711 0.4774679 0.3429144
vn 0.470031 0.8115831 0.3469925
vn 0.1240439 0.9324777 0.3392615
vn 0.1240438 0.9324777 0.3392616
vn -1.384335E-07 0.9416349 0.3366359
vn -1.384335E-07 0.9416349 0.3366359
g KK-SignLetter_2_0
f 3/3/3 2/2/2 1/1/1
f 4/4/4 3/3/3 1/1/1
f 4/4/4 1/1/1 5/5/5
f 6/6/6 4/4/4 5/5/5
f 7/7/7 6/6/6 5/5/5
f 8/8/8 7/7/7 5/5/5
f 9/9/9 7/7/7 8/8/8
f 10/10/10 9/9/9 8/8/8
f 11/11/11 9/9/9 10/10/10
f 11/11/11 10/10/10 12/12/12
f 13/13/13 11/11/11 12/12/12
f 12/12/12 14/14/14 13/13/13
f 14/14/14 15/15/15 13/13/13
f 14/14/14 16/16/16 15/15/15
f 16/16/16 17/17/17 15/15/15
f 15/15/15 17/17/17 18/18/18
f 19/19/19 17/17/17 16/16/16
f 20/20/20 15/15/15 18/18/18
f 21/21/21 19/19/19 16/16/16
f 20/20/20 18/18/18 22/22/22
f 23/23/23 19/19/19 21/21/21
f 24/24/24 20/20/20 22/22/22
f 24/24/24 22/22/22 25/25/25
f 26/26/26 24/24/24 25/25/25
f 27/27/27 23/23/23 21/21/21
f 28/28/28 23/23/23 27/27/27
f 28/28/28 27/27/27 29/29/29
f 30/30/30 28/28/28 29/29/29
f 30/30/30 29/29/29 31/31/31
f 32/32/32 30/30/30 31/31/31
f 32/32/32 31/31/31 33/33/33
f 34/34/34 32/32/32 33/33/33
f 34/34/34 33/33/33 35/35/35
f 36/36/36 34/34/34 35/35/35
f 39/39/39 38/38/38 37/37/37
f 38/38/38 40/40/40 37/37/37
f 37/37/37 40/40/40 41/41/41
f 40/40/40 42/42/42 41/41/41
f 41/41/41 42/42/42 43/43/43
f 42/42/42 44/44/44 43/43/43
f 43/43/43 44/44/44 45/45/45
f 44/44/44 46/46/46 45/45/45
f 45/45/45 46/46/46 47/47/47
f 46/46/46 48/48/48 47/47/47
f 47/47/47 48/48/48 49/49/49
f 48/48/48 50/50/50 49/49/49
f 49/49/49 50/50/50 51/51/51
f 51/51/51 50/50/50 52/52/52
f 50/50/50 53/53/53 52/52/52
f 52/52/52 53/53/53 54/54/54
f 53/53/53 55/55/55 54/54/54
f 54/54/54 55/55/55 56/56/56
f 55/55/55 57/57/57 56/56/56
f 56/56/56 57/57/57 58/58/58
f 58/58/58 57/57/57 59/59/59
f 57/57/57 60/60/60 59/59/59
f 59/59/59 60/60/60 61/61/61
f 60/60/60 62/62/62 61/61/61
f 61/61/61 62/62/62 63/63/63
f 62/62/62 64/64/64 63/63/63
f 63/63/63 64/64/64 65/65/65
f 65/65/65 64/64/64 66/66/66
f 64/64/64 67/67/67 66/66/66
f 67/67/67 68/68/68 66/66/66
f 68/68/68 69/69/69 66/66/66
f 69/69/69 68/68/68 70/70/70
f 71/71/71 69/69/69 70/70/70
f 71/71/71 70/70/70 72/72/72
f 73/73/73 71/71/71 72/72/72
f 73/73/73 72/72/72 74/74/74
f 72/72/72 75/75/75 74/74/74
f 74/74/74 75/75/75 76/76/76
f 76/76/76 75/75/75 77/77/77
f 75/75/75 78/78/78 77/77/77
f 77/77/77 78/78/78 79/79/79
f 78/78/78 80/80/80 79/79/79
f 79/79/79 80/80/80 81/81/81
f 80/80/80 82/82/82 81/81/81
f 81/81/81 82/82/82 83/83/83
f 83/83/83 82/82/82 84/84/84
f 82/82/82 85/85/85 84/84/84
f 84/84/84 85/85/85 86/86/86
f 85/85/85 87/87/87 86/86/86
f 86/86/86 87/87/87 88/88/88
f 87/87/87 89/89/89 88/88/88
f 88/88/88 89/89/89 90/90/90
f 90/90/90 89/89/89 91/91/91
f 89/89/89 92/92/92 91/91/91
f 91/91/91 92/92/92 93/93/93
f 92/92/92 94/94/94 93/93/93
f 93/93/93 94/94/94 95/95/95
f 94/94/94 96/96/96 95/95/95
f 95/95/95 96/96/96 97/97/97
f 96/96/96 98/98/98 97/97/97
f 97/97/97 98/98/98 99/99/99
f 98/98/98 100/100/100 99/99/99
f 99/99/99 100/100/100 101/101/101
f 100/100/100 102/102/102 101/101/101
f 105/105/105 104/104/104 103/103/103
f 106/106/106 105/105/105 103/103/103
f 107/107/107 105/105/105 106/106/106
f 108/108/108 107/107/107 106/106/106
f 109/109/109 107/107/107 108/108/108
f 110/110/110 107/107/107 109/109/109
f 111/111/111 110/110/110 109/109/109
f 112/112/112 110/110/110 111/111/111
f 113/113/113 112/112/112 111/111/111
f 114/114/114 112/112/112 113/113/113
f 115/115/115 114/114/114 113/113/113
f 116/116/116 114/114/114 115/115/115
f 117/117/117 114/114/114 116/116/116
f 118/118/118 117/117/117 116/116/116
f 119/119/119 117/117/117 118/118/118
f 120/120/120 119/119/119 118/118/118
