g KK-SignLetter_6
v -9.389676 27.66301 31.41207
v -9.394231 27.74336 31.41207
v -9.384582 27.68769 31.41207
v -9.410789 27.78069 31.41207
v -9.409657 27.63427 31.41207
v -9.427073 27.7917 31.41207
v -9.431801 27.61124 31.41207
v -9.711402 27.59807 31.41207
v -10.11173 27.8046 31.41207
v -9.764915 27.57707 31.41207
v -10.16038 27.77048 31.41207
v -10.17404 27.74293 31.41207
v -9.792753 27.51784 31.41207
v -10.17376 27.63773 31.41207
v -10.17861 27.6957 31.41207
v -10.15519 27.56859 31.41207
v -9.774094 27.46117 31.41207
v -10.0841 27.47055 31.41207
v -9.596327 26.96101 31.41207
v -9.346019 26.99871 31.41207
v -9.27219 26.88481 31.41207
v -9.501903 26.85397 31.41207
v -9.479096 26.77593 31.41207
v -9.236632 26.76452 31.41207
v -9.468369 26.53415 31.41207
v -9.249707 26.40404 31.41207
v -9.258472 26.31586 31.41207
v -9.482936 26.45561 31.41207
v -9.537097 26.38825 31.41207
v -9.294508 26.24381 31.41207
v -9.37067 26.17537 31.41207
v -9.612496 26.35951 31.41207
v -9.636288 26.12523 31.41207
v -9.518243 26.13661 31.41207
v -10.08743 26.32139 31.41207
v -10.11635 26.16132 31.41207
v -10.20467 26.20044 31.41207
v -10.15587 26.35143 31.41207
v -10.28921 26.27136 31.41207
v -10.33008 26.32022 31.41207
v -10.17952 26.41574 31.41207
v -10.35414 26.42124 31.41207
v -10.18249 26.44584 31.41207
v -10.35698 26.58687 31.41207
v -10.18666 26.50808 31.41207
v -10.30845 26.66314 31.41207
v -10.14947 26.57067 31.41207
v -10.2399 26.73423 31.41207
v -10.16513 26.76308 31.41207
v -10.08759 26.59918 31.41207
v -9.955985 26.76308 31.41207
v -9.910702 26.6213 31.41207
v -9.909873 26.75277 31.41207
v -9.882651 26.64224 31.41207
v -9.863276 26.68495 31.41207
v -9.877062 26.72756 31.41207
v -9.86047 26.69573 31.41207
v -9.6217 26.40026 31.29639
v -10.08743 26.32139 31.41207
v -10.08035 26.36345 31.29639
v -9.612496 26.35951 31.41207
v -9.562302 26.4229 31.29639
v -9.537097 26.38825 31.41207
v -9.521695 26.4734 31.29639
v -9.482936 26.45561 31.41207
v -9.509893 26.53704 31.29639
v -9.468369 26.53415 31.41207
v -9.520189 26.76912 31.29639
v -9.479096 26.77593 31.41207
v -9.539012 26.83353 31.29639
v -9.501903 26.85397 31.41207
v -9.626782 26.93302 31.29639
v -9.596327 26.96101 31.41207
v -10.11592 27.44399 31.29639
v -10.0841 27.47055 31.41207
v -10.19315 27.55049 31.29639
v -10.15519 27.56859 31.41207
v -10.21466 27.63058 31.29639
v -10.17376 27.63773 31.41207
v -10.22013 27.69597 31.29639
v -10.17861 27.6957 31.41207
v -10.21447 27.75448 31.29639
v -10.17404 27.74293 31.41207
v -10.19276 27.79829 31.29639
v -10.16038 27.77048 31.41207
v -10.12443 27.8462 31.29639
v -10.11173 27.8046 31.41207
v -9.414056 27.83282 31.29639
v -9.427073 27.7917 31.41207
v -9.377798 27.80831 31.29639
v -9.410789 27.78069 31.41207
v -9.354357 27.75546 31.29639
v -9.394231 27.74336 31.41207
v -9.342493 27.68701 31.29639
v -9.384582 27.68769 31.41207
v -9.350888 27.64635 31.29639
v -9.389676 27.66301 31.41207
v -9.377576 27.60797 31.29639
v -9.409657 27.63427 31.41207
v -9.413408 27.57071 31.29639
v -9.431801 27.61124 31.41207
v -9.702644 27.55708 31.29639
v -9.711402 27.59807 31.41207
v -9.73449 27.54458 31.29639
v -9.764915 27.57707 31.41207
v -9.748327 27.51515 31.29639
v -9.792753 27.51784 31.41207
v -9.737629 27.48265 31.29639
v -9.774094 27.46117 31.41207
v -9.313252 27.02419 31.29639
v -9.346019 26.99871 31.41207
v -9.234229 26.90227 31.29639
v -9.27219 26.88481 31.41207
v -9.19506 26.76977 31.29639
v -9.236632 26.76452 31.41207
v -9.208426 26.40125 31.29639
v -9.249707 26.40404 31.41207
v -9.218076 26.30418 31.29639
v -9.258472 26.31586 31.41207
v -9.261031 26.2183 31.29639
v -9.294508 26.24381 31.41207
v -9.350479 26.13791 31.29639
v -9.37067 26.17537 31.41207
v -9.51096 26.09577 31.29639
v -9.518243 26.13661 31.41207
v -9.635849 26.08372 31.29639
v -9.636288 26.12523 31.41207
v -10.12657 26.12062 31.29639
v -10.11635 26.16132 31.41207
v -10.22677 26.165 31.29639
v -10.20467 26.20044 31.41207
v -10.31858 26.24202 31.29639
v -10.28921 26.27136 31.41207
v -10.36806 26.30116 31.29639
v -10.33008 26.32022 31.41207
v -10.39541 26.41604 31.29639
v -10.35414 26.42124 31.41207
v -10.39854 26.59859 31.29639
v -10.35698 26.58687 31.41207
v -10.34111 26.68885 31.29639
v -10.30845 26.66314 31.41207
v -10.26332 26.76952 31.29639
v -10.2399 26.73423 31.41207
v -10.17283 26.80443 31.29639
v -10.16513 26.76308 31.41207
v -9.951418 26.80443 31.29639
v -9.955985 26.76308 31.41207
v -9.891928 26.79113 31.29639
v -9.909873 26.75277 31.41207
v -9.844618 26.75478 31.29639
v -9.877062 26.72756 31.41207
v -9.816436 26.70073 31.29639
v -9.86047 26.69573 31.41207
v -9.82415 26.6711 31.29639
v -9.863276 26.68495 31.41207
v -9.849385 26.61547 31.29639
v -9.882651 26.64224 31.41207
v -9.894722 26.58162 31.29639
v -9.910702 26.6213 31.41207
v -10.07611 26.55894 31.29639
v -10.08759 26.59918 31.41207
v -10.12049 26.53849 31.29639
v -10.14947 26.57067 31.41207
v -10.14454 26.49801 31.29639
v -10.18666 26.50808 31.41207
v -10.14127 26.44925 31.29639
v -10.18249 26.44584 31.41207
v -10.13888 26.42506 31.29639
v -10.17952 26.41574 31.41207
v -10.12313 26.38222 31.29639
v -10.15587 26.35143 31.41207
v -10.08035 26.36345 31.29639
v -10.08743 26.32139 31.41207
vt 0.5570976 0.6604432
vt 0.5548124 0.6679008
vt 0.5570087 0.662954
vt 0.5523102 0.6711479
vt 0.5558454 0.6571486
vt 0.5502668 0.6721538
vt 0.5541952 0.6540892
vt 0.5226032 0.6408437
vt 0.4693606 0.6732528
vt 0.5150603 0.6369174
vt 0.4638211 0.6695311
vt 0.4617471 0.6665496
vt 0.5094494 0.6272165
vt 0.4588561 0.6550964
vt 0.4599407 0.6616097
vt 0.4587682 0.6464846
vt 0.5092983 0.6174119
vt 0.4637642 0.6311895
vt 0.5092618 0.5391024
vt 0.5464076 0.5348653
vt 0.5526749 0.5177377
vt 0.5183939 0.5188057
vt 0.5204353 0.5061215
vt 0.5556944 0.5011221
vt 0.5202735 0.4674517
vt 0.5553405 0.4512815
vt 0.5550774 0.4394569
vt 0.5183448 0.4545155
vt 0.5117754 0.4413487
vt 0.5520663 0.429475
vt 0.5452816 0.4184153
vt 0.5024294 0.432147
vt 0.5143189 0.3976248
vt 0.5289122 0.4062651
vt 0.4390851 0.3880213
vt 0.4521027 0.3656059
vt 0.4391844 0.3614376
vt 0.4266241 0.3840954
vt 0.4245092 0.3589309
vt 0.4159448 0.3581763
vt 0.4146794 0.3859305
vt 0.4024286 0.3613087
vt 0.4099048 0.3873826
vt 0.3820574 0.3681807
vt 0.3998677 0.3899379
vt 0.3739625 0.3759276
vt 0.389958 0.397144
vt 0.3661889 0.3849258
vt 0.3627957 0.3938806
vt 0.3838059 0.405693
vt 0.360753 0.4165628
vt 0.3734146 0.4245173
vt 0.3612151 0.421511
vt 0.3703381 0.4264755
vt 0.3661815 0.4270909
vt 0.3627515 0.4249924
vt 0.365109 0.4270858
vt 0.4896513 0.445933
vt 0.4390851 0.3880213
vt 0.4318346 0.4060039
vt 0.5024294 0.432147
vt 0.4959286 0.4524058
vt 0.5117754 0.4413487
vt 0.4998072 0.4606356
vt 0.5183448 0.4545155
vt 0.5014556 0.4698576
vt 0.5202735 0.4674517
vt 0.5019245 0.5042539
vt 0.5204353 0.5061215
vt 0.5003606 0.5137753
vt 0.5183939 0.5188057
vt 0.4926182 0.5315374
vt 0.5092618 0.5391024
vt 0.4467434 0.6254127
vt 0.4637642 0.6311895
vt 0.4421675 0.6449826
vt 0.4587682 0.6464846
vt 0.4425082 0.6573846
vt 0.4588561 0.6550964
vt 0.4448362 0.6668593
vt 0.4599407 0.6616097
vt 0.4484048 0.6748394
vt 0.4617471 0.6665496
vt 0.4528089 0.6806318
vt 0.4638211 0.6695311
vt 0.4631873 0.6878613
vt 0.4693606 0.6732528
vt 0.5572 0.6867415
vt 0.5502668 0.6721538
vt 0.5626452 0.6828583
vt 0.5523102 0.6711479
vt 0.5682398 0.6754852
vt 0.5548124 0.6679008
vt 0.571362 0.6648866
vt 0.5570087 0.662954
vt 0.5713639 0.6589381
vt 0.5570976 0.6604432
vt 0.5697924 0.6523499
vt 0.5558454 0.6571486
vt 0.566571 0.64543
vt 0.5541952 0.6540892
vt 0.5321528 0.6278133
vt 0.5226032 0.6408437
vt 0.5288935 0.6252671
vt 0.5150603 0.6369174
vt 0.5271351 0.6217264
vt 0.5094494 0.6272165
vt 0.5268373 0.6175197
vt 0.5092983 0.6174119
vt 0.5621213 0.5410928
vt 0.5464076 0.5348653
vt 0.5689741 0.5219172
vt 0.5526749 0.5177377
vt 0.5725712 0.5027943
vt 0.5556944 0.5011221
vt 0.5731965 0.4503939
vt 0.5553405 0.4512815
vt 0.5717895 0.4358084
vt 0.5550774 0.4394569
vt 0.5672707 0.422259
vt 0.5520663 0.429475
vt 0.5578699 0.4074831
vt 0.5452816 0.4184153
vt 0.5391886 0.3915658
vt 0.5289122 0.4062651
vt 0.5232058 0.38167
vt 0.5143189 0.3976248
vt 0.45873 0.349288
vt 0.4521027 0.3656059
vt 0.4434651 0.344518
vt 0.4391844 0.3614376
vt 0.4263008 0.3416151
vt 0.4245092 0.3589309
vt 0.4148437 0.3411322
vt 0.4159448 0.3581763
vt 0.397647 0.3444431
vt 0.4024286 0.3613087
vt 0.3733132 0.3544742
vt 0.3820574 0.3681807
vt 0.3619754 0.3646938
vt 0.3739625 0.3759276
vt 0.3526159 0.3772903
vt 0.3661889 0.3849258
vt 0.3476521 0.389711
vt 0.3627957 0.3938806
vt 0.3451828 0.4196166
vt 0.360753 0.4165628
vt 0.3481374 0.428253
vt 0.3612151 0.421511
vt 0.3535514 0.4351788
vt 0.3627515 0.4249924
vt 0.3613534 0.4397559
vt 0.365109 0.4270858
vt 0.3654136 0.4402815
vt 0.3661815 0.4270909
vt 0.3739395 0.4395608
vt 0.3703381 0.4264755
vt 0.3809761 0.4365224
vt 0.3734146 0.4245173
vt 0.3977705 0.4167039
vt 0.3838059 0.405693
vt 0.4023453 0.4115219
vt 0.389958 0.397144
vt 0.4080365 0.4079974
vt 0.3998677 0.3899379
vt 0.4150305 0.4060217
vt 0.4099048 0.3873826
vt 0.4186386 0.405086
vt 0.4146794 0.3859305
vt 0.4253152 0.4041612
vt 0.4266241 0.3840954
vt 0.4318346 0.4060039
vt 0.4390851 0.3880213
vn 3.038461E-07 2.513937E-07 1
vn 4.673938E-07 2.60468E-07 1
vn -2.370484E-06 1.030107E-07 1
vn -1.552423E-07 1.678161E-07 1
vn -1.133986E-07 1.734234E-07 1
vn -1.212236E-07 1.271566E-07 1
vn 0 1.242589E-07 1
vn 0 0 1
vn 0 0 1
vn 0 0 1
vn 0 0 1
vn 0 0 1
vn 0 -1.105011E-07 1
vn 0 -1.190041E-07 1
vn 0 0 1
vn 0 0 1
vn 0 0 1
vn 1.597401E-07 4.732857E-07 1
vn 0 0 1
vn -1.152929E-07 1.398707E-07 1
vn 0 0 1
vn -1.102317E-07 0 1
vn 0 0 1
vn 0 0 1
vn 0 0 1
vn 0 0 1
vn -2.007135E-07 -2.955958E-07 1
vn -1.530797E-07 -2.170757E-07 1
vn 0 -1.103084E-07 1
vn -1.456305E-07 -2.146462E-07 1
vn 0 1.31177E-07 1
vn 0 1.211138E-07 1
vn 0 1.038212E-07 1
vn 0 0 1
vn 0 0 1
vn -2.188713E-07 1.872276E-07 1
vn -1.425252E-07 0 1
vn 0 -2.850674E-07 1
vn 0 -2.367728E-07 1
vn 0 -2.772863E-07 1
vn 0 -1.848029E-07 1
vn 0 -1.43284E-07 1
vn 0 0 1
vn 0 0 1
vn 1.175871E-07 0 1
vn 0 0 1
vn 1.686146E-07 2.400312E-07 1
vn 1.91737E-07 2.694713E-07 1
vn 0 2.021696E-07 1
vn 0 1.263911E-07 1
vn -1.54922E-07 -2.826125E-07 1
vn -1.352901E-07 -3.359397E-07 1
vn 2.272658E-07 -5.361922E-07 1
vn 2.314862E-07 -5.355139E-07 1
vn 9.95257E-07 -3.650098E-07 1
vn 1.031746E-06 -3.914127E-07 1
vn 7.666882E-07 -1.996202E-07 1
vn -0.2072238 0.9174331 0.3396685
vn 0.1557604 0.9252453 0.3459188
vn 0.155761 0.9252452 0.3459189
vn -0.2072238 0.9174331 0.3396685
vn -0.5516283 0.7583278 0.3473403
vn -0.5516285 0.7583275 0.3473403
vn -0.8527342 0.3913852 0.3459221
vn -0.8527343 0.391385 0.3459221
vn -0.9386648 0.06536427 0.3385791
vn -0.9386648 0.06536432 0.3385791
vn -0.9281847 -0.1539172 0.3387956
vn -0.9281847 -0.1539172 0.3387957
vn -0.8224147 -0.453152 0.343929
vn -0.8224149 -0.4531518 0.3439291
vn -0.6932954 -0.6371629 0.336697
vn -0.6932954 -0.6371629 0.3366971
vn -0.7227367 -0.6032096 0.3373276
vn -0.7227367 -0.6032096 0.3373276
vn -0.8483316 -0.4044753 0.3416622
vn -0.8483317 -0.4044752 0.3416622
vn -0.9271677 -0.1619546 0.3378326
vn -0.9271677 -0.1619547 0.3378326
vn -0.9411806 0.006151618 0.337848
vn -0.9411806 0.0061517 0.337848
vn -0.90367 0.2582155 0.3416218
vn -0.9036698 0.2582158 0.3416218
vn -0.7116778 0.611318 0.3461285
vn -0.7116776 0.6113183 0.3461285
vn -0.2733411 0.8952124 0.351965
vn -0.273341 0.8952125 0.3519651
vn 0.2828168 0.8932936 0.349344
vn 0.2828166 0.8932936 0.349344
vn 0.7187083 0.601611 0.348601
vn 0.7187079 0.6016115 0.3486009
vn 0.9003026 0.273129 0.3389034
vn 0.9003028 0.2731289 0.3389035
vn 0.9395974 -0.01503478 0.3419513
vn 0.9395974 -0.01503463 0.3419514
vn 0.8632084 -0.3706161 0.3428046
vn 0.8632084 -0.3706162 0.3428046
vn 0.7279416 -0.5967781 0.3375752
vn 0.7279415 -0.5967782 0.3375753
vn 0.3856417 -0.849889 0.3591228
vn 0.3856418 -0.8498889 0.3591228
vn 0.1964579 -0.9194327 0.3406578
vn 0.1964578 -0.9194328 0.3406579
vn 0.6379902 -0.6811838 0.3591059
vn 0.6379899 -0.6811842 0.3591059
vn 0.9315805 -0.05657952 0.3591049
vn 0.9315805 -0.05657985 0.3591049
vn 0.8091142 0.4767302 0.3436023
vn 0.8091143 0.4767299 0.3436023
vn 0.743027 0.5777907 0.3377405
vn 0.743027 0.5777908 0.3377406
vn 0.8544073 0.3931432 0.3397449
vn 0.8544073 0.3931432 0.3397449
vn 0.9328111 0.117768 0.3405791
vn 0.9328111 0.1177679 0.3405791
vn 0.9394271 -0.06367031 0.3367831
vn 0.939427 -0.06367032 0.3367831
vn 0.9028561 -0.2610065 0.3416527
vn 0.9028559 -0.2610067 0.3416526
vn 0.7473925 -0.5696306 0.3419437
vn 0.7473925 -0.5696304 0.3419437
vn 0.4453637 -0.8261191 0.3452221
vn 0.4453632 -0.8261194 0.3452221
vn 0.165252 -0.9266702 0.3376005
vn 0.165252 -0.9266702 0.3376005
vn 0.009932978 -0.9411896 0.3377327
vn 0.0099328 -0.9411896 0.3377327
vn -0.2289571 -0.9117394 0.3410422
vn -0.2289569 -0.9117395 0.3410423
vn -0.4976372 -0.7981411 0.3395998
vn -0.4976372 -0.7981411 0.3395998
vn -0.6659639 -0.6651215 0.3377949
vn -0.665964 -0.6651213 0.3377949
vn -0.8389105 -0.4211391 0.3447768
vn -0.8389105 -0.4211391 0.3447769
vn -0.9336098 -0.1177404 0.3383934
vn -0.9336098 -0.1177401 0.3383934
vn -0.9017112 0.2541898 0.3497206
vn -0.9017113 0.2541894 0.3497206
vn -0.7394166 0.5821699 0.3381439
vn -0.7394166 0.58217 0.3381439
vn -0.5192329 0.7824234 0.3438179
vn -0.5192327 0.7824236 0.3438179
vn -0.1720695 0.9239026 0.3417543
vn -0.1720697 0.9239026 0.3417543
vn 0.1032919 0.9352983 0.3384493
vn 0.1032921 0.9352983 0.3384493
vn 0.3978835 0.8505772 0.3438127
vn 0.3978831 0.8505774 0.3438127
vn 0.7193385 0.6036097 0.343813
vn 0.7193385 0.6036098 0.3438131
vn 0.9278683 0.1052445 0.3577485
vn 0.9278683 0.1052439 0.3577485
vn 0.8872743 -0.3141351 0.3377328
vn 0.8872744 -0.314135 0.3377327
vn 0.730845 -0.5881675 0.3463014
vn 0.7308449 -0.5881675 0.3463014
vn 0.3503796 -0.8700237 0.3468326
vn 0.3503795 -0.8700238 0.3468326
vn 0.2581568 -0.9042265 0.3401902
vn 0.2581572 -0.9042264 0.3401902
vn 0.6268305 -0.6958101 0.3506161
vn 0.6268309 -0.6958099 0.3506161
vn 0.9108624 -0.2177078 0.3506181
vn 0.9108624 -0.2177078 0.3506181
vn 0.9384106 0.07769214 0.3366743
vn 0.9384106 0.07769219 0.3366743
vn 0.916966 0.2102686 0.3390582
vn 0.916966 0.2102688 0.3390581
vn 0.6789625 0.6386349 0.3621538
vn 0.6789625 0.6386349 0.3621539
vn 0.155761 0.9252452 0.3459189
vn 0.1557604 0.9252453 0.3459188
g KK-SignLetter_6_0
f 3/3/3 2/2/2 1/1/1
f 2/2/2 4/4/4 1/1/1
f 4/4/4 5/5/5 1/1/1
f 4/4/4 6/6/6 5/5/5
f 6/6/6 7/7/7 5/5/5
f 7/7/7 6/6/6 8/8/8
f 6/6/6 9/9/9 8/8/8
f 8/8/8 9/9/9 10/10/10
f 9/9/9 11/11/11 10/10/10
f 11/11/11 12/12/12 10/10/10
f 12/12/12 13/13/13 10/10/10
f 14/14/14 13/13/13 12/12/12
f 15/15/15 14/14/14 12/12/12
f 14/14/14 16/16/16 13/13/13
f 16/16/16 17/17/17 13/13/13
f 16/16/16 18/18/18 17/17/17
f 18/18/18 19/19/19 17/17/17
f 19/19/19 20/20/20 17/17/17
f 20/20/20 19/19/19 21/21/21
f 19/19/19 22/22/22 21/21/21
f 22/22/22 23/23/23 21/21/21
f 23/23/23 24/24/24 21/21/21
f 23/23/23 25/25/25 24/24/24
f 25/25/25 26/26/26 24/24/24
f 26/26/26 25/25/25 27/27/27
f 25/25/25 28/28/28 27/27/27
f 28/28/28 29/29/29 27/27/27
f 29/29/29 30/30/30 27/27/27
f 30/30/30 29/29/29 31/31/31
f 29/29/29 32/32/32 31/31/31
f 31/31/31 32/32/32 33/33/33
f 34/34/34 31/31/31 33/33/33
f 32/32/32 35/35/35 33/33/33
f 35/35/35 36/36/36 33/33/33
f 36/36/36 35/35/35 37/37/37
f 35/35/35 38/38/38 37/37/37
f 38/38/38 39/39/39 37/37/37
f 39/39/39 38/38/38 40/40/40
f 38/38/38 41/41/41 40/40/40
f 41/41/41 42/42/42 40/40/40
f 41/41/41 43/43/43 42/42/42
f 43/43/43 44/44/44 42/42/42
f 43/43/43 45/45/45 44/44/44
f 45/45/45 46/46/46 44/44/44
f 45/45/45 47/47/47 46/46/46
f 47/47/47 48/48/48 46/46/46
f 48/48/48 47/47/47 49/49/49
f 47/47/47 50/50/50 49/49/49
f 49/49/49 50/50/50 51/51/51
f 50/50/50 52/52/52 51/51/51
f 51/51/51 52/52/52 53/53/53
f 52/52/52 54/54/54 53/53/53
f 53/53/53 54/54/54 55/55/55
f 56/56/56 53/53/53 55/55/55
f 57/57/57 56/56/56 55/55/55
f 60/60/60 59/59/59 58/58/58
f 59/59/59 61/61/61 58/58/58
f 58/58/58 61/61/61 62/62/62
f 61/61/61 63/63/63 62/62/62
f 62/62/62 63/63/63 64/64/64
f 63/63/63 65/65/65 64/64/64
f 64/64/64 65/65/65 66/66/66
f 65/65/65 67/67/67 66/66/66
f 66/66/66 67/67/67 68/68/68
f 67/67/67 69/69/69 68/68/68
f 68/68/68 69/69/69 70/70/70
f 69/69/69 71/71/71 70/70/70
f 70/70/70 71/71/71 72/72/72
f 71/71/71 73/73/73 72/72/72
f 72/72/72 73/73/73 74/74/74
f 73/73/73 75/75/75 74/74/74
f 74/74/74 75/75/75 76/76/76
f 75/75/75 77/77/77 76/76/76
f 76/76/76 77/77/77 78/78/78
f 77/77/77 79/79/79 78/78/78
f 78/78/78 79/79/79 80/80/80
f 79/79/79 81/81/81 80/80/80
f 80/80/80 81/81/81 82/82/82
f 81/81/81 83/83/83 82/82/82
f 82/82/82 83/83/83 84/84/84
f 83/83/83 85/85/85 84/84/84
f 84/84/84 85/85/85 86/86/86
f 85/85/85 87/87/87 86/86/86
f 86/86/86 87/87/87 88/88/88
f 87/87/87 89/89/89 88/88/88
f 88/88/88 89/89/89 90/90/90
f 89/89/89 91/91/91 90/90/90
f 90/90/90 91/91/91 92/92/92
f 91/91/91 93/93/93 92/92/92
f 92/92/92 93/93/93 94/94/94
f 93/93/93 95/95/95 94/94/94
f 94/94/94 95/95/95 96/96/96
f 95/95/95 97/97/97 96/96/96
f 96/96/96 97/97/97 98/98/98
f 97/97/97 99/99/99 98/98/98
f 98/98/98 99/99/99 100/100/100
f 99/99/99 101/101/101 100/100/100
f 100/100/100 101/101/101 102/102/102
f 101/101/101 103/103/103 102/102/102
f 102/102/102 103/103/103 104/104/104
f 103/103/103 105/105/105 104/104/104
f 104/104/104 105/105/105 106/106/106
f 105/105/105 107/107/107 106/106/106
f 106/106/106 107/107/107 108/108/108
f 107/107/107 109/109/109 108/108/108
f 108/108/108 109/109/109 110/110/110
f 109/109/109 111/111/111 110/110/110
f 110/110/110 111/111/111 112/112/112
f 111/111/111 113/113/113 112/112/112
f 112/112/112 113/113/113 114/114/114
f 113/113/113 115/115/115 114/114/114
f 114/114/114 115/115/115 116/116/116
f 115/115/115 117/117/117 116/116/116
f 116/116/116 117/117/117 118/118/118
f 117/117/117 119/119/119 118/118/118
f 118/118/118 119/119/119 120/120/120
f 119/119/119 121/121/121 120/120/120
f 120/120/120 121/121/121 122/122/122
f 121/121/121 123/123/123 122/122/122
f 122/122/122 123/123/123 124/124/124
f 123/123/123 125/125/125 124/124/124
f 124/124/124 125/125/125 126/126/126
f 125/125/125 127/127/127 126/126/126
f 126/126/126 127/127/127 128/128/128
f 127/127/127 129/129/129 128/128/128
f 128/128/128 129/129/129 130/130/130
f 129/129/129 131/131/131 130/130/130
f 130/130/130 131/131/131 132/132/132
f 131/131/131 133/133/133 132/132/132
f 132/132/132 133/133/133 134/134/134
f 133/133/133 135/135/135 134/134/134
f 134/134/134 135/135/135 136/136/136
f 135/135/135 137/137/137 136/136/136
f 136/136/136 137/137/137 138/138/138
f 137/137/137 139/139/139 138/138/138
f 138/138/138 139/139/139 140/140/140
f 139/139/139 141/141/141 140/140/140
f 140/140/140 141/141/141 142/142/142
f 141/141/141 143/143/143 142/142/142
f 142/142/142 143/143/143 144/144/144
f 143/143/143 145/145/145 144/144/144
f 144/144/144 145/145/145 146/146/146
f 145/145/145 147/147/147 146/146/146
f 146/146/146 147/147/147 148/148/148
f 147/147/147 149/149/149 148/148/148
f 148/148/148 149/149/149 150/150/150
f 149/149/149 151/151/151 150/150/150
f 150/150/150 151/151/151 152/152/152
f 151/151/151 153/153/153 152/152/152
f 152/152/152 153/153/153 154/154/154
f 153/153/153 155/155/155 154/154/154
f 154/154/154 155/155/155 156/156/156
f 155/155/155 157/157/157 156/156/156
f 156/156/156 157/157/157 158/158/158
f 157/157/157 159/159/159 158/158/158
f 158/158/158 159/159/159 160/160/160
f 159/159/159 161/161/161 160/160/160
f 160/160/160 161/161/161 162/162/162
f 161/161/161 163/163/163 162/162/162
f 162/162/162 163/163/163 164/164/164
f 163/163/163 165/165/165 164/164/164
f 164/164/164 165/165/165 166/166/166
f 165/165/165 167/167/167 166/166/166
f 166/166/166 167/167/167 168/168/168
f 167/167/167 169/169/169 168/168/168
f 168/168/168 169/169/169 170/170/170
f 169/169/169 171/171/171 170/170/170
f 170/170/170 171/171/171 172/172/172
f 171/171/171 173/173/173 172/172/172
