g KK-SideWallPlank_3
v -5.088305 2.626451 -4.311595
v -5.103061 3.569692 -4.311595
v -5.634749 3.382167 -4.311594
v -5.634751 2.500256 -4.357475
v -5.073061 1.332249 -4.311595
v -5.634751 0.5849954 -4.366044
v -5.073061 0.5849939 -4.311595
v -5.623419 -1.140453 -4.33527
v -5.073061 -1.274603 -4.311595
v -5.634752 -2.235993 -4.311592
v -5.073058 -2.450629 -4.311595
v -4.508942 -1.308772 -4.311593
v -4.493453 -2.51383 -4.311593
v -4.493456 0.5849921 -4.311592
v -4.519938 2.695883 -4.311591
v -5.000722 2.636797 -4.311594
v -5.04306 3.584708 -4.311595
v -4.493457 3.665955 -4.311591
v -5.66117 -2.225897 -4.285097
v -5.634752 -2.235993 -4.311592
v -5.623419 -1.140453 -4.33527
v -5.661172 -1.134142 -4.285097
v -5.661174 0.5849933 -4.285097
v -5.634751 0.5849954 -4.366044
v -5.661173 2.493985 -4.285097
v -5.634751 2.500256 -4.357475
v -5.661172 3.372847 -4.285098
v -5.634749 3.382167 -4.311594
v -4.493457 3.665955 -4.311591
v -4.480269 2.698724 -4.285095
v -4.467033 3.66986 -4.285095
v -4.519938 2.695883 -4.311591
v -4.467033 0.5849939 -4.285095
v -4.493456 0.5849921 -4.311592
v -4.482519 -1.310329 -4.285098
v -4.508942 -1.308772 -4.311593
v -4.467031 -2.516711 -4.285096
v -4.493453 -2.51383 -4.311593
v -5.103061 3.569692 -4.311595
v -5.044512 2.633574 -4.266276
v -5.073062 3.580273 -4.266276
v -5.088305 2.626451 -4.311595
v -5.073061 1.332249 -4.311595
v -5.000722 2.636797 -4.311594
v -5.04306 3.584708 -4.311595
v -5.073062 3.580273 -4.266276
v -5.044512 2.633574 -4.266276
v -5.073061 1.332249 -4.311595
vt 0.07373996 0.7341547
vt 0.007395522 0.7374111
vt 0.021559 0.7747713
vt 0.08341405 0.7721251
vt 0.1648457 0.7316852
vt 0.2177987 0.7710946
vt 0.217569 0.7315671
vt 0.3389917 0.7696754
vt 0.3483686 0.7310027
vt 0.415944 0.771323
vt 0.4310489 0.7316773
vt 0.3507082 0.6912047
vt 0.4355238 0.6909861
vt 0.2174719 0.6910117
vt 0.06897528 0.6918555
vt 0.07311681 0.7256203
vt 0.006546078 0.7294299
vt 0.0006610748 0.6908162
vt 0.4154467 0.7741756
vt 0.415944 0.771323
vt 0.3389917 0.7696754
vt 0.3387033 0.7740602
vt 0.217922 0.776949
vt 0.2177987 0.7710946
vt 0.08380908 0.7774138
vt 0.08341405 0.7721251
vt 0.02208533 0.7776117
vt 0.021559 0.7747713
vt 0.0006610748 0.6908162
vt 0.06879782 0.6884432
vt 0.0005 0.6883254
vt 0.06897528 0.6918555
vt 0.2174461 0.6884
vt 0.2174719 0.6910117
vt 0.3507443 0.6885179
vt 0.3507082 0.6912047
vt 0.4355843 0.6883406
vt 0.4355238 0.6909861
vt 0.007395522 0.7374111
vt 0.07324921 0.729901
vt 0.006762292 0.7334171
vt 0.07373996 0.7341547
vt 0.1648457 0.7316852
vt 0.07311681 0.7256203
vt 0.006546078 0.7294299
vt 0.006762292 0.7334171
vt 0.07324921 0.729901
vt 0.1648457 0.7316852
vn 0.0579016 0.0157559 -0.998198
vn 0.03512334 0.02539869 -0.9990602
vn 0.03512334 0.02539869 -0.9990602
vn 0.0653015 0.01261796 -0.9977858
vn 0.04514674 0.001230372 -0.9989795
vn 0.08102325 -0.003527513 -0.9967059
vn 0.04143088 -0.002088042 -0.9991392
vn 0.04739308 -0.00926783 -0.9988334
vn 0.01983253 -0.004798022 -0.9997918
vn 0.01798642 -0.01051108 -0.999783
vn 0.0075192 -0.00439304 -0.9999621
vn 3.719699E-06 1.585146E-07 -1
vn 3.203691E-06 0 -1
vn 5.052427E-06 2.467399E-07 -1
vn 7.223853E-06 0 -1
vn 7.134624E-06 1.240905E-07 -1
vn 7.735209E-06 -2.542774E-07 -1
vn 7.735209E-06 -2.542774E-07 -1
vn -0.7671487 -0.002969587 -0.6414623
vn -0.7671487 -0.002969587 -0.6414623
vn -0.8353012 -0.004856283 -0.549771
vn -0.8430227 -0.005086727 -0.5378539
vn -0.9236163 -0.00308117 -0.3833058
vn -0.9236977 -0.00306803 -0.3831098
vn -0.9185191 0.006208379 -0.3953279
vn -0.9157843 0.00671088 -0.4016143
vn -0.8826737 0.01224341 -0.4698269
vn -0.8826737 0.01224341 -0.4698269
vn 0.626276 -0.01281371 -0.7794961
vn 0.6258753 -0.003837299 -0.7799137
vn 0.626276 -0.01281371 -0.7794961
vn 0.6258388 -0.003072417 -0.7799464
vn 0.6677073 4.95097E-05 -0.7444239
vn 0.6676872 5.23375E-05 -0.744442
vn 0.7082427 0.001860964 -0.7059665
vn 0.7082301 0.001451162 -0.7059801
vn 0.7084451 0.009100454 -0.7057073
vn 0.7084451 0.009100454 -0.7057073
vn 0.7736705 0.01772821 -0.6333402
vn 0.7488887 0.01347433 -0.6625588
vn 0.7736705 0.01772822 -0.6333402
vn 0.7448844 0.01280255 -0.6670707
vn 0.7184186 0.008461771 -0.6955596
vn -0.7489871 0.004259787 -0.6625708
vn -0.7739614 -0.02895848 -0.6325702
vn -0.7739614 -0.02895848 -0.6325703
vn -0.7474111 0.006271659 -0.6643323
vn -0.719973 0.03992375 -0.6928528
g KK-SideWallPlank_3_0
f 3/3/3 2/2/2 1/1/1
f 4/4/4 3/3/3 1/1/1
f 4/4/4 1/1/1 5/5/5
f 6/6/6 4/4/4 5/5/5
f 7/7/7 6/6/6 5/5/5
f 8/8/8 6/6/6 7/7/7
f 9/9/9 8/8/8 7/7/7
f 10/10/10 8/8/8 9/9/9
f 11/11/11 10/10/10 9/9/9
f 11/11/11 9/9/9 12/12/12
f 13/13/13 11/11/11 12/12/12
f 12/12/12 9/9/9 14/14/14
f 9/9/9 7/7/7 14/14/14
f 7/7/7 5/5/5 14/14/14
f 14/14/14 5/5/5 15/15/15
f 5/5/5 16/16/16 15/15/15
f 15/15/15 16/16/16 17/17/17
f 18/18/18 15/15/15 17/17/17
f 21/21/21 20/20/20 19/19/19
f 22/22/22 21/21/21 19/19/19
f 21/21/21 22/22/22 23/23/23
f 24/24/24 21/21/21 23/23/23
f 24/24/24 23/23/23 25/25/25
f 26/26/26 24/24/24 25/25/25
f 26/26/26 25/25/25 27/27/27
f 28/28/28 26/26/26 27/27/27
f 31/31/31 30/30/30 29/29/29
f 30/30/30 32/32/32 29/29/29
f 32/32/32 30/30/30 33/33/33
f 34/34/34 32/32/32 33/33/33
f 34/34/34 33/33/33 35/35/35
f 36/36/36 34/34/34 35/35/35
f 36/36/36 35/35/35 37/37/37
f 38/38/38 36/36/36 37/37/37
f 41/41/41 40/40/40 39/39/39
f 40/40/40 42/42/42 39/39/39
f 40/40/40 43/43/43 42/42/42
f 46/46/46 45/45/45 44/44/44
f 47/47/47 46/46/46 44/44/44
f 47/47/47 44/44/44 48/48/48
