g ENV_Spongebob_Coral_1_LOD2
v 0.5946463 0.1397592 1.427116
v 0.5280766 0.402324 1.230317
v 0.5212129 0.2813204 1.336117
v 0.4821948 0.006307079 0.5125932
v 0.1460903 0.09225319 9.351147E-05
v 0.2762412 -0.08595584 0.4203204
v 0.02372352 -0.05615447 0.0002395958
v 0.2762412 -0.08595584 0.4203204
v 0.09525004 0.03978419 0.4666736
v -0.02915146 0.140106 -0.006052803
v 0.2742604 0.06862304 1.09304
v 0.6143775 -0.0744684 1.003713
v 0.4821948 0.006307079 0.5125932
v 0.7398418 0.1882911 0.8362436
v 0.3032806 0.2265166 0.8169712
v 0.9293483 0.03566942 0.8131714
v 0.8896537 0.2101824 0.878402
v 0.8915025 -0.01962192 0.9499374
v 0.8915025 -0.01962192 0.9499374
v 0.7728726 0.0943946 0.9585046
v 0.8352867 -0.09042373 1.073213
v 0.7926152 0.001935512 1.077102
v 0.7113052 0.0006118082 1.054195
v 0.5760581 0.02680316 1.305628
v 0.5946463 0.1397592 1.427116
v 0.5280766 0.402324 1.230317
v 0.708322 0.4258097 0.9609755
v 0.7219396 0.06206007 1.317307
v 0.5946463 0.1397592 1.427116
v 0.6746682 0.1618551 1.345333
v 0.5650012 0.1521946 1.279037
v 0.5776147 0.2928089 1.188535
v 0.6624764 0.3218423 1.387788
v 0.7011673 0.3219118 1.052651
v 0.6839077 0.1521354 1.435016
v 0.5212129 0.2813204 1.336117
v 0.5280766 0.402324 1.230317
v 0.708322 0.4258097 0.9609755
v 0.8026928 0.2908159 1.007258
v 0.7728726 0.0943946 0.9585046
v 0.8896537 0.2101824 0.878402
v 0.7113052 0.0006118082 1.054195
v 0.5819727 0.1651123 0.8732777
v 0.7728726 0.0943946 0.9585046
v 0.3940735 0.1168161 1.086862
v 0.5650012 0.1521946 1.279037
v 0.4244641 0.1164641 0.7832943
v 0.5776147 0.2928089 1.188535
v 0.5452771 0.2444488 0.905645
v 0.5819727 0.1651123 0.8732777
v 0.7011673 0.3219118 1.052651
v 0.7728726 0.0943946 0.9585046
v 0.7398418 0.1882911 0.8362436
v 0.8896537 0.2101824 0.878402
v 0.4821948 0.006307079 0.5125932
v 0.2684596 0.1519333 0.3867754
v 0.1460903 0.09225319 9.351147E-05
v 0.08340912 -0.2662654 1.502677
v 0.01092983 -0.4562597 1.395319
v 0.06958166 -0.3047933 1.616349
v -0.0973196 -0.5726402 1.616399
v -0.07288944 -0.302166 1.437348
v -0.2753319 -0.5963444 1.573988
v -0.3138903 -0.6515912 1.437682
v -0.3964529 -0.5857492 1.648656
v -0.4734732 -0.3549862 1.511521
v -0.5774642 -0.360032 1.579267
v -0.3875555 -0.1327915 1.564674
v -0.5201344 -0.4989687 1.543608
v -0.4917401 -0.1997689 1.638498
v -0.5128581 -0.4030353 1.13975
v -0.5774642 -0.360032 1.579267
v -0.4660865 -0.009757524 1.572762
v -0.2976379 -0.07822092 1.128361
v -0.2593186 -0.01803835 1.520176
v -0.2507789 -0.0405344 1.674928
v -0.4660865 -0.009757524 1.572762
v -0.5774642 -0.360032 1.579267
v 0.01198805 -0.1496519 1.640111
v -0.07288944 -0.302166 1.437348
v 0.06958166 -0.3047933 1.616349
v 0.08340912 -0.2662654 1.502677
v -0.008127197 -0.1491156 1.435853
v -0.06877577 -0.307885 1.27164
v 0.08340912 -0.2662654 1.502677
v 0.019782 -0.03243219 0.2557028
v -0.1180364 0.1164406 -0.00260658
v 0.01033593 -0.06392463 -0.01914747
v -0.2969163 0.01532945 0.3818222
v -0.2293205 -0.07347556 -0.03217382
v -0.272284 -0.2469536 0.6108998
v -0.2293205 -0.07347556 -0.03217382
v 0.01033593 -0.06392463 -0.01914747
v -0.1402081 -0.3622768 1.055301
v 0.019782 -0.03243219 0.2557028
v 0.01092983 -0.4562597 1.395319
v -0.06877577 -0.307885 1.27164
v 0.08340912 -0.2662654 1.502677
v -0.07288944 -0.302166 1.437348
v -0.1625599 -0.2478598 1.15581
v -0.3875555 -0.1327915 1.564674
v -0.4340833 -0.2983361 1.209417
v -0.4734732 -0.3549862 1.511521
v -0.2530866 -0.2238245 0.9243283
v -0.2753319 -0.5963444 1.573988
v -0.2393709 -0.4183723 1.148697
v -0.1625599 -0.2478598 1.15581
v -0.07288944 -0.302166 1.437348
v 0.1721855 -1.127114 0.5326605
v 0.02993368 -1.144036 0.6465689
v 0.2445431 -1.168524 0.6759679
v 0.03014002 -1.117617 0.5307248
v -0.1925843 -1.106306 0.754754
v -0.1104085 -1.090324 0.8554081
v -0.2201028 -1.072193 0.9205612
v -0.04869872 -1.087315 1.081144
v 0.003961964 -0.9918582 0.9504449
v 0.06302336 -0.9966525 1.102511
v 0.1575603 -1.015849 0.9426354
v 0.0303205 -0.647333 0.7968221
v -0.117226 -0.9175133 0.6638765
v -0.1925843 -1.106306 0.754754
v -0.06392149 -0.9554664 0.5624454
v 0.03014002 -1.117617 0.5307248
v 0.05991378 -0.8067553 0.4479082
v 0.1721855 -1.127114 0.5326605
v -0.04879577 -0.5610973 0.4515475
v -0.04528276 -0.322175 0.1581197
v 0.01070906 -0.1853743 -0.0006296944
v -0.1345266 -0.08403651 0.01249323
v -0.1345266 -0.08403651 0.01249323
v 0.1423799 -0.3044165 0.4912449
v 0.2763126 -0.5108807 0.5729928
v 0.1963911 -0.9790351 0.9945402
v 0.2421759 -1.089521 0.8854994
v 0.3182734 -1.036856 0.837051
v 0.2445431 -1.168524 0.6759679
v 0.2402691 -1.023036 0.7329328
v 0.2663185 -0.9733084 0.564113
v 0.1721855 -1.127114 0.5326605
v 0.2929497 -0.617862 0.4168468
v 0.05991378 -0.8067553 0.4479082
v 0.1721557 -0.4746672 0.2814174
v 0.01070906 -0.1853743 -0.0006296944
v 0.2207239 -0.26802 0.2341155
v 0.09307987 -0.06013309 -0.002911539
v 0.09935019 0.07313525 0.03085262
v -0.1345266 -0.08403651 0.01249323
v 0.2445431 -1.168524 0.6759679
v 0.2259572 -0.8135078 0.5869491
v 0.2402691 -1.023036 0.7329328
v 0.1575603 -1.015849 0.9426354
v 0.05527546 -0.7478758 0.7517129
v 0.003961964 -0.9918582 0.9504449
v 0.1177624 -0.5930128 0.5163854
v -0.1104085 -1.090324 0.8554081
v 0.01143254 -0.8359345 0.5536156
v 0.02993368 -1.144036 0.6465689
v 0.02993368 -1.144036 0.6465689
v 0.2259572 -0.8135078 0.5869491
v 0.2445431 -1.168524 0.6759679
v 0.01143254 -0.8359345 0.5536156
v 0.1177624 -0.5930128 0.5163854
vt 0.7783203 0.6171875
vt 0.769043 0.6357422
vt 0.7729492 0.6259766
vt 0.7041016 0.5649414
vt 0.6254883 0.5654297
vt 0.6821289 0.5820313
vt 0.621582 0.5859375
vt 0.6821289 0.5820313
vt 0.6767578 0.609375
vt 0.6147461 0.6157227
vt 0.7480469 0.6152344
vt 0.7607422 0.5854492
vt 0.7041016 0.5649414
vt 0.7602539 0.5458984
vt 0.7265625 0.6308594
vt 0.7763672 0.5605469
vt 0.78125 0.5473633
vt 0.78125 0.5678711
vt 0.78125 0.5678711
vt 0.7978516 0.5639648
vt 0.7797852 0.5795898
vt 0.7880859 0.5805664
vt 0.7983398 0.5820313
vt 0.7724609 0.6083984
vt 0.7783203 0.6171875
vt 0.769043 0.6357422
vt 0.7651367 0.6606445
vt 0.7856445 0.6074219
vt 0.7783203 0.6171875
vt 0.7880859 0.6171875
vt 0.8022461 0.6186523
vt 0.800293 0.640625
vt 0.7832031 0.6269531
vt 0.7895508 0.6630859
vt 0.78125 0.6171875
vt 0.7729492 0.6259766
vt 0.769043 0.6357422
vt 0.7651367 0.6606445
vt 0.7807617 0.6757813
vt 0.7871094 0.6865234
vt 0.7651367 0.6914063
vt 0.9257813 0.1473389
vt 0.9321289 0.1147461
vt 0.9145508 0.133667
vt 0.9580078 0.137085
vt 0.9633789 0.1612549
vt 0.953125 0.1091919
vt 0.980957 0.1497803
vt 0.9746094 0.1190186
vt 0.9746094 0.1090088
vt 0.9916992 0.1292725
vt 0.9951172 0.1099243
vt 0.7456055 0.6826172
vt 0.7651367 0.6914063
vt 0.7138672 0.6733398
vt 0.6723633 0.6420898
vt 0.6191406 0.6430664
vt 0.5810547 0.3449707
vt 0.5908203 0.3234863
vt 0.5683594 0.3415527
vt 0.5722656 0.3041992
vt 0.5400391 0.3193359
vt 0.5693359 0.2880859
vt 0.5922852 0.2893066
vt 0.5776367 0.2785645
vt 0.5639648 0.2504883
vt 0.5927734 0.2595215
vt 0.5791016 0.2301025
vt 0.5913086 0.2705078
vt 0.5883789 0.2414551
vt 0.625 0.2770996
vt 0.5927734 0.2595215
vt 0.6010742 0.2315674
vt 0.6489258 0.2424316
vt 0.6103516 0.2232666
vt 0.597168 0.2174072
vt 0.6010742 0.2315674
vt 0.5927734 0.2595215
vt 0.6015625 0.1940918
vt 0.5722656 0.1802979
vt 0.609375 0.1782227
vt 0.6210938 0.1829834
vt 0.625 0.2009277
vt 0.6494141 0.1977539
vt 0.6210938 0.1829834
vt 0.7548828 0.2597656
vt 0.7705078 0.2927246
vt 0.7807617 0.2734375
vt 0.722168 0.2888184
vt 0.7641602 0.3100586
vt 0.6845703 0.3007813
vt 0.7641602 0.3100586
vt 0.7573242 0.3452148
vt 0.6313477 0.3171387
vt 0.7280273 0.3425293
vt 0.5908203 0.3234863
vt 0.609375 0.3337402
vt 0.5810547 0.3449707
vt 0.1257324 0.2963867
vt 0.1564941 0.2941895
vt 0.1259766 0.2661133
vt 0.161377 0.260498
vt 0.142334 0.2392578
vt 0.1838379 0.2875977
vt 0.1586914 0.2280273
vt 0.1811523 0.2573242
vt 0.1940918 0.2607422
vt 0.2023926 0.230835
vt 0.4831543 0.3308105
vt 0.5083008 0.348877
vt 0.5029297 0.3364258
vt 0.4831543 0.3452148
vt 0.4912109 0.3747559
vt 0.5083008 0.3811035
vt 0.4929199 0.3845215
vt 0.4963379 0.3972168
vt 0.5161133 0.3999023
vt 0.4924316 0.404541
vt 0.5087891 0.4177246
vt 0.4555664 0.4008789
vt 0.472168 0.3718262
vt 0.4912109 0.3747559
vt 0.4702148 0.3601074
vt 0.4831543 0.3452148
vt 0.4475098 0.3498535
vt 0.4831543 0.3308105
vt 0.4255371 0.3742676
vt 0.3786621 0.3710938
vt 0.3540039 0.3618164
vt 0.3449707 0.3798828
vt 0.3449707 0.3798828
vt 0.4069824 0.4067383
vt 0.4287109 0.4221191
vt 0.4902344 0.4160156
vt 0.4992676 0.4309082
vt 0.4885254 0.4348145
vt 0.5019531 0.4575195
vt 0.5151367 0.4462891
vt 0.465332 0.4553223
vt 0.4758301 0.4714355
vt 0.4272461 0.4394531
vt 0.4204102 0.454834
vt 0.4013672 0.4440918
vt 0.3515625 0.4401855
vt 0.3852539 0.4255371
vt 0.3481445 0.4226074
vt 0.3435059 0.4147949
vt 0.3449707 0.3798828
vt 0.9208984 0.4550781
vt 0.9213867 0.4799805
vt 0.9311523 0.4550781
vt 0.953125 0.458252
vt 0.9506836 0.4882813
vt 0.9707031 0.4633789
vt 0.9277344 0.5073242
vt 0.9794922 0.4873047
vt 0.9550781 0.5048828
vt 0.9799805 0.5078125
vt 0.9130859 0.4560547
vt 0.9213867 0.4799805
vt 0.9208984 0.4550781
vt 0.9155273 0.4812012
vt 0.9277344 0.5073242
vn -0.4929199 -0.1343994 0.8598633
vn -0.7177734 0.6958008 0.01779175
vn -0.7851563 0.362793 0.5019531
vn 0.7143555 -0.02932739 -0.6992188
vn 0.8793945 -0.2775879 -0.3867188
vn 0.08636475 -0.9921875 -0.08959961
vn 0.004707336 -0.9975586 -0.06634521
vn 0.08636475 -0.9921875 -0.08959961
vn -0.8808594 -0.2408447 0.4069824
vn -0.6254883 0.7285156 0.2800293
vn -0.9536133 -0.21521 0.210083
vn -0.02850342 -0.9853516 -0.1691895
vn 0.7666016 -0.2106934 -0.6064453
vn 0.8173828 -0.09570313 -0.5683594
vn -0.6391602 0.7680664 0.04104614
vn 0.08276367 -0.1973877 -0.9770508
vn 0.9458008 0.3210449 -0.0512085
vn 0.9375 -0.2575684 0.2341309
vn 0.8803711 0.09661865 0.4641113
vn 0.03497314 0.2602539 0.9648438
vn 0.8325195 -0.270752 0.4836426
vn 0.5981445 0.7626953 0.2459717
vn 0.03369141 0.9863281 0.1602783
vn -0.3911133 -0.7827148 0.484375
vn -0.6171875 -0.01283264 0.7866211
vn -0.5063477 0.84375 0.1783447
vn -0.0826416 0.894043 -0.4404297
vn 0.6811523 -0.3642578 0.6352539
vn -0.4929199 -0.1343994 0.8598633
vn 0.8291016 0.3491211 -0.4365234
vn 0.6303711 0.2353516 -0.7397461
vn 0.5424805 -0.8115234 -0.2161865
vn 0.9013672 0.173584 0.3972168
vn 0.06866455 -0.8105469 0.581543
vn 0.4082031 -0.1574707 0.8994141
vn -0.7851563 0.362793 0.5019531
vn -0.7177734 0.6958008 0.01779175
vn -0.05755615 0.9946289 -0.08734131
vn 0.7382813 0.1759033 0.6513672
vn 0.03497314 0.2602539 0.9648438
vn 0.9458008 0.3210449 -0.0512085
vn 0.03369141 0.9863281 0.1602783
vn -0.4265137 0.01849365 0.9042969
vn 0.03497314 0.2602539 0.9648438
vn 0.9101563 0.4104004 -0.05853271
vn 0.6303711 0.2353516 -0.7397461
vn 0.6967773 0.1420898 0.703125
vn 0.5424805 -0.8115234 -0.2161865
vn 0.03436279 -0.7924805 0.6088867
vn -0.4265137 0.01849365 0.9042969
vn 0.06866455 -0.8105469 0.581543
vn 0.03497314 0.2602539 0.9648438
vn 0.8173828 -0.09570313 -0.5683594
vn 0.9458008 0.3210449 -0.0512085
vn 0.7143555 -0.02932739 -0.6992188
vn 0.3354492 0.9003906 -0.2763672
vn 0.9438477 0.1533203 -0.2919922
vn 0.9741211 0.05618286 -0.2186279
vn 0.671875 -0.4956055 -0.5507813
vn 0.8520508 -0.04098511 0.5214844
vn 0.2419434 -0.5883789 0.7714844
vn -0.9594727 -0.1485596 0.2387695
vn 0.01586914 0.7841797 0.6206055
vn -0.1638184 -0.9492188 -0.2692871
vn -0.02946472 -0.2790527 0.9599609
vn 0.9838867 0.08886719 0.1558838
vn -0.7373047 -0.1352539 0.6621094
vn 0.2371826 -0.8818359 0.4077148
vn -0.8066406 -0.4306641 -0.4052734
vn -0.1821289 -0.04803467 0.9819336
vn -0.9335938 -0.2890625 -0.2109375
vn -0.9799805 -0.06536865 -0.1878662
vn -0.5737305 0.753418 -0.3208008
vn 0.1051636 0.9545898 0.2785645
vn -0.007896423 0.8427734 -0.5380859
vn 0.09716797 0.2294922 0.9682617
vn -0.5234375 0.8500977 0.05664063
vn -0.9829102 -0.03866577 0.1791992
vn -0.2514648 -0.6347656 0.730957
vn -0.9594727 -0.1485596 0.2387695
vn 0.8520508 -0.04098511 0.5214844
vn 0.9741211 0.05618286 -0.2186279
vn 0.6157227 0.5751953 -0.5385742
vn 0.9423828 0.07226563 -0.3273926
vn 0.9243164 0.03540039 -0.380127
vn 0.9814453 0.1751709 0.07910156
vn 0.1589355 0.984375 -0.07897949
vn 0.3552246 -0.9248047 -0.1378174
vn -0.9384766 0.2609863 -0.2263184
vn -0.9995117 -0.0109787 0.03240967
vn -0.4863281 -0.762207 -0.427002
vn -0.9648438 0.236084 -0.1171265
vn 0.3552246 -0.9248047 -0.1378174
vn 0.7158203 -0.6113281 -0.3371582
vn 0.9814453 0.1751709 0.07910156
vn 0.7631836 -0.5507813 -0.3383789
vn 0.9423828 0.07226563 -0.3273926
vn 0.9243164 0.03540039 -0.380127
vn -0.9594727 -0.1485596 0.2387695
vn -0.7841797 -0.5986328 0.1639404
vn 0.2371826 -0.8818359 0.4077148
vn 0.8388672 0.3061523 0.4501953
vn 0.9838867 0.08886719 0.1558838
vn 0.3066406 -0.0927124 0.9472656
vn 0.01586914 0.7841797 0.6206055
vn -0.263916 0.8701172 0.4160156
vn -0.7841797 -0.5986328 0.1639404
vn -0.9594727 -0.1485596 0.2387695
vn 0.2663574 -0.2937012 -0.9179688
vn 0.5390625 -0.07330322 0.8388672
vn -0.5258789 -0.5585938 0.6416016
vn -0.3400879 0.1877441 -0.9213867
vn -0.9355469 -0.111084 -0.3359375
vn 0.9189453 -0.3283691 0.2188721
vn -0.9770508 0.1989746 0.07611084
vn -0.1534424 -0.3791504 0.9125977
vn 0.3000488 -0.6323242 -0.7143555
vn 0.3505859 0.4404297 0.8266602
vn -0.4724121 -0.5678711 -0.6743164
vn -0.1739502 0.6352539 0.7524414
vn -0.9511719 0.1016235 -0.2907715
vn -0.9130859 0.3515625 -0.2058105
vn -0.7143555 -0.126709 -0.6879883
vn -0.2873535 -0.05206299 -0.956543
vn -0.5029297 -0.2941895 -0.8125
vn 0.2663574 -0.2937012 -0.9179688
vn -0.9829102 0.01269531 -0.1828613
vn -0.5717773 -0.5688477 -0.5908203
vn 0.0760498 -0.6303711 -0.7724609
vn -0.9648438 -0.03900146 0.2592773
vn -0.9570313 0.05709839 0.2844238
vn -0.2827148 0.7133789 0.6411133
vn 0.8413086 0.362793 0.4003906
vn 0.7319336 0.2827148 0.6201172
vn 0.2015381 -0.8828125 0.4243164
vn 0.9311523 0.1555176 0.3295898
vn -0.5258789 -0.5585938 0.6416016
vn -0.9980469 -0.01407623 0.06317139
vn 0.7304688 -0.2814941 -0.6225586
vn 0.2663574 -0.2937012 -0.9179688
vn 0.8178711 0.03573608 -0.5742188
vn -0.5029297 -0.2941895 -0.8125
vn 0.6230469 -0.3100586 -0.7182617
vn 0.0760498 -0.6303711 -0.7724609
vn 0.9487305 0.05740356 -0.3103027
vn 0.9165039 0.0484314 -0.3974609
vn 0.8666992 0.4953613 -0.06045532
vn -0.6621094 0.4736328 0.5805664
vn -0.5258789 -0.5585938 0.6416016
vn -0.9321289 -0.05703735 0.3574219
vn -0.9980469 -0.01407623 0.06317139
vn -0.4724121 -0.5678711 -0.6743164
vn 0.7001953 -0.6103516 -0.369873
vn 0.3000488 -0.6323242 -0.7143555
vn -0.01696777 -0.9321289 0.3623047
vn 0.9189453 -0.3283691 0.2188721
vn 0.7915039 -0.008834839 0.6113281
vn 0.5390625 -0.07330322 0.8388672
vn 0.5390625 -0.07330322 0.8388672
vn -0.6772461 0.1141357 0.7270508
vn -0.5258789 -0.5585938 0.6416016
vn 0.7915039 -0.008834839 0.6113281
vn -0.01696777 -0.9321289 0.3623047
g ENV_Spongebob_Coral_1_LOD2_0
f 3/3/3 2/2/2 1/1/1
f 6/6/6 5/5/5 4/4/4
f 5/5/5 8/8/8 7/7/7
f 7/7/7 8/8/8 9/9/9
f 9/9/9 10/10/10 7/7/7
f 11/11/11 9/9/9 8/8/8
f 8/8/8 12/12/12 11/11/11
f 12/12/12 8/8/8 13/13/13
f 14/14/14 12/12/12 13/13/13
f 15/15/15 10/10/10 9/9/9
f 9/9/9 11/11/11 15/15/15
f 16/16/16 12/12/12 14/14/14
f 14/14/14 17/17/17 16/16/16
f 12/12/12 16/16/16 18/18/18
f 16/16/16 17/17/17 19/19/19
f 19/19/19 17/17/17 20/20/20
f 18/18/18 21/21/21 12/12/12
f 20/20/20 22/22/22 19/19/19
f 21/21/21 19/19/19 22/22/22
f 23/23/23 22/22/22 20/20/20
f 24/24/24 12/12/12 21/21/21
f 12/12/12 24/24/24 11/11/11
f 25/25/25 11/11/11 24/24/24
f 11/11/11 25/25/25 26/26/26
f 15/15/15 11/11/11 26/26/26
f 15/15/15 26/26/26 27/27/27
f 21/21/21 28/28/28 24/24/24
f 28/28/28 21/21/21 22/22/22
f 28/28/28 29/29/29 24/24/24
f 22/22/22 23/23/23 30/30/30
f 22/22/22 30/30/30 28/28/28
f 31/31/31 30/30/30 23/23/23
f 30/30/30 31/31/31 32/32/32
f 33/33/33 30/30/30 32/32/32
f 34/34/34 33/33/33 32/32/32
f 29/29/29 28/28/28 35/35/35
f 35/35/35 28/28/28 30/30/30
f 30/30/30 33/33/33 35/35/35
f 35/35/35 36/36/36 29/29/29
f 36/36/36 35/35/35 33/33/33
f 37/37/37 36/36/36 33/33/33
f 33/33/33 38/38/38 37/37/37
f 39/39/39 33/33/33 34/34/34
f 33/33/33 39/39/39 38/38/38
f 34/34/34 40/40/40 39/39/39
f 39/39/39 41/41/41 38/38/38
f 41/41/41 39/39/39 40/40/40
f 44/44/44 43/43/43 42/42/42
f 45/45/45 42/42/42 43/43/43
f 42/42/42 45/45/45 46/46/46
f 43/43/43 47/47/47 45/45/45
f 46/46/46 45/45/45 48/48/48
f 45/45/45 47/47/47 49/49/49
f 49/49/49 48/48/48 45/45/45
f 49/49/49 47/47/47 50/50/50
f 48/48/48 49/49/49 51/51/51
f 50/50/50 52/52/52 49/49/49
f 51/51/51 49/49/49 52/52/52
f 54/54/54 53/53/53 27/27/27
f 53/53/53 55/55/55 27/27/27
f 56/56/56 27/27/27 55/55/55
f 55/55/55 57/57/57 56/56/56
f 27/27/27 56/56/56 15/15/15
f 56/56/56 57/57/57 10/10/10
f 10/10/10 15/15/15 56/56/56
f 60/60/60 59/59/59 58/58/58
f 60/60/60 61/61/61 59/59/59
f 61/61/61 60/60/60 62/62/62
f 62/62/62 63/63/63 61/61/61
f 64/64/64 59/59/59 61/61/61
f 65/65/65 61/61/61 63/63/63
f 64/64/64 61/61/61 65/65/65
f 63/63/63 66/66/66 65/65/65
f 67/67/67 65/65/65 66/66/66
f 66/66/66 68/68/68 67/67/67
f 65/65/65 67/67/67 69/69/69
f 69/69/69 64/64/64 65/65/65
f 70/70/70 67/67/67 68/68/68
f 69/69/69 71/71/71 64/64/64
f 71/71/71 69/69/69 72/72/72
f 72/72/72 73/73/73 71/71/71
f 74/74/74 71/71/71 73/73/73
f 73/73/73 75/75/75 74/74/74
f 68/68/68 76/76/76 70/70/70
f 77/77/77 70/70/70 76/76/76
f 75/75/75 77/77/77 76/76/76
f 70/70/70 77/77/77 78/78/78
f 68/68/68 79/79/79 76/76/76
f 76/76/76 79/79/79 75/75/75
f 80/80/80 79/79/79 68/68/68
f 79/79/79 80/80/80 81/81/81
f 82/82/82 79/79/79 81/81/81
f 79/79/79 82/82/82 83/83/83
f 83/83/83 75/75/75 79/79/79
f 75/75/75 83/83/83 74/74/74
f 74/74/74 83/83/83 84/84/84
f 85/85/85 84/84/84 83/83/83
f 86/86/86 74/74/74 84/84/84
f 87/87/87 74/74/74 86/86/86
f 87/87/87 86/86/86 88/88/88
f 87/87/87 89/89/89 74/74/74
f 89/89/89 87/87/87 90/90/90
f 89/89/89 71/71/71 74/74/74
f 71/71/71 89/89/89 91/91/91
f 92/92/92 91/91/91 89/89/89
f 91/91/91 64/64/64 71/71/71
f 93/93/93 91/91/91 92/92/92
f 64/64/64 91/91/91 94/94/94
f 91/91/91 93/93/93 94/94/94
f 94/94/94 93/93/93 95/95/95
f 96/96/96 64/64/64 94/94/94
f 95/95/95 97/97/97 94/94/94
f 96/96/96 94/94/94 97/97/97
f 97/97/97 98/98/98 96/96/96
f 101/101/101 100/100/100 99/99/99
f 100/100/100 101/101/101 102/102/102
f 103/103/103 102/102/102 101/101/101
f 102/102/102 104/104/104 100/100/100
f 105/105/105 102/102/102 103/103/103
f 106/106/106 104/104/104 102/102/102
f 102/102/102 105/105/105 106/106/106
f 107/107/107 104/104/104 106/106/106
f 108/108/108 106/106/106 105/105/105
f 106/106/106 108/108/108 107/107/107
f 111/111/111 110/110/110 109/109/109
f 112/112/112 109/109/109 110/110/110
f 110/110/110 113/113/113 112/112/112
f 113/113/113 110/110/110 114/114/114
f 115/115/115 113/113/113 114/114/114
f 114/114/114 116/116/116 115/115/115
f 116/116/116 114/114/114 117/117/117
f 117/117/117 118/118/118 116/116/116
f 115/115/115 116/116/116 118/118/118
f 117/117/117 119/119/119 118/118/118
f 118/118/118 120/120/120 115/115/115
f 115/115/115 120/120/120 121/121/121
f 121/121/121 122/122/122 115/115/115
f 122/122/122 121/121/121 123/123/123
f 123/123/123 124/124/124 122/122/122
f 124/124/124 123/123/123 125/125/125
f 123/123/123 121/121/121 125/125/125
f 124/124/124 125/125/125 126/126/126
f 127/127/127 125/125/125 121/121/121
f 127/127/127 121/121/121 120/120/120
f 127/127/127 128/128/128 125/125/125
f 129/129/129 125/125/125 128/128/128
f 128/128/128 130/130/130 129/129/129
f 127/127/127 131/131/131 128/128/128
f 132/132/132 131/131/131 127/127/127
f 120/120/120 132/132/132 127/127/127
f 133/133/133 132/132/132 120/120/120
f 134/134/134 120/120/120 118/118/118
f 133/133/133 120/120/120 134/134/134
f 134/134/134 118/118/118 135/135/135
f 135/135/135 118/118/118 119/119/119
f 136/136/136 134/134/134 135/135/135
f 134/134/134 136/136/136 133/133/133
f 119/119/119 137/137/137 135/135/135
f 135/135/135 137/137/137 136/136/136
f 138/138/138 137/137/137 119/119/119
f 137/137/137 139/139/139 136/136/136
f 139/139/139 137/137/137 140/140/140
f 139/139/139 141/141/141 136/136/136
f 141/141/141 139/139/139 140/140/140
f 141/141/141 133/133/133 136/136/136
f 140/140/140 142/142/142 141/141/141
f 143/143/143 141/141/141 142/142/142
f 141/141/141 143/143/143 133/133/133
f 142/142/142 144/144/144 143/143/143
f 145/145/145 143/143/143 144/144/144
f 143/143/143 145/145/145 133/133/133
f 146/146/146 145/145/145 144/144/144
f 145/145/145 146/146/146 147/147/147
f 147/147/147 133/133/133 145/145/145
f 133/133/133 147/147/147 132/132/132
f 148/148/148 132/132/132 147/147/147
f 151/151/151 150/150/150 149/149/149
f 152/152/152 150/150/150 151/151/151
f 150/150/150 152/152/152 153/153/153
f 154/154/154 153/153/153 152/152/152
f 153/153/153 155/155/155 150/150/150
f 156/156/156 153/153/153 154/154/154
f 157/157/157 155/155/155 153/153/153
f 153/153/153 156/156/156 157/157/157
f 158/158/158 157/157/157 156/156/156
f 161/161/161 160/160/160 159/159/159
f 162/162/162 159/159/159 160/160/160
f 160/160/160 163/163/163 162/162/162
