g ENV_Spongebob_Coral_0_LOD2
v 1.156865 0.3221614 1.16683
v 0.8476634 0.3324173 1.047558
v 1.079388 0.5372778 1.273765
v 0.6900235 0.2889617 1.323217
v 0.9400069 0.3096459 1.572009
v 0.6056415 0.2539111 0.9745174
v 0.7807515 0.1084784 1.254682
v 1.225294 0.06077714 1.292604
v 0.8476634 0.3324173 1.047558
v 1.156865 0.3221614 1.16683
v 0.3882726 0.1797003 0.259695
v 0.3060311 0.3338907 -0.01208371
v 0.4303652 0.206579 0.0001550342
v 0.1083958 0.2720956 0.295616
v 0.141678 0.1717666 -0.0194278
v 0.4227543 0.1262521 0.4801201
v 0.05377911 0.05484101 0.3507516
v 0.2866563 0.04882468 -0.007242693
v 0.4407427 0.378975 0.7226201
v 0.7417557 0.2618947 0.8004319
v 1.131537 0.6180354 1.199591
v 1.153357 0.3529071 1.086282
v 0.9258198 0.5988763 1.480798
v 0.2144058 0.296998 0.8734307
v 0.3882726 0.1797003 0.259695
v 0.4303652 0.206579 0.0001550342
v 0.3029001 -0.0445408 0.5763254
v 0.4227543 0.1262521 0.4801201
v 0.5907057 0.007448941 0.9516071
v 0.7417557 0.2618947 0.8004319
v 0.5469298 0.1962097 1.329638
v 1.070598 0.1753371 1.0636
v 1.153357 0.3529071 1.086282
v 1.296467 0.1735744 1.034984
v 0.9701862 -0.02962798 1.227195
v 1.259295 0.01497573 1.097792
v 1.291574 0.08772179 1.160359
v 1.242651 0.3272749 1.186194
v 1.156865 0.3221614 1.16683
v 1.225294 0.06077714 1.292604
v 1.276174 -0.02151817 1.30078
v 1.0533 0.1542285 1.621558
v 1.159507 0.2309047 1.58665
v 0.9400069 0.3096459 1.572009
v 0.969178 0.355046 1.739356
v 1.099272 0.3697073 1.73441
v 1.099313 0.6228101 1.558194
v 1.079388 0.5372778 1.273765
v 1.099313 0.6228101 1.558194
v 1.190698 0.5673323 1.261287
v 1.131537 0.6180354 1.199591
v 1.156865 0.3221614 1.16683
v 1.242651 0.3272749 1.186194
v 1.22309 0.5108502 1.123037
v 1.153357 0.3529071 1.086282
v 1.296467 0.1735744 1.034984
v -0.4572482 -0.3503804 1.851006
v -0.25706 -0.1110917 1.419026
v -0.07726604 -0.1237853 1.746088
v -0.5706565 -0.140112 1.506264
v -0.3994269 -0.04028188 1.147146
v -0.57521 -0.1187281 1.938889
v -0.4929496 0.0770181 1.536248
v -0.25706 -0.1110917 1.419026
v -0.3019699 0.1353408 2.004261
v -0.07726604 -0.1237853 1.746088
v 0.1470425 -0.08045866 1.815526
v -0.1447408 -0.07705808 1.30426
v 0.01540981 -0.2997842 1.688588
v -0.4851663 -0.3490742 1.36618
v -0.3598567 -0.5038564 1.918736
v -0.7196423 -0.1014912 1.455166
v -0.539369 -0.4399454 1.959625
v -0.6552979 -0.1654563 2.108151
v -0.640898 0.1108496 2.139271
v -0.1347927 -0.07424103 0.8331346
v -0.3225648 0.2638471 1.884462
v -0.5461327 -0.2325924 1.082303
v -0.441355 0.1943347 1.106569
v -0.6172544 -0.04990043 1.117851
v -0.3436006 -0.1329855 0.4890917
v -0.5099682 -0.00703123 0.7710114
v 0.1091468 -0.08139101 -0.01530298
v 0.2338174 0.07029184 0.002389322
v -0.08731649 0.03917266 -0.01728034
v -0.3977507 0.08971784 0.4885398
v 0.05015982 0.2016796 -0.00202099
v -0.5528134 0.09956542 0.8003204
v -0.4103157 0.20017 0.7932396
v 0.2338174 0.07029184 0.002389322
v -0.1347927 -0.07424103 0.8331346
v -0.1447408 -0.07705808 1.30426
v -0.06611481 0.2457414 1.870312
v 0.1470425 -0.08045866 1.815526
v -0.640898 0.1108496 2.139271
v 0.02817946 0.04285421 1.925124
v -0.07726604 -0.1237853 1.746088
v -0.3019699 0.1353408 2.004261
v -0.2537432 0.1948255 2.043513
v -0.5225593 0.01141582 2.191353
v -0.57521 -0.1187281 1.938889
v -0.5905042 -0.1757487 2.227584
v -0.6552979 -0.1654563 2.108151
v -0.539369 -0.4399454 1.959625
v -0.4891018 -0.2736446 2.12788
v -0.4891018 -0.2736446 2.12788
v -0.4338843 -0.4164151 2.09052
v -0.4572482 -0.3503804 1.851006
v -0.3598567 -0.5038564 1.918736
v -0.2942063 -0.3925728 1.946657
v -0.07726604 -0.1237853 1.746088
v -0.07960472 -0.4067912 1.92652
v 0.01540981 -0.2997842 1.688588
v 0.1470425 -0.08045866 1.815526
v -1.601817 -0.6213974 0.767907
v -1.438612 -0.7611353 0.7526633
v -1.494978 -0.5934175 0.7032213
v -1.380598 -0.8143512 1.099199
v -1.334733 -0.7824335 0.882566
v -1.494978 -0.5934175 0.7032213
v -0.8477063 -0.5462474 0.5588775
v -0.9821493 -0.2987249 0.4801525
v -0.8317544 -0.2789238 0.2876386
v -1.185624 -0.7051528 1.173366
v -1.185624 -0.7051528 1.173366
v -1.238835 -0.5313837 1.316074
v -0.910256 -0.4064485 0.9522893
v -1.25263 -0.595694 1.096223
v -1.32827 -0.6810284 0.9150074
v -1.450147 -0.5328736 0.7771828
v -1.351655 -0.3724995 1.339389
v -1.123358 -0.3222182 1.149465
v -1.3906 -0.4231411 1.213099
v -1.275038 -0.3783222 1.169281
v -1.541109 -0.2389657 1.12485
v -1.455709 -0.2433078 0.9244366
v -1.4881 -0.148185 1.127473
v -0.9490772 -0.08070906 0.5960896
v -0.9276321 -0.2443636 0.9905753
v -1.640039 -0.33786 0.8704619
v -1.450147 -0.5328736 0.7771828
v -1.601817 -0.6213974 0.767907
v -1.617862 -0.2421052 0.7967889
v -1.64527 -0.4429019 0.7311473
v -1.494978 -0.5934175 0.7032213
v -1.543179 -0.4292675 0.692873
v -0.7136815 -0.2474131 0.8309764
v -0.9821493 -0.2987249 0.4801525
v -1.494978 -0.5934175 0.7032213
v -0.8317544 -0.2789238 0.2876386
v -0.676603 -0.06550184 0.5317817
v -0.5076388 -0.3412482 0.6312163
v -0.3280319 0.0122517 0.007189723
v -0.4077289 -0.1197782 0.0128699
v -0.02241375 -0.1155501 0.03607279
v -0.2455361 -0.2972628 -0.007882175
v -0.4077289 -0.1197782 0.0128699
v -1.450147 -0.5328736 0.7771828
v -1.197552 -0.4151735 0.6672132
v -1.32827 -0.6810284 0.9150074
v -1.00719 -0.4615656 0.9593369
v -1.25263 -0.595694 1.096223
v -0.9040771 -0.3031108 0.6673878
v -1.275038 -0.3783222 1.169281
v -1.076021 -0.2757437 0.93609
v -1.197552 -0.4151735 0.6672132
v -1.455709 -0.2433078 0.9244366
v -1.450147 -0.5328736 0.7771828
vt 0.007827759 0.05636597
vt 0.03414917 0.06488037
vt 0.01544952 0.03637695
vt 0.05932617 0.03530884
vt 0.04916382 0.003206253
vt 0.0645752 0.07073975
vt 0.07141113 0.03591919
vt 0.0970459 0.01250458
vt 0.09228516 0.05639648
vt 0.1156616 0.03979492
vt 0.9326172 0.7480469
vt 0.9145508 0.7807617
vt 0.9326172 0.7836914
vt 0.8945313 0.7382813
vt 0.8818359 0.7729492
vt 0.9414063 0.7207031
vt 0.8881836 0.7319336
vt 0.859375 0.7709961
vt 0.9335938 0.6845703
vt 0.9672852 0.6650391
vt 0.9604492 0.5874023
vt 0.9907227 0.6025391
vt 0.9311523 0.5883789
vt 0.9038086 0.6791992
vt 0.8359375 0.7373047
vt 0.8325195 0.7719727
vt 0.8613281 0.703125
vt 0.8447266 0.706543
vt 0.8652344 0.6474609
vt 0.8242188 0.6489258
vt 0.9008789 0.6220703
vt 0.8359375 0.5947266
vt 0.8173828 0.5810547
vt 0.8359375 0.5727539
vt 0.8623047 0.5961914
vt 0.847168 0.5761719
vt 0.8461914 0.5683594
vt 0.8227539 0.5571289
vt 0.8232422 0.5473633
vt 0.8598633 0.5605469
vt 0.8583984 0.5708008
vt 0.8935547 0.574707
vt 0.8945313 0.5644531
vt 0.909668 0.543457
vt 0.909668 0.5761719
vt 0.9106445 0.5712891
vt 0.934082 0.5712891
vt 0.9643555 0.5600586
vt 0.934082 0.5712891
vt 0.9624023 0.5776367
vt 0.9604492 0.5874023
vt 0.9926758 0.5629883
vt 0.9956055 0.5742188
vt 0.9755859 0.5859375
vt 0.9907227 0.6025391
vt 0.9946289 0.5883789
vt 0.4621582 0.7475586
vt 0.4216309 0.7929688
vt 0.4580078 0.8027344
vt 0.4199219 0.7514648
vt 0.3884277 0.7788086
vt 0.451416 0.7250977
vt 0.409668 0.7426758
vt 0.3798828 0.7431641
vt 0.4152832 0.7060547
vt 0.3752441 0.7060547
vt 0.6152344 0.9970703
vt 0.6850586 0.9824219
vt 0.6289063 0.9716797
vt 0.6782227 0.9335938
vt 0.6240234 0.9238281
vt 0.6801758 0.9018555
vt 0.6308594 0.9121094
vt 0.6303711 0.8886719
vt 0.6323242 0.8745117
vt 0.7436523 0.9790039
vt 0.6533203 0.8476563
vt 0.7099609 0.9287109
vt 0.7280273 0.8818359
vt 0.7128906 0.9101563
vt 0.7768555 0.9433594
vt 0.7490234 0.9213867
vt 0.8486328 0.9799805
vt 0.8510742 0.9970703
vt 0.8457031 0.9492188
vt 0.7827148 0.921875
vt 0.8598633 0.9291992
vt 0.7490234 0.909668
vt 0.7583008 0.8974609
vt 0.8779297 0.9067383
vt 0.7788086 0.8598633
vt 0.7275391 0.8305664
vt 0.6533203 0.8251953
vt 0.6669922 0.7890625
vt 0.6323242 0.8745117
vt 0.6445313 0.8056641
vt 0.6132813 0.7885742
vt 0.6240234 0.8398438
vt 0.6342773 0.8408203
vt 0.6235352 0.8730469
vt 0.590332 0.878418
vt 0.6235352 0.8867188
vt 0.6303711 0.8886719
vt 0.6308594 0.9121094
vt 0.6113281 0.8959961
vt 0.6113281 0.8959961
vt 0.6147461 0.909668
vt 0.5849609 0.9077148
vt 0.6240234 0.9238281
vt 0.6040039 0.9248047
vt 0.5722656 0.9677734
vt 0.6088867 0.9467773
vt 0.6289063 0.9716797
vt 0.6152344 0.9970703
vt 0.75 0.5356445
vt 0.7299805 0.5180664
vt 0.7241211 0.5336914
vt 0.7451172 0.4892578
vt 0.7285156 0.5039063
vt 0.7241211 0.5336914
vt 0.6616211 0.4938965
vt 0.6547852 0.5136719
vt 0.6274414 0.5073242
vt 0.7285156 0.4755859
vt 0.7285156 0.4755859
vt 0.7348633 0.4597168
vt 0.690918 0.4602051
vt 0.7661133 0.473877
vt 0.7661133 0.5009766
vt 0.7705078 0.5288086
vt 0.7407227 0.4470215
vt 0.715332 0.4472656
vt 0.7514648 0.4472656
vt 0.7670898 0.4475098
vt 0.7456055 0.4211426
vt 0.7666016 0.407959
vt 0.7363281 0.421875
vt 0.6635742 0.4089355
vt 0.6914063 0.4460449
vt 0.7456055 0.3928223
vt 0.7700195 0.369873
vt 0.7529297 0.362793
vt 0.7358398 0.3937988
vt 0.7421875 0.376709
vt 0.7319336 0.355957
vt 0.7299805 0.3747559
vt 0.6645508 0.4462891
vt 0.6601563 0.3820801
vt 0.7319336 0.355957
vt 0.6328125 0.390625
vt 0.6362305 0.4238281
vt 0.6362305 0.4558105
vt 0.5625 0.4150391
vt 0.5693359 0.3986816
vt 0.5454102 0.4521484
vt 0.559082 0.4765625
vt 0.565918 0.4907227
vt 0.8320313 0.05114746
vt 0.8120117 0.02812195
vt 0.8125 0.06530762
vt 0.7802734 0.04190063
vt 0.7895508 0.07171631
vt 0.7817383 0.008117676
vt 0.7641602 0.06982422
vt 0.7724609 0.03982544
vt 0.7456055 0.007827759
vt 0.7333984 0.0496521
vt 0.7158203 0.01644897
vn -0.2076416 -0.01916504 0.9780273
vn -0.3227539 0.0140686 0.9462891
vn 0.4050293 -0.8833008 0.2359619
vn 0.8310547 -0.07452393 -0.5512695
vn 0.5947266 0.2158203 -0.7744141
vn 0.8027344 0.1619873 0.5737305
vn 0.373291 0.8857422 -0.2753906
vn 0.0209198 0.9916992 0.1256104
vn -0.3227539 0.0140686 0.9462891
vn -0.2076416 -0.01916504 0.9780273
vn 0.9960938 -0.002008438 0.08782959
vn 0.4685059 0.8745117 0.1247559
vn 0.9916992 -0.02172852 0.1280518
vn -0.8603516 0.4902344 -0.1384277
vn -0.9667969 -0.1119995 -0.2294922
vn 0.8266602 0.0009336472 -0.5625
vn -0.9824219 -0.1820068 -0.03985596
vn 0.1599121 -0.9829102 -0.09332275
vn 0.1799316 0.8588867 -0.4797363
vn 0.574707 0.1826172 -0.7978516
vn -0.004436493 0.8291016 -0.5595703
vn 0.1345215 0.1090088 -0.9848633
vn -0.6147461 0.769043 0.1750488
vn -0.7734375 -0.3376465 0.5361328
vn 0.9960938 -0.002008438 0.08782959
vn 0.9916992 -0.02172852 0.1280518
vn 0.1118774 -0.9921875 -0.05755615
vn 0.8266602 0.0009336472 -0.5625
vn 0.04486084 -0.9926758 -0.1121826
vn 0.574707 0.1826172 -0.7978516
vn -0.7607422 -0.1083374 0.6401367
vn 0.4919434 -0.4067383 -0.7700195
vn 0.1345215 0.1090088 -0.9848633
vn 0.902832 0.09161377 -0.4204102
vn -0.007194519 -0.9960938 0.08630371
vn 0.1304932 -0.7783203 -0.6142578
vn 0.9501953 0.1791992 0.255127
vn 0.5615234 -0.06323242 0.8251953
vn -0.2076416 -0.01916504 0.9780273
vn 0.0209198 0.9916992 0.1256104
vn 0.8984375 -0.3149414 0.3063965
vn -0.08013916 -0.706543 0.703125
vn 0.921875 0.04248047 0.3852539
vn 0.5947266 0.2158203 -0.7744141
vn -0.6469727 -0.05804443 0.7602539
vn 0.2980957 0.1826172 0.9370117
vn 0.9072266 0.1750488 0.3825684
vn 0.4050293 -0.8833008 0.2359619
vn 0.3806152 0.8300781 0.4074707
vn 0.7641602 -0.2546387 0.5922852
vn -0.04373169 0.859375 -0.5097656
vn -0.2076416 -0.01916504 0.9780273
vn 0.5615234 -0.06323242 0.8251953
vn 0.8364258 0.4707031 -0.28125
vn 0.1345215 0.1090088 -0.9848633
vn 0.902832 0.09161377 -0.4204102
vn 0.5205078 0.8442383 0.1282959
vn -0.6870117 0.385498 0.6157227
vn -0.828125 0.03016663 0.5600586
vn 0.9072266 0.3115234 0.2832031
vn 0.3481445 -0.09814453 0.9321289
vn 0.9946289 0.08404541 -0.0581665
vn 0.6235352 -0.7758789 0.0960083
vn -0.6870117 0.385498 0.6157227
vn 0.1291504 -0.8608398 0.4926758
vn -0.828125 0.03016663 0.5600586
vn 0.980957 0.1322021 -0.1420898
vn 0.8994141 0.2290039 -0.3725586
vn 0.6694336 -0.4958496 -0.5532227
vn 0.003887177 -0.9599609 -0.2805176
vn -0.09765625 -0.9946289 -0.03997803
vn -0.9941406 0.08355713 -0.06835938
vn -0.6708984 -0.7275391 -0.1422119
vn -0.9995117 -0.03161621 0.007987976
vn -0.9277344 0.3718262 0.03068542
vn 0.7177734 -0.6958008 0.01657104
vn -0.004283905 0.9648438 -0.2624512
vn -0.4030762 -0.8457031 -0.3491211
vn -0.07049561 0.996582 -0.03695679
vn -0.9794922 0.06695557 -0.1898193
vn -0.375 -0.8544922 -0.359375
vn -0.9204102 -0.1618652 -0.355957
vn 0.4128418 -0.8935547 0.1766357
vn 0.8657227 0.1463623 0.4785156
vn -0.8720703 -0.007549286 -0.4892578
vn -0.8466797 0.2407227 -0.4748535
vn 0.1564941 0.9838867 0.08648682
vn -0.940918 0.1574707 -0.3000488
vn 0.07409668 0.9970703 -0.01263428
vn 0.8657227 0.1463623 0.4785156
vn 0.7177734 -0.6958008 0.01657104
vn 0.8994141 0.2290039 -0.3725586
vn 0.3691406 0.9174805 -0.147583
vn 0.980957 0.1322021 -0.1420898
vn -0.8193359 0.4702148 0.3286133
vn 0.6147461 0.1766357 0.7685547
vn -0.828125 0.03016663 0.5600586
vn 0.1291504 -0.8608398 0.4926758
vn 0.3649902 0.3222656 0.8735352
vn 0.08850098 0.2487793 0.9643555
vn 0.9946289 0.08404541 -0.0581665
vn -0.565918 -0.1021729 0.8183594
vn -0.9306641 -0.04525757 0.3635254
vn -0.4089355 -0.8588867 0.3081055
vn 0.5263672 -0.1610107 0.8349609
vn 0.9067383 0.3310547 0.2617188
vn 0.4709473 -0.3122559 0.8251953
vn 0.5205078 0.8442383 0.1282959
vn -0.08343506 -0.9951172 -0.05340576
vn 0.279541 0.7490234 0.6010742
vn -0.828125 0.03016663 0.5600586
vn 0.4711914 -0.2612305 0.8422852
vn 0.777832 -0.5917969 -0.2111816
vn 0.980957 0.1322021 -0.1420898
vn -0.7578125 -0.1135864 0.6425781
vn -0.4020996 -0.8867188 -0.227417
vn 0.307373 -0.003152847 -0.9516602
vn -0.815918 -0.3127441 0.486084
vn 0.03546143 -0.9985352 0.04489136
vn -0.2185059 -0.3120117 -0.9248047
vn 0.4147949 -0.8779297 -0.2393799
vn -0.4609375 0.001150131 -0.887207
vn -0.5888672 -0.07263184 -0.8051758
vn 0.8847656 -0.4489746 0.1259766
vn 0.6455078 -0.7109375 0.279541
vn 0.5053711 -0.1425781 0.8510742
vn 0.7558594 -0.1505127 0.637207
vn -0.6621094 0.5830078 -0.4711914
vn -0.3288574 0.8701172 0.3674316
vn 0.2171631 0.3117676 0.9248047
vn -0.6733398 0.175415 0.7182617
vn 0.5615234 0.434082 0.7045898
vn -0.887207 -0.4069824 -0.2180176
vn -0.5395508 -0.3825684 -0.75
vn -0.875 -0.2307129 0.4255371
vn 0.2565918 -0.9233398 0.2851563
vn -0.1452637 0.9462891 0.2890625
vn -0.2244873 0.9575195 -0.1813965
vn 0.5673828 0.3242188 0.7568359
vn -0.8652344 -0.282959 0.4143066
vn 0.2171631 0.3117676 0.9248047
vn -0.7578125 -0.1135864 0.6425781
vn -0.4943848 0.6391602 -0.5888672
vn -0.9331055 -0.08618164 -0.3496094
vn 0.307373 -0.003152847 -0.9516602
vn -0.3554688 0.1677246 -0.9194336
vn 0.5893555 0.3786621 0.7138672
vn -0.4609375 0.001150131 -0.887207
vn -0.2185059 -0.3120117 -0.9248047
vn -0.5888672 -0.07263184 -0.8051758
vn 0.08056641 0.9829102 0.1645508
vn 0.722168 -0.1496582 0.675293
vn -0.3955078 0.8911133 -0.2215576
vn -0.6567383 -0.1350098 -0.7416992
vn 0.8359375 -0.1409912 0.5307617
vn -0.0131073 -0.9960938 -0.08984375
vn -0.6567383 -0.1350098 -0.7416992
vn 0.2171631 0.3117676 0.9248047
vn 0.1422119 0.3063965 0.9414063
vn -0.3288574 0.8701172 0.3674316
vn -0.7739258 0.01277924 -0.6333008
vn -0.6621094 0.5830078 -0.4711914
vn -0.8071289 -0.2341309 0.5419922
vn -0.5395508 -0.3825684 -0.75
vn -0.534668 -0.6508789 -0.5390625
vn 0.1422119 0.3063965 0.9414063
vn 0.2565918 -0.9233398 0.2851563
vn 0.2171631 0.3117676 0.9248047
g ENV_Spongebob_Coral_0_LOD2_0
f 3/3/3 2/2/2 1/1/1
f 2/2/2 3/3/3 4/4/4
f 5/5/5 4/4/4 3/3/3
f 4/4/4 6/6/6 2/2/2
f 4/4/4 5/5/5 7/7/7
f 7/7/7 6/6/6 4/4/4
f 8/8/8 7/7/7 5/5/5
f 9/9/9 6/6/6 7/7/7
f 7/7/7 8/8/8 9/9/9
f 10/10/10 9/9/9 8/8/8
f 13/13/13 12/12/12 11/11/11
f 14/14/14 11/11/11 12/12/12
f 12/12/12 15/15/15 14/14/14
f 16/16/16 11/11/11 14/14/14
f 17/17/17 14/14/14 15/15/15
f 18/18/18 17/17/17 15/15/15
f 14/14/14 19/19/19 16/16/16
f 20/20/20 16/16/16 19/19/19
f 19/19/19 21/21/21 20/20/20
f 22/22/22 20/20/20 21/21/21
f 21/21/21 19/19/19 23/23/23
f 19/19/19 14/14/14 24/24/24
f 17/17/17 24/24/24 14/14/14
f 23/23/23 19/19/19 24/24/24
f 25/25/25 17/17/17 18/18/18
f 26/26/26 25/25/25 18/18/18
f 25/25/25 27/27/27 17/17/17
f 24/24/24 17/17/17 27/27/27
f 27/27/27 25/25/25 28/28/28
f 28/28/28 29/29/29 27/27/27
f 27/27/27 29/29/29 24/24/24
f 29/29/29 28/28/28 30/30/30
f 31/31/31 23/23/23 24/24/24
f 31/31/31 24/24/24 29/29/29
f 30/30/30 32/32/32 29/29/29
f 32/32/32 30/30/30 33/33/33
f 32/32/32 33/33/33 34/34/34
f 29/29/29 32/32/32 35/35/35
f 29/29/29 35/35/35 31/31/31
f 34/34/34 36/36/36 32/32/32
f 32/32/32 36/36/36 35/35/35
f 36/36/36 34/34/34 37/37/37
f 38/38/38 37/37/37 34/34/34
f 37/37/37 38/38/38 39/39/39
f 39/39/39 40/40/40 37/37/37
f 37/37/37 41/41/41 36/36/36
f 35/35/35 36/36/36 41/41/41
f 41/41/41 37/37/37 40/40/40
f 35/35/35 42/42/42 31/31/31
f 41/41/41 42/42/42 35/35/35
f 40/40/40 43/43/43 41/41/41
f 41/41/41 43/43/43 42/42/42
f 40/40/40 44/44/44 43/43/43
f 45/45/45 31/31/31 42/42/42
f 31/31/31 45/45/45 23/23/23
f 43/43/43 46/46/46 42/42/42
f 43/43/43 44/44/44 46/46/46
f 45/45/45 42/42/42 46/46/46
f 47/47/47 46/46/46 44/44/44
f 48/48/48 47/47/47 44/44/44
f 46/46/46 49/49/49 45/45/45
f 23/23/23 45/45/45 49/49/49
f 50/50/50 47/47/47 48/48/48
f 49/49/49 51/51/51 23/23/23
f 51/51/51 49/49/49 50/50/50
f 48/48/48 52/52/52 50/50/50
f 53/53/53 50/50/50 52/52/52
f 50/50/50 54/54/54 51/51/51
f 50/50/50 53/53/53 54/54/54
f 55/55/55 51/51/51 54/54/54
f 56/56/56 54/54/54 53/53/53
f 55/55/55 54/54/54 56/56/56
f 59/59/59 58/58/58 57/57/57
f 60/60/60 57/57/57 58/58/58
f 58/58/58 61/61/61 60/60/60
f 57/57/57 60/60/60 62/62/62
f 60/60/60 61/61/61 63/63/63
f 63/63/63 62/62/62 60/60/60
f 63/63/63 61/61/61 64/64/64
f 62/62/62 63/63/63 65/65/65
f 64/64/64 66/66/66 63/63/63
f 65/65/65 63/63/63 66/66/66
f 69/69/69 68/68/68 67/67/67
f 70/70/70 68/68/68 69/69/69
f 69/69/69 71/71/71 70/70/70
f 70/70/70 71/71/71 72/72/72
f 73/73/73 72/72/72 71/71/71
f 72/72/72 73/73/73 74/74/74
f 75/75/75 72/72/72 74/74/74
f 70/70/70 76/76/76 68/68/68
f 75/75/75 77/77/77 72/72/72
f 76/76/76 70/70/70 78/78/78
f 72/72/72 78/78/78 70/70/70
f 79/79/79 72/72/72 77/77/77
f 78/78/78 72/72/72 80/80/80
f 80/80/80 72/72/72 79/79/79
f 76/76/76 78/78/78 81/81/81
f 80/80/80 82/82/82 78/78/78
f 81/81/81 78/78/78 82/82/82
f 81/81/81 83/83/83 76/76/76
f 76/76/76 83/83/83 84/84/84
f 85/85/85 83/83/83 81/81/81
f 86/86/86 85/85/85 81/81/81
f 81/81/81 82/82/82 86/86/86
f 87/87/87 85/85/85 86/86/86
f 82/82/82 80/80/80 88/88/88
f 88/88/88 86/86/86 82/82/82
f 79/79/79 88/88/88 80/80/80
f 86/86/86 89/89/89 87/87/87
f 86/86/86 88/88/88 89/89/89
f 88/88/88 79/79/79 89/89/89
f 87/87/87 89/89/89 90/90/90
f 90/90/90 89/89/89 91/91/91
f 89/89/89 92/92/92 91/91/91
f 92/92/92 89/89/89 79/79/79
f 77/77/77 92/92/92 79/79/79
f 92/92/92 77/77/77 93/93/93
f 93/93/93 94/94/94 92/92/92
f 95/95/95 93/93/93 77/77/77
f 94/94/94 93/93/93 96/96/96
f 94/94/94 96/96/96 97/97/97
f 98/98/98 97/97/97 96/96/96
f 99/99/99 96/96/96 93/93/93
f 96/96/96 99/99/99 98/98/98
f 93/93/93 95/95/95 99/99/99
f 99/99/99 100/100/100 98/98/98
f 100/100/100 99/99/99 95/95/95
f 98/98/98 100/100/100 101/101/101
f 95/95/95 102/102/102 100/100/100
f 101/101/101 100/100/100 102/102/102
f 102/102/102 95/95/95 103/103/103
f 103/103/103 104/104/104 102/102/102
f 102/102/102 104/104/104 105/105/105
f 102/102/102 106/106/106 101/101/101
f 107/107/107 105/105/105 104/104/104
f 108/108/108 101/101/101 106/106/106
f 104/104/104 109/109/109 107/107/107
f 106/106/106 110/110/110 108/108/108
f 110/110/110 106/106/106 107/107/107
f 110/110/110 111/111/111 108/108/108
f 112/112/112 107/107/107 109/109/109
f 107/107/107 112/112/112 110/110/110
f 111/111/111 110/110/110 112/112/112
f 109/109/109 113/113/113 112/112/112
f 112/112/112 114/114/114 111/111/111
f 114/114/114 112/112/112 113/113/113
f 117/117/117 116/116/116 115/115/115
f 116/116/116 118/118/118 115/115/115
f 116/116/116 119/119/119 118/118/118
f 116/116/116 120/120/120 119/119/119
f 120/120/120 121/121/121 119/119/119
f 120/120/120 122/122/122 121/121/121
f 122/122/122 123/123/123 121/121/121
f 118/118/118 119/119/119 124/124/124
f 125/125/125 119/119/119 121/121/121
f 124/124/124 126/126/126 118/118/118
f 125/125/125 121/121/121 127/127/127
f 126/126/126 125/125/125 127/127/127
f 128/128/128 115/115/115 118/118/118
f 128/128/128 129/129/129 115/115/115
f 130/130/130 115/115/115 129/129/129
f 131/131/131 118/118/118 126/126/126
f 118/118/118 131/131/131 128/128/128
f 126/126/126 127/127/127 132/132/132
f 132/132/132 131/131/131 126/126/126
f 133/133/133 128/128/128 131/131/131
f 133/133/133 134/134/134 128/128/128
f 133/133/133 135/135/135 134/134/134
f 135/135/135 133/133/133 131/131/131
f 134/134/134 135/135/135 136/136/136
f 131/131/131 132/132/132 137/137/137
f 135/135/135 131/131/131 137/137/137
f 138/138/138 137/137/137 132/132/132
f 132/132/132 139/139/139 138/138/138
f 139/139/139 132/132/132 127/127/127
f 136/136/136 135/135/135 140/140/140
f 140/140/140 141/141/141 136/136/136
f 142/142/142 141/141/141 140/140/140
f 137/137/137 143/143/143 135/135/135
f 140/140/140 135/135/135 143/143/143
f 137/137/137 138/138/138 143/143/143
f 142/142/142 140/140/140 144/144/144
f 143/143/143 144/144/144 140/140/140
f 144/144/144 145/145/145 142/142/142
f 146/146/146 145/145/145 144/144/144
f 144/144/144 143/143/143 146/146/146
f 143/143/143 138/138/138 146/146/146
f 127/127/127 147/147/147 139/139/139
f 147/147/147 127/127/127 121/121/121
f 148/148/148 146/146/146 138/138/138
f 148/148/148 149/149/149 146/146/146
f 138/138/138 150/150/150 148/148/148
f 151/151/151 138/138/138 139/139/139
f 139/139/139 147/147/147 151/151/151
f 121/121/121 152/152/152 147/147/147
f 151/151/151 147/147/147 152/152/152
f 152/152/152 121/121/121 123/123/123
f 150/150/150 138/138/138 153/153/153
f 153/153/153 138/138/138 151/151/151
f 153/153/153 154/154/154 150/150/150
f 151/151/151 155/155/155 153/153/153
f 155/155/155 151/151/151 152/152/152
f 156/156/156 155/155/155 152/152/152
f 156/156/156 152/152/152 123/123/123
f 156/156/156 123/123/123 157/157/157
f 160/160/160 159/159/159 158/158/158
f 159/159/159 160/160/160 161/161/161
f 162/162/162 161/161/161 160/160/160
f 161/161/161 163/163/163 159/159/159
f 164/164/164 161/161/161 162/162/162
f 165/165/165 163/163/163 161/161/161
f 161/161/161 164/164/164 165/165/165
f 166/166/166 163/163/163 165/165/165
f 167/167/167 165/165/165 164/164/164
f 165/165/165 167/167/167 166/166/166
f 168/168/168 166/166/166 167/167/167
