g ENV_Spongebob_Cliff_02_LOD2
v -5.239488 -0.7875016 9.032337
v -3.505171 -3.186899 10.46195
v -5.321403 0.4680472 6.373245
v 11.56873 1.891029 0.04084842
v 11.73641 -1.867756 -0.05094218
v 7.619242 -1.258412 4.503325
v 5.6779 4.519909 4.209491
v 8.911678 5.34602 -0.1020277
v 4.944984 7.601184 0.009684056
v 0.1101225 6.815679 4.095705
v 0.7744512 8.378042 0.009612984
v -2.801372 6.663505 4.341351
v -6.427689 7.673406 0.1260152
v -7.232788 4.581995 3.793479
v -4.799752 4.893771 4.886916
v -2.591591 5.492695 5.105298
v 1.748898 4.795719 4.679196
v -1.725799 4.142746 6.881656
v -4.585037 2.249953 6.557214
v 5.208264 1.28949 4.956848
v 1.188891 3.606301 6.759787
v 4.134365 -3.489398 4.62065
v 5.76993 -4.122725 4.206387
v 2.289549 0.7305083 6.205414
v 2.224581 -0.817027 7.312562
v 1.268149 -3.472561 6.833763
v -2.227536 4.594279 11.56314
v -3.258431 3.622977 9.331003
v 0.9091827 2.673492 13.89525
v -3.775911 4.450382 19.06053
v -4.752448 3.878863 12.25151
v -1.419028 1.20342 19.82956
v 1.086789 -0.964013 15.30543
v -3.702691 2.840833 20.68598
v -7.740047 5.425209 17.17843
v -10.59729 3.370171 15.61685
v -8.813123 5.086085 19.5658
v -5.638323 4.450786 20.4252
v -4.861054 2.847128 21.16042
v -3.932349 0.9109087 20.62578
v -4.861054 2.847128 21.16042
v -3.702691 2.840833 20.68598
v -1.419028 1.20342 19.82956
v -4.415804 -1.709989 20.99828
v -4.051006 -2.909217 20.94865
v -7.38329 -4.320119 20.28518
v -2.240965 -2.86976 19.54652
v -9.174486 5.524904 -0.04242811
v -6.427689 7.673406 0.1260152
v -7.232788 4.581995 3.793479
v -10.69594 1.849666 0.02007793
v -7.635331 1.537542 4.128166
v -4.799752 4.893771 4.886916
v -5.551548 0.6617922 5.911938
v -5.551548 0.6617922 5.911938
v -4.799752 4.893771 4.886916
v -4.585037 2.249953 6.557214
v -5.321403 0.4680472 6.373245
v -5.158095 0.874189 9.004767
v -3.258431 3.622977 9.331003
v -1.725799 4.142746 6.881656
v -7.606794 0.9736495 12.16306
v -4.752448 3.878863 12.25151
v -10.59729 3.370171 15.61685
v -10.83006 1.142986 15.29412
v -11.19947 2.760955 17.57116
v -11.91057 0.8396648 17.15989
v -8.813123 5.086085 19.5658
v -7.740047 5.425209 17.17843
v -5.269735 -1.147044 6.416919
v -7.635331 1.537542 4.128166
v -5.551548 0.6617922 5.911938
v -5.997271 -3.336755 4.757759
v -2.990744 -3.179732 7.298236
v -5.606843 -5.851576 3.83818
v -8.130438 -1.450652 4.076198
v -10.69594 1.849666 0.02007793
v -9.1186 -5.222775 0.1195303
v -11.91057 0.8396648 17.15989
v -11.68134 -1.057752 17.61487
v -11.30019 -2.85186 16.96131
v -10.80044 -2.41063 17.9877
v -10.16977 -4.295428 17.90165
v -5.239488 -0.7875016 9.032337
v -6.639708 -0.6789846 10.82754
v -3.505171 -3.186899 10.46195
v -8.530821 -4.177614 15.08893
v -11.05028 -0.9225707 15.41865
v -11.30019 -2.85186 16.96131
v -10.16977 -4.295428 17.90165
v -5.588252 -5.231082 17.90473
v -8.363563 -5.215005 19.21013
v -4.478914 -4.292345 19.61742
v -3.030024 -4.145291 17.56391
v -1.913814 -4.205586 13.07125
v 0.1711611 -3.646398 12.13781
v -0.1039371 -4.198395 6.871145
v 1.268149 -3.472561 6.833763
v -2.990744 -3.179732 7.298236
v -0.3814352 -5.514489 4.881125
v -5.269735 -1.147044 6.416919
v -6.201872 -7.296052 -0.1150289
v -9.1186 -5.222775 0.1195303
v -5.606843 -5.851576 3.83818
v -2.805159 -8.40387 0.03798095
v 0.06068901 -6.599766 4.503558
v 4.975865 -7.385329 0.03178223
v -0.3814352 -5.514489 4.881125
v -2.990744 -3.179732 7.298236
v 5.76993 -4.122725 4.206387
v 9.412588 -5.315593 0.03437606
v 11.73641 -1.867756 -0.05094218
v 7.619242 -1.258412 4.503325
v 4.134365 -3.489398 4.62065
v 1.268149 -3.472561 6.833763
v -0.1039371 -4.198395 6.871145
v -3.505171 -3.186899 10.46195
v -5.269735 -1.147044 6.416919
v -5.321403 0.4680472 6.373245
v -5.551548 0.6617922 5.911938
v -5.158095 0.874189 9.004767
v -5.239488 -0.7875016 9.032337
v -6.639708 -0.6789846 10.82754
v -7.606794 0.9736495 12.16306
v -11.05028 -0.9225707 15.41865
v -10.83006 1.142986 15.29412
v -11.91057 0.8396648 17.15989
v -11.30019 -2.85186 16.96131
v -7.38329 -4.320119 20.28518
v -4.478914 -4.292345 19.61742
v -8.363563 -5.215005 19.21013
v -4.051006 -2.909217 20.94865
v -2.240965 -2.86976 19.54652
v -3.030024 -4.145291 17.56391
v 0.1711611 -3.646398 12.13781
v 1.086789 -0.964013 15.30543
v -1.419028 1.20342 19.82956
v 2.233823 0.67225 10.27254
v 0.9091827 2.673492 13.89525
v 1.268149 -3.472561 6.833763
v 1.188891 3.606301 6.759787
v 2.224581 -0.817027 7.312562
v -4.861054 2.847128 21.16042
v -8.604218 4.13286 19.74765
v -5.638323 4.450786 20.4252
v -8.813123 5.086085 19.5658
v -8.813123 5.086085 19.5658
v -8.604218 4.13286 19.74765
v -11.19947 2.760955 17.57116
v -11.51322 0.7907017 17.70527
v -11.91057 0.8396648 17.15989
v -11.68134 -1.057752 17.61487
v -10.80044 -2.41063 17.9877
v -8.026211 0.156109 19.75439
v -4.861054 2.847128 21.16042
v -3.932349 0.9109087 20.62578
v -4.415804 -1.709989 20.99828
v -7.38329 -4.320119 20.28518
v -10.16977 -4.295428 17.90165
v -8.363563 -5.215005 19.21013
vt 0.1768799 0.4147949
vt 0.2137451 0.369873
vt 0.1350098 0.4262695
vt 0.137085 0.03268433
vt 0.09655762 0.06323242
vt 0.1561279 0.1242065
vt 0.2341309 0.08129883
vt 0.1939697 0.01515198
vt 0.2575684 0.01034546
vt 0.3254395 0.07470703
vt 0.3164063 0.01152039
vt 0.369873 0.07611084
vt 0.4162598 0.01047516
vt 0.440918 0.07110596
vt 0.4072266 0.09173584
vt 0.3713379 0.09747314
vt 0.2944336 0.104248
vt 0.3635254 0.1442871
vt 0.4301758 0.1383057
vt 0.2088623 0.12854
vt 0.3054199 0.1551514
vt 0.1503906 0.1875
vt 0.1308594 0.1660156
vt 0.2443848 0.1779785
vt 0.2319336 0.2142334
vt 0.1855469 0.255127
vt 0.3879395 0.2241211
vt 0.4001465 0.1866455
vt 0.3435059 0.2702637
vt 0.4182129 0.3200684
vt 0.4243164 0.232666
vt 0.3774414 0.3400879
vt 0.3203125 0.3115234
vt 0.4108887 0.345459
vt 0.4624023 0.2976074
vt 0.4973145 0.2758789
vt 0.4758301 0.3237305
vt 0.4394531 0.3371582
vt 0.4187012 0.3500977
vt 0.3962402 0.3637695
vt 0.4187012 0.3500977
vt 0.4108887 0.345459
vt 0.3774414 0.3400879
vt 0.3742676 0.3894043
vt 0.3605957 0.3930664
vt 0.3435059 0.434082
vt 0.3466797 0.3728027
vt 0.4628906 0.01457977
vt 0.4162598 0.01047516
vt 0.440918 0.07110596
vt 0.5126953 0.03817749
vt 0.473877 0.09765625
vt 0.4072266 0.09173584
vt 0.4597168 0.1341553
vt 0.4597168 0.1341553
vt 0.4072266 0.09173584
vt 0.4301758 0.1383057
vt 0.4580078 0.1418457
vt 0.4516602 0.1750488
vt 0.4001465 0.1866455
vt 0.3635254 0.1442871
vt 0.4794922 0.2166748
vt 0.4243164 0.232666
vt 0.4973145 0.2758789
vt 0.5170898 0.2602539
vt 0.5117188 0.2946777
vt 0.5336914 0.2827148
vt 0.4758301 0.3237305
vt 0.4624023 0.2976074
vt 0.1334229 0.4025879
vt 0.0949707 0.4506836
vt 0.1274414 0.4287109
vt 0.09539795 0.3752441
vt 0.1610107 0.3466797
vt 0.07073975 0.3422852
vt 0.07696533 0.4143066
vt 0.03031921 0.4782715
vt 0.01000214 0.378418
vt 0.2753906 0.5209961
vt 0.291748 0.5039063
vt 0.2954102 0.4816895
vt 0.3017578 0.4853516
vt 0.3103027 0.4655762
vt 0.1768799 0.4147949
vt 0.2062988 0.4360352
vt 0.2137451 0.369873
vt 0.2824707 0.4440918
vt 0.2680664 0.4904785
vt 0.2954102 0.4816895
vt 0.3103027 0.4655762
vt 0.3193359 0.4133301
vt 0.3293457 0.4467773
vt 0.3410645 0.401123
vt 0.3205566 0.3806152
vt 0.2644043 0.3525391
vt 0.2607422 0.3188477
vt 0.1727295 0.2824707
vt 0.1855469 0.255127
vt 0.1610107 0.3466797
vt 0.1212769 0.2727051
vt 0.1334229 0.4025879
vt 0.01146698 0.3305664
vt 0.01000214 0.378418
vt 0.07073975 0.3422852
vt 0.02526855 0.2819824
vt 0.1045532 0.2614746
vt 0.05532837 0.1774902
vt 0.1212769 0.2727051
vt 0.1610107 0.3466797
vt 0.1308594 0.1660156
vt 0.07055664 0.1129761
vt 0.09655762 0.06323242
vt 0.1561279 0.1242065
vt 0.1503906 0.1875
vt 0.1855469 0.255127
vt 0.1727295 0.2824707
vt 0.2137451 0.369873
vt 0.1334229 0.4025879
vt 0.1350098 0.4262695
vt 0.1274414 0.4287109
vt 0.1671143 0.4370117
vt 0.1768799 0.4147949
vt 0.2062988 0.4360352
vt 0.2087402 0.467041
vt 0.2680664 0.4904785
vt 0.2497559 0.5078125
vt 0.2753906 0.5209961
vt 0.2954102 0.4816895
vt 0.3435059 0.434082
vt 0.3410645 0.401123
vt 0.3293457 0.4467773
vt 0.3605957 0.3930664
vt 0.3466797 0.3728027
vt 0.3205566 0.3806152
vt 0.2607422 0.3188477
vt 0.3203125 0.3115234
vt 0.3774414 0.3400879
vt 0.2900391 0.2392578
vt 0.3435059 0.2702637
vt 0.1855469 0.255127
vt 0.3054199 0.1551514
vt 0.2319336 0.2142334
vt 0.1451416 0.5947266
vt 0.08398438 0.6069336
vt 0.1270752 0.6152344
vt 0.08081055 0.6147461
vt 0.08081055 0.6147461
vt 0.08398438 0.6069336
vt 0.03952026 0.5810547
vt 0.03826904 0.5517578
vt 0.03134155 0.5517578
vt 0.03851318 0.5244141
vt 0.05541992 0.5063477
vt 0.09851074 0.5488281
vt 0.1451416 0.5947266
vt 0.1573486 0.5678711
vt 0.1572266 0.5273438
vt 0.1182861 0.4846191
vt 0.07012939 0.4846191
vt 0.09820557 0.473877
vn -0.8686523 -0.2858887 -0.4042969
vn -0.5302734 -0.7919922 -0.3024902
vn -0.9755859 0.1177368 0.1856689
vn 0.6499023 0.2491455 0.7177734
vn 0.6723633 -0.05853271 0.737793
vn 0.644043 0.01637268 0.7651367
vn 0.5722656 0.5292969 0.6269531
vn 0.5253906 0.5302734 0.6655273
vn 0.2902832 0.8408203 0.456543
vn 0.144165 0.8256836 0.5454102
vn 0.1307373 0.9399414 0.3156738
vn -0.104248 0.8823242 0.4584961
vn -0.282959 0.9272461 0.2459717
vn -0.6801758 0.4797363 0.5537109
vn -0.3354492 0.4587402 0.8227539
vn 0.0411377 0.5283203 0.8481445
vn 0.3051758 0.7011719 0.6445313
vn -0.2042236 0.9780273 0.04501343
vn -0.6210938 0.4375 0.6503906
vn 0.2196045 -0.02319336 0.9750977
vn 0.621582 0.7783203 0.09155273
vn 0.2043457 -0.2141113 0.9550781
vn 0.4746094 -0.621582 0.6230469
vn 0.7226563 0.01730347 0.690918
vn 0.9946289 -0.01690674 0.09997559
vn 0.7607422 -0.6362305 0.1279297
vn -0.1209717 0.9804688 -0.1553955
vn -0.439209 0.8950195 -0.07592773
vn 0.8344727 0.4765625 0.2768555
vn 0.4543457 0.8261719 0.3337402
vn -0.2819824 0.90625 -0.3146973
vn 0.7617188 0.1691895 0.6254883
vn 0.9516602 -0.1100464 0.2871094
vn 0.5175781 0.4318848 0.7387695
vn 0.0005984306 0.9624023 -0.2722168
vn -0.5488281 0.5576172 -0.6230469
vn -0.3903809 0.7006836 0.597168
vn 0.0390625 0.5517578 0.8330078
vn -0.2341309 -0.1195068 0.9648438
vn 0.0355835 -0.1144409 0.9926758
vn -0.2341309 -0.1195068 0.9648438
vn 0.5175781 0.4318848 0.7387695
vn 0.7617188 0.1691895 0.6254883
vn -0.1687012 0.08837891 0.9819336
vn 0.2819824 -0.4970703 0.8208008
vn -0.2473145 0.002733231 0.96875
vn 0.6513672 -0.6289063 0.4248047
vn -0.6640625 0.59375 0.4545898
vn -0.282959 0.9272461 0.2459717
vn -0.6801758 0.4797363 0.5537109
vn -0.8007813 0.15979 0.5776367
vn -0.7285156 0.1248779 0.6733398
vn -0.3354492 0.4587402 0.8227539
vn -0.7353516 0.149292 0.6611328
vn -0.7353516 0.149292 0.6611328
vn -0.3354492 0.4587402 0.8227539
vn -0.6210938 0.4375 0.6503906
vn -0.9755859 0.1177368 0.1856689
vn -0.8500977 0.2966309 -0.4353027
vn -0.439209 0.8950195 -0.07592773
vn -0.2042236 0.9780273 0.04501343
vn -0.6806641 0.2685547 -0.6816406
vn -0.2819824 0.90625 -0.3146973
vn -0.5488281 0.5576172 -0.6230469
vn -0.6557617 0.1077881 -0.7470703
vn -0.8735352 0.3266602 0.3605957
vn -0.9536133 0.1690674 0.2492676
vn -0.3903809 0.7006836 0.597168
vn 0.0005984306 0.9624023 -0.2722168
vn -0.9296875 -0.3178711 0.1867676
vn -0.7285156 0.1248779 0.6733398
vn -0.7353516 0.149292 0.6611328
vn -0.5224609 -0.21875 0.8242188
vn -0.4602051 -0.8857422 0.06274414
vn -0.4990234 -0.7543945 0.4262695
vn -0.8374023 -0.07275391 0.5419922
vn -0.8007813 0.15979 0.5776367
vn -0.7680664 -0.4472656 0.4587402
vn -0.9536133 0.1690674 0.2492676
vn -0.9458008 -0.1618652 0.2810059
vn -0.8764648 -0.4638672 -0.1280518
vn -0.5078125 -0.123291 0.8525391
vn -0.6420898 -0.765625 -0.03860474
vn -0.8686523 -0.2858887 -0.4042969
vn -0.7114258 -0.1695557 -0.6816406
vn -0.5302734 -0.7919922 -0.3024902
vn -0.3186035 -0.7841797 -0.5327148
vn -0.7070313 -0.1020508 -0.699707
vn -0.8764648 -0.4638672 -0.1280518
vn -0.6420898 -0.765625 -0.03860474
vn 0.1877441 -0.9716797 -0.1435547
vn -0.2756348 -0.9575195 0.08447266
vn 0.3283691 -0.7792969 0.5332031
vn 0.5795898 -0.7915039 0.1942139
vn 0.0280304 -0.9995117 -0.02456665
vn 0.6538086 -0.7246094 0.2183838
vn 0.0970459 -0.9912109 0.0880127
vn 0.7607422 -0.6362305 0.1279297
vn -0.4602051 -0.8857422 0.06274414
vn 0.07830811 -0.5083008 0.8574219
vn -0.9296875 -0.3178711 0.1867676
vn -0.4157715 -0.730957 0.5415039
vn -0.7680664 -0.4472656 0.4587402
vn -0.4990234 -0.7543945 0.4262695
vn -0.1739502 -0.8803711 0.4414063
vn 0.0880127 -0.9145508 0.3950195
vn 0.3183594 -0.8085938 0.4943848
vn 0.07830811 -0.5083008 0.8574219
vn -0.4602051 -0.8857422 0.06274414
vn 0.4746094 -0.621582 0.6230469
vn 0.4672852 -0.7050781 0.5332031
vn 0.6723633 -0.05853271 0.737793
vn 0.644043 0.01637268 0.7651367
vn 0.2043457 -0.2141113 0.9550781
vn 0.7607422 -0.6362305 0.1279297
vn 0.0970459 -0.9912109 0.0880127
vn -0.5302734 -0.7919922 -0.3024902
vn -0.9296875 -0.3178711 0.1867676
vn -0.9755859 0.1177368 0.1856689
vn -0.7353516 0.149292 0.6611328
vn -0.8500977 0.2966309 -0.4353027
vn -0.8686523 -0.2858887 -0.4042969
vn -0.7114258 -0.1695557 -0.6816406
vn -0.6806641 0.2685547 -0.6816406
vn -0.7070313 -0.1020508 -0.699707
vn -0.6557617 0.1077881 -0.7470703
vn -0.9536133 0.1690674 0.2492676
vn -0.8764648 -0.4638672 -0.1280518
vn -0.2473145 0.002733231 0.96875
vn 0.3283691 -0.7792969 0.5332031
vn -0.2756348 -0.9575195 0.08447266
vn 0.2819824 -0.4970703 0.8208008
vn 0.6513672 -0.6289063 0.4248047
vn 0.5795898 -0.7915039 0.1942139
vn 0.6538086 -0.7246094 0.2183838
vn 0.9516602 -0.1100464 0.2871094
vn 0.7617188 0.1691895 0.6254883
vn 0.9887695 0.135498 0.05975342
vn 0.8344727 0.4765625 0.2768555
vn 0.7607422 -0.6362305 0.1279297
vn 0.621582 0.7783203 0.09155273
vn 0.9946289 -0.01690674 0.09997559
vn -0.2341309 -0.1195068 0.9648438
vn -0.373291 0.0350647 0.9272461
vn 0.0390625 0.5517578 0.8330078
vn -0.3903809 0.7006836 0.597168
vn -0.3903809 0.7006836 0.597168
vn -0.373291 0.0350647 0.9272461
vn -0.8735352 0.3266602 0.3605957
vn -0.5742188 0.08966064 0.8139648
vn -0.9536133 0.1690674 0.2492676
vn -0.9458008 -0.1618652 0.2810059
vn -0.5078125 -0.123291 0.8525391
vn -0.4211426 -0.008979797 0.9067383
vn -0.2341309 -0.1195068 0.9648438
vn 0.0355835 -0.1144409 0.9926758
vn -0.1687012 0.08837891 0.9819336
vn -0.2473145 0.002733231 0.96875
vn -0.6420898 -0.765625 -0.03860474
vn -0.2756348 -0.9575195 0.08447266
g ENV_Spongebob_Cliff_02_LOD2_0
f 3/3/3 2/2/2 1/1/1
f 6/6/6 5/5/5 4/4/4
f 4/4/4 7/7/7 6/6/6
f 8/8/8 7/7/7 4/4/4
f 9/9/9 7/7/7 8/8/8
f 7/7/7 9/9/9 10/10/10
f 11/11/11 10/10/10 9/9/9
f 10/10/10 11/11/11 12/12/12
f 13/13/13 12/12/12 11/11/11
f 14/14/14 12/12/12 13/13/13
f 14/14/14 15/15/15 12/12/12
f 12/12/12 16/16/16 10/10/10
f 16/16/16 12/12/12 15/15/15
f 7/7/7 10/10/10 17/17/17
f 17/17/17 10/10/10 16/16/16
f 15/15/15 18/18/18 16/16/16
f 16/16/16 18/18/18 17/17/17
f 18/18/18 15/15/15 19/19/19
f 6/6/6 7/7/7 20/20/20
f 7/7/7 17/17/17 20/20/20
f 21/21/21 17/17/17 18/18/18
f 17/17/17 21/21/21 20/20/20
f 20/20/20 22/22/22 6/6/6
f 23/23/23 6/6/6 22/22/22
f 20/20/20 24/24/24 22/22/22
f 24/24/24 20/20/20 21/21/21
f 25/25/25 22/22/22 24/24/24
f 21/21/21 25/25/25 24/24/24
f 26/26/26 22/22/22 25/25/25
f 18/18/18 27/27/27 21/21/21
f 27/27/27 18/18/18 28/28/28
f 27/27/27 29/29/29 21/21/21
f 27/27/27 30/30/30 29/29/29
f 31/31/31 27/27/27 28/28/28
f 31/31/31 30/30/30 27/27/27
f 30/30/30 32/32/32 29/29/29
f 32/32/32 33/33/33 29/29/29
f 34/34/34 32/32/32 30/30/30
f 35/35/35 30/30/30 31/31/31
f 31/31/31 36/36/36 35/35/35
f 30/30/30 35/35/35 37/37/37
f 37/37/37 38/38/38 30/30/30
f 38/38/38 34/34/34 30/30/30
f 39/39/39 34/34/34 38/38/38
f 42/42/42 41/41/41 40/40/40
f 40/40/40 43/43/43 42/42/42
f 43/43/43 40/40/40 44/44/44
f 43/43/43 44/44/44 45/45/45
f 45/45/45 44/44/44 46/46/46
f 47/47/47 43/43/43 45/45/45
f 50/50/50 49/49/49 48/48/48
f 48/48/48 51/51/51 50/50/50
f 52/52/52 50/50/50 51/51/51
f 53/53/53 50/50/50 52/52/52
f 52/52/52 54/54/54 53/53/53
f 57/57/57 56/56/56 55/55/55
f 58/58/58 57/57/57 55/55/55
f 58/58/58 59/59/59 57/57/57
f 60/60/60 57/57/57 59/59/59
f 57/57/57 60/60/60 61/61/61
f 59/59/59 62/62/62 60/60/60
f 63/63/63 60/60/60 62/62/62
f 63/63/63 62/62/62 64/64/64
f 65/65/65 64/64/64 62/62/62
f 64/64/64 65/65/65 66/66/66
f 67/67/67 66/66/66 65/65/65
f 66/66/66 68/68/68 64/64/64
f 64/64/64 68/68/68 69/69/69
f 72/72/72 71/71/71 70/70/70
f 73/73/73 70/70/70 71/71/71
f 70/70/70 73/73/73 74/74/74
f 74/74/74 73/73/73 75/75/75
f 73/73/73 71/71/71 76/76/76
f 73/73/73 76/76/76 75/75/75
f 76/76/76 71/71/71 77/77/77
f 76/76/76 78/78/78 75/75/75
f 77/77/77 78/78/78 76/76/76
f 81/81/81 80/80/80 79/79/79
f 80/80/80 81/81/81 82/82/82
f 82/82/82 81/81/81 83/83/83
f 86/86/86 85/85/85 84/84/84
f 87/87/87 85/85/85 86/86/86
f 87/87/87 88/88/88 85/85/85
f 88/88/88 87/87/87 89/89/89
f 87/87/87 90/90/90 89/89/89
f 90/90/90 87/87/87 91/91/91
f 91/91/91 92/92/92 90/90/90
f 92/92/92 91/91/91 93/93/93
f 94/94/94 93/93/93 91/91/91
f 87/87/87 95/95/95 91/91/91
f 94/94/94 91/91/91 95/95/95
f 95/95/95 87/87/87 86/86/86
f 95/95/95 96/96/96 94/94/94
f 95/95/95 97/97/97 96/96/96
f 97/97/97 95/95/95 86/86/86
f 96/96/96 97/97/97 98/98/98
f 86/86/86 99/99/99 97/97/97
f 97/97/97 99/99/99 100/100/100
f 99/99/99 86/86/86 101/101/101
f 104/104/104 103/103/103 102/102/102
f 102/102/102 105/105/105 104/104/104
f 105/105/105 106/106/106 104/104/104
f 106/106/106 105/105/105 107/107/107
f 106/106/106 108/108/108 104/104/104
f 104/104/104 108/108/108 109/109/109
f 106/106/106 107/107/107 110/110/110
f 111/111/111 110/110/110 107/107/107
f 112/112/112 110/110/110 111/111/111
f 110/110/110 112/112/112 113/113/113
f 114/114/114 106/106/106 110/110/110
f 108/108/108 106/106/106 114/114/114
f 108/108/108 114/114/114 115/115/115
f 116/116/116 108/108/108 115/115/115
f 119/119/119 118/118/118 117/117/117
f 120/120/120 118/118/118 119/119/119
f 122/122/122 121/121/121 119/119/119
f 123/123/123 121/121/121 122/122/122
f 124/124/124 121/121/121 123/123/123
f 123/123/123 125/125/125 124/124/124
f 124/124/124 125/125/125 126/126/126
f 126/126/126 125/125/125 127/127/127
f 128/128/128 127/127/127 125/125/125
f 131/131/131 130/130/130 129/129/129
f 129/129/129 130/130/130 132/132/132
f 132/132/132 130/130/130 133/133/133
f 134/134/134 133/133/133 130/130/130
f 135/135/135 133/133/133 134/134/134
f 133/133/133 135/135/135 136/136/136
f 136/136/136 137/137/137 133/133/133
f 135/135/135 138/138/138 136/136/136
f 139/139/139 136/136/136 138/138/138
f 140/140/140 138/138/138 135/135/135
f 138/138/138 141/141/141 139/139/139
f 138/138/138 140/140/140 142/142/142
f 141/141/141 138/138/138 142/142/142
f 145/145/145 144/144/144 143/143/143
f 146/146/146 144/144/144 145/145/145
f 149/149/149 148/148/148 147/147/147
f 148/148/148 149/149/149 150/150/150
f 151/151/151 150/150/150 149/149/149
f 152/152/152 150/150/150 151/151/151
f 150/150/150 152/152/152 153/153/153
f 150/150/150 154/154/154 148/148/148
f 153/153/153 154/154/154 150/150/150
f 148/148/148 154/154/154 155/155/155
f 155/155/155 154/154/154 156/156/156
f 154/154/154 157/157/157 156/156/156
f 158/158/158 157/157/157 154/154/154
f 158/158/158 154/154/154 153/153/153
f 153/153/153 159/159/159 158/158/158
f 160/160/160 158/158/158 159/159/159
