g ENV_Spongebob_Rock_01
v -0.1462825 2.233022 0.005294621
v 0.1936547 2.289736 0.4407536
v -0.717891 1.929093 0.4572402
v -1.353559 1.78353 0.005401254
v 0.4969615 2.367309 0.005539834
v 1.159632 2.246364 0.6819986
v 1.206266 2.316381 0.005171478
v -2.211387 1.364952 0.3669819
v -2.874372 0.8327645 0.005328774
v 0.4717101 2.239209 0.7217244
v 1.710947 2.061424 0.7292799
v 2.37772 1.923069 0.005649149
v 0.6316913 1.944092 1.426168
v 2.736368 1.503356 0.7422113
v 1.710694 1.830316 1.099221
v 1.125949 1.515487 1.994461
v 1.815811 1.189273 1.889291
v 2.585797 1.20196 1.039644
v 3.13135 0.447316 0.6573131
v 3.0349 1.337286 0.417634
v 3.160297 1.088668 0.005211771
v 3.21505 0.7598662 0.3925169
v 3.274076 0.4532427 0.005143642
v 0.4098448 1.424898 2.164663
v 3.038358 -0.298671 0.7239841
v 2.917614 -0.9196925 0.005260646
v 2.425683 -1.315289 0.7783555
v 2.650629 -1.417463 0.005366027
v 2.6424 -0.5161211 0.8918289
v 2.777642 0.6933529 0.9481237
v 2.153704 0.6705685 1.811175
v 2.53317 0.04997018 1.409
v 2.288357 -0.4866739 1.488843
v 2.127129 -1.355808 0.9855393
v 2.135556 -1.623639 0.7095749
v 2.001209 -1.819102 0.5419875
v 1.225151 -2.192497 0.005294681
v 1.905941 0.07031029 2.131132
v 1.71915 -1.073217 1.987695
v 1.214335 -1.634665 1.568414
v 0.8359064 -2.250062 0.3866125
v 0.01283429 -1.8773 1.444615
v 2.058926 -0.5728683 1.830233
v 1.454189 -0.568941 2.357832
v -0.4736213 -2.367309 0.5054036
v -0.7632546 -2.36376 0.005198479
v 0.9820309 -1.059939 2.300238
v 0.5649354 -1.65456 1.726686
v 0.4835897 -2.239659 0.6043129
v -0.3892525 -2.056082 0.8263559
v 0.6534001 0.6309604 2.332656
v 0.6785918 -0.5229242 2.399185
v 0.2798524 -1.014911 2.186227
v 0.2380485 0.9940107 2.157468
v -0.271416 -1.265841 1.778234
v -0.6138597 0.1509508 2.044322
v -0.5942536 -0.4146746 2.039382
v -0.2788261 1.072163 1.879616
v -0.5817954 1.500664 1.179999
v -0.8896485 0.7430949 1.852163
v -1.011045 0.3000764 1.993328
v -1.092199 -0.2285389 2.029016
v -1.94734 0.1992194 2.114059
v -1.07816 -0.7341896 1.829953
v -1.536588 -0.4549056 2.087911
v -0.918146 -1.128288 1.845315
v -1.793361 0.62801 1.859599
v -0.7140512 -1.480759 1.479051
v -0.5765208 -1.800435 1.282346
v -1.504406 -1.85086 1.033313
v -0.7581154 -2.163355 0.3797642
v -1.103503 -2.286747 0.4056902
v -1.749251 -2.117262 0.5523305
v -2.455112 -1.717506 0.005557477
v -2.20398 -1.319337 1.689677
v -2.783552 -1.304985 0.6763566
v -2.839863 -1.410801 0.005158305
v -1.811246 -1.155705 1.937981
v -3.023206 -1.12347 0.4789921
v -2.019466 -0.7267106 2.206728
v -2.475606 -0.4935226 2.015386
v -2.45597 -0.04481268 1.933897
v -3.255885 -0.6903109 0.4936907
v -3.267286 -0.4739954 0.005152047
v -2.830475 -0.6559316 1.235848
v -2.371148 0.3876935 1.665758
v -3.046412 0.0177275 0.8231641
v -3.274075 -0.2064714 0.3988396
v -3.112018 0.4805755 0.005145311
v -2.935683 0.4424735 0.7307127
v -2.25244 0.7630645 1.677654
v -2.607458 1.05923 0.3961445
v -2.636415 0.7906192 0.6174891
v -2.319728 1.187372 0.7263657
v -1.636514 1.047662 1.747872
v -1.302665 1.644022 0.6557623
v -1.151806 1.293779 1.367151
v -0.9660591 1.590505 0.683938
vt 0.2980957 0.01171112
vt 0.270752 0.06958008
vt 0.3720703 0.05444336
vt 0.4428711 0.01000214
vt 0.2207031 0.03353882
vt 0.1912842 0.1331787
vt 0.1416016 0.07489014
vt 0.5307617 0.06634521
vt 0.6357422 0.05593872
vt 0.2556152 0.1073608
vt 0.15271 0.1779785
vt 0.04016113 0.1953125
vt 0.2702637 0.1730957
vt 0.09881592 0.2773438
vt 0.1799316 0.2106934
vt 0.2626953 0.2392578
vt 0.2269287 0.279541
vt 0.1357422 0.2988281
vt 0.09875488 0.3879395
vt 0.06033325 0.302002
vt 0.01000214 0.3300781
vt 0.06237793 0.3640137
vt 0.02505493 0.4138184
vt 0.3078613 0.2272949
vt 0.1384277 0.4501953
vt 0.1256104 0.5615234
vt 0.2331543 0.5146484
vt 0.1916504 0.5996094
vt 0.1846924 0.4506836
vt 0.1326904 0.3508301
vt 0.21875 0.3239746
vt 0.1987305 0.3840332
vt 0.2337646 0.4152832
vt 0.263916 0.4992676
vt 0.2700195 0.5341797
vt 0.2873535 0.5581055
vt 0.3833008 0.6142578
vt 0.2609863 0.3525391
vt 0.3034668 0.4189453
vt 0.3508301 0.4594727
vt 0.4125977 0.5644531
vt 0.4431152 0.4448242
vt 0.2636719 0.4020996
vt 0.3085938 0.3752441
vt 0.5288086 0.512207
vt 0.5791016 0.5400391
vt 0.3476563 0.3925781
vt 0.3942871 0.4338379
vt 0.4365234 0.5341797
vt 0.4992676 0.4775391
vt 0.3200684 0.2839355
vt 0.3520508 0.3530273
vt 0.3908691 0.3752441
vt 0.3327637 0.2462158
vt 0.4438477 0.3850098
vt 0.4204102 0.2719727
vt 0.4353027 0.3117676
vt 0.3676758 0.2145996
vt 0.3764648 0.1401367
vt 0.4230957 0.217041
vt 0.4443359 0.2485352
vt 0.4645996 0.2841797
vt 0.5097656 0.2368164
vt 0.4787598 0.3208008
vt 0.5009766 0.2858887
vt 0.4841309 0.3515625
vt 0.4919434 0.2061768
vt 0.4882813 0.3952637
vt 0.4909668 0.4284668
vt 0.5693359 0.4035645
vt 0.5478516 0.4863281
vt 0.5791016 0.4819336
vt 0.6191406 0.4309082
vt 0.7241211 0.3947754
vt 0.5722656 0.322998
vt 0.6704102 0.3100586
vt 0.746582 0.3308105
vt 0.5395508 0.3198242
vt 0.6948242 0.286377
vt 0.5341797 0.2885742
vt 0.5566406 0.2678223
vt 0.5478516 0.2401123
vt 0.6948242 0.2386475
vt 0.7456055 0.2012939
vt 0.6196289 0.2612305
vt 0.5405273 0.2052002
vt 0.6347656 0.1885986
vt 0.6875 0.1896973
vt 0.6806641 0.09283447
vt 0.6152344 0.151001
vt 0.5219727 0.1843262
vt 0.5786133 0.08544922
vt 0.5830078 0.1196289
vt 0.5380859 0.1044922
vt 0.4770508 0.1763916
vt 0.434082 0.08233643
vt 0.4313965 0.1550293
vt 0.4050293 0.0914917
vn -0.3134766 0.940918 0.1297607
vn -0.2160645 0.9428711 0.2531738
vn -0.3532715 0.859375 0.3701172
vn -0.3774414 0.9140625 0.1490479
vn -0.04428101 0.9921875 0.1154175
vn 0.1699219 0.9423828 0.2875977
vn 0.1967773 0.9741211 0.1119385
vn -0.4951172 0.8676758 0.04348755
vn -0.7607422 0.6362305 0.1271973
vn -0.1289063 0.9326172 0.3371582
vn 0.3383789 0.8789063 0.3359375
vn 0.4931641 0.8583984 0.1417236
vn -0.111084 0.8583984 0.5009766
vn 0.6279297 0.5981445 0.4978027
vn 0.3793945 0.7695313 0.5136719
vn 0.2397461 0.5698242 0.7861328
vn 0.456543 0.4599609 0.7617188
vn 0.6625977 0.3781738 0.6464844
vn 0.8359375 -0.004150391 0.5488281
vn 0.8222656 0.5239258 0.22229
vn 0.918457 0.3955078 -0.01098633
vn 0.9487305 0.1508789 0.2780762
vn 0.9916992 -0.0536499 0.117981
vn -0.1887207 0.4750977 0.859375
vn 0.7866211 -0.1918945 0.5869141
vn 0.8808594 -0.4152832 0.2280273
vn 0.6772461 -0.5 0.5395508
vn 0.7460938 -0.6254883 0.2287598
vn 0.6699219 -0.2509766 0.6987305
vn 0.746582 0.07269287 0.6616211
vn 0.6928711 0.1727295 0.7001953
vn 0.8022461 -0.1114502 0.5869141
vn 0.7993164 -0.2822266 0.5307617
vn 0.6162109 -0.5332031 0.5795898
vn 0.5249023 -0.7299805 0.4382324
vn 0.1865234 -0.8339844 0.519043
vn 0.310791 -0.940918 0.1348877
vn 0.550293 0.05862427 0.8330078
vn 0.5571289 -0.5273438 0.6411133
vn 0.2954102 -0.8139648 0.5004883
vn 0.1982422 -0.9624023 0.185791
vn -0.1132813 -0.7905273 0.6020508
vn 0.7763672 -0.2390137 0.5834961
vn 0.3435059 -0.1278076 0.9306641
vn -0.1800537 -0.8759766 0.4470215
vn -0.1135254 -0.9931641 -0.02999878
vn 0.07452393 -0.4919434 0.8671875
vn 0.001342773 -0.7661133 0.6430664
vn 0.1523438 -0.9038086 0.3996582
vn -0.1517334 -0.8574219 0.4921875
vn -0.003007889 0.2487793 0.96875
vn -0.1130371 -0.08166504 0.9902344
vn -0.2644043 -0.4265137 0.8647461
vn -0.2033691 0.206543 0.9570313
vn -0.2373047 -0.5185547 0.8212891
vn -0.1575928 0.0246582 0.9873047
vn -0.2104492 -0.1981201 0.9575195
vn -0.4013672 0.6166992 0.6772461
vn -0.322998 0.7695313 0.5507813
vn -0.1975098 0.5385742 0.8193359
vn -0.02903748 0.1673584 0.9853516
vn 0.05300903 -0.1157837 0.9916992
vn -0.232666 0.2490234 0.9399414
vn 0.2568359 -0.07214355 0.9638672
vn 0.1728516 -0.01725769 0.9848633
vn 0.1402588 -0.3508301 0.9257813
vn -0.1663818 0.4499512 0.8774414
vn -0.128418 -0.6665039 0.734375
vn -0.2011719 -0.75 0.6303711
vn -0.06262207 -0.8349609 0.546875
vn -0.2038574 -0.3850098 0.8999023
vn -0.09301758 -0.7924805 0.6025391
vn -0.3044434 -0.9287109 0.2106934
vn -0.5620117 -0.8198242 0.1089478
vn -0.4396973 -0.6674805 0.6010742
vn -0.6733398 -0.6733398 0.3056641
vn -0.7314453 -0.6767578 0.08654785
vn -0.08496094 -0.6445313 0.7597656
vn -0.8149414 -0.5415039 0.2056885
vn -0.2025146 -0.2185059 0.9545898
vn -0.6713867 -0.1015625 0.734375
vn -0.6308594 0.2590332 0.7314453
vn -0.9433594 -0.2492676 0.2185059
vn -0.987793 -0.1184692 -0.09936523
vn -0.859375 -0.201416 0.4694824
vn -0.6787109 0.3752441 0.6313477
vn -0.8818359 0.2105713 0.4216309
vn -0.9726563 0.1489258 0.177124
vn -0.890625 0.4162598 0.18396
vn -0.8237305 0.4465332 0.3491211
vn -0.5634766 0.4650879 0.6831055
vn -0.6972656 0.6821289 0.2200928
vn -0.6376953 0.6030273 0.4790039
vn -0.5761719 0.7456055 0.3349609
vn 0.1072998 0.5395508 0.8349609
vn -0.2161865 0.8901367 0.4016113
vn 0.007820129 0.7568359 0.6533203
vn -0.1525879 0.7822266 0.6040039
g ENV_Spongebob_Rock_01_0
f 3/3/3 2/2/2 1/1/1
f 3/3/3 1/1/1 4/4/4
f 5/5/5 1/1/1 2/2/2
f 5/5/5 2/2/2 6/6/6
f 7/7/7 5/5/5 6/6/6
f 8/8/8 3/3/3 4/4/4
f 4/4/4 9/9/9 8/8/8
f 3/3/3 10/10/10 2/2/2
f 6/6/6 2/2/2 10/10/10
f 6/6/6 11/11/11 7/7/7
f 11/11/11 12/12/12 7/7/7
f 10/10/10 3/3/3 13/13/13
f 6/6/6 10/10/10 13/13/13
f 14/14/14 12/12/12 11/11/11
f 6/6/6 15/15/15 11/11/11
f 15/15/15 14/14/14 11/11/11
f 6/6/6 13/13/13 16/16/16
f 15/15/15 6/6/6 16/16/16
f 15/15/15 16/16/16 17/17/17
f 18/18/18 15/15/15 17/17/17
f 15/15/15 18/18/18 14/14/14
f 18/18/18 19/19/19 14/14/14
f 14/14/14 20/20/20 12/12/12
f 14/14/14 19/19/19 20/20/20
f 12/12/12 20/20/20 21/21/21
f 20/20/20 22/22/22 21/21/21
f 19/19/19 22/22/22 20/20/20
f 23/23/23 21/21/21 22/22/22
f 23/23/23 22/22/22 19/19/19
f 16/16/16 13/13/13 24/24/24
f 16/16/16 24/24/24 17/17/17
f 23/23/23 19/19/19 25/25/25
f 26/26/26 23/23/23 25/25/25
f 25/25/25 27/27/27 26/26/26
f 27/27/27 28/28/28 26/26/26
f 25/25/25 19/19/19 29/29/29
f 29/29/29 27/27/27 25/25/25
f 30/30/30 29/29/29 19/19/19
f 18/18/18 30/30/30 19/19/19
f 30/30/30 18/18/18 31/31/31
f 18/18/18 17/17/17 31/31/31
f 29/29/29 30/30/30 32/32/32
f 30/30/30 31/31/31 32/32/32
f 29/29/29 32/32/32 33/33/33
f 32/32/32 31/31/31 33/33/33
f 29/29/29 34/34/34 27/27/27
f 34/34/34 29/29/29 33/33/33
f 27/27/27 35/35/35 28/28/28
f 34/34/34 35/35/35 27/27/27
f 35/35/35 36/36/36 28/28/28
f 36/36/36 37/37/37 28/28/28
f 35/35/35 37/37/37 36/36/36
f 31/31/31 17/17/17 38/38/38
f 33/33/33 31/31/31 38/38/38
f 34/34/34 33/33/33 39/39/39
f 34/34/34 40/40/40 35/35/35
f 40/40/40 34/34/34 39/39/39
f 35/35/35 41/41/41 37/37/37
f 40/40/40 41/41/41 35/35/35
f 41/41/41 40/40/40 42/42/42
f 43/43/43 33/33/33 38/38/38
f 39/39/39 33/33/33 43/43/43
f 43/43/43 38/38/38 44/44/44
f 39/39/39 43/43/43 44/44/44
f 38/38/38 17/17/17 44/44/44
f 37/37/37 41/41/41 45/45/45
f 46/46/46 37/37/37 45/45/45
f 40/40/40 39/39/39 47/47/47
f 39/39/39 44/44/44 47/47/47
f 42/42/42 40/40/40 48/48/48
f 40/40/40 47/47/47 48/48/48
f 49/49/49 41/41/41 42/42/42
f 45/45/45 41/41/41 49/49/49
f 50/50/50 49/49/49 42/42/42
f 50/50/50 45/45/45 49/49/49
f 17/17/17 51/51/51 44/44/44
f 47/47/47 44/44/44 52/52/52
f 44/44/44 51/51/51 52/52/52
f 48/48/48 47/47/47 53/53/53
f 47/47/47 52/52/52 53/53/53
f 17/17/17 54/54/54 51/51/51
f 17/17/17 24/24/24 54/54/54
f 55/55/55 48/48/48 53/53/53
f 42/42/42 48/48/48 55/55/55
f 51/51/51 56/56/56 52/52/52
f 51/51/51 54/54/54 56/56/56
f 53/53/53 52/52/52 57/57/57
f 55/55/55 53/53/53 57/57/57
f 52/52/52 56/56/56 57/57/57
f 24/24/24 58/58/58 54/54/54
f 13/13/13 58/58/58 24/24/24
f 13/13/13 59/59/59 58/58/58
f 3/3/3 59/59/59 13/13/13
f 58/58/58 60/60/60 54/54/54
f 59/59/59 60/60/60 58/58/58
f 54/54/54 61/61/61 56/56/56
f 60/60/60 61/61/61 54/54/54
f 62/62/62 57/57/57 56/56/56
f 61/61/61 62/62/62 56/56/56
f 60/60/60 63/63/63 61/61/61
f 63/63/63 62/62/62 61/61/61
f 62/62/62 64/64/64 57/57/57
f 64/64/64 55/55/55 57/57/57
f 65/65/65 64/64/64 62/62/62
f 63/63/63 65/65/65 62/62/62
f 66/66/66 55/55/55 64/64/64
f 65/65/65 66/66/66 64/64/64
f 59/59/59 67/67/67 60/60/60
f 67/67/67 63/63/63 60/60/60
f 68/68/68 55/55/55 66/66/66
f 68/68/68 42/42/42 55/55/55
f 69/69/69 42/42/42 68/68/68
f 50/50/50 42/42/42 69/69/69
f 70/70/70 50/50/50 69/69/69
f 70/70/70 69/69/69 68/68/68
f 50/50/50 70/70/70 71/71/71
f 50/50/50 71/71/71 45/45/45
f 71/71/71 72/72/72 45/45/45
f 45/45/45 72/72/72 46/46/46
f 71/71/71 73/73/73 72/72/72
f 72/72/72 73/73/73 46/46/46
f 70/70/70 73/73/73 71/71/71
f 73/73/73 74/74/74 46/46/46
f 70/70/70 68/68/68 75/75/75
f 70/70/70 75/75/75 73/73/73
f 73/73/73 76/76/76 74/74/74
f 75/75/75 76/76/76 73/73/73
f 77/77/77 74/74/74 76/76/76
f 78/78/78 68/68/68 66/66/66
f 75/75/75 68/68/68 78/78/78
f 79/79/79 76/76/76 75/75/75
f 77/77/77 76/76/76 79/79/79
f 80/80/80 78/78/78 66/66/66
f 80/80/80 66/66/66 65/65/65
f 81/81/81 75/75/75 78/78/78
f 81/81/81 78/78/78 80/80/80
f 79/79/79 75/75/75 81/81/81
f 82/82/82 80/80/80 65/65/65
f 81/81/81 80/80/80 82/82/82
f 82/82/82 65/65/65 63/63/63
f 79/79/79 83/83/83 77/77/77
f 83/83/83 84/84/84 77/77/77
f 85/85/85 79/79/79 81/81/81
f 85/85/85 81/81/81 82/82/82
f 85/85/85 83/83/83 79/79/79
f 86/86/86 82/82/82 63/63/63
f 86/86/86 63/63/63 67/67/67
f 87/87/87 85/85/85 82/82/82
f 85/85/85 87/87/87 83/83/83
f 87/87/87 82/82/82 86/86/86
f 83/83/83 88/88/88 84/84/84
f 83/83/83 87/87/87 88/88/88
f 88/88/88 89/89/89 84/84/84
f 87/87/87 89/89/89 88/88/88
f 87/87/87 90/90/90 89/89/89
f 90/90/90 87/87/87 86/86/86
f 9/9/9 89/89/89 90/90/90
f 91/91/91 86/86/86 67/67/67
f 90/90/90 86/86/86 91/91/91
f 9/9/9 90/90/90 92/92/92
f 9/9/9 92/92/92 8/8/8
f 92/92/92 90/90/90 93/93/93
f 93/93/93 90/90/90 91/91/91
f 92/92/92 93/93/93 94/94/94
f 8/8/8 92/92/92 94/94/94
f 94/94/94 93/93/93 91/91/91
f 95/95/95 91/91/91 67/67/67
f 94/94/94 91/91/91 95/95/95
f 94/94/94 96/96/96 8/8/8
f 96/96/96 94/94/94 95/95/95
f 96/96/96 3/3/3 8/8/8
f 97/97/97 95/95/95 67/67/67
f 96/96/96 95/95/95 97/97/97
f 97/97/97 67/67/67 59/59/59
f 3/3/3 98/98/98 59/59/59
f 98/98/98 3/3/3 96/96/96
f 98/98/98 96/96/96 97/97/97
f 98/98/98 97/97/97 59/59/59
